<?xml version="1.0" encoding="utf-8"?>
<!-- Generator: Adobe Illustrator 29.1.0, SVG Export Plug-In . SVG Version: 9.03 Build 55587)  -->
<svg version="1.0" id="Calque_1" xmlns="http://www.w3.org/2000/svg" xmlns:xlink="http://www.w3.org/1999/xlink" x="0px" y="0px"
	 viewBox="0 0 616 423" style="enable-background:new 0 0 616 423;" xml:space="preserve">
<style type="text/css">
	.st0{clip-path:url(#SVGID_00000090985943652491407850000014136949342776248754_);}
	.st1{clip-path:url(#SVGID_00000029016795082549028340000001652974460190153089_);}
	.st2{fill:#FFFFFF;}
	.st3{fill:none;stroke:#FFFFFF;}
	.st4{clip-path:url(#SVGID_00000006665696793950788130000000632583634168866738_);}
	.st5{fill:none;stroke:#FFFFFF;stroke-miterlimit:1;stroke-dasharray:0,0,6.22,6.22;}
	.st6{fill:none;stroke:#FFFFFF;stroke-miterlimit:1;}
</style>
<g>
	<defs>
		<rect id="SVGID_1_" width="616" height="423"/>
	</defs>
	<clipPath id="SVGID_00000005947149349711194270000008491646781199376296_">
		<use xlink:href="#SVGID_1_"  style="overflow:visible;"/>
	</clipPath>
	<g style="clip-path:url(#SVGID_00000005947149349711194270000008491646781199376296_);">
		<g>
			<defs>
				<rect id="SVGID_00000147184223730559187080000007184237099606755514_" width="616" height="423"/>
			</defs>
			<clipPath id="SVGID_00000136381540277523687410000010431195826036076691_">
				<use xlink:href="#SVGID_00000147184223730559187080000007184237099606755514_"  style="overflow:visible;"/>
			</clipPath>
			<g style="clip-path:url(#SVGID_00000136381540277523687410000010431195826036076691_);">
				<path class="st2" d="M460.1,163.7c6,0,13.1-1.5,17.7-17l23.8-78.9c1.9-6.3,3.4-9.9,9.9-9.9v-3.4h-19V58c8.3,0,7,3.4,5.1,9.9
					l-8.2,28.2l-7-28.6c-2-8.2-2.4-9.5,4.1-9.5v-3.4h-44.5V58c7.5,0,9.4,1.5,12.1,9.5l22.8,65.6l-3.6,11.9
					c-0.3,7.1-2.4,11.2-5.1,11.2c-3.1,0-3.6-4.9-3.6-11.4c0-7.8-3.4-11.7-9.9-11.7c-5.8,0-11.2,2.9-11.2,12.4
					C443.4,153.9,447.5,163.7,460.1,163.7 M397.9,103.7c0-10,1.7-14.6,8.8-14.8v22.8c-0.9,2.2-2.7,3.4-4.6,3.4
					C399,115.1,397.9,112.2,397.9,103.7 M427.1,128c16.3,0,23.5-9.2,25-12.2l-1.4-1.4c-1.4,2.4-3.9,3.9-6.8,3.9
					c-3.7,0-5.6-2-5.6-10.4V75.7c0-4.2,0-23.1-30.3-23.1c-15.3,0-32.5,4.8-32.5,18c0,6.5,4.1,9.3,11.7,9.3c6.6,0,13.1-2.2,13.1-9
					c0-12.6,0.5-14.6,3.2-14.6c3.1,0,3.1,2.7,3.1,11v19.2c-18.5,0-38.8,4.8-38.8,22.6c0,13.4,11,18.9,20.6,18.9s16.5-4.9,18.4-11.4
					C407.9,121.6,413.8,128,427.1,128 M315.1,126h50.7v-3.4c-9.5,0-9.5-1.7-9.5-7.8V17.2h-41.1v3.4c9.5,0,9.5,1.7,9.5,7.8v86.4
					c0,6.1,0,7.8-9.5,7.8V126z M270,112.1V68.7c0.9-3.9,2.9-5.6,5.3-5.6c5.6,0,7.6,9,7.6,26.3c0,18.7-2.4,28.1-7.3,28.1
					C273.2,117.5,271,115.5,270,112.1 M228.9,161.7h50.7v-3.4c-9.5,0-9.5-1.7-9.5-7.8v-35.4c1.4,4.2,5.1,12.9,17.3,12.9
					c16.7,0,27.2-16.3,27.2-39.3s-9.9-36.2-26.7-36.2c-10.9,0-16.3,6-17.9,13.1v-11h-41.1V58c9.5,0,9.5,1.7,9.5,7.8v84.7
					c0,6.1,0,7.8-9.5,7.8L228.9,161.7L228.9,161.7z M193.5,128c24,0,34.3-9.5,34.3-24.3c0-28.9-39.4-23.6-39.4-40.5
					c0-3.6,1.9-7,7.5-7c13.8,0,0.5,19.7,18.2,19.7c5.9,0,10.9-2.2,10.9-8.3c0-8-8.7-15.1-28.1-15.1c-21.6,0-33.2,8.8-33.2,23.3
					c0,26.5,39.1,22.3,39.1,40.6c0,4.9-2.9,7.8-8.3,7.8c-15,0-1.5-21.4-20.2-21.4c-6.5,0-11.6,2.6-11.6,9
					C162.8,120.6,172.1,128,193.5,128 M117,31.5c0,9.9,8.3,16,17,16s16.8-6.1,16.8-16c0-10.9-8.2-16.3-16.8-16.3S117,20.6,117,31.5
					 M108.9,126h50.7v-3.4c-9.5,0-9.5-1.7-9.5-7.8V54.6h-41.1V58c9.5,0,9.5,1.7,9.5,7.8v49c0,6.1,0,7.8-9.5,7.8V126z M60.9,116.1
					V20.9h1.7c7.5,0,10.7,18,10.7,50.7s-3.2,50.7-7.3,50.7h-2.4C60.9,122.3,60.9,120.6,60.9,116.1 M16,126h51.7
					c25.7,0,38.2-22.4,38.2-55.6c0-29.8-10-53.2-38.2-53.2H16v3.7C29,20.9,29,22.6,29,28.8v85.7c0,6.1,0,7.8-12.9,7.8V126z"/>
				<path class="st2" d="M403,409.4c1.5,0,2.9-1,2.9-2.9s-1.4-2.9-2.9-2.9s-2.9,1.1-2.9,2.9S401.5,409.4,403,409.4 M389.8,402.6
					c0-2.9,0.1-4.7,1.3-4.7c0.5,0,0.8,0.3,1,1v7.6c-0.2,0.7-0.6,1-1,1C390,407.5,389.8,406,389.8,402.6 M389.1,409.4
					c1.7,0,2.6-0.8,2.9-2.3v2h7.3v-0.6c-1.7,0-1.7-0.3-1.7-1.4v-17.2h-7.3v0.6c1.7,0,1.7,0.3,1.7,1.4v6.5c-0.2-1.1-1.2-2.3-3.1-2.3
					c-2.6,0-4.8,2.3-4.8,6.8S386.3,409.4,389.1,409.4 M367,409h8.1v-0.6c-0.8,0-0.8-0.3-0.8-1.4v-6.9c0.2-1.3,0.7-1.8,1.2-1.8
					c0.7,0,1,0.5,1,2.3v6.4c0,1.1,0,1.4-0.8,1.4v0.6h8.1v-0.6c-1.7,0-1.7-0.3-1.7-1.4v-6.3c0-2.8-1.1-4.6-3.9-4.6
					c-2.1,0-3.4,1.1-3.8,2.4v-2.1H367v0.6c1.7,0,1.7,0.3,1.7,1.4v8.6c0,1.1,0,1.4-1.7,1.4L367,409L367,409z M358.4,402.2
					c0-4,0.4-5.5,1.1-5.5c1,0,1.4,2.3,1.4,6.7s-0.4,5.3-1.1,5.3C358.9,408.7,358.4,406.6,358.4,402.2 M359.7,409.4
					c4.3,0,6.8-2.3,6.8-6.6c0-4.5-2.9-6.8-6.8-6.8s-6.8,2.3-6.8,6.8C352.9,407,355.4,409.4,359.7,409.4 M346.5,409.4
					c1.6,0,3-0.4,4.6-1.4l0.3-5h-1c-0.5,2.2-1.2,5.6-3,5.6c-1.4,0-2.4-1.8-2.4-9.2s1-9.2,2.4-9.2c1.9,0,2.5,3.5,3,5.6h1l-0.3-5
					c-1.6-1-2.9-1.4-4.6-1.4c-5.6,0-7.5,4.3-7.5,10S340.9,409.4,346.5,409.4 M322.2,405.1c0-1.8,0.3-2.6,1.6-2.6v4
					c-0.1,0.4-0.5,0.6-0.8,0.6C322.4,407.1,322.2,406.6,322.2,405.1 M327.3,409.4c2.9,0,4.1-1.6,4.4-2.2l-0.2-0.2
					c-0.2,0.4-0.7,0.7-1.2,0.7c-0.7,0-1-0.4-1-1.8v-5.7c0-0.8,0-4.1-5.3-4.1c-2.7,0-5.7,0.8-5.7,3.2c0,1.1,0.7,1.6,2.1,1.6
					c1.2,0,2.3-0.4,2.3-1.6c0-2.2,0.1-2.6,0.6-2.6c0.5,0,0.5,0.5,0.5,2v3.4c-3.3,0-6.8,0.8-6.8,4c0,2.4,2,3.3,3.6,3.3s2.9-0.9,3.2-2
					C323.9,408.2,325,409.4,327.3,409.4 M303.9,409h9.5v-0.6c-2.2,0-2.2-0.3-2.2-1.4v-7.1c0.2-1.1,0.6-1.7,1.3-1.7
					c1.3,0,0.5,2.4,2.6,2.4c1.1,0,2-0.7,2-2.1c0-1.7-1.2-2.5-2.7-2.5c-2,0-2.8,1.4-3.2,2.7v-2.3h-7.3v0.6c1.7,0,1.7,0.3,1.7,1.4v8.6
					c0,1.1,0,1.4-1.7,1.4L303.9,409L303.9,409z M299.1,409.4c2.1,0,3.4-0.6,4.3-2l-0.3-0.2c-0.4,0.6-1,0.9-1.5,0.9c-0.8,0-1-0.8-1-2
					v-8.8l2.7-0.3v-0.6h-2.7v-4.3h-0.3L295,395v1.4h-1.6v0.9h1.6v8.6C295,408.7,297,409.4,299.1,409.4 M286.8,409.4
					c2.7,0,5-1.2,5-5.4v-12.1c0-1.1,0-1.4,2.3-1.4v-0.7h-5v0.7c1.8,0,1.8,0.3,1.8,1.4V404c0,2.6-0.7,3.8-2.3,3.8
					c-1.3,0-2.2-0.7-2.2-3.8v-12.1c0-1.1,0-1.4,1.8-1.4v-0.7h-9.5v0.7c2.3,0,2.3,0.3,2.3,1.4V404C281,408.5,284.4,409.4,286.8,409.4
					"/>
				<path class="st2" d="M467,409h8.4v-0.6c-1.2,0-1.2-0.3-1.2-1.4v-4.7h0.6l1.5,4.1c0.5,1.5,0.2,2-0.5,2v0.6h8.4v-0.6
					c-1.6,0-2-0.6-2.4-1.7l-2.9-7.3l0.6-0.8c0.9-1.1,1.9-1.6,3.7-1.6v-0.6h-5.6v0.6c1.1,0,1.9,0.8,0.6,2.1l-2.1,2.2h-1.9v-11.5H467
					v0.6c1.7,0,1.7,0.3,1.7,1.4V407c0,1.1,0,1.4-1.7,1.4L467,409L467,409z M461.3,409.4c2.2,0,4.1-0.9,5.2-3l-0.3-0.2
					c-1,1.2-1.6,1.5-2.5,1.5c-2.2,0-2.6-2-2.6-6.1c0-3.3,0.3-4.8,1-4.8c0.4,0,0.5,0.5,0.5,2.3c0,1,0.5,1.9,1.8,1.9s2-0.8,2-1.9
					c0-1.4-1.1-3-4.3-3c-3.8,0-6.6,2.3-6.6,6.9C455.6,407,457.9,409.4,461.3,409.4 M445.5,405.1c0-1.8,0.3-2.6,1.6-2.6v4
					c-0.1,0.4-0.5,0.6-0.8,0.6C445.7,407.1,445.5,406.6,445.5,405.1 M450.6,409.4c2.9,0,4.1-1.6,4.4-2.2l-0.2-0.2
					c-0.2,0.4-0.7,0.7-1.2,0.7c-0.7,0-1-0.4-1-1.8v-5.7c0-0.8,0-4.1-5.3-4.1c-2.7,0-5.7,0.8-5.7,3.2c0,1.1,0.7,1.6,2.1,1.6
					c1.2,0,2.3-0.4,2.3-1.6c0-2.2,0.1-2.6,0.6-2.6c0.5,0,0.5,0.5,0.5,2v3.4c-3.3,0-6.8,0.8-6.8,4c0,2.4,2,3.3,3.6,3.3s2.9-0.9,3.2-2
					C447.3,408.2,448.3,409.4,450.6,409.4 M430.4,409h8.9v-0.6c-1.7,0-1.7-0.3-1.7-1.4v-17.2h-7.3v0.6c1.7,0,1.7,0.3,1.7,1.4V407
					c0,1.1,0,1.4-1.7,1.4V409z M422,398.3v-7.5h0.3c0.8,0,1.3,0.8,1.3,3.9c0,2.3-0.3,3.6-1.4,3.6H422z M422,406.7v-7.6h0.2
					c1,0,2.2,1.2,2.2,4.8c0,2.9-0.8,4.1-1.7,4.1h-0.1C422,408,422,407.7,422,406.7 M414.1,409h10.3c4.1,0,5.8-2.7,5.8-5.2
					c0-3.2-2.7-4.7-5-5.1c1.9-0.3,4.2-2,4.2-4.7c0-2.6-2.1-4.2-5.2-4.2h-10v0.7c2.3,0,2.3,0.3,2.3,1.4V407c0,1.1,0,1.4-2.3,1.4
					L414.1,409L414.1,409z"/>
				<path class="st2" d="M461,354.1l13.9-35.2v9.4c0,36.9-1,51.7-7.1,51.7C463.4,380,461.7,372.3,461,354.1 M460.7,328.3
					c0-36.9,1-53,7.1-53c4.4,0,6.3,8.7,6.8,28l-13.9,35.2V328.3L460.7,328.3z M467.8,384c19.4,0,39.1-17.3,39.1-56.4
					s-19.7-56.4-39.1-56.4s-39.1,17.3-39.1,56.4S448.4,384,467.8,384 M374,354.1l13.9-35.2v9.4c0,36.9-1,51.7-7.1,51.7
					C376.3,380,374.6,372.3,374,354.1 M373.6,328.3c0-36.9,1-53,7.1-53c4.4,0,6.3,8.7,6.8,28l-13.9,35.2V328.3L373.6,328.3z
					 M380.8,384c19.4,0,39.1-17.3,39.1-56.4s-19.7-56.4-39.1-56.4s-39.1,17.3-39.1,56.4S361.4,384,380.8,384 M289.1,304
					c0-20.1,2-28.7,5.6-28.7c3.9,0,6,10,6,28.9c0,20.2-2.4,27.4-6,27.4S289.1,324,289.1,304 M269.1,382l0.7,2
					c36.4-8.2,61.7-31.3,61.7-67.7c0-26-12.9-45.2-36.9-45.2c-17.3,0-37.4,10.2-37.4,38.6c0,16.8,7,32.6,23.6,32.6
					c9,0,16-4.6,18.5-11.7C298.8,352.6,294.7,371.1,269.1,382"/>
				<path class="st2" d="M104.6,203.9c0-30,3.9-43.3,11.3-43.3c8.2,0,12.1,16.4,12.1,47.6s-3.9,42.1-10.9,42.1
					C108.4,250.3,104.6,233.9,104.6,203.9 M88.6,358.3c0-13.3,1.9-23.8,9.4-31.6h0.4l33.9,2.3c18.7,1.2,25,14,25,32.4
					c0,30-17.6,37-35.5,37C96.7,398.5,88.6,384.8,88.6,358.3 M118.2,407c62.8,0,92-28.1,92-68.2c0-34.7-21.8-53-62.8-55.4l-28.1-1.6
					c-18.3-1.2-21.8-3.5-21.8-11.7c0-6.6,2.7-9.8,7.8-11.7c3.5,0.4,6.6,0.4,10.1,0.4c47.2,0,73.3-23,73.3-56.2
					c0-4.3-0.4-8.2-1.2-12.1l12.1-12.9l10.9,6.6c8.2,0,17.6-4.7,17.6-16.8c0-9.4-5.1-15.6-16-15.6c-8.6,0-16,3.5-23,18.3l-5.1,10.5
					c-9.4-18.7-32-28.9-65.9-28.9c-51.5,0-74.5,23.4-74.5,53.8c0,27.3,18.3,44.9,48,50.7c-23.8,1.6-43.3,10.9-43.3,35.1
					c0,12.9,5.8,25,26.1,31.2c-23.4,4.3-39,16.4-39,37C35.5,386.8,63.6,407,118.2,407"/>
			</g>
		</g>
		<line class="st3" x1="513.8" y1="46" x2="513.8" y2="409"/>
		<line class="st3" x1="249.2" y1="152.8" x2="249.2" y2="409"/>
		<polygon class="st2" points="249.2,392.3 263.9,409 234.5,409 		"/>
		<polygon class="st2" points="513.8,392.3 528.5,409 499.1,409 		"/>
		<g>
			<defs>
				<rect id="SVGID_00000163060178437903684030000003624136355043182259_" width="616" height="423"/>
			</defs>
			<clipPath id="SVGID_00000181779894240621714500000011224291277864421252_">
				<use xlink:href="#SVGID_00000163060178437903684030000003624136355043182259_"  style="overflow:visible;"/>
			</clipPath>
			<g style="clip-path:url(#SVGID_00000181779894240621714500000011224291277864421252_);">
				<path class="st2" d="M232,38.2c1.8,0,3.2-1.2,3.2-2.5s-1.4-2.3-3.1-2.4c1.4-0.2,2.6-1.1,2.6-2.4c0-1.2-1.1-2-2.5-2
					c-1.7,0-2.3,1-2.6,2l0.2,0c0.4-1,1-1.7,2.2-1.7c1.3,0,1.6,0.8,1.6,1.7c0,1.4-0.9,2.1-2.1,2.4v0.3c1.8,0,2.6,0.7,2.6,2.2
					s-0.8,2.1-2,2.1c-0.8,0-1.4-0.3-1.6-1c-0.2-0.5-0.3-0.9-0.7-0.9c-0.3,0-0.4,0.3-0.4,0.5C229.4,37.3,230.5,38.2,232,38.2
					 M223.6,37l3.1-6.6c0.4,0.8,0.5,2,0.5,3.2c0,2.4-0.6,4.5-2.1,4.5C224.5,38,224,37.6,223.6,37 M223,33.5c0-2.4,0.6-4.5,2.1-4.5
					c0.6,0,1.1,0.4,1.4,1l-3.1,6.6C223.1,35.8,223,34.7,223,33.5 M225.1,38.2c1.7,0,3.2-1.8,3.2-4.7s-1.5-4.6-3.2-4.6
					s-3.2,1.9-3.2,4.6S223.4,38.2,225.1,38.2 M210.6,38h2.9v-0.2c-0.9,0-0.9-0.1-0.9-0.6v-3.3c0.3-0.8,0.9-1.5,1.8-1.5
					c0.8,0,1.2,0.6,1.2,1.8v3c0,0.5,0,0.6-0.9,0.6V38h2.9v-0.2c-0.9,0-0.9-0.1-0.9-0.6V34c0-1.2-0.7-2-1.9-2c-1,0-1.6,0.5-2.2,1.4
					v-1.3h-2v0.2c0.9,0,0.9,0.1,0.9,0.6v4.2c0,0.5,0,0.6-0.9,0.6L210.6,38L210.6,38z M205.1,36.6c0-1.1,0.6-1.6,2.6-1.6v1.9
					c-0.3,0.7-0.9,0.9-1.5,0.9C205.5,37.8,205.1,37.5,205.1,36.6 M208.8,38.2c0.6,0,0.8-0.3,1-0.6l-0.1-0.1
					c-0.2,0.3-0.4,0.5-0.6,0.5c-0.3,0-0.4-0.3-0.4-0.9v-3.3c0-1.2-0.9-1.8-2.1-1.8s-2.2,0.6-2.2,1.5c0,0.4,0.2,0.7,0.6,0.7
					s0.6-0.3,0.6-0.7c0-0.8,0.2-1.2,1-1.2c1.1,0,1.1,0.8,1.1,1.7v0.9c-2,0-3.6,0.5-3.6,1.9c0,1,0.9,1.5,1.9,1.5s1.4-0.5,1.7-1
					C207.7,37.9,208.2,38.2,208.8,38.2 M200.4,38h2.9v-0.2c-0.9,0-0.9-0.1-0.9-0.6V29h-2v0.2c0.9,0,0.9,0.1,0.9,0.6v7.2
					c0,0.5,0,0.6-0.9,0.6V38z M195,36.8v-3.8c0.3-0.4,0.9-0.8,1.7-0.8c1.2,0,1.9,1,1.9,2.8c0,2.1-1,2.8-2,2.8
					C195.8,37.8,195.3,37.4,195,36.8 M193,40.9h3.2v-0.2c-1.2,0-1.2-0.1-1.2-0.6v-2.9c0.3,0.5,0.9,1,1.8,1c1.6,0,2.8-1.3,2.8-3.2
					s-1.2-3-2.7-3c-0.8,0-1.6,0.4-2,0.9v-0.8h-2v0.2c0.9,0,0.9,0.1,0.9,0.6v7.1c0,0.5,0,0.6-0.9,0.6L193,40.9L193,40.9z M185.9,38
					h2.9v-0.2c-0.9,0-0.9-0.1-0.9-0.6v-2.4h0.4l1.6,2.4c0.4,0.6,0.1,0.6-0.5,0.6V38h3v-0.2c-0.7,0-0.8-0.1-1.1-0.5l-1.8-2.7l1.6-1.8
					c0.3-0.4,0.8-0.4,1.1-0.4v-0.2h-1.9v0.2c0.5,0,0.8,0.1,0.6,0.3l-1.5,1.7h-1.4V29h-2v0.2c0.9,0,0.9,0.1,0.9,0.6v7.2
					c0,0.5,0,0.6-0.9,0.6L185.9,38L185.9,38z M180.8,38h2.9v-0.2c-0.9,0-0.9-0.1-0.9-0.6v-3.4c0.2-0.7,0.4-1.3,1-1.3
					c0.8,0,0.5,1,1.2,1c0.3,0,0.6-0.2,0.6-0.6c0-0.5-0.4-0.9-1.1-0.9c-0.9,0-1.4,0.6-1.6,1.3v-1.1h-2v0.2c0.9,0,0.9,0.1,0.9,0.6v4.2
					c0,0.5,0,0.6-0.9,0.6C180.8,37.8,180.8,38,180.8,38z M175,35c0-2,0.9-2.7,1.9-2.7c1.2,0,2,0.9,2,2.8s-0.9,2.8-1.9,2.8
					C175.9,37.9,175,36.9,175,35 M177,38.2c1.5,0,3.1-1.1,3.1-3.1s-1.5-3.1-3.1-3.1s-3.1,1.1-3.1,3.1S175.5,38.2,177,38.2
					 M167.4,29.9l0.2,0.7l-2.1,6.2l-2.1-6.8c-0.1-0.4-0.1-0.6,0.8-0.6V29h-3v0.2c0.9,0,0.9,0.1,1.1,0.6l2.6,8.3h0.3l2.5-7.2l2.4,7.2
					h0.3l2.6-8.3c0.1-0.4,0.2-0.6,1.2-0.6V29H172v0.2c0.9,0,0.9,0.1,0.8,0.6l-2.1,6.8l-2.1-6.8c-0.1-0.4-0.1-0.6,0.7-0.6V29h-2.9
					v0.2C167.2,29.3,167.2,29.4,167.4,29.9"/>
				<path class="st2" d="M224.1,26.2c0.6,0,0.9-0.3,1.2-0.8l-0.1-0.1c-0.2,0.4-0.5,0.5-0.8,0.5c-0.5,0-0.6-0.5-0.6-1.2v-4.2l1.7-0.1
					v-0.1h-1.7v-1.4h-0.1l-0.9,0.8v0.6h-1v0.3h1v4.1C222.7,25.6,223.2,26.2,224.1,26.2 M217.1,26.2c1.1,0,1.8-0.6,2.2-1.5V26h2v-0.2
					c-0.9,0-0.9-0.1-0.9-0.6v-5h-2v0.2c0.9,0,0.9,0.1,0.9,0.6v3.3c-0.3,0.8-0.8,1.5-1.7,1.5s-1.3-0.6-1.3-1.9v-3.8h-2v0.2
					c0.9,0,0.9,0.1,0.9,0.6v3C215.2,25.3,215.9,26.2,217.1,26.2 M211.4,26.2c0.9,0,1.6-0.3,2.2-1.2l-0.2-0.1
					c-0.5,0.7-1.1,0.9-1.8,0.9c-1.2,0-2.1-0.7-2.1-2.7c0-1.9,0.8-2.8,2-2.8c0.6,0,0.7,0.3,0.8,0.9c0.1,0.3,0.2,0.6,0.6,0.6
					c0.3,0,0.5-0.2,0.5-0.5c0-0.7-0.8-1.2-1.9-1.2c-1.7,0-3.1,1.2-3.1,3.2C208.6,24.9,209.7,26.1,211.4,26.2 M205.6,18.3
					c0,0.4,0.4,0.7,0.7,0.7s0.7-0.3,0.7-0.7c0-0.5-0.4-0.7-0.7-0.7S205.6,17.8,205.6,18.3 M204.9,26h2.9v-0.2
					c-0.9,0-0.9-0.1-0.9-0.6v-5h-2v0.2c0.9,0,0.9,0.1,0.9,0.6v4.1c0,0.5,0,0.6-0.9,0.6C204.9,25.8,204.9,26,204.9,26z M201.4,26h2.9
					v-0.2c-0.9,0-0.9-0.1-0.9-0.6v-8.1h-2v0.2c0.9,0,0.9,0.1,0.9,0.6v7.2c0,0.5,0,0.6-0.9,0.6C201.4,25.8,201.4,26,201.4,26z
					 M195.9,24.6c0-1.1,0.6-1.6,2.6-1.6v1.9c-0.3,0.7-0.9,0.9-1.5,0.9C196.3,25.8,195.9,25.5,195.9,24.6 M199.6,26.2
					c0.6,0,0.8-0.3,1-0.6l-0.1-0.1c-0.2,0.3-0.4,0.5-0.6,0.5c-0.3,0-0.4-0.3-0.4-0.9v-3.3c0-1.2-0.9-1.8-2.1-1.8s-2.2,0.6-2.2,1.5
					c0,0.4,0.2,0.7,0.6,0.7s0.6-0.3,0.6-0.7c0-0.8,0.2-1.2,1-1.2c1.1,0,1.1,0.8,1.1,1.7v0.9c-2,0-3.6,0.5-3.6,1.9
					c0,1,0.9,1.5,1.9,1.5s1.4-0.5,1.7-1C198.5,25.9,199,26.2,199.6,26.2 M190.1,26.2c1.1,0,2.5-0.3,3.3-0.9l0.2-1.5h-0.3
					c-0.4,1.3-1.5,2.2-3.2,2.2c-2.1,0-3.7-1.4-3.7-4.3s1.6-4.5,3.8-4.5c1.5,0,2.8,0.8,3.1,2.2h0.3l-0.2-1.5
					c-0.8-0.6-2.2-0.9-3.3-0.9c-2.8,0-4.9,2.2-4.9,4.8S187.4,26.2,190.1,26.2 M174,26h4.1v-0.2c-1.7,0-1.7-0.1-1.7-0.7v-3.4h1.8
					c0.5,0,1,0.1,1,1.2h0.2v-2.6h-0.2c0,1-0.6,1.1-1,1.1h-1.8v-4.1h3c0.5,0,1.2,0,1.3,1.6h0.2V17h-7v0.2c1.3,0,1.3,0.1,1.3,0.7v7.1
					c0,0.6,0,0.7-1.3,0.7L174,26L174,26z M161.4,26h3v-0.2c-1.4,0-1.4-0.1-1.4-0.7v-7.4l3.9,8.3h0.1l3.7-8.4V25c0,0.6,0,0.7-1.3,0.7
					V26h3.8v-0.2c-1.3,0-1.3-0.1-1.3-0.7V18c0-0.6,0-0.7,1.3-0.7V17h-2.5l-3.3,7.4L164,17h-2.6v0.2c1.3,0,1.3,0.1,1.3,0.7V25
					c0,0.6,0,0.7-1.3,0.7V26z"/>
				<path class="st2" d="M421.1,38.2c1.3,0,2.2-0.5,2.2-1.7c0-2.4-3.7-1.6-3.7-3.3c0-0.7,0.6-1,1.3-1c1.5,0,1,1.2,1.8,1.2
					c0.3,0,0.5-0.2,0.5-0.5c0-0.6-1.1-1-2.1-1c-1.2,0-2.1,0.5-2.1,1.6c0,2.2,3.7,1.4,3.7,3.3c0,0.7-0.6,1.1-1.4,1.1
					c-1.6,0-1.2-1.5-2-1.5c-0.2,0-0.5,0.1-0.5,0.5C418.7,37.7,419.9,38.2,421.1,38.2 M414.5,38.2c1.4,0,3.2-0.8,3.2-2.7
					c0-3.4-5.3-2-5.3-4.6c0-1.1,0.7-1.8,2.1-1.8s2,0.7,2.3,2h0.3l-0.1-1.5c-0.8-0.5-1.6-0.7-2.5-0.7c-1.7,0-2.9,0.8-2.9,2.3
					c0,3.2,5.3,1.8,5.3,4.7c0,1.5-1.2,2.1-2.4,2.1c-1.4,0-2.2-0.8-2.6-2.2h-0.4l0.1,1.5C412.5,37.9,413.7,38.2,414.5,38.2
					 M399.1,33.5h7.2l-2.4,2.4l0.1,0.1l3.4-2.7l-3.4-2.7l-0.1,0.1l2.4,2.4h-7.2V33.5L399.1,33.5z M389,38h5.4v-0.2
					c-2.2,0-2.2-0.1-2.2-0.7v-8.2H392c-0.9,0.5-1.7,0.9-3.1,0.9V30c1.2,0,1.8-0.1,2.3-0.4V37c0,0.6,0,0.7-2.2,0.7L389,38L389,38z
					 M382.2,37l3.1-6.6c0.4,0.8,0.5,2,0.5,3.2c0,2.4-0.6,4.5-2.1,4.5C383,38,382.6,37.6,382.2,37 M381.5,33.5c0-2.4,0.6-4.5,2.1-4.5
					c0.6,0,1.1,0.4,1.4,1l-3,6.6C381.7,35.8,381.6,34.7,381.5,33.5 M383.7,38.2c1.7,0,3.2-1.8,3.2-4.7s-1.5-4.6-3.2-4.6
					s-3.2,1.9-3.2,4.6S381.9,38.2,383.7,38.2 M377.1,38.2c1.3,0,2.2-0.5,2.2-1.7c0-2.4-3.7-1.6-3.7-3.3c0-0.7,0.6-1,1.3-1
					c1.5,0,1,1.2,1.8,1.2c0.3,0,0.5-0.2,0.5-0.5c0-0.6-1.1-1-2.1-1c-1.2,0-2.1,0.5-2.1,1.6c0,2.2,3.7,1.4,3.7,3.3
					c0,0.7-0.6,1.1-1.4,1.1c-1.6,0-1.2-1.5-2-1.5c-0.2,0-0.5,0.1-0.5,0.5C374.6,37.7,375.8,38.2,377.1,38.2 M370.5,38.2
					c1.4,0,3.2-0.8,3.2-2.7c0-3.4-5.3-2-5.3-4.6c0-1.1,0.7-1.8,2.1-1.8s2,0.7,2.3,2h0.3l-0.1-1.5c-0.8-0.5-1.6-0.7-2.5-0.7
					c-1.7,0-2.9,0.8-2.9,2.3c0,3.2,5.3,1.8,5.3,4.7c0,1.5-1.2,2.1-2.4,2.1c-1.4,0-2.2-0.8-2.6-2.2h-0.4l0.1,1.5
					C368.4,37.9,369.7,38.2,370.5,38.2"/>
				<path class="st2" d="M422,22.3c0.1-1.3,0.6-2.2,1.8-2.2c0.9,0,1.5,0.5,1.5,2l-0.4,0.2H422L422,22.3z M423.8,26.2
					c1,0,1.7-0.4,2.3-1.2l-0.1-0.1c-0.5,0.7-1.1,0.9-1.9,0.9c-1,0-2.1-0.4-2.1-2.8c0-0.1,0-0.3,0-0.4h4.4c0-1.6-1.1-2.5-2.5-2.5
					c-1.8,0-2.9,1.5-2.9,3.2S422.2,26.2,423.8,26.2 M415.4,24.9v-3.8c0.3-0.4,0.9-0.8,1.7-0.8c1.2,0,1.9,1,1.9,2.8
					c0,2.1-1,2.8-2,2.8C416.2,25.9,415.6,25.4,415.4,24.9 M413.4,28.9h3.2v-0.2c-1.2,0-1.2-0.1-1.2-0.6v-2.9c0.3,0.5,0.9,1,1.8,1
					c1.5,0,2.8-1.3,2.8-3.2s-1.2-3-2.7-3c-0.8,0-1.6,0.4-2,0.9v-0.8h-2v0.2c0.9,0,0.9,0.1,0.9,0.6v7.1c0,0.5,0,0.6-0.9,0.6
					L413.4,28.9L413.4,28.9z M407.8,29.1c0.7,0,1.1-0.3,1.5-1.4L412,21c0.2-0.5,0.3-0.6,1-0.6v-0.2h-2.2v0.2c1.2,0,1.1,0.1,0.9,0.6
					l-1.6,4.1l-1.5-4.1c-0.2-0.6-0.1-0.6,0.7-0.6v-0.2h-2.9v0.2c0.9,0,0.9,0.1,1.1,0.6l2.1,5.2l-0.6,1.4c-0.2,1.1-0.5,1.3-0.8,1.3
					s-0.4-0.2-0.5-0.5c-0.1-0.4-0.3-0.6-0.6-0.6s-0.5,0.2-0.5,0.5C406.6,28.8,407.1,29.1,407.8,29.1 M404.5,26.2
					c0.6,0,0.9-0.3,1.2-0.8l-0.1-0.1c-0.2,0.4-0.5,0.5-0.8,0.5c-0.5,0-0.6-0.5-0.6-1.2v-4.2l1.7-0.1v-0.1h-1.7v-1.4H404l-0.9,0.8
					v0.6h-1v0.3h1v4.1C403.1,25.6,403.6,26.2,404.5,26.2 M391.2,26h2.9v-0.2c-0.9,0-0.9-0.1-0.9-0.6v-3.3c0.3-0.8,0.9-1.5,1.8-1.5
					c0.8,0,1.2,0.6,1.2,1.8v3c0,0.5,0,0.6-0.9,0.6V26h2.9v-0.2c-0.9,0-0.9-0.1-0.9-0.6V22c0-1.2-0.7-2-1.9-2c-1,0-1.6,0.5-2.2,1.4
					v-1.3h-2v0.2c0.9,0,0.9,0.1,0.9,0.6v4.1c0,0.5,0,0.6-0.9,0.6L391.2,26L391.2,26z M386.1,22.3c0.1-1.3,0.6-2.2,1.8-2.2
					c0.9,0,1.5,0.5,1.5,2l-0.4,0.2H386.1L386.1,22.3z M388,26.2c1,0,1.7-0.4,2.3-1.2l-0.1-0.1c-0.5,0.7-1.1,0.9-1.9,0.9
					c-1,0-2.1-0.4-2.1-2.8c0-0.1,0-0.3,0-0.4h4.4c0-1.6-1.1-2.5-2.5-2.5c-1.8,0-2.9,1.5-2.9,3.2S386.3,26.2,388,26.2 M379.5,24.9
					v-3.8c0.3-0.4,0.9-0.8,1.7-0.8c1.2,0,1.9,1,1.9,2.8c0,2.1-1,2.8-2,2.8C380.3,25.9,379.8,25.4,379.5,24.9 M377.5,28.9h3.2v-0.2
					c-1.2,0-1.2-0.1-1.2-0.6v-2.9c0.3,0.5,0.9,1,1.8,1c1.5,0,2.8-1.3,2.8-3.2s-1.2-3-2.7-3c-0.8,0-1.6,0.4-2,0.9v-0.8h-2v0.2
					c0.9,0,0.9,0.1,0.9,0.6v7.1c0,0.5,0,0.6-0.9,0.6L377.5,28.9L377.5,28.9z M368.5,21.5c0-3,1.5-4.4,3.5-4.4c2.2,0,3.5,1.7,3.5,4.4
					c0,3-1.5,4.4-3.5,4.4C369.8,25.9,368.5,24.2,368.5,21.5 M372,26.2c2.3,0,4.7-1.8,4.7-4.7s-2.3-4.6-4.6-4.6s-4.7,1.8-4.7,4.7
					S369.7,26.2,372,26.2"/>
				<path class="st2" d="M302.3,38.2c1.3,0,2.2-0.5,2.2-1.7c0-2.4-3.7-1.6-3.7-3.3c0-0.7,0.6-1,1.3-1c1.5,0,1,1.2,1.8,1.2
					c0.3,0,0.5-0.2,0.5-0.5c0-0.6-1.1-1-2.1-1c-1.2,0-2.1,0.5-2.1,1.6c0,2.2,3.7,1.4,3.7,3.3c0,0.7-0.6,1.1-1.4,1.1
					c-1.6,0-1.2-1.5-2-1.5c-0.2,0-0.5,0.1-0.5,0.5C299.9,37.7,301.1,38.2,302.3,38.2 M294.6,34.3c0.1-1.3,0.6-2.2,1.8-2.2
					c0.9,0,1.5,0.5,1.5,2l-0.4,0.2L294.6,34.3L294.6,34.3z M296.5,38.2c1,0,1.7-0.4,2.3-1.2l-0.1-0.1c-0.5,0.7-1.1,0.9-1.9,0.9
					c-1,0-2.1-0.4-2.1-2.8c0-0.1,0-0.3,0-0.4h4.4c0-1.6-1.1-2.5-2.5-2.5c-1.8,0-2.9,1.5-2.9,3.2S294.8,38.2,296.5,38.2 M289.8,38
					h2.9v-0.2c-0.9,0-0.9-0.1-0.9-0.6V29h-2v0.2c0.9,0,0.9,0.1,0.9,0.6v7.2c0,0.5,0,0.6-0.9,0.6V38z M284.5,41.1
					c0.7,0,1.1-0.3,1.5-1.4l2.7-6.7c0.2-0.5,0.3-0.6,1-0.6v-0.2h-2.2v0.2c1.2,0,1.1,0.1,0.9,0.6l-1.6,4.1l-1.5-4.1
					c-0.2-0.6-0.1-0.6,0.7-0.6v-0.2h-2.9v0.2c0.9,0,0.9,0.1,1.1,0.6l2.1,5.2l-0.6,1.4c-0.2,1.1-0.5,1.3-0.8,1.3s-0.4-0.2-0.5-0.5
					c-0.1-0.4-0.3-0.6-0.6-0.6s-0.5,0.2-0.5,0.5C283.4,40.8,283.9,41.1,284.5,41.1 M281.2,38.2c0.6,0,0.9-0.3,1.2-0.8l-0.1-0.1
					c-0.2,0.4-0.5,0.5-0.8,0.5c-0.5,0-0.6-0.5-0.6-1.2v-4.2l1.7-0.1v-0.1h-1.7v-1.4h-0.1l-0.9,0.8v0.6h-1v0.3h1v4.2
					C279.8,37.6,280.4,38.2,281.2,38.2 M276,38.2c1.3,0,2.2-0.5,2.2-1.7c0-2.4-3.7-1.6-3.7-3.3c0-0.7,0.6-1,1.3-1
					c1.5,0,1,1.2,1.8,1.2c0.3,0,0.5-0.2,0.5-0.5c0-0.6-1.1-1-2.1-1c-1.2,0-2.1,0.5-2.1,1.6c0,2.2,3.7,1.4,3.7,3.3
					c0,0.7-0.6,1.1-1.4,1.1c-1.6,0-1.2-1.5-2-1.5c-0.2,0-0.5,0.1-0.5,0.5C273.6,37.7,274.9,38.2,276,38.2 M259.8,37l3.1-6.6
					c0.4,0.8,0.5,2,0.5,3.2c0,2.4-0.6,4.5-2.1,4.5C260.6,38,260.1,37.6,259.8,37 M259.1,33.5c0-2.4,0.6-4.5,2.1-4.5
					c0.6,0,1.1,0.4,1.4,1l-3,6.6C259.3,35.8,259.1,34.7,259.1,33.5 M261.3,38.2c1.7,0,3.2-1.8,3.2-4.7s-1.5-4.6-3.2-4.6
					s-3.2,1.9-3.2,4.6S259.5,38.2,261.3,38.2 M251.1,31.5c0-1.3,0.7-2.5,2.1-2.5c1.5,0,2.1,1.3,2.1,2.5c0,1.4-0.9,2.5-2.2,2.5
					S251.1,32.9,251.1,31.5 M250.8,38v0.2c3.1-0.5,5.6-2.8,5.6-5.7c0-1.9-1.1-3.6-3.3-3.6c-1.6,0-3.1,0.9-3.1,2.7
					c0,1.7,1.3,2.7,2.9,2.7c1.2,0,2-0.7,2.4-1.7C255.3,35.6,253.2,37.7,250.8,38"/>
				<path class="st2" d="M293.7,26.2c1.3,0,2.2-0.5,2.2-1.7c0-2.4-3.7-1.6-3.7-3.3c0-0.7,0.6-1,1.3-1c1.5,0,1,1.2,1.8,1.2
					c0.3,0,0.5-0.2,0.5-0.5c0-0.6-1.1-1-2.1-1c-1.2,0-2.1,0.5-2.1,1.6c0,2.2,3.7,1.4,3.7,3.3c0,0.7-0.6,1.1-1.4,1.1
					c-1.6,0-1.2-1.5-2-1.5c-0.2,0-0.5,0.1-0.5,0.5C291.3,25.7,292.5,26.2,293.7,26.2 M289.2,26.2c0.6,0,0.9-0.3,1.2-0.8l-0.1-0.1
					c-0.2,0.4-0.5,0.5-0.8,0.5c-0.5,0-0.6-0.5-0.6-1.2v-4.2l1.7-0.1v-0.1h-1.7v-1.4h-0.1l-0.9,0.8v0.6h-1v0.3h1v4.1
					C287.8,25.6,288.3,26.2,289.2,26.2 M282.3,26.2c1.1,0,1.8-0.6,2.2-1.5V26h2v-0.2c-0.9,0-0.9-0.1-0.9-0.6v-5h-2v0.2
					c0.9,0,0.9,0.1,0.9,0.6v3.3c-0.3,0.8-0.8,1.5-1.7,1.5s-1.3-0.6-1.3-1.9v-3.8h-2v0.2c0.9,0,0.9,0.1,0.9,0.6v3
					C280.4,25.3,281.1,26.2,282.3,26.2 M276.6,26.2c0.9,0,1.6-0.3,2.2-1.2l-0.2-0.1c-0.5,0.7-1.1,0.9-1.8,0.9
					c-1.2,0-2.1-0.7-2.1-2.7c0-1.9,0.8-2.8,2-2.8c0.6,0,0.7,0.3,0.8,0.9c0.1,0.3,0.2,0.6,0.6,0.6c0.3,0,0.5-0.2,0.5-0.5
					c0-0.7-0.8-1.2-1.9-1.2c-1.7,0-3.1,1.2-3.1,3.2C273.7,24.9,274.8,26.1,276.6,26.2 M259.2,19.5c0-1.3,0.7-2.5,2.1-2.5
					c1.5,0,2.1,1.3,2.1,2.5c0,1.4-0.9,2.5-2.2,2.5S259.2,20.9,259.2,19.5 M258.9,26v0.2c3.1-0.5,5.6-2.8,5.6-5.6
					c0-1.9-1.1-3.6-3.3-3.6c-1.5,0-3.1,0.9-3.1,2.7c0,1.7,1.3,2.7,2.9,2.7c1.2,0,2-0.7,2.4-1.7C263.4,23.6,261.3,25.7,258.9,26
					 M251.8,25l3.1-6.6c0.4,0.8,0.5,2,0.5,3.2c0,2.4-0.6,4.5-2.1,4.5C252.6,26,252.1,25.6,251.8,25 M251.1,21.5
					c0-2.4,0.6-4.5,2.1-4.5c0.6,0,1.1,0.4,1.4,1l-3.1,6.6C251.2,23.8,251.1,22.7,251.1,21.5 M253.2,26.2c1.7,0,3.2-1.9,3.2-4.6
					s-1.5-4.6-3.2-4.6s-3.2,1.9-3.2,4.6S251.5,26.2,253.2,26.2"/>
				<path class="st2" d="M571.5,38h2.9v-0.2c-0.9,0-0.9-0.1-0.9-0.6v-3.3c0.3-0.8,0.9-1.5,1.8-1.5c0.8,0,1.2,0.6,1.2,1.8v3
					c0,0.5,0,0.6-0.9,0.6V38h2.9v-0.2c-0.9,0-0.9-0.1-0.9-0.6V34c0-1.2-0.7-2-1.9-2c-1,0-1.7,0.5-2.2,1.4V29h-2v0.2
					c0.9,0,0.9,0.1,0.9,0.6v7.2c0,0.5,0,0.6-0.9,0.6V38L571.5,38z M569.6,38.2c0.6,0,0.9-0.3,1.2-0.8l-0.1-0.1
					c-0.2,0.4-0.5,0.5-0.8,0.5c-0.5,0-0.6-0.5-0.6-1.2v-4.2l1.7-0.1v-0.1h-1.7v-1.4h-0.1l-0.9,0.8v0.6h-1v0.3h1v4.2
					C568.1,37.6,568.7,38.2,569.6,38.2 M560.9,35.1c0-2.1,1-2.8,2-2.8c0.7,0,1.3,0.4,1.6,1V37c-0.3,0.4-0.9,0.8-1.7,0.8
					C561.6,37.9,560.9,36.8,560.9,35.1 M562.5,38.2c0.8,0,1.6-0.4,2-0.9V38h2v-0.2c-0.9,0-0.9-0.1-0.9-0.6V29h-2v0.2
					c0.9,0,0.9,0.1,0.9,0.6v3c-0.3-0.5-0.9-1-1.8-1c-1.6,0-2.9,1.3-2.9,3.2S561,38.2,562.5,38.2 M556.7,30.3c0,0.4,0.3,0.7,0.7,0.7
					s0.7-0.3,0.7-0.7c0-0.5-0.3-0.7-0.7-0.7S556.7,29.8,556.7,30.3 M556,38h2.9v-0.2c-0.9,0-0.9-0.1-0.9-0.6v-5h-2v0.2
					c0.9,0,0.9,0.1,0.9,0.6v4.2c0,0.5,0,0.6-0.9,0.6V38z M550.2,32.9L550.2,32.9l-1.5,4.1l-1.4-4.1c-0.2-0.5-0.2-0.6,0.7-0.6v-0.2
					H545v0.2c0.9,0,1,0.1,1.2,0.6l1.9,5.3h0.3l1.8-4.9l1.8,4.9h0.3l2-5.3c0.2-0.5,0.3-0.6,1-0.6v-0.2h-2.2v0.2
					c1.1,0,1.1,0.1,0.9,0.6l-1.5,4.1l-1.4-4.1c-0.2-0.5-0.2-0.6,0.6-0.6v-0.2h-2.5v0.2C549.9,32.3,550,32.4,550.2,32.9 M537,38.2
					c1.9,0,3.2-1.2,3.2-3.2s-1.4-2.7-2.8-2.7c-1.1,0-1.8,0.4-2.3,0.8l0.5-3h4.2v-1.9h-0.2c0,0.8-0.4,0.8-0.8,0.8h-3.3l-0.7,4.3
					l0.5,0.6c0.4-0.4,1.2-0.7,2-0.7c1.2,0,2.1,0.6,2.1,2.2c0,1.5-0.8,2.5-2.1,2.5c-0.8,0-1.3-0.4-1.7-0.9c-0.3-0.5-0.3-0.9-0.8-0.9
					c-0.3,0-0.5,0.2-0.5,0.5C534.2,37.5,535.6,38.2,537,38.2 M527.3,38h1.1l3.4-8.5V29h-5.4v2.1h0.2c0-1,0.4-1,0.8-1h3.8L527.3,38
					L527.3,38z M514.7,29.3h-0.4v6.2h5.3l-1.8,2l0.1,0.1l2.8-2.2l-2.8-2.2l-0.1,0.1l1.8,2h-4.9V29.3L514.7,29.3z"/>
				<path class="st2" d="M590.8,26.2c0.6,0,0.9-0.3,1.2-0.8l-0.1-0.1c-0.2,0.4-0.5,0.5-0.8,0.5c-0.5,0-0.6-0.5-0.6-1.2v-4.2l1.7-0.1
					v-0.1h-1.7v-1.4h-0.1l-0.9,0.8v0.6h-1v0.3h1v4.1C589.4,25.6,589.9,26.2,590.8,26.2 M581,26h2.9v-0.2c-0.9,0-0.9-0.1-0.9-0.6
					v-3.3c0.3-0.8,0.9-1.5,1.8-1.5c0.8,0,1.2,0.6,1.2,1.8v3c0,0.5,0,0.6-0.9,0.6V26h2.9v-0.2c-0.9,0-0.9-0.1-0.9-0.6V22
					c0-1.2-0.7-2-1.9-2c-1,0-1.7,0.5-2.2,1.4V17h-2v0.2c0.9,0,0.9,0.1,0.9,0.6v7.2c0,0.5,0,0.6-0.9,0.6V26L581,26z M575.5,21.9
					c0-1.3,0.7-1.8,1.4-1.8s1.5,0.6,1.5,1.9s-0.6,1.8-1.4,1.8C576.2,23.8,575.5,23.2,575.5,21.9 M575,27.5c0-0.7,0.4-1.2,1.4-1.5
					c0.1,0,0.1,0,0.2,0l0.9,0c0.6,0,1.8,0.1,1.8,1.3c0,1-0.9,1.6-2.3,1.6S575,28.3,575,27.5 M576.8,29.1c1.6,0,3.4-0.6,3.4-2.2
					c0-1.1-0.9-1.6-2.5-1.7l-0.9,0c-0.8,0-1.4-0.1-1.4-0.5c0-0.4,0.5-0.5,1-0.6c0.2,0,0.4,0,0.5,0c1.4,0,2.4-1,2.4-2.1
					c0-0.5-0.2-1-0.6-1.4h1.6l0-0.4h-0.7l-1.2,0.2c-0.4-0.2-0.9-0.4-1.4-0.4c-1.6,0-2.4,1.1-2.4,2.1c0,0.9,0.5,1.5,1.4,1.8
					c-1,0.2-1.4,0.6-1.4,1.1s0.4,0.9,1.4,1c-0.9,0.1-2.1,0.7-2.1,1.6C573.9,28.6,575.4,29.1,576.8,29.1 M571,18.3
					c0,0.4,0.3,0.7,0.7,0.7s0.7-0.3,0.7-0.7c0-0.5-0.3-0.7-0.7-0.7S571,17.8,571,18.3 M570.4,26h2.9v-0.2c-0.9,0-0.9-0.1-0.9-0.6v-5
					h-2v0.2c0.9,0,0.9,0.1,0.9,0.6v4.1c0,0.5,0,0.6-0.9,0.6C570.4,25.8,570.4,26,570.4,26z M565.2,22.3c0.1-1.3,0.6-2.2,1.8-2.2
					c0.9,0,1.5,0.5,1.5,2l-0.4,0.2H565.2L565.2,22.3z M567,26.2c1,0,1.7-0.4,2.3-1.2l-0.2-0.1c-0.5,0.7-1.1,0.9-1.9,0.9
					c-1,0-2.1-0.4-2.1-2.8c0-0.1,0-0.3,0-0.4h4.4c0-1.6-1.1-2.5-2.5-2.5c-1.8,0-2.9,1.5-2.9,3.2S565.4,26.2,567,26.2 M558.3,20.9
					L558.3,20.9l-1.5,4.1l-1.4-4.1c-0.2-0.5-0.2-0.6,0.7-0.6v-0.2h-2.9v0.2c0.9,0,1,0.1,1.2,0.6l1.9,5.3h0.3l1.8-4.9l1.8,4.9h0.3
					l2-5.3c0.2-0.5,0.3-0.6,1-0.6v-0.2h-2.2v0.2c1.1,0,1.1,0.1,0.9,0.6l-1.5,4.1l-1.4-4.1c-0.2-0.5-0.2-0.6,0.6-0.6v-0.2h-2.5v0.2
					C558.1,20.3,558.2,20.4,558.3,20.9 M543.9,25l3.1-6.6c0.4,0.8,0.5,2,0.5,3.2c0,2.4-0.6,4.4-2.1,4.4
					C544.8,26,544.3,25.6,543.9,25 M543.3,21.5c0-2.4,0.6-4.5,2.1-4.5c0.6,0,1.1,0.4,1.4,1l-3,6.6C543.4,23.8,543.3,22.7,543.3,21.5
					 M545.4,26.2c1.7,0,3.2-1.9,3.2-4.6s-1.5-4.6-3.2-4.6s-3.2,1.9-3.2,4.6S543.7,26.2,545.4,26.2 M535.8,25l3.1-6.6
					c0.4,0.8,0.5,2,0.5,3.2c0,2.4-0.6,4.4-2.1,4.4C536.6,26,536.1,25.6,535.8,25 M535.1,21.5c0-2.4,0.6-4.5,2.1-4.5
					c0.6,0,1.1,0.4,1.4,1l-3,6.6C535.3,23.8,535.1,22.7,535.1,21.5 M537.2,26.2c1.7,0,3.2-1.9,3.2-4.6s-1.5-4.6-3.2-4.6
					s-3.2,1.9-3.2,4.6S535.5,26.2,537.2,26.2 M527,19.5c0-1.3,0.7-2.5,2.1-2.5c1.5,0,2.1,1.3,2.1,2.5c0,1.4-0.9,2.5-2.2,2.5
					S527,20.9,527,19.5 M526.6,26v0.2c3.1-0.5,5.6-2.8,5.6-5.6c0-1.9-1.1-3.6-3.3-3.6c-1.5,0-3.1,0.9-3.1,2.7c0,1.7,1.3,2.7,2.9,2.7
					c1.2,0,2-0.7,2.4-1.7C531.1,23.6,529.1,25.7,526.6,26 M514.7,17.3h-0.4v6.2h5.3l-1.8,2l0.1,0.1l2.8-2.2l-2.8-2.2l-0.1,0.1l1.8,2
					h-4.9V17.3L514.7,17.3z"/>
				<path class="st5" d="M259,381.1c50.4-4.5,90.4-45.4,93.4-96.3"/>
				<path class="st5" d="M352.2,269.3c-4.5-50.4-45.4-90.4-96.3-93.4"/>
				<path class="st5" d="M240.4,176.1c-50.4,4.5-90.4,45.4-93.4,96.3"/>
				<path class="st5" d="M147.2,287.9c4.5,50.4,45.4,90.4,96.3,93.4"/>
				<path class="st6" d="M246.6,381.5c1,0,2.1,0,3.1,0s2.1,0,3.1,0 M146.9,275.5c0,1-0.1,2.1-0.1,3.1s0,2.1,0.1,3.1 M252.8,175.8
					c-1,0-2.1-0.1-3.1-0.1s-2.1,0-3.1,0.1 M352.5,281.7c0-1,0-2.1,0-3.1s0-2.1,0-3.1"/>
				<path class="st2" d="M550.7,77.9c1.2-4.2,3.5-7.8,9.1-7.8s9.8,3.1,9.8,8.5c0,7.1-6.2,12.5-12.4,16.3h8.4c1.9,0,2.8,0,2.8-5.1
					h1.7v11.1h-19.2v-3.4c8.6-7.4,9.4-11.5,9.4-17.9c0-4-1.5-5.5-4.1-5.5c-2.3,0-3.8,1.6-4.6,3.8C551.6,77.9,550.7,77.9,550.7,77.9z
					 M529.4,86c0-18.1,13.8-31,31-31s31,12.9,31,31s-13.8,31-31,31S529.4,104.2,529.4,86 M560.4,119.1c18.3,0,33.1-13.7,33.1-33.1
					s-14.8-33.1-33.1-33.1S527.3,66.7,527.3,86S542,119.1,560.4,119.1"/>
				<path class="st2" d="M527.3,350c0,19.4,14.7,33.1,33.1,33.1s33.1-13.7,33.1-33.1s-14.8-33.1-33.1-33.1S527.3,330.7,527.3,350
					 M552,364.9v-1.6c4.5,0,4.5-2.5,4.5-4.6v-18.3c-2.1,0-3.9-0.7-5.4-1.6v-0.7c4.7,0.7,8.6-1.2,12.4-4h1.8v24.6
					c0,2.1,0,4.6,4.4,4.6v1.6H552z"/>
				<path class="st2" d="M553.9,203.2c0-13.1,1.7-18.9,4.9-18.9c3.6,0,5.3,7.1,5.3,20.7s-1.7,18.4-4.8,18.4
					C555.6,223.4,553.9,216.3,553.9,203.2 M546.9,270.5c0-5.8,0.8-10.4,4.1-13.8h0.2l14.8,1c8.2,0.5,10.9,6.1,10.9,14.1
					c0,13.1-7.7,16.1-15.5,16.1C550.5,288,546.9,282,546.9,270.5 M559.8,291.7c27.4,0,40.1-12.2,40.1-29.8
					c0-15.1-9.5-23.1-27.4-24.1l-12.2-0.7c-8-0.5-9.5-1.5-9.5-5.1c0-2.9,1.2-4.2,3.4-5.1c1.5,0.2,2.9,0.2,4.4,0.2
					c20.6,0,32-10,32-24.5c0-1.9-0.2-3.6-0.5-5.3l5.3-5.6l4.8,2.9c3.6,0,7.7-2,7.7-7.3c0-4.1-2.2-6.8-7-6.8c-3.7,0-7,1.5-10,8
					l-2.2,4.6c-4.1-8.2-13.9-12.6-28.7-12.6c-22.4,0-32.5,10.2-32.5,23.5c0,11.9,8,19.6,20.9,22.1c-10.4,0.7-18.9,4.8-18.9,15.3
					c0,5.6,2.5,10.9,11.4,13.6c-10.2,1.9-17,7.1-17,16.2C523.8,282.9,536,291.7,559.8,291.7 M466.1,231.7c0-10,1.7-14.6,8.8-14.8
					v22.8c-0.9,2.2-2.7,3.4-4.6,3.4C467.3,243.1,466.1,240.2,466.1,231.7 M495.4,256c16.3,0,23.5-9.2,25-12.2l-1.4-1.4
					c-1.4,2.4-3.9,3.9-6.8,3.9c-3.7,0-5.6-2-5.6-10.4v-32.3c0-4.2,0-23.1-30.3-23.1c-15.3,0-32.5,4.8-32.5,18
					c0,6.5,4.1,9.4,11.7,9.4c6.6,0,13.1-2.2,13.1-9c0-12.6,0.5-14.6,3.2-14.6c3.1,0,3.1,2.7,3.1,11.1v19.2
					c-18.5,0-38.8,4.8-38.8,22.6c0,13.4,11,18.9,20.6,18.9s16.5-4.9,18.4-11.4C476.2,249.6,482.1,256,495.4,256 M379.1,254h50.7
					v-3.4c-9.5,0-9.5-1.7-9.5-7.8v-97.6h-41.1v3.4c9.5,0,9.5,1.7,9.5,7.8v86.4c0,6.1,0,7.8-9.5,7.8V254z M297.9,254h58.3v-3.7
					c-15.5,0-15.5-1.7-15.5-7.8v-40.8h1c8.7,0,17.3,5.9,17.3,20.7h3.6v-44.9H359c0,14.1-8.7,20.1-17.3,20.1h-1v-48.3h3.7
					c11.4,0,27,13.6,27,31.3h3.6v-35.4h-77.2v3.7c12.9,0,12.9,1.7,12.9,7.8v85.7c0,6.1,0,7.8-12.9,7.8V254L297.9,254z"/>
			</g>
		</g>
	</g>
</g>
<g>
	<path class="st2" d="M438.6,35.8c0,0.9-0.2,1.3-0.7,1.3h-4c2.5-1.8,4.8-3.6,4.8-5.7c0-1.6-1.4-2.5-2.9-2.5c-1.6,0-2.4,1-2.8,2.3
		l0.2,0c0.3-1.1,1.1-2,2.5-2c1.5,0,1.9,1.1,1.9,2.2c0,2.4-1.6,3.7-4.7,6V38h6v-2.2H438.6z"/>
	<path class="st2" d="M427.7,28.9c-1.7,0-3.2,1.8-3.2,4.7c0,2.8,1.5,4.6,3.2,4.6s3.2-1.8,3.2-4.6C431,30.7,429.5,28.9,427.7,28.9z
		 M425.6,33.5c0-2.4,0.6-4.5,2.1-4.5c0.6,0,1.1,0.4,1.4,1l-3,6.6C425.8,35.8,425.6,34.7,425.6,33.5z M427.7,38c-0.6,0-1.1-0.4-1.5-1
		l0,0v0c0,0,0,0,0,0l3.1-6.6c0.4,0.8,0.5,2,0.5,3.2C429.9,35.9,429.2,38,427.7,38z"/>
</g>
</svg>
