<?xml version="1.0" encoding="UTF-8"?>
<svg id="Calque_1" data-name="Calque 1" xmlns="http://www.w3.org/2000/svg" xmlns:xlink="http://www.w3.org/1999/xlink" viewBox="0 0 616 423">
  <defs>
    <style>
      .cls-1 {
        clip-path: url(#clippath);
      }

      .cls-2, .cls-3, .cls-4, .cls-5, .cls-6, .cls-7, .cls-8, .cls-9 {
        fill: none;
      }

      .cls-2, .cls-10 {
        stroke-width: 0px;
      }

      .cls-3 {
        stroke-dasharray: 0 0 6.11 12.11;
      }

      .cls-3, .cls-4, .cls-5, .cls-6, .cls-7, .cls-8, .cls-9 {
        stroke: #000;
      }

      .cls-3, .cls-5, .cls-6, .cls-7 {
        stroke-miterlimit: 1;
      }

      .cls-11 {
        clip-path: url(#clippath-1);
      }

      .cls-12 {
        clip-path: url(#clippath-3);
      }

      .cls-13 {
        clip-path: url(#clippath-2);
      }

      .cls-4, .cls-8 {
        stroke-width: .5px;
      }

      .cls-5 {
        stroke-dasharray: 0 0 6.06 12.06;
      }

      .cls-7 {
        stroke-dasharray: 0 0 7.5 13.5;
      }

      .cls-8 {
        stroke-dasharray: 0 0 11.43 11.43;
      }

      .cls-9 {
        stroke-width: .37px;
      }
    </style>
    <clipPath id="clippath">
      <rect class="cls-2" width="616" height="423"/>
    </clipPath>
    <clipPath id="clippath-1">
      <rect class="cls-2" width="616" height="423"/>
    </clipPath>
    <clipPath id="clippath-2">
      <rect class="cls-2" x="176.2" y="238.75" width="72.5" height="63"/>
    </clipPath>
    <clipPath id="clippath-3">
      <rect class="cls-2" x="346.34" y="310.75" width="255.16" height="63"/>
    </clipPath>
  </defs>
  <g class="cls-1">
    <line class="cls-4" x1="602" y1="387.13" x2="14" y2="387.13"/>
    <line class="cls-4" x1="602" y1="408.88" x2="14" y2="408.88"/>
    <line class="cls-4" x1="602" y1="14" x2="14" y2="14"/>
    <g class="cls-11">
      <path class="cls-10" d="M595.46,402h2.6v-.2c-.83,0-.83-.13-.83-.58v-2.96c.29-.74.81-1.36,1.6-1.36.72,0,1.06.52,1.06,1.6v2.73c0,.45,0,.58-.83.58v.2h2.6v-.2c-.83,0-.83-.13-.83-.58v-2.81c0-1.11-.62-1.81-1.69-1.81-.9,0-1.48.45-1.93,1.29v-3.89h-1.77v.2c.83,0,.83.12.83.57v6.45c0,.45,0,.58-.83.58v.2ZM593.81,402.15c.58,0,.81-.27,1.04-.67l-.12-.08c-.19.35-.41.49-.69.49-.46,0-.54-.4-.54-1.11v-3.78l1.5-.12v-.12h-1.5v-1.28h-.12l-.82.7v.58h-.92v.25h.92v3.7c0,.98.47,1.45,1.26,1.45M586.22,399.41c0-1.88.88-2.54,1.8-2.54.65,0,1.13.34,1.4.88v3.4c-.27.36-.8.73-1.51.73-1.1,0-1.69-.94-1.69-2.46M587.67,402.15c.74,0,1.4-.34,1.75-.82v.67h1.77v-.2c-.83,0-.83-.13-.83-.58v-7.22h-1.77v.2c.82,0,.82.12.82.57v2.68c-.26-.49-.8-.85-1.59-.85-1.46,0-2.56,1.2-2.56,2.87s1.06,2.67,2.4,2.67M582.58,395.15c0,.39.31.65.66.65s.66-.26.66-.65c0-.42-.31-.66-.66-.66s-.66.23-.66.66M582,402h2.6v-.2c-.83,0-.83-.13-.83-.58v-4.47h-1.77v.2c.83,0,.83.12.83.57v3.7c0,.45,0,.58-.83.58v.2ZM576.86,397.45v.02s-1.3,3.62-1.3,3.62l-1.25-3.65c-.15-.43-.17-.5.62-.5v-.2h-2.62v.2c.77,0,.87.11,1.02.5l1.73,4.7h.3l1.6-4.39,1.64,4.39h.31l1.74-4.7c.15-.4.26-.5.91-.5v-.2h-1.94v.2c.96,0,.97.05.81.5l-1.34,3.67-1.28-3.67c-.15-.43-.16-.5.5-.5v-.2h-2.25v.2c.54,0,.61.07.77.5M564.25,401.08l2.74-5.93c.33.74.47,1.75.47,2.85,0,2.14-.58,3.98-1.9,3.98-.58,0-1-.34-1.31-.9M563.66,398c0-2.14.58-3.98,1.9-3.98.55,0,.98.33,1.28.85l-2.73,5.9c-.31-.72-.45-1.71-.45-2.77M565.56,402.15c1.55,0,2.87-1.65,2.87-4.15s-1.32-4.15-2.87-4.15-2.87,1.65-2.87,4.15,1.32,4.15,2.87,4.15M557.06,401.08l2.74-5.93c.33.74.48,1.75.48,2.85,0,2.14-.58,3.98-1.9,3.98-.58,0-1-.34-1.31-.9M556.47,398c0-2.14.58-3.98,1.9-3.98.55,0,.98.33,1.28.85l-2.73,5.9c-.31-.72-.45-1.71-.45-2.77M558.38,402.15c1.55,0,2.87-1.65,2.87-4.15s-1.32-4.15-2.87-4.15-2.88,1.65-2.88,4.15,1.32,4.15,2.88,4.15M548.8,402h4.82v-.22c-1.92,0-1.92-.13-1.92-.63v-7.3h-.25c-.8.45-1.49.79-2.76.79v.25c1.06,0,1.57-.11,2.04-.36v6.62c0,.5,0,.63-1.93.63v.22ZM537.11,397.96h6.44l-2.1,2.12.12.12,3.02-2.4-3.02-2.4-.12.12,2.1,2.12h-6.44v.3ZM529.8,402.15c1.72,0,2.9-1.04,2.9-2.81s-1.22-2.42-2.55-2.42c-.97,0-1.6.36-2.05.72l.42-2.71h3.74v-1.66h-.2c0,.74-.38.74-.73.74h-2.97l-.61,3.86.41.5c.38-.33,1.06-.6,1.79-.6,1.09,0,1.88.54,1.88,1.96,0,1.35-.72,2.21-1.88,2.21-.74,0-1.2-.35-1.5-.79-.31-.46-.31-.84-.7-.84-.29,0-.4.21-.4.46,0,.81,1.19,1.37,2.45,1.37M521.26,402h.97l3.05-7.57v-.42h-4.84v1.86h.22c0-.94.38-.94.72-.94h3.44l-3.58,7.08ZM510.3,394.26h-.32v5.55h4.74l-1.58,1.75.12.07,2.47-1.97-2.47-1.97-.12.08,1.58,1.75h-4.41v-5.25ZM498.91,402.15c.58,0,.81-.27,1.04-.67l-.12-.08c-.19.35-.41.49-.69.49-.46,0-.54-.4-.54-1.11v-3.78l1.5-.12v-.12h-1.5v-1.28h-.12l-.82.7v.58h-.92v.25h.92v3.7c0,.98.47,1.45,1.26,1.45M490.3,402h2.6v-.2c-.83,0-.83-.13-.83-.58v-2.96c.29-.74.81-1.36,1.6-1.36.72,0,1.06.52,1.06,1.6v2.73c0,.45,0,.58-.83.58v.2h2.6v-.2c-.83,0-.83-.13-.83-.58v-2.81c0-1.11-.62-1.81-1.69-1.81-.9,0-1.48.45-1.93,1.29v-3.89h-1.77v.2c.83,0,.83.12.83.57v6.45c0,.45,0,.58-.83.58v.2ZM485.5,398.35c0-1.13.59-1.58,1.28-1.58s1.3.51,1.3,1.65-.56,1.61-1.25,1.61c-.73,0-1.33-.55-1.33-1.69M485.03,403.34c0-.64.38-1.09,1.25-1.35.06.01.12.01.19.01l.8.02c.51.01,1.59.06,1.59,1.12,0,.93-.81,1.45-2.08,1.45s-1.75-.51-1.75-1.26M486.64,404.77c1.46,0,3.04-.55,3.04-2,0-1.03-.82-1.46-2.21-1.53l-.81-.04c-.75-.04-1.24-.09-1.24-.46,0-.31.44-.49.85-.58.16.02.33.04.49.04,1.29,0,2.16-.86,2.16-1.86,0-.49-.21-.91-.56-1.23h1.4l-.04-.37h-.61l-1.05.16c-.35-.2-.78-.31-1.26-.31-1.41,0-2.11.95-2.11,1.85,0,.76.49,1.39,1.27,1.64-.85.21-1.26.52-1.26.99s.39.78,1.24.89c-.82.14-1.85.6-1.85,1.43,0,.98,1.31,1.39,2.56,1.39M481.63,395.15c0,.39.31.65.66.65s.66-.26.66-.65c0-.42-.31-.66-.66-.66s-.66.23-.66.66M481.05,402h2.6v-.2c-.83,0-.83-.13-.83-.58v-4.47h-1.77v.2c.83,0,.83.12.83.57v3.7c0,.45,0,.58-.83.58v.2ZM476.55,398.73c.09-1.19.56-1.95,1.58-1.95.77,0,1.36.45,1.36,1.78l-.33.18h-2.61ZM478.2,402.15c.91,0,1.54-.39,2.02-1.1l-.14-.1c-.41.59-.96.8-1.66.8-.86,0-1.9-.33-1.9-2.53,0-.12,0-.24.01-.35h3.9c0-1.41-.96-2.27-2.24-2.27-1.59,0-2.62,1.31-2.62,2.89s1.12,2.66,2.62,2.66M470.57,397.45v.02s-1.3,3.62-1.3,3.62l-1.25-3.65c-.15-.43-.17-.5.62-.5v-.2h-2.62v.2c.77,0,.87.11,1.02.5l1.73,4.7h.3l1.6-4.39,1.64,4.39h.31l1.74-4.7c.15-.4.26-.5.91-.5v-.2h-1.94v.2c.96,0,.98.05.81.5l-1.34,3.67-1.28-3.67c-.15-.43-.16-.5.5-.5v-.2h-2.25v.2c.55,0,.61.07.77.5M458.46,401.08l2.74-5.93c.32.74.48,1.75.48,2.85,0,2.14-.58,3.98-1.9,3.98-.58,0-1-.34-1.31-.9M457.88,398c0-2.14.57-3.98,1.9-3.98.55,0,.97.33,1.27.85l-2.73,5.9c-.31-.72-.45-1.71-.45-2.77M459.78,402.15c1.55,0,2.87-1.65,2.87-4.15s-1.32-4.15-2.87-4.15-2.87,1.65-2.87,4.15,1.32,4.15,2.87,4.15M451.28,401.08l2.74-5.93c.33.74.48,1.75.48,2.85,0,2.14-.57,3.98-1.9,3.98-.58,0-1-.34-1.31-.9M450.69,398c0-2.14.58-3.98,1.9-3.98.55,0,.98.33,1.27.85l-2.73,5.9c-.31-.72-.45-1.71-.45-2.77M452.59,402.15c1.55,0,2.87-1.65,2.87-4.15s-1.32-4.15-2.87-4.15-2.88,1.65-2.88,4.15,1.32,4.15,2.88,4.15M442.83,398.95l3.06-4.55v4.55h-3.06ZM444.7,401.78v.22h3.35v-.22c-1.19,0-1.19-.13-1.19-.58v-1.45h1.69v-2h-.2c0,.82-.35,1.2-.73,1.2h-.76v-5.07h-.86l-3.71,5.41v.46h3.6v1.45c0,.45,0,.58-1.19.58M431.33,397.96h6.44l-2.1,2.12.12.12,3.02-2.4-3.02-2.4-.12.12,2.1,2.12h-6.44v.3ZM423.41,401.08l2.74-5.93c.33.74.48,1.75.48,2.85,0,2.14-.57,3.98-1.9,3.98-.57,0-1-.34-1.31-.9M422.83,398c0-2.14.58-3.98,1.9-3.98.55,0,.98.33,1.28.85l-2.73,5.9c-.31-.72-.45-1.71-.45-2.77M424.73,402.15c1.55,0,2.88-1.65,2.88-4.15s-1.32-4.15-2.88-4.15-2.87,1.65-2.87,4.15,1.32,4.15,2.87,4.15M416.23,401.08l2.74-5.93c.32.74.48,1.75.48,2.85,0,2.14-.58,3.98-1.9,3.98-.58,0-1-.34-1.31-.9M415.64,398c0-2.14.57-3.98,1.9-3.98.55,0,.97.33,1.27.85l-2.73,5.9c-.31-.72-.45-1.71-.45-2.77M417.54,402.15c1.55,0,2.87-1.65,2.87-4.15s-1.32-4.15-2.87-4.15-2.87,1.65-2.87,4.15,1.32,4.15,2.87,4.15M407.97,402h4.82v-.22c-1.93,0-1.93-.13-1.93-.63v-7.3h-.25c-.8.45-1.49.79-2.76.79v.25c1.06,0,1.58-.11,2.04-.36v6.62c0,.5,0,.63-1.92.63v.22ZM397.83,394.26h-.32v5.55h4.73l-1.57,1.75.12.07,2.48-1.97-2.48-1.97-.12.08,1.57,1.75h-4.41v-5.25Z"/>
      <path class="cls-10" d="M136.59,398.95l3.06-4.55v4.55h-3.06ZM138.46,401.78v.22h3.35v-.22c-1.19,0-1.19-.13-1.19-.58v-1.45h1.69v-2h-.2c0,.82-.35,1.2-.73,1.2h-.76v-5.07h-.86l-3.71,5.41v.46h3.6v1.45c0,.45,0,.58-1.19.58M130.81,401.08l2.74-5.93c.32.74.47,1.75.47,2.85,0,2.14-.57,3.98-1.9,3.98-.57,0-1-.34-1.31-.9M130.22,398c0-2.14.57-3.98,1.9-3.98.55,0,.98.33,1.28.85l-2.73,5.9c-.31-.72-.45-1.71-.45-2.77M132.12,402.15c1.55,0,2.88-1.65,2.88-4.15s-1.32-4.15-2.88-4.15-2.87,1.65-2.87,4.15,1.32,4.15,2.87,4.15M119.19,402h2.6v-.2c-.83,0-.83-.12-.83-.58v-2.96c.29-.74.81-1.36,1.6-1.36.73,0,1.06.53,1.06,1.6v2.73c0,.45,0,.58-.82.58v.2h2.6v-.2c-.83,0-.83-.12-.83-.58v-2.81c0-1.11-.62-1.81-1.69-1.81-.9,0-1.47.45-1.93,1.29v-1.14h-1.77v.2c.82,0,.82.12.82.58v3.7c0,.45,0,.58-.82.58v.2ZM114.26,400.78c0-.95.54-1.43,2.28-1.45v1.73c-.3.59-.81.8-1.33.8-.6,0-.95-.34-.95-1.08M117.59,402.15c.54,0,.74-.26.93-.57l-.12-.09c-.15.25-.31.4-.54.4-.29,0-.36-.25-.36-.8v-2.91c0-1.04-.76-1.57-1.85-1.57s-2.01.54-2.01,1.32c0,.38.18.59.5.59s.5-.26.5-.61c0-.74.18-1.1.9-1.1,1.01,0,1.01.7,1.01,1.5v.8c-1.76.02-3.22.46-3.22,1.69,0,.93.82,1.36,1.71,1.36s1.28-.4,1.51-.86c.05.6.51.86,1.05.86M110.04,402h2.6v-.2c-.82,0-.82-.12-.82-.58v-7.22h-1.77v.2c.82,0,.82.12.82.58v6.45c0,.45,0,.58-.82.58v.2ZM105.21,400.98v-3.36c.26-.36.8-.74,1.51-.74,1.1,0,1.69.94,1.69,2.46,0,1.88-.89,2.54-1.76,2.54-.7,0-1.18-.44-1.44-.9M103.44,404.62h2.85v-.2c-1.08,0-1.08-.13-1.08-.58v-2.58c.28.45.83.87,1.64.87,1.39,0,2.51-1.2,2.51-2.87s-1.06-2.67-2.4-2.67c-.75,0-1.4.34-1.75.84v-.69h-1.77v.2c.82,0,.82.12.82.58v6.33c0,.45,0,.58-.82.58v.2ZM97.08,402h2.6v-.2c-.83,0-.83-.13-.83-.58v-2.15h.35l1.45,2.15c.35.51.14.58-.48.58v.2h2.65v-.2c-.59,0-.74-.09-1-.48l-1.61-2.43,1.41-1.6c.29-.33.7-.35.97-.35v-.2h-1.7v.2c.47,0,.75.05.54.3l-1.36,1.53h-1.23v-4.77h-1.77v.2c.82,0,.82.12.82.58v6.45c0,.45,0,.58-.82.58v.2ZM92.55,402h2.6v-.2c-.83,0-.83-.12-.83-.58v-3.03c.2-.65.38-1.15.91-1.15.7,0,.41.88,1.08.88.29,0,.49-.18.49-.53,0-.45-.35-.8-1.01-.8-.81,0-1.22.5-1.46,1.15v-1h-1.77v.2c.82,0,.82.12.82.58v3.7c0,.45,0,.58-.82.58v.2ZM87.37,399.29c0-1.76.76-2.44,1.74-2.44,1.05,0,1.81.77,1.81,2.54s-.76,2.51-1.74,2.51c-1.05,0-1.81-.85-1.81-2.61M89.15,402.15c1.36,0,2.72-.97,2.72-2.77s-1.36-2.77-2.72-2.77-2.72.97-2.72,2.77,1.36,2.77,2.72,2.77M80.56,394.72l.2.59-1.89,5.51-1.86-6.1c-.11-.39-.1-.5.75-.5v-.22h-2.67v.22c.77,0,.82.1.95.5l2.34,7.42h.3l2.21-6.42,2.11,6.42h.3l2.34-7.42c.12-.39.16-.5,1.04-.5v-.22h-2v.22c.8,0,.81.11.69.5l-1.89,6.04-1.91-6.04c-.12-.39-.12-.5.63-.5v-.22h-2.59v.22c.78,0,.83.1.96.5M70.31,402.15c.58,0,.81-.27,1.04-.67l-.12-.08c-.19.35-.41.49-.69.49-.46,0-.54-.4-.54-1.11v-3.78l1.5-.12v-.12h-1.5v-1.28h-.12l-.82.7v.58h-.92v.25h.92v3.7c0,.98.48,1.45,1.26,1.45M64.12,402.15c.95,0,1.63-.54,1.93-1.34v1.19h1.77v-.2c-.82,0-.82-.12-.82-.58v-4.47h-1.77v.2c.82,0,.82.12.82.58v2.96c-.29.74-.72,1.36-1.54,1.36s-1.13-.55-1.13-1.73v-3.37h-1.77v.2c.82,0,.82.12.82.58v2.69c0,1.19.61,1.94,1.69,1.94M59.04,402.15c.79,0,1.46-.27,2.01-1.1l-.15-.11c-.46.64-1.03.81-1.58.81-1.08,0-1.88-.66-1.88-2.44,0-1.65.69-2.51,1.78-2.51.56,0,.64.27.74.79.05.28.21.51.54.51.25,0,.45-.15.45-.46,0-.62-.75-1.04-1.66-1.04-1.5,0-2.78,1.06-2.78,2.89,0,1.56.94,2.66,2.53,2.66M53.8,395.15c0,.39.31.65.66.65s.66-.26.66-.65c0-.42-.31-.66-.66-.66s-.66.23-.66.66M53.23,402h2.6v-.2c-.83,0-.83-.12-.83-.58v-4.47h-1.77v.2c.83,0,.83.12.83.58v3.7c0,.45,0,.58-.83.58v.2ZM50.08,402h2.6v-.2c-.82,0-.82-.12-.82-.58v-7.22h-1.77v.2c.83,0,.83.12.83.58v6.45c0,.45,0,.58-.83.58v.2ZM45.15,400.78c0-.95.54-1.43,2.28-1.45v1.73c-.3.59-.81.8-1.33.8-.6,0-.95-.34-.95-1.08M48.47,402.15c.54,0,.74-.26.92-.57l-.12-.09c-.15.25-.31.4-.54.4-.29,0-.36-.25-.36-.8v-2.91c0-1.04-.76-1.57-1.85-1.57s-2.01.54-2.01,1.32c0,.38.18.59.5.59s.5-.26.5-.61c0-.74.17-1.1.9-1.1,1.01,0,1.01.7,1.01,1.5v.8c-1.76.02-3.23.46-3.23,1.69,0,.93.82,1.36,1.71,1.36s1.28-.4,1.51-.86c.05.6.51.86,1.05.86M40.02,402.15c1.03,0,2.22-.29,2.97-.84l.15-1.32h-.3c-.31,1.17-1.36,1.94-2.83,1.94-1.91,0-3.33-1.29-3.33-3.8s1.45-4.05,3.36-4.05c1.31,0,2.46.7,2.79,1.94h.3l-.15-1.33c-.75-.55-1.96-.84-2.92-.84-2.54,0-4.41,1.94-4.41,4.29s1.89,4.01,4.36,4.01M25.63,402h3.67v-.22c-1.5,0-1.5-.12-1.5-.63v-3.04h1.61c.41,0,.92.1.92,1.06h.2v-2.3h-.2c0,.91-.51,1.03-.92,1.03h-1.61v-3.7h2.71c.42,0,1.05,0,1.18,1.4h.17v-1.6h-6.24v.22c1.2,0,1.2.12,1.2.62v6.3c0,.5,0,.63-1.2.63v.22ZM14.4,402h2.65v-.22c-1.2,0-1.2-.12-1.2-.63v-6.58l3.44,7.43h.08l3.29-7.5v6.65c0,.5,0,.63-1.2.63v.22h3.37v-.22c-1.2,0-1.2-.12-1.2-.63v-6.3c0-.5,0-.62,1.2-.62v-.22h-2.22l-2.94,6.64-2.98-6.64h-2.29v.22c1.2,0,1.2.12,1.2.62v6.3c0,.5,0,.63-1.2.63v.22Z"/>
      <path class="cls-10" d="M309.29,338.05l.4,1.9-5.2,24.3-5.4-26.2c-.7-3.4-1-4.6,2.8-4.6v-1.2h-13.7v1.2c2.9,0,3.7.9,4.6,4.6l8.7,37h1.9l7.1-31.7,7.4,31.7h1.7l8.3-37c.8-3.6,1.6-4.6,5.3-4.6v-1.2h-9.5v1.2c3.6,0,3.2,1.4,2.5,4.6l-5.3,26.1-5.3-26.1c-.7-3.2-1.1-4.6,3-4.6v-1.2h-14.3v1.2c3.6,0,4.1.9,5,4.6M273.09,351.55c0-13.3,1.2-19.1,4.3-19.1,3.8,0,5.1,8.6,5.1,22.6s-1.2,19-4.3,19c-3.8,0-5.1-8.5-5.1-22.5M277.79,375.25c7.6,0,11.1-8.5,11.1-21.9s-3.7-22.1-11.1-22.1-11.1,8.5-11.1,22.1,3.5,21.9,11.1,21.9M246.4,339.05v-27.1h1c4,0,7.6,2.7,7.6,14.5,0,8.2-1.7,12.6-6.3,12.6h-2.3ZM246.4,368.05v-27.4h1.5c5.7,0,8.9,5.7,8.9,15.9,0,11.5-3.9,16.1-8.1,16.1h-.5c-1.5,0-1.8-1-1.8-4.6M234.6,374.25h15.6c9,0,13.6-7.8,13.6-17.6,0-10.4-5.3-15.9-10.9-16.7,4.9-1.2,9.1-6.4,9.1-15,0-10.4-6.5-14.7-12.6-14.7h-14.8v1.4c5.2,0,5.2,1,5.2,4.6v52c0,3.6,0,4.6-5.2,4.6v1.4ZM202.4,364.35c0-7.2,2.3-11.9,7.6-12.1v16.7c-.6,1.9-1.7,3.6-3.7,3.6-2.5,0-3.9-2.7-3.9-8.2M215.6,375.25c3.2,0,4.9-1.8,5.9-3.6l-.7-.5c-.8,1.4-1.7,1.8-2.5,1.8-1.3,0-1.8-1.1-1.8-4.3v-27.3c0-2,0-10.3-8.6-10.3-6,0-9.7,5-9.7,10.3,0,2.5.9,3.5,2.9,3.5,1.8,0,3.1-.9,3.1-3.3,0-6.5.2-9,2.7-9,2.7,0,3.1,2.7,3.1,9.6v8.9c-6.2.1-13.8,3.4-13.8,13.9,0,6.6,3.2,10.3,7.6,10.3,3.3,0,5.4-1.7,6.3-4,.3,2.2,2.3,4,5.5,4M174.1,374.25h16.3v-1.2c-5.1,0-5.1-.6-5.1-3.8v-24.6c.1-4.4,1.3-10.3,4-10.3,2.9,0,1.4,5.7,4.9,5.7,1.6,0,2.6-1.1,2.6-3.3,0-3.1-1.9-5.5-5.2-5.5-3.9,0-5.4,3.3-6.3,7.3v-6.3h-11.2v1.2c4.8,0,4.8.6,4.8,3.8v32c0,3.2,0,3.8-4.8,3.8v1.2ZM155.9,364.35c0-7.2,2.3-11.9,7.6-12.1v16.7c-.6,1.9-1.7,3.6-3.7,3.6-2.5,0-3.9-2.7-3.9-8.2M169.1,375.25c3.2,0,4.9-1.8,5.9-3.6l-.7-.5c-.8,1.4-1.7,1.8-2.5,1.8-1.3,0-1.8-1.1-1.8-4.3v-27.3c0-2,0-10.3-8.6-10.3-6,0-9.7,5-9.7,10.3,0,2.5.9,3.5,2.9,3.5,1.8,0,3.1-.9,3.1-3.3,0-6.5.2-9,2.7-9,2.7,0,3.1,2.7,3.1,9.6v8.9c-6.2.1-13.8,3.4-13.8,13.9,0,6.6,3.2,10.3,7.6,10.3,3.3,0,5.4-1.7,6.3-4,.3,2.2,2.3,4,5.5,4M133,374.25h16v-1.2c-4.8,0-4.8-.6-4.8-3.8v-59h-11.2v1.2c4.8,0,4.8.6,4.8,3.8v54c0,3.2,0,3.8-4.8,3.8v1.2ZM121.9,375.25c3.8,0,6.4-2.1,8.6-5l1.1-10.6h-1.7c-1.5,8.4-3.2,14-7.2,14-4.2,0-6-5.8-6-31.4s1.8-31.5,6-31.5,5.7,5.7,7.2,14.1h1.7l-1.1-10.6c-2.2-2.9-4.8-5-8.6-5-9.6,0-12.2,10.9-12.2,32.8,0,23,2.8,33.2,12.2,33.2M78.02,355.67c1.85-8.71,5.32-17.13,9.3-17.13s3.12,8.34,1.19,17.42c-1.97,9.27-4.84,18.02-8.54,18.02s-3.99-8.71-1.95-18.31h0ZM79.2,375.45c4.67,0,11.04-5.34,14.19-20.17,2.3-10.84,1.33-18.92-4.25-18.92-2.49,0-5.99,1.64-8.8,7.49,5.67-21.17,11.01-28.95,19.54-33.61l-.4-1.2c-12.78,5.47-20.9,21.07-24.75,39.14-3.37,15.87-2.22,27.25,4.47,27.25h0ZM50.39,373l-.33,1.25h16.5l2.04-9.26h-1.31c-1.2,5.68-2.59,5.82-5.14,5.82h-8.07c8.51-10.73,18.38-21.73,18.38-32.83,0-4.68-1.86-6.93-5.46-6.93-5.19,0-7.67,4.76-9.22,11.12l1.59.04c1.59-6.41,3.71-9.45,6.46-9.45,1.76,0,2.22,1.39,2.22,4.13,0,7.74-3.72,17.76-17.62,36.11h0ZM42.01,328.73c2.03-9.55,4.88-18.21,8.57-18.21s3.99,8.71,1.95,18.31c-1.91,8.99-5.42,17.6-9.4,17.6s-3.06-8.62-1.13-17.7h0ZM30.66,374.25l.42,1.2c12.72-5.46,20.89-21.02,24.75-39.14,3.37-15.86,2.22-27.26-4.47-27.26-4.67,0-11.04,5.34-14.19,20.17-2.3,10.84-1.33,18.92,4.25,18.92,2.48,0,5.95-1.53,8.68-7.04-5.62,20.83-10.95,28.53-19.44,33.15h0ZM11.7,374.25h14.26l.31-1.26c-4.79,0-4.55-.99-3.79-4.6l12.65-59.15h-.78c-3.53,3.48-6.63,5.44-10.67,5.44l-.21,1.2c2.49.07,4.26-.47,5.77-1.34l-11.44,53.85c-.76,3.61-1,4.6-5.79,4.6l-.31,1.26Z"/>
      <path class="cls-10" d="M555.26,278.44c2.36-9.2,6.3-18.31,8.97-18.31,1.7,0,1.67,3.28,1.18,6.02-1.14,6.35-4.91,9.99-10.15,12.29h0ZM555.3,303.26c4.44,0,6.62-4.12,8.54-9.33l-.93-.54c-1.92,4.71-4.03,7.42-6.34,7.42-4.49,0-3.95-8.97-2.54-16.79.25-1.41.56-2.86.91-4.32,7.87-2.67,13.24-7.11,14.34-13.18.61-3.37-.13-7.29-4.81-7.29-7.95,0-12.87,13.23-14.87,24.34-1.49,8.26-2.06,19.69,5.71,19.69h0ZM535.83,303.45c5.05,0,7.75-6.44,10.16-12.9l-.74-.35c-2.07,5.87-4.41,11-7.85,11-4.12,0-3.78-6.95-.99-20.16,2.8-13.27,5.46-20.72,9.25-20.72,2.96,0,.92,4.64.92,7.26,0,1.59.74,2.05,1.64,2.05,2.15,0,2.77-2.75,2.77-4.65,0-3.32-1.8-5.92-5.21-5.92-6.12,0-11.05,8.48-13.93,22.13-2.91,13.77-2.2,22.27,3.97,22.27h0ZM498.68,324.45c11.64,0,32.71-37.74,32.71-57.87,0-4.34-.97-7.53-3.98-7.53-1.65,0-2.36.88-2.36,1.96,0,2.39,3.74,1.21,3.74,8.86,0,11.13-6.44,27.08-15.39,40.65,4.84-14.38,6-31.86,6-39.05,0-10.31-2.44-12.42-5.54-12.42-2.93,0-4.37,1.91-5.62,4.44l.58.31c1.01-1.74,1.72-2.31,2.74-2.31,1.67,0,3.3,1.56,3.3,10.19,0,13.55-3.95,50.19-13.84,50.19-3.51,0-.79-4.94-3.91-4.94-1.42,0-2.46.95-2.46,3.07,0,2.25,1.16,4.43,4.02,4.43h0ZM491.87,279.55c2.99-13.49,5.67-19.43,8.67-19.43,3.46,0,3.38,7.94.07,22.86-2.99,13.52-5.67,19.39-8.65,19.39-3.47,0-3.4-7.89-.09-22.82h0ZM492.01,303.26c6.39,0,10.68-8.57,13.52-21.94,2.9-13.64,1.91-22.08-5.06-22.08-6.33,0-10.68,8.57-13.54,21.99-2.89,13.58-1.97,22.04,5.08,22.04h0ZM470.14,303.45c5.94,0,8.86-5.29,11.7-18.8l8.56-40.54c.76-3.61,1-4.6,5.79-4.6l.31-1.26h-14.32l-.31,1.26c4.79,0,4.55.99,3.79,4.6l-8.35,39.34c-.01,14.94-2.91,18.74-6.14,18.74-1.67,0-2.19-1.18-1.91-5.18.19-2.48-.67-3.06-1.91-3.06-2.49,0-2.99,2.33-2.99,4.24,0,2.94,1.84,5.26,5.79,5.26h0ZM420.39,276.05c1.1-10.1,6.3-15.8,14-15.8,6.5,0,12.1,4.2,12.5,14.4l-4.2,1.4h-22.3ZM434.99,303.45c7,0,12.8-3.1,16.3-9.5l-.9-.5c-2.9,5.1-8.1,7.5-14,7.5-7.7,0-16.2-4.4-16.2-20.8,0-1,0-2,.1-3h31.6c0-11.4-7.2-18.1-17.1-18.1-12.4,0-19.6,10.5-19.6,22.5,0,13.4,8.3,21.9,19.8,21.9M395.09,303.35c7,0,12.9-2.9,16.3-9.6l-.9-.6c-3,5.7-8.3,7.8-13.8,7.8-9.5,0-15.5-6.5-15.5-20.6s6-19.9,15.5-19.9c5.3,0,7.5,2.1,9.1,6.9.4,1.9,1.4,2.9,2.9,2.9,1.4,0,2.4-.9,2.4-2.7,0-5.1-6.9-8.4-14.4-8.4-11.7,0-20.5,8.2-20.5,22.7,0,12.7,6.9,21.5,18.9,21.5M358.89,247.55c0,2.4,1.9,4.1,4.1,4.1s4.2-1.7,4.2-4.1c0-2.6-2-4.2-4.2-4.2s-4.1,1.5-4.1,4.2M353.89,302.25h19.3v-1.2c-7.2,0-7.2-.9-7.2-4.3v-36.5h-12.1v1.2c7.2,0,7.2.9,7.2,4.3v31c0,3.4,0,4.3-7.2,4.3v1.2ZM332.99,302.25h19.3v-1.2c-7.2,0-7.2-.9-7.2-4.3v-58.5h-12.1v1.2c7.2,0,7.2.9,7.2,4.3v53c0,3.4,0,4.3-7.2,4.3v1.2ZM284.29,276.85l13.3-31.8,12.7,31.8h-26ZM266.89,300.85v1.4h15.7v-1.4c-7.7,0-7.8-.9-6.4-4.5l7.5-18h27.2l7.1,18c1.4,3.6,1.3,4.5-7.3,4.5v1.4h21.6v-1.4c-6.6,0-7.3-.8-8.8-4.5l-23.6-58.7h-1.3l-24.2,58.7c-1.5,3.6-2.1,4.5-7.5,4.5"/>
      <path class="cls-10" d="M417.1,231.35l-5.3,10.8h1.2l5.7-9.4c1.8-3,2.6-4.3,2.6-6,0-3.1-2-4.7-4.7-4.7s-4.7,1.8-4.7,4.8c0,2.4,1.7,4.8,5.2,4.5M395.7,231.35c6.9,0,12-3.2,12-11.2,0-14.9-18.4-15-18.4-25.6,0-3.5,2.2-5.9,5.9-5.9,7.4,0,3.4,8.3,8.6,8.3,1.8,0,2.8-1.1,2.8-3,0-4.1-4.8-6.8-10.8-6.8s-11.5,2.7-11.5,10c0,13.5,18.3,13.1,18.3,25.7,0,4.1-2.2,7-6.3,7-8,0-4.2-9.9-9.7-9.9-1.7,0-3.2.9-3.2,3.3,0,4.5,5.4,8.1,12.3,8.1M356.8,220.35c0-7.3,3.2-11.6,11.9-11.8v15.2c-1.2,3.1-3.6,5-6.5,5-3.4,0-5.4-2.7-5.4-8.4M375.4,231.35c3.6,0,5.3-1.9,6.5-4l-.8-.6c-1,1.7-2,2.3-3.2,2.3-1.7,0-2.3-1.4-2.3-5.1v-25.7c0-4.5-2.4-11.2-11-11.2-7.1,0-12.3,4.7-12.3,10.4,0,2.7,1.1,4,3.3,4s3.5-1.4,3.5-4c0-6.2.6-8.9,4.5-8.9,4.8,0,5.1,3.9,5.1,10.6v7.9c-9.4.1-18.6,3.5-18.6,13.8,0,6.9,4.5,10.5,10,10.5,4.8,0,7.3-2.4,8.6-5.3.3,3.3,2.9,5.3,6.7,5.3M289.6,230.25h17v-1.4c-4.6,0-4.6-.7-4.6-4.1v-25.5c1.6-6.1,4.2-9.3,8.1-9.3,3.6,0,5.3,2.8,5.3,10.2v24.6c0,3.4,0,4.1-4.6,4.1v1.4h16.2v-1.4c-4.7,0-4.7-.7-4.7-4.1v-26.5c1.7-5.4,4.4-8.3,8.2-8.3,3.6,0,5.3,2.8,5.3,10.2v24.6c0,3.4,0,4.1-4.7,4.1v1.4h17.1v-1.4c-5.5,0-5.5-.7-5.5-4.1v-25.4c0-7.5-3.3-12.2-9.8-12.2-5.3,0-8.7,3.3-10.9,8.7-.9-5.4-4-8.7-9.3-8.7s-8.6,3.3-10.7,8.8v-7.7h-12.4v1.4c5.5,0,5.5.7,5.5,4.1v31c0,3.4,0,4.1-5.5,4.1v1.4ZM264.1,207.95c0-13.6,3.2-19.3,8.1-19.3,5.6,0,8.9,7.7,8.9,21.7s-3.2,19.5-8.1,19.5c-5.7,0-8.9-7.8-8.9-21.9M272.6,231.35c8.9,0,15.4-8.2,15.4-22.1s-6.6-22.1-15.4-22.1-15.4,8.2-15.4,22.1,6.4,22.1,15.4,22.1M217.3,230.25h17v-1.4c-4.6,0-4.6-.7-4.6-4.1v-25.7c1.6-6.2,4.5-9.3,8.4-9.3s5.4,2.8,5.4,10.2v24.8c0,3.4,0,4.1-4.6,4.1v1.4h17v-1.4c-5.5,0-5.5-.7-5.5-4.1v-25.4c0-8.3-3.8-12.2-9.9-12.2-5.4,0-8.6,3-10.8,8.1v-29h-12.4v1.4c5.5,0,5.5.7,5.5,4.1v53c0,3.4,0,4.1-5.5,4.1v1.4ZM185.8,230.25h21.1v-1.6c-7,0-7-1-7-4.7v-51.7c0-2.8.8-4.6,4.7-4.6h3c2.9,0,6.2,2.1,6.6,11.8h1.5v-13.2h-38.5v13.2h1.4c0-9.7,3.6-11.8,6.5-11.8h3c3.9,0,4.7,1.8,4.7,4.6v51.7c0,3.7,0,4.7-7,4.7v1.6ZM136.5,203.95c.4-9.5,2.2-15.6,7.2-15.6,3.9,0,6.3,4.1,6.3,14.2l-2.7,1.4h-10.8ZM144.2,231.45c5.5,0,8.9-3.2,11.4-9.4l-.9-.6c-2.2,4.8-4.9,6.9-8.7,6.9-5.5,0-9.5-4.6-9.5-21.3v-1.9h20.1c0-11.4-4.4-18.1-12.4-18.1-10.1,0-14.6,10.8-14.6,22.1,0,13.5,5.6,22.3,14.6,22.3M100.6,194.25l10.5,37h2.6l10.4-37c1-3.6,2-4.6,5.5-4.6v-1.4h-10.6v1.4c4.2,0,4.4.8,3.4,4.6l-7.7,27.8-6.8-27.8c-.9-3.8-.9-4.6,3.8-4.6v-1.4h-16.9v1.4c3.7,0,4.8.9,5.8,4.6M82.8,175.85c0,2.9,2.3,4.7,4.8,4.7s4.8-1.8,4.8-4.7-2.3-4.7-4.8-4.7-4.8,1.7-4.8,4.7M79.2,230.25h17.9v-1.4c-5.5,0-5.5-.7-5.5-4.1v-36.5h-12.4v1.4c5.5,0,5.5.7,5.5,4.1v31c0,3.4,0,4.1-5.5,4.1v1.4ZM60.6,230.25h17.9v-1.4c-5.5,0-5.5-.7-5.5-4.1v-58.5h-12.4v1.4c5.5,0,5.5.7,5.5,4.1v53c0,3.4,0,4.1-5.5,4.1v1.4ZM24.9,197.65c0-22.3,4.7-30.8,13.3-30.8,9.6,0,13.6,10.9,13.6,31.9,0,22.3-4.7,30.9-13.3,30.9-9.6,0-13.6-10.9-13.6-32M38.3,231.35c11.9,0,20.9-11.3,20.9-33s-9.1-33.2-20.8-33.2-20.9,11.1-20.9,33,9.1,33.2,20.8,33.2"/>
      <path class="cls-10" d="M526.83,159.45c5.07,0,7.98-6.11,10.66-12.7l-.77-.41c-2.16,5.75-4.49,10.61-7.86,10.61-4.37,0-4.01-7.24-1.27-20.23,2.73-12.92,5.38-20.34,9.1-20.34,2.91,0,.84,4.74.84,7.42,0,1.65.78,2.2,1.86,2.2,2.35,0,3.13-2.83,3.13-4.87,0-3.38-1.9-6.08-5.68-6.08-6.59,0-11.91,8.39-14.8,22.06-2.86,13.57-2.02,22.34,4.79,22.34h0ZM493.31,159.45c4.41,0,8.43-1.64,10.09-9.42,2.91-13.68-8.09-18.79-5.94-28.92.41-1.94,1.36-4.73,4.34-4.73,5.1,0-.54,7.75,4.02,7.75,1.41,0,2.43-.79,2.75-2.78.67-3.67-1.84-6.29-6.54-6.29-4.03,0-7.94,1.63-9.3,7.91-2.53,11.56,8.25,16.85,5.84,28.88-.73,3.64-2.06,6.29-5.12,6.29-5.47,0,.91-9.19-4.28-9.19-1.53,0-2.55.85-2.93,3.06-.71,3.92,1.59,7.46,7.09,7.46M474.31,159.45c4.41,0,8.43-1.64,10.09-9.42,2.91-13.68-8.09-18.79-5.94-28.92.41-1.94,1.36-4.73,4.34-4.73,5.1,0-.54,7.75,4.01,7.75,1.41,0,2.43-.79,2.75-2.78.67-3.67-1.84-6.29-6.54-6.29-4.03,0-7.94,1.63-9.3,7.91-2.53,11.56,8.25,16.85,5.84,28.88-.73,3.64-2.06,6.29-5.12,6.29-5.47,0,.91-9.19-4.29-9.19-1.53,0-2.55.85-2.93,3.06-.71,3.92,1.59,7.46,7.09,7.46M455.93,134.55c2.3-9.19,6.23-18.35,8.94-18.35,1.73,0,1.67,3.32,1.18,6.06-1.17,6.43-4.94,10.07-10.12,12.29M455.86,159.27c4.67,0,7.14-4.01,9.28-9.36l-.94-.57c-2.08,4.66-4.22,7.24-6.54,7.24-4.71,0-4.29-8.95-2.81-17,.22-1.2.47-2.43.76-3.67,7.93-2.55,13.83-6.82,14.99-13.12.68-3.65-.46-7.54-5.42-7.54-8.57,0-13.74,13.05-15.78,24.22-1.54,8.43-1.9,19.82,6.46,19.82h0ZM435.85,122.35l-7.6,35.9h5.42l6.31-29.5c1.2-4.99,3.57-10.75,6.25-10.75,2.54,0,.12,5.35,3.45,5.35,2.1,0,3.05-1.89,3.05-4.05,0-2.27-1.06-4.25-3.9-4.25-3.35,0-5.69,2.68-7.61,7.58l.36-1.84c.75-3.89-.94-5.74-3.65-5.74-3.44,0-5.5,2.85-6.66,4.76l.65.43c1.11-1.66,1.84-2.44,2.91-2.44,1.31,0,1.7,1.23,1.01,4.55h0ZM409.59,137.1c2.27-10.67,6.08-19.3,10.02-19.3,1.39,0,2.72,1.11,2.98,3.81l-6.38,30.05c-1.41,3.84-3.25,5.97-5.1,5.97-4.01,0-3.74-10.07-1.52-20.52h0ZM409.29,159.45c3.1,0,5.07-1.94,6.43-4.89-.15,2.68.91,4.45,4,4.45,2.84,0,4.84-1.48,6-3.77l-.55-.4c-.94,1.33-1.72,1.89-2.71,1.89-1.77,0-1.47-1.88-.8-5.01l12.21-57.46h-10.18l-.24,1.12c4.72,0,4.58.57,3.91,3.72l-4.34,20.43c-.41-3.06-2.35-4.3-4.64-4.3-6.42,0-11.57,10.13-14.12,22.13-2.24,10.52-2.43,22.09,5.02,22.09h0ZM383.43,158.25h2.3l30.6-64h-2.3l-30.6,64ZM378.15,122.35l-7.6,35.9h5.42l6.31-29.5c1.2-4.99,3.58-10.75,6.25-10.75,2.54,0,.12,5.35,3.45,5.35,2.1,0,3.05-1.89,3.05-4.05,0-2.27-1.06-4.25-3.9-4.25-3.35,0-5.69,2.68-7.61,7.58l.36-1.84c.75-3.89-.94-5.74-3.65-5.74-3.44,0-5.5,2.85-6.66,4.76l.65.43c1.11-1.66,1.84-2.44,2.91-2.44,1.31,0,1.7,1.23,1.01,4.55h0ZM357.54,134.55c2.3-9.19,6.23-18.35,8.94-18.35,1.73,0,1.67,3.32,1.18,6.06-1.17,6.43-4.94,10.07-10.12,12.29M357.46,159.27c4.67,0,7.14-4.01,9.28-9.36l-.94-.57c-2.08,4.66-4.22,7.24-6.54,7.24-4.71,0-4.29-8.95-2.81-17,.22-1.2.47-2.43.76-3.67,7.93-2.55,13.83-6.82,14.99-13.12.68-3.65-.46-7.54-5.42-7.54-8.57,0-13.74,13.05-15.78,24.22-1.54,8.43-1.9,19.82,6.46,19.82h0ZM315.38,122.35l-7.69,35.9h5.44l6.91-32.08c2.7-6.57,5.16-8.52,7.51-8.52,2.15,0,2.95,1.74,2.3,4.62l-7.7,35.98h5.42l6.88-32.45c2.65-6.28,5.17-8.15,7.49-8.15,2.15,0,2.95,1.74,2.3,4.62l-6.51,30.39c-.81,3.71-.06,6.35,3.69,6.35,2.93,0,4.93-1.84,6.44-4.65l-.72-.4c-1.21,1.96-1.9,2.76-2.99,2.76-1.66,0-1.42-2.17-.79-5.01l6.15-29.04c1.16-5.36-.96-7.62-4.76-7.62-4.07,0-7.2,2.43-9.5,7,.85-4.91-1.23-7-4.88-7-4.15,0-7.32,2.67-9.58,7.55l.13-.6c1.19-5.31-.83-6.51-3.41-6.51-3.34,0-5.51,2.65-6.69,4.67l.65.51c1.1-1.65,2.09-2.44,3.17-2.44s1.45.88.75,4.11h0ZM291.96,135.56c2.99-13.49,5.65-19.36,8.61-19.36,3.44,0,3.35,7.93.05,22.83-2.99,13.53-5.63,19.27-8.58,19.27-3.45,0-3.38-7.83-.09-22.74h0ZM292.05,159.27c6.91,0,11.57-8.42,14.44-21.89,2.93-13.78,1.48-22.16-5.91-22.16-6.78,0-11.58,8.41-14.46,21.98-2.91,13.66-1.59,22.07,5.94,22.07h0ZM268.74,125.47l6.24-29.69h2.65c2.47,0,5.59,1.93,2.84,15.09-1.95,9.21-4.8,14.6-10.15,14.6h-1.57ZM250.98,158.25h15.55l.32-1.33c-4.85,0-4.64-1-3.88-4.6l5.44-25.34h1.85c4.55,0,4.03,3.12,2.98,12.51l-1.15,10.29c-.71,6.53,1.23,9.16,6.28,9.16,1.15,0,2.39-.11,4.07-.7l.24-1.12c-5.04.79-4.99-1.74-4.48-6.64l1.07-11.01c.74-7.66-1.29-11.73-4.9-12.74,4.29-1.18,9.86-6.56,12.05-16.95,2.62-12.09-2.61-15.54-7.87-15.54h-13.83l-.33,1.33c4.97,0,4.74.99,3.98,4.6l-11.08,52.15c-.76,3.61-1,4.6-5.97,4.6l-.33,1.32ZM230.3,159.45c3.24,0,5.27-1.55,7.17-4.18l-.56-.51c-1.88,2.5-3.32,3.1-4.57,3.1-2.9,0-3.02-2.92-1.8-8.66l6.52-30.82,8.46-1,.23-1.12h-8.25l2.3-10.7h-1l-5.75,6.1-1,4.6h-4.52l-.44,2.12h4.52l-6.19,29.1c-1.71,8.03-.11,11.97,4.87,11.97h0ZM210.74,134.55c2.3-9.19,6.23-18.35,8.94-18.35,1.73,0,1.67,3.32,1.18,6.06-1.17,6.43-4.94,10.07-10.12,12.29M210.66,159.27c4.67,0,7.13-4.01,9.28-9.36l-.94-.57c-2.08,4.66-4.22,7.24-6.54,7.24-4.71,0-4.29-8.95-2.81-17,.22-1.2.47-2.43.76-3.67,7.93-2.55,13.83-6.82,14.99-13.12.68-3.65-.46-7.54-5.42-7.54-8.57,0-13.74,13.05-15.78,24.22-1.54,8.43-1.9,19.82,6.46,19.82h0ZM193.85,159.01c3.08,0,5.29-1.51,7.32-3.95l-.55-.57c-1.52,1.35-2.78,2.06-3.96,2.06-1.92,0-1.64-1.99-1.01-4.94l12.19-57.36h-10.13l-.24,1.12c4.73,0,4.58.57,3.91,3.72l-11.38,53.56c-.82,3.85-.06,6.35,3.86,6.35h0ZM174.87,135.56c2.99-13.49,5.65-19.36,8.61-19.36,3.44,0,3.35,7.93.05,22.83-2.99,13.53-5.63,19.27-8.58,19.27-3.45,0-3.38-7.83-.09-22.74h0ZM174.95,159.27c6.91,0,11.57-8.42,14.44-21.89,2.93-13.78,1.48-22.16-5.91-22.16-6.78,0-11.58,8.41-14.46,21.98-2.91,13.66-1.59,22.07,5.94,22.07h0ZM164.38,104.89c0,2.11,1.46,3.39,3.42,3.39,2.28,0,4.85-1.73,4.85-4.59,0-2.15-1.44-3.38-3.45-3.38-2.52,0-4.82,1.93-4.82,4.58M159.12,159.01c2.91,0,4.9-1.49,6.06-3.77l-.55-.4c-.95,1.35-1.72,1.89-2.72,1.89-1.75,0-1.47-1.9-.79-5.01l6.4-29.27c1.13-5.15-.95-6.95-3.6-6.95-3.31,0-5.35,2.72-6.38,4.71l.65.51c1.01-1.65,1.63-2.47,2.71-2.47,1.34,0,1.72,1.28,1.02,4.55l-6.45,29.88c-.73,3.36-.47,6.35,3.65,6.35h0ZM136.63,99.98l-2.26,59.32h2.78l23.14-59.32c1.41-3.61,2.29-4.4,5.65-4.4l.23-1.32h-9.74l-.23,1.32c3.7,0,3.67.79,2.27,4.4l-18.38,47.48,2.62-47.48c.2-3.6.59-4.4,5.15-4.4l.23-1.32h-16.18l-.23,1.32c4.72,0,5.07.7,4.93,4.4h0ZM102.9,158.25h3.9l15.8-62.6v-1.4h-26.3v8.9h1.3c0-6.2,3.1-6.2,6-6.2h17.4l-18.1,61.3ZM66.9,156.55v1.7h26.5v-13h-1.2c0,10-.8,10.2-5,10.2h-17.1c13.9-20.4,21.9-30,21.9-44.7,0-12.8-4.8-17.7-11.8-17.7-8.2,0-10.6,7.3-12.2,16.7l1.2.1c1.3-8.6,4.1-15.4,10.5-15.4,7.1,0,8.5,7.5,8.5,16.4,0,15.6-5,22.5-21.3,45.7M38.3,112.65c0-9.7,2.8-18.2,10.2-18.2,8.1,0,11.7,9,11.7,18.2s-4.5,17.8-11.9,17.8-10-8.5-10-17.8M37.6,158.25l.5,1.2c17.6-4.7,26.1-19.9,26.1-39.5,0-16.1-4.8-26.9-15.1-26.9-7.8,0-14.7,5.5-14.7,19.9,0,11.3,4.9,19,13,19,5.6,0,11-2.6,13.1-10.1-.8,23.3-8.3,32.2-22.9,36.4M16.4,158.25h16.3v-1.2c-6.2,0-6.2-.9-6.2-4.6v-59.2h-.8c-2.8,3.3-6.2,5.3-10.2,5.3v1.2c3.1,0,5.4-.8,7.2-2v54.7c0,3.7,0,4.6-6.3,4.6v1.2Z"/>
      <path class="cls-10" d="M554.79,87.25c5.3,0,10.3-2.3,10.3-10,0-13.7-17.4-16.2-17.4-26.7,0-3.2,1.9-6.1,6.5-6.1,7.7,0,4.4,7.4,8.3,7.4.9,0,1.6-.6,1.6-2.3,0-3.6-3.9-6.3-9.6-6.3-4.9,0-9.7,1.8-9.7,8.6,0,12.3,17.3,13.7,17.3,26.9,0,3.9-1.9,7.3-7.1,7.3-8.4,0-5.1-9-9.1-9-1,0-1.8.6-1.8,2.5,0,4.2,4.6,7.7,10.7,7.7M509.19,86.25h14.3v-1c-4.9,0-4.9-.6-4.9-3.8v-18.6h3.7l9.1,17.8c1.8,3.7,1.1,4.6-2.8,4.6v1h14.5v-1c-4.2,0-5.9-.7-7.5-4l-10.2-19.5,9.1-13.7c1.5-2.2,2.9-2.8,5.5-2.8v-1h-11v1c2.8,0,5.4.5,4.1,2.4l-8.5,13.1h-6V22.25h-9.4v1c5.8,0,5.8.6,5.8,3.8v54.4c0,3.2,0,3.8-5.8,3.8v1ZM486.39,63.75c0-13.6,3.8-19.5,8.7-19.5,6.2,0,9.4,8.8,9.4,22.5s-3.8,19.5-8.7,19.5c-6.2,0-9.4-8.8-9.4-22.5M495.39,87.25c8.3,0,12.7-8.7,12.7-22s-4.4-22-12.7-22-12.6,8.7-12.6,22,4.4,22,12.6,22M457.09,63.75c0-13.6,3.8-19.5,8.7-19.5,6.2,0,9.4,8.8,9.4,22.5s-3.8,19.5-8.7,19.5c-6.2,0-9.4-8.8-9.4-22.5M466.09,87.25c8.3,0,12.7-8.7,12.7-22s-4.4-22-12.7-22-12.6,8.7-12.6,22,4.4,22,12.6,22M429.89,86.25h15.2v-1c-5.8,0-5.8-.6-5.8-3.8v-24.8c.5-4.8,2.4-11.2,6.2-11.2,3.5,0,2.6,5.1,5.3,5.1,1,0,1.6-.8,1.6-2.3,0-2.5-1.9-5-5.5-5-4.3,0-6.3,3.7-7.6,8.2v-7.2h-9.4v1c5.8,0,5.8.6,5.8,3.8v32.4c0,3.2,0,3.8-5.8,3.8v1ZM403.69,51.15v-27.5h7.5c6.2,0,11.1,3.1,11.1,14.5,0,8-2.5,13-9.1,13h-9.5ZM403.69,80.45v-27.9h8.2c8.1,0,12.2,5.8,12.2,16,0,12.9-7,16.5-11.3,16.5h-5.2c-2.8,0-3.9-.8-3.9-4.6M393.69,86.25h19.3c10.6,0,15.3-7.7,15.3-17.8s-4.8-15.7-11.4-16.5c5.7-1.2,9.6-6.4,9.6-14.8,0-10.9-7.3-14.9-14.3-14.9h-18.5v1.2c6.2,0,6.2.9,6.2,4.6v52.4c0,3.7,0,4.6-6.2,4.6v1.2ZM357.19,60.05c.5-10.3,3.3-16,8-16,4.1,0,7.2,4.4,7.4,14.6l-3.6,1.4h-11.8ZM365.79,87.45c5,0,8.2-3.3,10.3-9.8l-.9-.4c-1.7,5.2-4.9,8-8.8,8-5.4,0-9.3-5.8-9.3-21.7v-2.5h19.2c0-11.5-4-18-10.8-18-8.8,0-12,10.7-12,21.5,0,13.7,4.2,22.9,12.3,22.9M339.3,87.25c5.3,0,10.3-2.3,10.3-10,0-13.7-17.4-16.2-17.4-26.7,0-3.2,1.9-6.1,6.5-6.1,7.7,0,4.4,7.4,8.3,7.4.9,0,1.6-.6,1.6-2.3,0-3.6-3.9-6.3-9.6-6.3-4.9,0-9.7,1.8-9.7,8.6,0,12.3,17.3,13.7,17.3,26.9,0,3.9-1.9,7.3-7.1,7.3-8.4,0-5.1-9-9.1-9-1,0-1.8.6-1.8,2.5,0,4.2,4.6,7.7,10.7,7.7M315.2,32.15c0,2,1.6,3.3,3.3,3.3,1.8,0,3.4-1.3,3.4-3.3,0-2.1-1.6-3.3-3.4-3.3-1.7,0-3.3,1.2-3.3,3.3M311.5,86.25h15.2v-1c-5.8,0-5.8-.6-5.8-3.8v-37.2h-9.4v1c5.8,0,5.8.6,5.8,3.8v32.4c0,3.2,0,3.8-5.8,3.8v1ZM292,87.45c5.3,0,8.3-3.2,10.1-8.1v6.9h9.3v-1c-5.7,0-5.7-.6-5.7-3.8v-37.2h-9.4v1c5.8,0,5.8.6,5.8,3.8v27.4c-1.8,6.7-4.6,9.4-9.1,9.4s-6.7-2.7-6.7-10v-31.6h-9.4v1c5.8,0,5.8.6,5.8,3.8v27.5c0,8,3.6,10.9,9.3,10.9M254,63.75c0-13.6,3.8-19.5,8.7-19.5,6.2,0,9.4,8.8,9.4,22.5s-3.8,19.5-8.7,19.5c-6.2,0-9.4-8.8-9.4-22.5M263,87.25c8.3,0,12.7-8.7,12.7-22s-4.4-22-12.7-22-12.6,8.7-12.6,22,4.4,22,12.6,22M216.5,86.25h31.6l.1-11.3h-1.2c0,10.1-3.2,10.1-7.7,10.1h-7.9c-4.5,0-4.9-1.3-4.9-4.6V28.05c0-3.7,0-4.6,6.3-4.6v-1.2h-16.3v1.2c6.2,0,6.2.9,6.2,4.6v52.4c0,3.7,0,4.6-6.2,4.6v1.2ZM189,87.25c5.3,0,10.3-2.3,10.3-10,0-13.7-17.4-16.2-17.4-26.7,0-3.2,1.9-6.1,6.5-6.1,7.7,0,4.4,7.4,8.3,7.4.9,0,1.6-.6,1.6-2.3,0-3.6-3.9-6.3-9.6-6.3-4.9,0-9.7,1.8-9.7,8.6,0,12.3,17.3,13.7,17.3,26.9,0,3.9-1.9,7.3-7.1,7.3-8.4,0-5.1-9-9.1-9-1,0-1.8.6-1.8,2.5,0,4.2,4.6,7.7,10.7,7.7M164.4,87.25c5.3,0,10.3-2.3,10.3-10,0-13.7-17.4-16.2-17.4-26.7,0-3.2,1.9-6.1,6.5-6.1,7.7,0,4.4,7.4,8.3,7.4.9,0,1.6-.6,1.6-2.3,0-3.6-3.9-6.3-9.6-6.3-4.9,0-9.7,1.8-9.7,8.6,0,12.3,17.3,13.7,17.3,26.9,0,3.9-1.9,7.3-7.1,7.3-8.4,0-5.1-9-9.1-9-1,0-1.8.6-1.8,2.5,0,4.2,4.6,7.7,10.7,7.7M131,60.05c.5-10.3,3.3-16,8-16,4.1,0,7.2,4.4,7.4,14.6l-3.6,1.4h-11.8ZM139.6,87.45c5,0,8.2-3.3,10.3-9.8l-.9-.4c-1.7,5.2-4.9,8-8.8,8-5.4,0-9.3-5.8-9.3-21.7v-2.5h19.2c0-11.5-4-18-10.8-18-8.8,0-12,10.7-12,21.5,0,13.7,4.2,22.9,12.3,22.9M103.6,86.25h15.2v-1c-5.8,0-5.8-.6-5.8-3.8v-24.8c.5-4.8,2.4-11.2,6.2-11.2,3.5,0,2.6,5.1,5.3,5.1,1,0,1.6-.8,1.6-2.3,0-2.5-1.9-5-5.5-5-4.3,0-6.3,3.7-7.6,8.2v-7.2h-9.4v1c5.8,0,5.8.6,5.8,3.8v32.4c0,3.2,0,3.8-5.8,3.8v1ZM95.9,87.25c3,0,5-1.3,7-4.7l-.8-.4c-1.6,2.7-3.3,3.6-5.3,3.6-3.1,0-4.5-2.3-4.5-7.8v-31.7l10.3-1v-1h-10.3v-10.2h-1l-2.6,5.6v4.6h-6.5v2h6.5v31.4c0,6.1,2.2,9.6,7.2,9.6M71.2,87.25c5,0,8.5-3.2,10.3-10.4l-.8-.3c-1.8,6.5-5,8.7-8.8,8.7-6.4,0-8.8-7.1-8.8-21.5,0-13.5,2.5-19.3,8.8-19.3,3.9,0,5.3,2.2,6,6.3,0,1.9.9,2.8,2,2.8s1.6-.9,1.6-2.7c0-4.9-4.5-7.6-9.6-7.6-8.1,0-12.4,7.4-12.4,22.4,0,13.1,3.4,21.6,11.7,21.6M27.2,60.85l8.2-29.9,7.8,29.9h-16ZM14.4,85.05v1.2h12.6v-1.2c-5.8,0-6.1-.8-5.2-4.4l5-18.4h16.8l4.8,18.4c.9,3.6.4,4.4-6,4.4v1.2h17.1v-1.2c-5.3,0-6.1-.7-7-4.4l-15.6-59.5h-.7l-16.1,59.5c-.9,3.6-1.7,4.4-5.7,4.4"/>
      <path class="cls-10" d="M516.96,229.96c2.01,0,3.01-2.71,3.86-5.24l-.28-.12c-.79,2.39-1.74,4.56-3.13,4.56-1.55,0-1.42-2.67-.29-8.04,1.15-5.45,2.22-8.44,3.76-8.44,1.2,0,.4,1.81.4,2.84,0,.61.28.76.57.76.78,0,.97-1.07.97-1.77,0-1.31-.68-2.31-1.9-2.31-2.26,0-4.08,3.43-5.23,8.88-1.18,5.59-.95,8.88,1.26,8.88h0ZM514.34,208.19c0,.66.45,1.09,1.07,1.09.7,0,1.54-.54,1.54-1.46,0-.68-.45-1.1-1.09-1.1-.77,0-1.53.61-1.53,1.47M511.74,229.76c.88,0,1.56-.48,1.92-1.24l-.16-.12c-.32.44-.6.64-.96.64-.68,0-.5-.8-.24-2l2.64-12.12c.41-1.88-.24-2.52-1.08-2.52-1.04,0-1.68.96-2,1.56l.2.16c.36-.56.56-.84.96-.84.52,0,.69.48.4,1.84l-2.68,12.48c-.25,1.16-.28,2.16,1,2.16M506.51,229.76c.95,0,1.73-.49,2.48-1.32l-.16-.2c-.58.44-1.08.72-1.52.72-.76,0-.59-.83-.36-1.92l4.92-23.16h-3.27l-.08.4c1.84,0,1.78.2,1.52,1.44l-4.65,21.88c-.29,1.38-.08,2.16,1.12,2.16ZM497.9,226.84c0-4.72,2.36-14.08,5.08-14.08.54,0,.97.34,1.09.87l-3.01,13.77c-.52,1.19-1.25,1.92-2.04,1.92-.72,0-1.12-.52-1.12-2.48ZM498.5,229.96c.93,0,1.92-.64,2.41-1.69-.1,1.05.21,1.69,1.15,1.69.84,0,1.52-.48,1.88-1.24l-.16-.12c-.32.44-.6.64-.92.64-.76,0-.51-1.2-.28-2.24l3.16-14.32h-.4l-1.01.68c-.23-.64-.73-1.08-1.55-1.08-3.56,0-6.2,8.68-6.2,13.92,0,2.96.84,3.76,1.92,3.76ZM492.78,229.96c1.04,0,1.76-.56,2.4-1.56l-.2-.16c-.72,1.04-1.28,1.24-1.72,1.24-1.08,0-1.19-1.12-.68-3.52l2.64-12.48,3.28-.4.08-.4h-3.2l.88-4.08h-.4l-1.52,2.24-.4,1.84h-1.76l-.16.8h1.76l-2.52,11.84c-.63,2.96-.32,4.64,1.52,4.64M483.35,229.48h5.2l.12-.48c-1.84,0-1.75-.4-1.44-1.84l4.45-20.96c.3-1.44.4-1.84,2.24-1.84l.12-.48h-5.2l-.12.48c1.84,0,1.74.4,1.44,1.84l-4.45,20.96c-.3,1.44-.4,1.84-2.24,1.84l-.12.48ZM471.62,229.48h.72l6.8-25.6h-.72l-6.8,25.6ZM455.86,229.48h4.76v-.4c-1.48,0-1.48-.2-1.48-1.44v-11.24c.52-2.68,1.36-3.48,2.36-3.48.92,0,1.36.72,1.36,3.44v11.28c0,1.24,0,1.44-1.48,1.44v.4h4.76v-.4c-1.84,0-1.84-.2-1.84-1.44v-11.56c0-3-1.12-3.8-2.48-3.8s-2.2,1-2.68,2.72v-2.32h-3.28v.4c1.84,0,1.84.2,1.84,1.44v13.12c0,1.24,0,1.44-1.84,1.44v.4ZM451.62,208c0,.76.6,1.28,1.28,1.28s1.28-.52,1.28-1.28c0-.8-.6-1.28-1.28-1.28s-1.28.48-1.28,1.28M450.58,229.48h5.12v-.4c-1.84,0-1.84-.2-1.84-1.44v-14.96h-3.28v.4c1.84,0,1.84.2,1.84,1.44v13.12c0,1.24,0,1.44-1.84,1.44v.4ZM440.14,229.48h4.76v-.4c-1.48,0-1.48-.2-1.48-1.44v-11.24c.52-2.68,1.36-3.48,2.36-3.48.92,0,1.36.72,1.36,3.44v11.28c0,1.24,0,1.44-1.48,1.44v.4h4.76v-.4c-1.84,0-1.84-.2-1.84-1.44v-11.56c0-3-1.12-3.8-2.48-3.8s-2.2.96-2.68,2.56v-10.96h-3.28v.4c1.84,0,1.84.2,1.84,1.44v21.92c0,1.24,0,1.44-1.84,1.44v.4ZM432.14,229.48h5.2v-.48c-1.84,0-1.84-.4-1.84-1.84v-20.96c0-1.12,0-1.84,1.44-1.84h.4c.8,0,1.76,0,1.76,3.84h.56v-4.32h-9.84v4.32h.56c0-3.84.96-3.84,1.76-3.84h.4c1.44,0,1.44.72,1.44,1.84v20.96c0,1.44,0,1.84-1.84,1.84v.48Z"/>
      <path class="cls-10" d="M542.46,189.6c0-5.8.8-8.84,2.24-8.84.84,0,1.36,1.04,1.6,2.28v12.44c-.36,1.48-1.04,1.72-1.52,1.72-1.68,0-2.32-2.24-2.32-7.6M544.26,197.88c.76,0,1.6-.36,2.04-1.8v1.4h3.28v-.4c-1.84,0-1.84-.2-1.84-1.44v-23.76h-3.28v.4c1.84,0,1.84.2,1.84,1.44v8.12c-.28-.96-.96-1.56-1.88-1.56-2.28,0-3.4,3.84-3.4,9.2,0,4.32.72,8.4,3.24,8.4M535.26,187c.04-4.12.28-6.4,1.36-6.4.96,0,1.4,1.72,1.4,5.84l-1.08.56h-1.68ZM536.9,197.96c1.48,0,2-1.4,2.48-3.92l-.36-.12c-.4,2.04-1.04,3.16-2.04,3.16-1.44,0-1.72-2.44-1.72-8.84v-.84h4.24c0-4.64-.76-7.2-2.76-7.2-2.56,0-2.96,4.32-2.96,8.44,0,5.48.72,9.32,3.12,9.32M529.5,197.88c1.28,0,2.76-.8,2.76-3.8,0-5.04-4.2-7.28-4.2-11.12,0-1.08.32-2.2,1.36-2.2,1.8,0,.28,2.88,1.84,2.88.4,0,.68-.24.68-.96,0-1.36-.96-2.4-2.44-2.4-1.04,0-2.6.52-2.6,3.24,0,4.48,4.16,6.16,4.16,11.2,0,1.32-.28,2.68-1.44,2.68-1.96,0-.52-3.48-2.12-3.48-.44,0-.72.24-.72,1.04,0,1.52,1,2.92,2.72,2.92M515.74,197.48h4.76v-.4c-1.48,0-1.48-.2-1.48-1.44v-11.24c.52-2.68,1.36-3.48,2.36-3.48.92,0,1.36.72,1.36,3.44v11.28c0,1.24,0,1.44-1.48,1.44v.4h4.76v-.4c-1.84,0-1.84-.2-1.84-1.44v-11.56c0-3-1.12-3.8-2.48-3.8s-2.2,1-2.68,2.72v-2.32h-3.28v.4c1.84,0,1.84.2,1.84,1.44v13.12c0,1.24,0,1.44-1.84,1.44v.4ZM510.54,187c.04-4.12.28-6.4,1.36-6.4.96,0,1.4,1.72,1.4,5.84l-1.08.56h-1.68ZM512.18,197.96c1.48,0,2-1.4,2.48-3.92l-.36-.12c-.4,2.04-1.04,3.16-2.04,3.16-1.44,0-1.72-2.44-1.72-8.84v-.84h4.24c0-4.64-.76-7.2-2.76-7.2-2.56,0-2.96,4.32-2.96,8.44,0,5.48.72,9.32,3.12,9.32M501.42,189.6c0-5.8.8-8.84,2.24-8.84.84,0,1.36,1.04,1.6,2.28v12.44c-.36,1.48-1.04,1.72-1.52,1.72-1.68,0-2.32-2.24-2.32-7.6M503.22,197.88c.76,0,1.6-.36,2.04-1.8v1.4h3.28v-.4c-1.84,0-1.84-.2-1.84-1.44v-23.76h-3.28v.4c1.84,0,1.84.2,1.84,1.44v8.12c-.28-.96-.96-1.56-1.88-1.56-2.28,0-3.4,3.84-3.4,9.2,0,4.32.72,8.4,3.24,8.4M489.22,197.48h4.76v-.4c-1.48,0-1.48-.2-1.48-1.44v-11.24c.52-2.68,1.36-3.48,2.36-3.48.92,0,1.36.72,1.36,3.44v11.28c0,1.24,0,1.44-1.48,1.44v.4h4.76v-.4c-1.84,0-1.84-.2-1.84-1.44v-11.56c0-3-1.12-3.8-2.48-3.8s-2.2,1-2.68,2.72v-2.32h-3.28v.4c1.84,0,1.84.2,1.84,1.44v13.12c0,1.24,0,1.44-1.84,1.44v.4ZM483.38,188.4c0-5.32.48-7.72,1.76-7.72,1.56,0,2.08,3.52,2.08,9.08s-.48,7.72-1.76,7.72c-1.56,0-2.08-3.52-2.08-9.08M485.3,197.88c2.44,0,3.36-3.48,3.36-8.8s-.92-8.8-3.36-8.8-3.36,3.48-3.36,8.8.92,8.8,3.36,8.8M477.54,197.88c1.4,0,2.24-.92,2.84-2.04l.48-3.68h-.56c-.56,3.44-1.2,5.16-2.6,5.16-1.64,0-2.24-2.32-2.24-12.64s.6-12.64,2.24-12.64c1.4,0,2.04,1.72,2.6,5.16h.56l-.48-3.68c-.6-1.12-1.44-2.04-2.8-2.04-3,0-3.72,4.08-3.72,13.12,0,9.56.8,13.28,3.68,13.28M461.22,193.8c0-3,1.04-5.04,3.28-5.12v6.84c-.2.84-.68,1.72-1.6,1.72-1.08,0-1.68-1.2-1.68-3.44M466.14,197.88c.68,0,1.12-.4,1.52-1.12l-.24-.16c-.36.56-.64.64-.88.64-.44,0-.6-.4-.6-1.56v-11.64c0-.76,0-3.84-2.56-3.84-2.12,0-3,2.2-3,4.08,0,.88.2,1.24.76,1.24.52,0,.84-.32.84-1.16,0-2.48.04-3.64,1.16-3.64s1.36,1.2,1.36,4.12v3.36c-2.08.04-4.72,1.4-4.72,5.64,0,2.52.96,4.04,2.64,4.04,1.16,0,1.76-.64,2.08-1.48.08.88.72,1.48,1.64,1.48M452.38,197.48h5.12v-.4c-1.84,0-1.84-.2-1.84-1.44v-9.92c0-1.84.48-4.56,1.6-4.56,1,0,.52,2.04,1.6,2.04.4,0,.64-.32.64-.96,0-.96-.56-1.96-1.72-1.96-1.28,0-1.8,1.2-2.12,2.76v-2.36h-3.28v.4c1.84,0,1.84.2,1.84,1.44v13.12c0,1.24,0,1.44-1.84,1.44v.4ZM449.82,197.88c1.08,0,1.64-.52,2.12-1.68l-.32-.16c-.44,1-.88,1.24-1.4,1.24-.96,0-1.32-.88-1.32-2.92v-12.88l3.2-.4v-.4h-3.2v-4.08h-.4l-1.04,2.24v1.84h-1.76v.8h1.76v12.88c0,2.16.64,3.52,2.36,3.52M440.7,197.48h5.12v-.4c-1.84,0-1.84-.2-1.84-1.44v-23.76h-3.28v.4c1.84,0,1.84.2,1.84,1.44v21.92c0,1.24,0,1.44-1.84,1.44v.4ZM435.26,197.96c1.96,0,3.52-1.04,3.52-5.6v-18.16c0-1.44,0-1.84,1.84-1.84v-.48h-4.24v.48c1.84,0,1.84.4,1.84,1.84v18.16c0,4.68-1.64,5.04-2.72,5.04-1.16,0-2.72-.4-2.72-5.04v-18.16c0-1.44,0-1.84,1.84-1.84v-.48h-5.2v.48c1.84,0,1.84.4,1.84,1.84v18.16c0,4.56,2.04,5.6,4,5.6"/>
      <path class="cls-10" d="M156.22,302.73c2.02,0,3.1-2.58,4.07-5.16l-.29-.14c-.83,2.35-1.77,4.4-3.14,4.4-1.65,0-1.51-2.78-.4-8.07,1.12-5.31,2.18-8.29,3.7-8.29,1.18,0,.37,1.85.37,2.91,0,.63.3.82.66.82.86,0,1.11-1.1,1.11-1.86,0-1.33-.72-2.37-2.09-2.37-2.45,0-4.42,3.39-5.57,8.85-1.16,5.51-.88,8.91,1.59,8.91h0ZM152.8,280.93c0,.75.51,1.22,1.22,1.22.81,0,1.74-.62,1.74-1.65,0-.77-.51-1.22-1.24-1.22-.89,0-1.73.69-1.73,1.65M150.44,302.54c1.02,0,1.76-.54,2.17-1.37l-.19-.14c-.35.49-.64.7-1.02.7-.69,0-.54-.78-.28-2l2.6-11.92c.43-1.97-.31-2.65-1.26-2.65-1.18,0-1.91,1.02-2.27,1.72l.23.18c.38-.61.61-.91,1.02-.91.53,0,.69.5.4,1.83l-2.63,12.21c-.27,1.25-.24,2.35,1.23,2.35h0ZM144.77,302.54c1.09,0,1.92-.55,2.71-1.45l-.19-.22c-.59.49-1.1.77-1.56.77-.76,0-.62-.82-.38-1.95l4.9-23.05h-3.66l-.09.43c1.86,0,1.8.22,1.54,1.47l-4.6,21.65c-.31,1.46-.05,2.35,1.33,2.35h0ZM135.51,299.49c0-4.64,2.36-13.96,5.02-13.96.54,0,.94.39,1.04,1.02l-2.95,13.47c-.51,1.2-1.22,1.92-2,1.92-.71,0-1.11-.54-1.11-2.45ZM135.87,302.73c1.01,0,2.07-.67,2.59-1.78-.08,1.09.3,1.78,1.38,1.78.99,0,1.73-.54,2.14-1.38l-.19-.14c-.35.49-.64.7-.99.7-.76,0-.55-1.15-.32-2.23l3.14-14.24h-.48l-1.07.67c-.33-.65-.9-1.08-1.78-1.08-3.86,0-6.49,8.62-6.49,13.81,0,2.99.88,3.87,2.07,3.87M129.8,302.73c1.17,0,1.93-.59,2.63-1.62l-.21-.18c-.74,1.02-1.31,1.24-1.78,1.24-1.12,0-1.2-1.14-.7-3.49l2.62-12.4,3.33-.4.09-.43h-3.25l.9-4.18h-.4l-1.91,2.34-.4,1.84h-1.79l-.17.82h1.79l-2.5,11.74c-.66,3.09-.18,4.71,1.73,4.71ZM119.62,302.25h5.72l.12-.5c-1.91,0-1.82-.4-1.51-1.84l4.44-20.91c.3-1.44.4-1.84,2.32-1.84l.12-.51h-5.72l-.12.51c1.92,0,1.82.4,1.51,1.84l-4.44,20.91c-.3,1.44-.4,1.84-2.31,1.84l-.12.5ZM107.6,302.25h.8l6.8-25.6h-.8l-6.8,25.6ZM99.24,302.65c1.2,0,1.84-.52,2.36-1.72l-.32-.2c-.48,1-.92,1.24-1.44,1.24-1,0-1.36-.88-1.36-2.88v-12.8l3.24-.4v-.44h-3.24v-4.2h-.4l-1.4,2.36v1.84h-1.8v.84h1.8v12.76c0,2.28.76,3.6,2.56,3.6M84.4,302.25h5.16v-.44c-1.48,0-1.48-.2-1.48-1.44v-11.12c.52-2.64,1.36-3.4,2.32-3.4s1.36.72,1.36,3.4v11.12c0,1.24,0,1.44-1.44,1.44v.44h5.12v-.44c-1.88,0-1.88-.2-1.88-1.44v-11.36c0-3.08-1.12-3.96-2.64-3.96s-2.32,1-2.84,2.6v-11h-3.68v.44c1.88,0,1.88.2,1.88,1.44v21.84c0,1.24,0,1.44-1.88,1.44v.44ZM77.44,290.41c0-4,.44-4.92,1.6-4.92s1.6,1.04,1.6,5.12-.4,5.4-1.56,5.4-1.64-1.56-1.64-5.6M76.56,306.45c0-2.6.72-3.72,1.36-4.2.16,0,.28.04.44.04l1.08.04c1.64.12,2.76.6,2.76,3.68,0,2.88-1.04,4.52-2.96,4.52s-2.68-1.56-2.68-4.08M78.96,311.05c2.52,0,4.88-1.8,4.88-5.8,0-3.44-1.88-4.12-3.92-4.28l-1.2-.08c-1.24-.08-1.96-.72-1.96-2.16,0-1.24.56-2,1.36-2.36.28.12.56.16.88.16,2,0,3.4-2.48,3.4-6.08,0-1.72-.32-3.04-.88-4l2.96.08v-1.08h-.92l-2.36.56c-.56-.68-1.32-1.04-2.12-1.04-2.08,0-3.4,2.4-3.4,5.84,0,2.72.88,4.68,2.16,5.4-1.36.4-2.44,1.52-2.44,3.2,0,1.24.52,2.36,2.08,2.76-1,.32-2.72,1.64-2.72,4.44s1.88,4.44,4.2,4.44M70,280.73c0,.84.68,1.44,1.48,1.44s1.44-.6,1.44-1.44c0-.92-.68-1.44-1.44-1.44-.8,0-1.48.52-1.48,1.44M68.92,302.25h5.56v-.44c-1.88,0-1.88-.2-1.88-1.44v-14.92h-3.68v.44c1.88,0,1.88.2,1.88,1.44v13.04c0,1.24,0,1.44-1.88,1.44v.44ZM63.2,302.25h5.56v-.44c-1.88,0-1.88-.2-1.88-1.44v-23.72h-3.68v.44c1.88,0,1.88.2,1.88,1.44v21.84c0,1.24,0,1.44-1.88,1.44v.44ZM50.88,298.49c0-2.96,1-4.96,3.2-5.04v6.72c-.2.84-.64,1.68-1.56,1.68-1.08,0-1.64-1.16-1.64-3.36M55.92,302.65c.88,0,1.4-.52,1.8-1.24l-.28-.16c-.32.56-.64.68-.92.68-.44,0-.64-.44-.64-1.64v-11.4c0-.76,0-3.92-2.84-3.92-2.2,0-3.28,2.12-3.28,4.08,0,.92.24,1.32.88,1.32.6,0,.96-.36.96-1.24,0-2.52.08-3.6,1.16-3.6s1.32,1.16,1.32,4v3.44c-2.24.04-5,1.4-5,5.6,0,2.56,1.08,4.08,2.76,4.08,1.24,0,1.92-.68,2.24-1.56.08.92.76,1.56,1.84,1.56M41.04,302.25h5.6v-.44c-1.92,0-1.92-.2-1.92-1.44v-9.92c.04-1.8.52-4.4,1.6-4.4s.56,2.12,1.72,2.12c.48,0,.8-.36.8-1.08,0-1.04-.64-2.04-1.84-2.04-1.36,0-1.96,1.24-2.28,2.8v-2.4h-3.68v.44c1.88,0,1.88.2,1.88,1.44v13.04c0,1.24,0,1.44-1.88,1.44v.44ZM38.24,302.65c1.2,0,1.84-.52,2.36-1.72l-.32-.2c-.48,1-.92,1.24-1.44,1.24-1,0-1.36-.88-1.36-2.88v-12.8l3.24-.4v-.44h-3.24v-4.2h-.4l-1.4,2.36v1.84h-1.8v.84h1.8v12.76c0,2.28.76,3.6,2.56,3.6M28.8,301.81v.44h5.16v-.44c-1.4,0-1.64-.2-2.12-1.84l-2.36-7.8,1.52-4.44c.48-1.44,1-1.84,2-1.84v-.44h-3.32v.44c1.28,0,1.28.4.76,1.84l-1.24,3.6-1.08-3.6c-.44-1.4-.52-1.84.76-1.84v-.44h-4.56v.44c1,0,1.48.44,1.92,1.84l1.88,6.12-2.04,6.12c-.56,1.6-.84,1.84-2.04,1.84v.44h3.36v-.44c-1.32,0-1.32-.2-.76-1.84l1.72-5.24,1.6,5.24c.52,1.68.44,1.84-1.16,1.84M14.4,302.25h8.96v-4.08h-.48c-.04,3.4-1.4,3.48-2.8,3.48h-.48c-1.4,0-1.4-.32-1.4-1.72v-10.24h.76c1.32,0,1.92.12,1.92,3.6h.48v-7.56h-.48c0,3.32-.6,3.48-1.92,3.48h-.76v-12h1.84c1.4,0,2.8.16,2.84,4h.52v-4.56h-9v.52c1.92,0,1.92.4,1.92,1.84v20.88c0,1.44,0,1.84-1.92,1.84v.52Z"/>
      <path class="cls-10" d="M136.36,262.33c0-5.68.76-8.68,2.2-8.68.84,0,1.32,1,1.6,2.2v12.32c-.36,1.44-1.04,1.68-1.52,1.68-1.68,0-2.28-2.2-2.28-7.52M138,270.65c.84,0,1.72-.4,2.16-1.88v1.48h3.68v-.44c-1.88,0-1.88-.2-1.88-1.44v-23.72h-3.68v.44c1.88,0,1.88.2,1.88,1.44v8.16c-.32-1-1-1.64-2.04-1.64-2.36,0-3.6,3.8-3.6,9.2,0,4.4.88,8.4,3.48,8.4M128.48,259.77c.04-4.04.28-6.36,1.36-6.36.96,0,1.36,1.72,1.36,5.76l-1.12.6h-1.6ZM130.08,270.73c1.56,0,2.2-1.36,2.76-3.92l-.36-.16c-.48,2.04-1.12,3.08-2.12,3.08-1.56,0-1.88-2.4-1.88-8.8v-.76h4.48c0-4.6-.8-7.2-3-7.2-2.84,0-3.36,4.32-3.36,8.48,0,5.52.92,9.28,3.48,9.28M121.96,270.65c1.56,0,3.08-.88,3.08-3.92,0-5.16-4.52-7.16-4.52-11,0-1.08.32-2.2,1.4-2.2,1.88,0,.24,3,2,3,.44,0,.76-.24.76-1,0-1.4-1-2.48-2.68-2.48-1.28,0-2.92.6-2.92,3.36,0,4.6,4.48,6.12,4.48,11.12,0,1.32-.32,2.6-1.48,2.6-2.08,0-.52-3.56-2.28-3.56-.52,0-.84.28-.84,1.12,0,1.56,1.08,2.96,3,2.96M107.12,270.25h5.16v-.44c-1.48,0-1.48-.2-1.48-1.44v-11.12c.52-2.64,1.36-3.4,2.32-3.4s1.36.72,1.36,3.4v11.12c0,1.24,0,1.44-1.44,1.44v.44h5.12v-.44c-1.88,0-1.88-.2-1.88-1.44v-11.36c0-3.08-1.12-3.96-2.64-3.96s-2.32,1.04-2.84,2.76v-2.36h-3.68v.44c1.88,0,1.88.2,1.88,1.44v13.04c0,1.24,0,1.44-1.88,1.44v.44ZM101.68,259.77c.04-4.04.28-6.36,1.36-6.36.96,0,1.36,1.72,1.36,5.76l-1.12.6h-1.6ZM103.28,270.73c1.56,0,2.2-1.36,2.76-3.92l-.36-.16c-.48,2.04-1.12,3.08-2.12,3.08-1.56,0-1.88-2.4-1.88-8.8v-.76h4.48c0-4.6-.8-7.2-3-7.2-2.84,0-3.36,4.32-3.36,8.48,0,5.52.92,9.28,3.48,9.28M91.8,262.33c0-5.68.76-8.68,2.2-8.68.84,0,1.32,1,1.6,2.2v12.32c-.36,1.44-1.04,1.68-1.52,1.68-1.68,0-2.28-2.2-2.28-7.52M93.44,270.65c.84,0,1.72-.4,2.16-1.88v1.48h3.68v-.44c-1.88,0-1.88-.2-1.88-1.44v-23.72h-3.68v.44c1.88,0,1.88.2,1.88,1.44v8.16c-.32-1-1-1.64-2.04-1.64-2.36,0-3.6,3.8-3.6,9.2,0,4.4.88,8.4,3.48,8.4M78.44,270.25h5.16v-.44c-1.48,0-1.48-.2-1.48-1.44v-11.12c.52-2.64,1.36-3.4,2.32-3.4s1.36.72,1.36,3.4v11.12c0,1.24,0,1.44-1.44,1.44v.44h5.12v-.44c-1.88,0-1.88-.2-1.88-1.44v-11.36c0-3.08-1.12-3.96-2.64-3.96s-2.32,1.04-2.84,2.76v-2.36h-3.68v.44c1.88,0,1.88.2,1.88,1.44v13.04c0,1.24,0,1.44-1.88,1.44v.44ZM72.28,261.17c0-5.32.48-7.68,1.72-7.68,1.56,0,2.08,3.48,2.08,9.04s-.48,7.68-1.76,7.68c-1.52,0-2.04-3.48-2.04-9.04M74.16,270.65c2.64,0,3.72-3.44,3.72-8.8s-1.08-8.8-3.72-8.8-3.72,3.44-3.72,8.8,1.08,8.8,3.72,8.8M65.8,270.65c1.44,0,2.36-.88,3.04-2.04l.48-3.84h-.6c-.6,3.4-1.24,5.28-2.72,5.28-1.64,0-2.28-2.32-2.28-12.6s.64-12.64,2.28-12.64c1.48,0,2.12,1.92,2.72,5.32h.6l-.48-3.84c-.68-1.16-1.6-2.04-3-2.04-3.28,0-4.12,4.16-4.12,13.12,0,9.44.92,13.28,4.08,13.28M48.48,266.49c0-2.96,1-4.96,3.2-5.04v6.72c-.2.84-.64,1.68-1.56,1.68-1.08,0-1.64-1.16-1.64-3.36M53.52,270.65c.88,0,1.4-.52,1.8-1.24l-.28-.16c-.32.56-.64.68-.92.68-.44,0-.64-.44-.64-1.64v-11.4c0-.76,0-3.92-2.84-3.92-2.2,0-3.28,2.12-3.28,4.08,0,.92.24,1.32.88,1.32.6,0,.96-.36.96-1.24,0-2.52.08-3.6,1.16-3.6s1.32,1.16,1.32,4v3.44c-2.24.04-5,1.4-5,5.6,0,2.56,1.08,4.08,2.76,4.08,1.24,0,1.92-.68,2.24-1.56.08.92.76,1.56,1.84,1.56M38.64,270.25h5.6v-.44c-1.92,0-1.92-.2-1.92-1.44v-9.92c.04-1.8.52-4.4,1.6-4.4s.56,2.12,1.72,2.12c.48,0,.8-.36.8-1.08,0-1.04-.64-2.04-1.84-2.04-1.36,0-1.96,1.24-2.28,2.8v-2.4h-3.68v.44c1.88,0,1.88.2,1.88,1.44v13.04c0,1.24,0,1.44-1.88,1.44v.44ZM35.84,270.65c1.2,0,1.84-.52,2.36-1.72l-.32-.2c-.48,1-.92,1.24-1.44,1.24-1,0-1.36-.88-1.36-2.88v-12.8l3.24-.4v-.44h-3.24v-4.2h-.4l-1.4,2.36v1.84h-1.8v.84h1.8v12.76c0,2.28.76,3.6,2.56,3.6M26.04,270.25h5.56v-.44c-1.88,0-1.88-.2-1.88-1.44v-23.72h-3.68v.44c1.88,0,1.88.2,1.88,1.44v21.84c0,1.24,0,1.44-1.88,1.44v.44ZM20.36,270.73c2.04,0,3.68-1.08,3.68-5.72v-18c0-1.44,0-1.84,1.92-1.84v-.52h-4.4v.52c1.92,0,1.92.4,1.92,1.84v18c0,4.64-1.6,5.04-2.76,5.04s-2.72-.4-2.72-5.04v-18c0-1.44,0-1.84,1.88-1.84v-.52h-5.68v.52c1.92,0,1.92.4,1.92,1.84v18c0,4.68,2.2,5.72,4.24,5.72"/>
    </g>
    <g class="cls-13">
      <path class="cls-9" d="M180.34,327.3l-.84,2.31M179.91,326.39l-.84,2.31M179.49,325.49l-.84,2.31M179.07,324.58l-.84,2.31M178.65,323.67l-.84,2.31M178.22,322.77l-.84,2.31M177.8,321.86l-.84,2.31M177.38,320.95l-.84,2.31M176.96,320.05l-.84,2.31M176.53,319.14l-.84,2.31M176.11,318.24l-.84,2.31M175.69,317.33l-.84,2.31M175.27,316.42l-.84,2.31M174.84,315.52l-.84,2.31M174.42,314.61l-.84,2.31M174,313.7l-.84,2.31M173.57,312.8l-.84,2.31M173.15,311.89l-.84,2.31M172.73,310.98l-.84,2.31M172.31,310.08l-.84,2.31M171.88,309.17l-.84,2.31M171.46,308.27l-.84,2.31M171.04,307.36l-.84,2.31M170.62,306.45l-.84,2.31M170.19,305.55l-.84,2.31M169.77,304.64l-.84,2.31M169.35,303.73l-.84,2.31M168.93,302.83l-.84,2.31M168.5,301.92l-.84,2.31M168.08,301.02l-.84,2.31M167.66,300.11l-.84,2.31M167.24,299.2l-.84,2.31M166.81,298.3l-.84,2.31M166.39,297.39l-.84,2.31M165.97,296.48l-.84,2.31M165.55,295.58l-.84,2.31M165.12,294.67l-.84,2.31M164.7,293.77l-.84,2.31M164.28,292.86l-.84,2.31M163.85,291.95l-.84,2.31M163.43,291.05l-.84,2.31M163.01,290.14l-.84,2.31M162.59,289.23l-.84,2.31M162.16,288.33l-.84,2.31M161.74,287.42l-.84,2.31M161.32,286.51l-.84,2.31M160.9,285.61l-.84,2.31M160.47,284.7l-.84,2.31M160.05,283.8l-.84,2.31M159.63,282.89l-.84,2.31M159.21,281.98l-.84,2.31M158.78,281.08l-.84,2.31M158.36,280.17l-.84,2.31M157.94,279.26l-.84,2.31M157.52,278.36l-.84,2.31M157.09,277.45l-.84,2.31M156.67,276.55l-.84,2.31M156.25,275.64l-.84,2.31M155.82,274.73l-.84,2.31M155.4,273.83l-.84,2.31M154.98,272.92l-.84,2.31M154.56,272.01l-.84,2.31M154.13,271.11l-.84,2.31M153.71,270.2l-.84,2.31M153.29,269.29l-.84,2.31M152.87,268.39l-.84,2.31M152.44,267.48l-.84,2.31M152.02,266.58l-.84,2.31M151.6,265.67l-.84,2.31M151.18,264.76l-.84,2.31M150.75,263.86l-.84,2.31M150.33,262.95l-.84,2.31M149.91,262.04l-.84,2.31M149.49,261.14l-.84,2.31M149.06,260.23l-.84,2.31M148.64,259.33l-.84,2.31M148.22,258.42l-.84,2.31M147.8,257.51l-.84,2.31M147.37,256.61l-.84,2.31"/>
      <path class="cls-9" d="M184.79,325.22l-.84,2.31M184.37,324.31l-.84,2.31M183.95,323.41l-.84,2.31M183.52,322.5l-.84,2.31M183.1,321.6l-.84,2.31M182.68,320.69l-.84,2.31M182.26,319.78l-.84,2.31M181.83,318.88l-.84,2.31M181.41,317.97l-.84,2.31M180.99,317.06l-.84,2.31M180.57,316.16l-.84,2.31M180.14,315.25l-.84,2.31M179.72,314.34l-.84,2.31M179.3,313.44l-.84,2.31M178.88,312.53l-.84,2.31M178.45,311.63l-.84,2.31M178.03,310.72l-.84,2.31M177.61,309.81l-.84,2.31M177.19,308.91l-.84,2.31M176.76,308l-.84,2.31M176.34,307.09l-.84,2.31M175.92,306.19l-.84,2.31M175.5,305.28l-.84,2.31M175.07,304.38l-.84,2.31M174.65,303.47l-.84,2.31M174.23,302.56l-.84,2.31M173.8,301.66l-.84,2.31M173.38,300.75l-.84,2.31M172.96,299.84l-.84,2.31M172.54,298.94l-.84,2.31M172.11,298.03l-.84,2.31M171.69,297.12l-.84,2.31M171.27,296.22l-.84,2.31M170.85,295.31l-.84,2.31M170.42,294.41l-.84,2.31M170,293.5l-.84,2.31M169.58,292.59l-.84,2.31M169.16,291.69l-.84,2.31M168.73,290.78l-.84,2.31M168.31,289.87l-.84,2.31M167.89,288.97l-.84,2.31M167.47,288.06l-.84,2.31M167.04,287.16l-.84,2.31M166.62,286.25l-.84,2.31M166.2,285.34l-.84,2.31M165.77,284.44l-.84,2.31M165.35,283.53l-.84,2.31M164.93,282.62l-.84,2.31M164.51,281.72l-.84,2.31M164.08,280.81l-.84,2.31M163.66,279.9l-.84,2.31M163.24,279l-.84,2.31M162.82,278.09l-.84,2.31M162.39,277.19l-.84,2.31M161.97,276.28l-.84,2.31M161.55,275.37l-.84,2.31M161.13,274.47l-.84,2.31M160.7,273.56l-.84,2.31M160.28,272.65l-.84,2.31M159.86,271.75l-.84,2.31M159.44,270.84l-.84,2.31M159.01,269.94l-.84,2.31M158.59,269.03l-.84,2.31M158.17,268.12l-.84,2.31M157.75,267.22l-.84,2.31M157.32,266.31l-.84,2.31M156.9,265.4l-.84,2.31M156.48,264.5l-.84,2.31M156.05,263.59l-.84,2.31M155.63,262.69l-.84,2.31M155.21,261.78l-.84,2.31M154.79,260.87l-.84,2.31M154.36,259.97l-.84,2.31M153.94,259.06l-.84,2.31M153.52,258.15l-.84,2.31M153.1,257.25l-.84,2.31M152.67,256.34l-.84,2.31M152.25,255.43l-.84,2.31M151.83,254.53l-.84,2.31"/>
      <path class="cls-9" d="M189.25,323.14l-.84,2.31M188.83,322.24l-.84,2.31M188.4,321.33l-.84,2.31M187.98,320.42l-.84,2.31M187.56,319.52l-.84,2.31M187.14,318.61l-.84,2.31M186.71,317.71l-.84,2.31M186.29,316.8l-.84,2.31M185.87,315.89l-.84,2.31M185.45,314.99l-.84,2.31M185.02,314.08l-.84,2.31M184.6,313.17l-.84,2.31M184.18,312.27l-.84,2.31M183.75,311.36l-.84,2.31M183.33,310.46l-.84,2.31M182.91,309.55l-.84,2.31M182.49,308.64l-.84,2.31M182.06,307.74l-.84,2.31M181.64,306.83l-.84,2.31M181.22,305.92l-.84,2.31M180.8,305.02l-.84,2.31M180.37,304.11l-.84,2.31M179.95,303.2l-.84,2.31M179.53,302.3l-.84,2.31M179.11,301.39l-.84,2.31M178.68,300.49l-.84,2.31M178.26,299.58l-.84,2.31M177.84,298.67l-.84,2.31M177.42,297.77l-.84,2.31M176.99,296.86l-.84,2.31M176.57,295.95l-.84,2.31M176.15,295.05l-.84,2.31M175.72,294.14l-.84,2.31M175.3,293.24l-.84,2.31M174.88,292.33l-.84,2.31M174.46,291.42l-.84,2.31M174.03,290.52l-.84,2.31M173.61,289.61l-.84,2.31M173.19,288.7l-.84,2.31M172.77,287.8l-.84,2.31M172.34,286.89l-.84,2.31M171.92,285.98l-.84,2.31M171.5,285.08l-.84,2.31M171.08,284.17l-.84,2.31M170.65,283.26l-.84,2.31M170.23,282.36l-.84,2.31M169.81,281.45l-.84,2.31M169.39,280.55l-.84,2.31M168.96,279.64l-.84,2.31M168.54,278.73l-.84,2.31M168.12,277.83l-.84,2.31M167.7,276.92l-.84,2.31M167.27,276.01l-.84,2.31M166.85,275.11l-.84,2.31M166.43,274.2l-.84,2.31M166,273.3l-.84,2.31M165.58,272.39l-.84,2.31M165.16,271.48l-.84,2.31M164.74,270.58l-.84,2.31M164.31,269.67l-.84,2.31M163.89,268.76l-.84,2.31M163.47,267.86l-.84,2.31M163.05,266.95l-.84,2.31M162.62,266.04l-.84,2.31M162.2,265.14l-.84,2.31M161.78,264.23l-.84,2.31M161.36,263.33l-.84,2.31M160.93,262.42l-.84,2.31M160.51,261.51l-.84,2.31M160.09,260.61l-.84,2.31M159.67,259.7l-.84,2.31M159.24,258.79l-.84,2.31M158.82,257.89l-.84,2.31M158.4,256.98l-.84,2.31M157.97,256.08l-.84,2.31M157.55,255.17l-.84,2.31M157.13,254.26l-.84,2.31M156.71,253.36l-.84,2.31M156.28,252.45l-.84,2.31"/>
      <path class="cls-9" d="M193.7,321.07l-.84,2.31M193.28,320.16l-.84,2.31M192.86,319.25l-.84,2.31M192.44,318.35l-.84,2.31M192.01,317.44l-.84,2.31M191.59,316.53l-.84,2.31M191.17,315.63l-.84,2.31M190.75,314.72l-.84,2.31M190.32,313.81l-.84,2.31M189.9,312.91l-.84,2.31M189.48,312l-.84,2.31M189.06,311.1l-.84,2.31M188.63,310.19l-.84,2.31M188.21,309.28l-.84,2.31M187.79,308.38l-.84,2.31M187.37,307.47l-.84,2.31M186.94,306.56l-.84,2.31M186.52,305.66l-.84,2.31M186.1,304.75l-.84,2.31M185.67,303.85l-.84,2.31M185.25,302.94l-.84,2.31M184.83,302.03l-.84,2.31M184.41,301.13l-.84,2.31M183.98,300.22l-.84,2.31M183.56,299.31l-.84,2.31M183.14,298.41l-.84,2.31M182.72,297.5l-.84,2.31M182.29,296.6l-.84,2.31M181.87,295.69l-.84,2.31M181.45,294.78l-.84,2.31M181.03,293.88l-.84,2.31M180.6,292.97l-.84,2.31M180.18,292.06l-.84,2.31M179.76,291.16l-.84,2.31M179.34,290.25l-.84,2.31M178.91,289.34l-.84,2.31M178.49,288.44l-.84,2.31M178.07,287.53l-.84,2.31M177.65,286.63l-.84,2.31M177.22,285.72l-.84,2.31M176.8,284.81l-.84,2.31M176.38,283.91l-.84,2.31M175.95,283l-.84,2.31M175.53,282.09l-.84,2.31M175.11,281.19l-.84,2.31M174.69,280.28l-.84,2.31M174.26,279.38l-.84,2.31M173.84,278.47l-.84,2.31M173.42,277.56l-.84,2.31M173,276.66l-.84,2.31M172.57,275.75l-.84,2.31M172.15,274.84l-.84,2.31M171.73,273.94l-.84,2.31M171.31,273.03l-.84,2.31M170.88,272.12l-.84,2.31M170.46,271.22l-.84,2.31M170.04,270.31l-.84,2.31M169.62,269.41l-.84,2.31M169.19,268.5l-.84,2.31M168.77,267.59l-.84,2.31M168.35,266.69l-.84,2.31M167.93,265.78l-.84,2.31M167.5,264.87l-.84,2.31M167.08,263.97l-.84,2.31M166.66,263.06l-.84,2.31M166.23,262.16l-.84,2.31M165.81,261.25l-.84,2.31M165.39,260.34l-.84,2.31M164.97,259.44l-.84,2.31M164.54,258.53l-.84,2.31M164.12,257.62l-.84,2.31M163.7,256.72l-.84,2.31M163.28,255.81l-.84,2.31M162.85,254.9l-.84,2.31M162.43,254l-.84,2.31M162.01,253.09l-.84,2.31M161.59,252.19l-.84,2.31M161.16,251.28l-.84,2.31M160.74,250.37l-.84,2.31"/>
      <path class="cls-9" d="M198.16,318.99l-.84,2.31M197.74,318.08l-.84,2.31M197.32,317.17l-.84,2.31M196.89,316.27l-.84,2.31M196.47,315.36l-.84,2.31M196.05,314.46l-.84,2.31M195.62,313.55l-.84,2.31M195.2,312.64l-.84,2.31M194.78,311.74l-.84,2.31M194.36,310.83l-.84,2.31M193.93,309.92l-.84,2.31M193.51,309.02l-.84,2.31M193.09,308.11l-.84,2.31M192.67,307.21l-.84,2.31M192.24,306.3l-.84,2.31M191.82,305.39l-.84,2.31M191.4,304.49l-.84,2.31M190.98,303.58l-.84,2.31M190.55,302.67l-.84,2.31M190.13,301.77l-.84,2.31M189.71,300.86l-.84,2.31M189.29,299.95l-.84,2.31M188.86,299.05l-.84,2.31M188.44,298.14l-.84,2.31M188.02,297.24l-.84,2.31M187.6,296.33l-.84,2.31M187.17,295.42l-.84,2.31M186.75,294.52l-.84,2.31M186.33,293.61l-.84,2.31M185.9,292.7l-.84,2.31M185.48,291.8l-.84,2.31M185.06,290.89l-.84,2.31M184.64,289.99l-.84,2.31M184.21,289.08l-.84,2.31M183.79,288.17l-.84,2.31M183.37,287.27l-.84,2.31M182.95,286.36l-.84,2.31M182.52,285.45l-.84,2.31M182.1,284.55l-.84,2.31M181.68,283.64l-.84,2.31M181.26,282.74l-.84,2.31M180.83,281.83l-.84,2.31M180.41,280.92l-.84,2.31M179.99,280.02l-.84,2.31M179.57,279.11l-.84,2.31M179.14,278.2l-.84,2.31M178.72,277.3l-.84,2.31M178.3,276.39l-.84,2.31M177.87,275.48l-.84,2.31M177.45,274.58l-.84,2.31M177.03,273.67l-.84,2.31M176.61,272.77l-.84,2.31M176.18,271.86l-.84,2.31M175.76,270.95l-.84,2.31M175.34,270.05l-.84,2.31M174.92,269.14l-.84,2.31M174.49,268.23l-.84,2.31M174.07,267.33l-.84,2.31M173.65,266.42l-.84,2.31M173.23,265.52l-.84,2.31M172.8,264.61l-.84,2.31M172.38,263.7l-.84,2.31M171.96,262.8l-.84,2.31M171.54,261.89l-.84,2.31M171.11,260.98l-.84,2.31M170.69,260.08l-.84,2.31M170.27,259.17l-.84,2.31M169.85,258.26l-.84,2.31M169.42,257.36l-.84,2.31M169,256.45l-.84,2.31M168.58,255.55l-.84,2.31M168.15,254.64l-.84,2.31M167.73,253.73l-.84,2.31M167.31,252.83l-.84,2.31M166.89,251.92l-.84,2.31M166.46,251.01l-.84,2.31M166.04,250.11l-.84,2.31M165.62,249.2l-.84,2.31M165.2,248.3l-.84,2.31"/>
      <path class="cls-9" d="M202.62,316.91l-.84,2.31M202.19,316l-.84,2.31M201.77,315.1l-.84,2.31M201.35,314.19l-.84,2.31M200.93,313.28l-.84,2.31M200.5,312.38l-.84,2.31M200.08,311.47l-.84,2.31M199.66,310.57l-.84,2.31M199.24,309.66l-.84,2.31M198.81,308.75l-.84,2.31M198.39,307.85l-.84,2.31M197.97,306.94l-.84,2.31M197.55,306.03l-.84,2.31M197.12,305.13l-.84,2.31M196.7,304.22l-.84,2.31M196.28,303.31l-.84,2.31M195.85,302.41l-.84,2.31M195.43,301.5l-.84,2.31M195.01,300.6l-.84,2.31M194.59,299.69l-.84,2.31M194.16,298.78l-.84,2.31M193.74,297.88l-.84,2.31M193.32,296.97l-.84,2.31M192.9,296.06l-.84,2.31M192.47,295.16l-.84,2.31M192.05,294.25l-.84,2.31M191.63,293.35l-.84,2.31M191.21,292.44l-.84,2.31M190.78,291.53l-.84,2.31M190.36,290.63l-.84,2.31M189.94,289.72l-.84,2.31M189.52,288.81l-.84,2.31M189.09,287.91l-.84,2.31M188.67,287l-.84,2.31M188.25,286.09l-.84,2.31M187.83,285.19l-.84,2.31M187.4,284.28l-.84,2.31M186.98,283.38l-.84,2.31M186.56,282.47l-.84,2.31M186.13,281.56l-.84,2.31M185.71,280.66l-.84,2.31M185.29,279.75l-.84,2.31M184.87,278.84l-.84,2.31M184.44,277.94l-.84,2.31M184.02,277.03l-.84,2.31M183.6,276.13l-.84,2.31M183.18,275.22l-.84,2.31M182.75,274.31l-.84,2.31M182.33,273.41l-.84,2.31M181.91,272.5l-.84,2.31M181.49,271.59l-.84,2.31M181.06,270.69l-.84,2.31M180.64,269.78l-.84,2.31M180.22,268.88l-.84,2.31M179.8,267.97l-.84,2.31M179.37,267.06l-.84,2.31M178.95,266.16l-.84,2.31M178.53,265.25l-.84,2.31M178.1,264.34l-.84,2.31M177.68,263.44l-.84,2.31M177.26,262.53l-.84,2.31M176.84,261.62l-.84,2.31M176.41,260.72l-.84,2.31M175.99,259.81l-.84,2.31M175.57,258.91l-.84,2.31M175.15,258l-.84,2.31M174.72,257.09l-.84,2.31M174.3,256.19l-.84,2.31M173.88,255.28l-.84,2.31M173.46,254.37l-.84,2.31M173.03,253.47l-.84,2.31M172.61,252.56l-.84,2.31M172.19,251.66l-.84,2.31M171.77,250.75l-.84,2.31M171.34,249.84l-.84,2.31M170.92,248.94l-.84,2.31M170.5,248.03l-.84,2.31M170.08,247.12l-.84,2.31M169.65,246.22l-.84,2.31"/>
      <path class="cls-9" d="M207.07,314.83l-.84,2.31M206.65,313.93l-.84,2.31M206.23,313.02l-.84,2.31M205.8,312.11l-.84,2.31M205.38,311.21l-.84,2.31M204.96,310.3l-.84,2.31M204.54,309.39l-.84,2.31M204.11,308.49l-.84,2.31M203.69,307.58l-.84,2.31M203.27,306.67l-.84,2.31M202.85,305.77l-.84,2.31M202.42,304.86l-.84,2.31M202,303.96l-.84,2.31M201.58,303.05l-.84,2.31M201.16,302.14l-.84,2.31M200.73,301.24l-.84,2.31M200.31,300.33l-.84,2.31M199.89,299.42l-.84,2.31M199.47,298.52l-.84,2.31M199.04,297.61l-.84,2.31M198.62,296.71l-.84,2.31M198.2,295.8l-.84,2.31M197.78,294.89l-.84,2.31M197.35,293.99l-.84,2.31M196.93,293.08l-.84,2.31M196.51,292.17l-.84,2.31M196.08,291.27l-.84,2.31M195.66,290.36l-.84,2.31M195.24,289.45l-.84,2.31M194.82,288.55l-.84,2.31M194.39,287.64l-.84,2.31M193.97,286.74l-.84,2.31M193.55,285.83l-.84,2.31M193.13,284.92l-.84,2.31M192.7,284.02l-.84,2.31M192.28,283.11l-.84,2.31M191.86,282.2l-.84,2.31M191.44,281.3l-.84,2.31M191.01,280.39l-.84,2.31M190.59,279.49l-.84,2.31M190.17,278.58l-.84,2.31M189.75,277.67l-.84,2.31M189.32,276.77l-.84,2.31M188.9,275.86l-.84,2.31M188.48,274.95l-.84,2.31M188.05,274.05l-.84,2.31M187.63,273.14l-.84,2.31M187.21,272.23l-.84,2.31M186.79,271.33l-.84,2.31M186.36,270.42l-.84,2.31M185.94,269.52l-.84,2.31M185.52,268.61l-.84,2.31M185.1,267.7l-.84,2.31M184.67,266.8l-.84,2.31M184.25,265.89l-.84,2.31M183.83,264.98l-.84,2.31M183.41,264.08l-.84,2.31M182.98,263.17l-.84,2.31M182.56,262.27l-.84,2.31M182.14,261.36l-.84,2.31M181.72,260.45l-.84,2.31M181.29,259.55l-.84,2.31M180.87,258.64l-.84,2.31M180.45,257.73l-.84,2.31M180.03,256.83l-.84,2.31M179.6,255.92l-.84,2.31M179.18,255.02l-.84,2.31M178.76,254.11l-.84,2.31M178.33,253.2l-.84,2.31M177.91,252.3l-.84,2.31M177.49,251.39l-.84,2.31M177.07,250.48l-.84,2.31M176.64,249.58l-.84,2.31M176.22,248.67l-.84,2.31M175.8,247.76l-.84,2.31M175.38,246.86l-.84,2.31M174.95,245.95l-.84,2.31M174.53,245.05l-.84,2.31M174.11,244.14l-.84,2.31"/>
      <path class="cls-9" d="M211.53,312.75l-.84,2.31M211.11,311.85l-.84,2.31M210.68,310.94l-.84,2.31M210.26,310.03l-.84,2.31M209.84,309.13l-.84,2.31M209.42,308.22l-.84,2.31M208.99,307.32l-.84,2.31M208.57,306.41l-.84,2.31M208.15,305.5l-.84,2.31M207.73,304.6l-.84,2.31M207.3,303.69l-.84,2.31M206.88,302.78l-.84,2.31M206.46,301.88l-.84,2.31M206.03,300.97l-.84,2.31M205.61,300.07l-.84,2.31M205.19,299.16l-.84,2.31M204.77,298.25l-.84,2.31M204.34,297.35l-.84,2.31M203.92,296.44l-.84,2.31M203.5,295.53l-.84,2.31M203.08,294.63l-.84,2.31M202.65,293.72l-.84,2.31M202.23,292.82l-.84,2.31M201.81,291.91l-.84,2.31M201.39,291l-.84,2.31M200.96,290.1l-.84,2.31M200.54,289.19l-.84,2.31M200.12,288.28l-.84,2.31M199.7,287.38l-.84,2.31M199.27,286.47l-.84,2.31M198.85,285.57l-.84,2.31M198.43,284.66l-.84,2.31M198,283.75l-.84,2.31M197.58,282.85l-.84,2.31M197.16,281.94l-.84,2.31M196.74,281.03l-.84,2.31M196.31,280.13l-.84,2.31M195.89,279.22l-.84,2.31M195.47,278.31l-.84,2.31M195.05,277.41l-.84,2.31M194.62,276.5l-.84,2.31M194.2,275.6l-.84,2.31M193.78,274.69l-.84,2.31M193.36,273.78l-.84,2.31M192.93,272.88l-.84,2.31M192.51,271.97l-.84,2.31M192.09,271.06l-.84,2.31M191.67,270.16l-.84,2.31M191.24,269.25l-.84,2.31M190.82,268.35l-.84,2.31M190.4,267.44l-.84,2.31M189.98,266.53l-.84,2.31M189.55,265.63l-.84,2.31M189.13,264.72l-.84,2.31M188.71,263.81l-.84,2.31M188.28,262.91l-.84,2.31M187.86,262l-.84,2.31M187.44,261.09l-.84,2.31M187.02,260.19l-.84,2.31M186.59,259.28l-.84,2.31M186.17,258.38l-.84,2.31M185.75,257.47l-.84,2.31M185.33,256.56l-.84,2.31M184.9,255.66l-.84,2.31M184.48,254.75l-.84,2.31M184.06,253.84l-.84,2.31M183.64,252.94l-.84,2.31M183.21,252.03l-.84,2.31M182.79,251.12l-.84,2.31M182.37,250.22l-.84,2.31M181.95,249.31l-.84,2.31M181.52,248.41l-.84,2.31M181.1,247.5l-.84,2.31M180.68,246.59l-.84,2.31M180.25,245.69l-.84,2.31M179.83,244.78l-.84,2.31M179.41,243.87l-.84,2.31M178.99,242.97l-.84,2.31M178.56,242.06l-.84,2.31"/>
      <path class="cls-9" d="M215.98,310.68l-.84,2.31M215.56,309.77l-.84,2.31M215.14,308.86l-.84,2.31M214.72,307.96l-.84,2.31M214.29,307.05l-.84,2.31M213.87,306.14l-.84,2.31M213.45,305.24l-.84,2.31M213.03,304.33l-.84,2.31M212.6,303.43l-.84,2.31M212.18,302.52l-.84,2.31M211.76,301.61l-.84,2.31M211.34,300.71l-.84,2.31M210.91,299.8l-.84,2.31M210.49,298.89l-.84,2.31M210.07,297.99l-.84,2.31M209.65,297.08l-.84,2.31M209.22,296.18l-.84,2.31M208.8,295.27l-.84,2.31M208.38,294.36l-.84,2.31M207.95,293.46l-.84,2.31M207.53,292.55l-.84,2.31M207.11,291.64l-.84,2.31M206.69,290.74l-.84,2.31M206.26,289.83l-.84,2.31M205.84,288.93l-.84,2.31M205.42,288.02l-.84,2.31M205,287.11l-.84,2.31M204.57,286.21l-.84,2.31M204.15,285.3l-.84,2.31M203.73,284.39l-.84,2.31M203.31,283.49l-.84,2.31M202.88,282.58l-.84,2.31M202.46,281.67l-.84,2.31M202.04,280.77l-.84,2.31M201.62,279.86l-.84,2.31M201.19,278.96l-.84,2.31M200.77,278.05l-.84,2.31M200.35,277.14l-.84,2.31M199.93,276.24l-.84,2.31M199.5,275.33l-.84,2.31M199.08,274.42l-.84,2.31M198.66,273.52l-.84,2.31M198.23,272.61l-.84,2.31M197.81,271.71l-.84,2.31M197.39,270.8l-.84,2.31M196.97,269.89l-.84,2.31M196.54,268.99l-.84,2.31M196.12,268.08l-.84,2.31M195.7,267.17l-.84,2.31M195.28,266.27l-.84,2.31M194.85,265.36l-.84,2.31M194.43,264.45l-.84,2.31M194.01,263.55l-.84,2.31M193.59,262.64l-.84,2.31M193.16,261.74l-.84,2.31M192.74,260.83l-.84,2.31M192.32,259.92l-.84,2.31M191.9,259.02l-.84,2.31M191.47,258.11l-.84,2.31M191.05,257.2l-.84,2.31M190.63,256.3l-.84,2.31M190.21,255.39l-.84,2.31M189.78,254.49l-.84,2.31M189.36,253.58l-.84,2.31M188.94,252.67l-.84,2.31M188.51,251.77l-.84,2.31M188.09,250.86l-.84,2.31M187.67,249.95l-.84,2.31M187.25,249.05l-.84,2.31M186.82,248.14l-.84,2.31M186.4,247.23l-.84,2.31M185.98,246.33l-.84,2.31M185.56,245.42l-.84,2.31M185.13,244.52l-.84,2.31M184.71,243.61l-.84,2.31M184.29,242.7l-.84,2.31M183.87,241.8l-.84,2.31M183.44,240.89l-.84,2.31M183.02,239.98l-.84,2.31"/>
      <path class="cls-9" d="M220.44,308.6l-.84,2.31M220.02,307.69l-.84,2.31M219.59,306.79l-.84,2.31M219.17,305.88l-.84,2.31M218.75,304.97l-.84,2.31M218.33,304.07l-.84,2.31M217.9,303.16l-.84,2.31M217.48,302.25l-.84,2.31M217.06,301.35l-.84,2.31M216.64,300.44l-.84,2.31M216.21,299.54l-.84,2.31M215.79,298.63l-.84,2.31M215.37,297.72l-.84,2.31M214.95,296.82l-.84,2.31M214.52,295.91l-.84,2.31M214.1,295l-.84,2.31M213.68,294.1l-.84,2.31M213.26,293.19l-.84,2.31M212.83,292.28l-.84,2.31M212.41,291.38l-.84,2.31M211.99,290.47l-.84,2.31M211.56,289.57l-.84,2.31M211.14,288.66l-.84,2.31M210.72,287.75l-.84,2.31M210.3,286.85l-.84,2.31M209.87,285.94l-.84,2.31M209.45,285.03l-.84,2.31M209.03,284.13l-.84,2.31M208.61,283.22l-.84,2.31M208.18,282.32l-.84,2.31M207.76,281.41l-.84,2.31M207.34,280.5l-.84,2.31M206.92,279.6l-.84,2.31M206.49,278.69l-.84,2.31M206.07,277.78l-.84,2.31M205.65,276.88l-.84,2.31M205.23,275.97l-.84,2.31M204.8,275.07l-.84,2.31M204.38,274.16l-.84,2.31M203.96,273.25l-.84,2.31M203.54,272.35l-.84,2.31M203.11,271.44l-.84,2.31M202.69,270.53l-.84,2.31M202.27,269.63l-.84,2.31M201.84,268.72l-.84,2.31M201.42,267.81l-.84,2.31M201,266.91l-.84,2.31M200.58,266l-.84,2.31M200.15,265.1l-.84,2.31M199.73,264.19l-.84,2.31M199.31,263.28l-.84,2.31M198.89,262.38l-.84,2.31M198.46,261.47l-.84,2.31M198.04,260.56l-.84,2.31M197.62,259.66l-.84,2.31M197.2,258.75l-.84,2.31M196.77,257.85l-.84,2.31M196.35,256.94l-.84,2.31M195.93,256.03l-.84,2.31M195.51,255.13l-.84,2.31M195.08,254.22l-.84,2.31M194.66,253.31l-.84,2.31M194.24,252.41l-.84,2.31M193.81,251.5l-.84,2.31M193.39,250.59l-.84,2.31M192.97,249.69l-.84,2.31M192.55,248.78l-.84,2.31M192.12,247.88l-.84,2.31M191.7,246.97l-.84,2.31M191.28,246.06l-.84,2.31M190.86,245.16l-.84,2.31M190.43,244.25l-.84,2.31M190.01,243.34l-.84,2.31M189.59,242.44l-.84,2.31M189.17,241.53l-.84,2.31M188.74,240.63l-.84,2.31M188.32,239.72l-.84,2.31M187.9,238.81l-.84,2.31M187.48,237.91l-.84,2.31"/>
      <path class="cls-9" d="M224.9,306.52l-.84,2.31M224.47,305.61l-.84,2.31M224.05,304.71l-.84,2.31M223.63,303.8l-.84,2.31M223.21,302.9l-.84,2.31M222.78,301.99l-.84,2.31M222.36,301.08l-.84,2.31M221.94,300.18l-.84,2.31M221.51,299.27l-.84,2.31M221.09,298.36l-.84,2.31M220.67,297.46l-.84,2.31M220.25,296.55l-.84,2.31M219.82,295.64l-.84,2.31M219.4,294.74l-.84,2.31M218.98,293.83l-.84,2.31M218.56,292.93l-.84,2.31M218.13,292.02l-.84,2.31M217.71,291.11l-.84,2.31M217.29,290.21l-.84,2.31M216.87,289.3l-.84,2.31M216.44,288.39l-.84,2.31M216.02,287.49l-.84,2.31M215.6,286.58l-.84,2.31M215.18,285.68l-.84,2.31M214.75,284.77l-.84,2.31M214.33,283.86l-.84,2.31M213.91,282.96l-.84,2.31M213.48,282.05l-.84,2.31M213.06,281.14l-.84,2.31M212.64,280.24l-.84,2.31M212.22,279.33l-.84,2.31M211.79,278.42l-.84,2.31M211.37,277.52l-.84,2.31M210.95,276.61l-.84,2.31M210.53,275.71l-.84,2.31M210.1,274.8l-.84,2.31M209.68,273.89l-.84,2.31M209.26,272.99l-.84,2.31M208.84,272.08l-.84,2.31M208.41,271.17l-.84,2.31M207.99,270.27l-.84,2.31M207.57,269.36l-.84,2.31M207.15,268.46l-.84,2.31M206.72,267.55l-.84,2.31M206.3,266.64l-.84,2.31M205.88,265.74l-.84,2.31M205.46,264.83l-.84,2.31M205.03,263.92l-.84,2.31M204.61,263.02l-.84,2.31M204.19,262.11l-.84,2.31M203.76,261.2l-.84,2.31M203.34,260.3l-.84,2.31M202.92,259.39l-.84,2.31M202.5,258.49l-.84,2.31M202.07,257.58l-.84,2.31M201.65,256.67l-.84,2.31M201.23,255.77l-.84,2.31M200.81,254.86l-.84,2.31M200.38,253.95l-.84,2.31M199.96,253.05l-.84,2.31M199.54,252.14l-.84,2.31M199.12,251.24l-.84,2.31M198.69,250.33l-.84,2.31M198.27,249.42l-.84,2.31M197.85,248.52l-.84,2.31M197.43,247.61l-.84,2.31M197,246.7l-.84,2.31M196.58,245.8l-.84,2.31M196.16,244.89l-.84,2.31M195.74,243.99l-.84,2.31M195.31,243.08l-.84,2.31M194.89,242.17l-.84,2.31M194.47,241.27l-.84,2.31M194.04,240.36l-.84,2.31M193.62,239.45l-.84,2.31M193.2,238.55l-.84,2.31M192.78,237.64l-.84,2.31M192.35,236.73l-.84,2.31M191.93,235.83l-.84,2.31"/>
      <path class="cls-9" d="M229.35,304.44l-.84,2.31M228.93,303.54l-.84,2.31M228.51,302.63l-.84,2.31M228.08,301.72l-.84,2.31M227.66,300.82l-.84,2.31M227.24,299.91l-.84,2.31M226.82,299l-.84,2.31M226.39,298.1l-.84,2.31M225.97,297.19l-.84,2.31M225.55,296.29l-.84,2.31M225.13,295.38l-.84,2.31M224.7,294.47l-.84,2.31M224.28,293.57l-.84,2.31M223.86,292.66l-.84,2.31M223.44,291.75l-.84,2.31M223.01,290.85l-.84,2.31M222.59,289.94l-.84,2.31M222.17,289.04l-.84,2.31M221.74,288.13l-.84,2.31M221.32,287.22l-.84,2.31M220.9,286.32l-.84,2.31M220.48,285.41l-.84,2.31M220.05,284.5l-.84,2.31M219.63,283.6l-.84,2.31M219.21,282.69l-.84,2.31M218.79,281.78l-.84,2.31M218.36,280.88l-.84,2.31M217.94,279.97l-.84,2.31M217.52,279.07l-.84,2.31M217.1,278.16l-.84,2.31M216.67,277.25l-.84,2.31M216.25,276.35l-.84,2.31M215.83,275.44l-.84,2.31M215.41,274.53l-.84,2.31M214.98,273.63l-.84,2.31M214.56,272.72l-.84,2.31M214.14,271.82l-.84,2.31M213.71,270.91l-.84,2.31M213.29,270l-.84,2.31M212.87,269.1l-.84,2.31M212.45,268.19l-.84,2.31M212.02,267.28l-.84,2.31M211.6,266.38l-.84,2.31M211.18,265.47l-.84,2.31M210.76,264.56l-.84,2.31M210.33,263.66l-.84,2.31M209.91,262.75l-.84,2.31M209.49,261.85l-.84,2.31M209.07,260.94l-.84,2.31M208.64,260.03l-.84,2.31M208.22,259.13l-.84,2.31M207.8,258.22l-.84,2.31M207.38,257.31l-.84,2.31M206.95,256.41l-.84,2.31M206.53,255.5l-.84,2.31M206.11,254.6l-.84,2.31M205.69,253.69l-.84,2.31M205.26,252.78l-.84,2.31M204.84,251.88l-.84,2.31M204.42,250.97l-.84,2.31M203.99,250.06l-.84,2.31M203.57,249.16l-.84,2.31M203.15,248.25l-.84,2.31M202.73,247.34l-.84,2.31M202.3,246.44l-.84,2.31M201.88,245.53l-.84,2.31M201.46,244.63l-.84,2.31M201.04,243.72l-.84,2.31M200.61,242.81l-.84,2.31M200.19,241.91l-.84,2.31M199.77,241l-.84,2.31M199.35,240.09l-.84,2.31M198.92,239.19l-.84,2.31M198.5,238.28l-.84,2.31M198.08,237.38l-.84,2.31M197.66,236.47l-.84,2.31M197.23,235.56l-.84,2.31M196.81,234.66l-.84,2.31M196.39,233.75l-.84,2.31"/>
      <path class="cls-9" d="M233.81,302.36l-.84,2.31M233.39,301.46l-.84,2.31M232.96,300.55l-.84,2.31M232.54,299.65l-.84,2.31M232.12,298.74l-.84,2.31M231.69,297.83l-.84,2.31M231.27,296.93l-.84,2.31M230.85,296.02l-.84,2.31M230.43,295.11l-.84,2.31M230,294.21l-.84,2.31M229.58,293.3l-.84,2.31M229.16,292.4l-.84,2.31M228.74,291.49l-.84,2.31M228.31,290.58l-.84,2.31M227.89,289.68l-.84,2.31M227.47,288.77l-.84,2.31M227.05,287.86l-.84,2.31M226.62,286.96l-.84,2.31M226.2,286.05l-.84,2.31M225.78,285.14l-.84,2.31M225.36,284.24l-.84,2.31M224.93,283.33l-.84,2.31M224.51,282.43l-.84,2.31M224.09,281.52l-.84,2.31M223.66,280.61l-.84,2.31M223.24,279.71l-.84,2.31M222.82,278.8l-.84,2.31M222.4,277.89l-.84,2.31M221.97,276.99l-.84,2.31M221.55,276.08l-.84,2.31M221.13,275.18l-.84,2.31M220.71,274.27l-.84,2.31M220.28,273.36l-.84,2.31M219.86,272.46l-.84,2.31M219.44,271.55l-.84,2.31M219.02,270.64l-.84,2.31M218.59,269.74l-.84,2.31M218.17,268.83l-.84,2.31M217.75,267.92l-.84,2.31M217.33,267.02l-.84,2.31M216.9,266.11l-.84,2.31M216.48,265.21l-.84,2.31M216.06,264.3l-.84,2.31M215.64,263.39l-.84,2.31M215.21,262.49l-.84,2.31M214.79,261.58l-.84,2.31M214.37,260.67l-.84,2.31M213.94,259.77l-.84,2.31M213.52,258.86l-.84,2.31M213.1,257.96l-.84,2.31M212.68,257.05l-.84,2.31M212.25,256.14l-.84,2.31M211.83,255.24l-.84,2.31M211.41,254.33l-.84,2.31M210.99,253.42l-.84,2.31M210.56,252.52l-.84,2.31M210.14,251.61l-.84,2.31M209.72,250.7l-.84,2.31M209.3,249.8l-.84,2.31M208.87,248.89l-.84,2.31M208.45,247.99l-.84,2.31M208.03,247.08l-.84,2.31M207.61,246.17l-.84,2.31M207.18,245.27l-.84,2.31M206.76,244.36l-.84,2.31M206.34,243.45l-.84,2.31M205.91,242.55l-.84,2.31M205.49,241.64l-.84,2.31M205.07,240.74l-.84,2.31M204.65,239.83l-.84,2.31M204.22,238.92l-.84,2.31M203.8,238.02l-.84,2.31M203.38,237.11l-.84,2.31M202.96,236.2l-.84,2.31M202.53,235.3l-.84,2.31M202.11,234.39l-.84,2.31M201.69,233.48l-.84,2.31M201.27,232.58l-.84,2.31M200.84,231.67l-.84,2.31"/>
      <path class="cls-9" d="M238.26,300.29l-.84,2.31M237.84,299.38l-.84,2.31M237.42,298.47l-.84,2.31M237,297.57l-.84,2.31M236.57,296.66l-.84,2.31M236.15,295.76l-.84,2.31M235.73,294.85l-.84,2.31M235.31,293.94l-.84,2.31M234.88,293.04l-.84,2.31M234.46,292.13l-.84,2.31M234.04,291.22l-.84,2.31M233.61,290.32l-.84,2.31M233.19,289.41l-.84,2.31M232.77,288.51l-.84,2.31M232.35,287.6l-.84,2.31M231.92,286.69l-.84,2.31M231.5,285.79l-.84,2.31M231.08,284.88l-.84,2.31M230.66,283.97l-.84,2.31M230.23,283.07l-.84,2.31M229.81,282.16l-.84,2.31M229.39,281.25l-.84,2.31M228.97,280.35l-.84,2.31M228.54,279.44l-.84,2.31M228.12,278.54l-.84,2.31M227.7,277.63l-.84,2.31M227.28,276.72l-.84,2.31M226.85,275.82l-.84,2.31M226.43,274.91l-.84,2.31M226.01,274l-.84,2.31M225.59,273.1l-.84,2.31M225.16,272.19l-.84,2.31M224.74,271.29l-.84,2.31M224.32,270.38l-.84,2.31M223.89,269.47l-.84,2.31M223.47,268.57l-.84,2.31M223.05,267.66l-.84,2.31M222.63,266.75l-.84,2.31M222.2,265.85l-.84,2.31M221.78,264.94l-.84,2.31M221.36,264.04l-.84,2.31M220.94,263.13l-.84,2.31M220.51,262.22l-.84,2.31M220.09,261.32l-.84,2.31M219.67,260.41l-.84,2.31M219.25,259.5l-.84,2.31M218.82,258.6l-.84,2.31M218.4,257.69l-.84,2.31M217.98,256.78l-.84,2.31M217.56,255.88l-.84,2.31M217.13,254.97l-.84,2.31M216.71,254.07l-.84,2.31M216.29,253.16l-.84,2.31M215.86,252.25l-.84,2.31M215.44,251.35l-.84,2.31M215.02,250.44l-.84,2.31M214.6,249.53l-.84,2.31M214.17,248.63l-.84,2.31M213.75,247.72l-.84,2.31M213.33,246.82l-.84,2.31M212.91,245.91l-.84,2.31M212.48,245l-.84,2.31M212.06,244.1l-.84,2.31M211.64,243.19l-.84,2.31M211.22,242.28l-.84,2.31M210.79,241.38l-.84,2.31M210.37,240.47l-.84,2.31M209.95,239.56l-.84,2.31M209.53,238.66l-.84,2.31M209.1,237.75l-.84,2.31M208.68,236.85l-.84,2.31M208.26,235.94l-.84,2.31M207.84,235.03l-.84,2.31M207.41,234.13l-.84,2.31M206.99,233.22l-.84,2.31M206.57,232.31l-.84,2.31M206.14,231.41l-.84,2.31M205.72,230.5l-.84,2.31M205.3,229.6l-.84,2.31"/>
      <path class="cls-9" d="M242.72,298.21l-.84,2.31M242.3,297.3l-.84,2.31M241.87,296.4l-.84,2.31M241.45,295.49l-.84,2.31M241.03,294.58l-.84,2.31M240.61,293.68l-.84,2.31M240.18,292.77l-.84,2.31M239.76,291.87l-.84,2.31M239.34,290.96l-.84,2.31M238.92,290.05l-.84,2.31M238.49,289.15l-.84,2.31M238.07,288.24l-.84,2.31M237.65,287.33l-.84,2.31M237.23,286.43l-.84,2.31M236.8,285.52l-.84,2.31M236.38,284.61l-.84,2.31M235.96,283.71l-.84,2.31M235.54,282.8l-.84,2.31M235.11,281.9l-.84,2.31M234.69,280.99l-.84,2.31M234.27,280.08l-.84,2.31M233.84,279.18l-.84,2.31M233.42,278.27l-.84,2.31M233,277.36l-.84,2.31M232.58,276.46l-.84,2.31M232.15,275.55l-.84,2.31M231.73,274.65l-.84,2.31M231.31,273.74l-.84,2.31M230.89,272.83l-.84,2.31M230.46,271.93l-.84,2.31M230.04,271.02l-.84,2.31M229.62,270.11l-.84,2.31M229.2,269.21l-.84,2.31M228.77,268.3l-.84,2.31M228.35,267.39l-.84,2.31M227.93,266.49l-.84,2.31M227.51,265.58l-.84,2.31M227.08,264.68l-.84,2.31M226.66,263.77l-.84,2.31M226.24,262.86l-.84,2.31M225.82,261.96l-.84,2.31M225.39,261.05l-.84,2.31M224.97,260.14l-.84,2.31M224.55,259.24l-.84,2.31M224.12,258.33l-.84,2.31M223.7,257.43l-.84,2.31M223.28,256.52l-.84,2.31M222.86,255.61l-.84,2.31M222.43,254.71l-.84,2.31M222.01,253.8l-.84,2.31M221.59,252.89l-.84,2.31M221.17,251.99l-.84,2.31M220.74,251.08l-.84,2.31M220.32,250.18l-.84,2.31M219.9,249.27l-.84,2.31M219.48,248.36l-.84,2.31M219.05,247.46l-.84,2.31M218.63,246.55l-.84,2.31M218.21,245.64l-.84,2.31M217.79,244.74l-.84,2.31M217.36,243.83l-.84,2.31M216.94,242.92l-.84,2.31M216.52,242.02l-.84,2.31M216.09,241.11l-.84,2.31M215.67,240.21l-.84,2.31M215.25,239.3l-.84,2.31M214.83,238.39l-.84,2.31M214.4,237.49l-.84,2.31M213.98,236.58l-.84,2.31M213.56,235.67l-.84,2.31M213.14,234.77l-.84,2.31M212.71,233.86l-.84,2.31M212.29,232.96l-.84,2.31M211.87,232.05l-.84,2.31M211.45,231.14l-.84,2.31M211.02,230.24l-.84,2.31M210.6,229.33l-.84,2.31M210.18,228.42l-.84,2.31M209.76,227.52l-.84,2.31"/>
      <path class="cls-9" d="M247.18,296.13l-.84,2.31M246.75,295.23l-.84,2.31M246.33,294.32l-.84,2.31M245.91,293.41l-.84,2.31M245.49,292.51l-.84,2.31M245.06,291.6l-.84,2.31M244.64,290.69l-.84,2.31M244.22,289.79l-.84,2.31M243.79,288.88l-.84,2.31M243.37,287.97l-.84,2.31M242.95,287.07l-.84,2.31M242.53,286.16l-.84,2.31M242.1,285.26l-.84,2.31M241.68,284.35l-.84,2.31M241.26,283.44l-.84,2.31M240.84,282.54l-.84,2.31M240.41,281.63l-.84,2.31M239.99,280.72l-.84,2.31M239.57,279.82l-.84,2.31M239.15,278.91l-.84,2.31M238.72,278.01l-.84,2.31M238.3,277.1l-.84,2.31M237.88,276.19l-.84,2.31M237.46,275.29l-.84,2.31M237.03,274.38l-.84,2.31M236.61,273.47l-.84,2.31M236.19,272.57l-.84,2.31M235.76,271.66l-.84,2.31M235.34,270.75l-.84,2.31M234.92,269.85l-.84,2.31M234.5,268.94l-.84,2.31M234.07,268.04l-.84,2.31M233.65,267.13l-.84,2.31M233.23,266.22l-.84,2.31M232.81,265.32l-.84,2.31M232.38,264.41l-.84,2.31M231.96,263.5l-.84,2.31M231.54,262.6l-.84,2.31M231.12,261.69l-.84,2.31M230.69,260.79l-.84,2.31M230.27,259.88l-.84,2.31M229.85,258.97l-.84,2.31M229.43,258.07l-.84,2.31M229,257.16l-.84,2.31M228.58,256.25l-.84,2.31M228.16,255.35l-.84,2.31M227.74,254.44l-.84,2.31M227.31,253.53l-.84,2.31M226.89,252.63l-.84,2.31M226.47,251.72l-.84,2.31M226.04,250.82l-.84,2.31M225.62,249.91l-.84,2.31M225.2,249l-.84,2.31M224.78,248.1l-.84,2.31M224.35,247.19l-.84,2.31M223.93,246.28l-.84,2.31M223.51,245.38l-.84,2.31M223.09,244.47l-.84,2.31M222.66,243.57l-.84,2.31M222.24,242.66l-.84,2.31M221.82,241.75l-.84,2.31M221.4,240.85l-.84,2.31M220.97,239.94l-.84,2.31M220.55,239.03l-.84,2.31M220.13,238.13l-.84,2.31M219.71,237.22l-.84,2.31M219.28,236.32l-.84,2.31M218.86,235.41l-.84,2.31M218.44,234.5l-.84,2.31M218.02,233.6l-.84,2.31M217.59,232.69l-.84,2.31M217.17,231.78l-.84,2.31M216.75,230.88l-.84,2.31M216.32,229.97l-.84,2.31M215.9,229.06l-.84,2.31M215.48,228.16l-.84,2.31M215.06,227.25l-.84,2.31M214.63,226.35l-.84,2.31M214.21,225.44l-.84,2.31"/>
      <path class="cls-9" d="M251.63,294.05l-.84,2.31M251.21,293.15l-.84,2.31M250.79,292.24l-.84,2.31M250.36,291.33l-.84,2.31M249.94,290.43l-.84,2.31M249.52,289.52l-.84,2.31M249.1,288.62l-.84,2.31M248.67,287.71l-.84,2.31M248.25,286.8l-.84,2.31M247.83,285.9l-.84,2.31M247.41,284.99l-.84,2.31M246.98,284.08l-.84,2.31M246.56,283.18l-.84,2.31M246.14,282.27l-.84,2.31M245.72,281.37l-.84,2.31M245.29,280.46l-.84,2.31M244.87,279.55l-.84,2.31M244.45,278.65l-.84,2.31M244.02,277.74l-.84,2.31M243.6,276.83l-.84,2.31M243.18,275.93l-.84,2.31M242.76,275.02l-.84,2.31M242.33,274.11l-.84,2.31M241.91,273.21l-.84,2.31M241.49,272.3l-.84,2.31M241.07,271.4l-.84,2.31M240.64,270.49l-.84,2.31M240.22,269.58l-.84,2.31M239.8,268.68l-.84,2.31M239.38,267.77l-.84,2.31M238.95,266.86l-.84,2.31M238.53,265.96l-.84,2.31M238.11,265.05l-.84,2.31M237.69,264.15l-.84,2.31M237.26,263.24l-.84,2.31M236.84,262.33l-.84,2.31M236.42,261.43l-.84,2.31M235.99,260.52l-.84,2.31M235.57,259.61l-.84,2.31M235.15,258.71l-.84,2.31M234.73,257.8l-.84,2.31M234.3,256.89l-.84,2.31M233.88,255.99l-.84,2.31M233.46,255.08l-.84,2.31M233.04,254.18l-.84,2.31M232.61,253.27l-.84,2.31M232.19,252.36l-.84,2.31M231.77,251.46l-.84,2.31M231.35,250.55l-.84,2.31M230.92,249.64l-.84,2.31M230.5,248.74l-.84,2.31M230.08,247.83l-.84,2.31M229.66,246.93l-.84,2.31M229.23,246.02l-.84,2.31M228.81,245.11l-.84,2.31M228.39,244.21l-.84,2.31M227.97,243.3l-.84,2.31M227.54,242.39l-.84,2.31M227.12,241.49l-.84,2.31M226.7,240.58l-.84,2.31M226.27,239.67l-.84,2.31M225.85,238.77l-.84,2.31M225.43,237.86l-.84,2.31M225.01,236.96l-.84,2.31M224.58,236.05l-.84,2.31M224.16,235.14l-.84,2.31M223.74,234.24l-.84,2.31M223.32,233.33l-.84,2.31M222.89,232.42l-.84,2.31M222.47,231.52l-.84,2.31M222.05,230.61l-.84,2.31M221.63,229.71l-.84,2.31M221.2,228.8l-.84,2.31M220.78,227.89l-.84,2.31M220.36,226.99l-.84,2.31M219.94,226.08l-.84,2.31M219.51,225.17l-.84,2.31M219.09,224.27l-.84,2.31M218.67,223.36l-.84,2.31"/>
      <path class="cls-9" d="M256.09,291.98l-.84,2.31M255.67,291.07l-.84,2.31M255.24,290.16l-.84,2.31M254.82,289.26l-.84,2.31M254.4,288.35l-.84,2.31M253.97,287.44l-.84,2.31M253.55,286.54l-.84,2.31M253.13,285.63l-.84,2.31M252.71,284.72l-.84,2.31M252.28,283.82l-.84,2.31M251.86,282.91l-.84,2.31M251.44,282.01l-.84,2.31M251.02,281.1l-.84,2.31M250.59,280.19l-.84,2.31M250.17,279.29l-.84,2.31M249.75,278.38l-.84,2.31M249.32,277.47l-.84,2.31M248.9,276.57l-.84,2.31M248.48,275.66l-.84,2.31M248.06,274.76l-.84,2.31M247.63,273.85l-.84,2.31M247.21,272.94l-.84,2.31M246.79,272.04l-.84,2.31M246.37,271.13l-.84,2.31M245.94,270.22l-.84,2.31M245.52,269.32l-.84,2.31M245.1,268.41l-.84,2.31M244.68,267.51l-.84,2.31M244.25,266.6l-.84,2.31M243.83,265.69l-.84,2.31M243.41,264.79l-.84,2.31M242.99,263.88l-.84,2.31M242.56,262.97l-.84,2.31M242.14,262.07l-.84,2.31M241.72,261.16l-.84,2.31M241.3,260.25l-.84,2.31M240.87,259.35l-.84,2.31M240.45,258.44l-.84,2.31M240.03,257.54l-.84,2.31M239.6,256.63l-.84,2.31M239.18,255.72l-.84,2.31M238.76,254.82l-.84,2.31M238.34,253.91l-.84,2.31M237.92,253l-.84,2.31M237.49,252.1l-.84,2.31M237.07,251.19l-.84,2.31M236.65,250.29l-.84,2.31M236.22,249.38l-.84,2.31M235.8,248.47l-.84,2.31M235.38,247.57l-.84,2.31M234.96,246.66l-.84,2.31M234.53,245.75l-.84,2.31M234.11,244.85l-.84,2.31M233.69,243.94l-.84,2.31M233.27,243.03l-.84,2.31M232.84,242.13l-.84,2.31M232.42,241.22l-.84,2.31M232,240.32l-.84,2.31M231.57,239.41l-.84,2.31M231.15,238.5l-.84,2.31M230.73,237.6l-.84,2.31M230.31,236.69l-.84,2.31M229.88,235.78l-.84,2.31M229.46,234.88l-.84,2.31M229.04,233.97l-.84,2.31M228.62,233.07l-.84,2.31M228.19,232.16l-.84,2.31M227.77,231.25l-.84,2.31M227.35,230.35l-.84,2.31M226.93,229.44l-.84,2.31M226.5,228.53l-.84,2.31M226.08,227.63l-.84,2.31M225.66,226.72l-.84,2.31M225.24,225.81l-.84,2.31M224.81,224.91l-.84,2.31M224.39,224l-.84,2.31M223.97,223.1l-.84,2.31M223.55,222.19l-.84,2.31M223.12,221.28l-.84,2.31"/>
      <path class="cls-9" d="M260.54,289.9l-.84,2.31M260.12,288.99l-.84,2.31M259.7,288.08l-.84,2.31M259.27,287.18l-.84,2.31M258.85,286.27l-.84,2.31M258.43,285.37l-.84,2.31M258.01,284.46l-.84,2.31M257.58,283.55l-.84,2.31M257.16,282.65l-.84,2.31M256.74,281.74l-.84,2.31M256.32,280.83l-.84,2.31M255.89,279.93l-.84,2.31M255.47,279.02l-.84,2.31M255.05,278.12l-.84,2.31M254.63,277.21l-.84,2.31M254.2,276.3l-.84,2.31M253.78,275.4l-.84,2.31M253.36,274.49l-.84,2.31M252.94,273.58l-.84,2.31M252.51,272.68l-.84,2.31M252.09,271.77l-.84,2.31M251.67,270.86l-.84,2.31M251.25,269.96l-.84,2.31M250.82,269.05l-.84,2.31M250.4,268.15l-.84,2.31M249.98,267.24l-.84,2.31M249.55,266.33l-.84,2.31M249.13,265.43l-.84,2.31M248.71,264.52l-.84,2.31M248.29,263.61l-.84,2.31M247.86,262.71l-.84,2.31M247.44,261.8l-.84,2.31M247.02,260.9l-.84,2.31M246.6,259.99l-.84,2.31M246.17,259.08l-.84,2.31M245.75,258.18l-.84,2.31M245.33,257.27l-.84,2.31M244.91,256.36l-.84,2.31M244.48,255.46l-.84,2.31M244.06,254.55l-.84,2.31M243.64,253.65l-.84,2.31M243.22,252.74l-.84,2.31M242.79,251.83l-.84,2.31M242.37,250.93l-.84,2.31M241.95,250.02l-.84,2.31M241.52,249.11l-.84,2.31M241.1,248.21l-.84,2.31M240.68,247.3l-.84,2.31M240.26,246.39l-.84,2.31M239.83,245.49l-.84,2.31M239.41,244.58l-.84,2.31M238.99,243.68l-.84,2.31M238.57,242.77l-.84,2.31M238.14,241.86l-.84,2.31M237.72,240.96l-.84,2.31M237.3,240.05l-.84,2.31M236.88,239.14l-.84,2.31M236.45,238.24l-.84,2.31M236.03,237.33l-.84,2.31M235.61,236.43l-.84,2.31M235.19,235.52l-.84,2.31M234.76,234.61l-.84,2.31M234.34,233.71l-.84,2.31M233.92,232.8l-.84,2.31M233.5,231.89l-.84,2.31M233.07,230.99l-.84,2.31M232.65,230.08l-.84,2.31M232.23,229.17l-.84,2.31M231.8,228.27l-.84,2.31M231.38,227.36l-.84,2.31M230.96,226.46l-.84,2.31M230.54,225.55l-.84,2.31M230.11,224.64l-.84,2.31M229.69,223.74l-.84,2.31M229.27,222.83l-.84,2.31M228.85,221.92l-.84,2.31M228.42,221.02l-.84,2.31M228,220.11l-.84,2.31M227.58,219.21l-.84,2.31"/>
      <path class="cls-9" d="M265,287.82l-.84,2.31M264.58,286.91l-.84,2.31M264.15,286.01l-.84,2.31M263.73,285.1l-.84,2.31M263.31,284.2l-.84,2.31M262.89,283.29l-.84,2.31M262.46,282.38l-.84,2.31M262.04,281.48l-.84,2.31M261.62,280.57l-.84,2.31M261.2,279.66l-.84,2.31M260.77,278.76l-.84,2.31M260.35,277.85l-.84,2.31M259.93,276.94l-.84,2.31M259.5,276.04l-.84,2.31M259.08,275.13l-.84,2.31M258.66,274.23l-.84,2.31M258.24,273.32l-.84,2.31M257.81,272.41l-.84,2.31M257.39,271.51l-.84,2.31M256.97,270.6l-.84,2.31M256.55,269.69l-.84,2.31M256.12,268.79l-.84,2.31M255.7,267.88l-.84,2.31M255.28,266.98l-.84,2.31M254.86,266.07l-.84,2.31M254.43,265.16l-.84,2.31M254.01,264.26l-.84,2.31M253.59,263.35l-.84,2.31M253.17,262.44l-.84,2.31M252.74,261.54l-.84,2.31M252.32,260.63l-.84,2.31M251.9,259.72l-.84,2.31M251.47,258.82l-.84,2.31M251.05,257.91l-.84,2.31M250.63,257.01l-.84,2.31M250.21,256.1l-.84,2.31M249.78,255.19l-.84,2.31M249.36,254.29l-.84,2.31M248.94,253.38l-.84,2.31M248.52,252.47l-.84,2.31M248.09,251.57l-.84,2.31M247.67,250.66l-.84,2.31M247.25,249.76l-.84,2.31M246.83,248.85l-.84,2.31M246.4,247.94l-.84,2.31M245.98,247.04l-.84,2.31M245.56,246.13l-.84,2.31M245.14,245.22l-.84,2.31M244.71,244.32l-.84,2.31M244.29,243.41l-.84,2.31M243.87,242.5l-.84,2.31M243.45,241.6l-.84,2.31M243.02,240.69l-.84,2.31M242.6,239.79l-.84,2.31M242.18,238.88l-.84,2.31M241.75,237.97l-.84,2.31M241.33,237.07l-.84,2.31M240.91,236.16l-.84,2.31M240.49,235.25l-.84,2.31M240.06,234.35l-.84,2.31M239.64,233.44l-.84,2.31M239.22,232.54l-.84,2.31M238.8,231.63l-.84,2.31M238.37,230.72l-.84,2.31M237.95,229.82l-.84,2.31M237.53,228.91l-.84,2.31M237.11,228l-.84,2.31M236.68,227.1l-.84,2.31M236.26,226.19l-.84,2.31M235.84,225.29l-.84,2.31M235.42,224.38l-.84,2.31M234.99,223.47l-.84,2.31M234.57,222.57l-.84,2.31M234.15,221.66l-.84,2.31M233.72,220.75l-.84,2.31M233.3,219.85l-.84,2.31M232.88,218.94l-.84,2.31M232.46,218.03l-.84,2.31M232.03,217.13l-.84,2.31"/>
      <path class="cls-9" d="M269.45,285.74l-.84,2.31M269.03,284.84l-.84,2.31M268.61,283.93l-.84,2.31M268.19,283.02l-.84,2.31M267.76,282.12l-.84,2.31M267.34,281.21l-.84,2.31M266.92,280.3l-.84,2.31M266.5,279.4l-.84,2.31M266.07,278.49l-.84,2.31M265.65,277.59l-.84,2.31M265.23,276.68l-.84,2.31M264.81,275.77l-.84,2.31M264.38,274.87l-.84,2.31M263.96,273.96l-.84,2.31M263.54,273.05l-.84,2.31M263.12,272.15l-.84,2.31M262.69,271.24l-.84,2.31M262.27,270.34l-.84,2.31M261.85,269.43l-.84,2.31M261.42,268.52l-.84,2.31M261,267.62l-.84,2.31M260.58,266.71l-.84,2.31M260.16,265.8l-.84,2.31M259.73,264.9l-.84,2.31M259.31,263.99l-.84,2.31M258.89,263.08l-.84,2.31M258.47,262.18l-.84,2.31M258.04,261.27l-.84,2.31M257.62,260.37l-.84,2.31M257.2,259.46l-.84,2.31M256.78,258.55l-.84,2.31M256.35,257.65l-.84,2.31M255.93,256.74l-.84,2.31M255.51,255.83l-.84,2.31M255.09,254.93l-.84,2.31M254.66,254.02l-.84,2.31M254.24,253.12l-.84,2.31M253.82,252.21l-.84,2.31M253.4,251.3l-.84,2.31M252.97,250.4l-.84,2.31M252.55,249.49l-.84,2.31M252.13,248.58l-.84,2.31M251.7,247.68l-.84,2.31M251.28,246.77l-.84,2.31M250.86,245.86l-.84,2.31M250.44,244.96l-.84,2.31M250.01,244.05l-.84,2.31M249.59,243.15l-.84,2.31M249.17,242.24l-.84,2.31M248.75,241.33l-.84,2.31M248.32,240.43l-.84,2.31M247.9,239.52l-.84,2.31M247.48,238.61l-.84,2.31M247.06,237.71l-.84,2.31M246.63,236.8l-.84,2.31M246.21,235.9l-.84,2.31M245.79,234.99l-.84,2.31M245.37,234.08l-.84,2.31M244.94,233.18l-.84,2.31M244.52,232.27l-.84,2.31M244.1,231.36l-.84,2.31M243.68,230.46l-.84,2.31M243.25,229.55l-.84,2.31M242.83,228.64l-.84,2.31M242.41,227.74l-.84,2.31M241.98,226.83l-.84,2.31M241.56,225.93l-.84,2.31M241.14,225.02l-.84,2.31M240.72,224.11l-.84,2.31M240.29,223.21l-.84,2.31M239.87,222.3l-.84,2.31M239.45,221.39l-.84,2.31M239.03,220.49l-.84,2.31M238.6,219.58l-.84,2.31M238.18,218.68l-.84,2.31M237.76,217.77l-.84,2.31M237.34,216.86l-.84,2.31M236.91,215.96l-.84,2.31M236.49,215.05l-.84,2.31"/>
      <path class="cls-9" d="M273.91,283.66l-.84,2.31M273.49,282.76l-.84,2.31M273.07,281.85l-.84,2.31M272.64,280.95l-.84,2.31M272.22,280.04l-.84,2.31M271.8,279.13l-.84,2.31M271.37,278.23l-.84,2.31M270.95,277.32l-.84,2.31M270.53,276.41l-.84,2.31M270.11,275.51l-.84,2.31M269.68,274.6l-.84,2.31M269.26,273.7l-.84,2.31M268.84,272.79l-.84,2.31M268.42,271.88l-.84,2.31M267.99,270.98l-.84,2.31M267.57,270.07l-.84,2.31M267.15,269.16l-.84,2.31M266.73,268.26l-.84,2.31M266.3,267.35l-.84,2.31M265.88,266.44l-.84,2.31M265.46,265.54l-.84,2.31M265.04,264.63l-.84,2.31M264.61,263.73l-.84,2.31M264.19,262.82l-.84,2.31M263.77,261.91l-.84,2.31M263.35,261.01l-.84,2.31M262.92,260.1l-.84,2.31M262.5,259.19l-.84,2.31M262.08,258.29l-.84,2.31M261.65,257.38l-.84,2.31M261.23,256.48l-.84,2.31M260.81,255.57l-.84,2.31M260.39,254.66l-.84,2.31M259.96,253.76l-.84,2.31M259.54,252.85l-.84,2.31M259.12,251.94l-.84,2.31M258.7,251.04l-.84,2.31M258.27,250.13l-.84,2.31M257.85,249.22l-.84,2.31M257.43,248.32l-.84,2.31M257.01,247.41l-.84,2.31M256.58,246.51l-.84,2.31M256.16,245.6l-.84,2.31M255.74,244.69l-.84,2.31M255.32,243.79l-.84,2.31M254.89,242.88l-.84,2.31M254.47,241.97l-.84,2.31M254.05,241.07l-.84,2.31M253.62,240.16l-.84,2.31M253.2,239.26l-.84,2.31M252.78,238.35l-.84,2.31M252.36,237.44l-.84,2.31M251.93,236.54l-.84,2.31M251.51,235.63l-.84,2.31M251.09,234.72l-.84,2.31M250.67,233.82l-.84,2.31M250.24,232.91l-.84,2.31M249.82,232l-.84,2.31M249.4,231.1l-.84,2.31M248.98,230.19l-.84,2.31M248.55,229.29l-.84,2.31M248.13,228.38l-.84,2.31M247.71,227.47l-.84,2.31M247.29,226.57l-.84,2.31M246.86,225.66l-.84,2.31M246.44,224.75l-.84,2.31M246.02,223.85l-.84,2.31M245.6,222.94l-.84,2.31M245.17,222.04l-.84,2.31M244.75,221.13l-.84,2.31M244.33,220.22l-.84,2.31M243.9,219.32l-.84,2.31M243.48,218.41l-.84,2.31M243.06,217.5l-.84,2.31M242.64,216.6l-.84,2.31M242.21,215.69l-.84,2.31M241.79,214.78l-.84,2.31M241.37,213.88l-.84,2.31M240.95,212.97l-.84,2.31"/>
      <path class="cls-9" d="M278.37,281.59l-.84,2.31M277.94,280.68l-.84,2.31M277.52,279.77l-.84,2.31M277.1,278.87l-.84,2.31M276.68,277.96l-.84,2.31M276.25,277.05l-.84,2.31M275.83,276.15l-.84,2.31M275.41,275.24l-.84,2.31M274.99,274.34l-.84,2.31M274.56,273.43l-.84,2.31M274.14,272.52l-.84,2.31M273.72,271.62l-.84,2.31M273.3,270.71l-.84,2.31M272.87,269.8l-.84,2.31M272.45,268.9l-.84,2.31M272.03,267.99l-.84,2.31M271.6,267.09l-.84,2.31M271.18,266.18l-.84,2.31M270.76,265.27l-.84,2.31M270.34,264.37l-.84,2.31M269.91,263.46l-.84,2.31M269.49,262.55l-.84,2.31M269.07,261.65l-.84,2.31M268.65,260.74l-.84,2.31M268.22,259.84l-.84,2.31M267.8,258.93l-.84,2.31M267.38,258.02l-.84,2.31M266.96,257.12l-.84,2.31M266.53,256.21l-.84,2.31M266.11,255.3l-.84,2.31M265.69,254.4l-.84,2.31M265.27,253.49l-.84,2.31M264.84,252.58l-.84,2.31M264.42,251.68l-.84,2.31M264,250.77l-.84,2.31M263.58,249.87l-.84,2.31M263.15,248.96l-.84,2.31M262.73,248.05l-.84,2.31M262.31,247.15l-.84,2.31M261.88,246.24l-.84,2.31M261.46,245.33l-.84,2.31M261.04,244.43l-.84,2.31M260.62,243.52l-.84,2.31M260.19,242.62l-.84,2.31M259.77,241.71l-.84,2.31M259.35,240.8l-.84,2.31M258.93,239.9l-.84,2.31M258.5,238.99l-.84,2.31M258.08,238.08l-.84,2.31M257.66,237.18l-.84,2.31M257.24,236.27l-.84,2.31M256.81,235.36l-.84,2.31M256.39,234.46l-.84,2.31M255.97,233.55l-.84,2.31M255.55,232.65l-.84,2.31M255.12,231.74l-.84,2.31M254.7,230.83l-.84,2.31M254.28,229.93l-.84,2.31M253.85,229.02l-.84,2.31M253.43,228.11l-.84,2.31M253.01,227.21l-.84,2.31M252.59,226.3l-.84,2.31M252.16,225.4l-.84,2.31M251.74,224.49l-.84,2.31M251.32,223.58l-.84,2.31M250.9,222.68l-.84,2.31M250.47,221.77l-.84,2.31M250.05,220.86l-.84,2.31M249.63,219.96l-.84,2.31M249.21,219.05l-.84,2.31M248.78,218.14l-.84,2.31M248.36,217.24l-.84,2.31M247.94,216.33l-.84,2.31M247.52,215.43l-.84,2.31M247.09,214.52l-.84,2.31M246.67,213.61l-.84,2.31M246.25,212.71l-.84,2.31M245.83,211.8l-.84,2.31M245.4,210.89l-.84,2.31"/>
    </g>
    <line class="cls-7" x1="176.2" y1="256" x2="176.2" y2="291.25"/>
    <line class="cls-5" x1="191.29" y1="301.75" x2="239.64" y2="301.75"/>
    <line class="cls-7" x1="248.7" y1="284.5" x2="248.7" y2="249.25"/>
    <line class="cls-5" x1="233.61" y1="238.75" x2="185.26" y2="238.75"/>
    <path class="cls-6" d="M179.23,238.75h-3.03v3.75M248.7,242.5v-3.75h-3.03M245.67,301.75h3.03v-3.75M176.2,298v3.75h3.03"/>
    <g class="cls-12">
      <line class="cls-8" x1="348.54" y1="302.25" x2="348.54" y2="382.25"/>
      <line class="cls-8" x1="359.58" y1="302.25" x2="359.58" y2="382.25"/>
      <line class="cls-8" x1="370.62" y1="302.25" x2="370.62" y2="382.25"/>
      <line class="cls-8" x1="381.67" y1="302.25" x2="381.67" y2="382.25"/>
      <line class="cls-8" x1="392.71" y1="302.25" x2="392.71" y2="382.25"/>
      <line class="cls-8" x1="403.75" y1="302.25" x2="403.75" y2="382.25"/>
      <line class="cls-8" x1="414.79" y1="302.25" x2="414.79" y2="382.25"/>
      <line class="cls-8" x1="425.83" y1="302.25" x2="425.83" y2="382.25"/>
      <line class="cls-8" x1="436.87" y1="302.25" x2="436.87" y2="382.25"/>
      <line class="cls-8" x1="447.91" y1="302.25" x2="447.91" y2="382.25"/>
      <line class="cls-8" x1="458.95" y1="302.25" x2="458.95" y2="382.25"/>
      <line class="cls-8" x1="469.99" y1="302.25" x2="469.99" y2="382.25"/>
      <line class="cls-8" x1="481.03" y1="302.25" x2="481.03" y2="382.25"/>
      <line class="cls-8" x1="492.07" y1="302.25" x2="492.07" y2="382.25"/>
      <line class="cls-8" x1="503.11" y1="302.25" x2="503.11" y2="382.25"/>
      <line class="cls-8" x1="514.15" y1="302.25" x2="514.15" y2="382.25"/>
      <line class="cls-8" x1="525.19" y1="302.25" x2="525.19" y2="382.25"/>
      <line class="cls-8" x1="536.23" y1="302.25" x2="536.23" y2="382.25"/>
      <line class="cls-8" x1="547.28" y1="302.25" x2="547.28" y2="382.25"/>
      <line class="cls-8" x1="558.32" y1="302.25" x2="558.32" y2="382.25"/>
      <line class="cls-8" x1="569.36" y1="302.25" x2="569.36" y2="382.25"/>
      <line class="cls-8" x1="580.4" y1="302.25" x2="580.4" y2="382.25"/>
      <line class="cls-8" x1="591.44" y1="302.25" x2="591.44" y2="382.25"/>
    </g>
    <line class="cls-7" x1="346.34" y1="328" x2="346.34" y2="363.25"/>
    <line class="cls-3" x1="361.51" y1="373.75" x2="592.39" y2="373.75"/>
    <line class="cls-7" x1="601.5" y1="356.5" x2="601.5" y2="321.25"/>
    <line class="cls-3" x1="586.33" y1="310.75" x2="355.45" y2="310.75"/>
    <path class="cls-6" d="M349.39,310.75h-3.06v3.75M601.5,314.5v-3.75h-3.06M598.44,373.75h3.06v-3.75M346.34,370v3.75h3.06"/>
  </g>
</svg>