<?xml version="1.0" encoding="UTF-8"?>
<svg id="Calque_1" data-name="Calque 1" xmlns="http://www.w3.org/2000/svg" xmlns:xlink="http://www.w3.org/1999/xlink" viewBox="0 0 616 860">
  <defs>
    <style>
      .cls-1 {
        clip-path: url(#clippath);
      }

      .cls-2, .cls-3, .cls-4, .cls-5 {
        fill: none;
      }

      .cls-2, .cls-6 {
        stroke-width: 0px;
      }

      .cls-7 {
        clip-path: url(#clippath-1);
      }

      .cls-3 {
        stroke-dasharray: 0 0 7.09 25.09;
      }

      .cls-3, .cls-4, .cls-5 {
        stroke: #000;
        stroke-miterlimit: 1;
      }

      .cls-4 {
        stroke-dasharray: 0 0 6.19 6.19;
      }
    </style>
    <clipPath id="clippath">
      <rect class="cls-2" width="616" height="860"/>
    </clipPath>
    <clipPath id="clippath-1">
      <rect class="cls-2" width="616" height="860"/>
    </clipPath>
  </defs>
  <g class="cls-1">
    <g class="cls-7">
      <path class="cls-6" d="M101.68,43.76h4.86v-.32c-1.73,0-1.73-.18-1.73-.9v-10.51h-.36c-1.15.54-2.14.95-3.08.95v.36c.74,0,1.39-.11,2.03-.38v9.58c0,.72,0,.9-1.73.9v.32ZM94.55,42.43l3.94-8.53c.47,1.06.68,2.52.68,4.1,0,3.08-.83,5.72-2.74,5.72-.83,0-1.44-.49-1.89-1.3M93.7,38c0-3.08.83-5.72,2.74-5.72.79,0,1.4.47,1.84,1.22l-3.92,8.5c-.45-1.04-.65-2.47-.65-4M96.44,43.98c2.23,0,4.14-2.38,4.14-5.98s-1.91-5.98-4.14-5.98-4.14,2.38-4.14,5.98,1.91,5.98,4.14,5.98M77.81,43.76h3.74v-.29c-1.19,0-1.19-.18-1.19-.83v-4.27c.41-1.06,1.17-1.96,2.3-1.96,1.04,0,1.53.76,1.53,2.3v3.92c0,.65,0,.83-1.19.83v.29h3.74v-.29c-1.19,0-1.19-.18-1.19-.83v-4.05c0-1.6-.9-2.61-2.43-2.61-1.3,0-2.12.65-2.77,1.85v-1.64h-2.56v.29c1.19,0,1.19.18,1.19.83v5.33c0,.65,0,.83-1.19.83v.29ZM70.72,42c0-1.37.77-2.05,3.28-2.09v2.48c-.43.85-1.17,1.15-1.91,1.15-.86,0-1.37-.49-1.37-1.55M75.51,43.98c.77,0,1.06-.38,1.33-.83l-.18-.13c-.22.36-.45.58-.77.58-.41,0-.52-.36-.52-1.15v-4.19c0-1.49-1.1-2.27-2.66-2.27s-2.9.77-2.9,1.91c0,.54.25.85.72.85s.72-.38.72-.88c0-1.06.25-1.58,1.3-1.58,1.46,0,1.46,1.01,1.46,2.16v1.15c-2.54.04-4.64.67-4.64,2.43,0,1.33,1.19,1.96,2.47,1.96s1.84-.58,2.18-1.24c.07.86.74,1.24,1.51,1.24M64.63,43.76h3.74v-.29c-1.19,0-1.19-.18-1.19-.83v-10.4h-2.56v.29c1.19,0,1.19.18,1.19.83v9.29c0,.65,0,.83-1.19.83v.29ZM57.69,42.28v-4.84c.38-.52,1.15-1.06,2.18-1.06,1.58,0,2.43,1.35,2.43,3.55,0,2.7-1.28,3.65-2.54,3.65-1.01,0-1.69-.63-2.07-1.3M55.13,47.54h4.1v-.29c-1.55,0-1.55-.18-1.55-.83v-3.71c.4.65,1.19,1.26,2.36,1.26,2,0,3.62-1.73,3.62-4.14s-1.53-3.85-3.46-3.85c-1.08,0-2.02.49-2.52,1.21v-.99h-2.56v.29c1.19,0,1.19.18,1.19.83v9.11c0,.65,0,.83-1.19.83v.29ZM45.97,43.76h3.74v-.29c-1.19,0-1.19-.18-1.19-.83v-3.1h.5l2.09,3.1c.5.74.2.83-.68.83v.29h3.82v-.29c-.85,0-1.06-.13-1.44-.68l-2.32-3.49,2.03-2.3c.41-.47,1.01-.5,1.4-.5v-.29h-2.45v.29c.68,0,1.08.07.77.43l-1.96,2.2h-1.76v-6.88h-2.56v.29c1.19,0,1.19.18,1.19.83v9.29c0,.65,0,.83-1.19.83v.29ZM39.45,43.76h3.74v-.29c-1.19,0-1.19-.18-1.19-.83v-4.36c.29-.94.54-1.66,1.31-1.66,1.01,0,.59,1.26,1.55,1.26.41,0,.7-.25.7-.76,0-.65-.5-1.15-1.46-1.15-1.17,0-1.76.72-2.11,1.66v-1.44h-2.56v.29c1.19,0,1.19.18,1.19.83v5.33c0,.65,0,.83-1.19.83v.29ZM32,39.85c0-2.54,1.1-3.51,2.5-3.51,1.51,0,2.61,1.12,2.61,3.65s-1.1,3.62-2.5,3.62c-1.51,0-2.61-1.22-2.61-3.76M34.56,43.98c1.96,0,3.92-1.4,3.92-4s-1.96-4-3.92-4-3.92,1.4-3.92,4,1.96,4,3.92,4M22.19,33.28l.29.85-2.72,7.94-2.68-8.78c-.16-.56-.14-.72,1.08-.72v-.32h-3.85v.32c1.12,0,1.19.14,1.37.72l3.37,10.69h.43l3.19-9.25,3.04,9.25h.43l3.37-10.69c.18-.56.23-.72,1.49-.72v-.32h-2.88v.32c1.15,0,1.17.16.99.72l-2.72,8.69-2.75-8.69c-.18-.56-.18-.72.9-.72v-.32h-3.73v.32c1.12,0,1.19.14,1.39.72"/>
      <path class="cls-6" d="M95.09,27.98c.83,0,1.17-.4,1.49-.97l-.18-.11c-.27.5-.59.7-.99.7-.67,0-.77-.58-.77-1.6v-5.44l2.16-.18v-.18h-2.16v-1.84h-.18l-1.19,1.01v.83h-1.33v.36h1.33v5.33c0,1.4.68,2.09,1.82,2.09M86.18,27.98c1.37,0,2.34-.77,2.77-1.93v1.71h2.56v-.29c-1.19,0-1.19-.18-1.19-.83v-6.44h-2.56v.29c1.19,0,1.19.18,1.19.83v4.27c-.41,1.06-1.04,1.96-2.21,1.96s-1.62-.79-1.62-2.48v-4.86h-2.56v.29c1.19,0,1.19.18,1.19.83v3.87c0,1.71.88,2.79,2.43,2.79M78.85,27.98c1.13,0,2.11-.4,2.9-1.58l-.22-.16c-.67.92-1.48,1.17-2.27,1.17-1.55,0-2.7-.95-2.7-3.51,0-2.38.99-3.62,2.56-3.62.81,0,.92.4,1.06,1.13.07.4.31.74.77.74.36,0,.65-.22.65-.67,0-.9-1.08-1.49-2.39-1.49-2.16,0-4.01,1.53-4.01,4.16,0,2.25,1.35,3.83,3.65,3.83M71.31,17.9c0,.56.45.94.95.94s.95-.38.95-.94c0-.61-.45-.95-.95-.95s-.95.32-.95.95M70.48,27.76h3.74v-.29c-1.19,0-1.19-.18-1.19-.83v-6.44h-2.56v.29c1.19,0,1.19.18,1.19.83v5.33c0,.65,0,.83-1.19.83v.29ZM65.95,27.76h3.74v-.29c-1.19,0-1.19-.18-1.19-.83v-10.4h-2.56v.29c1.19,0,1.19.18,1.19.83v9.29c0,.65,0,.83-1.19.83v.29ZM58.85,26c0-1.37.77-2.05,3.28-2.09v2.48c-.43.85-1.17,1.15-1.91,1.15-.86,0-1.37-.49-1.37-1.55M63.64,27.98c.77,0,1.06-.38,1.33-.83l-.18-.13c-.22.36-.45.58-.77.58-.41,0-.52-.36-.52-1.15v-4.19c0-1.49-1.1-2.27-2.66-2.27s-2.9.77-2.9,1.91c0,.54.25.85.72.85s.72-.38.72-.88c0-1.06.25-1.58,1.3-1.58,1.46,0,1.46,1.01,1.46,2.16v1.15c-2.54.04-4.64.67-4.64,2.43,0,1.33,1.19,1.96,2.47,1.96s1.84-.58,2.18-1.24c.07.86.74,1.24,1.51,1.24M51.48,27.98c1.48,0,3.2-.41,4.28-1.21l.22-1.91h-.43c-.45,1.69-1.96,2.79-4.07,2.79-2.75,0-4.79-1.85-4.79-5.47s2.09-5.83,4.84-5.83c1.89,0,3.55,1.01,4.01,2.79h.43l-.22-1.91c-1.08-.79-2.83-1.21-4.21-1.21-3.65,0-6.35,2.79-6.35,6.17s2.72,5.78,6.28,5.78M30.74,27.76h5.29v-.32c-2.16,0-2.16-.18-2.16-.9v-4.37h2.32c.59,0,1.33.14,1.33,1.53h.29v-3.31h-.29c0,1.31-.74,1.48-1.33,1.48h-2.32v-5.33h3.91c.61,0,1.51,0,1.69,2.02h.25v-2.3h-8.98v.32c1.73,0,1.73.18,1.73.9v9.07c0,.72,0,.9-1.73.9v.32ZM14.58,27.76h3.82v-.32c-1.73,0-1.73-.18-1.73-.9v-9.47l4.95,10.69h.11l4.73-10.8v9.58c0,.72,0,.9-1.73.9v.32h4.86v-.32c-1.73,0-1.73-.18-1.73-.9v-9.07c0-.72,0-.9,1.73-.9v-.32h-3.2l-4.23,9.56-4.28-9.56h-3.29v.32c1.73,0,1.73.18,1.73.9v9.07c0,.72,0,.9-1.73.9v.32Z"/>
      <path class="cls-6" d="M523.28,43.76h3.74v-.29c-1.19,0-1.19-.18-1.19-.83v-4.27c.41-1.06,1.17-1.96,2.3-1.96,1.04,0,1.53.76,1.53,2.3v3.92c0,.65,0,.83-1.19.83v.29h3.74v-.29c-1.19,0-1.19-.18-1.19-.83v-4.05c0-1.6-.9-2.61-2.43-2.61-1.3,0-2.12.65-2.77,1.85v-5.6h-2.56v.29c1.19,0,1.19.18,1.19.83v9.29c0,.65,0,.83-1.19.83v.29ZM520.9,43.98c.83,0,1.17-.4,1.49-.97l-.18-.11c-.27.5-.59.7-.99.7-.67,0-.77-.58-.77-1.6v-5.44l2.16-.18v-.18h-2.16v-1.84h-.18l-1.19,1.01v.83h-1.33v.36h1.33v5.33c0,1.4.68,2.09,1.82,2.09M509.98,40.03c0-2.7,1.26-3.65,2.59-3.65.94,0,1.62.49,2.02,1.26v4.9c-.4.52-1.15,1.04-2.18,1.04-1.58,0-2.43-1.35-2.43-3.55M512.07,43.98c1.06,0,2.02-.49,2.52-1.19v.97h2.56v-.29c-1.19,0-1.19-.18-1.19-.83v-10.4h-2.56v.29c1.19,0,1.19.18,1.19.83v3.85c-.38-.7-1.15-1.22-2.29-1.22-2.11,0-3.69,1.73-3.69,4.14s1.53,3.85,3.46,3.85M504.72,33.9c0,.56.45.94.95.94s.95-.38.95-.94c0-.61-.45-.95-.95-.95s-.95.32-.95.95M503.89,43.76h3.74v-.29c-1.19,0-1.19-.18-1.19-.83v-6.44h-2.56v.29c1.19,0,1.19.18,1.19.83v5.33c0,.65,0,.83-1.19.83v.29ZM496.49,37.21l.02.04-1.89,5.22-1.8-5.26c-.22-.61-.25-.72.9-.72v-.29h-3.78v.29c1.12,0,1.26.16,1.48.72l2.5,6.77h.43l2.3-6.32,2.36,6.32h.45l2.5-6.77c.22-.58.38-.72,1.31-.72v-.29h-2.79v.29c1.39,0,1.4.07,1.17.72l-1.93,5.29-1.84-5.29c-.22-.61-.23-.72.72-.72v-.29h-3.24v.29c.79,0,.88.11,1.12.72M478.33,42.43l3.94-8.53c.47,1.06.68,2.52.68,4.1,0,3.08-.83,5.72-2.74,5.72-.83,0-1.44-.49-1.89-1.3M477.49,38c0-3.08.83-5.72,2.74-5.72.79,0,1.4.47,1.84,1.22l-3.92,8.5c-.45-1.04-.65-2.47-.65-4M480.22,43.98c2.23,0,4.14-2.38,4.14-5.98s-1.91-5.98-4.14-5.98-4.14,2.38-4.14,5.98,1.91,5.98,4.14,5.98M467.98,42.43l3.94-8.53c.47,1.06.68,2.52.68,4.1,0,3.08-.83,5.72-2.74,5.72-.83,0-1.44-.49-1.89-1.3M467.14,38c0-3.08.83-5.72,2.74-5.72.79,0,1.4.47,1.84,1.22l-3.92,8.5c-.45-1.04-.65-2.47-.65-4M469.87,43.98c2.23,0,4.14-2.38,4.14-5.98s-1.91-5.98-4.14-5.98-4.14,2.38-4.14,5.98,1.91,5.98,4.14,5.98M456.09,43.76h6.95v-.32c-2.77,0-2.77-.18-2.77-.9v-10.51h-.36c-1.15.65-2.14,1.13-3.98,1.13v.36c1.53,0,2.27-.16,2.93-.52v9.54c0,.72,0,.9-2.77.9v.32ZM441.49,32.62h-.47v7.99h6.82l-2.27,2.52.18.11,3.56-2.84-3.56-2.84-.18.11,2.27,2.52h-6.35v-7.56Z"/>
      <path class="cls-6" d="M537.3,27.98c.83,0,1.17-.4,1.49-.97l-.18-.11c-.27.5-.59.7-.99.7-.67,0-.77-.58-.77-1.6v-5.44l2.16-.18v-.18h-2.16v-1.84h-.18l-1.19,1.01v.83h-1.33v.36h1.33v5.33c0,1.4.68,2.09,1.82,2.09M524.9,27.76h3.74v-.29c-1.19,0-1.19-.18-1.19-.83v-4.27c.41-1.06,1.17-1.96,2.3-1.96,1.04,0,1.53.76,1.53,2.3v3.92c0,.65,0,.83-1.19.83v.29h3.74v-.29c-1.19,0-1.19-.18-1.19-.83v-4.05c0-1.6-.9-2.61-2.43-2.61-1.3,0-2.12.65-2.77,1.85v-5.6h-2.56v.29c1.19,0,1.19.18,1.19.83v9.29c0,.65,0,.83-1.19.83v.29ZM517.99,22.5c0-1.62.85-2.27,1.84-2.27s1.87.74,1.87,2.38-.81,2.32-1.8,2.32c-1.04,0-1.91-.79-1.91-2.43M517.3,29.69c0-.92.54-1.57,1.8-1.94.09.02.18.02.27.02l1.15.04c.74.02,2.29.09,2.29,1.62,0,1.33-1.17,2.09-2.99,2.09s-2.52-.74-2.52-1.82M519.62,31.76c2.11,0,4.37-.79,4.37-2.88,0-1.48-1.19-2.11-3.19-2.2l-1.17-.05c-1.08-.05-1.78-.13-1.78-.67,0-.45.63-.7,1.22-.83.23.04.47.05.7.05,1.85,0,3.11-1.24,3.11-2.68,0-.7-.31-1.31-.81-1.76h2.02l-.05-.54h-.88l-1.51.23c-.5-.29-1.12-.45-1.82-.45-2.03,0-3.04,1.37-3.04,2.66,0,1.1.7,2,1.84,2.36-1.22.31-1.82.76-1.82,1.42s.56,1.12,1.78,1.28c-1.19.2-2.66.86-2.66,2.05,0,1.4,1.89,2,3.69,2M512.41,17.9c0,.56.45.94.95.94s.95-.38.95-.94c0-.61-.45-.95-.95-.95s-.95.32-.95.95M511.58,27.76h3.74v-.29c-1.19,0-1.19-.18-1.19-.83v-6.44h-2.56v.29c1.19,0,1.19.18,1.19.83v5.33c0,.65,0,.83-1.19.83v.29ZM505.1,23.04c.13-1.71.81-2.81,2.27-2.81,1.12,0,1.96.65,1.96,2.56l-.47.25h-3.76ZM507.48,27.98c1.31,0,2.21-.56,2.92-1.58l-.2-.14c-.59.85-1.39,1.15-2.39,1.15-1.24,0-2.74-.47-2.74-3.64,0-.18,0-.34.02-.5h5.62c0-2.03-1.39-3.28-3.22-3.28-2.29,0-3.78,1.89-3.78,4.16s1.62,3.83,3.78,3.83M496.49,21.21l.02.04-1.89,5.22-1.8-5.26c-.22-.61-.25-.72.9-.72v-.29h-3.78v.29c1.12,0,1.26.16,1.48.72l2.5,6.77h.43l2.3-6.32,2.36,6.32h.45l2.5-6.77c.22-.58.38-.72,1.31-.72v-.29h-2.79v.29c1.39,0,1.4.07,1.17.72l-1.93,5.29-1.84-5.29c-.22-.61-.23-.72.72-.72v-.29h-3.24v.29c.79,0,.88.11,1.12.72M478.33,26.43l3.94-8.53c.47,1.06.68,2.52.68,4.1,0,3.08-.83,5.72-2.74,5.72-.83,0-1.44-.49-1.89-1.3M477.49,22c0-3.08.83-5.72,2.74-5.72.79,0,1.4.47,1.84,1.22l-3.92,8.5c-.45-1.04-.65-2.47-.65-4M480.22,27.98c2.23,0,4.14-2.38,4.14-5.98s-1.91-5.98-4.14-5.98-4.14,2.38-4.14,5.98,1.91,5.98,4.14,5.98M467.98,26.43l3.94-8.53c.47,1.06.68,2.52.68,4.1,0,3.08-.83,5.72-2.74,5.72-.83,0-1.44-.49-1.89-1.3M467.14,22c0-3.08.83-5.72,2.74-5.72.79,0,1.4.47,1.84,1.22l-3.92,8.5c-.45-1.04-.65-2.47-.65-4M469.87,27.98c2.23,0,4.14-2.38,4.14-5.98s-1.91-5.98-4.14-5.98-4.14,2.38-4.14,5.98,1.91,5.98,4.14,5.98M455.82,23.37l4.41-6.55v6.55h-4.41ZM458.52,27.44v.32h4.82v-.32c-1.71,0-1.71-.18-1.71-.83v-2.09h2.43v-2.88h-.29c0,1.19-.5,1.73-1.04,1.73h-1.1v-7.31h-1.24l-5.35,7.79v.67h5.18v2.09c0,.65,0,.83-1.71.83M441.49,16.62h-.47v7.99h6.82l-2.27,2.52.18.11,3.56-2.84-3.56-2.84-.18.11,2.27,2.52h-6.35v-7.56Z"/>
      <path class="cls-6" d="M211.92,43.98c1.66,0,2.84-.7,2.84-2.23,0-3.08-4.81-2.03-4.81-4.23,0-.86.76-1.24,1.71-1.24,1.94,0,1.33,1.58,2.29,1.58.41,0,.59-.29.59-.59,0-.83-1.37-1.28-2.68-1.28-1.6,0-2.77.67-2.77,2.05,0,2.79,4.81,1.84,4.81,4.21,0,.95-.77,1.44-1.82,1.44-2.07,0-1.55-1.93-2.59-1.93-.32,0-.7.18-.7.65,0,.95,1.58,1.57,3.13,1.57M202.04,39.04c.12-1.71.81-2.81,2.27-2.81,1.12,0,1.96.65,1.96,2.56l-.47.25h-3.76ZM204.42,43.98c1.31,0,2.21-.56,2.92-1.58l-.2-.14c-.59.85-1.39,1.15-2.39,1.15-1.24,0-2.74-.47-2.74-3.64,0-.18,0-.34.02-.5h5.62c0-2.03-1.39-3.28-3.22-3.28-2.29,0-3.78,1.89-3.78,4.16s1.62,3.83,3.78,3.83M195.92,43.76h3.74v-.29c-1.19,0-1.19-.18-1.19-.83v-10.4h-2.56v.29c1.19,0,1.19.18,1.19.83v9.29c0,.65,0,.83-1.19.83v.29ZM189.06,47.76c.9,0,1.46-.43,2-1.8l3.42-8.64c.23-.59.34-.83,1.31-.83v-.29h-2.88v.29c1.49,0,1.44.14,1.17.83l-2.09,5.26-1.98-5.26c-.27-.74-.2-.83.9-.83v-.29h-3.71v.29c1.12,0,1.21.18,1.48.83l2.74,6.68-.72,1.75c-.22,1.39-.68,1.62-1.06,1.62s-.52-.23-.65-.68c-.14-.52-.38-.74-.76-.74s-.65.25-.65.68c0,.72.63,1.13,1.48,1.13M184.87,43.98c.83,0,1.17-.4,1.49-.97l-.18-.11c-.27.5-.59.7-.99.7-.67,0-.77-.58-.77-1.6v-5.44l2.16-.18v-.18h-2.16v-1.84h-.18l-1.19,1.01v.83h-1.33v.36h1.33v5.33c0,1.4.68,2.09,1.82,2.09M178.17,43.98c1.66,0,2.84-.7,2.84-2.23,0-3.08-4.81-2.03-4.81-4.23,0-.86.76-1.24,1.71-1.24,1.94,0,1.33,1.58,2.29,1.58.41,0,.59-.29.59-.59,0-.83-1.37-1.28-2.68-1.28-1.6,0-2.77.67-2.77,2.05,0,2.79,4.81,1.84,4.81,4.21,0,.95-.77,1.44-1.82,1.44-2.07,0-1.55-1.93-2.59-1.93-.32,0-.7.18-.7.65,0,.95,1.58,1.57,3.13,1.57M159.93,42.43l3.94-8.53c.47,1.06.68,2.52.68,4.1,0,3.08-.83,5.72-2.74,5.72-.83,0-1.44-.49-1.89-1.3M159.08,38c0-3.08.83-5.72,2.74-5.72.79,0,1.4.47,1.84,1.22l-3.92,8.5c-.45-1.04-.65-2.47-.65-4M161.82,43.98c2.23,0,4.14-2.38,4.14-5.98s-1.91-5.98-4.14-5.98-4.14,2.38-4.14,5.98,1.91,5.98,4.14,5.98M148.78,35.46c0-1.71.88-3.19,2.68-3.19,1.93,0,2.68,1.71,2.68,3.15,0,1.8-1.13,3.28-2.83,3.28s-2.54-1.51-2.54-3.24M148.37,43.76v.22c4.03-.61,7.24-3.6,7.24-7.27,0-2.41-1.37-4.68-4.21-4.68-2,0-4.01,1.12-4.01,3.47,0,2.16,1.69,3.53,3.69,3.53,1.6,0,2.59-.86,3.13-2.18-.04,3.76-2.7,6.46-5.83,6.91"/>
      <path class="cls-6" d="M200.89,27.98c1.66,0,2.84-.7,2.84-2.23,0-3.08-4.81-2.03-4.81-4.23,0-.86.76-1.24,1.71-1.24,1.94,0,1.33,1.58,2.29,1.58.41,0,.59-.29.59-.59,0-.83-1.37-1.28-2.68-1.28-1.6,0-2.77.67-2.77,2.05,0,2.79,4.81,1.84,4.81,4.21,0,.95-.77,1.44-1.82,1.44-2.07,0-1.55-1.93-2.59-1.93-.32,0-.7.18-.7.65,0,.95,1.58,1.57,3.13,1.57M195.11,27.98c.83,0,1.17-.4,1.49-.97l-.18-.11c-.27.5-.59.7-.99.7-.67,0-.77-.58-.77-1.6v-5.44l2.16-.18v-.18h-2.16v-1.84h-.18l-1.19,1.01v.83h-1.33v.36h1.33v5.33c0,1.4.68,2.09,1.82,2.09M186.2,27.98c1.37,0,2.34-.77,2.77-1.93v1.71h2.56v-.29c-1.19,0-1.19-.18-1.19-.83v-6.44h-2.56v.29c1.19,0,1.19.18,1.19.83v4.27c-.41,1.06-1.04,1.96-2.21,1.96s-1.62-.79-1.62-2.48v-4.86h-2.56v.29c1.19,0,1.19.18,1.19.83v3.87c0,1.71.88,2.79,2.43,2.79M178.88,27.98c1.13,0,2.11-.4,2.9-1.58l-.22-.16c-.67.92-1.48,1.17-2.27,1.17-1.55,0-2.7-.95-2.7-3.51,0-2.38.99-3.62,2.56-3.62.81,0,.92.4,1.06,1.13.07.4.31.74.77.74.36,0,.65-.22.65-.67,0-.9-1.08-1.49-2.39-1.49-2.16,0-4.01,1.53-4.01,4.16,0,2.25,1.35,3.83,3.65,3.83M159.13,19.46c0-1.71.88-3.19,2.68-3.19,1.93,0,2.68,1.71,2.68,3.15,0,1.8-1.13,3.28-2.83,3.28s-2.54-1.51-2.54-3.24M158.72,27.76v.22c4.03-.61,7.24-3.6,7.24-7.27,0-2.41-1.37-4.68-4.21-4.68-2,0-4.01,1.12-4.01,3.47,0,2.16,1.69,3.53,3.69,3.53,1.6,0,2.59-.86,3.13-2.18-.04,3.76-2.7,6.46-5.83,6.91M149.58,26.43l3.94-8.53c.47,1.06.68,2.52.68,4.1,0,3.08-.83,5.72-2.74,5.72-.83,0-1.44-.49-1.89-1.3M148.73,22c0-3.08.83-5.72,2.74-5.72.79,0,1.4.47,1.84,1.22l-3.92,8.5c-.45-1.04-.65-2.47-.65-4M151.47,27.98c2.23,0,4.14-2.38,4.14-5.98s-1.91-5.98-4.14-5.98-4.14,2.38-4.14,5.98,1.91,5.98,4.14,5.98"/>
      <path class="cls-6" d="M378.15,43.09v.67h7.72v-2.88h-.29c0,1.19-.22,1.66-.9,1.66h-5.17c3.22-2.36,6.12-4.63,6.12-7.31,0-2.12-1.84-3.2-3.71-3.2-2.09,0-3.11,1.35-3.58,2.97l.22.05c.38-1.39,1.39-2.59,3.19-2.59,1.93,0,2.48,1.37,2.48,2.88,0,3.04-2.07,4.77-6.08,7.76M369.74,42.43l3.94-8.53c.47,1.06.68,2.52.68,4.1,0,3.08-.83,5.72-2.74,5.72-.83,0-1.44-.49-1.89-1.3M368.9,38c0-3.08.83-5.72,2.74-5.72.79,0,1.4.47,1.84,1.22l-3.92,8.5c-.45-1.04-.65-2.47-.65-4M371.64,43.98c2.23,0,4.14-2.38,4.14-5.98s-1.91-5.98-4.14-5.98-4.14,2.38-4.14,5.98,1.91,5.98,4.14,5.98M363.14,43.98c1.66,0,2.84-.7,2.84-2.23,0-3.08-4.81-2.03-4.81-4.23,0-.86.76-1.24,1.71-1.24,1.94,0,1.33,1.58,2.29,1.58.41,0,.59-.29.59-.59,0-.83-1.37-1.28-2.68-1.28-1.6,0-2.77.67-2.77,2.05,0,2.79,4.81,1.84,4.81,4.21,0,.95-.77,1.44-1.82,1.44-2.07,0-1.55-1.93-2.59-1.93-.32,0-.7.18-.7.65,0,.95,1.58,1.57,3.13,1.57M354.7,43.98c1.8,0,4.07-1.01,4.07-3.44,0-4.34-6.79-2.61-6.79-5.98,0-1.42.94-2.29,2.68-2.29s2.57.85,3.01,2.54h.43l-.2-1.87c-1.04-.63-2.02-.92-3.17-.92-2.2,0-3.73,1.06-3.73,2.95,0,4.09,6.79,2.38,6.79,6.01,0,1.98-1.51,2.74-3.11,2.74-1.85,0-2.88-1.03-3.35-2.86h-.45l.2,1.89c.95.86,2.56,1.22,3.62,1.22M334.84,37.95h9.27l-3.02,3.06.18.18,4.36-3.46-4.36-3.46-.18.18,3.02,3.06h-9.27v.43ZM321.9,43.76h6.95v-.32c-2.77,0-2.77-.18-2.77-.9v-10.51h-.36c-1.15.65-2.14,1.13-3.98,1.13v.36c1.53,0,2.27-.16,2.93-.52v9.54c0,.72,0,.9-2.77.9v.32ZM313.1,42.43l3.94-8.53c.47,1.06.68,2.52.68,4.1,0,3.08-.83,5.72-2.74,5.72-.83,0-1.44-.49-1.89-1.3M312.25,38c0-3.08.83-5.72,2.74-5.72.79,0,1.4.47,1.84,1.22l-3.92,8.5c-.45-1.04-.65-2.47-.65-4M314.99,43.98c2.23,0,4.14-2.38,4.14-5.98s-1.91-5.98-4.14-5.98-4.14,2.38-4.14,5.98,1.91,5.98,4.14,5.98M306.49,43.98c1.66,0,2.84-.7,2.84-2.23,0-3.08-4.81-2.03-4.81-4.23,0-.86.76-1.24,1.71-1.24,1.94,0,1.33,1.58,2.29,1.58.41,0,.59-.29.59-.59,0-.83-1.37-1.28-2.68-1.28-1.6,0-2.77.67-2.77,2.05,0,2.79,4.81,1.84,4.81,4.21,0,.95-.77,1.44-1.82,1.44-2.07,0-1.55-1.93-2.59-1.93-.32,0-.7.18-.7.65,0,.95,1.58,1.57,3.13,1.57M298.05,43.98c1.8,0,4.07-1.01,4.07-3.44,0-4.34-6.79-2.61-6.79-5.98,0-1.42.94-2.29,2.68-2.29s2.57.85,3.01,2.54h.43l-.2-1.87c-1.04-.63-2.02-.92-3.17-.92-2.2,0-3.73,1.06-3.73,2.95,0,4.09,6.79,2.38,6.79,6.01,0,1.98-1.51,2.74-3.11,2.74-1.85,0-2.88-1.03-3.35-2.86h-.45l.2,1.89c.95.86,2.56,1.22,3.62,1.22"/>
      <path class="cls-6" d="M364.26,23.04c.13-1.71.81-2.81,2.27-2.81,1.12,0,1.96.65,1.96,2.56l-.47.25h-3.76ZM366.63,27.98c1.31,0,2.21-.56,2.92-1.58l-.2-.14c-.59.85-1.39,1.15-2.39,1.15-1.24,0-2.74-.47-2.74-3.64,0-.18,0-.34.02-.5h5.62c0-2.03-1.39-3.28-3.22-3.28-2.29,0-3.78,1.89-3.78,4.16s1.62,3.83,3.78,3.83M355.72,26.28v-4.84c.38-.52,1.15-1.06,2.18-1.06,1.58,0,2.43,1.35,2.43,3.55,0,2.7-1.28,3.65-2.54,3.65-1.01,0-1.69-.63-2.07-1.3M353.17,31.54h4.1v-.29c-1.55,0-1.55-.18-1.55-.83v-3.71c.4.65,1.19,1.26,2.36,1.26,2,0,3.62-1.73,3.62-4.14s-1.53-3.85-3.46-3.85c-1.08,0-2.02.49-2.52,1.21v-.99h-2.56v.29c1.19,0,1.19.18,1.19.83v9.11c0,.65,0,.83-1.19.83v.29ZM345.95,31.76c.9,0,1.46-.43,2-1.8l3.42-8.64c.23-.59.34-.83,1.31-.83v-.29h-2.88v.29c1.49,0,1.44.14,1.17.83l-2.09,5.26-1.98-5.26c-.27-.74-.2-.83.9-.83v-.29h-3.71v.29c1.12,0,1.21.18,1.48.83l2.74,6.68-.72,1.75c-.22,1.39-.68,1.62-1.06,1.62s-.52-.23-.65-.68c-.14-.52-.38-.74-.76-.74s-.65.25-.65.68c0,.72.63,1.13,1.48,1.13M341.76,27.98c.83,0,1.17-.4,1.49-.97l-.18-.11c-.27.5-.59.7-.99.7-.67,0-.77-.58-.77-1.6v-5.44l2.16-.18v-.18h-2.16v-1.84h-.18l-1.19,1.01v.83h-1.33v.36h1.33v5.33c0,1.4.68,2.09,1.82,2.09M324.66,27.76h3.74v-.29c-1.19,0-1.19-.18-1.19-.83v-4.27c.41-1.06,1.17-1.96,2.3-1.96,1.04,0,1.53.76,1.53,2.3v3.92c0,.65,0,.83-1.19.83v.29h3.74v-.29c-1.19,0-1.19-.18-1.19-.83v-4.05c0-1.6-.9-2.61-2.43-2.61-1.3,0-2.12.65-2.77,1.85v-1.64h-2.56v.29c1.19,0,1.19.18,1.19.83v5.33c0,.65,0,.83-1.19.83v.29ZM318.18,23.04c.13-1.71.81-2.81,2.27-2.81,1.12,0,1.96.65,1.96,2.56l-.47.25h-3.76ZM320.55,27.98c1.31,0,2.21-.56,2.92-1.58l-.2-.14c-.59.85-1.39,1.15-2.39,1.15-1.24,0-2.74-.47-2.74-3.64,0-.18,0-.34.02-.5h5.62c0-2.03-1.39-3.28-3.22-3.28-2.29,0-3.78,1.89-3.78,4.16s1.62,3.83,3.78,3.83M309.64,26.28v-4.84c.38-.52,1.15-1.06,2.18-1.06,1.58,0,2.43,1.35,2.43,3.55,0,2.7-1.28,3.65-2.54,3.65-1.01,0-1.69-.63-2.07-1.3M307.09,31.54h4.1v-.29c-1.55,0-1.55-.18-1.55-.83v-3.71c.4.65,1.19,1.26,2.36,1.26,2,0,3.62-1.73,3.62-4.14s-1.53-3.85-3.46-3.85c-1.08,0-2.02.49-2.52,1.21v-.99h-2.56v.29c1.19,0,1.19.18,1.19.83v9.11c0,.65,0,.83-1.19.83v.29ZM295.55,21.95c0-3.85,1.87-5.6,4.45-5.6,2.88,0,4.45,2.16,4.45,5.71,0,3.85-1.87,5.6-4.45,5.6-2.88,0-4.45-2.16-4.45-5.71M299.94,27.98c3.01,0,5.99-2.32,5.99-6.03s-2.92-5.92-5.89-5.92-5.99,2.32-5.99,6.03,2.92,5.92,5.89,5.92"/>
      <path class="cls-6" d="M487.83,270h67.27v-5.17c-21.35,0-21.35-3.23-21.35-14.88v-78.27c5.17-16.82,9.7-29.76,23.61-29.76,18.11,0,10.67,22.64,27.82,22.64,7.44,0,12.61-4.53,12.61-13.58,0-11.64-9.06-20.7-26.2-20.7-21.02,0-31.7,12.94-37.84,29.76v-25.87h-45.93v5.18c21.35,0,21.35,3.23,21.35,14.88v95.73c0,11.64,0,14.88-21.35,14.88v5.17ZM360.4,238.3c0-24.58,13.91-36.87,58.86-37.52v44.63c-7.76,15.2-21.02,20.7-34.28,20.7-15.52,0-24.58-8.73-24.58-27.82M446.43,273.88c13.91,0,19.08-6.79,23.93-14.88l-3.23-2.26c-3.88,6.47-8.09,10.35-13.91,10.35-7.44,0-9.38-6.47-9.38-20.7v-75.36c0-26.84-19.73-40.75-47.87-40.75s-52.07,13.91-52.07,34.28c0,9.7,4.53,15.2,12.94,15.2s12.94-6.79,12.94-15.85c0-19.08,4.53-28.46,23.29-28.46,26.2,0,26.2,18.11,26.2,38.81v20.7c-45.6.65-83.44,11.97-83.44,43.66,0,23.93,21.35,35.25,44.31,35.25s32.99-10.35,39.13-22.32c1.29,15.52,13.26,22.32,27.17,22.32M159.87,84.35l77.62,189.53h8.41l79.24-189.53c4.85-11.64,6.79-15.53,24.58-15.53v-5.82h-51.75v5.82c25.87,0,24.9,3.88,20.05,15.53l-67.92,163.98-64.04-163.98c-4.53-11.64-5.82-15.53,22.96-15.53v-5.82h-77.95v5.82c22.32,0,23.93,3.56,28.79,15.53"/>
      <path class="cls-6" d="M487.83,670h67.27v-5.18c-21.35,0-21.35-3.23-21.35-14.88v-78.27c5.17-16.82,9.7-29.75,23.61-29.75,18.11,0,10.67,22.64,27.82,22.64,7.44,0,12.61-4.53,12.61-13.58,0-11.64-9.06-20.7-26.2-20.7-21.02,0-31.7,12.94-37.84,29.76v-25.87h-45.93v5.17c21.35,0,21.35,3.23,21.35,14.88v95.73c0,11.64,0,14.88-21.35,14.88v5.18ZM345.85,602.73c0-48.19,19.73-65.33,43.34-65.33,13.58,0,24.9,5.82,30.08,13.58v90.56c-6.14,12.61-18.11,25.23-35.58,25.23-23.93,0-37.84-23.93-37.84-64.04M376.9,673.88c19.08,0,34.28-10.67,42.37-26.52v1.94c0,17.14,12.61,24.58,27.17,24.58s19.08-6.79,23.93-14.88l-3.23-2.26c-3.88,5.5-7.11,10.35-13.58,10.35-7.76,0-9.7-6.79-9.7-20.7v-112.23h-5.82l-18.43,9.06c-4.85-6.79-18.76-12.94-35.25-12.94-37.52,0-63.07,31.05-63.07,74.06s25.87,69.54,55.63,69.54M145.97,484.35l77.62,189.53h8.41l79.24-189.53c4.85-11.64,6.79-15.52,24.58-15.52v-5.82h-51.75v5.82c25.87,0,24.9,3.88,20.05,15.52l-67.92,163.98-64.04-163.98c-4.53-11.64-5.82-15.52,22.96-15.52v-5.82h-77.95v5.82c22.32,0,23.93,3.56,28.79,15.52"/>
      <path class="cls-6" d="M359.42,449.88c15.52,0,24.58-9.7,32.34-21.02l-2.91-1.94c-7.44,10.35-14.55,15.2-21.02,15.2-11,0-8.61-11.61-5.18-27.81l20.7-97.68,33.64-3.23.65-3.23h-32.99l7.11-32.99h-3.23l-25.23,18.11-3.23,14.88h-23.93l-1.29,6.47h23.93l-19.73,92.5c-5.79,27.17,2.26,40.75,20.38,40.75h0ZM204.97,449.88c19.92,0,38.78-13,50.33-32.51-6.21,21.92,2.02,32.51,19.2,32.51,13.26,0,21.02-6.47,31.05-21.99l-2.59-2.26c-7.11,9.7-11.32,15.2-18.43,15.2-9.06,0-7.02-8.71-5.18-17.46l23.93-113.2h-24.58l-20.7,96.7c-10.35,17.79-24.9,35.25-43.02,35.25s-23.34-16.58-17.79-41.39l14.55-65.01c4.18-18.69-.97-29.43-18.11-29.43-11.64,0-19.73,5.17-27.81,20.38l3.23,1.62c6.47-10.67,10.03-13.58,14.55-13.58,7.44,0,6.4,8.46,4.21,18.11l-15.2,66.95c-6.95,30.62,7.76,50.13,32.34,50.13h0ZM71.4,449.88c21.99,0,42.37-11.32,60.48-35.58l-3.56-2.91c-14.88,17.79-31.37,25.55-48.19,25.55-36.01,0-33.05-41.92-28.19-64.78,6.69-31.51,23.85-60.7,53.41-60.7,14.56,0,16.5,7.11,16.5,20.05,0,8.41,3.56,13.58,11.32,13.58,9.06,0,14.55-6.47,14.55-15.2,0-15.85-18.43-23.61-38.81-23.61-40.95,0-73.55,27.61-82.39,69.19-6.89,32.41.92,74.4,44.88,74.4h0Z"/>
      <path class="cls-6" d="M359.42,849.88c15.52,0,24.58-9.7,32.34-21.02l-2.91-1.94c-7.44,10.35-14.55,15.2-21.02,15.2-11,0-8.61-11.61-5.18-27.81l20.7-97.67,33.64-3.23.65-3.23h-32.99l7.11-32.99h-3.23l-25.23,18.11-3.23,14.88h-23.93l-1.29,6.47h23.93l-19.73,92.5c-5.79,27.17,2.26,40.75,20.38,40.75h0ZM204.97,849.88c19.92,0,38.78-13,50.33-32.51-6.21,21.92,2.02,32.51,19.2,32.51,13.26,0,21.02-6.47,31.05-21.99l-2.59-2.26c-7.11,9.7-11.32,15.2-18.43,15.2-9.06,0-7.02-8.71-5.18-17.46l23.93-113.2h-24.58l-20.7,96.7c-10.35,17.79-24.9,35.25-43.02,35.25s-23.34-16.58-17.79-41.4l14.55-65.01c4.18-18.69-.97-29.43-18.11-29.43-11.64,0-19.73,5.17-27.81,20.38l3.23,1.62c6.47-10.67,10.03-13.58,14.55-13.58,7.44,0,6.4,8.46,4.21,18.11l-15.2,66.95c-6.95,30.62,7.76,50.13,32.34,50.13h0ZM71.4,849.88c21.99,0,42.37-11.32,60.48-35.58l-3.56-2.91c-14.88,17.79-31.37,25.55-48.19,25.55-36.01,0-33.05-41.92-28.19-64.78,6.69-31.51,23.85-60.7,53.41-60.7,14.56,0,16.5,7.12,16.5,20.05,0,8.41,3.56,13.58,11.32,13.58,9.06,0,14.55-6.47,14.55-15.2,0-15.85-18.43-23.61-38.81-23.61-40.95,0-73.55,27.61-82.39,69.19-6.89,32.41.92,74.4,44.88,74.4h0Z"/>
      <path class="cls-3" d="M527.36,487.36c37.82-10.84,66.68-42.88,72.9-82.43"/>
      <path class="cls-3" d="M597.55,360.64c-10.84-37.82-42.88-66.68-82.43-72.89"/>
      <path class="cls-3" d="M470.84,290.45c-37.82,10.84-66.68,42.88-72.89,82.43"/>
      <path class="cls-3" d="M400.64,417.16c10.84,37.82,42.88,66.68,82.43,72.89"/>
      <path class="cls-5" d="M495.56,491.25c1.18.04,2.36.06,3.54.06s2.37-.02,3.54-.06M396.76,385.36c-.04,1.18-.06,2.36-.06,3.54s.02,2.37.06,3.54M502.64,286.56c-1.18-.04-2.36-.06-3.54-.06s-2.37.02-3.54.06M601.45,392.44c.04-1.18.06-2.36.06-3.54s-.02-2.37-.06-3.54"/>
      <path class="cls-6" d="M586.64,30.73h15.36c0-9.35-7.05-16.73-16.98-16.73v15.07h-15.02c0,9.15,7.14,16.93,16.64,16.93v-15.27Z"/>
      <path class="cls-4" d="M508.37,845.1c50.18-4.5,89.94-45.21,92.95-95.81"/>
      <path class="cls-4" d="M601.09,733.84c-4.5-50.18-45.21-89.94-95.81-92.95"/>
      <path class="cls-4" d="M489.83,641.11c-50.18,4.5-89.94,45.21-92.95,95.81"/>
      <path class="cls-4" d="M397.11,752.37c4.5,50.18,45.21,89.94,95.81,92.95"/>
      <path class="cls-5" d="M496.01,845.46c1.03.03,2.06.05,3.09.05s2.07-.01,3.09-.05M396.74,740.01c-.03,1.03-.05,2.06-.05,3.09s.02,2.07.05,3.09M502.19,640.75c-1.03-.03-2.06-.05-3.09-.05s-2.07.02-3.09.05M601.46,746.2c.03-1.03.05-2.06.05-3.09s-.02-2.07-.05-3.09"/>
    </g>
  </g>
</svg>