<?xml version="1.0" encoding="UTF-8"?>
<svg id="Calque_1" data-name="Calque 1" xmlns="http://www.w3.org/2000/svg" xmlns:xlink="http://www.w3.org/1999/xlink" viewBox="0 0 616 423">
  <defs>
    <style>
      .cls-1 {
        clip-path: url(#clippath);
      }

      .cls-2, .cls-3, .cls-4, .cls-5 {
        fill: none;
      }

      .cls-2, .cls-6 {
        stroke-width: 0px;
      }

      .cls-7 {
        clip-path: url(#clippath-1);
      }

      .cls-8 {
        clip-path: url(#clippath-2);
      }

      .cls-3, .cls-4, .cls-5 {
        stroke: #000;
      }

      .cls-3, .cls-5 {
        stroke-miterlimit: 1;
      }

      .cls-5 {
        stroke-dasharray: 0 0 5.98 11.98;
      }
    </style>
    <clipPath id="clippath">
      <rect class="cls-2" width="616" height="423"/>
    </clipPath>
    <clipPath id="clippath-1">
      <rect class="cls-2" width="616" height="423"/>
    </clipPath>
    <clipPath id="clippath-2">
      <rect class="cls-2" width="616" height="423"/>
    </clipPath>
  </defs>
  <g class="cls-1">
    <g class="cls-7">
      <path class="cls-6" d="M527.29,86c0,19.4,14.7,33.1,33.1,33.1s33.1-13.7,33.1-33.1-14.8-33.1-33.1-33.1-33.1,13.8-33.1,33.1M551.99,100.9v-1.6c4.5,0,4.5-2.5,4.5-4.6v-18.3c-2.1,0-3.9-.7-5.4-1.6v-.7c4.7.7,8.6-1.2,12.4-4h1.8v24.6c0,2.1,0,4.6,4.4,4.6v1.6h-17.7Z"/>
      <path class="cls-6" d="M550.69,341.9c1.2-4.2,3.5-7.8,9.1-7.8s9.8,3.1,9.8,8.5c0,7.1-6.2,12.5-12.4,16.3h8.4c1.9,0,2.8,0,2.8-5.1h1.7v11.1h-19.2v-3.4c8.6-7.4,9.4-11.5,9.4-17.9,0-4-1.5-5.5-4.1-5.5-2.3,0-3.8,1.6-4.6,3.8h-.9ZM529.39,350c0-18.1,13.8-31,31-31s31,12.9,31,31-13.8,31-31,31-31-12.8-31-31M560.39,383.1c18.3,0,33.1-13.7,33.1-33.1s-14.8-33.1-33.1-33.1-33.1,13.8-33.1,33.1,14.7,33.1,33.1,33.1"/>
      <path class="cls-6" d="M460.08,163.74c5.95,0,13.09-1.53,17.68-17l23.8-78.88c1.87-6.29,3.4-9.86,9.86-9.86v-3.4h-19.04v3.4c8.33,0,6.97,3.4,5.1,9.86l-8.16,28.22-6.97-28.56c-2.04-8.16-2.38-9.52,4.08-9.52v-3.4h-44.54v3.4c7.48,0,9.35,1.53,12.07,9.52l22.78,65.62-3.57,11.9c-.34,7.14-2.38,11.22-5.1,11.22-3.06,0-3.57-4.93-3.57-11.39,0-7.82-3.4-11.73-9.86-11.73-5.78,0-11.22,2.89-11.22,12.41,0,8.33,4.08,18.19,16.66,18.19M397.86,103.73c0-10.03,1.7-14.62,8.84-14.79v22.78c-.85,2.21-2.72,3.4-4.59,3.4-3.06,0-4.25-2.89-4.25-11.39M427.1,128.04c16.32,0,23.46-9.18,24.99-12.24l-1.36-1.36c-1.36,2.38-3.91,3.91-6.8,3.91-3.74,0-5.61-2.04-5.61-10.37v-32.3c0-4.25,0-23.12-30.26-23.12-15.3,0-32.47,4.76-32.47,18.02,0,6.46,4.08,9.35,11.73,9.35,6.63,0,13.09-2.21,13.09-9.01,0-12.58.51-14.62,3.23-14.62,3.06,0,3.06,2.72,3.06,11.05v19.21c-18.53,0-38.76,4.76-38.76,22.61,0,13.43,11.05,18.87,20.57,18.87s16.49-4.93,18.36-11.39c1.02,4.93,6.97,11.39,20.23,11.39M315.07,126h50.66v-3.4c-9.52,0-9.52-1.7-9.52-7.82V17.2h-41.14v3.4c9.52,0,9.52,1.7,9.52,7.82v86.36c0,6.12,0,7.82-9.52,7.82v3.4ZM270.02,112.06v-43.35c.85-3.91,2.89-5.61,5.27-5.61,5.61,0,7.65,9.01,7.65,26.35,0,18.7-2.38,28.05-7.31,28.05-2.38,0-4.59-2.04-5.61-5.44M228.88,161.7h50.66v-3.4c-9.52,0-9.52-1.7-9.52-7.82v-35.36c1.36,4.25,5.1,12.92,17.34,12.92,16.66,0,27.2-16.32,27.2-39.27s-9.86-36.21-26.69-36.21c-10.88,0-16.32,5.95-17.85,13.09v-11.05h-41.14v3.4c9.52,0,9.52,1.7,9.52,7.82v84.66c0,6.12,0,7.82-9.52,7.82v3.4ZM193.52,128.04c23.97,0,34.34-9.52,34.34-24.31,0-28.9-39.44-23.63-39.44-40.46,0-3.57,1.87-6.97,7.48-6.97,13.77,0,.51,19.72,18.19,19.72,5.95,0,10.88-2.21,10.88-8.33,0-7.99-8.67-15.13-28.05-15.13-21.59,0-33.15,8.84-33.15,23.29,0,26.52,39.1,22.27,39.1,40.63,0,4.93-2.89,7.82-8.33,7.82-14.96,0-1.53-21.42-20.23-21.42-6.46,0-11.56,2.55-11.56,9.01,0,8.67,9.35,16.15,30.77,16.15M117.02,31.48c0,9.86,8.33,15.98,17,15.98s16.83-6.12,16.83-15.98c0-10.88-8.16-16.32-16.83-16.32s-17,5.44-17,16.32M108.86,126h50.66v-3.4c-9.52,0-9.52-1.7-9.52-7.82v-60.18h-41.14v3.4c9.52,0,9.52,1.7,9.52,7.82v48.96c0,6.12,0,7.82-9.52,7.82v3.4ZM60.92,116.14V20.94h1.7c7.48,0,10.71,18.02,10.71,50.66s-3.23,50.66-7.31,50.66h-2.38c-2.72,0-2.72-1.7-2.72-6.12M16.04,126h51.68c25.67,0,38.25-22.44,38.25-55.59,0-29.75-10.03-53.21-38.25-53.21H16.04v3.74c12.92,0,12.92,1.7,12.92,7.82v85.68c0,6.12,0,7.82-12.92,7.82v3.74Z"/>
      <path class="cls-6" d="M552.85,203.68c0-17,2.72-19.38,6.63-19.38,4.25,0,6.97,3.06,6.97,20.4s-2.55,21.25-6.46,21.25c-4.25,0-7.14-4.93-7.14-22.27M547.58,273.55c0-6.8,2.38-10.71,6.12-12.75h9.35c3.06,0,11.05,1.02,11.05,11.56,0,7.82-4.42,15.64-14.11,15.64-7.65,0-12.41-4.76-12.41-14.45M558.12,291.74c26.18,0,44.2-10.71,44.2-29.07,0-12.75-8.5-21.08-26.01-21.59l-18.7-.51c-4.59-.17-7.82-1.7-7.82-6.63,0-1.53.34-3.4,2.38-4.59,2.21.17,4.59.34,6.97.34,19.04,0,35.53-8.67,35.53-25.33,0-4.93-1.53-9.18-4.08-12.58l14.45,3.06v-12.24h-11.73l-12.75,1.7c-6.12-2.55-13.6-3.74-21.59-3.74-20.57,0-34.34,7.99-34.34,23.8,0,13.43,9.86,21.25,22.78,24.14-10.2,1.53-20.74,5.44-20.74,17.34,0,5.1,2.21,12.07,16.49,14.28-13.6,1.19-25.5,5.44-25.5,14.11,0,11.56,20.91,17.51,40.46,17.51M463.26,231.73c0-10.03,1.7-14.62,8.84-14.79v22.78c-.85,2.21-2.72,3.4-4.59,3.4-3.06,0-4.25-2.89-4.25-11.39M492.5,256.04c16.32,0,23.46-9.18,24.99-12.24l-1.36-1.36c-1.36,2.38-3.91,3.91-6.8,3.91-3.74,0-5.61-2.04-5.61-10.37v-32.3c0-4.25,0-23.12-30.26-23.12-15.3,0-32.47,4.76-32.47,18.02,0,6.46,4.08,9.35,11.73,9.35,6.63,0,13.09-2.21,13.09-9.01,0-12.58.51-14.62,3.23-14.62,3.06,0,3.06,2.72,3.06,11.05v19.21c-18.53,0-38.76,4.76-38.76,22.61,0,13.43,11.05,18.87,20.57,18.87s16.49-4.93,18.36-11.39c1.02,4.93,6.97,11.39,20.23,11.39M376.22,254h50.66v-3.4c-9.52,0-9.52-1.7-9.52-7.82v-97.58h-41.14v3.4c9.52,0,9.52,1.7,9.52,7.82v86.36c0,6.12,0,7.82-9.52,7.82v3.4ZM294.96,254h58.31v-3.74c-15.47,0-15.47-1.7-15.47-7.82v-40.8h1.02c8.67,0,17.34,5.95,17.34,20.74h3.57v-44.88h-3.57c0,14.11-8.67,20.06-17.34,20.06h-1.02v-48.28h3.74c11.39,0,27.03,13.6,27.03,31.28h3.57v-35.36h-77.18v3.74c12.92,0,12.92,1.7,12.92,7.82v85.68c0,6.12,0,7.82-12.92,7.82v3.74Z"/>
      <path class="cls-6" d="M402.98,409.36c1.5,0,2.88-1.05,2.88-2.88s-1.38-2.88-2.88-2.88-2.88,1.08-2.88,2.88,1.38,2.88,2.88,2.88M389.75,402.58c0-2.94.15-4.68,1.29-4.68.48,0,.75.3.99.96v7.65c-.24.69-.57.99-1.05.99-1.02,0-1.23-1.47-1.23-4.92M389.15,409.36c1.71,0,2.61-.78,2.88-2.31v1.95h7.26v-.6c-1.68,0-1.68-.3-1.68-1.38v-17.22h-7.26v.6c1.68,0,1.68.3,1.68,1.38v6.54c-.24-1.11-1.2-2.28-3.06-2.28-2.61,0-4.8,2.34-4.8,6.81s2.13,6.51,4.98,6.51M366.95,409h8.1v-.6c-.84,0-.84-.3-.84-1.38v-6.93c.24-1.29.66-1.77,1.23-1.77.69,0,.96.54.96,2.28v6.42c0,1.08,0,1.38-.84,1.38v.6h8.1v-.6c-1.68,0-1.68-.3-1.68-1.38v-6.33c0-2.82-1.11-4.65-3.93-4.65-2.13,0-3.39,1.08-3.84,2.43v-2.07h-7.26v.6c1.68,0,1.68.3,1.68,1.38v8.64c0,1.08,0,1.38-1.68,1.38v.6ZM358.43,402.22c0-4.02.36-5.52,1.14-5.52.96,0,1.38,2.34,1.38,6.69s-.39,5.31-1.11,5.31c-.99,0-1.41-2.1-1.41-6.48M359.69,409.36c4.26,0,6.84-2.34,6.84-6.57,0-4.5-2.88-6.75-6.84-6.75s-6.84,2.31-6.84,6.78c0,4.2,2.55,6.54,6.84,6.54M346.55,409.36c1.65,0,3-.36,4.56-1.41l.3-4.95h-1.02c-.54,2.19-1.17,5.64-3.03,5.64-1.35,0-2.37-1.8-2.37-9.24s1.02-9.24,2.37-9.24c1.86,0,2.49,3.45,3.03,5.64h1.02l-.3-4.95c-1.56-1.05-2.91-1.41-4.56-1.41-5.64,0-7.5,4.26-7.5,9.96s1.86,9.96,7.5,9.96M322.16,405.07c0-1.77.3-2.58,1.56-2.61v4.02c-.15.39-.48.6-.81.6-.54,0-.75-.51-.75-2.01M327.32,409.36c2.88,0,4.14-1.62,4.41-2.16l-.24-.24c-.24.42-.69.69-1.2.69-.66,0-.99-.36-.99-1.83v-5.7c0-.75,0-4.08-5.34-4.08-2.7,0-5.73.84-5.73,3.18,0,1.14.72,1.65,2.07,1.65,1.17,0,2.31-.39,2.31-1.59,0-2.22.09-2.58.57-2.58.54,0,.54.48.54,1.95v3.39c-3.27,0-6.84.84-6.84,3.99,0,2.37,1.95,3.33,3.63,3.33s2.91-.87,3.24-2.01c.18.87,1.23,2.01,3.57,2.01M303.92,409h9.45v-.6c-2.19,0-2.19-.3-2.19-1.38v-7.08c.24-1.08.57-1.74,1.26-1.74,1.32,0,.48,2.43,2.64,2.43,1.14,0,1.98-.66,1.98-2.13,0-1.74-1.2-2.46-2.67-2.46-2.04,0-2.82,1.38-3.21,2.7v-2.34h-7.26v.6c1.68,0,1.68.3,1.68,1.38v8.64c0,1.08,0,1.38-1.68,1.38v.6ZM299.09,409.36c2.1,0,3.42-.63,4.32-1.98l-.3-.24c-.42.57-.96.93-1.53.93-.81,0-1.05-.78-1.05-2.01v-8.76l2.7-.3v-.6h-2.7v-4.26h-.3l-5.28,2.88v1.38h-1.62v.9h1.62v8.58c0,2.82,2.01,3.48,4.14,3.48M286.76,409.36c2.73,0,4.98-1.2,4.98-5.4v-12.12c0-1.08,0-1.38,2.28-1.38v-.66h-4.98v.66c1.83,0,1.83.3,1.83,1.38v12.12c0,2.64-.72,3.78-2.34,3.78-1.29,0-2.16-.72-2.16-3.78v-12.12c0-1.08,0-1.38,1.83-1.38v-.66h-9.45v.66c2.28,0,2.28.3,2.28,1.38v12.12c0,4.53,3.42,5.4,5.73,5.4"/>
      <path class="cls-6" d="M467,409h8.43v-.6c-1.17,0-1.17-.3-1.17-1.38v-4.74h.63l1.5,4.14c.54,1.47.24,1.98-.54,1.98v.6h8.4v-.6c-1.56,0-1.95-.63-2.4-1.74l-2.94-7.26.63-.75c.93-1.08,1.86-1.65,3.72-1.65v-.6h-5.58v.6c1.14,0,1.86.75.6,2.07l-2.13,2.19h-1.89v-11.46h-7.26v.6c1.68,0,1.68.3,1.68,1.38v15.24c0,1.08,0,1.38-1.68,1.38v.6ZM461.33,409.36c2.22,0,4.08-.9,5.22-3.03l-.3-.24c-.96,1.17-1.65,1.47-2.49,1.47-2.16,0-2.58-1.95-2.58-6.06,0-3.27.27-4.8,1.02-4.8.42,0,.54.51.54,2.34,0,1.02.48,1.86,1.8,1.86s1.98-.78,1.98-1.86c0-1.35-1.11-3-4.32-3-3.81,0-6.6,2.31-6.6,6.9,0,4.11,2.25,6.42,5.73,6.42M445.49,405.07c0-1.77.3-2.58,1.56-2.61v4.02c-.15.39-.48.6-.81.6-.54,0-.75-.51-.75-2.01M450.65,409.36c2.88,0,4.14-1.62,4.41-2.16l-.24-.24c-.24.42-.69.69-1.2.69-.66,0-.99-.36-.99-1.83v-5.7c0-.75,0-4.08-5.34-4.08-2.7,0-5.73.84-5.73,3.18,0,1.14.72,1.65,2.07,1.65,1.17,0,2.31-.39,2.31-1.59,0-2.22.09-2.58.57-2.58.54,0,.54.48.54,1.95v3.39c-3.27,0-6.84.84-6.84,3.99,0,2.37,1.95,3.33,3.63,3.33s2.91-.87,3.24-2.01c.18.87,1.23,2.01,3.57,2.01M430.43,409h8.94v-.6c-1.68,0-1.68-.3-1.68-1.38v-17.22h-7.26v.6c1.68,0,1.68.3,1.68,1.38v15.24c0,1.08,0,1.38-1.68,1.38v.6ZM422.03,398.26v-7.5h.3c.78,0,1.29.75,1.29,3.93,0,2.31-.27,3.57-1.38,3.57h-.21ZM422.03,406.66v-7.56h.21c.96,0,2.16,1.2,2.16,4.8,0,2.88-.78,4.14-1.68,4.14h-.12c-.57,0-.57-.3-.57-1.38M414.11,409h10.26c4.11,0,5.79-2.67,5.79-5.19,0-3.21-2.7-4.74-5.01-5.1,1.86-.33,4.23-1.95,4.23-4.68,0-2.58-2.1-4.23-5.25-4.23h-10.02v.66c2.28,0,2.28.3,2.28,1.38v15.12c0,1.08,0,1.38-2.28,1.38v.66Z"/>
      <path class="cls-6" d="M461.01,354.12l13.94-35.19v9.35c0,36.89-1.02,51.68-7.14,51.68-4.42,0-6.12-7.65-6.8-25.84M460.67,328.28c0-36.89,1.02-53.04,7.14-53.04,4.42,0,6.29,8.67,6.8,28.05l-13.94,35.19v-10.2ZM467.81,384.04c19.38,0,39.1-17.34,39.1-56.44s-19.72-56.44-39.1-56.44-39.1,17.34-39.1,56.44,19.72,56.44,39.1,56.44M373.97,354.12l13.94-35.19v9.35c0,36.89-1.02,51.68-7.14,51.68-4.42,0-6.12-7.65-6.8-25.84M373.63,328.28c0-36.89,1.02-53.04,7.14-53.04,4.42,0,6.29,8.67,6.8,28.05l-13.94,35.19v-10.2ZM380.77,384.04c19.38,0,39.1-17.34,39.1-56.44s-19.72-56.44-39.1-56.44-39.1,17.34-39.1,56.44,19.72,56.44,39.1,56.44M289.14,303.97c0-20.06,2.04-28.73,5.61-28.73,3.91,0,5.95,10.03,5.95,28.9,0,20.23-2.38,27.37-5.95,27.37s-5.61-7.48-5.61-27.54M269.08,382l.68,2.04c36.38-8.16,61.71-31.28,61.71-67.66,0-26.01-12.92-45.22-36.89-45.22-17.34,0-37.4,10.2-37.4,38.59,0,16.83,6.97,32.64,23.63,32.64,9.01,0,15.98-4.59,18.53-11.73-.51,21.93-4.59,40.46-30.26,51.34"/>
      <path class="cls-6" d="M107.28,205.02c0-39,6.24-44.46,15.21-44.46,9.75,0,15.99,7.02,15.99,46.8s-5.85,48.75-14.82,48.75c-9.75,0-16.38-11.31-16.38-51.09M95.19,365.31c0-15.6,5.46-24.57,14.04-29.25h21.45c7.02,0,25.35,2.34,25.35,26.52,0,17.94-10.14,35.88-32.37,35.88-17.55,0-28.47-10.92-28.47-33.15M119.37,407.04c60.06,0,101.4-24.57,101.4-66.69,0-29.25-19.5-48.36-59.67-49.53l-42.9-1.17c-10.53-.39-17.94-3.9-17.94-15.21,0-3.51.78-7.8,5.46-10.53,5.07.39,10.53.78,15.99.78,43.68,0,81.51-19.89,81.51-58.11,0-11.31-3.51-21.06-9.36-28.86l33.15,7.02v-28.08h-26.91l-29.25,3.9c-14.04-5.85-31.2-8.58-49.53-8.58-47.19,0-78.78,18.33-78.78,54.6,0,30.81,22.62,48.75,52.26,55.38-23.4,3.51-47.58,12.48-47.58,39.78,0,11.7,5.07,27.69,37.83,32.76-31.2,2.73-58.5,12.48-58.5,32.37,0,26.52,47.97,40.17,92.82,40.17"/>
    </g>
    <line class="cls-4" x1="513.8" y1="46" x2="513.8" y2="409"/>
    <line class="cls-4" x1="249.2" y1="152.84" x2="249.2" y2="409"/>
    <polygon class="cls-6" points="249.2 392.3 263.9 409 234.5 409 249.2 392.3"/>
    <polygon class="cls-6" points="513.8 392.3 528.5 409 499.1 409 513.8 392.3"/>
    <g class="cls-8">
      <path class="cls-6" d="M232.04,38.17c1.81,0,3.22-1.15,3.22-2.55s-1.45-2.34-3.05-2.38c1.37-.2,2.57-1.12,2.57-2.41,0-1.22-1.05-1.96-2.49-1.96-1.69,0-2.32,1.01-2.6,1.96l.18.04c.35-.95,1.01-1.67,2.2-1.67,1.29,0,1.62.84,1.62,1.72,0,1.43-.9,2.07-2.14,2.39v.34c1.78.04,2.62.7,2.62,2.18s-.83,2.13-2.02,2.13c-.84,0-1.41-.32-1.64-.98-.18-.55-.32-.88-.7-.88-.34,0-.43.28-.43.49,0,.73,1.12,1.57,2.66,1.57M223.65,36.97l3.07-6.64c.36.83.53,1.96.53,3.19,0,2.39-.64,4.45-2.13,4.45-.64,0-1.12-.38-1.47-1.01M222.99,33.52c0-2.4.64-4.45,2.13-4.45.62,0,1.09.36,1.43.95l-3.05,6.61c-.35-.81-.5-1.92-.5-3.11M225.12,38.17c1.74,0,3.22-1.85,3.22-4.65s-1.48-4.65-3.22-4.65-3.22,1.85-3.22,4.65,1.48,4.65,3.22,4.65M210.63,38h2.91v-.22c-.92,0-.92-.14-.92-.64v-3.32c.32-.83.91-1.53,1.79-1.53.81,0,1.19.59,1.19,1.79v3.05c0,.5,0,.64-.93.64v.22h2.91v-.22c-.92,0-.92-.14-.92-.64v-3.15c0-1.25-.7-2.03-1.89-2.03-1.01,0-1.65.5-2.16,1.44v-1.27h-1.99v.22c.92,0,.92.14.92.64v4.15c0,.5,0,.64-.92.64v.22ZM205.11,36.63c0-1.07.6-1.6,2.55-1.62v1.93c-.34.66-.91.9-1.49.9-.67,0-1.07-.38-1.07-1.2M208.84,38.17c.6,0,.83-.29,1.04-.64l-.14-.1c-.17.28-.35.45-.6.45-.32,0-.41-.28-.41-.9v-3.26c0-1.16-.85-1.76-2.07-1.76s-2.25.6-2.25,1.48c0,.42.2.66.56.66s.56-.29.56-.69c0-.83.2-1.23,1.01-1.23,1.13,0,1.13.79,1.13,1.68v.9c-1.98.03-3.61.52-3.61,1.89,0,1.04.92,1.53,1.92,1.53s1.43-.45,1.7-.96c.06.67.57.96,1.17.96M200.38,38h2.91v-.22c-.92,0-.92-.14-.92-.64v-8.09h-1.99v.22c.92,0,.92.14.92.64v7.23c0,.5,0,.64-.92.64v.22ZM194.98,36.85v-3.77c.3-.41.9-.83,1.7-.83,1.23,0,1.89,1.05,1.89,2.76,0,2.1-.99,2.84-1.97,2.84-.78,0-1.32-.49-1.61-1.01M192.99,40.94h3.19v-.22c-1.21,0-1.21-.14-1.21-.64v-2.88c.31.5.93.98,1.84.98,1.55,0,2.81-1.34,2.81-3.22s-1.19-3-2.69-3c-.84,0-1.57.38-1.96.94v-.77h-1.99v.22c.92,0,.92.14.92.64v7.09c0,.51,0,.64-.92.64v.22ZM185.86,38h2.91v-.22c-.92,0-.92-.14-.92-.64v-2.41h.39l1.62,2.41c.39.57.15.64-.53.64v.22h2.97v-.22c-.66,0-.83-.1-1.12-.53l-1.81-2.72,1.58-1.79c.32-.36.78-.39,1.09-.39v-.22h-1.9v.22c.53,0,.84.06.6.34l-1.53,1.71h-1.37v-5.35h-1.99v.22c.92,0,.92.14.92.64v7.23c0,.51,0,.64-.92.64v.22ZM180.8,38h2.91v-.22c-.92,0-.92-.14-.92-.64v-3.39c.22-.73.42-1.29,1.02-1.29.78,0,.46.98,1.2.98.32,0,.55-.2.55-.59,0-.5-.39-.89-1.13-.89-.91,0-1.37.56-1.64,1.29v-1.12h-1.99v.22c.92,0,.92.14.92.64v4.15c0,.5,0,.64-.92.64v.22ZM175,34.96c0-1.98.85-2.73,1.95-2.73,1.18,0,2.03.87,2.03,2.84s-.85,2.82-1.95,2.82c-1.18,0-2.03-.95-2.03-2.93M176.99,38.17c1.53,0,3.05-1.09,3.05-3.11s-1.52-3.11-3.05-3.11-3.05,1.09-3.05,3.11,1.52,3.11,3.05,3.11M167.37,29.85l.22.66-2.11,6.17-2.09-6.83c-.13-.43-.11-.56.84-.56v-.25h-2.99v.25c.87,0,.92.11,1.06.56l2.62,8.32h.34l2.48-7.2,2.37,7.2h.34l2.62-8.32c.14-.43.18-.56,1.16-.56v-.25h-2.24v.25c.9,0,.91.13.77.56l-2.12,6.76-2.14-6.76c-.14-.43-.14-.56.7-.56v-.25h-2.9v.25c.87,0,.92.11,1.08.56"/>
      <path class="cls-6" d="M224.07,26.17c.64,0,.91-.31,1.16-.75l-.14-.08c-.21.39-.46.55-.77.55-.52,0-.6-.45-.6-1.25v-4.23l1.68-.14v-.14h-1.68v-1.43h-.14l-.92.78v.64h-1.04v.28h1.04v4.15c0,1.09.53,1.62,1.41,1.62M217.14,26.17c1.07,0,1.82-.6,2.16-1.5v1.33h1.99v-.22c-.92,0-.92-.14-.92-.64v-5.01h-1.99v.22c.92,0,.92.14.92.64v3.32c-.32.83-.81,1.53-1.72,1.53s-1.26-.62-1.26-1.93v-3.78h-1.99v.22c.92,0,.92.14.92.64v3.01c0,1.33.69,2.17,1.89,2.17M211.44,26.17c.88,0,1.64-.31,2.25-1.23l-.17-.13c-.52.71-1.15.91-1.76.91-1.2,0-2.1-.74-2.1-2.73,0-1.85.77-2.82,1.99-2.82.63,0,.71.31.83.88.06.31.24.57.6.57.28,0,.5-.17.5-.52,0-.7-.84-1.16-1.86-1.16-1.68,0-3.12,1.19-3.12,3.23,0,1.75,1.05,2.98,2.84,2.98M205.58,18.33c0,.43.35.73.74.73s.74-.29.74-.73c0-.48-.35-.74-.74-.74s-.74.25-.74.74M204.93,26h2.91v-.22c-.92,0-.92-.14-.92-.64v-5.01h-1.99v.22c.92,0,.92.14.92.64v4.15c0,.5,0,.64-.92.64v.22ZM201.4,26h2.91v-.22c-.92,0-.92-.14-.92-.64v-8.09h-1.99v.22c.92,0,.92.14.92.64v7.23c0,.5,0,.64-.92.64v.22ZM195.89,24.63c0-1.07.6-1.6,2.55-1.62v1.93c-.34.66-.91.9-1.48.9-.67,0-1.07-.38-1.07-1.21M199.61,26.17c.6,0,.83-.29,1.04-.64l-.14-.1c-.17.28-.35.45-.6.45-.32,0-.41-.28-.41-.9v-3.26c0-1.16-.85-1.76-2.07-1.76s-2.25.6-2.25,1.48c0,.42.2.66.56.66s.56-.29.56-.69c0-.83.2-1.23,1.01-1.23,1.13,0,1.13.79,1.13,1.68v.9c-1.98.03-3.61.52-3.61,1.89,0,1.04.92,1.52,1.92,1.52s1.43-.45,1.7-.96c.06.67.57.96,1.17.96M190.15,26.17c1.15,0,2.49-.32,3.33-.94l.17-1.48h-.34c-.35,1.32-1.53,2.17-3.16,2.17-2.14,0-3.72-1.44-3.72-4.26s1.62-4.54,3.77-4.54c1.47,0,2.76.78,3.12,2.17h.34l-.17-1.48c-.84-.62-2.2-.94-3.28-.94-2.84,0-4.94,2.17-4.94,4.8s2.11,4.49,4.88,4.49M174.02,26h4.11v-.25c-1.68,0-1.68-.14-1.68-.7v-3.4h1.81c.46,0,1.04.11,1.04,1.19h.22v-2.58h-.22c0,1.02-.57,1.15-1.04,1.15h-1.81v-4.15h3.04c.48,0,1.18,0,1.32,1.57h.19v-1.79h-6.98v.25c1.34,0,1.34.14,1.34.7v7.06c0,.56,0,.7-1.34.7v.25ZM161.45,26h2.97v-.25c-1.35,0-1.35-.14-1.35-.7v-7.37l3.85,8.32h.08l3.68-8.4v7.45c0,.56,0,.7-1.34.7v.25h3.78v-.25c-1.34,0-1.34-.14-1.34-.7v-7.06c0-.56,0-.7,1.34-.7v-.25h-2.49l-3.29,7.43-3.33-7.43h-2.56v.25c1.34,0,1.34.14,1.34.7v7.06c0,.56,0,.7-1.34.7v.25Z"/>
      <path class="cls-6" d="M432.8,37.48v.52h6v-2.24h-.22c0,.93-.17,1.29-.7,1.29h-4.02c2.51-1.83,4.76-3.6,4.76-5.69,0-1.65-1.43-2.49-2.88-2.49-1.62,0-2.42,1.05-2.79,2.31l.17.04c.29-1.08,1.08-2.02,2.48-2.02,1.5,0,1.93,1.06,1.93,2.24,0,2.37-1.61,3.71-4.73,6.04M426.26,36.97l3.07-6.64c.36.83.53,1.96.53,3.19,0,2.39-.64,4.45-2.13,4.45-.64,0-1.12-.38-1.47-1.01M425.6,33.52c0-2.39.65-4.45,2.13-4.45.62,0,1.09.36,1.43.95l-3.05,6.61c-.35-.81-.51-1.92-.51-3.11M427.73,38.17c1.74,0,3.22-1.85,3.22-4.65s-1.48-4.65-3.22-4.65-3.22,1.85-3.22,4.65,1.48,4.65,3.22,4.65M421.12,38.17c1.29,0,2.21-.54,2.21-1.73,0-2.39-3.74-1.58-3.74-3.29,0-.67.59-.97,1.33-.97,1.51,0,1.04,1.23,1.78,1.23.32,0,.46-.22.46-.46,0-.64-1.06-.99-2.09-.99-1.25,0-2.15.52-2.15,1.59,0,2.17,3.74,1.43,3.74,3.28,0,.74-.6,1.12-1.42,1.12-1.61,0-1.2-1.5-2.02-1.5-.25,0-.55.14-.55.5,0,.74,1.23,1.22,2.43,1.22M414.55,38.17c1.4,0,3.16-.78,3.16-2.67,0-3.37-5.28-2.03-5.28-4.65,0-1.11.73-1.78,2.09-1.78s2,.66,2.34,1.97h.34l-.15-1.46c-.81-.49-1.57-.71-2.46-.71-1.71,0-2.9.82-2.9,2.29,0,3.18,5.28,1.85,5.28,4.68,0,1.54-1.18,2.13-2.42,2.13-1.44,0-2.24-.8-2.6-2.23h-.35l.15,1.47c.74.67,1.99.95,2.81.95M399.11,33.48h7.21l-2.35,2.38.14.14,3.39-2.69-3.39-2.69-.14.14,2.35,2.38h-7.21v.33ZM389.05,38h5.4v-.25c-2.16,0-2.16-.14-2.16-.7v-8.18h-.28c-.89.5-1.66.88-3.09.88v.28c1.19,0,1.76-.12,2.28-.4v7.42c0,.56,0,.7-2.16.7v.25ZM382.2,36.97l3.07-6.64c.36.83.53,1.96.53,3.19,0,2.39-.65,4.45-2.13,4.45-.64,0-1.12-.38-1.47-1.01M381.54,33.52c0-2.39.64-4.45,2.13-4.45.62,0,1.09.36,1.43.95l-3.05,6.61c-.35-.81-.5-1.92-.5-3.11M383.67,38.17c1.74,0,3.22-1.85,3.22-4.65s-1.48-4.65-3.22-4.65-3.22,1.85-3.22,4.65,1.48,4.65,3.22,4.65M377.06,38.17c1.29,0,2.21-.54,2.21-1.73,0-2.39-3.74-1.58-3.74-3.29,0-.67.59-.97,1.33-.97,1.51,0,1.04,1.23,1.78,1.23.32,0,.46-.22.46-.46,0-.64-1.06-.99-2.09-.99-1.25,0-2.15.52-2.15,1.59,0,2.17,3.74,1.43,3.74,3.28,0,.74-.6,1.12-1.42,1.12-1.61,0-1.2-1.5-2.02-1.5-.25,0-.54.14-.54.5,0,.74,1.23,1.22,2.43,1.22M370.5,38.17c1.4,0,3.16-.78,3.16-2.67,0-3.37-5.28-2.03-5.28-4.65,0-1.11.73-1.78,2.09-1.78s2,.66,2.34,1.97h.33l-.15-1.46c-.81-.49-1.57-.71-2.46-.71-1.71,0-2.9.82-2.9,2.29,0,3.18,5.28,1.85,5.28,4.68,0,1.54-1.18,2.13-2.42,2.13-1.44,0-2.24-.8-2.6-2.23h-.35l.15,1.47c.74.67,1.99.95,2.81.95"/>
      <path class="cls-6" d="M421.99,22.33c.1-1.33.63-2.19,1.77-2.19.87,0,1.53.5,1.53,1.99l-.36.2h-2.93ZM423.84,26.17c1.02,0,1.72-.43,2.27-1.23l-.15-.11c-.46.66-1.08.9-1.86.9-.97,0-2.13-.36-2.13-2.83,0-.14,0-.27.01-.39h4.37c0-1.58-1.08-2.55-2.51-2.55-1.78,0-2.94,1.47-2.94,3.23s1.26,2.98,2.94,2.98M415.35,24.85v-3.77c.29-.41.9-.83,1.7-.83,1.23,0,1.89,1.05,1.89,2.76,0,2.1-.99,2.84-1.98,2.84-.78,0-1.32-.49-1.61-1.01M413.36,28.94h3.19v-.22c-1.2,0-1.2-.14-1.2-.64v-2.88c.31.5.92.98,1.83.98,1.55,0,2.81-1.34,2.81-3.22s-1.19-2.99-2.69-2.99c-.84,0-1.57.38-1.96.94v-.77h-1.99v.22c.92,0,.92.14.92.64v7.08c0,.51,0,.64-.92.64v.22ZM407.75,29.11c.7,0,1.13-.33,1.55-1.4l2.66-6.72c.18-.46.27-.64,1.02-.64v-.22h-2.24v.22c1.16,0,1.12.11.91.64l-1.62,4.09-1.54-4.09c-.21-.57-.15-.64.7-.64v-.22h-2.88v.22c.87,0,.94.14,1.15.64l2.13,5.2-.56,1.36c-.17,1.08-.53,1.26-.83,1.26s-.41-.18-.5-.53c-.11-.41-.29-.57-.59-.57s-.5.2-.5.53c0,.56.49.88,1.15.88M404.49,26.17c.64,0,.91-.31,1.16-.75l-.14-.08c-.21.39-.46.55-.77.55-.52,0-.6-.45-.6-1.25v-4.23l1.68-.14v-.14h-1.68v-1.43h-.14l-.92.78v.64h-1.04v.28h1.04v4.15c0,1.09.53,1.62,1.41,1.62M391.19,26h2.91v-.22c-.92,0-.92-.14-.92-.64v-3.32c.32-.83.91-1.53,1.79-1.53.81,0,1.19.59,1.19,1.79v3.05c0,.5,0,.64-.92.64v.22h2.91v-.22c-.92,0-.92-.14-.92-.64v-3.15c0-1.25-.7-2.03-1.89-2.03-1.01,0-1.65.5-2.16,1.44v-1.27h-1.99v.22c.92,0,.92.14.92.64v4.15c0,.5,0,.64-.92.64v.22ZM386.15,22.33c.1-1.33.63-2.19,1.77-2.19.87,0,1.53.5,1.53,1.99l-.36.2h-2.93ZM388,26.17c1.02,0,1.72-.43,2.27-1.23l-.15-.11c-.46.66-1.08.9-1.86.9-.97,0-2.13-.36-2.13-2.83,0-.14,0-.27.01-.39h4.37c0-1.58-1.08-2.55-2.51-2.55-1.78,0-2.94,1.47-2.94,3.23s1.26,2.98,2.94,2.98M379.51,24.85v-3.77c.29-.41.9-.83,1.69-.83,1.23,0,1.89,1.05,1.89,2.76,0,2.1-1,2.84-1.98,2.84-.79,0-1.32-.49-1.61-1.01M377.52,28.94h3.19v-.22c-1.2,0-1.2-.14-1.2-.64v-2.88c.31.5.92.98,1.83.98,1.55,0,2.81-1.34,2.81-3.22s-1.19-2.99-2.69-2.99c-.84,0-1.57.38-1.96.94v-.77h-1.99v.22c.92,0,.92.14.92.64v7.08c0,.51,0,.64-.92.64v.22ZM368.55,21.48c0-3,1.46-4.36,3.46-4.36,2.24,0,3.46,1.68,3.46,4.44,0,3-1.46,4.36-3.46,4.36-2.24,0-3.46-1.68-3.46-4.44M371.97,26.17c2.34,0,4.66-1.8,4.66-4.69s-2.27-4.61-4.58-4.61-4.66,1.8-4.66,4.69,2.27,4.61,4.58,4.61"/>
      <path class="cls-6" d="M302.29,38.17c1.29,0,2.21-.54,2.21-1.73,0-2.39-3.74-1.58-3.74-3.29,0-.67.59-.97,1.33-.97,1.51,0,1.04,1.23,1.78,1.23.32,0,.46-.22.46-.46,0-.64-1.06-.99-2.08-.99-1.25,0-2.15.52-2.15,1.59,0,2.17,3.74,1.43,3.74,3.28,0,.74-.6,1.12-1.41,1.12-1.61,0-1.21-1.5-2.02-1.5-.25,0-.54.14-.54.5,0,.74,1.23,1.22,2.43,1.22M294.6,34.33c.1-1.33.63-2.19,1.77-2.19.87,0,1.53.5,1.53,1.99l-.36.2h-2.93ZM296.45,38.17c1.02,0,1.72-.43,2.27-1.23l-.15-.11c-.46.66-1.08.9-1.86.9-.97,0-2.13-.36-2.13-2.83,0-.14,0-.27.01-.39h4.37c0-1.58-1.08-2.55-2.51-2.55-1.78,0-2.94,1.47-2.94,3.23s1.26,2.98,2.94,2.98M289.84,38h2.91v-.22c-.92,0-.92-.14-.92-.64v-8.09h-1.99v.22c.92,0,.92.14.92.64v7.23c0,.5,0,.64-.92.64v.22ZM284.51,41.11c.7,0,1.13-.33,1.55-1.4l2.66-6.72c.18-.46.27-.64,1.02-.64v-.22h-2.24v.22c1.16,0,1.12.11.91.64l-1.62,4.09-1.54-4.09c-.21-.57-.15-.64.7-.64v-.22h-2.88v.22c.87,0,.94.14,1.15.64l2.13,5.2-.56,1.36c-.17,1.08-.53,1.26-.83,1.26s-.41-.18-.5-.53c-.11-.41-.29-.57-.59-.57s-.5.2-.5.53c0,.56.49.88,1.15.88M281.25,38.17c.64,0,.91-.31,1.16-.75l-.14-.08c-.21.39-.46.55-.77.55-.52,0-.6-.45-.6-1.25v-4.23l1.68-.14v-.14h-1.68v-1.43h-.14l-.92.78v.64h-1.04v.28h1.04v4.15c0,1.09.53,1.62,1.41,1.62M276.04,38.17c1.29,0,2.21-.54,2.21-1.73,0-2.39-3.74-1.58-3.74-3.29,0-.67.59-.97,1.33-.97,1.51,0,1.04,1.23,1.78,1.23.32,0,.46-.22.46-.46,0-.64-1.06-.99-2.08-.99-1.25,0-2.15.52-2.15,1.59,0,2.17,3.74,1.43,3.74,3.28,0,.74-.6,1.12-1.41,1.12-1.61,0-1.21-1.5-2.02-1.5-.25,0-.54.14-.54.5,0,.74,1.23,1.22,2.43,1.22M259.8,36.97l3.07-6.64c.36.83.53,1.96.53,3.19,0,2.39-.64,4.45-2.13,4.45-.64,0-1.12-.38-1.47-1.01M259.14,33.52c0-2.39.64-4.45,2.13-4.45.62,0,1.09.36,1.43.95l-3.05,6.61c-.35-.81-.51-1.92-.51-3.11M261.27,38.17c1.74,0,3.22-1.85,3.22-4.65s-1.48-4.65-3.22-4.65-3.22,1.85-3.22,4.65,1.48,4.65,3.22,4.65M251.13,31.55c0-1.33.69-2.48,2.09-2.48,1.5,0,2.09,1.33,2.09,2.45,0,1.4-.88,2.55-2.2,2.55s-1.98-1.18-1.98-2.52M250.81,38v.17c3.14-.48,5.63-2.8,5.63-5.65,0-1.88-1.06-3.64-3.28-3.64-1.55,0-3.12.87-3.12,2.7,0,1.68,1.32,2.74,2.87,2.74,1.25,0,2.02-.67,2.44-1.69-.03,2.92-2.1,5.02-4.54,5.38"/>
      <path class="cls-6" d="M293.71,26.17c1.29,0,2.21-.54,2.21-1.73,0-2.39-3.74-1.58-3.74-3.29,0-.67.59-.97,1.33-.97,1.51,0,1.04,1.23,1.78,1.23.32,0,.46-.22.46-.46,0-.64-1.06-.99-2.09-.99-1.25,0-2.15.52-2.15,1.59,0,2.17,3.74,1.43,3.74,3.28,0,.74-.6,1.12-1.42,1.12-1.61,0-1.2-1.5-2.02-1.5-.25,0-.55.14-.55.5,0,.74,1.23,1.22,2.43,1.22M289.21,26.17c.64,0,.91-.31,1.16-.75l-.14-.08c-.21.39-.46.55-.77.55-.52,0-.6-.45-.6-1.25v-4.23l1.68-.14v-.14h-1.68v-1.43h-.14l-.92.78v.64h-1.04v.28h1.04v4.15c0,1.09.53,1.62,1.41,1.62M282.28,26.17c1.07,0,1.82-.6,2.16-1.5v1.33h1.99v-.22c-.92,0-.92-.14-.92-.64v-5.01h-1.99v.22c.92,0,.92.14.92.64v3.32c-.32.83-.81,1.53-1.72,1.53s-1.26-.62-1.26-1.93v-3.78h-1.99v.22c.92,0,.92.14.92.64v3.01c0,1.33.68,2.17,1.89,2.17M276.58,26.17c.88,0,1.64-.31,2.25-1.23l-.17-.13c-.52.71-1.15.91-1.76.91-1.2,0-2.1-.74-2.1-2.73,0-1.85.77-2.82,1.99-2.82.63,0,.71.31.83.88.06.31.24.57.6.57.28,0,.5-.17.5-.52,0-.7-.84-1.16-1.86-1.16-1.68,0-3.12,1.19-3.12,3.23,0,1.75,1.05,2.98,2.84,2.98M259.18,19.55c0-1.33.69-2.48,2.09-2.48,1.5,0,2.09,1.33,2.09,2.45,0,1.4-.88,2.55-2.2,2.55s-1.98-1.18-1.98-2.52M258.86,26v.17c3.14-.48,5.63-2.8,5.63-5.65,0-1.88-1.06-3.64-3.27-3.64-1.55,0-3.12.87-3.12,2.7,0,1.68,1.31,2.74,2.87,2.74,1.25,0,2.02-.67,2.44-1.69-.03,2.92-2.1,5.02-4.54,5.38M251.75,24.97l3.07-6.64c.36.83.53,1.96.53,3.19,0,2.39-.64,4.45-2.13,4.45-.64,0-1.12-.38-1.47-1.01M251.09,21.52c0-2.39.64-4.45,2.13-4.45.62,0,1.09.36,1.43.95l-3.05,6.61c-.35-.81-.5-1.92-.5-3.11M253.22,26.17c1.74,0,3.22-1.85,3.22-4.65s-1.48-4.65-3.22-4.65-3.22,1.85-3.22,4.65,1.48,4.65,3.22,4.65"/>
      <path class="cls-6" d="M571.55,38h2.91v-.22c-.92,0-.92-.14-.92-.64v-3.32c.32-.83.91-1.53,1.79-1.53.81,0,1.19.59,1.19,1.79v3.05c0,.5,0,.64-.92.64v.22h2.91v-.22c-.92,0-.92-.14-.92-.64v-3.15c0-1.25-.7-2.03-1.89-2.03-1.01,0-1.65.5-2.16,1.44v-4.35h-1.99v.22c.92,0,.92.14.92.64v7.23c0,.5,0,.64-.92.64v.22ZM569.56,38.17c.64,0,.91-.31,1.16-.75l-.14-.08c-.21.39-.46.55-.77.55-.52,0-.6-.45-.6-1.25v-4.23l1.68-.14v-.14h-1.68v-1.43h-.14l-.92.78v.64h-1.04v.28h1.04v4.15c0,1.09.53,1.62,1.41,1.62M560.92,35.1c0-2.1.98-2.84,2.02-2.84.73,0,1.26.38,1.57.98v3.81c-.31.41-.9.81-1.69.81-1.23,0-1.89-1.05-1.89-2.76M562.55,38.17c.83,0,1.57-.38,1.96-.92v.75h1.99v-.22c-.92,0-.92-.14-.92-.64v-8.09h-1.99v.22c.92,0,.92.14.92.64v2.99c-.29-.55-.9-.95-1.78-.95-1.64,0-2.87,1.34-2.87,3.22s1.19,2.99,2.69,2.99M556.7,30.33c0,.43.35.73.74.73s.74-.29.74-.73c0-.48-.35-.74-.74-.74s-.74.25-.74.74M556.05,38h2.91v-.22c-.92,0-.92-.14-.92-.64v-5.01h-1.99v.22c.92,0,.92.14.92.64v4.15c0,.5,0,.64-.92.64v.22ZM550.15,32.9v.03s-1.46,4.06-1.46,4.06l-1.4-4.09c-.17-.48-.2-.56.7-.56v-.22h-2.94v.22c.87,0,.98.13,1.15.56l1.94,5.26h.34l1.79-4.91,1.84,4.91h.35l1.95-5.26c.17-.45.29-.56,1.02-.56v-.22h-2.17v.22c1.08,0,1.09.06.91.56l-1.5,4.12-1.43-4.12c-.17-.48-.18-.56.56-.56v-.22h-2.52v.22c.61,0,.68.08.86.56M536.98,38.17c1.93,0,3.25-1.16,3.25-3.15s-1.37-2.72-2.85-2.72c-1.09,0-1.79.4-2.3.81l.48-3.04h4.18v-1.86h-.22c0,.83-.42.83-.81.83h-3.33l-.69,4.32.46.56c.42-.36,1.19-.67,2-.67,1.22,0,2.1.6,2.1,2.2,0,1.51-.81,2.48-2.1,2.48-.83,0-1.34-.39-1.68-.88-.35-.52-.35-.94-.78-.94-.32,0-.45.24-.45.52,0,.91,1.33,1.54,2.74,1.54M527.28,38h1.09l3.42-8.48v-.48h-5.42v2.08h.25c0-1.05.42-1.05.81-1.05h3.85l-4,7.92ZM514.72,29.33h-.36v6.21h5.3l-1.76,1.96.14.08,2.77-2.21-2.77-2.21-.14.08,1.76,1.96h-4.94v-5.88Z"/>
      <path class="cls-6" d="M590.78,26.17c.64,0,.91-.31,1.16-.75l-.14-.08c-.21.39-.46.55-.77.55-.52,0-.6-.45-.6-1.25v-4.23l1.68-.14v-.14h-1.68v-1.43h-.14l-.92.78v.64h-1.04v.28h1.04v4.15c0,1.09.53,1.62,1.41,1.62M581,26h2.91v-.22c-.92,0-.92-.14-.92-.64v-3.32c.32-.83.91-1.53,1.79-1.53.81,0,1.19.59,1.19,1.79v3.05c0,.5,0,.64-.92.64v.22h2.91v-.22c-.92,0-.92-.14-.92-.64v-3.15c0-1.25-.7-2.03-1.89-2.03-1.01,0-1.65.5-2.16,1.44v-4.35h-1.99v.22c.92,0,.92.14.92.64v7.23c0,.5,0,.64-.92.64v.22ZM575.48,21.91c0-1.26.66-1.76,1.43-1.76s1.46.57,1.46,1.85-.63,1.81-1.4,1.81c-.81,0-1.49-.62-1.49-1.89M574.95,27.5c0-.71.42-1.22,1.4-1.51.07.01.14.01.21.01l.9.03c.58.01,1.78.07,1.78,1.26,0,1.04-.91,1.62-2.33,1.62s-1.96-.57-1.96-1.41M576.76,29.11c1.64,0,3.4-.61,3.4-2.24,0-1.15-.92-1.64-2.48-1.71l-.91-.04c-.84-.04-1.39-.1-1.39-.52,0-.35.49-.55.95-.64.18.03.36.04.55.04,1.44,0,2.42-.96,2.42-2.08,0-.55-.24-1.02-.63-1.37h1.57l-.04-.42h-.69l-1.17.18c-.39-.22-.87-.35-1.41-.35-1.58,0-2.37,1.06-2.37,2.07,0,.86.55,1.55,1.43,1.83-.95.24-1.41.59-1.41,1.1s.43.87,1.39,1c-.93.15-2.07.67-2.07,1.6,0,1.09,1.47,1.55,2.87,1.55M571,18.33c0,.43.35.73.74.73s.74-.29.74-.73c0-.48-.35-.74-.74-.74s-.74.25-.74.74M570.36,26h2.91v-.22c-.92,0-.92-.14-.92-.64v-5.01h-1.99v.22c.92,0,.92.14.92.64v4.15c0,.5,0,.64-.92.64v.22ZM565.18,22.33c.1-1.33.63-2.19,1.77-2.19.87,0,1.53.5,1.53,1.99l-.36.2h-2.93ZM567.03,26.17c1.02,0,1.72-.43,2.27-1.23l-.15-.11c-.46.66-1.08.9-1.86.9-.97,0-2.13-.36-2.13-2.83,0-.14,0-.27.01-.39h4.37c0-1.58-1.08-2.55-2.51-2.55-1.78,0-2.94,1.47-2.94,3.23s1.26,2.98,2.94,2.98M558.34,20.9v.03s-1.45,4.06-1.45,4.06l-1.4-4.09c-.17-.48-.2-.56.7-.56v-.22h-2.94v.22c.87,0,.98.13,1.15.56l1.94,5.26h.34l1.79-4.91,1.84,4.91h.35l1.95-5.26c.17-.45.29-.56,1.02-.56v-.22h-2.17v.22c1.08,0,1.09.06.91.56l-1.5,4.12-1.43-4.12c-.17-.48-.18-.56.56-.56v-.22h-2.52v.22c.61,0,.68.08.86.56M543.94,24.96l3.07-6.64c.36.83.53,1.96.53,3.19,0,2.39-.64,4.45-2.13,4.45-.64,0-1.12-.38-1.47-1.01M543.28,21.52c0-2.39.64-4.45,2.13-4.45.62,0,1.09.36,1.43.95l-3.05,6.61c-.35-.81-.5-1.92-.5-3.11M545.41,26.17c1.74,0,3.22-1.85,3.22-4.65s-1.48-4.65-3.22-4.65-3.22,1.85-3.22,4.65,1.48,4.65,3.22,4.65M535.75,24.96l3.07-6.64c.36.83.53,1.96.53,3.19,0,2.39-.64,4.45-2.13,4.45-.65,0-1.12-.38-1.47-1.01M535.09,21.52c0-2.39.64-4.45,2.13-4.45.62,0,1.09.36,1.43.95l-3.05,6.61c-.35-.81-.5-1.92-.5-3.11M537.22,26.17c1.74,0,3.22-1.85,3.22-4.65s-1.48-4.65-3.22-4.65-3.22,1.85-3.22,4.65,1.48,4.65,3.22,4.65M526.95,19.55c0-1.33.69-2.48,2.09-2.48,1.5,0,2.09,1.33,2.09,2.45,0,1.4-.88,2.55-2.2,2.55s-1.97-1.18-1.97-2.52M526.62,26v.17c3.14-.48,5.63-2.8,5.63-5.65,0-1.88-1.06-3.64-3.28-3.64-1.55,0-3.12.87-3.12,2.7,0,1.68,1.32,2.74,2.87,2.74,1.25,0,2.02-.67,2.44-1.69-.03,2.92-2.1,5.02-4.54,5.38M514.72,17.33h-.36v6.21h5.3l-1.76,1.96.14.08,2.77-2.21-2.77-2.21-.14.08,1.76,1.96h-4.94v-5.88Z"/>
      <path class="cls-5" d="M264.62,380.43c46.85-6.81,83.48-45.18,87.6-92.86"/>
      <path class="cls-5" d="M351.53,263.68c-6.8-46.85-45.18-83.48-92.86-87.6"/>
      <path class="cls-5" d="M234.78,176.77c-46.85,6.8-83.48,45.18-87.6,92.86"/>
      <path class="cls-5" d="M147.87,293.52c6.8,46.85,45.18,83.48,92.86,87.6"/>
      <path class="cls-3" d="M246.71,381.46c.99.03,1.99.04,2.99.04s2-.01,2.99-.04M146.84,275.61c-.03.99-.04,1.99-.04,2.99s.01,2,.04,2.99M252.69,175.74c-.99-.03-1.99-.04-2.99-.04s-2,.01-2.99.04M352.56,281.59c.03-.99.04-1.99.04-2.99s-.01-2-.04-2.99"/>
    </g>
  </g>
</svg>