<?xml version="1.0" encoding="UTF-8"?>
<svg id="Calque_1" data-name="Calque 1" xmlns="http://www.w3.org/2000/svg" xmlns:xlink="http://www.w3.org/1999/xlink" viewBox="0 0 616 860">
  <defs>
    <style>
      .cls-1 {
        clip-path: url(#clippath);
      }

      .cls-2, .cls-3 {
        fill: none;
      }

      .cls-2, .cls-4, .cls-5 {
        stroke-width: 0px;
      }

      .cls-6 {
        clip-path: url(#clippath-1);
      }

      .cls-7 {
        clip-path: url(#clippath-3);
      }

      .cls-8 {
        clip-path: url(#clippath-2);
      }

      .cls-3 {
        stroke: #000;
        stroke-width: 3px;
      }

      .cls-5 {
        fill: #fff;
      }
    </style>
    <clipPath id="clippath">
      <rect class="cls-2" width="616" height="860"/>
    </clipPath>
    <clipPath id="clippath-1">
      <rect class="cls-2" width="616" height="860"/>
    </clipPath>
    <clipPath id="clippath-2">
      <rect class="cls-2" width="616" height="860"/>
    </clipPath>
    <clipPath id="clippath-3">
      <rect class="cls-2" width="616" height="860"/>
    </clipPath>
  </defs>
  <g class="cls-1">
    <rect class="cls-4" x="14" y="533.99" width="294" height="312.01"/>
    <g class="cls-6">
      <path class="cls-5" d="M176.54,709.61c6.9-30.59,28.29-48.53,59.57-48.53,35.88,0,52.9,22.08,52.9,46.69v1.84h-112.47ZM241.63,851.52c35.42,0,66.7-10.12,84.41-26.22l3.91-42.78h-6.9c-16.33,17.25-42.09,27.6-73.37,27.6-45.08,0-71.53-22.31-74.98-64.86h165.14v-14.72c0-73.6-43.01-109.02-103.27-109.02-65.78,0-114.77,43.24-114.77,113.16v4.37c0,71.76,46.92,112.47,119.83,112.47M52.57,846h52.21v-312.8h-52.21v312.8Z"/>
    </g>
    <polyline class="cls-5" points="600.5 846 600.5 223.5 324.2 223.5 324.2 846"/>
    <polyline class="cls-3" points="600.5 846 600.5 223.5 324.2 223.5 324.2 846"/>
    <polygon class="cls-4" points="376.01 751.72 370.05 759.67 552.19 754.09 546.23 746.13 376.01 751.72"/>
    <polygon class="cls-4" points="376.01 734.11 370.05 742.06 552.19 736.47 546.23 728.52 376.01 734.11"/>
    <polygon class="cls-4" points="376.01 716.49 370.05 724.44 552.19 718.86 546.23 710.9 376.01 716.49"/>
    <polygon class="cls-4" points="376.01 698.87 370.05 706.83 552.19 701.24 546.23 693.29 376.01 698.87"/>
    <polygon class="cls-4" points="376.01 681.26 370.05 689.21 552.19 683.62 546.23 675.67 376.01 681.26"/>
    <polygon class="cls-4" points="376.01 663.64 370.05 671.6 552.19 666.01 546.23 658.05 376.01 663.64"/>
    <polygon class="cls-4" points="376.01 646.03 370.05 653.98 552.19 648.39 546.23 640.44 376.01 646.03"/>
    <polygon class="cls-4" points="376.01 628.41 370.05 636.36 552.19 630.78 546.23 622.82 376.01 628.41"/>
    <polygon class="cls-4" points="376.01 610.79 370.05 618.75 552.19 613.16 546.23 605.21 376.01 610.79"/>
    <polygon class="cls-4" points="376.01 593.18 370.05 601.13 552.19 595.55 546.23 587.59 376.01 593.18"/>
    <polygon class="cls-4" points="376.01 575.56 370.05 583.52 552.19 577.93 546.23 569.98 376.01 575.56"/>
    <polygon class="cls-4" points="376.01 557.95 370.05 565.9 552.19 560.32 546.23 552.36 376.01 557.95"/>
    <polygon class="cls-4" points="376.01 540.33 370.05 548.29 552.19 542.7 546.23 534.74 376.01 540.33"/>
    <polygon class="cls-4" points="546.23 762.04 552.19 754.09 370.05 759.68 376.01 767.63 546.23 762.04"/>
    <polygon class="cls-4" points="546.23 744.42 552.19 736.47 370.05 742.06 376.01 750.01 546.23 744.42"/>
    <polygon class="cls-4" points="546.23 726.81 552.19 718.86 370.05 724.44 376.01 732.4 546.23 726.81"/>
    <polygon class="cls-4" points="546.23 709.19 552.19 701.24 370.05 706.83 376.01 714.78 546.23 709.19"/>
    <polygon class="cls-4" points="546.23 691.58 552.19 683.63 370.05 689.21 376.01 697.17 546.23 691.58"/>
    <polygon class="cls-4" points="546.23 673.96 552.19 666.01 370.05 671.6 376.01 679.55 546.23 673.96"/>
    <polygon class="cls-4" points="546.23 656.35 552.19 648.39 370.05 653.98 376.01 661.93 546.23 656.35"/>
    <polygon class="cls-4" points="546.23 638.73 552.19 630.78 370.05 636.37 376.01 644.32 546.23 638.73"/>
    <polygon class="cls-4" points="546.23 621.12 552.19 613.16 370.05 618.75 376.01 626.7 546.23 621.12"/>
    <polygon class="cls-4" points="546.23 603.5 552.19 595.55 370.05 601.14 376.01 609.09 546.23 603.5"/>
    <polygon class="cls-4" points="546.23 585.88 552.19 577.93 370.05 583.52 376.01 591.47 546.23 585.88"/>
    <polygon class="cls-4" points="546.23 568.27 552.19 560.31 370.05 565.9 376.01 573.86 546.23 568.27"/>
    <polygon class="cls-4" points="546.23 550.65 552.19 542.7 370.05 548.29 376.01 556.24 546.23 550.65"/>
    <g class="cls-8">
      <path class="cls-4" d="M357.69,779.87h52.63c3.08,0,5.59,2.5,5.59,5.59v54.96c0,3.08-2.5,5.59-5.59,5.59h-52.63c-3.08,0-5.59-2.5-5.59-5.59v-54.96c0-3.08,2.5-5.59,5.59-5.59Z"/>
      <path class="cls-4" d="M511.92,779.87h52.63c3.08,0,5.59,2.5,5.59,5.59v54.96c0,3.08-2.5,5.59-5.59,5.59h-52.63c-3.08,0-5.59-2.5-5.59-5.59v-54.96c0-3.08,2.5-5.59,5.59-5.59Z"/>
      <path class="cls-4" d="M425.42,779.87h71.4c3.08,0,5.59,2.5,5.59,5.59v54.96c0,3.08-2.5,5.59-5.59,5.59h-71.4c-3.08,0-5.59-2.5-5.59-5.59v-54.96c0-3.08,2.5-5.59,5.59-5.59Z"/>
      <path class="cls-4" d="M180.47,143.9v-4.32c0-32.54,19.57-45.63,41.72-45.63s41.71,13.09,41.71,45.63v4.32c0,32.53-19.57,45.63-41.71,45.63s-41.72-13.1-41.72-45.63M222.19,209.24c30.38,0,63.99-20.79,63.99-65.34v-4.32c0-44.55-33.61-65.34-63.99-65.34s-63.99,20.79-63.99,65.34v4.32c0,44.55,33.62,65.34,63.99,65.34M14.02,206h21.6v-87.48c10.26-15.8,21.6-24.57,40.64-24.57s27.94,9.59,27.94,30.78v81.27h21.6v-80.73c0-33.48-14.99-51.03-44.68-51.03-22.55,0-36.59,10.26-45.5,22.01v-18.77H14.02v128.52Z"/>
      <path class="cls-4" d="M465.03,206h106.92l3.91-18.36h-81l.27-1.35,96.93-88.02,4.46-20.79h-103.95l-3.91,18.36h77.49l-.27,1.35-96.39,87.75-4.45,21.06ZM347.72,139.31l.41-1.89c5.13-23.89,22-43.47,51.3-43.47,35.51,0,38.74,28.75,34.56,48.46l-.4,1.89c-5.54,25.52-23.49,45.22-51.84,45.22-33.48,0-38.88-27.27-34.02-50.22M380.79,209.24c39.29,0,67.1-26.73,74.65-61.83l.4-1.89c8.1-37.94-10.12-71.28-54.4-71.28-37.67,0-67.5,24.43-75.2,60.61l-.4,1.89c-8.77,41.04,12.55,72.49,54.95,72.49"/>
      <path class="cls-4" d="M194.88,295.9v-4.32c0-29.43,16.47-41.31,36.04-41.31s35.91,11.88,35.91,41.31v4.32c0,29.43-16.34,41.31-35.91,41.31s-36.04-11.88-36.04-41.31M230.92,361.24c33.35,0,67.1-19.3,67.1-65.34v-4.32c0-46.04-33.75-65.34-67.1-65.34s-67.23,19.3-67.23,65.34v4.32c0,46.03,33.75,65.34,67.23,65.34M13.98,358h30.64v-85.99c8.78-13.23,18.63-20.66,35.1-20.66s24.17,8.24,24.17,26.46v80.19h30.78v-80.46c0-34.02-14.98-51.3-45.63-51.3-21.19,0-35.24,8.51-44.42,20.25v-17.01H13.98v128.52Z"/>
      <path class="cls-4" d="M209.34,447.9v-4.32c0-26.33,13.23-36.86,30.24-36.86s30.24,10.53,30.24,36.86v4.32c0,26.33-13.23,36.86-30.24,36.86s-30.24-10.53-30.24-36.86M239.58,513.24c36.45,0,70.47-17.95,70.47-65.34v-4.32c0-47.39-34.02-65.34-70.47-65.34s-70.33,17.96-70.33,65.34v4.32c0,47.39,34.02,65.34,70.33,65.34M14,510h39.83v-84.51c7.02-10.66,15.66-16.88,29.56-16.88s20.39,7.15,20.39,22.14v79.24h39.69v-80.19c0-34.42-14.98-51.57-46.44-51.57-19.98,0-33.75,7.02-43.2,18.09v-14.85H14v128.52Z"/>
    </g>
    <polygon class="cls-4" points="358.74 510 568.62 510 568.62 473.96 409.62 473.96 409.62 471.31 563.32 298.53 563.32 257.72 359.27 257.72 359.27 293.76 511.38 293.76 511.38 296.41 358.74 468.66 358.74 510"/>
    <g class="cls-7">
      <path class="cls-4" d="M95.2,33.55v.26h2.18v9.63h1.31v-10.88h-2.94l-.54.99ZM88.11,41.92l3.82-7.03c.47.74.74,1.78.74,3.03v.22c0,2.6-1.16,4.25-3.02,4.25-.58,0-1.1-.16-1.53-.46M86.62,38.14v-.22c0-2.64,1.15-4.3,3.02-4.3.58,0,1.08.16,1.51.45l-3.82,7.03c-.46-.73-.72-1.74-.72-2.96M89.64,43.63c2.77,0,4.37-2.39,4.37-5.5v-.22c0-3.14-1.58-5.55-4.37-5.55s-4.37,2.42-4.37,5.55v.22c0,3.11,1.61,5.5,4.37,5.5M73.69,43.44h1.28v-5.18c.61-.94,1.28-1.46,2.41-1.46s1.66.57,1.66,1.82v4.82h1.28v-4.78c0-1.98-.89-3.02-2.65-3.02-1.34,0-2.17.61-2.7,1.3v-1.11h-1.28v7.62ZM66.41,41.49v-.06c0-.52.38-1.04,1.44-1.2l2.26-.34v.42c0,1.4-1.06,2.24-2.36,2.24-.85,0-1.34-.37-1.34-1.06M67.55,43.63c1.14,0,2-.44,2.54-1.18v.99h1.28v-5.02c0-2.08-1.27-2.78-2.86-2.78-1.28,0-2.23.45-2.73.91l-.16,1.33h.21c.71-.75,1.54-1.15,2.48-1.15s1.8.42,1.8,1.7v.41l-2.43.34c-1.76.25-2.55,1.13-2.55,2.31v.05c0,1.29.9,2.1,2.42,2.1M61.97,43.44h1.28v-10.88h-1.28v10.88ZM54.02,41.43v-3.58c.46-.53,1.21-1.05,2.31-1.05,1.41,0,2.31.85,2.31,2.77v.14c0,1.88-.87,2.78-2.3,2.78-.99,0-1.78-.42-2.32-1.06M56.45,43.63c2.04,0,3.52-1.52,3.52-3.92v-.14c0-2.51-1.46-3.94-3.5-3.94-1.14,0-1.94.44-2.44.87v-.68h-1.28v10.88h1.28v-3.98c.5.52,1.38.9,2.42.9M45.14,43.44h1.28v-3.64h.42l2.79,3.64h1.62l-3.38-4.22,3.06-3.39h-1.5l-2.5,2.81h-.53v-6.07h-1.28v10.88ZM39.75,43.44h1.28v-4.53c0-1.29.69-1.96,1.78-1.96h.98v-.13l-.32-1h-.56c-.81,0-1.51.32-1.87.99v-.99h-1.28v7.62ZM31.49,39.76v-.26c0-1.93,1.16-2.7,2.47-2.7s2.47.78,2.47,2.7v.26c0,1.93-1.16,2.7-2.47,2.7s-2.47-.78-2.47-2.7M33.96,43.63c1.8,0,3.79-1.23,3.79-3.87v-.26c0-2.64-1.99-3.87-3.79-3.87s-3.79,1.23-3.79,3.87v.26c0,2.64,1.99,3.87,3.79,3.87M17.29,43.44h2.26l2.26-9.79h.38l2.25,9.79h2.27l2.65-10.88h-1.34l-2.26,9.82h-.38l-2.19-9.82h-2.37l-2.19,9.82h-.38l-2.26-9.82h-1.34l2.65,10.88Z"/>
      <path class="cls-4" d="M80.19,22.75c.26-1.23,1.12-1.95,2.38-1.95,1.42,0,2.11.9,2.11,1.89v.06h-4.5ZM82.69,27.63c1.21,0,2.27-.38,2.84-.98l.1-1.26h-.14c-.55.66-1.51,1.07-2.65,1.07-1.7,0-2.66-.98-2.73-2.62h5.86v-.43c0-2.48-1.34-3.78-3.38-3.78-2.17,0-3.8,1.53-3.8,3.94v.11c0,2.51,1.57,3.95,3.9,3.95M75.51,27.44h1.28v-10.88h-1.28v10.88ZM67.33,27.44h6.34v-1.09h-4.8v-.08l4.64-5.22v-1.23h-6.16v1.09h4.59v.08l-4.61,5.2v1.25ZM59.64,27.44h6.34v-1.09h-4.8v-.08l4.64-5.22v-1.23h-6.16v1.09h4.59v.08l-4.61,5.2v1.25ZM52.07,23.76v-.26c0-1.93,1.16-2.7,2.47-2.7s2.47.78,2.47,2.7v.26c0,1.93-1.16,2.7-2.47,2.7s-2.47-.78-2.47-2.7M54.54,27.63c1.8,0,3.79-1.23,3.79-3.87v-.26c0-2.64-1.99-3.87-3.79-3.87s-3.79,1.23-3.79,3.87v.26c0,2.64,1.99,3.87,3.79,3.87M40.1,27.44h1.34v-8.93h.03l5.6,8.93h1.6v-10.88h-1.34v8.93h-.03l-5.6-8.93h-1.6v10.88ZM28.59,27.44h1.34v-4.8h5.18v-1.25h-5.18v-3.58h5.6v-1.25h-6.94v10.88ZM19.63,26.27h2.05l2.9-8.46h.13l-.05,3.04v6.59h1.38v-10.88h-2.4l-2.94,8.93h-.06l-2.94-8.93h-2.4v10.88h1.38v-6.59l-.05-3.04h.13l2.9,8.46Z"/>
      <path class="cls-4" d="M321.59,43.44h7.57v-1.21h-3.1v-9.67h-3.74l-.54.99v.26h2.98v8.42h-3.15v1.21ZM313.28,41.92l3.82-7.03c.47.74.74,1.78.74,3.03v.22c0,2.6-1.16,4.25-3.02,4.25-.58,0-1.1-.16-1.53-.46M311.78,38.14v-.22c0-2.64,1.15-4.3,3.02-4.3.58,0,1.08.16,1.51.45l-3.82,7.03c-.46-.73-.72-1.74-.72-2.96M314.8,43.63c2.77,0,4.37-2.39,4.37-5.5v-.22c0-3.14-1.58-5.55-4.37-5.55s-4.37,2.42-4.37,5.55v.22c0,3.11,1.61,5.5,4.37,5.5M305.94,43.63c1.86,0,3.02-.87,3.02-2.22v-.11c0-2.99-4.51-1.63-4.51-3.46v-.08c0-.49.33-1.06,1.6-1.06.87,0,1.66.28,2.21.99h.19l-.07-1.39c-.54-.4-1.3-.67-2.29-.67-1.98,0-2.92,1.02-2.92,2.19v.08c0,2.99,4.51,1.67,4.51,3.46v.1c0,.72-.66,1.08-1.7,1.08s-1.92-.36-2.73-1.23h-.19l.1,1.38c.47.56,1.54.94,2.78.94M297.84,43.63c2.06,0,3.7-1.06,3.7-3.03v-.1c0-4.16-5.98-2.1-5.98-5.06v-.06c0-1.35,1.22-1.76,2.36-1.76,1.4,0,2.36.62,3.01,1.71h.18l-.06-1.76c-.85-.88-1.95-1.2-3.1-1.2-2.21,0-3.72,1.14-3.72,3.1v.06c0,4.13,5.98,2.13,5.98,5.03v.1c0,1.23-1.14,1.73-2.38,1.73-1.45,0-2.66-.66-3.51-2.05h-.19l.04,1.67c.56.81,1.86,1.62,3.68,1.62"/>
      <path class="cls-4" d="M360.6,22.75c.26-1.23,1.12-1.95,2.38-1.95,1.42,0,2.11.9,2.11,1.89v.06h-4.5ZM363.1,27.63c1.21,0,2.27-.38,2.84-.98l.1-1.26h-.14c-.55.66-1.51,1.07-2.65,1.07-1.7,0-2.66-.98-2.73-2.62h5.86v-.43c0-2.48-1.34-3.78-3.38-3.78-2.17,0-3.8,1.53-3.8,3.94v.11c0,2.51,1.57,3.95,3.9,3.95M351.65,25.43v-3.58c.46-.53,1.21-1.05,2.31-1.05,1.41,0,2.31.85,2.31,2.77v.14c0,1.88-.87,2.78-2.3,2.78-.99,0-1.78-.42-2.32-1.06M354.08,27.63c2.04,0,3.52-1.52,3.52-3.92v-.14c0-2.51-1.46-3.94-3.5-3.94-1.14,0-1.94.44-2.44.87v-.68h-1.28v10.88h1.28v-3.98c.5.52,1.38.9,2.42.9M343.4,30.7h1.29l4.16-10.88h-1.3l-2.22,5.9h-.29l-2.15-5.9h-1.38l2.71,7.01h.73l-1.54,3.87ZM335.78,20.91h1.49v4.14c0,1.66.66,2.39,2.45,2.39h.93v-.09l-.11-1h-.85c-.85,0-1.14-.43-1.14-1.3v-4.14h2.11v-1.09h-2.11v-2h-1.28v2h-1.49v1.09ZM324.76,27.44h1.28v-5.18c.61-.94,1.28-1.46,2.41-1.46s1.66.57,1.66,1.82v4.82h1.28v-4.78c0-1.98-.89-3.02-2.65-3.02-1.34,0-2.17.61-2.7,1.3v-1.11h-1.28v7.62ZM316.98,22.75c.26-1.23,1.12-1.95,2.38-1.95,1.42,0,2.11.9,2.11,1.89v.06h-4.5ZM319.48,27.63c1.21,0,2.27-.38,2.84-.98l.1-1.26h-.14c-.55.66-1.51,1.07-2.65,1.07-1.7,0-2.66-.98-2.73-2.62h5.86v-.43c0-2.48-1.34-3.78-3.38-3.78-2.17,0-3.8,1.53-3.8,3.94v.11c0,2.51,1.57,3.95,3.9,3.95M308.04,25.43v-3.58c.46-.53,1.21-1.05,2.31-1.05,1.41,0,2.31.85,2.31,2.77v.14c0,1.88-.87,2.78-2.3,2.78-.99,0-1.78-.42-2.32-1.06M310.46,27.63c2.04,0,3.52-1.52,3.52-3.92v-.14c0-2.51-1.46-3.94-3.5-3.94-1.14,0-1.94.44-2.44.87v-.68h-1.28v10.88h1.28v-3.98c.5.52,1.38.9,2.42.9M295.52,22.16v-.32c0-2.8,1.83-4.22,3.9-4.22s3.9,1.42,3.9,4.22v.32c0,2.8-1.83,4.22-3.9,4.22s-3.9-1.42-3.9-4.22M299.43,27.63c3.09,0,5.28-2.26,5.28-5.47v-.32c0-3.22-2.19-5.47-5.28-5.47s-5.28,2.26-5.28,5.47v.32c0,3.22,2.19,5.47,5.28,5.47"/>
      <path class="cls-4" d="M211.76,43.63c1.86,0,3.02-.87,3.02-2.22v-.11c0-2.99-4.51-1.63-4.51-3.46v-.08c0-.49.33-1.06,1.6-1.06.87,0,1.66.28,2.21.99h.19l-.07-1.39c-.54-.4-1.3-.67-2.29-.67-1.98,0-2.92,1.02-2.92,2.19v.08c0,2.99,4.51,1.67,4.51,3.46v.1c0,.72-.66,1.08-1.7,1.08s-1.92-.36-2.73-1.23h-.19l.1,1.38c.47.56,1.54.94,2.78.94M201.58,38.75c.26-1.23,1.12-1.95,2.38-1.95,1.42,0,2.11.9,2.11,1.89v.06h-4.5ZM204.09,43.63c1.21,0,2.27-.38,2.84-.98l.1-1.26h-.14c-.55.66-1.51,1.07-2.65,1.07-1.7,0-2.66-.98-2.73-2.62h5.86v-.43c0-2.48-1.34-3.78-3.38-3.78-2.17,0-3.8,1.53-3.8,3.94v.11c0,2.51,1.57,3.95,3.9,3.95M196.9,43.44h1.28v-10.88h-1.28v10.88ZM189.93,46.7h1.29l4.16-10.88h-1.3l-2.22,5.9h-.29l-2.15-5.9h-1.38l2.71,7.01h.73l-1.54,3.87ZM182.31,36.91h1.49v4.14c0,1.66.66,2.39,2.45,2.39h.93v-.09l-.11-1h-.85c-.85,0-1.14-.43-1.14-1.3v-4.14h2.11v-1.09h-2.11v-2h-1.28v2h-1.49v1.09ZM178.25,43.63c1.86,0,3.02-.87,3.02-2.22v-.11c0-2.99-4.51-1.63-4.51-3.46v-.08c0-.49.33-1.06,1.6-1.06.87,0,1.66.28,2.21.99h.19l-.07-1.39c-.54-.4-1.3-.67-2.29-.67-1.98,0-2.92,1.02-2.92,2.19v.08c0,2.99,4.51,1.67,4.51,3.46v.1c0,.72-.66,1.08-1.7,1.08s-1.92-.36-2.73-1.23h-.19l.1,1.38c.47.56,1.54.94,2.78.94M160.37,41.92l3.82-7.03c.47.74.74,1.78.74,3.03v.22c0,2.6-1.16,4.25-3.02,4.25-.58,0-1.1-.16-1.53-.46M158.88,38.14v-.22c0-2.64,1.15-4.3,3.02-4.3.58,0,1.08.16,1.51.45l-3.82,7.03c-.46-.73-.72-1.74-.72-2.96M161.9,43.63c2.77,0,4.37-2.39,4.37-5.5v-.22c0-3.14-1.58-5.55-4.37-5.55s-4.37,2.42-4.37,5.55v.22c0,3.11,1.61,5.5,4.37,5.5M149.69,36.24v-.24c0-1.39,1.03-2.38,2.64-2.38s2.61.99,2.61,2.38v.22c0,1.34-1.03,2.29-2.64,2.29s-2.61-.95-2.61-2.27M152.33,32.37c-2.31,0-3.99,1.56-3.99,3.63v.24c0,2.1,1.51,3.52,3.69,3.52.98,0,1.68-.28,2.15-.66-.7,1.44-2.3,2.97-3.76,4.34h1.7c1.68-1.6,4.17-3.91,4.17-7.02v-.27c0-2.19-1.61-3.78-3.96-3.78"/>
      <path class="cls-4" d="M200.84,27.63c1.86,0,3.02-.87,3.02-2.22v-.11c0-2.99-4.51-1.63-4.51-3.46v-.08c0-.49.33-1.06,1.6-1.06.87,0,1.66.28,2.21.99h.19l-.07-1.39c-.54-.4-1.3-.67-2.29-.67-1.98,0-2.92,1.02-2.92,2.19v.08c0,2.99,4.51,1.67,4.51,3.46v.1c0,.72-.66,1.08-1.7,1.08s-1.92-.36-2.73-1.23h-.19l.1,1.38c.47.56,1.54.94,2.78.94M191.84,20.91h1.49v4.14c0,1.66.66,2.39,2.45,2.39h.93v-.09l-.11-1h-.85c-.85,0-1.14-.43-1.14-1.3v-4.14h2.11v-1.09h-2.11v-2h-1.28v2h-1.49v1.09ZM190.24,19.82h-1.28v5.18c-.61.94-1.28,1.46-2.41,1.46s-1.66-.57-1.66-1.82v-4.82h-1.28v4.78c0,1.98.89,3.02,2.65,3.02,1.34,0,2.17-.61,2.7-1.3v1.11h1.28v-7.62ZM179.21,27.63c1.14,0,2.02-.38,2.57-.83l.1-1.46h-.19c-.61.74-1.5,1.12-2.4,1.12-1.38,0-2.52-.92-2.52-2.71v-.24c0-1.79,1.14-2.71,2.52-2.71.9,0,1.79.38,2.4,1.12h.19l-.1-1.46c-.55-.47-1.44-.83-2.55-.83-2.22,0-3.78,1.42-3.78,3.88v.24c0,2.46,1.58,3.88,3.77,3.88M160.09,20.24v-.24c0-1.39,1.03-2.38,2.64-2.38s2.61.99,2.61,2.38v.22c0,1.34-1.03,2.29-2.64,2.29s-2.61-.95-2.61-2.27M162.73,16.37c-2.31,0-3.99,1.56-3.99,3.63v.24c0,2.1,1.51,3.52,3.69,3.52.98,0,1.68-.28,2.15-.66-.7,1.44-2.3,2.97-3.76,4.34h1.7c1.68-1.6,4.17-3.91,4.17-7.02v-.27c0-2.19-1.61-3.78-3.96-3.78M149.97,25.92l3.82-7.03c.47.74.74,1.78.74,3.03v.22c0,2.6-1.16,4.25-3.02,4.25-.58,0-1.1-.16-1.53-.46M148.48,22.14v-.22c0-2.64,1.15-4.3,3.02-4.3.58,0,1.08.16,1.51.45l-3.82,7.03c-.46-.73-.72-1.74-.72-2.96M151.5,27.63c2.77,0,4.37-2.39,4.37-5.5v-.22c0-3.14-1.58-5.55-4.37-5.55s-4.37,2.42-4.37,5.55v.22c0,3.11,1.61,5.5,4.37,5.5"/>
      <path class="cls-4" d="M493.75,43.44h1.28v-5.18c.61-.98,1.28-1.54,2.41-1.54s1.66.59,1.66,1.9v4.82h1.28v-4.78c0-1.98-.88-3.02-2.66-3.02-1.34,0-2.14.57-2.68,1.3v-4.38h-1.28v10.88ZM487.15,36.91h1.49v4.14c0,1.66.66,2.39,2.45,2.39h.93v-.09l-.11-1h-.85c-.85,0-1.14-.43-1.14-1.3v-4.14h2.11v-1.09h-2.11v-2h-1.28v2h-1.49v1.09ZM479.66,39.74v-.14c0-1.91.89-2.79,2.31-2.79,1.08,0,1.83.49,2.3.98v3.58c-.54.7-1.33,1.13-2.32,1.13-1.42,0-2.29-.88-2.29-2.76M481.84,43.63c1.05,0,1.93-.4,2.42-.96v.77h1.28v-10.88h-1.28v3.88c-.5-.4-1.31-.81-2.41-.81-2.05,0-3.48,1.45-3.48,3.96v.14c0,2.4,1.46,3.9,3.46,3.9M473.98,33.6c0,.58.48,1.06,1.06,1.06s1.06-.48,1.06-1.06-.48-1.06-1.06-1.06-1.06.48-1.06,1.06M472.94,43.44h4.22v-1.09h-1.47v-6.53h-2.64l-.14.96v.13h1.5v5.44h-1.47v1.09ZM462.29,43.44h2.22l1.49-6.53h.26l1.49,6.53h2.22l1.69-7.62h-1.33l-1.34,6.53h-.37l-1.48-6.53h-1.98l-1.5,6.53h-.37l-1.31-6.53h-1.36l1.69,7.62ZM450.37,41.92l3.82-7.03c.47.74.74,1.78.74,3.03v.22c0,2.6-1.16,4.25-3.02,4.25-.58,0-1.1-.16-1.53-.46M448.88,38.14v-.22c0-2.64,1.15-4.3,3.02-4.3.58,0,1.08.16,1.51.45l-3.82,7.03c-.46-.73-.72-1.74-.72-2.96M451.9,43.63c2.77,0,4.37-2.39,4.37-5.5v-.22c0-3.14-1.58-5.55-4.37-5.55s-4.37,2.42-4.37,5.55v.22c0,3.11,1.61,5.5,4.37,5.5M439.97,41.92l3.82-7.03c.47.74.74,1.78.74,3.03v.22c0,2.6-1.16,4.25-3.02,4.25-.58,0-1.1-.16-1.53-.46M438.48,38.14v-.22c0-2.64,1.15-4.3,3.02-4.3.58,0,1.08.16,1.51.45l-3.82,7.03c-.46-.73-.72-1.74-.72-2.96M441.5,43.63c2.77,0,4.37-2.39,4.37-5.5v-.22c0-3.14-1.58-5.55-4.37-5.55s-4.37,2.42-4.37,5.55v.22c0,3.11,1.61,5.5,4.37,5.5M427.48,43.44h7.57v-1.21h-3.1v-9.67h-3.74l-.54.99v.26h2.98v8.42h-3.15v1.21ZM413.52,32.48h-1.34v8.24h6.03l-1.79,1.78.93.94,3.39-3.4-3.39-3.39-.93.92,1.82,1.82h-4.72v-6.9Z"/>
      <path class="cls-4" d="M549.73,20.91h1.49v4.14c0,1.66.66,2.39,2.45,2.39h.93v-.09l-.11-1h-.85c-.85,0-1.14-.43-1.14-1.3v-4.14h2.11v-1.09h-2.11v-2h-1.28v2h-1.49v1.09ZM541.59,27.44h1.28v-5.18c.61-.98,1.28-1.54,2.41-1.54s1.66.59,1.66,1.9v4.82h1.28v-4.78c0-1.98-.88-3.02-2.66-3.02-1.34,0-2.14.57-2.68,1.3v-4.38h-1.28v10.88ZM533.32,23.74v-.14c0-1.91.89-2.79,2.31-2.79,1.08,0,1.83.49,2.3.98v3.58c-.54.7-1.33,1.13-2.32,1.13-1.42,0-2.29-.88-2.29-2.76M535.73,30.9c1.97,0,3.46-1.01,3.46-2.98v-8.1h-1.29v.59c-.5-.39-1.3-.78-2.38-.78-2.07,0-3.52,1.45-3.52,3.96v.14c0,2.4,1.47,3.9,3.5,3.9,1.02,0,1.89-.38,2.39-.92v1.21c0,1.23-.88,1.81-2.17,1.81-1.42,0-2.51-.68-3.05-1.39h-.19l.21,1.57c.56.48,1.63.99,3.03.99M527.6,17.6c0,.58.48,1.06,1.06,1.06s1.06-.48,1.06-1.06-.48-1.06-1.06-1.06-1.06.48-1.06,1.06M526.56,27.44h4.22v-1.09h-1.47v-6.53h-2.64l-.14.96v.13h1.5v5.44h-1.47v1.09ZM519.42,22.75c.26-1.23,1.12-1.95,2.38-1.95,1.42,0,2.11.9,2.11,1.89v.06h-4.5ZM521.92,27.63c1.21,0,2.27-.38,2.84-.98l.1-1.26h-.14c-.55.66-1.51,1.07-2.65,1.07-1.7,0-2.66-.98-2.73-2.62h5.86v-.43c0-2.48-1.34-3.78-3.38-3.78-2.17,0-3.8,1.53-3.8,3.94v.11c0,2.51,1.57,3.95,3.9,3.95M507.37,27.44h2.22l1.49-6.53h.26l1.49,6.53h2.22l1.69-7.62h-1.33l-1.34,6.53h-.37l-1.48-6.53h-1.98l-1.5,6.53h-.37l-1.31-6.53h-1.36l1.69,7.62ZM495.45,25.92l3.82-7.03c.47.74.74,1.78.74,3.03v.22c0,2.6-1.16,4.25-3.02,4.25-.58,0-1.1-.16-1.53-.46M493.95,22.14v-.22c0-2.64,1.15-4.3,3.02-4.3.58,0,1.08.16,1.51.45l-3.82,7.03c-.46-.73-.72-1.74-.72-2.96M496.98,27.63c2.77,0,4.37-2.39,4.37-5.5v-.22c0-3.14-1.58-5.55-4.37-5.55s-4.37,2.42-4.37,5.55v.22c0,3.11,1.61,5.5,4.37,5.5M485.05,25.92l3.82-7.03c.47.74.74,1.78.74,3.03v.22c0,2.6-1.16,4.25-3.02,4.25-.58,0-1.1-.16-1.53-.46M483.55,22.14v-.22c0-2.64,1.15-4.3,3.02-4.3.58,0,1.08.16,1.51.45l-3.82,7.03c-.46-.73-.72-1.74-.72-2.96M486.58,27.63c2.77,0,4.37-2.39,4.37-5.5v-.22c0-3.14-1.58-5.55-4.37-5.55s-4.37,2.42-4.37,5.55v.22c0,3.11,1.61,5.5,4.37,5.5M474.35,24v-.22c0-1.34,1.03-2.29,2.64-2.29s2.61.95,2.61,2.27v.24c0,1.39-1.03,2.38-2.64,2.38s-2.61-.99-2.61-2.38M476.96,27.63c2.31,0,3.99-1.56,3.99-3.63v-.24c0-2.1-1.51-3.52-3.69-3.52-.98,0-1.68.28-2.15.66.7-1.44,2.3-2.97,3.76-4.34h-1.7c-1.68,1.6-4.17,3.91-4.17,7.02v.27c0,2.19,1.61,3.78,3.96,3.78M463.5,17.61l3.46,3.46h-8.38v1.34h8.41l-3.49,3.48.95.95,4.14-4.14.94-.94-.94-.95-4.14-4.14-.96.95ZM450.37,25.92l3.82-7.03c.47.74.74,1.78.74,3.03v.22c0,2.6-1.16,4.25-3.02,4.25-.58,0-1.1-.16-1.53-.46M448.88,22.14v-.22c0-2.64,1.15-4.3,3.02-4.3.58,0,1.08.16,1.51.45l-3.82,7.03c-.46-.73-.72-1.74-.72-2.96M451.9,27.63c2.77,0,4.37-2.39,4.37-5.5v-.22c0-3.14-1.58-5.55-4.37-5.55s-4.37,2.42-4.37,5.55v.22c0,3.11,1.61,5.5,4.37,5.5M439.97,25.92l3.82-7.03c.47.74.74,1.78.74,3.03v.22c0,2.6-1.16,4.25-3.02,4.25-.58,0-1.1-.16-1.53-.46M438.48,22.14v-.22c0-2.64,1.15-4.3,3.02-4.3.58,0,1.08.16,1.51.45l-3.82,7.03c-.46-.73-.72-1.74-.72-2.96M441.5,27.63c2.77,0,4.37-2.39,4.37-5.5v-.22c0-3.14-1.58-5.55-4.37-5.55s-4.37,2.42-4.37,5.55v.22c0,3.11,1.61,5.5,4.37,5.5M428.36,23.04v-.13l3.5-5.1h.18v5.23h-3.68ZM432.04,27.44h1.34v-3.15h1.52l.32-1.06v-.19h-1.84v-6.48h-2.03l-4.5,6.35v1.38h5.18v3.15ZM413.52,16.48h-1.34v8.24h6.03l-1.79,1.78.93.94,3.39-3.4-3.39-3.39-.93.92,1.82,1.82h-4.72v-6.9Z"/>
      <path class="cls-4" d="M586.64,30.73h15.36c0-9.35-7.05-16.73-16.98-16.73v15.07h-15.02c0,9.15,7.14,16.93,16.64,16.93v-15.27Z"/>
    </g>
  </g>
</svg>