<?xml version="1.0" encoding="UTF-8"?>
<svg id="Calque_1" data-name="Calque 1" xmlns="http://www.w3.org/2000/svg" xmlns:xlink="http://www.w3.org/1999/xlink" viewBox="0 0 616 860">
  <defs>
    <style>
      .cls-1 {
        clip-path: url(#clippath);
      }

      .cls-2, .cls-3, .cls-4 {
        stroke-width: 0px;
      }

      .cls-2, .cls-5 {
        fill: none;
      }

      .cls-6 {
        clip-path: url(#clippath-1);
      }

      .cls-7 {
        clip-path: url(#clippath-4);
      }

      .cls-8 {
        clip-path: url(#clippath-3);
      }

      .cls-9 {
        clip-path: url(#clippath-2);
      }

      .cls-10 {
        clip-path: url(#clippath-5);
      }

      .cls-5 {
        stroke: #fff;
      }

      .cls-4 {
        fill: #fff;
      }
    </style>
    <clipPath id="clippath">
      <rect class="cls-2" width="616" height="860"/>
    </clipPath>
    <clipPath id="clippath-1">
      <rect class="cls-2" width="616" height="860"/>
    </clipPath>
    <clipPath id="clippath-2">
      <rect class="cls-2" x="362.87" y="331.61" width="169.64" height="130.39"/>
    </clipPath>
    <clipPath id="clippath-3">
      <rect class="cls-2" width="616" height="860"/>
    </clipPath>
    <clipPath id="clippath-4">
      <rect class="cls-2" x="309.51" y="78" width="58.93" height="130.39"/>
    </clipPath>
    <clipPath id="clippath-5">
      <rect class="cls-2" width="616" height="860"/>
    </clipPath>
  </defs>
  <g class="cls-1">
    <polygon class="cls-4" points="327.54 846 585.73 846 585.73 801.66 390.13 801.66 390.13 798.4 579.21 585.85 579.21 535.65 328.19 535.65 328.19 579.98 515.31 579.98 515.31 583.24 327.54 795.14 327.54 846"/>
    <g class="cls-6">
      <path class="cls-4" d="M95.56,42.43v1.01h7.01v-1.25h-4.91v-.06c3.36-3.05,4.8-4.34,4.8-6.41v-.11c0-2.37-1.61-3.24-3.35-3.24-1.38,0-2.63.58-3.3,1.46l-.1,1.44h.35c.88-1.34,1.79-1.65,2.84-1.65,1.22,0,2.22.42,2.22,2.11v.11c0,1.59-.98,2.7-5.55,6.59M88.11,41.92l3.82-7.03c.47.74.74,1.78.74,3.03v.22c0,2.6-1.16,4.25-3.02,4.25-.58,0-1.1-.16-1.53-.46M86.62,38.14v-.22c0-2.64,1.15-4.3,3.02-4.3.58,0,1.08.16,1.51.45l-3.82,7.03c-.46-.73-.72-1.74-.72-2.96M89.64,43.63c2.77,0,4.37-2.39,4.37-5.5v-.22c0-3.14-1.58-5.55-4.37-5.55s-4.37,2.42-4.37,5.55v.22c0,3.11,1.61,5.5,4.37,5.5M73.69,43.44h1.28v-5.18c.61-.94,1.28-1.46,2.41-1.46s1.66.57,1.66,1.82v4.82h1.28v-4.78c0-1.98-.89-3.02-2.65-3.02-1.34,0-2.17.61-2.7,1.3v-1.11h-1.28v7.62ZM66.41,41.49v-.06c0-.52.38-1.04,1.44-1.2l2.26-.34v.42c0,1.4-1.06,2.24-2.36,2.24-.85,0-1.34-.37-1.34-1.06M67.55,43.63c1.14,0,2-.44,2.54-1.18v.99h1.28v-5.02c0-2.08-1.27-2.78-2.86-2.78-1.28,0-2.23.45-2.73.91l-.16,1.33h.21c.71-.75,1.54-1.15,2.48-1.15s1.8.42,1.8,1.7v.41l-2.43.34c-1.76.25-2.55,1.13-2.55,2.31v.05c0,1.29.9,2.1,2.42,2.1M61.97,43.44h1.28v-10.88h-1.28v10.88ZM54.02,41.43v-3.58c.46-.53,1.21-1.05,2.31-1.05,1.41,0,2.31.85,2.31,2.77v.14c0,1.88-.87,2.78-2.3,2.78-.99,0-1.78-.42-2.32-1.06M56.45,43.63c2.04,0,3.52-1.52,3.52-3.92v-.14c0-2.51-1.46-3.94-3.5-3.94-1.14,0-1.94.44-2.44.87v-.68h-1.28v10.88h1.28v-3.98c.5.52,1.38.9,2.42.9M45.14,43.44h1.28v-3.64h.42l2.79,3.64h1.62l-3.38-4.22,3.06-3.39h-1.5l-2.5,2.81h-.53v-6.07h-1.28v10.88ZM39.75,43.44h1.28v-4.53c0-1.29.69-1.96,1.78-1.96h.98v-.13l-.32-1h-.56c-.81,0-1.51.32-1.87.99v-.99h-1.28v7.62ZM31.49,39.76v-.26c0-1.93,1.16-2.7,2.47-2.7s2.47.78,2.47,2.7v.26c0,1.93-1.16,2.7-2.47,2.7s-2.47-.78-2.47-2.7M33.96,43.63c1.8,0,3.79-1.23,3.79-3.87v-.26c0-2.64-1.99-3.87-3.79-3.87s-3.79,1.23-3.79,3.87v.26c0,2.64,1.99,3.87,3.79,3.87M17.29,43.44h2.26l2.26-9.79h.38l2.25,9.79h2.27l2.65-10.88h-1.34l-2.26,9.82h-.38l-2.19-9.82h-2.37l-2.19,9.82h-.38l-2.26-9.82h-1.34l2.65,10.88Z"/>
      <path class="cls-4" d="M80.19,22.75c.26-1.23,1.12-1.95,2.38-1.95,1.42,0,2.11.9,2.11,1.89v.06h-4.5ZM82.69,27.63c1.21,0,2.27-.38,2.84-.98l.1-1.26h-.14c-.55.66-1.51,1.07-2.65,1.07-1.7,0-2.66-.98-2.73-2.62h5.86v-.43c0-2.48-1.34-3.78-3.38-3.78-2.17,0-3.8,1.53-3.8,3.94v.11c0,2.51,1.57,3.95,3.9,3.95M75.51,27.44h1.28v-10.88h-1.28v10.88ZM67.33,27.44h6.34v-1.09h-4.8v-.08l4.64-5.22v-1.23h-6.16v1.09h4.59v.08l-4.61,5.2v1.25ZM59.64,27.44h6.34v-1.09h-4.8v-.08l4.64-5.22v-1.23h-6.16v1.09h4.59v.08l-4.61,5.2v1.25ZM52.07,23.76v-.26c0-1.93,1.16-2.7,2.47-2.7s2.47.78,2.47,2.7v.26c0,1.93-1.16,2.7-2.47,2.7s-2.47-.78-2.47-2.7M54.54,27.63c1.8,0,3.79-1.23,3.79-3.87v-.26c0-2.64-1.99-3.87-3.79-3.87s-3.79,1.23-3.79,3.87v.26c0,2.64,1.99,3.87,3.79,3.87M40.1,27.44h1.34v-8.93h.03l5.6,8.93h1.6v-10.88h-1.34v8.93h-.03l-5.6-8.93h-1.6v10.88ZM28.59,27.44h1.34v-4.8h5.18v-1.25h-5.18v-3.58h5.6v-1.25h-6.94v10.88ZM19.63,26.27h2.05l2.9-8.46h.13l-.05,3.04v6.59h1.38v-10.88h-2.4l-2.94,8.93h-.06l-2.94-8.93h-2.4v10.88h1.38v-6.59l-.05-3.04h.13l2.9,8.46Z"/>
      <path class="cls-4" d="M321.59,43.44h7.57v-1.21h-3.1v-9.67h-3.74l-.54.99v.26h2.98v8.42h-3.15v1.21ZM313.28,41.92l3.82-7.03c.47.74.74,1.78.74,3.03v.22c0,2.6-1.16,4.25-3.02,4.25-.58,0-1.1-.16-1.53-.46M311.78,38.14v-.22c0-2.64,1.15-4.3,3.02-4.3.58,0,1.08.16,1.51.45l-3.82,7.03c-.46-.73-.72-1.74-.72-2.96M314.8,43.63c2.77,0,4.37-2.39,4.37-5.5v-.22c0-3.14-1.58-5.55-4.37-5.55s-4.37,2.42-4.37,5.55v.22c0,3.11,1.61,5.5,4.37,5.5M305.94,43.63c1.86,0,3.02-.87,3.02-2.22v-.11c0-2.99-4.51-1.63-4.51-3.46v-.08c0-.49.33-1.06,1.6-1.06.87,0,1.66.28,2.21.99h.19l-.07-1.39c-.54-.4-1.3-.67-2.29-.67-1.98,0-2.92,1.02-2.92,2.19v.08c0,2.99,4.51,1.67,4.51,3.46v.1c0,.72-.66,1.08-1.7,1.08s-1.92-.36-2.73-1.23h-.19l.1,1.38c.47.56,1.54.94,2.78.94M297.84,43.63c2.06,0,3.7-1.06,3.7-3.03v-.1c0-4.16-5.98-2.1-5.98-5.06v-.06c0-1.35,1.22-1.76,2.36-1.76,1.4,0,2.36.62,3.01,1.71h.18l-.06-1.76c-.85-.88-1.95-1.2-3.1-1.2-2.21,0-3.72,1.14-3.72,3.1v.06c0,4.13,5.98,2.13,5.98,5.03v.1c0,1.23-1.14,1.73-2.38,1.73-1.45,0-2.66-.66-3.51-2.05h-.19l.04,1.67c.56.81,1.86,1.62,3.68,1.62"/>
      <path class="cls-4" d="M360.6,22.75c.26-1.23,1.12-1.95,2.38-1.95,1.42,0,2.11.9,2.11,1.89v.06h-4.5ZM363.1,27.63c1.21,0,2.27-.38,2.84-.98l.1-1.26h-.14c-.55.66-1.51,1.07-2.65,1.07-1.7,0-2.66-.98-2.73-2.62h5.86v-.43c0-2.48-1.34-3.78-3.38-3.78-2.17,0-3.8,1.53-3.8,3.94v.11c0,2.51,1.57,3.95,3.9,3.95M351.65,25.43v-3.58c.46-.53,1.21-1.05,2.31-1.05,1.41,0,2.31.85,2.31,2.77v.14c0,1.88-.87,2.78-2.3,2.78-.99,0-1.78-.42-2.32-1.06M354.08,27.63c2.04,0,3.52-1.52,3.52-3.92v-.14c0-2.51-1.46-3.94-3.5-3.94-1.14,0-1.94.44-2.44.87v-.68h-1.28v10.88h1.28v-3.98c.5.52,1.38.9,2.42.9M343.4,30.7h1.29l4.16-10.88h-1.3l-2.22,5.9h-.29l-2.15-5.9h-1.38l2.71,7.01h.73l-1.54,3.87ZM335.78,20.91h1.49v4.14c0,1.66.66,2.39,2.45,2.39h.93v-.09l-.11-1h-.85c-.85,0-1.14-.43-1.14-1.3v-4.14h2.11v-1.09h-2.11v-2h-1.28v2h-1.49v1.09ZM324.76,27.44h1.28v-5.18c.61-.94,1.28-1.46,2.41-1.46s1.66.57,1.66,1.82v4.82h1.28v-4.78c0-1.98-.89-3.02-2.65-3.02-1.34,0-2.17.61-2.7,1.3v-1.11h-1.28v7.62ZM316.98,22.75c.26-1.23,1.12-1.95,2.38-1.95,1.42,0,2.11.9,2.11,1.89v.06h-4.5ZM319.48,27.63c1.21,0,2.27-.38,2.84-.98l.1-1.26h-.14c-.55.66-1.51,1.07-2.65,1.07-1.7,0-2.66-.98-2.73-2.62h5.86v-.43c0-2.48-1.34-3.78-3.38-3.78-2.17,0-3.8,1.53-3.8,3.94v.11c0,2.51,1.57,3.95,3.9,3.95M308.04,25.43v-3.58c.46-.53,1.21-1.05,2.31-1.05,1.41,0,2.31.85,2.31,2.77v.14c0,1.88-.87,2.78-2.3,2.78-.99,0-1.78-.42-2.32-1.06M310.46,27.63c2.04,0,3.52-1.52,3.52-3.92v-.14c0-2.51-1.46-3.94-3.5-3.94-1.14,0-1.94.44-2.44.87v-.68h-1.28v10.88h1.28v-3.98c.5.52,1.38.9,2.42.9M295.52,22.16v-.32c0-2.8,1.83-4.22,3.9-4.22s3.9,1.42,3.9,4.22v.32c0,2.8-1.83,4.22-3.9,4.22s-3.9-1.42-3.9-4.22M299.43,27.63c3.09,0,5.28-2.26,5.28-5.47v-.32c0-3.22-2.19-5.47-5.28-5.47s-5.28,2.26-5.28,5.47v.32c0,3.22,2.19,5.47,5.28,5.47"/>
      <path class="cls-4" d="M211.76,43.63c1.86,0,3.02-.87,3.02-2.22v-.11c0-2.99-4.51-1.63-4.51-3.46v-.08c0-.49.33-1.06,1.6-1.06.87,0,1.66.28,2.21.99h.19l-.07-1.39c-.54-.4-1.3-.67-2.29-.67-1.98,0-2.92,1.02-2.92,2.19v.08c0,2.99,4.51,1.67,4.51,3.46v.1c0,.72-.66,1.08-1.7,1.08s-1.92-.36-2.73-1.23h-.19l.1,1.38c.47.56,1.54.94,2.78.94M201.58,38.75c.26-1.23,1.12-1.95,2.38-1.95,1.42,0,2.11.9,2.11,1.89v.06h-4.5ZM204.09,43.63c1.21,0,2.27-.38,2.84-.98l.1-1.26h-.14c-.55.66-1.51,1.07-2.65,1.07-1.7,0-2.66-.98-2.73-2.62h5.86v-.43c0-2.48-1.34-3.78-3.38-3.78-2.17,0-3.8,1.53-3.8,3.94v.11c0,2.51,1.57,3.95,3.9,3.95M196.9,43.44h1.28v-10.88h-1.28v10.88ZM189.93,46.7h1.29l4.16-10.88h-1.3l-2.22,5.9h-.29l-2.15-5.9h-1.38l2.71,7.01h.73l-1.54,3.87ZM182.31,36.91h1.49v4.14c0,1.66.66,2.39,2.45,2.39h.93v-.09l-.11-1h-.85c-.85,0-1.14-.43-1.14-1.3v-4.14h2.11v-1.09h-2.11v-2h-1.28v2h-1.49v1.09ZM178.25,43.63c1.86,0,3.02-.87,3.02-2.22v-.11c0-2.99-4.51-1.63-4.51-3.46v-.08c0-.49.33-1.06,1.6-1.06.87,0,1.66.28,2.21.99h.19l-.07-1.39c-.54-.4-1.3-.67-2.29-.67-1.98,0-2.92,1.02-2.92,2.19v.08c0,2.99,4.51,1.67,4.51,3.46v.1c0,.72-.66,1.08-1.7,1.08s-1.92-.36-2.73-1.23h-.19l.1,1.38c.47.56,1.54.94,2.78.94M160.37,41.92l3.82-7.03c.47.74.74,1.78.74,3.03v.22c0,2.6-1.16,4.25-3.02,4.25-.58,0-1.1-.16-1.53-.46M158.88,38.14v-.22c0-2.64,1.15-4.3,3.02-4.3.58,0,1.08.16,1.51.45l-3.82,7.03c-.46-.73-.72-1.74-.72-2.96M161.9,43.63c2.77,0,4.37-2.39,4.37-5.5v-.22c0-3.14-1.58-5.55-4.37-5.55s-4.37,2.42-4.37,5.55v.22c0,3.11,1.61,5.5,4.37,5.5M149.69,36.24v-.24c0-1.39,1.03-2.38,2.64-2.38s2.61.99,2.61,2.38v.22c0,1.34-1.03,2.29-2.64,2.29s-2.61-.95-2.61-2.27M152.33,32.37c-2.31,0-3.99,1.56-3.99,3.63v.24c0,2.1,1.51,3.52,3.69,3.52.98,0,1.68-.28,2.15-.66-.7,1.44-2.3,2.97-3.76,4.34h1.7c1.68-1.6,4.17-3.91,4.17-7.02v-.27c0-2.19-1.61-3.78-3.96-3.78"/>
      <path class="cls-4" d="M200.84,27.63c1.86,0,3.02-.87,3.02-2.22v-.11c0-2.99-4.51-1.63-4.51-3.46v-.08c0-.49.33-1.06,1.6-1.06.87,0,1.66.28,2.21.99h.19l-.07-1.39c-.54-.4-1.3-.67-2.29-.67-1.98,0-2.92,1.02-2.92,2.19v.08c0,2.99,4.51,1.67,4.51,3.46v.1c0,.72-.66,1.08-1.7,1.08s-1.92-.36-2.73-1.23h-.19l.1,1.38c.47.56,1.54.94,2.78.94M191.84,20.91h1.49v4.14c0,1.66.66,2.39,2.45,2.39h.93v-.09l-.11-1h-.85c-.85,0-1.14-.43-1.14-1.3v-4.14h2.11v-1.09h-2.11v-2h-1.28v2h-1.49v1.09ZM190.24,19.82h-1.28v5.18c-.61.94-1.28,1.46-2.41,1.46s-1.66-.57-1.66-1.82v-4.82h-1.28v4.78c0,1.98.89,3.02,2.65,3.02,1.34,0,2.17-.61,2.7-1.3v1.11h1.28v-7.62ZM179.21,27.63c1.14,0,2.02-.38,2.57-.83l.1-1.46h-.19c-.61.74-1.5,1.12-2.4,1.12-1.38,0-2.52-.92-2.52-2.71v-.24c0-1.79,1.14-2.71,2.52-2.71.9,0,1.79.38,2.4,1.12h.19l-.1-1.46c-.55-.47-1.44-.83-2.55-.83-2.22,0-3.78,1.42-3.78,3.88v.24c0,2.46,1.58,3.88,3.77,3.88M160.09,20.24v-.24c0-1.39,1.03-2.38,2.64-2.38s2.61.99,2.61,2.38v.22c0,1.34-1.03,2.29-2.64,2.29s-2.61-.95-2.61-2.27M162.73,16.37c-2.31,0-3.99,1.56-3.99,3.63v.24c0,2.1,1.51,3.52,3.69,3.52.98,0,1.68-.28,2.15-.66-.7,1.44-2.3,2.97-3.76,4.34h1.7c1.68-1.6,4.17-3.91,4.17-7.02v-.27c0-2.19-1.61-3.78-3.96-3.78M149.97,25.92l3.82-7.03c.47.74.74,1.78.74,3.03v.22c0,2.6-1.16,4.25-3.02,4.25-.58,0-1.1-.16-1.53-.46M148.48,22.14v-.22c0-2.64,1.15-4.3,3.02-4.3.58,0,1.08.16,1.51.45l-3.82,7.03c-.46-.73-.72-1.74-.72-2.96M151.5,27.63c2.77,0,4.37-2.39,4.37-5.5v-.22c0-3.14-1.58-5.55-4.37-5.55s-4.37,2.42-4.37,5.55v.22c0,3.11,1.61,5.5,4.37,5.5"/>
      <path class="cls-4" d="M586.64,30.73h15.36c0-9.35-7.05-16.73-16.98-16.73v15.07h-15.02c0,9.15,7.14,16.93,16.64,16.93v-15.27Z"/>
      <path class="cls-4" d="M312.18,414h56v-226.8c26.6-40.95,56-63.7,105.35-63.7s72.45,24.85,72.45,79.8v210.7h56v-209.3c0-86.8-38.85-132.3-115.85-132.3-58.45,0-94.85,26.6-117.95,57.05v-48.65h-56v333.2Z"/>
    </g>
    <rect class="cls-4" x="14" y="750" width="191.1" height="96"/>
    <polygon class="cls-3" points="31.97 750 14 768.94 14 846 187.45 846 187.45 800.69 68.11 800.69 68.11 798.35 112.98 750 31.97 750"/>
    <rect class="cls-4" x="14" y="654" width="191.1" height="96"/>
    <polygon class="cls-3" points="40.45 654 14 682.9 14 750 184.06 750 184.06 711.94 54.19 711.94 54.19 709.6 104.61 654 40.45 654"/>
    <rect class="cls-4" x="14" y="558" width="191.1" height="96"/>
    <polygon class="cls-3" points="48.85 558 14 597.33 14 654 180.55 654 180.55 623.2 40.15 623.2 40.15 620.86 96.07 558 48.85 558"/>
    <line class="cls-5" x1="308" y1="558" x2="14" y2="558"/>
    <line class="cls-5" x1="308" y1="654" x2="14" y2="654"/>
    <line class="cls-5" x1="308" y1="750" x2="14" y2="750"/>
    <line class="cls-5" x1="308" y1="846" x2="14" y2="846"/>
    <g class="cls-9">
      <path class="cls-4" d="M538.17,389.05c0-1.39,1.12-2.51,2.51-2.51s2.51,1.12,2.51,2.51-1.12,2.51-2.51,2.51-2.51-1.12-2.51-2.51"/>
      <path class="cls-4" d="M536.64,404.1c0-2.23,1.81-4.05,4.05-4.05s4.05,1.81,4.05,4.05-1.81,4.05-4.05,4.05-4.05-1.81-4.05-4.05"/>
      <path class="cls-4" d="M535.79,419.15c0-2.7,2.19-4.9,4.9-4.9s4.9,2.19,4.9,4.9-2.19,4.9-4.9,4.9-4.9-2.19-4.9-4.9"/>
      <path class="cls-4" d="M534.17,434.2c0-3.6,2.92-6.52,6.52-6.52s6.52,2.92,6.52,6.52-2.92,6.52-6.52,6.52-6.52-2.92-6.52-6.52"/>
      <path class="cls-4" d="M532.8,449.26c0-4.36,3.53-7.89,7.89-7.89s7.89,3.53,7.89,7.89-3.53,7.89-7.89,7.89-7.89-3.53-7.89-7.89"/>
      <path class="cls-4" d="M539.04,374c0-.91.74-1.65,1.65-1.65s1.65.74,1.65,1.65-.74,1.65-1.65,1.65-1.65-.74-1.65-1.65"/>
      <path class="cls-4" d="M539.71,358.95c0-.54.44-.97.97-.97s.97.43.97.97-.44.97-.97.97-.97-.43-.97-.97"/>
      <path class="cls-4" d="M528.89,396.56c0-1.99,1.61-3.61,3.6-3.61s3.61,1.61,3.61,3.61-1.61,3.61-3.61,3.61-3.6-1.61-3.6-3.61"/>
      <path class="cls-4" d="M527.69,411.63c0-2.65,2.15-4.8,4.8-4.8s4.8,2.15,4.8,4.8-2.15,4.8-4.8,4.8-4.8-2.15-4.8-4.8"/>
      <path class="cls-4" d="M526.69,426.68c0-3.21,2.6-5.81,5.81-5.81s5.81,2.6,5.81,5.81-2.6,5.81-5.81,5.81-5.81-2.6-5.81-5.81"/>
      <path class="cls-4" d="M525.47,441.73c0-3.88,3.15-7.03,7.03-7.03s7.03,3.15,7.03,7.03-3.15,7.03-7.03,7.03-7.03-3.15-7.03-7.03"/>
      <path class="cls-4" d="M523.99,456.28c0-4.7,3.81-8.5,8.5-8.5s8.5,3.81,8.5,8.5-3.81,8.5-8.5,8.5-8.5-3.81-8.5-8.5"/>
      <path class="cls-4" d="M544.91,396.56c0-2.19,1.78-3.97,3.97-3.97s3.97,1.78,3.97,3.97-1.78,3.97-3.97,3.97-3.97-1.78-3.97-3.97"/>
      <path class="cls-4" d="M544.08,411.63c0-2.65,2.15-4.8,4.8-4.8s4.8,2.15,4.8,4.8-2.15,4.8-4.8,4.8-4.8-2.15-4.8-4.8"/>
      <path class="cls-4" d="M543.07,426.68c0-3.21,2.6-5.81,5.81-5.81s5.81,2.6,5.81,5.81-2.6,5.81-5.81,5.81-5.81-2.6-5.81-5.81"/>
      <path class="cls-4" d="M541.85,441.73c0-3.88,3.15-7.03,7.03-7.03s7.03,3.15,7.03,7.03-3.15,7.03-7.03,7.03-7.03-3.15-7.03-7.03"/>
      <path class="cls-4" d="M540.37,456.28c0-4.7,3.81-8.5,8.5-8.5s8.5,3.81,8.5,8.5-3.81,8.5-8.5,8.5-8.5-3.81-8.5-8.5"/>
      <path class="cls-4" d="M512.5,396.56c0-1.99,1.61-3.61,3.6-3.61s3.61,1.61,3.61,3.61-1.61,3.61-3.61,3.61-3.6-1.61-3.6-3.61"/>
      <path class="cls-4" d="M511.31,411.63c0-2.65,2.15-4.8,4.8-4.8s4.8,2.15,4.8,4.8-2.15,4.8-4.8,4.8-4.8-2.15-4.8-4.8"/>
      <path class="cls-4" d="M510.3,426.68c0-3.21,2.6-5.81,5.81-5.81s5.81,2.6,5.81,5.81-2.6,5.81-5.81,5.81-5.81-2.6-5.81-5.81"/>
      <path class="cls-4" d="M509.08,441.73c0-3.88,3.15-7.03,7.03-7.03s7.03,3.15,7.03,7.03-3.15,7.03-7.03,7.03-7.03-3.15-7.03-7.03"/>
      <path class="cls-4" d="M507.61,456.28c0-4.7,3.81-8.5,8.5-8.5s8.5,3.81,8.5,8.5-3.81,8.5-8.5,8.5-8.5-3.81-8.5-8.5"/>
      <path class="cls-4" d="M496.12,396.56c0-1.99,1.61-3.61,3.61-3.61s3.61,1.61,3.61,3.61-1.61,3.61-3.61,3.61-3.61-1.61-3.61-3.61"/>
      <path class="cls-4" d="M494.93,411.63c0-2.65,2.15-4.8,4.8-4.8s4.8,2.15,4.8,4.8-2.15,4.8-4.8,4.8-4.8-2.15-4.8-4.8"/>
      <path class="cls-4" d="M493.92,426.68c0-3.21,2.6-5.81,5.81-5.81s5.81,2.6,5.81,5.81-2.6,5.81-5.81,5.81-5.81-2.6-5.81-5.81"/>
      <path class="cls-4" d="M492.7,441.73c0-3.88,3.15-7.03,7.03-7.03s7.03,3.15,7.03,7.03-3.15,7.03-7.03,7.03-7.03-3.15-7.03-7.03"/>
      <path class="cls-4" d="M491.23,456.28c0-4.7,3.81-8.5,8.5-8.5s8.5,3.81,8.5,8.5-3.81,8.5-8.5,8.5-8.5-3.81-8.5-8.5"/>
      <path class="cls-4" d="M521.79,389.05c0-1.39,1.12-2.51,2.51-2.51s2.51,1.12,2.51,2.51-1.12,2.51-2.51,2.51-2.51-1.12-2.51-2.51"/>
      <path class="cls-4" d="M520.26,404.1c0-2.23,1.81-4.05,4.05-4.05s4.05,1.81,4.05,4.05-1.81,4.05-4.05,4.05-4.05-1.81-4.05-4.05"/>
      <path class="cls-4" d="M519.41,419.15c0-2.7,2.19-4.9,4.9-4.9s4.9,2.19,4.9,4.9-2.19,4.9-4.9,4.9-4.9-2.19-4.9-4.9"/>
      <path class="cls-4" d="M517.78,434.2c0-3.6,2.92-6.52,6.52-6.52s6.52,2.92,6.52,6.52-2.92,6.52-6.52,6.52-6.52-2.92-6.52-6.52"/>
      <path class="cls-4" d="M516.42,449.26c0-4.36,3.53-7.89,7.89-7.89s7.89,3.53,7.89,7.89-3.53,7.89-7.89,7.89-7.89-3.53-7.89-7.89"/>
      <path class="cls-4" d="M522.67,374c0-.9.73-1.63,1.63-1.63s1.63.73,1.63,1.63-.73,1.63-1.63,1.63-1.63-.73-1.63-1.63"/>
      <path class="cls-4" d="M523.23,358.95c0-.59.48-1.07,1.07-1.07s1.07.48,1.07,1.07-.48,1.07-1.07,1.07-1.07-.48-1.07-1.07"/>
      <path class="cls-4" d="M530.46,381.52c0-1.12.91-2.04,2.03-2.04s2.04.91,2.04,2.04-.91,2.04-2.04,2.04-2.03-.91-2.03-2.04"/>
      <path class="cls-4" d="M531.16,366.47c0-.74.6-1.33,1.34-1.33s1.33.6,1.33,1.33-.6,1.33-1.33,1.33-1.34-.6-1.34-1.33"/>
      <path class="cls-4" d="M531.62,351.42c0-.48.39-.88.88-.88s.88.39.88.88-.39.88-.88.88-.88-.39-.88-.88"/>
      <path class="cls-4" d="M546.84,381.52c0-1.12.91-2.04,2.03-2.04s2.04.91,2.04,2.04-.91,2.04-2.04,2.04-2.03-.91-2.03-2.04"/>
      <path class="cls-4" d="M514.08,381.52c0-1.12.91-2.04,2.03-2.04s2.04.91,2.04,2.04-.91,2.04-2.04,2.04-2.03-.91-2.03-2.04"/>
      <path class="cls-4" d="M514.77,366.47c0-.74.6-1.33,1.34-1.33s1.34.6,1.34,1.33-.6,1.33-1.34,1.33-1.34-.6-1.34-1.33"/>
      <path class="cls-4" d="M515.23,351.42c0-.48.39-.88.88-.88s.88.39.88.88-.39.88-.88.88-.88-.39-.88-.88"/>
      <path class="cls-4" d="M547.54,366.47c0-.74.6-1.33,1.34-1.33s1.34.6,1.34,1.33-.6,1.33-1.34,1.33-1.34-.6-1.34-1.33"/>
      <path class="cls-4" d="M548,351.42c0-.48.39-.88.88-.88s.88.39.88.88-.39.88-.88.88-.88-.39-.88-.88"/>
      <path class="cls-4" d="M498.39,366.47c0-.74.6-1.33,1.33-1.33s1.34.6,1.34,1.33-.6,1.33-1.34,1.33-1.33-.6-1.33-1.33"/>
      <path class="cls-4" d="M498.85,351.42c0-.48.39-.88.88-.88s.88.39.88.88-.39.88-.88.88-.88-.39-.88-.88"/>
      <path class="cls-4" d="M497.69,381.52c0-1.12.91-2.04,2.04-2.04s2.04.91,2.04,2.04-.91,2.04-2.04,2.04-2.04-.91-2.04-2.04"/>
      <path class="cls-4" d="M505.41,389.05c0-1.39,1.12-2.51,2.51-2.51s2.51,1.12,2.51,2.51-1.12,2.51-2.51,2.51-2.51-1.12-2.51-2.51"/>
      <path class="cls-4" d="M503.91,404.1c0-2.21,1.79-4.01,4.01-4.01s4.01,1.79,4.01,4.01-1.79,4.01-4.01,4.01-4.01-1.79-4.01-4.01"/>
      <path class="cls-4" d="M503.07,419.15c0-2.68,2.17-4.85,4.85-4.85s4.85,2.17,4.85,4.85-2.17,4.85-4.85,4.85-4.85-2.17-4.85-4.85"/>
      <path class="cls-4" d="M501.47,434.2c0-3.56,2.89-6.45,6.45-6.45s6.45,2.89,6.45,6.45-2.89,6.45-6.45,6.45-6.45-2.89-6.45-6.45"/>
      <path class="cls-4" d="M500.11,449.26c0-4.31,3.49-7.81,7.81-7.81s7.81,3.49,7.81,7.81-3.49,7.81-7.81,7.81-7.81-3.49-7.81-7.81"/>
      <path class="cls-4" d="M506.29,374c0-.9.73-1.63,1.63-1.63s1.63.73,1.63,1.63-.73,1.63-1.63,1.63-1.63-.73-1.63-1.63"/>
      <path class="cls-4" d="M506.85,358.95c0-.59.48-1.07,1.07-1.07s1.07.48,1.07,1.07-.48,1.07-1.07,1.07-1.07-.48-1.07-1.07"/>
      <path class="cls-4" d="M489.03,389.05c0-1.39,1.12-2.51,2.51-2.51s2.51,1.12,2.51,2.51-1.12,2.51-2.51,2.51-2.51-1.12-2.51-2.51"/>
      <path class="cls-4" d="M487.49,404.1c0-2.23,1.81-4.05,4.05-4.05s4.05,1.81,4.05,4.05-1.81,4.05-4.05,4.05-4.05-1.81-4.05-4.05"/>
      <path class="cls-4" d="M486.64,419.15c0-2.7,2.19-4.9,4.9-4.9s4.9,2.19,4.9,4.9-2.19,4.9-4.9,4.9-4.9-2.19-4.9-4.9"/>
      <path class="cls-4" d="M485.02,434.2c0-3.6,2.92-6.52,6.52-6.52s6.52,2.92,6.52,6.52-2.92,6.52-6.52,6.52-6.52-2.92-6.52-6.52"/>
      <path class="cls-4" d="M483.65,449.26c0-4.36,3.53-7.89,7.89-7.89s7.89,3.53,7.89,7.89-3.53,7.89-7.89,7.89-7.89-3.53-7.89-7.89"/>
      <path class="cls-4" d="M489.89,374c0-.91.74-1.65,1.65-1.65s1.65.74,1.65,1.65-.74,1.65-1.65,1.65-1.65-.74-1.65-1.65"/>
      <path class="cls-4" d="M490.57,358.95c0-.54.44-.97.97-.97s.97.43.97.97-.44.97-.97.97-.97-.43-.97-.97"/>
      <path class="cls-4" d="M479.74,396.56c0-1.99,1.61-3.61,3.61-3.61s3.61,1.61,3.61,3.61-1.61,3.61-3.61,3.61-3.61-1.61-3.61-3.61"/>
      <path class="cls-4" d="M478.55,411.63c0-2.65,2.15-4.8,4.8-4.8s4.8,2.15,4.8,4.8-2.15,4.8-4.8,4.8-4.8-2.15-4.8-4.8"/>
      <path class="cls-4" d="M477.54,426.68c0-3.21,2.6-5.81,5.81-5.81s5.81,2.6,5.81,5.81-2.6,5.81-5.81,5.81-5.81-2.6-5.81-5.81"/>
      <path class="cls-4" d="M476.32,441.73c0-3.88,3.15-7.03,7.03-7.03s7.03,3.15,7.03,7.03-3.15,7.03-7.03,7.03-7.03-3.15-7.03-7.03"/>
      <path class="cls-4" d="M474.85,456.28c0-4.7,3.81-8.5,8.5-8.5s8.5,3.81,8.5,8.5-3.81,8.5-8.5,8.5-8.5-3.81-8.5-8.5"/>
      <path class="cls-4" d="M494.93,411.63c0-2.65,2.15-4.8,4.8-4.8s4.8,2.15,4.8,4.8-2.15,4.8-4.8,4.8-4.8-2.15-4.8-4.8"/>
      <path class="cls-4" d="M493.92,426.68c0-3.21,2.6-5.81,5.81-5.81s5.81,2.6,5.81,5.81-2.6,5.81-5.81,5.81-5.81-2.6-5.81-5.81"/>
      <path class="cls-4" d="M492.71,441.73c0-3.88,3.15-7.03,7.03-7.03s7.03,3.15,7.03,7.03-3.15,7.03-7.03,7.03-7.03-3.15-7.03-7.03"/>
      <path class="cls-4" d="M491.23,456.28c0-4.7,3.81-8.5,8.5-8.5s8.5,3.81,8.5,8.5-3.81,8.5-8.5,8.5-8.5-3.81-8.5-8.5"/>
      <path class="cls-4" d="M463.36,396.56c0-1.99,1.61-3.61,3.61-3.61s3.61,1.61,3.61,3.61-1.61,3.61-3.61,3.61-3.61-1.61-3.61-3.61"/>
      <path class="cls-4" d="M462.17,411.63c0-2.65,2.15-4.8,4.8-4.8s4.8,2.15,4.8,4.8-2.15,4.8-4.8,4.8-4.8-2.15-4.8-4.8"/>
      <path class="cls-4" d="M461.16,426.68c0-3.21,2.6-5.81,5.81-5.81s5.81,2.6,5.81,5.81-2.6,5.81-5.81,5.81-5.81-2.6-5.81-5.81"/>
      <path class="cls-4" d="M459.94,441.73c0-3.88,3.15-7.03,7.03-7.03s7.03,3.15,7.03,7.03-3.15,7.03-7.03,7.03-7.03-3.15-7.03-7.03"/>
      <path class="cls-4" d="M458.47,456.28c0-4.7,3.81-8.5,8.5-8.5s8.5,3.81,8.5,8.5-3.81,8.5-8.5,8.5-8.5-3.81-8.5-8.5"/>
      <path class="cls-4" d="M446.98,396.56c0-1.99,1.61-3.61,3.61-3.61s3.61,1.61,3.61,3.61-1.61,3.61-3.61,3.61-3.61-1.61-3.61-3.61"/>
      <path class="cls-4" d="M445.79,411.63c0-2.65,2.15-4.8,4.8-4.8s4.8,2.15,4.8,4.8-2.15,4.8-4.8,4.8-4.8-2.15-4.8-4.8"/>
      <path class="cls-4" d="M444.78,426.68c0-3.21,2.6-5.81,5.81-5.81s5.81,2.6,5.81,5.81-2.6,5.81-5.81,5.81-5.81-2.6-5.81-5.81"/>
      <path class="cls-4" d="M443.56,441.73c0-3.88,3.15-7.03,7.03-7.03s7.03,3.15,7.03,7.03-3.15,7.03-7.03,7.03-7.03-3.15-7.03-7.03"/>
      <path class="cls-4" d="M442.08,456.28c0-4.7,3.81-8.5,8.5-8.5s8.5,3.81,8.5,8.5-3.81,8.5-8.5,8.5-8.5-3.81-8.5-8.5"/>
      <path class="cls-4" d="M472.64,389.05c0-1.39,1.12-2.51,2.51-2.51s2.51,1.12,2.51,2.51-1.12,2.51-2.51,2.51-2.51-1.12-2.51-2.51"/>
      <path class="cls-4" d="M471.11,404.1c0-2.23,1.81-4.05,4.05-4.05s4.05,1.81,4.05,4.05-1.81,4.05-4.05,4.05-4.05-1.81-4.05-4.05"/>
      <path class="cls-4" d="M470.26,419.15c0-2.7,2.19-4.9,4.9-4.9s4.9,2.19,4.9,4.9-2.19,4.9-4.9,4.9-4.9-2.19-4.9-4.9"/>
      <path class="cls-4" d="M468.64,434.2c0-3.6,2.92-6.52,6.52-6.52s6.52,2.92,6.52,6.52-2.92,6.52-6.52,6.52-6.52-2.92-6.52-6.52"/>
      <path class="cls-4" d="M467.27,449.26c0-4.36,3.53-7.89,7.89-7.89s7.89,3.53,7.89,7.89-3.53,7.89-7.89,7.89-7.89-3.53-7.89-7.89"/>
      <path class="cls-4" d="M473.53,374c0-.9.73-1.63,1.63-1.63s1.63.73,1.63,1.63-.73,1.63-1.63,1.63-1.63-.73-1.63-1.63"/>
      <path class="cls-4" d="M474.09,358.95c0-.59.48-1.07,1.07-1.07s1.07.48,1.07,1.07-.48,1.07-1.07,1.07-1.07-.48-1.07-1.07"/>
      <path class="cls-4" d="M481.31,381.52c0-1.12.91-2.04,2.04-2.04s2.04.91,2.04,2.04-.91,2.04-2.04,2.04-2.04-.91-2.04-2.04"/>
      <path class="cls-4" d="M482.01,366.47c0-.74.6-1.33,1.33-1.33s1.34.6,1.34,1.33-.6,1.33-1.34,1.33-1.33-.6-1.33-1.33"/>
      <path class="cls-4" d="M482.47,351.42c0-.48.39-.88.88-.88s.88.39.88.88-.39.88-.88.88-.88-.39-.88-.88"/>
      <path class="cls-4" d="M497.7,381.52c0-1.12.91-2.04,2.04-2.04s2.04.91,2.04,2.04-.91,2.04-2.04,2.04-2.04-.91-2.04-2.04"/>
      <path class="cls-4" d="M464.93,381.52c0-1.12.91-2.04,2.04-2.04s2.04.91,2.04,2.04-.91,2.04-2.04,2.04-2.04-.91-2.04-2.04"/>
      <path class="cls-4" d="M465.63,366.47c0-.74.6-1.33,1.33-1.33s1.34.6,1.34,1.33-.6,1.33-1.34,1.33-1.33-.6-1.33-1.33"/>
      <path class="cls-4" d="M466.09,351.42c0-.48.39-.88.88-.88s.88.39.88.88-.39.88-.88.88-.88-.39-.88-.88"/>
      <path class="cls-4" d="M498.4,366.47c0-.74.6-1.33,1.33-1.33s1.34.6,1.34,1.33-.6,1.33-1.34,1.33-1.33-.6-1.33-1.33"/>
      <path class="cls-4" d="M498.86,351.42c0-.48.39-.88.88-.88s.88.39.88.88-.39.88-.88.88-.88-.39-.88-.88"/>
      <path class="cls-4" d="M449.25,366.47c0-.74.6-1.33,1.33-1.33s1.34.6,1.34,1.33-.6,1.33-1.34,1.33-1.33-.6-1.33-1.33"/>
      <path class="cls-4" d="M449.71,351.42c0-.48.39-.88.88-.88s.88.39.88.88-.39.88-.88.88-.88-.39-.88-.88"/>
      <path class="cls-4" d="M448.55,381.52c0-1.12.91-2.04,2.04-2.04s2.04.91,2.04,2.04-.91,2.04-2.04,2.04-2.04-.91-2.04-2.04"/>
      <path class="cls-4" d="M456.26,389.05c0-1.39,1.12-2.51,2.51-2.51s2.51,1.12,2.51,2.51-1.12,2.51-2.51,2.51-2.51-1.12-2.51-2.51"/>
      <path class="cls-4" d="M454.77,404.1c0-2.21,1.79-4.01,4.01-4.01s4.01,1.79,4.01,4.01-1.79,4.01-4.01,4.01-4.01-1.79-4.01-4.01"/>
      <path class="cls-4" d="M453.93,419.15c0-2.68,2.17-4.85,4.85-4.85s4.85,2.17,4.85,4.85-2.17,4.85-4.85,4.85-4.85-2.17-4.85-4.85"/>
      <path class="cls-4" d="M452.32,434.2c0-3.56,2.89-6.45,6.45-6.45s6.45,2.89,6.45,6.45-2.89,6.45-6.45,6.45-6.45-2.89-6.45-6.45"/>
      <path class="cls-4" d="M450.97,449.26c0-4.31,3.49-7.81,7.81-7.81s7.81,3.49,7.81,7.81-3.49,7.81-7.81,7.81-7.81-3.49-7.81-7.81"/>
      <path class="cls-4" d="M457.14,374c0-.9.73-1.63,1.63-1.63s1.63.73,1.63,1.63-.73,1.63-1.63,1.63-1.63-.73-1.63-1.63"/>
      <path class="cls-4" d="M457.7,358.95c0-.59.48-1.07,1.07-1.07s1.07.48,1.07,1.07-.48,1.07-1.07,1.07-1.07-.48-1.07-1.07"/>
      <path class="cls-4" d="M439.88,389.05c0-1.39,1.12-2.51,2.51-2.51s2.51,1.12,2.51,2.51-1.12,2.51-2.51,2.51-2.51-1.12-2.51-2.51"/>
      <path class="cls-4" d="M438.35,404.1c0-2.23,1.81-4.05,4.05-4.05s4.05,1.81,4.05,4.05-1.81,4.05-4.05,4.05-4.05-1.81-4.05-4.05"/>
      <path class="cls-4" d="M437.5,419.15c0-2.7,2.19-4.9,4.9-4.9s4.9,2.19,4.9,4.9-2.19,4.9-4.9,4.9-4.9-2.19-4.9-4.9"/>
      <path class="cls-4" d="M435.87,434.2c0-3.6,2.92-6.52,6.52-6.52s6.52,2.92,6.52,6.52-2.92,6.52-6.52,6.52-6.52-2.92-6.52-6.52"/>
      <path class="cls-4" d="M434.51,449.26c0-4.36,3.53-7.89,7.89-7.89s7.89,3.53,7.89,7.89-3.53,7.89-7.89,7.89-7.89-3.53-7.89-7.89"/>
      <path class="cls-4" d="M440.74,374c0-.91.74-1.65,1.65-1.65s1.65.74,1.65,1.65-.74,1.65-1.65,1.65-1.65-.74-1.65-1.65"/>
      <path class="cls-4" d="M441.42,358.95c0-.54.44-.97.97-.97s.97.43.97.97-.44.97-.97.97-.97-.43-.97-.97"/>
      <path class="cls-4" d="M430.59,396.56c0-1.99,1.61-3.61,3.61-3.61s3.61,1.61,3.61,3.61-1.61,3.61-3.61,3.61-3.61-1.61-3.61-3.61"/>
      <path class="cls-4" d="M429.4,411.63c0-2.65,2.15-4.8,4.8-4.8s4.8,2.15,4.8,4.8-2.15,4.8-4.8,4.8-4.8-2.15-4.8-4.8"/>
      <path class="cls-4" d="M428.39,426.68c0-3.21,2.6-5.81,5.81-5.81s5.81,2.6,5.81,5.81-2.6,5.81-5.81,5.81-5.81-2.6-5.81-5.81"/>
      <path class="cls-4" d="M427.17,441.73c0-3.88,3.15-7.03,7.03-7.03s7.03,3.15,7.03,7.03-3.15,7.03-7.03,7.03-7.03-3.15-7.03-7.03"/>
      <path class="cls-4" d="M425.7,456.28c0-4.7,3.81-8.5,8.5-8.5s8.5,3.81,8.5,8.5-3.81,8.5-8.5,8.5-8.5-3.81-8.5-8.5"/>
      <path class="cls-4" d="M445.78,411.63c0-2.65,2.15-4.8,4.8-4.8s4.8,2.15,4.8,4.8-2.15,4.8-4.8,4.8-4.8-2.15-4.8-4.8"/>
      <path class="cls-4" d="M444.78,426.68c0-3.21,2.6-5.81,5.81-5.81s5.81,2.6,5.81,5.81-2.6,5.81-5.81,5.81-5.81-2.6-5.81-5.81"/>
      <path class="cls-4" d="M443.56,441.73c0-3.88,3.15-7.03,7.03-7.03s7.03,3.15,7.03,7.03-3.15,7.03-7.03,7.03-7.03-3.15-7.03-7.03"/>
      <path class="cls-4" d="M442.08,456.28c0-4.7,3.81-8.5,8.5-8.5s8.5,3.81,8.5,8.5-3.81,8.5-8.5,8.5-8.5-3.81-8.5-8.5"/>
      <path class="cls-4" d="M414.21,396.56c0-1.99,1.61-3.61,3.61-3.61s3.61,1.61,3.61,3.61-1.61,3.61-3.61,3.61-3.61-1.61-3.61-3.61"/>
      <path class="cls-4" d="M413.02,411.63c0-2.65,2.15-4.8,4.8-4.8s4.8,2.15,4.8,4.8-2.15,4.8-4.8,4.8-4.8-2.15-4.8-4.8"/>
      <path class="cls-4" d="M412.01,426.68c0-3.21,2.6-5.81,5.81-5.81s5.81,2.6,5.81,5.81-2.6,5.81-5.81,5.81-5.81-2.6-5.81-5.81"/>
      <path class="cls-4" d="M410.79,441.73c0-3.88,3.15-7.03,7.03-7.03s7.03,3.15,7.03,7.03-3.15,7.03-7.03,7.03-7.03-3.15-7.03-7.03"/>
      <path class="cls-4" d="M409.32,456.28c0-4.7,3.81-8.5,8.5-8.5s8.5,3.81,8.5,8.5-3.81,8.5-8.5,8.5-8.5-3.81-8.5-8.5"/>
      <path class="cls-4" d="M397.83,396.56c0-1.99,1.61-3.61,3.61-3.61s3.61,1.61,3.61,3.61-1.61,3.61-3.61,3.61-3.61-1.61-3.61-3.61"/>
      <path class="cls-4" d="M396.64,411.63c0-2.65,2.15-4.8,4.8-4.8s4.8,2.15,4.8,4.8-2.15,4.8-4.8,4.8-4.8-2.15-4.8-4.8"/>
      <path class="cls-4" d="M395.63,426.68c0-3.21,2.6-5.81,5.81-5.81s5.81,2.6,5.81,5.81-2.6,5.81-5.81,5.81-5.81-2.6-5.81-5.81"/>
      <path class="cls-4" d="M394.41,441.73c0-3.88,3.15-7.03,7.03-7.03s7.03,3.15,7.03,7.03-3.15,7.03-7.03,7.03-7.03-3.15-7.03-7.03"/>
      <path class="cls-4" d="M392.93,456.28c0-4.7,3.81-8.5,8.5-8.5s8.5,3.81,8.5,8.5-3.81,8.5-8.5,8.5-8.5-3.81-8.5-8.5"/>
      <path class="cls-4" d="M423.5,389.05c0-1.39,1.12-2.51,2.51-2.51s2.51,1.12,2.51,2.51-1.12,2.51-2.51,2.51-2.51-1.12-2.51-2.51"/>
      <path class="cls-4" d="M421.96,404.1c0-2.23,1.81-4.05,4.05-4.05s4.05,1.81,4.05,4.05-1.81,4.05-4.05,4.05-4.05-1.81-4.05-4.05"/>
      <path class="cls-4" d="M421.11,419.15c0-2.7,2.19-4.9,4.9-4.9s4.9,2.19,4.9,4.9-2.19,4.9-4.9,4.9-4.9-2.19-4.9-4.9"/>
      <path class="cls-4" d="M419.49,434.2c0-3.6,2.92-6.52,6.52-6.52s6.52,2.92,6.52,6.52-2.92,6.52-6.52,6.52-6.52-2.92-6.52-6.52"/>
      <path class="cls-4" d="M418.12,449.26c0-4.36,3.53-7.89,7.89-7.89s7.89,3.53,7.89,7.89-3.53,7.89-7.89,7.89-7.89-3.53-7.89-7.89"/>
      <path class="cls-4" d="M424.38,374c0-.9.73-1.63,1.63-1.63s1.63.73,1.63,1.63-.73,1.63-1.63,1.63-1.63-.73-1.63-1.63"/>
      <path class="cls-4" d="M424.94,358.95c0-.59.48-1.07,1.07-1.07s1.07.48,1.07,1.07-.48,1.07-1.07,1.07-1.07-.48-1.07-1.07"/>
      <path class="cls-4" d="M432.17,381.52c0-1.12.91-2.04,2.04-2.04s2.04.91,2.04,2.04-.91,2.04-2.04,2.04-2.04-.91-2.04-2.04"/>
      <path class="cls-4" d="M432.86,366.47c0-.74.6-1.33,1.33-1.33s1.34.6,1.34,1.33-.6,1.33-1.34,1.33-1.33-.6-1.33-1.33"/>
      <path class="cls-4" d="M433.32,351.42c0-.48.39-.88.88-.88s.88.39.88.88-.39.88-.88.88-.88-.39-.88-.88"/>
      <path class="cls-4" d="M448.55,381.52c0-1.12.91-2.04,2.04-2.04s2.04.91,2.04,2.04-.91,2.04-2.04,2.04-2.04-.91-2.04-2.04"/>
      <path class="cls-4" d="M415.78,381.52c0-1.12.91-2.04,2.04-2.04s2.04.91,2.04,2.04-.91,2.04-2.04,2.04-2.04-.91-2.04-2.04"/>
      <path class="cls-4" d="M416.48,366.47c0-.74.6-1.33,1.33-1.33s1.34.6,1.34,1.33-.6,1.33-1.34,1.33-1.33-.6-1.33-1.33"/>
      <path class="cls-4" d="M416.94,351.42c0-.48.39-.88.88-.88s.88.39.88.88-.39.88-.88.88-.88-.39-.88-.88"/>
      <path class="cls-4" d="M449.25,366.47c0-.74.6-1.33,1.33-1.33s1.34.6,1.34,1.33-.6,1.33-1.34,1.33-1.33-.6-1.33-1.33"/>
      <path class="cls-4" d="M449.71,351.42c0-.48.39-.88.88-.88s.88.39.88.88-.39.88-.88.88-.88-.39-.88-.88"/>
      <path class="cls-4" d="M400.1,366.47c0-.74.6-1.33,1.33-1.33s1.34.6,1.34,1.33-.6,1.33-1.34,1.33-1.33-.6-1.33-1.33"/>
      <path class="cls-4" d="M400.56,351.42c0-.48.39-.88.88-.88s.88.39.88.88-.39.88-.88.88-.88-.39-.88-.88"/>
      <path class="cls-4" d="M399.4,381.52c0-1.12.91-2.04,2.04-2.04s2.04.91,2.04,2.04-.91,2.04-2.04,2.04-2.04-.91-2.04-2.04"/>
      <path class="cls-4" d="M407.11,389.05c0-1.39,1.12-2.51,2.51-2.51s2.51,1.12,2.51,2.51-1.12,2.51-2.51,2.51-2.51-1.12-2.51-2.51"/>
      <path class="cls-4" d="M405.62,404.1c0-2.21,1.79-4.01,4.01-4.01s4.01,1.79,4.01,4.01-1.79,4.01-4.01,4.01-4.01-1.79-4.01-4.01"/>
      <path class="cls-4" d="M404.78,419.15c0-2.68,2.17-4.85,4.85-4.85s4.85,2.17,4.85,4.85-2.17,4.85-4.85,4.85-4.85-2.17-4.85-4.85"/>
      <path class="cls-4" d="M403.17,434.2c0-3.56,2.89-6.45,6.45-6.45s6.45,2.89,6.45,6.45-2.89,6.45-6.45,6.45-6.45-2.89-6.45-6.45"/>
      <path class="cls-4" d="M401.82,449.26c0-4.31,3.49-7.81,7.81-7.81s7.81,3.49,7.81,7.81-3.49,7.81-7.81,7.81-7.81-3.49-7.81-7.81"/>
      <path class="cls-4" d="M407.99,374c0-.9.73-1.63,1.63-1.63s1.63.73,1.63,1.63-.73,1.63-1.63,1.63-1.63-.73-1.63-1.63"/>
      <path class="cls-4" d="M408.56,358.95c0-.59.48-1.07,1.07-1.07s1.07.48,1.07,1.07-.48,1.07-1.07,1.07-1.07-.48-1.07-1.07"/>
      <path class="cls-4" d="M390.73,389.05c0-1.39,1.12-2.51,2.51-2.51s2.51,1.12,2.51,2.51-1.12,2.51-2.51,2.51-2.51-1.12-2.51-2.51"/>
      <path class="cls-4" d="M389.2,404.1c0-2.23,1.81-4.05,4.05-4.05s4.05,1.81,4.05,4.05-1.81,4.05-4.05,4.05-4.05-1.81-4.05-4.05"/>
      <path class="cls-4" d="M388.35,419.15c0-2.7,2.19-4.9,4.9-4.9s4.9,2.19,4.9,4.9-2.19,4.9-4.9,4.9-4.9-2.19-4.9-4.9"/>
      <path class="cls-4" d="M386.73,434.2c0-3.6,2.92-6.52,6.52-6.52s6.52,2.92,6.52,6.52-2.92,6.52-6.52,6.52-6.52-2.92-6.52-6.52"/>
      <path class="cls-4" d="M385.36,449.26c0-4.36,3.53-7.89,7.89-7.89s7.89,3.53,7.89,7.89-3.53,7.89-7.89,7.89-7.89-3.53-7.89-7.89"/>
      <path class="cls-4" d="M391.6,374c0-.91.74-1.65,1.65-1.65s1.65.74,1.65,1.65-.74,1.65-1.65,1.65-1.65-.74-1.65-1.65"/>
      <path class="cls-4" d="M392.27,358.95c0-.54.44-.97.97-.97s.97.43.97.97-.44.97-.97.97-.97-.43-.97-.97"/>
      <path class="cls-4" d="M381.45,396.56c0-1.99,1.61-3.61,3.61-3.61s3.61,1.61,3.61,3.61-1.61,3.61-3.61,3.61-3.61-1.61-3.61-3.61"/>
      <path class="cls-4" d="M380.26,411.63c0-2.65,2.15-4.8,4.8-4.8s4.8,2.15,4.8,4.8-2.15,4.8-4.8,4.8-4.8-2.15-4.8-4.8"/>
      <path class="cls-4" d="M379.25,426.68c0-3.21,2.6-5.81,5.81-5.81s5.81,2.6,5.81,5.81-2.6,5.81-5.81,5.81-5.81-2.6-5.81-5.81"/>
      <path class="cls-4" d="M378.03,441.73c0-3.88,3.15-7.03,7.03-7.03s7.03,3.15,7.03,7.03-3.15,7.03-7.03,7.03-7.03-3.15-7.03-7.03"/>
      <path class="cls-4" d="M376.55,456.28c0-4.7,3.81-8.5,8.5-8.5s8.5,3.81,8.5,8.5-3.81,8.5-8.5,8.5-8.5-3.81-8.5-8.5"/>
      <path class="cls-4" d="M396.64,411.63c0-2.65,2.15-4.8,4.8-4.8s4.8,2.15,4.8,4.8-2.15,4.8-4.8,4.8-4.8-2.15-4.8-4.8"/>
      <path class="cls-4" d="M395.63,426.68c0-3.21,2.6-5.81,5.81-5.81s5.81,2.6,5.81,5.81-2.6,5.81-5.81,5.81-5.81-2.6-5.81-5.81"/>
      <path class="cls-4" d="M394.41,441.73c0-3.88,3.15-7.03,7.03-7.03s7.03,3.15,7.03,7.03-3.15,7.03-7.03,7.03-7.03-3.15-7.03-7.03"/>
      <path class="cls-4" d="M392.94,456.28c0-4.7,3.81-8.5,8.5-8.5s8.5,3.81,8.5,8.5-3.81,8.5-8.5,8.5-8.5-3.81-8.5-8.5"/>
      <path class="cls-4" d="M365.07,396.56c0-1.99,1.61-3.61,3.61-3.61s3.61,1.61,3.61,3.61-1.61,3.61-3.61,3.61-3.61-1.61-3.61-3.61"/>
      <path class="cls-4" d="M363.88,411.63c0-2.65,2.15-4.8,4.8-4.8s4.8,2.15,4.8,4.8-2.15,4.8-4.8,4.8-4.8-2.15-4.8-4.8"/>
      <path class="cls-4" d="M362.87,426.68c0-3.21,2.6-5.81,5.81-5.81s5.81,2.6,5.81,5.81-2.6,5.81-5.81,5.81-5.81-2.6-5.81-5.81"/>
      <path class="cls-4" d="M361.65,441.73c0-3.88,3.15-7.03,7.03-7.03s7.03,3.15,7.03,7.03-3.15,7.03-7.03,7.03-7.03-3.15-7.03-7.03"/>
      <path class="cls-4" d="M360.17,456.28c0-4.7,3.81-8.5,8.5-8.5s8.5,3.81,8.5,8.5-3.81,8.5-8.5,8.5-8.5-3.81-8.5-8.5"/>
      <path class="cls-4" d="M348.69,396.56c0-1.99,1.61-3.61,3.61-3.61s3.61,1.61,3.61,3.61-1.61,3.61-3.61,3.61-3.61-1.61-3.61-3.61"/>
      <path class="cls-4" d="M347.49,411.63c0-2.65,2.15-4.8,4.8-4.8s4.8,2.15,4.8,4.8-2.15,4.8-4.8,4.8-4.8-2.15-4.8-4.8"/>
      <path class="cls-4" d="M346.48,426.68c0-3.21,2.6-5.81,5.81-5.81s5.81,2.6,5.81,5.81-2.6,5.81-5.81,5.81-5.81-2.6-5.81-5.81"/>
      <path class="cls-4" d="M345.27,441.73c0-3.88,3.15-7.03,7.03-7.03s7.03,3.15,7.03,7.03-3.15,7.03-7.03,7.03-7.03-3.15-7.03-7.03"/>
      <path class="cls-4" d="M343.79,456.28c0-4.7,3.81-8.5,8.5-8.5s8.5,3.81,8.5,8.5-3.81,8.5-8.5,8.5-8.5-3.81-8.5-8.5"/>
      <path class="cls-4" d="M374.35,389.05c0-1.39,1.12-2.51,2.51-2.51s2.51,1.12,2.51,2.51-1.12,2.51-2.51,2.51-2.51-1.12-2.51-2.51"/>
      <path class="cls-4" d="M372.82,404.1c0-2.23,1.81-4.05,4.05-4.05s4.05,1.81,4.05,4.05-1.81,4.05-4.05,4.05-4.05-1.81-4.05-4.05"/>
      <path class="cls-4" d="M371.97,419.15c0-2.7,2.19-4.9,4.9-4.9s4.9,2.19,4.9,4.9-2.19,4.9-4.9,4.9-4.9-2.19-4.9-4.9"/>
      <path class="cls-4" d="M370.35,434.2c0-3.6,2.92-6.52,6.52-6.52s6.52,2.92,6.52,6.52-2.92,6.52-6.52,6.52-6.52-2.92-6.52-6.52"/>
      <path class="cls-4" d="M368.98,449.26c0-4.36,3.53-7.89,7.89-7.89s7.89,3.53,7.89,7.89-3.53,7.89-7.89,7.89-7.89-3.53-7.89-7.89"/>
      <path class="cls-4" d="M375.23,374c0-.9.73-1.63,1.63-1.63s1.63.73,1.63,1.63-.73,1.63-1.63,1.63-1.63-.73-1.63-1.63"/>
      <path class="cls-4" d="M375.79,358.95c0-.59.48-1.07,1.07-1.07s1.07.48,1.07,1.07-.48,1.07-1.07,1.07-1.07-.48-1.07-1.07"/>
      <path class="cls-4" d="M383.02,381.52c0-1.12.91-2.04,2.04-2.04s2.04.91,2.04,2.04-.91,2.04-2.04,2.04-2.04-.91-2.04-2.04"/>
      <path class="cls-4" d="M383.72,366.47c0-.74.6-1.33,1.33-1.33s1.34.6,1.34,1.33-.6,1.33-1.34,1.33-1.33-.6-1.33-1.33"/>
      <path class="cls-4" d="M384.18,351.42c0-.48.39-.88.88-.88s.88.39.88.88-.39.88-.88.88-.88-.39-.88-.88"/>
      <path class="cls-4" d="M399.4,381.52c0-1.12.91-2.04,2.04-2.04s2.04.91,2.04,2.04-.91,2.04-2.04,2.04-2.04-.91-2.04-2.04"/>
      <path class="cls-4" d="M366.64,381.52c0-1.12.91-2.04,2.04-2.04s2.04.91,2.04,2.04-.91,2.04-2.04,2.04-2.04-.91-2.04-2.04"/>
      <path class="cls-4" d="M367.34,366.47c0-.74.6-1.33,1.33-1.33s1.34.6,1.34,1.33-.6,1.33-1.34,1.33-1.33-.6-1.33-1.33"/>
      <path class="cls-4" d="M367.8,351.42c0-.48.39-.88.88-.88s.88.39.88.88-.39.88-.88.88-.88-.39-.88-.88"/>
      <path class="cls-4" d="M400.1,366.47c0-.74.6-1.33,1.33-1.33s1.34.6,1.34,1.33-.6,1.33-1.34,1.33-1.33-.6-1.33-1.33"/>
      <path class="cls-4" d="M400.56,351.42c0-.48.39-.88.88-.88s.88.39.88.88-.39.88-.88.88-.88-.39-.88-.88"/>
      <path class="cls-4" d="M350.96,366.47c0-.74.6-1.33,1.33-1.33s1.34.6,1.34,1.33-.6,1.33-1.34,1.33-1.33-.6-1.33-1.33"/>
      <path class="cls-4" d="M351.42,351.42c0-.48.39-.88.88-.88s.88.39.88.88-.39.88-.88.88-.88-.39-.88-.88"/>
      <path class="cls-4" d="M350.26,381.52c0-1.12.91-2.04,2.04-2.04s2.04.91,2.04,2.04-.91,2.04-2.04,2.04-2.04-.91-2.04-2.04"/>
      <path class="cls-4" d="M357.97,389.05c0-1.39,1.12-2.51,2.51-2.51s2.51,1.12,2.51,2.51-1.12,2.51-2.51,2.51-2.51-1.12-2.51-2.51"/>
      <path class="cls-4" d="M356.48,404.1c0-2.21,1.79-4.01,4.01-4.01s4.01,1.79,4.01,4.01-1.79,4.01-4.01,4.01-4.01-1.79-4.01-4.01"/>
      <path class="cls-4" d="M355.64,419.15c0-2.68,2.17-4.85,4.85-4.85s4.85,2.17,4.85,4.85-2.17,4.85-4.85,4.85-4.85-2.17-4.85-4.85"/>
      <path class="cls-4" d="M354.03,434.2c0-3.56,2.89-6.45,6.45-6.45s6.45,2.89,6.45,6.45-2.89,6.45-6.45,6.45-6.45-2.89-6.45-6.45"/>
      <path class="cls-4" d="M352.68,449.26c0-4.31,3.49-7.81,7.81-7.81s7.81,3.49,7.81,7.81-3.49,7.81-7.81,7.81-7.81-3.49-7.81-7.81"/>
      <path class="cls-4" d="M358.85,374c0-.9.73-1.63,1.63-1.63s1.63.73,1.63,1.63-.73,1.63-1.63,1.63-1.63-.73-1.63-1.63"/>
      <path class="cls-4" d="M359.41,358.95c0-.59.48-1.07,1.07-1.07s1.07.48,1.07,1.07-.48,1.07-1.07,1.07-1.07-.48-1.07-1.07"/>
    </g>
    <polygon class="cls-4" points="233.09 635 280.61 635 280.61 626.92 244.61 626.92 244.61 626.33 279.41 587.6 279.41 578.45 233.21 578.45 233.21 586.53 267.65 586.53 267.65 587.12 233.09 625.73 233.09 635"/>
    <polygon class="cls-4" points="232.19 731 281.51 731 281.51 721.08 248.21 721.08 248.21 720.49 280.31 685.44 280.31 674.45 232.31 674.45 232.31 684.37 264.47 684.37 264.47 684.96 232.19 719.89 232.19 731"/>
    <polygon class="cls-4" points="231.32 827 282.38 827 282.38 815.24 251.78 815.24 251.78 814.65 281.18 783.28 281.18 770.45 231.44 770.45 231.44 782.21 261.26 782.21 261.26 782.81 231.32 814.05 231.32 827"/>
    <rect class="cls-4" x="353.19" y="430" width="248.81" height="48"/>
    <g class="cls-8">
      <path class="cls-4" d="M493.75,43.44h1.28v-5.18c.61-.98,1.28-1.54,2.41-1.54s1.66.59,1.66,1.9v4.82h1.28v-4.78c0-1.98-.88-3.02-2.66-3.02-1.34,0-2.14.57-2.68,1.3v-4.38h-1.28v10.88ZM487.15,36.91h1.49v4.14c0,1.66.66,2.39,2.45,2.39h.93v-.09l-.11-1h-.85c-.85,0-1.14-.43-1.14-1.3v-4.14h2.11v-1.09h-2.11v-2h-1.28v2h-1.49v1.09ZM479.66,39.74v-.14c0-1.91.89-2.79,2.31-2.79,1.08,0,1.83.49,2.3.98v3.58c-.54.7-1.33,1.13-2.32,1.13-1.42,0-2.29-.88-2.29-2.76M481.84,43.63c1.05,0,1.93-.4,2.42-.96v.77h1.28v-10.88h-1.28v3.88c-.5-.4-1.31-.81-2.41-.81-2.05,0-3.48,1.45-3.48,3.96v.14c0,2.4,1.46,3.9,3.46,3.9M473.98,33.6c0,.58.48,1.06,1.06,1.06s1.06-.48,1.06-1.06-.48-1.06-1.06-1.06-1.06.48-1.06,1.06M472.94,43.44h4.22v-1.09h-1.47v-6.53h-2.64l-.14.96v.13h1.5v5.44h-1.47v1.09ZM462.29,43.44h2.22l1.49-6.53h.26l1.49,6.53h2.22l1.69-7.62h-1.33l-1.34,6.53h-.37l-1.48-6.53h-1.98l-1.5,6.53h-.37l-1.31-6.53h-1.36l1.69,7.62ZM450.37,41.92l3.82-7.03c.47.74.74,1.78.74,3.03v.22c0,2.6-1.16,4.25-3.02,4.25-.58,0-1.1-.16-1.53-.46M448.88,38.14v-.22c0-2.64,1.15-4.3,3.02-4.3.58,0,1.08.16,1.51.45l-3.82,7.03c-.46-.73-.72-1.74-.72-2.96M451.9,43.63c2.77,0,4.37-2.39,4.37-5.5v-.22c0-3.14-1.58-5.55-4.37-5.55s-4.37,2.42-4.37,5.55v.22c0,3.11,1.61,5.5,4.37,5.5M439.97,41.92l3.82-7.03c.47.74.74,1.78.74,3.03v.22c0,2.6-1.16,4.25-3.02,4.25-.58,0-1.1-.16-1.53-.46M438.48,38.14v-.22c0-2.64,1.15-4.3,3.02-4.3.58,0,1.08.16,1.51.45l-3.82,7.03c-.46-.73-.72-1.74-.72-2.96M441.5,43.63c2.77,0,4.37-2.39,4.37-5.5v-.22c0-3.14-1.58-5.55-4.37-5.55s-4.37,2.42-4.37,5.55v.22c0,3.11,1.61,5.5,4.37,5.5M427.48,43.44h7.57v-1.21h-3.1v-9.67h-3.74l-.54.99v.26h2.98v8.42h-3.15v1.21ZM413.52,32.48h-1.34v8.24h6.03l-1.79,1.78.93.94,3.39-3.4-3.39-3.39-.93.92,1.82,1.82h-4.72v-6.9Z"/>
      <path class="cls-4" d="M549.73,20.91h1.49v4.14c0,1.66.66,2.39,2.45,2.39h.93v-.09l-.11-1h-.85c-.85,0-1.14-.43-1.14-1.3v-4.14h2.11v-1.09h-2.11v-2h-1.28v2h-1.49v1.09ZM541.59,27.44h1.28v-5.18c.61-.98,1.28-1.54,2.41-1.54s1.66.59,1.66,1.9v4.82h1.28v-4.78c0-1.98-.88-3.02-2.66-3.02-1.34,0-2.14.57-2.68,1.3v-4.38h-1.28v10.88ZM533.32,23.74v-.14c0-1.91.89-2.79,2.31-2.79,1.08,0,1.83.49,2.3.98v3.58c-.54.7-1.33,1.13-2.32,1.13-1.42,0-2.29-.88-2.29-2.76M535.73,30.9c1.97,0,3.46-1.01,3.46-2.98v-8.1h-1.29v.59c-.5-.39-1.3-.78-2.38-.78-2.07,0-3.52,1.45-3.52,3.96v.14c0,2.4,1.47,3.9,3.5,3.9,1.02,0,1.89-.38,2.39-.92v1.21c0,1.23-.88,1.81-2.17,1.81-1.42,0-2.51-.68-3.05-1.39h-.19l.21,1.57c.56.48,1.63.99,3.03.99M527.6,17.6c0,.58.48,1.06,1.06,1.06s1.06-.48,1.06-1.06-.48-1.06-1.06-1.06-1.06.48-1.06,1.06M526.56,27.44h4.22v-1.09h-1.47v-6.53h-2.64l-.14.96v.13h1.5v5.44h-1.47v1.09ZM519.42,22.75c.26-1.23,1.12-1.95,2.38-1.95,1.42,0,2.11.9,2.11,1.89v.06h-4.5ZM521.92,27.63c1.21,0,2.27-.38,2.84-.98l.1-1.26h-.14c-.55.66-1.51,1.07-2.65,1.07-1.7,0-2.66-.98-2.73-2.62h5.86v-.43c0-2.48-1.34-3.78-3.38-3.78-2.17,0-3.8,1.53-3.8,3.94v.11c0,2.51,1.57,3.95,3.9,3.95M507.37,27.44h2.22l1.49-6.53h.26l1.49,6.53h2.22l1.69-7.62h-1.33l-1.34,6.53h-.37l-1.48-6.53h-1.98l-1.5,6.53h-.37l-1.31-6.53h-1.36l1.69,7.62ZM495.45,25.92l3.82-7.03c.47.74.74,1.78.74,3.03v.22c0,2.6-1.16,4.25-3.02,4.25-.58,0-1.1-.16-1.53-.46M493.95,22.14v-.22c0-2.64,1.15-4.3,3.02-4.3.58,0,1.08.16,1.51.45l-3.82,7.03c-.46-.73-.72-1.74-.72-2.96M496.98,27.63c2.77,0,4.37-2.39,4.37-5.5v-.22c0-3.14-1.58-5.55-4.37-5.55s-4.37,2.42-4.37,5.55v.22c0,3.11,1.61,5.5,4.37,5.5M485.05,25.92l3.82-7.03c.47.74.74,1.78.74,3.03v.22c0,2.6-1.16,4.25-3.02,4.25-.58,0-1.1-.16-1.53-.46M483.55,22.14v-.22c0-2.64,1.15-4.3,3.02-4.3.58,0,1.08.16,1.51.45l-3.82,7.03c-.46-.73-.72-1.74-.72-2.96M486.58,27.63c2.77,0,4.37-2.39,4.37-5.5v-.22c0-3.14-1.58-5.55-4.37-5.55s-4.37,2.42-4.37,5.55v.22c0,3.11,1.61,5.5,4.37,5.5M474.35,24v-.22c0-1.34,1.03-2.29,2.64-2.29s2.61.95,2.61,2.27v.24c0,1.39-1.03,2.38-2.64,2.38s-2.61-.99-2.61-2.38M476.96,27.63c2.31,0,3.99-1.56,3.99-3.63v-.24c0-2.1-1.51-3.52-3.69-3.52-.98,0-1.68.28-2.15.66.7-1.44,2.3-2.97,3.76-4.34h-1.7c-1.68,1.6-4.17,3.91-4.17,7.02v.27c0,2.19,1.61,3.78,3.96,3.78M463.5,17.61l3.46,3.46h-8.38v1.34h8.41l-3.49,3.48.95.95,4.14-4.14.94-.94-.94-.95-4.14-4.14-.96.95ZM450.37,25.92l3.82-7.03c.47.74.74,1.78.74,3.03v.22c0,2.6-1.16,4.25-3.02,4.25-.58,0-1.1-.16-1.53-.46M448.88,22.14v-.22c0-2.64,1.15-4.3,3.02-4.3.58,0,1.08.16,1.51.45l-3.82,7.03c-.46-.73-.72-1.74-.72-2.96M451.9,27.63c2.77,0,4.37-2.39,4.37-5.5v-.22c0-3.14-1.58-5.55-4.37-5.55s-4.37,2.42-4.37,5.55v.22c0,3.11,1.61,5.5,4.37,5.5M439.97,25.92l3.82-7.03c.47.74.74,1.78.74,3.03v.22c0,2.6-1.16,4.25-3.02,4.25-.58,0-1.1-.16-1.53-.46M438.48,22.14v-.22c0-2.64,1.15-4.3,3.02-4.3.58,0,1.08.16,1.51.45l-3.82,7.03c-.46-.73-.72-1.74-.72-2.96M441.5,27.63c2.77,0,4.37-2.39,4.37-5.5v-.22c0-3.14-1.58-5.55-4.37-5.55s-4.37,2.42-4.37,5.55v.22c0,3.11,1.61,5.5,4.37,5.5M428.36,23.04v-.13l3.5-5.1h.18v5.23h-3.68ZM432.04,27.44h1.34v-3.15h1.52l.32-1.06v-.19h-1.84v-6.48h-2.03l-4.5,6.35v1.38h5.18v3.15ZM413.52,16.48h-1.34v8.24h6.03l-1.79,1.78.93.94,3.39-3.4-3.39-3.39-.93.92,1.82,1.82h-4.72v-6.9Z"/>
    </g>
    <polygon class="cls-4" points="205.03 542 396.13 478 13.93 478 205.03 542"/>
    <rect class="cls-4" x="13.93" y="78" width="354.39" height="400"/>
    <g class="cls-7">
      <path class="cls-3" d="M275.86,150.95c0,1.39-1.12,2.51-2.51,2.51s-2.51-1.12-2.51-2.51,1.12-2.51,2.51-2.51,2.51,1.12,2.51,2.51"/>
      <path class="cls-3" d="M277.39,135.9c0,2.23-1.81,4.05-4.05,4.05s-4.05-1.81-4.05-4.05,1.81-4.05,4.05-4.05,4.05,1.81,4.05,4.05"/>
      <path class="cls-3" d="M278.24,120.85c0,2.7-2.19,4.9-4.9,4.9s-4.9-2.19-4.9-4.9,2.19-4.9,4.9-4.9,4.9,2.19,4.9,4.9"/>
      <path class="cls-3" d="M279.86,105.79c0,3.6-2.92,6.52-6.52,6.52s-6.52-2.92-6.52-6.52,2.92-6.52,6.52-6.52,6.52,2.92,6.52,6.52"/>
      <path class="cls-3" d="M281.23,90.74c0,4.35-3.53,7.89-7.89,7.89s-7.89-3.53-7.89-7.89,3.53-7.89,7.89-7.89,7.89,3.53,7.89,7.89"/>
      <path class="cls-3" d="M275,166c0,.91-.74,1.65-1.65,1.65s-1.65-.74-1.65-1.65.74-1.65,1.65-1.65,1.65.74,1.65,1.65"/>
      <path class="cls-3" d="M274.32,181.05c0,.54-.44.97-.97.97s-.97-.43-.97-.97.44-.97.97-.97.97.43.97.97"/>
      <path class="cls-3" d="M285.14,143.44c0,1.99-1.61,3.6-3.61,3.6s-3.61-1.61-3.61-3.6,1.61-3.6,3.61-3.6,3.61,1.61,3.61,3.6"/>
      <path class="cls-3" d="M286.34,128.37c0,2.65-2.15,4.8-4.8,4.8s-4.8-2.15-4.8-4.8,2.15-4.8,4.8-4.8,4.8,2.15,4.8,4.8"/>
      <path class="cls-3" d="M287.35,113.32c0,3.21-2.6,5.81-5.81,5.81s-5.81-2.6-5.81-5.81,2.6-5.81,5.81-5.81,5.81,2.6,5.81,5.81"/>
      <path class="cls-3" d="M288.57,98.27c0,3.88-3.15,7.03-7.03,7.03s-7.03-3.15-7.03-7.03,3.15-7.03,7.03-7.03,7.03,3.15,7.03,7.03"/>
      <path class="cls-3" d="M290.04,83.72c0,4.7-3.81,8.5-8.5,8.5s-8.5-3.81-8.5-8.5,3.81-8.5,8.5-8.5,8.5,3.81,8.5,8.5"/>
      <path class="cls-3" d="M269.12,143.44c0,2.19-1.78,3.97-3.97,3.97s-3.97-1.78-3.97-3.97,1.78-3.97,3.97-3.97,3.97,1.78,3.97,3.97"/>
      <path class="cls-3" d="M269.96,128.37c0,2.65-2.15,4.8-4.8,4.8s-4.8-2.15-4.8-4.8,2.15-4.8,4.8-4.8,4.8,2.15,4.8,4.8"/>
      <path class="cls-3" d="M270.96,113.32c0,3.21-2.6,5.81-5.81,5.81s-5.81-2.6-5.81-5.81,2.6-5.81,5.81-5.81,5.81,2.6,5.81,5.81"/>
      <path class="cls-3" d="M272.18,98.27c0,3.88-3.15,7.03-7.03,7.03s-7.03-3.15-7.03-7.03,3.15-7.03,7.03-7.03,7.03,3.15,7.03,7.03"/>
      <path class="cls-3" d="M273.66,83.72c0,4.7-3.81,8.5-8.5,8.5s-8.5-3.81-8.5-8.5,3.81-8.5,8.5-8.5,8.5,3.81,8.5,8.5"/>
      <path class="cls-3" d="M301.53,143.44c0,1.99-1.61,3.6-3.61,3.6s-3.61-1.61-3.61-3.6,1.61-3.6,3.61-3.6,3.61,1.61,3.61,3.6"/>
      <path class="cls-3" d="M302.72,128.37c0,2.65-2.15,4.8-4.8,4.8s-4.8-2.15-4.8-4.8,2.15-4.8,4.8-4.8,4.8,2.15,4.8,4.8"/>
      <path class="cls-3" d="M303.73,113.32c0,3.21-2.6,5.81-5.81,5.81s-5.81-2.6-5.81-5.81,2.6-5.81,5.81-5.81,5.81,2.6,5.81,5.81"/>
      <path class="cls-3" d="M304.95,98.27c0,3.88-3.15,7.03-7.03,7.03s-7.03-3.15-7.03-7.03,3.15-7.03,7.03-7.03,7.03,3.15,7.03,7.03"/>
      <path class="cls-3" d="M306.42,83.72c0,4.7-3.81,8.5-8.5,8.5s-8.5-3.81-8.5-8.5,3.81-8.5,8.5-8.5,8.5,3.81,8.5,8.5"/>
      <path class="cls-3" d="M317.91,143.44c0,1.99-1.61,3.6-3.61,3.6s-3.61-1.61-3.61-3.6,1.61-3.6,3.61-3.6,3.61,1.61,3.61,3.6"/>
      <path class="cls-3" d="M319.1,128.37c0,2.65-2.15,4.8-4.8,4.8s-4.8-2.15-4.8-4.8,2.15-4.8,4.8-4.8,4.8,2.15,4.8,4.8"/>
      <path class="cls-3" d="M320.11,113.32c0,3.21-2.6,5.81-5.81,5.81s-5.81-2.6-5.81-5.81,2.6-5.81,5.81-5.81,5.81,2.6,5.81,5.81"/>
      <path class="cls-3" d="M321.33,98.27c0,3.88-3.15,7.03-7.03,7.03s-7.03-3.15-7.03-7.03,3.15-7.03,7.03-7.03,7.03,3.15,7.03,7.03"/>
      <path class="cls-3" d="M322.81,83.72c0,4.7-3.81,8.5-8.5,8.5s-8.5-3.81-8.5-8.5,3.81-8.5,8.5-8.5,8.5,3.81,8.5,8.5"/>
      <path class="cls-3" d="M292.24,150.95c0,1.39-1.12,2.51-2.51,2.51s-2.51-1.12-2.51-2.51,1.12-2.51,2.51-2.51,2.51,1.12,2.51,2.51"/>
      <path class="cls-3" d="M293.78,135.9c0,2.23-1.81,4.05-4.05,4.05s-4.05-1.81-4.05-4.05,1.81-4.05,4.05-4.05,4.05,1.81,4.05,4.05"/>
      <path class="cls-3" d="M294.63,120.85c0,2.7-2.19,4.9-4.9,4.9s-4.9-2.19-4.9-4.9,2.19-4.9,4.9-4.9,4.9,2.19,4.9,4.9"/>
      <path class="cls-3" d="M296.25,105.79c0,3.6-2.92,6.52-6.52,6.52s-6.52-2.92-6.52-6.52,2.92-6.52,6.52-6.52,6.52,2.92,6.52,6.52"/>
      <path class="cls-3" d="M297.62,90.74c0,4.35-3.53,7.89-7.89,7.89s-7.89-3.53-7.89-7.89,3.53-7.89,7.89-7.89,7.89,3.53,7.89,7.89"/>
      <path class="cls-3" d="M291.36,166c0,.9-.73,1.63-1.63,1.63s-1.63-.73-1.63-1.63.73-1.63,1.63-1.63,1.63.73,1.63,1.63"/>
      <path class="cls-3" d="M290.8,181.05c0,.59-.48,1.07-1.07,1.07s-1.07-.48-1.07-1.07.48-1.07,1.07-1.07,1.07.48,1.07,1.07"/>
      <path class="cls-3" d="M283.57,158.47c0,1.12-.91,2.03-2.04,2.03s-2.04-.91-2.04-2.03.91-2.03,2.04-2.03,2.04.91,2.04,2.03"/>
      <path class="cls-3" d="M282.87,173.53c0,.74-.6,1.34-1.33,1.34s-1.34-.6-1.34-1.34.6-1.34,1.34-1.34,1.33.6,1.33,1.34"/>
      <path class="cls-3" d="M282.42,188.58c0,.48-.39.88-.88.88s-.88-.39-.88-.88.39-.88.88-.88.88.39.88.88"/>
      <path class="cls-3" d="M267.19,158.47c0,1.12-.91,2.03-2.04,2.03s-2.04-.91-2.04-2.03.91-2.03,2.04-2.03,2.04.91,2.04,2.03"/>
      <path class="cls-3" d="M299.96,158.47c0,1.12-.91,2.03-2.04,2.03s-2.04-.91-2.04-2.03.91-2.03,2.04-2.03,2.04.91,2.04,2.03"/>
      <path class="cls-3" d="M299.26,173.53c0,.74-.6,1.34-1.33,1.34s-1.34-.6-1.34-1.34.6-1.34,1.34-1.34,1.33.6,1.33,1.34"/>
      <path class="cls-3" d="M298.8,188.58c0,.48-.39.88-.88.88s-.88-.39-.88-.88.39-.88.88-.88.88.39.88.88"/>
      <path class="cls-3" d="M266.49,173.53c0,.74-.6,1.34-1.33,1.34s-1.34-.6-1.34-1.34.6-1.34,1.34-1.34,1.33.6,1.33,1.34"/>
      <path class="cls-3" d="M266.03,188.58c0,.48-.39.88-.88.88s-.88-.39-.88-.88.39-.88.88-.88.88.39.88.88"/>
      <path class="cls-3" d="M315.64,173.53c0,.74-.6,1.34-1.33,1.34s-1.34-.6-1.34-1.34.6-1.34,1.34-1.34,1.33.6,1.33,1.34"/>
      <path class="cls-3" d="M315.18,188.58c0,.48-.39.88-.88.88s-.88-.39-.88-.88.39-.88.88-.88.88.39.88.88"/>
      <path class="cls-3" d="M316.34,158.47c0,1.12-.91,2.03-2.04,2.03s-2.04-.91-2.04-2.03.91-2.03,2.04-2.03,2.04.91,2.04,2.03"/>
      <path class="cls-3" d="M308.63,150.95c0,1.39-1.12,2.51-2.51,2.51s-2.51-1.12-2.51-2.51,1.12-2.51,2.51-2.51,2.51,1.12,2.51,2.51"/>
      <path class="cls-3" d="M310.12,135.9c0,2.21-1.79,4.01-4.01,4.01s-4.01-1.79-4.01-4.01,1.79-4.01,4.01-4.01,4.01,1.79,4.01,4.01"/>
      <path class="cls-3" d="M310.96,120.85c0,2.68-2.17,4.85-4.85,4.85s-4.85-2.17-4.85-4.85,2.17-4.85,4.85-4.85,4.85,2.17,4.85,4.85"/>
      <path class="cls-3" d="M312.56,105.79c0,3.56-2.89,6.45-6.45,6.45s-6.45-2.89-6.45-6.45,2.89-6.45,6.45-6.45,6.45,2.89,6.45,6.45"/>
      <path class="cls-3" d="M313.92,90.74c0,4.31-3.49,7.81-7.81,7.81s-7.81-3.5-7.81-7.81,3.49-7.81,7.81-7.81,7.81,3.5,7.81,7.81"/>
      <path class="cls-3" d="M307.75,166c0,.9-.73,1.63-1.63,1.63s-1.63-.73-1.63-1.63.73-1.63,1.63-1.63,1.63.73,1.63,1.63"/>
      <path class="cls-3" d="M307.18,181.05c0,.59-.48,1.07-1.07,1.07s-1.07-.48-1.07-1.07.48-1.07,1.07-1.07,1.07.48,1.07,1.07"/>
      <path class="cls-3" d="M325,150.95c0,1.39-1.12,2.51-2.51,2.51s-2.51-1.12-2.51-2.51,1.12-2.51,2.51-2.51,2.51,1.12,2.51,2.51"/>
      <path class="cls-3" d="M326.54,135.9c0,2.23-1.81,4.05-4.05,4.05s-4.05-1.81-4.05-4.05,1.81-4.05,4.05-4.05,4.05,1.81,4.05,4.05"/>
      <path class="cls-3" d="M327.39,120.85c0,2.7-2.19,4.9-4.9,4.9s-4.9-2.19-4.9-4.9,2.19-4.9,4.9-4.9,4.9,2.19,4.9,4.9"/>
      <path class="cls-3" d="M329.01,105.79c0,3.6-2.92,6.52-6.52,6.52s-6.52-2.92-6.52-6.52,2.92-6.52,6.52-6.52,6.52,2.92,6.52,6.52"/>
      <path class="cls-3" d="M330.38,90.74c0,4.35-3.53,7.89-7.89,7.89s-7.89-3.53-7.89-7.89,3.53-7.89,7.89-7.89,7.89,3.53,7.89,7.89"/>
      <path class="cls-3" d="M324.14,166c0,.91-.74,1.65-1.65,1.65s-1.65-.74-1.65-1.65.74-1.65,1.65-1.65,1.65.74,1.65,1.65"/>
      <path class="cls-3" d="M323.47,181.05c0,.54-.44.97-.97.97s-.97-.43-.97-.97.44-.97.97-.97.97.43.97.97"/>
      <path class="cls-3" d="M334.29,143.44c0,1.99-1.61,3.6-3.61,3.6s-3.61-1.61-3.61-3.6,1.61-3.6,3.61-3.6,3.61,1.61,3.61,3.6"/>
      <path class="cls-3" d="M335.48,128.37c0,2.65-2.15,4.8-4.8,4.8s-4.8-2.15-4.8-4.8,2.15-4.8,4.8-4.8,4.8,2.15,4.8,4.8"/>
      <path class="cls-3" d="M336.49,113.32c0,3.21-2.6,5.81-5.81,5.81s-5.81-2.6-5.81-5.81,2.6-5.81,5.81-5.81,5.81,2.6,5.81,5.81"/>
      <path class="cls-3" d="M337.71,98.27c0,3.88-3.15,7.03-7.03,7.03s-7.03-3.15-7.03-7.03,3.15-7.03,7.03-7.03,7.03,3.15,7.03,7.03"/>
      <path class="cls-3" d="M339.18,83.72c0,4.7-3.81,8.5-8.5,8.5s-8.5-3.81-8.5-8.5,3.81-8.5,8.5-8.5,8.5,3.81,8.5,8.5"/>
      <path class="cls-3" d="M319.1,128.37c0,2.65-2.15,4.8-4.8,4.8s-4.8-2.15-4.8-4.8,2.15-4.8,4.8-4.8,4.8,2.15,4.8,4.8"/>
      <path class="cls-3" d="M320.11,113.32c0,3.21-2.6,5.81-5.81,5.81s-5.81-2.6-5.81-5.81,2.6-5.81,5.81-5.81,5.81,2.6,5.81,5.81"/>
      <path class="cls-3" d="M321.33,98.27c0,3.88-3.15,7.03-7.03,7.03s-7.03-3.15-7.03-7.03,3.15-7.03,7.03-7.03,7.03,3.15,7.03,7.03"/>
      <path class="cls-3" d="M322.8,83.72c0,4.7-3.81,8.5-8.5,8.5s-8.5-3.81-8.5-8.5,3.81-8.5,8.5-8.5,8.5,3.81,8.5,8.5"/>
      <path class="cls-3" d="M350.67,143.44c0,1.99-1.61,3.6-3.61,3.6s-3.61-1.61-3.61-3.6,1.61-3.6,3.61-3.6,3.61,1.61,3.61,3.6"/>
      <path class="cls-3" d="M351.86,128.37c0,2.65-2.15,4.8-4.8,4.8s-4.8-2.15-4.8-4.8,2.15-4.8,4.8-4.8,4.8,2.15,4.8,4.8"/>
      <path class="cls-3" d="M352.87,113.32c0,3.21-2.6,5.81-5.81,5.81s-5.81-2.6-5.81-5.81,2.6-5.81,5.81-5.81,5.81,2.6,5.81,5.81"/>
      <path class="cls-3" d="M354.09,98.27c0,3.88-3.15,7.03-7.03,7.03s-7.03-3.15-7.03-7.03,3.15-7.03,7.03-7.03,7.03,3.15,7.03,7.03"/>
      <path class="cls-3" d="M355.57,83.72c0,4.7-3.81,8.5-8.5,8.5s-8.5-3.81-8.5-8.5,3.81-8.5,8.5-8.5,8.5,3.81,8.5,8.5"/>
      <path class="cls-3" d="M367.05,143.44c0,1.99-1.61,3.6-3.61,3.6s-3.61-1.61-3.61-3.6,1.61-3.6,3.61-3.6,3.61,1.61,3.61,3.6"/>
      <path class="cls-3" d="M368.25,128.37c0,2.65-2.15,4.8-4.8,4.8s-4.8-2.15-4.8-4.8,2.15-4.8,4.8-4.8,4.8,2.15,4.8,4.8"/>
      <path class="cls-3" d="M369.26,113.32c0,3.21-2.6,5.81-5.81,5.81s-5.81-2.6-5.81-5.81,2.6-5.81,5.81-5.81,5.81,2.6,5.81,5.81"/>
      <path class="cls-3" d="M370.47,98.27c0,3.88-3.15,7.03-7.03,7.03s-7.03-3.15-7.03-7.03,3.15-7.03,7.03-7.03,7.03,3.15,7.03,7.03"/>
      <path class="cls-3" d="M371.95,83.72c0,4.7-3.81,8.5-8.5,8.5s-8.5-3.81-8.5-8.5,3.81-8.5,8.5-8.5,8.5,3.81,8.5,8.5"/>
      <path class="cls-3" d="M341.39,150.95c0,1.39-1.12,2.51-2.51,2.51s-2.51-1.12-2.51-2.51,1.12-2.51,2.51-2.51,2.51,1.12,2.51,2.51"/>
      <path class="cls-3" d="M342.92,135.9c0,2.23-1.81,4.05-4.05,4.05s-4.05-1.81-4.05-4.05,1.81-4.05,4.05-4.05,4.05,1.81,4.05,4.05"/>
      <path class="cls-3" d="M343.77,120.85c0,2.7-2.19,4.9-4.9,4.9s-4.9-2.19-4.9-4.9,2.19-4.9,4.9-4.9,4.9,2.19,4.9,4.9"/>
      <path class="cls-3" d="M345.39,105.79c0,3.6-2.92,6.52-6.52,6.52s-6.52-2.92-6.52-6.52,2.92-6.52,6.52-6.52,6.52,2.92,6.52,6.52"/>
      <path class="cls-3" d="M346.76,90.74c0,4.35-3.53,7.89-7.89,7.89s-7.89-3.53-7.89-7.89,3.53-7.89,7.89-7.89,7.89,3.53,7.89,7.89"/>
      <path class="cls-3" d="M340.51,166c0,.9-.73,1.63-1.63,1.63s-1.63-.73-1.63-1.63.73-1.63,1.63-1.63,1.63.73,1.63,1.63"/>
      <path class="cls-3" d="M339.95,181.05c0,.59-.48,1.07-1.07,1.07s-1.07-.48-1.07-1.07.48-1.07,1.07-1.07,1.07.48,1.07,1.07"/>
      <path class="cls-3" d="M332.72,158.47c0,1.12-.91,2.03-2.04,2.03s-2.04-.91-2.04-2.03.91-2.03,2.04-2.03,2.04.91,2.04,2.03"/>
      <path class="cls-3" d="M332.02,173.53c0,.74-.6,1.34-1.33,1.34s-1.34-.6-1.34-1.34.6-1.34,1.34-1.34,1.33.6,1.33,1.34"/>
      <path class="cls-3" d="M331.56,188.58c0,.48-.39.88-.88.88s-.88-.39-.88-.88.39-.88.88-.88.88.39.88.88"/>
      <path class="cls-3" d="M316.34,158.47c0,1.12-.91,2.03-2.04,2.03s-2.04-.91-2.04-2.03.91-2.03,2.04-2.03,2.04.91,2.04,2.03"/>
      <path class="cls-3" d="M349.1,158.47c0,1.12-.91,2.03-2.04,2.03s-2.04-.91-2.04-2.03.91-2.03,2.04-2.03,2.04.91,2.04,2.03"/>
      <path class="cls-3" d="M348.4,173.53c0,.74-.6,1.34-1.33,1.34s-1.34-.6-1.34-1.34.6-1.34,1.34-1.34,1.33.6,1.33,1.34"/>
      <path class="cls-3" d="M347.94,188.58c0,.48-.39.88-.88.88s-.88-.39-.88-.88.39-.88.88-.88.88.39.88.88"/>
      <path class="cls-3" d="M315.64,173.53c0,.74-.6,1.34-1.33,1.34s-1.34-.6-1.34-1.34.6-1.34,1.34-1.34,1.33.6,1.33,1.34"/>
      <path class="cls-3" d="M315.18,188.58c0,.48-.39.88-.88.88s-.88-.39-.88-.88.39-.88.88-.88.88.39.88.88"/>
      <path class="cls-3" d="M364.78,173.53c0,.74-.6,1.34-1.33,1.34s-1.34-.6-1.34-1.34.6-1.34,1.34-1.34,1.33.6,1.33,1.34"/>
      <path class="cls-3" d="M364.32,188.58c0,.48-.39.88-.88.88s-.88-.39-.88-.88.39-.88.88-.88.88.39.88.88"/>
      <path class="cls-3" d="M365.48,158.47c0,1.12-.91,2.03-2.04,2.03s-2.04-.91-2.04-2.03.91-2.03,2.04-2.03,2.04.91,2.04,2.03"/>
      <path class="cls-3" d="M357.77,150.95c0,1.39-1.12,2.51-2.51,2.51s-2.51-1.12-2.51-2.51,1.12-2.51,2.51-2.51,2.51,1.12,2.51,2.51"/>
      <path class="cls-3" d="M359.26,135.9c0,2.21-1.79,4.01-4.01,4.01s-4.01-1.79-4.01-4.01,1.79-4.01,4.01-4.01,4.01,1.79,4.01,4.01"/>
      <path class="cls-3" d="M360.1,120.85c0,2.68-2.17,4.85-4.85,4.85s-4.85-2.17-4.85-4.85,2.17-4.85,4.85-4.85,4.85,2.17,4.85,4.85"/>
      <path class="cls-3" d="M361.71,105.79c0,3.56-2.89,6.45-6.45,6.45s-6.45-2.89-6.45-6.45,2.89-6.45,6.45-6.45,6.45,2.89,6.45,6.45"/>
      <path class="cls-3" d="M363.06,90.74c0,4.31-3.49,7.81-7.81,7.81s-7.81-3.5-7.81-7.81,3.49-7.81,7.81-7.81,7.81,3.5,7.81,7.81"/>
      <path class="cls-3" d="M356.89,166c0,.9-.73,1.63-1.63,1.63s-1.63-.73-1.63-1.63.73-1.63,1.63-1.63,1.63.73,1.63,1.63"/>
      <path class="cls-3" d="M356.33,181.05c0,.59-.48,1.07-1.07,1.07s-1.07-.48-1.07-1.07.48-1.07,1.07-1.07,1.07.48,1.07,1.07"/>
      <path class="cls-3" d="M374.15,150.95c0,1.39-1.12,2.51-2.51,2.51s-2.51-1.12-2.51-2.51,1.12-2.51,2.51-2.51,2.51,1.12,2.51,2.51"/>
      <path class="cls-3" d="M375.69,135.9c0,2.23-1.81,4.05-4.05,4.05s-4.05-1.81-4.05-4.05,1.81-4.05,4.05-4.05,4.05,1.81,4.05,4.05"/>
      <path class="cls-3" d="M376.54,120.85c0,2.7-2.19,4.9-4.9,4.9s-4.9-2.19-4.9-4.9,2.19-4.9,4.9-4.9,4.9,2.19,4.9,4.9"/>
      <path class="cls-3" d="M378.16,105.79c0,3.6-2.92,6.52-6.52,6.52s-6.52-2.92-6.52-6.52,2.92-6.52,6.52-6.52,6.52,2.92,6.52,6.52"/>
      <path class="cls-3" d="M379.53,90.74c0,4.35-3.53,7.89-7.89,7.89s-7.89-3.53-7.89-7.89,3.53-7.89,7.89-7.89,7.89,3.53,7.89,7.89"/>
      <path class="cls-3" d="M373.29,166c0,.91-.74,1.65-1.65,1.65s-1.65-.74-1.65-1.65.74-1.65,1.65-1.65,1.65.74,1.65,1.65"/>
      <path class="cls-3" d="M372.61,181.05c0,.54-.44.97-.97.97s-.97-.43-.97-.97.44-.97.97-.97.97.43.97.97"/>
      <path class="cls-3" d="M383.44,143.44c0,1.99-1.61,3.6-3.61,3.6s-3.61-1.61-3.61-3.6,1.61-3.6,3.61-3.6,3.61,1.61,3.61,3.6"/>
      <path class="cls-3" d="M384.63,128.37c0,2.65-2.15,4.8-4.8,4.8s-4.8-2.15-4.8-4.8,2.15-4.8,4.8-4.8,4.8,2.15,4.8,4.8"/>
      <path class="cls-3" d="M385.64,113.32c0,3.21-2.6,5.81-5.81,5.81s-5.81-2.6-5.81-5.81,2.6-5.81,5.81-5.81,5.81,2.6,5.81,5.81"/>
      <path class="cls-3" d="M386.86,98.27c0,3.88-3.15,7.03-7.03,7.03s-7.03-3.15-7.03-7.03,3.15-7.03,7.03-7.03,7.03,3.15,7.03,7.03"/>
      <path class="cls-3" d="M388.33,83.72c0,4.7-3.81,8.5-8.5,8.5s-8.5-3.81-8.5-8.5,3.81-8.5,8.5-8.5,8.5,3.81,8.5,8.5"/>
      <path class="cls-3" d="M368.25,128.37c0,2.65-2.15,4.8-4.8,4.8s-4.8-2.15-4.8-4.8,2.15-4.8,4.8-4.8,4.8,2.15,4.8,4.8"/>
      <path class="cls-3" d="M369.26,113.32c0,3.21-2.6,5.81-5.81,5.81s-5.81-2.6-5.81-5.81,2.6-5.81,5.81-5.81,5.81,2.6,5.81,5.81"/>
      <path class="cls-3" d="M370.48,98.27c0,3.88-3.15,7.03-7.03,7.03s-7.03-3.15-7.03-7.03,3.15-7.03,7.03-7.03,7.03,3.15,7.03,7.03"/>
      <path class="cls-3" d="M371.95,83.72c0,4.7-3.81,8.5-8.5,8.5s-8.5-3.81-8.5-8.5,3.81-8.5,8.5-8.5,8.5,3.81,8.5,8.5"/>
      <path class="cls-3" d="M399.82,143.44c0,1.99-1.61,3.6-3.61,3.6s-3.61-1.61-3.61-3.6,1.61-3.6,3.61-3.6,3.61,1.61,3.61,3.6"/>
      <path class="cls-3" d="M401.01,128.37c0,2.65-2.15,4.8-4.8,4.8s-4.8-2.15-4.8-4.8,2.15-4.8,4.8-4.8,4.8,2.15,4.8,4.8"/>
      <path class="cls-3" d="M402.02,113.32c0,3.21-2.6,5.81-5.81,5.81s-5.81-2.6-5.81-5.81,2.6-5.81,5.81-5.81,5.81,2.6,5.81,5.81"/>
      <path class="cls-3" d="M403.24,98.27c0,3.88-3.15,7.03-7.03,7.03s-7.03-3.15-7.03-7.03,3.15-7.03,7.03-7.03,7.03,3.15,7.03,7.03"/>
      <path class="cls-3" d="M404.72,83.72c0,4.7-3.81,8.5-8.5,8.5s-8.5-3.81-8.5-8.5,3.81-8.5,8.5-8.5,8.5,3.81,8.5,8.5"/>
      <path class="cls-3" d="M416.2,143.44c0,1.99-1.61,3.6-3.61,3.6s-3.61-1.61-3.61-3.6,1.61-3.6,3.61-3.6,3.61,1.61,3.61,3.6"/>
      <path class="cls-3" d="M417.4,128.37c0,2.65-2.15,4.8-4.8,4.8s-4.8-2.15-4.8-4.8,2.15-4.8,4.8-4.8,4.8,2.15,4.8,4.8"/>
      <path class="cls-3" d="M418.4,113.32c0,3.21-2.6,5.81-5.81,5.81s-5.81-2.6-5.81-5.81,2.6-5.81,5.81-5.81,5.81,2.6,5.81,5.81"/>
      <path class="cls-3" d="M419.62,98.27c0,3.88-3.15,7.03-7.03,7.03s-7.03-3.15-7.03-7.03,3.15-7.03,7.03-7.03,7.03,3.15,7.03,7.03"/>
      <path class="cls-3" d="M421.1,83.72c0,4.7-3.81,8.5-8.5,8.5s-8.5-3.81-8.5-8.5,3.81-8.5,8.5-8.5,8.5,3.81,8.5,8.5"/>
      <path class="cls-3" d="M390.54,150.95c0,1.39-1.12,2.51-2.51,2.51s-2.51-1.12-2.51-2.51,1.12-2.51,2.51-2.51,2.51,1.12,2.51,2.51"/>
      <path class="cls-3" d="M392.07,135.9c0,2.23-1.81,4.05-4.05,4.05s-4.05-1.81-4.05-4.05,1.81-4.05,4.05-4.05,4.05,1.81,4.05,4.05"/>
      <path class="cls-3" d="M392.92,120.85c0,2.7-2.19,4.9-4.9,4.9s-4.9-2.19-4.9-4.9,2.19-4.9,4.9-4.9,4.9,2.19,4.9,4.9"/>
      <path class="cls-3" d="M394.54,105.79c0,3.6-2.92,6.52-6.52,6.52s-6.52-2.92-6.52-6.52,2.92-6.52,6.52-6.52,6.52,2.92,6.52,6.52"/>
      <path class="cls-3" d="M395.91,90.74c0,4.35-3.53,7.89-7.89,7.89s-7.89-3.53-7.89-7.89,3.53-7.89,7.89-7.89,7.89,3.53,7.89,7.89"/>
      <path class="cls-3" d="M389.66,166c0,.9-.73,1.63-1.63,1.63s-1.63-.73-1.63-1.63.73-1.63,1.63-1.63,1.63.73,1.63,1.63"/>
      <path class="cls-3" d="M389.09,181.05c0,.59-.48,1.07-1.07,1.07s-1.07-.48-1.07-1.07.48-1.07,1.07-1.07,1.07.48,1.07,1.07"/>
      <path class="cls-3" d="M381.87,158.47c0,1.12-.91,2.03-2.04,2.03s-2.04-.91-2.04-2.03.91-2.03,2.04-2.03,2.04.91,2.04,2.03"/>
      <path class="cls-3" d="M381.17,173.53c0,.74-.6,1.34-1.33,1.34s-1.34-.6-1.34-1.34.6-1.34,1.34-1.34,1.33.6,1.33,1.34"/>
      <path class="cls-3" d="M380.71,188.58c0,.48-.39.88-.88.88s-.88-.39-.88-.88.39-.88.88-.88.88.39.88.88"/>
      <path class="cls-3" d="M365.48,158.47c0,1.12-.91,2.03-2.04,2.03s-2.04-.91-2.04-2.03.91-2.03,2.04-2.03,2.04.91,2.04,2.03"/>
      <path class="cls-3" d="M398.25,158.47c0,1.12-.91,2.03-2.04,2.03s-2.04-.91-2.04-2.03.91-2.03,2.04-2.03,2.04.91,2.04,2.03"/>
      <path class="cls-3" d="M397.55,173.53c0,.74-.6,1.34-1.33,1.34s-1.34-.6-1.34-1.34.6-1.34,1.34-1.34,1.33.6,1.33,1.34"/>
      <path class="cls-3" d="M397.09,188.58c0,.48-.39.88-.88.88s-.88-.39-.88-.88.39-.88.88-.88.88.39.88.88"/>
      <path class="cls-3" d="M364.78,173.53c0,.74-.6,1.34-1.33,1.34s-1.34-.6-1.34-1.34.6-1.34,1.34-1.34,1.33.6,1.33,1.34"/>
      <path class="cls-3" d="M364.33,188.58c0,.48-.39.88-.88.88s-.88-.39-.88-.88.39-.88.88-.88.88.39.88.88"/>
      <path class="cls-3" d="M413.93,173.53c0,.74-.6,1.34-1.33,1.34s-1.34-.6-1.34-1.34.6-1.34,1.34-1.34,1.33.6,1.33,1.34"/>
      <path class="cls-3" d="M413.47,188.58c0,.48-.39.88-.88.88s-.88-.39-.88-.88.39-.88.88-.88.88.39.88.88"/>
      <path class="cls-3" d="M414.63,158.47c0,1.12-.91,2.03-2.04,2.03s-2.04-.91-2.04-2.03.91-2.03,2.04-2.03,2.04.91,2.04,2.03"/>
      <path class="cls-3" d="M406.92,150.95c0,1.39-1.12,2.51-2.51,2.51s-2.51-1.12-2.51-2.51,1.12-2.51,2.51-2.51,2.51,1.12,2.51,2.51"/>
      <path class="cls-3" d="M408.41,135.9c0,2.21-1.79,4.01-4.01,4.01s-4.01-1.79-4.01-4.01,1.79-4.01,4.01-4.01,4.01,1.79,4.01,4.01"/>
      <path class="cls-3" d="M409.25,120.85c0,2.68-2.17,4.85-4.85,4.85s-4.85-2.17-4.85-4.85,2.17-4.85,4.85-4.85,4.85,2.17,4.85,4.85"/>
      <path class="cls-3" d="M410.86,105.79c0,3.56-2.89,6.45-6.45,6.45s-6.45-2.89-6.45-6.45,2.89-6.45,6.45-6.45,6.45,2.89,6.45,6.45"/>
      <path class="cls-3" d="M412.21,90.74c0,4.31-3.49,7.81-7.81,7.81s-7.81-3.5-7.81-7.81,3.49-7.81,7.81-7.81,7.81,3.5,7.81,7.81"/>
      <path class="cls-3" d="M406.04,166c0,.9-.73,1.63-1.63,1.63s-1.63-.73-1.63-1.63.73-1.63,1.63-1.63,1.63.73,1.63,1.63"/>
      <path class="cls-3" d="M405.48,181.05c0,.59-.48,1.07-1.07,1.07s-1.07-.48-1.07-1.07.48-1.07,1.07-1.07,1.07.48,1.07,1.07"/>
      <path class="cls-3" d="M423.3,150.95c0,1.39-1.12,2.51-2.51,2.51s-2.51-1.12-2.51-2.51,1.12-2.51,2.51-2.51,2.51,1.12,2.51,2.51"/>
      <path class="cls-3" d="M424.83,135.9c0,2.23-1.81,4.05-4.05,4.05s-4.05-1.81-4.05-4.05,1.81-4.05,4.05-4.05,4.05,1.81,4.05,4.05"/>
      <path class="cls-3" d="M425.68,120.85c0,2.7-2.19,4.9-4.9,4.9s-4.9-2.19-4.9-4.9,2.19-4.9,4.9-4.9,4.9,2.19,4.9,4.9"/>
      <path class="cls-3" d="M427.3,105.79c0,3.6-2.92,6.52-6.52,6.52s-6.52-2.92-6.52-6.52,2.92-6.52,6.52-6.52,6.52,2.92,6.52,6.52"/>
      <path class="cls-3" d="M428.67,90.74c0,4.35-3.53,7.89-7.89,7.89s-7.89-3.53-7.89-7.89,3.53-7.89,7.89-7.89,7.89,3.53,7.89,7.89"/>
      <path class="cls-3" d="M422.43,166c0,.91-.74,1.65-1.65,1.65s-1.65-.74-1.65-1.65.74-1.65,1.65-1.65,1.65.74,1.65,1.65"/>
      <path class="cls-3" d="M421.76,181.05c0,.54-.44.97-.97.97s-.97-.43-.97-.97.44-.97.97-.97.97.43.97.97"/>
      <path class="cls-3" d="M432.58,143.44c0,1.99-1.61,3.6-3.61,3.6s-3.61-1.61-3.61-3.6,1.61-3.6,3.61-3.6,3.61,1.61,3.61,3.6"/>
      <path class="cls-3" d="M433.77,128.37c0,2.65-2.15,4.8-4.8,4.8s-4.8-2.15-4.8-4.8,2.15-4.8,4.8-4.8,4.8,2.15,4.8,4.8"/>
      <path class="cls-3" d="M434.78,113.32c0,3.21-2.6,5.81-5.81,5.81s-5.81-2.6-5.81-5.81,2.6-5.81,5.81-5.81,5.81,2.6,5.81,5.81"/>
      <path class="cls-3" d="M436,98.27c0,3.88-3.15,7.03-7.03,7.03s-7.03-3.15-7.03-7.03,3.15-7.03,7.03-7.03,7.03,3.15,7.03,7.03"/>
      <path class="cls-3" d="M437.48,83.72c0,4.7-3.81,8.5-8.5,8.5s-8.5-3.81-8.5-8.5,3.81-8.5,8.5-8.5,8.5,3.81,8.5,8.5"/>
      <path class="cls-3" d="M417.39,128.37c0,2.65-2.15,4.8-4.8,4.8s-4.8-2.15-4.8-4.8,2.15-4.8,4.8-4.8,4.8,2.15,4.8,4.8"/>
      <path class="cls-3" d="M418.4,113.32c0,3.21-2.6,5.81-5.81,5.81s-5.81-2.6-5.81-5.81,2.6-5.81,5.81-5.81,5.81,2.6,5.81,5.81"/>
      <path class="cls-3" d="M419.62,98.27c0,3.88-3.15,7.03-7.03,7.03s-7.03-3.15-7.03-7.03,3.15-7.03,7.03-7.03,7.03,3.15,7.03,7.03"/>
      <path class="cls-3" d="M421.09,83.72c0,4.7-3.81,8.5-8.5,8.5s-8.5-3.81-8.5-8.5,3.81-8.5,8.5-8.5,8.5,3.81,8.5,8.5"/>
      <path class="cls-3" d="M448.96,143.44c0,1.99-1.61,3.6-3.61,3.6s-3.61-1.61-3.61-3.6,1.61-3.6,3.61-3.6,3.61,1.61,3.61,3.6"/>
      <path class="cls-3" d="M450.16,128.37c0,2.65-2.15,4.8-4.8,4.8s-4.8-2.15-4.8-4.8,2.15-4.8,4.8-4.8,4.8,2.15,4.8,4.8"/>
      <path class="cls-3" d="M451.17,113.32c0,3.21-2.6,5.81-5.81,5.81s-5.81-2.6-5.81-5.81,2.6-5.81,5.81-5.81,5.81,2.6,5.81,5.81"/>
      <path class="cls-3" d="M452.38,98.27c0,3.88-3.15,7.03-7.03,7.03s-7.03-3.15-7.03-7.03,3.15-7.03,7.03-7.03,7.03,3.15,7.03,7.03"/>
      <path class="cls-3" d="M453.86,83.72c0,4.7-3.81,8.5-8.5,8.5s-8.5-3.81-8.5-8.5,3.81-8.5,8.5-8.5,8.5,3.81,8.5,8.5"/>
      <path class="cls-3" d="M465.35,143.44c0,1.99-1.61,3.6-3.61,3.6s-3.61-1.61-3.61-3.6,1.61-3.6,3.61-3.6,3.61,1.61,3.61,3.6"/>
      <path class="cls-3" d="M466.54,128.37c0,2.65-2.15,4.8-4.8,4.8s-4.8-2.15-4.8-4.8,2.15-4.8,4.8-4.8,4.8,2.15,4.8,4.8"/>
      <path class="cls-3" d="M467.55,113.32c0,3.21-2.6,5.81-5.81,5.81s-5.81-2.6-5.81-5.81,2.6-5.81,5.81-5.81,5.81,2.6,5.81,5.81"/>
      <path class="cls-3" d="M468.77,98.27c0,3.88-3.15,7.03-7.03,7.03s-7.03-3.15-7.03-7.03,3.15-7.03,7.03-7.03,7.03,3.15,7.03,7.03"/>
      <path class="cls-3" d="M470.24,83.72c0,4.7-3.81,8.5-8.5,8.5s-8.5-3.81-8.5-8.5,3.81-8.5,8.5-8.5,8.5,3.81,8.5,8.5"/>
      <path class="cls-3" d="M439.68,150.95c0,1.39-1.12,2.51-2.51,2.51s-2.51-1.12-2.51-2.51,1.12-2.51,2.51-2.51,2.51,1.12,2.51,2.51"/>
      <path class="cls-3" d="M441.21,135.9c0,2.23-1.81,4.05-4.05,4.05s-4.05-1.81-4.05-4.05,1.81-4.05,4.05-4.05,4.05,1.81,4.05,4.05"/>
      <path class="cls-3" d="M442.06,120.85c0,2.7-2.19,4.9-4.9,4.9s-4.9-2.19-4.9-4.9,2.19-4.9,4.9-4.9,4.9,2.19,4.9,4.9"/>
      <path class="cls-3" d="M443.68,105.79c0,3.6-2.92,6.52-6.52,6.52s-6.52-2.92-6.52-6.52,2.92-6.52,6.52-6.52,6.52,2.92,6.52,6.52"/>
      <path class="cls-3" d="M445.05,90.74c0,4.35-3.53,7.89-7.89,7.89s-7.89-3.53-7.89-7.89,3.53-7.89,7.89-7.89,7.89,3.53,7.89,7.89"/>
      <path class="cls-3" d="M438.8,166c0,.9-.73,1.63-1.63,1.63s-1.63-.73-1.63-1.63.73-1.63,1.63-1.63,1.63.73,1.63,1.63"/>
      <path class="cls-3" d="M438.24,181.05c0,.59-.48,1.07-1.07,1.07s-1.07-.48-1.07-1.07.48-1.07,1.07-1.07,1.07.48,1.07,1.07"/>
      <path class="cls-3" d="M431.01,158.47c0,1.12-.91,2.03-2.04,2.03s-2.04-.91-2.04-2.03.91-2.03,2.04-2.03,2.04.91,2.04,2.03"/>
      <path class="cls-3" d="M430.31,173.53c0,.74-.6,1.34-1.33,1.34s-1.34-.6-1.34-1.34.6-1.34,1.34-1.34,1.33.6,1.33,1.34"/>
      <path class="cls-3" d="M429.85,188.58c0,.48-.39.88-.88.88s-.88-.39-.88-.88.39-.88.88-.88.88.39.88.88"/>
      <path class="cls-3" d="M414.63,158.47c0,1.12-.91,2.03-2.04,2.03s-2.04-.91-2.04-2.03.91-2.03,2.04-2.03,2.04.91,2.04,2.03"/>
      <path class="cls-3" d="M447.39,158.47c0,1.12-.91,2.03-2.04,2.03s-2.04-.91-2.04-2.03.91-2.03,2.04-2.03,2.04.91,2.04,2.03"/>
      <path class="cls-3" d="M446.69,173.53c0,.74-.6,1.34-1.33,1.34s-1.34-.6-1.34-1.34.6-1.34,1.34-1.34,1.33.6,1.33,1.34"/>
      <path class="cls-3" d="M446.23,188.58c0,.48-.39.88-.88.88s-.88-.39-.88-.88.39-.88.88-.88.88.39.88.88"/>
      <path class="cls-3" d="M413.93,173.53c0,.74-.6,1.34-1.33,1.34s-1.34-.6-1.34-1.34.6-1.34,1.34-1.34,1.33.6,1.33,1.34"/>
      <path class="cls-3" d="M413.47,188.58c0,.48-.39.88-.88.88s-.88-.39-.88-.88.39-.88.88-.88.88.39.88.88"/>
      <path class="cls-3" d="M463.08,173.53c0,.74-.6,1.34-1.33,1.34s-1.34-.6-1.34-1.34.6-1.34,1.34-1.34,1.33.6,1.33,1.34"/>
      <path class="cls-3" d="M462.62,188.58c0,.48-.39.88-.88.88s-.88-.39-.88-.88.39-.88.88-.88.88.39.88.88"/>
      <path class="cls-3" d="M463.78,158.47c0,1.12-.91,2.03-2.04,2.03s-2.04-.91-2.04-2.03.91-2.03,2.04-2.03,2.04.91,2.04,2.03"/>
      <path class="cls-3" d="M456.06,150.95c0,1.39-1.12,2.51-2.51,2.51s-2.51-1.12-2.51-2.51,1.12-2.51,2.51-2.51,2.51,1.12,2.51,2.51"/>
      <path class="cls-3" d="M457.56,135.9c0,2.21-1.79,4.01-4.01,4.01s-4.01-1.79-4.01-4.01,1.79-4.01,4.01-4.01,4.01,1.79,4.01,4.01"/>
      <path class="cls-3" d="M458.4,120.85c0,2.68-2.17,4.85-4.85,4.85s-4.85-2.17-4.85-4.85,2.17-4.85,4.85-4.85,4.85,2.17,4.85,4.85"/>
      <path class="cls-3" d="M460,105.79c0,3.56-2.89,6.45-6.45,6.45s-6.45-2.89-6.45-6.45,2.89-6.45,6.45-6.45,6.45,2.89,6.45,6.45"/>
      <path class="cls-3" d="M461.36,90.74c0,4.31-3.49,7.81-7.81,7.81s-7.81-3.5-7.81-7.81,3.49-7.81,7.81-7.81,7.81,3.5,7.81,7.81"/>
      <path class="cls-3" d="M455.18,166c0,.9-.73,1.63-1.63,1.63s-1.63-.73-1.63-1.63.73-1.63,1.63-1.63,1.63.73,1.63,1.63"/>
      <path class="cls-3" d="M454.62,181.05c0,.59-.48,1.07-1.07,1.07s-1.07-.48-1.07-1.07.48-1.07,1.07-1.07,1.07.48,1.07,1.07"/>
    </g>
    <g class="cls-10">
      <path class="cls-3" d="M12.92,462h55.12v-223.24c26.18-40.31,55.12-62.7,103.69-62.7s71.31,24.46,71.31,78.55v207.39h55.12v-206.01c0-85.44-38.24-130.22-114.03-130.22-57.53,0-93.36,26.18-116.1,56.15v-47.89H12.92v327.96Z"/>
    </g>
  </g>
</svg>