<?xml version="1.0" encoding="UTF-8"?>
<svg id="Calque_1" xmlns="http://www.w3.org/2000/svg" xmlns:xlink="http://www.w3.org/1999/xlink" version="1.1" viewBox="0 0 496 710">
  <!-- Generator: Adobe Illustrator 29.1.0, SVG Export Plug-In . SVG Version: 2.1.0 Build 142)  -->
  <defs>
    <style>
      .st0 {
        fill: none;
      }

      .st1 {
        fill: #fff;
      }

      .st2 {
        clip-path: url(#clippath);
      }
    </style>
    <clipPath id="clippath">
      <rect class="st0" width="496" height="710"/>
    </clipPath>
  </defs>
  <g class="st2">
    <g>
      <path class="st1" d="M12.6,322.4c86.7,0,157-70.3,157-157S99.3,8.6,12.6,8.6v313.8Z"/>
      <path class="st1" d="M169.6,322.4c86.7,0,157-70.3,157-157S256.2,8.6,169.6,8.6v313.8Z"/>
      <path class="st1" d="M483.4,322.4c-86.7,0-157-70.3-157-157S396.7,8.4,483.4,8.4v313.9Z"/>
      <path class="st1" d="M247.9,363.1c-104.3,0-174.2,69-235.3,134.4l28.3,31.8c47.8-48.4,93.4-87.6,138.2-108.7-21.2,16.2-34.5,39.3-34.5,64.6,0,49.5,46.1,88.4,103.5,88.4s103.5-38.1,103.5-88.4-11.6-57.1-39.7-72.7c43,12.9,78.3,40.4,114.8,84.3-42.5,69.1-103.5,112.4-178.8,112.4s-105.3-23.9-152.1-70.7l-30.9,27.4c49.6,51.1,99.1,83.9,183.3,83.9s186.7-61.9,235.3-153c-56.9-76.1-127.6-133.7-235.5-133.7"/>
    </g>
  </g>
</svg>