<?xml version="1.0" encoding="UTF-8"?>
<svg id="Calque_1" data-name="Calque 1" xmlns="http://www.w3.org/2000/svg" xmlns:xlink="http://www.w3.org/1999/xlink" viewBox="0 0 616 860">
  <defs>
    <style>
      .cls-1 {
        stroke-dasharray: 0 0 46.87 46.87;
      }

      .cls-1, .cls-2, .cls-3, .cls-4, .cls-5, .cls-6, .cls-7 {
        fill: none;
      }

      .cls-1, .cls-3, .cls-4, .cls-5, .cls-6, .cls-7 {
        stroke: #fff;
      }

      .cls-1, .cls-4, .cls-7 {
        stroke-width: .5px;
      }

      .cls-8 {
        clip-path: url(#clippath);
      }

      .cls-2, .cls-9, .cls-10 {
        stroke-width: 0px;
      }

      .cls-3 {
        stroke-linejoin: bevel;
        stroke-width: 3px;
      }

      .cls-11 {
        clip-path: url(#clippath-1);
      }

      .cls-12 {
        clip-path: url(#clippath-4);
      }

      .cls-13 {
        clip-path: url(#clippath-3);
      }

      .cls-14 {
        clip-path: url(#clippath-2);
      }

      .cls-15 {
        clip-path: url(#clippath-7);
      }

      .cls-16 {
        clip-path: url(#clippath-8);
      }

      .cls-17 {
        clip-path: url(#clippath-6);
      }

      .cls-18 {
        clip-path: url(#clippath-5);
      }

      .cls-19 {
        clip-path: url(#clippath-9);
      }

      .cls-20 {
        clip-path: url(#clippath-14);
      }

      .cls-21 {
        clip-path: url(#clippath-13);
      }

      .cls-22 {
        clip-path: url(#clippath-12);
      }

      .cls-23 {
        clip-path: url(#clippath-10);
      }

      .cls-24 {
        clip-path: url(#clippath-11);
      }

      .cls-5 {
        stroke-miterlimit: 10;
      }

      .cls-7 {
        stroke-dasharray: 0 0 19.87 19.87;
      }

      .cls-10 {
        fill: #fff;
      }
    </style>
    <clipPath id="clippath">
      <rect class="cls-2" width="616" height="860"/>
    </clipPath>
    <clipPath id="clippath-1">
      <rect class="cls-2" width="616" height="860"/>
    </clipPath>
    <clipPath id="clippath-2">
      <rect class="cls-2" width="616" height="860"/>
    </clipPath>
    <clipPath id="clippath-3">
      <rect class="cls-2" width="616" height="860"/>
    </clipPath>
    <clipPath id="clippath-4">
      <rect class="cls-2" width="616" height="860"/>
    </clipPath>
    <clipPath id="clippath-5">
      <rect class="cls-2" width="616" height="860"/>
    </clipPath>
    <clipPath id="clippath-6">
      <rect class="cls-2" width="616" height="860"/>
    </clipPath>
    <clipPath id="clippath-7">
      <rect class="cls-2" width="616" height="860"/>
    </clipPath>
    <clipPath id="clippath-8">
      <rect class="cls-2" width="616" height="860"/>
    </clipPath>
    <clipPath id="clippath-9">
      <rect class="cls-2" width="616" height="860"/>
    </clipPath>
    <clipPath id="clippath-10">
      <rect class="cls-2" width="616" height="860"/>
    </clipPath>
    <clipPath id="clippath-11">
      <rect class="cls-2" width="616" height="860"/>
    </clipPath>
    <clipPath id="clippath-12">
      <rect class="cls-2" width="616" height="860"/>
    </clipPath>
    <clipPath id="clippath-13">
      <rect class="cls-2" x="636" width="616" height="860"/>
    </clipPath>
    <clipPath id="clippath-14">
      <rect class="cls-2" x="636" width="616" height="860"/>
    </clipPath>
  </defs>
  <g class="cls-8">
    <g class="cls-11">
      <path class="cls-10" d="M492.68,270h41.47v-110.16c0-40.61,27.22-63.94,67.39-57.46v-38.88c-30.67-2.59-53.57,6.91-67.39,27.65v-23.33h-41.47v202.18ZM276.12,168.91c0-42.34,25.06-70.42,62.21-70.42s61.78,27.65,61.78,68.69v3.46c0,41.04-24.62,68.26-61.78,68.26s-62.21-28.08-62.21-69.98M330.56,275.18c28.08,0,56.16-11.66,68.26-28.51v23.33h42.77V67.82h-42.77v23.33c-12.1-16.85-39.31-28.51-66.53-28.51-56.59,0-98.5,44.93-98.5,106.7s41.47,105.84,96.77,105.84M96.85,270h43.2l80.78-202.18h-43.63l-58.32,157.68L60.56,67.82H15.63l81.22,202.18Z"/>
      <path class="cls-10" d="M586.64,30.73h15.36c0-9.35-7.05-16.73-16.98-16.73v15.07h-15.02c0,9.15,7.14,16.93,16.64,16.93v-15.27Z"/>
      <path class="cls-10" d="M423.73,577.54l-115.4-115.4,68.28-68.28c45.2-45.2,90.88-36.06,121.17-5.77,36.06,36.06,34.62,80.78-10.58,125.98l-63.47,63.47ZM552.6,804.5l49.04-49.04-134.63-134.63,66.36-66.36c66.35-66.36,74.53-154.35,12.5-216.37-54.82-54.82-138-62.03-204.83,4.81l-125.02,125.02,336.58,336.58Z"/>
      <path class="cls-10" d="M99.16,43.6h1.63v-11.2h-3.65v1.44h2.02v9.76ZM89.94,41.78l4.24-6.26c.24.66.35,1.49.35,2.48,0,2.86-.99,4.35-2.9,4.35-.69,0-1.25-.19-1.7-.58M88.74,38c0-2.86.99-4.35,2.9-4.35.67,0,1.25.19,1.68.56l-4.21,6.29c-.24-.66-.37-1.49-.37-2.5M91.63,43.79c2.75,0,4.53-2.27,4.53-5.79s-1.78-5.79-4.53-5.79-4.53,2.27-4.53,5.79,1.78,5.79,4.53,5.79M75.57,43.6h1.54v-3.98c0-1.49.8-2.34,2-2.34s1.74.8,1.74,2.19v4.13h1.54v-4.34c0-2.02-1.22-3.34-2.99-3.34-.99,0-1.78.4-2.29,1.1v-.91h-1.54v7.49ZM67.28,39.86c0-1.57.93-2.61,2.3-2.61s2.29,1.02,2.29,2.54v.13c0,1.52-.91,2.53-2.29,2.53s-2.3-1.04-2.3-2.59M69.3,43.79c1.04,0,2.08-.43,2.53-1.06v.86h1.58v-7.49h-1.58v.86c-.45-.62-1.46-1.06-2.46-1.06-2.1,0-3.65,1.66-3.65,3.95s1.54,3.92,3.58,3.92M62.4,43.6h1.54v-11.2h-1.54v11.2ZM54.44,39.92v-.13c0-1.52.91-2.53,2.29-2.53s2.3,1.04,2.3,2.59-.93,2.61-2.3,2.61-2.29-1.02-2.29-2.54M52.95,47.18h1.54v-4.45c.45.62,1.46,1.06,2.46,1.06,2.1,0,3.65-1.66,3.65-3.95s-1.54-3.92-3.58-3.92c-1.04,0-2.08.43-2.53,1.06v-.86h-1.54v11.07ZM45.1,43.6h1.54v-3.33l2.9,3.33h1.95l-3.55-4.02,3.22-3.47h-1.94l-2.58,2.85v-6.56h-1.54v11.2ZM39.57,43.6h1.54v-4.08c0-1.5,1.01-2.37,2.5-2.13v-1.44c-1.14-.1-1.98.26-2.5,1.02v-.86h-1.54v7.49ZM31.47,39.86c0-1.54.94-2.54,2.37-2.54s2.38,1.01,2.38,2.54-.96,2.54-2.38,2.54-2.37-1.02-2.37-2.54M33.84,43.79c2.29,0,3.95-1.66,3.95-3.94s-1.66-3.94-3.95-3.94-3.94,1.65-3.94,3.94,1.66,3.94,3.94,3.94M17.94,43.6h1.78l2.29-7.86,2.29,7.86h1.78l3.42-11.2h-1.82l-2.46,8.58-2.54-8.58h-1.31l-2.54,8.58-2.46-8.58h-1.82l3.42,11.2Z"/>
      <path class="cls-10" d="M87.66,27.79c1.66,0,2.86-.88,2.86-2.3,0-2.69-4.14-1.9-4.14-3.41,0-.48.43-.83,1.17-.83.61,0,1.17.24,1.42,1.06l1.39-.43c-.3-1.07-1.2-1.95-2.77-1.95s-2.74.88-2.75,2.3c0,2.48,4.14,1.82,4.14,3.36,0,.54-.48.86-1.31.86-.9,0-1.44-.37-1.78-1.33l-1.38.45c.22.82,1.09,2.22,3.14,2.22M79.73,27.79c2.06,0,3.28-1.34,3.28-3.57v-4.11h-1.54v4.11c0,1.38-.66,2.21-1.74,2.21s-1.74-.83-1.74-2.21v-4.11h-1.54v4.11c0,2.22,1.23,3.57,3.28,3.57M72.86,27.6h1.54v-11.2h-1.54v11.2ZM67.59,27.79c1.73,0,3.01-.86,3.6-2.4l-1.39-.46c-.35.98-1.15,1.52-2.21,1.52-1.46,0-2.38-1.01-2.38-2.59s.93-2.59,2.38-2.59c1.1,0,1.9.54,2.26,1.52l1.33-.43c-.51-1.57-1.79-2.43-3.58-2.43-2.27,0-3.92,1.65-3.92,3.94s1.65,3.94,3.92,3.94M55.97,23.86c0-1.54.94-2.54,2.37-2.54s2.38,1.01,2.38,2.54-.96,2.54-2.38,2.54-2.37-1.02-2.37-2.54M58.33,27.79c2.29,0,3.95-1.66,3.95-3.94s-1.66-3.94-3.95-3.94-3.94,1.65-3.94,3.94,1.66,3.94,3.94,3.94M49.38,27.6h1.54v-4.08c0-1.5,1.01-2.37,2.5-2.13v-1.44c-1.14-.1-1.98.26-2.5,1.02v-.86h-1.54v7.49ZM41.88,21.68v-3.84h2.27c1.5,0,2.11.91,2.11,1.92,0,1.2-.77,1.92-2.27,1.92h-2.11ZM40.25,27.6h1.63v-4.48h2.21c2.21,0,3.81-1.33,3.81-3.39,0-1.82-1.26-3.33-3.49-3.33h-4.16v11.2ZM28.59,27.6h1.63v-4.91h4.82v-1.44h-4.82v-3.41h5.55v-1.44h-7.18v11.2ZM15.06,27.6h1.63v-8.19l3.46,5.46h.98l3.47-5.46v8.19h1.63v-11.2h-1.6l-3.98,6.38-3.97-6.38h-1.62v11.2Z"/>
      <path class="cls-10" d="M370.72,42.54v1.06h7.5v-1.44h-4.94c3.31-3.06,4.82-4.98,4.82-6.8s-1.58-3.15-3.74-3.15c-2.86,0-3.82,2.27-3.92,3.3l1.57.5c.21-1.2.74-2.35,2.43-2.35,1.34,0,2.03.74,2.03,1.78,0,1.52-1.46,3.28-5.74,7.12M362.88,41.78l4.24-6.26c.24.66.35,1.49.35,2.48,0,2.86-.99,4.35-2.9,4.35-.69,0-1.25-.19-1.7-.58M361.68,38c0-2.86.99-4.35,2.9-4.35.67,0,1.25.19,1.68.56l-4.21,6.29c-.24-.66-.37-1.49-.37-2.5M364.57,43.79c2.75,0,4.53-2.27,4.53-5.79s-1.78-5.79-4.53-5.79-4.53,2.27-4.53,5.79,1.78,5.79,4.53,5.79M355.83,43.79c1.66,0,2.86-.88,2.86-2.3,0-2.69-4.14-1.9-4.14-3.41,0-.48.43-.83,1.17-.83.61,0,1.17.24,1.42,1.06l1.39-.43c-.3-1.07-1.2-1.95-2.77-1.95s-2.74.88-2.75,2.3c0,2.48,4.14,1.82,4.14,3.36,0,.54-.48.86-1.31.86-.9,0-1.44-.37-1.78-1.33l-1.38.45c.22.82,1.09,2.22,3.14,2.22M347.65,43.79c2.16,0,3.81-1.34,3.81-3.07,0-4.02-5.76-3.22-5.76-5.52,0-1.09,1.09-1.58,1.92-1.58,1.33,0,2.02.67,2.29,1.82l1.57-.5c-.58-1.81-1.98-2.74-3.86-2.74s-3.55,1.44-3.55,2.96c0,3.71,5.76,2.85,5.76,5.55,0,1.14-1.06,1.63-2.13,1.63-1.41,0-2.26-.8-2.5-2.13l-1.57.51c.32,1.39,1.74,3.06,4.02,3.06M330.29,37.31v1.39h8.77l-3.04,2.24v1.62l5.47-3.98v-1.14l-5.47-4v1.63l3.04,2.24h-8.77ZM320.56,43.6h6.86v-1.44h-2.4v-9.76h-4.29v1.44h2.66v8.32h-2.83v1.44ZM313.09,41.78l4.24-6.26c.24.66.35,1.49.35,2.48,0,2.86-.99,4.35-2.9,4.35-.69,0-1.25-.19-1.7-.58M311.89,38c0-2.86.99-4.35,2.9-4.35.67,0,1.25.19,1.68.56l-4.21,6.29c-.24-.66-.37-1.49-.37-2.5M314.79,43.79c2.75,0,4.53-2.27,4.53-5.79s-1.78-5.79-4.53-5.79-4.53,2.27-4.53,5.79,1.78,5.79,4.53,5.79M306.04,43.79c1.66,0,2.86-.88,2.86-2.3,0-2.69-4.14-1.9-4.14-3.41,0-.48.43-.83,1.17-.83.61,0,1.17.24,1.42,1.06l1.39-.43c-.3-1.07-1.2-1.95-2.77-1.95s-2.74.88-2.75,2.3c0,2.48,4.14,1.82,4.14,3.36,0,.54-.48.86-1.31.86-.9,0-1.44-.37-1.78-1.33l-1.38.45c.22.82,1.09,2.22,3.14,2.22M297.86,43.79c2.16,0,3.81-1.34,3.81-3.07,0-4.02-5.76-3.22-5.76-5.52,0-1.09,1.09-1.58,1.92-1.58,1.33,0,2.02.67,2.29,1.82l1.57-.5c-.58-1.81-1.98-2.74-3.86-2.74s-3.55,1.44-3.55,2.96c0,3.71,5.76,2.85,5.76,5.55,0,1.14-1.06,1.63-2.13,1.63-1.41,0-2.26-.8-2.5-2.13l-1.57.51c.32,1.39,1.74,3.06,4.02,3.06"/>
      <path class="cls-10" d="M363.11,22.96c.21-1.02,1.09-1.71,2.22-1.71s1.89.66,1.97,1.71h-4.19ZM365.37,27.79c1.58,0,2.85-.77,3.55-2.32l-1.46-.45c-.34.88-1.04,1.42-2.1,1.42-1.33,0-2.29-.91-2.32-2.16h5.92v-.7c0-2.13-1.5-3.66-3.63-3.66s-3.82,1.65-3.82,3.94,1.54,3.94,3.86,3.94M353.93,23.92v-.13c0-1.52.91-2.53,2.29-2.53s2.3,1.04,2.3,2.59-.93,2.61-2.3,2.61-2.29-1.02-2.29-2.54M352.44,31.18h1.54v-4.45c.45.62,1.46,1.06,2.46,1.06,2.1,0,3.65-1.66,3.65-3.95s-1.54-3.92-3.58-3.92c-1.04,0-2.08.43-2.53,1.06v-.86h-1.54v11.07ZM344.93,31.18h1.63l4.4-11.07h-1.62l-2.16,5.84-2.16-5.84h-1.66l3.01,7.49-1.44,3.58ZM340.8,27.6h1.26v-1.34h-.98c-.85,0-1.01-.61-1.01-1.04v-3.76h1.98v-1.34h-1.98v-2.29h-1.54v2.29h-1.84v1.34h1.84v3.55c0,1.86,1.09,2.59,2.26,2.59M325.49,27.6h1.54v-3.98c0-1.49.8-2.34,2-2.34s1.74.8,1.74,2.19v4.13h1.54v-4.34c0-2.02-1.22-3.34-2.99-3.34-.99,0-1.78.4-2.29,1.1v-.91h-1.54v7.49ZM317.8,22.96c.21-1.02,1.09-1.71,2.22-1.71s1.89.66,1.97,1.71h-4.19ZM320.05,27.79c1.58,0,2.85-.77,3.55-2.32l-1.46-.45c-.34.88-1.04,1.42-2.1,1.42-1.33,0-2.29-.91-2.32-2.16h5.92v-.7c0-2.13-1.5-3.66-3.63-3.66s-3.82,1.65-3.82,3.94,1.54,3.94,3.86,3.94M308.61,23.92v-.13c0-1.52.91-2.53,2.29-2.53s2.3,1.04,2.3,2.59-.93,2.61-2.3,2.61-2.29-1.02-2.29-2.54M307.12,31.18h1.54v-4.45c.45.62,1.46,1.06,2.46,1.06,2.1,0,3.65-1.66,3.65-3.95s-1.54-3.92-3.58-3.92c-1.04,0-2.08.43-2.53,1.06v-.86h-1.54v11.07ZM295.59,22c0-2.53,1.7-4.35,4.03-4.35s4.03,1.82,4.03,4.35-1.7,4.35-4.03,4.35-4.03-1.82-4.03-4.35M299.62,27.79c3.28,0,5.66-2.43,5.66-5.79s-2.38-5.79-5.66-5.79-5.66,2.43-5.66,5.79,2.38,5.79,5.66,5.79"/>
      <path class="cls-10" d="M213.4,43.79c1.66,0,2.86-.88,2.86-2.3,0-2.69-4.14-1.9-4.14-3.41,0-.48.43-.83,1.17-.83.61,0,1.17.24,1.42,1.06l1.39-.43c-.3-1.07-1.2-1.95-2.77-1.95s-2.74.88-2.75,2.3c0,2.48,4.14,1.82,4.14,3.36,0,.54-.48.86-1.31.86-.9,0-1.44-.37-1.78-1.33l-1.38.45c.22.82,1.09,2.22,3.14,2.22M203.09,38.96c.21-1.02,1.09-1.71,2.22-1.71s1.89.66,1.97,1.71h-4.19ZM205.35,43.79c1.58,0,2.85-.77,3.55-2.32l-1.46-.45c-.34.88-1.04,1.42-2.1,1.42-1.33,0-2.29-.91-2.32-2.16h5.92v-.7c0-2.13-1.5-3.66-3.63-3.66s-3.82,1.65-3.82,3.94,1.54,3.94,3.86,3.94M198.17,43.6h1.54v-11.2h-1.54v11.2ZM190.67,47.18h1.63l4.4-11.07h-1.62l-2.16,5.84-2.16-5.84h-1.66l3.01,7.49-1.44,3.58ZM186.54,43.6h1.26v-1.34h-.98c-.85,0-1.01-.61-1.01-1.04v-3.76h1.98v-1.34h-1.98v-2.29h-1.54v2.29h-1.84v1.34h1.84v3.55c0,1.86,1.09,2.59,2.26,2.59M178.37,43.79c1.66,0,2.86-.88,2.86-2.3,0-2.69-4.14-1.9-4.14-3.41,0-.48.43-.83,1.17-.83.61,0,1.17.24,1.42,1.06l1.39-.43c-.3-1.07-1.2-1.95-2.77-1.95s-2.74.88-2.75,2.3c0,2.48,4.14,1.82,4.14,3.36,0,.54-.48.86-1.31.86-.9,0-1.44-.37-1.78-1.33l-1.38.45c.22.82,1.09,2.22,3.14,2.22M159.16,41.78l4.24-6.26c.24.66.35,1.49.35,2.48,0,2.86-.99,4.35-2.9,4.35-.69,0-1.25-.19-1.7-.58M157.96,38c0-2.86.99-4.35,2.9-4.35.67,0,1.25.19,1.68.56l-4.21,6.29c-.24-.66-.37-1.49-.37-2.5M160.85,43.79c2.75,0,4.53-2.27,4.53-5.79s-1.78-5.79-4.53-5.79-4.53,2.27-4.53,5.79,1.78,5.79,4.53,5.79M148.83,35.86c0-1.34.85-2.21,2.19-2.21s2.19.86,2.19,2.21-.85,2.3-2.19,2.3-2.19-.9-2.19-2.3M151.05,32.21c-2.3,0-3.87,1.49-3.87,3.66s1.6,3.73,3.74,3.73c.59,0,.99-.11,1.26-.29l-2.4,4.29h1.7l2.29-4.21c.82-1.5,1.09-2.42,1.09-3.41,0-2.35-1.55-3.78-3.81-3.78"/>
      <path class="cls-10" d="M202.13,27.79c1.66,0,2.86-.88,2.86-2.3,0-2.69-4.14-1.9-4.14-3.41,0-.48.43-.83,1.17-.83.61,0,1.17.24,1.42,1.06l1.39-.43c-.3-1.07-1.2-1.95-2.77-1.95s-2.74.88-2.75,2.3c0,2.48,4.14,1.82,4.14,3.36,0,.54-.48.86-1.31.86-.9,0-1.44-.37-1.78-1.33l-1.38.45c.22.82,1.09,2.22,3.14,2.22M196.48,27.6h1.26v-1.34h-.98c-.85,0-1.01-.61-1.01-1.04v-3.76h1.98v-1.34h-1.98v-2.29h-1.54v2.29h-1.84v1.34h1.84v3.55c0,1.86,1.09,2.59,2.26,2.59M187.66,27.79c2.06,0,3.28-1.34,3.28-3.57v-4.11h-1.54v4.11c0,1.38-.66,2.21-1.74,2.21s-1.74-.83-1.74-2.21v-4.11h-1.54v4.11c0,2.22,1.23,3.57,3.28,3.57M179.27,27.79c1.73,0,3.01-.86,3.6-2.4l-1.39-.46c-.35.98-1.15,1.52-2.21,1.52-1.46,0-2.38-1.01-2.38-2.59s.93-2.59,2.38-2.59c1.1,0,1.9.54,2.26,1.52l1.33-.43c-.51-1.57-1.79-2.43-3.58-2.43-2.27,0-3.92,1.65-3.92,3.94s1.65,3.94,3.92,3.94M159.38,19.86c0-1.34.85-2.21,2.19-2.21s2.19.86,2.19,2.21-.85,2.3-2.19,2.3-2.19-.9-2.19-2.3M161.6,16.21c-2.3,0-3.87,1.49-3.87,3.66s1.6,3.73,3.74,3.73c.59,0,.99-.11,1.26-.29l-2.4,4.29h1.7l2.29-4.21c.82-1.5,1.09-2.42,1.09-3.41,0-2.35-1.55-3.78-3.81-3.78M150.04,25.78l4.24-6.26c.24.66.35,1.49.35,2.48,0,2.86-.99,4.35-2.9,4.35-.69,0-1.25-.19-1.7-.58M148.84,22c0-2.86.99-4.35,2.9-4.35.67,0,1.25.19,1.68.56l-4.21,6.29c-.24-.66-.37-1.49-.37-2.5M151.74,27.79c2.75,0,4.53-2.27,4.53-5.79s-1.78-5.79-4.53-5.79-4.53,2.27-4.53,5.79,1.78,5.79,4.53,5.79"/>
      <path class="cls-10" d="M525.8,43.6h1.54v-3.98c0-1.49.8-2.34,2-2.34s1.74.8,1.74,2.19v4.13h1.54v-4.34c0-2.02-1.22-3.34-2.99-3.34-.99,0-1.78.4-2.29,1.1v-4.62h-1.54v11.2ZM522.87,43.6h1.26v-1.34h-.98c-.85,0-1.01-.61-1.01-1.04v-3.76h1.98v-1.34h-1.98v-2.29h-1.54v2.29h-1.84v1.34h1.84v3.55c0,1.86,1.09,2.59,2.26,2.59M511.19,39.86c0-1.57.93-2.61,2.3-2.61s2.29,1.02,2.29,2.54v.13c0,1.52-.91,2.53-2.29,2.53s-2.3-1.04-2.3-2.59M513.21,43.79c1.04,0,2.08-.43,2.53-1.06v.86h1.54v-11.2h-1.54v4.58c-.45-.62-1.46-1.06-2.46-1.06-2.1,0-3.65,1.66-3.65,3.95s1.54,3.92,3.58,3.92M506.15,34.24c0,.53.43.96.96.96s.96-.43.96-.96-.43-.94-.96-.94-.96.43-.96.94M506.34,43.6h1.54v-7.49h-1.54v7.49ZM495.37,43.6h1.92l1.55-4.82,1.55,4.82h1.92l2.53-7.49h-1.79l-1.7,5.76-1.79-5.76h-1.44l-1.79,5.76-1.7-5.76h-1.79l2.53,7.49ZM478.11,41.78l4.24-6.26c.24.66.35,1.49.35,2.48,0,2.86-.99,4.35-2.9,4.35-.69,0-1.25-.19-1.7-.58M476.91,38c0-2.86.99-4.35,2.9-4.35.67,0,1.25.19,1.68.56l-4.21,6.29c-.24-.66-.37-1.49-.37-2.5M479.81,43.79c2.75,0,4.53-2.27,4.53-5.79s-1.78-5.79-4.53-5.79-4.53,2.27-4.53,5.79,1.78,5.79,4.53,5.79M467.52,41.78l4.24-6.26c.24.66.35,1.49.35,2.48,0,2.86-.99,4.35-2.9,4.35-.69,0-1.25-.19-1.7-.58M466.32,38c0-2.86.99-4.35,2.9-4.35.67,0,1.25.19,1.68.56l-4.21,6.29c-.24-.66-.37-1.49-.37-2.5M469.22,43.79c2.75,0,4.53-2.27,4.53-5.79s-1.78-5.79-4.53-5.79-4.53,2.27-4.53,5.79,1.78,5.79,4.53,5.79M456.61,43.6h6.86v-1.44h-2.4v-9.76h-4.29v1.44h2.66v8.32h-2.83v1.44ZM440.94,32.72v7.49h7.01l-2.4,1.78v1.62l4.83-3.52v-1.14l-4.83-3.54v1.63l2.4,1.78h-5.47v-6.1h-1.54Z"/>
      <path class="cls-10" d="M540.25,27.6h1.26v-1.34h-.98c-.85,0-1.01-.61-1.01-1.04v-3.76h1.98v-1.34h-1.98v-2.29h-1.54v2.29h-1.84v1.34h1.84v3.55c0,1.86,1.09,2.59,2.26,2.59M528.04,27.6h1.54v-3.98c0-1.49.8-2.34,2-2.34s1.74.8,1.74,2.19v4.13h1.54v-4.34c0-2.02-1.22-3.34-2.99-3.34-.99,0-1.78.4-2.29,1.1v-4.62h-1.54v11.2ZM519.83,23.86c0-1.57.91-2.61,2.29-2.61s2.29,1.02,2.29,2.54v.13c0,1.52-.91,2.53-2.29,2.53s-2.29-1.04-2.29-2.59M522.12,31.38c2.29,0,3.76-1.41,3.76-3.78v-7.49h-1.54v.85c-.46-.61-1.46-1.04-2.45-1.04-2.08,0-3.63,1.66-3.63,3.95s1.52,3.92,3.57,3.92c1.04,0,2.05-.43,2.51-1.04v.85c0,1.52-.88,2.42-2.26,2.42-1.1,0-1.9-.58-2.27-1.55l-1.47.46c.61,1.58,1.97,2.45,3.78,2.45M514.78,18.24c0,.53.43.96.96.96s.96-.43.96-.96-.43-.94-.96-.94-.96.43-.96.94M514.97,27.6h1.54v-7.49h-1.54v7.49ZM507.32,22.96c.21-1.02,1.09-1.71,2.22-1.71s1.89.66,1.97,1.71h-4.19ZM509.57,27.79c1.58,0,2.85-.77,3.55-2.32l-1.46-.45c-.34.88-1.04,1.42-2.1,1.42-1.33,0-2.29-.91-2.32-2.16h5.92v-.7c0-2.13-1.5-3.66-3.63-3.66s-3.82,1.65-3.82,3.94,1.54,3.94,3.86,3.94M495.37,27.6h1.92l1.55-4.82,1.55,4.82h1.92l2.53-7.49h-1.79l-1.7,5.76-1.79-5.76h-1.44l-1.79,5.76-1.7-5.76h-1.79l2.53,7.49ZM478.96,25.78l4.24-6.26c.24.66.35,1.49.35,2.48,0,2.86-.99,4.35-2.9,4.35-.69,0-1.25-.19-1.7-.58M477.76,22c0-2.86.99-4.35,2.9-4.35.67,0,1.25.19,1.68.56l-4.21,6.29c-.24-.66-.37-1.49-.37-2.5M480.66,27.79c2.75,0,4.53-2.27,4.53-5.79s-1.78-5.79-4.53-5.79-4.53,2.27-4.53,5.79,1.78,5.79,4.53,5.79M468.37,25.78l4.24-6.26c.24.66.35,1.49.35,2.48,0,2.86-.99,4.35-2.9,4.35-.69,0-1.25-.19-1.7-.58M467.17,22c0-2.86.99-4.35,2.9-4.35.67,0,1.25.19,1.68.56l-4.21,6.29c-.24-.66-.37-1.49-.37-2.5M470.06,27.79c2.75,0,4.53-2.27,4.53-5.79s-1.78-5.79-4.53-5.79-4.53,2.27-4.53,5.79,1.78,5.79,4.53,5.79M457.83,23.44l3.41-5.14v5.14h-3.41ZM461.24,27.6h1.63v-2.72h1.38v-1.44h-1.38v-7.04h-2.03l-5.04,7.39v1.09h5.44v2.72ZM440.94,16.72v7.49h7.01l-2.4,1.78v1.62l4.83-3.52v-1.14l-4.83-3.54v1.63l2.4,1.78h-5.47v-6.1h-1.54Z"/>
    </g>
    <polygon class="cls-10" points="274.3 575.36 284.66 575.36 284.66 585.72 274.3 575.36"/>
    <polygon class="cls-10" points="34.79 566.73 27.47 559.4 34.79 552.07 34.79 566.73"/>
    <path class="cls-6" d="M284.66,575.36l-5.18,5.18M531.87,822.57l-5.18,5.18M235.22,525.91l-5.18,5.18M482.43,773.12l-5.18,5.18M185.78,476.47l-5.18,5.18M432.99,723.68l-5.18,5.18M136.33,427.03l-5.18,5.18M383.54,674.24l-5.18,5.18M86.89,377.59l-5.18,5.18M334.1,624.8l-5.18,5.18"/>
    <path class="cls-4" d="M282.19,572.88l-2.59,2.59M529.4,820.09l-2.59,2.59M232.75,523.44l-2.59,2.59M479.96,770.65l-2.59,2.59M183.3,474l-2.59,2.59M430.51,721.21l-2.59,2.59M133.86,424.56l-2.59,2.59M381.07,671.77l-2.59,2.59M84.42,375.11l-2.59,2.59M331.63,622.33l-2.59,2.59M279.72,570.41l-2.59,2.59M526.93,817.62l-2.59,2.59M230.27,520.97l-2.59,2.59M477.48,768.18l-2.59,2.59M180.83,471.53l-2.59,2.59M428.04,718.74l-2.59,2.59M131.39,422.09l-2.59,2.59M378.6,669.3l-2.59,2.59M81.95,372.64l-2.59,2.59M329.16,619.85l-2.59,2.59M277.24,567.94l-2.59,2.59M524.45,815.15l-2.59,2.59M227.8,518.5l-2.59,2.59M475.01,765.71l-2.59,2.59M178.36,469.05l-2.59,2.59M425.57,716.27l-2.59,2.59M128.92,419.61l-2.59,2.59M376.13,666.82l-2.59,2.59M79.48,370.17l-2.59,2.59M326.69,617.38l-2.59,2.59M274.77,565.47l-2.59,2.59M521.98,812.68l-2.59,2.59M225.33,516.02l-2.59,2.59M472.54,763.24l-2.59,2.59M175.89,466.58l-2.59,2.59M423.1,713.79l-2.59,2.59M126.45,417.14l-2.59,2.59M373.66,664.35l-2.59,2.59M77,367.7l-2.59,2.59M324.21,614.91l-2.59,2.59M272.3,562.99l-5.18,5.18M519.51,810.21l-5.18,5.18M222.86,513.55l-5.18,5.18M470.07,760.76l-5.18,5.18M173.42,464.11l-5.18,5.18M420.63,711.32l-5.18,5.18M123.97,414.67l-5.18,5.18M371.18,661.88l-5.18,5.18M74.53,365.23l-5.18,5.18M321.74,612.44l-5.18,5.18M269.83,560.52l-2.59,2.59M517.04,807.73l-2.59,2.59M220.38,511.08l-2.59,2.59M467.6,758.29l-2.59,2.59M170.94,461.64l-2.59,2.59M418.15,708.85l-2.59,2.59M121.5,412.2l-2.59,2.59M368.71,659.41l-2.59,2.59M72.06,362.75l-2.59,2.59M319.27,609.96l-2.59,2.59M267.35,558.05l-2.59,2.59M514.57,805.26l-2.59,2.59M217.91,508.61l-2.59,2.59M465.12,755.82l-2.59,2.59M168.47,459.17l-2.59,2.59M415.68,706.38l-2.59,2.59M119.03,409.72l-2.59,2.59M366.24,656.93l-2.59,2.59M69.59,360.28l-2.59,2.59M316.8,607.49l-2.59,2.59M264.88,555.58l-2.59,2.59M512.09,802.79l-2.59,2.59M215.44,506.14l-2.59,2.59M462.65,753.35l-2.59,2.59M166,456.69l-2.59,2.59M413.21,703.9l-2.59,2.59M116.56,407.25l-2.59,2.59M363.77,654.46l-2.59,2.59M67.11,357.81l-2.59,2.59M314.32,605.02l-2.59,2.59M262.41,553.11l-2.59,2.59M509.62,800.32l-2.59,2.59M212.97,503.66l-2.59,2.59M460.18,750.87l-2.59,2.59M163.53,454.22l-2.59,2.59M410.74,701.43l-2.59,2.59M114.08,404.78l-2.59,2.59M361.29,651.99l-2.59,2.59M64.64,355.34l-2.59,2.59M311.85,602.55l-2.59,2.59"/>
    <path class="cls-6" d="M259.94,550.63l-5.18,5.18M507.15,797.84l-5.18,5.18M210.5,501.19l-5.18,5.18M457.71,748.4l-5.18,5.18M161.05,451.75l-5.18,5.18M408.26,698.96l-5.18,5.18M111.61,402.31l-5.18,5.18M358.82,649.52l-5.18,5.18M62.17,352.87l-5.18,5.18M309.38,600.08l-5.18,5.18"/>
    <path class="cls-4" d="M257.47,548.16l-2.59,2.59M504.68,795.37l-2.59,2.59M208.02,498.72l-2.59,2.59M455.23,745.93l-2.59,2.59M158.58,449.28l-2.59,2.59M405.79,696.49l-2.59,2.59M109.14,399.84l-2.59,2.59M356.35,647.05l-2.59,2.59M59.7,350.39l-2.59,2.59M306.91,597.6l-2.59,2.59M254.99,545.69l-2.59,2.59M502.2,792.9l-2.59,2.59M205.55,496.25l-2.59,2.59M452.76,743.46l-2.59,2.59M156.11,446.81l-2.59,2.59M403.32,694.02l-2.59,2.59M106.67,397.36l-2.59,2.59M353.88,644.57l-2.59,2.59M57.23,347.92l-2.59,2.59M304.44,595.13l-2.59,2.59M252.52,543.22l-2.59,2.59M499.73,790.43l-2.59,2.59M203.08,493.78l-2.59,2.59M450.29,740.99l-2.59,2.59M153.64,444.33l-2.59,2.59M400.85,691.54l-2.59,2.59M104.2,394.89l-2.59,2.59M351.41,642.1l-2.59,2.59M54.75,345.45l-2.59,2.59M301.96,592.66l-2.59,2.59M250.05,540.75l-2.59,2.59M497.26,787.96l-2.59,2.59M200.61,491.3l-2.59,2.59M447.82,738.51l-2.59,2.59M151.17,441.86l-2.59,2.59M398.38,689.07l-2.59,2.59M101.72,392.42l-2.59,2.59M348.93,639.63l-2.59,2.59M52.28,342.98l-2.59,2.59M299.49,590.19l-2.59,2.59M247.58,538.27l-5.18,5.18M494.79,785.48l-5.18,5.18M198.14,488.83l-5.18,5.18M445.35,736.04l-5.18,5.18M148.69,439.39l-5.18,5.18M395.9,686.6l-5.18,5.18M99.25,389.95l-5.18,5.18M346.46,637.16l-5.18,5.18M49.81,340.51l-5.18,5.18M297.02,587.72l-5.18,5.18M245.11,535.8l-2.59,2.59M492.32,783.01l-2.59,2.59M195.66,486.36l-2.59,2.59M442.87,733.57l-2.59,2.59M146.22,436.92l-2.59,2.59M393.43,684.13l-2.59,2.59M96.78,387.47l-2.59,2.59M343.99,634.68l-2.59,2.59M47.34,338.03l-2.59,2.59M294.55,585.24l-2.59,2.59M242.63,533.33l-2.59,2.59M489.84,780.54l-2.59,2.59M193.19,483.89l-2.59,2.59M440.4,731.1l-2.59,2.59M143.75,434.45l-2.59,2.59M390.96,681.65l-2.59,2.59M94.31,385l-2.59,2.59M341.52,632.21l-2.59,2.59M44.87,335.56l-2.59,2.59M292.08,582.77l-2.59,2.59M240.16,530.86l-2.59,2.59M487.37,778.07l-2.59,2.59M190.72,481.41l-2.59,2.59M437.93,728.62l-2.59,2.59M141.28,431.97l-2.59,2.59M388.49,679.18l-2.59,2.59M91.84,382.53l-2.59,2.59M339.05,629.74l-2.59,2.59M42.39,333.09l-2.59,2.59M289.6,580.3l-2.59,2.59M237.69,528.39l-2.59,2.59M484.9,775.6l-2.59,2.59M188.25,478.94l-2.59,2.59M435.46,726.15l-2.59,2.59M138.81,429.5l-2.59,2.59M386.02,676.71l-2.59,2.59M89.36,380.06l-2.59,2.59M336.57,627.27l-2.59,2.59M39.92,330.62l-2.59,2.59M287.13,577.83l-2.59,2.59"/>
    <line class="cls-6" x1="37.45" y1="328.14" x2="32.27" y2="333.33"/>
    <polygon class="cls-10" points="248.94 559.43 249.86 560.34 252.54 557.65 251.69 556.79 252.15 556.33 253.54 557.71 250.38 560.87 251.16 561.64 250.69 562.11 248.47 559.89 248.94 559.43"/>
    <polygon class="cls-10" points="250.88 586.73 251.8 587.65 254.49 584.96 253.63 584.1 254.09 583.64 255.48 585.02 252.32 588.18 253.1 588.95 252.64 589.42 250.42 587.2 250.88 586.73"/>
    <g class="cls-14">
      <path class="cls-10" d="M231.04,610.13c.34-.34.35-.8-.08-1.23-.55-.55-1.09-.35-1.55-.03l-.35-.67c.36-.3,1.41-.72,2.33.2.7.7.8,1.62.19,2.23-.59.59-1.7.72-3.76.64l1.6,1.6-.47.47-2.43-2.43.34-.34c2.63.14,3.67.05,4.16-.45"/>
      <path class="cls-10" d="M203.49,633.58l.68.35c-.28.52-.31,1.09.15,1.55.46.46,1.13.53,1.6.06.5-.5.28-1.2-.25-1.73l.34-.34,1.6-.2-1.62-1.62.47-.46,2.29,2.29-.41.41-1.65.19c.33.57.42,1.32-.25,2-.61.6-1.72.75-2.58-.11-.67-.67-.8-1.63-.37-2.37"/>
    </g>
    <path class="cls-10" d="M181.4,659.2l-1.76-1.76.35-.35,4.02-.76.66.66-2.28,2.28.45.45-.46.46-.45-.44-.88.88-.53-.53.88-.88ZM181.87,658.74l1.66-1.66-2.76.56,1.1,1.1Z"/>
    <g class="cls-13">
      <path class="cls-10" d="M131.85,705.5c.32-.32.7-.53,1.45-.75l2.1-.62.55.55-2.16.61c.15.03.31.12.5.32.69.69.72,1.7,0,2.42s-1.69.68-2.44-.07-.77-1.69,0-2.45M132.33,707.5c.43.43.99.43,1.42,0,.46-.46.47-1.02.04-1.45-.43-.43-1-.42-1.45.04-.43.43-.44.99,0,1.42"/>
    </g>
    <polygon class="cls-10" points="111.9 729.16 110.08 727.34 110.55 726.87 112.94 729.27 112.48 729.73 107.81 731.37 107.25 730.81 111.9 729.16"/>
    <g class="cls-12">
      <path class="cls-10" d="M84.41,753.05c.36-.36.95-.48,1.41-.28-.16-.43-.03-.92.33-1.27.61-.61,1.42-.57,2.08.09.66.66.7,1.47.09,2.08-.35.35-.84.48-1.27.33.2.46.08,1.05-.28,1.41-.66.66-1.59.63-2.29-.07s-.73-1.63-.07-2.29M86.67,753.15c.34.34.78.34,1.12,0,.33-.33.32-.75-.03-1.09-.34-.34-.77-.35-1.09-.03-.35.35-.35.78,0,1.12M84.95,754.87c.38.38.92.38,1.29.01.35-.35.34-.88-.04-1.26-.38-.38-.91-.39-1.26-.04-.37.37-.37.92.01,1.29"/>
      <path class="cls-10" d="M274.64,582.45c1.14-1.14,2.45-1.3,3.34-.41.89.89.73,2.2-.41,3.34s-2.45,1.3-3.34.41-.73-2.2.41-3.34M274.48,583.9l3.39-.67c-.02-.26-.14-.51-.36-.72-.62-.62-1.42-.46-2.34.47-.33.33-.55.64-.69.93M274.7,585.32c.62.62,1.42.45,2.34-.47.32-.32.55-.63.69-.91l-3.39.65c.02.27.14.51.36.73"/>
      <path class="cls-10" d="M151.97,708.21c1.14-1.14,2.45-1.3,3.34-.41.89.89.73,2.2-.41,3.34-1.14,1.14-2.45,1.3-3.34.41s-.73-2.2.41-3.34M151.81,709.67l3.39-.67c-.02-.26-.15-.51-.36-.72-.62-.62-1.42-.45-2.34.47-.33.33-.55.64-.69.93M152.03,711.09c.61.61,1.42.46,2.34-.47.32-.32.55-.63.69-.91l-3.39.65c.02.27.14.51.36.74M151.98,706.92c-.32.32-.7.53-1.45.75l-2.1.62-.55-.55,2.16-.61c-.15-.03-.31-.12-.5-.32-.69-.69-.72-1.7,0-2.42.7-.7,1.69-.68,2.44.07s.77,1.69.01,2.45M150.04,706.38c.43.43,1,.42,1.45-.04.43-.43.44-.99,0-1.42-.43-.44-.99-.43-1.42,0s-.47,1.02-.04,1.45"/>
      <path class="cls-10" d="M130.7,682.82c1.32-.92,2.64-.85,3.36.18.72,1.03.33,2.3-.99,3.22s-2.64.85-3.36-.18c-.72-1.03-.33-2.3.99-3.22M130.29,684.23l3.47-.07c.03-.26-.05-.52-.23-.78-.5-.71-1.32-.7-2.4.05-.38.26-.66.53-.84.79M130.26,685.67c.5.71,1.32.7,2.4-.05.37-.26.66-.52.84-.78l-3.46.05c-.03.27.05.53.23.79M127.34,679.9c.42-.29,1.02-.3,1.44-.03-.08-.45.13-.91.54-1.19.71-.49,1.5-.32,2.04.45.54.77.43,1.58-.28,2.07-.41.29-.92.33-1.31.1.11.48-.1,1.05-.52,1.34-.76.53-1.68.34-2.24-.47-.57-.81-.43-1.74.33-2.27M129.55,680.4c.28.4.71.47,1.11.19.38-.26.44-.68.17-1.08-.28-.4-.69-.48-1.07-.22-.4.28-.48.71-.2,1.11M127.55,681.79c.31.44.84.54,1.27.24.41-.29.49-.81.18-1.25s-.83-.55-1.24-.26c-.43.3-.52.84-.22,1.28"/>
      <path class="cls-10" d="M114.31,654.32c1.46-.68,2.75-.38,3.28.76.53,1.14-.07,2.32-1.53,2.99-1.46.68-2.75.38-3.28-.76-.53-1.14.07-2.32,1.53-2.99M113.66,655.64l3.42.53c.07-.25.04-.53-.09-.8-.37-.79-1.18-.92-2.36-.36-.42.19-.74.41-.96.63M113.38,657.04c.37.79,1.17.91,2.36.36.41-.19.74-.4.96-.62l-3.41-.55c-.07.26-.04.53.09.81M115.39,652.14l-1.08-2.34.6-.28,1.43,3.07-.6.28-4.95-.07-.33-.72,4.94.04Z"/>
      <path class="cls-10" d="M103.21,623.69c1.56-.41,2.77.11,3.09,1.32.32,1.22-.47,2.27-2.03,2.68-1.56.41-2.77-.11-3.09-1.32-.32-1.22.47-2.27,2.03-2.68M102.34,624.87l3.28,1.12c.11-.23.13-.51.05-.81-.22-.84-1-1.11-2.27-.77-.45.12-.8.27-1.06.46M101.18,619.66c.44-.12.88-.1,1.64.08l2.13.52.2.75-2.18-.56c.11.1.21.26.28.53.25.95-.23,1.83-1.21,2.09-.96.26-1.81-.26-2.08-1.28-.26-1,.18-1.85,1.22-2.13M101.82,626.2c.22.84,1,1.11,2.27.77.44-.12.79-.26,1.06-.45l-3.27-1.14c-.12.24-.14.51-.06.82M100.6,621.64c.16.6.64.87,1.23.71.62-.16.92-.65.76-1.24-.16-.59-.65-.86-1.28-.7-.6.16-.88.64-.72,1.23"/>
      <path class="cls-10" d="M97.54,591.2c1.61-.13,2.71.59,2.81,1.84.11,1.26-.86,2.15-2.47,2.29-1.6.13-2.71-.59-2.81-1.84-.11-1.26.86-2.15,2.47-2.29M95.74,586.68l.29.7c-.46.25-.75.64-.71,1.22.06.69.52,1.1,1.18,1.04.67-.06,1.07-.51,1.01-1.17-.04-.46-.34-.8-.7-.95l.18-.79,2.75.23.22,2.69-.66.05-.18-2.09-1.42-.12c.2.15.41.49.45.99.09,1.08-.54,1.82-1.61,1.91-1.06.09-1.8-.57-1.9-1.7-.09-1.04.5-1.67,1.07-2M96.48,592.21l3.03,1.68c.15-.21.22-.48.19-.79-.07-.87-.79-1.26-2.1-1.15-.46.04-.83.13-1.12.26M95.73,593.43c.07.87.79,1.26,2.09,1.15.45-.04.83-.12,1.12-.26l-3.01-1.69c-.16.22-.22.48-.2.8"/>
      <path class="cls-10" d="M96.5,556.2l.25-2.77.5.05,3.13,2.9-.08.93-3.21-.3-.07.77-.66-.06.07-.77-1.24-.11.07-.74,1.24.11ZM97.59,558.74c1.6.15,2.57,1.05,2.45,2.31-.11,1.26-1.22,1.97-2.83,1.82-1.6-.15-2.57-1.05-2.45-2.31.11-1.25,1.22-1.97,2.83-1.82M97.15,556.26l2.39.22-2.22-2.07-.17,1.85ZM96.37,559.54l2.69,2.18c.19-.18.3-.44.33-.74.08-.87-.56-1.38-1.86-1.5-.46-.04-.84-.02-1.15.06M95.42,560.62c-.08.87.56,1.38,1.86,1.5.45.04.84.03,1.15-.06l-2.67-2.2c-.19.19-.31.43-.33.75"/>
      <path class="cls-10" d="M103.29,521.6l.04.76c-.59.02-1.1.28-1.27.9-.17.63.1,1.24.75,1.41.68.18,1.18-.36,1.38-1.08l.47.13.97,1.29.6-2.21.64.17-.85,3.13-.56-.15-.98-1.33c-.33.57-.94,1.03-1.86.78-.83-.22-1.51-1.12-1.19-2.29.25-.92,1.02-1.51,1.87-1.5M103.24,526.55c1.55.42,2.35,1.47,2.02,2.69-.33,1.22-1.54,1.73-3.1,1.31-1.56-.42-2.35-1.47-2.02-2.69.33-1.22,1.54-1.73,3.1-1.31M101.9,527.13l2.27,2.61c.21-.15.37-.38.45-.68.23-.84-.31-1.46-1.58-1.8-.44-.12-.83-.16-1.15-.13M100.78,528.03c-.23.84.31,1.46,1.58,1.8.44.12.82.17,1.14.14l-2.26-2.62c-.22.15-.37.38-.46.68"/>
      <path class="cls-10" d="M116.26,494.55c.43.2.87.06,1.13-.5.33-.7-.04-1.15-.5-1.47l.51-.55c.41.24,1.16,1.08.6,2.27-.42.9-1.26,1.3-2.04.94-.76-.36-1.26-1.35-1.88-3.32l-.96,2.05-.6-.28,1.46-3.11.44.21c.76,2.53,1.2,3.47,1.84,3.77M114.47,495.58c1.46.69,2.06,1.86,1.52,3.01-.54,1.14-1.82,1.44-3.28.75-1.46-.68-2.06-1.86-1.52-3.01.53-1.14,1.82-1.44,3.28-.75M113.05,495.93l1.79,2.97c.24-.11.43-.31.56-.59.37-.79-.05-1.49-1.24-2.05-.42-.2-.79-.3-1.11-.33M111.79,496.62c-.37.79.05,1.49,1.24,2.05.41.19.78.31,1.1.34l-1.77-2.98c-.25.11-.43.31-.57.59"/>
      <path class="cls-10" d="M133.8,466.32l.53-.76.54.38-.96,1.37-4.2-2.94.43-.61,3.66,2.56ZM131.12,466.83c1.32.92,1.71,2.18.98,3.22-.72,1.03-2.04,1.1-3.36.18-1.32-.92-1.71-2.18-.98-3.22.72-1.03,2.04-1.1,3.36-.18M129.66,466.93l1.25,3.23c.25-.07.47-.23.65-.48.5-.71.2-1.48-.87-2.23-.38-.27-.72-.43-1.03-.52M128.3,467.39c-.5.71-.2,1.48.87,2.23.37.26.71.44,1.02.52l-1.23-3.23c-.26.07-.48.23-.66.48"/>
      <path class="cls-10" d="M500.49,806.98c-.32.32-.7.53-1.45.75l-2.1.62-.55-.55,2.16-.61c-.15-.03-.31-.12-.5-.31-.69-.69-.72-1.7,0-2.42.7-.7,1.69-.68,2.44.07.73.73.77,1.69.01,2.45M498.54,806.44c.43.44,1,.42,1.45-.04.43-.44.44-.99,0-1.42-.44-.43-.99-.43-1.42,0-.46.45-.47,1.02-.04,1.45"/>
      <path class="cls-10" d="M523.32,831.11c1.14-1.14,2.45-1.3,3.34-.41.89.89.73,2.2-.41,3.34-1.14,1.14-2.45,1.3-3.34.41-.89-.89-.73-2.2.41-3.34M523.16,832.57l3.39-.67c-.02-.26-.15-.51-.36-.72-.62-.62-1.42-.45-2.34.47-.33.33-.55.64-.69.93M523.37,833.98c.61.62,1.42.46,2.34-.47.32-.32.55-.63.69-.92l-3.39.65c.02.27.14.51.36.73M519.17,829.66l.92.92,2.69-2.69-.86-.86.46-.47,1.39,1.39-3.16,3.16.78.78-.46.47-2.22-2.22.47-.47Z"/>
      <path class="cls-10" d="M199.69,509.23l.68.35c-.28.52-.31,1.09.15,1.55.46.46,1.13.53,1.6.06.5-.5.28-1.2-.25-1.73l.34-.34,1.6-.2-1.62-1.62.47-.46,2.29,2.29-.41.41-1.65.19c.33.57.42,1.32-.25,2-.61.61-1.72.75-2.58-.11-.67-.67-.8-1.63-.37-2.37"/>
    </g>
    <polygon class="cls-10" points="451.12 756.22 449.29 754.4 449.76 753.94 452.16 756.33 451.69 756.8 447.02 758.44 446.46 757.88 451.12 756.22"/>
    <g class="cls-18">
      <path class="cls-10" d="M150.16,459.96l.67.35c-.2.49-.16.98.25,1.39.49.49,1.1.5,1.57.03.48-.48.48-1.08.02-1.55-.33-.33-.78-.39-1.14-.27l-.37-.72,2.24-1.6,1.91,1.91-.47.47-1.48-1.48-1.16.82c.25-.02.63.11.98.46.77.77.77,1.74,0,2.5-.76.76-1.74.73-2.55-.07-.74-.73-.7-1.6-.47-2.22"/>
      <path class="cls-10" d="M397.37,707.17l.67.35c-.2.49-.16.98.25,1.39.49.49,1.1.5,1.57.03.48-.48.48-1.08.02-1.55-.33-.33-.78-.39-1.14-.27l-.37-.72,2.24-1.6,1.91,1.91-.47.47-1.48-1.49-1.16.82c.25-.02.63.11.98.46.77.77.77,1.74,0,2.5-.76.75-1.74.73-2.54-.07-.74-.73-.7-1.6-.47-2.22"/>
    </g>
    <polygon class="cls-10" points="105.02 410.13 103.2 408.31 103.67 407.84 106.06 410.24 105.6 410.7 100.92 412.34 100.37 411.78 105.02 410.13"/>
    <g class="cls-17">
      <path class="cls-10" d="M348.02,657.56l.68.35c-.28.52-.31,1.09.15,1.55.46.46,1.13.53,1.6.06.5-.5.28-1.2-.25-1.73l.34-.34,1.6-.2-1.62-1.62.47-.46,2.29,2.29-.41.41-1.65.19c.33.57.42,1.32-.25,2-.61.6-1.72.75-2.58-.11-.67-.67-.8-1.64-.37-2.37"/>
      <path class="cls-10" d="M55.51,362c-.32.32-.7.53-1.45.75l-2.1.62-.55-.55,2.16-.61c-.15-.03-.31-.12-.5-.32-.69-.69-.72-1.7,0-2.41.7-.7,1.69-.68,2.44.07.73.73.77,1.69,0,2.45M53.56,361.46c.44.43,1,.42,1.45-.04.43-.43.44-.99,0-1.42-.44-.43-.99-.43-1.42,0-.45.46-.47,1.02-.04,1.45"/>
    </g>
    <polygon class="cls-10" points="298.38 608.86 299.29 609.78 301.98 607.09 301.12 606.23 301.59 605.76 302.97 607.15 299.82 610.31 300.6 611.08 300.13 611.55 297.91 609.33 298.38 608.86"/>
    <g class="cls-15">
      <path class="cls-10" d="M228.17,534.3c.34-.34.35-.8-.08-1.23-.55-.55-1.09-.35-1.55-.03l-.35-.67c.36-.3,1.41-.72,2.33.2.7.7.8,1.62.19,2.23-.59.59-1.7.72-3.76.64l1.6,1.6-.47.46-2.43-2.43.34-.34c2.63.14,3.67.05,4.16-.45"/>
      <path class="cls-10" d="M471.92,781.25c.36-.36.95-.48,1.41-.28-.15-.42-.03-.92.33-1.27.61-.61,1.42-.57,2.08.09.66.66.7,1.47.09,2.08-.35.35-.84.48-1.27.33.2.46.08,1.05-.28,1.41-.66.66-1.59.63-2.29-.07s-.73-1.63-.07-2.29M474.18,781.35c.34.34.78.34,1.12,0,.33-.33.32-.75-.03-1.09-.34-.34-.77-.35-1.09-.03-.35.35-.35.78,0,1.12M472.46,783.07c.38.38.92.38,1.29.01.35-.35.34-.88-.04-1.26-.38-.38-.91-.39-1.26-.04-.37.37-.37.92.01,1.29"/>
    </g>
    <path class="cls-10" d="M176.68,486.34l-1.76-1.76.35-.35,4.02-.76.66.66-2.28,2.28.45.44-.47.46-.44-.44-.88.88-.53-.53.88-.88ZM177.14,485.87l1.66-1.66-2.76.56,1.1,1.1Z"/>
    <g class="cls-16">
      <path class="cls-10" d="M422.54,731.64c.32-.32.7-.53,1.45-.75l2.1-.62.55.55-2.16.61c.14.03.31.12.5.32.69.69.72,1.7,0,2.42-.7.7-1.69.68-2.44-.07-.73-.73-.77-1.69,0-2.45M423.02,733.63c.43.43.99.43,1.42,0,.45-.46.47-1.02.04-1.45-.44-.44-1-.42-1.45.04-.43.43-.44.99,0,1.42"/>
      <path class="cls-10" d="M125.89,434.99c.32-.32.7-.53,1.45-.75l2.1-.62.55.55-2.16.61c.14.03.31.12.5.32.69.69.72,1.7,0,2.42s-1.69.68-2.44-.07c-.73-.73-.77-1.69-.01-2.45M126.37,436.98c.43.43.99.43,1.42,0,.46-.46.47-1.02.04-1.45-.43-.43-1-.42-1.45.04-.43.43-.44.99,0,1.42"/>
    </g>
    <path class="cls-10" d="M374.45,684.1l-1.76-1.76.35-.35,4.02-.76.66.66-2.28,2.28.44.45-.46.46-.44-.44-.88.88-.53-.53.88-.88ZM374.91,683.64l1.66-1.66-2.76.56,1.1,1.1Z"/>
    <g class="cls-19">
      <path class="cls-10" d="M76.39,385.71c.36-.36.95-.48,1.41-.28-.16-.42-.03-.92.33-1.27.61-.61,1.42-.57,2.08.09.66.66.7,1.48.09,2.08-.35.35-.84.48-1.27.33.2.45.08,1.04-.28,1.41-.66.66-1.59.63-2.29-.07s-.73-1.63-.07-2.29M78.64,385.82c.34.34.78.34,1.12,0,.33-.33.32-.75-.03-1.09-.34-.34-.77-.35-1.09-.03-.35.35-.35.78,0,1.12M76.92,387.53c.38.38.92.38,1.29.01.35-.35.34-.88-.04-1.26-.38-.38-.91-.39-1.26-.04-.37.37-.37.92.01,1.29"/>
      <path class="cls-10" d="M327.05,633.18c.34-.34.35-.8-.08-1.23-.55-.55-1.09-.35-1.55-.03l-.35-.67c.36-.3,1.41-.72,2.33.2.7.7.8,1.62.19,2.23-.59.59-1.7.72-3.76.64l1.6,1.6-.46.47-2.43-2.43.34-.34c2.63.14,3.67.05,4.16-.45"/>
      <path class="cls-10" d="M28.89,336.68c1.14-1.14,2.45-1.3,3.34-.41.89.89.73,2.2-.41,3.34-1.14,1.14-2.45,1.3-3.34.41-.89-.89-.73-2.2.41-3.34M28.73,338.13l3.39-.67c-.02-.26-.14-.51-.36-.72-.62-.62-1.42-.45-2.34.47-.33.33-.55.64-.69.92M28.94,339.55c.61.61,1.42.46,2.34-.47.32-.32.55-.63.69-.91l-3.39.65c.02.27.14.51.36.73M24.74,335.22l.92.92,2.69-2.69-.86-.86.47-.47,1.39,1.39-3.16,3.15.78.78-.47.47-2.22-2.22.47-.47Z"/>
    </g>
    <path class="cls-6" d="M270.73,589.29l-56.89,56.89M147.62,712.39l-113.74,113.74M33.88,826.13l-18.16,18.16"/>
    <path class="cls-4" d="M245.94,564.63l-56.82,56.82M169.16,641.41l-20.69,20.69M193.88,666.14l-20.69,20.69M125.58,684.99l-77.79,77.79M144.44,616.69l-12.69,12.69M106.99,654.14l-59.05,59.05M221.22,539.91l-56.82,56.82M196.5,515.19l-56.82,56.82M94.25,617.44l-46.26,46.26M171.78,490.47l-46.08,46.08M93,569.25l-45.11,45.11M92.23,520.57l-44.27,44.27M122.34,441.03l-74.89,74.89M97.62,416.3l-49.9,49.9M72.9,391.58l-24.95,24.95"/>
    <line class="cls-6" x1="48.17" y1="366.86" x2="44.48" y2="370.55"/>
    <path class="cls-4" d="M237.94,613.93l4.07,4.07M111.42,740.45l4.07,4.07M69.12,683.87l4.07,4.07M77.26,692.01l-4.07-4.07M89.62,465.61l4.07,4.07M163.78,539.77l4.07,4.07M97.76,473.75l-4.07-4.07M171.92,547.91l-4.07-4.07M214.15,637.73l4.07,4.07M87.63,764.24l4.07,4.07M65.82,489.4l4.07,4.07M139.99,563.56l4.07,4.07M73.96,497.54l-4.07-4.07M148.13,571.7l-4.07-4.07M257.14,590.3l6.29,6.29M130.62,716.81l6.29,6.29M108.81,441.97l6.29,6.29M121.39,454.55l-6.29-6.29M233.34,614.09l6.29,6.29M106.82,740.61l6.29,6.29M85.02,465.76l6.29,6.29M97.6,478.35l-6.29-6.29M266.5,585.38l4.07,4.07M139.98,711.9l4.07,4.07M97.67,655.32l4.07,4.07M105.82,663.46l-4.07-4.07M47.93,619.85l82.21,82.21M118.17,437.05l4.07,4.07M192.33,511.21l4.07,4.07M126.31,445.19l-4.07-4.07M200.47,519.36l-4.07-4.07M256.98,594.9l4.07,4.07M130.46,721.41l4.07,4.07M88.16,664.83l4.07,4.07M96.3,672.97l-4.07-4.07M108.65,446.57l4.07,4.07M182.82,520.73l4.07,4.07M116.79,454.71l-4.07-4.07M190.96,528.87l-4.07-4.07M233.18,618.69l4.07,4.07M106.67,745.21l4.07,4.07M84.86,470.36l4.07,4.07M159.02,544.53l4.07,4.07M93,478.51l-4.07-4.07M167.16,552.67l-4.07-4.07M264.12,587.76l4.07,4.07M137.6,714.28l4.07,4.07M95.3,657.69l4.07,4.07M103.44,665.84l-4.07-4.07M115.79,439.43l4.07,4.07M189.95,513.59l4.07,4.07M123.93,447.57l-4.07-4.07M198.1,521.74l-4.07-4.07M254.6,597.27l4.07,4.07M128.08,723.79l4.07,4.07M85.78,667.21l4.07,4.07M93.92,675.35l-4.07-4.07M106.27,448.95l4.07,4.07M180.44,523.11l4.07,4.07M114.41,457.09l-4.07-4.07M188.58,531.25l-4.07-4.07M230.8,621.07l4.07,4.07M104.29,747.59l4.07,4.07M82.48,472.74l4.07,4.07M156.64,546.91l4.07,4.07M90.62,480.88l-4.07-4.07M164.78,555.05l-4.07-4.07M261.74,590.14l4.07,4.07M135.22,716.65l4.07,4.07M92.92,660.07l4.07,4.07M101.06,668.22l-4.07-4.07M113.41,441.81l4.07,4.07M187.57,515.97l4.07,4.07M121.55,449.95l-4.07-4.07M195.71,524.11l-4.07-4.07M252.22,599.65l4.07,4.07M125.7,726.17l4.07,4.07M83.4,669.59l4.07,4.07M91.54,677.73l-4.07-4.07M103.89,451.33l4.07,4.07M178.06,525.49l4.07,4.07M112.03,459.47l-4.07-4.07M186.2,533.63l-4.07-4.07M228.42,623.45l4.07,4.07M101.91,749.97l4.07,4.07M80.1,475.12l4.07,4.07M154.26,549.29l4.07,4.07M88.24,483.26l-4.07-4.07M162.4,557.43l-4.07-4.07M249.84,602.03l4.07,4.07M123.32,728.55l4.07,4.07M81.02,671.97l4.07,4.07M89.16,680.11l-4.07-4.07M101.51,453.71l4.07,4.07M175.68,527.87l4.07,4.07M109.65,461.85l-4.07-4.07M183.82,536.01l-4.07-4.07M226.05,625.83l4.07,4.07M99.53,752.35l4.07,4.07M77.72,477.5l4.07,4.07M151.88,551.67l4.07,4.07M85.86,485.64l-4.07-4.07M160.02,559.81l-4.07-4.07M245.24,602.19l6.29,6.29M118.72,728.71l6.29,6.29M76.42,672.13l6.29,6.29M89,684.71l-6.29-6.29M96.91,453.87l6.29,6.29M171.08,528.03l6.29,6.29M109.5,466.45l-6.29-6.29M183.66,540.61l-6.29-6.29M221.45,625.99l6.29,6.29M94.93,752.51l6.29,6.29M73.12,477.66l6.29,6.29M147.28,551.82l6.29,6.29M85.7,490.24l-6.29-6.29M159.86,564.41l-6.29-6.29M245.08,606.79l4.07,4.07M118.56,733.31l4.07,4.07M76.26,676.73l4.07,4.07M84.4,684.87l-4.07-4.07M96.75,458.47l4.07,4.07M170.92,532.63l4.07,4.07M104.9,466.61l-4.07-4.07M179.06,540.77l-4.07-4.07M221.29,630.59l4.07,4.07M94.77,757.11l4.07,4.07M72.96,482.26l4.07,4.07M147.12,556.42l4.07,4.07M81.1,490.4l-4.07-4.07M155.26,564.57l-4.07-4.07M242.7,609.17l4.07,4.07M116.18,735.69l4.07,4.07M73.88,679.11l4.07,4.07M82.02,687.25l-4.07-4.07M47.89,667.39l58.46,58.46M47.95,762.62l24.72,24.72M94.38,460.85l4.07,4.07M168.54,535.01l4.07,4.07M102.52,468.99l-4.07-4.07M176.68,543.15l-4.07-4.07M218.91,632.97l4.07,4.07M92.39,759.49l4.07,4.07M47.93,715.02l34.63,34.63M70.58,484.64l4.07,4.07M144.74,558.8l4.07,4.07M78.72,492.78l-4.07-4.07M152.88,566.94l-4.07-4.07M240.32,611.55l4.07,4.07M113.8,738.07l4.07,4.07M71.5,681.49l4.07,4.07M79.64,689.63l-4.07-4.07M92,463.23l4.07,4.07M166.16,537.39l4.07,4.07M100.14,471.37l-4.07-4.07M174.3,545.53l-4.07-4.07M216.53,635.35l4.07,4.07M90.01,761.86l4.07,4.07M68.2,487.02l4.07,4.07M142.36,561.18l4.07,4.07M76.34,495.16l-4.07-4.07M150.5,569.32l-4.07-4.07M209.55,637.89l6.29,6.29M83.03,764.4l6.29,6.29M61.22,489.56l6.29,6.29M135.39,563.72l6.29,6.29M73.8,502.14l-6.29-6.29M147.97,576.3l-6.29-6.29M124.21,552.55l77.72,77.72M48.01,476.34l48.19,48.19M47.91,571.43l46.5,46.5M125.46,601.39l52.68,52.68M47.79,523.71l42.52,42.52M149.55,482.71l99.97,99.97M48.27,381.42l77.49,77.49M47.73,428.48l60.19,60.19M133.49,514.24l92.23,92.23"/>
    <line class="cls-1" x1="268.83" y1="571.73" x2="34.79" y2="559.4"/>
    <path class="cls-5" d="M149.38,669.81l-12.73,8.96M152.47,471.73l-7.09-5.33M150.75,474.07l-7.18-5.2M149.07,476.43l-7.27-5.08M147.43,478.82l-12.92-8.7M145.83,481.24l-7.44-4.82M144.27,483.69l-7.52-4.7M142.75,486.16l-7.6-4.57M141.28,488.66l-7.68-4.43M139.85,491.19l-10.38-5.76M138.47,493.74l-7.82-4.17M137.12,496.31l-7.9-4.03M135.83,498.9l-7.96-3.89M134.57,501.52l-8.03-3.76M133.37,504.16l-14.21-6.36M132.21,506.82l-8.15-3.48M131.09,509.5l-8.21-3.34M130.02,512.19l-8.27-3.2M129,514.91l-8.32-3.05M128.02,517.64l-11.22-3.9M127.1,520.39l-8.42-2.76M126.22,523.15l-8.47-2.62M125.38,525.93l-8.51-2.47M124.6,528.73l-8.56-2.33M123.86,531.53l-15.09-3.82M123.17,534.35l-8.63-2.03M122.53,537.18l-8.66-1.88M121.94,540.02l-8.69-1.73M121.4,542.87l-8.72-1.58M120.91,545.73l-11.72-1.92M120.47,548.6l-8.77-1.28M120.07,551.47l-8.79-1.13M119.73,554.35l-8.81-.98M119.43,557.24l-8.83-.83M119.19,560.13l-15.52-1.18M118.99,563.02l-8.85-.52M118.85,565.92l-8.86-.37M118.75,568.82l-8.86-.21M118.71,571.72l-8.86-.06M118.71,574.62l-63.02.12M118.77,577.52l-8.86.24M118.87,580.42l-8.86.4M119.03,583.32l-8.85.55M119.23,586.21l-8.84.7M119.48,589.1l-15.5,1.5M119.79,591.99l-8.81,1.01M120.14,594.86l-8.79,1.16M120.54,597.74l-8.77,1.31M121,600.6l-8.74,1.46M121.5,603.46l-11.68,2.15M122.05,606.31l-8.69,1.76M122.65,609.15l-8.66,1.91M123.3,611.97l-8.62,2.06M124,614.79l-8.59,2.21M124.74,617.6l-15.01,4.13M125.54,620.38l-8.5,2.5M126.38,623.16l-8.46,2.65M127.27,625.92l-8.41,2.79M128.21,628.67l-8.37,2.94M129.19,631.4l-11.14,4.12M130.22,634.11l-8.26,3.22M131.3,636.8l-8.2,3.36M132.42,639.48l-8.14,3.5M133.59,642.13l-8.08,3.65M134.81,644.76l-14.08,6.65M136.07,647.38l-7.95,3.92M137.37,649.97l-7.88,4.06M138.72,652.54l-7.81,4.19M140.12,655.08l-7.74,4.33M141.55,657.6l-10.26,5.97M143.04,660.1l-7.59,4.59M144.56,662.56l-7.5,4.72M146.12,665.01l-7.42,4.85M147.73,667.42l-7.34,4.98M151.07,672.17l-7.16,5.23M152.8,674.5l-7.07,5.35M154.57,676.79l-6.98,5.47M156.38,679.06l-6.88,5.59M158.23,681.3l-9.09,7.64M160.11,683.5l-6.69,5.82M162.04,685.67l-6.58,5.94M164,687.81l-6.48,6.05M166,689.91l-6.38,6.16M168.03,691.98l-11.01,11.01"/>
    <polyline class="cls-10" points="45.86 814.16 45.86 372.73 31.88 358.76 31.88 828.13 45.76 814.25"/>
    <g class="cls-23">
      <path class="cls-9" d="M38.91,400.08c2.42,0,3.98,1.22,3.98,3.11s-1.56,3.11-3.98,3.11-3.98-1.22-3.98-3.11,1.56-3.11,3.98-3.11M41.77,397.99v-3.87h.99v5.09h-.99l-6.7-3.22v-1.19l6.7,3.19ZM41.77,391.72v-1.38h.99v2.5h-7.69v-1.12h6.7ZM37.2,401.45l4.32,2.89c.25-.3.38-.69.38-1.15,0-1.31-1.02-1.99-2.99-1.99-.69,0-1.26.09-1.71.25M35.92,403.19c0,1.31,1.02,1.99,2.99,1.99.68,0,1.25-.08,1.7-.24l-4.3-2.91c-.26.31-.4.69-.4,1.16"/>
      <path class="cls-9" d="M38.91,455.96c2.42,0,3.98,1.22,3.98,3.11s-1.56,3.11-3.98,3.11-3.98-1.22-3.98-3.11,1.56-3.11,3.98-3.11M37.53,449.53c.68,0,1.31.19,2.34.75l2.89,1.57v1.16l-2.94-1.65c.12.19.2.46.2.87,0,1.47-1.04,2.57-2.56,2.57s-2.52-1.08-2.52-2.66.98-2.61,2.59-2.61M41.77,446.9v-1.38h.99v2.51h-7.69v-1.12h6.7ZM37.2,457.33l4.32,2.89c.25-.3.38-.69.38-1.15,0-1.31-1.02-1.99-2.99-1.99-.69,0-1.26.09-1.71.25M35.92,459.07c0,1.31,1.02,1.99,2.99,1.99.68,0,1.25-.08,1.7-.24l-4.3-2.91c-.26.31-.4.69-.4,1.17M35.92,452.16c0,.92.59,1.51,1.52,1.51s1.58-.58,1.58-1.51-.61-1.51-1.58-1.51-1.52.58-1.52,1.51"/>
      <path class="cls-9" d="M38.91,505.31c2.42,0,3.98,1.22,3.98,3.11s-1.56,3.11-3.98,3.11-3.98-1.22-3.98-3.11,1.56-3.11,3.98-3.11M36.79,498.51l.34,1.08c-.72.31-1.21.87-1.21,1.74,0,1.04.64,1.7,1.64,1.7s1.66-.64,1.66-1.63c0-.69-.41-1.24-.92-1.51l.37-1.17,4.09.68v4.05h-.99v-3.15l-2.11-.36c.29.25.55.79.55,1.54,0,1.63-1.03,2.66-2.65,2.66s-2.63-1.08-2.63-2.78c0-1.56.96-2.44,1.86-2.86M41.77,495.9v-1.38h.99v2.51h-7.69v-1.12h6.7ZM37.2,506.69l4.32,2.89c.25-.3.38-.69.38-1.15,0-1.31-1.02-1.99-2.99-1.99-.69,0-1.26.09-1.71.25M35.92,508.42c0,1.31,1.02,1.99,2.99,1.99.68,0,1.25-.08,1.7-.24l-4.3-2.91c-.26.31-.4.69-.4,1.16"/>
      <path class="cls-9" d="M38.91,546.95c2.42,0,3.98,1.22,3.98,3.11s-1.56,3.11-3.98,3.11-3.98-1.22-3.98-3.11,1.56-3.11,3.98-3.11M36.93,543.5v-4.17h.75l5.08,3.9v1.39h-4.83v1.17h-.99v-1.17h-1.87v-1.12h1.87ZM41.77,536.92v-1.38h.99v2.51h-7.69v-1.12h6.7ZM37.2,548.32l4.32,2.89c.25-.3.38-.69.38-1.15,0-1.31-1.02-1.99-2.99-1.99-.69,0-1.26.09-1.71.25M37.92,543.5h3.59l-3.59-2.78v2.78ZM35.92,550.05c0,1.31,1.02,1.99,2.99,1.99.68,0,1.25-.08,1.7-.24l-4.3-2.91c-.26.31-.4.69-.4,1.16"/>
      <path class="cls-9" d="M38.91,596.07c2.42,0,3.98,1.22,3.98,3.11s-1.56,3.11-3.98,3.11-3.98-1.22-3.98-3.11,1.56-3.11,3.98-3.11M37.05,589.07l.35,1.09c-.85.25-1.48.84-1.48,1.8s.64,1.76,1.64,1.76c1.05,0,1.57-.98,1.57-2.11h.72l1.91,1.49v-3.44h.99v4.87h-.87l-1.94-1.55c-.26.96-.96,1.86-2.38,1.86-1.29,0-2.63-1.03-2.63-2.86,0-1.43.89-2.58,2.12-2.91M41.77,586.67v-1.39h.99v2.51h-7.69v-1.12h6.7ZM37.2,597.44l4.32,2.89c.25-.3.38-.69.38-1.15,0-1.31-1.02-1.99-2.99-1.99-.69,0-1.26.09-1.71.25M35.92,599.18c0,1.31,1.02,1.99,2.99,1.99.68,0,1.25-.08,1.7-.24l-4.3-2.91c-.26.31-.4.69-.4,1.16"/>
      <path class="cls-9" d="M38.91,640.79c2.42,0,3.98,1.22,3.98,3.11s-1.56,3.11-3.98,3.11-3.98-1.22-3.98-3.11,1.56-3.11,3.98-3.11M40.68,638.44c.71,0,1.22-.47,1.22-1.39,0-1.17-.79-1.53-1.61-1.67l.34-1.08c.7.07,2.26.73,2.26,2.69,0,1.48-.88,2.57-2.16,2.57s-2.57-1.03-4.67-3.31v3.39h-.99v-5.15h.72c2.64,2.94,3.85,3.94,4.89,3.94M41.77,631.78v-1.38h.99v2.51h-7.69v-1.12h6.7ZM37.2,642.17l4.32,2.89c.25-.3.38-.69.38-1.15,0-1.31-1.02-1.99-2.99-1.99-.69,0-1.26.09-1.71.25M35.92,643.9c0,1.31,1.02,1.99,2.99,1.99.68,0,1.25-.08,1.7-.24l-4.3-2.91c-.26.31-.4.69-.4,1.16"/>
      <path class="cls-9" d="M38.91,691.26c2.42,0,3.98,1.22,3.98,3.11s-1.56,3.11-3.98,3.11-3.98-1.22-3.98-3.11,1.56-3.11,3.98-3.11M41.77,688.51v-1.38h.99v2.51h-7.69v-1.12h6.7ZM41.77,684.72v-1.38h.99v2.51h-7.69v-1.12h6.7ZM37.2,692.64l4.32,2.89c.25-.3.38-.69.38-1.15,0-1.31-1.02-1.99-2.99-1.99-.69,0-1.26.09-1.71.25M35.92,694.37c0,1.31,1.02,1.99,2.99,1.99.68,0,1.25-.08,1.7-.24l-4.3-2.91c-.26.31-.4.69-.4,1.16"/>
      <path class="cls-9" d="M38.91,744.69c2.42,0,3.98,1.22,3.98,3.11s-1.56,3.11-3.98,3.11-3.98-1.22-3.98-3.11,1.56-3.11,3.98-3.11M38.91,737.24c2.42,0,3.98,1.22,3.98,3.11s-1.56,3.11-3.98,3.11-3.98-1.22-3.98-3.11,1.56-3.11,3.98-3.11M41.77,734.49v-1.39h.99v2.5h-7.69v-1.12h6.7ZM37.2,746.06l4.32,2.89c.25-.3.38-.69.38-1.15,0-1.31-1.02-1.99-2.99-1.99-.69,0-1.26.09-1.71.25M37.2,738.61l4.32,2.89c.25-.3.38-.69.38-1.15,0-1.31-1.02-1.99-2.99-1.99-.69,0-1.26.09-1.71.25M35.92,747.8c0,1.31,1.02,1.99,2.99,1.99.68,0,1.25-.08,1.7-.24l-4.3-2.91c-.26.31-.4.69-.4,1.16M35.92,740.35c0,1.31,1.02,1.99,2.99,1.99.68,0,1.25-.08,1.7-.24l-4.3-2.91c-.26.31-.4.69-.4,1.17"/>
      <path class="cls-10" d="M53.77,400.08c2.42,0,3.98,1.22,3.98,3.11s-1.56,3.11-3.98,3.11-3.98-1.22-3.98-3.11,1.56-3.11,3.98-3.11M56.63,397.32v-1.39h.99v2.51h-7.69v-1.12h6.7ZM52.06,401.45l4.32,2.89c.25-.3.38-.69.38-1.15,0-1.31-1.02-1.99-2.99-1.99-.69,0-1.26.09-1.71.25M50.79,403.19c0,1.31,1.02,1.99,2.99,1.99.68,0,1.25-.08,1.7-.24l-4.3-2.91c-.26.31-.4.69-.4,1.16"/>
      <path class="cls-10" d="M53.77,455.96c2.42,0,3.98,1.22,3.98,3.11s-1.56,3.11-3.98,3.11-3.98-1.22-3.98-3.11,1.56-3.11,3.98-3.11M55.54,453.61c.71,0,1.22-.47,1.22-1.4,0-1.16-.79-1.53-1.62-1.67l.34-1.08c.7.07,2.26.72,2.26,2.69,0,1.48-.88,2.57-2.16,2.57s-2.57-1.03-4.67-3.31v3.39h-.99v-5.15h.72c2.64,2.94,3.85,3.94,4.89,3.94M52.06,457.34l4.32,2.89c.25-.3.38-.69.38-1.15,0-1.31-1.02-1.99-2.99-1.99-.69,0-1.26.09-1.71.25M50.79,459.07c0,1.31,1.02,1.99,2.99,1.99.68,0,1.25-.08,1.7-.24l-4.3-2.91c-.26.31-.4.69-.4,1.16"/>
      <path class="cls-10" d="M53.77,505.32c2.42,0,3.98,1.22,3.98,3.11s-1.56,3.11-3.98,3.11-3.98-1.22-3.98-3.11,1.56-3.11,3.98-3.11M51.92,498.31l.35,1.09c-.85.25-1.48.83-1.48,1.8s.64,1.76,1.64,1.76c1.05,0,1.57-.98,1.57-2.11h.72l1.91,1.49v-3.44h.99v4.87h-.87l-1.94-1.55c-.26.96-.96,1.86-2.38,1.86-1.29,0-2.63-1.03-2.63-2.86,0-1.43.89-2.58,2.12-2.91M52.06,506.69l4.32,2.89c.25-.3.38-.69.38-1.15,0-1.31-1.02-1.99-2.99-1.99-.69,0-1.26.09-1.71.25M50.79,508.43c0,1.31,1.02,1.99,2.99,1.99.68,0,1.25-.08,1.7-.24l-4.3-2.91c-.26.31-.4.69-.4,1.16"/>
      <path class="cls-10" d="M53.77,546.95c2.42,0,3.98,1.22,3.98,3.11s-1.56,3.11-3.98,3.11-3.98-1.22-3.98-3.11,1.56-3.11,3.98-3.11M51.8,543.5v-4.17h.75l5.08,3.9v1.4h-4.83v1.16h-.99v-1.16h-1.87v-1.12h1.87ZM52.06,548.32l4.32,2.89c.25-.3.38-.69.38-1.15,0-1.31-1.02-1.99-2.99-1.99-.69,0-1.26.09-1.71.25M52.79,543.5h3.59l-3.59-2.78v2.78ZM50.79,550.06c0,1.31,1.02,1.99,2.99,1.99.68,0,1.25-.08,1.7-.24l-4.3-2.91c-.26.31-.4.69-.4,1.16"/>
      <path class="cls-10" d="M53.77,596.07c2.42,0,3.98,1.22,3.98,3.11s-1.56,3.11-3.98,3.11-3.98-1.22-3.98-3.11,1.56-3.11,3.98-3.11M51.65,589.27l.34,1.08c-.72.31-1.21.87-1.21,1.74,0,1.04.64,1.7,1.64,1.7s1.66-.64,1.66-1.63c0-.69-.41-1.24-.92-1.51l.37-1.16,4.09.68v4.05h-.99v-3.15l-2.11-.36c.29.25.55.79.55,1.54,0,1.63-1.03,2.66-2.65,2.66s-2.63-1.08-2.63-2.78c0-1.56.96-2.44,1.86-2.86M52.06,597.45l4.32,2.89c.25-.3.38-.69.38-1.15,0-1.31-1.02-1.99-2.99-1.99-.69,0-1.26.09-1.71.25M50.79,599.18c0,1.31,1.02,1.99,2.99,1.99.68,0,1.25-.08,1.7-.24l-4.3-2.91c-.26.31-.4.69-.4,1.16"/>
      <path class="cls-10" d="M53.77,640.8c2.42,0,3.98,1.22,3.98,3.11s-1.56,3.11-3.98,3.11-3.98-1.22-3.98-3.11,1.56-3.11,3.98-3.11M52.39,634.37c.68,0,1.31.19,2.34.75l2.89,1.57v1.16l-2.94-1.65c.12.19.2.46.2.87,0,1.47-1.04,2.57-2.56,2.57s-2.52-1.08-2.52-2.66.98-2.61,2.59-2.61M52.06,642.18l4.32,2.89c.25-.3.38-.69.38-1.15,0-1.31-1.02-1.99-2.99-1.99-.69,0-1.26.09-1.71.25M50.79,643.91c0,1.31,1.02,1.99,2.99,1.99.68,0,1.25-.08,1.7-.24l-4.3-2.91c-.26.31-.4.69-.4,1.16M50.79,637.01c0,.92.59,1.51,1.52,1.51s1.58-.58,1.58-1.51-.61-1.51-1.58-1.51-1.52.58-1.52,1.51"/>
      <path class="cls-10" d="M53.77,691.28c2.42,0,3.98,1.22,3.98,3.11s-1.56,3.11-3.98,3.11-3.98-1.22-3.98-3.11,1.56-3.11,3.98-3.11M56.63,689.19v-3.87h.99v5.09h-.99l-6.7-3.22v-1.19l6.7,3.19ZM52.06,692.65l4.32,2.89c.25-.3.38-.69.38-1.15,0-1.31-1.02-1.99-2.99-1.99-.69,0-1.26.09-1.71.25M50.79,694.39c0,1.31,1.02,1.99,2.99,1.99.68,0,1.25-.08,1.7-.24l-4.3-2.91c-.26.31-.4.69-.4,1.16"/>
      <path class="cls-10" d="M53.77,744.7c2.42,0,3.98,1.22,3.98,3.11s-1.56,3.11-3.98,3.11-3.98-1.22-3.98-3.11,1.56-3.11,3.98-3.11M52.15,738.4c.77,0,1.52.51,1.79,1.2.29-.61.94-1,1.69-1,1.3,0,2.12.9,2.12,2.31s-.82,2.31-2.12,2.31c-.75,0-1.41-.38-1.69-1-.28.69-1.02,1.2-1.79,1.2-1.4,0-2.35-1.02-2.35-2.5s.96-2.5,2.35-2.5M52.06,746.07l4.32,2.89c.25-.3.38-.69.38-1.15,0-1.31-1.02-1.99-2.99-1.99-.69,0-1.26.09-1.71.25M54.43,740.9c0,.72.46,1.19,1.2,1.19.69,0,1.13-.46,1.13-1.19s-.44-1.19-1.13-1.19c-.74,0-1.2.46-1.2,1.19M50.79,747.81c0,1.31,1.02,1.99,2.99,1.99.68,0,1.25-.08,1.7-.24l-4.3-2.91c-.26.31-.4.69-.4,1.16M50.79,740.9c0,.8.57,1.38,1.36,1.38.75,0,1.3-.58,1.3-1.38s-.55-1.38-1.3-1.38c-.79,0-1.36.58-1.36,1.38"/>
    </g>
    <path class="cls-6" d="M17.36,834.84l9.82-9.63M17.36,825.86l9.95-9.51M17.36,816.87l9.95-9.4M17.36,807.88l9.84-8.87M17.36,798.9l14.79-12.65M17.36,789.91l10-8.15M17.36,780.93l9.96-8.05M17.36,771.94l9.63-7.25M17.36,762.95l15.43-11.07M17.36,753.97l9.74-6.85M17.36,744.98l9.81-6.45M17.36,735.99l9.85-6.09M17.36,727.01l9.89-5.73M17.36,718.02l9.85-4.93M17.36,709.03l9.82-4.93M17.36,700.05l15.29-6.92M17.36,691.06l9.82-3.73M17.36,682.07l9.81-4.29M17.36,673.09l9.67-3.48M17.36,664.1l9.92-3.33M17.36,655.12l10-2.58M17.36,646.13l15.33-4.13M17.36,637.14l9.8-2.06M17.36,628.16l9.92-1.58M17.36,619.17l9.81-1.47M17.36,610.18l9.85-1.1M17.36,601.2l9.85-1.07M17.36,592.21l9.83-.26M17.36,583.22l9.81-.24M17.36,574.24l15.66.1M17.36,565.25l9.91.18M17.36,556.27l9.92.2M17.36,547.28l16.37,1.16M17.36,538.29l9.85.77M17.36,529.31l9.84,1.4M17.36,520.32l9.82,1.97M17.36,511.33l9.97,2M17.36,502.35l15.96,4.22M17.36,493.36l9.81,2.64M17.36,484.37l9.78,2.94M17.36,475.39l9.85,3.34M17.36,466.4l9.89,3.33M17.36,457.42l9.85,3.69M17.36,448.43l15.84,6.96M17.36,439.44l9.85,4.57M17.36,430.46l9.85,5.04M17.36,421.47l9.89,5.55M17.36,412.48l9.85,5.98M17.36,403.5l9.78,6.23M17.36,394.51l9.84,6.57M17.36,385.52l15.55,11.26M17.36,376.54l9.95,7.38M17.36,367.55l9.86,7.47M17.36,358.56l9.82,8.34M17.36,349.58l9.93,8.18M17.36,340.59l9.84,8.99M17.36,331.61l6.65,5.91M17.36,322.62l7.2,6.46"/>
    <line class="cls-7" x1="49.85" y1="386.8" x2="253.3" y2="545.94"/>
    <polygon class="cls-10" points="293.29 825.22 300.62 832.55 307.94 825.22 293.29 825.22"/>
    <path class="cls-6" d="M270.73,589.29l-56.89,56.89M147.62,712.39l-113.74,113.74M33.88,826.13l-18.16,18.16"/>
    <path class="cls-4" d="M295.38,614.07l-56.82,56.82M218.6,690.86l-20.69,20.69M175.02,734.43l-77.79,77.79M243.32,715.58l-12.69,12.69M205.87,753.03l-59.05,59.05M320.11,638.79l-56.82,56.82M344.83,663.51l-56.82,56.82M242.57,765.77l-46.26,46.26M369.55,688.24l-46.08,46.08M290.77,767.02l-45.11,45.11M339.44,767.78l-44.27,44.27M418.99,737.68l-74.89,74.89M443.71,762.4l-49.9,49.9M468.43,787.12l-24.95,24.95"/>
    <line class="cls-6" x1="493.15" y1="811.84" x2="489.46" y2="815.53"/>
    <path class="cls-4" d="M246.08,622.07l-4.07-4.07M119.57,748.59l-4.07-4.07M176.15,790.89l-4.07-4.07M168.01,782.75l4.07,4.07M394.41,770.4l-4.07-4.07M320.25,696.23l-4.07-4.07M386.27,762.26l4.07,4.07M312.11,688.09l4.07,4.07M222.29,645.87l-4.07-4.07M95.77,772.38l-4.07-4.07M370.62,794.19l-4.07-4.07M296.45,720.03l-4.07-4.07M362.47,786.05l4.07,4.07M288.31,711.89l4.07,4.07M269.72,602.88l-6.29-6.29M143.2,729.39l-6.29-6.29M418.05,751.2l-6.29-6.29M405.46,738.62l6.29,6.29M245.92,626.67l-6.29-6.29M119.41,753.19l-6.29-6.29M394.25,775l-6.29-6.29M381.67,762.42l6.29,6.29M274.64,593.52l-4.07-4.07M148.12,720.04l-4.07-4.07M204.7,762.34l-4.07-4.07M196.56,754.2l4.07,4.07M240.16,812.08l-94.08-94.08M422.96,741.84l-4.07-4.07M348.8,667.68l-4.07-4.07M414.82,733.7l4.07,4.07M340.66,659.54l4.07,4.07M265.12,603.04l-4.07-4.07M138.6,729.55l-4.07-4.07M195.18,771.86l-4.07-4.07M187.04,763.72l4.07,4.07M413.45,751.36l-4.07-4.07M339.28,677.2l-4.07-4.07M405.3,743.22l4.07,4.07M331.14,669.06l4.07,4.07M241.32,626.83l-4.07-4.07M114.81,753.35l-4.07-4.07M389.65,775.16l-4.07-4.07M315.49,700.99l-4.07-4.07M381.51,767.02l4.07,4.07M307.35,692.85l4.07,4.07M272.26,595.9l-4.07-4.07M145.74,722.42l-4.07-4.07M202.32,764.72l-4.07-4.07M194.18,756.58l4.07,4.07M420.58,744.22l-4.07-4.07M346.42,670.06l-4.07-4.07M412.44,736.08l4.07,4.07M338.28,661.92l4.07,4.07M262.74,605.42l-4.07-4.07M136.22,731.93l-4.07-4.07M192.8,774.24l-4.07-4.07M184.66,766.1l4.07,4.07M411.07,753.74l-4.07-4.07M336.9,679.58l-4.07-4.07M402.93,745.6l4.07,4.07M328.76,671.44l4.07,4.07M238.95,629.21l-4.07-4.07M112.43,755.73l-4.07-4.07M387.27,777.54l-4.07-4.07M313.11,703.37l-4.07-4.07M379.13,769.4l4.07,4.07M304.97,695.23l4.07,4.07M269.88,598.28l-4.07-4.07M143.36,724.79l-4.07-4.07M199.94,767.1l-4.07-4.07M191.8,758.96l4.07,4.07M418.2,746.6l-4.07-4.07M344.04,672.44l-4.07-4.07M410.06,738.46l4.07,4.07M335.9,664.3l4.07,4.07M260.36,607.79l-4.07-4.07M133.84,734.31l-4.07-4.07M190.42,776.62l-4.07-4.07M182.28,768.48l4.07,4.07M408.69,756.12l-4.07-4.07M334.52,681.96l-4.07-4.07M400.55,747.98l4.07,4.07M326.38,673.82l4.07,4.07M236.57,631.59l-4.07-4.07M110.05,758.11l-4.07-4.07M384.89,779.92l-4.07-4.07M310.73,705.75l-4.07-4.07M376.75,771.77l4.07,4.07M302.59,697.61l4.07,4.07M257.98,610.17l-4.07-4.07M131.46,736.69l-4.07-4.07M188.04,779l-4.07-4.07M179.9,770.85l4.07,4.07M406.31,758.5l-4.07-4.07M332.14,684.34l-4.07-4.07M398.17,750.36l4.07,4.07M324,676.2l4.07,4.07M234.19,633.97l-4.07-4.07M107.67,760.49l-4.07-4.07M382.51,782.29l-4.07-4.07M308.35,708.13l-4.07-4.07M374.37,774.15l4.07,4.07M300.21,699.99l4.07,4.07M257.82,614.77l-6.29-6.29M131.3,741.29l-6.29-6.29M187.88,783.6l-6.29-6.29M175.3,771.01l6.29,6.29M406.15,763.1l-6.29-6.29M331.98,688.94l-6.29-6.29M393.57,750.52l6.29,6.29M319.4,676.36l6.29,6.29M234.03,638.57l-6.29-6.29M107.51,765.09l-6.29-6.29M382.35,786.89l-6.29-6.29M308.19,712.73l-6.29-6.29M369.77,774.31l6.29,6.29M295.61,700.15l6.29,6.29M253.22,614.93l-4.07-4.07M126.7,741.45l-4.07-4.07M183.28,783.75l-4.07-4.07M175.14,775.61l4.07,4.07M401.55,763.26l-4.07-4.07M327.39,689.1l-4.07-4.07M393.41,755.12l4.07,4.07M319.24,680.96l4.07,4.07M229.43,638.73l-4.07-4.07M102.91,765.25l-4.07-4.07M377.75,787.05l-4.07-4.07M303.59,712.89l-4.07-4.07M369.61,778.91l4.07,4.07M295.45,704.75l4.07,4.07M250.84,617.31l-4.07-4.07M124.32,743.83l-4.07-4.07M180.91,786.13l-4.07-4.07M172.76,777.99l4.07,4.07M192.62,812.13l-68.75-68.75M97.39,812.06l-24.72-24.72M399.17,765.64l-4.07-4.07M325.01,691.48l-4.07-4.07M391.03,757.5l4.07,4.07M316.86,683.33l4.07,4.07M227.05,641.11l-4.07-4.07M100.53,767.63l-4.07-4.07M144.99,812.09l-45.39-45.39M375.37,789.43l-4.07-4.07M301.21,715.27l-4.07-4.07M367.23,781.29l4.07,4.07M293.07,707.13l4.07,4.07M248.46,619.69l-4.07-4.07M121.95,746.21l-4.07-4.07M178.53,788.51l-4.07-4.07M170.38,780.37l4.07,4.07M396.79,768.02l-4.07-4.07M322.63,693.86l-4.07-4.07M388.65,759.88l4.07,4.07M314.49,685.71l4.07,4.07M224.67,643.49l-4.07-4.07M98.15,770l-4.07-4.07M372.99,791.81l-4.07-4.07M298.83,717.65l-4.07-4.07M364.85,783.67l4.07,4.07M290.69,709.51l4.07,4.07M222.13,650.47l-6.29-6.29M95.61,776.98l-6.29-6.29M370.46,798.79l-6.29-6.29M296.29,724.63l-6.29-6.29M357.87,786.21l6.29,6.29M283.71,712.05l6.29,6.29M307.47,735.8l-88.01-88.01M383.67,812.01l-48.19-48.19M288.59,812.1l-46.5-46.5M258.63,734.55l-72.88-72.88M336.3,812.23l-42.52-42.52M377.31,710.46l-108.15-108.15M478.59,811.75l-77.49-77.49M431.53,812.28l-60.19-60.19M345.77,726.52l-101.36-101.36"/>
    <line class="cls-1" x1="288.29" y1="591.18" x2="300.62" y2="825.22"/>
    <path class="cls-5" d="M190.21,710.63l-8.96,12.73M388.28,707.54l5.33,7.09M385.95,709.27l5.2,7.18M383.58,710.95l5.08,7.27M381.19,712.59l8.7,12.92M378.77,714.19l4.82,7.44M376.32,715.75l4.7,7.52M373.85,717.26l4.57,7.6M371.35,718.73l4.43,7.68M368.83,720.16l5.76,10.38M366.28,721.55l4.17,7.82M363.7,722.89l4.03,7.9M361.11,724.19l3.89,7.96M358.49,725.44l3.76,8.03M355.85,726.65l6.35,14.21M353.2,727.81l3.48,8.15M350.52,728.92l3.34,8.21M347.82,729.99l3.2,8.27M345.11,731.01l3.05,8.32M342.37,731.99l3.9,11.22M339.62,732.92l2.76,8.42M336.86,733.8l2.62,8.47M334.08,734.63l2.47,8.51M331.29,735.42l2.33,8.56M328.48,736.15l3.82,15.09M325.66,736.84l2.03,8.63M322.83,737.48l1.88,8.66M319.99,738.07l1.73,8.69M317.14,738.61l1.58,8.72M314.29,739.11l1.92,11.72M311.42,739.55l1.28,8.77M308.54,739.94l1.13,8.79M305.66,740.29l.98,8.81M302.78,740.58l.83,8.83M299.89,740.83l1.18,15.52M296.99,741.02l.52,8.85M294.1,741.17l.37,8.86M291.2,741.26l.21,8.86M288.3,741.31l.06,8.86M285.39,741.3l-.12,63.02M282.49,741.25l-.24,8.86M279.59,741.14l-.4,8.86M276.7,740.99l-.55,8.85M273.8,740.78l-.7,8.84M270.91,740.53l-1.5,15.5M268.03,740.23l-1.01,8.81M265.15,739.87l-1.16,8.79M262.28,739.47l-1.31,8.77M259.41,739.02l-1.46,8.74M256.55,738.51l-2.16,11.68M253.71,737.96l-1.76,8.69M250.87,737.36l-1.91,8.66M248.04,736.71l-2.06,8.62M245.22,736.02l-2.2,8.59M242.42,735.27l-4.13,15.01M239.63,734.48l-2.5,8.5M236.85,733.64l-2.65,8.46M234.09,732.75l-2.79,8.41M231.35,731.81l-2.94,8.37M228.62,730.82l-4.12,11.14M225.91,729.79l-3.22,8.26M223.21,728.72l-3.36,8.2M220.54,727.59l-3.5,8.14M217.88,726.42l-3.64,8.08M215.25,725.21l-6.64,14.08M212.64,723.95l-3.92,7.95M210.05,722.64l-4.06,7.88M207.48,721.29l-4.19,7.81M204.93,719.9l-4.33,7.74M202.41,718.46l-5.97,10.26M199.92,716.98l-4.59,7.59M197.45,715.46l-4.72,7.5M195.01,713.89l-4.85,7.42M192.59,712.28l-4.98,7.34M187.85,708.94l-5.23,7.16M185.52,707.21l-5.35,7.07M183.22,705.44l-5.47,6.98M180.95,703.63l-5.59,6.88M178.72,701.79l-7.64,9.09M176.51,699.9l-5.82,6.69M174.34,697.98l-5.94,6.58M172.2,696.01l-6.05,6.48M170.1,694.02l-6.16,6.38M168.03,691.98l-11.01,11.01"/>
    <polyline class="cls-10" points="45.86 814.16 487.28 814.16 501.26 828.13 31.88 828.13 45.76 814.25"/>
    <g class="cls-24">
      <path class="cls-9" d="M459.36,821.1c0-2.42,1.22-3.98,3.11-3.98s3.11,1.56,3.11,3.98-1.22,3.98-3.11,3.98-3.11-1.56-3.11-3.98M462.47,824.09c1.31,0,1.99-1.02,1.99-2.99,0-.68-.08-1.25-.24-1.7l-2.91,4.3c.31.26.69.4,1.16.4M460.73,822.82l2.89-4.32c-.3-.25-.69-.38-1.15-.38-1.31,0-1.99,1.02-1.99,2.99,0,.69.09,1.26.25,1.71M457.27,818.25h-3.87v-.99h5.09v.99l-3.22,6.7h-1.19l3.19-6.7ZM451,818.25h-1.38v-.99h2.5v7.69h-1.12v-6.7Z"/>
      <path class="cls-9" d="M405.32,821.1c0-2.42,1.22-3.98,3.11-3.98s3.11,1.56,3.11,3.98-1.22,3.98-3.11,3.98-3.11-1.56-3.11-3.98M408.42,824.09c1.31,0,1.99-1.02,1.99-2.99,0-.68-.08-1.25-.24-1.7l-2.91,4.3c.31.26.69.4,1.17.4M406.69,822.82l2.89-4.32c-.3-.25-.69-.38-1.15-.38-1.31,0-1.99,1.02-1.99,2.99,0,.69.09,1.26.25,1.71M398.88,822.49c0-.68.19-1.31.75-2.34l1.57-2.89h1.16l-1.65,2.94c.19-.12.46-.2.87-.2,1.47,0,2.57,1.04,2.57,2.56s-1.08,2.52-2.66,2.52-2.61-.98-2.61-2.59M401.52,824.09c.92,0,1.51-.59,1.51-1.52s-.58-1.58-1.51-1.58-1.51.61-1.51,1.58.58,1.52,1.51,1.52M396.26,818.25h-1.38v-.99h2.51v7.69h-1.12v-6.7Z"/>
      <path class="cls-9" d="M355.95,821.1c0-2.42,1.22-3.98,3.11-3.98s3.11,1.56,3.11,3.98-1.22,3.98-3.11,3.98-3.11-1.56-3.11-3.98M359.06,824.09c1.31,0,1.99-1.02,1.99-2.99,0-.68-.08-1.25-.24-1.7l-2.91,4.3c.31.26.69.4,1.16.4M357.33,822.82l2.89-4.32c-.3-.25-.69-.38-1.15-.38-1.31,0-1.99,1.02-1.99,2.99,0,.69.09,1.26.25,1.71M349.15,823.22l1.08-.34c.31.72.87,1.21,1.74,1.21,1.04,0,1.7-.64,1.7-1.64s-.64-1.66-1.63-1.66c-.69,0-1.24.41-1.5.92l-1.17-.37.68-4.09h4.05v.99h-3.15l-.36,2.11c.25-.29.79-.55,1.54-.55,1.63,0,2.66,1.03,2.66,2.65s-1.08,2.63-2.78,2.63c-1.56,0-2.44-.96-2.86-1.86M346.53,818.25h-1.38v-.99h2.51v7.69h-1.12v-6.7Z"/>
      <path class="cls-9" d="M312.5,821.1c0-2.42,1.22-3.98,3.11-3.98s3.11,1.56,3.11,3.98-1.22,3.98-3.11,3.98-3.11-1.56-3.11-3.98M315.61,824.09c1.31,0,1.99-1.02,1.99-2.99,0-.68-.08-1.25-.24-1.7l-2.91,4.3c.31.26.69.4,1.16.4M313.87,822.82l2.89-4.32c-.3-.25-.69-.38-1.15-.38-1.31,0-1.99,1.02-1.99,2.99,0,.69.09,1.26.25,1.71M309.05,823.08h-4.17v-.75l3.9-5.07h1.39v4.83h1.17v.99h-1.17v1.87h-1.12v-1.87ZM309.05,822.09v-3.59l-2.78,3.59h2.78ZM302.47,818.25h-1.38v-.99h2.51v7.69h-1.12v-6.7Z"/>
      <path class="cls-9" d="M266.13,821.1c0-2.42,1.22-3.98,3.11-3.98s3.11,1.56,3.11,3.98-1.22,3.98-3.11,3.98-3.11-1.56-3.11-3.98M269.24,824.09c1.31,0,1.99-1.02,1.99-2.99,0-.68-.08-1.25-.24-1.7l-2.91,4.3c.31.26.69.4,1.16.4M267.5,822.82l2.89-4.32c-.3-.25-.69-.38-1.15-.38-1.31,0-1.99,1.02-1.99,2.99,0,.69.09,1.26.25,1.71M259.12,822.96l1.09-.35c.25.85.83,1.48,1.8,1.48s1.76-.64,1.76-1.64c0-1.05-.98-1.57-2.11-1.57v-.73l1.49-1.91h-3.44v-.99h4.87v.87l-1.55,1.94c.95.26,1.86.96,1.86,2.38,0,1.29-1.03,2.63-2.86,2.63-1.43,0-2.58-.89-2.91-2.12M256.73,818.25h-1.38v-.99h2.5v7.69h-1.12v-6.7Z"/>
      <path class="cls-9" d="M218.66,821.1c0-2.42,1.22-3.98,3.11-3.98s3.11,1.56,3.11,3.98-1.22,3.98-3.11,3.98-3.11-1.56-3.11-3.98M221.77,824.09c1.31,0,1.99-1.02,1.99-2.99,0-.68-.08-1.25-.24-1.7l-2.91,4.3c.31.26.69.4,1.16.4M220.03,822.82l2.89-4.32c-.3-.25-.69-.38-1.15-.38-1.31,0-1.99,1.02-1.99,2.99,0,.69.09,1.26.25,1.71M216.31,819.34c0-.71-.47-1.22-1.39-1.22-1.17,0-1.53.79-1.67,1.62l-1.08-.34c.07-.7.73-2.26,2.69-2.26,1.48,0,2.57.88,2.57,2.16s-1.03,2.57-3.31,4.67h3.39v.99h-5.15v-.72c2.94-2.64,3.94-3.85,3.94-4.89M209.64,818.25h-1.38v-.99h2.51v7.69h-1.12v-6.7Z"/>
      <path class="cls-9" d="M169.1,821.1c0-2.42,1.22-3.98,3.11-3.98s3.11,1.56,3.11,3.98-1.22,3.98-3.11,3.98-3.11-1.56-3.11-3.98M172.21,824.09c1.31,0,1.99-1.02,1.99-2.99,0-.68-.08-1.25-.24-1.7l-2.91,4.3c.31.26.69.4,1.16.4M170.47,822.82l2.89-4.32c-.3-.25-.69-.38-1.15-.38-1.31,0-1.99,1.02-1.99,2.99,0,.69.09,1.26.25,1.71M166.35,818.25h-1.38v-.99h2.5v7.69h-1.12v-6.7ZM162.56,818.25h-1.38v-.99h2.5v7.69h-1.12v-6.7Z"/>
      <path class="cls-9" d="M115.68,821.1c0-2.42,1.22-3.98,3.11-3.98s3.11,1.56,3.11,3.98-1.22,3.98-3.11,3.98-3.11-1.56-3.11-3.98M118.79,824.09c1.31,0,1.99-1.02,1.99-2.99,0-.68-.08-1.25-.24-1.7l-2.91,4.3c.31.26.69.4,1.16.4M117.05,822.82l2.89-4.32c-.3-.25-.69-.38-1.15-.38-1.31,0-1.99,1.02-1.99,2.99,0,.69.09,1.26.25,1.71M108.23,821.1c0-2.42,1.22-3.98,3.11-3.98s3.11,1.56,3.11,3.98-1.22,3.98-3.11,3.98-3.11-1.56-3.11-3.98M111.34,824.09c1.31,0,1.99-1.02,1.99-2.99,0-.68-.08-1.25-.24-1.7l-2.91,4.3c.31.26.69.4,1.17.4M109.6,822.82l2.89-4.32c-.3-.25-.69-.38-1.15-.38-1.31,0-1.99,1.02-1.99,2.99,0,.69.09,1.26.25,1.71M105.47,818.25h-1.39v-.99h2.51v7.69h-1.12v-6.7Z"/>
      <path class="cls-10" d="M459.37,806.24c0-2.42,1.22-3.98,3.11-3.98s3.11,1.56,3.11,3.98-1.22,3.98-3.11,3.98-3.11-1.56-3.11-3.98M462.48,809.23c1.31,0,1.99-1.02,1.99-2.99,0-.68-.08-1.25-.24-1.7l-2.91,4.3c.31.26.69.4,1.16.4M460.74,807.95l2.89-4.32c-.3-.25-.69-.38-1.15-.38-1.31,0-1.99,1.02-1.99,2.99,0,.69.09,1.26.25,1.71M456.61,803.38h-1.39v-.99h2.51v7.69h-1.12v-6.7Z"/>
      <path class="cls-10" d="M405.32,806.24c0-2.42,1.22-3.98,3.11-3.98s3.11,1.56,3.11,3.98-1.22,3.98-3.11,3.98-3.11-1.56-3.11-3.98M408.43,809.23c1.31,0,1.99-1.02,1.99-2.99,0-.68-.08-1.25-.24-1.7l-2.91,4.3c.31.26.69.4,1.16.4M406.69,807.95l2.89-4.32c-.3-.25-.69-.38-1.15-.38-1.31,0-1.99,1.02-1.99,2.99,0,.69.09,1.26.25,1.71M402.97,804.47c0-.71-.47-1.22-1.39-1.22-1.17,0-1.53.79-1.67,1.62l-1.08-.34c.07-.7.73-2.26,2.69-2.26,1.48,0,2.57.88,2.57,2.16s-1.03,2.57-3.31,4.67h3.4v.99h-5.15v-.72c2.94-2.64,3.94-3.85,3.94-4.89"/>
      <path class="cls-10" d="M355.96,806.24c0-2.42,1.22-3.98,3.11-3.98s3.11,1.56,3.11,3.98-1.22,3.98-3.11,3.98-3.11-1.56-3.11-3.98M359.07,809.23c1.31,0,1.99-1.02,1.99-2.99,0-.68-.08-1.25-.24-1.7l-2.91,4.3c.31.26.69.4,1.16.4M357.33,807.95l2.89-4.32c-.3-.25-.69-.38-1.15-.38-1.31,0-1.99,1.02-1.99,2.99,0,.69.09,1.26.25,1.71M348.95,808.1l1.09-.35c.25.85.83,1.48,1.8,1.48s1.76-.64,1.76-1.64c0-1.05-.98-1.57-2.11-1.57v-.72l1.49-1.91h-3.44v-.99h4.87v.87l-1.55,1.94c.96.26,1.86.96,1.86,2.38,0,1.29-1.03,2.63-2.86,2.63-1.43,0-2.58-.89-2.91-2.12"/>
      <path class="cls-10" d="M312.5,806.24c0-2.42,1.22-3.98,3.11-3.98s3.11,1.56,3.11,3.98-1.22,3.98-3.11,3.98-3.11-1.56-3.11-3.98M315.61,809.23c1.31,0,1.99-1.02,1.99-2.99,0-.68-.08-1.25-.24-1.7l-2.91,4.3c.31.26.69.4,1.17.4M313.87,807.95l2.89-4.32c-.3-.25-.69-.38-1.15-.38-1.31,0-1.99,1.02-1.99,2.99,0,.69.09,1.26.25,1.71M309.05,808.22h-4.17v-.75l3.9-5.08h1.39v4.83h1.17v.99h-1.17v1.87h-1.12v-1.87ZM309.05,807.23v-3.59l-2.78,3.59h2.78Z"/>
      <path class="cls-10" d="M266.12,806.24c0-2.42,1.22-3.98,3.11-3.98s3.11,1.56,3.11,3.98-1.22,3.98-3.11,3.98-3.11-1.56-3.11-3.98M269.23,809.23c1.31,0,1.99-1.02,1.99-2.99,0-.68-.08-1.25-.24-1.7l-2.91,4.3c.31.26.69.4,1.16.4M267.49,807.95l2.89-4.32c-.3-.25-.69-.38-1.15-.38-1.31,0-1.99,1.02-1.99,2.99,0,.69.09,1.26.25,1.71M259.32,808.36l1.08-.34c.31.72.87,1.21,1.74,1.21,1.04,0,1.7-.64,1.7-1.64s-.64-1.66-1.63-1.66c-.69,0-1.24.41-1.51.92l-1.16-.37.68-4.09h4.05v.99h-3.15l-.36,2.11c.25-.29.79-.55,1.54-.55,1.63,0,2.66,1.03,2.66,2.65s-1.08,2.63-2.78,2.63c-1.56,0-2.44-.96-2.86-1.86"/>
      <path class="cls-10" d="M218.65,806.24c0-2.42,1.22-3.98,3.11-3.98s3.11,1.56,3.11,3.98-1.22,3.98-3.11,3.98-3.11-1.56-3.11-3.98M221.76,809.23c1.31,0,1.99-1.02,1.99-2.99,0-.68-.08-1.25-.24-1.7l-2.91,4.3c.31.26.69.4,1.16.4M220.03,807.95l2.89-4.32c-.3-.25-.69-.38-1.15-.38-1.31,0-1.99,1.02-1.99,2.99,0,.69.09,1.26.25,1.71M212.22,807.62c0-.68.19-1.31.75-2.34l1.57-2.89h1.16l-1.65,2.94c.19-.12.46-.2.87-.2,1.47,0,2.57,1.04,2.57,2.56s-1.08,2.52-2.66,2.52-2.61-.98-2.61-2.59M214.86,809.23c.92,0,1.51-.59,1.51-1.52s-.58-1.58-1.51-1.58-1.51.61-1.51,1.58.58,1.52,1.51,1.52"/>
      <path class="cls-10" d="M169.1,806.24c0-2.42,1.22-3.98,3.11-3.98s3.11,1.56,3.11,3.98-1.22,3.98-3.11,3.98-3.11-1.56-3.11-3.98M172.21,809.23c1.31,0,1.99-1.02,1.99-2.99,0-.68-.08-1.25-.24-1.7l-2.91,4.3c.31.26.69.4,1.16.4M170.48,807.95l2.89-4.32c-.3-.25-.69-.38-1.15-.38-1.31,0-1.99,1.02-1.99,2.99,0,.69.09,1.26.25,1.71M167.02,803.38h-3.87v-.99h5.09v.99l-3.22,6.7h-1.19l3.19-6.7Z"/>
      <path class="cls-10" d="M115.68,806.24c0-2.42,1.22-3.98,3.11-3.98s3.11,1.56,3.11,3.98-1.22,3.98-3.11,3.98-3.11-1.56-3.11-3.98M118.79,809.23c1.31,0,1.99-1.02,1.99-2.99,0-.68-.08-1.25-.24-1.7l-2.91,4.3c.31.26.69.4,1.16.4M117.05,807.95l2.89-4.32c-.3-.25-.69-.38-1.15-.38-1.31,0-1.99,1.02-1.99,2.99,0,.69.09,1.26.25,1.71M109.37,807.87c0-.77.51-1.52,1.2-1.79-.61-.29-1-.94-1-1.69,0-1.3.9-2.12,2.31-2.12s2.31.82,2.31,2.12c0,.75-.38,1.41-1,1.69.69.28,1.2,1.02,1.2,1.79,0,1.4-1.02,2.35-2.5,2.35s-2.5-.96-2.5-2.35M111.88,809.23c.8,0,1.38-.57,1.38-1.36,0-.75-.58-1.3-1.38-1.3s-1.38.55-1.38,1.3c0,.79.58,1.36,1.38,1.36M111.88,805.58c.72,0,1.19-.46,1.19-1.2,0-.69-.46-1.13-1.19-1.13s-1.19.44-1.19,1.13c0,.74.46,1.2,1.19,1.2"/>
    </g>
    <path class="cls-6" d="M25.17,842.65l9.63-9.82M34.16,842.65l9.51-9.95M43.14,842.65l9.4-9.95M52.13,842.65l8.87-9.84M61.12,842.65l12.64-14.79M70.1,842.65l8.15-10M79.09,842.65l8.05-9.96M88.08,842.65l7.25-9.63M97.06,842.65l11.07-15.43M106.05,842.65l6.85-9.74M115.04,842.65l6.45-9.81M124.02,842.65l6.09-9.85M133.01,842.65l5.73-9.89M141.99,842.65l4.93-9.85M150.98,842.65l4.93-9.82M159.97,842.65l6.92-15.29M168.95,842.65l3.73-9.82M177.94,842.65l4.29-9.82M186.93,842.65l3.48-9.67M195.91,842.65l3.33-9.92M204.9,842.65l2.58-10M213.89,842.65l4.13-15.33M222.87,842.65l2.06-9.8M231.86,842.65l1.58-9.92M240.84,842.65l1.47-9.81M249.83,842.65l1.1-9.85M258.82,842.65l1.07-9.85M267.8,842.65l.26-9.83M276.79,842.65l.24-9.81M285.78,842.65l-.1-15.66M294.76,842.65l-.18-9.91M303.75,842.65l-.2-9.92M312.74,842.65l-1.16-16.37M321.72,842.65l-.77-9.85M330.71,842.65l-1.4-9.84M339.7,842.65l-1.97-9.82M348.68,842.65l-2-9.97M357.67,842.65l-4.22-15.96M366.65,842.65l-2.64-9.81M375.64,842.65l-2.94-9.78M384.63,842.65l-3.34-9.85M393.61,842.65l-3.33-9.89M402.6,842.65l-3.69-9.85M411.59,842.65l-6.96-15.84M420.57,842.65l-4.57-9.85M429.56,842.65l-5.04-9.85M438.55,842.65l-5.55-9.89M447.53,842.65l-5.98-9.85M456.52,842.65l-6.23-9.78M465.5,842.65l-6.57-9.84M474.49,842.65l-11.26-15.55M483.48,842.65l-7.38-9.95M492.46,842.65l-7.47-9.86M501.45,842.65l-8.34-9.82M510.44,842.65l-8.18-9.93M519.42,842.65l-8.99-9.84M528.41,842.65l-5.91-6.65M537.4,842.65l-6.46-7.2"/>
    <line class="cls-7" x1="473.22" y1="810.17" x2="314.07" y2="606.71"/>
    <g class="cls-22">
      <path class="cls-9" d="M40.99,819.14c1.71-1.71,3.67-1.95,5.01-.61,1.33,1.34,1.1,3.3-.61,5.01-1.71,1.71-3.67,1.95-5.01.61-1.34-1.34-1.09-3.3.61-5.01M40.75,821.32l5.1-1.01c-.03-.39-.22-.76-.54-1.09-.93-.92-2.13-.68-3.52.71-.49.49-.83.96-1.03,1.39M41.08,823.45c.92.92,2.13.68,3.52-.71.48-.48.83-.94,1.03-1.38l-5.1.98c.03.4.21.77.54,1.1M41.15,817.33c-.48.48-1.06.79-2.18,1.13l-3.15.93-.82-.82,3.25-.92c-.22-.05-.47-.19-.75-.47-1.04-1.04-1.08-2.56,0-3.63,1.06-1.06,2.54-1.02,3.66.1s1.16,2.54.02,3.68M38.22,816.53c.65.65,1.5.63,2.18-.06.65-.65.66-1.48,0-2.14-.65-.65-1.48-.64-2.13,0-.68.68-.71,1.53-.06,2.18"/>
      <path class="cls-10" d="M177.31,729.4c.92-1.32,2.18-1.71,3.22-.98,1.03.72,1.1,2.04.18,3.36-.92,1.32-2.18,1.7-3.22.98-1.03-.72-1.1-2.04-.18-3.36M177.41,730.86l3.23-1.25c-.07-.25-.23-.47-.48-.65-.71-.5-1.48-.2-2.23.87-.26.38-.43.72-.52,1.03M177.87,732.22c.71.5,1.47.2,2.23-.87.26-.37.44-.71.52-1.02l-3.23,1.23c.07.26.23.48.49.66M173.15,727.81c.29-.42.85-.64,1.34-.52-.23-.39-.18-.9.1-1.31.49-.71,1.3-.81,2.07-.28.77.54.94,1.33.45,2.04-.29.41-.75.62-1.19.54.27.41.26,1.01-.03,1.43-.53.76-1.46.89-2.27.33-.81-.57-1-1.48-.47-2.24M175.39,727.52c.4.28.82.2,1.1-.2.26-.38.18-.79-.21-1.07-.4-.28-.82-.21-1.08.16-.28.4-.21.83.19,1.11M174,729.51c.44.31.97.22,1.28-.21.29-.41.18-.93-.26-1.24-.44-.31-.97-.23-1.25.18-.3.43-.2.97.24,1.27"/>
      <path class="cls-10" d="M205.59,745.65c.69-1.46,1.86-2.06,3.01-1.52,1.14.54,1.44,1.82.75,3.28-.68,1.46-1.86,2.06-3,1.52-1.14-.54-1.44-1.82-.75-3.28M206.62,748.34c.79.37,1.49-.05,2.05-1.24.19-.41.31-.78.34-1.1l-2.98,1.77c.11.25.31.43.59.57M205.93,747.08l2.97-1.79c-.11-.24-.31-.43-.59-.56-.79-.37-1.49.05-2.05,1.24-.2.42-.3.79-.33,1.11M205.02,743.28l-2.34-1.1.28-.6,3.07,1.44-.28.6-3.84,3.14-.72-.34,3.82-3.15Z"/>
      <path class="cls-10" d="M236.56,756.87c.41-1.56,1.47-2.35,2.68-2.03,1.22.32,1.74,1.54,1.32,3.09-.41,1.56-1.46,2.35-2.68,2.03-1.22-.32-1.74-1.54-1.32-3.09M238.05,759.32c.84.22,1.46-.32,1.79-1.59.12-.44.16-.82.13-1.14l-2.61,2.27c.15.22.38.37.68.45M237.15,758.21l2.6-2.29c-.15-.21-.38-.37-.68-.44-.84-.22-1.46.32-1.79,1.59-.12.45-.16.83-.13,1.15M232.06,756.63c.12-.44.34-.81.88-1.38l1.51-1.59.75.2-1.57,1.62c.14-.05.33-.05.59.02.95.25,1.48,1.11,1.22,2.09-.26.96-1.12,1.44-2.14,1.17-1-.26-1.52-1.08-1.24-2.12M233.48,758.11c.6.16,1.07-.12,1.23-.72.17-.62-.11-1.12-.7-1.28-.6-.16-1.07.14-1.24.76-.16.6.12,1.08.71,1.23"/>
      <path class="cls-10" d="M269.24,762.51c.13-1.61,1.03-2.57,2.29-2.47,1.25.11,1.98,1.21,1.84,2.81-.13,1.6-1.03,2.57-2.29,2.47-1.25-.1-1.98-1.21-1.84-2.81M271.14,764.67c.87.07,1.38-.57,1.49-1.87.04-.45.02-.83-.07-1.14l-2.17,2.69c.19.19.44.3.75.33M270.06,763.72l2.16-2.71c-.18-.18-.44-.29-.74-.32-.87-.07-1.38.57-1.49,1.87-.04.46-.01.84.07,1.15M264.49,763.53l.73-.17c.16.5.51.85,1.09.9.69.06,1.17-.33,1.22-.99.06-.67-.33-1.14-.99-1.19-.46-.04-.85.2-1.05.53l-.75-.31.68-2.68,2.69.23-.05.66-2.09-.18-.36,1.38c.18-.18.56-.32,1.05-.28,1.08.09,1.71.83,1.62,1.91-.09,1.06-.86,1.68-1.99,1.59-1.04-.09-1.57-.77-1.79-1.39"/>
      <path class="cls-10" d="M302.28,762.33c-.14-1.61.57-2.71,1.83-2.83,1.25-.11,2.16.85,2.3,2.46.14,1.6-.57,2.71-1.83,2.83-1.26.11-2.16-.85-2.3-2.46M304.52,764.13c.87-.08,1.26-.8,1.14-2.1-.04-.45-.13-.83-.26-1.12l-1.68,3.03c.22.16.48.22.8.19M303.29,763.39l1.66-3.04c-.21-.15-.48-.21-.79-.19-.87.08-1.26.8-1.14,2.1.04.46.13.83.27,1.12M299.98,763.86l-2.77.25-.04-.5,2.29-3.6.93-.08.29,3.21.77-.07.06.66-.77.07.11,1.24-.74.07-.11-1.24ZM299.92,763.21l-.21-2.39-1.63,2.55,1.85-.17Z"/>
      <path class="cls-10" d="M334.01,756.63c-.42-1.55.09-2.77,1.31-3.1,1.22-.33,2.27.46,2.69,2.02.42,1.56-.09,2.77-1.31,3.1-1.21.33-2.27-.46-2.69-2.02M336.53,758.01c.84-.23,1.1-1,.76-2.27-.12-.44-.27-.79-.45-1.05l-1.13,3.27c.24.12.51.13.82.05M335.19,757.49l1.11-3.28c-.23-.11-.51-.13-.81-.05-.84.23-1.1,1-.76,2.27.12.44.27.8.46,1.06M329.71,759.07l.64-.42c.31.5.79.81,1.42.64.63-.17,1.02-.71.85-1.36-.18-.68-.9-.84-1.63-.64l-.13-.47.63-1.49-2.21.6-.17-.64,3.13-.85.15.56-.66,1.52c.66,0,1.36.29,1.61,1.21.22.83-.21,1.87-1.38,2.19-.92.25-1.81-.12-2.24-.86"/>
      <path class="cls-10" d="M364.65,745.44c-.68-1.46-.39-2.74.75-3.28,1.14-.54,2.32.06,3,1.52s.39,2.74-.75,3.28c-1.14.54-2.32-.06-3-1.52M367.37,746.36c.79-.37.91-1.18.35-2.36-.19-.41-.4-.73-.63-.96l-.54,3.41c.26.07.53.04.81-.09M365.96,746.09l.52-3.42c-.25-.07-.53-.04-.8.1-.79.37-.91,1.18-.35,2.36.2.42.41.74.64.96M362.62,745.1c-.2-.43-.63-.6-1.19-.34-.7.33-.7.91-.55,1.45l-.74.1c-.16-.44-.21-1.57.98-2.13.89-.42,1.8-.2,2.16.58.36.76.11,1.84-.67,3.75l2.05-.96.28.6-3.11,1.46-.21-.44c1.03-2.42,1.29-3.44.99-4.06"/>
      <path class="cls-10" d="M392.09,729.66c-.92-1.32-.85-2.64.18-3.36,1.03-.72,2.29-.34,3.22.98s.85,2.64-.18,3.36-2.29.34-3.22-.98M394.93,730.11c.71-.5.7-1.32-.05-2.39-.26-.37-.52-.65-.78-.84l.05,3.46c.27.03.53-.05.79-.23M393.49,730.07l-.07-3.46c-.26-.02-.52.05-.78.23-.71.5-.7,1.32.06,2.39.26.38.53.66.79.84M389.4,729.23l-.76.53-.38-.54,1.37-.96,2.94,4.2-.61.43-2.56-3.66Z"/>
    </g>
    <polygon class="cls-3" points="15.5 306.22 15.5 844.5 553.8 844.5 15.5 306.22"/>
  </g>
  <g class="cls-21">
    <g class="cls-20">
      <path class="cls-10" d="M415.39,577.54l-115.4-115.4,68.28-68.28c45.2-45.2,90.88-36.06,121.17-5.77,36.06,36.06,34.62,80.78-10.58,125.98l-63.47,63.47ZM544.25,804.5l49.04-49.04-134.63-134.63,66.35-66.36c66.36-66.36,74.53-154.35,12.5-216.37-54.82-54.82-138-62.03-204.83,4.81l-125.02,125.02,336.58,336.58Z"/>
    </g>
  </g>
</svg>