<?xml version="1.0" encoding="UTF-8"?>
<svg id="Calque_1" data-name="Calque 1" xmlns="http://www.w3.org/2000/svg" xmlns:xlink="http://www.w3.org/1999/xlink" viewBox="0 0 616 423">
  <defs>
    <style>
      .cls-1 {
        clip-path: url(#clippath);
      }

      .cls-2 {
        fill: none;
      }

      .cls-2, .cls-3 {
        stroke-width: 0px;
      }

      .cls-4 {
        clip-path: url(#clippath-1);
      }

      .cls-5 {
        clip-path: url(#clippath-4);
      }

      .cls-6 {
        clip-path: url(#clippath-3);
      }

      .cls-7 {
        clip-path: url(#clippath-2);
      }

      .cls-3 {
        fill: #fff;
      }
    </style>
    <clipPath id="clippath">
      <rect class="cls-2" width="616" height="423"/>
    </clipPath>
    <clipPath id="clippath-1">
      <rect class="cls-2" width="616" height="423"/>
    </clipPath>
    <clipPath id="clippath-2">
      <rect class="cls-2" x="337.4" y="174" width="147" height="249"/>
    </clipPath>
    <clipPath id="clippath-3">
      <rect class="cls-2" x="469.7" y="174" width="132.3" height="249"/>
    </clipPath>
    <clipPath id="clippath-4">
      <rect class="cls-2" width="616" height="423"/>
    </clipPath>
  </defs>
  <g class="cls-1">
    <g class="cls-4">
      <path class="cls-3" d="M491.66,112.93v-48.72h55.16c24.36,0,36.02,7.83,36.02,24.01s-11.83,24.71-36.54,24.71h-54.64ZM477.57,174h14.09v-49.07h59.51l32.19,49.07h17.05l-35.32-50.63c20.71-4,32.02-16.18,32.02-35.15,0-23.14-17.57-36.02-49.24-36.02h-70.3v121.8ZM358.69,116.23v-52.03h55.16c23.66,0,36.02,9.22,36.02,25.75s-12.53,26.27-36.54,26.27h-54.64ZM344.6,174h14.09v-45.76h56.2c30.97,0,49.24-14.62,49.24-38.28s-18.27-37.76-49.24-37.76h-70.3v121.8ZM238.67,113.62v-48.02h42.98c20.71,0,30.8,9.57,30.8,23.84,0,15.31-10.79,24.19-31.84,24.19h-41.93ZM223.18,174h15.49v-46.98h43.33c28.19,0,46.11-14.44,46.11-37.76,0-21.92-16.36-37.06-44.72-37.06h-60.2v121.8ZM148.21,109.62v-41.76h24.71c16.36,0,22.97,9.92,22.97,20.88,0,13.05-8.35,20.88-24.71,20.88h-22.97ZM130.46,174h17.75v-48.72h24.01c24.01,0,41.41-14.44,41.41-36.89,0-19.84-13.75-36.19-37.93-36.19h-45.24v121.8ZM78.59,112.93v-47.33h11.66c10.27,0,14.27,7.83,14.27,23.49,0,16.88-4.7,23.84-14.96,23.84h-10.96ZM62.93,174h15.66v-47.68h12.53c18.27,0,29.06-12.53,29.06-37.41s-9.4-36.71-27.67-36.71h-29.58v121.8ZM28.2,115.01v-50.81h3.13c6.26,0,8.53,6.26,8.53,25.23s-2.26,25.58-8.53,25.58h-3.13ZM14.11,174h14.09v-46.98h5.05c14.44,0,20.71-11.31,20.71-37.58s-6.26-37.24-20.71-37.24H14.11v121.8Z"/>
      <path class="cls-3" d="M39.3,300.5c0-50.84,46.19-90.83,129.58-90.83s129.58,39.99,129.58,90.83-46.5,90.83-129.58,90.83-129.58-39.99-129.58-90.83M168.88,412.72c96.1,0,154.38-49.91,154.38-112.22s-58.28-112.22-154.38-112.22S14.19,238.19,14.19,300.5s58.28,112.22,154.69,112.22"/>
    </g>
    <g class="cls-7">
      <path class="cls-3" d="M176.73,300.5c0-48.98,45.88-85.56,126.79-85.56s126.79,36.58,126.79,85.56-45.57,85.56-126.79,85.56-126.79-36.89-126.79-85.56M303.52,412.72c97.03,0,158.1-49.29,158.1-112.22s-61.07-112.22-158.1-112.22-157.79,49.29-157.79,112.22,61.07,112.22,157.79,112.22"/>
    </g>
    <g class="cls-6">
      <path class="cls-3" d="M357.56,300.5c0-44.64,37.2-74.09,99.82-74.09s99.82,29.45,99.82,74.09-37.2,74.09-99.82,74.09-99.82-29.45-99.82-74.09M457.38,412.72c86.18,0,144.46-46.81,144.46-112.22s-58.28-112.22-144.46-112.22-144.77,46.81-144.77,112.22,58.28,112.22,144.77,112.22"/>
    </g>
    <g class="cls-5">
      <path class="cls-3" d="M90.79,37.97c2.32,0,3.64-1.71,3.64-3.35,0-1.82-1.15-2.7-2.36-3.04l1.97-2.48v-1.1h-6.2v1.26h4.38l-1.9,2.44v.92c1.44,0,2.69.66,2.69,2,0,1.27-.99,2.09-2.24,2.09s-1.97-.81-2.3-1.89l-1.39.45c.42,1.57,1.89,2.7,3.71,2.7M80.5,36.21l3.71-5.48c.21.58.31,1.3.31,2.17,0,2.51-.87,3.81-2.54,3.81-.6,0-1.09-.17-1.48-.5M79.45,32.9c0-2.51.87-3.81,2.53-3.81.59,0,1.09.17,1.47.49l-3.68,5.5c-.21-.57-.32-1.3-.32-2.18M81.99,37.97c2.41,0,3.96-1.99,3.96-5.07s-1.55-5.07-3.96-5.07-3.96,1.99-3.96,5.07,1.55,5.07,3.96,5.07M67.93,37.8h1.34v-3.49c0-1.3.7-2.04,1.75-2.04s1.53.7,1.53,1.92v3.61h1.34v-3.79c0-1.76-1.06-2.92-2.62-2.92-.87,0-1.55.35-2,.96v-.8h-1.34v6.55ZM60.67,34.52c0-1.37.81-2.28,2.02-2.28s2,.9,2,2.23v.11c0,1.33-.8,2.21-2,2.21s-2.02-.91-2.02-2.27M62.44,37.97c.91,0,1.82-.38,2.21-.92v.76h1.38v-6.55h-1.38v.75c-.39-.55-1.27-.92-2.16-.92-1.83,0-3.19,1.45-3.19,3.46s1.34,3.43,3.14,3.43M56.39,37.8h1.34v-9.8h-1.34v9.8ZM49.42,34.58v-.11c0-1.33.8-2.21,2-2.21s2.02.91,2.02,2.27-.81,2.28-2.02,2.28-2-.9-2-2.23M48.12,40.94h1.34v-3.89c.39.55,1.27.92,2.16.92,1.83,0,3.19-1.45,3.19-3.46s-1.34-3.43-3.13-3.43c-.91,0-1.82.38-2.21.92v-.75h-1.34v9.69ZM41.24,37.8h1.34v-2.91l2.53,2.91h1.71l-3.11-3.51,2.81-3.04h-1.69l-2.25,2.49v-5.74h-1.34v9.8ZM36.39,37.8h1.34v-3.57c0-1.32.88-2.07,2.18-1.86v-1.26c-.99-.08-1.74.22-2.18.9v-.76h-1.34v6.55ZM29.29,34.52c0-1.35.83-2.23,2.07-2.23s2.09.88,2.09,2.23-.84,2.23-2.09,2.23-2.07-.9-2.07-2.23M31.37,37.97c2,0,3.46-1.45,3.46-3.44s-1.46-3.44-3.46-3.44-3.44,1.44-3.44,3.44,1.45,3.44,3.44,3.44M17.44,37.8h1.55l2-6.87,2,6.87h1.55l3-9.8h-1.6l-2.16,7.5-2.23-7.5h-1.15l-2.23,7.5-2.16-7.5h-1.6l3,9.8Z"/>
      <path class="cls-3" d="M78.51,23.97c1.46,0,2.51-.77,2.51-2.01,0-2.35-3.63-1.67-3.63-2.98,0-.42.38-.73,1.02-.73.53,0,1.02.21,1.25.92l1.22-.38c-.26-.94-1.05-1.71-2.42-1.71s-2.39.77-2.41,2.01c0,2.17,3.63,1.6,3.63,2.94,0,.48-.42.76-1.15.76-.79,0-1.26-.32-1.55-1.16l-1.2.39c.2.71.95,1.95,2.74,1.95M71.56,23.97c1.81,0,2.87-1.17,2.87-3.12v-3.6h-1.34v3.6c0,1.2-.57,1.93-1.53,1.93s-1.53-.73-1.53-1.93v-3.6h-1.34v3.6c0,1.95,1.08,3.12,2.87,3.12M65.54,23.8h1.34v-9.8h-1.34v9.8ZM60.92,23.97c1.51,0,2.63-.76,3.15-2.1l-1.22-.41c-.31.86-1.01,1.33-1.93,1.33-1.27,0-2.09-.88-2.09-2.27s.81-2.27,2.09-2.27c.97,0,1.67.48,1.97,1.33l1.16-.38c-.45-1.37-1.57-2.13-3.14-2.13-1.99,0-3.43,1.44-3.43,3.44s1.44,3.44,3.43,3.44M50.74,20.52c0-1.35.83-2.23,2.07-2.23s2.09.88,2.09,2.23-.84,2.23-2.09,2.23-2.07-.9-2.07-2.23M52.82,23.97c2,0,3.46-1.45,3.46-3.44s-1.45-3.44-3.46-3.44-3.44,1.44-3.44,3.44,1.45,3.44,3.44,3.44M44.97,23.8h1.34v-3.57c0-1.32.88-2.07,2.18-1.86v-1.26c-.99-.08-1.74.22-2.18.9v-.76h-1.34v6.55ZM38.4,18.62v-3.36h1.99c1.32,0,1.85.8,1.85,1.68,0,1.05-.67,1.68-1.99,1.68h-1.85ZM36.98,23.8h1.43v-3.92h1.93c1.93,0,3.33-1.16,3.33-2.97,0-1.6-1.1-2.91-3.05-2.91h-3.64v9.8ZM26.77,23.8h1.43v-4.3h4.21v-1.26h-4.21v-2.98h4.86v-1.26h-6.28v9.8ZM14.92,23.8h1.43v-7.17l3.02,4.77h.85l3.04-4.77v7.17h1.43v-9.8h-1.4l-3.49,5.58-3.47-5.58h-1.41v9.8Z"/>
      <path class="cls-3" d="M449.3,36.88v.92h6.56v-1.26h-4.32c2.9-2.68,4.21-4.36,4.21-5.95s-1.38-2.76-3.27-2.76c-2.51,0-3.35,1.99-3.43,2.88l1.37.43c.18-1.05.64-2.06,2.13-2.06,1.18,0,1.78.64,1.78,1.55,0,1.33-1.27,2.87-5.03,6.23M442.42,36.21l3.71-5.48c.21.58.31,1.3.31,2.17,0,2.51-.87,3.81-2.53,3.81-.6,0-1.09-.17-1.49-.5M441.37,32.9c0-2.51.87-3.81,2.54-3.81.59,0,1.09.17,1.47.49l-3.68,5.5c-.21-.57-.32-1.3-.32-2.18M443.9,37.97c2.41,0,3.96-1.99,3.96-5.07s-1.55-5.07-3.96-5.07-3.96,1.99-3.96,5.07,1.55,5.07,3.96,5.07M436.24,37.97c1.46,0,2.51-.77,2.51-2.02,0-2.35-3.63-1.67-3.63-2.98,0-.42.38-.73,1.02-.73.53,0,1.02.21,1.25.92l1.22-.38c-.27-.94-1.05-1.71-2.42-1.71s-2.39.77-2.41,2.01c0,2.17,3.63,1.6,3.63,2.94,0,.48-.42.76-1.15.76-.78,0-1.26-.32-1.55-1.16l-1.2.39c.2.71.95,1.95,2.74,1.95M429.08,37.97c1.89,0,3.33-1.17,3.33-2.69,0-3.51-5.04-2.81-5.04-4.83,0-.95.95-1.39,1.68-1.39,1.16,0,1.76.59,2,1.6l1.37-.43c-.5-1.58-1.73-2.39-3.37-2.39s-3.11,1.26-3.11,2.59c0,3.25,5.04,2.49,5.04,4.86,0,1-.92,1.43-1.86,1.43-1.23,0-1.98-.7-2.19-1.86l-1.37.45c.28,1.22,1.52,2.67,3.51,2.67M413.89,32.3v1.22h7.67l-2.66,1.96v1.41l4.79-3.49v-.99l-4.79-3.5v1.43l2.66,1.96h-7.67ZM405.38,37.8h6v-1.26h-2.1v-8.54h-3.75v1.26h2.32v7.28h-2.48v1.26ZM398.83,36.21l3.71-5.48c.21.58.31,1.3.31,2.17,0,2.51-.87,3.81-2.54,3.81-.6,0-1.09-.17-1.48-.5M397.78,32.9c0-2.51.87-3.81,2.53-3.81.59,0,1.09.17,1.47.49l-3.68,5.5c-.21-.57-.32-1.3-.32-2.18M400.32,37.97c2.41,0,3.96-1.99,3.96-5.07s-1.55-5.07-3.96-5.07-3.96,1.99-3.96,5.07,1.55,5.07,3.96,5.07M392.65,37.97c1.46,0,2.51-.77,2.51-2.02,0-2.35-3.63-1.67-3.63-2.98,0-.42.38-.73,1.02-.73.53,0,1.02.21,1.25.92l1.22-.38c-.27-.94-1.05-1.71-2.42-1.71s-2.39.77-2.41,2.01c0,2.17,3.63,1.6,3.63,2.94,0,.48-.42.76-1.15.76-.79,0-1.26-.32-1.56-1.16l-1.2.39c.2.71.95,1.95,2.74,1.95M385.49,37.97c1.89,0,3.33-1.17,3.33-2.69,0-3.51-5.04-2.81-5.04-4.83,0-.95.95-1.39,1.68-1.39,1.16,0,1.77.59,2,1.6l1.37-.43c-.5-1.58-1.73-2.39-3.37-2.39s-3.11,1.26-3.11,2.59c0,3.25,5.04,2.49,5.04,4.86,0,1-.92,1.43-1.86,1.43-1.23,0-1.98-.7-2.18-1.86l-1.37.45c.28,1.22,1.52,2.67,3.51,2.67"/>
      <path class="cls-3" d="M442.63,19.74c.18-.9.95-1.5,1.95-1.5s1.65.58,1.72,1.5h-3.67ZM444.6,23.97c1.39,0,2.49-.67,3.11-2.03l-1.27-.39c-.29.77-.91,1.25-1.83,1.25-1.16,0-2-.8-2.03-1.89h5.18v-.61c0-1.86-1.32-3.2-3.18-3.2s-3.35,1.44-3.35,3.44,1.34,3.44,3.37,3.44M434.58,20.58v-.11c0-1.33.8-2.21,2-2.21s2.02.91,2.02,2.27-.81,2.28-2.02,2.28-2-.9-2-2.23M433.29,26.94h1.34v-3.89c.39.55,1.27.92,2.16.92,1.83,0,3.19-1.45,3.19-3.46s-1.34-3.43-3.14-3.43c-.91,0-1.82.38-2.21.92v-.75h-1.34v9.69ZM426.71,26.94h1.43l3.85-9.69h-1.41l-1.89,5.11-1.89-5.11h-1.46l2.63,6.55-1.26,3.13ZM423.09,23.8h1.11v-1.17h-.85c-.74,0-.88-.53-.88-.91v-3.29h1.74v-1.17h-1.74v-2h-1.34v2h-1.61v1.17h1.61v3.11c0,1.62.95,2.27,1.97,2.27M409.69,23.8h1.34v-3.49c0-1.3.7-2.04,1.75-2.04s1.53.7,1.53,1.92v3.61h1.34v-3.79c0-1.76-1.06-2.92-2.62-2.92-.87,0-1.55.35-2,.96v-.8h-1.34v6.55ZM402.95,19.74c.18-.9.95-1.5,1.95-1.5s1.65.58,1.72,1.5h-3.67ZM404.92,23.97c1.39,0,2.49-.67,3.11-2.03l-1.27-.39c-.29.77-.91,1.25-1.83,1.25-1.16,0-2-.8-2.03-1.89h5.18v-.61c0-1.86-1.31-3.2-3.18-3.2s-3.35,1.44-3.35,3.44,1.34,3.44,3.37,3.44M394.9,20.58v-.11c0-1.33.8-2.21,2-2.21s2.02.91,2.02,2.27-.81,2.28-2.02,2.28-2-.9-2-2.23M393.61,26.94h1.34v-3.89c.39.55,1.27.92,2.16.92,1.83,0,3.19-1.45,3.19-3.46s-1.34-3.43-3.14-3.43c-.91,0-1.82.38-2.21.92v-.75h-1.34v9.69ZM383.5,18.9c0-2.21,1.48-3.81,3.53-3.81s3.53,1.6,3.53,3.81-1.48,3.81-3.53,3.81-3.53-1.6-3.53-3.81M387.03,23.97c2.87,0,4.95-2.13,4.95-5.07s-2.08-5.07-4.95-5.07-4.95,2.13-4.95,5.07,2.08,5.07,4.95,5.07"/>
      <path class="cls-3" d="M248.44,37.97c1.46,0,2.51-.77,2.51-2.01,0-2.35-3.63-1.67-3.63-2.98,0-.42.38-.73,1.02-.73.53,0,1.02.21,1.25.93l1.22-.38c-.26-.94-1.05-1.71-2.42-1.71s-2.39.77-2.41,2.02c0,2.17,3.63,1.6,3.63,2.94,0,.48-.42.76-1.15.76-.78,0-1.26-.32-1.55-1.16l-1.2.39c.2.71.95,1.94,2.74,1.94M239.41,33.74c.18-.9.95-1.5,1.95-1.5s1.65.58,1.72,1.5h-3.67ZM241.39,37.97c1.39,0,2.49-.67,3.11-2.03l-1.27-.39c-.29.77-.91,1.25-1.83,1.25-1.16,0-2-.8-2.03-1.89h5.18v-.61c0-1.86-1.32-3.21-3.18-3.21s-3.35,1.44-3.35,3.44,1.34,3.44,3.37,3.44M235.1,37.8h1.34v-9.8h-1.34v9.8ZM228.53,40.93h1.43l3.85-9.69h-1.41l-1.89,5.11-1.89-5.11h-1.46l2.63,6.55-1.26,3.13ZM224.9,37.8h1.11v-1.17h-.85c-.74,0-.88-.53-.88-.91v-3.29h1.74v-1.17h-1.74v-2h-1.34v2h-1.61v1.17h1.61v3.11c0,1.62.95,2.27,1.97,2.27M217.76,37.97c1.46,0,2.51-.77,2.51-2.01,0-2.35-3.63-1.67-3.63-2.98,0-.42.38-.73,1.02-.73.53,0,1.02.21,1.25.93l1.22-.38c-.27-.94-1.05-1.71-2.42-1.71s-2.39.77-2.41,2.02c0,2.17,3.63,1.6,3.63,2.94,0,.48-.42.76-1.15.76-.78,0-1.26-.32-1.55-1.16l-1.2.39c.2.71.95,1.94,2.74,1.94M201.66,36.2l3.71-5.48c.21.57.31,1.3.31,2.17,0,2.51-.87,3.81-2.53,3.81-.6,0-1.09-.17-1.49-.5M200.61,32.9c0-2.51.87-3.81,2.54-3.81.59,0,1.09.17,1.47.49l-3.68,5.5c-.21-.58-.32-1.3-.32-2.19M203.14,37.97c2.41,0,3.96-1.99,3.96-5.07s-1.55-5.07-3.96-5.07-3.96,1.99-3.96,5.07,1.55,5.07,3.96,5.07M192.61,31.02c0-1.18.74-1.93,1.92-1.93s1.92.76,1.92,1.93-.74,2.02-1.92,2.02-1.92-.78-1.92-2.02M194.56,27.83c-2.02,0-3.39,1.3-3.39,3.2s1.4,3.26,3.27,3.26c.52,0,.87-.1,1.11-.25l-2.1,3.75h1.49l2-3.68c.71-1.31.95-2.11.95-2.98,0-2.06-1.36-3.3-3.33-3.3"/>
      <path class="cls-3" d="M238.57,23.97c1.46,0,2.51-.77,2.51-2.02,0-2.35-3.63-1.67-3.63-2.98,0-.42.38-.73,1.02-.73.53,0,1.02.21,1.25.92l1.22-.38c-.26-.94-1.05-1.71-2.42-1.71s-2.39.77-2.41,2.01c0,2.17,3.63,1.6,3.63,2.94,0,.48-.42.76-1.15.76-.79,0-1.26-.32-1.55-1.16l-1.2.39c.2.71.95,1.95,2.74,1.95M233.62,23.8h1.11v-1.17h-.85c-.74,0-.88-.53-.88-.91v-3.29h1.74v-1.17h-1.74v-2h-1.34v2h-1.61v1.17h1.61v3.11c0,1.62.95,2.27,1.97,2.27M225.89,23.97c1.81,0,2.87-1.17,2.87-3.12v-3.6h-1.34v3.6c0,1.2-.57,1.93-1.53,1.93s-1.53-.73-1.53-1.93v-3.6h-1.34v3.6c0,1.95,1.08,3.12,2.87,3.12M218.54,23.97c1.51,0,2.63-.76,3.15-2.1l-1.22-.41c-.31.86-1.01,1.33-1.93,1.33-1.27,0-2.09-.88-2.09-2.27s.81-2.27,2.09-2.27c.97,0,1.67.48,1.97,1.33l1.16-.38c-.45-1.37-1.57-2.13-3.14-2.13-1.99,0-3.43,1.44-3.43,3.44s1.44,3.44,3.43,3.44M201.85,17.02c0-1.18.74-1.93,1.92-1.93s1.92.76,1.92,1.93-.74,2.02-1.92,2.02-1.92-.79-1.92-2.02M203.8,13.83c-2.02,0-3.39,1.3-3.39,3.21s1.4,3.26,3.28,3.26c.52,0,.87-.1,1.11-.25l-2.1,3.75h1.49l2-3.68c.71-1.31.95-2.11.95-2.98,0-2.06-1.36-3.3-3.33-3.3M193.68,22.21l3.71-5.48c.21.58.31,1.3.31,2.17,0,2.51-.87,3.81-2.54,3.81-.6,0-1.09-.17-1.49-.5M192.62,18.9c0-2.51.87-3.81,2.54-3.81.59,0,1.09.17,1.47.49l-3.68,5.5c-.21-.57-.32-1.3-.32-2.18M195.16,23.97c2.41,0,3.96-1.99,3.96-5.07s-1.55-5.07-3.96-5.07-3.96,1.99-3.96,5.07,1.55,5.07,3.96,5.07"/>
      <path class="cls-3" d="M582.8,37.8h1.34v-3.49c0-1.3.7-2.04,1.75-2.04s1.53.7,1.53,1.92v3.61h1.34v-3.79c0-1.76-1.06-2.92-2.62-2.92-.87,0-1.55.35-2,.97v-4.05h-1.34v9.8ZM580.09,37.8h1.11v-1.17h-.85c-.74,0-.88-.53-.88-.91v-3.29h1.74v-1.17h-1.74v-2h-1.34v2h-1.61v1.17h1.61v3.11c0,1.62.95,2.27,1.97,2.27M569.72,34.52c0-1.37.81-2.28,2.02-2.28s2,.9,2,2.23v.11c0,1.33-.8,2.21-2,2.21s-2.02-.91-2.02-2.27M571.48,37.97c.91,0,1.82-.38,2.21-.92v.75h1.34v-9.8h-1.34v4c-.39-.55-1.28-.92-2.16-.92-1.84,0-3.19,1.45-3.19,3.46s1.34,3.43,3.14,3.43M565.16,29.61c0,.46.38.84.84.84s.84-.38.84-.84-.38-.83-.84-.83-.84.38-.84.83M565.33,37.8h1.34v-6.55h-1.34v6.55ZM555.58,37.8h1.68l1.36-4.21,1.36,4.21h1.68l2.21-6.55h-1.57l-1.48,5.04-1.57-5.04h-1.26l-1.57,5.04-1.48-5.04h-1.57l2.21,6.55ZM545.99,37.97c2.17,0,3.54-1.3,3.54-3.35s-1.31-3.37-3.39-3.37c-.95,0-1.64.34-1.96.7l.46-2.69h4.02v-1.26h-5.17l-.87,5.21,1.48.48c.34-.66,1.04-1.18,1.92-1.18,1.26,0,2.07.83,2.07,2.11s-.84,2.09-2.17,2.09c-1.11,0-1.82-.62-2.21-1.54l-1.37.43c.53,1.15,1.65,2.36,3.64,2.36M534.65,36.88v.92h6.57v-1.26h-4.33c2.9-2.68,4.21-4.36,4.21-5.95s-1.39-2.76-3.28-2.76c-2.51,0-3.35,1.99-3.43,2.88l1.37.43c.18-1.05.64-2.06,2.13-2.06,1.18,0,1.78.64,1.78,1.55,0,1.33-1.27,2.87-5.03,6.23M526.93,37.8h6v-1.26h-2.1v-8.54h-3.75v1.26h2.32v7.28h-2.48v1.26ZM514.31,32.3v1.22h7.67l-2.66,1.96v1.41l4.79-3.49v-.99l-4.79-3.5v1.43l2.66,1.96h-7.67ZM508.52,37.97c2.17,0,3.54-1.3,3.54-3.35s-1.31-3.37-3.39-3.37c-.95,0-1.64.34-1.96.7l.46-2.69h4.02v-1.26h-5.17l-.87,5.21,1.48.48c.34-.66,1.04-1.18,1.92-1.18,1.26,0,2.07.83,2.07,2.11s-.84,2.09-2.17,2.09c-1.11,0-1.82-.62-2.21-1.54l-1.37.43c.53,1.15,1.65,2.36,3.64,2.36M498.33,37.8h1.51l4.1-8.54v-1.26h-6.48v1.26h4.93l-4.06,8.54ZM484.96,28.28v6.55h6.13l-2.1,1.55v1.41l4.23-3.08v-.99l-4.23-3.09v1.43l2.1,1.55h-4.79v-5.33h-1.34Z"/>
      <path class="cls-3" d="M568.58,23.8h1.11v-1.17h-.85c-.74,0-.88-.53-.88-.91v-3.29h1.74v-1.17h-1.74v-2h-1.34v2h-1.61v1.17h1.61v3.11c0,1.62.95,2.27,1.97,2.27M557.75,23.8h1.34v-3.49c0-1.3.7-2.04,1.75-2.04s1.53.7,1.53,1.92v3.61h1.34v-3.79c0-1.76-1.06-2.92-2.62-2.92-.87,0-1.55.35-2,.97v-4.05h-1.34v9.8ZM550.42,20.52c0-1.37.8-2.28,2-2.28s2,.9,2,2.23v.11c0,1.33-.8,2.21-2,2.21s-2-.91-2-2.27M552.42,27.1c2,0,3.29-1.23,3.29-3.3v-6.55h-1.34v.74c-.41-.53-1.27-.91-2.14-.91-1.82,0-3.18,1.45-3.18,3.46s1.33,3.43,3.12,3.43c.91,0,1.79-.38,2.2-.91v.74c0,1.33-.77,2.12-1.97,2.12-.97,0-1.67-.5-1.99-1.36l-1.29.41c.53,1.39,1.72,2.14,3.3,2.14M545.85,15.61c0,.46.38.84.84.84s.84-.38.84-.84-.38-.83-.84-.83-.84.38-.84.83M546.02,23.8h1.34v-6.55h-1.34v6.55ZM539.17,19.74c.18-.9.95-1.5,1.95-1.5s1.65.58,1.72,1.5h-3.67ZM541.15,23.97c1.39,0,2.49-.67,3.11-2.03l-1.27-.39c-.29.77-.91,1.25-1.83,1.25-1.16,0-2-.8-2.03-1.89h5.18v-.61c0-1.86-1.32-3.21-3.18-3.21s-3.35,1.44-3.35,3.44,1.34,3.44,3.37,3.44M528.57,23.8h1.68l1.36-4.21,1.36,4.21h1.68l2.21-6.55h-1.57l-1.48,5.04-1.57-5.04h-1.26l-1.57,5.04-1.48-5.04h-1.57l2.21,6.55ZM516.84,22.2l3.71-5.48c.21.57.31,1.3.31,2.17,0,2.51-.87,3.81-2.54,3.81-.6,0-1.09-.17-1.48-.5M515.79,18.9c0-2.51.87-3.81,2.53-3.81.59,0,1.09.17,1.47.49l-3.68,5.5c-.21-.57-.32-1.3-.32-2.18M518.32,23.97c2.41,0,3.96-1.99,3.96-5.07s-1.55-5.07-3.96-5.07-3.96,1.99-3.96,5.07,1.55,5.07,3.96,5.07M507.42,22.2l3.71-5.48c.21.57.31,1.3.31,2.17,0,2.51-.87,3.81-2.53,3.81-.6,0-1.09-.17-1.49-.5M506.37,18.9c0-2.51.87-3.81,2.54-3.81.59,0,1.09.17,1.47.49l-3.68,5.5c-.21-.57-.32-1.3-.32-2.18M508.91,23.97c2.41,0,3.96-1.99,3.96-5.07s-1.55-5.07-3.96-5.07-3.96,1.99-3.96,5.07,1.55,5.07,3.96,5.07M497.73,23.8h6v-1.26h-2.1v-8.54h-3.75v1.26h2.32v7.28h-2.48v1.26ZM484.96,14.28v6.55h6.13l-2.1,1.55v1.41l4.23-3.08v-.99l-4.23-3.09v1.43l2.1,1.55h-4.79v-5.33h-1.34Z"/>
    </g>
  </g>
</svg>