<?xml version="1.0" encoding="UTF-8"?>
<svg id="Calque_1" data-name="Calque 1" xmlns="http://www.w3.org/2000/svg" xmlns:xlink="http://www.w3.org/1999/xlink" viewBox="0 0 616 423">
  <defs>
    <style>
      .cls-1 {
        clip-path: url(#clippath);
      }

      .cls-2, .cls-3 {
        fill: none;
      }

      .cls-2, .cls-4, .cls-5 {
        stroke-width: 0px;
      }

      .cls-6 {
        clip-path: url(#clippath-1);
      }

      .cls-7 {
        clip-path: url(#clippath-4);
      }

      .cls-8 {
        clip-path: url(#clippath-3);
      }

      .cls-9 {
        clip-path: url(#clippath-2);
      }

      .cls-3 {
        stroke: #fff;
        stroke-width: .5px;
      }

      .cls-5 {
        fill: #fff;
      }
    </style>
    <clipPath id="clippath">
      <rect class="cls-2" width="616" height="423"/>
    </clipPath>
    <clipPath id="clippath-1">
      <rect class="cls-2" width="616" height="423"/>
    </clipPath>
    <clipPath id="clippath-2">
      <polygon class="cls-2" points="14 153.5 14 374 234.5 374 234.5 264.16 124.25 264.16 124.25 153.5 14 153.5"/>
    </clipPath>
    <clipPath id="clippath-3">
      <rect class="cls-2" width="616" height="423"/>
    </clipPath>
    <clipPath id="clippath-4">
      <rect class="cls-2" width="616" height="423"/>
    </clipPath>
  </defs>
  <g class="cls-1">
    <g class="cls-6">
      <path class="cls-5" d="M58.74,142h15.26v-61.06h18.13v-13.36h-18.13c-3.02-4.13-4.61-8.9-4.61-13.2,0-6.68,3.82-12.24,12.4-12.24,6.84,0,13.04,3.02,13.04,13.67h15.26c0-18.76-14.31-27.03-28.3-27.03-17.17,0-27.67,12.56-27.67,25.44,0,4.61,1.43,9.22,4.13,13.36h-11.45v13.36h11.92v61.06Z"/>
    </g>
    <polygon class="cls-5" points="124.25 264.16 124.25 153.5 14 153.5 14 374 234.5 374 234.5 264.16 124.25 264.16"/>
    <g class="cls-9">
      <path class="cls-4" d="M123.7,299.14c-19.54,0-35.39-15.85-35.39-35.39s15.85-35.39,35.39-35.39,35.39,15.84,35.39,35.39-15.85,35.39-35.39,35.39M123.7,160.3c-57.13,0-103.45,46.32-103.45,103.45s46.32,103.45,103.45,103.45,103.45-46.32,103.45-103.45-46.32-103.45-103.45-103.45"/>
    </g>
    <line class="cls-3" x1="124.24" y1="30" x2="124.24" y2="264.15"/>
    <polygon class="cls-5" points="282.67 374.5 330.09 374.5 330.09 184.83 386.4 184.83 386.4 143.34 330.09 143.34 330.09 70.23 386.4 70.23 386.4 28.74 282.67 28.74 282.67 143.34 245.63 143.34 245.63 184.83 282.67 184.83 282.67 374.5"/>
    <polygon class="cls-5" points="464 374.5 505.99 374.5 505.99 177.91 601.81 177.91 601.81 143.34 505.99 143.34 505.99 62.33 601.81 62.33 601.81 28.74 464 28.74 464 143.34 399.3 143.34 399.3 177.91 464 177.91 464 374.5"/>
    <g class="cls-8">
      <path class="cls-5" d="M169.45,246.5h29.95v-119.81h35.57v-26.21h-35.57v-25.27c0-16.22,12.17-20.9,21.53-20.9h14.04v-26.21h-15.6c-30.26,0-49.92,17.47-49.92,52.42v19.97h-23.4v26.21h23.4v119.81Z"/>
    </g>
    <line class="cls-3" x1="602" y1="387.13" x2="14" y2="387.13"/>
    <line class="cls-3" x1="602" y1="408.88" x2="14" y2="408.88"/>
    <g class="cls-7">
      <path class="cls-5" d="M595.95,402.37h1.2v-3.11c0-1.16.62-1.82,1.56-1.82s1.36.62,1.36,1.71v3.22h1.2v-3.39c0-1.58-.95-2.61-2.34-2.61-.78,0-1.39.31-1.79.86v-3.61h-1.2v8.75ZM593.57,402.37h.99v-1.05h-.76c-.66,0-.79-.47-.79-.81v-2.94h1.55v-1.05h-1.55v-1.79h-1.2v1.79h-1.44v1.05h1.44v2.78c0,1.45.85,2.02,1.76,2.02M584.34,399.45c0-1.22.72-2.04,1.8-2.04s1.79.8,1.79,1.99v.1c0,1.19-.71,1.98-1.79,1.98s-1.8-.81-1.8-2.03M585.91,402.52c.81,0,1.63-.34,1.98-.82v.67h1.2v-8.75h-1.2v3.57c-.35-.49-1.14-.82-1.93-.82-1.64,0-2.85,1.3-2.85,3.09s1.2,3.06,2.8,3.06M580.39,395.06c0,.41.34.75.75.75s.75-.34.75-.75-.34-.74-.75-.74-.75.34-.75.74M580.54,402.37h1.2v-5.85h-1.2v5.85ZM571.89,402.37h1.5l1.21-3.76,1.21,3.76h1.5l1.97-5.85h-1.4l-1.33,4.5-1.4-4.5h-1.12l-1.4,4.5-1.33-4.5h-1.4l1.97,5.85ZM563.58,402.52c1.94,0,3.16-1.16,3.16-2.99s-1.17-3.01-3.02-3.01c-.85,0-1.46.3-1.75.62l.41-2.4h3.59v-1.12h-4.61l-.78,4.65,1.33.42c.3-.59.92-1.05,1.71-1.05,1.12,0,1.85.74,1.85,1.89s-.75,1.86-1.94,1.86c-.99,0-1.62-.55-1.97-1.38l-1.23.39c.48,1.02,1.48,2.11,3.25,2.11M553.51,402.37h5.36v-1.12h-1.88v-7.62h-3.35v1.12h2.08v6.5h-2.21v1.12ZM546.14,402.37h5.36v-1.12h-1.88v-7.62h-3.35v1.12h2.08v6.5h-2.21v1.12ZM535.11,397.46v1.09h6.85l-2.37,1.75v1.26l4.27-3.11v-.89l-4.27-3.12v1.28l2.37,1.75h-6.85ZM528.29,400.95l3.31-4.89c.19.51.27,1.16.27,1.94,0,2.24-.77,3.4-2.26,3.4-.54,0-.97-.15-1.33-.45M527.35,398c0-2.24.78-3.4,2.26-3.4.53,0,.98.15,1.31.44l-3.29,4.91c-.19-.51-.29-1.16-.29-1.95M529.61,402.52c2.15,0,3.54-1.77,3.54-4.52s-1.39-4.52-3.54-4.52-3.54,1.77-3.54,4.52,1.39,4.52,3.54,4.52M519.79,400.95l3.31-4.89c.19.51.27,1.16.27,1.94,0,2.24-.77,3.4-2.26,3.4-.54,0-.97-.15-1.33-.45M518.85,398c0-2.24.78-3.4,2.26-3.4.53,0,.98.15,1.31.44l-3.29,4.91c-.19-.51-.29-1.16-.29-1.95M521.11,402.52c2.15,0,3.54-1.77,3.54-4.52s-1.39-4.52-3.54-4.52-3.54,1.77-3.54,4.52,1.39,4.52,3.54,4.52M510.51,402.37h5.36v-1.12h-1.88v-7.62h-3.35v1.12h2.08v6.5h-2.21v1.12ZM499.36,393.88v5.85h5.47l-1.88,1.39v1.26l3.77-2.75v-.89l-3.77-2.76v1.27l1.88,1.39h-4.27v-4.76h-1.2ZM490.56,402.37h.99v-1.05h-.76c-.66,0-.79-.47-.79-.81v-2.94h1.55v-1.05h-1.55v-1.79h-1.2v1.79h-1.44v1.05h1.44v2.78c0,1.45.85,2.02,1.76,2.02M480.85,402.37h1.2v-3.11c0-1.16.63-1.82,1.56-1.82s1.36.62,1.36,1.71v3.22h1.2v-3.39c0-1.58-.95-2.61-2.34-2.61-.78,0-1.39.31-1.79.86v-3.61h-1.2v8.75ZM474.48,399.45c0-1.22.71-2.04,1.79-2.04s1.79.8,1.79,1.99v.1c0,1.19-.71,1.98-1.79,1.98s-1.79-.81-1.79-2.03M476.26,405.32c1.79,0,2.94-1.1,2.94-2.95v-5.85h-1.2v.66c-.36-.47-1.14-.81-1.91-.81-1.63,0-2.84,1.3-2.84,3.09s1.19,3.06,2.79,3.06c.81,0,1.6-.34,1.96-.81v.66c0,1.19-.69,1.89-1.76,1.89-.86,0-1.49-.45-1.78-1.21l-1.15.36c.48,1.24,1.54,1.91,2.95,1.91M470.52,395.06c0,.41.34.75.75.75s.75-.34.75-.75-.34-.74-.75-.74-.75.34-.75.74M470.67,402.37h1.2v-5.85h-1.2v5.85ZM464.7,398.75c.16-.8.85-1.34,1.74-1.34s1.48.51,1.54,1.34h-3.28ZM466.46,402.52c1.24,0,2.23-.6,2.77-1.81l-1.14-.35c-.26.69-.81,1.11-1.64,1.11-1.04,0-1.79-.71-1.81-1.69h4.62v-.55c0-1.66-1.17-2.86-2.84-2.86s-2.99,1.29-2.99,3.07,1.2,3.07,3.01,3.07M455.21,402.37h1.5l1.21-3.76,1.21,3.76h1.5l1.98-5.85h-1.4l-1.33,4.5-1.4-4.5h-1.12l-1.4,4.5-1.32-4.5h-1.4l1.97,5.85ZM446.49,400.95l3.31-4.89c.19.51.27,1.16.27,1.94,0,2.24-.77,3.4-2.26,3.4-.54,0-.98-.15-1.33-.45M445.55,398c0-2.24.77-3.4,2.26-3.4.52,0,.98.15,1.31.44l-3.29,4.91c-.19-.51-.29-1.16-.29-1.95M447.81,402.52c2.15,0,3.54-1.77,3.54-4.52s-1.39-4.52-3.54-4.52-3.54,1.77-3.54,4.52,1.39,4.52,3.54,4.52M437.99,400.95l3.31-4.89c.19.51.27,1.16.27,1.94,0,2.24-.77,3.4-2.26,3.4-.54,0-.98-.15-1.32-.45M437.05,398c0-2.24.77-3.4,2.26-3.4.52,0,.98.15,1.31.44l-3.29,4.91c-.19-.51-.29-1.16-.29-1.95M439.31,402.52c2.15,0,3.54-1.77,3.54-4.52s-1.39-4.52-3.54-4.52-3.54,1.77-3.54,4.52,1.39,4.52,3.54,4.52M428.72,402.37h5.36v-1.12h-1.88v-7.62h-3.35v1.12h2.08v6.5h-2.21v1.12ZM417.57,393.88v5.85h5.47l-1.88,1.39v1.26l3.77-2.75v-.89l-3.77-2.76v1.27l1.88,1.39h-4.27v-4.76h-1.2Z"/>
      <path class="cls-5" d="M144.52,399.13l3.16-4.09v4.09h-3.16ZM147.69,402.37h1.27v-2.12h1.32v-1.12h-1.32v-5.5h-1.59l-4.44,5.77v.85h4.75v2.12ZM136.65,400.95l3.31-4.89c.19.51.28,1.16.28,1.94,0,2.24-.78,3.4-2.26,3.4-.54,0-.98-.15-1.33-.45M135.71,398c0-2.24.77-3.4,2.26-3.4.52,0,.98.15,1.31.44l-3.29,4.91c-.19-.51-.29-1.16-.29-1.95M137.97,402.52c2.15,0,3.54-1.77,3.54-4.52s-1.39-4.52-3.54-4.52-3.54,1.77-3.54,4.52,1.39,4.52,3.54,4.52M125.42,402.37h1.2v-3.11c0-1.16.62-1.82,1.56-1.82s1.36.62,1.36,1.71v3.23h1.2v-3.39c0-1.58-.95-2.61-2.34-2.61-.78,0-1.39.31-1.79.86v-.71h-1.2v5.85ZM118.98,399.45c0-1.23.73-2.04,1.8-2.04s1.79.8,1.79,1.99v.1c0,1.19-.71,1.98-1.79,1.98s-1.8-.81-1.8-2.03M120.56,402.52c.81,0,1.63-.34,1.98-.82v.67h1.24v-5.85h-1.24v.67c-.35-.49-1.14-.82-1.93-.82-1.64,0-2.85,1.3-2.85,3.09s1.2,3.06,2.8,3.06M115.19,402.37h1.2v-8.75h-1.2v8.75ZM109,399.5v-.1c0-1.19.71-1.98,1.79-1.98s1.8.81,1.8,2.03-.72,2.04-1.8,2.04-1.79-.8-1.79-1.99M107.84,405.17h1.2v-3.47c.35.49,1.14.82,1.93.82,1.64,0,2.85-1.3,2.85-3.09s-1.2-3.06-2.8-3.06c-.81,0-1.62.34-1.98.82v-.67h-1.2v8.65ZM101.62,402.37h1.2v-2.6l2.26,2.6h1.53l-2.78-3.14,2.51-2.71h-1.51l-2.01,2.22v-5.12h-1.2v8.75ZM97.19,402.37h1.2v-3.19c0-1.17.79-1.85,1.95-1.66v-1.12c-.89-.08-1.55.2-1.95.8v-.67h-1.2v5.85ZM90.87,399.45c0-1.2.74-1.99,1.85-1.99s1.86.79,1.86,1.99-.75,1.99-1.86,1.99-1.85-.8-1.85-1.99M92.72,402.52c1.79,0,3.09-1.3,3.09-3.07s-1.3-3.07-3.09-3.07-3.07,1.29-3.07,3.07,1.3,3.07,3.07,3.07M80.24,402.37h1.39l1.79-6.14,1.79,6.14h1.39l2.67-8.75h-1.42l-1.93,6.7-1.99-6.7h-1.03l-1.99,6.7-1.92-6.7h-1.43l2.68,8.75ZM72.15,402.52c1.3,0,2.24-.69,2.24-1.8,0-2.1-3.24-1.49-3.24-2.66,0-.38.34-.65.91-.65.47,0,.91.19,1.11.83l1.09-.34c-.24-.84-.94-1.52-2.16-1.52s-2.14.69-2.15,1.8c0,1.94,3.24,1.43,3.24,2.63,0,.42-.38.68-1.03.68-.7,0-1.13-.29-1.39-1.04l-1.07.35c.18.64.85,1.74,2.45,1.74M65.95,402.52c1.61,0,2.56-1.05,2.56-2.79v-3.21h-1.2v3.21c0,1.07-.51,1.73-1.36,1.73s-1.36-.65-1.36-1.73v-3.21h-1.2v3.21c0,1.74.96,2.79,2.56,2.79M60.65,402.37h1.2v-8.75h-1.2v8.75ZM56.54,402.52c1.35,0,2.35-.67,2.81-1.87l-1.09-.36c-.28.76-.9,1.19-1.73,1.19-1.14,0-1.86-.79-1.86-2.03s.73-2.03,1.86-2.03c.86,0,1.49.42,1.76,1.19l1.04-.34c-.4-1.22-1.4-1.9-2.8-1.9-1.77,0-3.06,1.29-3.06,3.07s1.29,3.07,3.06,3.07M47.29,399.45c0-1.2.74-1.99,1.85-1.99s1.86.79,1.86,1.99-.75,1.99-1.86,1.99-1.85-.8-1.85-1.99M49.14,402.52c1.79,0,3.09-1.3,3.09-3.07s-1.3-3.07-3.09-3.07-3.07,1.29-3.07,3.07,1.3,3.07,3.07,3.07M41.95,402.37h1.2v-3.19c0-1.17.79-1.85,1.95-1.66v-1.12c-.89-.08-1.55.2-1.95.8v-.67h-1.2v5.85ZM35.95,397.75v-3h1.78c1.17,0,1.65.71,1.65,1.5,0,.94-.6,1.5-1.78,1.5h-1.65ZM34.68,402.37h1.27v-3.5h1.73c1.73,0,2.97-1.04,2.97-2.65,0-1.43-.99-2.6-2.72-2.6h-3.25v8.75ZM25.56,402.37h1.27v-3.84h3.76v-1.12h-3.76v-2.66h4.34v-1.12h-5.61v8.75ZM14.83,402.37h1.27v-6.4l2.7,4.26h.76l2.71-4.26v6.4h1.27v-8.75h-1.25l-3.11,4.99-3.1-4.99h-1.26v8.75Z"/>
    </g>
    <line class="cls-3" x1="602" y1="14" x2="14" y2="14"/>
  </g>
</svg>