<?xml version="1.0" encoding="UTF-8"?>
<svg id="Calque_1" data-name="Calque 1" xmlns="http://www.w3.org/2000/svg" xmlns:xlink="http://www.w3.org/1999/xlink" viewBox="0 0 616 860">
  <defs>
    <style>
      .cls-1, .cls-2, .cls-3, .cls-4, .cls-5, .cls-6, .cls-7 {
        fill: none;
      }

      .cls-1, .cls-3, .cls-4, .cls-5, .cls-6, .cls-7 {
        stroke: #fff;
      }

      .cls-1, .cls-5 {
        stroke-linecap: round;
        stroke-linejoin: round;
      }

      .cls-8 {
        clip-path: url(#clippath);
      }

      .cls-2, .cls-9 {
        stroke-width: 0px;
      }

      .cls-3 {
        stroke-width: .5px;
      }

      .cls-10 {
        clip-path: url(#clippath-1);
      }

      .cls-11 {
        clip-path: url(#clippath-4);
      }

      .cls-12 {
        clip-path: url(#clippath-3);
      }

      .cls-13 {
        clip-path: url(#clippath-2);
      }

      .cls-14 {
        clip-path: url(#clippath-5);
      }

      .cls-4 {
        stroke-width: .5px;
      }

      .cls-5 {
        stroke-dasharray: 0 0 0 3;
      }

      .cls-6 {
        stroke-width: 3px;
      }

      .cls-9 {
        fill: #fff;
      }
    </style>
    <clipPath id="clippath">
      <rect class="cls-2" width="616" height="860"/>
    </clipPath>
    <clipPath id="clippath-1">
      <rect class="cls-2" width="616" height="860"/>
    </clipPath>
    <clipPath id="clippath-2">
      <rect class="cls-2" width="616" height="860"/>
    </clipPath>
    <clipPath id="clippath-3">
      <rect class="cls-2" width="616" height="860"/>
    </clipPath>
    <clipPath id="clippath-4">
      <rect class="cls-2" width="616" height="860"/>
    </clipPath>
    <clipPath id="clippath-5">
      <rect class="cls-2" width="616" height="860"/>
    </clipPath>
  </defs>
  <g class="cls-8">
    <g class="cls-10">
      <path class="cls-9" d="M97.78,42.54v1.06h7.5v-1.44h-4.94c3.31-3.06,4.82-4.98,4.82-6.8s-1.58-3.15-3.74-3.15c-2.86,0-3.82,2.27-3.92,3.3l1.57.5c.21-1.2.74-2.35,2.43-2.35,1.34,0,2.03.74,2.03,1.78,0,1.52-1.46,3.28-5.74,7.12M89.94,41.78l4.24-6.26c.24.66.35,1.49.35,2.48,0,2.86-.99,4.35-2.9,4.35-.69,0-1.25-.19-1.7-.58M88.74,38c0-2.86.99-4.35,2.9-4.35.67,0,1.25.19,1.68.56l-4.21,6.29c-.24-.66-.37-1.49-.37-2.5M91.63,43.79c2.75,0,4.53-2.27,4.53-5.79s-1.78-5.79-4.53-5.79-4.53,2.27-4.53,5.79,1.78,5.79,4.53,5.79M75.57,43.6h1.54v-3.98c0-1.49.8-2.34,2-2.34s1.74.8,1.74,2.19v4.13h1.54v-4.34c0-2.02-1.22-3.34-2.99-3.34-.99,0-1.78.4-2.29,1.1v-.91h-1.54v7.49ZM67.28,39.86c0-1.57.93-2.61,2.3-2.61s2.29,1.02,2.29,2.54v.13c0,1.52-.91,2.53-2.29,2.53s-2.3-1.04-2.3-2.59M69.3,43.79c1.04,0,2.08-.43,2.53-1.06v.86h1.58v-7.49h-1.58v.86c-.45-.62-1.46-1.06-2.46-1.06-2.1,0-3.65,1.66-3.65,3.95s1.54,3.92,3.58,3.92M62.4,43.6h1.54v-11.2h-1.54v11.2ZM54.44,39.92v-.13c0-1.52.91-2.53,2.29-2.53s2.3,1.04,2.3,2.59-.93,2.61-2.3,2.61-2.29-1.02-2.29-2.54M52.95,47.18h1.54v-4.45c.45.62,1.46,1.06,2.46,1.06,2.1,0,3.65-1.66,3.65-3.95s-1.54-3.92-3.58-3.92c-1.04,0-2.08.43-2.53,1.06v-.86h-1.54v11.07ZM45.1,43.6h1.54v-3.33l2.9,3.33h1.95l-3.55-4.02,3.22-3.47h-1.94l-2.58,2.85v-6.56h-1.54v11.2ZM39.57,43.6h1.54v-4.08c0-1.5,1.01-2.37,2.5-2.13v-1.44c-1.14-.1-1.98.26-2.5,1.02v-.86h-1.54v7.49ZM31.47,39.86c0-1.54.94-2.54,2.37-2.54s2.38,1.01,2.38,2.54-.96,2.54-2.38,2.54-2.37-1.02-2.37-2.54M33.84,43.79c2.29,0,3.95-1.66,3.95-3.94s-1.66-3.94-3.95-3.94-3.94,1.65-3.94,3.94,1.66,3.94,3.94,3.94M17.94,43.6h1.78l2.29-7.86,2.29,7.86h1.78l3.42-11.2h-1.82l-2.46,8.58-2.54-8.58h-1.31l-2.54,8.58-2.46-8.58h-1.82l3.42,11.2Z"/>
      <path class="cls-9" d="M87.66,27.79c1.66,0,2.86-.88,2.86-2.3,0-2.69-4.14-1.9-4.14-3.41,0-.48.43-.83,1.17-.83.61,0,1.17.24,1.42,1.06l1.39-.43c-.3-1.07-1.2-1.95-2.77-1.95s-2.74.88-2.75,2.3c0,2.48,4.14,1.82,4.14,3.36,0,.54-.48.86-1.31.86-.9,0-1.44-.37-1.78-1.33l-1.38.45c.22.82,1.09,2.22,3.14,2.22M79.73,27.79c2.06,0,3.28-1.34,3.28-3.57v-4.11h-1.54v4.11c0,1.38-.66,2.21-1.74,2.21s-1.74-.83-1.74-2.21v-4.11h-1.54v4.11c0,2.22,1.23,3.57,3.28,3.57M72.86,27.6h1.54v-11.2h-1.54v11.2ZM67.59,27.79c1.73,0,3.01-.86,3.6-2.4l-1.39-.46c-.35.98-1.15,1.52-2.21,1.52-1.46,0-2.38-1.01-2.38-2.59s.93-2.59,2.38-2.59c1.1,0,1.9.54,2.26,1.52l1.33-.43c-.51-1.57-1.79-2.43-3.58-2.43-2.27,0-3.92,1.65-3.92,3.94s1.65,3.94,3.92,3.94M55.97,23.86c0-1.54.94-2.54,2.37-2.54s2.38,1.01,2.38,2.54-.96,2.54-2.38,2.54-2.37-1.02-2.37-2.54M58.33,27.79c2.29,0,3.95-1.66,3.95-3.94s-1.66-3.94-3.95-3.94-3.94,1.65-3.94,3.94,1.66,3.94,3.94,3.94M49.38,27.6h1.54v-4.08c0-1.5,1.01-2.37,2.5-2.13v-1.44c-1.14-.1-1.98.26-2.5,1.02v-.86h-1.54v7.49ZM41.88,21.68v-3.84h2.27c1.5,0,2.11.91,2.11,1.92,0,1.2-.77,1.92-2.27,1.92h-2.11ZM40.25,27.6h1.63v-4.48h2.21c2.21,0,3.81-1.33,3.81-3.39,0-1.82-1.26-3.33-3.49-3.33h-4.16v11.2ZM28.59,27.6h1.63v-4.91h4.82v-1.44h-4.82v-3.41h5.55v-1.44h-7.18v11.2ZM15.06,27.6h1.63v-8.19l3.46,5.46h.98l3.47-5.46v8.19h1.63v-11.2h-1.6l-3.98,6.38-3.97-6.38h-1.62v11.2Z"/>
      <path class="cls-9" d="M370.72,42.54v1.06h7.5v-1.44h-4.94c3.31-3.06,4.82-4.98,4.82-6.8s-1.58-3.15-3.74-3.15c-2.86,0-3.82,2.27-3.92,3.3l1.57.5c.21-1.2.74-2.35,2.43-2.35,1.34,0,2.03.74,2.03,1.78,0,1.52-1.46,3.28-5.74,7.12M362.88,41.78l4.24-6.26c.24.66.35,1.49.35,2.48,0,2.86-.99,4.35-2.9,4.35-.69,0-1.25-.19-1.7-.58M361.68,38c0-2.86.99-4.35,2.9-4.35.67,0,1.25.19,1.68.56l-4.21,6.29c-.24-.66-.37-1.49-.37-2.5M364.57,43.79c2.75,0,4.53-2.27,4.53-5.79s-1.78-5.79-4.53-5.79-4.53,2.27-4.53,5.79,1.78,5.79,4.53,5.79M355.83,43.79c1.66,0,2.86-.88,2.86-2.3,0-2.69-4.14-1.9-4.14-3.41,0-.48.43-.83,1.17-.83.61,0,1.17.24,1.42,1.06l1.39-.43c-.3-1.07-1.2-1.95-2.77-1.95s-2.74.88-2.75,2.3c0,2.48,4.14,1.82,4.14,3.36,0,.54-.48.86-1.31.86-.9,0-1.44-.37-1.78-1.33l-1.38.45c.22.82,1.09,2.22,3.14,2.22M347.65,43.79c2.16,0,3.81-1.34,3.81-3.07,0-4.02-5.76-3.22-5.76-5.52,0-1.09,1.09-1.58,1.92-1.58,1.33,0,2.02.67,2.29,1.82l1.57-.5c-.58-1.81-1.98-2.74-3.86-2.74s-3.55,1.44-3.55,2.96c0,3.71,5.76,2.85,5.76,5.55,0,1.14-1.06,1.63-2.13,1.63-1.41,0-2.26-.8-2.5-2.13l-1.57.51c.32,1.39,1.74,3.06,4.02,3.06M330.29,37.31v1.39h8.77l-3.04,2.24v1.62l5.47-3.98v-1.14l-5.47-4v1.63l3.04,2.24h-8.77ZM320.56,43.6h6.86v-1.44h-2.4v-9.76h-4.29v1.44h2.66v8.32h-2.83v1.44ZM313.09,41.78l4.24-6.26c.24.66.35,1.49.35,2.48,0,2.86-.99,4.35-2.9,4.35-.69,0-1.25-.19-1.7-.58M311.89,38c0-2.86.99-4.35,2.9-4.35.67,0,1.25.19,1.68.56l-4.21,6.29c-.24-.66-.37-1.49-.37-2.5M314.79,43.79c2.75,0,4.53-2.27,4.53-5.79s-1.78-5.79-4.53-5.79-4.53,2.27-4.53,5.79,1.78,5.79,4.53,5.79M306.04,43.79c1.66,0,2.86-.88,2.86-2.3,0-2.69-4.14-1.9-4.14-3.41,0-.48.43-.83,1.17-.83.61,0,1.17.24,1.42,1.06l1.39-.43c-.3-1.07-1.2-1.95-2.77-1.95s-2.74.88-2.75,2.3c0,2.48,4.14,1.82,4.14,3.36,0,.54-.48.86-1.31.86-.9,0-1.44-.37-1.78-1.33l-1.38.45c.22.82,1.09,2.22,3.14,2.22M297.86,43.79c2.16,0,3.81-1.34,3.81-3.07,0-4.02-5.76-3.22-5.76-5.52,0-1.09,1.09-1.58,1.92-1.58,1.33,0,2.02.67,2.29,1.82l1.57-.5c-.58-1.81-1.98-2.74-3.86-2.74s-3.55,1.44-3.55,2.96c0,3.71,5.76,2.85,5.76,5.55,0,1.14-1.06,1.63-2.13,1.63-1.41,0-2.26-.8-2.5-2.13l-1.57.51c.32,1.39,1.74,3.06,4.02,3.06"/>
      <path class="cls-9" d="M363.11,22.96c.21-1.02,1.09-1.71,2.22-1.71s1.89.66,1.97,1.71h-4.19ZM365.37,27.79c1.58,0,2.85-.77,3.55-2.32l-1.46-.45c-.34.88-1.04,1.42-2.1,1.42-1.33,0-2.29-.91-2.32-2.16h5.92v-.7c0-2.13-1.5-3.66-3.63-3.66s-3.82,1.65-3.82,3.94,1.54,3.94,3.86,3.94M353.93,23.92v-.13c0-1.52.91-2.53,2.29-2.53s2.3,1.04,2.3,2.59-.93,2.61-2.3,2.61-2.29-1.02-2.29-2.54M352.44,31.18h1.54v-4.45c.45.62,1.46,1.06,2.46,1.06,2.1,0,3.65-1.66,3.65-3.95s-1.54-3.92-3.58-3.92c-1.04,0-2.08.43-2.53,1.06v-.86h-1.54v11.07ZM344.93,31.18h1.63l4.4-11.07h-1.62l-2.16,5.84-2.16-5.84h-1.66l3.01,7.49-1.44,3.58ZM340.8,27.6h1.26v-1.34h-.98c-.85,0-1.01-.61-1.01-1.04v-3.76h1.98v-1.34h-1.98v-2.29h-1.54v2.29h-1.84v1.34h1.84v3.55c0,1.86,1.09,2.59,2.26,2.59M325.49,27.6h1.54v-3.98c0-1.49.8-2.34,2-2.34s1.74.8,1.74,2.19v4.13h1.54v-4.34c0-2.02-1.22-3.34-2.99-3.34-.99,0-1.78.4-2.29,1.1v-.91h-1.54v7.49ZM317.8,22.96c.21-1.02,1.09-1.71,2.22-1.71s1.89.66,1.97,1.71h-4.19ZM320.05,27.79c1.58,0,2.85-.77,3.55-2.32l-1.46-.45c-.34.88-1.04,1.42-2.1,1.42-1.33,0-2.29-.91-2.32-2.16h5.92v-.7c0-2.13-1.5-3.66-3.63-3.66s-3.82,1.65-3.82,3.94,1.54,3.94,3.86,3.94M308.61,23.92v-.13c0-1.52.91-2.53,2.29-2.53s2.3,1.04,2.3,2.59-.93,2.61-2.3,2.61-2.29-1.02-2.29-2.54M307.12,31.18h1.54v-4.45c.45.62,1.46,1.06,2.46,1.06,2.1,0,3.65-1.66,3.65-3.95s-1.54-3.92-3.58-3.92c-1.04,0-2.08.43-2.53,1.06v-.86h-1.54v11.07ZM295.59,22c0-2.53,1.7-4.35,4.03-4.35s4.03,1.82,4.03,4.35-1.7,4.35-4.03,4.35-4.03-1.82-4.03-4.35M299.62,27.79c3.28,0,5.66-2.43,5.66-5.79s-2.38-5.79-5.66-5.79-5.66,2.43-5.66,5.79,2.38,5.79,5.66,5.79"/>
      <path class="cls-9" d="M213.4,43.79c1.66,0,2.86-.88,2.86-2.3,0-2.69-4.14-1.9-4.14-3.41,0-.48.43-.83,1.17-.83.61,0,1.17.24,1.42,1.06l1.39-.43c-.3-1.07-1.2-1.95-2.77-1.95s-2.74.88-2.75,2.3c0,2.48,4.14,1.82,4.14,3.36,0,.54-.48.86-1.31.86-.9,0-1.44-.37-1.78-1.33l-1.38.45c.22.82,1.09,2.22,3.14,2.22M203.09,38.96c.21-1.02,1.09-1.71,2.22-1.71s1.89.66,1.97,1.71h-4.19ZM205.35,43.79c1.58,0,2.85-.77,3.55-2.32l-1.46-.45c-.34.88-1.04,1.42-2.1,1.42-1.33,0-2.29-.91-2.32-2.16h5.92v-.7c0-2.13-1.5-3.66-3.63-3.66s-3.82,1.65-3.82,3.94,1.54,3.94,3.86,3.94M198.17,43.6h1.54v-11.2h-1.54v11.2ZM190.67,47.18h1.63l4.4-11.07h-1.62l-2.16,5.84-2.16-5.84h-1.66l3.01,7.49-1.44,3.58ZM186.54,43.6h1.26v-1.34h-.98c-.85,0-1.01-.61-1.01-1.04v-3.76h1.98v-1.34h-1.98v-2.29h-1.54v2.29h-1.84v1.34h1.84v3.55c0,1.86,1.09,2.59,2.26,2.59M178.37,43.79c1.66,0,2.86-.88,2.86-2.3,0-2.69-4.14-1.9-4.14-3.41,0-.48.43-.83,1.17-.83.61,0,1.17.24,1.42,1.06l1.39-.43c-.3-1.07-1.2-1.95-2.77-1.95s-2.74.88-2.75,2.3c0,2.48,4.14,1.82,4.14,3.36,0,.54-.48.86-1.31.86-.9,0-1.44-.37-1.78-1.33l-1.38.45c.22.82,1.09,2.22,3.14,2.22M159.16,41.78l4.24-6.26c.24.66.35,1.49.35,2.48,0,2.86-.99,4.35-2.9,4.35-.69,0-1.25-.19-1.7-.58M157.96,38c0-2.86.99-4.35,2.9-4.35.67,0,1.25.19,1.68.56l-4.21,6.29c-.24-.66-.37-1.49-.37-2.5M160.85,43.79c2.75,0,4.53-2.27,4.53-5.79s-1.78-5.79-4.53-5.79-4.53,2.27-4.53,5.79,1.78,5.79,4.53,5.79M148.83,35.86c0-1.34.85-2.21,2.19-2.21s2.19.86,2.19,2.21-.85,2.3-2.19,2.3-2.19-.9-2.19-2.3M151.05,32.21c-2.3,0-3.87,1.49-3.87,3.66s1.6,3.73,3.74,3.73c.59,0,.99-.11,1.26-.29l-2.4,4.29h1.7l2.29-4.21c.82-1.5,1.09-2.42,1.09-3.41,0-2.35-1.55-3.78-3.81-3.78"/>
      <path class="cls-9" d="M202.13,27.79c1.66,0,2.86-.88,2.86-2.3,0-2.69-4.14-1.9-4.14-3.41,0-.48.43-.83,1.17-.83.61,0,1.17.24,1.42,1.06l1.39-.43c-.3-1.07-1.2-1.95-2.77-1.95s-2.74.88-2.75,2.3c0,2.48,4.14,1.82,4.14,3.36,0,.54-.48.86-1.31.86-.9,0-1.44-.37-1.78-1.33l-1.38.45c.22.82,1.09,2.22,3.14,2.22M196.48,27.6h1.26v-1.34h-.98c-.85,0-1.01-.61-1.01-1.04v-3.76h1.98v-1.34h-1.98v-2.29h-1.54v2.29h-1.84v1.34h1.84v3.55c0,1.86,1.09,2.59,2.26,2.59M187.66,27.79c2.06,0,3.28-1.34,3.28-3.57v-4.11h-1.54v4.11c0,1.38-.66,2.21-1.74,2.21s-1.74-.83-1.74-2.21v-4.11h-1.54v4.11c0,2.22,1.23,3.57,3.28,3.57M179.27,27.79c1.73,0,3.01-.86,3.6-2.4l-1.39-.46c-.35.98-1.15,1.52-2.21,1.52-1.46,0-2.38-1.01-2.38-2.59s.93-2.59,2.38-2.59c1.1,0,1.9.54,2.26,1.52l1.33-.43c-.51-1.57-1.79-2.43-3.58-2.43-2.27,0-3.92,1.65-3.92,3.94s1.65,3.94,3.92,3.94M159.38,19.86c0-1.34.85-2.21,2.19-2.21s2.19.86,2.19,2.21-.85,2.3-2.19,2.3-2.19-.9-2.19-2.3M161.61,16.21c-2.3,0-3.87,1.49-3.87,3.66s1.6,3.73,3.74,3.73c.59,0,.99-.11,1.26-.29l-2.4,4.29h1.7l2.29-4.21c.82-1.5,1.09-2.42,1.09-3.41,0-2.35-1.55-3.78-3.81-3.78M150.04,25.78l4.24-6.26c.24.66.35,1.49.35,2.48,0,2.86-.99,4.35-2.9,4.35-.69,0-1.25-.19-1.7-.58M148.84,22c0-2.86.99-4.35,2.9-4.35.67,0,1.25.19,1.68.56l-4.21,6.29c-.24-.66-.37-1.49-.37-2.5M151.74,27.79c2.75,0,4.53-2.27,4.53-5.79s-1.78-5.79-4.53-5.79-4.53,2.27-4.53,5.79,1.78,5.79,4.53,5.79"/>
      <path class="cls-9" d="M586.64,30.73h15.36c0-9.35-7.05-16.73-16.98-16.73v15.07h-15.02c0,9.15,7.14,16.93,16.64,16.93v-15.27Z"/>
      <path class="cls-9" d="M586.49,830.67v2.33h10.62v-2.55h-5.85c4.18-3.03,5.7-4.66,5.7-6.7,0-2.33-2-3.92-5.29-3.92-4.07,0-5.4,2.44-5.55,3.74l2.81.85c.33-1.44,1.07-2.03,2.74-2.03,1.41,0,2.18.52,2.18,1.41,0,1.63-1.63,3.18-7.36,6.88M572.06,845.95h3.55l2-9.44c.74-3.48,3.52-5.48,6.85-4.92l.7-3.33c-2.59-.22-4.7.56-6.25,2.33l.41-1.96h-3.55l-3.7,17.32ZM563.96,845.95h3.55v-14.21h3.33v-3.11h-20.57v3.11h3.33v14.21h3.55v-14.21h6.81v14.21ZM535.54,846.39c3.85,0,6.62-2.03,6.62-5.33,0-6.22-9.58-4.4-9.58-7.88,0-1.11,1-1.92,2.7-1.92,1.41,0,2.7.56,3.29,2.44l3.22-1c-.7-2.48-2.78-4.51-6.4-4.51s-6.33,2.03-6.36,5.33c0,5.74,9.58,4.22,9.58,7.77,0,1.26-1.11,2-3.03,2-2.07,0-3.33-.85-4.11-3.07l-3.18,1.04c.52,1.89,2.52,5.14,7.25,5.14M521.22,824.3c0,1.22,1,2.22,2.22,2.22s2.22-1,2.22-2.22-1-2.18-2.22-2.18-2.22,1-2.22,2.18M521.67,845.95h3.55v-17.32h-3.55v17.32ZM503.35,845.95h3.55v-9.44c0-3.48,2.33-5.48,5.77-4.92v-3.33c-2.63-.22-4.59.59-5.77,2.37v-2h-3.55v17.32ZM487.55,846.39c3.85,0,6.62-2.03,6.62-5.33,0-6.22-9.58-4.4-9.58-7.88,0-1.11,1-1.92,2.7-1.92,1.41,0,2.7.56,3.29,2.44l3.22-1c-.7-2.48-2.77-4.51-6.4-4.51s-6.33,2.03-6.36,5.33c0,5.74,9.58,4.22,9.58,7.77,0,1.26-1.11,2-3.03,2-2.07,0-3.33-.85-4.11-3.07l-3.18,1.04c.52,1.89,2.52,5.14,7.25,5.14M469.94,846.39c4.77,0,7.58-3.11,7.58-8.25v-9.51h-3.55v9.51c0,3.18-1.52,5.11-4.03,5.11s-4.03-1.92-4.03-5.11v-9.51h-3.55v9.51c0,5.14,2.85,8.25,7.58,8.25M454.55,824.3c0,1.22,1,2.22,2.22,2.22s2.22-1,2.22-2.22-1-2.18-2.22-2.18-2.22,1-2.22,2.18M454.99,845.95h3.55v-17.32h-3.55v17.32ZM436.79,837.29c0-3.63,2.15-6.03,5.33-6.03s5.29,2.37,5.29,5.88v.3c0,3.52-2.11,5.85-5.29,5.85s-5.33-2.4-5.33-5.99M441.45,846.39c2.41,0,4.81-1,5.85-2.44v2h3.55v-25.9h-3.55v10.58c-1.04-1.44-3.37-2.44-5.7-2.44-4.85,0-8.44,3.85-8.44,9.14s3.55,9.07,8.29,9.07M415.66,837.29c0-3.63,2.15-6.03,5.33-6.03s5.29,2.37,5.29,5.88v.3c0,3.52-2.11,5.85-5.29,5.85s-5.33-2.4-5.33-5.99M420.33,846.39c2.4,0,4.81-1,5.85-2.44v2h3.66v-17.32h-3.66v2c-1.04-1.44-3.37-2.44-5.7-2.44-4.85,0-8.44,3.85-8.44,9.14s3.55,9.07,8.29,9.07M400.6,845.95h3.55v-9.44c0-3.48,2.33-5.48,5.77-4.92v-3.33c-2.63-.22-4.59.59-5.77,2.37v-2h-3.55v17.32ZM375.08,845.95h3.55v-9.21c0-3.44,1.85-5.4,4.62-5.4s4.03,1.85,4.03,5.07v9.55h3.55v-10.03c0-4.66-2.81-7.73-6.92-7.73-2.29,0-4.11.93-5.29,2.55v-10.69h-3.55v25.9ZM368.79,845.95h2.92v-3.11h-2.26c-1.96,0-2.33-1.41-2.33-2.4v-8.69h4.59v-3.11h-4.59v-5.29h-3.55v5.29h-4.26v3.11h4.26v8.21c0,4.29,2.52,5.99,5.22,5.99M352.25,824.3c0,1.22,1,2.22,2.22,2.22s2.22-1,2.22-2.22-1-2.18-2.22-2.18-2.22,1-2.22,2.18M352.69,845.95h3.55v-17.32h-3.55v17.32ZM327.83,845.95h4.44l3.59-11.14,3.59,11.14h4.44l5.85-17.32h-4.14l-3.92,13.32-4.14-13.32h-3.33l-4.14,13.32-3.92-13.32h-4.14l5.85,17.32ZM300.34,835.22c.48-2.37,2.52-3.96,5.14-3.96s4.37,1.52,4.55,3.96h-9.69ZM305.55,846.39c3.66,0,6.59-1.78,8.21-5.37l-3.37-1.04c-.78,2.03-2.4,3.29-4.85,3.29-3.07,0-5.29-2.11-5.36-4.99h13.69v-1.63c0-4.92-3.48-8.47-8.4-8.47s-8.84,3.81-8.84,9.1,3.55,9.1,8.92,9.1M289.75,845.95h3.55v-25.9h-3.55v25.9ZM278.32,846.39c4,0,6.96-2,8.32-5.55l-3.22-1.07c-.81,2.26-2.66,3.51-5.11,3.51-3.37,0-5.51-2.33-5.51-5.99s2.15-5.99,5.51-5.99c2.55,0,4.4,1.26,5.22,3.51l3.07-1c-1.18-3.63-4.14-5.62-8.29-5.62-5.25,0-9.07,3.81-9.07,9.1s3.81,9.1,9.07,9.1M257.82,845.95h3.55v-9.44c0-3.48,2.33-5.48,5.77-4.92v-3.33c-2.63-.22-4.59.59-5.77,2.37v-2h-3.55v17.32ZM249.68,824.3c0,1.22,1,2.22,2.22,2.22s2.22-1,2.22-2.22-1-2.18-2.22-2.18-2.22,1-2.22,2.18M250.13,845.95h3.55v-17.32h-3.55v17.32ZM238.7,846.39c4,0,6.96-2,8.32-5.55l-3.22-1.07c-.81,2.26-2.66,3.51-5.11,3.51-3.37,0-5.51-2.33-5.51-5.99s2.15-5.99,5.51-5.99c2.55,0,4.4,1.26,5.22,3.51l3.07-1c-1.18-3.63-4.14-5.62-8.29-5.62-5.25,0-9.07,3.81-9.07,9.1s3.81,9.1,9.07,9.1M206.21,837.29c0-3.63,2.15-6.03,5.33-6.03s5.29,2.37,5.29,5.88v.3c0,3.52-2.11,5.85-5.29,5.85s-5.33-2.4-5.33-5.99M210.87,846.39c2.4,0,4.81-1,5.85-2.44v2h3.66v-17.32h-3.66v2c-1.04-1.44-3.37-2.44-5.7-2.44-4.85,0-8.44,3.85-8.44,9.14s3.55,9.07,8.29,9.07M186.64,845.95h3.55v-14.21h4.22v-3.11h-4.22v-3c0-1.92,1.44-2.48,2.55-2.48h1.66v-3.11h-1.85c-3.59,0-5.92,2.07-5.92,6.22v2.37h-2.78v3.11h2.78v14.21ZM166.99,837.29c0-3.55,2.18-5.88,5.48-5.88s5.51,2.33,5.51,5.88-2.22,5.88-5.51,5.88-5.48-2.37-5.48-5.88M172.47,846.39c5.29,0,9.14-3.85,9.14-9.1s-3.85-9.1-9.14-9.1-9.1,3.81-9.1,9.1,3.85,9.1,9.1,9.1M139.94,837.29c0-3.63,2.15-6.03,5.33-6.03s5.29,2.37,5.29,5.88v.3c0,3.52-2.11,5.85-5.29,5.85s-5.33-2.4-5.33-5.99M144.61,846.39c2.4,0,4.81-1,5.85-2.44v2h3.66v-17.32h-3.66v2c-1.04-1.44-3.37-2.44-5.7-2.44-4.85,0-8.44,3.85-8.44,9.14s3.55,9.07,8.29,9.07M119.78,835.22c.48-2.37,2.52-3.96,5.14-3.96s4.37,1.52,4.55,3.96h-9.69ZM125,846.39c3.66,0,6.59-1.78,8.21-5.37l-3.37-1.04c-.78,2.03-2.4,3.29-4.85,3.29-3.07,0-5.29-2.11-5.36-4.99h13.69v-1.63c0-4.92-3.48-8.47-8.4-8.47s-8.84,3.81-8.84,9.1,3.55,9.1,8.92,9.1M104.65,845.95h3.55v-9.44c0-3.48,2.33-5.48,5.77-4.92v-3.33c-2.63-.22-4.59.59-5.77,2.37v-2h-3.55v17.32ZM86.33,837.29c0-3.63,2.15-6.03,5.33-6.03s5.29,2.37,5.29,5.88v.3c0,3.52-2.11,5.85-5.29,5.85s-5.33-2.4-5.33-5.99M91,846.39c2.4,0,4.81-1,5.85-2.44v2h3.66v-17.32h-3.66v2c-1.04-1.44-3.37-2.44-5.7-2.44-4.85,0-8.44,3.85-8.44,9.14s3.55,9.07,8.29,9.07M60.69,835.22c.48-2.37,2.52-3.96,5.14-3.96s4.37,1.52,4.55,3.96h-9.69ZM65.91,846.39c3.66,0,6.59-1.78,8.21-5.37l-3.37-1.04c-.78,2.03-2.41,3.29-4.85,3.29-3.07,0-5.29-2.11-5.37-4.99h13.69v-1.63c0-4.92-3.48-8.47-8.4-8.47s-8.84,3.81-8.84,9.1,3.55,9.1,8.92,9.1M38.2,845.95h3.55v-9.21c0-3.44,1.85-5.4,4.62-5.4s4.03,1.85,4.03,5.07v9.55h3.55v-10.03c0-4.66-2.81-7.73-6.92-7.73-2.29,0-4.11.93-5.29,2.55v-10.69h-3.55v25.9ZM23.29,845.95h3.77v-22.61h7.99v-3.29H15.3v3.29h7.99v22.61Z"/>
      <path class="cls-9" d="M22.66,305.78l9.81-14.47c.56,1.52.81,3.44.81,5.74,0,6.62-2.29,10.06-6.7,10.06-1.59,0-2.89-.44-3.92-1.33M19.88,297.05c0-6.62,2.29-10.06,6.7-10.06,1.55,0,2.89.44,3.89,1.29l-9.73,14.54c-.55-1.52-.85-3.44-.85-5.77M26.58,310.44c6.36,0,10.47-5.25,10.47-13.39s-4.11-13.39-10.47-13.39-10.47,5.25-10.47,13.39,4.11,13.39,10.47,13.39"/>
    </g>
    <polygon class="cls-9" points="187.63 310 191.4 310 191.4 284.1 182.96 284.1 182.96 287.43 187.63 287.43 187.63 310"/>
    <g class="cls-13">
      <path class="cls-9" d="M350.87,307.56v2.44h17.35v-3.33h-11.43c7.66-7.07,11.14-11.51,11.14-15.72s-3.66-7.29-8.66-7.29c-6.62,0-8.84,5.25-9.06,7.62l3.63,1.15c.48-2.78,1.7-5.44,5.62-5.44,3.11,0,4.7,1.7,4.7,4.11,0,3.52-3.37,7.59-13.28,16.47"/>
      <path class="cls-9" d="M527.43,310.44c6.14,0,9.62-4.51,9.62-8.84,0-4.81-3.03-7.14-6.25-8.03l5.22-6.55v-2.92h-16.39v3.33h11.58l-5.03,6.44v2.44c3.81,0,7.1,1.74,7.1,5.29,0,3.37-2.63,5.51-5.92,5.51s-5.22-2.15-6.07-4.99l-3.66,1.18c1.11,4.14,4.99,7.14,9.8,7.14"/>
      <path class="cls-9" d="M548.14,813.95h33v-12.6h-18.6v-45h18.6v-12.6h-18.6v-21.45h-14.4v21.45h-17.25v12.6h17.25v57.6ZM456.49,813.95h14.4v-57.6h33.9v57.6h14.4v-70.2h-62.7v70.2ZM390.94,793.4c0-7.5,6.3-11.1,19.35-11.1h15.75v1.8c0,11.7-8.85,19.05-21.75,19.05-8.85,0-13.35-3.45-13.35-9.75M402.79,815.75c11.4,0,19.35-3.9,23.25-11.1v9.3h14.4v-70.2h-55.65v12.6h41.25v13.8h-16.5c-20.25,0-33,8.7-33,24,0,13.2,9.3,21.6,26.25,21.6M332.74,813.95h33v-12.6h-18.6v-45h18.6v-12.6h-18.6v-21.45h-14.4v21.45h-17.25v12.6h17.25v57.6ZM279.65,815.75c15.6,0,26.85-8.25,26.85-21.6,0-25.2-38.85-17.85-38.85-31.95,0-4.5,4.05-7.8,10.95-7.8,5.7,0,10.95,2.25,13.35,9.9l13.05-4.05c-2.85-10.05-11.25-18.3-25.95-18.3s-25.65,8.25-25.8,21.6c0,23.25,38.85,17.1,38.85,31.5,0,5.1-4.5,8.1-12.3,8.1-8.4,0-13.5-3.45-16.65-12.45l-12.9,4.2c2.1,7.65,10.2,20.85,29.4,20.85M175.85,813.95h14.4v-57.6h33.9v57.6h14.4v-70.2h-62.7v70.2ZM103.85,778.85c0-14.4,8.85-23.85,22.2-23.85s22.35,9.45,22.35,23.85-9,23.85-22.35,23.85-22.2-9.6-22.2-23.85M126.05,815.75c21.45,0,37.05-15.6,37.05-36.9s-15.6-36.9-37.05-36.9-36.9,15.45-36.9,36.9,15.6,36.9,36.9,36.9M23.9,813.95h56.1v-12.6h-41.7v-45h41.7v-12.6H23.9v70.2Z"/>
      <path class="cls-9" d="M584.61,709.95h14.4v-105h-14.4v105ZM519.06,689.4c0-7.5,6.3-11.1,19.35-11.1h15.75v1.8c0,11.7-8.85,19.05-21.75,19.05-8.85,0-13.35-3.45-13.35-9.75M530.91,711.75c11.4,0,19.35-3.9,23.25-11.1v9.3h14.4v-70.2h-55.65v12.6h41.25v13.8h-16.5c-20.25,0-33,8.7-33,24,0,13.2,9.3,21.6,26.25,21.6M437.77,709.95h56.1v-12.6h-41.7v-45h41.7v-12.6h-56.1v70.2ZM405.52,622.2c0,4.95,4.05,9,9,9s9-4.05,9-9-4.05-8.85-9-8.85-9,4.05-9,8.85M407.32,709.95h14.4v-70.2h-14.4v70.2ZM361.42,709.95h33v-12.6h-18.6v-45h18.6v-12.6h-18.6v-21.45h-14.4v21.45h-17.25v12.6h17.25v57.6ZM282.97,689.4c0-7.5,6.3-11.1,19.35-11.1h15.75v1.8c0,11.7-8.85,19.05-21.75,19.05-8.85,0-13.35-3.45-13.35-9.75M294.82,711.75c11.4,0,19.35-3.9,23.25-11.1v9.3h14.4v-70.2h-55.65v12.6h41.25v13.8h-16.5c-20.25,0-33,8.7-33,24,0,13.2,9.3,21.6,26.25,21.6M150.82,709.95h14.4v-37.35c0-14.1,6.3-21.9,17.7-21.9,8.85,0,13.8,7.35,13.8,20.55v38.7h14.4v-37.35c0-14.1,6.3-21.9,17.7-21.9,8.85,0,13.8,7.35,13.8,20.55v38.7h14.4v-40.65c0-20.1-9.15-31.35-25.5-31.35-11.1,0-19.05,4.95-23.4,14.25-3.9-9.3-11.55-14.25-22.5-14.25-8.85,0-15.75,3.15-20.4,9.3v-7.5h-14.4v70.2Z"/>
      <path class="cls-9" d="M369.95,562.45c1.95-9.6,10.2-16.05,20.85-16.05s17.7,6.15,18.45,16.05h-39.3ZM391.1,607.75c14.85,0,26.7-7.2,33.3-21.75l-13.65-4.2c-3.15,8.25-9.75,13.35-19.65,13.35-12.45,0-21.45-8.55-21.75-20.25h55.5v-6.6c0-19.95-14.1-34.35-34.05-34.35s-35.85,15.45-35.85,36.9,14.4,36.9,36.15,36.9M279.5,605.95h14.4v-57.6h33.9v57.6h14.4v-70.2h-48.3v-34.8h-14.4v105ZM233.6,605.95h33v-12.6h-18.6v-45h18.6v-12.6h-18.6v-21.45h-14.4v21.45h-17.25v12.6h17.25v57.6ZM155.15,585.4c0-7.5,6.3-11.1,19.35-11.1h15.75v1.8c0,11.7-8.85,19.05-21.75,19.05-8.85,0-13.35-3.45-13.35-9.75M167,607.75c11.4,0,19.35-3.9,23.25-11.1v9.3h14.4v-70.2h-55.65v12.6h41.25v13.8h-16.5c-20.25,0-33,8.7-33,24,0,13.2,9.3,21.6,26.25,21.6M23.9,605.95h15.3v-76.8l32.4,51.15h9.15l32.55-51.15v76.8h15.3v-105h-15l-37.35,59.85-37.2-59.85h-15.15v105Z"/>
      <path class="cls-9" d="M452.59,234.5c1.95-9.6,10.2-16.05,20.85-16.05s17.7,6.15,18.45,16.05h-39.3ZM473.74,279.8c14.85,0,26.7-7.2,33.3-21.75l-13.65-4.2c-3.15,8.25-9.75,13.35-19.65,13.35-12.45,0-21.45-8.55-21.75-20.25h55.5v-6.6c0-19.95-14.1-34.35-34.05-34.35s-35.85,15.45-35.85,36.9,14.4,36.9,36.15,36.9M394.1,279.8c16.2,0,28.2-8.1,33.75-22.5l-13.05-4.35c-3.3,9.15-10.8,14.25-20.7,14.25-13.65,0-22.35-9.45-22.35-24.3s8.7-24.3,22.35-24.3c10.35,0,17.85,5.1,21.15,14.25l12.45-4.05c-4.8-14.7-16.8-22.8-33.6-22.8-21.3,0-36.75,15.45-36.75,36.9s15.45,36.9,36.75,36.9M281.9,278h14.4v-37.35c0-13.95,7.5-21.9,18.75-21.9s16.35,7.5,16.35,20.55v38.7h14.4v-40.65c0-18.9-11.4-31.35-28.05-31.35-9.3,0-16.65,3.75-21.45,10.35v-8.55h-14.4v70.2ZM214.1,234.5c1.95-9.6,10.2-16.05,20.85-16.05s17.7,6.15,18.45,16.05h-39.3ZM235.25,279.8c14.85,0,26.7-7.2,33.3-21.75l-13.65-4.2c-3.15,8.25-9.75,13.35-19.65,13.35-12.45,0-21.45-8.55-21.75-20.25h55.5v-6.6c0-19.95-14.1-34.35-34.05-34.35s-35.85,15.45-35.85,36.9,14.4,36.9,36.15,36.9M153.5,278h14.4v-38.25c0-14.1,9.45-22.2,23.4-19.95v-13.5c-10.65-.9-18.6,2.4-23.4,9.6v-8.1h-14.4v70.2ZM85.7,234.5c1.95-9.6,10.2-16.05,20.85-16.05s17.7,6.15,18.45,16.05h-39.3ZM106.85,279.8c14.85,0,26.7-7.2,33.3-21.75l-13.65-4.2c-3.15,8.25-9.75,13.35-19.65,13.35-12.45,0-21.45-8.55-21.75-20.25h55.5v-6.6c0-19.95-14.1-34.35-34.05-34.35s-35.85,15.45-35.85,36.9,14.4,36.9,36.15,36.9M30.8,278h14.4v-57.6h17.1v-12.6h-17.1v-12.15c0-7.8,5.85-10.05,10.35-10.05h6.75v-12.6h-7.5c-14.55,0-24,8.4-24,25.2v9.6h-11.25v12.6h11.25v57.6Z"/>
      <path class="cls-9" d="M487.1,174h14.4v-37.35c0-14.1,6.3-21.9,17.7-21.9,8.85,0,13.8,7.35,13.8,20.55v38.7h14.4v-37.35c0-14.1,6.3-21.9,17.7-21.9,8.85,0,13.8,7.35,13.8,20.55v38.7h14.4v-40.65c0-20.1-9.15-31.35-25.5-31.35-11.1,0-19.05,4.95-23.4,14.25-3.9-9.3-11.55-14.25-22.5-14.25-8.85,0-15.75,3.15-20.4,9.3v-7.5h-14.4v70.2ZM441.5,175.8c19.35,0,30.75-12.6,30.75-33.45v-38.55h-14.4v38.55c0,12.9-6.15,20.7-16.35,20.7s-16.35-7.8-16.35-20.7v-38.55h-14.4v38.55c0,20.85,11.55,33.45,30.75,33.45M366.06,175.8c16.2,0,28.2-8.1,33.75-22.5l-13.05-4.35c-3.3,9.15-10.8,14.25-20.7,14.25-13.65,0-22.35-9.45-22.35-24.3s8.7-24.3,22.35-24.3c10.35,0,17.85,5.1,21.15,14.25l12.45-4.05c-4.8-14.7-16.8-22.8-33.6-22.8-21.3,0-36.75,15.45-36.75,36.9s15.45,36.9,36.75,36.9M283.71,174h14.4v-38.25c0-14.1,9.45-22.2,23.4-19.95v-13.5c-10.65-.9-18.6,2.4-23.4,9.6v-8.1h-14.4v70.2ZM251.46,86.25c0,4.95,4.05,9,9,9s9-4.05,9-9-4.05-8.85-9-8.85-9,4.05-9,8.85M253.26,174h14.4v-70.2h-14.4v70.2ZM194.31,175.8c20.85,0,39.9-12.45,47.1-30.75l-14.7-4.65c-4.95,13.05-18.15,21.9-32.4,21.9-22.5,0-37.95-16.5-37.95-40.8s15.45-40.8,37.95-40.8c14.25,0,27.45,8.85,32.4,21.9l14.7-4.65c-7.2-18.3-26.25-30.75-47.1-30.75-31.65,0-53.25,22.05-53.25,54.3s21.6,54.3,53.25,54.3M81.81,144h14.4v-57.6h13.5v-12.6H26.31v12.6h13.5v57.6h14.4v-57.6h27.6v57.6Z"/>
    </g>
    <line class="cls-7" x1="602" y1="478" x2="14" y2="478"/>
    <g class="cls-12">
      <circle class="cls-7" cx="97.76" cy="394.11" r="83.75" transform="translate(-296.49 491.35) rotate(-89.92)"/>
      <circle class="cls-7" cx="264.93" cy="394.11" r="83.75"/>
      <circle class="cls-7" cx="432.42" cy="394.11" r="83.75" transform="translate(35.99 824.41) rotate(-89.69)"/>
      <path class="cls-5" d="M599,306.25c-45.52,1.56-82.04,38.57-82.82,84.28"/>
      <path class="cls-5" d="M516.22,395.02c1.56,45.52,38.57,82.04,84.28,82.82"/>
      <path class="cls-1" d="M602,477.86h0M516.17,392.03h0M602,306.2h0"/>
    </g>
    <line class="cls-7" x1="528.5" y1="478" x2="14" y2="478"/>
    <line class="cls-3" x1="181.44" y1="476.95" x2="181.44" y2="310.84"/>
    <line class="cls-3" x1="348.68" y1="478.37" x2="348.68" y2="312.26"/>
    <line class="cls-3" x1="516.17" y1="478.37" x2="516.17" y2="312.26"/>
    <g class="cls-11">
      <line class="cls-6" y1="478" x2="14" y2="478"/>
    </g>
    <line class="cls-4" x1="14.25" y1="478.5" x2="14.25" y2="312.13"/>
    <g class="cls-14">
      <path class="cls-9" d="M525.8,43.6h1.54v-3.98c0-1.49.8-2.34,2-2.34s1.74.8,1.74,2.19v4.13h1.54v-4.34c0-2.02-1.22-3.34-2.99-3.34-.99,0-1.78.4-2.29,1.1v-4.62h-1.54v11.2ZM522.87,43.6h1.26v-1.34h-.98c-.85,0-1.01-.61-1.01-1.04v-3.76h1.98v-1.34h-1.98v-2.29h-1.54v2.29h-1.84v1.34h1.84v3.55c0,1.86,1.09,2.59,2.26,2.59M511.19,39.86c0-1.57.93-2.61,2.3-2.61s2.29,1.02,2.29,2.54v.13c0,1.52-.91,2.53-2.29,2.53s-2.3-1.04-2.3-2.59M513.21,43.79c1.04,0,2.08-.43,2.53-1.06v.86h1.54v-11.2h-1.54v4.58c-.45-.62-1.46-1.06-2.46-1.06-2.1,0-3.65,1.66-3.65,3.95s1.54,3.92,3.58,3.92M506.15,34.24c0,.53.43.96.96.96s.96-.43.96-.96-.43-.94-.96-.94-.96.43-.96.94M506.34,43.6h1.54v-7.49h-1.54v7.49ZM495.37,43.6h1.92l1.55-4.82,1.55,4.82h1.92l2.53-7.49h-1.79l-1.7,5.76-1.79-5.76h-1.44l-1.79,5.76-1.7-5.76h-1.79l2.53,7.49ZM478.11,41.78l4.24-6.26c.24.66.35,1.49.35,2.48,0,2.86-.99,4.35-2.9,4.35-.69,0-1.25-.19-1.7-.58M476.91,38c0-2.86.99-4.35,2.9-4.35.67,0,1.25.19,1.68.56l-4.21,6.29c-.24-.66-.37-1.49-.37-2.5M479.81,43.79c2.75,0,4.53-2.27,4.53-5.79s-1.78-5.79-4.53-5.79-4.53,2.27-4.53,5.79,1.78,5.79,4.53,5.79M467.52,41.78l4.24-6.26c.24.66.35,1.49.35,2.48,0,2.86-.99,4.35-2.9,4.35-.69,0-1.25-.19-1.7-.58M466.32,38c0-2.86.99-4.35,2.9-4.35.67,0,1.25.19,1.68.56l-4.21,6.29c-.24-.66-.37-1.49-.37-2.5M469.22,43.79c2.75,0,4.53-2.27,4.53-5.79s-1.78-5.79-4.53-5.79-4.53,2.27-4.53,5.79,1.78,5.79,4.53,5.79M456.61,43.6h6.86v-1.44h-2.4v-9.76h-4.29v1.44h2.66v8.32h-2.83v1.44ZM440.94,32.72v7.49h7.01l-2.4,1.78v1.62l4.83-3.52v-1.14l-4.83-3.54v1.63l2.4,1.78h-5.47v-6.1h-1.54Z"/>
      <path class="cls-9" d="M540.25,27.6h1.26v-1.34h-.98c-.85,0-1.01-.61-1.01-1.04v-3.76h1.98v-1.34h-1.98v-2.29h-1.54v2.29h-1.84v1.34h1.84v3.55c0,1.86,1.09,2.59,2.26,2.59M528.04,27.6h1.54v-3.98c0-1.49.8-2.34,2-2.34s1.74.8,1.74,2.19v4.13h1.54v-4.34c0-2.02-1.22-3.34-2.99-3.34-.99,0-1.78.4-2.29,1.1v-4.62h-1.54v11.2ZM519.83,23.86c0-1.57.91-2.61,2.29-2.61s2.29,1.02,2.29,2.54v.13c0,1.52-.91,2.53-2.29,2.53s-2.29-1.04-2.29-2.59M522.12,31.38c2.29,0,3.76-1.41,3.76-3.78v-7.49h-1.54v.85c-.46-.61-1.46-1.04-2.45-1.04-2.08,0-3.63,1.66-3.63,3.95s1.52,3.92,3.57,3.92c1.04,0,2.05-.43,2.51-1.04v.85c0,1.52-.88,2.42-2.26,2.42-1.1,0-1.9-.58-2.27-1.55l-1.47.46c.61,1.58,1.97,2.45,3.78,2.45M514.78,18.24c0,.53.43.96.96.96s.96-.43.96-.96-.43-.94-.96-.94-.96.43-.96.94M514.97,27.6h1.54v-7.49h-1.54v7.49ZM507.32,22.96c.21-1.02,1.09-1.71,2.22-1.71s1.89.66,1.97,1.71h-4.19ZM509.57,27.79c1.58,0,2.85-.77,3.55-2.32l-1.46-.45c-.34.88-1.04,1.42-2.1,1.42-1.33,0-2.29-.91-2.32-2.16h5.92v-.7c0-2.13-1.5-3.66-3.63-3.66s-3.82,1.65-3.82,3.94,1.54,3.94,3.86,3.94M495.37,27.6h1.92l1.55-4.82,1.55,4.82h1.92l2.53-7.49h-1.79l-1.7,5.76-1.79-5.76h-1.44l-1.79,5.76-1.7-5.76h-1.79l2.53,7.49ZM478.96,25.78l4.24-6.26c.24.66.35,1.49.35,2.48,0,2.86-.99,4.35-2.9,4.35-.69,0-1.25-.19-1.7-.58M477.76,22c0-2.86.99-4.35,2.9-4.35.67,0,1.25.19,1.68.56l-4.21,6.29c-.24-.66-.37-1.49-.37-2.5M480.66,27.79c2.75,0,4.53-2.27,4.53-5.79s-1.78-5.79-4.53-5.79-4.53,2.27-4.53,5.79,1.78,5.79,4.53,5.79M468.37,25.78l4.24-6.26c.24.66.35,1.49.35,2.48,0,2.86-.99,4.35-2.9,4.35-.69,0-1.25-.19-1.7-.58M467.17,22c0-2.86.99-4.35,2.9-4.35.67,0,1.25.19,1.68.56l-4.21,6.29c-.24-.66-.37-1.49-.37-2.5M470.06,27.79c2.75,0,4.53-2.27,4.53-5.79s-1.78-5.79-4.53-5.79-4.53,2.27-4.53,5.79,1.78,5.79,4.53,5.79M457.83,23.44l3.41-5.14v5.14h-3.41ZM461.24,27.6h1.63v-2.72h1.38v-1.44h-1.38v-7.04h-2.03l-5.04,7.39v1.09h5.44v2.72ZM440.94,16.72v7.49h7.01l-2.4,1.78v1.62l4.83-3.52v-1.14l-4.83-3.54v1.63l2.4,1.78h-5.47v-6.1h-1.54Z"/>
    </g>
  </g>
</svg>