<?xml version="1.0" encoding="UTF-8"?>
<svg xmlns="http://www.w3.org/2000/svg" xmlns:xlink="http://www.w3.org/1999/xlink" viewBox="0 0 616 423">
  <defs>
    <style>
      .cls-1, .cls-2, .cls-3, .cls-4, .cls-5 {
        fill: none;
      }

      .cls-1, .cls-3 {
        stroke-linecap: round;
        stroke-linejoin: round;
      }

      .cls-1, .cls-3, .cls-4, .cls-5 {
        stroke: #000;
      }

      .cls-6 {
        clip-path: url(#clippath);
      }

      .cls-2, .cls-7, .cls-8, .cls-9 {
        stroke-width: 0px;
      }

      .cls-10 {
        mask: url(#mask);
      }

      .cls-3 {
        stroke-dasharray: 0 0 0 2.99;
      }

      .cls-11 {
        mix-blend-mode: multiply;
      }

      .cls-12 {
        clip-path: url(#clippath-1);
      }

      .cls-13 {
        clip-path: url(#clippath-4);
      }

      .cls-14 {
        clip-path: url(#clippath-3);
      }

      .cls-15 {
        clip-path: url(#clippath-2);
      }

      .cls-16 {
        clip-path: url(#clippath-7);
      }

      .cls-17 {
        clip-path: url(#clippath-8);
      }

      .cls-18 {
        clip-path: url(#clippath-6);
      }

      .cls-19 {
        clip-path: url(#clippath-5);
      }

      .cls-20 {
        clip-path: url(#clippath-9);
      }

      .cls-4 {
        stroke-width: .5px;
      }

      .cls-7 {
        fill: url(#Dégradé_sans_nom_6);
      }

      .cls-8 {
        fill: url(#Dégradé_sans_nom_5);
      }

      .cls-21 {
        isolation: isolate;
      }
    </style>
    <clipPath id="clippath">
      <rect class="cls-2" width="616" height="423"/>
    </clipPath>
    <clipPath id="clippath-1">
      <rect class="cls-2" width="616" height="423"/>
    </clipPath>
    <clipPath id="clippath-2">
      <rect class="cls-2" x="440.3" y="14" width="175.7" height="352"/>
    </clipPath>
    <clipPath id="clippath-3">
      <rect class="cls-2" x="28.7" y="14" width="267.91" height="352"/>
    </clipPath>
    <clipPath id="clippath-4">
      <rect class="cls-2" x="219.8" y="14" width="282.34" height="352"/>
    </clipPath>
    <clipPath id="clippath-5">
      <rect class="cls-2" width="616" height="423"/>
    </clipPath>
    <clipPath id="clippath-6">
      <rect class="cls-2" width="616" height="423"/>
    </clipPath>
    <clipPath id="clippath-7">
      <rect class="cls-2" x="293.22" y="72.7" width="264.76" height="264.76"/>
    </clipPath>
    <radialGradient id="Dégradé_sans_nom_6" data-name="Dégradé sans nom 6" cx="0" cy="423" fx="0" fy="423" r="1" gradientTransform="translate(425.6 -55369.46) scale(131.38)" gradientUnits="userSpaceOnUse">
      <stop offset="0" stop-color="#fff"/>
      <stop offset=".15" stop-color="#fbfbfb"/>
      <stop offset=".28" stop-color="#f1f1f1"/>
      <stop offset=".4" stop-color="#dfdfdf"/>
      <stop offset=".52" stop-color="#c7c7c7"/>
      <stop offset=".63" stop-color="#a7a7a7"/>
      <stop offset=".74" stop-color="gray"/>
      <stop offset=".84" stop-color="#525252"/>
      <stop offset=".95" stop-color="#1e1e1e"/>
      <stop offset="1" stop-color="#000"/>
    </radialGradient>
    <mask id="mask" x="293.22" y="72.7" width="264.76" height="264.76" maskUnits="userSpaceOnUse">
      <rect class="cls-7" x="293.22" y="72.71" width="264.76" height="264.76"/>
    </mask>
    <clipPath id="clippath-8">
      <rect class="cls-2" x="293.22" y="72.7" width="264.76" height="264.76"/>
    </clipPath>
    <clipPath id="clippath-9">
      <path class="cls-2" d="M425.6,73.7c72.56,0,131.38,58.82,131.38,131.38s-58.82,131.38-131.38,131.38-131.38-58.82-131.38-131.38,58.82-131.38,131.38-131.38"/>
    </clipPath>
    <radialGradient id="Dégradé_sans_nom_5" data-name="Dégradé sans nom 5" cx="0" cy="423" fx="0" fy="423" r="1" gradientTransform="translate(425.6 -55369.46) scale(131.38)" gradientUnits="userSpaceOnUse">
      <stop offset="0" stop-color="#010202"/>
      <stop offset=".42" stop-color="#010202"/>
      <stop offset=".47" stop-color="#090a0a"/>
      <stop offset=".55" stop-color="#222323"/>
      <stop offset=".65" stop-color="#494a4a"/>
      <stop offset=".76" stop-color="#818181"/>
      <stop offset=".89" stop-color="#c6c6c6"/>
      <stop offset=".99" stop-color="#fff"/>
      <stop offset="1" stop-color="#fff"/>
    </radialGradient>
  </defs>
  <g class="cls-21">
    <g id="Calque_1" data-name="Calque 1">
      <g class="cls-6">
        <g class="cls-12">
          <g class="cls-15">
            <path class="cls-9" d="M381.1,235.03v-60.92c0-62.92,28.03-86.09,68.35-86.09h24.31c41.18,0,74.07,29.17,74.07,81.51v68.07c0,52.34-30.03,81.51-74.07,81.51h-24.6c-37.47,0-68.07-21.74-68.07-84.08M454.32,356.58c52.62,0,77.22-19.73,90.95-41.47v34.89h42.04V57.14h-42.04v34.61c-13.44-21.16-38.32-41.18-87.23-41.18-70.07,0-118.98,27.74-118.98,121.55v62.92c0,92.66,49.19,121.55,115.26,121.55"/>
          </g>
          <g class="cls-14">
            <path class="cls-9" d="M-66.82,251.9v-91.23c0-69.5,40.04-98.96,97.53-98.96h12.87c57.77,0,100.39,47.48,100.39,85.8v112.11c0,38.32-38.61,85.8-100.67,85.8h-13.44c-57.2,0-96.67-24.88-96.67-93.52M36.71,355.72c62.63,0,94.67-34.89,106.68-61.2v55.48h11.44V57.14h-11.44v55.77c-12.58-29.46-45.76-61.49-107.25-61.49-75.22,0-114.4,32.89-114.4,109.25v91.23c0,73.5,39.75,103.82,114.97,103.82"/>
          </g>
          <g class="cls-13">
            <path class="cls-9" d="M161.2,243.61v-76.36c0-66.07,34.32-92.38,82.94-92.38h18.88c49.48,0,87.23,38.32,87.23,83.51v90.38c0,45.19-34.32,83.51-87.52,83.51h-18.88c-47.48,0-82.65-23.45-82.65-88.66M249.58,356.01c57.77,0,86.37-27.17,98.96-51.19v45.19h26.6V57.14h-26.6v45.19c-13.16-25.45-42.04-51.19-97.24-51.19-72.64,0-116.69,30.32-116.69,115.26v77.22c0,82.94,44.33,112.4,114.97,112.4"/>
          </g>
          <line class="cls-4" x1="602" y1="387.13" x2="14" y2="387.13"/>
          <line class="cls-4" x1="602" y1="408.88" x2="14" y2="408.88"/>
          <g class="cls-19">
            <path class="cls-9" d="M596.1,402.37h1.25v-4.04c0-.95.4-1.39,1.02-1.39h.66c.64,0,.9.31.9,1.2v4.23h1.25v-4.41c0-1.57-.8-2.14-2.13-2.14-.69,0-1.29.17-1.69.64v-2.84h-1.26v8.75ZM591.88,402.37h2.96v-1.1h-1.71v-4.2h1.71v-1.1h-1.71v-1.54h-1.25v1.54h-1.16v1.1h1.16v5.3ZM585.22,399.67v-1c0-1.3.49-1.74,1.18-1.74h.66c.71,0,1.33.44,1.33,1.74v1c0,1.3-.56,1.74-1.33,1.74h-.66c-.6,0-1.18-.44-1.18-1.74M586.49,402.52c1.03,0,1.49-.25,1.81-.68v.53h1.25v-8.75h-1.25v2.87c-.31-.38-.76-.67-1.69-.67-1.47,0-2.65.55-2.65,2.79v1.06c0,2.24,1.17,2.85,2.52,2.85M581.22,394.99h1.3v-1.36h-1.3v1.36ZM581.24,402.37h1.25v-6.4h-1.25v6.4ZM572.26,402.37h2.05l1.12-5.38,1.12,5.38h2.05l1.49-6.4h-1.31l-1.12,5.3h-.15l-1.12-5.3h-1.89l-1.12,5.3h-.15l-1.12-5.3h-1.31l1.49,6.4ZM562.59,400.46l3.39-3.53v2.07c0,2.08-.72,2.38-1.51,2.38h-.55c-.55,0-1.06-.14-1.33-.92M562.41,399v-2c0-2.02.72-2.38,1.51-2.38h.55c.56,0,1.09.18,1.35,1.01l-3.41,3.59v-.23ZM564.19,402.52c2.19,0,3.06-1.41,3.06-3.52v-2c0-2.08-.87-3.52-3.06-3.52s-3.06,1.44-3.06,3.52v2c0,2.11.87,3.52,3.06,3.52M555.32,400.46l3.39-3.53v2.07c0,2.08-.72,2.38-1.51,2.38h-.55c-.55,0-1.06-.14-1.33-.92M555.13,399v-2c0-2.02.72-2.38,1.51-2.38h.55c.56,0,1.09.18,1.35,1.01l-3.41,3.59v-.23ZM556.92,402.52c2.19,0,3.06-1.41,3.06-3.52v-2c0-2.08-.87-3.52-3.06-3.52s-3.06,1.44-3.06,3.52v2c0,2.11.87,3.52,3.06,3.52M547.18,402.37h5.26v-1.15h-1.89v-7.6h-3.37v1.19h2.1v6.41h-2.1v1.15ZM536.79,393.89h-1.12v6.24h5.1l-1.58,1.57.69.67,2.81-2.8-2.81-2.8-.69.67,1.58,1.58h-3.99v-5.12ZM523.4,402.37h2.96v-1.1h-1.71v-4.2h1.71v-1.1h-1.71v-1.54h-1.25v1.54h-1.16v1.1h1.16v5.3ZM516.19,402.37h1.25v-4.04c0-.95.4-1.39,1.03-1.39h.66c.64,0,.9.31.9,1.2v4.23h1.25v-4.41c0-1.57-.8-2.14-2.13-2.14-.69,0-1.29.17-1.69.64v-2.84h-1.26v8.75ZM510.1,399.24v-.38c0-1.43.48-1.93,1.2-1.93h.57c.71,0,1.39.34,1.39,1.9v.34c0,1.66-.68,2.1-1.39,2.1h-.57c-.74,0-1.2-.34-1.2-2.04M511.68,405.02c1.89,0,2.76-.97,2.76-2.65v-6.4h-1.25v.52c-.32-.37-.79-.67-1.64-.67-1.58,0-2.7.94-2.7,2.79v.81c0,2.14,1.12,2.85,2.6,2.85.87,0,1.42-.22,1.74-.59v.69c0,1.39-.64,1.55-1.12,1.55h-.66c-.55,0-1.19-.2-1.19-1.03h-1.22c0,1.06.52,2.12,2.69,2.12M506.1,394.99h1.3v-1.36h-1.3v1.36ZM506.13,402.37h1.25v-6.4h-1.25v6.4ZM500.43,398.45c.02-.91.29-1.52,1.22-1.52h.68c.6,0,1.08.29,1.08,1.5v.02h-2.98ZM501.91,402.52c1.71,0,2.73-.66,2.73-2.14v-.04h-1.25v.06c0,.65-.33,1.01-.99,1.01h-.76c-.89,0-1.22-.51-1.22-1.69v-.17h4.24v-.98c0-1.36-.4-2.75-2.67-2.75-1.66,0-2.81.74-2.81,2.75v1.1c0,1.66.66,2.85,2.74,2.85M490.58,402.37h2.05l1.12-5.38,1.12,5.38h2.05l1.49-6.4h-1.31l-1.12,5.3h-.15l-1.12-5.3h-1.89l-1.12,5.3h-.15l-1.12-5.3h-1.31l1.49,6.4ZM481.23,400.46l3.39-3.53v2.07c0,2.08-.72,2.38-1.51,2.38h-.55c-.55,0-1.06-.14-1.32-.92M481.05,399v-2c0-2.02.72-2.38,1.51-2.38h.55c.56,0,1.09.18,1.35,1.01l-3.41,3.59v-.23ZM482.83,402.52c2.19,0,3.06-1.41,3.06-3.52v-2c0-2.08-.87-3.52-3.06-3.52s-3.06,1.44-3.06,3.52v2c0,2.11.87,3.52,3.06,3.52M473.96,400.46l3.39-3.53v2.07c0,2.08-.72,2.38-1.51,2.38h-.55c-.55,0-1.06-.14-1.33-.92M473.77,399v-2c0-2.02.72-2.38,1.51-2.38h.55c.56,0,1.09.18,1.35,1.01l-3.41,3.59v-.23ZM475.56,402.52c2.19,0,3.06-1.41,3.06-3.52v-2c0-2.08-.87-3.52-3.06-3.52s-3.06,1.44-3.06,3.52v2c0,2.11.87,3.52,3.06,3.52M466.68,399.62v-.06c0-1.16.55-1.65,1.31-1.65h.57c.76,0,1.31.4,1.31,1.59v.2c0,1.17-.55,1.68-1.31,1.68h-.57c-.76,0-1.31-.65-1.31-1.75M468.28,402.52c1.64,0,2.88-.89,2.88-2.82v-.33c0-1.82-1.06-2.61-2.59-2.61-1.02,0-1.66.37-1.89.76v-.22c0-1.65.46-2.68,1.41-2.68h.6c.79,0,1.16.56,1.16,1.33v.1h1.27v-.1c0-1.58-.91-2.48-2.67-2.48-2.25,0-3.04,1.6-3.04,4.23v1.04c0,2.71,1.2,3.79,2.87,3.79M457.9,396.42l1.69,1.69h-6.3v1.12h6.3l-1.69,1.69.8.75,2.95-3-2.95-3-.8.75ZM445.05,400.46l3.39-3.53v2.07c0,2.08-.72,2.38-1.51,2.38h-.55c-.55,0-1.06-.14-1.33-.92M444.86,399v-2c0-2.02.72-2.38,1.51-2.38h.55c.56,0,1.09.18,1.35,1.01l-3.41,3.59v-.23ZM446.65,402.52c2.19,0,3.06-1.41,3.06-3.52v-2c0-2.08-.87-3.52-3.06-3.52s-3.06,1.44-3.06,3.52v2c0,2.11.87,3.52,3.06,3.52M437.77,400.46l3.39-3.53v2.07c0,2.08-.72,2.38-1.51,2.38h-.55c-.55,0-1.06-.14-1.32-.92M437.58,399v-2c0-2.02.72-2.38,1.51-2.38h.55c.56,0,1.09.18,1.35,1.01l-3.41,3.59v-.23ZM439.37,402.52c2.19,0,3.06-1.41,3.06-3.52v-2c0-2.08-.87-3.52-3.06-3.52s-3.06,1.44-3.06,3.52v2c0,2.11.87,3.52,3.06,3.52M430.08,399.17l2.36-4.46h.32v4.46h-2.68ZM432.76,402.37h1.27v-2.05h1.34v-1.15h-1.34v-5.55h-2.3l-2.97,5.55v1.15h4v2.05ZM419.24,393.89h-1.12v6.24h5.11l-1.58,1.57.69.67,2.81-2.8-2.81-2.8-.69.67,1.58,1.58h-3.99v-5.12Z"/>
            <path class="cls-9" d="M144.52,399.18l2.36-4.46h.32v4.46h-2.68ZM147.2,402.37h1.27v-2.05h1.34v-1.15h-1.34v-5.55h-2.3l-2.98,5.55v1.15h4v2.05ZM137.37,400.46l3.39-3.53v2.07c0,2.08-.72,2.38-1.51,2.38h-.55c-.55,0-1.06-.14-1.32-.92M137.18,399v-2c0-2.02.72-2.38,1.51-2.38h.55c.56,0,1.09.17,1.35,1.01l-3.41,3.59v-.23ZM138.97,402.52c2.19,0,3.06-1.41,3.06-3.52v-2c0-2.08-.87-3.52-3.06-3.52s-3.06,1.44-3.06,3.52v2c0,2.11.87,3.52,3.06,3.52M126.45,402.37h1.25v-4.04c0-.95.4-1.39,1.02-1.39h.66c.64,0,.9.31.9,1.2v4.23h1.25v-4.41c0-1.57-.8-2.14-2.13-2.14-.69,0-1.3.17-1.71.66v-.51h-1.25v6.4ZM120.6,400.65v-.08c0-.63.4-.89,1.13-.95l1.6-.12v.49c0,1.11-.79,1.5-1.42,1.5h-.43c-.51,0-.88-.3-.88-.84M121.53,402.52c.74,0,1.38-.2,1.79-.84v.69h1.86v-1.1h-.64v-3.23c0-1.54-1.07-2.22-2.47-2.22s-2.57.75-2.57,2.07v.11h1.25v-.1c0-.68.38-.98.88-.98h.82c.53,0,.84.29.84,1.08v.41l-1.57.12c-1.89.14-2.38,1.14-2.38,1.98v.07c0,1.17.73,1.94,2.19,1.94M116.73,402.37h1.25v-8.75h-1.25v8.75ZM110.84,399.67v-1c0-1.3.56-1.74,1.33-1.74h.66c.6,0,1.18.44,1.18,1.74v1c0,1.3-.49,1.74-1.18,1.74h-.66c-.71,0-1.33-.44-1.33-1.74M109.67,404.87h1.25v-3.02c.31.38.76.67,1.69.67,1.48,0,2.65-.55,2.65-2.79v-1.06c0-2.24-1.17-2.85-2.59-2.85-.96,0-1.43.24-1.75.66v-.51h-1.25v8.9ZM103.13,402.37h1.25v-3.02h.7l2.22,3.02h1.49l-2.65-3.58,2.54-2.82h-1.54l-2.01,2.27h-.75v-4.62h-1.25v8.75ZM98.92,402.37h1.25v-5.3h1.99v-1.1h-3.24v6.4ZM93.05,399.49v-.62c0-1.3.43-1.92,1.18-1.92h.8c.69,0,1.17.62,1.17,1.92v.62c0,1.3-.49,1.93-1.17,1.93h-.8c-.75,0-1.18-.62-1.18-1.93M94.62,402.52c1.8,0,2.82-1.05,2.82-2.79v-1.12c0-1.74-1.02-2.79-2.82-2.79s-2.82,1.05-2.82,2.79v1.12c0,1.74,1.02,2.79,2.82,2.79M81.85,402.37h2.2l1.53-7.04,1.52,7.04h2.2l1.99-8.75h-1.3l-1.71,7.6h-.15l-1.66-7.6h-1.77l-1.66,7.6h-.15l-1.71-7.6h-1.3l1.99,8.75ZM72.01,400.65v-.08c0-.63.4-.89,1.12-.95l1.6-.12v.49c0,1.11-.79,1.5-1.43,1.5h-.43c-.51,0-.88-.3-.88-.84M72.95,402.52c.74,0,1.38-.2,1.79-.84v.69h1.85v-1.1h-.64v-3.23c0-1.54-1.08-2.22-2.47-2.22s-2.57.75-2.57,2.07v.11h1.25v-.1c0-.68.38-.98.88-.98h.82c.52,0,.84.29.84,1.08v.41l-1.58.12c-1.89.14-2.37,1.14-2.37,1.98v.07c0,1.17.73,1.94,2.19,1.94M68.14,402.37h1.25v-8.75h-1.25v8.75ZM63.88,402.52c1.38,0,2.57-.52,2.57-2.36v-4.19h-1.25v3.95c0,1.32-.41,1.45-1.04,1.45h-.58c-.62,0-1.04-.12-1.04-1.45v-3.95h-1.25v4.19c0,1.84,1.2,2.36,2.57,2.36M57.37,402.52c1.69,0,2.71-.78,2.71-2.48v-.16h-1.25v.14c0,1.2-.69,1.39-1.19,1.39h-.55c-.78,0-1.22-.46-1.22-1.56v-1.31c0-1.16.45-1.62,1.22-1.62h.55c.49,0,1.19.19,1.19,1.37v.17h1.25v-.14c0-1.72-1.02-2.5-2.71-2.5-2.05,0-2.75,1.17-2.75,2.72v1.31c0,1.49.7,2.66,2.75,2.66M49.07,400.65v-.08c0-.63.4-.89,1.13-.95l1.6-.12v.49c0,1.11-.79,1.5-1.42,1.5h-.43c-.51,0-.88-.3-.88-.84M50.01,402.52c.74,0,1.38-.2,1.79-.84v.69h1.86v-1.1h-.64v-3.23c0-1.54-1.07-2.22-2.47-2.22s-2.57.75-2.57,2.07v.11h1.25v-.1c0-.68.38-.98.88-.98h.83c.52,0,.84.29.84,1.08v.41l-1.57.12c-1.89.14-2.38,1.14-2.38,1.98v.07c0,1.17.73,1.94,2.19,1.94M37.9,402.37h1.25v-4.04c0-.95.4-1.39,1.03-1.39h.66c.56,0,.78.31.78,1.2v4.23h1.25v-4.02c0-.96.4-1.4,1.03-1.4h.66c.56,0,.77.31.77,1.2v4.23h1.25v-4.41c0-1.57-.75-2.14-2-2.14-.73,0-1.51.19-2.01.76-.33-.54-.92-.76-1.7-.76-.7,0-1.31.17-1.71.64v-.49h-1.25v6.4ZM34.84,402.37h1.27v-8.75h-1.27v8.75ZM25.39,402.37h1.27v-3.86h3.38v-1.15h-3.38v-2.59h4v-1.15h-5.27v8.75ZM14.99,402.37h1.27v-7.48h.17l1.86,5.86h1.8l1.86-5.86h.17v7.48h1.27v-8.75h-2.32l-1.89,6.19-1.89-6.19h-2.32v8.75Z"/>
          </g>
          <line class="cls-4" x1="602" y1="14" x2="14" y2="14"/>
          <line class="cls-3" x1="152.95" y1="171.67" x2="423.61" y2="171.67"/>
          <path class="cls-1" d="M425.1,171.67h0M149.96,171.67h0"/>
          <line class="cls-3" x1="152.95" y1="145.25" x2="423.61" y2="145.25"/>
          <path class="cls-1" d="M425.1,145.25h0M149.96,145.25h0"/>
          <line class="cls-3" x1="152.95" y1="257.61" x2="423.61" y2="257.61"/>
          <path class="cls-1" d="M425.1,257.61h0M149.96,257.61h0"/>
          <line class="cls-3" x1="152.95" y1="238.52" x2="423.61" y2="238.52"/>
          <path class="cls-1" d="M425.1,238.52h0M149.96,238.52h0"/>
          <g class="cls-18">
            <path class="cls-5" d="M149.39,265.02c33.09,0,59.9-26.82,59.9-59.9s-26.82-59.91-59.9-59.91-59.9,26.82-59.9,59.91,26.82,59.9,59.9,59.9Z"/>
            <circle class="cls-5" cx="149.39" cy="205.11" r="33.41"/>
            <g class="cls-11">
              <g class="cls-16">
                <g class="cls-10">
                  <g class="cls-17">
                    <g class="cls-20">
                      <rect class="cls-8" x="294.22" y="73.7" width="262.76" height="262.76"/>
                    </g>
                  </g>
                </g>
              </g>
            </g>
          </g>
        </g>
      </g>
    </g>
  </g>
</svg>