<?xml version="1.0" encoding="UTF-8"?>
<svg id="Calque_1" data-name="Calque 1" xmlns="http://www.w3.org/2000/svg" xmlns:xlink="http://www.w3.org/1999/xlink" viewBox="0 0 616 423">
  <defs>
    <style>
      .cls-1, .cls-2, .cls-3, .cls-4, .cls-5, .cls-6 {
        fill: none;
      }

      .cls-1, .cls-3, .cls-5, .cls-6 {
        stroke: #fff;
      }

      .cls-1, .cls-6 {
        stroke-linecap: round;
        stroke-linejoin: round;
      }

      .cls-7 {
        clip-path: url(#clippath);
      }

      .cls-2, .cls-8, .cls-9, .cls-10, .cls-11, .cls-12 {
        stroke-width: 0px;
      }

      .cls-13 {
        mask: url(#mask);
      }

      .cls-14 {
        clip-path: url(#clippath-1);
      }

      .cls-15 {
        clip-path: url(#clippath-4);
      }

      .cls-16 {
        clip-path: url(#clippath-3);
      }

      .cls-17 {
        clip-path: url(#clippath-2);
      }

      .cls-18 {
        clip-path: url(#clippath-7);
      }

      .cls-19 {
        clip-path: url(#clippath-8);
      }

      .cls-20 {
        clip-path: url(#clippath-6);
      }

      .cls-21 {
        clip-path: url(#clippath-5);
      }

      .cls-22 {
        clip-path: url(#clippath-9);
      }

      .cls-3 {
        stroke-width: .5px;
      }

      .cls-23 {
        clip-path: url(#clippath-12);
      }

      .cls-24 {
        clip-path: url(#clippath-10);
      }

      .cls-25 {
        clip-path: url(#clippath-11);
      }

      .cls-4 {
        stroke: #000;
      }

      .cls-26 {
        mask: url(#mask-1);
      }

      .cls-8 {
        fill: #fff;
      }

      .cls-6 {
        stroke-dasharray: 0 0 0 3.01;
      }

      .cls-9 {
        fill: url(#Dégradé_sans_nom_14);
      }

      .cls-10 {
        fill: url(#Dégradé_sans_nom_12);
      }

      .cls-11 {
        fill: url(#Dégradé_sans_nom_11);
      }

      .cls-12 {
        fill: url(#Dégradé_sans_nom_13);
      }
    </style>
    <clipPath id="clippath">
      <rect class="cls-2" width="616" height="423"/>
    </clipPath>
    <clipPath id="clippath-1">
      <rect class="cls-2" width="616" height="423"/>
    </clipPath>
    <clipPath id="clippath-2">
      <rect class="cls-2" x="440.3" y="14" width="175.7" height="352"/>
    </clipPath>
    <clipPath id="clippath-3">
      <rect class="cls-2" x="28.7" y="14" width="267.91" height="352"/>
    </clipPath>
    <clipPath id="clippath-4">
      <rect class="cls-2" width="616" height="423"/>
    </clipPath>
    <radialGradient id="Dégradé_sans_nom_12" data-name="Dégradé sans nom 12" cx="0" cy="423" fx="0" fy="423" r="1" gradientTransform="translate(425.6 -70858.91) scale(168)" gradientUnits="userSpaceOnUse">
      <stop offset="0" stop-color="#fff"/>
      <stop offset=".15" stop-color="#fbfbfb"/>
      <stop offset=".28" stop-color="#f1f1f1"/>
      <stop offset=".4" stop-color="#dfdfdf"/>
      <stop offset=".52" stop-color="#c7c7c7"/>
      <stop offset=".63" stop-color="#a7a7a7"/>
      <stop offset=".74" stop-color="gray"/>
      <stop offset=".84" stop-color="#525252"/>
      <stop offset=".95" stop-color="#1e1e1e"/>
      <stop offset="1" stop-color="#000"/>
    </radialGradient>
    <mask id="mask" x="0" y="0" width="616" height="423" maskUnits="userSpaceOnUse">
      <rect class="cls-10" x="0" width="616" height="423"/>
    </mask>
    <clipPath id="clippath-5">
      <rect class="cls-2" x="256.6" y="36.09" width="338" height="340.3"/>
    </clipPath>
    <clipPath id="clippath-6">
      <path class="cls-2" d="M425.6,37.09c92.78,0,168,75.22,168,168s-75.22,168-168,168-168-75.22-168-168S332.82,37.09,425.6,37.09"/>
    </clipPath>
    <radialGradient id="Dégradé_sans_nom_11" data-name="Dégradé sans nom 11" cx="0" cy="423" fx="0" fy="423" r="1" gradientTransform="translate(425.6 -70858.91) scale(168)" gradientUnits="userSpaceOnUse">
      <stop offset="0" stop-color="#fff"/>
      <stop offset=".42" stop-color="#fff"/>
      <stop offset=".48" stop-color="#f9f9f9"/>
      <stop offset=".55" stop-color="#e8e8e8"/>
      <stop offset=".63" stop-color="#cdcdcd"/>
      <stop offset=".72" stop-color="#a7a7a7"/>
      <stop offset=".81" stop-color="#777"/>
      <stop offset=".91" stop-color="#3d3d3d"/>
      <stop offset="1" stop-color="#000"/>
      <stop offset="1" stop-color="#000"/>
    </radialGradient>
    <clipPath id="clippath-7">
      <rect class="cls-2" x="219.8" y="14" width="282.34" height="352"/>
    </clipPath>
    <clipPath id="clippath-8">
      <rect class="cls-2" width="616" height="423"/>
    </clipPath>
    <clipPath id="clippath-9">
      <rect class="cls-2" width="616" height="423"/>
    </clipPath>
    <clipPath id="clippath-10">
      <rect class="cls-2" width="616" height="423"/>
    </clipPath>
    <radialGradient id="Dégradé_sans_nom_14" data-name="Dégradé sans nom 14" cx="0" cy="423" fx="0" fy="423" r="1" gradientTransform="translate(153.1 16923.61) scale(39.52 -39.52)" gradientUnits="userSpaceOnUse">
      <stop offset="0" stop-color="#fff"/>
      <stop offset=".15" stop-color="#fbfbfb"/>
      <stop offset=".28" stop-color="#f1f1f1"/>
      <stop offset=".4" stop-color="#dfdfdf"/>
      <stop offset=".52" stop-color="#c7c7c7"/>
      <stop offset=".63" stop-color="#a7a7a7"/>
      <stop offset=".74" stop-color="gray"/>
      <stop offset=".84" stop-color="#525252"/>
      <stop offset=".95" stop-color="#1e1e1e"/>
      <stop offset="1" stop-color="#000"/>
    </radialGradient>
    <mask id="mask-1" x="0" y="0" width="616" height="423" maskUnits="userSpaceOnUse">
      <rect class="cls-9" y="0" width="616" height="423"/>
    </mask>
    <clipPath id="clippath-11">
      <rect class="cls-2" x="112.58" y="164.59" width="81.05" height="81.05"/>
    </clipPath>
    <clipPath id="clippath-12">
      <path class="cls-2" d="M153.1,244.63c21.83,0,39.52-17.7,39.52-39.52s-17.7-39.52-39.52-39.52-39.52,17.69-39.52,39.52,17.7,39.52,39.52,39.52"/>
    </clipPath>
    <radialGradient id="Dégradé_sans_nom_13" data-name="Dégradé sans nom 13" cx="0" cy="423" fx="0" fy="423" r="1" gradientTransform="translate(153.1 16923.61) scale(39.52 -39.52)" gradientUnits="userSpaceOnUse">
      <stop offset="0" stop-color="#fff"/>
      <stop offset=".42" stop-color="#fff"/>
      <stop offset=".48" stop-color="#f9f9f9"/>
      <stop offset=".55" stop-color="#e8e8e8"/>
      <stop offset=".63" stop-color="#cdcdcd"/>
      <stop offset=".71" stop-color="#a7a7a7"/>
      <stop offset=".8" stop-color="#777"/>
      <stop offset=".9" stop-color="#3d3d3d"/>
      <stop offset=".99" stop-color="#000"/>
      <stop offset="1" stop-color="#000"/>
    </radialGradient>
  </defs>
  <g class="cls-7">
    <g class="cls-14">
      <g class="cls-17">
        <path class="cls-8" d="M410.27,227.02v-46.9c0-45.47,15.73-63.49,41.47-63.49h23.45c26.6,0,45.76,18.3,45.76,63.49v46.9c0,45.47-17.73,64.06-45.76,64.06h-23.45c-23.45,0-41.47-18.3-41.47-64.06M439.16,356.86c42.61,0,65.49-10.87,80.37-28.6v21.74h83.23V57.14h-84.66v20.31c-15.44-15.16-36.89-27.17-75.5-27.17-66.92,0-117.55,24.6-117.55,122.98v59.49c0,94.38,49.76,124.12,114.11,124.12"/>
      </g>
      <g class="cls-16">
        <path class="cls-8" d="M-32.93,226.45v-45.76c0-59.49,22.31-79.51,53.77-79.51h30.32c32.6,0,60.63,20.02,60.63,79.51v45.76c0,59.49-25.45,79.51-60.63,79.51h-30.32c-27.46,0-53.77-20.02-53.77-79.51M25.41,356.86c47.19,0,68.07-11.44,82.94-31.17v24.31h57.2V57.14h-57.2v24.02c-14.01-17.16-34.89-30.89-77.22-30.89-67.5,0-121.26,25.17-121.26,127.56v48.62c0,102.39,53.77,130.42,115.54,130.42"/>
      </g>
      <g class="cls-15">
        <g class="cls-13">
          <g class="cls-21">
            <g class="cls-20">
              <rect class="cls-11" x="257.6" y="37.09" width="336" height="336"/>
            </g>
          </g>
        </g>
      </g>
      <g class="cls-18">
        <path class="cls-8" d="M192.81,226.73v-46.33c0-52.34,19.16-71.5,47.76-71.5h26.88c29.46,0,53.2,19.16,53.2,71.5v46.33c0,52.62-21.74,71.79-53.2,71.79h-26.88c-25.45,0-47.76-19.16-47.76-71.79M236.56,356.86c45.19,0,66.92-11.44,81.8-30.03v23.17h70.07V57.14h-70.93v22.02c-14.87-16.02-35.75-28.89-76.36-28.89-67.21,0-119.55,24.88-119.55,125.27v54.05c0,98.38,51.77,127.27,114.97,127.27"/>
      </g>
      <line class="cls-3" x1="602" y1="387.13" x2="14" y2="387.13"/>
      <line class="cls-3" x1="602" y1="408.88" x2="14" y2="408.88"/>
      <g class="cls-19">
        <path class="cls-8" d="M596.1,402.37h1.25v-4.04c0-.95.4-1.39,1.02-1.39h.66c.64,0,.9.31.9,1.2v4.23h1.25v-4.41c0-1.57-.8-2.14-2.13-2.14-.69,0-1.29.17-1.69.64v-2.84h-1.26v8.75ZM591.88,402.37h2.96v-1.1h-1.71v-4.2h1.71v-1.1h-1.71v-1.54h-1.25v1.54h-1.16v1.1h1.16v5.3ZM585.22,399.67v-1c0-1.3.49-1.74,1.18-1.74h.66c.71,0,1.33.44,1.33,1.74v1c0,1.3-.56,1.74-1.33,1.74h-.66c-.6,0-1.18-.44-1.18-1.74M586.49,402.52c1.03,0,1.49-.25,1.81-.68v.53h1.25v-8.75h-1.25v2.87c-.31-.38-.76-.67-1.69-.67-1.47,0-2.65.55-2.65,2.79v1.06c0,2.24,1.17,2.85,2.52,2.85M581.22,394.99h1.3v-1.36h-1.3v1.36ZM581.24,402.37h1.25v-6.4h-1.25v6.4ZM572.26,402.37h2.05l1.12-5.38,1.12,5.38h2.05l1.49-6.4h-1.31l-1.12,5.3h-.15l-1.12-5.3h-1.89l-1.12,5.3h-.15l-1.12-5.3h-1.31l1.49,6.4ZM562.59,400.46l3.39-3.53v2.07c0,2.08-.72,2.38-1.51,2.38h-.55c-.55,0-1.06-.14-1.33-.92M562.41,399v-2c0-2.02.72-2.38,1.51-2.38h.55c.56,0,1.09.18,1.35,1.01l-3.41,3.59v-.23ZM564.19,402.52c2.19,0,3.06-1.41,3.06-3.52v-2c0-2.08-.87-3.52-3.06-3.52s-3.06,1.44-3.06,3.52v2c0,2.11.87,3.52,3.06,3.52M555.32,400.46l3.39-3.53v2.07c0,2.08-.72,2.38-1.51,2.38h-.55c-.55,0-1.06-.14-1.33-.92M555.13,399v-2c0-2.02.72-2.38,1.51-2.38h.55c.56,0,1.09.18,1.35,1.01l-3.41,3.59v-.23ZM556.92,402.52c2.19,0,3.06-1.41,3.06-3.52v-2c0-2.08-.87-3.52-3.06-3.52s-3.06,1.44-3.06,3.52v2c0,2.11.87,3.52,3.06,3.52M547.18,402.37h5.26v-1.15h-1.89v-7.6h-3.37v1.19h2.1v6.41h-2.1v1.15ZM536.79,393.89h-1.12v6.24h5.1l-1.58,1.57.69.67,2.81-2.8-2.81-2.8-.69.67,1.58,1.58h-3.99v-5.12ZM523.4,402.37h2.96v-1.1h-1.71v-4.2h1.71v-1.1h-1.71v-1.54h-1.25v1.54h-1.16v1.1h1.16v5.3ZM516.19,402.37h1.25v-4.04c0-.95.4-1.39,1.03-1.39h.66c.64,0,.9.31.9,1.2v4.23h1.25v-4.41c0-1.57-.8-2.14-2.13-2.14-.69,0-1.29.17-1.69.64v-2.84h-1.26v8.75ZM510.1,399.24v-.38c0-1.43.48-1.93,1.2-1.93h.57c.71,0,1.39.34,1.39,1.9v.34c0,1.66-.68,2.1-1.39,2.1h-.57c-.74,0-1.2-.34-1.2-2.04M511.68,405.02c1.89,0,2.76-.97,2.76-2.65v-6.4h-1.25v.52c-.32-.37-.79-.67-1.64-.67-1.58,0-2.7.94-2.7,2.79v.81c0,2.14,1.12,2.85,2.6,2.85.87,0,1.42-.22,1.74-.59v.69c0,1.39-.64,1.55-1.12,1.55h-.66c-.55,0-1.19-.2-1.19-1.03h-1.22c0,1.06.52,2.12,2.69,2.12M506.1,394.99h1.3v-1.36h-1.3v1.36ZM506.13,402.37h1.25v-6.4h-1.25v6.4ZM500.43,398.45c.02-.91.29-1.52,1.22-1.52h.68c.6,0,1.08.29,1.08,1.5v.02h-2.98ZM501.91,402.52c1.71,0,2.73-.66,2.73-2.14v-.04h-1.25v.06c0,.65-.33,1.01-.99,1.01h-.76c-.89,0-1.22-.51-1.22-1.69v-.17h4.24v-.98c0-1.36-.4-2.75-2.67-2.75-1.66,0-2.81.74-2.81,2.75v1.1c0,1.66.66,2.85,2.74,2.85M490.58,402.37h2.05l1.12-5.38,1.12,5.38h2.05l1.49-6.4h-1.31l-1.12,5.3h-.15l-1.12-5.3h-1.89l-1.12,5.3h-.15l-1.12-5.3h-1.31l1.49,6.4ZM481.23,400.46l3.39-3.53v2.07c0,2.08-.72,2.38-1.51,2.38h-.55c-.55,0-1.06-.14-1.32-.92M481.05,399v-2c0-2.02.72-2.38,1.51-2.38h.55c.56,0,1.09.18,1.35,1.01l-3.41,3.59v-.23ZM482.83,402.52c2.19,0,3.06-1.41,3.06-3.52v-2c0-2.08-.87-3.52-3.06-3.52s-3.06,1.44-3.06,3.52v2c0,2.11.87,3.52,3.06,3.52M473.96,400.46l3.39-3.53v2.07c0,2.08-.72,2.38-1.51,2.38h-.55c-.55,0-1.06-.14-1.33-.92M473.77,399v-2c0-2.02.72-2.38,1.51-2.38h.55c.56,0,1.09.18,1.35,1.01l-3.41,3.59v-.23ZM475.56,402.52c2.19,0,3.06-1.41,3.06-3.52v-2c0-2.08-.87-3.52-3.06-3.52s-3.06,1.44-3.06,3.52v2c0,2.11.87,3.52,3.06,3.52M468.32,402.52c1.91,0,2.82-.92,2.82-2.36v-.1c0-1.06-.5-1.9-1.36-2.09.88-.19,1.36-1.04,1.36-1.99v-.16c0-1.55-1.08-2.34-2.81-2.34s-2.76.88-2.76,2.56v.24h1.27v-.17c0-1.02.52-1.48,1.2-1.48h.64c.64,0,1.19.27,1.19,1.19v.16c0,1.05-.58,1.41-1.54,1.41h-.74v1.15h.74c.84,0,1.54.36,1.54,1.53v.14c0,.77-.58,1.18-1.12,1.18h-.83c-.69,0-1.08-.47-1.08-1.69v-.13h-1.27v.26c0,1.82,1.04,2.71,2.75,2.71M457.9,396.42l1.69,1.69h-6.3v1.12h6.3l-1.69,1.69.8.75,2.95-3-2.95-3-.8.75ZM445.05,400.46l3.39-3.53v2.07c0,2.08-.72,2.38-1.51,2.38h-.55c-.55,0-1.06-.14-1.33-.92M444.86,399v-2c0-2.02.72-2.38,1.51-2.38h.55c.56,0,1.09.18,1.35,1.01l-3.41,3.59v-.23ZM446.65,402.52c2.19,0,3.06-1.41,3.06-3.52v-2c0-2.08-.87-3.52-3.06-3.52s-3.06,1.44-3.06,3.52v2c0,2.11.87,3.52,3.06,3.52M437.77,400.46l3.39-3.53v2.07c0,2.08-.72,2.38-1.51,2.38h-.55c-.55,0-1.06-.14-1.32-.92M437.58,399v-2c0-2.02.72-2.38,1.51-2.38h.55c.56,0,1.09.18,1.35,1.01l-3.41,3.59v-.23ZM439.37,402.52c2.19,0,3.06-1.41,3.06-3.52v-2c0-2.08-.87-3.52-3.06-3.52s-3.06,1.44-3.06,3.52v2c0,2.11.87,3.52,3.06,3.52M429.63,402.37h5.26v-1.15h-1.89v-7.6h-3.38v1.19h2.1v6.41h-2.1v1.15ZM419.24,393.89h-1.12v6.24h5.11l-1.58,1.57.69.67,2.81-2.8-2.81-2.8-.69.67,1.58,1.58h-3.99v-5.12Z"/>
        <path class="cls-8" d="M144.52,399.18l2.36-4.46h.32v4.46h-2.68ZM147.2,402.37h1.27v-2.05h1.34v-1.15h-1.34v-5.55h-2.3l-2.98,5.55v1.15h4v2.05ZM137.37,400.46l3.39-3.53v2.07c0,2.08-.72,2.38-1.51,2.38h-.55c-.55,0-1.06-.14-1.32-.92M137.18,399v-2c0-2.02.72-2.38,1.51-2.38h.55c.56,0,1.09.17,1.35,1.01l-3.41,3.59v-.23ZM138.97,402.52c2.19,0,3.06-1.41,3.06-3.52v-2c0-2.08-.87-3.52-3.06-3.52s-3.06,1.44-3.06,3.52v2c0,2.11.87,3.52,3.06,3.52M126.45,402.37h1.25v-4.04c0-.95.4-1.39,1.02-1.39h.66c.64,0,.9.31.9,1.2v4.23h1.25v-4.41c0-1.57-.8-2.14-2.13-2.14-.69,0-1.3.17-1.71.66v-.51h-1.25v6.4ZM120.6,400.65v-.08c0-.63.4-.89,1.13-.95l1.6-.12v.49c0,1.11-.79,1.5-1.42,1.5h-.43c-.51,0-.88-.3-.88-.84M121.53,402.52c.74,0,1.38-.2,1.79-.84v.69h1.86v-1.1h-.64v-3.23c0-1.54-1.07-2.22-2.47-2.22s-2.57.75-2.57,2.07v.11h1.25v-.1c0-.68.38-.98.88-.98h.82c.53,0,.84.29.84,1.08v.41l-1.57.12c-1.89.14-2.38,1.14-2.38,1.98v.07c0,1.17.73,1.94,2.19,1.94M116.73,402.37h1.25v-8.75h-1.25v8.75ZM110.84,399.67v-1c0-1.3.56-1.74,1.33-1.74h.66c.6,0,1.18.44,1.18,1.74v1c0,1.3-.49,1.74-1.18,1.74h-.66c-.71,0-1.33-.44-1.33-1.74M109.67,404.87h1.25v-3.02c.31.38.76.67,1.69.67,1.48,0,2.65-.55,2.65-2.79v-1.06c0-2.24-1.17-2.85-2.59-2.85-.96,0-1.43.24-1.75.66v-.51h-1.25v8.9ZM103.13,402.37h1.25v-3.02h.7l2.22,3.02h1.49l-2.65-3.58,2.54-2.82h-1.54l-2.01,2.27h-.75v-4.62h-1.25v8.75ZM98.92,402.37h1.25v-5.3h1.99v-1.1h-3.24v6.4ZM93.05,399.49v-.62c0-1.3.43-1.92,1.18-1.92h.8c.69,0,1.17.62,1.17,1.92v.62c0,1.3-.49,1.93-1.17,1.93h-.8c-.75,0-1.18-.62-1.18-1.93M94.62,402.52c1.8,0,2.82-1.05,2.82-2.79v-1.12c0-1.74-1.02-2.79-2.82-2.79s-2.82,1.05-2.82,2.79v1.12c0,1.74,1.02,2.79,2.82,2.79M81.85,402.37h2.2l1.53-7.04,1.52,7.04h2.2l1.99-8.75h-1.3l-1.71,7.6h-.15l-1.66-7.6h-1.77l-1.66,7.6h-.15l-1.71-7.6h-1.3l1.99,8.75ZM72.01,400.65v-.08c0-.63.4-.89,1.12-.95l1.6-.12v.49c0,1.11-.79,1.5-1.43,1.5h-.43c-.51,0-.88-.3-.88-.84M72.95,402.52c.74,0,1.38-.2,1.79-.84v.69h1.85v-1.1h-.64v-3.23c0-1.54-1.08-2.22-2.47-2.22s-2.57.75-2.57,2.07v.11h1.25v-.1c0-.68.38-.98.88-.98h.82c.52,0,.84.29.84,1.08v.41l-1.58.12c-1.89.14-2.37,1.14-2.37,1.98v.07c0,1.17.73,1.94,2.19,1.94M68.14,402.37h1.25v-8.75h-1.25v8.75ZM63.88,402.52c1.38,0,2.57-.52,2.57-2.36v-4.19h-1.25v3.95c0,1.32-.41,1.45-1.04,1.45h-.58c-.62,0-1.04-.12-1.04-1.45v-3.95h-1.25v4.19c0,1.84,1.2,2.36,2.57,2.36M57.37,402.52c1.69,0,2.71-.78,2.71-2.48v-.16h-1.25v.14c0,1.2-.69,1.39-1.19,1.39h-.55c-.78,0-1.22-.46-1.22-1.56v-1.31c0-1.16.45-1.62,1.22-1.62h.55c.49,0,1.19.19,1.19,1.37v.17h1.25v-.14c0-1.72-1.02-2.5-2.71-2.5-2.05,0-2.75,1.17-2.75,2.72v1.31c0,1.49.7,2.66,2.75,2.66M49.07,400.65v-.08c0-.63.4-.89,1.13-.95l1.6-.12v.49c0,1.11-.79,1.5-1.42,1.5h-.43c-.51,0-.88-.3-.88-.84M50.01,402.52c.74,0,1.38-.2,1.79-.84v.69h1.86v-1.1h-.64v-3.23c0-1.54-1.07-2.22-2.47-2.22s-2.57.75-2.57,2.07v.11h1.25v-.1c0-.68.38-.98.88-.98h.83c.52,0,.84.29.84,1.08v.41l-1.57.12c-1.89.14-2.38,1.14-2.38,1.98v.07c0,1.17.73,1.94,2.19,1.94M37.9,402.37h1.25v-4.04c0-.95.4-1.39,1.03-1.39h.66c.56,0,.78.31.78,1.2v4.23h1.25v-4.02c0-.96.4-1.4,1.03-1.4h.66c.56,0,.77.31.77,1.2v4.23h1.25v-4.41c0-1.57-.75-2.14-2-2.14-.73,0-1.51.19-2.01.76-.33-.54-.92-.76-1.7-.76-.7,0-1.31.17-1.71.64v-.49h-1.25v6.4ZM34.84,402.37h1.27v-8.75h-1.27v8.75ZM25.39,402.37h1.27v-3.86h3.38v-1.15h-3.38v-2.59h4v-1.15h-5.27v8.75ZM14.99,402.37h1.27v-7.48h.17l1.86,5.86h1.8l1.86-5.86h.17v7.48h1.27v-8.75h-2.32l-1.89,6.19-1.89-6.19h-2.32v8.75Z"/>
      </g>
      <line class="cls-3" x1="602" y1="14" x2="14" y2="14"/>
      <g class="cls-22">
        <circle class="cls-4" cx="153.1" cy="205.11" r="70.79"/>
      </g>
      <line class="cls-6" x1="156.7" y1="133.59" x2="426.21" y2="133.59"/>
      <path class="cls-1" d="M427.72,133.59h0M153.69,133.59h0"/>
      <line class="cls-6" x1="156.7" y1="165.59" x2="426.21" y2="165.59"/>
      <path class="cls-1" d="M427.72,165.59h0M153.69,165.59h0"/>
      <line class="cls-6" x1="156.7" y1="244.59" x2="426.21" y2="244.59"/>
      <path class="cls-1" d="M427.72,244.59h0M153.69,244.59h0"/>
      <line class="cls-6" x1="156.7" y1="276.24" x2="426.21" y2="276.24"/>
      <path class="cls-1" d="M427.72,276.24h0M153.69,276.24h0"/>
      <g class="cls-24">
        <circle class="cls-5" cx="153.1" cy="205.11" r="70.79"/>
        <g class="cls-26">
          <g class="cls-25">
            <g class="cls-23">
              <rect class="cls-12" x="113.58" y="165.59" width="79.05" height="79.05"/>
            </g>
          </g>
        </g>
      </g>
    </g>
  </g>
</svg>