<?xml version="1.0" encoding="UTF-8"?>
<svg id="Calque_1" data-name="Calque 1" xmlns="http://www.w3.org/2000/svg" xmlns:xlink="http://www.w3.org/1999/xlink" viewBox="0 0 616 860">
  <defs>
    <style>
      .cls-1 {
        stroke-dasharray: 0 0 46.87 46.87;
      }

      .cls-1, .cls-2, .cls-3, .cls-4, .cls-5, .cls-6, .cls-7 {
        fill: none;
      }

      .cls-1, .cls-3, .cls-4, .cls-5, .cls-6, .cls-7 {
        stroke: #fff;
      }

      .cls-1, .cls-4, .cls-7 {
        stroke-width: .5px;
      }

      .cls-8 {
        clip-path: url(#clippath);
      }

      .cls-2, .cls-9, .cls-10 {
        stroke-width: 0px;
      }

      .cls-3 {
        stroke-linejoin: bevel;
        stroke-width: 3px;
      }

      .cls-11 {
        clip-path: url(#clippath-1);
      }

      .cls-12 {
        clip-path: url(#clippath-4);
      }

      .cls-13 {
        clip-path: url(#clippath-3);
      }

      .cls-14 {
        clip-path: url(#clippath-2);
      }

      .cls-15 {
        clip-path: url(#clippath-7);
      }

      .cls-16 {
        clip-path: url(#clippath-8);
      }

      .cls-17 {
        clip-path: url(#clippath-6);
      }

      .cls-18 {
        clip-path: url(#clippath-5);
      }

      .cls-19 {
        clip-path: url(#clippath-9);
      }

      .cls-20 {
        clip-path: url(#clippath-13);
      }

      .cls-21 {
        clip-path: url(#clippath-12);
      }

      .cls-22 {
        clip-path: url(#clippath-10);
      }

      .cls-23 {
        clip-path: url(#clippath-11);
      }

      .cls-5 {
        stroke-miterlimit: 10;
      }

      .cls-7 {
        stroke-dasharray: 0 0 19.87 19.87;
      }

      .cls-10 {
        fill: #fff;
      }
    </style>
    <clipPath id="clippath">
      <rect class="cls-2" width="616" height="860"/>
    </clipPath>
    <clipPath id="clippath-1">
      <rect class="cls-2" width="616" height="860"/>
    </clipPath>
    <clipPath id="clippath-2">
      <rect class="cls-2" width="616" height="860"/>
    </clipPath>
    <clipPath id="clippath-3">
      <rect class="cls-2" width="616" height="860"/>
    </clipPath>
    <clipPath id="clippath-4">
      <rect class="cls-2" width="616" height="860"/>
    </clipPath>
    <clipPath id="clippath-5">
      <rect class="cls-2" width="616" height="860"/>
    </clipPath>
    <clipPath id="clippath-6">
      <rect class="cls-2" width="616" height="860"/>
    </clipPath>
    <clipPath id="clippath-7">
      <rect class="cls-2" width="616" height="860"/>
    </clipPath>
    <clipPath id="clippath-8">
      <rect class="cls-2" width="616" height="860"/>
    </clipPath>
    <clipPath id="clippath-9">
      <rect class="cls-2" width="616" height="860"/>
    </clipPath>
    <clipPath id="clippath-10">
      <rect class="cls-2" width="616" height="860"/>
    </clipPath>
    <clipPath id="clippath-11">
      <rect class="cls-2" width="616" height="860"/>
    </clipPath>
    <clipPath id="clippath-12">
      <rect class="cls-2" width="616" height="860"/>
    </clipPath>
    <clipPath id="clippath-13">
      <rect class="cls-2" width="616" height="860"/>
    </clipPath>
  </defs>
  <g class="cls-8">
    <g class="cls-11">
      <path class="cls-10" d="M423.94,168.91c0-41.47,25.49-68.69,63.94-68.69s64.37,27.22,64.37,68.69-25.92,68.69-64.37,68.69-63.94-27.65-63.94-68.69M487.87,275.18c61.78,0,106.7-44.93,106.7-106.27s-44.93-106.27-106.7-106.27-106.27,44.5-106.27,106.27,44.93,106.27,106.27,106.27M258.66,270h41.47v-110.16c0-40.61,27.22-63.94,67.39-57.46v-38.88c-30.67-2.59-53.57,6.91-67.39,27.65v-23.33h-41.47v202.18ZM55.19,170.64v-3.46c0-41.04,24.62-68.26,61.78-68.26s62.21,28.08,62.21,69.98-25.06,70.42-62.21,70.42-61.78-27.65-61.78-68.69M15.01,366.77h41.47v-120.1c12.1,16.85,39.31,28.51,66.53,28.51,56.59,0,98.5-44.93,98.5-106.7s-41.47-105.84-96.77-105.84c-28.08,0-56.16,11.66-68.26,28.51v-23.33H15.01v298.94Z"/>
      <path class="cls-10" d="M99.16,43.6h1.63v-11.2h-3.65v1.44h2.02v9.76ZM89.94,41.78l4.24-6.26c.24.66.35,1.49.35,2.48,0,2.86-.99,4.35-2.9,4.35-.69,0-1.25-.19-1.7-.58M88.74,38c0-2.86.99-4.35,2.9-4.35.67,0,1.25.19,1.68.56l-4.21,6.29c-.24-.66-.37-1.49-.37-2.5M91.63,43.79c2.75,0,4.53-2.27,4.53-5.79s-1.78-5.79-4.53-5.79-4.53,2.27-4.53,5.79,1.78,5.79,4.53,5.79M75.57,43.6h1.54v-3.98c0-1.49.8-2.34,2-2.34s1.74.8,1.74,2.19v4.13h1.54v-4.34c0-2.02-1.22-3.34-2.99-3.34-.99,0-1.78.4-2.29,1.1v-.91h-1.54v7.49ZM67.28,39.86c0-1.57.93-2.61,2.3-2.61s2.29,1.02,2.29,2.54v.13c0,1.52-.91,2.53-2.29,2.53s-2.3-1.04-2.3-2.59M69.3,43.79c1.04,0,2.08-.43,2.53-1.06v.86h1.58v-7.49h-1.58v.86c-.45-.62-1.46-1.06-2.46-1.06-2.1,0-3.65,1.66-3.65,3.95s1.54,3.92,3.58,3.92M62.4,43.6h1.54v-11.2h-1.54v11.2ZM54.44,39.92v-.13c0-1.52.91-2.53,2.29-2.53s2.3,1.04,2.3,2.59-.93,2.61-2.3,2.61-2.29-1.02-2.29-2.54M52.95,47.18h1.54v-4.45c.45.62,1.46,1.06,2.46,1.06,2.1,0,3.65-1.66,3.65-3.95s-1.54-3.92-3.58-3.92c-1.04,0-2.08.43-2.53,1.06v-.86h-1.54v11.07ZM45.1,43.6h1.54v-3.33l2.9,3.33h1.95l-3.55-4.02,3.22-3.47h-1.94l-2.58,2.85v-6.56h-1.54v11.2ZM39.57,43.6h1.54v-4.08c0-1.5,1.01-2.37,2.5-2.13v-1.44c-1.14-.1-1.98.26-2.5,1.02v-.86h-1.54v7.49ZM31.47,39.86c0-1.54.94-2.54,2.37-2.54s2.38,1.01,2.38,2.54-.96,2.54-2.38,2.54-2.37-1.02-2.37-2.54M33.84,43.79c2.29,0,3.95-1.66,3.95-3.94s-1.66-3.94-3.95-3.94-3.94,1.65-3.94,3.94,1.66,3.94,3.94,3.94M17.94,43.6h1.78l2.29-7.86,2.29,7.86h1.78l3.42-11.2h-1.82l-2.46,8.58-2.54-8.58h-1.31l-2.54,8.58-2.46-8.58h-1.82l3.42,11.2Z"/>
      <path class="cls-10" d="M87.66,27.79c1.66,0,2.86-.88,2.86-2.3,0-2.69-4.14-1.9-4.14-3.41,0-.48.43-.83,1.17-.83.61,0,1.17.24,1.42,1.06l1.39-.43c-.3-1.07-1.2-1.95-2.77-1.95s-2.74.88-2.75,2.3c0,2.48,4.14,1.82,4.14,3.36,0,.54-.48.86-1.31.86-.9,0-1.44-.37-1.78-1.33l-1.38.45c.22.82,1.09,2.22,3.14,2.22M79.73,27.79c2.06,0,3.28-1.34,3.28-3.57v-4.11h-1.54v4.11c0,1.38-.66,2.21-1.74,2.21s-1.74-.83-1.74-2.21v-4.11h-1.54v4.11c0,2.22,1.23,3.57,3.28,3.57M72.86,27.6h1.54v-11.2h-1.54v11.2ZM67.59,27.79c1.73,0,3.01-.86,3.6-2.4l-1.39-.46c-.35.98-1.15,1.52-2.21,1.52-1.46,0-2.38-1.01-2.38-2.59s.93-2.59,2.38-2.59c1.1,0,1.9.54,2.26,1.52l1.33-.43c-.51-1.57-1.79-2.43-3.58-2.43-2.27,0-3.92,1.65-3.92,3.94s1.65,3.94,3.92,3.94M55.97,23.86c0-1.54.94-2.54,2.37-2.54s2.38,1.01,2.38,2.54-.96,2.54-2.38,2.54-2.37-1.02-2.37-2.54M58.33,27.79c2.29,0,3.95-1.66,3.95-3.94s-1.66-3.94-3.95-3.94-3.94,1.65-3.94,3.94,1.66,3.94,3.94,3.94M49.38,27.6h1.54v-4.08c0-1.5,1.01-2.37,2.5-2.13v-1.44c-1.14-.1-1.98.26-2.5,1.02v-.86h-1.54v7.49ZM41.88,21.68v-3.84h2.27c1.5,0,2.11.91,2.11,1.92,0,1.2-.77,1.92-2.27,1.92h-2.11ZM40.25,27.6h1.63v-4.48h2.21c2.21,0,3.81-1.33,3.81-3.39,0-1.82-1.26-3.33-3.49-3.33h-4.16v11.2ZM28.59,27.6h1.63v-4.91h4.82v-1.44h-4.82v-3.41h5.55v-1.44h-7.18v11.2ZM15.06,27.6h1.63v-8.19l3.46,5.46h.98l3.47-5.46v8.19h1.63v-11.2h-1.6l-3.98,6.38-3.97-6.38h-1.62v11.2Z"/>
      <path class="cls-10" d="M370.72,42.54v1.06h7.5v-1.44h-4.94c3.31-3.06,4.82-4.98,4.82-6.8s-1.58-3.15-3.74-3.15c-2.86,0-3.82,2.27-3.92,3.3l1.57.5c.21-1.2.74-2.35,2.43-2.35,1.34,0,2.03.74,2.03,1.78,0,1.52-1.46,3.28-5.74,7.12M362.88,41.78l4.24-6.26c.24.66.35,1.49.35,2.48,0,2.86-.99,4.35-2.9,4.35-.69,0-1.25-.19-1.7-.58M361.68,38c0-2.86.99-4.35,2.9-4.35.67,0,1.25.19,1.68.56l-4.21,6.29c-.24-.66-.37-1.49-.37-2.5M364.57,43.79c2.75,0,4.53-2.27,4.53-5.79s-1.78-5.79-4.53-5.79-4.53,2.27-4.53,5.79,1.78,5.79,4.53,5.79M355.83,43.79c1.66,0,2.86-.88,2.86-2.3,0-2.69-4.14-1.9-4.14-3.41,0-.48.43-.83,1.17-.83.61,0,1.17.24,1.42,1.06l1.39-.43c-.3-1.07-1.2-1.95-2.77-1.95s-2.74.88-2.75,2.3c0,2.48,4.14,1.82,4.14,3.36,0,.54-.48.86-1.31.86-.9,0-1.44-.37-1.78-1.33l-1.38.45c.22.82,1.09,2.22,3.14,2.22M347.65,43.79c2.16,0,3.81-1.34,3.81-3.07,0-4.02-5.76-3.22-5.76-5.52,0-1.09,1.09-1.58,1.92-1.58,1.33,0,2.02.67,2.29,1.82l1.57-.5c-.58-1.81-1.98-2.74-3.86-2.74s-3.55,1.44-3.55,2.96c0,3.71,5.76,2.85,5.76,5.55,0,1.14-1.06,1.63-2.13,1.63-1.41,0-2.26-.8-2.5-2.13l-1.57.51c.32,1.39,1.74,3.06,4.02,3.06M330.29,37.31v1.39h8.77l-3.04,2.24v1.62l5.47-3.98v-1.14l-5.47-4v1.63l3.04,2.24h-8.77ZM320.56,43.6h6.86v-1.44h-2.4v-9.76h-4.29v1.44h2.66v8.32h-2.83v1.44ZM313.09,41.78l4.24-6.26c.24.66.35,1.49.35,2.48,0,2.86-.99,4.35-2.9,4.35-.69,0-1.25-.19-1.7-.58M311.89,38c0-2.86.99-4.35,2.9-4.35.67,0,1.25.19,1.68.56l-4.21,6.29c-.24-.66-.37-1.49-.37-2.5M314.79,43.79c2.75,0,4.53-2.27,4.53-5.79s-1.78-5.79-4.53-5.79-4.53,2.27-4.53,5.79,1.78,5.79,4.53,5.79M306.04,43.79c1.66,0,2.86-.88,2.86-2.3,0-2.69-4.14-1.9-4.14-3.41,0-.48.43-.83,1.17-.83.61,0,1.17.24,1.42,1.06l1.39-.43c-.3-1.07-1.2-1.95-2.77-1.95s-2.74.88-2.75,2.3c0,2.48,4.14,1.82,4.14,3.36,0,.54-.48.86-1.31.86-.9,0-1.44-.37-1.78-1.33l-1.38.45c.22.82,1.09,2.22,3.14,2.22M297.86,43.79c2.16,0,3.81-1.34,3.81-3.07,0-4.02-5.76-3.22-5.76-5.52,0-1.09,1.09-1.58,1.92-1.58,1.33,0,2.02.67,2.29,1.82l1.57-.5c-.58-1.81-1.98-2.74-3.86-2.74s-3.55,1.44-3.55,2.96c0,3.71,5.76,2.85,5.76,5.55,0,1.14-1.06,1.63-2.13,1.63-1.41,0-2.26-.8-2.5-2.13l-1.57.51c.32,1.39,1.74,3.06,4.02,3.06"/>
      <path class="cls-10" d="M363.11,22.96c.21-1.02,1.09-1.71,2.22-1.71s1.89.66,1.97,1.71h-4.19ZM365.37,27.79c1.58,0,2.85-.77,3.55-2.32l-1.46-.45c-.34.88-1.04,1.42-2.1,1.42-1.33,0-2.29-.91-2.32-2.16h5.92v-.7c0-2.13-1.5-3.66-3.63-3.66s-3.82,1.65-3.82,3.94,1.54,3.94,3.86,3.94M353.93,23.92v-.13c0-1.52.91-2.53,2.29-2.53s2.3,1.04,2.3,2.59-.93,2.61-2.3,2.61-2.29-1.02-2.29-2.54M352.44,31.18h1.54v-4.45c.45.62,1.46,1.06,2.46,1.06,2.1,0,3.65-1.66,3.65-3.95s-1.54-3.92-3.58-3.92c-1.04,0-2.08.43-2.53,1.06v-.86h-1.54v11.07ZM344.93,31.18h1.63l4.4-11.07h-1.62l-2.16,5.84-2.16-5.84h-1.66l3.01,7.49-1.44,3.58ZM340.8,27.6h1.26v-1.34h-.98c-.85,0-1.01-.61-1.01-1.04v-3.76h1.98v-1.34h-1.98v-2.29h-1.54v2.29h-1.84v1.34h1.84v3.55c0,1.86,1.09,2.59,2.26,2.59M325.49,27.6h1.54v-3.98c0-1.49.8-2.34,2-2.34s1.74.8,1.74,2.19v4.13h1.54v-4.34c0-2.02-1.22-3.34-2.99-3.34-.99,0-1.78.4-2.29,1.1v-.91h-1.54v7.49ZM317.8,22.96c.21-1.02,1.09-1.71,2.22-1.71s1.89.66,1.97,1.71h-4.19ZM320.05,27.79c1.58,0,2.85-.77,3.55-2.32l-1.46-.45c-.34.88-1.04,1.42-2.1,1.42-1.33,0-2.29-.91-2.32-2.16h5.92v-.7c0-2.13-1.5-3.66-3.63-3.66s-3.82,1.65-3.82,3.94,1.54,3.94,3.86,3.94M308.61,23.92v-.13c0-1.52.91-2.53,2.29-2.53s2.3,1.04,2.3,2.59-.93,2.61-2.3,2.61-2.29-1.02-2.29-2.54M307.12,31.18h1.54v-4.45c.45.62,1.46,1.06,2.46,1.06,2.1,0,3.65-1.66,3.65-3.95s-1.54-3.92-3.58-3.92c-1.04,0-2.08.43-2.53,1.06v-.86h-1.54v11.07ZM295.59,22c0-2.53,1.7-4.35,4.03-4.35s4.03,1.82,4.03,4.35-1.7,4.35-4.03,4.35-4.03-1.82-4.03-4.35M299.62,27.79c3.28,0,5.66-2.43,5.66-5.79s-2.38-5.79-5.66-5.79-5.66,2.43-5.66,5.79,2.38,5.79,5.66,5.79"/>
      <path class="cls-10" d="M213.4,43.79c1.66,0,2.86-.88,2.86-2.3,0-2.69-4.14-1.9-4.14-3.41,0-.48.43-.83,1.17-.83.61,0,1.17.24,1.42,1.06l1.39-.43c-.3-1.07-1.2-1.95-2.77-1.95s-2.74.88-2.75,2.3c0,2.48,4.14,1.82,4.14,3.36,0,.54-.48.86-1.31.86-.9,0-1.44-.37-1.78-1.33l-1.38.45c.22.82,1.09,2.22,3.14,2.22M203.09,38.96c.21-1.02,1.09-1.71,2.22-1.71s1.89.66,1.97,1.71h-4.19ZM205.35,43.79c1.58,0,2.85-.77,3.55-2.32l-1.46-.45c-.34.88-1.04,1.42-2.1,1.42-1.33,0-2.29-.91-2.32-2.16h5.92v-.7c0-2.13-1.5-3.66-3.63-3.66s-3.82,1.65-3.82,3.94,1.54,3.94,3.86,3.94M198.17,43.6h1.54v-11.2h-1.54v11.2ZM190.67,47.18h1.63l4.4-11.07h-1.62l-2.16,5.84-2.16-5.84h-1.66l3.01,7.49-1.44,3.58ZM186.54,43.6h1.26v-1.34h-.98c-.85,0-1.01-.61-1.01-1.04v-3.76h1.98v-1.34h-1.98v-2.29h-1.54v2.29h-1.84v1.34h1.84v3.55c0,1.86,1.09,2.59,2.26,2.59M178.37,43.79c1.66,0,2.86-.88,2.86-2.3,0-2.69-4.14-1.9-4.14-3.41,0-.48.43-.83,1.17-.83.61,0,1.17.24,1.42,1.06l1.39-.43c-.3-1.07-1.2-1.95-2.77-1.95s-2.74.88-2.75,2.3c0,2.48,4.14,1.82,4.14,3.36,0,.54-.48.86-1.31.86-.9,0-1.44-.37-1.78-1.33l-1.38.45c.22.82,1.09,2.22,3.14,2.22M159.16,41.78l4.24-6.26c.24.66.35,1.49.35,2.48,0,2.86-.99,4.35-2.9,4.35-.69,0-1.25-.19-1.7-.58M157.96,38c0-2.86.99-4.35,2.9-4.35.67,0,1.25.19,1.68.56l-4.21,6.29c-.24-.66-.37-1.49-.37-2.5M160.85,43.79c2.75,0,4.53-2.27,4.53-5.79s-1.78-5.79-4.53-5.79-4.53,2.27-4.53,5.79,1.78,5.79,4.53,5.79M148.83,35.86c0-1.34.85-2.21,2.19-2.21s2.19.86,2.19,2.21-.85,2.3-2.19,2.3-2.19-.9-2.19-2.3M151.05,32.21c-2.3,0-3.87,1.49-3.87,3.66s1.6,3.73,3.74,3.73c.59,0,.99-.11,1.26-.29l-2.4,4.29h1.7l2.29-4.21c.82-1.5,1.09-2.42,1.09-3.41,0-2.35-1.55-3.78-3.81-3.78"/>
      <path class="cls-10" d="M202.13,27.79c1.66,0,2.86-.88,2.86-2.3,0-2.69-4.14-1.9-4.14-3.41,0-.48.43-.83,1.17-.83.61,0,1.17.24,1.42,1.06l1.39-.43c-.3-1.07-1.2-1.95-2.77-1.95s-2.74.88-2.75,2.3c0,2.48,4.14,1.82,4.14,3.36,0,.54-.48.86-1.31.86-.9,0-1.44-.37-1.78-1.33l-1.38.45c.22.82,1.09,2.22,3.14,2.22M196.48,27.6h1.26v-1.34h-.98c-.85,0-1.01-.61-1.01-1.04v-3.76h1.98v-1.34h-1.98v-2.29h-1.54v2.29h-1.84v1.34h1.84v3.55c0,1.86,1.09,2.59,2.26,2.59M187.66,27.79c2.06,0,3.28-1.34,3.28-3.57v-4.11h-1.54v4.11c0,1.38-.66,2.21-1.74,2.21s-1.74-.83-1.74-2.21v-4.11h-1.54v4.11c0,2.22,1.23,3.57,3.28,3.57M179.27,27.79c1.73,0,3.01-.86,3.6-2.4l-1.39-.46c-.35.98-1.15,1.52-2.21,1.52-1.46,0-2.38-1.01-2.38-2.59s.93-2.59,2.38-2.59c1.1,0,1.9.54,2.26,1.52l1.33-.43c-.51-1.57-1.79-2.43-3.58-2.43-2.27,0-3.92,1.65-3.92,3.94s1.65,3.94,3.92,3.94M159.38,19.86c0-1.34.85-2.21,2.19-2.21s2.19.86,2.19,2.21-.85,2.3-2.19,2.3-2.19-.9-2.19-2.3M161.6,16.21c-2.3,0-3.87,1.49-3.87,3.66s1.6,3.73,3.74,3.73c.59,0,.99-.11,1.26-.29l-2.4,4.29h1.7l2.29-4.21c.82-1.5,1.09-2.42,1.09-3.41,0-2.35-1.55-3.78-3.81-3.78M150.04,25.78l4.24-6.26c.24.66.35,1.49.35,2.48,0,2.86-.99,4.35-2.9,4.35-.69,0-1.25-.19-1.7-.58M148.84,22c0-2.86.99-4.35,2.9-4.35.67,0,1.25.19,1.68.56l-4.21,6.29c-.24-.66-.37-1.49-.37-2.5M151.74,27.79c2.75,0,4.53-2.27,4.53-5.79s-1.78-5.79-4.53-5.79-4.53,2.27-4.53,5.79,1.78,5.79,4.53,5.79"/>
      <path class="cls-10" d="M525.8,43.6h1.54v-3.98c0-1.49.8-2.34,2-2.34s1.74.8,1.74,2.19v4.13h1.54v-4.34c0-2.02-1.22-3.34-2.99-3.34-.99,0-1.78.4-2.29,1.1v-4.62h-1.54v11.2ZM522.87,43.6h1.26v-1.34h-.98c-.85,0-1.01-.61-1.01-1.04v-3.76h1.98v-1.34h-1.98v-2.29h-1.54v2.29h-1.84v1.34h1.84v3.55c0,1.86,1.09,2.59,2.26,2.59M511.19,39.86c0-1.57.93-2.61,2.3-2.61s2.29,1.02,2.29,2.54v.13c0,1.52-.91,2.53-2.29,2.53s-2.3-1.04-2.3-2.59M513.21,43.79c1.04,0,2.08-.43,2.53-1.06v.86h1.54v-11.2h-1.54v4.58c-.45-.62-1.46-1.06-2.46-1.06-2.1,0-3.65,1.66-3.65,3.95s1.54,3.92,3.58,3.92M506.15,34.24c0,.53.43.96.96.96s.96-.43.96-.96-.43-.94-.96-.94-.96.43-.96.94M506.34,43.6h1.54v-7.49h-1.54v7.49ZM495.37,43.6h1.92l1.55-4.82,1.55,4.82h1.92l2.53-7.49h-1.79l-1.7,5.76-1.79-5.76h-1.44l-1.79,5.76-1.7-5.76h-1.79l2.53,7.49ZM478.11,41.78l4.24-6.26c.24.66.35,1.49.35,2.48,0,2.86-.99,4.35-2.9,4.35-.69,0-1.25-.19-1.7-.58M476.91,38c0-2.86.99-4.35,2.9-4.35.67,0,1.25.19,1.68.56l-4.21,6.29c-.24-.66-.37-1.49-.37-2.5M479.81,43.79c2.75,0,4.53-2.27,4.53-5.79s-1.78-5.79-4.53-5.79-4.53,2.27-4.53,5.79,1.78,5.79,4.53,5.79M467.52,41.78l4.24-6.26c.24.66.35,1.49.35,2.48,0,2.86-.99,4.35-2.9,4.35-.69,0-1.25-.19-1.7-.58M466.32,38c0-2.86.99-4.35,2.9-4.35.67,0,1.25.19,1.68.56l-4.21,6.29c-.24-.66-.37-1.49-.37-2.5M469.22,43.79c2.75,0,4.53-2.27,4.53-5.79s-1.78-5.79-4.53-5.79-4.53,2.27-4.53,5.79,1.78,5.79,4.53,5.79M456.61,43.6h6.86v-1.44h-2.4v-9.76h-4.29v1.44h2.66v8.32h-2.83v1.44ZM440.94,32.72v7.49h7.01l-2.4,1.78v1.62l4.83-3.52v-1.14l-4.83-3.54v1.63l2.4,1.78h-5.47v-6.1h-1.54Z"/>
      <path class="cls-10" d="M540.25,27.6h1.26v-1.34h-.98c-.85,0-1.01-.61-1.01-1.04v-3.76h1.98v-1.34h-1.98v-2.29h-1.54v2.29h-1.84v1.34h1.84v3.55c0,1.86,1.09,2.59,2.26,2.59M528.04,27.6h1.54v-3.98c0-1.49.8-2.34,2-2.34s1.74.8,1.74,2.19v4.13h1.54v-4.34c0-2.02-1.22-3.34-2.99-3.34-.99,0-1.78.4-2.29,1.1v-4.62h-1.54v11.2ZM519.83,23.86c0-1.57.91-2.61,2.29-2.61s2.29,1.02,2.29,2.54v.13c0,1.52-.91,2.53-2.29,2.53s-2.29-1.04-2.29-2.59M522.12,31.38c2.29,0,3.76-1.41,3.76-3.78v-7.49h-1.54v.85c-.46-.61-1.46-1.04-2.45-1.04-2.08,0-3.63,1.66-3.63,3.95s1.52,3.92,3.57,3.92c1.04,0,2.05-.43,2.51-1.04v.85c0,1.52-.88,2.42-2.26,2.42-1.1,0-1.9-.58-2.27-1.55l-1.47.46c.61,1.58,1.97,2.45,3.78,2.45M514.78,18.24c0,.53.43.96.96.96s.96-.43.96-.96-.43-.94-.96-.94-.96.43-.96.94M514.97,27.6h1.54v-7.49h-1.54v7.49ZM507.32,22.96c.21-1.02,1.09-1.71,2.22-1.71s1.89.66,1.97,1.71h-4.19ZM509.57,27.79c1.58,0,2.85-.77,3.55-2.32l-1.46-.45c-.34.88-1.04,1.42-2.1,1.42-1.33,0-2.29-.91-2.32-2.16h5.92v-.7c0-2.13-1.5-3.66-3.63-3.66s-3.82,1.65-3.82,3.94,1.54,3.94,3.86,3.94M495.37,27.6h1.92l1.55-4.82,1.55,4.82h1.92l2.53-7.49h-1.79l-1.7,5.76-1.79-5.76h-1.44l-1.79,5.76-1.7-5.76h-1.79l2.53,7.49ZM478.96,25.78l4.24-6.26c.24.66.35,1.49.35,2.48,0,2.86-.99,4.35-2.9,4.35-.69,0-1.25-.19-1.7-.58M477.76,22c0-2.86.99-4.35,2.9-4.35.67,0,1.25.19,1.68.56l-4.21,6.29c-.24-.66-.37-1.49-.37-2.5M480.66,27.79c2.75,0,4.53-2.27,4.53-5.79s-1.78-5.79-4.53-5.79-4.53,2.27-4.53,5.79,1.78,5.79,4.53,5.79M468.37,25.78l4.24-6.26c.24.66.35,1.49.35,2.48,0,2.86-.99,4.35-2.9,4.35-.69,0-1.25-.19-1.7-.58M467.17,22c0-2.86.99-4.35,2.9-4.35.67,0,1.25.19,1.68.56l-4.21,6.29c-.24-.66-.37-1.49-.37-2.5M470.06,27.79c2.75,0,4.53-2.27,4.53-5.79s-1.78-5.79-4.53-5.79-4.53,2.27-4.53,5.79,1.78,5.79,4.53,5.79M457.83,23.44l3.41-5.14v5.14h-3.41ZM461.24,27.6h1.63v-2.72h1.38v-1.44h-1.38v-7.04h-2.03l-5.04,7.39v1.09h5.44v2.72ZM440.94,16.72v7.49h7.01l-2.4,1.78v1.62l4.83-3.52v-1.14l-4.83-3.54v1.63l2.4,1.78h-5.47v-6.1h-1.54Z"/>
      <path class="cls-10" d="M586.64,30.73h15.36c0-9.35-7.05-16.73-16.98-16.73v15.07h-15.02c0,9.15,7.14,16.93,16.64,16.93v-15.27Z"/>
      <path class="cls-10" d="M196.05,595.62c32.99-32.99,40.93-73.92,22.91-114.55l-35.43,17.72c11.91,25.35,7.03,51.01-13.13,71.17-27.8,27.8-64.76,26.27-95-3.97-30.24-30.24-31.77-67.2-3.97-95,21.08-21.08,46.74-25.96,72.09-14.05l17.11-33.6c-39.71-20.16-80.64-12.22-114.86,21.99-43.38,43.38-43.38,106.3.31,149.99,43.68,43.68,106.61,43.68,149.99.3"/>
    </g>
    <rect class="cls-10" x="239.79" y="803.94" width="302.4" height="41.47"/>
    <g class="cls-14">
      <path class="cls-10" d="M102.73,851.18c55.73,0,88.56-36.29,88.56-96.34v-111.02h-41.47v111.02c0,37.15-17.71,59.62-47.09,59.62s-47.09-22.46-47.09-59.62v-111.02H14.17v111.02c0,60.05,33.26,96.34,88.56,96.34"/>
      <path class="cls-10" d="M385.2,763.01c31.77-31.77,37.88-71.48,10.69-98.67-51.32-51.32-115.47,42.77-144.18,14.05-9.16-9.16-7.64-24.13,6.41-38.18,11.61-11.61,26.88-17.72,47.35-7.03l18.33-34.82c-26.27-14.66-60.18-14.36-90.11,15.58s-35.43,69.04-8.55,96.53c47.35,47.35,113.94-44.29,143.26-14.97,10.39,10.39,7.33,25.66-8.55,41.54-17.11,17.11-34.52,20.47-59.26,8.55l-17.72,34.82c19.86,11.3,63.23,21.69,102.33-17.41"/>
    </g>
    <polygon class="cls-10" points="341.7 575.81 331.34 575.81 331.34 565.44 341.7 575.81"/>
    <polygon class="cls-10" points="581.21 584.44 588.53 591.76 581.21 599.09 581.21 584.44"/>
    <path class="cls-6" d="M331.34,575.81l5.18-5.18M84.13,328.6l5.18-5.18M380.78,625.25l5.18-5.18M133.57,378.04l5.18-5.18M430.22,674.69l5.18-5.18M183.01,427.48l5.18-5.18M479.67,724.13l5.18-5.18M232.46,476.92l5.18-5.18M529.11,773.58l5.18-5.18M281.9,526.37l5.18-5.18"/>
    <path class="cls-4" d="M333.81,578.28l2.59-2.59M86.6,331.07l2.59-2.59M383.25,627.72l2.59-2.59M136.04,380.51l2.59-2.59M432.7,677.16l2.59-2.59M185.49,429.95l2.59-2.59M482.14,726.61l2.59-2.59M234.93,479.4l2.59-2.59M531.58,776.05l2.59-2.59M284.37,528.84l2.59-2.59M336.28,580.75l2.59-2.59M89.07,333.54l2.59-2.59M385.73,630.19l2.59-2.59M138.52,382.98l2.59-2.59M435.17,679.64l2.59-2.59M187.96,432.43l2.59-2.59M484.61,729.08l2.59-2.59M237.4,481.87l2.59-2.59M534.05,778.52l2.59-2.59M286.84,531.31l2.59-2.59M338.76,583.22l2.59-2.59M91.55,336.01l2.59-2.59M388.2,632.67l2.59-2.59M140.99,385.46l2.59-2.59M437.64,682.11l2.59-2.59M190.43,434.9l2.59-2.59M487.08,731.55l2.59-2.59M239.87,484.34l2.59-2.59M536.52,780.99l2.59-2.59M289.31,533.78l2.59-2.59M341.23,585.7l2.59-2.59M94.02,338.49l2.59-2.59M390.67,635.14l2.59-2.59M143.46,387.93l2.59-2.59M440.11,684.58l2.59-2.59M192.9,437.37l2.59-2.59M489.55,734.02l2.59-2.59M242.34,486.81l2.59-2.59M539,783.46l2.59-2.59M291.79,536.25l2.59-2.59M343.7,588.17l5.18-5.18M96.49,340.96l5.18-5.18M393.14,637.61l5.18-5.18M145.93,390.4l5.18-5.18M442.58,687.05l5.18-5.18M195.37,439.84l5.18-5.18M492.03,736.49l5.18-5.18M244.82,489.28l5.18-5.18M541.47,785.94l5.18-5.18M294.26,538.73l5.18-5.18M346.17,590.64l2.59-2.59M98.96,343.43l2.59-2.59M395.62,640.08l2.59-2.59M148.4,392.87l2.59-2.59M445.06,689.53l2.59-2.59M197.85,442.31l2.59-2.59M494.5,738.97l2.59-2.59M247.29,491.76l2.59-2.59M543.94,788.41l2.59-2.59M296.73,541.2l2.59-2.59M348.65,593.11l2.59-2.59M101.43,345.9l2.59-2.59M398.09,642.56l2.59-2.59M150.88,395.35l2.59-2.59M447.53,692l2.59-2.59M200.32,444.79l2.59-2.59M496.97,741.44l2.59-2.59M249.76,494.23l2.59-2.59M546.41,790.88l2.59-2.59M299.2,543.67l2.59-2.59M351.12,595.59l2.59-2.59M103.91,348.38l2.59-2.59M400.56,645.03l2.59-2.59M153.35,397.82l2.59-2.59M450,694.47l2.59-2.59M202.79,447.26l2.59-2.59M499.44,743.91l2.59-2.59M252.23,496.7l2.59-2.59M548.89,793.35l2.59-2.59M301.68,546.14l2.59-2.59M353.59,598.06l2.59-2.59M106.38,350.85l2.59-2.59M403.03,647.5l2.59-2.59M155.82,400.29l2.59-2.59M452.47,696.94l2.59-2.59M205.26,449.73l2.59-2.59M501.92,746.38l2.59-2.59M254.71,499.17l2.59-2.59M551.36,795.83l2.59-2.59M304.15,548.62l2.59-2.59"/>
    <path class="cls-6" d="M356.06,600.53l5.18-5.18M108.85,353.32l5.18-5.18M405.5,649.97l5.18-5.18M158.29,402.76l5.18-5.18M454.95,699.41l5.18-5.18M207.74,452.2l5.18-5.18M504.39,748.86l5.18-5.18M257.18,501.65l5.18-5.18M553.83,798.3l5.18-5.18M306.62,551.09l5.18-5.18"/>
    <path class="cls-4" d="M358.53,603l2.59-2.59M111.32,355.79l2.59-2.59M407.98,652.44l2.59-2.59M160.77,405.23l2.59-2.59M457.42,701.89l2.59-2.59M210.21,454.68l2.59-2.59M506.86,751.33l2.59-2.59M259.65,504.12l2.59-2.59M556.3,800.77l2.59-2.59M309.09,553.56l2.59-2.59M361.01,605.47l2.59-2.59M113.8,358.26l2.59-2.59M410.45,654.92l2.59-2.59M163.24,407.71l2.59-2.59M459.89,704.36l2.59-2.59M212.68,457.15l2.59-2.59M509.33,753.8l2.59-2.59M262.12,506.59l2.59-2.59M558.77,803.24l2.59-2.59M311.56,556.03l2.59-2.59M363.48,607.95l2.59-2.59M116.27,360.74l2.59-2.59M412.92,657.39l2.59-2.59M165.71,410.18l2.59-2.59M462.36,706.83l2.59-2.59M215.15,459.62l2.59-2.59M511.8,756.27l2.59-2.59M264.59,509.06l2.59-2.59M561.25,805.71l2.59-2.59M314.04,558.5l2.59-2.59M365.95,610.42l2.59-2.59M118.74,363.21l2.59-2.59M415.39,659.86l2.59-2.59M168.18,412.65l2.59-2.59M464.83,709.3l2.59-2.59M217.62,462.09l2.59-2.59M514.28,758.74l2.59-2.59M267.07,511.53l2.59-2.59M563.72,808.19l2.59-2.59M316.51,560.98l2.59-2.59M368.42,612.89l5.18-5.18M121.21,365.68l5.18-5.18M417.86,662.33l5.18-5.18M170.65,415.12l5.18-5.18M467.31,711.77l5.18-5.18M220.1,464.56l5.18-5.18M516.75,761.22l5.18-5.18M269.54,514.01l5.18-5.18M566.19,810.66l5.18-5.18M318.98,563.45l5.18-5.18M370.89,615.36l2.59-2.59M123.68,368.15l2.59-2.59M420.34,664.8l2.59-2.59M173.13,417.59l2.59-2.59M469.78,714.25l2.59-2.59M222.57,467.04l2.59-2.59M519.22,763.69l2.59-2.59M272.01,516.48l2.59-2.59M568.66,813.13l2.59-2.59M321.45,565.92l2.59-2.59M373.37,617.83l2.59-2.59M126.16,370.62l2.59-2.59M422.81,667.28l2.59-2.59M175.6,420.07l2.59-2.59M472.25,716.72l2.59-2.59M225.04,469.51l2.59-2.59M521.69,766.16l2.59-2.59M274.48,518.95l2.59-2.59M571.13,815.6l2.59-2.59M323.92,568.39l2.59-2.59M375.84,620.31l2.59-2.59M128.63,373.1l2.59-2.59M425.28,669.75l2.59-2.59M178.07,422.54l2.59-2.59M474.72,719.19l2.59-2.59M227.51,471.98l2.59-2.59M524.16,768.63l2.59-2.59M276.95,521.42l2.59-2.59M573.61,818.07l2.59-2.59M326.4,570.86l2.59-2.59M378.31,622.78l2.59-2.59M131.1,375.57l2.59-2.59M427.75,672.22l2.59-2.59M180.54,425.01l2.59-2.59M477.19,721.66l2.59-2.59M229.98,474.45l2.59-2.59M526.64,771.1l2.59-2.59M279.43,523.89l2.59-2.59M576.08,820.55l2.59-2.59M328.87,573.34l2.59-2.59"/>
    <line class="cls-6" x1="578.55" y1="823.02" x2="583.73" y2="817.84"/>
    <polygon class="cls-10" points="367.06 591.74 366.14 590.82 363.46 593.51 364.31 594.37 363.85 594.84 362.46 593.45 365.62 590.29 364.84 589.52 365.31 589.05 367.53 591.27 367.06 591.74"/>
    <polygon class="cls-10" points="365.12 564.43 364.2 563.51 361.51 566.2 362.37 567.06 361.91 567.53 360.52 566.14 363.68 562.99 362.9 562.21 363.36 561.74 365.58 563.96 365.12 564.43"/>
    <g class="cls-13">
      <path class="cls-10" d="M384.96,541.03c-.34.34-.35.8.08,1.23.55.55,1.09.35,1.55.03l.35.67c-.36.3-1.41.72-2.33-.2-.7-.7-.8-1.62-.19-2.23.59-.59,1.7-.72,3.76-.64l-1.6-1.6.46-.46,2.43,2.43-.34.34c-2.63-.14-3.67-.05-4.16.45"/>
      <path class="cls-10" d="M412.51,517.58l-.68-.35c.28-.52.31-1.09-.15-1.55-.46-.46-1.13-.53-1.6-.06-.5.5-.28,1.2.25,1.73l-.34.34-1.6.2,1.62,1.62-.47.46-2.29-2.29.41-.41,1.64-.19c-.33-.57-.42-1.32.25-2,.61-.61,1.72-.75,2.58.11.67.67.8,1.63.37,2.37"/>
    </g>
    <path class="cls-10" d="M434.6,491.96l1.76,1.76-.35.35-4.02.76-.66-.66,2.28-2.28-.44-.44.46-.46.44.44.88-.88.53.53-.88.88ZM434.13,492.42l-1.66,1.66,2.76-.56-1.1-1.1Z"/>
    <g class="cls-12">
      <path class="cls-10" d="M484.15,445.66c-.32.32-.7.53-1.45.75l-2.1.62-.55-.55,2.16-.61c-.14-.03-.31-.12-.5-.32-.69-.69-.72-1.7,0-2.42s1.69-.68,2.44.07.77,1.69,0,2.45M483.67,443.67c-.43-.43-.99-.43-1.42,0-.45.46-.47,1.02-.04,1.45.44.43,1,.42,1.45-.04.43-.43.44-.99,0-1.42"/>
    </g>
    <polygon class="cls-10" points="504.1 422.01 505.92 423.83 505.45 424.29 503.06 421.9 503.52 421.43 508.19 419.79 508.75 420.35 504.1 422.01"/>
    <g class="cls-18">
      <path class="cls-10" d="M531.59,398.12c-.36.36-.95.48-1.41.28.16.42.03.92-.33,1.27-.61.61-1.42.57-2.09-.09-.66-.66-.7-1.48-.09-2.08.35-.35.84-.48,1.27-.33-.2-.45-.08-1.04.28-1.41.66-.66,1.59-.63,2.29.07.7.7.73,1.63.07,2.29M529.33,398.01c-.34-.34-.78-.34-1.12,0-.33.33-.32.75.03,1.09.34.34.77.35,1.09.03.35-.35.35-.78,0-1.12M531.05,396.3c-.38-.38-.92-.38-1.29-.01-.35.35-.34.88.04,1.26.38.38.91.39,1.26.04.37-.37.37-.92-.01-1.29"/>
      <path class="cls-10" d="M341.36,568.72c-1.14,1.14-2.45,1.3-3.34.41-.89-.89-.73-2.2.41-3.34s2.45-1.3,3.34-.41.73,2.2-.41,3.34M341.52,567.26l-3.39.67c.02.26.14.51.36.72.62.62,1.42.46,2.34-.47.33-.33.55-.64.69-.93M341.3,565.85c-.62-.62-1.42-.45-2.34.47-.32.32-.55.63-.69.91l3.39-.65c-.02-.27-.14-.51-.36-.73"/>
      <path class="cls-10" d="M464.03,442.95c-1.14,1.14-2.45,1.3-3.34.41-.89-.89-.73-2.2.41-3.34s2.45-1.3,3.34-.41.73,2.2-.41,3.34M464.19,441.5l-3.39.67c.02.26.14.51.36.72.62.62,1.42.45,2.34-.47.33-.33.55-.64.69-.92M463.97,440.08c-.62-.62-1.42-.46-2.34.47-.32.32-.55.63-.69.92l3.39-.65c-.02-.27-.14-.51-.36-.73M464.02,444.24c.32-.32.7-.53,1.45-.75l2.1-.62.55.55-2.16.61c.15.03.31.12.5.32.69.69.72,1.7,0,2.42-.7.7-1.69.68-2.44-.07s-.77-1.69-.01-2.45M465.96,444.78c-.43-.43-1-.42-1.45.04-.43.43-.44.99,0,1.42.44.43.99.43,1.42,0s.47-1.02.04-1.45"/>
      <path class="cls-10" d="M485.3,468.34c-1.32.92-2.64.85-3.36-.18-.72-1.04-.33-2.3.99-3.22s2.64-.85,3.36.18c.72,1.03.33,2.3-.99,3.22M485.71,466.93l-3.47.07c-.02.26.05.52.23.78.5.71,1.32.7,2.39-.05.38-.27.66-.53.84-.79M485.74,465.5c-.5-.71-1.32-.7-2.39.05-.37.26-.66.52-.84.78l3.46-.05c.03-.27-.05-.53-.23-.79M488.66,471.26c-.42.29-1.02.3-1.44.03.08.44-.13.91-.54,1.19-.71.49-1.51.32-2.04-.45-.54-.77-.43-1.58.28-2.07.41-.29.92-.33,1.31-.1-.11-.48.1-1.05.52-1.34.76-.53,1.68-.34,2.24.47.57.81.43,1.74-.33,2.27M486.45,470.76c-.28-.4-.71-.47-1.11-.19-.38.26-.44.68-.17,1.08.28.4.69.48,1.07.22.4-.28.48-.71.2-1.11M488.45,469.37c-.31-.44-.84-.54-1.27-.24-.41.29-.49.81-.18,1.25.31.44.83.55,1.24.26.43-.3.52-.84.22-1.28"/>
      <path class="cls-10" d="M501.69,496.84c-1.46.68-2.75.38-3.28-.76-.53-1.14.07-2.32,1.53-2.99,1.46-.68,2.75-.38,3.28.76.53,1.14-.07,2.32-1.53,2.99M502.34,495.53l-3.42-.53c-.07.25-.04.53.09.8.37.79,1.18.92,2.36.36.42-.19.74-.41.96-.63M502.62,494.12c-.37-.79-1.17-.91-2.36-.36-.41.19-.73.4-.96.62l3.41.55c.07-.26.04-.53-.09-.82M500.61,499.02l1.08,2.34-.6.28-1.43-3.07.6-.28,4.95.07.33.72-4.94-.05Z"/>
      <path class="cls-10" d="M512.79,527.47c-1.56.41-2.77-.11-3.09-1.32-.32-1.22.47-2.27,2.03-2.68,1.56-.41,2.77.11,3.09,1.32.32,1.22-.47,2.27-2.03,2.68M513.66,526.29l-3.28-1.12c-.11.23-.13.51-.05.81.22.84,1,1.11,2.27.77.45-.12.8-.27,1.06-.46M514.82,531.5c-.44.12-.88.1-1.64-.08l-2.13-.52-.2-.75,2.18.56c-.11-.1-.21-.26-.28-.53-.25-.95.23-1.83,1.21-2.09.96-.26,1.81.26,2.08,1.28.27,1-.18,1.85-1.22,2.13M514.18,524.96c-.22-.84-1-1.11-2.27-.77-.44.12-.79.26-1.06.45l3.27,1.14c.12-.24.14-.51.06-.82M515.4,529.53c-.16-.6-.64-.87-1.23-.71-.62.17-.92.64-.76,1.24.16.6.65.87,1.28.7.59-.16.88-.64.72-1.23"/>
      <path class="cls-10" d="M518.46,559.96c-1.61.13-2.71-.59-2.81-1.84-.1-1.26.86-2.15,2.47-2.29,1.6-.13,2.71.59,2.81,1.84.11,1.26-.86,2.15-2.47,2.29M520.26,564.48l-.29-.7c.46-.25.75-.64.71-1.22-.06-.69-.52-1.1-1.18-1.04-.67.06-1.07.51-1.01,1.17.04.46.34.8.7.95l-.18.79-2.75-.23-.23-2.69.66-.05.17,2.09,1.42.12c-.2-.15-.41-.49-.45-.99-.09-1.08.54-1.82,1.61-1.91,1.07-.09,1.8.57,1.9,1.7.09,1.04-.5,1.67-1.07,2M519.52,558.95l-3.03-1.68c-.15.21-.22.48-.19.79.07.87.79,1.26,2.1,1.15.46-.04.83-.13,1.12-.26M520.27,557.73c-.07-.87-.79-1.26-2.09-1.15-.45.04-.83.12-1.12.26l3.01,1.69c.16-.22.22-.48.2-.8"/>
      <path class="cls-10" d="M519.5,594.96l-.26,2.77-.5-.05-3.13-2.9.09-.93,3.21.3.07-.77.66.06-.07.77,1.24.11-.07.74-1.24-.11ZM518.41,592.43c-1.6-.15-2.57-1.05-2.45-2.31.12-1.26,1.23-1.97,2.83-1.82s2.57,1.05,2.45,2.31c-.11,1.25-1.22,1.97-2.83,1.82M518.85,594.9l-2.39-.22,2.22,2.07.17-1.85ZM519.63,591.62l-2.69-2.18c-.19.18-.3.44-.33.74-.08.87.56,1.38,1.86,1.5.46.04.84.02,1.15-.06M520.58,590.54c.08-.87-.56-1.38-1.86-1.5-.45-.04-.84-.03-1.15.06l2.67,2.2c.19-.19.3-.43.33-.75"/>
      <path class="cls-10" d="M512.71,629.56l-.04-.76c.59-.02,1.1-.28,1.27-.9.17-.63-.1-1.24-.75-1.41-.68-.18-1.18.36-1.38,1.08l-.47-.13-.97-1.29-.6,2.21-.64-.17.85-3.13.56.15.98,1.33c.33-.57.94-1.03,1.86-.78.83.22,1.51,1.12,1.19,2.29-.25.92-1.02,1.51-1.87,1.5M512.76,624.61c-1.55-.42-2.35-1.47-2.02-2.69.33-1.22,1.54-1.73,3.1-1.31,1.55.42,2.35,1.47,2.02,2.69-.33,1.22-1.54,1.73-3.1,1.31M514.1,624.03l-2.28-2.61c-.21.15-.37.38-.45.68-.23.84.31,1.46,1.58,1.8.45.12.83.16,1.15.14M515.22,623.13c.23-.84-.31-1.46-1.58-1.8-.44-.12-.82-.17-1.14-.14l2.26,2.62c.22-.15.37-.38.46-.68"/>
      <path class="cls-10" d="M499.74,656.61c-.43-.2-.87-.06-1.13.5-.33.7.04,1.15.5,1.47l-.51.55c-.41-.24-1.16-1.08-.61-2.27.42-.9,1.26-1.3,2.04-.94.76.35,1.26,1.35,1.88,3.32l.96-2.05.6.28-1.46,3.11-.44-.21c-.76-2.53-1.2-3.47-1.84-3.77M501.53,655.58c-1.46-.68-2.06-1.86-1.52-3.01.54-1.14,1.82-1.44,3.28-.75,1.46.69,2.06,1.86,1.52,3.01-.54,1.14-1.82,1.44-3.28.75M502.95,655.24l-1.79-2.97c-.24.11-.43.31-.56.59-.37.79.05,1.49,1.24,2.05.42.2.79.31,1.11.33M504.21,654.55c.37-.79-.05-1.49-1.24-2.05-.41-.19-.78-.31-1.1-.34l1.77,2.98c.25-.11.43-.31.57-.59"/>
      <path class="cls-10" d="M482.2,684.84l-.53.76-.54-.38.96-1.37,4.2,2.94-.43.61-3.66-2.56ZM484.88,684.33c-1.32-.92-1.7-2.18-.98-3.22.72-1.03,2.04-1.1,3.36-.18,1.32.92,1.7,2.18.98,3.22-.72,1.03-2.04,1.1-3.36.18M486.34,684.23l-1.25-3.23c-.25.07-.47.23-.65.48-.5.71-.2,1.47.87,2.23.38.26.72.43,1.03.52M487.7,683.77c.5-.71.2-1.48-.87-2.23-.37-.26-.71-.44-1.02-.52l1.23,3.23c.26-.07.48-.23.66-.49"/>
      <path class="cls-10" d="M115.51,344.18c.32-.32.7-.53,1.45-.75l2.1-.62.55.55-2.16.61c.14.03.31.12.5.32.69.69.72,1.7,0,2.42-.7.7-1.69.68-2.44-.07-.73-.73-.77-1.69-.01-2.45M117.46,344.72c-.43-.43-1-.42-1.45.04-.43.43-.44.99,0,1.42.43.43.99.43,1.42,0,.46-.46.47-1.02.04-1.45"/>
      <path class="cls-10" d="M92.68,320.05c-1.14,1.14-2.45,1.3-3.34.41-.89-.89-.73-2.2.41-3.34s2.45-1.3,3.34-.41c.89.89.73,2.2-.41,3.34M92.84,318.6l-3.39.67c.02.26.14.51.36.72.62.62,1.42.45,2.34-.47.33-.33.55-.64.69-.93M92.63,317.18c-.61-.61-1.42-.46-2.34.47-.32.32-.55.63-.69.91l3.39-.65c-.02-.27-.14-.51-.36-.73M96.83,321.51l-.92-.92-2.69,2.69.86.86-.46.47-1.39-1.39,3.16-3.15-.78-.78.47-.47,2.22,2.22-.46.47Z"/>
      <path class="cls-10" d="M416.31,641.93l-.68-.35c.28-.52.31-1.09-.15-1.55-.46-.46-1.13-.53-1.6-.06-.5.5-.28,1.2.25,1.73l-.34.34-1.6.2,1.62,1.62-.47.46-2.29-2.29.41-.41,1.64-.19c-.33-.57-.42-1.32.25-2,.61-.6,1.72-.75,2.58.11.67.67.8,1.64.37,2.37"/>
    </g>
    <polygon class="cls-10" points="164.88 394.94 166.71 396.76 166.24 397.23 163.84 394.83 164.31 394.37 168.98 392.73 169.54 393.29 164.88 394.94"/>
    <g class="cls-17">
      <path class="cls-10" d="M465.84,691.21l-.67-.35c.2-.49.16-.98-.25-1.39-.49-.49-1.1-.5-1.57-.03-.48.48-.48,1.08-.02,1.55.33.33.78.39,1.14.27l.37.72-2.24,1.6-1.91-1.91.47-.47,1.48,1.49,1.16-.82c-.25.02-.63-.11-.98-.46-.77-.77-.77-1.74,0-2.5.76-.75,1.74-.73,2.54.07.74.73.7,1.6.47,2.22"/>
      <path class="cls-10" d="M218.63,444l-.67-.35c.2-.49.16-.98-.25-1.39-.49-.49-1.1-.5-1.57-.03-.48.48-.48,1.08-.02,1.55.33.33.78.39,1.14.27l.37.72-2.24,1.6-1.91-1.91.47-.47,1.48,1.48,1.16-.82c-.25.02-.63-.11-.98-.46-.77-.77-.77-1.74,0-2.5.76-.76,1.74-.73,2.55.07.74.73.7,1.6.47,2.22"/>
    </g>
    <polygon class="cls-10" points="510.98 741.04 512.8 742.86 512.33 743.32 509.94 740.93 510.4 740.46 515.08 738.82 515.63 739.38 510.98 741.04"/>
    <g class="cls-15">
      <path class="cls-10" d="M267.98,493.6l-.68-.35c.28-.52.31-1.09-.15-1.55-.46-.46-1.13-.53-1.6-.06-.5.5-.28,1.2.25,1.73l-.34.34-1.6.2,1.62,1.62-.47.46-2.29-2.29.41-.41,1.65-.19c-.33-.57-.42-1.32.25-2,.61-.61,1.72-.75,2.58.11.67.67.8,1.63.37,2.37"/>
      <path class="cls-10" d="M560.49,789.16c.32-.32.7-.53,1.45-.75l2.1-.62.55.55-2.16.61c.15.03.31.12.5.32.69.69.72,1.7,0,2.42-.7.7-1.69.68-2.44-.07s-.77-1.69-.01-2.45M562.44,789.7c-.43-.43-1-.42-1.45.04-.43.43-.44.99,0,1.42.43.43.99.43,1.42,0,.46-.46.47-1.02.04-1.45"/>
    </g>
    <polygon class="cls-10" points="317.62 542.3 316.71 541.38 314.02 544.07 314.88 544.93 314.41 545.4 313.03 544.01 316.18 540.86 315.4 540.08 315.87 539.62 318.09 541.83 317.62 542.3"/>
    <g class="cls-16">
      <path class="cls-10" d="M387.83,616.86c-.34.34-.35.8.08,1.23.55.55,1.09.35,1.55.03l.35.67c-.36.3-1.41.72-2.33-.2-.7-.7-.8-1.62-.19-2.23.59-.59,1.7-.72,3.76-.64l-1.6-1.6.46-.47,2.43,2.43-.34.34c-2.63-.14-3.67-.05-4.16.45"/>
      <path class="cls-10" d="M144.08,369.91c-.36.36-.95.48-1.41.28.15.42.03.92-.33,1.27-.61.61-1.42.57-2.08-.09-.66-.66-.7-1.48-.09-2.08.35-.35.84-.48,1.27-.33-.2-.45-.08-1.04.28-1.41.66-.66,1.59-.63,2.29.07s.73,1.63.07,2.29M141.82,369.81c-.34-.34-.78-.34-1.12,0-.33.33-.32.75.03,1.09.34.34.77.35,1.09.03.35-.35.35-.78,0-1.12M143.54,368.09c-.38-.38-.92-.38-1.29-.01-.35.35-.34.88.04,1.26.38.38.91.39,1.26.04.37-.37.37-.92,0-1.29"/>
    </g>
    <path class="cls-10" d="M439.32,664.83l1.76,1.76-.35.35-4.02.76-.66-.66,2.28-2.28-.44-.45.46-.46.45.44.88-.88.53.53-.88.88ZM438.86,665.29l-1.66,1.66,2.76-.56-1.1-1.1Z"/>
    <g class="cls-19">
      <path class="cls-10" d="M193.46,419.53c-.32.32-.7.53-1.45.75l-2.1.62-.55-.55,2.16-.61c-.15-.03-.31-.12-.5-.32-.69-.69-.72-1.7,0-2.42.7-.7,1.69-.68,2.44.07.73.73.77,1.69,0,2.45M192.98,417.53c-.43-.43-.99-.43-1.42,0-.46.45-.47,1.02-.04,1.45.43.43,1,.42,1.45-.04.43-.43.44-.99,0-1.42"/>
      <path class="cls-10" d="M490.11,716.18c-.32.32-.7.53-1.45.75l-2.1.62-.55-.55,2.16-.61c-.14-.03-.31-.12-.5-.32-.69-.69-.72-1.7,0-2.42.7-.7,1.69-.68,2.44.07.73.73.77,1.69,0,2.45M489.63,714.18c-.43-.43-.99-.43-1.42,0-.45.46-.47,1.02-.04,1.45.44.43,1,.42,1.45-.04.43-.43.44-.99,0-1.42"/>
    </g>
    <path class="cls-10" d="M241.55,467.06l1.76,1.76-.35.35-4.02.76-.66-.66,2.28-2.28-.45-.44.46-.46.45.44.88-.88.53.53-.88.88ZM241.09,467.53l-1.66,1.66,2.76-.56-1.1-1.1Z"/>
    <g class="cls-22">
      <path class="cls-10" d="M539.61,765.45c-.36.36-.95.48-1.41.28.16.42.03.92-.33,1.27-.61.61-1.42.57-2.09-.09-.66-.66-.7-1.47-.09-2.08.35-.35.84-.48,1.27-.33-.2-.46-.08-1.05.28-1.41.66-.66,1.59-.63,2.29.07.7.7.73,1.63.07,2.29M537.36,765.35c-.34-.34-.78-.34-1.12,0-.33.33-.32.75.03,1.09.34.34.77.35,1.09.03.35-.35.35-.78,0-1.12M539.08,763.63c-.38-.38-.92-.38-1.29-.01-.35.35-.34.88.04,1.26.38.38.91.39,1.26.04.37-.37.37-.92-.01-1.29"/>
      <path class="cls-10" d="M288.95,517.98c-.34.34-.35.8.08,1.23.55.55,1.09.35,1.55.03l.35.67c-.36.3-1.41.72-2.33-.2-.7-.7-.8-1.62-.19-2.23.59-.59,1.7-.72,3.76-.64l-1.6-1.6.46-.46,2.43,2.43-.34.34c-2.63-.14-3.67-.05-4.16.45"/>
      <path class="cls-10" d="M587.11,814.48c-1.14,1.14-2.45,1.3-3.34.41-.89-.89-.73-2.2.41-3.34,1.14-1.14,2.45-1.3,3.34-.41.89.89.73,2.2-.41,3.34M587.27,813.03l-3.39.67c.02.26.15.51.36.72.62.62,1.42.46,2.34-.47.33-.33.55-.64.69-.92M587.06,811.61c-.61-.62-1.42-.46-2.34.47-.32.32-.55.63-.69.91l3.39-.65c-.02-.27-.14-.51-.36-.74M591.26,815.94l-.92-.92-2.69,2.69.86.86-.46.47-1.39-1.39,3.16-3.16-.78-.78.46-.47,2.22,2.22-.47.47Z"/>
    </g>
    <path class="cls-6" d="M345.27,561.88l56.89-56.89M468.38,438.77l113.74-113.74M582.12,325.03l18.16-18.16"/>
    <path class="cls-4" d="M370.06,586.53l56.82-56.82M446.84,509.75l20.69-20.69M422.12,485.03l20.69-20.69M490.42,466.17l77.79-77.79M471.56,534.47l12.69-12.69M509.01,497.02l59.05-59.05M394.78,611.25l56.82-56.82M419.5,635.98l56.82-56.82M521.75,533.72l46.26-46.26M444.22,660.7l46.08-46.08M523,581.92l45.11-45.11M523.77,630.59l44.27-44.27M493.66,710.14l74.89-74.89M518.38,734.86l49.9-49.9M543.1,759.58l24.95-24.95"/>
    <line class="cls-6" x1="567.83" y1="784.3" x2="571.52" y2="780.61"/>
    <path class="cls-4" d="M378.06,537.23l-4.07-4.07M504.57,410.71l-4.07-4.07M546.88,467.29l-4.07-4.07M538.74,459.15l4.07,4.07M526.38,685.56l-4.07-4.07M452.22,611.4l-4.07-4.07M518.24,677.42l4.07,4.07M444.08,603.25l4.07,4.07M401.85,513.44l-4.07-4.07M528.37,386.92l-4.07-4.07M550.18,661.76l-4.07-4.07M476.01,587.6l-4.07-4.07M542.04,653.62l4.07,4.07M467.87,579.46l4.07,4.07M358.86,560.87l-6.29-6.29M485.38,434.35l-6.29-6.29M507.19,709.19l-6.29-6.29M494.61,696.61l6.29,6.29M382.66,537.07l-6.29-6.29M509.17,410.56l-6.29-6.29M530.98,685.4l-6.29-6.29M518.4,672.82l6.29,6.29M349.5,565.79l-4.07-4.07M476.02,439.27l-4.07-4.07M518.32,495.85l-4.07-4.07M510.18,487.71l4.07,4.07M568.06,531.31l-82.21-82.21M497.83,714.11l-4.07-4.07M423.67,639.95l-4.07-4.07M489.69,705.97l4.07,4.07M415.53,631.81l4.07,4.07M359.02,556.27l-4.07-4.07M485.54,429.75l-4.07-4.07M527.84,486.33l-4.07-4.07M519.7,478.19l4.07,4.07M507.35,704.59l-4.07-4.07M433.18,630.43l-4.07-4.07M499.21,696.45l4.07,4.07M425.04,622.29l4.07,4.07M382.82,532.47l-4.07-4.07M509.33,405.96l-4.07-4.07M531.14,680.8l-4.07-4.07M456.98,606.64l-4.07-4.07M523,672.66l4.07,4.07M448.84,598.5l4.07,4.07M351.88,563.41l-4.07-4.07M478.4,436.89l-4.07-4.07M520.7,493.47l-4.07-4.07M512.56,485.33l4.07,4.07M500.21,711.73l-4.07-4.07M426.05,637.57l-4.07-4.07M492.07,703.59l4.07,4.07M417.9,629.43l4.07,4.07M361.4,553.89l-4.07-4.07M487.92,427.37l-4.07-4.07M530.22,483.95l-4.07-4.07M522.08,475.81l4.07,4.07M509.73,702.21l-4.07-4.07M435.56,628.05l-4.07-4.07M501.59,694.07l4.07,4.07M427.42,619.91l4.07,4.07M385.19,530.09l-4.07-4.07M511.71,403.58l-4.07-4.07M533.52,678.42l-4.07-4.07M459.36,604.26l-4.07-4.07M525.38,670.28l4.07,4.07M451.22,596.12l4.07,4.07M354.26,561.03l-4.07-4.07M480.78,434.51l-4.07-4.07M523.08,491.09l-4.07-4.07M514.94,482.95l4.07,4.07M502.59,709.35l-4.07-4.07M428.42,635.19l-4.07-4.07M494.45,701.21l4.07,4.07M420.28,627.05l4.07,4.07M363.78,551.51l-4.07-4.07M490.3,424.99l-4.07-4.07M532.6,481.57l-4.07-4.07M524.46,473.43l4.07,4.07M512.11,699.84l-4.07-4.07M437.94,625.67l-4.07-4.07M503.97,691.69l4.07,4.07M429.8,617.53l4.07,4.07M387.57,527.71l-4.07-4.07M514.09,401.2l-4.07-4.07M535.9,676.04l-4.07-4.07M461.74,601.88l-4.07-4.07M527.76,667.9l4.07,4.07M453.6,593.74l4.07,4.07M366.16,549.13l-4.07-4.07M492.68,422.61l-4.07-4.07M534.98,479.19l-4.07-4.07M526.84,471.05l4.07,4.07M514.49,697.46l-4.07-4.07M440.32,623.29l-4.07-4.07M506.34,689.32l4.07,4.07M432.18,615.15l4.07,4.07M389.95,525.34l-4.07-4.07M516.47,398.82l-4.07-4.07M538.28,673.66l-4.07-4.07M464.12,599.5l-4.07-4.07M530.14,665.52l4.07,4.07M455.98,591.36l4.07,4.07M370.76,548.97l-6.29-6.29M497.28,422.45l-6.29-6.29M539.58,479.03l-6.29-6.29M527,466.45l6.29,6.29M519.09,697.3l-6.29-6.29M444.92,623.13l-6.29-6.29M506.5,684.72l6.29,6.29M432.34,610.55l6.29,6.29M394.55,525.18l-6.29-6.29M521.07,398.66l-6.29-6.29M542.88,673.5l-6.29-6.29M468.72,599.34l-6.29-6.29M530.3,660.92l6.29,6.29M456.14,586.76l6.29,6.29M370.92,544.37l-4.07-4.07M497.44,417.85l-4.07-4.07M539.74,474.43l-4.07-4.07M531.6,466.29l4.07,4.07M519.24,692.7l-4.07-4.07M445.08,618.53l-4.07-4.07M511.1,684.56l4.07,4.07M436.94,610.39l4.07,4.07M394.71,520.58l-4.07-4.07M521.23,394.06l-4.07-4.07M543.04,668.9l-4.07-4.07M468.88,594.74l-4.07-4.07M534.9,660.76l4.07,4.07M460.74,586.6l4.07,4.07M373.3,541.99l-4.07-4.07M499.82,415.47l-4.07-4.07M542.12,472.05l-4.07-4.07M533.98,463.91l4.07,4.07M568.11,483.77l-58.46-58.46M568.05,388.54l-24.72-24.72M521.62,690.32l-4.07-4.07M447.46,616.15l-4.07-4.07M513.48,682.18l4.07,4.07M439.32,608.01l4.07,4.07M397.09,518.2l-4.07-4.07M523.61,391.68l-4.07-4.07M568.07,436.14l-34.63-34.63M545.42,666.52l-4.07-4.07M471.26,592.36l-4.07-4.07M537.28,658.38l4.07,4.07M463.11,584.22l4.07,4.07M375.68,539.61l-4.07-4.07M502.19,413.09l-4.07-4.07M544.5,469.67l-4.07-4.07M536.36,461.53l4.07,4.07M524,687.94l-4.07-4.07M449.84,613.78l-4.07-4.07M515.86,679.8l4.07,4.07M441.7,605.63l4.07,4.07M399.47,515.82l-4.07-4.07M525.99,389.3l-4.07-4.07M547.8,664.14l-4.07-4.07M473.63,589.98l-4.07-4.07M539.66,656l4.07,4.07M465.49,581.84l4.07,4.07M406.45,513.28l-6.29-6.29M532.97,386.76l-6.29-6.29M554.78,661.6l-6.29-6.29M480.61,587.44l-6.29-6.29M542.2,649.02l6.29,6.29M468.03,574.86l6.29,6.29M491.79,598.62l-77.72-77.72M567.99,674.82l-48.19-48.19M568.09,579.73l-46.5-46.5M490.54,549.78l-52.68-52.68M568.21,627.45l-42.52-42.52M466.45,668.46l-99.97-99.97M567.73,769.74l-77.49-77.49M568.27,722.68l-60.19-60.19M482.5,636.92l-92.23-92.23"/>
    <line class="cls-1" x1="347.17" y1="579.44" x2="581.21" y2="591.76"/>
    <path class="cls-5" d="M466.62,481.35l12.73-8.96M463.53,679.43l7.09,5.32M465.25,677.1l7.18,5.2M466.93,674.73l7.27,5.08M468.57,672.34l12.91,8.7M470.17,669.92l7.44,4.82M471.73,667.47l7.52,4.7M473.25,665l7.6,4.57M474.72,662.5l7.68,4.43M476.15,659.97l10.38,5.76M477.53,657.43l7.82,4.17M478.88,654.85l7.89,4.03M480.17,652.26l7.96,3.89M481.43,649.64l8.03,3.76M482.63,647l14.21,6.35M483.79,644.34l8.15,3.48M484.91,641.67l8.21,3.34M485.98,638.97l8.27,3.2M487,636.25l8.32,3.05M487.98,633.52l11.22,3.9M488.9,630.77l8.42,2.76M489.78,628.01l8.47,2.62M490.62,625.23l8.51,2.47M491.4,622.44l8.55,2.32M492.14,619.63l15.09,3.82M492.83,616.81l8.63,2.03M493.47,613.98l8.66,1.88M494.06,611.14l8.69,1.73M494.6,608.29l8.72,1.58M495.09,605.43l11.72,1.92M495.53,602.57l8.77,1.28M495.93,599.69l8.79,1.13M496.27,596.81l8.81.98M496.57,593.93l8.83.83M496.81,591.04l15.53,1.18M497.01,588.14l8.85.52M497.15,585.24l8.86.37M497.25,582.34l8.86.21M497.29,579.44l8.86.06M497.29,576.54l63.02-.12M497.23,573.64l8.86-.24M497.13,570.74l8.86-.4M496.97,567.85l8.85-.55M496.77,564.95l8.84-.7M496.52,562.06l15.5-1.5M496.21,559.18l8.81-1.01M495.86,556.3l8.79-1.16M495.46,553.43l8.77-1.31M495,550.56l8.74-1.46M494.5,547.7l11.68-2.15M493.95,544.85l8.69-1.76M493.35,542.02l8.66-1.91M492.7,539.19l8.62-2.06M492,536.37l8.59-2.2M491.26,533.57l15.01-4.13M490.46,530.78l8.51-2.5M489.62,528l8.46-2.65M488.73,525.24l8.41-2.79M487.79,522.5l8.36-2.94M486.81,519.77l11.14-4.12M485.78,517.05l8.26-3.22M484.7,514.36l8.2-3.36M483.58,511.69l8.14-3.5M482.41,509.03l8.08-3.64M481.19,506.4l14.08-6.64M479.93,503.79l7.95-3.92M478.63,501.19l7.88-4.06M477.28,498.63l7.81-4.19M475.88,496.08l7.74-4.33M474.45,493.56l10.26-5.97M472.96,491.07l7.58-4.59M471.44,488.6l7.5-4.72M469.88,486.16l7.42-4.85M468.27,483.74l7.34-4.98M464.93,479l7.16-5.22M463.2,476.67l7.07-5.35M461.43,474.37l6.98-5.47M459.62,472.1l6.88-5.59M457.77,469.87l9.09-7.64M455.89,467.66l6.69-5.82M453.96,465.49l6.58-5.94M452,463.35l6.48-6.05M450,461.25l6.38-6.16M447.97,459.18l11.01-11.01"/>
    <polyline class="cls-10" points="570.14 337 570.14 778.43 584.12 792.4 584.12 323.03 570.24 336.91"/>
    <g class="cls-23">
      <path class="cls-9" d="M577.09,751.08c-2.42,0-3.98-1.22-3.98-3.11s1.56-3.11,3.98-3.11,3.98,1.22,3.98,3.11-1.56,3.11-3.98,3.11M574.23,753.17v3.87h-.99v-5.09h.99l6.7,3.22v1.19l-6.7-3.19ZM574.23,759.45v1.38h-.99v-2.5h7.69v1.12h-6.7ZM578.8,749.71l-4.32-2.89c-.25.3-.38.69-.38,1.15,0,1.31,1.02,1.99,2.99,1.99.69,0,1.26-.09,1.71-.25M580.08,747.98c0-1.31-1.02-1.99-2.99-1.99-.68,0-1.25.08-1.7.24l4.3,2.91c.26-.31.4-.69.4-1.16"/>
      <path class="cls-9" d="M577.09,695.21c-2.42,0-3.98-1.22-3.98-3.11s1.56-3.11,3.98-3.11,3.98,1.22,3.98,3.11-1.56,3.11-3.98,3.11M578.47,701.64c-.68,0-1.31-.19-2.34-.75l-2.89-1.57v-1.16l2.94,1.65c-.12-.19-.2-.46-.2-.87,0-1.47,1.04-2.57,2.56-2.57s2.52,1.08,2.52,2.66-.98,2.61-2.59,2.61M574.23,704.26v1.38h-.99v-2.51h7.69v1.12h-6.7ZM578.8,693.83l-4.32-2.89c-.25.3-.38.69-.38,1.15,0,1.31,1.02,1.99,2.99,1.99.69,0,1.26-.09,1.71-.25M580.08,692.1c0-1.31-1.02-1.99-2.99-1.99-.68,0-1.25.08-1.7.24l4.3,2.91c.26-.31.4-.69.4-1.16M580.08,699c0-.92-.59-1.51-1.52-1.51s-1.58.58-1.58,1.51.62,1.51,1.58,1.51,1.52-.58,1.52-1.51"/>
      <path class="cls-9" d="M577.09,645.85c-2.42,0-3.98-1.22-3.98-3.11s1.56-3.11,3.98-3.11,3.98,1.22,3.98,3.11-1.56,3.11-3.98,3.11M579.21,652.65l-.34-1.08c.73-.31,1.21-.87,1.21-1.74,0-1.04-.64-1.7-1.64-1.7s-1.66.64-1.66,1.63c0,.69.41,1.24.92,1.5l-.37,1.17-4.09-.68v-4.05h.99v3.15l2.11.36c-.29-.25-.55-.79-.55-1.54,0-1.63,1.03-2.66,2.65-2.66s2.63,1.08,2.63,2.78c0,1.56-.96,2.44-1.86,2.86M574.23,655.27v1.38h-.99v-2.5h7.69v1.12h-6.7ZM578.8,644.48l-4.32-2.89c-.25.3-.38.69-.38,1.15,0,1.31,1.02,1.99,2.99,1.99.69,0,1.26-.09,1.71-.25M580.08,642.74c0-1.31-1.02-1.99-2.99-1.99-.68,0-1.25.08-1.7.24l4.3,2.91c.26-.31.4-.69.4-1.16"/>
      <path class="cls-9" d="M577.09,604.22c-2.42,0-3.98-1.22-3.98-3.11s1.56-3.11,3.98-3.11,3.98,1.22,3.98,3.11-1.56,3.11-3.98,3.11M579.07,607.67v4.17h-.75l-5.08-3.9v-1.4h4.83v-1.16h.99v1.16h1.87v1.12h-1.87ZM574.23,614.25v1.38h-.99v-2.51h7.69v1.12h-6.7ZM578.8,602.85l-4.32-2.89c-.25.3-.38.69-.38,1.15,0,1.31,1.02,1.99,2.99,1.99.69,0,1.26-.09,1.71-.25M578.08,607.67h-3.59l3.59,2.78v-2.78ZM580.08,601.11c0-1.31-1.02-1.99-2.99-1.99-.68,0-1.25.08-1.7.24l4.3,2.91c.26-.31.4-.69.4-1.16"/>
      <path class="cls-9" d="M577.09,555.09c-2.42,0-3.98-1.22-3.98-3.11s1.56-3.11,3.98-3.11,3.98,1.22,3.98,3.11-1.56,3.11-3.98,3.11M578.95,562.1l-.35-1.09c.85-.25,1.48-.84,1.48-1.8s-.64-1.76-1.64-1.76c-1.05,0-1.57.98-1.57,2.11h-.72l-1.91-1.49v3.44h-.99v-4.87h.87l1.94,1.55c.26-.96.96-1.86,2.38-1.86,1.29,0,2.63,1.03,2.63,2.86,0,1.43-.89,2.58-2.12,2.91M574.23,564.49v1.39h-.99v-2.51h7.69v1.12h-6.7ZM578.8,553.72l-4.32-2.89c-.25.3-.38.69-.38,1.15,0,1.31,1.02,1.99,2.99,1.99.69,0,1.26-.09,1.71-.25M580.08,551.98c0-1.31-1.02-1.99-2.99-1.99-.68,0-1.25.08-1.7.24l4.3,2.91c.26-.31.4-.69.4-1.16"/>
      <path class="cls-9" d="M577.09,510.37c-2.42,0-3.98-1.22-3.98-3.11s1.56-3.11,3.98-3.11,3.98,1.22,3.98,3.11-1.56,3.11-3.98,3.11M575.32,512.72c-.71,0-1.22.47-1.22,1.4,0,1.16.79,1.53,1.61,1.67l-.34,1.08c-.7-.07-2.26-.72-2.26-2.69,0-1.48.88-2.57,2.16-2.57s2.57,1.03,4.67,3.31v-3.39h.99v5.15h-.72c-2.64-2.94-3.85-3.94-4.89-3.94M574.23,519.38v1.38h-.99v-2.51h7.69v1.12h-6.7ZM578.8,509l-4.32-2.89c-.25.3-.38.69-.38,1.15,0,1.31,1.02,1.99,2.99,1.99.69,0,1.26-.09,1.71-.25M580.08,507.26c0-1.31-1.02-1.99-2.99-1.99-.68,0-1.25.08-1.7.24l4.3,2.91c.26-.31.4-.69.4-1.16"/>
      <path class="cls-9" d="M577.09,459.9c-2.42,0-3.98-1.22-3.98-3.11s1.56-3.11,3.98-3.11,3.98,1.22,3.98,3.11-1.56,3.11-3.98,3.11M574.23,462.65v1.38h-.99v-2.5h7.69v1.12h-6.7ZM574.23,466.44v1.39h-.99v-2.51h7.69v1.12h-6.7ZM578.8,458.53l-4.32-2.89c-.25.3-.38.69-.38,1.15,0,1.31,1.02,1.99,2.99,1.99.69,0,1.26-.09,1.71-.25M580.08,456.79c0-1.31-1.02-1.99-2.99-1.99-.68,0-1.25.08-1.7.24l4.3,2.91c.26-.31.4-.69.4-1.16"/>
      <path class="cls-9" d="M577.09,406.47c-2.42,0-3.98-1.22-3.98-3.11s1.56-3.11,3.98-3.11,3.98,1.22,3.98,3.11-1.56,3.11-3.98,3.11M577.09,413.92c-2.42,0-3.98-1.22-3.98-3.11s1.56-3.11,3.98-3.11,3.98,1.22,3.98,3.11-1.56,3.11-3.98,3.11M574.23,416.68v1.38h-.99v-2.51h7.69v1.12h-6.7ZM578.8,405.1l-4.32-2.89c-.25.3-.38.69-.38,1.15,0,1.31,1.02,1.99,2.99,1.99.69,0,1.26-.09,1.71-.25M578.8,412.55l-4.32-2.89c-.25.3-.38.69-.38,1.15,0,1.31,1.02,1.99,2.99,1.99.69,0,1.26-.09,1.71-.25M580.08,403.37c0-1.31-1.02-1.99-2.99-1.99-.68,0-1.25.08-1.7.24l4.3,2.91c.26-.31.4-.69.4-1.16M580.08,410.81c0-1.31-1.02-1.99-2.99-1.99-.68,0-1.25.08-1.7.24l4.3,2.91c.26-.31.4-.69.4-1.17"/>
      <path class="cls-10" d="M562.23,751.09c-2.42,0-3.98-1.22-3.98-3.11s1.56-3.11,3.98-3.11,3.98,1.22,3.98,3.11-1.56,3.11-3.98,3.11M559.37,753.84v1.39h-.99v-2.5h7.69v1.12h-6.7ZM563.94,749.71l-4.32-2.89c-.25.3-.38.69-.38,1.15,0,1.31,1.02,1.99,2.99,1.99.69,0,1.26-.09,1.71-.25M565.21,747.98c0-1.31-1.02-1.99-2.99-1.99-.68,0-1.25.08-1.7.24l4.3,2.91c.26-.31.4-.69.4-1.16"/>
      <path class="cls-10" d="M562.23,695.2c-2.42,0-3.98-1.22-3.98-3.11s1.56-3.11,3.98-3.11,3.98,1.22,3.98,3.11-1.56,3.11-3.98,3.11M560.46,697.55c-.71,0-1.22.47-1.22,1.39,0,1.17.79,1.53,1.61,1.67l-.34,1.08c-.7-.07-2.26-.73-2.26-2.69,0-1.48.88-2.57,2.16-2.57s2.57,1.03,4.67,3.31v-3.39h.99v5.15h-.72c-2.64-2.94-3.85-3.94-4.89-3.94M563.94,693.83l-4.32-2.89c-.25.3-.38.69-.38,1.15,0,1.31,1.02,1.99,2.99,1.99.69,0,1.26-.09,1.71-.25M565.21,692.09c0-1.31-1.02-1.99-2.99-1.99-.68,0-1.25.08-1.7.24l4.3,2.91c.26-.31.4-.69.4-1.16"/>
      <path class="cls-10" d="M562.23,645.84c-2.42,0-3.98-1.22-3.98-3.11s1.56-3.11,3.98-3.11,3.98,1.22,3.98,3.11-1.56,3.11-3.98,3.11M564.08,652.85l-.35-1.09c.85-.25,1.48-.83,1.48-1.8s-.64-1.76-1.64-1.76c-1.05,0-1.57.98-1.57,2.11h-.72l-1.91-1.49v3.44h-.99v-4.87h.87l1.94,1.55c.26-.96.96-1.86,2.38-1.86,1.29,0,2.63,1.03,2.63,2.86,0,1.43-.89,2.58-2.12,2.91M563.94,644.47l-4.32-2.89c-.25.3-.38.69-.38,1.15,0,1.31,1.02,1.99,2.99,1.99.69,0,1.26-.09,1.71-.25M565.21,642.73c0-1.31-1.02-1.99-2.99-1.99-.68,0-1.25.08-1.7.24l4.3,2.91c.26-.31.4-.69.4-1.16"/>
      <path class="cls-10" d="M562.23,604.22c-2.42,0-3.98-1.22-3.98-3.11s1.56-3.11,3.98-3.11,3.98,1.22,3.98,3.11-1.56,3.11-3.98,3.11M564.2,607.67v4.18h-.75l-5.08-3.9v-1.4h4.83v-1.17h.99v1.17h1.87v1.12h-1.87ZM563.94,602.84l-4.32-2.89c-.25.3-.38.69-.38,1.15,0,1.31,1.02,1.99,2.99,1.99.69,0,1.26-.09,1.71-.25M563.21,607.67h-3.59l3.59,2.78v-2.78ZM565.21,601.11c0-1.31-1.02-1.99-2.99-1.99-.68,0-1.25.08-1.7.24l4.3,2.91c.26-.31.4-.69.4-1.16"/>
      <path class="cls-10" d="M562.23,555.09c-2.42,0-3.98-1.22-3.98-3.11s1.56-3.11,3.98-3.11,3.98,1.22,3.98,3.11-1.56,3.11-3.98,3.11M564.35,561.89l-.34-1.08c.73-.31,1.21-.87,1.21-1.74,0-1.04-.64-1.7-1.64-1.7s-1.66.64-1.66,1.63c0,.69.41,1.24.92,1.51l-.37,1.16-4.09-.68v-4.05h.99v3.15l2.11.36c-.29-.25-.55-.79-.55-1.54,0-1.63,1.03-2.66,2.65-2.66s2.63,1.08,2.63,2.78c0,1.56-.96,2.44-1.86,2.86M563.94,553.72l-4.32-2.89c-.25.3-.38.69-.38,1.15,0,1.31,1.02,1.99,2.99,1.99.69,0,1.26-.09,1.71-.25M565.21,551.98c0-1.31-1.02-1.99-2.99-1.99-.68,0-1.25.08-1.7.24l4.3,2.91c.26-.31.4-.69.4-1.16"/>
      <path class="cls-10" d="M562.23,510.36c-2.42,0-3.98-1.22-3.98-3.11s1.56-3.11,3.98-3.11,3.98,1.22,3.98,3.11-1.56,3.11-3.98,3.11M563.61,516.79c-.68,0-1.31-.19-2.34-.75l-2.89-1.57v-1.16l2.94,1.65c-.12-.19-.2-.46-.2-.87,0-1.47,1.04-2.57,2.56-2.57s2.52,1.08,2.52,2.66-.98,2.61-2.59,2.61M563.94,508.99l-4.32-2.89c-.25.3-.38.69-.38,1.15,0,1.31,1.02,1.99,2.99,1.99.69,0,1.26-.09,1.71-.25M565.21,507.25c0-1.31-1.02-1.99-2.99-1.99-.68,0-1.25.08-1.7.24l4.3,2.91c.26-.31.4-.69.4-1.16M565.21,514.16c0-.92-.59-1.51-1.52-1.51s-1.58.58-1.58,1.51.62,1.51,1.58,1.51,1.52-.58,1.52-1.51"/>
      <path class="cls-10" d="M562.23,459.89c-2.42,0-3.98-1.22-3.98-3.11s1.56-3.11,3.98-3.11,3.98,1.22,3.98,3.11-1.56,3.11-3.98,3.11M559.37,461.97v3.87h-.99v-5.09h.99l6.7,3.22v1.19l-6.7-3.19ZM563.94,458.51l-4.32-2.89c-.25.3-.38.69-.38,1.15,0,1.31,1.02,1.99,2.99,1.99.69,0,1.26-.09,1.71-.25M565.21,456.78c0-1.31-1.02-1.99-2.99-1.99-.68,0-1.25.08-1.7.24l4.3,2.91c.26-.31.4-.69.4-1.16"/>
      <path class="cls-10" d="M562.23,406.46c-2.42,0-3.98-1.22-3.98-3.11s1.56-3.11,3.98-3.11,3.98,1.22,3.98,3.11-1.56,3.11-3.98,3.11M563.85,412.77c-.77,0-1.52-.51-1.79-1.2-.29.61-.95,1-1.69,1-1.3,0-2.12-.9-2.12-2.31s.82-2.31,2.12-2.31c.75,0,1.41.38,1.69,1,.28-.69,1.02-1.2,1.79-1.2,1.4,0,2.35,1.02,2.35,2.51s-.96,2.51-2.35,2.51M563.94,405.09l-4.32-2.89c-.25.3-.38.69-.38,1.15,0,1.31,1.02,1.99,2.99,1.99.69,0,1.26-.09,1.71-.25M561.57,410.26c0-.73-.46-1.19-1.2-1.19-.69,0-1.13.46-1.13,1.19s.44,1.19,1.13,1.19c.74,0,1.2-.46,1.2-1.19M565.21,403.35c0-1.31-1.02-1.99-2.99-1.99-.68,0-1.25.08-1.7.24l4.3,2.91c.26-.31.4-.69.4-1.16M565.21,410.26c0-.8-.57-1.38-1.36-1.38-.75,0-1.3.58-1.3,1.38s.55,1.38,1.3,1.38c.79,0,1.36-.58,1.36-1.38"/>
    </g>
    <path class="cls-6" d="M598.64,316.32l-9.82,9.63M598.64,325.31l-9.95,9.51M598.64,334.29l-9.95,9.41M598.64,343.28l-9.84,8.87M598.64,352.27l-14.79,12.65M598.64,361.25l-10,8.15M598.64,370.24l-9.96,8.05M598.64,379.23l-9.63,7.25M598.64,388.21l-15.43,11.07M598.64,397.2l-9.74,6.85M598.64,406.18l-9.81,6.45M598.64,415.17l-9.85,6.09M598.64,424.16l-9.89,5.73M598.64,433.14l-9.85,4.93M598.64,442.13l-9.82,4.93M598.64,451.12l-15.29,6.92M598.64,460.1l-9.82,3.73M598.64,469.09l-9.82,4.29M598.64,478.08l-9.67,3.48M598.64,487.06l-9.92,3.33M598.64,496.05l-10,2.58M598.64,505.03l-15.33,4.13M598.64,514.02l-9.8,2.06M598.64,523.01l-9.92,1.58M598.64,531.99l-9.81,1.47M598.64,540.98l-9.85,1.1M598.64,549.97l-9.85,1.07M598.64,558.95l-9.83.26M598.64,567.94l-9.81.24M598.64,576.93l-15.66-.1M598.64,585.91l-9.91-.18M598.64,594.9l-9.92-.2M598.64,603.89l-16.37-1.16M598.64,612.87l-9.85-.77M598.64,621.86l-9.84-1.4M598.64,630.84l-9.82-1.97M598.64,639.83l-9.97-2M598.64,648.82l-15.96-4.22M598.64,657.8l-9.8-2.64M598.64,666.79l-9.78-2.94M598.64,675.78l-9.85-3.34M598.64,684.76l-9.89-3.33M598.64,693.75l-9.85-3.69M598.64,702.74l-15.84-6.96M598.64,711.72l-9.85-4.57M598.64,720.71l-9.85-5.04M598.64,729.69l-9.89-5.55M598.64,738.68l-9.85-5.98M598.64,747.67l-9.78-6.23M598.64,756.65l-9.84-6.57M598.64,765.64l-15.55-11.26M598.64,774.63l-9.95-7.38M598.64,783.61l-9.86-7.47M598.64,792.6l-9.82-8.34M598.64,801.59l-9.93-8.18M598.64,810.57l-9.84-8.99M598.64,819.56l-6.65-5.91M598.64,828.54l-7.2-6.46"/>
    <line class="cls-7" x1="566.15" y1="764.36" x2="362.7" y2="605.22"/>
    <polygon class="cls-10" points="322.71 325.94 315.38 318.61 308.06 325.94 322.71 325.94"/>
    <path class="cls-6" d="M345.27,561.88l56.89-56.89M468.38,438.77l113.74-113.74M582.12,325.03l18.16-18.16"/>
    <path class="cls-4" d="M320.62,537.09l56.82-56.82M397.4,460.31l20.69-20.69M440.98,416.73l77.79-77.79M372.68,435.59l12.69-12.69M410.13,398.14l59.05-59.05M295.89,512.37l56.82-56.82M271.17,487.65l56.82-56.82M373.43,385.4l46.26-46.26M246.45,462.93l46.08-46.08M325.23,384.15l45.11-45.11M276.56,383.38l44.27-44.27M197.01,413.49l74.89-74.89M172.29,388.77l49.9-49.9M147.57,364.04l24.95-24.95"/>
    <line class="cls-6" x1="122.85" y1="339.32" x2="126.54" y2="335.63"/>
    <path class="cls-4" d="M369.92,529.09l4.07,4.07M496.43,402.57l4.07,4.07M439.85,360.27l4.07,4.07M447.99,368.41l-4.07-4.07M221.59,380.77l4.07,4.07M295.75,454.93l4.07,4.07M229.73,388.91l-4.07-4.07M303.89,463.07l-4.07-4.07M393.71,505.3l4.07,4.07M520.23,378.78l4.07,4.07M245.38,356.97l4.07,4.07M319.55,431.13l4.07,4.07M253.53,365.11l-4.07-4.07M327.69,439.27l-4.07-4.07M346.28,548.29l6.29,6.29M472.8,421.77l6.29,6.29M197.95,399.96l6.29,6.29M210.54,412.54l-6.29-6.29M370.08,524.49l6.29,6.29M496.59,397.97l6.29,6.29M221.75,376.17l6.29,6.29M234.33,388.75l-6.29-6.29M341.36,557.65l4.07,4.07M467.88,431.13l4.07,4.07M411.3,388.82l4.07,4.07M419.44,396.96l-4.07-4.07M375.84,339.08l94.08,94.08M193.04,409.32l4.07,4.07M267.2,483.48l4.07,4.07M201.18,417.46l-4.07-4.07M275.34,491.62l-4.07-4.07M350.88,548.13l4.07,4.07M477.4,421.61l4.07,4.07M420.82,379.31l4.07,4.07M428.96,387.45l-4.07-4.07M202.55,399.8l4.07,4.07M276.72,473.96l4.07,4.07M210.7,407.94l-4.07-4.07M284.86,482.1l-4.07-4.07M374.68,524.33l4.07,4.07M501.19,397.81l4.07,4.07M226.35,376.01l4.07,4.07M300.51,450.17l4.07,4.07M234.49,384.15l-4.07-4.07M308.65,458.31l-4.07-4.07M343.74,555.27l4.07,4.07M470.26,428.75l4.07,4.07M413.68,386.44l4.07,4.07M421.82,394.58l-4.07-4.07M195.42,406.94l4.07,4.07M269.58,481.1l4.07,4.07M203.56,415.08l-4.07-4.07M277.72,489.24l-4.07-4.07M353.26,545.75l4.07,4.07M479.78,419.23l4.07,4.07M423.2,376.93l4.07,4.07M431.34,385.07l-4.07-4.07M204.93,397.42l4.07,4.07M279.1,471.58l4.07,4.07M213.07,405.56l-4.07-4.07M287.24,479.73l-4.07-4.07M377.05,521.95l4.07,4.07M503.57,395.44l4.07,4.07M228.73,373.63l4.07,4.07M302.89,447.79l4.07,4.07M236.87,381.77l-4.07-4.07M311.03,455.93l-4.07-4.07M346.12,552.89l4.07,4.07M472.64,426.37l4.07,4.07M416.06,384.06l4.07,4.07M424.2,392.21l-4.07-4.07M197.8,404.56l4.07,4.07M271.96,478.72l4.07,4.07M205.94,412.7l-4.07-4.07M280.1,486.86l-4.07-4.07M355.64,543.37l4.07,4.07M482.16,416.85l4.07,4.07M425.58,374.55l4.07,4.07M433.72,382.69l-4.07-4.07M207.31,395.04l4.07,4.07M281.48,469.21l4.07,4.07M215.45,403.18l-4.07-4.07M289.62,477.35l-4.07-4.07M379.43,519.57l4.07,4.07M505.95,393.06l4.07,4.07M231.11,371.25l4.07,4.07M305.27,445.41l4.07,4.07M239.25,379.39l-4.07-4.07M313.41,453.55l-4.07-4.07M358.02,540.99l4.07,4.07M484.54,414.47l4.07,4.07M427.96,372.17l4.07,4.07M436.1,380.31l-4.07-4.07M209.69,392.66l4.07,4.07M283.86,466.83l4.07,4.07M217.83,400.8l-4.07-4.07M292,474.97l-4.07-4.07M381.81,517.19l4.07,4.07M508.33,390.68l4.07,4.07M233.49,368.87l4.07,4.07M307.65,443.03l4.07,4.07M241.63,377.01l-4.07-4.07M315.79,451.17l-4.07-4.07M358.18,536.39l6.29,6.29M484.7,409.87l6.29,6.29M428.12,367.57l6.29,6.29M440.7,380.15l-6.29-6.29M209.85,388.06l6.29,6.29M284.02,462.23l6.29,6.29M222.43,400.64l-6.29-6.29M296.6,474.81l-6.29-6.29M381.97,512.59l6.29,6.29M508.49,386.08l6.29,6.29M233.65,364.27l6.29,6.29M307.81,438.43l6.29,6.29M246.23,376.85l-6.29-6.29M320.39,451.01l-6.29-6.29M362.78,536.23l4.07,4.07M489.3,409.71l4.07,4.07M432.72,367.41l4.07,4.07M440.86,375.55l-4.07-4.07M214.45,387.9l4.07,4.07M288.61,462.07l4.07,4.07M222.59,396.04l-4.07-4.07M296.76,470.21l-4.07-4.07M386.57,512.44l4.07,4.07M513.09,385.92l4.07,4.07M238.25,364.11l4.07,4.07M312.41,438.27l4.07,4.07M246.39,372.25l-4.07-4.07M320.55,446.41l-4.07-4.07M365.16,533.85l4.07,4.07M491.68,407.33l4.07,4.07M435.09,365.03l4.07,4.07M443.24,373.17l-4.07-4.07M423.38,339.03l68.75,68.75M518.61,339.1l24.72,24.72M216.83,385.52l4.07,4.07M290.99,459.69l4.07,4.07M224.97,393.67l-4.07-4.07M299.14,467.83l-4.07-4.07M388.95,510.06l4.07,4.07M515.47,383.54l4.07,4.07M471.01,339.08l45.39,45.39M240.63,361.73l4.07,4.07M314.79,435.89l4.07,4.07M248.77,369.87l-4.07-4.07M322.93,444.03l-4.07-4.07M367.54,531.47l4.07,4.07M494.05,404.95l4.07,4.07M437.47,362.65l4.07,4.07M445.62,370.79l-4.07-4.07M219.21,383.14l4.07,4.07M293.37,457.31l4.07,4.07M227.35,391.29l-4.07-4.07M301.51,465.45l-4.07-4.07M391.33,507.68l4.07,4.07M517.85,381.16l4.07,4.07M243.01,359.35l4.07,4.07M317.17,433.51l4.07,4.07M251.15,367.49l-4.07-4.07M325.31,441.65l-4.07-4.07M393.87,500.7l6.29,6.29M520.39,374.18l6.29,6.29M245.54,352.37l6.29,6.29M319.71,426.53l6.29,6.29M258.13,364.95l-6.29-6.29M332.29,439.12l-6.29-6.29M308.53,415.36l88.01,88.01M232.33,339.16l48.19,48.19M327.41,339.06l46.5,46.5M357.37,416.61l72.88,72.88M279.7,338.94l42.52,42.52M238.69,440.7l108.15,108.15M137.41,339.41l77.49,77.49M184.47,338.88l60.19,60.19M270.23,424.64l101.36,101.36"/>
    <line class="cls-1" x1="327.71" y1="559.98" x2="315.38" y2="325.94"/>
    <path class="cls-5" d="M425.79,440.53l8.96-12.73M227.72,443.62l-5.32-7.09M230.05,441.9l-5.2-7.18M232.42,440.22l-5.08-7.27M234.81,438.57l-8.7-12.91M237.23,436.97l-4.82-7.44M239.68,435.42l-4.7-7.52M242.15,433.9l-4.57-7.6M244.65,432.43l-4.43-7.68M247.17,431l-5.76-10.38M249.72,429.61l-4.17-7.82M252.3,428.27l-4.03-7.89M254.89,426.98l-3.89-7.96M257.51,425.72l-3.76-8.03M260.15,424.52l-6.35-14.21M262.8,423.36l-3.48-8.15M265.48,422.24l-3.34-8.21M268.18,421.17l-3.2-8.27M270.89,420.15l-3.05-8.32M273.63,419.17l-3.9-11.22M276.38,418.25l-2.76-8.42M279.14,417.37l-2.62-8.47M281.92,416.53l-2.47-8.51M284.71,415.75l-2.32-8.55M287.52,415.01l-3.82-15.09M290.34,414.32l-2.03-8.63M293.17,413.68l-1.88-8.66M296.01,413.09l-1.73-8.69M298.86,412.55l-1.58-8.72M301.71,412.06l-1.92-11.72M304.58,411.61l-1.28-8.77M307.46,411.22l-1.13-8.79M310.34,410.88l-.98-8.81M313.22,410.58l-.83-8.83M316.11,410.34l-1.18-15.53M319.01,410.14l-.52-8.85M321.9,410l-.37-8.86M324.8,409.9l-.21-8.86M327.7,409.86l-.06-8.86M330.61,409.86l.12-63.02M333.51,409.92l.24-8.86M336.41,410.02l.4-8.86M339.3,410.17l.55-8.85M342.2,410.38l.7-8.84M345.09,410.63l1.5-15.5M347.97,410.94l1.01-8.81M350.85,411.29l1.16-8.79M353.72,411.69l1.31-8.77M356.59,412.15l1.46-8.74M359.45,412.65l2.15-11.68M362.29,413.2l1.76-8.69M365.13,413.8l1.91-8.66M367.96,414.45l2.06-8.62M370.78,415.15l2.2-8.59M373.58,415.89l4.13-15.01M376.37,416.69l2.5-8.51M379.15,417.53l2.65-8.46M381.91,418.42l2.79-8.41M384.65,419.35l2.94-8.36M387.38,420.34l4.12-11.14M390.09,421.37l3.22-8.26M392.79,422.45l3.36-8.2M395.46,423.57l3.5-8.14M398.12,424.74l3.64-8.08M400.75,425.96l6.64-14.08M403.36,427.22l3.92-7.95M405.95,428.52l4.06-7.88M408.52,429.87l4.19-7.81M411.07,431.27l4.33-7.74M413.59,432.7l5.97-10.26M416.08,434.18l4.59-7.58M418.55,435.71l4.72-7.5M420.99,437.27l4.85-7.42M423.41,438.88l4.98-7.34M428.15,442.22l5.22-7.16M430.48,443.95l5.35-7.07M432.78,445.72l5.47-6.98M435.05,447.53l5.59-6.88M437.28,449.38l7.64-9.09M439.49,451.26l5.82-6.69M441.66,453.19l5.94-6.58M443.8,455.15l6.05-6.48M445.9,457.15l6.16-6.38M447.97,459.18l11.01-11.01"/>
    <polyline class="cls-10" points="570.14 337 128.72 337 114.74 323.03 584.12 323.03 570.24 336.91"/>
    <g class="cls-21">
      <path class="cls-9" d="M156.64,330.06c0,2.42-1.22,3.98-3.11,3.98s-3.11-1.56-3.11-3.98,1.22-3.98,3.11-3.98,3.11,1.56,3.11,3.98M153.53,327.07c-1.31,0-1.99,1.02-1.99,2.99,0,.68.08,1.25.24,1.7l2.91-4.3c-.31-.26-.69-.39-1.16-.39M155.27,328.35l-2.89,4.32c.3.25.69.38,1.15.38,1.31,0,1.99-1.02,1.99-2.99,0-.69-.09-1.26-.25-1.71M158.73,332.92h3.87v.99h-5.09v-.99l3.22-6.7h1.19l-3.19,6.7ZM165,332.92h1.38v.99h-2.5v-7.69h1.12v6.7Z"/>
      <path class="cls-9" d="M210.68,330.06c0,2.42-1.22,3.98-3.11,3.98s-3.11-1.56-3.11-3.98,1.22-3.98,3.11-3.98,3.11,1.56,3.11,3.98M207.58,327.07c-1.31,0-1.99,1.02-1.99,2.99,0,.68.08,1.25.24,1.7l2.91-4.3c-.31-.26-.69-.39-1.16-.39M209.31,328.35l-2.89,4.32c.3.25.69.38,1.15.38,1.31,0,1.99-1.02,1.99-2.99,0-.69-.09-1.26-.25-1.71M217.12,328.68c0,.68-.19,1.31-.75,2.34l-1.57,2.89h-1.16l1.65-2.94c-.19.12-.46.2-.87.2-1.47,0-2.57-1.04-2.57-2.56s1.08-2.52,2.66-2.52,2.61.98,2.61,2.59M214.48,327.07c-.92,0-1.51.59-1.51,1.52s.58,1.58,1.51,1.58,1.51-.61,1.51-1.58-.58-1.52-1.51-1.52M219.74,332.92h1.38v.99h-2.51v-7.69h1.12v6.7Z"/>
      <path class="cls-9" d="M260.05,330.06c0,2.42-1.22,3.98-3.11,3.98s-3.11-1.56-3.11-3.98,1.22-3.98,3.11-3.98,3.11,1.56,3.11,3.98M256.94,327.07c-1.31,0-1.99,1.02-1.99,2.99,0,.68.08,1.25.24,1.7l2.91-4.3c-.31-.26-.69-.39-1.16-.39M258.67,328.35l-2.89,4.32c.3.25.69.38,1.15.38,1.31,0,1.99-1.02,1.99-2.99,0-.69-.09-1.26-.25-1.71M266.85,327.94l-1.08.34c-.31-.72-.87-1.21-1.74-1.21-1.04,0-1.7.64-1.7,1.64s.64,1.66,1.63,1.66c.69,0,1.24-.41,1.5-.92l1.17.37-.68,4.09h-4.05v-.99h3.15l.36-2.11c-.25.29-.79.55-1.54.55-1.63,0-2.66-1.03-2.66-2.65s1.08-2.63,2.78-2.63c1.56,0,2.44.96,2.86,1.86M269.47,332.92h1.38v.99h-2.51v-7.69h1.12v6.7Z"/>
      <path class="cls-9" d="M303.5,330.06c0,2.42-1.22,3.98-3.11,3.98s-3.11-1.56-3.11-3.98,1.22-3.98,3.11-3.98,3.11,1.56,3.11,3.98M300.39,327.07c-1.31,0-1.99,1.02-1.99,2.99,0,.68.08,1.25.24,1.7l2.91-4.3c-.31-.26-.69-.39-1.16-.39M302.13,328.35l-2.89,4.32c.3.25.69.38,1.15.38,1.31,0,1.99-1.02,1.99-2.99,0-.69-.09-1.26-.25-1.71M306.95,328.08h4.17v.75l-3.9,5.07h-1.39v-4.83h-1.17v-.99h1.17v-1.87h1.12v1.87ZM306.95,329.07v3.59l2.78-3.59h-2.78ZM313.53,332.92h1.38v.99h-2.51v-7.69h1.12v6.7Z"/>
      <path class="cls-9" d="M349.87,330.06c0,2.42-1.22,3.98-3.11,3.98s-3.11-1.56-3.11-3.98,1.22-3.98,3.11-3.98,3.11,1.56,3.11,3.98M346.76,327.07c-1.31,0-1.99,1.02-1.99,2.99,0,.68.08,1.25.24,1.7l2.91-4.3c-.31-.26-.69-.39-1.16-.39M348.5,328.35l-2.89,4.32c.3.25.69.38,1.15.38,1.31,0,1.99-1.02,1.99-2.99,0-.69-.09-1.26-.25-1.71M356.88,328.2l-1.09.35c-.25-.85-.83-1.48-1.8-1.48s-1.76.64-1.76,1.64c0,1.05.98,1.57,2.11,1.57v.73l-1.49,1.91h3.44v.99h-4.87v-.87l1.55-1.94c-.95-.26-1.86-.96-1.86-2.38,0-1.29,1.03-2.63,2.86-2.63,1.43,0,2.58.89,2.91,2.12M359.27,332.92h1.39v.99h-2.51v-7.69h1.12v6.7Z"/>
      <path class="cls-9" d="M397.34,330.06c0,2.42-1.22,3.98-3.11,3.98s-3.11-1.56-3.11-3.98,1.22-3.98,3.11-3.98,3.11,1.56,3.11,3.98M394.23,327.07c-1.31,0-1.99,1.02-1.99,2.99,0,.68.08,1.25.24,1.7l2.91-4.3c-.31-.26-.69-.39-1.16-.39M395.97,328.35l-2.89,4.32c.3.25.69.38,1.15.38,1.31,0,1.99-1.02,1.99-2.99,0-.69-.09-1.26-.25-1.71M399.69,331.83c0,.71.47,1.22,1.4,1.22,1.16,0,1.53-.79,1.67-1.61l1.08.34c-.07.7-.72,2.26-2.69,2.26-1.48,0-2.57-.88-2.57-2.16s1.03-2.57,3.31-4.67h-3.39v-.99h5.15v.73c-2.94,2.64-3.94,3.84-3.94,4.89M406.36,332.92h1.38v.99h-2.51v-7.69h1.12v6.7Z"/>
      <path class="cls-9" d="M446.9,330.06c0,2.42-1.22,3.98-3.11,3.98s-3.11-1.56-3.11-3.98,1.22-3.98,3.11-3.98,3.11,1.56,3.11,3.98M443.79,327.07c-1.31,0-1.99,1.02-1.99,2.99,0,.68.08,1.25.24,1.7l2.91-4.3c-.31-.26-.69-.39-1.16-.39M445.53,328.35l-2.89,4.32c.3.25.69.38,1.15.38,1.31,0,1.99-1.02,1.99-2.99,0-.69-.09-1.26-.25-1.71M449.65,332.92h1.38v.99h-2.5v-7.69h1.12v6.7ZM453.44,332.92h1.39v.99h-2.51v-7.69h1.12v6.7Z"/>
      <path class="cls-9" d="M500.32,330.06c0,2.42-1.22,3.98-3.11,3.98s-3.11-1.56-3.11-3.98,1.22-3.98,3.11-3.98,3.11,1.56,3.11,3.98M497.21,327.07c-1.31,0-1.99,1.02-1.99,2.99,0,.68.08,1.25.24,1.7l2.91-4.3c-.31-.26-.69-.39-1.16-.39M498.95,328.35l-2.89,4.32c.3.25.69.38,1.15.38,1.31,0,1.99-1.02,1.99-2.99,0-.69-.09-1.26-.25-1.71M507.77,330.06c0,2.42-1.22,3.98-3.11,3.98s-3.11-1.56-3.11-3.98,1.22-3.98,3.11-3.98,3.11,1.56,3.11,3.98M504.66,327.07c-1.31,0-1.99,1.02-1.99,2.99,0,.68.08,1.25.24,1.7l2.91-4.3c-.31-.26-.69-.39-1.17-.39M506.4,328.35l-2.89,4.32c.3.25.69.38,1.15.38,1.31,0,1.99-1.02,1.99-2.99,0-.69-.09-1.26-.25-1.71M510.53,332.92h1.39v.99h-2.51v-7.69h1.12v6.7Z"/>
      <path class="cls-10" d="M156.63,344.92c0,2.42-1.22,3.98-3.11,3.98s-3.11-1.56-3.11-3.98,1.22-3.98,3.11-3.98,3.11,1.56,3.11,3.98M153.52,341.93c-1.31,0-1.99,1.02-1.99,2.99,0,.68.08,1.25.24,1.7l2.91-4.3c-.31-.26-.69-.39-1.16-.39M155.26,343.21l-2.89,4.32c.3.25.69.38,1.15.38,1.31,0,1.99-1.02,1.99-2.99,0-.69-.09-1.26-.25-1.71M159.39,347.78h1.38v.99h-2.5v-7.69h1.12v6.7Z"/>
      <path class="cls-10" d="M210.68,344.92c0,2.42-1.22,3.98-3.11,3.98s-3.11-1.56-3.11-3.98,1.22-3.98,3.11-3.98,3.11,1.56,3.11,3.98M207.57,341.93c-1.31,0-1.99,1.02-1.99,2.99,0,.68.08,1.25.24,1.7l2.91-4.3c-.31-.26-.69-.4-1.17-.4M209.31,343.21l-2.89,4.32c.3.25.69.38,1.15.38,1.31,0,1.99-1.02,1.99-2.99,0-.69-.09-1.26-.25-1.71M213.03,346.69c0,.71.47,1.22,1.4,1.22,1.16,0,1.53-.79,1.67-1.61l1.08.34c-.07.7-.72,2.26-2.69,2.26-1.48,0-2.57-.88-2.57-2.16s1.03-2.57,3.31-4.67h-3.4v-.99h5.15v.73c-2.94,2.64-3.94,3.84-3.94,4.89"/>
      <path class="cls-10" d="M260.04,344.92c0,2.42-1.22,3.98-3.11,3.98s-3.11-1.56-3.11-3.98,1.22-3.98,3.11-3.98,3.11,1.56,3.11,3.98M256.93,341.93c-1.31,0-1.99,1.02-1.99,2.99,0,.68.08,1.25.24,1.7l2.91-4.3c-.31-.26-.69-.39-1.16-.39M258.67,343.21l-2.89,4.32c.3.25.69.38,1.15.38,1.31,0,1.99-1.02,1.99-2.99,0-.69-.09-1.26-.25-1.71M267.05,343.07l-1.09.35c-.25-.85-.83-1.48-1.8-1.48s-1.76.64-1.76,1.64c0,1.05.98,1.57,2.11,1.57v.72l-1.49,1.91h3.44v.99h-4.87v-.87l1.55-1.94c-.96-.26-1.86-.96-1.86-2.38,0-1.29,1.03-2.63,2.86-2.63,1.43,0,2.58.89,2.91,2.12"/>
      <path class="cls-10" d="M303.5,344.92c0,2.42-1.22,3.98-3.11,3.98s-3.11-1.56-3.11-3.98,1.22-3.98,3.11-3.98,3.11,1.56,3.11,3.98M300.39,341.93c-1.31,0-1.99,1.02-1.99,2.99,0,.68.08,1.25.24,1.7l2.91-4.3c-.31-.26-.69-.4-1.17-.4M302.13,343.21l-2.89,4.32c.3.25.69.38,1.15.38,1.31,0,1.99-1.02,1.99-2.99,0-.69-.09-1.26-.25-1.71M306.95,342.94h4.17v.75l-3.9,5.08h-1.39v-4.83h-1.17v-.99h1.17v-1.87h1.12v1.87ZM306.95,343.93v3.59l2.78-3.59h-2.78Z"/>
      <path class="cls-10" d="M349.88,344.92c0,2.42-1.22,3.98-3.11,3.98s-3.11-1.56-3.11-3.98,1.22-3.98,3.11-3.98,3.11,1.56,3.11,3.98M346.77,341.93c-1.31,0-1.99,1.02-1.99,2.99,0,.68.08,1.25.24,1.7l2.91-4.3c-.31-.26-.69-.39-1.16-.39M348.51,343.21l-2.89,4.32c.3.25.69.38,1.15.38,1.31,0,1.99-1.02,1.99-2.99,0-.69-.09-1.26-.25-1.71M356.68,342.8l-1.08.34c-.31-.73-.87-1.21-1.74-1.21-1.04,0-1.7.64-1.7,1.64s.64,1.66,1.63,1.66c.69,0,1.24-.41,1.51-.92l1.16.37-.68,4.09h-4.05v-.99h3.15l.36-2.11c-.25.29-.79.55-1.54.55-1.63,0-2.66-1.03-2.66-2.65s1.08-2.63,2.78-2.63c1.56,0,2.44.96,2.86,1.86"/>
      <path class="cls-10" d="M397.35,344.92c0,2.42-1.22,3.98-3.11,3.98s-3.11-1.56-3.11-3.98,1.22-3.98,3.11-3.98,3.11,1.56,3.11,3.98M394.24,341.93c-1.31,0-1.99,1.02-1.99,2.99,0,.68.08,1.25.24,1.7l2.91-4.3c-.31-.26-.69-.4-1.16-.4M395.97,343.21l-2.89,4.32c.3.25.69.38,1.15.38,1.31,0,1.99-1.02,1.99-2.99,0-.69-.09-1.26-.25-1.71M403.78,343.54c0,.68-.19,1.31-.75,2.34l-1.57,2.89h-1.16l1.65-2.94c-.19.12-.46.2-.87.2-1.47,0-2.57-1.04-2.57-2.56s1.08-2.52,2.66-2.52,2.61.98,2.61,2.59M401.14,341.93c-.92,0-1.51.59-1.51,1.52s.58,1.58,1.51,1.58,1.51-.62,1.51-1.58-.58-1.52-1.51-1.52"/>
      <path class="cls-10" d="M446.9,344.92c0,2.42-1.22,3.98-3.11,3.98s-3.11-1.56-3.11-3.98,1.22-3.98,3.11-3.98,3.11,1.56,3.11,3.98M443.79,341.93c-1.31,0-1.99,1.02-1.99,2.99,0,.68.08,1.25.24,1.7l2.91-4.3c-.31-.26-.69-.39-1.16-.39M445.52,343.21l-2.89,4.32c.3.25.69.38,1.15.38,1.31,0,1.99-1.02,1.99-2.99,0-.69-.09-1.26-.25-1.71M448.98,347.78h3.87v.99h-5.09v-.99l3.22-6.7h1.19l-3.19,6.7Z"/>
      <path class="cls-10" d="M500.32,344.92c0,2.42-1.22,3.98-3.11,3.98s-3.11-1.56-3.11-3.98,1.22-3.98,3.11-3.98,3.11,1.56,3.11,3.98M497.21,341.93c-1.31,0-1.99,1.02-1.99,2.99,0,.68.08,1.25.24,1.7l2.91-4.3c-.31-.26-.69-.39-1.16-.39M498.95,343.21l-2.89,4.32c.3.25.69.38,1.15.38,1.31,0,1.99-1.02,1.99-2.99,0-.69-.09-1.26-.25-1.71M506.63,343.3c0,.77-.51,1.52-1.2,1.79.61.29,1,.95,1,1.69,0,1.3-.9,2.12-2.31,2.12s-2.31-.82-2.31-2.12c0-.75.38-1.41,1-1.69-.69-.27-1.2-1.02-1.2-1.79,0-1.4,1.02-2.35,2.51-2.35s2.51.96,2.51,2.35M504.12,341.93c-.8,0-1.38.57-1.38,1.36,0,.75.58,1.3,1.38,1.3s1.38-.55,1.38-1.3c0-.79-.58-1.36-1.38-1.36M504.12,345.58c-.73,0-1.19.46-1.19,1.2,0,.69.46,1.13,1.19,1.13s1.19-.44,1.19-1.13c0-.74-.46-1.2-1.19-1.2"/>
    </g>
    <path class="cls-6" d="M590.83,308.51l-9.63,9.82M581.84,308.51l-9.51,9.95M572.86,308.51l-9.41,9.95M563.87,308.51l-8.87,9.84M554.88,308.51l-12.64,14.79M545.9,308.51l-8.15,10M536.91,308.51l-8.05,9.96M527.92,308.51l-7.25,9.63M518.94,308.51l-11.07,15.43M509.95,308.51l-6.85,9.74M500.96,308.51l-6.45,9.81M491.98,308.51l-6.09,9.85M482.99,308.51l-5.73,9.89M474.01,308.51l-4.93,9.85M465.02,308.51l-4.93,9.82M456.03,308.51l-6.92,15.29M447.05,308.51l-3.73,9.82M438.06,308.51l-4.29,9.82M429.07,308.51l-3.48,9.67M420.09,308.51l-3.33,9.92M411.1,308.51l-2.58,10M402.11,308.51l-4.13,15.33M393.13,308.51l-2.06,9.8M384.14,308.51l-1.58,9.92M375.16,308.51l-1.47,9.81M366.17,308.51l-1.1,9.85M357.18,308.51l-1.07,9.85M348.2,308.51l-.26,9.83M339.21,308.51l-.24,9.81M330.22,308.51l.1,15.66M321.24,308.51l.18,9.91M312.25,308.51l.2,9.92M303.26,308.51l1.16,16.37M294.28,308.51l.77,9.85M285.29,308.51l1.4,9.84M276.3,308.51l1.97,9.82M267.32,308.51l2,9.97M258.33,308.51l4.22,15.96M249.35,308.51l2.64,9.8M240.36,308.51l2.94,9.78M231.37,308.51l3.34,9.85M222.39,308.51l3.33,9.89M213.4,308.51l3.69,9.85M204.41,308.51l6.96,15.84M195.43,308.51l4.57,9.85M186.44,308.51l5.04,9.85M177.45,308.51l5.55,9.89M168.47,308.51l5.98,9.85M159.48,308.51l6.23,9.78M150.5,308.51l6.57,9.84M141.51,308.51l11.26,15.55M132.52,308.51l7.38,9.95M123.54,308.51l7.47,9.86M114.55,308.51l8.34,9.82M105.56,308.51l8.18,9.92M96.58,308.51l8.99,9.84M87.59,308.51l5.91,6.65M78.6,308.51l6.46,7.2"/>
    <line class="cls-7" x1="142.78" y1="341" x2="301.93" y2="544.45"/>
    <g class="cls-20">
      <path class="cls-9" d="M575,332.02c-1.71,1.71-3.67,1.95-5.01.61-1.33-1.34-1.09-3.3.61-5.01,1.71-1.71,3.67-1.95,5.01-.61,1.34,1.34,1.1,3.3-.61,5.01M575.25,329.84l-5.1,1.01c.03.39.22.76.54,1.09.92.92,2.13.68,3.52-.71.49-.49.83-.96,1.03-1.39M574.92,327.71c-.93-.92-2.13-.68-3.52.71-.48.48-.83.94-1.03,1.38l5.09-.98c-.03-.4-.21-.77-.54-1.1M574.85,333.83c.48-.48,1.06-.79,2.18-1.13l3.15-.93.82.82-3.25.92c.22.05.47.19.75.47,1.04,1.04,1.08,2.55,0,3.63-1.06,1.06-2.54,1.02-3.66-.1-1.09-1.1-1.16-2.54-.02-3.68M577.77,334.64c-.65-.65-1.5-.63-2.18.05-.65.65-.66,1.48,0,2.14.65.65,1.48.64,2.14,0,.68-.68.71-1.53.05-2.18"/>
      <path class="cls-10" d="M438.69,421.76c-.92,1.32-2.18,1.71-3.22.98-1.03-.72-1.1-2.04-.18-3.36.92-1.32,2.19-1.7,3.22-.98,1.03.72,1.1,2.04.18,3.36M438.59,420.3l-3.23,1.25c.06.25.23.47.48.65.71.5,1.47.2,2.23-.87.27-.38.43-.72.52-1.03M438.13,418.94c-.71-.5-1.48-.2-2.23.87-.26.37-.44.71-.52,1.02l3.23-1.23c-.07-.26-.23-.48-.49-.66M442.85,423.35c-.29.42-.85.63-1.34.52.23.39.18.9-.1,1.31-.49.71-1.3.81-2.07.28-.77-.54-.94-1.33-.45-2.04.28-.41.75-.62,1.19-.54-.27-.41-.26-1.01.03-1.43.53-.76,1.46-.89,2.27-.33.81.57,1,1.48.47,2.24M440.61,423.64c-.4-.28-.82-.2-1.1.2-.27.38-.18.79.21,1.07s.82.21,1.08-.16c.28-.4.21-.83-.19-1.11M442,421.65c-.44-.31-.97-.22-1.28.21-.29.41-.18.93.26,1.24.44.31.97.23,1.25-.18.3-.43.2-.97-.23-1.27"/>
      <path class="cls-10" d="M410.41,405.51c-.68,1.46-1.86,2.06-3.01,1.52-1.14-.54-1.44-1.82-.75-3.28.68-1.46,1.86-2.06,3.01-1.52,1.14.54,1.44,1.82.75,3.28M409.38,402.82c-.79-.37-1.49.05-2.05,1.24-.19.41-.31.78-.34,1.1l2.98-1.77c-.11-.25-.31-.43-.59-.57M410.07,404.09l-2.97,1.79c.11.24.31.43.59.56.79.37,1.49-.05,2.05-1.24.2-.42.3-.79.33-1.11M410.98,407.88l2.34,1.1-.28.6-3.07-1.44.28-.6,3.84-3.14.72.34-3.82,3.15Z"/>
      <path class="cls-10" d="M379.44,394.3c-.41,1.56-1.46,2.36-2.68,2.03-1.22-.32-1.74-1.54-1.32-3.09.41-1.56,1.47-2.36,2.68-2.03,1.22.32,1.74,1.54,1.32,3.09M377.95,391.84c-.84-.22-1.46.32-1.79,1.59-.12.44-.16.82-.14,1.14l2.61-2.27c-.15-.22-.38-.37-.68-.45M378.85,392.96l-2.6,2.29c.15.21.38.37.68.45.84.22,1.46-.32,1.79-1.59.12-.45.16-.83.13-1.15M383.94,394.54c-.12.44-.34.81-.88,1.38l-1.51,1.59-.75-.2,1.57-1.62c-.14.05-.33.05-.59-.02-.95-.25-1.48-1.11-1.22-2.09.26-.96,1.12-1.44,2.14-1.17,1,.27,1.52,1.08,1.24,2.12M382.52,393.05c-.6-.16-1.07.12-1.23.72-.17.62.11,1.12.7,1.28.6.16,1.08-.14,1.24-.76.16-.6-.12-1.08-.71-1.23"/>
      <path class="cls-10" d="M346.76,388.65c-.13,1.61-1.03,2.57-2.29,2.47-1.25-.11-1.98-1.21-1.84-2.81.13-1.6,1.03-2.57,2.29-2.47,1.25.11,1.98,1.21,1.84,2.81M344.86,386.5c-.87-.07-1.38.57-1.49,1.87-.04.45-.02.83.07,1.14l2.17-2.69c-.19-.19-.44-.3-.75-.33M345.94,387.44l-2.16,2.71c.18.18.44.29.74.32.87.07,1.38-.57,1.49-1.87.04-.46.01-.84-.07-1.15M351.51,387.64l-.73.17c-.16-.5-.51-.85-1.09-.9-.69-.06-1.17.33-1.22.99-.06.67.33,1.14.99,1.19.46.04.85-.2,1.05-.53l.75.31-.68,2.68-2.69-.23.05-.66,2.09.18.36-1.38c-.18.17-.56.32-1.05.28-1.08-.09-1.71-.83-1.62-1.91.09-1.06.86-1.68,1.99-1.59,1.04.09,1.57.77,1.79,1.39"/>
      <path class="cls-10" d="M313.72,388.83c.14,1.6-.57,2.71-1.83,2.83-1.25.11-2.16-.85-2.3-2.46-.14-1.6.57-2.71,1.83-2.83,1.26-.11,2.16.85,2.3,2.46M311.48,387.04c-.87.08-1.26.8-1.14,2.1.04.45.13.83.26,1.12l1.68-3.03c-.22-.16-.48-.22-.8-.19M312.71,387.78l-1.66,3.04c.21.15.48.21.79.19.87-.08,1.26-.8,1.14-2.1-.04-.46-.13-.83-.27-1.12M316.02,387.3l2.77-.25.04.5-2.29,3.6-.93.08-.29-3.21-.77.07-.06-.66.77-.07-.11-1.24.74-.07.11,1.24ZM316.08,387.96l.21,2.39,1.63-2.55-1.85.17Z"/>
      <path class="cls-10" d="M281.99,394.53c.42,1.55-.09,2.77-1.31,3.1-1.22.33-2.27-.46-2.69-2.02-.42-1.55.09-2.77,1.31-3.1s2.27.46,2.69,2.02M279.47,393.15c-.84.23-1.1,1-.76,2.27.12.44.27.79.45,1.05l1.13-3.27c-.24-.12-.51-.13-.82-.05M280.81,393.67l-1.11,3.28c.23.11.51.13.81.05.84-.23,1.1-1,.76-2.27-.12-.44-.27-.8-.46-1.06M286.29,392.09l-.64.42c-.31-.5-.79-.81-1.42-.64-.63.17-1.02.72-.85,1.36.18.68.9.84,1.63.64l.13.47-.63,1.49,2.21-.6.17.64-3.13.85-.15-.56.66-1.52c-.66,0-1.36-.29-1.61-1.21-.22-.83.21-1.87,1.38-2.18.92-.25,1.81.12,2.24.86"/>
      <path class="cls-10" d="M251.35,405.72c.68,1.46.39,2.74-.75,3.28-1.14.54-2.32-.06-3-1.52s-.39-2.74.75-3.28c1.14-.54,2.32.06,3,1.52M248.63,404.8c-.79.37-.91,1.18-.35,2.36.19.41.4.73.63.96l.54-3.41c-.26-.07-.53-.04-.81.09M250.04,405.08l-.52,3.42c.25.07.53.04.81-.1.79-.37.91-1.18.35-2.36-.2-.42-.41-.74-.64-.96M253.38,406.07c.2.43.63.6,1.19.34.7-.33.7-.91.55-1.45l.75-.1c.16.44.2,1.57-.98,2.13-.89.42-1.8.2-2.16-.58-.36-.76-.11-1.84.67-3.75l-2.05.96-.28-.6,3.11-1.46.21.44c-1.03,2.42-1.29,3.43-.99,4.06"/>
      <path class="cls-10" d="M223.91,421.5c.92,1.32.85,2.64-.18,3.36-1.03.72-2.29.34-3.22-.98-.92-1.32-.85-2.64.18-3.36,1.03-.72,2.29-.34,3.22.98M221.07,421.06c-.71.5-.7,1.32.06,2.39.26.37.52.65.78.84l-.05-3.46c-.27-.03-.53.05-.79.23M222.51,421.09l.07,3.46c.26.02.52-.05.78-.23.71-.5.69-1.32-.06-2.39-.26-.38-.53-.66-.79-.84M226.6,421.94l.76-.53.38.54-1.37.96-2.94-4.2.61-.43,2.56,3.66Z"/>
    </g>
    <polygon class="cls-3" points="600.5 844.94 600.5 306.66 62.2 306.66 600.5 844.94"/>
  </g>
</svg>