<?xml version="1.0" encoding="UTF-8"?>
<svg id="Calque_1" data-name="Calque 1" xmlns="http://www.w3.org/2000/svg" xmlns:xlink="http://www.w3.org/1999/xlink" viewBox="0 0 616 423">
  <defs>
    <style>
      .cls-1 {
        clip-path: url(#clippath);
      }

      .cls-2, .cls-3 {
        fill: none;
      }

      .cls-2, .cls-4 {
        stroke-width: 0px;
      }

      .cls-5 {
        clip-path: url(#clippath-1);
      }

      .cls-6 {
        clip-path: url(#clippath-2);
      }

      .cls-3 {
        stroke: #fff;
        stroke-width: .5px;
      }

      .cls-4 {
        fill: #fff;
      }
    </style>
    <clipPath id="clippath">
      <rect class="cls-2" width="616" height="423"/>
    </clipPath>
    <clipPath id="clippath-1">
      <rect class="cls-2" width="616" height="423"/>
    </clipPath>
    <clipPath id="clippath-2">
      <rect class="cls-2" width="616" height="423"/>
    </clipPath>
  </defs>
  <g class="cls-1">
    <g class="cls-5">
      <path class="cls-4" d="M420.01,296.29v-1.06c0-24.29,21.12-35.88,48.57-38.54l69.7-6.74v17.83c0,45.41-34.32,63.89-69.17,63.89-30.1,0-49.1-13.72-49.1-35.37h0ZM462.77,372.34c30.1,0,64.42-11.09,76.56-40.13v33.79h48.58v-165.79c0-68.64-52.27-91.87-101.38-91.87-51.74,0-100.85,25.87-106.13,82.9h51.74c.53-25.87,21.12-42.24,53.33-42.24,35.9,0,51.22,20.59,51.22,45.93v17.74l-76.03,7.6c-55.47,5.55-89.76,28.51-89.76,74.97v1.06c0,46.47,43.3,76.03,91.87,76.03h0Z"/>
      <path class="cls-4" d="M78.13,297.14v-1.48c0-22.51,16.66-33.03,66.43-38.31l74.73-8.21c18.46-2.04,29.51-5.71,35.08-11.91v26.6c0,44.87-41.17,72-105.51,72-49.5,0-70.73-16-70.73-38.67h0ZM136.73,372.34c64.46,0,101.47-20.81,117.45-49.65v43.31h52.46v-166.97c0-68.62-57.03-90.69-135.2-90.69-51.29,0-99.63,11.7-133.64,26.04v45.07c33.94-18.46,77.03-33.41,132.67-33.41s82.63,13.09,82.63,45.74v1.3c0,12.74-7.85,18.33-26.21,20.47l-89.18,9.17c-77.46,7.76-114.4,32.08-114.4,75.62v1.61c0,47.04,42.01,72.38,113.41,72.38h0Z"/>
      <path class="cls-4" d="M286.83,78h19.98v-8.22h-9.4v-18.27h7.92v-8.22h-7.92v-18.27h9.31v-8.22h-19.89v61.2ZM271.09,78.88c9.17,0,13-5.24,13-16.18v-1c0-23.68-15.55-12.41-15.55-29.57v-.51c0-5.25.63-7.49,2.45-7.49s2.37,2.42,2.37,12.01h10.57c0-14.8-2.79-20.23-12.8-20.23s-13.17,5.57-13.17,15.95v.56c0,22.76,15.4,13.46,15.4,29.76v1c0,5.23-.65,7.46-2.61,7.46-2.1,0-2.22-2.51-2.22-12.01h-9.93c0,13.28,2.53,20.23,12.48,20.23h0ZM241.02,45.18v-20.16h.72c2.95,0,3.49,2.57,3.49,9.79v.56c0,6.11-.55,9.82-3.49,9.82h-.72ZM230.45,78h10.57v-24.48l4.2,24.48h10.77l-5.02-26.24c3.49-2.55,4.84-8.05,4.84-16.35v-.56c0-11.98-2.39-18.05-10.06-18.05h-15.31v61.2ZM208.67,78h19.98v-8.22h-9.4v-18.27h7.92v-8.22h-7.92v-18.27h9.32v-8.22h-19.89v61.2ZM185.13,78h16.82l5.68-61.2h-10.15l-3.91,56.1-3.91-56.1h-10.15l5.64,61.2ZM159.35,78h19.98v-8.22h-9.4v-18.27h7.92v-8.22h-7.92v-18.27h9.32v-8.22h-19.89v61.2ZM142.07,45.18v-20.16h.72c2.95,0,3.5,2.57,3.5,9.79v.56c0,6.11-.55,9.82-3.5,9.82h-.72ZM131.49,78h10.58v-24.48l4.2,24.48h10.77l-5.02-26.24c3.49-2.55,4.84-8.05,4.84-16.35v-.56c0-11.98-2.39-18.05-10.06-18.05h-15.31v61.2ZM107.32,48.09v-1.38c0-18.35,0-22.57,2.41-22.57s2.41,4.22,2.41,22.57v1.38c0,18.35,0,22.57-2.41,22.57s-2.41-4.22-2.41-22.57M109.74,78.88c10.88,0,12.69-11.63,12.69-30.79v-1.38c0-19.16-1.81-30.79-12.69-30.79s-12.69,11.63-12.69,30.79v1.38c0,19.16,1.81,30.79,12.69,30.79M78.24,78h10.08V25.51h7.88v-8.71h-25.84v8.71h7.88v52.49ZM56.25,78.88c9.41,0,12.53-5.48,12.53-15.91V16.8h-10.08v46c0,4.77,0,7.12-2.45,7.12s-2.37-2.19-2.37-7.11V16.8h-10.58v46.17c0,10.57,3.12,15.91,12.95,15.91ZM26.42,51.32l2.02-30.39,1.94,30.39h-3.96ZM14.57,78h10.08l1.22-18.46h5.03l1.18,18.46h10.23l-5.26-61.2h-17.22l-5.26,61.2Z"/>
    </g>
    <path class="cls-4" d="M583.3,78h10.08V25.51h7.88v-8.71h-25.84v8.71h7.88v52.49ZM560.6,78h16.99v-8.22h-6.91V16.8h-10.08v61.2ZM543.23,51.32l2.02-30.39,1.94,30.39h-3.96ZM531.38,78h10.08l1.22-18.46h5.03l1.18,18.46h10.23l-5.26-61.2h-17.22l-5.26,61.2Z"/>
    <line class="cls-3" x1="13.97" y1="94" x2="602" y2="94"/>
    <g class="cls-6">
      <path class="cls-4" d="M88.05,406.17c1.97,0,3.19-1.16,3.19-2.83v-.03c0-1.46-1.06-2.14-2.26-2.32,1.15-.17,2.12-.8,2.12-2.13v-.07c0-1.48-1.13-2.48-3.01-2.48-1.73,0-3.19.84-3.34,2.86h1.4c.04-1.18.91-1.68,1.89-1.68,1.05,0,1.67.59,1.67,1.39v.06c0,.96-.85,1.47-2.13,1.47v1.17c1.36,0,2.27.43,2.27,1.67v.03c0,1.27-.86,1.72-1.87,1.72-.9,0-1.78-.36-1.83-1.72h-1.4c.13,1.82,1.43,2.9,3.3,2.9ZM78.85,404.39l2.69-5.69c.21.58.33,1.4.33,2.48v.11c0,2.68-.73,3.7-1.82,3.7-.47,0-.89-.18-1.2-.6M78.17,401.3v-.11c0-2.67.77-3.7,1.89-3.7.31,0,.6.08.84.27l-2.56,5.42c-.11-.5-.17-1.12-.17-1.88ZM77.57,404.81h.02c.55.86,1.37,1.36,2.48,1.36,2.16,0,3.22-1.97,3.22-4.87v-.11c0-2.9-1.06-4.87-3.22-4.87s-3.29,1.97-3.29,4.87v.11c0,1.44.27,2.65.81,3.5v.02ZM66.67,406h1.37v-3.53c0-1.44.78-2.04,1.65-2.04.73,0,1.36.25,1.36,1.48v4.09h1.37v-4.23c0-1.93-1.27-2.6-2.39-2.6-.84,0-1.64.38-1.99,1.23v-1.06h-1.37v6.66ZM60.16,404.15v-.03c0-.64.56-.95,1.29-1.02l1.85-.18v.47c0,1.2-.91,1.69-1.83,1.69-.8,0-1.3-.36-1.3-.94h0ZM61.3,406.17c.8,0,1.71-.29,2.03-1.06v.9h1.29v-4.4c0-1.82-1.39-2.43-2.69-2.43-1.37,0-2.67.68-2.81,2.2h1.37c.01-.69.56-1.12,1.41-1.12.95,0,1.36.55,1.36,1.22v.47l-2.02.2c-1.47.15-2.38.76-2.38,1.99v.03c0,1.23,1.15,2.02,2.43,2.02ZM55.78,406h1.37v-9.51h-1.37v9.51ZM48.89,402.7v-.06c0-1.79,1.01-2.35,1.92-2.35,1.08,0,1.9.73,1.9,2.35v.06c0,1.62-.79,2.35-1.9,2.35-.92,0-1.92-.56-1.92-2.35ZM47.59,408.85h1.37v-3.48c.35.46,1.19.8,2.1.8,1.75,0,3.02-1.34,3.02-3.47v-.06c0-2.13-1.43-3.47-3.08-3.47-1.02,0-1.76.52-2.04,1.03v-.86h-1.37v9.51ZM40.18,406h1.37v-3.06l3.16,3.06h1.71l-3.44-3.33,3.18-3.32h-1.71l-2.9,3.04v-5.9h-1.37v9.51ZM35.35,406h1.31v-3.26c0-1.15.51-2.04,1.41-2.04l.87.13v-1.48h-.8c-.53,0-1.24.28-1.48,1.13v-1.13h-1.31v6.66ZM28.28,402.7v-.06c0-1.57.84-2.35,1.99-2.35s1.99.78,1.99,2.35v.06c0,1.57-.84,2.35-1.99,2.35s-1.99-.78-1.99-2.35M30.27,406.17c1.82,0,3.39-1.2,3.39-3.47v-.06c0-2.27-1.57-3.47-3.39-3.47s-3.39,1.2-3.39,3.47v.06c0,2.27,1.57,3.47,3.39,3.47M16.32,406h2.25l1.72-7.25,1.72,7.25h2.25l2.04-9.51h-1.51l-1.71,8.28-1.93-8.28h-1.74l-1.93,8.28-1.71-8.28h-1.51l2.04,9.51Z"/>
      <path class="cls-4" d="M79.63,394h1.31v-3.26c0-1.15.51-2.04,1.41-2.04l.87.13v-1.48h-.8c-.53,0-1.24.28-1.48,1.13v-1.13h-1.31v6.66ZM72.86,389.97c.2-1.14.89-1.71,1.87-1.71,1.17,0,1.84.8,1.84,1.71h-3.71ZM74.77,394.17c1.37,0,2.87-.72,3.13-2.21h-1.37c-.17.85-.88,1.14-1.69,1.14-1.26,0-1.95-.69-2.03-2.05h5.12c.12-2.46-1.19-3.88-3.17-3.88-2.09,0-3.3,1.58-3.3,3.5v.08c0,2.1,1.46,3.42,3.31,3.42ZM64.08,394h1.37v-3.53c0-1.44.79-2.04,1.65-2.04.73,0,1.36.25,1.36,1.48v4.09h1.37v-4.23c0-1.93-1.27-2.6-2.39-2.6-.84,0-1.64.38-1.99,1.23v-1.06h-1.37v6.66ZM56.27,394h1.37v-3.53c0-1.44.78-2.04,1.65-2.04.73,0,1.36.25,1.36,1.48v4.09h1.37v-4.23c0-1.93-1.27-2.6-2.39-2.6-.84,0-1.64.38-1.99,1.23v-1.06h-1.37v6.66ZM49.76,392.15v-.03c0-.64.56-.95,1.29-1.02l1.85-.18v.47c0,1.2-.91,1.69-1.83,1.69-.8,0-1.3-.36-1.3-.94h0ZM50.9,394.17c.8,0,1.71-.29,2.03-1.06v.9h1.29v-4.4c0-1.82-1.39-2.44-2.69-2.44-1.37,0-2.67.69-2.81,2.2h1.37c.01-.69.56-1.12,1.41-1.12.95,0,1.36.55,1.36,1.22v.47l-2.02.2c-1.47.15-2.38.76-2.38,1.99v.03c0,1.23,1.15,2.02,2.44,2.02ZM45.37,394h1.37v-9.51h-1.37v9.51ZM38.54,389.28v-3.62h2.44c1.04,0,1.6.5,1.6,1.71v.11c0,1.31-.78,1.8-1.6,1.8h-2.44ZM37.14,394h1.4v-3.54h2.52c1.71,0,2.91-1.22,2.91-2.99v-.11c0-1.69-1.11-2.87-2.91-2.87h-3.92v9.51ZM27.16,394h1.4v-4.44h4.02v-1.17h-4.02v-2.72h4.56v-1.17h-5.96v9.51ZM15.18,394h1.4v-8.23l2.44,8.23h1.96l2.44-8.23v8.23h1.4v-9.51h-2.36l-2.45,8.11-2.45-8.11h-2.37v9.51Z"/>
      <path class="cls-4" d="M452.49,406.17c1.97,0,3.19-1.16,3.19-2.83v-.03c0-1.46-1.07-2.14-2.26-2.32,1.15-.17,2.12-.8,2.12-2.13v-.07c0-1.48-1.13-2.48-3.01-2.48-1.73,0-3.19.84-3.34,2.86h1.4c.04-1.17.91-1.68,1.89-1.68,1.05,0,1.67.59,1.67,1.39v.06c0,.96-.85,1.47-2.13,1.47v1.17c1.36,0,2.27.43,2.27,1.67v.03c0,1.27-.86,1.72-1.87,1.72-.9,0-1.78-.36-1.83-1.72h-1.4c.13,1.82,1.43,2.9,3.3,2.9h0ZM443.06,404.55l2.64-5.58c.16.56.25,1.29.25,2.22v.11c0,2.67-.73,3.7-1.82,3.7-.41,0-.77-.14-1.07-.44ZM442.24,401.3v-.11c0-2.67.77-3.7,1.89-3.7.38,0,.72.12.99.4l-2.64,5.58c-.16-.55-.25-1.26-.25-2.16ZM444.13,406.17c2.16,0,3.22-1.97,3.22-4.87v-.11c0-2.9-1.06-4.87-3.22-4.87s-3.29,1.97-3.29,4.87v.11c0,2.9,1.09,4.87,3.29,4.87M436.77,406.17c1.42,0,2.68-.57,2.68-1.95v-.06c0-2.68-4.1-1.5-4.1-3v-.06c0-.53.47-.88,1.25-.88.94,0,1.47.5,1.47,1.01h1.29c-.03-1.42-1.19-2.07-2.71-2.07-1.68,0-2.58.85-2.58,1.97v.06c0,2.6,4.1,1.4,4.1,2.97v.06c0,.65-.61.88-1.34.88-1.05,0-1.6-.49-1.6-1.18h-1.29c0,1.19.92,2.24,2.84,2.24ZM429.52,406.17c2.18,0,3.38-1.03,3.38-2.76v-.06c0-3.91-5.52-1.71-5.52-4.37v-.06c0-.81.52-1.43,1.85-1.43,1.68,0,2.01.99,2.05,1.99h1.4c0-1.75-.97-3.17-3.4-3.17-2.23,0-3.29,1.19-3.29,2.79v.07c0,3.74,5.52,1.74,5.52,4.34v.06c0,.94-.72,1.37-2.02,1.37-1.11,0-2.2-.31-2.26-1.93h-1.4c.1,1.96,1.36,3.16,3.7,3.16ZM419.05,398.5l2.64,2.51h-7.36v1.18h7.36l-2.64,2.52h1.66l3.14-3.11-3.14-3.11h-1.66ZM406.31,406h5.04v-1.18h-1.82v-8.34h-1.47l-1.78.97v1.78l1.85-1.22v6.81h-1.82v1.18ZM399.31,404.55l2.64-5.58c.16.56.25,1.29.25,2.22v.11c0,2.67-.73,3.7-1.82,3.7-.41,0-.77-.14-1.07-.44ZM398.49,401.3v-.11c0-2.67.77-3.7,1.89-3.7.38,0,.71.12.99.4l-2.64,5.58c-.16-.55-.25-1.26-.25-2.16ZM400.38,406.17c2.16,0,3.22-1.97,3.22-4.87v-.11c0-2.9-1.06-4.87-3.22-4.87s-3.29,1.97-3.29,4.87v.11c0,2.9,1.09,4.87,3.29,4.87M393.02,406.17c1.42,0,2.67-.57,2.67-1.95v-.06c0-2.68-4.1-1.5-4.1-3v-.06c0-.53.47-.88,1.25-.88.94,0,1.47.5,1.47,1.01h1.29c-.03-1.42-1.19-2.07-2.71-2.07-1.68,0-2.58.85-2.58,1.97v.06c0,2.6,4.1,1.4,4.1,2.97v.06c0,.65-.61.88-1.34.88-1.06,0-1.6-.49-1.6-1.18h-1.29c0,1.19.93,2.24,2.84,2.24ZM385.77,406.17c2.17,0,3.38-1.03,3.38-2.76v-.06c0-3.91-5.52-1.71-5.52-4.37v-.06c0-.81.52-1.43,1.85-1.43,1.68,0,2.01.99,2.05,1.99h1.4c0-1.75-.97-3.17-3.4-3.17-2.23,0-3.29,1.19-3.29,2.79v.07c0,3.74,5.52,1.74,5.52,4.34v.06c0,.94-.72,1.37-2.02,1.37-1.11,0-2.2-.31-2.26-1.93h-1.4c.1,1.96,1.36,3.16,3.7,3.16Z"/>
      <path class="cls-4" d="M440.85,389.97c.19-1.15.89-1.71,1.87-1.71,1.17,0,1.84.8,1.84,1.71h-3.71ZM442.76,394.17c1.36,0,2.86-.72,3.13-2.21h-1.37c-.17.85-.88,1.14-1.69,1.14-1.26,0-1.95-.69-2.02-2.05h5.12c.12-2.46-1.19-3.88-3.17-3.88-2.09,0-3.3,1.58-3.3,3.5v.08c0,2.1,1.46,3.42,3.31,3.42ZM433.01,390.7v-.06c0-1.79,1.01-2.35,1.92-2.35,1.08,0,1.9.73,1.9,2.35v.06c0,1.62-.79,2.35-1.9,2.35-.92,0-1.92-.56-1.92-2.35ZM431.7,396.85h1.37v-3.48c.35.46,1.19.8,2.1.8,1.75,0,3.02-1.34,3.02-3.47v-.06c0-2.13-1.43-3.47-3.08-3.47-1.02,0-1.76.52-2.04,1.03v-.86h-1.37v9.5ZM425.16,396.85h1.39l3.86-9.5h-1.48l-1.69,4.67-1.82-4.67h-1.54l2.64,6.21-1.35,3.3ZM422.08,394h1.09v-1.18l-.99.06c-.45,0-.46-.31-.46-.69v-3.73h1.6v-1.12h-2.1c.56-.28.92-.91.92-1.75h-1.37c0,.8-.14,1.47-.7,1.75h-1.02v1.12h1.3v3.69c0,1.51.71,1.85,1.74,1.85ZM409.66,394h1.37v-3.53c0-1.44.78-2.04,1.65-2.04.73,0,1.36.25,1.36,1.48v4.09h1.37v-4.23c0-1.93-1.27-2.6-2.39-2.6-.84,0-1.64.38-1.99,1.23v-1.06h-1.37v6.66ZM402.89,389.97c.2-1.15.89-1.71,1.87-1.71,1.17,0,1.84.8,1.84,1.71h-3.71ZM404.8,394.17c1.36,0,2.86-.72,3.13-2.21h-1.37c-.17.85-.88,1.14-1.69,1.14-1.27,0-1.95-.69-2.03-2.05h5.12c.12-2.46-1.19-3.88-3.17-3.88-2.09,0-3.3,1.58-3.3,3.5v.08c0,2.1,1.46,3.42,3.31,3.42ZM395.04,390.7v-.06c0-1.79,1.02-2.35,1.92-2.35,1.08,0,1.9.73,1.9,2.35v.06c0,1.62-.79,2.35-1.9,2.35-.92,0-1.92-.56-1.92-2.35ZM393.74,396.85h1.37v-3.48c.35.46,1.19.8,2.1.8,1.75,0,3.02-1.34,3.02-3.47v-.06c0-2.13-1.43-3.47-3.08-3.47-1.02,0-1.77.52-2.05,1.03v-.86h-1.37v9.5ZM383.73,389.3v-.11c0-2.67,1.65-3.7,3.36-3.7s3.36,1.02,3.36,3.7v.11c0,2.67-1.65,3.7-3.36,3.7s-3.36-1.02-3.36-3.7M387.09,394.17c2.79,0,4.76-1.97,4.76-4.87v-.11c0-2.9-1.97-4.87-4.76-4.87s-4.76,1.97-4.76,4.87v.11c0,2.9,1.97,4.87,4.76,4.87"/>
      <path class="cls-4" d="M247.16,406.17c1.42,0,2.68-.57,2.68-1.95v-.06c0-2.68-4.1-1.5-4.1-3v-.06c0-.52.47-.88,1.25-.88.94,0,1.47.5,1.47,1.01h1.29c-.03-1.42-1.19-2.07-2.71-2.07-1.68,0-2.58.85-2.58,1.97v.06c0,2.6,4.1,1.4,4.1,2.97v.06c0,.65-.6.88-1.34.88-1.05,0-1.6-.49-1.6-1.18h-1.29c0,1.19.93,2.24,2.84,2.24ZM238.15,401.97c.19-1.15.89-1.71,1.87-1.71,1.17,0,1.84.8,1.84,1.71h-3.71ZM240.06,406.17c1.37,0,2.87-.72,3.13-2.21h-1.37c-.17.85-.88,1.14-1.69,1.14-1.26,0-1.94-.69-2.02-2.05h5.12c.12-2.46-1.19-3.88-3.17-3.88-2.09,0-3.3,1.58-3.3,3.5v.08c0,2.1,1.46,3.42,3.31,3.42h0ZM233.69,406h1.37v-9.51h-1.37v9.51ZM227.15,408.85h1.39l3.86-9.51h-1.48l-1.69,4.67-1.82-4.67h-1.54l2.64,6.21-1.35,3.3ZM224.07,406h1.09v-1.17l-.99.06c-.46,0-.46-.31-.46-.69v-3.73h1.6v-1.12h-2.1c.56-.28.92-.91.92-1.75h-1.37c0,.8-.14,1.47-.7,1.75h-1.02v1.12h1.3v3.69c0,1.51.71,1.85,1.74,1.85ZM217.8,406.17c1.42,0,2.67-.57,2.67-1.95v-.06c0-2.68-4.1-1.5-4.1-3v-.06c0-.52.47-.88,1.25-.88.94,0,1.47.5,1.47,1.01h1.29c-.03-1.42-1.19-2.07-2.71-2.07-1.68,0-2.58.85-2.58,1.97v.06c0,2.6,4.1,1.4,4.1,2.97v.06c0,.65-.61.88-1.34.88-1.06,0-1.6-.49-1.6-1.18h-1.29c0,1.19.93,2.24,2.84,2.24ZM201.97,404.55l2.64-5.58c.16.56.25,1.29.25,2.22v.11c0,2.68-.73,3.7-1.82,3.7-.41,0-.77-.14-1.07-.44ZM201.14,401.3v-.11c0-2.67.77-3.7,1.89-3.7.38,0,.71.12.99.4l-2.64,5.58c-.16-.55-.25-1.26-.25-2.17ZM203.03,406.17c2.16,0,3.22-1.97,3.22-4.87v-.11c0-2.9-1.06-4.87-3.22-4.87s-3.29,1.97-3.29,4.87v.11c0,2.9,1.09,4.87,3.29,4.87M192.63,399.59v-.06c0-1.53.92-2.04,1.88-2.04s1.88.55,1.88,2v.03c0,1.43-.97,2.09-1.9,2.09s-1.85-.67-1.85-2.02ZM192.06,406h1.58c2.24,0,4.17-2.14,4.17-5.7v-.04c0-2.79-1.6-3.94-3.3-3.94s-3.27,1.24-3.27,3.25v.03c0,1.99,1.34,3.19,3.07,3.19.79,0,1.51-.25,2.01-.93-.1,1.81-1.35,2.97-2.62,2.97l-1.62-.2v1.37Z"/>
      <path class="cls-4" d="M237.79,394.17c1.41,0,2.67-.57,2.67-1.95v-.06c0-2.68-4.1-1.5-4.1-3v-.06c0-.53.47-.88,1.25-.88.94,0,1.47.5,1.47,1.01h1.29c-.03-1.42-1.19-2.07-2.71-2.07-1.68,0-2.59.85-2.59,1.97v.06c0,2.6,4.1,1.4,4.1,2.97v.06c0,.65-.6.88-1.34.88-1.06,0-1.6-.49-1.6-1.18h-1.29c0,1.19.93,2.24,2.84,2.24ZM232.92,394h1.09v-1.18l-.99.06c-.46,0-.46-.31-.46-.69v-3.73h1.6v-1.12h-2.1c.56-.28.92-.91.92-1.75h-1.37c0,.8-.14,1.47-.7,1.75h-1.02v1.12h1.3v3.69c0,1.51.71,1.85,1.74,1.85ZM225.34,394.17c.84,0,1.64-.38,1.99-1.23v1.06h1.37v-6.66h-1.37v3.52c0,1.44-.78,2.04-1.65,2.04-.73,0-1.36-.25-1.36-1.48v-4.08h-1.32v4.22c0,1.93,1.22,2.6,2.34,2.6ZM218.41,394.17c1.65,0,2.88-.95,2.98-2.32h-1.37c-.14.77-.71,1.22-1.63,1.22-1.17,0-1.9-.73-1.9-2.37v-.06c0-1.64.73-2.37,1.9-2.37.91,0,1.48.44,1.63,1.22h1.37c-.1-1.37-1.33-2.32-2.98-2.32-1.98,0-3.29,1.37-3.29,3.47v.06c0,2.1,1.31,3.47,3.29,3.47M201.03,387.59v-.06c0-1.53.93-2.04,1.88-2.04s1.88.55,1.88,2v.03c0,1.43-.97,2.09-1.9,2.09s-1.85-.67-1.85-2.02ZM200.46,394h1.58c2.24,0,4.17-2.14,4.17-5.7v-.04c0-2.79-1.6-3.94-3.3-3.94s-3.28,1.25-3.28,3.25v.03c0,1.99,1.34,3.19,3.07,3.19.79,0,1.51-.25,2.01-.93-.1,1.81-1.35,2.97-2.62,2.97l-1.62-.2v1.37ZM193.57,392.55l2.64-5.58c.16.56.25,1.29.25,2.22v.11c0,2.67-.73,3.7-1.82,3.7-.41,0-.77-.14-1.07-.44ZM192.74,389.3v-.11c0-2.67.77-3.7,1.89-3.7.38,0,.71.12.99.4l-2.64,5.58c-.16-.55-.25-1.26-.25-2.16ZM194.63,394.17c2.16,0,3.22-1.97,3.22-4.87v-.11c0-2.9-1.06-4.87-3.22-4.87s-3.29,1.97-3.29,4.87v.11c0,2.9,1.09,4.87,3.29,4.87"/>
      <path class="cls-4" d="M581.59,406h1.37v-3.53c0-1.44.78-2.04,1.65-2.04.73,0,1.36.25,1.36,1.48v4.09h1.37v-4.23c0-1.93-1.27-2.6-2.39-2.6-.84,0-1.64.38-1.99,1.23v-3.91h-1.37v9.51ZM578.81,406h1.09v-1.18l-.99.06c-.45,0-.46-.31-.46-.69v-3.73h1.6v-1.12h-2.1c.56-.28.92-.91.92-1.75h-1.37c0,.8-.14,1.47-.7,1.75h-1.02v1.12h1.3v3.69c0,1.51.71,1.85,1.74,1.85ZM569.34,402.7v-.06c0-1.63.76-2.37,1.87-2.37.98,0,1.92.56,1.92,2.37v.06c0,1.8-.94,2.37-1.92,2.37-1.11,0-1.87-.73-1.87-2.37M571.08,406.17c.86,0,1.68-.33,2.01-.8v.63h1.37v-9.51h-1.37v3.48c-.33-.47-1.15-.8-2.01-.8-1.75,0-3.11,1.36-3.11,3.47v.06c0,2.11,1.37,3.47,3.11,3.47ZM564.57,397.63c0,.55.4.88.88.88s.88-.33.88-.88-.4-.88-.88-.88-.88.33-.88.88M564.76,406h1.37v-6.66h-1.37v6.66ZM555.67,406h2.03l.98-5.03.98,5.03h2.03l1.69-6.66h-1.3l-1.43,5.65-1.08-5.65h-1.79l-1.08,5.66-1.33-5.66h-1.33l1.62,6.66ZM546.71,406.17c2.16,0,3.47-1.44,3.47-3.48v-.03c0-2-1.4-3.31-3.08-3.31-.73,0-1.58.25-2.06.89l.18-.98.18-1.6h4.03v-1.34l-1.2.17h-3.96l-.6,5.07h1.51c.34-.71.97-.97,1.65-.97,1.23,0,1.95.8,1.95,2.07v.03c0,1.55-.8,2.31-2.07,2.31-.94,0-1.74-.41-1.81-1.45h-1.4c.28,1.82,1.6,2.63,3.21,2.63ZM535.39,404.8v1.2h6.24v-1.18h-4.7c1.9-1.19,4.58-3.08,4.58-5.57v-.03c0-1.79-1.27-2.91-3.11-2.91-1.47,0-3.23.7-3.29,3.02h1.4c.07-1.12.6-1.85,1.83-1.85s1.77.71,1.77,1.74v.03c0,2.06-2.31,3.85-4.72,5.55ZM527.37,406h5.04v-1.18h-1.82v-8.34h-1.47l-1.78.97v1.78l1.85-1.22v6.81h-1.82v1.18ZM515.82,396.9h-1.03v7.28h5.9l-1.39,1.32h1.25l1.78-1.76-1.78-1.76h-1.25l1.39,1.32h-4.86v-6.38Z"/>
      <path class="cls-4" d="M594.5,394h1.09v-1.17l-.99.06c-.46,0-.46-.31-.46-.69v-3.73h1.6v-1.12h-2.1c.56-.28.92-.91.92-1.75h-1.37c0,.8-.14,1.47-.7,1.75h-1.02v1.12h1.3v3.69c0,1.51.71,1.85,1.73,1.85ZM584.46,394h1.37v-3.53c0-1.44.78-2.04,1.65-2.04.73,0,1.36.25,1.36,1.48v4.09h1.37v-4.23c0-1.93-1.27-2.6-2.39-2.6-.84,0-1.64.38-1.99,1.23v-3.91h-1.37v9.51ZM577.07,390.53v-.06c0-1.51.9-2.18,1.89-2.18s1.9.67,1.9,2.18v.06c0,1.48-.9,2.18-1.89,2.18s-1.9-.7-1.9-2.18ZM579.03,397.02c2.73,0,3.16-1.93,3.16-3.02v-6.66h-1.37v.68c-.38-.56-1.2-.85-2.08-.85-1.76,0-3.04,1.19-3.04,3.3v.06c0,2.16,1.35,3.3,3,3.3.83,0,1.63-.29,2.12-.91v1.22c0,1.54-.99,1.76-1.69,1.76-1,0-1.85-.46-1.86-1.57h-1.37c0,1.26.79,2.69,3.14,2.69h0ZM572.31,385.63c0,.55.4.88.88.88s.88-.33.88-.88-.4-.88-.88-.88-.88.33-.88.88M572.49,394h1.37v-6.66h-1.37v6.66ZM565.58,389.97c.2-1.15.89-1.71,1.87-1.71,1.17,0,1.84.8,1.84,1.71h-3.71ZM567.5,394.17c1.37,0,2.87-.72,3.13-2.21h-1.37c-.17.85-.88,1.13-1.69,1.13-1.26,0-1.95-.69-2.03-2.04h5.12c.12-2.46-1.19-3.88-3.17-3.88-2.09,0-3.3,1.58-3.3,3.5v.08c0,2.1,1.46,3.41,3.31,3.41ZM555.67,394h2.03l.98-5.02.98,5.02h2.03l1.69-6.66h-1.3l-1.43,5.65-1.08-5.65h-1.79l-1.08,5.66-1.33-5.66h-1.33l1.62,6.66ZM545.85,392.55l2.64-5.58c.16.56.25,1.29.25,2.22v.11c0,2.67-.73,3.7-1.82,3.7-.41,0-.77-.14-1.07-.44ZM545.03,389.3v-.11c0-2.67.77-3.7,1.89-3.7.38,0,.71.12.99.4l-2.64,5.58c-.16-.55-.25-1.26-.25-2.16h0ZM546.92,394.17c2.16,0,3.22-1.97,3.22-4.87v-.11c0-2.9-1.06-4.87-3.22-4.87s-3.29,1.97-3.29,4.87v.11c0,2.9,1.09,4.87,3.29,4.87M537.31,392.55l2.64-5.58c.16.56.25,1.29.25,2.22v.11c0,2.67-.73,3.7-1.82,3.7-.41,0-.77-.14-1.07-.44ZM536.49,389.3v-.11c0-2.67.77-3.7,1.89-3.7.38,0,.72.12.99.4l-2.64,5.58c-.16-.55-.25-1.26-.25-2.16h0ZM538.38,394.17c2.16,0,3.22-1.97,3.22-4.87v-.11c0-2.9-1.06-4.87-3.22-4.87s-3.29,1.97-3.29,4.87v.11c0,2.9,1.09,4.87,3.29,4.87M527.37,394h5.04v-1.17h-1.82v-8.34h-1.47l-1.78.97v1.78l1.85-1.22v6.81h-1.82v1.17ZM515.82,384.9h-1.03v7.28h5.9l-1.39,1.32h1.25l1.78-1.76-1.78-1.76h-1.25l1.39,1.32h-4.86v-6.38Z"/>
    </g>
  </g>
</svg>