<?xml version="1.0" encoding="UTF-8"?>
<svg id="Calque_1" data-name="Calque 1" xmlns="http://www.w3.org/2000/svg" xmlns:xlink="http://www.w3.org/1999/xlink" viewBox="0 0 616 860">
  <defs>
    <style>
      .cls-1 {
        clip-path: url(#clippath);
      }

      .cls-2 {
        fill: none;
      }

      .cls-2, .cls-3, .cls-4 {
        stroke-width: 0px;
      }

      .cls-5 {
        clip-path: url(#clippath-1);
      }

      .cls-6 {
        clip-path: url(#clippath-3);
      }

      .cls-7 {
        clip-path: url(#clippath-2);
      }

      .cls-4 {
        fill: #fff;
      }
    </style>
    <clipPath id="clippath">
      <rect class="cls-2" width="616" height="860"/>
    </clipPath>
    <clipPath id="clippath-1">
      <rect class="cls-2" width="616" height="860"/>
    </clipPath>
    <clipPath id="clippath-2">
      <rect class="cls-2" x="636" width="616" height="860"/>
    </clipPath>
    <clipPath id="clippath-3">
      <rect class="cls-2" x="636" width="616" height="860"/>
    </clipPath>
  </defs>
  <g class="cls-1">
    <g class="cls-5">
      <path class="cls-3" d="M94.97,43.44h5.76v-1.34h-2.08v-9.53h-1.68l-2.03,1.1v2.03l2.11-1.39v7.78h-2.08v1.34ZM88.12,41.6l3.07-6.5c.24.67.38,1.59.38,2.83v.13c0,3.06-.83,4.22-2.08,4.22-.54,0-1.01-.21-1.37-.68M87.33,38.06v-.13c0-3.06.88-4.22,2.16-4.22.36,0,.68.1.96.31l-2.93,6.19c-.13-.58-.2-1.29-.2-2.14ZM86.65,42.08h.02c.63.98,1.57,1.55,2.83,1.55,2.46,0,3.68-2.26,3.68-5.57v-.13c0-3.31-1.22-5.57-3.68-5.57s-3.76,2.26-3.76,5.57v.13c0,1.64.31,3.02.92,4v.02ZM74.2,43.44h1.57v-4.03c0-1.65.9-2.34,1.89-2.34.83,0,1.55.29,1.55,1.7v4.67h1.57v-4.83c0-2.21-1.46-2.98-2.74-2.98-.96,0-1.87.43-2.27,1.41v-1.21h-1.57v7.61ZM66.76,41.33v-.03c0-.74.64-1.09,1.47-1.17l2.11-.2v.54c0,1.38-1.04,1.94-2.1,1.94-.91,0-1.49-.42-1.49-1.07ZM68.06,43.63c.91,0,1.95-.34,2.32-1.22v1.02h1.47v-5.02c0-2.08-1.58-2.78-3.07-2.78-1.57,0-3.06.78-3.22,2.51h1.57c.02-.78.64-1.28,1.62-1.28,1.09,0,1.55.62,1.55,1.39v.54l-2.3.23c-1.68.17-2.72.86-2.72,2.27v.03c0,1.41,1.31,2.3,2.78,2.3ZM61.74,43.44h1.57v-10.87h-1.57v10.87ZM53.88,39.66v-.06c0-2.05,1.16-2.69,2.19-2.69,1.23,0,2.17.83,2.17,2.69v.06c0,1.86-.91,2.69-2.17,2.69-1.05,0-2.19-.64-2.19-2.69ZM52.38,46.7h1.57v-3.98c.4.53,1.36.91,2.4.91,2,0,3.46-1.54,3.46-3.97v-.06c0-2.43-1.63-3.97-3.52-3.97-1.17,0-2.02.59-2.34,1.18v-.98h-1.57v10.87ZM43.92,43.44h1.57v-3.49l3.62,3.49h1.95l-3.94-3.81,3.63-3.8h-1.95l-3.31,3.47v-6.74h-1.57v10.87ZM38.4,43.44h1.5v-3.72c0-1.31.58-2.34,1.62-2.34l.99.14v-1.7h-.91c-.6,0-1.42.32-1.7,1.29v-1.29h-1.5v7.61ZM30.32,39.66v-.06c0-1.79.96-2.69,2.27-2.69s2.27.9,2.27,2.69v.06c0,1.79-.96,2.69-2.27,2.69s-2.27-.9-2.27-2.69M32.59,43.63c2.08,0,3.87-1.38,3.87-3.97v-.06c0-2.59-1.79-3.97-3.87-3.97s-3.87,1.38-3.87,3.97v.06c0,2.59,1.79,3.97,3.87,3.97M16.66,43.44h2.58l1.97-8.29,1.97,8.29h2.58l2.34-10.88h-1.73l-1.95,9.47-2.21-9.47h-1.98l-2.21,9.47-1.95-9.47h-1.73l2.34,10.88Z"/>
      <path class="cls-3" d="M89.01,27.44h1.5v-3.72c0-1.31.58-2.34,1.62-2.34l.99.14v-1.7h-.91c-.6,0-1.42.32-1.7,1.29v-1.29h-1.5v7.61ZM81.27,22.83c.22-1.31,1.02-1.95,2.14-1.95,1.33,0,2.1.92,2.1,1.95h-4.24ZM83.46,27.63c1.56,0,3.27-.82,3.57-2.53h-1.57c-.19.97-1.01,1.3-1.93,1.3-1.44,0-2.22-.78-2.31-2.34h5.85c.13-2.81-1.36-4.43-3.62-4.43-2.39,0-3.77,1.81-3.77,4v.1c0,2.4,1.68,3.9,3.78,3.9ZM71.24,27.44h1.57v-4.03c0-1.65.9-2.34,1.89-2.34.83,0,1.55.29,1.55,1.7v4.67h1.57v-4.83c0-2.21-1.46-2.98-2.74-2.98-.96,0-1.87.43-2.27,1.41v-1.21h-1.57v7.61ZM62.31,27.44h1.57v-4.03c0-1.65.9-2.34,1.89-2.34.83,0,1.55.29,1.55,1.7v4.67h1.57v-4.83c0-2.21-1.46-2.98-2.74-2.98-.96,0-1.87.43-2.27,1.41v-1.21h-1.57v7.61ZM54.87,25.33v-.03c0-.74.64-1.09,1.47-1.17l2.11-.2v.54c0,1.38-1.04,1.94-2.1,1.94-.91,0-1.49-.42-1.49-1.07ZM56.17,27.63c.91,0,1.95-.34,2.32-1.22v1.02h1.47v-5.02c0-2.08-1.58-2.78-3.07-2.78-1.57,0-3.06.78-3.22,2.51h1.57c.02-.78.64-1.28,1.62-1.28,1.09,0,1.55.62,1.55,1.39v.54l-2.3.23c-1.68.17-2.72.86-2.72,2.27v.03c0,1.41,1.31,2.3,2.78,2.3ZM49.86,27.44h1.57v-10.87h-1.57v10.87ZM42.05,22.05v-4.14h2.78c1.18,0,1.82.58,1.82,1.96v.13c0,1.5-.9,2.06-1.82,2.06h-2.78ZM40.45,27.44h1.6v-4.05h2.88c1.95,0,3.33-1.39,3.33-3.42v-.13c0-1.94-1.26-3.28-3.33-3.28h-4.48v10.88ZM29.04,27.44h1.6v-5.07h4.59v-1.34h-4.59v-3.12h5.22v-1.34h-6.82v10.88ZM15.34,27.44h1.6v-9.41l2.78,9.41h2.24l2.78-9.41v9.41h1.6v-10.88h-2.7l-2.8,9.28-2.8-9.28h-2.7v10.88Z"/>
      <path class="cls-3" d="M374.44,43.63c2.26,0,3.65-1.33,3.65-3.23v-.03c0-1.66-1.22-2.45-2.59-2.66,1.31-.2,2.43-.92,2.43-2.43v-.08c0-1.69-1.29-2.83-3.44-2.83-1.98,0-3.64.96-3.82,3.26h1.6c.05-1.34,1.04-1.92,2.16-1.92,1.2,0,1.91.68,1.91,1.58v.06c0,1.09-.98,1.68-2.43,1.68v1.34c1.55,0,2.59.5,2.59,1.9v.03c0,1.46-.98,1.97-2.13,1.97-1.03,0-2.03-.41-2.09-1.97h-1.6c.14,2.08,1.63,3.31,3.78,3.31ZM363.65,41.78l3.02-6.38c.18.64.28,1.47.28,2.53v.13c0,3.06-.83,4.22-2.08,4.22-.47,0-.88-.16-1.22-.5ZM362.71,38.06v-.13c0-3.06.88-4.22,2.16-4.22.43,0,.82.14,1.13.45l-3.01,6.37c-.18-.63-.28-1.44-.28-2.47ZM364.87,43.63c2.46,0,3.68-2.26,3.68-5.57v-.13c0-3.31-1.22-5.57-3.68-5.57s-3.76,2.26-3.76,5.57v.13c0,3.31,1.25,5.57,3.76,5.57M356.47,43.63c1.62,0,3.06-.66,3.06-2.22v-.06c0-3.06-4.69-1.71-4.69-3.43v-.06c0-.6.54-1,1.43-1,1.07,0,1.68.58,1.68,1.15h1.47c-.04-1.62-1.36-2.37-3.1-2.37-1.91,0-2.95.98-2.95,2.25v.06c0,2.98,4.69,1.6,4.69,3.4v.06c0,.74-.69,1.01-1.53,1.01-1.21,0-1.83-.56-1.83-1.34h-1.47c0,1.36,1.06,2.56,3.25,2.56ZM348.18,43.63c2.49,0,3.87-1.18,3.87-3.16v-.06c0-4.48-6.3-1.95-6.3-5v-.06c0-.93.59-1.63,2.11-1.63,1.92,0,2.3,1.13,2.34,2.27h1.6c0-2-1.11-3.62-3.88-3.62-2.55,0-3.76,1.36-3.76,3.18v.08c0,4.28,6.3,1.98,6.3,4.96v.06c0,1.08-.82,1.57-2.31,1.57-1.27,0-2.52-.36-2.58-2.21h-1.6c.11,2.24,1.55,3.62,4.23,3.62ZM336.21,34.86l3.01,2.87h-8.41v1.35h8.41l-3.02,2.88h1.9l3.58-3.55-3.58-3.55h-1.9ZM321.65,43.44h5.76v-1.34h-2.08v-9.53h-1.68l-2.03,1.1v2.03l2.11-1.39v7.78h-2.08v1.34ZM313.66,41.78l3.02-6.38c.18.64.28,1.47.28,2.53v.13c0,3.06-.83,4.22-2.08,4.22-.47,0-.88-.16-1.22-.5ZM312.72,38.06v-.13c0-3.06.88-4.22,2.16-4.22.43,0,.82.14,1.13.45l-3.01,6.37c-.18-.63-.28-1.44-.28-2.47ZM314.88,43.63c2.46,0,3.68-2.26,3.68-5.57v-.13c0-3.31-1.22-5.57-3.68-5.57s-3.76,2.26-3.76,5.57v.13c0,3.31,1.25,5.57,3.76,5.57M306.47,43.63c1.62,0,3.06-.66,3.06-2.22v-.06c0-3.06-4.69-1.71-4.69-3.43v-.06c0-.6.54-1,1.43-1,1.07,0,1.68.58,1.68,1.15h1.47c-.04-1.62-1.36-2.37-3.1-2.37-1.91,0-2.95.98-2.95,2.25v.06c0,2.98,4.69,1.6,4.69,3.4v.06c0,.74-.69,1.01-1.53,1.01-1.21,0-1.83-.56-1.83-1.34h-1.47c0,1.36,1.06,2.56,3.25,2.56ZM298.19,43.63c2.49,0,3.87-1.18,3.87-3.16v-.06c0-4.48-6.3-1.95-6.3-5v-.06c0-.93.6-1.63,2.11-1.63,1.92,0,2.3,1.13,2.34,2.27h1.6c0-2-1.1-3.62-3.88-3.62-2.55,0-3.76,1.36-3.76,3.18v.08c0,4.28,6.3,1.98,6.3,4.96v.06c0,1.08-.82,1.57-2.31,1.57-1.27,0-2.52-.36-2.58-2.21h-1.6c.11,2.24,1.55,3.62,4.23,3.62Z"/>
      <path class="cls-3" d="M361.13,22.83c.22-1.31,1.02-1.95,2.14-1.95,1.33,0,2.1.92,2.1,1.95h-4.24ZM363.32,27.63c1.56,0,3.27-.82,3.58-2.53h-1.57c-.19.98-1.01,1.3-1.93,1.3-1.44,0-2.22-.78-2.31-2.34h5.85c.14-2.81-1.36-4.43-3.62-4.43-2.39,0-3.77,1.81-3.77,4v.1c0,2.4,1.67,3.9,3.78,3.9ZM352.16,23.66v-.06c0-2.05,1.16-2.69,2.19-2.69,1.23,0,2.17.83,2.17,2.69v.06c0,1.86-.91,2.69-2.17,2.69-1.05,0-2.19-.64-2.19-2.69ZM350.67,30.7h1.57v-3.98c.4.53,1.36.91,2.4.91,2,0,3.46-1.54,3.46-3.97v-.06c0-2.43-1.63-3.97-3.52-3.97-1.17,0-2.02.59-2.34,1.18v-.98h-1.57v10.87ZM343.2,30.7h1.58l4.42-10.87h-1.7l-1.93,5.34-2.08-5.34h-1.76l3.01,7.1-1.54,3.77ZM339.67,27.44h1.25v-1.34l-1.14.06c-.52,0-.53-.35-.53-.78v-4.26h1.82v-1.28h-2.4c.64-.32,1.06-1.04,1.06-2h-1.57c0,.91-.16,1.68-.8,2h-1.17v1.28h1.49v4.22c0,1.73.82,2.11,1.98,2.11ZM325.48,27.44h1.57v-4.03c0-1.65.9-2.34,1.89-2.34.83,0,1.55.29,1.55,1.7v4.67h1.57v-4.83c0-2.21-1.46-2.98-2.74-2.98-.96,0-1.87.43-2.27,1.41v-1.21h-1.57v7.61ZM317.75,22.83c.22-1.31,1.02-1.95,2.14-1.95,1.34,0,2.1.92,2.1,1.95h-4.24ZM319.93,27.63c1.56,0,3.27-.82,3.58-2.53h-1.57c-.19.98-1.01,1.3-1.93,1.3-1.44,0-2.22-.78-2.31-2.34h5.85c.14-2.81-1.36-4.43-3.62-4.43-2.39,0-3.77,1.81-3.77,4v.1c0,2.4,1.68,3.9,3.79,3.9ZM308.78,23.66v-.06c0-2.05,1.16-2.69,2.19-2.69,1.23,0,2.17.83,2.17,2.69v.06c0,1.86-.91,2.69-2.17,2.69-1.05,0-2.19-.64-2.19-2.69ZM307.28,30.7h1.57v-3.98c.4.53,1.36.91,2.4.91,2,0,3.46-1.54,3.46-3.97v-.06c0-2.43-1.63-3.97-3.52-3.97-1.17,0-2.02.59-2.34,1.18v-.98h-1.57v10.87ZM295.84,22.06v-.13c0-3.06,1.89-4.22,3.84-4.22s3.84,1.17,3.84,4.22v.13c0,3.06-1.89,4.22-3.84,4.22s-3.84-1.17-3.84-4.22M299.68,27.63c3.18,0,5.44-2.26,5.44-5.57v-.13c0-3.31-2.26-5.57-5.44-5.57s-5.44,2.26-5.44,5.57v.13c0,3.31,2.26,5.57,5.44,5.57"/>
      <path class="cls-3" d="M211.98,43.63c1.62,0,3.06-.66,3.06-2.22v-.06c0-3.06-4.69-1.71-4.69-3.43v-.06c0-.6.54-1,1.43-1,1.07,0,1.68.58,1.68,1.15h1.47c-.03-1.62-1.36-2.37-3.1-2.37-1.92,0-2.95.98-2.95,2.25v.06c0,2.98,4.69,1.6,4.69,3.4v.06c0,.74-.69,1.01-1.53,1.01-1.21,0-1.83-.56-1.83-1.34h-1.47c0,1.36,1.06,2.56,3.25,2.56ZM201.68,38.83c.22-1.31,1.02-1.95,2.14-1.95,1.34,0,2.1.92,2.1,1.95h-4.24ZM203.87,43.63c1.56,0,3.27-.82,3.57-2.53h-1.57c-.19.97-1.01,1.3-1.93,1.3-1.44,0-2.22-.78-2.31-2.34h5.85c.14-2.81-1.36-4.43-3.62-4.43-2.39,0-3.77,1.81-3.77,4v.1c0,2.4,1.68,3.9,3.79,3.9ZM196.58,43.44h1.57v-10.87h-1.57v10.87ZM189.11,46.7h1.58l4.42-10.87h-1.7l-1.93,5.34-2.08-5.34h-1.76l3.01,7.1-1.54,3.77ZM185.59,43.44h1.25v-1.34l-1.14.06c-.52,0-.53-.35-.53-.78v-4.26h1.82v-1.28h-2.4c.64-.32,1.06-1.04,1.06-2h-1.57c0,.91-.16,1.68-.8,2h-1.17v1.28h1.49v4.22c0,1.73.82,2.11,1.98,2.11ZM178.42,43.63c1.62,0,3.06-.66,3.06-2.22v-.06c0-3.06-4.69-1.71-4.69-3.43v-.06c0-.6.54-1,1.43-1,1.07,0,1.68.58,1.68,1.15h1.47c-.03-1.62-1.36-2.37-3.1-2.37-1.91,0-2.96.98-2.96,2.25v.06c0,2.98,4.69,1.6,4.69,3.4v.06c0,.74-.69,1.01-1.53,1.01-1.21,0-1.83-.56-1.83-1.34h-1.47c0,1.36,1.06,2.56,3.25,2.56ZM159.52,41.78l3.02-6.38c.18.64.28,1.47.28,2.53v.13c0,3.06-.83,4.22-2.08,4.22-.47,0-.88-.16-1.22-.5h0ZM158.58,38.06v-.13c0-3.06.88-4.22,2.16-4.22.43,0,.82.14,1.13.45l-3.01,6.37c-.18-.63-.28-1.44-.28-2.47ZM160.74,43.63c2.46,0,3.68-2.26,3.68-5.57v-.13c0-3.31-1.22-5.57-3.68-5.57s-3.76,2.26-3.76,5.57v.13c0,3.31,1.25,5.57,3.76,5.57M148.85,36.11v-.06c0-1.74,1.06-2.34,2.14-2.34s2.14.62,2.14,2.29v.03c0,1.63-1.1,2.38-2.18,2.38s-2.11-.77-2.11-2.3ZM148.2,43.44h1.81c2.56,0,4.77-2.45,4.77-6.52v-.05c0-3.19-1.82-4.5-3.78-4.5s-3.74,1.42-3.74,3.71v.03c0,2.27,1.54,3.65,3.5,3.65.91,0,1.72-.29,2.3-1.06-.12,2.07-1.54,3.4-3,3.4l-1.86-.22v1.57Z"/>
      <path class="cls-3" d="M201.27,27.63c1.62,0,3.06-.66,3.06-2.22v-.06c0-3.06-4.69-1.71-4.69-3.43v-.06c0-.6.54-1,1.43-1,1.07,0,1.68.58,1.68,1.15h1.47c-.04-1.62-1.36-2.37-3.1-2.37-1.91,0-2.95.98-2.95,2.25v.06c0,2.98,4.69,1.6,4.69,3.4v.06c0,.74-.69,1.01-1.53,1.01-1.21,0-1.83-.56-1.83-1.34h-1.47c0,1.36,1.06,2.56,3.25,2.56ZM195.7,27.44h1.25v-1.34l-1.14.06c-.52,0-.53-.35-.53-.78v-4.26h1.82v-1.28h-2.4c.64-.32,1.06-1.04,1.06-2h-1.57c0,.91-.16,1.68-.8,2h-1.17v1.28h1.49v4.22c0,1.73.82,2.11,1.98,2.11ZM187.05,27.63c.96,0,1.87-.43,2.27-1.41v1.22h1.57v-7.61h-1.57v4.02c0,1.65-.9,2.34-1.89,2.34-.83,0-1.55-.29-1.55-1.7v-4.66h-1.5v4.82c0,2.21,1.39,2.98,2.67,2.98ZM179.13,27.63c1.89,0,3.29-1.09,3.41-2.66h-1.57c-.17.89-.82,1.39-1.86,1.39-1.34,0-2.17-.83-2.17-2.7v-.06c0-1.87.83-2.7,2.17-2.7,1.04,0,1.69.51,1.86,1.39h1.57c-.11-1.57-1.52-2.66-3.41-2.66-2.27,0-3.76,1.57-3.76,3.97v.06c0,2.4,1.49,3.97,3.76,3.97M158.45,20.11v-.06c0-1.74,1.06-2.34,2.14-2.34s2.14.62,2.14,2.29v.03c0,1.63-1.1,2.38-2.18,2.38s-2.11-.77-2.11-2.3ZM157.8,27.44h1.81c2.56,0,4.77-2.45,4.77-6.52v-.05c0-3.19-1.82-4.5-3.78-4.5s-3.74,1.42-3.74,3.71v.03c0,2.27,1.54,3.65,3.5,3.65.91,0,1.72-.28,2.3-1.06-.12,2.07-1.54,3.4-3,3.4l-1.86-.22v1.57ZM149.92,25.78l3.02-6.38c.18.64.28,1.47.28,2.53v.13c0,3.06-.83,4.22-2.08,4.22-.47,0-.88-.16-1.22-.5ZM148.98,22.06v-.13c0-3.06.88-4.22,2.16-4.22.43,0,.82.14,1.13.45l-3.01,6.37c-.18-.63-.28-1.44-.28-2.47ZM151.14,27.63c2.46,0,3.68-2.26,3.68-5.57v-.13c0-3.31-1.22-5.57-3.68-5.57s-3.76,2.26-3.76,5.57v.13c0,3.31,1.25,5.57,3.76,5.57"/>
      <path class="cls-3" d="M523.32,43.44h1.57v-4.03c0-1.65.9-2.34,1.89-2.34.83,0,1.55.29,1.55,1.7v4.67h1.57v-4.83c0-2.21-1.46-2.98-2.74-2.98-.96,0-1.87.43-2.27,1.41v-4.47h-1.57v10.87ZM520.32,43.44h1.25v-1.34l-1.14.06c-.52,0-.53-.35-.53-.78v-4.26h1.82v-1.28h-2.4c.64-.32,1.06-1.04,1.06-2h-1.57c0,.91-.16,1.68-.8,2h-1.17v1.28h1.49v4.22c0,1.73.82,2.11,1.98,2.11ZM509.64,39.66v-.06c0-1.87.87-2.7,2.14-2.7,1.12,0,2.19.64,2.19,2.7v.06c0,2.06-1.07,2.7-2.19,2.7-1.27,0-2.14-.84-2.14-2.7M511.63,43.63c.98,0,1.92-.38,2.3-.91v.72h1.57v-10.87h-1.57v3.98c-.38-.53-1.31-.91-2.3-.91-1.99,0-3.56,1.55-3.56,3.97v.06c0,2.42,1.56,3.97,3.56,3.97ZM504.35,33.88c0,.63.46,1,1,1s1-.38,1-1-.46-1-1-1-1,.38-1,1M504.57,43.44h1.57v-7.61h-1.57v7.61ZM494.35,43.44h2.32l1.12-5.74,1.12,5.74h2.32l1.94-7.61h-1.49l-1.63,6.46-1.23-6.46h-2.05l-1.23,6.47-1.52-6.47h-1.52l1.86,7.61ZM478.12,41.78l3.02-6.38c.18.64.28,1.47.28,2.53v.13c0,3.06-.83,4.22-2.08,4.22-.47,0-.88-.16-1.22-.5ZM477.18,38.06v-.13c0-3.06.88-4.22,2.16-4.22.43,0,.82.14,1.13.45l-3.01,6.37c-.18-.63-.28-1.44-.28-2.47ZM479.34,43.63c2.46,0,3.68-2.26,3.68-5.57v-.13c0-3.31-1.22-5.57-3.68-5.57s-3.76,2.26-3.76,5.57v.13c0,3.31,1.25,5.57,3.76,5.57M468.52,41.78l3.02-6.38c.18.64.28,1.47.28,2.53v.13c0,3.06-.83,4.22-2.08,4.22-.47,0-.88-.16-1.22-.5h0ZM467.58,38.06v-.13c0-3.06.88-4.22,2.16-4.22.43,0,.82.14,1.13.45l-3.01,6.37c-.18-.63-.28-1.44-.28-2.47ZM469.74,43.63c2.46,0,3.68-2.26,3.68-5.57v-.13c0-3.31-1.22-5.57-3.68-5.57s-3.76,2.26-3.76,5.57v.13c0,3.31,1.25,5.57,3.76,5.57M457.32,43.44h5.76v-1.34h-2.08v-9.53h-1.68l-2.03,1.1v2.03l2.11-1.39v7.78h-2.08v1.34ZM442.6,33.04h-1.18v8.32h6.74l-1.59,1.5h1.42l2.03-2.02-2.03-2.02h-1.42l1.59,1.5h-5.55v-7.3Z"/>
      <path class="cls-3" d="M537.92,27.44h1.25v-1.34l-1.14.06c-.52,0-.53-.35-.53-.78v-4.26h1.82v-1.28h-2.4c.64-.32,1.06-1.04,1.06-2h-1.57c0,.91-.16,1.68-.8,2h-1.17v1.28h1.49v4.22c0,1.73.82,2.11,1.98,2.11ZM526.61,27.44h1.57v-4.03c0-1.65.9-2.34,1.89-2.34.83,0,1.55.29,1.55,1.7v4.67h1.57v-4.83c0-2.21-1.46-2.98-2.74-2.98-.96,0-1.87.43-2.27,1.41v-4.47h-1.57v10.87ZM518.32,23.47v-.06c0-1.73,1.03-2.5,2.16-2.5s2.17.77,2.17,2.5v.06c0,1.7-1.03,2.5-2.16,2.5s-2.17-.8-2.17-2.5ZM520.57,30.9c3.12,0,3.61-2.21,3.61-3.46v-7.61h-1.57v.78c-.44-.63-1.37-.98-2.38-.98-2.01,0-3.48,1.36-3.48,3.78v.06c0,2.46,1.55,3.78,3.43,3.78.95,0,1.87-.33,2.43-1.04v1.39c0,1.76-1.14,2.02-1.93,2.02-1.14,0-2.11-.53-2.13-1.79h-1.57c0,1.44.9,3.07,3.59,3.07ZM513.03,17.88c0,.63.46,1,1,1s1-.38,1-1-.46-1-1-1-1,.38-1,1M513.25,27.44h1.57v-7.61h-1.57v7.61ZM505.52,22.83c.22-1.31,1.02-1.95,2.14-1.95,1.33,0,2.1.92,2.1,1.95h-4.24ZM507.7,27.63c1.56,0,3.27-.82,3.58-2.53h-1.57c-.19.97-1.01,1.3-1.93,1.3-1.44,0-2.22-.78-2.31-2.34h5.85c.13-2.81-1.36-4.43-3.62-4.43-2.39,0-3.77,1.81-3.77,4v.1c0,2.4,1.67,3.9,3.78,3.9ZM494.35,27.44h2.32l1.12-5.74,1.12,5.74h2.32l1.94-7.61h-1.49l-1.63,6.46-1.23-6.46h-2.05l-1.23,6.47-1.52-6.47h-1.52l1.86,7.61ZM478.12,25.78l3.02-6.38c.18.64.28,1.47.28,2.53v.13c0,3.06-.83,4.22-2.08,4.22-.47,0-.88-.16-1.22-.5ZM477.18,22.06v-.13c0-3.06.88-4.22,2.16-4.22.43,0,.82.14,1.13.45l-3.01,6.37c-.18-.63-.28-1.44-.28-2.47ZM479.34,27.63c2.46,0,3.68-2.26,3.68-5.57v-.13c0-3.31-1.22-5.57-3.68-5.57s-3.76,2.26-3.76,5.57v.13c0,3.31,1.25,5.57,3.76,5.57M468.52,25.78l3.02-6.38c.18.64.28,1.47.28,2.53v.13c0,3.06-.83,4.22-2.08,4.22-.47,0-.88-.16-1.22-.5h0ZM467.58,22.06v-.13c0-3.06.88-4.22,2.16-4.22.43,0,.82.14,1.13.45l-3.01,6.37c-.18-.63-.28-1.44-.28-2.47ZM469.74,27.63c2.46,0,3.68-2.26,3.68-5.57v-.13c0-3.31-1.22-5.57-3.68-5.57s-3.76,2.26-3.76,5.57v.13c0,3.31,1.25,5.57,3.76,5.57M457.65,23.51l3.54-5.63v5.63h-3.54ZM461.19,27.44h1.6v-2.58h1.82v-1.34h-1.82v-6.94h-2.3l-4.48,7.14v1.15h5.18v2.58ZM442.6,17.04h-1.18v8.32h6.74l-1.59,1.5h1.42l2.03-2.02-2.03-2.02h-1.42l1.59,1.5h-5.55v-7.3Z"/>
      <path class="cls-3" d="M586.64,30.73h15.36c0-9.35-7.05-16.73-16.98-16.73v15.07h-15.02c0,9.15,7.14,16.93,16.64,16.93v-15.27Z"/>
      <path class="cls-3" d="M240.29,366h42.14V73.82h-42.14v292.18ZM59.52,221.09v-111.37h74.82c31.82,0,49.02,15.51,49.02,52.67v3.44c0,40.25-24.08,55.25-49.02,55.25H59.52ZM16.52,366h43v-108.79h77.4c52.46,0,89.44-37.42,89.44-92.02v-3.44c0-52.05-33.97-88.15-89.44-88.15H16.52v292.4Z"/>
      <path class="cls-3" d="M422.74,606h42.14v-108.36c0-44.29,24.08-62.78,50.74-62.78,22.36,0,41.71,7.74,41.71,45.58v125.56h42.14v-129.86c0-59.34-39.13-79.98-73.53-79.98-25.8,0-50.31,11.61-61.06,37.84v-32.46h-42.14v204.46ZM265.54,549.23v-.86c0-19.78,17.2-29.22,39.56-31.39l56.76-5.49v14.52c0,36.98-27.95,52.03-56.33,52.03-24.51,0-39.99-11.18-39.99-28.81h0ZM300.36,611.16c24.51,0,52.46-9.03,62.35-32.68v27.52h39.56v-135.02c0-55.9-42.57-74.82-82.56-74.82-42.14,0-82.13,21.07-86.43,67.51h42.14c.43-21.07,17.2-34.4,43.43-34.4,29.24,0,41.71,16.77,41.71,37.41v14.45l-61.92,6.19c-45.17,4.52-73.1,23.22-73.1,61.06v.86c0,37.84,35.26,61.92,74.82,61.92h0ZM55.35,504.52v-1.72c0-49.88,24.35-72.24,58.27-72.24,28.16,0,58.05,17.2,58.05,72.24v1.72c0,55.04-29.89,72.24-58.05,72.24-33.92,0-58.27-22.36-58.27-72.24M106.09,611.16c27.95,0,53.75-10.32,64.5-24.51v19.35h42.14v-204.46h-42.14v19.13c-10.75-14.19-36.55-24.51-64.5-24.51-53.75,0-92.88,41.71-92.88,106.64v1.72c0,64.93,39.13,106.64,92.88,106.64"/>
      <path class="cls-3" d="M431.81,846h40.42v-99.97c0-35.26,15.5-62.78,43.43-62.78l26.66,3.87v-45.58h-24.51c-16.17,0-38.04,8.74-45.58,34.8v-34.8h-40.42v204.46ZM254.89,722.16c5.99-35.15,27.42-52.46,57.46-52.46,35.87,0,56.53,24.69,56.52,52.46h-113.98ZM313.63,851.16c41.9,0,87.99-22.07,96.08-67.94h-42.14c-5.14,26.19-27.09,34.83-51.95,34.83-38.81,0-59.73-21.05-62.18-62.78h157.13c3.63-75.48-36.55-119.11-97.32-119.11-64.13,0-101.34,48.59-101.34,107.5v2.58c0,64.5,45.02,104.92,101.72,104.92h0ZM16.3,846h42.14v-108.36c0-44.29,24.08-62.78,50.74-62.78,22.36,0,41.71,7.74,41.71,45.58v125.56h42.14v-129.86c0-59.34-39.13-79.98-73.53-79.98-25.8,0-50.31,11.61-61.06,37.84v-32.46H16.3v204.46Z"/>
      <path class="cls-3" d="M350.15,105.8c46.07-46.07,120.77-46.07,166.85,0l49.24,49.24c46.07,46.07,46.07,120.77,0,166.85l-10.61,10.61c-46.07,46.07-120.77,46.07-166.85,0l-49.24-49.24c-46.07-46.07-46.07-120.77,0-166.85l10.61-10.61Z"/>
      <path class="cls-4" d="M355.36,179.62c16.02-16.02,41.98-16.02,58,0l17.12,17.12c16.02,16.02,16.02,41.98,0,58l-3.69,3.69c-16.02,16.02-41.98,16.02-58,0l-17.12-17.12c-16.02-16.02-16.02-41.98,0-58l3.69-3.69Z"/>
      <path class="cls-3" d="M395.48,242.47l3.59,3.59,8.88-8.88c3.13-3.13,6.95-4.2,9.43-1.72l2.02,2.71,4.05-4.05-2.18-2.18c-1.44-1.44-4.15-2.6-7.14-.96l3.09-3.09-3.59-3.59-18.16,18.16ZM384.64,221.54l.08-.08c1.76-1.76,4.12-1.07,6.3.72l5.53,4.55-1.29,1.29c-3.28,3.28-7.1,2.14-9.62-.38-2.18-2.18-2.56-4.54-.99-6.11ZM382.23,230.13c2.18,2.18,5.46,3.86,8.44,2.64l-2.44,2.44,3.51,3.51,11.99-11.99c4.96-4.96,2.86-10.42-.69-13.97-3.74-3.74-9.16-5.42-13.67-1.68l3.74,3.74c1.91-1.83,4.58-1.53,6.91.8,2.6,2.6,2.21,5.19.38,7.03l-1.28,1.28-6.05-4.95c-4.41-3.61-8.55-4.43-11.91-1.07l-.08.08c-3.36,3.36-2.37,8.63,1.15,12.14h0ZM363.94,210.93l5.8,5.8,24.34-11.97-4.01-4.01-13.73,7.08-6.88,3.37,3.37-6.88,7.08-13.73-4.01-4.01-11.97,24.34Z"/>
    </g>
  </g>
  <g class="cls-7">
    <g class="cls-6">
      <path class="cls-3" d="M341.81,105.8c46.07-46.07,120.77-46.07,166.85,0l49.24,49.24c46.07,46.07,46.07,120.77,0,166.85l-10.61,10.61c-46.07,46.07-120.77,46.07-166.85,0l-49.24-49.24c-46.07-46.07-46.07-120.77,0-166.85l10.61-10.61Z"/>
    </g>
  </g>
</svg>