<?xml version="1.0" encoding="UTF-8"?>
<svg id="Calque_1" data-name="Calque 1" xmlns="http://www.w3.org/2000/svg" xmlns:xlink="http://www.w3.org/1999/xlink" viewBox="0 0 616 423">
  <defs>
    <style>
      .cls-1 {
        clip-path: url(#clippath);
      }

      .cls-2, .cls-3, .cls-4 {
        fill: none;
      }

      .cls-2, .cls-5, .cls-6 {
        stroke-width: 0px;
      }

      .cls-7 {
        clip-path: url(#clippath-1);
      }

      .cls-8 {
        clip-path: url(#clippath-4);
      }

      .cls-9 {
        clip-path: url(#clippath-3);
      }

      .cls-10 {
        clip-path: url(#clippath-2);
      }

      .cls-11 {
        clip-path: url(#clippath-5);
      }

      .cls-3 {
        stroke-width: .5px;
      }

      .cls-3, .cls-4 {
        stroke: #fff;
      }

      .cls-4 {
        stroke-width: 3px;
      }

      .cls-6 {
        fill: #fff;
      }
    </style>
    <clipPath id="clippath">
      <rect class="cls-2" width="616" height="423"/>
    </clipPath>
    <clipPath id="clippath-1">
      <rect class="cls-2" width="616" height="423"/>
    </clipPath>
    <clipPath id="clippath-2">
      <rect class="cls-2" width="616" height="423"/>
    </clipPath>
    <clipPath id="clippath-3">
      <rect class="cls-2" width="616" height="423"/>
    </clipPath>
    <clipPath id="clippath-4">
      <rect class="cls-2" width="616" height="423"/>
    </clipPath>
    <clipPath id="clippath-5">
      <rect class="cls-2" width="616" height="423"/>
    </clipPath>
  </defs>
  <g class="cls-1">
    <g class="cls-7">
      <path class="cls-6" d="M590.43,53.53v-9.83h4.48c3.49,0,5.44,1.71,5.44,4.91s-1.94,4.91-5.44,4.91h-4.48ZM588.83,54.91h6.14c4.43,0,7-2.25,7-6.3s-2.57-6.3-7-6.3h-6.14v12.6ZM572.75,54.91h1.6v-10.39l9.85,10.39h1.73v-12.6h-1.62v10.48l-9.85-10.48h-1.71v12.6ZM560.03,49.77l3.15-5.83,3.11,5.83h-6.26ZM555.48,54.91h1.76l2.03-3.76h7.78l2.02,3.76h1.8l-6.84-12.6h-1.67l-6.88,12.6ZM543.47,47.71v-4.01h5.89c1.87,0,2.93.65,2.93,1.96,0,1.39-.99,2.05-2.97,2.05h-5.85ZM543.47,53.53v-4.41h5.85c2.23,0,3.37.72,3.37,2.2s-1.17,2.21-3.26,2.21h-5.96ZM541.87,54.91h7.67c3.01,0,4.77-1.3,4.77-3.49,0-1.73-1.13-2.74-2.68-3.01,1.42-.32,2.29-1.31,2.29-2.79,0-2.12-1.67-3.31-4.21-3.31h-7.83v12.6Z"/>
      <path class="cls-6" d="M546.93,39.13c3.38,0,5.35-1.6,5.35-4.32s-1.85-4.21-5.09-4.21c-1.82,0-3.01.61-3.62,1.21l.72-4.1h6.98v-1.39h-8.26l-1.17,6.84,1.51.5c.61-.9,1.67-1.71,3.65-1.71,2.36,0,3.67,1.04,3.67,2.86s-1.31,2.93-3.76,2.93c-2.11,0-3.28-.92-3.82-2.21l-1.57.5c.74,1.53,2.29,3.1,5.4,3.1"/>
      <path class="cls-6" d="M462.67,363.28v-.07c0-1.43.74-2.14,1.82-2.14s1.81.7,1.81,2.14v.06c0,1.44-.73,2.14-1.81,2.14s-1.82-.7-1.82-2.14ZM464.49,366.1c1.65,0,2.68-1.16,2.68-2.83v-.06c0-1.67-1.03-2.83-2.68-2.83s-2.69,1.16-2.69,2.82v.07c0,1.66,1.03,2.82,2.69,2.82ZM456.26,363.28v-.07c0-1.43.74-2.14,1.82-2.14s1.81.7,1.81,2.14v.06c0,1.44-.73,2.14-1.81,2.14s-1.82-.7-1.82-2.14ZM458.08,366.1c1.65,0,2.67-1.16,2.67-2.83v-.06c0-1.67-1.03-2.83-2.67-2.83s-2.69,1.16-2.69,2.82v.07c0,1.66,1.03,2.82,2.69,2.82ZM451.05,366h3.61v-.69h-1.36v-4.83h-.75l-1.59.92v.87l1.48-.92v3.97h-1.4v.69ZM445.67,366.1c1.7,0,2.54-.59,2.54-1.59v-.03c0-2.29-4.31-1.02-4.31-2.55v-.03c0-.48.43-.88,1.53-.88,1.32,0,1.68.59,1.81,1.2h.86c-.1-1.05-.81-1.85-2.61-1.85-1.68,0-2.43.69-2.43,1.6v.03c0,2.22,4.31,1,4.31,2.52v.03c0,.52-.47.87-1.66.87s-1.81-.33-1.96-1.19h-.85c.2,1.2.99,1.85,2.79,1.85Z"/>
      <path class="cls-6" d="M415.03,366.1c1.54,0,2.5-.79,2.5-2.02v-.02c0-1.14-.88-1.93-2.28-1.93-.8,0-1.39.25-1.66.65l.08-.56.11-1.07h3.33v-.75l-1.1.09h-2.93l-.32,3.03h.84c.25-.42.71-.69,1.52-.69,1.05,0,1.54.54,1.54,1.24v.02c0,.92-.64,1.36-1.64,1.36-.88,0-1.42-.29-1.53-.94h-.85c.21,1.05,1.01,1.61,2.38,1.61M407.81,361.95v-.02c0-.52.41-.87,1.4-.87s1.4.35,1.4.87v.02c0,.48-.41.86-1.4.86s-1.4-.38-1.4-.86M407.7,364.46v-.02c0-.58.51-.95,1.51-.95s1.51.37,1.51.95v.02c0,.61-.52.95-1.51.95s-1.51-.34-1.51-.95ZM409.21,366.1c1.39,0,2.37-.56,2.37-1.59v-.02c0-.74-.57-1.22-1.32-1.35.68-.13,1.2-.58,1.2-1.25v-.02c0-.9-.84-1.5-2.26-1.5s-2.26.6-2.26,1.5v.02c0,.67.52,1.12,1.21,1.25-.74.12-1.32.61-1.32,1.35v.02c0,1.03.98,1.59,2.37,1.59M400.93,366.1c1.7,0,2.79-.84,2.97-1.9h-.88c-.2.73-.97,1.21-2.08,1.21-1.39,0-2.36-.78-2.36-2.15v-.04c0-1.37.97-2.15,2.36-2.15,1.11,0,1.88.48,2.08,1.22h.88c-.18-1.06-1.27-1.9-2.97-1.9-2.02,0-3.22,1.2-3.22,2.84v.04c0,1.64,1.2,2.84,3.22,2.84Z"/>
      <path class="cls-6" d="M510.95,366.1c1.53,0,2.5-.79,2.5-2.02v-.02c0-1.14-.88-1.92-2.28-1.92-.8,0-1.4.25-1.66.65l.09-.56.11-1.07h3.33v-.75l-1.1.09h-2.93l-.32,3.03h.84c.25-.42.71-.69,1.52-.69,1.05,0,1.54.54,1.54,1.24v.02c0,.92-.64,1.36-1.64,1.36-.88,0-1.42-.29-1.53-.94h-.86c.21,1.05,1.01,1.61,2.38,1.61M504.14,366h3.62v-.69h-1.36v-4.83h-.75l-1.58.91v.87l1.48-.92v3.97h-1.4v.69ZM499.8,366h3.62v-.69h-1.36v-4.83h-.75l-1.58.91v.87l1.48-.92v3.97h-1.4v.69ZM492.04,366h4.87v-.69h-3.99v-1.73h3.72v-.69h-3.72v-1.74h3.98v-.69h-4.86v5.52Z"/>
      <path class="cls-6" d="M562.49,366.1c1.54,0,2.5-.79,2.5-2.02v-.02c0-1.14-.88-1.93-2.28-1.93-.8,0-1.39.25-1.66.65l.09-.56.11-1.07h3.33v-.75l-1.1.09h-2.93l-.32,3.03h.84c.25-.42.71-.69,1.52-.69,1.05,0,1.54.54,1.54,1.24v.02c0,.92-.64,1.36-1.64,1.36-.88,0-1.42-.29-1.53-.94h-.86c.21,1.05,1.01,1.61,2.38,1.61M554.44,365.28v.72h4.74v-.69h-3.45c1.43-.7,3.31-1.65,3.31-3.18v-.02c0-1.04-.82-1.74-2.26-1.74-1.19,0-2.24.47-2.37,1.79h.86c.09-.72.57-1.1,1.49-1.1s1.43.38,1.43,1.09v.02c0,1.31-2.21,2.24-3.75,3.1ZM550.19,366h3.61v-.69h-1.36v-4.83h-.75l-1.58.92v.87l1.48-.92v3.97h-1.4v.69ZM542.44,366h4.87v-.69h-3.99v-1.73h3.72v-.69h-3.72v-1.74h3.98v-.68h-4.86v5.52ZM538.14,366.1c1.65,0,2.75-.67,2.75-2.15v-3.46h-.86v3.44c0,.97-.67,1.51-1.89,1.51s-1.88-.54-1.88-1.51v-3.44h-.85v3.46c0,1.49,1.08,2.15,2.73,2.15Z"/>
      <path class="cls-6" d="M370.46,366.1c1.54,0,2.5-.79,2.5-2.02v-.02c0-1.14-.88-1.93-2.28-1.93-.8,0-1.4.25-1.66.65l.09-.56.11-1.07h3.33v-.75l-1.1.09h-2.93l-.32,3.03h.84c.25-.42.71-.69,1.52-.69,1.05,0,1.54.54,1.54,1.24v.02c0,.92-.64,1.36-1.64,1.36-.88,0-1.42-.29-1.53-.94h-.86c.21,1.05,1.01,1.61,2.38,1.61M364.14,366h.84l2.46-4.93v-.59h-4.45v.8l1.34-.12h2.22l-2.41,4.83ZM357.47,366.1c1.7,0,2.79-.84,2.97-1.9h-.88c-.2.73-.97,1.21-2.07,1.21-1.39,0-2.36-.78-2.36-2.15v-.04c0-1.37.97-2.15,2.36-2.15,1.1,0,1.88.48,2.07,1.22h.88c-.18-1.06-1.27-1.9-2.97-1.9-2.02,0-3.22,1.2-3.22,2.84v.04c0,1.64,1.2,2.84,3.22,2.84ZM350.25,366.1c1.65,0,2.75-.67,2.75-2.15v-3.46h-.86v3.44c0,.97-.67,1.51-1.88,1.51s-1.88-.54-1.88-1.51v-3.44h-.86v3.46c0,1.49,1.08,2.15,2.73,2.15Z"/>
    </g>
    <line class="cls-3" x1="308" y1="78" x2="308" y2="366"/>
    <line class="cls-3" x1="572.6" y1="87.02" x2="337.59" y2="87.02"/>
    <line class="cls-3" x1="572.6" y1="96.86" x2="337.59" y2="96.86"/>
    <line class="cls-3" x1="572.6" y1="106.7" x2="337.59" y2="106.7"/>
    <line class="cls-3" x1="572.6" y1="116.54" x2="337.59" y2="116.54"/>
    <line class="cls-3" x1="572.6" y1="126.38" x2="337.59" y2="126.38"/>
    <line class="cls-3" x1="572.6" y1="136.22" x2="337.59" y2="136.22"/>
    <line class="cls-3" x1="572.6" y1="146.06" x2="337.59" y2="146.06"/>
    <line class="cls-3" x1="572.6" y1="155.9" x2="337.59" y2="155.9"/>
    <line class="cls-3" x1="572.6" y1="165.74" x2="337.59" y2="165.74"/>
    <line class="cls-3" x1="572.6" y1="175.58" x2="337.59" y2="175.58"/>
    <line class="cls-3" x1="572.6" y1="185.42" x2="337.59" y2="185.42"/>
    <line class="cls-3" x1="572.6" y1="195.26" x2="337.59" y2="195.26"/>
    <line class="cls-3" x1="572.6" y1="205.09" x2="337.59" y2="205.09"/>
    <line class="cls-3" x1="572.6" y1="214.93" x2="337.59" y2="214.93"/>
    <line class="cls-3" x1="572.6" y1="224.77" x2="337.59" y2="224.77"/>
    <line class="cls-3" x1="572.6" y1="234.61" x2="337.59" y2="234.61"/>
    <line class="cls-3" x1="572.6" y1="244.45" x2="337.59" y2="244.45"/>
    <line class="cls-3" x1="572.6" y1="254.29" x2="337.59" y2="254.29"/>
    <line class="cls-3" x1="572.6" y1="264.13" x2="337.59" y2="264.13"/>
    <line class="cls-3" x1="572.6" y1="273.97" x2="337.59" y2="273.97"/>
    <line class="cls-3" x1="572.6" y1="283.81" x2="337.59" y2="283.81"/>
    <line class="cls-3" x1="572.6" y1="293.65" x2="337.59" y2="293.65"/>
    <line class="cls-3" x1="572.6" y1="303.49" x2="337.59" y2="303.49"/>
    <line class="cls-3" x1="572.6" y1="313.33" x2="337.59" y2="313.33"/>
    <line class="cls-3" x1="572.6" y1="323.17" x2="337.59" y2="323.17"/>
    <line class="cls-3" x1="572.6" y1="333.01" x2="337.59" y2="333.01"/>
    <line class="cls-3" x1="572.6" y1="342.85" x2="337.59" y2="342.85"/>
    <g class="cls-10">
      <path class="cls-6" d="M438.43,40.39v-10.4h9.88c4.88,0,7.08,1.92,7.08,5.16,0,3.52-2.4,5.24-7.32,5.24h-9.64ZM434.87,54.91h3.56v-11.4h9.76l7.6,11.4h4.28l-8.16-11.76c4.48-.92,7.08-3.76,7.08-8,0-5.04-3.68-8.24-10.28-8.24h-13.84v28ZM406.11,54.91h23.68v-3.08h-20.12v-9.36h17.88v-3.12h-17.88v-9.36h20.08v-3.08h-23.64v28ZM374.99,51.83v-21.84h9.96c7.76,0,12.08,3.8,12.08,10.92s-4.32,10.92-12.08,10.92h-9.96ZM371.43,54.91h13.64c9.84,0,15.56-5,15.56-14s-5.72-14-15.56-14h-13.64v28ZM345.08,40.39v-10.4h9.88c4.88,0,7.08,1.92,7.08,5.16,0,3.52-2.4,5.24-7.32,5.24h-9.64ZM341.52,54.91h3.56v-11.4h9.76l7.6,11.4h4.28l-8.16-11.76c4.48-.92,7.08-3.76,7.08-8,0-5.04-3.68-8.24-10.28-8.24h-13.84v28ZM304.4,40.91c0-6.48,5.28-11.4,14.04-11.4s14.08,4.92,14.08,11.4-5.28,11.4-14.08,11.4-14.04-4.92-14.04-11.4M318.44,55.39c10.72,0,17.64-6.28,17.64-14.48s-6.92-14.48-17.64-14.48-17.64,6.28-17.64,14.48,6.92,14.48,17.64,14.48M281.84,55.39c7.76,0,12.84-3.24,15.44-8.16l-3.4-1.12c-2.24,4.08-6.08,6.2-12.04,6.2-7.6,0-13.12-4.4-13.12-11.4s5.56-11.4,13.12-11.4c5.96,0,9.8,2.12,12.04,6.2l3.4-1.12c-2.6-4.92-7.68-8.16-15.44-8.16-10.04,0-16.76,5.96-16.76,14.48s6.84,14.48,16.76,14.48M237,46.47h24.84v-2.76h-24.84v2.76ZM210.12,54.91h23.68v-3.08h-20.12v-9.36h17.88v-3.12h-17.88v-9.36h20.08v-3.08h-23.64v28ZM189.6,54.91h3.56v-24.92h12.2v-3.08h-27.96v3.08h12.2v24.92ZM157.32,54.91h3.56v-24.92h12.2v-3.08h-27.96v3.08h12.2v24.92ZM117.12,54.91h23.68v-3.08h-20.12v-9.36h17.88v-3.12h-17.88v-9.36h20.08v-3.08h-23.64v28ZM99.56,55.39c8,0,12.04-3.2,12.04-7.96,0-10.44-20.56-6.84-20.56-13.48,0-3.2,3.44-4.48,8.2-4.48,5.2,0,7.88,1.84,9.08,4.92l3.36-1.04c-1.76-4.48-5.76-6.92-12.32-6.92-7.32,0-11.92,3.04-11.92,7.6,0,9.8,20.56,6,20.56,13.44,0,2.92-2.36,4.84-8.36,4.84s-8.68-1.84-9.96-5.72l-3.24,1.08c1.44,4.28,5.12,7.72,13.12,7.72M60.16,43.47l7-12.96,6.92,12.96h-13.92ZM50.04,54.91h3.92l4.52-8.36h17.28l4.48,8.36h4l-15.2-28h-3.72l-15.28,28ZM32.64,55.39c7.76,0,12.84-3.24,15.44-8.16l-3.4-1.12c-2.24,4.08-6.08,6.2-12.04,6.2-7.6,0-13.12-4.4-13.12-11.4s5.56-11.4,13.12-11.4c5.96,0,9.8,2.12,12.04,6.2l3.4-1.12c-2.6-4.92-7.68-8.16-15.44-8.16-10.04,0-16.76,5.96-16.76,14.48s6.84,14.48,16.76,14.48"/>
      <rect class="cls-6" x="354.94" y="86.77" width="10.36" height="256.34" rx="2.3" ry="2.3"/>
      <rect class="cls-6" x="402.43" y="86.77" width="10.36" height="256.34" rx="2.3" ry="2.3"/>
      <rect class="cls-6" x="449.92" y="86.77" width="10.36" height="256.34" rx="2.3" ry="2.3"/>
      <rect class="cls-6" x="497.4" y="86.77" width="10.36" height="256.34" rx="2.3" ry="2.3"/>
      <rect class="cls-6" x="544.9" y="86.77" width="10.36" height="256.34" rx="2.3" ry="2.3"/>
      <rect class="cls-5" x="354.94" y="185.97" width="10.36" height="57.93" rx="2.3" ry="2.3"/>
      <rect class="cls-4" x="354.94" y="185.97" width="10.36" height="57.93" rx="2.3" ry="2.3"/>
      <rect class="cls-5" x="402.43" y="185.97" width="10.36" height="57.93" rx="2.3" ry="2.3"/>
      <rect class="cls-4" x="402.43" y="185.97" width="10.36" height="57.93" rx="2.3" ry="2.3"/>
      <rect class="cls-5" x="449.92" y="185.97" width="10.36" height="57.93" rx="2.3" ry="2.3"/>
      <rect class="cls-4" x="449.92" y="185.97" width="10.36" height="57.93" rx="2.3" ry="2.3"/>
      <rect class="cls-5" x="497.4" y="283.17" width="10.36" height="57.93" rx="2.3" ry="2.3"/>
      <rect class="cls-4" x="497.4" y="283.17" width="10.36" height="57.93" rx="2.3" ry="2.3"/>
      <rect class="cls-5" x="544.9" y="185.97" width="10.36" height="57.93" rx="2.3" ry="2.3"/>
      <rect class="cls-4" x="544.9" y="185.97" width="10.36" height="57.93" rx="2.3" ry="2.3"/>
    </g>
    <line class="cls-3" x1="602" y1="387.13" x2="14" y2="387.13"/>
    <line class="cls-3" x1="602" y1="408.88" x2="14" y2="408.88"/>
    <g class="cls-9">
      <path class="cls-6" d="M595.98,402.25h1.22v-3.15c0-1.29.7-1.82,1.47-1.82.65,0,1.21.23,1.21,1.32v3.65h1.22v-3.78c0-1.72-1.14-2.32-2.14-2.32-.75,0-1.46.34-1.78,1.1v-3.49h-1.22v8.49ZM593.62,402.25h.97v-1.05l-.89.05c-.41,0-.41-.27-.41-.61v-3.33h1.42v-1h-1.88c.5-.25.83-.81.83-1.56h-1.22c0,.71-.12,1.31-.62,1.56h-.91v1h1.16v3.29c0,1.35.64,1.65,1.55,1.65ZM585.29,399.3v-.05c0-1.46.68-2.11,1.67-2.11.87,0,1.71.5,1.71,2.11v.05c0,1.61-.84,2.11-1.71,2.11-.99,0-1.67-.65-1.67-2.11M586.84,402.4c.77,0,1.5-.3,1.8-.71v.56h1.22v-8.49h-1.22v3.11c-.3-.42-1.03-.71-1.8-.71-1.56,0-2.78,1.21-2.78,3.1v.05c0,1.89,1.22,3.1,2.78,3.1ZM581.16,394.78c0,.49.36.78.78.78s.78-.3.78-.78-.36-.78-.78-.78-.78.3-.78.78M581.33,402.25h1.22v-5.94h-1.22v5.94ZM573.34,402.25h1.81l.88-4.49.88,4.49h1.81l1.51-5.94h-1.16l-1.28,5.05-.96-5.05h-1.6l-.96,5.05-1.19-5.05h-1.19l1.45,5.94ZM565.59,402.4c1.92,0,3.1-1.29,3.1-3.11v-.03c0-1.78-1.25-2.96-2.75-2.96-.65,0-1.41.23-1.84.8l.16-.88.16-1.43h3.6v-1.2l-1.08.15h-3.54l-.54,4.52h1.35c.3-.64.86-.86,1.47-.86,1.1,0,1.74.71,1.74,1.85v.03c0,1.39-.71,2.06-1.85,2.06-.84,0-1.55-.36-1.61-1.3h-1.25c.25,1.62,1.42,2.35,2.86,2.35ZM556.06,402.25h4.5v-1.05h-1.62v-7.44h-1.31l-1.59.86v1.59l1.65-1.09v6.08h-1.62v1.05ZM548.56,402.25h4.5v-1.05h-1.62v-7.44h-1.31l-1.59.86v1.59l1.65-1.09v6.08h-1.62v1.05ZM538.5,394.13h-.92v6.5h5.26l-1.24,1.17h1.11l1.59-1.57-1.59-1.58h-1.11l1.24,1.18h-4.34v-5.7ZM528.55,402.25h.98v-1.05l-.89.05c-.41,0-.41-.27-.41-.61v-3.33h1.42v-1h-1.87c.5-.25.82-.81.82-1.56h-1.22c0,.71-.12,1.31-.62,1.56h-.91v1h1.16v3.29c0,1.35.64,1.65,1.55,1.65ZM519.71,402.25h1.22v-3.15c0-1.29.7-1.82,1.48-1.82.65,0,1.21.23,1.21,1.32v3.65h1.22v-3.78c0-1.72-1.14-2.32-2.14-2.32-.75,0-1.46.34-1.78,1.1v-3.49h-1.22v8.49ZM513.24,399.15v-.05c0-1.35.81-1.95,1.68-1.95s1.7.6,1.7,1.95v.05c0,1.33-.81,1.95-1.69,1.95s-1.7-.62-1.7-1.95ZM514.99,404.95c2.44,0,2.82-1.73,2.82-2.7v-5.94h-1.22v.61c-.34-.5-1.07-.76-1.86-.76-1.57,0-2.72,1.06-2.72,2.95v.05c0,1.93,1.21,2.95,2.68,2.95.74,0,1.46-.26,1.9-.81v1.09c0,1.37-.89,1.58-1.51,1.58-.89,0-1.65-.41-1.66-1.4h-1.22c0,1.12.7,2.4,2.8,2.4ZM509.11,394.78c0,.49.36.78.78.78s.78-.3.78-.78-.36-.78-.78-.78-.78.3-.78.78M509.28,402.25h1.22v-5.94h-1.22v5.94ZM503.23,398.65c.17-1.02.8-1.53,1.67-1.53,1.04,0,1.64.72,1.64,1.53h-3.32ZM504.94,402.4c1.22,0,2.56-.64,2.79-1.97h-1.23c-.15.76-.79,1.01-1.51,1.01-1.13,0-1.74-.61-1.81-1.83h4.57c.1-2.19-1.06-3.46-2.83-3.46-1.86,0-2.95,1.41-2.95,3.12v.08c0,1.88,1.31,3.05,2.96,3.05ZM494.51,402.25h1.81l.88-4.49.88,4.49h1.81l1.51-5.94h-1.16l-1.28,5.05-.96-5.05h-1.6l-.96,5.05-1.19-5.05h-1.19l1.45,5.94ZM487.49,400.96l2.36-4.98c.14.5.22,1.15.22,1.98v.1c0,2.39-.65,3.3-1.62,3.3-.37,0-.69-.12-.95-.39ZM486.75,398.05v-.1c0-2.39.69-3.3,1.69-3.3.34,0,.64.11.88.35l-2.35,4.98c-.14-.49-.22-1.13-.22-1.93ZM488.44,402.4c1.92,0,2.87-1.76,2.87-4.35v-.1c0-2.59-.95-4.35-2.87-4.35s-2.94,1.76-2.94,4.35v.1c0,2.59.97,4.35,2.94,4.35M479.99,400.96l2.36-4.98c.14.5.22,1.15.22,1.98v.1c0,2.39-.65,3.3-1.62,3.3-.37,0-.69-.12-.95-.39ZM479.25,398.05v-.1c0-2.39.69-3.3,1.69-3.3.34,0,.64.11.88.35l-2.35,4.98c-.14-.49-.22-1.13-.22-1.93ZM480.94,402.4c1.92,0,2.87-1.76,2.87-4.35v-.1c0-2.59-.95-4.35-2.87-4.35s-2.94,1.76-2.94,4.35v.1c0,2.59.97,4.35,2.94,4.35M471.23,402.25h4.5v-1.05h-1.62v-7.44h-1.31l-1.59.86v1.59l1.65-1.09v6.08h-1.62v1.05ZM461.17,394.13h-.92v6.5h5.26l-1.24,1.17h1.11l1.59-1.57-1.59-1.58h-1.11l1.24,1.18h-4.34v-5.7Z"/>
      <path class="cls-6" d="M142.44,399.18l2.76-4.4v4.4h-2.76ZM145.2,402.25h1.25v-2.02h1.42v-1.05h-1.42v-5.42h-1.8l-3.5,5.58v.9h4.05v2.02ZM136.12,400.82l2.4-5.08c.19.52.3,1.25.3,2.21v.1c0,2.39-.65,3.3-1.62,3.3-.42,0-.79-.16-1.07-.53M135.5,398.05v-.1c0-2.39.69-3.3,1.69-3.3.28,0,.53.08.75.24l-2.29,4.84c-.1-.45-.15-1-.15-1.68ZM134.97,401.19h.02c.49.77,1.23,1.21,2.21,1.21,1.93,0,2.88-1.76,2.88-4.35v-.1c0-2.59-.95-4.35-2.88-4.35s-2.94,1.76-2.94,4.35v.1c0,1.28.24,2.36.72,3.12h0ZM125.24,402.25h1.22v-3.15c0-1.29.7-1.83,1.48-1.83.65,0,1.21.23,1.21,1.33v3.65h1.23v-3.77c0-1.73-1.14-2.32-2.14-2.32-.75,0-1.46.34-1.78,1.1v-.94h-1.22v5.94ZM119.43,400.6v-.02c0-.58.5-.85,1.15-.91l1.65-.16v.42c0,1.08-.81,1.51-1.64,1.51-.71,0-1.16-.32-1.16-.84h0ZM120.44,402.4c.71,0,1.53-.26,1.81-.95v.8h1.15v-3.92c0-1.62-1.24-2.17-2.4-2.17-1.23,0-2.39.61-2.51,1.96h1.22c.01-.61.5-1,1.26-1,.85,0,1.21.49,1.21,1.09v.42l-1.8.18c-1.31.13-2.12.68-2.12,1.78v.02c0,1.1,1.02,1.8,2.17,1.8ZM115.51,402.25h1.22v-8.49h-1.22v8.49ZM109.37,399.3v-.05c0-1.6.91-2.1,1.71-2.1.96,0,1.69.65,1.69,2.1v.05c0,1.45-.71,2.1-1.69,2.1-.82,0-1.71-.5-1.71-2.1ZM108.2,404.79h1.22v-3.11c.31.41,1.06.71,1.88.71,1.56,0,2.7-1.2,2.7-3.1v-.05c0-1.9-1.28-3.1-2.75-3.1-.91,0-1.57.46-1.82.92v-.77h-1.22v8.49ZM101.59,402.25h1.22v-2.73l2.82,2.73h1.53l-3.07-2.98,2.84-2.97h-1.53l-2.59,2.72v-5.26h-1.22v8.49ZM97.27,402.25h1.17v-2.91c0-1.02.45-1.82,1.26-1.82l.77.11v-1.32h-.71c-.47,0-1.11.25-1.32,1.01v-1.01h-1.17v5.94ZM90.96,399.3v-.05c0-1.4.75-2.1,1.77-2.1s1.78.7,1.78,2.1v.05c0,1.4-.75,2.1-1.78,2.1s-1.77-.7-1.77-2.1M92.74,402.4c1.62,0,3.03-1.07,3.03-3.1v-.05c0-2.02-1.4-3.1-3.03-3.1s-3.02,1.07-3.02,3.1v.05c0,2.03,1.4,3.1,3.02,3.1M80.29,402.25h2.01l1.54-6.47,1.54,6.47h2.01l1.83-8.49h-1.35l-1.53,7.39-1.72-7.39h-1.55l-1.72,7.39-1.53-7.39h-1.35l1.82,8.49ZM72.6,402.25h1.17v-2.91c0-1.02.45-1.82,1.26-1.82l.78.11v-1.32h-.71c-.47,0-1.11.25-1.33,1.01v-1.01h-1.17v5.94ZM66.55,398.65c.17-1.02.8-1.53,1.67-1.53,1.04,0,1.64.72,1.64,1.53h-3.32ZM68.26,402.4c1.22,0,2.56-.64,2.79-1.98h-1.23c-.15.76-.79,1.01-1.51,1.01-1.13,0-1.74-.61-1.81-1.83h4.57c.1-2.19-1.06-3.46-2.83-3.46-1.87,0-2.95,1.41-2.95,3.12v.08c0,1.88,1.31,3.05,2.96,3.05ZM58.72,402.25h1.22v-3.15c0-1.29.7-1.83,1.48-1.83.65,0,1.21.23,1.21,1.33v3.65h1.22v-3.77c0-1.73-1.14-2.32-2.14-2.32-.75,0-1.46.34-1.78,1.1v-.94h-1.22v5.94ZM51.74,402.25h1.22v-3.15c0-1.29.7-1.83,1.48-1.83.65,0,1.21.23,1.21,1.33v3.65h1.22v-3.77c0-1.73-1.14-2.32-2.14-2.32-.75,0-1.46.34-1.78,1.1v-.94h-1.22v5.94ZM45.93,400.6v-.02c0-.58.5-.85,1.15-.91l1.65-.16v.42c0,1.08-.81,1.51-1.64,1.51-.71,0-1.16-.32-1.16-.84h0ZM46.94,402.4c.71,0,1.53-.26,1.81-.95v.8h1.15v-3.92c0-1.62-1.24-2.17-2.4-2.17-1.23,0-2.39.61-2.51,1.96h1.22c.01-.61.5-1,1.26-1,.85,0,1.21.49,1.21,1.09v.42l-1.8.18c-1.31.13-2.12.68-2.12,1.78v.02c0,1.1,1.02,1.8,2.17,1.8ZM42.01,402.25h1.22v-8.49h-1.22v8.49ZM35.91,398.04v-3.23h2.18c.92,0,1.42.45,1.42,1.53v.1c0,1.17-.7,1.6-1.42,1.6h-2.18ZM34.66,402.25h1.25v-3.16h2.25c1.53,0,2.6-1.09,2.6-2.67v-.1c0-1.51-.99-2.56-2.6-2.56h-3.5v8.49ZM25.75,402.25h1.25v-3.96h3.59v-1.05h-3.59v-2.43h4.07v-1.05h-5.32v8.49ZM15.05,402.25h1.25v-7.34l2.17,7.34h1.75l2.18-7.34v7.34h1.25v-8.49h-2.11l-2.19,7.24-2.19-7.24h-2.11v8.49Z"/>
    </g>
    <line class="cls-3" x1="602" y1="14" x2="14" y2="14"/>
    <g class="cls-8">
      <path class="cls-6" d="M69.51,307.31c50.34,50.34,131.95,50.34,182.29,0s50.34-131.95,0-182.29c-50.34-50.34-131.95-50.34-182.29,0-50.34,50.34-50.34,131.95,0,182.29"/>
      <path class="cls-5" d="M130.51,246.32c16.65,16.65,43.65,16.65,60.3,0,16.65-16.65,16.65-43.65,0-60.3-16.65-16.65-43.65-16.65-60.3,0-16.65,16.65-16.65,43.65,0,60.3"/>
      <path class="cls-6" d="M132.9,243.93c15.33,15.33,40.19,15.33,55.52,0,15.33-15.33,15.33-40.19,0-55.52s-40.19-15.33-55.52,0c-15.33,15.33-15.33,40.19,0,55.52"/>
      <path class="cls-5" d="M135.95,240.88c13.65,13.65,35.77,13.65,49.42,0,13.65-13.65,13.65-35.77,0-49.42-13.65-13.65-35.77-13.65-49.42,0-13.65,13.65-13.65,35.77,0,49.42"/>
      <path class="cls-5" d="M239.84,129.66c-4.49-4.49-12.11-4.86-17.01-.81l-28.84,23.8c-4.9,4.05-5.23,10.97-.74,15.46l15.46,15.46c4.49,4.5,11.42,4.17,15.46-.74l23.8-28.84c4.05-4.9,3.68-12.52-.81-17.01l-7.32-7.32Z"/>
      <path class="cls-5" d="M43.5,210.99c0-6.36,5.13-12,11.46-12.6l37.22-3.56c6.33-.61,11.46,4.06,11.46,10.41v21.87c0,6.36-5.13,11.02-11.46,10.41l-37.22-3.56c-6.33-.61-11.46-6.25-11.46-12.6v-10.36Z"/>
      <path class="cls-5" d="M165.84,333.33c6.36,0,12-5.13,12.6-11.46l3.56-37.22c.61-6.33-4.06-11.46-10.41-11.46h-21.87c-6.36,0-11.02,5.13-10.41,11.46l3.56,37.22c.61,6.33,6.25,11.46,12.6,11.46h10.36Z"/>
    </g>
    <rect class="cls-5" x="178.74" y="190.61" width="11.34" height="3.61" transform="translate(-82.04 186.75) rotate(-45)"/>
    <rect class="cls-5" x="132.25" y="237.1" width="11.34" height="3.61" transform="translate(-128.53 167.5) rotate(-45)"/>
    <rect class="cls-6" x="178.74" y="190.61" width="11.34" height="3.61" transform="translate(-82.04 186.75) rotate(-45)"/>
    <rect class="cls-6" x="182.6" y="233.24" width="3.61" height="11.34" transform="translate(-114.92 200.37) rotate(-45)"/>
    <rect class="cls-5" x="122.62" y="213.85" width="11.34" height="3.61"/>
    <rect class="cls-6" x="132.25" y="237.1" width="11.34" height="3.61" transform="translate(-128.53 167.5) rotate(-45)"/>
    <rect class="cls-6" x="136.11" y="186.75" width="3.61" height="11.34" transform="translate(-95.66 153.88) rotate(-45)"/>
    <rect class="cls-5" x="188.37" y="213.85" width="11.34" height="3.61"/>
    <rect class="cls-6" x="122.62" y="213.85" width="11.34" height="3.61"/>
    <rect class="cls-6" x="159.36" y="177.12" width="3.61" height="11.34"/>
    <rect class="cls-6" x="188.37" y="213.85" width="11.34" height="3.61"/>
    <rect class="cls-6" x="159.36" y="242.86" width="3.61" height="11.34"/>
    <g class="cls-11">
      <path class="cls-6" d="M157.44,219.38c1.77,1.77,4.65,1.77,6.43,0,1.77-1.77,1.77-4.65,0-6.43-1.77-1.78-4.65-1.78-6.43,0s-1.77,4.65,0,6.43"/>
    </g>
  </g>
</svg>