<?xml version="1.0" encoding="UTF-8"?>
<svg id="Calque_1" data-name="Calque 1" xmlns="http://www.w3.org/2000/svg" xmlns:xlink="http://www.w3.org/1999/xlink" viewBox="0 0 616 423">
  <defs>
    <style>
      .cls-1, .cls-2, .cls-3, .cls-4, .cls-5, .cls-6, .cls-7, .cls-8, .cls-9, .cls-10 {
        fill: none;
      }

      .cls-1, .cls-3, .cls-4, .cls-5, .cls-6 {
        stroke-linecap: round;
        stroke-linejoin: round;
      }

      .cls-1, .cls-3, .cls-4, .cls-5, .cls-6, .cls-7, .cls-9, .cls-10 {
        stroke: #fff;
      }

      .cls-11 {
        clip-path: url(#clippath);
      }

      .cls-2, .cls-12, .cls-13 {
        stroke-width: 0px;
      }

      .cls-3 {
        stroke-dasharray: 0 0 0 3.01;
      }

      .cls-4 {
        stroke-dasharray: 0 0 0 2.99;
      }

      .cls-5 {
        stroke-dasharray: 0 0 0 2.99;
      }

      .cls-6 {
        stroke-dasharray: 0 0 0 3;
      }

      .cls-14 {
        clip-path: url(#clippath-1);
      }

      .cls-15 {
        clip-path: url(#clippath-4);
      }

      .cls-16 {
        clip-path: url(#clippath-3);
      }

      .cls-17 {
        clip-path: url(#clippath-2);
      }

      .cls-18 {
        clip-path: url(#clippath-6);
      }

      .cls-19 {
        clip-path: url(#clippath-5);
      }

      .cls-7 {
        stroke-width: 3px;
      }

      .cls-8 {
        stroke: #000;
      }

      .cls-10 {
        stroke-miterlimit: 3.13;
      }

      .cls-13 {
        fill: #fff;
      }
    </style>
    <clipPath id="clippath">
      <rect class="cls-2" width="616" height="423"/>
    </clipPath>
    <clipPath id="clippath-1">
      <rect class="cls-2" width="616" height="423"/>
    </clipPath>
    <clipPath id="clippath-2">
      <rect class="cls-2" width="616" height="423"/>
    </clipPath>
    <clipPath id="clippath-3">
      <path class="cls-2" d="M15.5,285.07c0,67.62,54.81,122.43,122.43,122.43s122.43-54.81,122.43-122.43-54.81-122.43-122.43-122.43S15.5,217.46,15.5,285.07"/>
    </clipPath>
    <clipPath id="clippath-4">
      <rect class="cls-2" width="616" height="423"/>
    </clipPath>
    <clipPath id="clippath-5">
      <path class="cls-2" d="M564.47,117.62c0,9.77,7.92,17.69,17.69,17.69s17.69-7.92,17.69-17.69-7.92-17.69-17.69-17.69-17.69,7.92-17.69,17.69"/>
    </clipPath>
    <clipPath id="clippath-6">
      <rect class="cls-2" width="616" height="423"/>
    </clipPath>
  </defs>
  <g class="cls-11">
    <g class="cls-14">
      <path class="cls-13" d="M548.6,107.66v-1.12c0-5.25,3.43-8.82,9.73-10.01l21.28-3.99v7.98c-1.33,11.27-10.01,15.68-19.25,15.68-7.14,0-11.76-2.59-11.76-8.54M581.78,124.88l1.12,1.12h11.27l1.12-1.12v-1.12c-1.54-4.69-2.17-7.07-2.17-14v-29.12c0-15.82-8.68-25.2-27.58-25.2-19.88,0-28.42,10.29-29.33,21.84l1.12,1.12h11.2l1.12-1.12c1.12-6.65,6.23-10.22,15.47-10.22s14.49,3.36,14.49,13.58v.49l-.91.56-22.12,3.99c-14,2.52-21.49,9.52-21.49,21.21v1.12c0,13.16,9.38,19.39,22.26,19.39,10.85,0,17.15-4.27,21.28-10.36h1.12c.28,2.45.91,4.76,2.03,7.84"/>
    </g>
    <line class="cls-3" x1="140.91" y1="160.73" x2="580.67" y2="100.13"/>
    <path class="cls-1" d="M582.16,99.93h0M137.93,161.14h0"/>
    <line class="cls-6" x1="16.87" y1="284.85" x2="563.04" y2="118.49"/>
    <path class="cls-1" d="M564.47,118.05h0M14,285.72h0"/>
    <line class="cls-5" x1="140.48" y1="407.56" x2="580.32" y2="137.02"/>
    <path class="cls-1" d="M581.6,136.23h0M137.93,409.12h0"/>
    <line class="cls-4" x1="265.03" y1="284.39" x2="598.26" y2="118.29"/>
    <path class="cls-1" d="M599.6,117.62h0M262.36,285.72h0"/>
    <g class="cls-17">
      <path class="cls-13" d="M88.96,38.14c1.95,0,3.37-1.04,3.37-2.83v-.11c0-1.27-.66-1.91-1.6-2.18v-.06c.7-.29,1.37-.95,1.37-2.18v-.11c0-1.52-1.15-2.44-3.07-2.44s-3.2.96-3.37,2.72l.11.11h1.18l.11-.11c.21-1.1.88-1.49,1.89-1.49,1.11,0,1.75.46,1.75,1.33v.11c0,1.18-.91,1.44-1.68,1.44h-.67l-.11.11v1.06l.11.11h.78c.9,0,1.79.48,1.79,1.57v.11c0,.97-.74,1.54-2.01,1.54s-1.97-.55-2.13-1.76l-.11-.11h-1.18l-.11.11c.11,1.79,1.39,3.05,3.57,3.05M79.07,36.37l3.18-5.38c.22.55.34,1.25.34,2.09v.22c0,2.26-.86,3.56-2.25,3.56-.49,0-.92-.17-1.26-.48M78.1,33.3v-.22c0-2.27.85-3.56,2.23-3.56.49,0,.92.16,1.27.48l-3.17,5.37c-.21-.55-.32-1.25-.32-2.07M80.32,38.14c2.34,0,3.66-2.02,3.66-4.84v-.22c0-2.83-1.32-4.84-3.66-4.84s-3.62,2.01-3.62,4.84v.22c0,2.83,1.28,4.84,3.62,4.84M70.57,38h1.12l.11-.11v-4.42c0-1.52-.77-2.52-2.39-2.52-1.01,0-1.81.39-2.07,1.04h-.13v-.81l-.11-.11h-1.12l-.11.11v6.72l.11.11h1.12l.11-.11v-3.98c.08-1.15.74-1.76,1.81-1.76.78,0,1.44.32,1.44,1.46v4.27l.11.11ZM59.7,36.17v-.11c0-.52.34-.88.97-1l2.13-.4v.8c-.13,1.13-1,1.57-1.93,1.57-.71,0-1.18-.26-1.18-.85M63.02,37.89l.11.11h1.13l.11-.11v-.11c-.15-.47-.22-.71-.22-1.4v-2.91c0-1.58-.87-2.52-2.76-2.52-1.99,0-2.84,1.03-2.93,2.18l.11.11h1.12l.11-.11c.11-.67.62-1.02,1.55-1.02s1.45.34,1.45,1.36v.05l-.09.06-2.21.4c-1.4.25-2.15.95-2.15,2.12v.11c0,1.32.94,1.94,2.23,1.94,1.08,0,1.72-.43,2.13-1.04h.11c.03.24.09.47.2.78M55.58,38h1.12l.11-.11v-9.41l-.11-.11h-1.12l-.11.11v9.41l.11.11ZM48.58,34.83v-.6c.1-1.66,1.19-2.11,2.07-2.11,1.31,0,2.02.98,2.02,2.29v.22c0,1.31-.71,2.3-2.02,2.3-.88,0-1.97-.45-2.07-2.11M50.93,38.11c1.69,0,3.13-1.16,3.13-3.48v-.22c0-2.32-1.44-3.46-3.13-3.46-1,0-1.81.38-2.23,1.01h-.13v-.78l-.11-.11h-1.12l-.11.11v9.63l.11.11h1.12l.11-.11v-3.69h.13c.42.62,1.23,1.01,2.23,1.01M40.31,38h1.12l.11-.11v-1.99l1.12-1.15,1.93,3.13.15.12h1.29l.11-.11v-.11l-2.55-3.98,2.48-2.52v-.11l-.11-.11h-1.32l-3.11,3.16v-5.74l-.11-.11h-1.12l-.11.11v9.41l.11.11ZM35.58,38h1.12l.11-.11v-3.91c.08-1.12.78-1.58,1.9-1.58h.34l.11-.11v-1.12l-.11-.11h-.34c-.92,0-1.53.38-1.78,1.04h-.13v-.92l-.11-.11h-1.12l-.11.11v6.72l.11.11ZM28.69,34.6v-.14c0-1.31.66-2.39,2.02-2.39s2.02,1.08,2.02,2.39v.14c0,1.31-.66,2.39-2.02,2.39s-2.02-1.08-2.02-2.39M30.71,38.14c1.74,0,3.36-1.14,3.36-3.54v-.14c0-2.4-1.62-3.54-3.36-3.54s-3.36,1.14-3.36,3.54v.14c0,2.4,1.62,3.54,3.36,3.54M17.05,38h1.16l.11-.11,2.28-7.15h.11l2.28,7.15.11.11h1.16l.11-.11,2.6-9.3v-.11l-.11-.11h-1.23l-.11.11-1.82,7.03h-.11l-2.16-7.03-.11-.11h-1.34l-.11.11-2.16,7.03h-.11l-1.82-7.03-.11-.11h-1.23l-.11.11v.11l2.6,9.3.11.11Z"/>
      <path class="cls-13" d="M71.19,26.11c2.15.04,2.93-.89,2.93-1.98v-.11c0-2.84-4.34-1.5-4.34-3.06v-.08c0-.54.55-.83,1.44-.81.9.01,1.39.32,1.47.98l.1.11h1.06l.12-.11c.03-1.22-.85-2.08-2.67-2.11-1.86-.04-2.87.82-2.87,2.07v.11c0,2.64,4.34,1.29,4.34,2.97v.08c0,.62-.64.8-1.46.79-1.08-.02-1.67-.34-1.69-1.13l-.11-.11h-1.17l-.11.11c.05,1.49,1.11,2.25,2.97,2.28M61.57,22.93v-.8c.13-1.58,1.2-2.01,2.07-2.01,1.31,0,2.02.98,2.02,2.29v.22c0,1.31-.71,2.3-2.02,2.3-.87,0-1.94-.43-2.07-2.01M63.92,26.11c1.69,0,3.13-1.16,3.13-3.48v-.22c0-2.32-1.44-3.46-3.13-3.46-1,0-1.81.38-2.23,1.01h-.13v-3.47l-.11-.11h-1.12l-.11.11v9.41l.11.11h1.12l.11-.11v-.78h.13c.42.62,1.23,1.01,2.23,1.01M55.61,26h1.12l.11-.11v-3.91c.08-1.12.78-1.58,1.9-1.58h.34l.11-.11v-1.12l-.11-.11h-.34c-.92,0-1.53.38-1.78,1.04h-.13v-.92l-.11-.11h-1.12l-.11.11v6.72l.11.11ZM50.34,26.11c.98,0,1.74-.39,2-1.04h.13v.81l.11.11h1.12l.11-.11v-6.72l-.11-.11h-1.12l-.11.11v3.98c-.07,1.15-.7,1.75-1.74,1.75-.74,0-1.37-.32-1.37-1.46v-4.27l-.11-.11h-1.12l-.11.11v4.42c0,1.52.75,2.52,2.32,2.52M38.34,26h1.17l.11-.11v-7.38h.11l4.7,7.49h1.51l.11-.11v-9.41l-.11-.11h-1.12l-.11.11v7.38h-.11l-4.7-7.49h-1.57l-.11.11v9.41l.11.11ZM27.2,26h1.18l.11-.11v-3.63l.11-.11h4.09l.11-.11v-1.06l-.11-.11h-4.09l-.11-.11v-2.98l.11-.11h4.59l.11-.11v-1.06l-.11-.11h-5.99l-.11.11v9.41l.11.11ZM19.61,26h.67l.11-.11,2.8-6.94h.11v6.94l.11.11h1.18l.11-.11v-9.41l-.11-.11h-1.74l-.11.11-2.74,6.89h-.11l-2.74-6.89-.11-.11h-1.74l-.11.11v9.41l.11.11h1.18l.11-.11v-6.94h.11l2.8,6.94.11.11Z"/>
      <path class="cls-13" d="M407.86,38h5.43l.11-.11v-1.06l-.11-.11h-1.9l-.11-.11v-8.12l-.11-.11h-1.17l-.11.11c-.01.97-.78,1.58-1.96,1.57l-.11.11v1.06l.11.11c.99,0,1.46-.13,1.85-.5h.11v5.76l-.11.11h-1.9l-.11.11v1.06l.11.11ZM400.51,36.37l3.18-5.38c.22.55.34,1.25.34,2.09v.22c0,2.26-.86,3.56-2.25,3.56-.49,0-.92-.17-1.26-.48M399.55,33.3v-.22c0-2.27.85-3.56,2.23-3.56.49,0,.92.16,1.27.48l-3.17,5.37c-.21-.55-.32-1.25-.32-2.07M401.77,38.14c2.34,0,3.66-2.02,3.66-4.84v-.22c0-2.83-1.32-4.84-3.66-4.84s-3.62,2.02-3.62,4.84v.22c0,2.83,1.28,4.84,3.62,4.84M394.16,38.11c2.15.04,2.93-.89,2.93-1.98v-.11c0-2.84-4.34-1.5-4.34-3.06v-.08c0-.54.55-.83,1.44-.81.9.01,1.39.32,1.47.98l.1.11h1.06l.12-.11c.03-1.22-.85-2.08-2.67-2.11-1.86-.04-2.87.82-2.87,2.07v.11c0,2.64,4.34,1.29,4.34,2.97v.08c0,.62-.64.8-1.46.79-1.09-.02-1.67-.34-1.7-1.13l-.11-.11h-1.18l-.11.11c.05,1.49,1.11,2.25,2.98,2.28M386.15,38.14c2.08,0,3.62-.92,3.62-2.68v-.11c0-3.68-5.77-2.07-5.77-4.47v-.11c0-.78.68-1.25,2.1-1.25s2.02.5,2.19,1.49l.1.11h1.23l.12-.11c-.15-1.64-1.26-2.77-3.63-2.77s-3.52,1.19-3.52,2.63v.17c0,3.52,5.77,2.01,5.77,4.37v.11c0,.79-.73,1.34-2.11,1.34-1.47,0-2.45-.66-2.59-1.82l-.11-.11h-1.18l-.11.11c.09,1.67,1.32,3.11,3.89,3.11"/>
      <path class="cls-13" d="M439.77,22.7c0,1.96,1.11,3.44,3.33,3.44,1.69,0,2.85-.88,3.11-2.32l-.11-.11h-1.12l-.11.11c-.2.7-.71,1.21-1.75,1.21-1.53,0-1.99-1.13-2-2.27h5.1l.11-.11c.07-2.65-1.39-3.72-3.18-3.72-2.18,0-3.37,1.63-3.37,3.67v.11ZM444.93,21.69h-3.73c.19-.91.74-1.65,1.9-1.65s1.79.71,1.82,1.65M433.17,22.83v-.6c.1-1.66,1.19-2.11,2.07-2.11,1.31,0,2.02.98,2.02,2.29v.22c0,1.31-.71,2.3-2.02,2.3-.88,0-1.97-.45-2.07-2.11M435.52,26.11c1.69,0,3.14-1.16,3.14-3.48v-.22c0-2.32-1.44-3.46-3.14-3.46-.99,0-1.81.39-2.23,1.01h-.13v-.78l-.11-.11h-1.12l-.11.11v9.63l.11.11h1.12l.11-.11v-3.7h.13c.42.62,1.23,1.01,2.23,1.01M425.96,28.91h1.1l.11-.11,3.54-9.52v-.11l-.11-.11h-1.15l-.11.11-1.75,4.8h-.12l-1.57-4.8-.11-.11h-1.29l-.11.11v.11l2.51,6.62-1.04,2.84v.06l.11.11ZM422.68,26h.78l.11-.11v-.89l-.11-.11h-.78c-.53,0-.68-.26-.68-.74v-3.96h1.46l.11-.11v-.9l-.11-.11h-1.46v-1.57l-.11-.11h-1.12l-.11.11v1.57h-1.08l-.11.11v.9l.11.11h1.08v3.96c0,1.39.39,1.86,2.02,1.86M413.8,26h1.12l.11-.11v-4.42c0-1.52-.77-2.52-2.39-2.52-1.02,0-1.81.39-2.07,1.04h-.13v-.81l-.11-.11h-1.12l-.11.11v6.72l.11.11h1.12l.11-.11v-3.98c.08-1.15.73-1.76,1.81-1.76.78,0,1.44.32,1.44,1.46v4.27l.11.11ZM401.14,22.7c0,1.96,1.11,3.44,3.33,3.44,1.69,0,2.85-.88,3.11-2.32l-.11-.11h-1.12l-.11.11c-.2.7-.71,1.21-1.75,1.21-1.53,0-1.99-1.13-2-2.27h5.1l.11-.11c.07-2.65-1.39-3.72-3.18-3.72-2.18,0-3.37,1.63-3.37,3.67v.11ZM406.29,21.69h-3.73c.19-.91.73-1.65,1.9-1.65s1.79.71,1.82,1.65M394.53,22.83v-.6c.1-1.66,1.19-2.11,2.07-2.11,1.31,0,2.02.98,2.02,2.29v.22c0,1.31-.71,2.3-2.02,2.3-.88,0-1.97-.45-2.07-2.11M396.89,26.11c1.69,0,3.14-1.16,3.14-3.48v-.22c0-2.32-1.44-3.46-3.14-3.46-.99,0-1.81.39-2.23,1.01h-.13v-.78l-.11-.11h-1.12l-.11.11v9.63l.11.11h1.12l.11-.11v-3.7h.13c.42.62,1.23,1.01,2.23,1.01M383.69,21.3v-.22c0-2.4,1.39-3.54,3.17-3.54s3.17,1.13,3.17,3.54v.22c0,2.4-1.39,3.54-3.17,3.54s-3.17-1.13-3.17-3.54M386.86,26.14c2.65,0,4.59-1.99,4.59-4.84v-.22c0-2.86-1.95-4.84-4.59-4.84s-4.59,1.99-4.59,4.84v.22c0,2.86,1.95,4.84,4.59,4.84"/>
      <path class="cls-13" d="M247.58,38.11c2.15.04,2.93-.89,2.93-1.98v-.11c0-2.84-4.34-1.49-4.34-3.06v-.08c0-.54.55-.83,1.44-.81.9.01,1.39.32,1.47.98l.11.11h1.06l.12-.11c.03-1.22-.85-2.08-2.67-2.11-1.86-.04-2.87.82-2.87,2.07v.11c0,2.64,4.34,1.29,4.34,2.97v.08c0,.62-.64.8-1.46.79-1.08-.02-1.67-.34-1.69-1.13l-.11-.11h-1.18l-.11.11c.05,1.49,1.11,2.25,2.98,2.28M236.9,34.7c0,1.96,1.11,3.44,3.33,3.44,1.69,0,2.85-.88,3.11-2.32l-.11-.11h-1.12l-.11.11c-.2.7-.72,1.2-1.75,1.2-1.53,0-1.99-1.13-2-2.27h5.1l.11-.11c.07-2.65-1.39-3.72-3.18-3.72-2.18,0-3.37,1.63-3.37,3.67v.11ZM242.05,33.69h-3.73c.19-.91.74-1.65,1.9-1.65s1.79.71,1.82,1.65M234.27,38h1.12l.11-.11v-9.41l-.11-.11h-1.12l-.11.11v9.41l.11.11ZM228.3,40.91h1.1l.11-.11,3.54-9.52v-.11l-.11-.11h-1.15l-.11.11-1.75,4.8h-.12l-1.57-4.8-.11-.11h-1.29l-.11.11v.11l2.51,6.62-1.04,2.84v.06l.11.11ZM225.01,38h.78l.11-.11v-.89l-.11-.11h-.78c-.53,0-.68-.26-.68-.74v-3.96h1.46l.11-.11v-.89l-.11-.11h-1.46v-1.57l-.11-.11h-1.12l-.11.11v1.57h-1.08l-.11.11v.89l.11.11h1.08v3.96c0,1.39.39,1.86,2.02,1.86M218.06,38.11c2.15.04,2.93-.89,2.93-1.98v-.11c0-2.84-4.34-1.49-4.34-3.06v-.08c0-.54.55-.83,1.44-.81.9.01,1.39.32,1.47.98l.1.11h1.06l.12-.11c.03-1.22-.85-2.08-2.67-2.11-1.86-.04-2.87.82-2.87,2.07v.11c0,2.64,4.34,1.29,4.34,2.97v.08c0,.62-.64.8-1.46.79-1.09-.02-1.67-.34-1.69-1.13l-.11-.11h-1.18l-.11.11c.05,1.49,1.11,2.25,2.97,2.28M201.73,36.37l3.18-5.38c.22.55.34,1.25.34,2.09v.22c0,2.25-.86,3.56-2.25,3.56-.49,0-.92-.17-1.26-.48M200.76,33.3v-.22c0-2.27.85-3.56,2.23-3.56.49,0,.92.16,1.27.48l-3.17,5.37c-.21-.55-.32-1.25-.32-2.07M202.98,38.14c2.34,0,3.66-2.02,3.66-4.84v-.22c0-2.83-1.32-4.84-3.66-4.84s-3.62,2.02-3.62,4.84v.22c0,2.83,1.28,4.84,3.62,4.84M192.56,31.56v-.06c0-1.24.83-1.99,1.93-1.99,1.04,0,1.99.64,1.99,1.99v.06c0,1.28-.84,1.96-1.96,1.96-1.18,0-1.96-.72-1.96-1.96M194.56,28.23c-2.18,0-3.4,1.45-3.4,3.28v.06c0,2.02,1.36,3.36,3.3,3.25,1.15-.06,1.74-.59,2.02-1.05h.11v.25c0,1.31-.5,2.84-2.23,2.84-.97,0-1.53-.47-1.73-1.26l-.11-.11h-1.18l-.11.11c.16,1.33,1.06,2.55,3.09,2.55,2.93,0,3.72-2.57,3.72-5.17v-.11c0-3.24-1.36-4.63-3.49-4.63"/>
      <path class="cls-13" d="M237.59,26.11c2.15.04,2.93-.89,2.93-1.98v-.11c0-2.84-4.34-1.5-4.34-3.06v-.08c0-.54.55-.83,1.44-.81.9.01,1.39.32,1.47.98l.11.11h1.06l.12-.11c.03-1.22-.85-2.08-2.67-2.11-1.86-.04-2.87.82-2.87,2.07v.11c0,2.64,4.34,1.29,4.34,2.97v.08c0,.62-.64.8-1.46.79-1.09-.02-1.67-.34-1.69-1.13l-.11-.11h-1.18l-.11.11c.05,1.49,1.11,2.25,2.97,2.28M232.7,26h.78l.11-.11v-.89l-.11-.11h-.78c-.53,0-.68-.26-.68-.74v-3.96h1.46l.11-.11v-.9l-.11-.11h-1.46v-1.57l-.11-.11h-1.12l-.11.11v1.57h-1.08l-.11.11v.9l.11.11h1.08v3.96c0,1.39.39,1.86,2.02,1.86M224.87,26.11c.98,0,1.74-.39,2-1.03h.13v.81l.11.11h1.12l.11-.11v-6.72l-.11-.11h-1.12l-.11.11v3.98c-.07,1.15-.7,1.75-1.74,1.75-.74,0-1.37-.32-1.37-1.46v-4.27l-.11-.11h-1.12l-.11.11v4.42c0,1.52.75,2.52,2.32,2.52M218.36,26.14c1.55,0,2.74-.8,3-2.39l-.11-.11h-1.12l-.11.11c-.13.83-.76,1.21-1.65,1.21-1.46,0-1.96-1.02-1.96-2.32v-.22c0-1.3.5-2.32,1.96-2.32.9,0,1.52.38,1.65,1.21l.11.11h1.12l.11-.11c-.22-1.57-1.3-2.39-2.94-2.39-2.13,0-3.36,1.39-3.36,3.5v.22c0,2.11,1.26,3.5,3.3,3.5M200.96,19.56v-.06c0-1.24.83-1.99,1.93-1.99,1.04,0,1.99.64,1.99,1.99v.06c0,1.28-.84,1.96-1.96,1.96-1.18,0-1.96-.72-1.96-1.96M202.96,16.23c-2.18,0-3.4,1.46-3.4,3.28v.06c0,2.02,1.36,3.36,3.3,3.25,1.15-.06,1.74-.59,2.02-1.05h.11v.25c0,1.31-.5,2.84-2.23,2.84-.97,0-1.53-.47-1.73-1.26l-.11-.11h-1.18l-.11.11c.16,1.33,1.06,2.55,3.09,2.55,2.93,0,3.72-2.57,3.72-5.17v-.11c0-3.23-1.36-4.63-3.49-4.63M193.33,24.37l3.18-5.38c.22.55.34,1.25.34,2.09v.22c0,2.26-.86,3.56-2.25,3.56-.49,0-.92-.17-1.26-.48M192.36,21.3v-.22c0-2.27.85-3.56,2.23-3.56.49,0,.92.16,1.27.48l-3.17,5.37c-.21-.55-.32-1.25-.32-2.07M194.58,26.14c2.34,0,3.66-2.02,3.66-4.84v-.22c0-2.83-1.32-4.84-3.66-4.84s-3.62,2.02-3.62,4.84v.22c0,2.83,1.28,4.84,3.62,4.84"/>
      <path class="cls-13" d="M591.06,38h1.12l.11-.11v-4.42c0-1.52-.77-2.52-2.39-2.52-1.02,0-1.81.39-2.07,1.04h-.13v-3.5l-.11-.11h-1.12l-.11.11v9.41l.11.11h1.12l.11-.11v-3.98c.08-1.15.74-1.76,1.81-1.76.78,0,1.44.32,1.44,1.46v4.27l.11.11ZM583.86,38h.78l.11-.11v-.9l-.11-.11h-.78c-.53,0-.68-.26-.68-.74v-3.96h1.46l.11-.11v-.9l-.11-.11h-1.46v-1.57l-.11-.11h-1.12l-.11.11v1.57h-1.08l-.11.11v.9l.11.11h1.08v3.96c0,1.39.39,1.86,2.02,1.86M573.93,34.63v-.22c0-1.31.71-2.29,2.02-2.29.88,0,1.97.45,2.07,2.11v.6c-.1,1.66-1.19,2.11-2.07,2.11-1.31,0-2.02-.99-2.02-2.3M575.66,38.11c.99,0,1.81-.39,2.23-1.01h.13v.78l.11.11h1.12l.11-.11v-9.41l-.11-.11h-1.12l-.11.11v3.47h-.13c-.42-.62-1.23-1.01-2.23-1.01-1.69,0-3.14,1.15-3.14,3.46v.22c0,2.32,1.44,3.48,3.14,3.48M569.59,29.81l.11.11h1.23l.11-.11v-1.26l-.11-.11h-1.23l-.11.11v1.26ZM569.76,38h1.12l.11-.11v-6.72l-.11-.11h-1.12l-.11.11v6.72l.11.11ZM565.08,38h1.27l.11-.11,1.87-6.72-.11-.11h-1.14l-.11.11-1.2,5.03h-.17l-1.39-5.03-.11-.11h-1.4l-.11.11-1.39,5.03h-.17l-1.2-5.03-.11-.11h-1.13l-.11.11,1.85,6.72.11.11h1.28l.11-.11,1.49-5.31h.17l1.49,5.31.11.11ZM549.11,36.37l3.18-5.38c.22.55.34,1.25.34,2.09v.22c0,2.25-.86,3.56-2.25,3.56-.49,0-.92-.17-1.26-.48M548.14,33.3v-.22c0-2.27.85-3.56,2.23-3.56.49,0,.92.16,1.27.48l-3.17,5.37c-.21-.55-.32-1.25-.32-2.07M550.36,38.14c2.34,0,3.66-2.01,3.66-4.84v-.22c0-2.83-1.32-4.84-3.66-4.84s-3.62,2.02-3.62,4.84v.22c0,2.83,1.28,4.84,3.62,4.84M540.57,36.37l3.18-5.38c.22.55.34,1.25.34,2.09v.22c0,2.25-.86,3.56-2.25,3.56-.49,0-.92-.17-1.26-.48M539.6,33.3v-.22c0-2.27.85-3.56,2.23-3.56.49,0,.92.16,1.27.48l-3.17,5.37c-.21-.55-.32-1.25-.32-2.07M541.82,38.14c2.34,0,3.66-2.01,3.66-4.84v-.22c0-2.83-1.32-4.84-3.66-4.84s-3.62,2.02-3.62,4.84v.22c0,2.83,1.28,4.84,3.62,4.84M530.98,38h5.43l.11-.11v-1.06l-.11-.11h-1.9l-.11-.11v-8.12l-.11-.11h-1.18l-.11.11c-.01.97-.78,1.58-1.96,1.57l-.11.11v1.06l.11.11c.99,0,1.46-.13,1.85-.5h.11v5.76l-.11.11h-1.9l-.11.11v1.06l.11.11ZM516.28,28.37h-1.17l-.11.11v7.05l.11.11h7.5v.06l-2.07,2.07v.11l.11.11h1.4l2.58-2.63v-.78l-2.58-2.63h-1.4l-.11.11v.11l2.07,2.07v.06h-6.22v-5.82l-.11-.11Z"/>
      <path class="cls-13" d="M599.14,26h.78l.11-.11v-.9l-.11-.11h-.78c-.53,0-.68-.26-.68-.74v-3.96h1.46l.11-.11v-.9l-.11-.11h-1.46v-1.57l-.11-.11h-1.12l-.11.11v1.57h-1.08l-.11.11v.9l.11.11h1.08v3.96c0,1.39.39,1.86,2.02,1.86M593.61,26h1.12l.11-.11v-4.42c0-1.52-.77-2.52-2.39-2.52-1.02,0-1.81.39-2.07,1.04h-.13v-3.5l-.11-.11h-1.12l-.11.11v9.41l.11.11h1.12l.11-.11v-3.98c.08-1.15.73-1.76,1.81-1.76.78,0,1.44.32,1.44,1.46v4.27l.11.11ZM581.65,22.57v-.22c0-1.3.71-2.26,2.02-2.26.87,0,1.94.43,2.07,2v.74c-.13,1.59-1.21,1.99-2.07,1.99-1.31,0-2.02-.96-2.02-2.25M583.76,29.05c1.98,0,3.33-.87,3.33-3.05v-6.83l-.11-.11h-1.12l-.11.11v.81h-.13c-.42-.68-1.15-1.06-2.18-1.06-1.81,0-3.18,1.22-3.18,3.43v.22c0,2.21,1.37,3.43,3.18,3.43,1.03,0,1.76-.39,2.18-1.06h.13v1.09c0,1.37-.69,1.9-1.93,1.9-1.08,0-1.81-.41-1.91-1.26l-.11-.11h-1.12l-.11.11c0,1.65,1.38,2.38,3.21,2.38M577.31,17.81l.11.11h1.23l.11-.11v-1.26l-.11-.11h-1.23l-.11.11v1.26ZM577.48,26h1.12l.11-.11v-6.72l-.11-.11h-1.12l-.11.11v6.72l.11.11ZM569.27,22.7c0,1.96,1.11,3.44,3.33,3.44,1.69,0,2.85-.88,3.11-2.32l-.11-.11h-1.12l-.11.11c-.2.7-.71,1.21-1.75,1.21-1.53,0-1.99-1.13-2-2.27h5.1l.11-.11c.07-2.65-1.38-3.72-3.18-3.72-2.18,0-3.37,1.63-3.37,3.67v.11ZM574.43,21.69h-3.72c.19-.91.73-1.65,1.9-1.65s1.79.71,1.82,1.65M565.08,26h1.27l.11-.11,1.87-6.72-.11-.11h-1.14l-.11.11-1.2,5.03h-.17l-1.39-5.03-.11-.11h-1.4l-.11.11-1.39,5.03h-.17l-1.2-5.03-.11-.11h-1.13l-.11.11,1.85,6.72.11.11h1.28l.11-.11,1.49-5.31h.17l1.49,5.31.11.11ZM549.11,24.37l3.18-5.38c.22.55.34,1.25.34,2.09v.22c0,2.25-.86,3.56-2.25,3.56-.49,0-.92-.17-1.26-.48M548.14,21.3v-.22c0-2.27.85-3.56,2.23-3.56.49,0,.92.16,1.27.48l-3.17,5.37c-.21-.55-.32-1.25-.32-2.07M550.36,26.14c2.34,0,3.66-2.01,3.66-4.84v-.22c0-2.83-1.32-4.84-3.66-4.84s-3.62,2.02-3.62,4.84v.22c0,2.83,1.28,4.84,3.62,4.84M540.57,24.37l3.18-5.38c.22.55.34,1.25.34,2.09v.22c0,2.25-.86,3.56-2.25,3.56-.49,0-.92-.17-1.26-.48M539.6,21.3v-.22c0-2.27.85-3.56,2.23-3.56.49,0,.92.16,1.27.48l-3.17,5.37c-.21-.55-.32-1.25-.32-2.07M541.82,26.14c2.34,0,3.66-2.01,3.66-4.84v-.22c0-2.83-1.32-4.84-3.66-4.84s-3.62,2.02-3.62,4.84v.22c0,2.83,1.28,4.84,3.62,4.84M530.98,26h5.43l.11-.11v-1.06l-.11-.11h-1.9l-.11-.11v-8.12l-.11-.11h-1.18l-.11.11c-.01.97-.78,1.58-1.96,1.57l-.11.11v1.06l.11.11c.99,0,1.46-.13,1.85-.5h.11v5.76l-.11.11h-1.9l-.11.11v1.06l.11.11ZM516.28,16.37h-1.17l-.11.11v7.05l.11.11h7.5v.06l-2.07,2.07v.11l.11.11h1.4l2.58-2.63v-.78l-2.58-2.63h-1.4l-.11.11v.11l2.07,2.07v.06h-6.22v-5.82l-.11-.11Z"/>
      <path class="cls-13" d="M545.56,276.64l1.36,1.36h44.2l1.36-1.36v-9.52l-1.36-1.36h-25.16v-1.36c18.36-11.9,26.52-18.61,26.52-30.6v-.68c0-11.56-7.9-19.72-22.35-19.72s-24.31,7.65-24.31,22.95l.68,1.36h11.22l1.36-1.36c.09-8.93,4.84-11.39,10.37-11.39,6.29,0,9.43,3.15,9.43,8.5v.68c0,9.43-9.78,15.73-33.32,30.43v12.07ZM477.05,276.64l1.36,1.36h11.56l1.36-1.36,75.48-112.88v-1.36l-1.36-1.36h-11.56l-1.36,1.36-75.48,112.88v1.36ZM466.26,223.94l1.36,1.36h37.4l1.36-1.36v-9.52l-1.36-1.36h-10.2l-1.36-1.36v-48.96l-1.36-1.36h-10.88l-1.36,1.36c-.25,6.12-4.84,9.69-11.73,9.52l-1.36,1.36v10.2l1.36,1.36c4.93,0,8.84-.76,10.37-2.89h1.36v29.41l-1.36,1.36h-10.88l-1.36,1.36v9.52ZM392.9,255.73v-1.36c0-6.38,4.17-10.71,11.82-12.15l25.84-4.85v9.69c-1.61,13.68-12.15,19.04-23.38,19.04-8.67,0-14.28-3.15-14.28-10.37M433.19,276.64l1.36,1.36h13.68l1.36-1.36v-1.36c-1.87-5.69-2.64-8.58-2.64-17v-35.36c0-19.21-10.54-30.6-33.49-30.6-24.14,0-34.51,12.49-35.61,26.52l1.36,1.36h13.6l1.36-1.36c1.36-8.07,7.57-12.41,18.79-12.41s17.6,4.08,17.6,16.49v.6l-1.11.68-26.86,4.85c-17,3.06-26.1,11.56-26.1,25.75v1.36c0,15.98,11.39,23.54,27.03,23.54,13.17,0,20.83-5.18,25.84-12.58h1.36c.34,2.98,1.1,5.78,2.46,9.52M291.16,237.12v-2.72c0-15.9,8.58-27.79,24.48-27.79,10.71,0,23.97,5.44,25.16,25.58v7.31c-1.19,20.15-14.45,25.59-25.16,25.59-15.89,0-24.48-12.07-24.48-27.96M312.24,279.36c12.07,0,21.93-4.68,27.03-12.24h1.53v9.52l1.36,1.36h14.28l1.36-1.36v-81.6l-1.36-1.36h-14.28l-1.36,1.36v9.52h-1.53c-5.1-7.57-14.96-12.24-27.03-12.24-20.57,0-38.08,13.94-38.08,42.07v2.72c0,28.13,17.51,42.24,38.08,42.24"/>
      <path class="cls-13" d="M536.72,407.64l1.1,1.36h44.2l1.61-1.36,2.04-9.52-1.11-1.36h-24.65l.34-1.36c20.23-11.39,29.84-18.02,32.39-29.32l.17-.76c2.72-12.41-5.95-20.91-20.32-20.91s-23.71,7.65-26.94,22.95l.34,1.36h11.22l1.7-1.36c1.96-8.93,6.72-11.39,12.24-11.39,6.29,0,9.35,3.15,8.16,8.42l-.17.76c-2.12,9.44-13.09,15.72-39.78,30.43l-.17.68-2.38,11.39ZM471.61,407.64l1.1,1.36h11.56l1.61-1.36,99.45-112.88.34-1.36-1.11-1.36h-11.56l-1.61,1.36-99.54,112.88-.25,1.36ZM467.02,354.94l1.11,1.36h37.4l1.61-1.36,2.04-9.52-1.11-1.36h-10.2l-1.02-1.36,10.37-48.96-1.11-1.36h-10.88l-1.61,1.36c-1.53,6.12-6.89,9.69-13.77,9.52l-1.62,1.36-2.21,10.2,1.1,1.36c4.93,0,9.01-.76,10.97-2.89h1.36l-6.21,29.41-1.7,1.36h-10.88l-1.61,1.36-2.04,9.52ZM387.12,385.11l.26-1.36c1.1-5.78,6.2-9.1,15.04-10.71l26.01-4.68-2.12,9.86c-4.34,13.77-15.64,19.21-26.18,19.21-9.69,0-14.37-5.01-13.01-12.33M422.74,407.64l1.11,1.36h13.68l1.61-1.36.26-1.36c-.6-5.69-.76-8.58,1.02-17l7.48-35.36c4.08-19.21-6.97-30.6-29.92-30.6-24.14,0-34.93,12.5-38.25,26.52l1.02,1.36h13.6l1.7-1.36c2.64-8.07,9.27-12.41,20.48-12.41s17.6,4.08,14.96,16.49l-.09.6-1.27.68-27.03,4.67c-18.53,3.23-29.58,9.27-32.21,23.21l-.25,1.36c-2.81,14.79,7.05,26.6,24.22,26.6,12.07,0,20.06-5.36,26.1-12.92h1.36c-.26,2.98-.09,5.78.42,9.52M289.37,366.84l.6-2.72c3.4-15.38,12.75-26.52,28.48-26.52,10.8,0,24.31,6.04,20.99,28.82l-1.19,5.35c-5.01,19.21-18.1,24.31-28.81,24.31-15.9,0-23.72-12.66-20.06-29.24M305.01,410.36c11.64,0,19.38-4.68,26.1-12.24h1.53l-2.04,9.52,1.11,1.36h13.6l1.61-1.36,17.43-81.6-1.11-1.36h-13.6l-1.61,1.36-2.04,9.52h-1.61c-3.57-7.56-14.96-12.24-27.29-12.24-21.42,0-38.34,14.03-43.86,39.44l-.6,2.72c-6.46,29.67,11.22,44.88,32.39,44.88"/>
      <path class="cls-13" d="M168.54,251.45c1.26,0,2.28-1.02,2.28-2.28s-1.02-2.27-2.28-2.27-2.28,1.02-2.28,2.27,1.02,2.28,2.28,2.28"/>
      <path class="cls-8" d="M168.54,251.45c1.26,0,2.28-1.02,2.28-2.28s-1.02-2.27-2.28-2.27-2.28,1.02-2.28,2.27,1.02,2.28,2.28,2.28Z"/>
      <path class="cls-13" d="M168.54,291.98c1.26,0,2.28-1.02,2.28-2.28s-1.02-2.27-2.28-2.27-2.28,1.02-2.28,2.27,1.02,2.28,2.28,2.28"/>
      <path class="cls-8" d="M168.54,291.98c1.26,0,2.28-1.02,2.28-2.28s-1.02-2.27-2.28-2.27-2.28,1.02-2.28,2.27,1.02,2.28,2.28,2.28Z"/>
      <path class="cls-12" d="M137.93,407.5c67.62,0,122.43-54.81,122.43-122.43s-54.81-122.43-122.43-122.43S15.5,217.46,15.5,285.07s54.81,122.43,122.43,122.43"/>
    </g>
    <g class="cls-16">
      <path class="cls-13" d="M-182.84,216.54v-9.62c0-45.08,29.45-75.73,83.54-85.94l182.7-34.26v68.51c-11.42,96.76-85.94,134.62-165.28,134.62-61.3,0-100.97-22.24-100.97-73.32M102.04,364.38l9.62,9.62h96.76l9.62-9.62v-9.62c-13.22-40.27-18.63-60.7-18.63-120.2V-15.45c0-135.83-74.52-216.36-236.79-216.36-170.68,0-244.01,88.35-251.82,187.51l9.62,9.62h96.16l9.62-9.62c9.62-57.1,53.49-87.75,132.82-87.75S83.41-103.19,83.41-15.45v4.21l-7.81,4.81L-114.32,27.82c-120.2,21.64-184.51,81.74-184.51,182.1v9.62c0,112.99,80.53,166.48,191.12,166.48,93.15,0,147.24-36.66,182.7-88.95h9.62c2.4,21.03,7.81,40.87,17.43,67.31"/>
    </g>
    <g class="cls-15">
      <path class="cls-7" d="M137.93,407.5c67.62,0,122.43-54.81,122.43-122.43s-54.81-122.43-122.43-122.43S15.5,217.46,15.5,285.07s54.81,122.43,122.43,122.43Z"/>
      <path class="cls-12" d="M137.93,411.28c1.26,0,2.28-1.02,2.28-2.28s-1.02-2.28-2.28-2.28-2.28,1.02-2.28,2.28,1.02,2.28,2.28,2.28"/>
      <path class="cls-9" d="M137.93,411.28c1.26,0,2.28-1.02,2.28-2.28s-1.02-2.28-2.28-2.28-2.28,1.02-2.28,2.28,1.02,2.28,2.28,2.28Z"/>
      <path class="cls-12" d="M137.93,163.42c1.26,0,2.28-1.02,2.28-2.28s-1.02-2.27-2.28-2.27-2.28,1.02-2.28,2.27,1.02,2.28,2.28,2.28"/>
      <path class="cls-9" d="M137.93,163.42c1.26,0,2.28-1.02,2.28-2.28s-1.02-2.27-2.28-2.27-2.28,1.02-2.28,2.27,1.02,2.28,2.28,2.28Z"/>
      <path class="cls-12" d="M112.33,376.28c1.26,0,2.28-1.02,2.28-2.28s-1.02-2.27-2.28-2.27-2.28,1.02-2.28,2.27,1.02,2.28,2.28,2.28"/>
      <path class="cls-9" d="M112.33,376.28c1.26,0,2.28-1.02,2.28-2.28s-1.02-2.27-2.28-2.27-2.28,1.02-2.28,2.27,1.02,2.28,2.28,2.28Z"/>
      <path class="cls-12" d="M102.2,366.35c1.26,0,2.28-1.02,2.28-2.28s-1.02-2.27-2.28-2.27-2.28,1.02-2.28,2.27,1.02,2.28,2.28,2.28"/>
      <path class="cls-9" d="M102.2,366.35c1.26,0,2.28-1.02,2.28-2.28s-1.02-2.27-2.28-2.27-2.28,1.02-2.28,2.27,1.02,2.28,2.28,2.28Z"/>
      <path class="cls-12" d="M84.72,299.35c1.26,0,2.28-1.02,2.28-2.28s-1.02-2.28-2.28-2.28-2.28,1.02-2.28,2.28,1.02,2.28,2.28,2.28"/>
      <path class="cls-9" d="M84.72,299.35c1.26,0,2.28-1.02,2.28-2.28s-1.02-2.28-2.28-2.28-2.28,1.02-2.28,2.28,1.02,2.28,2.28,2.28Z"/>
      <path class="cls-12" d="M75.58,299.35c1.26,0,2.28-1.02,2.28-2.28s-1.02-2.28-2.28-2.28-2.28,1.02-2.28,2.28,1.02,2.28,2.28,2.28"/>
      <path class="cls-9" d="M75.58,299.35c1.26,0,2.28-1.02,2.28-2.28s-1.02-2.28-2.28-2.28-2.28,1.02-2.28,2.28,1.02,2.28,2.28,2.28Z"/>
      <path class="cls-12" d="M208.85,376.28c1.26,0,2.28-1.02,2.28-2.28s-1.02-2.27-2.28-2.27-2.28,1.02-2.28,2.27,1.02,2.28,2.28,2.28"/>
      <path class="cls-9" d="M208.85,376.28c1.26,0,2.28-1.02,2.28-2.28s-1.02-2.27-2.28-2.27-2.28,1.02-2.28,2.27,1.02,2.28,2.28,2.28Z"/>
      <path class="cls-12" d="M217.98,367.1c1.26,0,2.28-1.02,2.28-2.28s-1.02-2.27-2.28-2.27-2.28,1.02-2.28,2.27,1.02,2.28,2.28,2.28"/>
      <path class="cls-9" d="M217.98,367.1c1.26,0,2.28-1.02,2.28-2.28s-1.02-2.27-2.28-2.27-2.28,1.02-2.28,2.27,1.02,2.28,2.28,2.28Z"/>
      <path class="cls-12" d="M217.98,357.18c1.26,0,2.28-1.02,2.28-2.28s-1.02-2.28-2.28-2.28-2.28,1.02-2.28,2.28,1.02,2.28,2.28,2.28"/>
      <path class="cls-9" d="M217.98,357.18c1.26,0,2.28-1.02,2.28-2.28s-1.02-2.28-2.28-2.28-2.28,1.02-2.28,2.28,1.02,2.28,2.28,2.28Z"/>
      <path class="cls-12" d="M14,288c1.26,0,2.28-1.02,2.28-2.28s-1.02-2.27-2.28-2.27-2.28,1.02-2.28,2.27,1.02,2.28,2.28,2.28"/>
      <path class="cls-9" d="M14,288c1.26,0,2.28-1.02,2.28-2.28s-1.02-2.27-2.28-2.27-2.28,1.02-2.28,2.27,1.02,2.28,2.28,2.28Z"/>
      <path class="cls-13" d="M261.86,288c1.26,0,2.28-1.02,2.28-2.28s-1.02-2.27-2.28-2.27-2.28,1.02-2.28,2.27,1.02,2.28,2.28,2.28"/>
      <path class="cls-8" d="M261.86,288c1.26,0,2.28-1.02,2.28-2.28s-1.02-2.27-2.28-2.27-2.28,1.02-2.28,2.27,1.02,2.28,2.28,2.28Z"/>
      <path class="cls-12" d="M582.16,135.32c9.77,0,17.69-7.92,17.69-17.69s-7.92-17.69-17.69-17.69-17.69,7.92-17.69,17.69,7.92,17.69,17.69,17.69"/>
    </g>
    <g class="cls-19">
      <path class="cls-10" d="M548.6,107.66v-1.12c0-5.25,3.43-8.82,9.73-10.01l21.28-3.99v7.98c-1.33,11.27-10.01,15.68-19.25,15.68-7.14,0-11.76-2.59-11.76-8.54ZM581.78,124.88l1.12,1.12h11.27l1.12-1.12v-1.12c-1.54-4.69-2.17-7.07-2.17-14v-29.12c0-15.82-8.68-25.2-27.58-25.2-19.88,0-28.42,10.29-29.33,21.84l1.12,1.12h11.2l1.12-1.12c1.12-6.65,6.23-10.22,15.47-10.22s14.49,3.36,14.49,13.58v.49l-.91.56-22.12,3.99c-14,2.52-21.49,9.52-21.49,21.21v1.12c0,13.16,9.38,19.39,22.26,19.39,10.85,0,17.15-4.27,21.28-10.36h1.12c.28,2.45.91,4.76,2.03,7.84Z"/>
    </g>
    <g class="cls-18">
      <circle class="cls-9" cx="582.16" cy="117.62" r="17.69"/>
      <path class="cls-12" d="M582.16,102.2c1.26,0,2.28-1.02,2.28-2.28s-1.02-2.27-2.28-2.27-2.28,1.02-2.28,2.27,1.02,2.28,2.28,2.28"/>
      <path class="cls-9" d="M582.16,102.2c1.26,0,2.28-1.02,2.28-2.28s-1.02-2.27-2.28-2.27-2.28,1.02-2.28,2.27,1.02,2.28,2.28,2.28Z"/>
      <path class="cls-12" d="M564.47,120.33c1.26,0,2.28-1.02,2.28-2.28s-1.02-2.27-2.28-2.27-2.28,1.02-2.28,2.27,1.02,2.28,2.28,2.28"/>
      <path class="cls-9" d="M564.47,120.33c1.26,0,2.28-1.02,2.28-2.28s-1.02-2.27-2.28-2.27-2.28,1.02-2.28,2.27,1.02,2.28,2.28,2.28Z"/>
      <path class="cls-12" d="M599.6,119.9c1.26,0,2.28-1.02,2.28-2.28s-1.02-2.27-2.28-2.27-2.28,1.02-2.28,2.27,1.02,2.28,2.28,2.28"/>
      <path class="cls-9" d="M599.6,119.9c1.26,0,2.28-1.02,2.28-2.28s-1.02-2.27-2.28-2.27-2.28,1.02-2.28,2.27,1.02,2.28,2.28,2.28Z"/>
      <path class="cls-12" d="M581.6,138.51c1.26,0,2.28-1.02,2.28-2.28s-1.02-2.27-2.28-2.27-2.28,1.02-2.28,2.27,1.02,2.28,2.28,2.28"/>
      <path class="cls-9" d="M581.6,138.51c1.26,0,2.28-1.02,2.28-2.28s-1.02-2.27-2.28-2.27-2.28,1.02-2.28,2.27,1.02,2.28,2.28,2.28Z"/>
      <path class="cls-13" d="M326.25,126.32c6.14.12,8.36-2.56,8.36-5.66v-.32c0-8.12-12.4-4.28-12.4-8.74v-.22c0-1.54,1.56-2.36,4.12-2.32,2.58.04,3.98.92,4.2,2.8l.3.32h3.04l.34-.32c.08-3.48-2.42-5.94-7.64-6.02-5.32-.1-8.2,2.34-8.2,5.9v.32c0,7.56,12.4,3.68,12.4,8.5v.22c0,1.76-1.82,2.28-4.18,2.24-3.1-.06-4.76-.98-4.84-3.22l-.32-.32h-3.36l-.32.32c.14,4.26,3.18,6.42,8.5,6.52M296.27,116.56c0,5.6,3.18,9.84,9.52,9.84,4.82,0,8.14-2.52,8.88-6.64l-.32-.32h-3.2l-.32.32c-.58,2-2.04,3.44-5,3.44-4.38,0-5.68-3.22-5.72-6.48h14.56l.32-.32c.2-7.56-3.96-10.64-9.1-10.64-6.24,0-9.62,4.66-9.62,10.48v.32ZM310.99,113.68h-10.64c.54-2.6,2.1-4.72,5.44-4.72s5.12,2.02,5.2,4.72M289.12,126h3.2l.32-.32v-12.64c0-4.34-2.2-7.2-6.84-7.2-2.9,0-5.16,1.12-5.92,2.96h-.36v-2.32l-.32-.32h-3.2l-.32.32v19.2l.32.32h3.2l.32-.32v-11.36c.22-3.3,2.1-5.02,5.16-5.02,2.22,0,4.12.92,4.12,4.18v12.2l.32.32ZM267.08,102.6l.32.32h3.52l.32-.32v-3.6l-.32-.32h-3.52l-.32.32v3.6ZM267.56,126h3.2l.32-.32v-19.2l-.32-.32h-3.2l-.32.32v19.2l.32.32ZM259.12,126h3.2l.32-.32v-26.88l-.32-.32h-3.2l-.32.32v26.88l.32.32ZM239.27,116.94v-1.72c.28-4.74,3.4-6.02,5.92-6.02,3.74,0,5.76,2.8,5.76,6.54v.64c0,3.74-2.02,6.58-5.76,6.58-2.52,0-5.64-1.28-5.92-6.02M245.99,126.32c4.84,0,8.96-3.32,8.96-9.94v-.64c0-6.62-4.12-9.9-8.96-9.9-2.84,0-5.16,1.1-6.36,2.88h-.36v-2.24l-.32-.32h-3.2l-.32.32v27.52l.32.32h3.2l.32-.32v-10.56h.36c1.2,1.78,3.52,2.88,6.36,2.88M220.48,126.4c5.94,0,10.34-2.64,10.34-7.66v-.32c0-10.52-16.5-5.9-16.5-12.78v-.32c0-2.24,1.94-3.58,6-3.58s5.76,1.42,6.26,4.24l.3.32h3.52l.34-.32c-.42-4.68-3.6-7.9-10.38-7.9s-10.06,3.4-10.06,7.52v.48c0,10.06,16.5,5.76,16.5,12.5v.32c0,2.26-2.08,3.82-6.02,3.82-4.2,0-7-1.88-7.4-5.2l-.32-.32h-3.36l-.32.32c.26,4.76,3.76,8.88,11.1,8.88M193.45,114.32v2.72l.32.32h10.88l.32-.32v-2.72l-.32-.32h-10.88l-.32.32ZM171.43,109.76v-7.28l.32-.32h7.2c3.08,0,4.8,1.02,4.8,3.82v.32c0,2.98-2.12,3.78-4.48,3.78h-7.52l-.32-.32ZM171.43,122v-8.08l.32-.32h7.36c3.6,0,5.44,1.44,5.44,4.34v.32c0,2.88-1.84,4.06-5.28,4.06h-7.52l-.32-.32ZM167.74,126h12c5.52,0,8.8-2.96,8.8-7.68v-.32c0-3.36-1.44-5.12-3.68-6.24v-.32c1.56-.88,2.88-2.6,2.88-5.48v-.32c0-4.6-2.92-7.16-8.48-7.16h-11.52l-.32.32v26.88l.32.32ZM148.51,126h3.2l.32-.32v-26.88l-.32-.32h-3.2l-.32.32v26.88l.32.32ZM130.81,120.76v-.32c0-1.5.98-2.52,2.78-2.86l6.08-1.14v2.28c-.38,3.22-2.86,4.48-5.5,4.48-2.04,0-3.36-.74-3.36-2.44M140.29,125.68l.32.32h3.22l.32-.32v-.32c-.44-1.34-.62-2.02-.62-4v-8.32c0-4.52-2.48-7.2-7.88-7.2-5.68,0-8.12,2.94-8.38,6.24l.32.32h3.2l.32-.32c.32-1.9,1.78-2.92,4.42-2.92s4.14.96,4.14,3.88v.14l-.26.16-6.32,1.14c-4,.72-6.14,2.72-6.14,6.06v.32c0,3.76,2.68,5.54,6.36,5.54,3.1,0,4.9-1.22,6.08-2.96h.32c.08.7.26,1.36.58,2.24M119.54,126h3.2l.32-.32v-12.64c0-4.34-2.2-7.2-6.84-7.2-2.9,0-5.16,1.12-5.92,2.96h-.36v-2.32l-.32-.32h-3.2l-.32.32v19.2l.32.32h3.2l.32-.32v-11.36c.22-3.3,2.1-5.02,5.16-5.02,2.22,0,4.12.92,4.12,4.18v12.2l.32.32ZM86.95,116.28v-.4c0-3.74,1.88-6.82,5.76-6.82s5.76,3.08,5.76,6.82v.4c0,3.74-1.88,6.82-5.76,6.82s-5.76-3.08-5.76-6.82M92.71,126.4c4.96,0,9.6-3.26,9.6-10.12v-.4c0-6.86-4.64-10.12-9.6-10.12s-9.6,3.26-9.6,10.12v.4c0,6.86,4.64,10.12,9.6,10.12M75.42,102.6l.32.32h3.52l.32-.32v-3.6l-.32-.32h-3.52l-.32.32v3.6ZM75.9,126h3.2l.32-.32v-19.2l-.32-.32h-3.2l-.32.32v19.2l.32.32ZM69.72,126h2.22l.32-.32v-2.56l-.32-.32h-2.22c-1.52,0-1.94-.74-1.94-2.12v-11.32h4.16l.32-.32v-2.56l-.32-.32h-4.16v-4.48l-.32-.32h-3.2l-.32.32v4.48h-3.08l-.32.32v2.56l.32.32h3.08v11.32c0,3.98,1.12,5.32,5.78,5.32M45.17,120.76v-.32c0-1.5.98-2.52,2.78-2.86l6.08-1.14v2.28c-.38,3.22-2.86,4.48-5.5,4.48-2.04,0-3.36-.74-3.36-2.44M54.65,125.68l.32.32h3.22l.32-.32v-.32c-.44-1.34-.62-2.02-.62-4v-8.32c0-4.52-2.48-7.2-7.88-7.2-5.68,0-8.12,2.94-8.38,6.24l.32.32h3.2l.32-.32c.32-1.9,1.78-2.92,4.42-2.92s4.14.96,4.14,3.88v.14l-.26.16-6.32,1.14c-4,.72-6.14,2.72-6.14,6.06v.32c0,3.76,2.68,5.54,6.36,5.54,3.1,0,4.9-1.22,6.08-2.96h.32c.08.7.26,1.36.58,2.24M21.4,111.28v-8.8l.32-.32h7c3.16,0,5.28,1.08,5.28,4.3v.48c0,3.1-2.12,4.66-5.28,4.66h-7l-.32-.32ZM17.72,126h3.36l.32-.32v-10.28l.32-.32h5.46l.24.2,5.68,10.4.32.32h3.86l.32-.32v-.32l-5.74-10.4v-.22c3.98-1,6.14-4.02,6.14-7.84v-.48c0-4.7-3.26-7.94-9.16-7.94h-11.12l-.32.32v26.88l.32.32Z"/>
      <path class="cls-13" d="M266.94,86h3.2l.32-.32v-26.88l-.32-.32h-3.2l-.32.32v26.88l.32.32ZM249.24,80.76v-.32c0-1.5.98-2.52,2.78-2.86l6.08-1.14v2.28c-.38,3.22-2.86,4.48-5.5,4.48-2.04,0-3.36-.74-3.36-2.44M258.72,85.68l.32.32h3.22l.32-.32v-.32c-.44-1.34-.62-2.02-.62-4v-8.32c0-4.52-2.48-7.2-7.88-7.2-5.68,0-8.12,2.94-8.38,6.24l.32.32h3.2l.32-.32c.32-1.9,1.78-2.92,4.42-2.92s4.14.96,4.14,3.88v.14l-.26.16-6.32,1.14c-4,.72-6.14,2.72-6.14,6.06v.32c0,3.76,2.68,5.54,6.36,5.54,3.1,0,4.9-1.22,6.08-2.96h.32c.08.7.26,1.36.58,2.24M237.92,86h3.2l.32-.32v-12.64c0-4.34-2.14-7.2-6.66-7.2-3.02,0-5.4,1.28-6.22,3.36h-.46c-.98-2.1-2.92-3.36-5.88-3.36-2.8,0-4.94,1.12-5.68,2.96h-.36v-2.32l-.32-.32h-3.2l-.32.32v19.2l.32.32h3.2l.32-.32v-11.38c.2-3.28,1.98-5,4.9-5,2.12,0,3.92.92,3.92,4.18v12.2l.32.32h3.2l.32-.32v-11.84c.34-2.98,2.08-4.54,4.84-4.54,2.12,0,3.92.92,3.92,4.18v12.2l.32.32ZM199.37,86h3.2l.32-.32v-11.18c.22-3.2,2.22-4.5,5.44-4.5h.96l.32-.32v-3.2l-.32-.32h-.96c-2.62,0-4.38,1.08-5.08,2.96h-.36v-2.64l-.32-.32h-3.2l-.32.32v19.2l.32.32ZM179.9,76.28v-.4c0-3.74,1.88-6.82,5.76-6.82s5.76,3.08,5.76,6.82v.4c0,3.74-1.88,6.82-5.76,6.82s-5.76-3.08-5.76-6.82M185.67,86.4c4.96,0,9.6-3.26,9.6-10.12v-.4c0-6.86-4.64-10.12-9.6-10.12s-9.6,3.26-9.6,10.12v.4c0,6.86,4.64,10.12,9.6,10.12M165.65,86h3.2l.32-.32v-16.32h5.28l.32-.32v-2.56l-.32-.32h-5.28v-.96c0-1.92.32-3.52,3.04-3.52h2.24l.32-.32v-2.56l-.32-.32h-2.24c-5.76,0-6.88,3.36-6.88,6.88v.8h-3.36l-.32.32v2.56l.32.32h3.36v16.32l.32.32ZM154.92,62.6l.32.32h3.52l.32-.32v-3.6l-.32-.32h-3.52l-.32.32v3.6ZM155.4,86h3.2l.32-.32v-19.2l-.32-.32h-3.2l-.32.32v19.2l.32.32ZM147.1,86h3.2l.32-.32v-12.64c0-4.34-2.2-7.2-6.84-7.2-2.9,0-5.16,1.12-5.92,2.96h-.36v-2.32l-.32-.32h-3.2l-.32.32v19.2l.32.32h3.2l.32-.32v-11.36c.22-3.3,2.1-5.02,5.16-5.02,2.22,0,4.12.92,4.12,4.18v12.2l.32.32ZM117.23,86.4c7.3.04,10.94-3.94,10.94-11.6v-16l-.32-.32h-3.36l-.32.32v15.84c0,5.3-1.9,8.08-6.94,8.08s-6.94-2.78-6.94-8.08v-15.84l-.32-.32h-3.36l-.32.32v16c0,7.66,3.64,11.56,10.94,11.6M89.04,74.32v2.72l.32.32h10.88l.32-.32v-2.72l-.32-.32h-10.88l-.32.32ZM81.02,86h3.2l.32-.32v-12.64c0-4.34-2.2-7.2-6.84-7.2-2.9,0-5.16,1.12-5.92,2.96h-.36v-2.32l-.32-.32h-3.2l-.32.32v19.2l.32.32h3.2l.32-.32v-11.36c.22-3.3,2.1-5.02,5.16-5.02,2.22,0,4.12.92,4.12,4.18v12.2l.32.32ZM48.44,76.28v-.4c0-3.74,1.88-6.82,5.76-6.82s5.76,3.08,5.76,6.82v.4c0,3.74-1.88,6.82-5.76,6.82s-5.76-3.08-5.76-6.82M54.2,86.4c4.96,0,9.6-3.26,9.6-10.12v-.4c0-6.86-4.64-10.12-9.6-10.12s-9.6,3.26-9.6,10.12v.4c0,6.86,4.64,10.12,9.6,10.12M17.72,86h3.36l.32-.32v-21.08h.32l13.42,21.4h4.32l.32-.32v-26.88l-.32-.32h-3.2l-.32.32v21.08h-.32l-13.42-21.4h-4.48l-.32.32v26.88l.32.32Z"/>
    </g>
  </g>
</svg>