<?xml version="1.0" encoding="UTF-8"?>
<svg id="Calque_1" data-name="Calque 1" xmlns="http://www.w3.org/2000/svg" xmlns:xlink="http://www.w3.org/1999/xlink" viewBox="0 0 616 423">
  <defs>
    <style>
      .cls-1 {
        clip-path: url(#clippath);
      }

      .cls-2, .cls-3, .cls-4, .cls-5 {
        fill: none;
      }

      .cls-2, .cls-6, .cls-7 {
        stroke-width: 0px;
      }

      .cls-3 {
        stroke-width: .51px;
      }

      .cls-3, .cls-4, .cls-5 {
        stroke: #000;
      }

      .cls-8 {
        clip-path: url(#clippath-1);
      }

      .cls-9 {
        clip-path: url(#clippath-3);
      }

      .cls-10 {
        clip-path: url(#clippath-2);
      }

      .cls-4 {
        stroke-width: .5px;
      }

      .cls-7 {
        fill: #fff;
      }
    </style>
    <clipPath id="clippath">
      <rect class="cls-2" width="616" height="423"/>
    </clipPath>
    <clipPath id="clippath-1">
      <rect class="cls-2" width="616" height="423"/>
    </clipPath>
    <clipPath id="clippath-2">
      <rect class="cls-2" width="616" height="423"/>
    </clipPath>
    <clipPath id="clippath-3">
      <rect class="cls-2" width="616" height="423"/>
    </clipPath>
  </defs>
  <g class="cls-1">
    <path class="cls-6" d="M535.39,233.9l4.01,4.01h51.13l4.01-4.01v-31.08l-4.01-4.01h-51.13l-4.01,4.01v31.08ZM540.4,374h49.12l4.01-4.01v-116.29l-4.01-4.01h-49.12l-4.01,4.01v116.29l4.01,4.01ZM454.76,232.52l3.63,3.63h45.24l3.64-3.63v-29.32l-3.64-3.63h-45.24l-3.63,3.63v29.32ZM459.4,374h43.24l3.63-3.63v-117.05l-3.63-3.63h-43.24l-3.63,3.63v117.05l3.63,3.63ZM379.29,231.26l3.26,3.26h39.48l3.13-3.26v-27.7l-3.13-3.13h-39.48l-3.26,3.13v27.7ZM383.56,374h37.47l3.26-3.26v-117.8l-3.26-3.26h-37.47l-3.26,3.26v117.8l3.26,3.26ZM309.42,230.01l2.76,2.76h33.71l2.88-2.76v-26.07l-2.88-2.76h-33.71l-2.76,2.76v26.07ZM313.18,374h31.71l2.88-2.76v-118.8l-2.88-2.76h-31.71l-2.76,2.76v118.8l2.76,2.76ZM244.76,228.63l2.38,2.51h27.95l2.38-2.51v-24.19l-2.38-2.38h-27.95l-2.38,2.38v24.19ZM248.27,374h25.82l2.38-2.38v-119.55l-2.38-2.38h-25.82l-2.51,2.38v119.55l2.51,2.38ZM185.41,227.38l2.01,2.01h22.06l2.01-2.01v-22.56l-2.01-2.01h-22.06l-2.01,2.01v22.56ZM188.42,374h20.05l2.01-2.01v-120.3l-2.01-2.01h-20.05l-2.01,2.01v120.3l2.01,2.01ZM130.37,228.51l1.63,1.63h16.92l1.63-1.63v-18.42l-1.63-1.63h-16.92l-1.63,1.63v18.42ZM133.13,374h14.79l1.63-1.63v-121.06l-1.63-1.63h-14.79l-1.63,1.63v121.06l1.63,1.63ZM79.64,229.63l1.38,1.38h11.53l1.38-1.38v-14.16l-1.38-1.38h-11.53l-1.38,1.38v14.16ZM82.15,374h9.27l1.38-1.38v-121.56l-1.38-1.38h-9.27l-1.38,1.38v121.56l1.38,1.38ZM33.1,230.76l1,1h6.39l1-1v-10.02l-1-1h-6.39l-1,1v10.02ZM35.36,374h4.01l1-1v-122.31l-1-1h-4.01l-1,1v122.31l1,1Z"/>
    <line class="cls-4" x1="602" y1="387.13" x2="14" y2="387.13"/>
    <line class="cls-4" x1="602" y1="408.88" x2="14" y2="408.88"/>
    <g class="cls-8">
      <path class="cls-6" d="M600.21,402.3h1l.1-.1v-3.95c0-1.36-.69-2.25-2.14-2.25-.91,0-1.61.35-1.85.92h-.11v-3.12l-.1-.1h-1l-.1.1v8.4l.1.1h1l.1-.1v-3.55c.07-1.03.66-1.57,1.61-1.57.69,0,1.29.29,1.29,1.31v3.81l.1.1ZM593.91,402.3h.69l.1-.1v-.8l-.1-.1h-.69c-.47,0-.61-.23-.61-.66v-3.54h1.3l.1-.1v-.8l-.1-.1h-1.3v-1.4l-.1-.1h-1l-.1.1v1.4h-.96l-.1.1v.8l.1.1h.96v3.54c0,1.24.35,1.66,1.8,1.66M585.16,399.29v-.2c0-1.17.63-2.04,1.8-2.04.79,0,1.76.4,1.85,1.88v.54c-.09,1.48-1.06,1.88-1.85,1.88-1.17,0-1.8-.89-1.8-2.06M586.71,402.4c.89,0,1.61-.34,1.99-.9h.11v.7l.1.1h1l.1-.1v-8.4l-.1-.1h-1l-.1.1v3.1h-.11c-.38-.56-1.1-.9-1.99-.9-1.51,0-2.8,1.02-2.8,3.09v.2c0,2.07,1.29,3.11,2.8,3.11M581.41,394.99l.1.1h1.1l.1-.1v-1.12l-.1-.1h-1.1l-.1.1v1.12ZM581.56,402.3h1l.1-.1v-6l-.1-.1h-1l-.1.1v6l.1.1ZM577.51,402.3h1.13l.1-.1,1.67-6-.1-.1h-1.02l-.1.1-1.08,4.49h-.15l-1.24-4.49-.1-.1h-1.25l-.1.1-1.24,4.49h-.15l-1.07-4.49-.1-.1h-1.01l-.1.1,1.65,6,.1.1h1.14l.1-.1,1.33-4.74h.15l1.33,4.74.1.1ZM563.5,400.84l2.84-4.81c.19.49.3,1.12.3,1.86v.2c0,2.01-.77,3.17-2.01,3.17-.44,0-.82-.15-1.12-.43M562.64,398.1v-.2c0-2.03.76-3.18,1.99-3.18.44,0,.82.14,1.13.42l-2.83,4.8c-.19-.49-.29-1.11-.29-1.84M564.62,402.42c2.09,0,3.27-1.8,3.27-4.32v-.2c0-2.53-1.18-4.32-3.27-4.32s-3.23,1.8-3.23,4.32v.2c0,2.53,1.14,4.32,3.23,4.32M556,400.84l2.84-4.81c.19.49.3,1.12.3,1.86v.2c0,2.01-.77,3.17-2.01,3.17-.44,0-.82-.15-1.13-.43M555.14,398.1v-.2c0-2.03.76-3.18,1.99-3.18.44,0,.82.14,1.13.42l-2.83,4.8c-.19-.49-.29-1.11-.29-1.84M557.12,402.42c2.09,0,3.27-1.8,3.27-4.32v-.2c0-2.53-1.18-4.32-3.27-4.32s-3.23,1.8-3.23,4.32v.2c0,2.53,1.14,4.32,3.23,4.32M547.56,402.3h4.85l.1-.1v-.95l-.1-.1h-1.7l-.1-.1v-7.25l-.1-.1h-1.05l-.1.1c-.01.86-.7,1.41-1.75,1.4l-.1.1v.95l.1.1c.89,0,1.3-.12,1.65-.44h.1v5.14l-.1.1h-1.7l-.1.1v.95l.1.1ZM534.69,393.7h-1.05l-.1.1v6.3l.1.1h6.7v.05l-1.85,1.85v.1l.1.1h1.25l2.3-2.35v-.7l-2.3-2.35h-1.25l-.1.1v.1l1.85,1.85v.05h-5.55v-5.2l-.1-.1ZM522.12,402.3h.69l.1-.1v-.8l-.1-.1h-.69c-.47,0-.61-.23-.61-.66v-3.54h1.3l.1-.1v-.8l-.1-.1h-1.3v-1.4l-.1-.1h-1l-.1.1v1.4h-.96l-.1.1v.8l.1.1h.96v3.54c0,1.24.35,1.66,1.81,1.66M517.3,402.3h1l.1-.1v-3.95c0-1.36-.69-2.25-2.14-2.25-.91,0-1.61.35-1.85.92h-.11v-3.12l-.1-.1h-1l-.1.1v8.4l.1.1h1l.1-.1v-3.55c.07-1.03.66-1.57,1.61-1.57.69,0,1.29.29,1.29,1.31v3.81l.1.1ZM506.75,399.24v-.2c0-1.16.63-2.01,1.8-2.01.77,0,1.73.38,1.85,1.79v.66c-.12,1.42-1.07,1.78-1.85,1.78-1.17,0-1.8-.86-1.8-2.01M508.63,405.02c1.77,0,2.97-.78,2.97-2.72v-6.1l-.1-.1h-1l-.1.1v.73h-.11c-.38-.61-1.02-.95-1.94-.95-1.62,0-2.84,1.09-2.84,3.06v.2c0,1.97,1.22,3.06,2.84,3.06.92,0,1.57-.34,1.94-.95h.11v.97c0,1.22-.62,1.7-1.72,1.7-.96,0-1.62-.36-1.71-1.13l-.1-.1h-1l-.1.1c0,1.47,1.23,2.12,2.86,2.12M503,394.99l.1.1h1.1l.1-.1v-1.12l-.1-.1h-1.1l-.1.1v1.12ZM503.15,402.3h1l.1-.1v-6l-.1-.1h-1l-.1.1v6l.1.1ZM495.95,399.35c0,1.75.99,3.08,2.98,3.08,1.51,0,2.54-.79,2.77-2.08l-.1-.1h-1l-.1.1c-.18.63-.64,1.08-1.56,1.08-1.37,0-1.77-1.01-1.79-2.03h4.55l.1-.1c.06-2.36-1.24-3.32-2.84-3.32-1.95,0-3.01,1.46-3.01,3.27v.1ZM500.55,398.45h-3.33c.17-.81.66-1.48,1.7-1.48s1.6.63,1.62,1.48M492.33,402.3h1.13l.1-.1,1.67-6-.1-.1h-1.02l-.1.1-1.08,4.49h-.15l-1.24-4.49-.1-.1h-1.25l-.1.1-1.24,4.49h-.15l-1.07-4.49-.1-.1h-1.01l-.1.1,1.65,6,.1.1h1.14l.1-.1,1.33-4.74h.15l1.33,4.74.1.1ZM478.82,400.84l2.84-4.81c.19.49.3,1.12.3,1.86v.2c0,2.01-.77,3.17-2.01,3.17-.44,0-.82-.15-1.12-.43M477.96,398.1v-.2c0-2.03.76-3.18,1.99-3.18.44,0,.82.14,1.13.42l-2.83,4.8c-.19-.49-.29-1.11-.29-1.84M479.94,402.42c2.09,0,3.27-1.8,3.27-4.32v-.2c0-2.53-1.18-4.32-3.27-4.32s-3.23,1.8-3.23,4.32v.2c0,2.53,1.14,4.32,3.23,4.32M471.32,400.84l2.84-4.81c.19.49.3,1.12.3,1.86v.2c0,2.01-.77,3.17-2.01,3.17-.44,0-.82-.15-1.12-.43M470.46,398.1v-.2c0-2.03.76-3.18,1.99-3.18.44,0,.82.14,1.13.42l-2.83,4.8c-.19-.49-.29-1.11-.29-1.84M472.44,402.42c2.09,0,3.27-1.8,3.27-4.32v-.2c0-2.53-1.18-4.32-3.27-4.32s-3.23,1.8-3.23,4.32v.2c0,2.53,1.14,4.32,3.23,4.32M463.14,396.55v-.05c0-1.11.74-1.78,1.73-1.78.93,0,1.77.58,1.77,1.78v.05c0,1.14-.75,1.75-1.75,1.75-1.05,0-1.75-.64-1.75-1.75M464.92,393.58c-1.95,0-3.03,1.3-3.03,2.92v.05c0,1.8,1.21,3,2.95,2.9,1.03-.06,1.56-.52,1.8-.94h.1v.23c0,1.17-.44,2.54-1.99,2.54-.87,0-1.36-.42-1.54-1.13l-.1-.1h-1.05l-.1.1c.14,1.19.95,2.28,2.76,2.28,2.62,0,3.32-2.29,3.32-4.61v-.1c0-2.89-1.21-4.14-3.12-4.14M449.36,397.5v1l.1.1h6.7v.05l-1.85,1.85v.1l.1.1h1.29l2.21-2.25.05-.1v-.7l-.05-.1-2.21-2.25h-1.29l-.1.1v.1l1.85,1.85v.05h-6.7l-.1.1ZM441.22,400.84l2.84-4.81c.19.49.3,1.12.3,1.86v.2c0,2.01-.77,3.17-2.01,3.17-.44,0-.82-.15-1.12-.43M440.36,398.1v-.2c0-2.03.76-3.18,1.99-3.18.44,0,.82.14,1.13.42l-2.83,4.8c-.19-.49-.29-1.11-.29-1.84M442.34,402.42c2.09,0,3.27-1.8,3.27-4.32v-.2c0-2.53-1.18-4.32-3.27-4.32s-3.23,1.8-3.23,4.32v.2c0,2.53,1.14,4.32,3.23,4.32M433.72,400.84l2.84-4.81c.19.49.3,1.12.3,1.86v.2c0,2.01-.77,3.17-2.01,3.17-.44,0-.82-.15-1.12-.43M432.86,398.1v-.2c0-2.03.76-3.18,1.99-3.18.44,0,.82.14,1.13.42l-2.83,4.8c-.19-.49-.29-1.11-.29-1.84M434.84,402.42c2.09,0,3.27-1.8,3.27-4.32v-.2c0-2.53-1.18-4.32-3.27-4.32s-3.23,1.8-3.23,4.32v.2c0,2.53,1.14,4.32,3.23,4.32M425.28,402.3h4.85l.1-.1v-.95l-.1-.1h-1.7l-.1-.1v-7.25l-.1-.1h-1.05l-.1.1c-.01.86-.7,1.41-1.75,1.4l-.1.1v.95l.1.1c.89,0,1.3-.12,1.65-.44h.1v5.14l-.1.1h-1.7l-.1.1v.95l.1.1ZM412.41,393.7h-1.05l-.1.1v6.3l.1.1h6.7v.05l-1.85,1.85v.1l.1.1h1.25l2.3-2.35v-.7l-2.3-2.35h-1.25l-.1.1v.1l1.85,1.85v.05h-5.55v-5.2l-.1-.1Z"/>
      <path class="cls-6" d="M136.36,399.01v-.1l2.45-3.11h.05v3.11l-.05.1h-2.45ZM138.96,402.3h1.05l.1-.1v-1.94l.1-.1h1.18l.1-.1v-.95l-.1-.1h-1.18l-.1-.1v-5.11l-.1-.1h-.95l-4.36,5.56v.8l.1.1h4.01l.05.1v1.94l.1.1ZM129.22,400.84l2.84-4.81c.19.49.3,1.12.3,1.86v.2c0,2.01-.77,3.18-2.01,3.18-.44,0-.82-.15-1.12-.43M128.36,398.1v-.2c0-2.03.76-3.17,1.99-3.17.44,0,.82.14,1.13.42l-2.83,4.79c-.19-.49-.29-1.11-.29-1.84M130.34,402.42c2.09,0,3.27-1.8,3.27-4.32v-.2c0-2.53-1.18-4.32-3.27-4.32s-3.23,1.8-3.23,4.32v.2c0,2.53,1.14,4.32,3.23,4.32M121.64,402.3h1l.1-.1v-3.95c0-1.36-.69-2.25-2.14-2.25-.91,0-1.61.35-1.85.92h-.11v-.72l-.1-.1h-1l-.1.1v6l.1.1h1l.1-.1v-3.55c.07-1.03.66-1.57,1.61-1.57.69,0,1.29.29,1.29,1.31v3.81l.1.1ZM111.93,400.66v-.1c0-.47.31-.79.87-.89l1.9-.36v.71c-.12,1.01-.89,1.4-1.72,1.4-.64,0-1.05-.23-1.05-.76M114.89,402.2l.1.1h1.01l.1-.1v-.1c-.14-.42-.19-.63-.19-1.25v-2.6c0-1.41-.77-2.25-2.46-2.25-1.78,0-2.54.92-2.62,1.95l.1.1h1l.1-.1c.1-.59.56-.91,1.38-.91s1.29.3,1.29,1.21v.04l-.08.05-1.98.36c-1.25.23-1.92.85-1.92,1.89v.1c0,1.18.84,1.73,1.99,1.73.97,0,1.53-.38,1.9-.92h.1c.02.22.08.42.18.7M108.25,402.3h1l.1-.1v-8.4l-.1-.1h-1l-.1.1v8.4l.1.1ZM102,399.47v-.54c.09-1.48,1.06-1.88,1.85-1.88,1.17,0,1.8.88,1.8,2.04v.2c0,1.17-.63,2.06-1.8,2.06-.79,0-1.76-.4-1.85-1.88M104.1,402.4c1.51,0,2.8-1.04,2.8-3.11v-.2c0-2.07-1.29-3.09-2.8-3.09-.89,0-1.61.34-1.99.9h-.11v-.7l-.1-.1h-1l-.1.1v8.6l.1.1h1l.1-.1v-3.3h.11c.38.56,1.1.9,1.99.9M94.62,402.3h1l.1-.1v-1.77l1-1.02,1.73,2.79.13.11h1.16l.1-.1v-.1l-2.28-3.55,2.21-2.25v-.1l-.1-.1h-1.17l-2.78,2.82v-5.12l-.1-.1h-1l-.1.1v8.4l.1.1ZM90.39,402.3h1l.1-.1v-3.49c.07-1,.69-1.41,1.7-1.41h.3l.1-.1v-1l-.1-.1h-.3c-.82,0-1.37.34-1.59.92h-.11v-.82l-.1-.1h-1l-.1.1v6l.1.1ZM84.24,399.26v-.12c0-1.17.59-2.13,1.8-2.13s1.8.96,1.8,2.13v.12c0,1.17-.59,2.13-1.8,2.13s-1.8-.96-1.8-2.13M86.04,402.42c1.55,0,3-1.02,3-3.16v-.12c0-2.14-1.45-3.16-3-3.16s-3,1.02-3,3.16v.12c0,2.14,1.45,3.16,3,3.16M73.85,402.3h1.04l.1-.1,2.04-6.38h.1l2.04,6.38.1.1h1.04l.1-.1,2.32-8.3v-.1l-.1-.1h-1.1l-.1.1-1.62,6.28h-.1l-1.92-6.28-.1-.1h-1.2l-.1.1-1.92,6.28h-.1l-1.62-6.28-.1-.1h-1.1l-.1.1v.1l2.32,8.3.1.1ZM65.06,402.4c1.92.04,2.61-.8,2.61-1.77v-.1c0-2.53-3.88-1.34-3.88-2.73v-.07c0-.48.49-.74,1.29-.73.81.01,1.24.29,1.31.88l.09.1h.95l.11-.1c.03-1.09-.76-1.86-2.39-1.88-1.66-.03-2.56.73-2.56,1.84v.1c0,2.36,3.88,1.15,3.88,2.65v.07c0,.55-.57.71-1.31.7-.97-.02-1.49-.31-1.51-1.01l-.1-.1h-1.05l-.1.1c.04,1.33.99,2.01,2.65,2.04M56.47,399.56v-.71c.12-1.41,1.07-1.79,1.85-1.79,1.17,0,1.8.88,1.8,2.04v.2c0,1.17-.63,2.06-1.8,2.06-.78,0-1.73-.38-1.85-1.79M58.57,402.4c1.51,0,2.8-1.04,2.8-3.11v-.2c0-2.07-1.29-3.09-2.8-3.09-.89,0-1.61.34-1.99.9h-.11v-3.1l-.1-.1h-1l-.1.1v8.4l.1.1h1l.1-.1v-.7h.11c.38.56,1.1.9,1.99.9M51.15,402.3h1l.1-.1v-3.49c.07-1,.69-1.41,1.7-1.41h.3l.1-.1v-1l-.1-.1h-.3c-.82,0-1.37.34-1.59.92h-.11v-.82l-.1-.1h-1l-.1.1v6l.1.1ZM46.45,402.4c.88,0,1.56-.35,1.79-.92h.11v.72l.1.1h1l.1-.1v-6l-.1-.1h-1l-.1.1v3.56c-.06,1.02-.63,1.56-1.55,1.56-.66,0-1.22-.29-1.22-1.31v-3.81l-.1-.1h-1l-.1.1v3.95c0,1.36.67,2.25,2.07,2.25M35.73,402.3h1.05l.1-.1v-6.59h.1l4.19,6.69h1.35l.1-.1v-8.4l-.1-.1h-1l-.1.1v6.59h-.1l-4.19-6.69h-1.4l-.1.1v8.4l.1.1ZM25.79,402.3h1.05l.1-.1v-3.24l.1-.1h3.65l.1-.1v-.95l-.1-.1h-3.65l-.1-.1v-2.66l.1-.1h4.1l.1-.1v-.95l-.1-.1h-5.35l-.1.1v8.4l.1.1ZM19.01,402.3h.6l.1-.1,2.5-6.2h.1v6.2l.1.1h1.05l.1-.1v-8.4l-.1-.1h-1.55l-.1.1-2.45,6.15h-.1l-2.45-6.15-.1-.1h-1.55l-.1.1v8.4l.1.1h1.05l.1-.1v-6.2h.1l2.5,6.2.1.1Z"/>
    </g>
    <line class="cls-4" x1="602" y1="14" x2="14" y2="14"/>
    <line class="cls-5" x1="388.38" y1="28.1" x2="462.35" y2="28.1"/>
    <line class="cls-5" x1="536.32" y1="28.1" x2="462.35" y2="28.1"/>
    <line class="cls-5" x1="323.06" y1="93.63" x2="388.73" y2="27.95"/>
    <line class="cls-5" x1="601.64" y1="93.63" x2="535.97" y2="27.95"/>
    <line class="cls-5" x1="323.21" y1="93.27" x2="323.21" y2="167.25"/>
    <line class="cls-5" x1="601.49" y1="93.27" x2="601.49" y2="167.25"/>
    <g class="cls-10">
      <path class="cls-7" d="M323.21,169.52c1.26,0,2.28-1.02,2.28-2.28s-1.02-2.27-2.28-2.27-2.28,1.02-2.28,2.27,1.02,2.28,2.28,2.28"/>
      <path class="cls-5" d="M323.21,169.52c1.26,0,2.28-1.02,2.28-2.28s-1.02-2.27-2.28-2.27-2.28,1.02-2.28,2.27,1.02,2.28,2.28,2.28Z"/>
      <path class="cls-7" d="M323.21,95.54c1.26,0,2.28-1.02,2.28-2.28s-1.02-2.27-2.28-2.27-2.28,1.02-2.28,2.27,1.02,2.28,2.28,2.28"/>
      <path class="cls-5" d="M323.21,95.54c1.26,0,2.28-1.02,2.28-2.28s-1.02-2.27-2.28-2.27-2.28,1.02-2.28,2.27,1.02,2.28,2.28,2.28Z"/>
      <path class="cls-7" d="M388.38,30.38c1.26,0,2.28-1.02,2.28-2.28s-1.02-2.27-2.28-2.27-2.28,1.02-2.28,2.27,1.02,2.28,2.28,2.28"/>
      <path class="cls-5" d="M388.38,30.38c1.26,0,2.28-1.02,2.28-2.28s-1.02-2.27-2.28-2.27-2.28,1.02-2.28,2.27,1.02,2.28,2.28,2.28Z"/>
      <path class="cls-7" d="M536.32,30.38c1.26,0,2.28-1.02,2.28-2.28s-1.02-2.27-2.28-2.27-2.28,1.02-2.28,2.27,1.02,2.28,2.28,2.28"/>
      <path class="cls-5" d="M536.32,30.38c1.26,0,2.28-1.02,2.28-2.28s-1.02-2.27-2.28-2.27-2.28,1.02-2.28,2.27,1.02,2.28,2.28,2.28Z"/>
      <path class="cls-7" d="M601.49,95.54c1.26,0,2.28-1.02,2.28-2.28s-1.02-2.27-2.28-2.27-2.28,1.02-2.28,2.27,1.02,2.28,2.28,2.28"/>
      <path class="cls-5" d="M601.49,95.54c1.26,0,2.28-1.02,2.28-2.28s-1.02-2.27-2.28-2.27-2.28,1.02-2.28,2.27,1.02,2.28,2.28,2.28Z"/>
      <path class="cls-7" d="M601.49,169.52c1.26,0,2.28-1.02,2.28-2.28s-1.02-2.27-2.28-2.27-2.28,1.02-2.28,2.27,1.02,2.28,2.28,2.28"/>
      <path class="cls-5" d="M601.49,169.52c1.26,0,2.28-1.02,2.28-2.28s-1.02-2.27-2.28-2.27-2.28,1.02-2.28,2.27,1.02,2.28,2.28,2.28Z"/>
    </g>
    <line class="cls-3" x1="14.05" y1="182.91" x2="602.66" y2="182.91"/>
    <g class="cls-9">
      <path class="cls-6" d="M229.22,94h3.2l.32-.32v-12.64c0-4.34-2.2-7.2-6.84-7.2-2.9,0-5.16,1.12-5.92,2.96h-.36v-2.32l-.32-.32h-3.2l-.32.32v19.2l.32.32h3.2l.32-.32v-11.36c.22-3.3,2.1-5.02,5.16-5.02,2.22,0,4.12.92,4.12,4.18v12.2l.32.32ZM196.42,84.28v-.4c0-3.74,1.88-6.82,5.76-6.82s5.76,3.08,5.76,6.82v.4c0,3.74-1.88,6.82-5.76,6.82s-5.76-3.08-5.76-6.82M202.18,94.4c4.96,0,9.6-3.26,9.6-10.12v-.4c0-6.86-4.64-10.12-9.6-10.12s-9.6,3.26-9.6,10.12v.4c0,6.86,4.64,10.12,9.6,10.12M184.58,70.6l.32.32h3.52l.32-.32v-3.6l-.32-.32h-3.52l-.32.32v3.6ZM185.06,94h3.2l.32-.32v-19.2l-.32-.32h-3.2l-.32.32v19.2l.32.32ZM178,94h2.22l.32-.32v-2.56l-.32-.32h-2.22c-1.52,0-1.94-.74-1.94-2.12v-11.32h4.16l.32-.32v-2.56l-.32-.32h-4.16v-4.48l-.32-.32h-3.2l-.32.32v4.48h-3.08l-.32.32v2.56l.32.32h3.08v11.32c0,3.98,1.12,5.32,5.78,5.32M153.38,88.76v-.32c0-1.5.98-2.52,2.78-2.86l6.08-1.14v2.28c-.38,3.22-2.86,4.48-5.5,4.48-2.04,0-3.36-.74-3.36-2.44M162.86,93.68l.32.32h3.22l.32-.32v-.32c-.44-1.34-.62-2.02-.62-4v-8.32c0-4.52-2.48-7.2-7.88-7.2-5.68,0-8.12,2.94-8.38,6.24l.32.32h3.2l.32-.32c.32-1.9,1.78-2.92,4.42-2.92s4.14.96,4.14,3.88v.14l-.26.16-6.32,1.14c-4,.72-6.14,2.72-6.14,6.06v.32c0,3.76,2.68,5.54,6.36,5.54,3.1,0,4.9-1.22,6.08-2.96h.32c.08.7.26,1.36.58,2.24M141.6,94h3.2l.32-.32v-26.88l-.32-.32h-3.2l-.32.32v26.88l.32.32ZM121.92,84.28v-.4c0-3.74,1.88-6.82,5.76-6.82s5.76,3.08,5.76,6.82v.4c0,3.74-1.88,6.82-5.76,6.82s-5.76-3.08-5.76-6.82M127.68,94.4c4.96,0,9.6-3.26,9.6-10.12v-.4c0-6.86-4.64-10.12-9.6-10.12s-9.6,3.26-9.6,10.12v.4c0,6.86,4.64,10.12,9.6,10.12M99.2,84.94v-1.72c.28-4.74,3.4-6.02,5.92-6.02,3.74,0,5.76,2.8,5.76,6.54v.64c0,3.74-2.02,6.58-5.76,6.58-2.52,0-5.64-1.28-5.92-6.02M105.92,94.32c4.84,0,8.96-3.32,8.96-9.94v-.64c0-6.62-4.12-9.9-8.96-9.9-2.84,0-5.16,1.1-6.36,2.88h-.36v-2.24l-.32-.32h-3.2l-.32.32v27.52l.32.32h3.2l.32-.32v-10.56h.36c1.2,1.78,3.52,2.88,6.36,2.88M82.16,94h3.2l.32-.32v-11.18c.22-3.2,2.22-4.5,5.44-4.5h.96l.32-.32v-3.2l-.32-.32h-.96c-2.62,0-4.38,1.08-5.08,2.96h-.36v-2.64l-.32-.32h-3.2l-.32.32v19.2l.32.32ZM59.12,84.56c0,5.6,3.18,9.84,9.52,9.84,4.82,0,8.14-2.52,8.88-6.64l-.32-.32h-3.2l-.32.32c-.58,2-2.04,3.44-5,3.44-4.38,0-5.68-3.22-5.72-6.48h14.56l.32-.32c.2-7.56-3.96-10.64-9.1-10.64-6.24,0-9.62,4.66-9.62,10.48v.32ZM73.84,81.68h-10.64c.54-2.6,2.1-4.72,5.44-4.72s5.12,2.02,5.2,4.72M53.9,94h2.22l.32-.32v-2.56l-.32-.32h-2.22c-1.52,0-1.94-.74-1.94-2.12v-11.32h4.16l.32-.32v-2.56l-.32-.32h-4.16v-4.48l-.32-.32h-3.2l-.32.32v4.48h-3.08l-.32.32v2.56l.32.32h3.08v11.32c0,3.98,1.12,5.32,5.78,5.32M38.48,94h3.2l.32-.32v-12.64c0-4.34-2.2-7.2-6.84-7.2-2.9,0-5.16,1.12-5.92,2.96h-.36v-2.32l-.32-.32h-3.2l-.32.32v19.2l.32.32h3.2l.32-.32v-11.36c.22-3.3,2.1-5.02,5.16-5.02,2.22,0,4.12.92,4.12,4.18v12.2l.32.32ZM16.24,70.6l.32.32h3.52l.32-.32v-3.6l-.32-.32h-3.52l-.32.32v3.6ZM16.72,94h3.2l.32-.32v-19.2l-.32-.32h-3.2l-.32.32v19.2l.32.32Z"/>
      <path class="cls-6" d="M198.28,54h3.2l.32-.32v-26.88l-.32-.32h-3.2l-.32.32v26.88l.32.32ZM180.34,48.76v-.32c0-1.5.98-2.52,2.78-2.86l6.08-1.14v2.28c-.38,3.22-2.86,4.48-5.5,4.48-2.04,0-3.36-.74-3.36-2.44M189.82,53.68l.32.32h3.22l.32-.32v-.32c-.44-1.34-.62-2.02-.62-4v-8.32c0-4.52-2.48-7.2-7.88-7.2-5.68,0-8.12,2.94-8.38,6.24l.32.32h3.2l.32-.32c.32-1.9,1.78-2.92,4.42-2.92s4.14.96,4.14,3.88v.14l-.26.16-6.32,1.14c-4,.72-6.14,2.72-6.14,6.06v.32c0,3.76,2.68,5.54,6.36,5.54,3.1,0,4.9-1.22,6.08-2.96h.32c.08.7.26,1.36.58,2.24M168.08,30.6l.32.32h3.52l.32-.32v-3.6l-.32-.32h-3.52l-.32.32v3.6ZM168.56,54h3.2l.32-.32v-19.2l-.32-.32h-3.2l-.32.32v19.2l.32.32ZM160.12,54h3.2l.32-.32v-12.64c0-4.34-2.14-7.2-6.66-7.2-3.02,0-5.4,1.28-6.22,3.36h-.46c-.98-2.1-2.92-3.36-5.88-3.36-2.8,0-4.94,1.12-5.68,2.96h-.36v-2.32l-.32-.32h-3.2l-.32.32v19.2l.32.32h3.2l.32-.32v-11.38c.2-3.28,1.98-5,4.9-5,2.12,0,3.92.92,3.92,4.18v12.2l.32.32h3.2l.32-.32v-11.84c.34-2.98,2.08-4.54,4.84-4.54,2.12,0,3.92.92,3.92,4.18v12.2l.32.32ZM115.18,44.28v-.4c0-3.74,1.88-6.82,5.76-6.82s5.76,3.08,5.76,6.82v.4c0,3.74-1.88,6.82-5.76,6.82s-5.76-3.08-5.76-6.82M120.94,54.4c4.96,0,9.6-3.26,9.6-10.12v-.4c0-6.86-4.64-10.12-9.6-10.12s-9.6,3.26-9.6,10.12v.4c0,6.86,4.64,10.12,9.6,10.12M104.02,54h3.2l.32-.32v-12.64c0-4.34-2.2-7.2-6.84-7.2-2.9,0-5.16,1.12-5.92,2.96h-.36v-2.32l-.32-.32h-3.2l-.32.32v19.2l.32.32h3.2l.32-.32v-11.36c.22-3.3,2.1-5.02,5.16-5.02,2.22,0,4.12.92,4.12,4.18v12.2l.32.32ZM73.84,62.32h3.14l.32-.32,10.12-27.2v-.32l-.32-.32h-3.3l-.32.32-5,13.72h-.34l-4.5-13.72-.32-.32h-3.68l-.32.32v.32l7.16,18.92-2.96,8.12v.16l.32.32ZM62.64,54h3.2l.32-.32v-26.88l-.32-.32h-3.2l-.32.32v26.88l.32.32ZM42.96,44.28v-.4c0-3.74,1.88-6.82,5.76-6.82s5.76,3.08,5.76,6.82v.4c0,3.74-1.88,6.82-5.76,6.82s-5.76-3.08-5.76-6.82M48.72,54.4c4.96,0,9.6-3.26,9.6-10.12v-.4c0-6.86-4.64-10.12-9.6-10.12s-9.6,3.26-9.6,10.12v.4c0,6.86,4.64,10.12,9.6,10.12M20.24,44.94v-1.72c.28-4.74,3.4-6.02,5.92-6.02,3.74,0,5.76,2.8,5.76,6.54v.64c0,3.74-2.02,6.58-5.76,6.58-2.52,0-5.64-1.28-5.92-6.02M26.96,54.32c4.84,0,8.96-3.32,8.96-9.94v-.64c0-6.62-4.12-9.9-8.96-9.9-2.84,0-5.16,1.1-6.36,2.88h-.36v-2.24l-.32-.32h-3.2l-.32.32v27.52l.32.32h3.2l.32-.32v-10.56h.36c1.2,1.78,3.52,2.88,6.36,2.88"/>
    </g>
  </g>
</svg>