<?xml version="1.0" encoding="UTF-8"?>
<svg id="Calque_1" data-name="Calque 1" xmlns="http://www.w3.org/2000/svg" xmlns:xlink="http://www.w3.org/1999/xlink" viewBox="0 0 616 860">
  <defs>
    <style>
      .cls-1 {
        clip-path: url(#clippath);
      }

      .cls-2, .cls-3, .cls-4 {
        fill: none;
      }

      .cls-2, .cls-5, .cls-6 {
        stroke-width: 0px;
      }

      .cls-3 {
        stroke: #000;
      }

      .cls-3, .cls-4 {
        stroke-linecap: round;
        stroke-linejoin: round;
        stroke-width: 2.58px;
      }

      .cls-4 {
        stroke: #fff;
      }

      .cls-7 {
        clip-path: url(#clippath-1);
      }

      .cls-8 {
        clip-path: url(#clippath-4);
      }

      .cls-9 {
        clip-path: url(#clippath-3);
      }

      .cls-10 {
        clip-path: url(#clippath-2);
      }

      .cls-11 {
        clip-path: url(#clippath-5);
      }

      .cls-6 {
        fill: #fff;
      }
    </style>
    <clipPath id="clippath">
      <rect class="cls-2" width="616" height="860"/>
    </clipPath>
    <clipPath id="clippath-1">
      <rect class="cls-2" width="616" height="860"/>
    </clipPath>
    <clipPath id="clippath-2">
      <rect class="cls-2" width="616" height="860"/>
    </clipPath>
    <clipPath id="clippath-3">
      <rect class="cls-2" width="616" height="860"/>
    </clipPath>
    <clipPath id="clippath-4">
      <rect class="cls-2" x="636" y="437" width="616" height="423"/>
    </clipPath>
    <clipPath id="clippath-5">
      <path class="cls-2" d="M651.5,722.07c0,67.62,54.81,122.43,122.43,122.43s122.43-54.81,122.43-122.43-54.81-122.43-122.43-122.43-122.43,54.81-122.43,122.43"/>
    </clipPath>
  </defs>
  <g class="cls-1">
    <g class="cls-7">
      <path class="cls-6" d="M95.96,43.5h7.46l.13-.13v-1.22l-.13-.13h-4.92v-.13c3.32-2.34,4.96-3.9,4.96-6.17v-.13c0-1.87-1.19-3.27-3.64-3.27s-3.81,1.36-3.89,3.79l.13.13h1.28l.13-.13c0-1.74,1.02-2.32,2.28-2.32,1.57,0,2.07.88,2.07,2.03v.06c0,2.1-1.58,3.07-5.99,6.29v1.18l.13.13ZM88.37,41.64l3.63-6.15c.25.63.38,1.43.38,2.38v.26c0,2.58-.98,4.06-2.58,4.06-.56,0-1.05-.19-1.44-.55M87.26,38.13v-.26c0-2.59.97-4.06,2.54-4.06.56,0,1.05.18,1.45.54l-3.62,6.14c-.24-.62-.37-1.42-.37-2.36M89.8,43.66c2.67,0,4.18-2.3,4.18-5.54v-.26c0-3.23-1.51-5.54-4.18-5.54s-4.14,2.3-4.14,5.54v.26c0,3.23,1.46,5.54,4.14,5.54M78.65,43.5h1.28l.13-.13v-5.06c0-1.74-.88-2.88-2.74-2.88-1.16,0-2.06.45-2.37,1.18h-.14v-.93l-.13-.13h-1.28l-.13.13v7.68l.13.13h1.28l.13-.13v-4.54c.09-1.32.84-2.01,2.06-2.01.89,0,1.65.37,1.65,1.67v4.88l.13.13ZM66.23,41.41v-.13c0-.6.39-1.01,1.11-1.14l2.43-.46v.91c-.15,1.29-1.14,1.79-2.2,1.79-.82,0-1.34-.3-1.34-.98M70.02,43.38l.13.13h1.29l.13-.13v-.13c-.18-.54-.25-.81-.25-1.6v-3.33c0-1.81-.99-2.88-3.15-2.88-2.27,0-3.25,1.18-3.35,2.5l.13.13h1.28l.13-.13c.13-.76.71-1.17,1.77-1.17s1.66.38,1.66,1.55v.06l-.1.06-2.53.46c-1.6.29-2.46,1.09-2.46,2.42v.13c0,1.5,1.07,2.22,2.54,2.22,1.24,0,1.96-.49,2.43-1.18h.13c.03.28.1.54.23.9M61.52,43.5h1.28l.13-.13v-10.75l-.13-.13h-1.28l-.13.13v10.75l.13.13ZM53.52,39.88v-.69c.11-1.9,1.36-2.41,2.37-2.41,1.5,0,2.3,1.12,2.3,2.62v.26c0,1.5-.81,2.63-2.3,2.63-1.01,0-2.26-.51-2.37-2.41M56.21,43.63c1.94,0,3.58-1.33,3.58-3.98v-.26c0-2.65-1.65-3.96-3.58-3.96-1.14,0-2.06.44-2.54,1.15h-.14v-.9l-.13-.13h-1.28l-.13.13v11.01l.13.13h1.28l.13-.13v-4.22h.14c.48.71,1.41,1.15,2.54,1.15M44.07,43.5h1.28l.13-.13v-2.27l1.28-1.31,2.21,3.58.17.14h1.48l.13-.13v-.13l-2.91-4.54,2.83-2.88v-.13l-.13-.13h-1.5l-3.55,3.62v-6.56l-.13-.13h-1.28l-.13.13v10.75l.13.13ZM38.66,43.5h1.28l.13-.13v-4.47c.09-1.28.89-1.8,2.18-1.8h.38l.13-.13v-1.28l-.13-.13h-.38c-1.05,0-1.75.43-2.03,1.18h-.14v-1.06l-.13-.13h-1.28l-.13.13v7.68l.13.13ZM30.79,39.62v-.16c0-1.5.75-2.73,2.3-2.73s2.3,1.23,2.3,2.73v.16c0,1.5-.75,2.73-2.3,2.73s-2.3-1.23-2.3-2.73M33.1,43.66c1.98,0,3.84-1.3,3.84-4.05v-.16c0-2.74-1.86-4.05-3.84-4.05s-3.84,1.3-3.84,4.05v.16c0,2.74,1.86,4.05,3.84,4.05M17.49,43.5h1.33l.13-.13,2.61-8.17h.13l2.61,8.17.13.13h1.33l.13-.13,2.98-10.62v-.13l-.13-.13h-1.41l-.13.13-2.08,8.04h-.13l-2.46-8.04-.13-.13h-1.54l-.13.13-2.46,8.04h-.13l-2.08-8.04-.13-.13h-1.41l-.13.13v.13l2.98,10.62.13.13Z"/>
      <path class="cls-6" d="M79.36,27.63c2.46.05,3.34-1.02,3.34-2.26v-.13c0-3.25-4.96-1.71-4.96-3.5v-.09c0-.62.62-.94,1.65-.93,1.03.02,1.59.37,1.68,1.12l.12.13h1.22l.14-.13c.03-1.39-.97-2.38-3.06-2.41-2.13-.04-3.28.94-3.28,2.36v.13c0,3.02,4.96,1.47,4.96,3.4v.09c0,.7-.73.91-1.67.9-1.24-.02-1.9-.39-1.94-1.29l-.13-.13h-1.34l-.13.13c.06,1.7,1.27,2.57,3.4,2.61M68.37,23.99v-.91c.15-1.81,1.38-2.3,2.37-2.3,1.5,0,2.3,1.12,2.3,2.62v.26c0,1.5-.81,2.63-2.3,2.63-.99,0-2.22-.49-2.37-2.3M71.06,27.63c1.94,0,3.58-1.33,3.58-3.98v-.26c0-2.65-1.65-3.96-3.58-3.96-1.14,0-2.06.44-2.54,1.15h-.14v-3.97l-.13-.13h-1.28l-.13.13v10.75l.13.13h1.28l.13-.13v-.9h.14c.48.71,1.41,1.15,2.54,1.15M61.55,27.5h1.28l.13-.13v-4.47c.09-1.28.89-1.8,2.18-1.8h.38l.13-.13v-1.28l-.13-.13h-.38c-1.05,0-1.75.43-2.03,1.18h-.14v-1.06l-.13-.13h-1.28l-.13.13v7.68l.13.13ZM55.54,27.63c1.12,0,1.99-.45,2.29-1.18h.14v.93l.13.13h1.28l.13-.13v-7.68l-.13-.13h-1.28l-.13.13v4.55c-.08,1.31-.8,2-1.98,2-.85,0-1.57-.37-1.57-1.67v-4.88l-.13-.13h-1.28l-.13.13v5.06c0,1.74.86,2.88,2.66,2.88M41.82,27.5h1.34l.13-.13v-8.43h.13l5.37,8.56h1.73l.13-.13v-10.75l-.13-.13h-1.28l-.13.13v8.43h-.13l-5.37-8.56h-1.79l-.13.13v10.75l.13.13ZM29.09,27.5h1.34l.13-.13v-4.14l.13-.13h4.67l.13-.13v-1.22l-.13-.13h-4.67l-.13-.13v-3.41l.13-.13h5.25l.13-.13v-1.22l-.13-.13h-6.85l-.13.13v10.75l.13.13ZM20.42,27.5h.77l.13-.13,3.2-7.94h.13v7.94l.13.13h1.34l.13-.13v-10.75l-.13-.13h-1.98l-.13.13-3.14,7.87h-.13l-3.14-7.87-.13-.13h-1.98l-.13.13v10.75l.13.13h1.34l.13-.13v-7.94h.13l3.2,7.94.13.13Z"/>
      <path class="cls-6" d="M323.43,43.5h6.21l.13-.13v-1.22l-.13-.13h-2.18l-.13-.13v-9.28l-.13-.13h-1.34l-.13.13c-.02,1.1-.9,1.81-2.24,1.79l-.13.13v1.22l.13.13c1.14,0,1.66-.15,2.11-.57h.13v6.58l-.13.13h-2.18l-.13.13v1.22l.13.13ZM315.03,41.64l3.63-6.15c.25.63.38,1.43.38,2.38v.26c0,2.58-.98,4.06-2.58,4.06-.56,0-1.05-.19-1.44-.55M313.92,38.13v-.26c0-2.59.97-4.06,2.54-4.06.56,0,1.05.18,1.45.54l-3.62,6.14c-.24-.62-.37-1.42-.37-2.36M316.46,43.66c2.67,0,4.18-2.3,4.18-5.54v-.26c0-3.23-1.51-5.54-4.18-5.54s-4.14,2.3-4.14,5.54v.26c0,3.23,1.46,5.54,4.14,5.54M307.76,43.63c2.46.05,3.34-1.02,3.34-2.26v-.13c0-3.25-4.96-1.71-4.96-3.5v-.09c0-.62.62-.94,1.65-.93,1.03.02,1.59.37,1.68,1.12l.12.13h1.22l.14-.13c.03-1.39-.97-2.38-3.06-2.41-2.13-.04-3.28.94-3.28,2.36v.13c0,3.02,4.96,1.47,4.96,3.4v.09c0,.7-.73.91-1.67.9-1.24-.02-1.9-.39-1.94-1.29l-.13-.13h-1.34l-.13.13c.06,1.7,1.27,2.57,3.4,2.61M298.61,43.66c2.38,0,4.14-1.06,4.14-3.06v-.13c0-4.21-6.6-2.36-6.6-5.11v-.13c0-.9.78-1.43,2.4-1.43s2.3.57,2.5,1.7l.12.13h1.41l.14-.13c-.17-1.87-1.44-3.16-4.15-3.16s-4.02,1.36-4.02,3.01v.19c0,4.02,6.6,2.3,6.6,5v.13c0,.9-.83,1.53-2.41,1.53-1.68,0-2.8-.75-2.96-2.08l-.13-.13h-1.34l-.13.13c.1,1.9,1.5,3.55,4.44,3.55"/>
      <path class="cls-6" d="M359.9,23.73c0,2.24,1.27,3.94,3.81,3.94,1.93,0,3.26-1.01,3.55-2.66l-.13-.13h-1.28l-.13.13c-.23.8-.82,1.38-2,1.38-1.75,0-2.27-1.29-2.29-2.59h5.82l.13-.13c.08-3.02-1.58-4.26-3.64-4.26-2.5,0-3.85,1.86-3.85,4.19v.13ZM365.79,22.58h-4.26c.22-1.04.84-1.89,2.18-1.89s2.05.81,2.08,1.89M352.35,23.88v-.69c.11-1.9,1.36-2.41,2.37-2.41,1.5,0,2.3,1.12,2.3,2.62v.26c0,1.5-.81,2.63-2.3,2.63-1.01,0-2.26-.51-2.37-2.41M355.04,27.63c1.94,0,3.58-1.33,3.58-3.98v-.26c0-2.65-1.65-3.96-3.58-3.96-1.14,0-2.06.44-2.54,1.15h-.14v-.9l-.13-.13h-1.28l-.13.13v11.01l.13.13h1.28l.13-.13v-4.22h.14c.48.71,1.41,1.15,2.54,1.15M344.12,30.83h1.26l.13-.13,4.05-10.88v-.13l-.13-.13h-1.32l-.13.13-2,5.49h-.14l-1.8-5.49-.13-.13h-1.47l-.13.13v.13l2.86,7.57-1.18,3.25v.06l.13.13ZM340.36,27.5h.89l.13-.13v-1.02l-.13-.13h-.89c-.61,0-.78-.3-.78-.85v-4.53h1.66l.13-.13v-1.02l-.13-.13h-1.66v-1.79l-.13-.13h-1.28l-.13.13v1.79h-1.23l-.13.13v1.02l.13.13h1.23v4.53c0,1.59.45,2.13,2.31,2.13M330.21,27.5h1.28l.13-.13v-5.06c0-1.74-.88-2.88-2.74-2.88-1.16,0-2.06.45-2.37,1.18h-.14v-.93l-.13-.13h-1.28l-.13.13v7.68l.13.13h1.28l.13-.13v-4.54c.09-1.32.84-2.01,2.06-2.01.89,0,1.65.37,1.65,1.67v4.88l.13.13ZM315.75,23.73c0,2.24,1.27,3.94,3.81,3.94,1.93,0,3.26-1.01,3.55-2.66l-.13-.13h-1.28l-.13.13c-.23.8-.82,1.38-2,1.38-1.75,0-2.27-1.29-2.29-2.59h5.82l.13-.13c.08-3.02-1.58-4.26-3.64-4.26-2.5,0-3.85,1.86-3.85,4.19v.13ZM321.64,22.58h-4.26c.22-1.04.84-1.89,2.18-1.89s2.05.81,2.08,1.89M308.2,23.88v-.69c.11-1.9,1.36-2.41,2.37-2.41,1.5,0,2.3,1.12,2.3,2.62v.26c0,1.5-.81,2.63-2.3,2.63-1.01,0-2.26-.51-2.37-2.41M310.88,27.63c1.94,0,3.58-1.33,3.58-3.98v-.26c0-2.65-1.65-3.96-3.58-3.96-1.14,0-2.06.44-2.54,1.15h-.14v-.9l-.13-.13h-1.28l-.13.13v11.01l.13.13h1.28l.13-.13v-4.22h.14c.48.71,1.41,1.15,2.54,1.15M295.8,22.13v-.26c0-2.74,1.59-4.04,3.62-4.04s3.62,1.3,3.62,4.04v.26c0,2.74-1.59,4.04-3.62,4.04s-3.62-1.3-3.62-4.04M299.43,27.66c3.02,0,5.25-2.27,5.25-5.54v-.26c0-3.26-2.22-5.54-5.25-5.54s-5.25,2.27-5.25,5.54v.26c0,3.26,2.22,5.54,5.25,5.54"/>
      <path class="cls-6" d="M212.46,43.63c2.46.05,3.34-1.02,3.34-2.26v-.13c0-3.25-4.96-1.71-4.96-3.5v-.09c0-.62.62-.94,1.65-.93,1.03.02,1.59.37,1.68,1.12l.12.13h1.22l.14-.13c.03-1.39-.97-2.38-3.06-2.41-2.13-.04-3.28.94-3.28,2.36v.13c0,3.02,4.96,1.47,4.96,3.4v.09c0,.7-.73.91-1.67.9-1.24-.02-1.9-.39-1.94-1.29l-.13-.13h-1.34l-.13.13c.06,1.7,1.27,2.57,3.4,2.61M200.25,39.73c0,2.24,1.27,3.94,3.81,3.94,1.93,0,3.26-1.01,3.55-2.66l-.13-.13h-1.28l-.13.13c-.23.8-.82,1.38-2,1.38-1.75,0-2.27-1.29-2.29-2.59h5.82l.13-.13c.08-3.02-1.58-4.26-3.64-4.26-2.5,0-3.85,1.86-3.85,4.19v.13ZM206.14,38.58h-4.26c.22-1.04.84-1.89,2.18-1.89s2.05.81,2.08,1.89M197.25,43.5h1.28l.13-.13v-10.75l-.13-.13h-1.28l-.13.13v10.75l.13.13ZM190.42,46.83h1.26l.13-.13,4.05-10.88v-.13l-.13-.13h-1.32l-.13.13-2,5.49h-.14l-1.8-5.49-.13-.13h-1.47l-.13.13v.13l2.86,7.57-1.18,3.25v.06l.13.13ZM186.67,43.5h.89l.13-.13v-1.02l-.13-.13h-.89c-.61,0-.78-.3-.78-.85v-4.53h1.66l.13-.13v-1.02l-.13-.13h-1.66v-1.79l-.13-.13h-1.28l-.13.13v1.79h-1.23l-.13.13v1.02l.13.13h1.23v4.53c0,1.59.45,2.13,2.31,2.13M178.73,43.63c2.46.05,3.34-1.02,3.34-2.26v-.13c0-3.25-4.96-1.71-4.96-3.5v-.09c0-.62.62-.94,1.65-.93,1.03.02,1.59.37,1.68,1.12l.12.13h1.22l.14-.13c.03-1.39-.97-2.38-3.06-2.41-2.13-.04-3.28.94-3.28,2.36v.13c0,3.02,4.96,1.47,4.96,3.4v.09c0,.7-.73.91-1.67.9-1.24-.02-1.9-.39-1.94-1.29l-.13-.13h-1.34l-.13.13c.06,1.7,1.27,2.57,3.4,2.61M159.24,41.64l3.63-6.15c.25.63.38,1.43.38,2.38v.26c0,2.58-.98,4.06-2.58,4.06-.56,0-1.05-.19-1.44-.55M158.14,38.13v-.26c0-2.59.97-4.06,2.54-4.06.56,0,1.05.18,1.45.54l-3.62,6.14c-.24-.62-.37-1.42-.37-2.36M160.68,43.66c2.67,0,4.18-2.3,4.18-5.54v-.26c0-3.23-1.51-5.54-4.18-5.54s-4.14,2.3-4.14,5.54v.26c0,3.23,1.46,5.54,4.14,5.54M148.77,36.14v-.06c0-1.42.94-2.27,2.21-2.27,1.19,0,2.27.74,2.27,2.27v.06c0,1.46-.96,2.24-2.24,2.24-1.34,0-2.24-.82-2.24-2.24M151.05,32.34c-2.5,0-3.88,1.66-3.88,3.74v.06c0,2.3,1.55,3.84,3.78,3.71,1.32-.07,1.99-.67,2.3-1.2h.13v.29c0,1.5-.57,3.25-2.54,3.25-1.11,0-1.74-.54-1.98-1.44l-.13-.13h-1.34l-.13.13c.18,1.52,1.22,2.91,3.54,2.91,3.35,0,4.25-2.94,4.25-5.9v-.13c0-3.7-1.55-5.3-3.99-5.3"/>
      <path class="cls-6" d="M201.05,27.63c2.46.05,3.34-1.02,3.34-2.26v-.13c0-3.25-4.96-1.71-4.96-3.5v-.09c0-.62.62-.94,1.65-.93,1.03.02,1.59.37,1.68,1.12l.12.13h1.22l.14-.13c.03-1.39-.97-2.38-3.06-2.41-2.13-.04-3.28.94-3.28,2.36v.13c0,3.02,4.96,1.47,4.96,3.4v.09c0,.7-.73.91-1.67.9-1.24-.02-1.9-.39-1.94-1.29l-.13-.13h-1.34l-.13.13c.06,1.7,1.27,2.57,3.4,2.61M195.45,27.5h.89l.13-.13v-1.02l-.13-.13h-.89c-.61,0-.78-.3-.78-.85v-4.53h1.66l.13-.13v-1.02l-.13-.13h-1.66v-1.79l-.13-.13h-1.28l-.13.13v1.79h-1.23l-.13.13v1.02l.13.13h1.23v4.53c0,1.59.45,2.13,2.31,2.13M186.5,27.63c1.12,0,1.99-.45,2.29-1.18h.14v.93l.13.13h1.28l.13-.13v-7.68l-.13-.13h-1.28l-.13.13v4.55c-.08,1.31-.8,2-1.98,2-.85,0-1.57-.37-1.57-1.67v-4.88l-.13-.13h-1.28l-.13.13v5.06c0,1.74.86,2.88,2.66,2.88M179.06,27.66c1.78,0,3.14-.91,3.42-2.74l-.13-.13h-1.28l-.13.13c-.15.95-.86,1.38-1.89,1.38-1.67,0-2.24-1.17-2.24-2.65v-.26c0-1.48.57-2.65,2.24-2.65,1.02,0,1.74.43,1.89,1.38l.13.13h1.28l.13-.13c-.26-1.79-1.49-2.74-3.36-2.74-2.43,0-3.84,1.59-3.84,4v.26c0,2.42,1.44,4,3.78,4M158.37,20.14v-.06c0-1.42.94-2.27,2.21-2.27,1.19,0,2.27.74,2.27,2.27v.06c0,1.46-.96,2.24-2.24,2.24-1.34,0-2.24-.82-2.24-2.24M160.65,16.34c-2.5,0-3.88,1.66-3.88,3.74v.06c0,2.3,1.55,3.84,3.78,3.71,1.32-.07,1.99-.67,2.3-1.2h.13v.29c0,1.5-.57,3.25-2.54,3.25-1.11,0-1.74-.54-1.98-1.44l-.13-.13h-1.34l-.13.13c.18,1.52,1.22,2.91,3.54,2.91,3.35,0,4.25-2.94,4.25-5.9v-.13c0-3.7-1.55-5.3-3.99-5.3M149.64,25.64l3.63-6.15c.25.63.38,1.43.38,2.38v.26c0,2.58-.98,4.06-2.58,4.06-.56,0-1.05-.19-1.44-.55M148.54,22.13v-.26c0-2.59.97-4.06,2.54-4.06.56,0,1.05.18,1.45.54l-3.62,6.14c-.24-.62-.37-1.42-.37-2.36M151.08,27.66c2.67,0,4.18-2.3,4.18-5.54v-.26c0-3.23-1.51-5.54-4.18-5.54s-4.14,2.3-4.14,5.54v.26c0,3.23,1.46,5.54,4.14,5.54"/>
      <path class="cls-6" d="M586.64,30.73h15.36c0-9.35-7.05-16.73-16.98-16.73v15.07h-15.02c0,9.15,7.14,16.93,16.64,16.93v-15.27Z"/>
      <path class="cls-6" d="M317.69,630c174.49,0,257.73-61.23,257.73-154.08v-7.2c0-219.31-433.03-112.86-433.03-250.53v-6c0-46.42,49.22-75.64,160.48-75.64s163.29,31.22,177.69,87.25l6.8,7.2h75.24l7.6-7.2c-14.81-95.65-93.65-160.48-266.54-160.48S53.16,131.75,53.16,216.59v8c0,211.71,433.03,107.66,433.03,247.33v6c0,46.42-48.83,78.04-164.89,78.04-127.27,0-186.5-42.42-197.7-102.85l-7.2-7.2H39.95l-7.2,7.2c11.21,93.65,86.85,176.89,284.95,176.89"/>
      <path class="cls-5" d="M453.08,530.5c-9.11,1.9-18.22,3.81-27.33,5.71-14.74-8.21-23.69-6.44-24.43,5.35,8.94.77,18.31,4.25,24.82-5.82-.94,8.19,4.64,6.61,8.87,5.35,6.76-2.01,16.9,1.02,17.74-10.82,10.89-7.51,12.72-14.49,6.65-25.47,4.36-1.96,8.73-3.93,13.09-5.89-3.05,9.4-9.45,18.61-1.68,28.65-3.57,16.91-7.14,33.82-10.71,50.72,1.23.29,2.46.58,3.69.87,1.84-3.16,3.67-6.32,5.51-9.48-.56,1.74-1.12,3.48-1.68,5.22,1.09.3,2.18.6,3.28.9,4.48-20.49,8.96-40.97,13.34-61.48.05-.23-1.28-.76-1.97-1.14,4.3-16.02,8.61-32.03,12.75-48.09.04-.14-2.22-.86-3.4-1.31,1.3-3.79,2.6-7.58,4.02-11.71-13.45-4.83-25.32-9.08-38.02-13.64-.42,19.67,8.14,34.36,16.81,48.96-6.58-7.87-10.93-2.8-15.22,2.63-1.22-1.66-2.45-3.33-3.59-5.05,8.49-8.7,3.2-27.51-13.39-34.61,5.33,13.4,9.51,23.91,13.68,34.42-3.4,1.47-6.95,4.47-10.17,4.15-13-1.3-25.89-3.62-39.16-5.62-.87-8.64-1.68-16.81-2.55-25.49-6.11,1.57-10.58,2.72-14.98,3.81,9.52-7.07,20.1-13.73,10.96-28.08-12.02,3.79-14.85,11.15-10.7,27.86-.58,3.88-1.97,7.85-1.58,11.63.83,7.99,2.59,15.89,3.96,23.81-3.57-8.78-7.14-17.57-11.15-27.41-12.14,8.66-24.12,17.2-36.77,26.22,5.06,5.99,9.36,11.09,13.37,15.84,12.2-5.19,23.38-9.93,34.55-14.68,4.49.57,8.97,1.52,13.47,1.65,18.18.5,36.88,4.32,53.26-7.65.52,4.65,1.04,9.3,1.57,13.95-2.32,1.4-6.46,2.62-6.63,4.25-.72,7.1-.29,14.32-.27,21.49"/>
      <path class="cls-4" d="M453.08,530.5c-9.11,1.9-18.22,3.81-27.33,5.71-14.74-8.21-23.69-6.44-24.43,5.35,8.94.77,18.31,4.25,24.82-5.82-.94,8.19,4.64,6.61,8.87,5.35,6.76-2.01,16.9,1.02,17.74-10.82,10.89-7.51,12.72-14.49,6.65-25.47,4.36-1.96,8.73-3.93,13.09-5.89-3.05,9.4-9.45,18.61-1.68,28.65-3.57,16.91-7.14,33.82-10.71,50.72,1.23.29,2.46.58,3.69.87,1.84-3.16,3.67-6.32,5.51-9.48-.56,1.74-1.12,3.48-1.68,5.22,1.09.3,2.18.6,3.28.9,4.48-20.49,8.96-40.97,13.34-61.48.05-.23-1.28-.76-1.97-1.14,4.3-16.02,8.61-32.03,12.75-48.09.04-.14-2.22-.86-3.4-1.31,1.3-3.79,2.6-7.58,4.02-11.71-13.45-4.83-25.32-9.08-38.02-13.64-.42,19.67,8.14,34.36,16.81,48.96-6.58-7.87-10.93-2.8-15.22,2.63-1.22-1.66-2.45-3.33-3.59-5.05,8.49-8.7,3.2-27.51-13.39-34.61,5.33,13.4,9.51,23.91,13.68,34.42-3.4,1.47-6.95,4.47-10.17,4.15-13-1.3-25.89-3.62-39.16-5.62-.87-8.64-1.68-16.81-2.55-25.49-6.11,1.57-10.58,2.72-14.98,3.81,9.52-7.07,20.1-13.73,10.96-28.08-12.02,3.79-14.85,11.15-10.7,27.86-.58,3.88-1.97,7.85-1.58,11.63.83,7.99,2.59,15.89,3.96,23.81-3.57-8.78-7.14-17.57-11.15-27.41-12.14,8.66-24.12,17.2-36.77,26.22,5.06,5.99,9.36,11.09,13.37,15.84,12.2-5.19,23.38-9.93,34.55-14.68,4.49.57,8.97,1.52,13.47,1.65,18.18.5,36.88,4.32,53.26-7.65.52,4.65,1.04,9.3,1.57,13.95-2.32,1.4-6.46,2.62-6.63,4.25-.72,7.1-.29,14.32-.27,21.49Z"/>
      <path class="cls-5" d="M457.04,579.45c-1.74-8.39-3.49-16.79-5.23-25.18-1.53.17-3.07.33-4.6.5v31.68c3.72-2.7,6.99-5.07,10.26-7.44-10.15,9.64-11.73,21.29-8.04,34.18-5.38-9.91-8.76-23.55-25.65-12.66-.5,6.71-1.06,14.16-1.88,25.18,10.49-4.99,18.8-8.95,27.11-12.92,18.16-8.23,19.55-13.97,8.03-33.35"/>
      <path class="cls-4" d="M457.04,579.45c-1.74-8.39-3.49-16.79-5.23-25.18-1.53.17-3.07.33-4.6.5v31.68c3.72-2.7,6.99-5.07,10.26-7.44-10.15,9.64-11.73,21.29-8.04,34.18-5.38-9.91-8.76-23.55-25.65-12.66-.5,6.71-1.06,14.16-1.88,25.18,10.49-4.99,18.8-8.95,27.11-12.92,18.16-8.23,19.55-13.97,8.03-33.35Z"/>
      <path class="cls-5" d="M409.64,632.28c4.9.98,10.48-.04,15.37.95-13-1.94-16.02,6.84-19.01,16.44-1.6,5.15-4.75,9.82-7.2,14.71,2.63-8.84,5.26-17.69,8.16-27.44-10.62,0-19.93-.56-29.11.3-3.24.3-8.17,3.54-8.89,6.32-3.22,12.36-5.24,25.04-7.61,37.62-1.28,6.79,2.63,6.86,7.46,5.57-3.17,4.15-8.73,8.1-9.12,12.5-2.3,26.27-3.41,52.65-4.95,79.54h25.16c4.88-32.45,9.96-64.51,14.36-96.66,1.12-8.2-4.03-6.72-8.79-3.69,4.45-4.77,8.91-9.54,13.44-14.45,2.51-.45,5.03-.89,7.54-1.34-2.18,4.55-5.56,8.9-6.33,13.68-5.26,32.44-9.98,64.97-14.77,97.49-.14.93.77,2.02,1.49,3.75,12.52-5.55,24.78-10.52,36.51-16.53,2.9-1.49,5.58-6.3,5.76-9.72,1.96-36.67,3.45-73.36,4.85-110.06.06-1.65-2.03-3.37-3.11-5.06,1.96-4.09,3.91-8.18,6.4-13.38-10.29,2.99-18.82,5.47-27.35,7.95-11.04-8.44-23.42-8.99-36.37-6.12-3.47-4.15-6.94-8.31-10.41-12.46,14.4,5.62,15.77,4.53,20.09-15.95-13.38-10.44-26.84-18.8-41.58-2.02-1,1.13-3.1,1.3-4.69,1.91,19.37-12.19,18.19-27.96,10.73-47.18-4.73-12.19-11.64-15.93-23.71-16.64,4.55,21.96,8.88,42.8,13.28,63.57,2.81,2.43,5.62,4.87,8.43,7.3-4.72-1.15-9.45-2.3-14.17-3.44-3.96-22.63-7.83-45.27-12.05-67.85-.4-2.12-2.68-4.67-4.73-5.57-10.36-4.57-20.93-8.65-32.63-13.39,0,3.48-.31,5.19.05,6.75,5.94,25.8,11.85,51.61,18.11,77.34.71,2.91,3.55,5.3,5.4,7.94,2.08,2.16,3.81,4.93,6.31,6.39,9.71,5.65,19.67,10.88,29.54,16.27-16.43-6.29-32.86-12.57-49.19-18.82,0,21.29-.26,39.21.28,57.11.08,2.77,3.33,7.05,5.97,7.87,18.62,5.75,37.47,10.78,57.3,16.33,3.39-18.03,6.52-34.66,9.47-50.29-6.29-3.45-10.95-6-15.61-8.55,4.69-.82,9.38-1.63,14.02-2.44,2.97,1.78,6.03,5.2,8.91,5.06,12.58-.63,24.43-.29,36.98-1.57"/>
      <path class="cls-4" d="M409.64,632.28c4.9.98,10.48-.04,15.37.95-13-1.94-16.02,6.84-19.01,16.44-1.6,5.15-4.75,9.82-7.2,14.71,2.63-8.84,5.26-17.69,8.16-27.44-10.62,0-19.93-.56-29.11.3-3.24.3-8.17,3.54-8.89,6.32-3.22,12.36-5.24,25.04-7.61,37.62-1.28,6.79,2.63,6.86,7.46,5.57-3.17,4.15-8.73,8.1-9.12,12.5-2.3,26.27-3.41,52.65-4.95,79.54h25.16c4.88-32.45,9.96-64.51,14.36-96.66,1.12-8.2-4.03-6.72-8.79-3.69,4.45-4.77,8.91-9.54,13.44-14.45,2.51-.45,5.03-.89,7.54-1.34-2.18,4.55-5.56,8.9-6.33,13.68-5.26,32.44-9.98,64.97-14.77,97.49-.14.93.77,2.02,1.49,3.75,12.52-5.55,24.78-10.52,36.51-16.53,2.9-1.49,5.58-6.3,5.76-9.72,1.96-36.67,3.45-73.36,4.85-110.06.06-1.65-2.03-3.37-3.11-5.06,1.96-4.09,3.91-8.18,6.4-13.38-10.29,2.99-18.82,5.47-27.35,7.95-11.04-8.44-23.42-8.99-36.37-6.12-3.47-4.15-6.94-8.31-10.41-12.46,14.4,5.62,15.77,4.53,20.09-15.95-13.38-10.44-26.84-18.8-41.58-2.02-1,1.13-3.1,1.3-4.69,1.91,19.37-12.19,18.19-27.96,10.73-47.18-4.73-12.19-11.64-15.93-23.71-16.64,4.55,21.96,8.88,42.8,13.28,63.57,2.81,2.43,5.62,4.87,8.43,7.3-4.72-1.15-9.45-2.3-14.17-3.44-3.96-22.63-7.83-45.27-12.05-67.85-.4-2.12-2.68-4.67-4.73-5.57-10.36-4.57-20.93-8.65-32.63-13.39,0,3.48-.31,5.19.05,6.75,5.94,25.8,11.85,51.61,18.11,77.34.71,2.91,3.55,5.3,5.4,7.94,2.08,2.16,3.81,4.93,6.31,6.39,9.71,5.65,19.67,10.88,29.54,16.27-16.43-6.29-32.86-12.57-49.19-18.82,0,21.29-.26,39.21.28,57.11.08,2.77,3.33,7.05,5.97,7.87,18.62,5.75,37.47,10.78,57.3,16.33,3.39-18.03,6.52-34.66,9.47-50.29-6.29-3.45-10.95-6-15.61-8.55,4.69-.82,9.38-1.63,14.02-2.44,2.97,1.78,6.03,5.2,8.91,5.06,12.58-.63,24.43-.29,36.98-1.57Z"/>
      <path class="cls-5" d="M371.93,393.72c7.38,2.03,14.75,4.06,25.01,6.88-2.66-5.61-3.7-7.81-4.74-10.01,6.41,5.25,29.72,8.42,32.74,3.12,2.5-4.38.51-11.32.51-17.65h-41.05c3,5.82,5.48,10.62,7.96,15.43-10.48-16.92-26.21-20.55-44.71-18.32-7.52.91-15.25-.05-22.86.32-1.78.09-3.46,2.16-5.18,3.32-3.69-.65-7.39-1.29-11.08-1.94-6.02-10.91-11.84-21.95-18.45-32.5-.51-.81-6.55,1.86-10.02,2.91.74-5.11,3.87-11.67,1.8-15.08-7.97-13.12-17.41-25.39-26.85-37.55-1.22-1.57-5.62-.66-8.55-.9.47-3.31,2.39-7.29,1.2-9.82-9.18-19.49-18.95-38.69-29.41-59.73-2.74,4.34-4.03,6.4-5.33,8.46.35-5.37.69-10.74,1.03-16.11,3.37-.22,6.74-.44,10.12-.65-.17,3.67-1.6,7.89-.28,10.91,4.62,10.6,10.21,20.78,15.39,31.13q12.55,25.09,39.02,18.27c2.49-.64,5.01-1.18,7.49-1.88,19.16-5.36,38.31-10.75,58.47-16.42-13.84-30.29-26.91-58.88-39.79-87.09-7.81,3.36-14.01,6.03-20.21,8.69,4.5-3.98,9-7.96,14.31-12.66-21.46-6.66-41.94-12.51-62.02-19.5-7.68-2.68-13.01-1.43-18.26,4.04-12.09,12.61-24.24,25.16-36.44,37.67-6.15,6.3-2.85,9.47,3.64,11.75-4.11-.19-10.55-2.15-11.95-.29-11.57,15.29-28.27,30.07-31.76,47.35-5.87,29.09-3.1,59.91-4.24,89.99-.06,1.61-2.74,3.13-4,4.78-2.93-.35-5.85-.7-8.78-1.04-2.41-.15-6.69-1-6.95-.33-4.16,11-8.46,22.03-11.15,33.43-.72,3.07,3.81,7.38,5.92,11.12-1.06,1.64-3.41,3.79-2.99,4.83,5.41,13.53,10.03,27.57,17.2,40.15,9.37,16.44,17.86,34.77,28.42,50.53,3.23.37,9.41-2.33,12.63-1.96-1,5.3-4.47,11.77-2.6,15.7,10.11,21.25,4.49,40.19-6.09,58.98-1.67,2.97-2.74,6.28-4.06,9.44-7.2,17.22-14.39,34.45-22.14,53.02,24.06,6.83,46.5,13.19,71.61,20.32v-112.09c7.19,7.34,12.17,12.41,17.15,17.49-3.3-1.72-6.59-3.45-13.74-7.18,0,34.61-.07,66.5.17,98.39.01,1.96,2.02,4.89,3.85,5.71,24.78,11.12,49.69,21.96,76.22,33.59,0-6.1-.61-10.37.11-14.4,3.26-18.39-8.77-37.74,3.4-55.63.18-.27-2.18-2.26-3.36-3.45,2.48.84,4.96,1.68,9.48,3.21-6.94-30.17-13.21-58.22-20.03-86.12-.92-3.76-4.61-6.83-7.01-10.23,3.47-.86,7.53-.88,10.26-2.79,3.59-2.52,6.14-6.53,9.13-9.89-2.85,5.42-5.7,10.84-8.91,16.93,11.67,4.96,21.58,9.96,32.04,13.18,3.62,1.12,8.6-2.18,12.96-3.46-3.47,16.07,11.57,9.4,16.99,15.15,3.09-4.02,5.55-7.23,8.04-10.46-.59,3.97-1.18,7.94-1.94,13.03,8.48,1.39,16.45,2.69,24.43,4,.69-.83,1.38-1.65,2.07-2.48-6.11-7.11-12.22-14.22-18.34-21.34,3.57,2.26,8.22,3.73,10.5,6.91,8.44,11.76,18.35,9.05,29.8,4.34-2.8-8.68-5.46-16.88-8.27-25.59-11.57,5.34-21.61,9.98-31.53,14.72-2.38,2.26-4.76,4.53-7.15,6.8,5.86-11.81-2.91-16.76-10.17-23.41-3.71,4.73-6.77,8.64-9.84,12.54,8.44-12.43,6.92-23.46-3.79-34.02-3.06-3.02-4.21-7.97-6.24-12.03,7.06,7.88,14.13,15.76,22.25,24.82,14.38-16.26,44.5-18.67,38.99-52.25-20.29,6.68-40.08,13.2-59.88,19.72l-.33-.28c-.36,2.6-.72,5.19-1.08,7.78-3.84-2.02-7.68-4.03-11.51-6.05-6.57-7.07-13.15-14.14-19.72-21.21,7.24,4.04,14.48,8.09,21.81,12.18,7.1-9.93,14.11-19.75,21.12-29.57.99-6.2,1.97-12.41,3.33-20.97-13.38-2.7-26.27-5.3-39.15-7.9-.33,1.02-.65,2.04-.98,3.05,3.85,2.38,7.85,4.55,11.52,7.18,8.51,6.11,16.86,12.43,25.27,18.67-9.7-5.37-20.34-9.56-28.9-16.36-19.2-15.28-40.64-11.3-64.49-10.51,4.41,5.02,7.37,8.38,10.32,11.74-7.46-3.25-14.91-6.49-22.37-9.74-.88-2.78-1.76-5.55-2.64-8.33,3.39-1.02,6.79-2.04,10.18-3.05.15,1.1.33,3.18.43,3.18,18.85-.88,37.68-1.91,56.51-2.93,2.14,9.88,10.45,5.77,15.6,5.67,6.98-.14,16.71,2.82,19.25-8.51,5.57.9,11.14,1.77,16.69,2.72,7.68,1.31,15.36,2.68,23.04,4.02"/>
      <path class="cls-4" d="M371.93,393.72c7.38,2.03,14.75,4.06,25.01,6.88-2.66-5.61-3.7-7.81-4.74-10.01,6.41,5.25,29.72,8.42,32.74,3.12,2.5-4.38.51-11.32.51-17.65h-41.05c3,5.82,5.48,10.62,7.96,15.43-10.48-16.92-26.21-20.55-44.71-18.32-7.52.91-15.25-.05-22.86.32-1.78.09-3.46,2.16-5.18,3.32-3.69-.65-7.39-1.29-11.08-1.94-6.02-10.91-11.84-21.95-18.45-32.5-.51-.81-6.55,1.86-10.02,2.91.74-5.11,3.87-11.67,1.8-15.08-7.97-13.12-17.41-25.39-26.85-37.55-1.22-1.57-5.62-.66-8.55-.9.47-3.31,2.39-7.29,1.2-9.82-9.18-19.49-18.95-38.69-29.41-59.73-2.74,4.34-4.03,6.4-5.33,8.46.35-5.37.69-10.74,1.03-16.11,3.37-.22,6.74-.44,10.12-.65-.17,3.67-1.6,7.89-.28,10.91,4.62,10.6,10.21,20.78,15.39,31.13q12.55,25.09,39.02,18.27c2.49-.64,5.01-1.18,7.49-1.88,19.16-5.36,38.31-10.75,58.47-16.42-13.84-30.29-26.91-58.88-39.79-87.09-7.81,3.36-14.01,6.03-20.21,8.69,4.5-3.98,9-7.96,14.31-12.66-21.46-6.66-41.94-12.51-62.02-19.5-7.68-2.68-13.01-1.43-18.26,4.04-12.09,12.61-24.24,25.16-36.44,37.67-6.15,6.3-2.85,9.47,3.64,11.75-4.11-.19-10.55-2.15-11.95-.29-11.57,15.29-28.27,30.07-31.76,47.35-5.87,29.09-3.1,59.91-4.24,89.99-.06,1.61-2.74,3.13-4,4.78-2.93-.35-5.85-.7-8.78-1.04-2.41-.15-6.69-1-6.95-.33-4.16,11-8.46,22.03-11.15,33.43-.72,3.07,3.81,7.38,5.92,11.12-1.06,1.64-3.41,3.79-2.99,4.83,5.41,13.53,10.03,27.57,17.2,40.15,9.37,16.44,17.86,34.77,28.42,50.53,3.23.37,9.41-2.33,12.63-1.96-1,5.3-4.47,11.77-2.6,15.7,10.11,21.25,4.49,40.19-6.09,58.98-1.67,2.97-2.74,6.28-4.06,9.44-7.2,17.22-14.39,34.45-22.14,53.02,24.06,6.83,46.5,13.19,71.61,20.32v-112.09c7.19,7.34,12.17,12.41,17.15,17.49-3.3-1.72-6.59-3.45-13.74-7.18,0,34.61-.07,66.5.17,98.39.01,1.96,2.02,4.89,3.85,5.71,24.78,11.12,49.69,21.96,76.22,33.59,0-6.1-.61-10.37.11-14.4,3.26-18.39-8.77-37.74,3.4-55.63.18-.27-2.18-2.26-3.36-3.45,2.48.84,4.96,1.68,9.48,3.21-6.94-30.17-13.21-58.22-20.03-86.12-.92-3.76-4.61-6.83-7.01-10.23,3.47-.86,7.53-.88,10.26-2.79,3.59-2.52,6.14-6.53,9.13-9.89-2.85,5.42-5.7,10.84-8.91,16.93,11.67,4.96,21.58,9.96,32.04,13.18,3.62,1.12,8.6-2.18,12.96-3.46-3.47,16.07,11.57,9.4,16.99,15.15,3.09-4.02,5.55-7.23,8.04-10.46-.59,3.97-1.18,7.94-1.94,13.03,8.48,1.39,16.45,2.69,24.43,4,.69-.83,1.38-1.65,2.07-2.48-6.11-7.11-12.22-14.22-18.34-21.34,3.57,2.26,8.22,3.73,10.5,6.91,8.44,11.76,18.35,9.05,29.8,4.34-2.8-8.68-5.46-16.88-8.27-25.59-11.57,5.34-21.61,9.98-31.53,14.72-2.38,2.26-4.76,4.53-7.15,6.8,5.86-11.81-2.91-16.76-10.17-23.41-3.71,4.73-6.77,8.64-9.84,12.54,8.44-12.43,6.92-23.46-3.79-34.02-3.06-3.02-4.21-7.97-6.24-12.03,7.06,7.88,14.13,15.76,22.25,24.82,14.38-16.26,44.5-18.67,38.99-52.25-20.29,6.68-40.08,13.2-59.88,19.72l-.33-.28c-.36,2.6-.72,5.19-1.08,7.78-3.84-2.02-7.68-4.03-11.51-6.05-6.57-7.07-13.15-14.14-19.72-21.21,7.24,4.04,14.48,8.09,21.81,12.18,7.1-9.93,14.11-19.75,21.12-29.57.99-6.2,1.97-12.41,3.33-20.97-13.38-2.7-26.27-5.3-39.15-7.9-.33,1.02-.65,2.04-.98,3.05,3.85,2.38,7.85,4.55,11.52,7.18,8.51,6.11,16.86,12.43,25.27,18.67-9.7-5.37-20.34-9.56-28.9-16.36-19.2-15.28-40.64-11.3-64.49-10.51,4.41,5.02,7.37,8.38,10.32,11.74-7.46-3.25-14.91-6.49-22.37-9.74-.88-2.78-1.76-5.55-2.64-8.33,3.39-1.02,6.79-2.04,10.18-3.05.15,1.1.33,3.18.43,3.18,18.85-.88,37.68-1.91,56.51-2.93,2.14,9.88,10.45,5.77,15.6,5.67,6.98-.14,16.71,2.82,19.25-8.51,5.57.9,11.14,1.77,16.69,2.72,7.68,1.31,15.36,2.68,23.04,4.02"/>
      <path class="cls-5" d="M378.39,554.97c-5.75,7.17-11.5,14.35-18.13,22.61,10.07,5.29,17.4,9.14,24.87,13.06q9.67-24.43-7.06-36.08c5.07.33,10.15.67,15.9,1.05,2.28-15.07-10.47-6.95-17.35-13.12.89,6.27,1.33,9.38,1.77,12.48"/>
      <path class="cls-4" d="M378.39,554.97c-5.75,7.17-11.5,14.35-18.13,22.61,10.07,5.29,17.4,9.14,24.87,13.06q9.67-24.43-7.06-36.08c5.07.33,10.15.67,15.9,1.05,2.28-15.07-10.47-6.95-17.35-13.12.89,6.27,1.33,9.38,1.77,12.48Z"/>
      <path class="cls-5" d="M464.43,382.18c2.82,4.57,4.68,10.61,8.74,13.24,3.42,2.21,9.41.46,14.26.46-1.03,1.05-2.05,2.1-3.08,3.15,3.32,13.24,6.64,26.48,9.88,39.65-8.04-14.33-18.32-23.87-36.4-16.48-2.55,12.1,4.79,17.12,34.6,23.12.53-2.3,1.05-4.59,1.57-6.88.98,2.18,1.96,4.36,2.95,6.54,1.04-.74,2.08-1.49,3.12-2.23,6.01-23.43,12.01-46.87,17.72-69.12-3.48-2.16-5.68-3.53-7.98-4.96,2.61-10.63,5.23-21.27,7.91-32.17-36.59-4.57-34.1-6.61-36.08,30.19,9.55.73,19.09,1.46,28.63,2.19-15.22,1.6-31.2.27-43.95,11.39.66-1.89,1.33-3.78,2.57-7.34-13.15,1.13-25.12,2.17-39.89,3.44,2.8,7.58,3.83,16.86,7.09,17.72,5.21,1.38,12.08-2.4,17.9-4.84,3.8-1.59,6.99-4.67,10.45-7.08"/>
      <path class="cls-4" d="M464.43,382.18c2.82,4.57,4.68,10.61,8.74,13.24,3.42,2.21,9.41.46,14.26.46-1.03,1.05-2.05,2.1-3.08,3.15,3.32,13.24,6.64,26.48,9.88,39.65-8.04-14.33-18.32-23.87-36.4-16.48-2.55,12.1,4.79,17.12,34.6,23.12.53-2.3,1.05-4.59,1.57-6.88.98,2.18,1.96,4.36,2.95,6.54,1.04-.74,2.08-1.49,3.12-2.23,6.01-23.43,12.01-46.87,17.72-69.12-3.48-2.16-5.68-3.53-7.98-4.96,2.61-10.63,5.23-21.27,7.91-32.17-36.59-4.57-34.1-6.61-36.08,30.19,9.55.73,19.09,1.46,28.63,2.19-15.22,1.6-31.2.27-43.95,11.39.66-1.89,1.33-3.78,2.57-7.34-13.15,1.13-25.12,2.17-39.89,3.44,2.8,7.58,3.83,16.86,7.09,17.72,5.21,1.38,12.08-2.4,17.9-4.84,3.8-1.59,6.99-4.67,10.45-7.08Z"/>
    </g>
    <g class="cls-10">
      <path class="cls-5" d="M433.93,756.67c44.14-17.08,86.35-33.42,130.62-50.55-38.12-31.76-73.3-61.06-107.42-89.49-17.44,5.65-19.16,18.59-18.03,33.24.39,5.05-.66,10.21-.9,15.32-1.42,29.8-2.79,59.6-4.27,91.48"/>
      <path class="cls-4" d="M433.93,756.67c44.14-17.08,86.35-33.42,130.62-50.55-38.12-31.76-73.3-61.06-107.42-89.49-17.44,5.65-19.16,18.59-18.03,33.24.39,5.05-.66,10.21-.9,15.32-1.42,29.8-2.79,59.6-4.27,91.48Z"/>
      <path class="cls-5" d="M369.18,330.44c-8.11-24.36-15.48-46.49-23.22-69.75-30.63,8.43-59.91,16.48-90.86,24.99,11.69,16.22,21.57,30.18,31.81,43.87,1.55,2.07,4.81,4.16,7.2,4.08,24.28-.78,48.55-2,75.06-3.2"/>
      <path class="cls-4" d="M369.18,330.44c-8.11-24.36-15.48-46.49-23.22-69.75-30.63,8.43-59.91,16.48-90.86,24.99,11.69,16.22,21.57,30.18,31.81,43.87,1.55,2.07,4.81,4.16,7.2,4.08,24.28-.78,48.55-2,75.06-3.2Z"/>
      <path class="cls-5" d="M394.89,154.49c11.85,31.66,22.74,60.97,33.87,90.18.96,2.52,3.39,6.19,5.36,6.34,16.27,1.24,32.6,1.77,50.23,2.58-9.68-29.26-18.27-55.75-27.39-82.06-1-2.9-4.74-6.2-7.74-6.84-17.1-3.65-34.37-6.55-54.33-10.21"/>
      <path class="cls-4" d="M394.89,154.49c11.85,31.66,22.74,60.97,33.87,90.18.96,2.52,3.39,6.19,5.36,6.34,16.27,1.24,32.6,1.77,50.23,2.58-9.68-29.26-18.27-55.75-27.39-82.06-1-2.9-4.74-6.2-7.74-6.84-17.1-3.65-34.37-6.55-54.33-10.21Z"/>
      <path class="cls-5" d="M293.65,677.77c4.18,32.61,7.91,63.06,12.28,93.42.36,2.49,4.97,5.93,7.86,6.19,9.77.88,19.7,1.14,29.45.27,2.69-.24,6.9-5.07,7.12-8.04,1.62-22.12,2.78-44.29,3.08-66.46.05-3.52-4.25-9.15-7.71-10.32-16.14-5.41-32.69-9.6-52.07-15.06"/>
      <path class="cls-4" d="M293.65,677.77c4.18,32.61,7.91,63.06,12.28,93.42.36,2.49,4.97,5.93,7.86,6.19,9.77.88,19.7,1.14,29.45.27,2.69-.24,6.9-5.07,7.12-8.04,1.62-22.12,2.78-44.29,3.08-66.46.05-3.52-4.25-9.15-7.71-10.32-16.14-5.41-32.69-9.6-52.07-15.06Z"/>
      <path class="cls-5" d="M432.88,258.45v82.66c13.76-3.43,26.27-6.13,38.48-9.85,3.36-1.02,7.97-4.83,8.31-7.78,2.42-21.15,3.89-42.41,5.79-65.03h-52.57Z"/>
      <path class="cls-4" d="M432.88,258.45v82.66c13.76-3.43,26.27-6.13,38.48-9.85,3.36-1.02,7.97-4.83,8.31-7.78,2.42-21.15,3.89-42.41,5.79-65.03h-52.57Z"/>
      <path class="cls-5" d="M515.78,330.42c-2.59-55.3-20.09-103.88-49.71-148.39,6.92,23.71,14.84,47.1,22.44,70.58,1.03,3.17.81,6.88.62,10.31-1.2,21.64-2.55,43.27-3.91,65.9,10.68.56,19.91,1.04,30.55,1.6"/>
      <path class="cls-4" d="M515.78,330.42c-2.59-55.3-20.09-103.88-49.71-148.39,6.92,23.71,14.84,47.1,22.44,70.58,1.03,3.17.81,6.88.62,10.31-1.2,21.64-2.55,43.27-3.91,65.9,10.68.56,19.91,1.04,30.55,1.6Z"/>
      <path class="cls-5" d="M378.98,369.95c13.45,0,26.2-.21,38.95.07,9.72.21,7.93-7.84,8.67-12.82.53-3.57-1.86-10.48-4.21-11.09-15.08-3.94-30.5-6.55-46.92-9.81,1.27,12.14,2.31,22.16,3.51,33.65"/>
      <path class="cls-4" d="M378.98,369.95c13.45,0,26.2-.21,38.95.07,9.72.21,7.93-7.84,8.67-12.82.53-3.57-1.86-10.48-4.21-11.09-15.08-3.94-30.5-6.55-46.92-9.81,1.27,12.14,2.31,22.16,3.51,33.65Z"/>
      <path class="cls-5" d="M445.51,482.81c-2.44-11.28-1.51-25.28-7.59-29.76-5.59-4.12-18.74,2.03-28.51,3.64,3.25,29-3.49,22.07,36.1,26.12"/>
      <path class="cls-4" d="M445.51,482.81c-2.44-11.28-1.51-25.28-7.59-29.76-5.59-4.12-18.74,2.03-28.51,3.64,3.25,29-3.49,22.07,36.1,26.12Z"/>
      <path class="cls-5" d="M420.62,568.8q-23.52-6.15-28.64,24.31h26.01c.86-7.95,1.71-15.82,2.63-24.31"/>
      <path class="cls-4" d="M420.62,568.8q-23.52-6.15-28.64,24.31h26.01c.86-7.95,1.71-15.82,2.63-24.31Z"/>
      <path class="cls-5" d="M409.73,449.99c9.63-2.19,18.64-4.24,28.83-6.57-1.96-7.54-3.61-13.88-5.24-20.14q-27.57,5.37-23.6,26.71"/>
      <path class="cls-4" d="M409.73,449.99c9.63-2.19,18.64-4.24,28.83-6.57-1.96-7.54-3.61-13.88-5.24-20.14q-27.57,5.37-23.6,26.71Z"/>
      <path class="cls-5" d="M440.66,591.31v-26.62c-17.12.19-19.52,4.96-15.11,29.45,4.91-.92,9.81-1.83,15.11-2.83"/>
      <path class="cls-4" d="M440.66,591.31v-26.62c-17.12.19-19.52,4.96-15.11,29.45,4.91-.92,9.81-1.83,15.11-2.83Z"/>
      <path class="cls-5" d="M434.22,526.39c13.77.43,16.53-4.64,13.05-24.99-5.7.96-11.4,1.93-16.92,2.86,1.46,8.28,2.68,15.21,3.87,22.13"/>
      <path class="cls-4" d="M434.22,526.39c13.77.43,16.53-4.64,13.05-24.99-5.7.96-11.4,1.93-16.92,2.86,1.46,8.28,2.68,15.21,3.87,22.13Z"/>
      <path class="cls-5" d="M481.67,400.36q-20.82-1.62-22.75,15.07h22.75v-15.07Z"/>
      <path class="cls-4" d="M481.67,400.36q-20.82-1.62-22.75,15.07h22.75v-15.07Z"/>
      <path class="cls-5" d="M388.02,432.04c14.71-6.62,15.48-9.29,7.39-25.78-5.79,7.74-20.16,11.93-7.39,25.78"/>
      <path class="cls-4" d="M388.02,432.04c14.71-6.62,15.48-9.29,7.39-25.78-5.79,7.74-20.16,11.93-7.39,25.78Z"/>
      <path class="cls-5" d="M424.54,546.63c.42,5.81.72,9.84,1.02,13.88,1.18.82,2.37,1.63,3.55,2.45,4.52-4.49,9.03-8.98,13.55-13.47-.91-.95-1.81-1.91-2.72-2.86h-15.4Z"/>
      <path class="cls-4" d="M424.54,546.63c.42,5.81.72,9.84,1.02,13.88,1.18.82,2.37,1.63,3.55,2.45,4.52-4.49,9.03-8.98,13.55-13.47-.91-.95-1.81-1.91-2.72-2.86h-15.4Z"/>
      <path class="cls-5" d="M431.83,398.7c3.85,9.7,6.49,16.35,9.13,22.99,1.82-.74,3.64-1.47,5.46-2.21-6.83-5.09,4.46-17.73-14.6-20.79"/>
      <path class="cls-4" d="M431.83,398.7c3.85,9.7,6.49,16.35,9.13,22.99,1.82-.74,3.64-1.47,5.46-2.21-6.83-5.09,4.46-17.73-14.6-20.79Z"/>
      <path class="cls-5" d="M270.65,504.14c2.41,3.39,6.1,6.47,7.01,10.23,6.82,27.91,13.09,55.95,20.03,86.12-4.52-1.53-7-2.37-9.43-3.16-22.2-18.99-44.44-38.03-66.69-57.07-4.98-5.07-9.95-10.15-17.15-17.48v112.09c-25.11-7.13-47.55-13.49-71.61-20.32,7.75-18.57,14.94-35.8,22.14-53.02,1.32-3.16,2.39-6.47,4.06-9.44,10.58-18.78,16.2-37.72,6.09-58.98-1.87-3.93,1.6-10.4,2.55-15.7,4.5-.67,10.25.13,13.28-2.37,3.73-3.08,8.08-9.68,7.09-13.42-3.09-11.71-8.57-22.8-13.12-34.13.14-2.12.67-4.3.37-6.35-2.36-16.36-5.15-32.66-7.08-49.06-.34-2.85,2.73-6.1,4.22-9.17,7.46,4.1,14.92,8.21,22.38,12.31,9.83,4.35,19.65,8.7,29.48,13.04.88,2.78,1.76,5.55,2.64,8.32-5.07,17.14-9.15,34.67-15.59,51.29-4.11,10.62-.65,15.39,7.62,20.78,17.51,11.41,34.5,23.62,51.7,35.5"/>
      <path class="cls-4" d="M270.65,504.14c2.41,3.39,6.1,6.47,7.01,10.23,6.82,27.91,13.09,55.95,20.03,86.12-4.52-1.53-7-2.37-9.43-3.16-22.2-18.99-44.44-38.03-66.69-57.07-4.98-5.07-9.95-10.15-17.15-17.48v112.09c-25.11-7.13-47.55-13.49-71.61-20.32,7.75-18.57,14.94-35.8,22.14-53.02,1.32-3.16,2.39-6.47,4.06-9.44,10.58-18.78,16.2-37.72,6.09-58.98-1.87-3.93,1.6-10.4,2.55-15.7,4.5-.67,10.25.13,13.28-2.37,3.73-3.08,8.08-9.68,7.09-13.42-3.09-11.71-8.57-22.8-13.12-34.13.14-2.12.67-4.3.37-6.35-2.36-16.36-5.15-32.66-7.08-49.06-.34-2.85,2.73-6.1,4.22-9.17,7.46,4.1,14.92,8.21,22.38,12.31,9.83,4.35,19.65,8.7,29.48,13.04.88,2.78,1.76,5.55,2.64,8.32-5.07,17.14-9.15,34.67-15.59,51.29-4.11,10.62-.65,15.39,7.62,20.78,17.51,11.41,34.5,23.62,51.7,35.5Z"/>
      <path class="cls-5" d="M284.14,177.53c6.2-2.67,12.4-5.33,20.21-8.69,12.89,28.21,25.95,56.8,39.79,87.09-20.16,5.66-39.31,11.05-58.47,16.42-2.48.69-5,1.23-7.49,1.88q-26.48,6.83-39.02-18.27c-5.18-10.36-10.77-20.53-15.39-31.13-1.32-3.02.11-7.24.22-10.88,5.43-3.12,10.92-6.28,16.42-9.43,14.75-9.15,29.5-18.29,44.24-27.44l-.51.46Z"/>
      <path class="cls-4" d="M284.14,177.53c6.2-2.67,12.4-5.33,20.21-8.69,12.89,28.21,25.95,56.8,39.79,87.09-20.16,5.66-39.31,11.05-58.47,16.42-2.48.69-5,1.23-7.49,1.88q-26.48,6.83-39.02-18.27c-5.18-10.36-10.77-20.53-15.39-31.13-1.32-3.02.11-7.24.22-10.88,5.43-3.12,10.92-6.28,16.42-9.43,14.75-9.15,29.5-18.29,44.24-27.44l-.51.46Z"/>
      <path class="cls-5" d="M133.22,340.58c1.46-1.56,4.14-3.08,4.2-4.69,1.15-30.08-1.63-60.9,4.24-89.99,3.49-17.29,20.19-32.06,31.76-47.36,1.4-1.86,7.84.1,11.86.25,9.49,5.23,19.07,10.5,28.65,15.77-.34,5.37-.69,10.74-1,16.02-12.21,33.21-24.46,66.51-36.71,99.81-3.75,8.81-7.51,17.62-10.88,25.55-11.05-5.29-21.59-10.33-32.12-15.37"/>
      <path class="cls-4" d="M133.22,340.58c1.46-1.56,4.14-3.08,4.2-4.69,1.15-30.08-1.63-60.9,4.24-89.99,3.49-17.29,20.19-32.06,31.76-47.36,1.4-1.86,7.84.1,11.86.25,9.49,5.23,19.07,10.5,28.65,15.77-.34,5.37-.69,10.74-1,16.02-12.21,33.21-24.46,66.51-36.71,99.81-3.75,8.81-7.51,17.62-10.88,25.55-11.05-5.29-21.59-10.33-32.12-15.37Z"/>
      <path class="cls-5" d="M221.58,540.25c22.25,19.04,44.49,38.08,66.69,57.07,1.13,1.15,3.49,3.14,3.31,3.41-12.17,17.89-.14,37.24-3.4,55.63-.71,4.03-.1,8.29-.1,14.4-26.53-11.63-51.44-22.46-76.22-33.59-1.82-.82-3.83-3.75-3.85-5.71-.24-31.89-.17-63.78-.17-98.39,7.15,3.74,10.45,5.46,13.74,7.18"/>
      <path class="cls-4" d="M221.58,540.25c22.25,19.04,44.49,38.08,66.69,57.07,1.13,1.15,3.49,3.14,3.31,3.41-12.17,17.89-.14,37.24-3.4,55.63-.71,4.03-.1,8.29-.1,14.4-26.53-11.63-51.44-22.46-76.22-33.59-1.82-.82-3.83-3.75-3.85-5.71-.24-31.89-.17-63.78-.17-98.39,7.15,3.74,10.45,5.46,13.74,7.18Z"/>
      <path class="cls-5" d="M270.65,504.14c-17.2-11.88-34.19-24.09-51.7-35.5-8.27-5.39-11.72-10.17-7.62-20.78,6.43-16.62,10.51-34.15,15.59-51.29,7.45,3.25,14.91,6.5,22.33,9.72,13.37,10.82,26.76,21.66,40.16,32.51,6.57,7.07,13.15,14.14,19.72,21.2-6.36,10.48-12.73,20.97-19.1,31.45-2.99,3.37-5.54,7.38-9.13,9.89-2.73,1.91-6.79,1.93-10.26,2.79"/>
      <path class="cls-4" d="M270.65,504.14c-17.2-11.88-34.19-24.09-51.7-35.5-8.27-5.39-11.72-10.17-7.62-20.78,6.43-16.62,10.51-34.15,15.59-51.29,7.45,3.25,14.91,6.5,22.33,9.72,13.37,10.82,26.76,21.66,40.16,32.51,6.57,7.07,13.15,14.14,19.72,21.2-6.36,10.48-12.73,20.97-19.1,31.45-2.99,3.37-5.54,7.38-9.13,9.89-2.73,1.91-6.79,1.93-10.26,2.79Z"/>
      <path class="cls-5" d="M176.22,330.39c12.25-33.3,24.49-66.6,36.71-99.81,1.26-1.97,2.56-4.03,5.3-8.37,10.46,21.04,20.23,40.24,29.41,59.73,1.19,2.52-.72,6.51-1.2,9.82-17.21,27.81-34.42,55.63-51.63,83.44-7.46-4.1-14.92-8.21-22.38-12.31-.7-3.58-2.46-7.34-1.89-10.7,1.26-7.37,3.71-14.54,5.68-21.8"/>
      <path class="cls-4" d="M176.22,330.39c12.25-33.3,24.49-66.6,36.71-99.81,1.26-1.97,2.56-4.03,5.3-8.37,10.46,21.04,20.23,40.24,29.41,59.73,1.19,2.52-.72,6.51-1.2,9.82-17.21,27.81-34.42,55.63-51.63,83.44-7.46-4.1-14.92-8.21-22.38-12.31-.7-3.58-2.46-7.34-1.89-10.7,1.26-7.37,3.71-14.54,5.68-21.8Z"/>
      <path class="cls-5" d="M369.18,330.44c-26.52,1.2-50.78,2.42-75.06,3.2-2.4.08-5.66-2.01-7.2-4.08-10.24-13.69-20.12-27.65-31.81-43.87,30.95-8.51,60.22-16.57,90.86-24.99,7.74,23.26,15.11,45.39,23.22,69.75"/>
      <path class="cls-4" d="M369.18,330.44c-26.52,1.2-50.78,2.42-75.06,3.2-2.4.08-5.66-2.01-7.2-4.08-10.24-13.69-20.12-27.65-31.81-43.87,30.95-8.51,60.22-16.57,90.86-24.99,7.74,23.26,15.11,45.39,23.22,69.75Z"/>
      <path class="cls-5" d="M394.89,154.49c19.97,3.66,37.23,6.56,54.33,10.21,3,.64,6.74,3.94,7.74,6.84,9.12,26.3,17.71,52.79,27.39,82.06-17.64-.81-33.96-1.34-50.23-2.58-1.97-.15-4.4-3.82-5.36-6.34-11.13-29.21-22.02-58.52-33.87-90.18"/>
      <path class="cls-4" d="M394.89,154.49c19.97,3.66,37.23,6.56,54.33,10.21,3,.64,6.74,3.94,7.74,6.84,9.12,26.3,17.71,52.79,27.39,82.06-17.64-.81-33.96-1.34-50.23-2.58-1.97-.15-4.4-3.82-5.36-6.34-11.13-29.21-22.02-58.52-33.87-90.18Z"/>
      <path class="cls-5" d="M293.65,677.77c19.37,5.46,35.92,9.65,52.07,15.06,3.46,1.16,7.76,6.8,7.71,10.32-.3,22.17-1.46,44.34-3.08,66.46-.22,2.97-4.43,7.8-7.12,8.04-9.75.87-19.68.61-29.45-.27-2.88-.26-7.5-3.71-7.86-6.19-4.38-30.36-8.11-60.81-12.28-93.42"/>
      <path class="cls-4" d="M293.65,677.77c19.37,5.46,35.92,9.65,52.07,15.06,3.46,1.16,7.76,6.8,7.71,10.32-.3,22.17-1.46,44.34-3.08,66.46-.22,2.97-4.43,7.8-7.12,8.04-9.75.87-19.68.61-29.45-.27-2.88-.26-7.5-3.71-7.86-6.19-4.38-30.36-8.11-60.81-12.28-93.42Z"/>
      <path class="cls-5" d="M213.93,214.56c-9.58-5.27-19.16-10.53-28.65-15.77-6.4-2.24-9.7-5.42-3.55-11.72,12.2-12.5,24.35-25.06,36.44-37.67,5.25-5.47,10.57-6.72,18.26-4.04,20.08,7,40.56,12.84,62.02,19.5-5.31,4.69-9.81,8.68-14.31,12.66l.51-.46c-14.75,9.15-29.5,18.29-44.24,27.44-5.49,3.16-10.98,6.31-16.42,9.43-3.31.18-6.69.4-10.06.62"/>
      <path class="cls-4" d="M213.93,214.56c-9.58-5.27-19.16-10.53-28.65-15.77-6.4-2.24-9.7-5.42-3.55-11.72,12.2-12.5,24.35-25.06,36.44-37.67,5.25-5.47,10.57-6.72,18.26-4.04,20.08,7,40.56,12.84,62.02,19.5-5.31,4.69-9.81,8.68-14.31,12.66l.51-.46c-14.75,9.15-29.5,18.29-44.24,27.44-5.49,3.16-10.98,6.31-16.42,9.43-3.31.18-6.69.4-10.06.62Z"/>
      <path class="cls-5" d="M430.84,636.18c1.09,1.69,3.17,3.42,3.11,5.06-1.39,36.69-2.88,73.39-4.85,110.05-.18,3.42-2.86,8.23-5.76,9.72-11.73,6.02-23.99,10.98-36.51,16.53-.72-1.73-1.63-2.82-1.49-3.75,4.8-32.51,9.52-65.04,14.77-97.49.77-4.78,4.15-9.13,6.33-13.68,8.13-8.82,16.26-17.64,24.39-26.46"/>
      <path class="cls-4" d="M430.84,636.18c1.09,1.69,3.17,3.42,3.11,5.06-1.39,36.69-2.88,73.39-4.85,110.05-.18,3.42-2.86,8.23-5.76,9.72-11.73,6.02-23.99,10.98-36.51,16.53-.72-1.73-1.63-2.82-1.49-3.75,4.8-32.51,9.52-65.04,14.77-97.49.77-4.78,4.15-9.13,6.33-13.68,8.13-8.82,16.26-17.64,24.39-26.46Z"/>
      <path class="cls-5" d="M349.72,631.24c4.66,2.55,9.32,5.1,15.61,8.55-2.94,15.63-6.07,32.26-9.46,50.29-19.83-5.55-38.68-10.58-57.3-16.33-2.64-.82-5.89-5.1-5.97-7.87-.54-17.9-.27-35.82-.27-57.11,16.32,6.24,32.75,12.53,49.08,18.74,2.7,1.19,5.51,2.46,8.32,3.72"/>
      <path class="cls-4" d="M349.72,631.24c4.66,2.55,9.32,5.1,15.61,8.55-2.94,15.63-6.07,32.26-9.46,50.29-19.83-5.55-38.68-10.58-57.3-16.33-2.64-.82-5.89-5.1-5.97-7.87-.54-17.9-.27-35.82-.27-57.11,16.32,6.24,32.75,12.53,49.08,18.74,2.7,1.19,5.51,2.46,8.32,3.72Z"/>
      <path class="cls-5" d="M432.88,258.45h52.57c-1.89,22.62-3.36,43.88-5.79,65.03-.34,2.95-4.95,6.76-8.31,7.78-12.21,3.72-24.72,6.43-38.48,9.85v-82.66Z"/>
      <path class="cls-4" d="M432.88,258.45h52.57c-1.89,22.62-3.36,43.88-5.79,65.03-.34,2.95-4.95,6.76-8.31,7.78-12.21,3.72-24.72,6.43-38.48,9.85v-82.66Z"/>
      <path class="cls-5" d="M357.7,137.35c7.4,3.94,14.12,8.74,22.52,13.21-24.22,3.97-47.37,8.31-70.7,11.23-6.72.84-14.11-1.85-20.92-3.86-17.62-5.19-35.09-10.89-56.41-17.58,17.21-5.13,31.5-8.2,44.81-13.66,15.21-6.24,29-3.35,43.39,1.8,10.83,3.88,16.86,4.26,27.87,7.56,1.18-.1,8.24,1.39,9.43,1.29"/>
      <path class="cls-4" d="M357.7,137.35c7.4,3.94,14.12,8.74,22.52,13.21-24.22,3.97-47.37,8.31-70.7,11.23-6.72.84-14.11-1.85-20.92-3.86-17.62-5.19-35.09-10.89-56.41-17.58,17.21-5.13,31.5-8.2,44.81-13.66,15.21-6.24,29-3.35,43.39,1.8,10.83,3.88,16.86,4.26,27.87,7.56,1.18-.1,8.24,1.39,9.43,1.29Z"/>
      <path class="cls-5" d="M385.48,678.42c4.75-3.02,9.91-4.51,8.79,3.69-4.4,32.15-9.48,64.21-14.36,96.66h-25.16c1.54-26.88,2.64-53.26,4.95-79.54.39-4.4,5.95-8.34,9.12-12.5,5.55-2.77,11.11-5.54,16.66-8.32"/>
      <path class="cls-4" d="M385.48,678.42c4.75-3.02,9.91-4.51,8.79,3.69-4.4,32.15-9.48,64.21-14.36,96.66h-25.16c1.54-26.88,2.64-53.26,4.95-79.54.39-4.4,5.95-8.34,9.12-12.5,5.55-2.77,11.11-5.54,16.66-8.32Z"/>
      <path class="cls-5" d="M112.47,383.84c-2.12-3.74-6.65-8.05-5.92-11.11,2.69-11.4,6.99-22.44,11.15-33.43.25-.67,4.54.19,6.94.33,9.6,5.62,19.27,11.14,28.78,16.92,3.83,2.33,10.02,4.88,10.46,7.98,2.27,16.16,3.04,32.52,4.47,50.58-7.39-2.98-12.76-5.15-18.12-7.31-12.58-7.98-25.17-15.97-37.75-23.96"/>
      <path class="cls-4" d="M112.47,383.84c-2.12-3.74-6.65-8.05-5.92-11.11,2.69-11.4,6.99-22.44,11.15-33.43.25-.67,4.54.19,6.94.33,9.6,5.62,19.27,11.14,28.78,16.92,3.83,2.33,10.02,4.88,10.46,7.98,2.27,16.16,3.04,32.52,4.47,50.58-7.39-2.98-12.76-5.15-18.12-7.31-12.58-7.98-25.17-15.97-37.75-23.96Z"/>
      <path class="cls-5" d="M305.65,604.93c-1.85-2.63-4.69-5.02-5.4-7.94-6.27-25.72-12.18-51.54-18.11-77.34-.36-1.56-.05-3.27-.05-6.75,11.7,4.74,22.27,8.83,32.63,13.39,2.05.9,4.33,3.45,4.73,5.57,4.22,22.58,8.09,45.22,12.05,67.85-8.62,1.74-17.23,3.48-25.85,5.21"/>
      <path class="cls-4" d="M305.65,604.93c-1.85-2.63-4.69-5.02-5.4-7.94-6.27-25.72-12.18-51.54-18.11-77.34-.36-1.56-.05-3.27-.05-6.75,11.7,4.74,22.27,8.83,32.63,13.39,2.05.9,4.33,3.45,4.73,5.57,4.22,22.58,8.09,45.22,12.05,67.85-8.62,1.74-17.23,3.48-25.85,5.21Z"/>
      <path class="cls-5" d="M289.42,438.8c-13.39-10.85-26.79-21.69-40.16-32.51-2.93-3.33-5.88-6.7-10.3-11.72,23.85-.79,45.29-4.77,64.49,10.51,8.56,6.81,19.2,10.99,28.9,16.36v-.03c-7.01,9.82-14.03,19.63-21.12,29.57-7.33-4.1-14.57-8.14-21.81-12.18"/>
      <path class="cls-4" d="M289.42,438.8c-13.39-10.85-26.79-21.69-40.16-32.51-2.93-3.33-5.88-6.7-10.3-11.72,23.85-.79,45.29-4.77,64.49,10.51,8.56,6.81,19.2,10.99,28.9,16.36v-.03c-7.01,9.82-14.03,19.63-21.12,29.57-7.33-4.1-14.57-8.14-21.81-12.18Z"/>
      <path class="cls-5" d="M515.78,330.42c-10.64-.56-19.87-1.04-30.55-1.6,1.36-22.62,2.71-44.26,3.91-65.9.19-3.43.41-7.13-.62-10.31-7.61-23.48-15.53-46.87-22.44-70.58,29.62,44.5,47.12,93.08,49.71,148.39"/>
      <path class="cls-4" d="M515.78,330.42c-10.64-.56-19.87-1.04-30.55-1.6,1.36-22.62,2.71-44.26,3.91-65.9.19-3.43.41-7.13-.62-10.31-7.61-23.48-15.53-46.87-22.44-70.58,29.62,44.5,47.12,93.08,49.71,148.39Z"/>
      <path class="cls-5" d="M290.04,491.46c6.37-10.48,12.73-20.97,19.1-31.45,3.84,2.02,7.68,4.03,11.52,6.05,0,0,.05.21.05.21,2.03,4.07,3.18,9.02,6.24,12.03,10.71,10.56,12.23,21.6,3.82,33.97-1.53,1.91-3.08,3.88-4.64,5.84-4.36,1.28-9.34,4.57-12.96,3.45-10.46-3.22-20.37-8.22-32.04-13.18,3.21-6.09,6.05-11.51,8.91-16.93"/>
      <path class="cls-4" d="M290.04,491.46c6.37-10.48,12.73-20.97,19.1-31.45,3.84,2.02,7.68,4.03,11.52,6.05,0,0,.05.21.05.21,2.03,4.07,3.18,9.02,6.24,12.03,10.71,10.56,12.23,21.6,3.82,33.97-1.53,1.91-3.08,3.88-4.64,5.84-4.36,1.28-9.34,4.57-12.96,3.45-10.46-3.22-20.37-8.22-32.04-13.18,3.21-6.09,6.05-11.51,8.91-16.93Z"/>
      <path class="cls-5" d="M234.47,385.2c15.23-13.34,30.46-26.67,45.63-39.96,3.41-1,9.46-3.66,9.97-2.86,6.61,10.55,12.43,21.58,18.46,32.49-5.7,3.52-11.4,7.04-17.11,10.56-18.84,1.02-37.68,2.05-56.52,2.94-.09,0-.28-2.07-.43-3.17"/>
      <path class="cls-4" d="M234.47,385.2c15.23-13.34,30.46-26.67,45.63-39.96,3.41-1,9.46-3.66,9.97-2.86,6.61,10.55,12.43,21.58,18.46,32.49-5.7,3.52-11.4,7.04-17.11,10.56-18.84,1.02-37.68,2.05-56.52,2.94-.09,0-.28-2.07-.43-3.17Z"/>
      <path class="cls-5" d="M466.33,380.27c12.75-11.12,28.73-9.79,43.95-11.39l-.37-.15c2.2,1.37,4.41,2.74,7.89,4.91-5.71,22.25-11.71,45.69-17.72,69.12-1.04.74-2.08,1.49-3.12,2.23-.98-2.18-1.96-4.36-2.95-6.54l.3.3c-3.32-13.24-6.64-26.48-9.95-39.72,1.03-1.05,2.05-2.1,3.08-3.15-4.85,0-10.84,1.76-14.26-.46-4.07-2.63-5.93-8.68-8.75-13.23.63-.63,1.26-1.28,1.9-1.92"/>
      <path class="cls-4" d="M466.33,380.27c12.75-11.12,28.73-9.79,43.95-11.39l-.37-.15c2.2,1.37,4.41,2.74,7.89,4.91-5.71,22.25-11.71,45.69-17.72,69.12-1.04.74-2.08,1.49-3.12,2.23-.98-2.18-1.96-4.36-2.95-6.54l.3.3c-3.32-13.24-6.64-26.48-9.95-39.72,1.03-1.05,2.05-2.1,3.08-3.15-4.85,0-10.84,1.76-14.26-.46-4.07-2.63-5.93-8.68-8.75-13.23.63-.63,1.26-1.28,1.9-1.92Z"/>
      <path class="cls-5" d="M385.48,678.42c-5.55,2.77-11.11,5.54-16.66,8.32-4.83,1.29-8.74,1.21-7.46-5.57,2.37-12.58,4.39-25.25,7.61-37.61.73-2.79,5.65-6.02,8.89-6.32,9.18-.86,18.49-.3,29.11-.3-2.9,9.76-5.53,18.6-8.15,27.4,0-.04.03-.22.03-.22-4.45,4.77-8.91,9.54-13.36,14.31"/>
      <path class="cls-4" d="M385.48,678.42c-5.55,2.77-11.11,5.54-16.66,8.32-4.83,1.29-8.74,1.21-7.46-5.57,2.37-12.58,4.39-25.25,7.61-37.61.73-2.79,5.65-6.02,8.89-6.32,9.18-.86,18.49-.3,29.11-.3-2.9,9.76-5.53,18.6-8.15,27.4,0-.04.03-.22.03-.22-4.45,4.77-8.91,9.54-13.36,14.31Z"/>
      <path class="cls-5" d="M378.98,369.95c-1.2-11.5-2.24-21.52-3.51-33.65,16.42,3.27,31.85,5.88,46.92,9.81,2.34.61,4.5,4.27,4.5,10.36,0,6.52-.95,13.61-8.96,13.54-12.74-.27-25.5-.07-38.95-.07"/>
      <path class="cls-4" d="M378.98,369.95c-1.2-11.5-2.24-21.52-3.51-33.65,16.42,3.27,31.85,5.88,46.92,9.81,2.34.61,4.5,4.27,4.5,10.36,0,6.52-.95,13.61-8.96,13.54-12.74-.27-25.5-.07-38.95-.07Z"/>
      <path class="cls-5" d="M474.94,368.13c-14.38.77-28.8,1.39-41.99,2.09-1.34-20.22-2.5-23.41,15.68-27.77,9.52-2.28,19.04-4.54,28.57-6.78.34-.08.77.19,2.84.76-1.68,10.45-3.39,21.1-5.1,31.7"/>
      <path class="cls-4" d="M474.94,368.13c-14.38.77-28.8,1.39-41.99,2.09-1.34-20.22-2.5-23.41,15.68-27.77,9.52-2.28,19.04-4.54,28.57-6.78.34-.08.77.19,2.84.76-1.68,10.45-3.39,21.1-5.1,31.7Z"/>
      <path class="cls-5" d="M388.97,461.69c4.47-1.15,8.93-2.29,15.05-3.86.87,8.68,1.69,16.85,2.55,25.49,13.27,1.99,26.16,4.32,39.16,5.62,3.22.32,6.77-2.68,10.17-4.15l-.38.25c1.23,1.67,2.45,3.33,3.67,4.99,0,0-.77.77-.77.77-16.39,11.98-35.1,8.17-53.27,7.67-4.5-.12-8.98-1.08-13.47-1.65v.04c-1.37-7.93-3.13-15.83-3.96-23.82-.39-3.78,1-7.75,1.58-11.63l-.33.28Z"/>
      <path class="cls-4" d="M388.97,461.69c4.47-1.15,8.93-2.29,15.05-3.86.87,8.68,1.69,16.85,2.55,25.49,13.27,1.99,26.16,4.32,39.16,5.62,3.22.32,6.77-2.68,10.17-4.15l-.38.25c1.23,1.67,2.45,3.33,3.67,4.99,0,0-.77.77-.77.77-16.39,11.98-35.1,8.17-53.27,7.67-4.5-.12-8.98-1.08-13.47-1.65v.04c-1.37-7.93-3.13-15.83-3.96-23.82-.39-3.78,1-7.75,1.58-11.63l-.33.28Z"/>
      <path class="cls-5" d="M305.65,604.93c8.62-1.74,17.23-3.48,25.85-5.21,4.72,1.15,9.45,2.3,14.04,3.43,5.77,3,11.67,6.01,17.57,9.03,3.47,4.15,6.94,8.31,10.42,12.46-3.24,1.38-6.49,2.77-9.75,4.16-4.69.82-9.38,1.63-14.06,2.45-2.81-1.27-5.62-2.53-8.33-3.72-9.76-5.31-19.72-10.55-29.43-16.2-2.5-1.45-4.23-4.22-6.31-6.39"/>
      <path class="cls-4" d="M305.65,604.93c8.62-1.74,17.23-3.48,25.85-5.21,4.72,1.15,9.45,2.3,14.04,3.43,5.77,3,11.67,6.01,17.57,9.03,3.47,4.15,6.94,8.31,10.42,12.46-3.24,1.38-6.49,2.77-9.75,4.16-4.69.82-9.38,1.63-14.06,2.45-2.81-1.27-5.62-2.53-8.33-3.72-9.76-5.31-19.72-10.55-29.43-16.2-2.5-1.45-4.23-4.22-6.31-6.39Z"/>
      <path class="cls-5" d="M337.16,595.91c-4.32-20.83-8.64-41.67-13.2-63.63,12.07.72,18.97,4.45,23.71,16.64,7.46,19.23,8.64,34.99-10.7,47.16.03-.02.19-.17.19-.17"/>
      <path class="cls-4" d="M337.16,595.91c-4.32-20.83-8.64-41.67-13.2-63.63,12.07.72,18.97,4.45,23.71,16.64,7.46,19.23,8.64,34.99-10.7,47.16.03-.02.19-.17.19-.17Z"/>
      <path class="cls-5" d="M510.27,368.88c-9.54-.73-19.08-1.46-28.63-2.19,1.97-36.8-.52-34.76,36.08-30.19-2.68,10.91-5.29,21.54-7.86,32.2.05.03.42.18.42.18"/>
      <path class="cls-4" d="M510.27,368.88c-9.54-.73-19.08-1.46-28.63-2.19,1.97-36.8-.52-34.76,36.08-30.19-2.68,10.91-5.29,21.54-7.86,32.2.05.03.42.18.42.18Z"/>
      <path class="cls-5" d="M474.46,487.44c-8.7-14.64-17.27-29.34-16.85-49.01,12.7,4.56,24.57,8.82,38.02,13.64-1.42,4.13-2.72,7.92-4.01,11.7-5.18,8.48-10.37,16.96-15.55,25.45-.53-.6-1.07-1.19-1.6-1.79"/>
      <path class="cls-4" d="M474.46,487.44c-8.7-14.64-17.27-29.34-16.85-49.01,12.7,4.56,24.57,8.82,38.02,13.64-1.42,4.13-2.72,7.92-4.01,11.7-5.18,8.48-10.37,16.96-15.55,25.45-.53-.6-1.07-1.19-1.6-1.79Z"/>
      <path class="cls-5" d="M391.68,496.81c-11.17,4.75-22.34,9.49-34.55,14.68-4.01-4.75-8.31-9.85-13.37-15.84,12.65-9.02,24.63-17.56,36.77-26.22,4,9.85,7.57,18.63,11.15,27.42,0,0,0-.04,0-.04"/>
      <path class="cls-4" d="M391.68,496.81c-11.17,4.75-22.34,9.49-34.55,14.68-4.01-4.75-8.31-9.85-13.37-15.84,12.65-9.02,24.63-17.56,36.77-26.22,4,9.85,7.57,18.63,11.15,27.42,0,0,0-.04,0-.04Z"/>
      <path class="cls-5" d="M365.99,389.35c-7.68-1.34-15.35-2.71-23.04-4.02-5.56-.95-11.13-1.81-16.69-2.72-2.22-1.93-4.44-3.86-6.66-5.79,1.73-1.16,3.4-3.23,5.18-3.32,7.61-.38,15.34.58,22.86-.33,18.51-2.23,33.53,1.36,42.94,15.02,0,0,1.61,2.4,1.61,2.4,1.04,2.2,2.09,4.4,4.74,10.01-10.26-2.82-17.64-4.85-25.01-6.88-1.98-1.46-3.96-2.92-5.94-4.37"/>
      <path class="cls-4" d="M365.99,389.35c-7.68-1.34-15.35-2.71-23.04-4.02-5.56-.95-11.13-1.81-16.69-2.72-2.22-1.93-4.44-3.86-6.66-5.79,1.73-1.16,3.4-3.23,5.18-3.32,7.61-.38,15.34.58,22.86-.33,18.51-2.23,33.53,1.36,42.94,15.02,0,0,1.61,2.4,1.61,2.4,1.04,2.2,2.09,4.4,4.74,10.01-10.26-2.82-17.64-4.85-25.01-6.88-1.98-1.46-3.96-2.92-5.94-4.37Z"/>
      <path class="cls-5" d="M445.51,482.81c-39.58-4.04-32.85,2.88-36.1-26.12,9.77-1.62,22.91-7.76,28.51-3.64,6.08,4.48,5.15,18.48,7.59,29.76"/>
      <path class="cls-4" d="M445.51,482.81c-39.58-4.04-32.85,2.88-36.1-26.12,9.77-1.62,22.91-7.76,28.51-3.64,6.08,4.48,5.15,18.48,7.59,29.76Z"/>
      <path class="cls-5" d="M363.12,612.17c-5.9-3.01-11.8-6.03-17.57-9.03-2.68-2.42-5.5-4.85-8.35-7.26-.04.03-.2.18-.23.2,1.56-.59,3.67-.76,4.66-1.89,14.74-16.78,28.19-8.42,41.57,2.02-4.31,20.48-5.68,21.57-20.09,15.95"/>
      <path class="cls-4" d="M363.12,612.17c-5.9-3.01-11.8-6.03-17.57-9.03-2.68-2.42-5.5-4.85-8.35-7.26-.04.03-.2.18-.23.2,1.56-.59,3.67-.76,4.66-1.89,14.74-16.78,28.19-8.42,41.57,2.02-4.31,20.48-5.68,21.57-20.09,15.95Z"/>
      <path class="cls-5" d="M174.92,427.48c-2.87-3.28-6.57-5.81-11.62-10.06-1.16,19.14-1.51,31.86-2.67,47.26-.3,4.01-2.64,6.16-3.57,10.12.66-15.73-.18-30.89,1.7-46.47,1.23-10.18-2.75-14.5-8.56-20.54,5.37,2.17,10.74,4.33,18.12,7.31-1.43-18.06-2.19-34.43-4.47-50.58-.44-3.11-6.63-5.65-10.46-7.98-9.5-5.79-19.17-11.3-28.78-16.92,2.93.35,5.86.7,8.68,1,10.44,5,20.97,10.04,32.02,15.32,3.38-7.93,7.13-16.74,10.89-25.55-1.97,7.25-4.42,14.42-5.68,21.8-.58,3.36,1.19,7.12,1.89,10.7-1.49,3.07-4.56,6.32-4.22,9.17,1.94,16.4,4.72,32.7,7.08,49.06.3,2.06-.23,4.23-.37,6.35"/>
      <path class="cls-4" d="M174.92,427.48c-2.87-3.28-6.57-5.81-11.62-10.06-1.16,19.14-1.51,31.86-2.67,47.26-.3,4.01-2.64,6.16-3.57,10.12.66-15.73-.18-30.89,1.7-46.47,1.23-10.18-2.75-14.5-8.56-20.54,5.37,2.17,10.74,4.33,18.12,7.31-1.43-18.06-2.19-34.43-4.47-50.58-.44-3.11-6.63-5.65-10.46-7.98-9.5-5.79-19.17-11.3-28.78-16.92,2.93.35,5.86.7,8.68,1,10.44,5,20.97,10.04,32.02,15.32,3.38-7.93,7.13-16.74,10.89-25.55-1.97,7.25-4.42,14.42-5.68,21.8-.58,3.36,1.19,7.12,1.89,10.7-1.49,3.07-4.56,6.32-4.22,9.17,1.94,16.4,4.72,32.7,7.08,49.06.3,2.06-.23,4.23-.37,6.35Z"/>
      <path class="cls-5" d="M395.18,391.76s-1.99-2-1.98-2c-2.47-4.8-5.8-7.88-8.8-13.7h41.05c0,6.33,1.44,14.71-1.49,17.54-6.38,4.39-22.36,3.41-28.77-1.84"/>
      <path class="cls-4" d="M395.18,391.76s-1.99-2-1.98-2c-2.47-4.8-5.8-7.88-8.8-13.7h41.05c0,6.33,1.44,14.71-1.49,17.54-6.38,4.39-22.36,3.41-28.77-1.84Z"/>
      <path class="cls-5" d="M420.62,568.8c-.92,8.49-1.77,16.36-2.63,24.31h-26.01q5.12-30.46,28.64-24.31"/>
      <path class="cls-4" d="M420.62,568.8c-.92,8.49-1.77,16.36-2.63,24.31h-26.01q5.12-30.46,28.64-24.31Z"/>
      <path class="cls-5" d="M378.14,554.66q16.65,11.55,6.98,35.98c-7.46-3.92-14.8-7.77-24.87-13.06,6.63-8.27,12.38-15.44,18.13-22.61l-.25-.3Z"/>
      <path class="cls-4" d="M378.14,554.66q16.65,11.55,6.98,35.98c-7.46-3.92-14.8-7.77-24.87-13.06,6.63-8.27,12.38-15.44,18.13-22.61l-.25-.3Z"/>
      <path class="cls-5" d="M357.78,516.28c10.03-4.63,20.07-9.27,31.64-14.61,2.81,8.7,5.47,16.91,8.27,25.59-11.45,4.71-21.36,7.42-29.8-4.34-2.28-3.18-6.93-4.65-10.44-6.87.06.04.33.23.33.23"/>
      <path class="cls-4" d="M357.78,516.28c10.03-4.63,20.07-9.27,31.64-14.61,2.81,8.7,5.47,16.91,8.27,25.59-11.45,4.71-21.36,7.42-29.8-4.34-2.28-3.18-6.93-4.65-10.44-6.87.06.04.33.23.33.23Z"/>
      <path class="cls-5" d="M409.73,449.99q-3.97-21.33,23.6-26.71c1.63,6.26,3.28,12.6,5.24,20.14-10.19,2.32-19.2,4.37-28.83,6.57"/>
      <path class="cls-4" d="M409.73,449.99q-3.97-21.33,23.6-26.71c1.63,6.26,3.28,12.6,5.24,20.14-10.19,2.32-19.2,4.37-28.83,6.57Z"/>
      <path class="cls-5" d="M494.01,438.44c-.52,2.29-1.05,4.58-1.57,6.88-29.81-6.01-37.15-11.02-34.6-23.12,18.08-7.39,28.37,2.14,36.44,16.51.04.04-.27-.27-.27-.27"/>
      <path class="cls-4" d="M494.01,438.44c-.52,2.29-1.05,4.58-1.57,6.88-29.81-6.01-37.15-11.02-34.6-23.12,18.08-7.39,28.37,2.14,36.44,16.51.04.04-.27-.27-.27-.27Z"/>
      <path class="cls-5" d="M326.13,518.11c1.55-1.97,3.11-3.93,4.64-5.84,3.04-3.85,6.1-7.76,9.81-12.49,7.26,6.65,16.03,11.6,10.17,23.41l.4-.38c-2.47,3.21-4.93,6.42-8.02,10.44-5.42-5.75-20.47.92-16.99-15.15"/>
      <path class="cls-4" d="M326.13,518.11c1.55-1.97,3.11-3.93,4.64-5.84,3.04-3.85,6.1-7.76,9.81-12.49,7.26,6.65,16.03,11.6,10.17,23.41l.4-.38c-2.47,3.21-4.93,6.42-8.02,10.44-5.42-5.75-20.47.92-16.99-15.15Z"/>
      <path class="cls-5" d="M466.33,380.27c-.64.64-1.27,1.28-1.9,1.92-3.45,2.4-6.63,5.48-10.44,7.07-5.82,2.44-12.69,6.21-17.9,4.83-3.26-.86-4.29-10.15-7.09-17.72,14.77-1.27,26.74-2.3,39.89-3.44-1.25,3.55-1.91,5.45-2.57,7.34"/>
      <path class="cls-4" d="M466.33,380.27c-.64.64-1.27,1.28-1.9,1.92-3.45,2.4-6.63,5.48-10.44,7.07-5.82,2.44-12.69,6.21-17.9,4.83-3.26-.86-4.29-10.15-7.09-17.72,14.77-1.27,26.74-2.3,39.89-3.44-1.25,3.55-1.91,5.45-2.57,7.34Z"/>
      <path class="cls-5" d="M449.01,612.81c-8.31,3.96-16.62,7.91-27.11,12.91.82-11.01,1.38-18.46,1.88-25.18,16.89-10.9,20.27,2.74,25.65,12.65,0,0-.42-.38-.42-.38"/>
      <path class="cls-4" d="M449.01,612.81c-8.31,3.96-16.62,7.91-27.11,12.91.82-11.01,1.38-18.46,1.88-25.18,16.89-10.9,20.27,2.74,25.65,12.65,0,0-.42-.38-.42-.38Z"/>
      <path class="cls-5" d="M476.06,489.23c5.18-8.48,10.37-16.97,15.55-25.45,1.18.45,3.44,1.18,3.4,1.32-4.14,16.06-8.45,32.07-12.75,48.09-1.14.58-2.28,1.15-3.42,1.73-2.04-5.37-4.09-10.74-6.13-16.11,1.12-3.19,2.23-6.38,3.35-9.57"/>
      <path class="cls-4" d="M476.06,489.23c5.18-8.48,10.37-16.97,15.55-25.45,1.18.45,3.44,1.18,3.4,1.32-4.14,16.06-8.45,32.07-12.75,48.09-1.14.58-2.28,1.15-3.42,1.73-2.04-5.37-4.09-10.74-6.13-16.11,1.12-3.19,2.23-6.38,3.35-9.57Z"/>
      <path class="cls-5" d="M440.66,591.31c-5.3.99-10.21,1.91-15.11,2.83-4.41-24.49-2-29.26,15.11-29.45v26.62Z"/>
      <path class="cls-4" d="M440.66,591.31c-5.3.99-10.21,1.91-15.11,2.83-4.41-24.49-2-29.26,15.11-29.45v26.62Z"/>
      <path class="cls-5" d="M430.84,636.18c-8.13,8.82-16.26,17.64-24.39,26.46-2.51.45-5.03.89-7.58,1.4-.04.07-.06.25-.07.29,2.44-4.84,5.59-9.51,7.19-14.66,2.98-9.61,6-18.38,19.01-16.44-4.9-.98-6.93-1.1-11.83-2.08,0,0,.28-1.56.28-1.56,8.53-2.48,13.48-3.79,23.78-6.79-2.49,5.2-4.44,9.29-6.4,13.38"/>
      <path class="cls-4" d="M430.84,636.18c-8.13,8.82-16.26,17.64-24.39,26.46-2.51.45-5.03.89-7.58,1.4-.04.07-.06.25-.07.29,2.44-4.84,5.59-9.51,7.19-14.66,2.98-9.61,6-18.38,19.01-16.44-4.9-.98-6.93-1.1-11.83-2.08,0,0,.28-1.56.28-1.56,8.53-2.48,13.48-3.79,23.78-6.79-2.49,5.2-4.44,9.29-6.4,13.38Z"/>
      <path class="cls-5" d="M332.35,421.45c-8.41-6.24-16.76-12.57-25.27-18.67-3.67-2.63-7.67-4.8-11.52-7.18.33-1.02.65-2.04.98-3.05,12.88,2.6,25.76,5.2,39.15,7.91-1.36,8.56-2.35,14.77-3.33,20.97,0,0,0,.03,0,.03"/>
      <path class="cls-4" d="M332.35,421.45c-8.41-6.24-16.76-12.57-25.27-18.67-3.67-2.63-7.67-4.8-11.52-7.18.33-1.02.65-2.04.98-3.05,12.88,2.6,25.76,5.2,39.15,7.91-1.36,8.56-2.35,14.77-3.33,20.97,0,0,0,.03,0,.03Z"/>
      <path class="cls-5" d="M434.24,526.39c-1.21-6.92-2.43-13.85-3.89-22.13,5.52-.93,11.22-1.9,16.92-2.86,3.48,20.35.73,25.42-13.03,24.99"/>
      <path class="cls-4" d="M434.24,526.39c-1.21-6.92-2.43-13.85-3.89-22.13,5.52-.93,11.22-1.9,16.92-2.86,3.48,20.35.73,25.42-13.03,24.99Z"/>
      <path class="cls-5" d="M319.6,376.82c2.22,1.93,4.44,3.86,6.66,5.79-2.54,11.33-12.28,8.37-19.25,8.51-5.15.1-13.46,4.21-15.6-5.68,5.71-3.52,11.42-7.05,17.12-10.57,3.68.65,7.38,1.3,11.07,1.95"/>
      <path class="cls-4" d="M319.6,376.82c2.22,1.93,4.44,3.86,6.66,5.79-2.54,11.33-12.28,8.37-19.25,8.51-5.15.1-13.46,4.21-15.6-5.68,5.71-3.52,11.42-7.05,17.12-10.57,3.68.65,7.38,1.3,11.07,1.95Z"/>
      <path class="cls-5" d="M481.67,400.36v15.07h-22.75q1.93-16.7,22.75-15.07"/>
      <path class="cls-4" d="M481.67,400.36v15.07h-22.75q1.93-16.7,22.75-15.07Z"/>
      <path class="cls-5" d="M409.89,630.76s-4.8.82-4.79.82c-12.54,1.29-19.86,1.65-32.44,2.28-2.88.14-5.94-3.28-8.89-5.07,3.27-1.39,6.52-2.78,9.77-4.17,12.94-2.86,25.32-2.31,36.36,6.13"/>
      <path class="cls-4" d="M409.89,630.76s-4.8.82-4.79.82c-12.54,1.29-19.86,1.65-32.44,2.28-2.88.14-5.94-3.28-8.89-5.07,3.27-1.39,6.52-2.78,9.77-4.17,12.94-2.86,25.32-2.31,36.36,6.13Z"/>
      <path class="cls-5" d="M457.05,579.44c11.51,19.39,10.13,25.12-8.03,33.36,0,0,.42.38.42.39-3.69-12.89-2.12-24.54,8.03-34.18l-.42.43Z"/>
      <path class="cls-4" d="M457.05,579.44c11.51,19.39,10.13,25.12-8.03,33.36,0,0,.42.38.42.39-3.69-12.89-2.12-24.54,8.03-34.18l-.42.43Z"/>
      <path class="cls-5" d="M478.84,514.91c1.14-.58,2.28-1.15,3.42-1.73.69.39,2.02.91,1.97,1.14-4.38,20.51-8.87,40.99-13.34,61.48-1.09-.3-2.18-.6-3.28-.9.56-1.74,1.12-3.48,1.67-5.21,1.37-14.16,2.74-28.32,4.11-42.49,1.82-4.1,3.63-8.2,5.45-12.3"/>
      <path class="cls-4" d="M478.84,514.91c1.14-.58,2.28-1.15,3.42-1.73.69.39,2.02.91,1.97,1.14-4.38,20.51-8.87,40.99-13.34,61.48-1.09-.3-2.18-.6-3.28-.9.56-1.74,1.12-3.48,1.67-5.21,1.37-14.16,2.74-28.32,4.11-42.49,1.82-4.1,3.63-8.2,5.45-12.3Z"/>
      <path class="cls-5" d="M388.02,432.04c-12.77-13.85,1.61-18.04,7.39-25.78,8.08,16.49,7.32,19.16-7.39,25.78"/>
      <path class="cls-4" d="M388.02,432.04c-12.77-13.85,1.61-18.04,7.39-25.78,8.08,16.49,7.32,19.16-7.39,25.78Z"/>
      <path class="cls-5" d="M350.75,523.19c2.38-2.27,4.76-4.53,7.09-6.85-.06-.06-.33-.24-.39-.28,6.05,7.07,12.17,14.18,18.28,21.29-.69.83-1.38,1.65-2.07,2.48-7.98-1.31-15.95-2.61-24.43-4,.76-5.09,1.35-9.06,1.93-13.02-.01.01-.41.39-.41.39"/>
      <path class="cls-4" d="M350.75,523.19c2.38-2.27,4.76-4.53,7.09-6.85-.06-.06-.33-.24-.39-.28,6.05,7.07,12.17,14.18,18.28,21.29-.69.83-1.38,1.65-2.07,2.48-7.98-1.31-15.95-2.61-24.43-4,.76-5.09,1.35-9.06,1.93-13.02-.01.01-.41.39-.41.39Z"/>
      <path class="cls-5" d="M389.31,461.41c-4.15-16.7-1.33-24.07,10.7-27.86,9.14,14.35-1.45,21.01-11,28.11-.03.03.3-.25.3-.25"/>
      <path class="cls-4" d="M389.31,461.41c-4.15-16.7-1.33-24.07,10.7-27.86,9.14,14.35-1.45,21.01-11,28.11-.03.03.3-.25.3-.25Z"/>
      <path class="cls-5" d="M476.06,489.23c-1.12,3.19-2.23,6.38-3.35,9.57,0,0-.23.12-.23.12-4.36,1.96-8.73,3.93-13.08,5.9.01,0,.57-.05.57-.05-.52-4.65-1.04-9.3-1.56-13.96,0,0,.78-.78.78-.78,4.29-5.42,8.64-10.5,15.24-2.6.55.62,1.09,1.21,1.62,1.81"/>
      <path class="cls-4" d="M476.06,489.23c-1.12,3.19-2.23,6.38-3.35,9.57,0,0-.23.12-.23.12-4.36,1.96-8.73,3.93-13.08,5.9.01,0,.57-.05.57-.05-.52-4.65-1.04-9.3-1.56-13.96,0,0,.78-.78.78-.78,4.29-5.42,8.64-10.5,15.24-2.6.55.62,1.09,1.21,1.62,1.81Z"/>
      <path class="cls-5" d="M455.9,484.78c-4.18-10.51-8.36-21.02-13.68-34.42,16.6,7.1,21.89,25.9,13.35,34.64-.04.03.33-.22.33-.22"/>
      <path class="cls-4" d="M455.9,484.78c-4.18-10.51-8.36-21.02-13.68-34.42,16.6,7.1,21.89,25.9,13.35,34.64-.04.03.33-.22.33-.22Z"/>
      <path class="cls-5" d="M473.4,527.21c-1.37,14.16-2.74,28.33-4.11,42.48-1.83,3.15-3.67,6.31-5.5,9.47-1.23-.29-2.46-.58-3.69-.87,3.57-16.91,7.14-33.82,10.71-50.72.86-.12,1.73-.24,2.59-.36"/>
      <path class="cls-4" d="M473.4,527.21c-1.37,14.16-2.74,28.33-4.11,42.48-1.83,3.15-3.67,6.31-5.5,9.47-1.23-.29-2.46-.58-3.69-.87,3.57-16.91,7.14-33.82,10.71-50.72.86-.12,1.73-.24,2.59-.36Z"/>
      <path class="cls-5" d="M457.47,579.01c-3.27,2.37-6.54,4.74-10.26,7.44v-31.68c1.53-.17,3.07-.33,4.6-.5,1.74,8.39,3.49,16.79,5.24,25.18,0,0,.42-.44.42-.44"/>
      <path class="cls-4" d="M457.47,579.01c-3.27,2.37-6.54,4.74-10.26,7.44v-31.68c1.53-.17,3.07-.33,4.6-.5,1.74,8.39,3.49,16.79,5.24,25.18,0,0,.42-.44.42-.44Z"/>
      <path class="cls-5" d="M426.12,535.77c-6.49,10.04-15.86,6.57-24.8,5.8.74-11.79,9.69-13.57,24.44-5.36,0-.01.36-.43.36-.43"/>
      <path class="cls-4" d="M426.12,535.77c-6.49,10.04-15.86,6.57-24.8,5.8.74-11.79,9.69-13.57,24.44-5.36,0-.01.36-.43.36-.43Z"/>
      <path class="cls-5" d="M459.98,504.76s-.56.06-.57.05c6.06,10.98,4.24,17.95-6.66,25.46,0,0,.33.22.33.22-.02-7.17-.45-14.39.27-21.49.17-1.62,4.31-2.84,6.63-4.25"/>
      <path class="cls-4" d="M459.98,504.76s-.56.06-.57.05c6.06,10.98,4.24,17.95-6.66,25.46,0,0,.33.22.33.22-.02-7.17-.45-14.39.27-21.49.17-1.62,4.31-2.84,6.63-4.25Z"/>
      <path class="cls-5" d="M473.4,527.21c-.86.12-1.73.24-2.6.36-7.77-10.04-1.37-19.25,1.68-28.65,0,0,.23-.12.23-.12,2.04,5.37,4.09,10.74,6.13,16.11-1.82,4.1-3.63,8.2-5.45,12.3"/>
      <path class="cls-4" d="M473.4,527.21c-.86.12-1.73.24-2.6.36-7.77-10.04-1.37-19.25,1.68-28.65,0,0,.23-.12.23-.12,2.04,5.37,4.09,10.74,6.13,16.11-1.82,4.1-3.63,8.2-5.45,12.3Z"/>
      <path class="cls-5" d="M424.54,546.63h15.4c.91.95,1.81,1.91,2.72,2.86-4.52,4.49-9.03,8.98-13.55,13.47-1.18-.82-2.37-1.63-3.55-2.45-.3-4.04-.59-8.08-1.02-13.88"/>
      <path class="cls-4" d="M424.54,546.63h15.4c.91.95,1.81,1.91,2.72,2.86-4.52,4.49-9.03,8.98-13.55,13.47-1.18-.82-2.37-1.63-3.55-2.45-.3-4.04-.59-8.08-1.02-13.88Z"/>
      <path class="cls-5" d="M453.08,530.5s-.33-.22-.33-.22c-.84,11.84-10.98,8.81-17.74,10.82-4.23,1.26-9.82,2.84-8.88-5.34,0,.01-.36.43-.37.44,9.1-1.89,18.21-3.8,27.32-5.7"/>
      <path class="cls-4" d="M453.08,530.5s-.33-.22-.33-.22c-.84,11.84-10.98,8.81-17.74,10.82-4.23,1.26-9.82,2.84-8.88-5.34,0,.01-.36.43-.37.44,9.1-1.89,18.21-3.8,27.32-5.7Z"/>
      <path class="cls-5" d="M364.28,392.77c1.98,1.46,3.96,2.92,5.94,4.37-1.42.83-2.82,2.35-4.25,2.37-5.66.11-11.32-.2-16.97-.63-.22-.02-.41-4.31-.27-4.33,5.16-.76,10.36-1.25,15.55-1.78"/>
      <path class="cls-4" d="M364.28,392.77c1.98,1.46,3.96,2.92,5.94,4.37-1.42.83-2.82,2.35-4.25,2.37-5.66.11-11.32-.2-16.97-.63-.22-.02-.41-4.31-.27-4.33,5.16-.76,10.36-1.25,15.55-1.78Z"/>
      <path class="cls-5" d="M431.83,398.7c19.06,3.05,7.76,15.7,14.6,20.79-1.82.74-3.64,1.47-5.46,2.21-2.64-6.65-5.28-13.3-9.13-22.99"/>
      <path class="cls-4" d="M431.83,398.7c19.06,3.05,7.76,15.7,14.6,20.79-1.82.74-3.64,1.47-5.46,2.21-2.64-6.65-5.28-13.3-9.13-22.99Z"/>
      <path class="cls-5" d="M378.39,554.97c-.44-3.11-.88-6.22-1.77-12.48,6.88,6.17,19.64-1.95,17.35,13.12-5.75-.38-10.83-.71-15.86-.99.04.05.29.35.29.35"/>
      <path class="cls-4" d="M378.39,554.97c-.44-3.11-.88-6.22-1.77-12.48,6.88,6.17,19.64-1.95,17.35,13.12-5.75-.38-10.83-.71-15.86-.99.04.05.29.35.29.35Z"/>
      <path class="cls-5" d="M240.41,204.51c14.75-9.15,29.5-18.29,44.25-27.44-14.75,9.15-29.5,18.29-44.25,27.44"/>
      <path class="cls-4" d="M240.41,204.51c14.75-9.15,29.5-18.29,44.25-27.44-14.75,9.15-29.5,18.29-44.25,27.44Z"/>
      <path class="cls-5" d="M357.2,138.06c-11.04-3.3-25.97-5.68-36.8-9.56-14.38-5.15-28.18-8.04-43.39-1.8-13.31,5.46-27.6,8.54-44.81,13.66,21.31,6.68,38.78,12.39,56.41,17.58,6.81,2.01,14.2,4.7,20.92,3.86,23.33-2.93,46.48-7.27,70.7-11.23-8.4-4.47-15.81-8.41-23.21-12.34"/>
      <path class="cls-4" d="M357.2,138.06c-11.04-3.3-25.97-5.68-36.8-9.56-14.38-5.15-28.18-8.04-43.39-1.8-13.31,5.46-27.6,8.54-44.81,13.66,21.31,6.68,38.78,12.39,56.41,17.58,6.81,2.01,14.2,4.7,20.92,3.86,23.33-2.93,46.48-7.27,70.7-11.23-8.4-4.47-15.81-8.41-23.21-12.34"/>
      <path class="cls-6" d="M568.61,848.06c21.9,0,33.52-10.73,33.52-37.34v-6.32c0-44.84-39.84-39.25-39.84-66.15v-4.12c0-13.38,1.62-17.2,6.47-17.2,4.56,0,6.47,3.38,6.47,24.7l1.91,2.06h21.17l2.06-2.06c0-29.4-7.35-43.51-32.34-43.51-27.78,0-32.63,17.64-32.63,36.31v4.7c0,43.07,39.84,34.25,39.84,67.03v5c0,13.82-1.62,17.49-7.06,17.49-6.61,0-8.38-5.59-8.38-26.75l-1.76-2.06h-22.05l-1.91,2.06c.15,32.05,10.88,46.16,34.54,46.16M451.6,781.03c0,53.21,13.52,67.03,37.48,67.03,22.64,0,34.25-13.52,35.87-48.66l-2.5-2.35h-23.08l-2.5,2.35c0,23.81-1.47,29.25-7.64,29.25-6.61,0-8.97-6.61-8.97-46.31v-6.76h42.19l2.5-2.5c1.18-58.51-8.82-74.97-35.72-74.97-28.37,0-37.63,17.93-37.63,66.44v16.46ZM496.87,759.42h-16.61c.15-38.51,2.5-41.89,8.53-41.89s8.09,3.38,8.09,41.89M408.97,848.06c25.28,0,35.28-14.26,35.28-51.01l-1.62-1.62h-24.99l-1.62,1.62c0,23.08-1.91,28.37-7.5,28.37-6.17,0-7.79-6.76-7.79-30.72v-42.34c0-24.55,1.62-31.61,7.79-31.61,5.59,0,7.5,5.29,7.5,28.37l1.62,1.62h24.99l1.62-1.62c0-36.75-10-51.01-35.13-51.01-28.96,0-37.04,19.7-37.04,54.24v42.48c0,33.81,8.08,53.21,36.9,53.21M318.43,804.4v-3.82c0-15.58,2.5-23.08,10.14-24.99l3.23-.88v41.89c-.73,8.23-2.79,13.08-7.5,13.08s-5.88-5-5.88-25.28M335.33,843.5l2.35,2.5h24.99l2.35-2.5v-2.5c-3.23-8.97-3.82-15.88-3.82-29.11v-72.32c0-27.78-8.23-41.45-33.22-41.45-27.34,0-35.72,15.73-36.02,43.66l2.35,2.5h21.76l2.35-2.5c.29-17.79.88-22.93,7.2-22.93,5.88,0,6.17,4.26,6.17,21.17v17.2l-1.47.88-12.35,2.35c-16.17,2.94-27.05,14.55-27.05,42.78v3.67c0,29.99,7.06,41.16,22.64,41.16,11.02,0,16.02-5.88,18.38-10.88h1.47c.59,2.35,1.18,4.41,1.91,6.32M244.19,846h25.58l2.06-2.06v-124.8h15.29l1.91-2.06v-14.85l-1.91-2.06h-15.29v-22.2c0-13.38,3.09-15.29,9.41-15.29h5.88l1.91-2.06v-14.85l-1.91-2.06h-13.23c-26.02,0-31.75,11.91-31.75,31.16v25.28h-9.7l-2.06,2.06v14.85l2.06,2.06h9.7v124.8l2.06,2.06ZM183.34,846h25.14l2.06-2.06v-93.49c.74-10.44,4.26-22.34,14.85-22.34h3.23l2.06-2.06v-24.4l-2.06-2.06h-3.23c-6.91,0-12.35,4.41-13.52,12.49h-1.32v-9.85l-2.06-2.06h-25.14l-2.06,2.06v141.71l2.06,2.06ZM117.93,848.06c9.85,0,17.2-5,20.43-14.99h1.32v10.88l2.06,2.06h25.14l2.06-2.06v-141.71l-2.06-2.06h-25.14l-2.06,2.06v104.52c-.44,9.85-2.5,16.9-8.23,16.9-5,0-6.47-4.7-6.47-19.99v-101.43l-2.06-2.06h-25.14l-2.06,2.06v107.02c0,29.84,8.97,38.81,22.2,38.81M53.84,848.06c21.9,0,33.52-10.73,33.52-37.34v-6.32c0-44.84-39.84-39.25-39.84-66.15v-4.12c0-13.38,1.62-17.2,6.47-17.2,4.56,0,6.47,3.38,6.47,24.7l1.91,2.06h21.17l2.06-2.06c0-29.4-7.35-43.51-32.34-43.51-27.78,0-32.63,17.64-32.63,36.31v4.7c0,43.07,39.84,34.25,39.84,67.03v5c0,13.82-1.62,17.49-7.06,17.49-6.61,0-8.38-5.59-8.38-26.75l-1.76-2.06h-22.05l-1.91,2.06c.15,32.05,10.88,46.16,34.54,46.16"/>
      <path class="cls-6" d="M533.96,43.5h1.28l.13-.13v-5.06c0-1.74-.88-2.88-2.74-2.88-1.16,0-2.06.45-2.37,1.18h-.14v-4l-.13-.13h-1.28l-.13.13v10.75l.13.13h1.28l.13-.13v-4.54c.09-1.32.84-2.01,2.06-2.01.89,0,1.65.37,1.65,1.67v4.88l.13.13ZM525.89,43.5h.89l.13-.13v-1.02l-.13-.13h-.89c-.61,0-.78-.3-.78-.85v-4.53h1.66l.13-.13v-1.02l-.13-.13h-1.66v-1.79l-.13-.13h-1.28l-.13.13v1.79h-1.23l-.13.13v1.02l.13.13h1.23v4.53c0,1.59.45,2.13,2.31,2.13M514.7,39.66v-.26c0-1.5.81-2.62,2.3-2.62,1.01,0,2.26.51,2.37,2.41v.69c-.11,1.9-1.36,2.41-2.37,2.41-1.5,0-2.3-1.14-2.3-2.63M516.68,43.63c1.14,0,2.06-.44,2.54-1.15h.14v.9l.13.13h1.28l.13-.13v-10.75l-.13-.13h-1.28l-.13.13v3.97h-.14c-.48-.71-1.41-1.15-2.54-1.15-1.94,0-3.58,1.31-3.58,3.96v.26c0,2.65,1.65,3.98,3.58,3.98M509.9,34.14l.13.13h1.41l.13-.13v-1.44l-.13-.13h-1.41l-.13.13v1.44ZM510.09,43.5h1.28l.13-.13v-7.68l-.13-.13h-1.28l-.13.13v7.68l.13.13ZM504.91,43.5h1.45l.13-.13,2.14-7.68-.13-.13h-1.3l-.13.13-1.38,5.74h-.19l-1.58-5.74-.13-.13h-1.6l-.13.13-1.58,5.74h-.19l-1.38-5.74-.13-.13h-1.3l-.13.13,2.11,7.68.13.13h1.46l.13-.13,1.7-6.06h.19l1.7,6.06.13.13ZM488.39,43.7c2.58,0,3.93-1.74,3.93-4.02v-.13c0-2.5-1.54-3.66-3.44-3.66-1.18,0-1.86.45-2.34.9h-.14l.35-2.69.13-.13h4.8l.13-.13v-1.22l-.13-.13h-5.98l-.13.13-.7,5.7.13.13,1.11.24.18-.04c.29-.62.88-1.31,2.22-1.31s2.22.78,2.22,2.32v.13c0,1.34-.65,2.44-2.32,2.44-1.54,0-2.08-.95-2.16-1.68l-.13-.13h-1.29l-.12.13c.09,1.91,1.49,3.16,3.69,3.15M476.17,43.5h6.21l.13-.13v-1.22l-.13-.13h-2.18l-.13-.13v-9.28l-.13-.13h-1.34l-.13.13c-.02,1.1-.9,1.81-2.24,1.79l-.13.13v1.22l.13.13c1.14,0,1.66-.15,2.11-.57h.13v6.58l-.13.13h-2.18l-.13.13v1.22l.13.13ZM466.57,43.5h6.21l.13-.13v-1.22l-.13-.13h-2.18l-.13-.13v-9.28l-.13-.13h-1.34l-.13.13c-.02,1.1-.9,1.81-2.24,1.79l-.13.13v1.22l.13.13c1.14,0,1.66-.15,2.11-.57h.13v6.58l-.13.13h-2.18l-.13.13v1.22l.13.13ZM449.26,37.36v1.28l.13.13h8.58v.06l-2.37,2.37v.13l.13.13h1.65l2.83-2.88.06-.13v-.9l-.06-.13-2.83-2.88h-1.65l-.13.13v.13l2.37,2.37v.06h-8.58l-.13.13ZM440.26,43.7c2.58,0,3.93-1.74,3.93-4.02v-.13c0-2.5-1.54-3.66-3.44-3.66-1.18,0-1.86.45-2.34.9h-.14l.35-2.69.13-.13h4.8l.13-.13v-1.22l-.13-.13h-5.98l-.13.13-.7,5.7.13.13,1.11.24.18-.04c.29-.62.88-1.31,2.22-1.31s2.22.78,2.22,2.32v.13c0,1.34-.65,2.44-2.32,2.44-1.54,0-2.08-.95-2.16-1.68l-.13-.13h-1.29l-.12.13c.09,1.91,1.49,3.16,3.69,3.15M429.2,43.38l.13.13h1.34l.13-.13c-.03-4.4,1.85-7.3,3.66-9.6v-1.15l-.06-.13h-7.06l-.13.13v1.22l.13.13h5.14v.13c-1.45,1.79-3.28,4.88-3.28,9.28M413.73,32.5h-1.34l-.13.13v8.06l.13.13h8.58v.06l-2.37,2.37v.13l.13.13h1.6l2.94-3.01v-.9l-2.94-3.01h-1.6l-.13.13v.13l2.37,2.37v.06h-7.1v-6.66l-.13-.13Z"/>
      <path class="cls-6" d="M503.87,27.5h.89l.13-.13v-1.02l-.13-.13h-.89c-.61,0-.78-.3-.78-.85v-4.53h1.66l.13-.13v-1.02l-.13-.13h-1.66v-1.79l-.13-.13h-1.28l-.13.13v1.79h-1.23l-.13.13v1.02l.13.13h1.23v4.53c0,1.59.45,2.13,2.31,2.13M497.7,27.5h1.28l.13-.13v-5.06c0-1.74-.88-2.88-2.74-2.88-1.16,0-2.06.45-2.37,1.18h-.14v-4l-.13-.13h-1.28l-.13.13v10.75l.13.13h1.28l.13-.13v-4.54c.09-1.32.84-2.01,2.06-2.01.89,0,1.65.37,1.65,1.67v4.88l.13.13ZM484.2,23.58v-.26c0-1.48.81-2.58,2.3-2.58.99,0,2.22.49,2.37,2.29v.84c-.15,1.82-1.38,2.28-2.37,2.28-1.5,0-2.3-1.1-2.3-2.58M486.6,30.99c2.26,0,3.8-1,3.8-3.49v-7.81l-.13-.13h-1.28l-.13.13v.93h-.14c-.48-.78-1.31-1.22-2.49-1.22-2.07,0-3.64,1.39-3.64,3.92v.26c0,2.53,1.57,3.92,3.64,3.92,1.18,0,2.01-.44,2.49-1.22h.14v1.25c0,1.56-.79,2.18-2.21,2.18-1.23,0-2.07-.46-2.18-1.44l-.13-.13h-1.28l-.13.13c0,1.88,1.58,2.72,3.66,2.72M479.39,18.14l.13.13h1.41l.13-.13v-1.44l-.13-.13h-1.41l-.13.13v1.44ZM479.59,27.5h1.28l.13-.13v-7.68l-.13-.13h-1.28l-.13.13v7.68l.13.13ZM470.37,23.73c0,2.24,1.27,3.94,3.81,3.94,1.93,0,3.26-1.01,3.55-2.66l-.13-.13h-1.28l-.13.13c-.23.8-.82,1.38-2,1.38-1.75,0-2.27-1.29-2.29-2.59h5.82l.13-.13c.08-3.02-1.58-4.26-3.64-4.26-2.5,0-3.85,1.86-3.85,4.19v.13ZM476.26,22.58h-4.26c.22-1.04.84-1.89,2.18-1.89s2.05.81,2.08,1.89M465.74,27.5h1.45l.13-.13,2.14-7.68-.13-.13h-1.3l-.13.13-1.38,5.74h-.19l-1.58-5.74-.13-.13h-1.6l-.13.13-1.58,5.74h-.19l-1.38-5.74-.13-.13h-1.3l-.13.13,2.11,7.68.13.13h1.46l.13-.13,1.7-6.06h.19l1.7,6.06.13.13ZM448.44,25.64l3.63-6.15c.25.63.38,1.43.38,2.38v.26c0,2.58-.98,4.06-2.58,4.06-.56,0-1.05-.19-1.44-.55M447.34,22.13v-.26c0-2.59.97-4.06,2.54-4.06.56,0,1.05.18,1.45.54l-3.62,6.14c-.24-.62-.37-1.42-.37-2.36M449.88,27.66c2.67,0,4.18-2.3,4.18-5.54v-.26c0-3.23-1.51-5.54-4.18-5.54s-4.14,2.3-4.14,5.54v.26c0,3.23,1.46,5.54,4.14,5.54M438.84,25.64l3.63-6.15c.25.63.38,1.43.38,2.38v.26c0,2.58-.98,4.06-2.58,4.06-.56,0-1.05-.19-1.44-.55M437.74,22.13v-.26c0-2.59.97-4.06,2.54-4.06.56,0,1.05.18,1.45.54l-3.62,6.14c-.24-.62-.37-1.42-.37-2.36M440.28,27.66c2.67,0,4.18-2.3,4.18-5.54v-.26c0-3.23-1.51-5.54-4.18-5.54s-4.14,2.3-4.14,5.54v.26c0,3.23,1.46,5.54,4.14,5.54M428.7,23.3v-.13l3.14-3.98h.06v3.98l-.06.13h-3.14ZM432.03,27.5h1.34l.13-.13v-2.48l.13-.13h1.5l.13-.13v-1.22l-.13-.13h-1.5l-.13-.13v-6.54l-.13-.13h-1.22l-5.58,7.12v1.02l.13.13h5.14l.06.13v2.48l.13.13ZM413.73,16.5h-1.34l-.13.13v8.06l.13.13h8.58v.06l-2.37,2.37v.13l.13.13h1.6l2.94-3.01v-.9l-2.94-3.01h-1.6l-.13.13v.13l2.37,2.37v.06h-7.1v-6.66l-.13-.13Z"/>
      <path class="cls-5" d="M314.76,166.43c-3.1.45-4.55,3.12-3.23,5.97l35.3,76.46c1.31,2.84,4.91,5.07,8.04,4.98l65.07-1.93c3.13-.09,4.8-2.55,3.73-5.5l-31.09-85.72c-1.07-2.94-4.44-4.96-7.54-4.51l-70.28,10.25Z"/>
      <path class="cls-4" d="M314.76,166.43c-3.1.45-4.55,3.12-3.23,5.97l35.3,76.46c1.31,2.84,4.91,5.07,8.04,4.98l65.07-1.93c3.13-.09,4.8-2.55,3.73-5.5l-31.09-85.72c-1.07-2.94-4.44-4.96-7.54-4.51l-70.28,10.25Z"/>
    </g>
    <polygon class="cls-5" points="393.2 599.68 387.1 614.85 413.46 623.92 417.29 602.09 393.2 599.68"/>
    <polygon class="cls-4" points="393.2 599.68 387.1 614.85 413.46 623.92 417.29 602.09 393.2 599.68"/>
    <polygon class="cls-5" points="352.1 259.67 374.15 327.7 425.6 340.74 424.38 258.38 352.1 259.67"/>
    <polygon class="cls-4" points="352.1 259.67 374.15 327.7 425.6 340.74 424.38 258.38 352.1 259.67"/>
    <g class="cls-9">
      <path class="cls-5" d="M299.59,340.04c-1.56.06-2.24,1.24-1.52,2.62l13.87,26.46c.73,1.39,2.58,2.46,4.15,2.4l53.58-2.05c1.56-.06,2.64-1.36,2.4-2.91l-4.12-26.44c-.24-1.55-1.7-2.75-3.27-2.69l-65.1,2.61Z"/>
      <path class="cls-4" d="M299.59,340.04c-1.56.06-2.24,1.24-1.52,2.62l13.87,26.46c.73,1.39,2.58,2.46,4.15,2.4l53.58-2.05c1.56-.06,2.64-1.36,2.4-2.91l-4.12-26.44c-.24-1.55-1.7-2.75-3.27-2.69l-65.1,2.61Z"/>
      <path class="cls-6" d="M370.17,137.93c-3.1-.47-3.33.27-.53,1.67l16.89,8.39,56.53,11.61c3.07.63,3.15.33.18-.67l-53.59-18.03-19.48-2.97Z"/>
      <path class="cls-3" d="M370.17,137.93c-3.1-.47-3.33.27-.53,1.67l16.89,8.39,56.53,11.61c3.07.63,3.15.33.18-.67l-53.59-18.03-19.48-2.97Z"/>
    </g>
  </g>
  <g class="cls-8">
    <g class="cls-11">
      <path class="cls-6" d="M453.16,653.54v-9.62c0-45.08,29.45-75.73,83.54-85.94l182.7-34.26v68.51c-11.42,96.76-85.94,134.62-165.28,134.62-61.3,0-100.97-22.24-100.97-73.32M738.04,801.38l9.62,9.62h96.76l9.62-9.62v-9.62c-13.22-40.27-18.63-60.7-18.63-120.2v-250.02c0-135.83-74.52-216.36-236.79-216.36-170.68,0-244.01,88.35-251.82,187.51l9.62,9.62h96.16l9.62-9.62c9.62-57.1,53.49-87.75,132.82-87.75s124.41,28.85,124.41,116.59v4.21l-7.81,4.81-189.92,34.26c-120.2,21.64-184.51,81.74-184.51,182.1v9.62c0,112.99,80.53,166.48,191.12,166.48,93.15,0,147.24-36.66,182.7-88.95h9.62c2.4,21.03,7.81,40.87,17.43,67.31"/>
    </g>
  </g>
</svg>