<?xml version="1.0" encoding="UTF-8"?>
<svg id="Calque_1" data-name="Calque 1" xmlns="http://www.w3.org/2000/svg" xmlns:xlink="http://www.w3.org/1999/xlink" viewBox="0 0 616 860">
  <defs>
    <style>
      .cls-1 {
        clip-path: url(#clippath);
      }

      .cls-2 {
        fill: none;
      }

      .cls-2, .cls-3 {
        stroke-width: 0px;
      }

      .cls-4 {
        clip-path: url(#clippath-1);
      }

      .cls-3 {
        fill: #fff;
      }
    </style>
    <clipPath id="clippath">
      <rect class="cls-2" width="616" height="860"/>
    </clipPath>
    <clipPath id="clippath-1">
      <rect class="cls-2" width="616" height="860"/>
    </clipPath>
  </defs>
  <g class="cls-1">
    <g class="cls-4">
      <path class="cls-3" d="M122.89,223.68h25.69l2.57-2.57v-101.49c0-34.85-17.66-57.81-54.92-57.81-23.29,0-41.43,8.99-47.53,23.77h-2.89v-18.63l-2.57-2.57h-25.69l-2.57,2.57v154.16l2.57,2.57h25.69l2.57-2.57v-91.21c1.77-26.5,16.86-40.31,41.43-40.31,17.83,0,33.08,7.39,33.08,33.56v97.96l2.57,2.57Z"/>
      <path class="cls-3" d="M120.48,414h25.69l3.05-2.57,18.95-89.12c9.79-45.93-6.26-70.18-44.64-70.18-23.29,0-38.7,8.99-48.02,23.77h-2.89l4.01-18.63-2.09-2.57h-25.69l-3.05,2.57L13.05,411.43l2.09,2.57h25.69l3.05-2.57,19.59-92.01c6.9-26.02,21.2-39.5,45.61-39.5,17.82,0,35.81,7.39,28.58,41.27l-19.27,90.25,2.09,2.57Z"/>
      <path class="cls-3" d="M70.76,716.2v-33.71c5.62-66.82,50.85-84.86,87.52-84.86,55.29,0,85.15,41.39,85.15,96.68v9.46c0,55.29-29.86,97.27-85.15,97.27-36.66,0-81.9-18.04-87.52-84.86M170.11,850.73c71.55,0,132.46-49.08,132.46-146.95v-9.46c0-97.86-60.91-146.35-132.46-146.35-41.98,0-76.28,16.26-94.02,42.58h-5.32v-146.65l-4.73-4.73H18.72l-4.73,4.73v397.37l4.73,4.73h47.31l4.73-4.73v-33.11h5.32c17.74,26.31,52.04,42.58,94.02,42.58"/>
      <path class="cls-3" d="M465.51,850.73c90.77,1.77,123.59-37.85,123.59-83.67v-4.73c0-120.04-183.31-63.27-183.31-129.21v-3.25c0-22.77,23.06-34.89,60.91-34.3,38.14.59,58.84,13.6,62.09,41.39l4.43,4.73h44.94l5.03-4.73c1.18-51.45-35.78-87.81-112.94-88.99-78.65-1.48-121.22,34.59-121.22,87.22v4.73c0,111.76,183.31,54.4,183.31,125.66v3.25c0,26.02-26.9,33.71-61.79,33.11-45.83-.89-70.37-14.49-71.55-47.6l-4.73-4.73h-49.67l-4.73,4.73c2.07,62.98,47.01,94.91,125.66,96.39"/>
      <path class="cls-3" d="M285.79,298.22c48.28,0,83.14-17.66,95.85-45.22h3.77v37.21l3.53,3.77h42.16l3.77-3.77V64.12l-3.77-3.77h-42.16l-3.53,3.77v124.59c-3.06,42.16-32.97,68.06-83.61,68.06-41.21,0-70.42-16.02-70.42-61.23V64.12l-3.53-3.77h-42.16l-3.77,3.77v138.48c0,60.06,36.03,95.62,103.86,95.62"/>
      <path class="cls-3" d="M252.03,546.47c48.04,0,80.31-17.66,99.15-45.45h3.77l-8.01,37.21,2.83,3.77h42.16l4.24-3.77,48.28-226.09-3.06-3.77h-42.16l-4.24,3.77-26.61,125.29c-12.01,41.92-46.63,67.83-96.8,67.83-41.45,0-68.3-16.25-58.41-61.7l27.79-131.42-2.83-3.77h-42.16l-4.24,3.77-28.03,131.42c-14.13,67.12,20.25,102.92,88.32,102.92"/>
      <path class="cls-3" d="M467.78,438h50.08l4.97-4.97v-246.6c2.68-37.85,21.79-68.82,62.32-68.82h11.85l4.97-5.35v-48.94l-4.97-4.97h-11.85c-29.82,0-50.85,14.15-57.73,39h-4.59v-33.64l-4.97-4.97h-50.08l-4.97,4.97v369.33l4.97,4.97Z"/>
      <path class="cls-3" d="M569.73,534h9.56l.96-.96v-33.41c.66-9.56,6.63-13.45,16.26-13.45h2.87l.96-.96v-9.56l-.96-.96h-2.87c-7.83,0-13.09,3.23-15.18,8.85h-1.08v-7.89l-.96-.96h-9.56l-.96.96v57.37l.96.96ZM516.12,518.34v-.96c0-4.48,2.93-7.53,8.31-8.55l18.17-3.41v6.81c-1.14,9.62-8.55,13.39-16.43,13.39-6.1,0-10.04-2.21-10.04-7.29M544.45,533.04l.96.96h9.62l.96-.96v-.96c-1.31-4.01-1.85-6.04-1.85-11.95v-24.86c0-13.51-7.41-21.52-23.55-21.52-16.97,0-24.26,8.79-25.04,18.65l.96.96h9.56l.96-.96c.96-5.68,5.32-8.73,13.21-8.73s12.37,2.87,12.37,11.59v.42l-.78.48-18.88,3.41c-11.95,2.15-18.35,8.13-18.35,18.11v.96c0,11.24,8.01,16.55,19.01,16.55,9.26,0,14.64-3.65,18.17-8.85h.96c.24,2.09.78,4.06,1.73,6.69M461.49,534h9.56l.96-.96,31.55-79.37v-.96l-.96-.96h-10.52l-.96.96-23.91,63.71h-1.91l-23.91-63.71-.96-.96h-10.52l-.96.96v.96l31.56,79.37.96.96Z"/>
      <path class="cls-3" d="M95.72,43.5h6.21l.13-.13v-1.22l-.13-.13h-2.18l-.13-.13v-9.28l-.13-.13h-1.34l-.13.13c-.02,1.1-.9,1.81-2.24,1.79l-.13.13v1.22l.13.13c1.14,0,1.66-.15,2.11-.57h.13v6.58l-.13.13h-2.18l-.13.13v1.22l.13.13ZM88.37,41.64l3.63-6.15c.25.63.38,1.43.38,2.38v.26c0,2.58-.98,4.06-2.58,4.06-.56,0-1.05-.19-1.44-.55M87.26,38.13v-.26c0-2.59.97-4.06,2.54-4.06.56,0,1.05.18,1.45.54l-3.62,6.14c-.24-.62-.37-1.42-.37-2.36M89.8,43.66c2.67,0,4.18-2.3,4.18-5.54v-.26c0-3.23-1.51-5.54-4.18-5.54s-4.14,2.3-4.14,5.54v.26c0,3.23,1.46,5.54,4.14,5.54M78.65,43.5h1.28l.13-.13v-5.06c0-1.74-.88-2.88-2.74-2.88-1.16,0-2.06.45-2.37,1.18h-.14v-.93l-.13-.13h-1.28l-.13.13v7.68l.13.13h1.28l.13-.13v-4.54c.09-1.32.84-2.01,2.06-2.01.89,0,1.65.37,1.65,1.67v4.88l.13.13ZM66.23,41.41v-.13c0-.6.39-1.01,1.11-1.14l2.43-.46v.91c-.15,1.29-1.14,1.79-2.2,1.79-.82,0-1.34-.3-1.34-.98M70.02,43.38l.13.13h1.29l.13-.13v-.13c-.18-.54-.25-.81-.25-1.6v-3.33c0-1.81-.99-2.88-3.15-2.88-2.27,0-3.25,1.18-3.35,2.5l.13.13h1.28l.13-.13c.13-.76.71-1.17,1.77-1.17s1.66.38,1.66,1.55v.06l-.1.06-2.53.46c-1.6.29-2.46,1.09-2.46,2.42v.13c0,1.5,1.07,2.22,2.54,2.22,1.24,0,1.96-.49,2.43-1.18h.13c.03.28.1.54.23.9M61.52,43.5h1.28l.13-.13v-10.75l-.13-.13h-1.28l-.13.13v10.75l.13.13ZM53.52,39.88v-.69c.11-1.9,1.36-2.41,2.37-2.41,1.5,0,2.3,1.12,2.3,2.62v.26c0,1.5-.81,2.63-2.3,2.63-1.01,0-2.26-.51-2.37-2.41M56.21,43.63c1.94,0,3.58-1.33,3.58-3.98v-.26c0-2.65-1.65-3.96-3.58-3.96-1.14,0-2.06.44-2.54,1.15h-.14v-.9l-.13-.13h-1.28l-.13.13v11.01l.13.13h1.28l.13-.13v-4.22h.14c.48.71,1.41,1.15,2.54,1.15M44.07,43.5h1.28l.13-.13v-2.27l1.28-1.31,2.21,3.58.17.14h1.48l.13-.13v-.13l-2.91-4.54,2.83-2.88v-.13l-.13-.13h-1.5l-3.55,3.62v-6.56l-.13-.13h-1.28l-.13.13v10.75l.13.13ZM38.66,43.5h1.28l.13-.13v-4.47c.09-1.28.89-1.8,2.18-1.8h.38l.13-.13v-1.28l-.13-.13h-.38c-1.05,0-1.75.43-2.03,1.18h-.14v-1.06l-.13-.13h-1.28l-.13.13v7.68l.13.13ZM30.79,39.62v-.16c0-1.5.75-2.73,2.3-2.73s2.3,1.23,2.3,2.73v.16c0,1.5-.75,2.73-2.3,2.73s-2.3-1.23-2.3-2.73M33.1,43.66c1.98,0,3.84-1.3,3.84-4.05v-.16c0-2.74-1.86-4.05-3.84-4.05s-3.84,1.3-3.84,4.05v.16c0,2.74,1.86,4.05,3.84,4.05M17.49,43.5h1.33l.13-.13,2.61-8.17h.13l2.61,8.17.13.13h1.33l.13-.13,2.98-10.62v-.13l-.13-.13h-1.41l-.13.13-2.08,8.04h-.13l-2.46-8.04-.13-.13h-1.54l-.13.13-2.46,8.04h-.13l-2.08-8.04-.13-.13h-1.41l-.13.13v.13l2.98,10.62.13.13Z"/>
      <path class="cls-3" d="M79.36,27.63c2.46.05,3.34-1.02,3.34-2.26v-.13c0-3.25-4.96-1.71-4.96-3.5v-.09c0-.62.62-.94,1.65-.93,1.03.02,1.59.37,1.68,1.12l.12.13h1.22l.14-.13c.03-1.39-.97-2.38-3.06-2.41-2.13-.04-3.28.94-3.28,2.36v.13c0,3.02,4.96,1.47,4.96,3.4v.09c0,.7-.73.91-1.67.9-1.24-.02-1.9-.39-1.94-1.29l-.13-.13h-1.34l-.13.13c.06,1.7,1.27,2.57,3.4,2.61M68.37,23.99v-.91c.15-1.81,1.38-2.3,2.37-2.3,1.5,0,2.3,1.12,2.3,2.62v.26c0,1.5-.81,2.63-2.3,2.63-.99,0-2.22-.49-2.37-2.3M71.06,27.63c1.94,0,3.58-1.33,3.58-3.98v-.26c0-2.65-1.65-3.96-3.58-3.96-1.14,0-2.06.44-2.54,1.15h-.14v-3.97l-.13-.13h-1.28l-.13.13v10.75l.13.13h1.28l.13-.13v-.9h.14c.48.71,1.41,1.15,2.54,1.15M61.55,27.5h1.28l.13-.13v-4.47c.09-1.28.89-1.8,2.18-1.8h.38l.13-.13v-1.28l-.13-.13h-.38c-1.05,0-1.75.43-2.03,1.18h-.14v-1.06l-.13-.13h-1.28l-.13.13v7.68l.13.13ZM55.54,27.63c1.12,0,1.99-.45,2.29-1.18h.14v.93l.13.13h1.28l.13-.13v-7.68l-.13-.13h-1.28l-.13.13v4.55c-.08,1.31-.8,2-1.98,2-.85,0-1.57-.37-1.57-1.67v-4.88l-.13-.13h-1.28l-.13.13v5.06c0,1.74.86,2.88,2.66,2.88M41.82,27.5h1.34l.13-.13v-8.43h.13l5.37,8.56h1.73l.13-.13v-10.75l-.13-.13h-1.28l-.13.13v8.43h-.13l-5.37-8.56h-1.79l-.13.13v10.75l.13.13ZM29.09,27.5h1.34l.13-.13v-4.14l.13-.13h4.67l.13-.13v-1.22l-.13-.13h-4.67l-.13-.13v-3.41l.13-.13h5.25l.13-.13v-1.22l-.13-.13h-6.85l-.13.13v10.75l.13.13ZM20.42,27.5h.77l.13-.13,3.2-7.94h.13v7.94l.13.13h1.34l.13-.13v-10.75l-.13-.13h-1.98l-.13.13-3.14,7.87h-.13l-3.14-7.87-.13-.13h-1.98l-.13.13v10.75l.13.13h1.34l.13-.13v-7.94h.13l3.2,7.94.13.13Z"/>
      <path class="cls-3" d="M323.43,43.5h6.21l.13-.13v-1.22l-.13-.13h-2.18l-.13-.13v-9.28l-.13-.13h-1.34l-.13.13c-.02,1.1-.9,1.81-2.24,1.79l-.13.13v1.22l.13.13c1.14,0,1.66-.15,2.11-.57h.13v6.58l-.13.13h-2.18l-.13.13v1.22l.13.13ZM315.03,41.64l3.63-6.15c.25.63.38,1.43.38,2.38v.26c0,2.58-.98,4.06-2.58,4.06-.56,0-1.05-.19-1.44-.55M313.92,38.13v-.26c0-2.59.97-4.06,2.54-4.06.56,0,1.05.18,1.45.54l-3.62,6.14c-.24-.62-.37-1.42-.37-2.36M316.46,43.66c2.67,0,4.18-2.3,4.18-5.54v-.26c0-3.23-1.51-5.54-4.18-5.54s-4.14,2.3-4.14,5.54v.26c0,3.23,1.46,5.54,4.14,5.54M307.76,43.63c2.46.05,3.34-1.02,3.34-2.26v-.13c0-3.25-4.96-1.71-4.96-3.5v-.09c0-.62.62-.94,1.65-.93,1.03.02,1.59.37,1.68,1.12l.12.13h1.22l.14-.13c.03-1.39-.97-2.38-3.06-2.41-2.13-.04-3.28.94-3.28,2.36v.13c0,3.02,4.96,1.47,4.96,3.4v.09c0,.7-.73.91-1.67.9-1.24-.02-1.9-.39-1.94-1.29l-.13-.13h-1.34l-.13.13c.06,1.7,1.27,2.57,3.4,2.61M298.61,43.66c2.38,0,4.14-1.06,4.14-3.06v-.13c0-4.21-6.6-2.36-6.6-5.11v-.13c0-.9.78-1.43,2.4-1.43s2.3.57,2.5,1.7l.12.13h1.41l.14-.13c-.17-1.87-1.44-3.16-4.15-3.16s-4.02,1.36-4.02,3.01v.19c0,4.02,6.6,2.3,6.6,5v.13c0,.9-.83,1.53-2.41,1.53-1.68,0-2.8-.75-2.96-2.08l-.13-.13h-1.34l-.13.13c.1,1.9,1.5,3.55,4.44,3.55"/>
      <path class="cls-3" d="M359.9,23.73c0,2.24,1.27,3.94,3.81,3.94,1.93,0,3.26-1.01,3.55-2.66l-.13-.13h-1.28l-.13.13c-.23.8-.82,1.38-2,1.38-1.75,0-2.27-1.29-2.29-2.59h5.82l.13-.13c.08-3.02-1.58-4.26-3.64-4.26-2.5,0-3.85,1.86-3.85,4.19v.13ZM365.79,22.58h-4.26c.22-1.04.84-1.89,2.18-1.89s2.05.81,2.08,1.89M352.35,23.88v-.69c.11-1.9,1.36-2.41,2.37-2.41,1.5,0,2.3,1.12,2.3,2.62v.26c0,1.5-.81,2.63-2.3,2.63-1.01,0-2.26-.51-2.37-2.41M355.04,27.63c1.94,0,3.58-1.33,3.58-3.98v-.26c0-2.65-1.65-3.96-3.58-3.96-1.14,0-2.06.44-2.54,1.15h-.14v-.9l-.13-.13h-1.28l-.13.13v11.01l.13.13h1.28l.13-.13v-4.22h.14c.48.71,1.41,1.15,2.54,1.15M344.12,30.83h1.26l.13-.13,4.05-10.88v-.13l-.13-.13h-1.32l-.13.13-2,5.49h-.14l-1.8-5.49-.13-.13h-1.47l-.13.13v.13l2.86,7.57-1.18,3.25v.06l.13.13ZM340.36,27.5h.89l.13-.13v-1.02l-.13-.13h-.89c-.61,0-.78-.3-.78-.85v-4.53h1.66l.13-.13v-1.02l-.13-.13h-1.66v-1.79l-.13-.13h-1.28l-.13.13v1.79h-1.23l-.13.13v1.02l.13.13h1.23v4.53c0,1.59.45,2.13,2.31,2.13M330.21,27.5h1.28l.13-.13v-5.06c0-1.74-.88-2.88-2.74-2.88-1.16,0-2.06.45-2.37,1.18h-.14v-.93l-.13-.13h-1.28l-.13.13v7.68l.13.13h1.28l.13-.13v-4.54c.09-1.32.84-2.01,2.06-2.01.89,0,1.65.37,1.65,1.67v4.88l.13.13ZM315.75,23.73c0,2.24,1.27,3.94,3.81,3.94,1.93,0,3.26-1.01,3.55-2.66l-.13-.13h-1.28l-.13.13c-.23.8-.82,1.38-2,1.38-1.75,0-2.27-1.29-2.29-2.59h5.82l.13-.13c.08-3.02-1.58-4.26-3.64-4.26-2.5,0-3.85,1.86-3.85,4.19v.13ZM321.64,22.58h-4.26c.22-1.04.84-1.89,2.18-1.89s2.05.81,2.08,1.89M308.2,23.88v-.69c.11-1.9,1.36-2.41,2.37-2.41,1.5,0,2.3,1.12,2.3,2.62v.26c0,1.5-.81,2.63-2.3,2.63-1.01,0-2.26-.51-2.37-2.41M310.88,27.63c1.94,0,3.58-1.33,3.58-3.98v-.26c0-2.65-1.65-3.96-3.58-3.96-1.14,0-2.06.44-2.54,1.15h-.14v-.9l-.13-.13h-1.28l-.13.13v11.01l.13.13h1.28l.13-.13v-4.22h.14c.48.71,1.41,1.15,2.54,1.15M295.8,22.13v-.26c0-2.74,1.59-4.04,3.62-4.04s3.62,1.3,3.62,4.04v.26c0,2.74-1.59,4.04-3.62,4.04s-3.62-1.3-3.62-4.04M299.43,27.66c3.02,0,5.25-2.27,5.25-5.54v-.26c0-3.26-2.22-5.54-5.25-5.54s-5.25,2.27-5.25,5.54v.26c0,3.26,2.22,5.54,5.25,5.54"/>
      <path class="cls-3" d="M212.46,43.63c2.46.05,3.34-1.02,3.34-2.26v-.13c0-3.25-4.96-1.71-4.96-3.5v-.09c0-.62.62-.94,1.65-.93,1.03.02,1.59.37,1.68,1.12l.12.13h1.22l.14-.13c.03-1.39-.97-2.38-3.06-2.41-2.13-.04-3.28.94-3.28,2.36v.13c0,3.02,4.96,1.47,4.96,3.4v.09c0,.7-.73.91-1.67.9-1.24-.02-1.9-.39-1.94-1.29l-.13-.13h-1.34l-.13.13c.06,1.7,1.27,2.57,3.4,2.61M200.25,39.73c0,2.24,1.27,3.94,3.81,3.94,1.93,0,3.26-1.01,3.55-2.66l-.13-.13h-1.28l-.13.13c-.23.8-.82,1.38-2,1.38-1.75,0-2.27-1.29-2.29-2.59h5.82l.13-.13c.08-3.02-1.58-4.26-3.64-4.26-2.5,0-3.85,1.86-3.85,4.19v.13ZM206.14,38.58h-4.26c.22-1.04.84-1.89,2.18-1.89s2.05.81,2.08,1.89M197.25,43.5h1.28l.13-.13v-10.75l-.13-.13h-1.28l-.13.13v10.75l.13.13ZM190.42,46.83h1.26l.13-.13,4.05-10.88v-.13l-.13-.13h-1.32l-.13.13-2,5.49h-.14l-1.8-5.49-.13-.13h-1.47l-.13.13v.13l2.86,7.57-1.18,3.25v.06l.13.13ZM186.67,43.5h.89l.13-.13v-1.02l-.13-.13h-.89c-.61,0-.78-.3-.78-.85v-4.53h1.66l.13-.13v-1.02l-.13-.13h-1.66v-1.79l-.13-.13h-1.28l-.13.13v1.79h-1.23l-.13.13v1.02l.13.13h1.23v4.53c0,1.59.45,2.13,2.31,2.13M178.73,43.63c2.46.05,3.34-1.02,3.34-2.26v-.13c0-3.25-4.96-1.71-4.96-3.5v-.09c0-.62.62-.94,1.65-.93,1.03.02,1.59.37,1.68,1.12l.12.13h1.22l.14-.13c.03-1.39-.97-2.38-3.06-2.41-2.13-.04-3.28.94-3.28,2.36v.13c0,3.02,4.96,1.47,4.96,3.4v.09c0,.7-.73.91-1.67.9-1.24-.02-1.9-.39-1.94-1.29l-.13-.13h-1.34l-.13.13c.06,1.7,1.27,2.57,3.4,2.61M159.24,41.64l3.63-6.15c.25.63.38,1.43.38,2.38v.26c0,2.58-.98,4.06-2.58,4.06-.56,0-1.05-.19-1.44-.55M158.14,38.13v-.26c0-2.59.97-4.06,2.54-4.06.56,0,1.05.18,1.45.54l-3.62,6.14c-.24-.62-.37-1.42-.37-2.36M160.68,43.66c2.67,0,4.18-2.3,4.18-5.54v-.26c0-3.23-1.51-5.54-4.18-5.54s-4.14,2.3-4.14,5.54v.26c0,3.23,1.46,5.54,4.14,5.54M148.77,36.14v-.06c0-1.42.94-2.27,2.21-2.27,1.19,0,2.27.74,2.27,2.27v.06c0,1.46-.96,2.24-2.24,2.24-1.34,0-2.24-.82-2.24-2.24M151.05,32.34c-2.5,0-3.88,1.66-3.88,3.74v.06c0,2.3,1.55,3.84,3.78,3.71,1.32-.07,1.99-.67,2.3-1.2h.13v.29c0,1.5-.57,3.25-2.54,3.25-1.11,0-1.74-.54-1.98-1.44l-.13-.13h-1.34l-.13.13c.18,1.52,1.22,2.91,3.54,2.91,3.35,0,4.25-2.94,4.25-5.9v-.13c0-3.7-1.55-5.3-3.99-5.3"/>
      <path class="cls-3" d="M201.05,27.63c2.46.05,3.34-1.02,3.34-2.26v-.13c0-3.25-4.96-1.71-4.96-3.5v-.09c0-.62.62-.94,1.65-.93,1.03.02,1.59.37,1.68,1.12l.12.13h1.22l.14-.13c.03-1.39-.97-2.38-3.06-2.41-2.13-.04-3.28.94-3.28,2.36v.13c0,3.02,4.96,1.47,4.96,3.4v.09c0,.7-.73.91-1.67.9-1.24-.02-1.9-.39-1.94-1.29l-.13-.13h-1.34l-.13.13c.06,1.7,1.27,2.57,3.4,2.61M195.45,27.5h.89l.13-.13v-1.02l-.13-.13h-.89c-.61,0-.78-.3-.78-.85v-4.53h1.66l.13-.13v-1.02l-.13-.13h-1.66v-1.79l-.13-.13h-1.28l-.13.13v1.79h-1.23l-.13.13v1.02l.13.13h1.23v4.53c0,1.59.45,2.13,2.31,2.13M186.5,27.63c1.12,0,1.99-.45,2.29-1.18h.14v.93l.13.13h1.28l.13-.13v-7.68l-.13-.13h-1.28l-.13.13v4.55c-.08,1.31-.8,2-1.98,2-.85,0-1.57-.37-1.57-1.67v-4.88l-.13-.13h-1.28l-.13.13v5.06c0,1.74.86,2.88,2.66,2.88M179.06,27.66c1.78,0,3.14-.91,3.42-2.74l-.13-.13h-1.28l-.13.13c-.15.95-.86,1.38-1.89,1.38-1.67,0-2.24-1.17-2.24-2.65v-.26c0-1.48.57-2.65,2.24-2.65,1.02,0,1.74.43,1.89,1.38l.13.13h1.28l.13-.13c-.26-1.79-1.49-2.74-3.36-2.74-2.43,0-3.84,1.59-3.84,4v.26c0,2.42,1.44,4,3.78,4M158.37,20.14v-.06c0-1.42.94-2.27,2.21-2.27,1.19,0,2.27.74,2.27,2.27v.06c0,1.46-.96,2.24-2.24,2.24-1.34,0-2.24-.82-2.24-2.24M160.65,16.34c-2.5,0-3.88,1.66-3.88,3.74v.06c0,2.3,1.55,3.84,3.78,3.71,1.32-.07,1.99-.67,2.3-1.2h.13v.29c0,1.5-.57,3.25-2.54,3.25-1.11,0-1.74-.54-1.98-1.44l-.13-.13h-1.34l-.13.13c.18,1.52,1.22,2.91,3.54,2.91,3.35,0,4.25-2.94,4.25-5.9v-.13c0-3.7-1.55-5.3-3.99-5.3M149.64,25.64l3.63-6.15c.25.63.38,1.43.38,2.38v.26c0,2.58-.98,4.06-2.58,4.06-.56,0-1.05-.19-1.44-.55M148.54,22.13v-.26c0-2.59.97-4.06,2.54-4.06.56,0,1.05.18,1.45.54l-3.62,6.14c-.24-.62-.37-1.42-.37-2.36M151.08,27.66c2.67,0,4.18-2.3,4.18-5.54v-.26c0-3.23-1.51-5.54-4.18-5.54s-4.14,2.3-4.14,5.54v.26c0,3.23,1.46,5.54,4.14,5.54"/>
      <path class="cls-3" d="M533.96,43.5h1.28l.13-.13v-5.06c0-1.74-.88-2.88-2.74-2.88-1.16,0-2.06.45-2.37,1.18h-.14v-4l-.13-.13h-1.28l-.13.13v10.75l.13.13h1.28l.13-.13v-4.54c.09-1.32.84-2.01,2.06-2.01.89,0,1.65.37,1.65,1.67v4.88l.13.13ZM525.89,43.5h.89l.13-.13v-1.02l-.13-.13h-.89c-.61,0-.78-.3-.78-.85v-4.53h1.66l.13-.13v-1.02l-.13-.13h-1.66v-1.79l-.13-.13h-1.28l-.13.13v1.79h-1.23l-.13.13v1.02l.13.13h1.23v4.53c0,1.59.45,2.13,2.31,2.13M514.7,39.66v-.26c0-1.5.81-2.62,2.3-2.62,1.01,0,2.26.51,2.37,2.41v.69c-.11,1.9-1.36,2.41-2.37,2.41-1.5,0-2.3-1.14-2.3-2.63M516.68,43.63c1.14,0,2.06-.44,2.54-1.15h.14v.9l.13.13h1.28l.13-.13v-10.75l-.13-.13h-1.28l-.13.13v3.97h-.14c-.48-.71-1.41-1.15-2.54-1.15-1.94,0-3.58,1.31-3.58,3.96v.26c0,2.65,1.65,3.98,3.58,3.98M509.9,34.14l.13.13h1.41l.13-.13v-1.44l-.13-.13h-1.41l-.13.13v1.44ZM510.09,43.5h1.28l.13-.13v-7.68l-.13-.13h-1.28l-.13.13v7.68l.13.13ZM504.91,43.5h1.45l.13-.13,2.14-7.68-.13-.13h-1.3l-.13.13-1.38,5.74h-.19l-1.58-5.74-.13-.13h-1.6l-.13.13-1.58,5.74h-.19l-1.38-5.74-.13-.13h-1.3l-.13.13,2.11,7.68.13.13h1.46l.13-.13,1.7-6.06h.19l1.7,6.06.13.13ZM488.39,43.7c2.58,0,3.93-1.74,3.93-4.02v-.13c0-2.5-1.54-3.66-3.44-3.66-1.18,0-1.86.45-2.34.9h-.14l.35-2.69.13-.13h4.8l.13-.13v-1.22l-.13-.13h-5.98l-.13.13-.7,5.7.13.13,1.11.24.18-.04c.29-.62.88-1.31,2.22-1.31s2.22.78,2.22,2.32v.13c0,1.34-.65,2.44-2.32,2.44-1.54,0-2.08-.95-2.16-1.68l-.13-.13h-1.29l-.12.13c.09,1.91,1.49,3.16,3.69,3.15M476.17,43.5h6.21l.13-.13v-1.22l-.13-.13h-2.18l-.13-.13v-9.28l-.13-.13h-1.34l-.13.13c-.02,1.1-.9,1.81-2.24,1.79l-.13.13v1.22l.13.13c1.14,0,1.66-.15,2.11-.57h.13v6.58l-.13.13h-2.18l-.13.13v1.22l.13.13ZM466.57,43.5h6.21l.13-.13v-1.22l-.13-.13h-2.18l-.13-.13v-9.28l-.13-.13h-1.34l-.13.13c-.02,1.1-.9,1.81-2.24,1.79l-.13.13v1.22l.13.13c1.14,0,1.66-.15,2.11-.57h.13v6.58l-.13.13h-2.18l-.13.13v1.22l.13.13ZM449.26,37.36v1.28l.13.13h8.58v.06l-2.37,2.37v.13l.13.13h1.65l2.83-2.88.06-.13v-.9l-.06-.13-2.83-2.88h-1.65l-.13.13v.13l2.37,2.37v.06h-8.58l-.13.13ZM440.26,43.7c2.58,0,3.93-1.74,3.93-4.02v-.13c0-2.5-1.54-3.66-3.44-3.66-1.18,0-1.86.45-2.34.9h-.14l.35-2.69.13-.13h4.8l.13-.13v-1.22l-.13-.13h-5.98l-.13.13-.7,5.7.13.13,1.11.24.18-.04c.29-.62.88-1.31,2.22-1.31s2.22.78,2.22,2.32v.13c0,1.34-.65,2.44-2.32,2.44-1.54,0-2.08-.95-2.16-1.68l-.13-.13h-1.29l-.12.13c.09,1.91,1.49,3.16,3.69,3.15M428.72,35.42v-.06c0-1.08.88-1.55,1.97-1.55s2,.5,2,1.55v.06c0,1.1-.64,1.65-1.98,1.63-1.34-.02-1.98-.58-1.98-1.63M428.46,40.42v-.13c0-1.14.71-1.94,2.24-1.93,1.48,0,2.24.77,2.24,1.93v.13c0,1.11-.9,1.77-2.24,1.77s-2.24-.66-2.24-1.77M430.7,43.66c2.61,0,3.84-1.39,3.84-3.04v-.13c0-1.34-.74-2.3-1.76-2.69v-.13c.88-.34,1.5-1.15,1.5-2.3v-.06c0-1.76-1.28-2.98-3.58-2.98s-3.58,1.22-3.58,2.98v.06c0,1.15.62,1.97,1.5,2.3v.13c-1.02.41-1.76,1.34-1.76,2.69v.13c0,1.68,1.3,3.03,3.84,3.04M413.73,32.5h-1.34l-.13.13v8.06l.13.13h8.58v.06l-2.37,2.37v.13l.13.13h1.6l2.94-3.01v-.9l-2.94-3.01h-1.6l-.13.13v.13l2.37,2.37v.06h-7.1v-6.66l-.13-.13Z"/>
      <path class="cls-3" d="M508.87,27.5h.89l.13-.13v-1.02l-.13-.13h-.89c-.61,0-.78-.3-.78-.85v-4.53h1.66l.13-.13v-1.02l-.13-.13h-1.66v-1.79l-.13-.13h-1.28l-.13.13v1.79h-1.23l-.13.13v1.02l.13.13h1.23v4.53c0,1.59.45,2.13,2.31,2.13M502.7,27.5h1.28l.13-.13v-5.06c0-1.74-.88-2.88-2.74-2.88-1.16,0-2.06.45-2.37,1.18h-.14v-4l-.13-.13h-1.28l-.13.13v10.75l.13.13h1.28l.13-.13v-4.54c.09-1.32.84-2.01,2.06-2.01.89,0,1.65.37,1.65,1.67v4.88l.13.13ZM489.2,23.58v-.26c0-1.48.81-2.58,2.3-2.58.99,0,2.22.49,2.37,2.29v.84c-.15,1.82-1.38,2.28-2.37,2.28-1.5,0-2.3-1.1-2.3-2.58M491.6,30.99c2.26,0,3.8-1,3.8-3.49v-7.81l-.13-.13h-1.28l-.13.13v.93h-.14c-.48-.78-1.31-1.22-2.49-1.22-2.07,0-3.64,1.39-3.64,3.92v.26c0,2.53,1.57,3.92,3.64,3.92,1.18,0,2.01-.44,2.49-1.22h.14v1.25c0,1.56-.79,2.18-2.21,2.18-1.23,0-2.07-.46-2.18-1.44l-.13-.13h-1.28l-.13.13c0,1.88,1.58,2.72,3.66,2.72M484.4,18.14l.13.13h1.41l.13-.13v-1.44l-.13-.13h-1.41l-.13.13v1.44ZM484.59,27.5h1.28l.13-.13v-7.68l-.13-.13h-1.28l-.13.13v7.68l.13.13ZM475.37,23.73c0,2.24,1.27,3.94,3.81,3.94,1.93,0,3.26-1.01,3.55-2.66l-.13-.13h-1.28l-.13.13c-.23.8-.82,1.38-2,1.38-1.75,0-2.27-1.29-2.29-2.59h5.82l.13-.13c.08-3.02-1.58-4.26-3.64-4.26-2.5,0-3.85,1.86-3.85,4.19v.13ZM481.26,22.58h-4.26c.22-1.04.84-1.89,2.18-1.89s2.05.81,2.08,1.89M470.74,27.5h1.45l.13-.13,2.14-7.68-.13-.13h-1.3l-.13.13-1.38,5.74h-.19l-1.58-5.74-.13-.13h-1.6l-.13.13-1.58,5.74h-.19l-1.38-5.74-.13-.13h-1.3l-.13.13,2.11,7.68.13.13h1.46l.13-.13,1.7-6.06h.19l1.7,6.06.13.13ZM448.44,25.64l3.63-6.15c.25.63.38,1.43.38,2.38v.26c0,2.58-.98,4.06-2.58,4.06-.56,0-1.05-.19-1.44-.55M447.34,22.13v-.26c0-2.59.97-4.06,2.54-4.06.56,0,1.05.18,1.45.54l-3.62,6.14c-.24-.62-.37-1.42-.37-2.36M449.88,27.66c2.67,0,4.18-2.3,4.18-5.54v-.26c0-3.23-1.51-5.54-4.18-5.54s-4.14,2.3-4.14,5.54v.26c0,3.23,1.46,5.54,4.14,5.54M438.84,25.64l3.63-6.15c.25.63.38,1.43.38,2.38v.26c0,2.58-.98,4.06-2.58,4.06-.56,0-1.05-.19-1.44-.55M437.74,22.13v-.26c0-2.59.97-4.06,2.54-4.06.56,0,1.05.18,1.45.54l-3.62,6.14c-.24-.62-.37-1.42-.37-2.36M440.28,27.66c2.67,0,4.18-2.3,4.18-5.54v-.26c0-3.23-1.51-5.54-4.18-5.54s-4.14,2.3-4.14,5.54v.26c0,3.23,1.46,5.54,4.14,5.54M428.7,23.3v-.13l3.14-3.98h.06v3.98l-.06.13h-3.14ZM432.03,27.5h1.34l.13-.13v-2.48l.13-.13h1.5l.13-.13v-1.22l-.13-.13h-1.5l-.13-.13v-6.54l-.13-.13h-1.22l-5.58,7.12v1.02l.13.13h5.14l.06.13v2.48l.13.13ZM413.73,16.5h-1.34l-.13.13v8.06l.13.13h8.58v.06l-2.37,2.37v.13l.13.13h1.6l2.94-3.01v-.9l-2.94-3.01h-1.6l-.13.13v.13l2.37,2.37v.06h-7.1v-6.66l-.13-.13Z"/>
      <path class="cls-3" d="M586.64,30.73h15.36c0-9.35-7.05-16.73-16.98-16.73v15.07h-15.02c0,9.15,7.14,16.93,16.64,16.93v-15.27Z"/>
    </g>
  </g>
</svg>