<?xml version="1.0" encoding="UTF-8"?>
<svg id="Calque_1" data-name="Calque 1" xmlns="http://www.w3.org/2000/svg" xmlns:xlink="http://www.w3.org/1999/xlink" viewBox="0 0 616 860">
  <defs>
    <style>
      .cls-1 {
        clip-path: url(#clippath);
      }

      .cls-2, .cls-3 {
        fill: none;
      }

      .cls-2, .cls-4, .cls-5 {
        stroke-width: 0px;
      }

      .cls-6 {
        clip-path: url(#clippath-1);
      }

      .cls-7 {
        clip-path: url(#clippath-3);
      }

      .cls-8 {
        clip-path: url(#clippath-2);
      }

      .cls-3 {
        stroke: #000;
        stroke-miterlimit: 10;
        stroke-width: 2.05px;
      }

      .cls-5 {
        fill: #fff;
      }
    </style>
    <clipPath id="clippath">
      <rect class="cls-2" width="616" height="860"/>
    </clipPath>
    <clipPath id="clippath-1">
      <rect class="cls-2" width="616" height="860"/>
    </clipPath>
    <clipPath id="clippath-2">
      <rect class="cls-2" x="636" y="437" width="616" height="423"/>
    </clipPath>
    <clipPath id="clippath-3">
      <path class="cls-2" d="M651.5,722.07c0,67.62,54.81,122.43,122.43,122.43s122.43-54.81,122.43-122.43-54.81-122.43-122.43-122.43-122.43,54.81-122.43,122.43"/>
    </clipPath>
  </defs>
  <g class="cls-1">
    <g class="cls-6">
      <path class="cls-5" d="M95.96,43.5h7.46l.13-.13v-1.22l-.13-.13h-4.92v-.13c3.32-2.34,4.96-3.9,4.96-6.17v-.13c0-1.87-1.19-3.27-3.64-3.27s-3.81,1.36-3.89,3.79l.13.13h1.28l.13-.13c0-1.74,1.02-2.32,2.28-2.32,1.57,0,2.07.88,2.07,2.03v.06c0,2.1-1.58,3.07-5.99,6.29v1.18l.13.13ZM88.37,41.64l3.63-6.15c.25.63.38,1.43.38,2.38v.26c0,2.58-.98,4.06-2.58,4.06-.56,0-1.05-.19-1.44-.55M87.26,38.13v-.26c0-2.59.97-4.06,2.54-4.06.56,0,1.05.18,1.45.54l-3.62,6.14c-.24-.62-.37-1.42-.37-2.36M89.8,43.66c2.67,0,4.18-2.3,4.18-5.54v-.26c0-3.23-1.51-5.54-4.18-5.54s-4.14,2.3-4.14,5.54v.26c0,3.23,1.46,5.54,4.14,5.54M78.65,43.5h1.28l.13-.13v-5.06c0-1.74-.88-2.88-2.74-2.88-1.16,0-2.06.45-2.37,1.18h-.14v-.93l-.13-.13h-1.28l-.13.13v7.68l.13.13h1.28l.13-.13v-4.54c.09-1.32.84-2.01,2.06-2.01.89,0,1.65.37,1.65,1.67v4.88l.13.13ZM66.23,41.41v-.13c0-.6.39-1.01,1.11-1.14l2.43-.46v.91c-.15,1.29-1.14,1.79-2.2,1.79-.82,0-1.34-.3-1.34-.98M70.02,43.38l.13.13h1.29l.13-.13v-.13c-.18-.54-.25-.81-.25-1.6v-3.33c0-1.81-.99-2.88-3.15-2.88-2.27,0-3.25,1.18-3.35,2.5l.13.13h1.28l.13-.13c.13-.76.71-1.17,1.77-1.17s1.66.38,1.66,1.55v.06l-.1.06-2.53.46c-1.6.29-2.46,1.09-2.46,2.42v.13c0,1.5,1.07,2.22,2.54,2.22,1.24,0,1.96-.49,2.43-1.18h.13c.03.28.1.54.23.9M61.52,43.5h1.28l.13-.13v-10.75l-.13-.13h-1.28l-.13.13v10.75l.13.13ZM53.52,39.88v-.69c.11-1.9,1.36-2.41,2.37-2.41,1.5,0,2.3,1.12,2.3,2.62v.26c0,1.5-.81,2.63-2.3,2.63-1.01,0-2.26-.51-2.37-2.41M56.21,43.63c1.94,0,3.58-1.33,3.58-3.98v-.26c0-2.65-1.65-3.96-3.58-3.96-1.14,0-2.06.44-2.54,1.15h-.14v-.9l-.13-.13h-1.28l-.13.13v11.01l.13.13h1.28l.13-.13v-4.22h.14c.48.71,1.41,1.15,2.54,1.15M44.07,43.5h1.28l.13-.13v-2.27l1.28-1.31,2.21,3.58.17.14h1.48l.13-.13v-.13l-2.91-4.54,2.83-2.88v-.13l-.13-.13h-1.5l-3.55,3.62v-6.56l-.13-.13h-1.28l-.13.13v10.75l.13.13ZM38.66,43.5h1.28l.13-.13v-4.47c.09-1.28.89-1.8,2.18-1.8h.38l.13-.13v-1.28l-.13-.13h-.38c-1.05,0-1.75.43-2.03,1.18h-.14v-1.06l-.13-.13h-1.28l-.13.13v7.68l.13.13ZM30.79,39.62v-.16c0-1.5.75-2.73,2.3-2.73s2.3,1.23,2.3,2.73v.16c0,1.5-.75,2.73-2.3,2.73s-2.3-1.23-2.3-2.73M33.1,43.66c1.98,0,3.84-1.3,3.84-4.05v-.16c0-2.74-1.86-4.05-3.84-4.05s-3.84,1.3-3.84,4.05v.16c0,2.74,1.86,4.05,3.84,4.05M17.49,43.5h1.33l.13-.13,2.61-8.17h.13l2.61,8.17.13.13h1.33l.13-.13,2.98-10.62v-.13l-.13-.13h-1.41l-.13.13-2.08,8.04h-.13l-2.46-8.04-.13-.13h-1.54l-.13.13-2.46,8.04h-.13l-2.08-8.04-.13-.13h-1.41l-.13.13v.13l2.98,10.62.13.13Z"/>
      <path class="cls-5" d="M79.36,27.63c2.46.05,3.34-1.02,3.34-2.26v-.13c0-3.25-4.96-1.71-4.96-3.5v-.09c0-.62.62-.94,1.65-.93,1.03.02,1.59.37,1.68,1.12l.12.13h1.22l.14-.13c.03-1.39-.97-2.38-3.06-2.41-2.13-.04-3.28.94-3.28,2.36v.13c0,3.02,4.96,1.47,4.96,3.4v.09c0,.7-.73.91-1.67.9-1.24-.02-1.9-.39-1.94-1.29l-.13-.13h-1.34l-.13.13c.06,1.7,1.27,2.57,3.4,2.61M68.37,23.99v-.91c.15-1.81,1.38-2.3,2.37-2.3,1.5,0,2.3,1.12,2.3,2.62v.26c0,1.5-.81,2.63-2.3,2.63-.99,0-2.22-.49-2.37-2.3M71.06,27.63c1.94,0,3.58-1.33,3.58-3.98v-.26c0-2.65-1.65-3.96-3.58-3.96-1.14,0-2.06.44-2.54,1.15h-.14v-3.97l-.13-.13h-1.28l-.13.13v10.75l.13.13h1.28l.13-.13v-.9h.14c.48.71,1.41,1.15,2.54,1.15M61.55,27.5h1.28l.13-.13v-4.47c.09-1.28.89-1.8,2.18-1.8h.38l.13-.13v-1.28l-.13-.13h-.38c-1.05,0-1.75.43-2.03,1.18h-.14v-1.06l-.13-.13h-1.28l-.13.13v7.68l.13.13ZM55.54,27.63c1.12,0,1.99-.45,2.29-1.18h.14v.93l.13.13h1.28l.13-.13v-7.68l-.13-.13h-1.28l-.13.13v4.55c-.08,1.31-.8,2-1.98,2-.85,0-1.57-.37-1.57-1.67v-4.88l-.13-.13h-1.28l-.13.13v5.06c0,1.74.86,2.88,2.66,2.88M41.82,27.5h1.34l.13-.13v-8.43h.13l5.37,8.56h1.73l.13-.13v-10.75l-.13-.13h-1.28l-.13.13v8.43h-.13l-5.37-8.56h-1.79l-.13.13v10.75l.13.13ZM29.09,27.5h1.34l.13-.13v-4.14l.13-.13h4.67l.13-.13v-1.22l-.13-.13h-4.67l-.13-.13v-3.41l.13-.13h5.25l.13-.13v-1.22l-.13-.13h-6.85l-.13.13v10.75l.13.13ZM20.42,27.5h.77l.13-.13,3.2-7.94h.13v7.94l.13.13h1.34l.13-.13v-10.75l-.13-.13h-1.98l-.13.13-3.14,7.87h-.13l-3.14-7.87-.13-.13h-1.98l-.13.13v10.75l.13.13h1.34l.13-.13v-7.94h.13l3.2,7.94.13.13Z"/>
      <path class="cls-5" d="M323.43,43.5h6.21l.13-.13v-1.22l-.13-.13h-2.18l-.13-.13v-9.28l-.13-.13h-1.34l-.13.13c-.02,1.1-.9,1.81-2.24,1.79l-.13.13v1.22l.13.13c1.14,0,1.66-.15,2.11-.57h.13v6.58l-.13.13h-2.18l-.13.13v1.22l.13.13ZM315.03,41.64l3.63-6.15c.25.63.38,1.43.38,2.38v.26c0,2.58-.98,4.06-2.58,4.06-.56,0-1.05-.19-1.44-.55M313.92,38.13v-.26c0-2.59.97-4.06,2.54-4.06.56,0,1.05.18,1.45.54l-3.62,6.14c-.24-.62-.37-1.42-.37-2.36M316.46,43.66c2.67,0,4.18-2.3,4.18-5.54v-.26c0-3.23-1.51-5.54-4.18-5.54s-4.14,2.3-4.14,5.54v.26c0,3.23,1.46,5.54,4.14,5.54M307.76,43.63c2.46.05,3.34-1.02,3.34-2.26v-.13c0-3.25-4.96-1.71-4.96-3.5v-.09c0-.62.62-.94,1.65-.93,1.03.02,1.59.37,1.68,1.12l.12.13h1.22l.14-.13c.03-1.39-.97-2.38-3.06-2.41-2.13-.04-3.28.94-3.28,2.36v.13c0,3.02,4.96,1.47,4.96,3.4v.09c0,.7-.73.91-1.67.9-1.24-.02-1.9-.39-1.94-1.29l-.13-.13h-1.34l-.13.13c.06,1.7,1.27,2.57,3.4,2.61M298.61,43.66c2.38,0,4.14-1.06,4.14-3.06v-.13c0-4.21-6.6-2.36-6.6-5.11v-.13c0-.9.78-1.43,2.4-1.43s2.3.57,2.5,1.7l.12.13h1.41l.14-.13c-.17-1.87-1.44-3.16-4.15-3.16s-4.02,1.36-4.02,3.01v.19c0,4.02,6.6,2.3,6.6,5v.13c0,.9-.83,1.53-2.41,1.53-1.68,0-2.8-.75-2.96-2.08l-.13-.13h-1.34l-.13.13c.1,1.9,1.5,3.55,4.44,3.55"/>
      <path class="cls-5" d="M359.9,23.73c0,2.24,1.27,3.94,3.81,3.94,1.93,0,3.26-1.01,3.55-2.66l-.13-.13h-1.28l-.13.13c-.23.8-.82,1.38-2,1.38-1.75,0-2.27-1.29-2.29-2.59h5.82l.13-.13c.08-3.02-1.58-4.26-3.64-4.26-2.5,0-3.85,1.86-3.85,4.19v.13ZM365.79,22.58h-4.26c.22-1.04.84-1.89,2.18-1.89s2.05.81,2.08,1.89M352.35,23.88v-.69c.11-1.9,1.36-2.41,2.37-2.41,1.5,0,2.3,1.12,2.3,2.62v.26c0,1.5-.81,2.63-2.3,2.63-1.01,0-2.26-.51-2.37-2.41M355.04,27.63c1.94,0,3.58-1.33,3.58-3.98v-.26c0-2.65-1.65-3.96-3.58-3.96-1.14,0-2.06.44-2.54,1.15h-.14v-.9l-.13-.13h-1.28l-.13.13v11.01l.13.13h1.28l.13-.13v-4.22h.14c.48.71,1.41,1.15,2.54,1.15M344.12,30.83h1.26l.13-.13,4.05-10.88v-.13l-.13-.13h-1.32l-.13.13-2,5.49h-.14l-1.8-5.49-.13-.13h-1.47l-.13.13v.13l2.86,7.57-1.18,3.25v.06l.13.13ZM340.36,27.5h.89l.13-.13v-1.02l-.13-.13h-.89c-.61,0-.78-.3-.78-.85v-4.53h1.66l.13-.13v-1.02l-.13-.13h-1.66v-1.79l-.13-.13h-1.28l-.13.13v1.79h-1.23l-.13.13v1.02l.13.13h1.23v4.53c0,1.59.45,2.13,2.31,2.13M330.21,27.5h1.28l.13-.13v-5.06c0-1.74-.88-2.88-2.74-2.88-1.16,0-2.06.45-2.37,1.18h-.14v-.93l-.13-.13h-1.28l-.13.13v7.68l.13.13h1.28l.13-.13v-4.54c.09-1.32.84-2.01,2.06-2.01.89,0,1.65.37,1.65,1.67v4.88l.13.13ZM315.75,23.73c0,2.24,1.27,3.94,3.81,3.94,1.93,0,3.26-1.01,3.55-2.66l-.13-.13h-1.28l-.13.13c-.23.8-.82,1.38-2,1.38-1.75,0-2.27-1.29-2.29-2.59h5.82l.13-.13c.08-3.02-1.58-4.26-3.64-4.26-2.5,0-3.85,1.86-3.85,4.19v.13ZM321.64,22.58h-4.26c.22-1.04.84-1.89,2.18-1.89s2.05.81,2.08,1.89M308.2,23.88v-.69c.11-1.9,1.36-2.41,2.37-2.41,1.5,0,2.3,1.12,2.3,2.62v.26c0,1.5-.81,2.63-2.3,2.63-1.01,0-2.26-.51-2.37-2.41M310.88,27.63c1.94,0,3.58-1.33,3.58-3.98v-.26c0-2.65-1.65-3.96-3.58-3.96-1.14,0-2.06.44-2.54,1.15h-.14v-.9l-.13-.13h-1.28l-.13.13v11.01l.13.13h1.28l.13-.13v-4.22h.14c.48.71,1.41,1.15,2.54,1.15M295.8,22.13v-.26c0-2.74,1.59-4.04,3.62-4.04s3.62,1.3,3.62,4.04v.26c0,2.74-1.59,4.04-3.62,4.04s-3.62-1.3-3.62-4.04M299.43,27.66c3.02,0,5.25-2.27,5.25-5.54v-.26c0-3.26-2.22-5.54-5.25-5.54s-5.25,2.27-5.25,5.54v.26c0,3.26,2.22,5.54,5.25,5.54"/>
      <path class="cls-5" d="M212.46,43.63c2.46.05,3.34-1.02,3.34-2.26v-.13c0-3.25-4.96-1.71-4.96-3.5v-.09c0-.62.62-.94,1.65-.93,1.03.02,1.59.37,1.68,1.12l.12.13h1.22l.14-.13c.03-1.39-.97-2.38-3.06-2.41-2.13-.04-3.28.94-3.28,2.36v.13c0,3.02,4.96,1.47,4.96,3.4v.09c0,.7-.73.91-1.67.9-1.24-.02-1.9-.39-1.94-1.29l-.13-.13h-1.34l-.13.13c.06,1.7,1.27,2.57,3.4,2.61M200.25,39.73c0,2.24,1.27,3.94,3.81,3.94,1.93,0,3.26-1.01,3.55-2.66l-.13-.13h-1.28l-.13.13c-.23.8-.82,1.38-2,1.38-1.75,0-2.27-1.29-2.29-2.59h5.82l.13-.13c.08-3.02-1.58-4.26-3.64-4.26-2.5,0-3.85,1.86-3.85,4.19v.13ZM206.14,38.58h-4.26c.22-1.04.84-1.89,2.18-1.89s2.05.81,2.08,1.89M197.25,43.5h1.28l.13-.13v-10.75l-.13-.13h-1.28l-.13.13v10.75l.13.13ZM190.42,46.83h1.26l.13-.13,4.05-10.88v-.13l-.13-.13h-1.32l-.13.13-2,5.49h-.14l-1.8-5.49-.13-.13h-1.47l-.13.13v.13l2.86,7.57-1.18,3.25v.06l.13.13ZM186.67,43.5h.89l.13-.13v-1.02l-.13-.13h-.89c-.61,0-.78-.3-.78-.85v-4.53h1.66l.13-.13v-1.02l-.13-.13h-1.66v-1.79l-.13-.13h-1.28l-.13.13v1.79h-1.23l-.13.13v1.02l.13.13h1.23v4.53c0,1.59.45,2.13,2.31,2.13M178.73,43.63c2.46.05,3.34-1.02,3.34-2.26v-.13c0-3.25-4.96-1.71-4.96-3.5v-.09c0-.62.62-.94,1.65-.93,1.03.02,1.59.37,1.68,1.12l.12.13h1.22l.14-.13c.03-1.39-.97-2.38-3.06-2.41-2.13-.04-3.28.94-3.28,2.36v.13c0,3.02,4.96,1.47,4.96,3.4v.09c0,.7-.73.91-1.67.9-1.24-.02-1.9-.39-1.94-1.29l-.13-.13h-1.34l-.13.13c.06,1.7,1.27,2.57,3.4,2.61M159.24,41.64l3.63-6.15c.25.63.38,1.43.38,2.38v.26c0,2.58-.98,4.06-2.58,4.06-.56,0-1.05-.19-1.44-.55M158.14,38.13v-.26c0-2.59.97-4.06,2.54-4.06.56,0,1.05.18,1.45.54l-3.62,6.14c-.24-.62-.37-1.42-.37-2.36M160.68,43.66c2.67,0,4.18-2.3,4.18-5.54v-.26c0-3.23-1.51-5.54-4.18-5.54s-4.14,2.3-4.14,5.54v.26c0,3.23,1.46,5.54,4.14,5.54M148.77,36.14v-.06c0-1.42.94-2.27,2.21-2.27,1.19,0,2.27.74,2.27,2.27v.06c0,1.46-.96,2.24-2.24,2.24-1.34,0-2.24-.82-2.24-2.24M151.05,32.34c-2.5,0-3.88,1.66-3.88,3.74v.06c0,2.3,1.55,3.84,3.78,3.71,1.32-.07,1.99-.67,2.3-1.2h.13v.29c0,1.5-.57,3.25-2.54,3.25-1.11,0-1.74-.54-1.98-1.44l-.13-.13h-1.34l-.13.13c.18,1.52,1.22,2.91,3.54,2.91,3.35,0,4.25-2.94,4.25-5.9v-.13c0-3.7-1.55-5.3-3.99-5.3"/>
      <path class="cls-5" d="M201.05,27.63c2.46.05,3.34-1.02,3.34-2.26v-.13c0-3.25-4.96-1.71-4.96-3.5v-.09c0-.62.62-.94,1.65-.93,1.03.02,1.59.37,1.68,1.12l.12.13h1.22l.14-.13c.03-1.39-.97-2.38-3.06-2.41-2.13-.04-3.28.94-3.28,2.36v.13c0,3.02,4.96,1.47,4.96,3.4v.09c0,.7-.73.91-1.67.9-1.24-.02-1.9-.39-1.94-1.29l-.13-.13h-1.34l-.13.13c.06,1.7,1.27,2.57,3.4,2.61M195.45,27.5h.89l.13-.13v-1.02l-.13-.13h-.89c-.61,0-.78-.3-.78-.85v-4.53h1.66l.13-.13v-1.02l-.13-.13h-1.66v-1.79l-.13-.13h-1.28l-.13.13v1.79h-1.23l-.13.13v1.02l.13.13h1.23v4.53c0,1.59.45,2.13,2.31,2.13M186.5,27.63c1.12,0,1.99-.45,2.29-1.18h.14v.93l.13.13h1.28l.13-.13v-7.68l-.13-.13h-1.28l-.13.13v4.55c-.08,1.31-.8,2-1.98,2-.85,0-1.57-.37-1.57-1.67v-4.88l-.13-.13h-1.28l-.13.13v5.06c0,1.74.86,2.88,2.66,2.88M179.06,27.66c1.78,0,3.14-.91,3.42-2.74l-.13-.13h-1.28l-.13.13c-.15.95-.86,1.38-1.89,1.38-1.67,0-2.24-1.17-2.24-2.65v-.26c0-1.48.57-2.65,2.24-2.65,1.02,0,1.74.43,1.89,1.38l.13.13h1.28l.13-.13c-.26-1.79-1.49-2.74-3.36-2.74-2.43,0-3.84,1.59-3.84,4v.26c0,2.42,1.44,4,3.78,4M158.37,20.14v-.06c0-1.42.94-2.27,2.21-2.27,1.19,0,2.27.74,2.27,2.27v.06c0,1.46-.96,2.24-2.24,2.24-1.34,0-2.24-.82-2.24-2.24M160.65,16.34c-2.5,0-3.88,1.66-3.88,3.74v.06c0,2.3,1.55,3.84,3.78,3.71,1.32-.07,1.99-.67,2.3-1.2h.13v.29c0,1.5-.57,3.25-2.54,3.25-1.11,0-1.74-.54-1.98-1.44l-.13-.13h-1.34l-.13.13c.18,1.52,1.22,2.91,3.54,2.91,3.35,0,4.25-2.94,4.25-5.9v-.13c0-3.7-1.55-5.3-3.99-5.3M149.64,25.64l3.63-6.15c.25.63.38,1.43.38,2.38v.26c0,2.58-.98,4.06-2.58,4.06-.56,0-1.05-.19-1.44-.55M148.54,22.13v-.26c0-2.59.97-4.06,2.54-4.06.56,0,1.05.18,1.45.54l-3.62,6.14c-.24-.62-.37-1.42-.37-2.36M151.08,27.66c2.67,0,4.18-2.3,4.18-5.54v-.26c0-3.23-1.51-5.54-4.18-5.54s-4.14,2.3-4.14,5.54v.26c0,3.23,1.46,5.54,4.14,5.54"/>
      <path class="cls-5" d="M586.64,30.73h15.36c0-9.35-7.05-16.73-16.98-16.73v15.07h-15.02c0,9.15,7.14,16.93,16.64,16.93v-15.27Z"/>
      <path class="cls-5" d="M308.91,630c125.67,0,220.12-74.04,236.12-193.7l-6.4-6.4h-64.83l-6.4,6.4c-10.8,70.04-66.43,118.86-156.88,118.86-102.45,0-181.29-64.83-181.29-202.11v-12.81c0-137.27,78.84-202.1,181.29-202.1,90.45,0,146.08,48.83,156.88,118.86l6.4,6.4h64.83l6.4-6.4c-15.21-121.66-110.06-193.7-234.92-193.7-156.88,0-262.14,113.66-262.14,276.94v12.81c0,163.29,105.65,276.94,260.94,276.94"/>
      <path class="cls-5" d="M268.41,718c-15.94-3.91-33.63-21.86-57.76-25.87-24.13-4.02-133.54,9.79-114.97-16.55,26.13-37.07,45.08-77.1,54.94-120.34,6.96-30.54,12.72-63.13-.32-94.55-1.03-2.47-1.49-5.93-3.38-7.17-25.88-17.05-33.59-45.89-42.23-72.06-4.26-12.9,5.35-30.52,9.16-45.88,1.22-4.92,5.19-9.31,5.8-14.21,1.53-12.24,2.47-24.63,2.55-36.97.31-46.5,21.09-84.58,52.89-115.49,16.18-15.72,38.34-27.03,59.74-35.3,58.97-22.78,118.18-18.92,176.91,3.75,26.87,10.37,46.08,28.69,62.33,51.4,18.63,26.03,26.9,55.72,32.2,86.71,2.47,14.42,8.12,28.48,9.12,42.92.9,13.1-2.31,26.54-4.18,39.76-1.78,12.58-5.98,25.09-5.88,37.6.18,21.71-2.58,42.21-9.1,63.21-13.69,44.14-24.6,89.14-36.43,133.85-4.27,16.14-8.53,32.06-28.51,40.69,28.8,34.22,83.38,61.69,131,63.72-5.39,11.05-16.87,12.85-28.87,15.06-17.48,2.37-29.52,10.73-43.93,16.92-19.31,8.29-30.52-27.21-59.44-1.51-41.7,25.15-29.89-14.2-85.1-21.54-24.1-.21-60.6,15.75-76.54,11.84M423.69,554.33c.27-1.84.53-3.69.8-5.53-8.12-1.03-16.24-2.06-24.36-3.09-.23,1.58-.46,3.15-.68,4.73,8.08,1.3,16.16,2.6,24.24,3.89M159.76,377.16c3.68-17.56-1.92-25.78-20.25-30.82,6.08,9.26,12.16,18.51,20.25,30.82M492.44,372.1c-11.86,2.86-24.07,4.77-35.44,8.97-5.66,2.09-3.48,14.39,2.25,16.38,7.88,2.73,31.2-10.93,33.2-25.35M435.62,525.74c1.74-.09,3.48-.19,5.22-.28,0-4.81,1.22-10.05-.28-14.33-2.33-6.65-27.35-12.83-33.3-9.04-8.69,5.53-11.16,15.91-4.82,20.24,10.54,7.21,23.58,2.7,26.42-9.49,2.35,4.47,4.56,8.68,6.77,12.9M246.99,567.2c27.26,52.24,79.18,47.61,121.33,63.12-40.61-18.7-84.63-30.48-121.33-63.12M364.62,559.99c5.76,10.4,10.92,18.34,14.73,26.89,7.51,16.82,24.49,22.72,38.62,11.84,3.96-3.05,7.56-9.66,7.15-14.26-.32-3.6-6.59-8.08-11.1-9.64-14.88-5.15-30.15-9.16-49.41-14.82M456.85,464.98c-7.52-28.61-14.11-54.8-21.64-80.72-.78-2.69-7.52-5.67-10.8-5.03-3.2.63-7.34,5.51-7.77,8.94-.59,4.63,1.64,9.78,3.22,14.51,6.35,19.02,21.4,35.58,15.03,58.43-.79,2.83,8.41,8.93,13.72,12.38.69.45,5.84-5.97,8.26-8.52M316.55,382.94c19.52,13.6,38.51,21.82,58.91,7.24-23.18,23.08-50.03,18.87-78.18,10.48,3.04,5.66,6.15,10.72,10.43,14.42,18.13,15.71,36.65,30.97,54.94,46.49,7.56,6.41,19.9,5.18,23.31-2.65,2.72-6.24,6.08-12.39,7.55-18.93,1.52-6.83,2.61-14.41,1.17-21.08-1.89-8.7-6.36-16.87-9.9-25.19-4.32-10.17-10.68-18.91-22.93-17.75-15.18,1.43-30.2,4.57-45.28,6.97M446.62,274.38c-3.33-14.45-6.12-27.26-9.23-39.98-7.67-31.32-28.55-46.29-60.09-43.29-35.4,3.37-53.63,17.49-55.52,50.5-1.61,28.03,2.64,56.44,5.01,84.62.87,10.34,7.66,16.93,18.39,16.87,24.15-.14,48.35-.31,72.41-2.07,4.72-.35,11.12-7.14,12.94-12.3,6.31-17.93,10.95-36.46,16.11-54.36"/>
      <path class="cls-3" d="M268.41,718c-15.94-3.91-33.63-21.86-57.76-25.87-24.13-4.02-133.54,9.79-114.97-16.55,26.13-37.07,45.08-77.1,54.94-120.34,6.96-30.54,12.72-63.13-.32-94.55-1.03-2.47-1.49-5.93-3.38-7.17-25.88-17.05-33.59-45.89-42.23-72.06-4.26-12.9,5.35-30.52,9.16-45.88,1.22-4.92,5.19-9.31,5.8-14.21,1.53-12.24,2.47-24.63,2.55-36.97.31-46.5,21.09-84.58,52.89-115.49,16.18-15.72,38.34-27.03,59.74-35.3,58.97-22.78,118.18-18.92,176.91,3.75,26.87,10.37,46.08,28.69,62.33,51.4,18.63,26.03,26.9,55.72,32.2,86.71,2.47,14.42,8.12,28.48,9.12,42.92.9,13.1-2.31,26.54-4.18,39.76-1.78,12.58-5.98,25.09-5.88,37.6.18,21.71-2.58,42.21-9.1,63.21-13.69,44.14-24.6,89.14-36.43,133.85-4.27,16.14-8.53,32.06-28.51,40.69,28.8,34.22,83.38,61.69,131,63.72-5.39,11.05-16.87,12.85-28.87,15.06-17.48,2.37-29.52,10.73-43.93,16.92-19.31,8.29-30.52-27.21-59.44-1.51-41.7,25.15-29.89-14.2-85.1-21.54-24.1-.21-60.6,15.75-76.54,11.84ZM423.69,554.33c.27-1.84.53-3.69.8-5.53-8.12-1.03-16.24-2.06-24.36-3.09-.23,1.58-.46,3.15-.68,4.73,8.08,1.3,16.16,2.6,24.24,3.89ZM159.76,377.16c3.68-17.56-1.92-25.78-20.25-30.82,6.08,9.26,12.16,18.51,20.25,30.82ZM492.44,372.1c-11.86,2.86-24.07,4.77-35.44,8.97-5.66,2.09-3.48,14.39,2.25,16.38,7.88,2.73,31.2-10.93,33.2-25.35ZM435.62,525.74c1.74-.09,3.48-.19,5.22-.28,0-4.81,1.22-10.05-.28-14.33-2.33-6.65-27.35-12.83-33.3-9.04-8.69,5.53-11.16,15.91-4.82,20.24,10.54,7.21,23.58,2.7,26.42-9.49,2.35,4.47,4.56,8.68,6.77,12.9ZM246.99,567.2c27.26,52.24,79.18,47.61,121.33,63.12-40.61-18.7-84.63-30.48-121.33-63.12ZM364.62,559.99c5.76,10.4,10.92,18.34,14.73,26.89,7.51,16.82,24.49,22.72,38.62,11.84,3.96-3.05,7.56-9.66,7.15-14.26-.32-3.6-6.59-8.08-11.1-9.64-14.88-5.15-30.15-9.16-49.41-14.82ZM456.85,464.98c-7.52-28.61-14.11-54.8-21.64-80.72-.78-2.69-7.52-5.67-10.8-5.03-3.2.63-7.34,5.51-7.77,8.94-.59,4.63,1.64,9.78,3.22,14.51,6.35,19.02,21.4,35.58,15.03,58.43-.79,2.83,8.41,8.93,13.72,12.38.69.45,5.84-5.97,8.26-8.52ZM316.55,382.94c19.52,13.6,38.51,21.82,58.91,7.24-23.18,23.08-50.03,18.87-78.18,10.48,3.04,5.66,6.15,10.72,10.43,14.42,18.13,15.71,36.65,30.97,54.94,46.49,7.56,6.41,19.9,5.18,23.31-2.65,2.72-6.24,6.08-12.39,7.55-18.93,1.52-6.83,2.61-14.41,1.17-21.08-1.89-8.7-6.36-16.87-9.9-25.19-4.32-10.17-10.68-18.91-22.93-17.75-15.18,1.43-30.2,4.57-45.28,6.97ZM446.62,274.38c-3.33-14.45-6.12-27.26-9.23-39.98-7.67-31.32-28.55-46.29-60.09-43.29-35.4,3.37-53.63,17.49-55.52,50.5-1.61,28.03,2.64,56.44,5.01,84.62.87,10.34,7.66,16.93,18.39,16.87,24.15-.14,48.35-.31,72.41-2.07,4.72-.35,11.12-7.14,12.94-12.3,6.31-17.93,10.95-36.46,16.11-54.36Z"/>
      <path class="cls-4" d="M446.62,274.38c-5.16,17.9-9.79,36.42-16.11,54.36-1.82,5.16-8.22,11.95-12.94,12.3-24.06,1.76-48.26,1.93-72.41,2.07-10.72.06-17.51-6.52-18.39-16.87-2.37-28.18-6.62-56.6-5.01-84.62,1.89-33.01,20.12-47.14,55.52-50.5,31.54-3,52.42,11.98,60.09,43.29,3.12,12.72,5.91,25.53,9.23,39.98"/>
      <path class="cls-3" d="M446.62,274.38c-5.16,17.9-9.79,36.42-16.11,54.36-1.82,5.16-8.22,11.95-12.94,12.3-24.06,1.76-48.26,1.93-72.41,2.07-10.72.06-17.51-6.52-18.39-16.87-2.37-28.18-6.62-56.6-5.01-84.62,1.89-33.01,20.12-47.14,55.52-50.5,31.54-3,52.42,11.98,60.09,43.29,3.12,12.72,5.91,25.53,9.23,39.98Z"/>
      <path class="cls-4" d="M316.55,382.94c15.09-2.4,30.1-5.53,45.28-6.97,12.25-1.16,18.61,7.59,22.93,17.75,3.54,8.32,8.01,16.48,9.9,25.19,1.45,6.66.36,14.25-1.17,21.08-1.46,6.55-4.83,12.7-7.54,18.94-3.41,7.83-15.75,9.06-23.31,2.65-18.29-15.52-36.81-30.79-54.94-46.49-4.28-3.71-7.39-8.76-10.43-14.42,28.16,8.39,55,12.61,78.18-10.48-20.4,14.58-39.39,6.36-58.91-7.24"/>
      <path class="cls-3" d="M316.55,382.94c15.09-2.4,30.1-5.53,45.28-6.97,12.25-1.16,18.61,7.59,22.93,17.75,3.54,8.32,8.01,16.48,9.9,25.19,1.45,6.66.36,14.25-1.17,21.08-1.46,6.55-4.83,12.7-7.54,18.94-3.41,7.83-15.75,9.06-23.31,2.65-18.29-15.52-36.81-30.79-54.94-46.49-4.28-3.71-7.39-8.76-10.43-14.42,28.16,8.39,55,12.61,78.18-10.48-20.4,14.58-39.39,6.36-58.91-7.24Z"/>
      <path class="cls-4" d="M456.85,464.98c-2.42,2.54-7.57,8.96-8.26,8.52-5.31-3.44-14.51-9.55-13.72-12.38,6.37-22.85-8.68-39.4-15.03-58.43-1.58-4.74-3.81-9.88-3.22-14.51.44-3.43,4.58-8.32,7.77-8.94,3.29-.64,10.02,2.34,10.8,5.03,7.53,25.91,14.12,52.1,21.64,80.72"/>
      <path class="cls-3" d="M456.85,464.98c-2.42,2.54-7.57,8.96-8.26,8.52-5.31-3.44-14.51-9.55-13.72-12.38,6.37-22.85-8.68-39.4-15.03-58.43-1.58-4.74-3.81-9.88-3.22-14.51.44-3.43,4.58-8.32,7.77-8.94,3.29-.64,10.02,2.34,10.8,5.03,7.53,25.91,14.12,52.1,21.64,80.72Z"/>
      <path class="cls-4" d="M364.62,559.99c19.26,5.66,34.53,9.67,49.41,14.82,4.5,1.56,10.78,6.04,11.1,9.64.41,4.6-3.2,11.22-7.15,14.26-14.14,10.88-31.11,4.98-38.62-11.84-3.82-8.55-8.97-16.49-14.73-26.89"/>
      <path class="cls-3" d="M364.62,559.99c19.26,5.66,34.53,9.67,49.41,14.82,4.5,1.56,10.78,6.04,11.1,9.64.41,4.6-3.2,11.22-7.15,14.26-14.14,10.88-31.11,4.98-38.62-11.84-3.82-8.55-8.97-16.49-14.73-26.89Z"/>
      <path class="cls-4" d="M246.99,567.2c36.7,32.64,80.73,44.42,121.33,63.12-42.16-15.51-94.08-10.88-121.33-63.12"/>
      <path class="cls-3" d="M246.99,567.2c36.7,32.64,80.73,44.42,121.33,63.12-42.16-15.51-94.08-10.88-121.33-63.12Z"/>
      <path class="cls-4" d="M435.62,525.74c-2.21-4.22-4.42-8.43-6.77-12.9-2.84,12.19-15.88,16.71-26.42,9.49-6.34-4.34-3.86-14.71,4.82-20.24,5.95-3.79,30.97,2.39,33.31,9.04,1.5,4.28.28,9.52.28,14.33-1.74.09-3.48.19-5.22.28"/>
      <path class="cls-3" d="M435.62,525.74c-2.21-4.22-4.42-8.43-6.77-12.9-2.84,12.19-15.88,16.71-26.42,9.49-6.34-4.34-3.86-14.71,4.82-20.24,5.95-3.79,30.97,2.39,33.31,9.04,1.5,4.28.28,9.52.28,14.33-1.74.09-3.48.19-5.22.28Z"/>
      <path class="cls-4" d="M492.44,372.1c-2,14.42-25.32,28.08-33.2,25.35-5.73-1.99-7.91-14.29-2.25-16.38,11.37-4.19,23.58-6.11,35.44-8.97"/>
      <path class="cls-3" d="M492.44,372.1c-2,14.42-25.32,28.08-33.2,25.35-5.73-1.99-7.91-14.29-2.25-16.38,11.37-4.19,23.58-6.11,35.44-8.97Z"/>
      <path class="cls-4" d="M159.76,377.16c-8.08-12.3-14.16-21.56-20.24-30.82,18.33,5.04,23.92,13.26,20.24,30.82"/>
      <path class="cls-3" d="M159.76,377.16c-8.08-12.3-14.16-21.56-20.24-30.82,18.33,5.04,23.92,13.26,20.24,30.82Z"/>
      <path class="cls-4" d="M423.69,554.33c-8.08-1.3-16.16-2.6-24.24-3.89.23-1.58.46-3.16.68-4.73,8.12,1.03,16.24,2.06,24.36,3.09-.27,1.84-.53,3.69-.8,5.53"/>
      <path class="cls-3" d="M423.69,554.33c-8.08-1.3-16.16-2.6-24.24-3.89.23-1.58.46-3.16.68-4.73,8.12,1.03,16.24,2.06,24.36,3.09-.27,1.84-.53,3.69-.8,5.53Z"/>
      <path class="cls-5" d="M555.25,848.2c31.75.29,45.86-13.82,45.86-39.54v-4.85c0-50.27-60.27-36.6-60.27-64.53v-3.09c0-11.91,5-16.32,14.55-16.17,9.55,0,14.41,4.41,14.99,22.05l2.06,2.21h23.96l2.35-2.21c0-28.08-11.76-43.95-43.22-44.1-33.81-.29-44.69,18.08-44.69,39.25v3.82c0,48.22,60.12,32.05,60.12,64.68v3.53c0,12.79-5.44,16.46-15.14,16.32-12.2-.15-17.49-5.88-17.79-24.4l-2.06-2.2h-25.43l-2.21,2.35c.59,31.75,16.17,46.6,46.89,46.89M399.58,779.26c0,49.1,18.38,69.09,51.6,69.09,28.22,0,45.57-15.14,48.8-48.95l-2.5-2.65h-26.02l-2.65,2.65c-1.47,19.55-6.17,26.61-17.49,26.61-15.43,0-20.14-12.35-20.14-45.57v-3.38h67.03l2.65-2.65c1.32-57.48-16.76-76.59-49.24-76.59-36.46,0-52.04,24.11-52.04,70.41v11.03ZM469.26,757.51h-37.93c.88-28.22,6.32-37.34,19.7-37.34,11.91,0,17.93,7.2,18.23,37.34M321.38,846h47.77l2.65-2.65,26.17-137.89v-2.65l-2.65-2.65h-27.64l-2.65,2.65-17.49,118.33h-4.56l-17.49-118.33-2.65-2.65h-27.64l-2.65,2.65v2.65l26.17,137.89,2.65,2.65ZM233.92,846h27.34l2.35-2.2v-87.02c1.18-14.99,8.67-26.02,23.96-26.02h5l2.21-2.35v-26.46l-2.21-2.21h-5c-11.32,0-19.55,5.73-22.2,16.17h-1.76v-13.52l-2.35-2.21h-27.34l-2.21,2.21v141.41l2.21,2.2ZM154.69,848.2c14.11,0,25.14-6.17,29.55-17.79h1.76v13.38l2.21,2.2h27.49l2.21-2.2v-141.41l-2.21-2.21h-27.49l-2.21,2.21v94.67c-1.03,14.99-6.91,24.11-18.08,24.11-8.97,0-14.55-5.44-14.55-23.23v-95.55l-2.2-2.21h-27.49l-2.2,2.21v100.99c0,31.75,12.2,44.83,33.22,44.83M66.79,848.35c29.84,0,45.72-16.02,47.63-51.74l-2.06-1.91h-27.19l-1.91,1.91c-1.03,20.29-6.62,26.31-16.76,26.31-14.26,0-19.11-11.47-19.11-35.87v-27.49c0-24.84,4.85-36.31,19.11-36.31,10.14,0,15.73,6.17,16.76,26.31l1.91,1.91h27.19l2.06-1.91c-1.76-35.57-16.9-51.74-47.19-51.74-36.46,0-51.3,23.96-51.3,61.59v27.78c0,37.49,14.99,61.15,50.86,61.15"/>
      <path class="cls-5" d="M533.96,43.5h1.28l.13-.13v-5.06c0-1.74-.88-2.88-2.74-2.88-1.16,0-2.06.45-2.37,1.18h-.14v-4l-.13-.13h-1.28l-.13.13v10.75l.13.13h1.28l.13-.13v-4.54c.09-1.32.84-2.01,2.06-2.01.89,0,1.65.37,1.65,1.67v4.88l.13.13ZM525.89,43.5h.89l.13-.13v-1.02l-.13-.13h-.89c-.61,0-.78-.3-.78-.85v-4.53h1.66l.13-.13v-1.02l-.13-.13h-1.66v-1.79l-.13-.13h-1.28l-.13.13v1.79h-1.23l-.13.13v1.02l.13.13h1.23v4.53c0,1.59.45,2.13,2.31,2.13M514.7,39.66v-.26c0-1.5.81-2.62,2.3-2.62,1.01,0,2.26.51,2.37,2.41v.69c-.11,1.9-1.36,2.41-2.37,2.41-1.5,0-2.3-1.14-2.3-2.63M516.68,43.63c1.14,0,2.06-.44,2.54-1.15h.14v.9l.13.13h1.28l.13-.13v-10.75l-.13-.13h-1.28l-.13.13v3.97h-.14c-.48-.71-1.41-1.15-2.54-1.15-1.94,0-3.58,1.31-3.58,3.96v.26c0,2.65,1.65,3.98,3.58,3.98M509.9,34.14l.13.13h1.41l.13-.13v-1.44l-.13-.13h-1.41l-.13.13v1.44ZM510.09,43.5h1.28l.13-.13v-7.68l-.13-.13h-1.28l-.13.13v7.68l.13.13ZM504.91,43.5h1.45l.13-.13,2.14-7.68-.13-.13h-1.3l-.13.13-1.38,5.74h-.19l-1.58-5.74-.13-.13h-1.6l-.13.13-1.58,5.74h-.19l-1.38-5.74-.13-.13h-1.3l-.13.13,2.11,7.68.13.13h1.46l.13-.13,1.7-6.06h.19l1.7,6.06.13.13ZM486.97,41.64l3.63-6.15c.25.63.38,1.43.38,2.38v.26c0,2.58-.98,4.06-2.58,4.06-.56,0-1.05-.19-1.44-.55M485.87,38.13v-.26c0-2.59.97-4.06,2.54-4.06.56,0,1.05.18,1.45.54l-3.62,6.14c-.24-.62-.37-1.42-.37-2.36M488.4,43.66c2.67,0,4.18-2.3,4.18-5.54v-.26c0-3.23-1.51-5.54-4.18-5.54s-4.14,2.3-4.14,5.54v.26c0,3.23,1.46,5.54,4.14,5.54M477.37,41.64l3.63-6.15c.25.63.38,1.43.38,2.38v.26c0,2.58-.98,4.06-2.58,4.06-.56,0-1.05-.19-1.44-.55M476.27,38.13v-.26c0-2.59.97-4.06,2.54-4.06.56,0,1.05.18,1.45.54l-3.62,6.14c-.24-.62-.37-1.42-.37-2.36M478.8,43.66c2.67,0,4.18-2.3,4.18-5.54v-.26c0-3.23-1.51-5.54-4.18-5.54s-4.14,2.3-4.14,5.54v.26c0,3.23,1.46,5.54,4.14,5.54M466.57,43.5h6.21l.13-.13v-1.22l-.13-.13h-2.18l-.13-.13v-9.28l-.13-.13h-1.34l-.13.13c-.02,1.1-.9,1.81-2.24,1.79l-.13.13v1.22l.13.13c1.14,0,1.66-.15,2.11-.57h.13v6.58l-.13.13h-2.18l-.13.13v1.22l.13.13ZM449.26,37.36v1.28l.13.13h8.58v.06l-2.37,2.37v.13l.13.13h1.65l2.83-2.88.06-.13v-.9l-.06-.13-2.83-2.88h-1.65l-.13.13v.13l2.37,2.37v.06h-8.58l-.13.13ZM440.26,43.7c2.58,0,3.93-1.74,3.93-4.02v-.13c0-2.5-1.54-3.66-3.44-3.66-1.18,0-1.86.45-2.34.9h-.14l.35-2.69.13-.13h4.8l.13-.13v-1.22l-.13-.13h-5.98l-.13.13-.7,5.7.13.13,1.11.24.18-.04c.29-.62.88-1.31,2.22-1.31s2.22.78,2.22,2.32v.13c0,1.34-.65,2.44-2.32,2.44-1.54,0-2.08-.95-2.16-1.68l-.13-.13h-1.29l-.12.13c.09,1.91,1.49,3.16,3.69,3.15M428.72,35.42v-.06c0-1.08.88-1.55,1.97-1.55s2,.5,2,1.55v.06c0,1.1-.64,1.65-1.98,1.63-1.34-.02-1.98-.58-1.98-1.63M428.46,40.42v-.13c0-1.14.71-1.94,2.24-1.93,1.48,0,2.24.77,2.24,1.93v.13c0,1.11-.9,1.77-2.24,1.77s-2.24-.66-2.24-1.77M430.7,43.66c2.61,0,3.84-1.39,3.84-3.04v-.13c0-1.34-.74-2.3-1.76-2.69v-.13c.88-.34,1.5-1.15,1.5-2.3v-.06c0-1.76-1.28-2.98-3.58-2.98s-3.58,1.22-3.58,2.98v.06c0,1.15.62,1.97,1.5,2.3v.13c-1.02.41-1.76,1.34-1.76,2.69v.13c0,1.68,1.3,3.03,3.84,3.04M413.73,32.5h-1.34l-.13.13v8.06l.13.13h8.58v.06l-2.37,2.37v.13l.13.13h1.6l2.94-3.01v-.9l-2.94-3.01h-1.6l-.13.13v.13l2.37,2.37v.06h-7.1v-6.66l-.13-.13Z"/>
      <path class="cls-5" d="M503.87,27.5h.89l.13-.13v-1.02l-.13-.13h-.89c-.61,0-.78-.3-.78-.85v-4.53h1.66l.13-.13v-1.02l-.13-.13h-1.66v-1.79l-.13-.13h-1.28l-.13.13v1.79h-1.23l-.13.13v1.02l.13.13h1.23v4.53c0,1.59.45,2.13,2.31,2.13M497.7,27.5h1.28l.13-.13v-5.06c0-1.74-.88-2.88-2.74-2.88-1.16,0-2.06.45-2.37,1.18h-.14v-4l-.13-.13h-1.28l-.13.13v10.75l.13.13h1.28l.13-.13v-4.54c.09-1.32.84-2.01,2.06-2.01.89,0,1.65.37,1.65,1.67v4.88l.13.13ZM484.2,23.58v-.26c0-1.48.81-2.58,2.3-2.58.99,0,2.22.49,2.37,2.29v.84c-.15,1.82-1.38,2.28-2.37,2.28-1.5,0-2.3-1.1-2.3-2.58M486.6,30.99c2.26,0,3.8-1,3.8-3.49v-7.81l-.13-.13h-1.28l-.13.13v.93h-.14c-.48-.78-1.31-1.22-2.49-1.22-2.07,0-3.64,1.39-3.64,3.92v.26c0,2.53,1.57,3.92,3.64,3.92,1.18,0,2.01-.44,2.49-1.22h.14v1.25c0,1.56-.79,2.18-2.21,2.18-1.23,0-2.07-.46-2.18-1.44l-.13-.13h-1.28l-.13.13c0,1.88,1.58,2.72,3.66,2.72M479.39,18.14l.13.13h1.41l.13-.13v-1.44l-.13-.13h-1.41l-.13.13v1.44ZM479.59,27.5h1.28l.13-.13v-7.68l-.13-.13h-1.28l-.13.13v7.68l.13.13ZM470.37,23.73c0,2.24,1.27,3.94,3.81,3.94,1.93,0,3.26-1.01,3.55-2.66l-.13-.13h-1.28l-.13.13c-.23.8-.82,1.38-2,1.38-1.75,0-2.27-1.29-2.29-2.59h5.82l.13-.13c.08-3.02-1.58-4.26-3.64-4.26-2.5,0-3.85,1.86-3.85,4.19v.13ZM476.26,22.58h-4.26c.22-1.04.84-1.89,2.18-1.89s2.05.81,2.08,1.89M465.74,27.5h1.45l.13-.13,2.14-7.68-.13-.13h-1.3l-.13.13-1.38,5.74h-.19l-1.58-5.74-.13-.13h-1.6l-.13.13-1.58,5.74h-.19l-1.38-5.74-.13-.13h-1.3l-.13.13,2.11,7.68.13.13h1.46l.13-.13,1.7-6.06h.19l1.7,6.06.13.13ZM448.44,25.64l3.63-6.15c.25.63.38,1.43.38,2.38v.26c0,2.58-.98,4.06-2.58,4.06-.56,0-1.05-.19-1.44-.55M447.34,22.13v-.26c0-2.59.97-4.06,2.54-4.06.56,0,1.05.18,1.45.54l-3.62,6.14c-.24-.62-.37-1.42-.37-2.36M449.88,27.66c2.67,0,4.18-2.3,4.18-5.54v-.26c0-3.23-1.51-5.54-4.18-5.54s-4.14,2.3-4.14,5.54v.26c0,3.23,1.46,5.54,4.14,5.54M438.84,25.64l3.63-6.15c.25.63.38,1.43.38,2.38v.26c0,2.58-.98,4.06-2.58,4.06-.56,0-1.05-.19-1.44-.55M437.74,22.13v-.26c0-2.59.97-4.06,2.54-4.06.56,0,1.05.18,1.45.54l-3.62,6.14c-.24-.62-.37-1.42-.37-2.36M440.28,27.66c2.67,0,4.18-2.3,4.18-5.54v-.26c0-3.23-1.51-5.54-4.18-5.54s-4.14,2.3-4.14,5.54v.26c0,3.23,1.46,5.54,4.14,5.54M428.7,23.3v-.13l3.14-3.98h.06v3.98l-.06.13h-3.14ZM432.03,27.5h1.34l.13-.13v-2.48l.13-.13h1.5l.13-.13v-1.22l-.13-.13h-1.5l-.13-.13v-6.54l-.13-.13h-1.22l-5.58,7.12v1.02l.13.13h5.14l.06.13v2.48l.13.13ZM413.73,16.5h-1.34l-.13.13v8.06l.13.13h8.58v.06l-2.37,2.37v.13l.13.13h1.6l2.94-3.01v-.9l-2.94-3.01h-1.6l-.13.13v.13l2.37,2.37v.06h-7.1v-6.66l-.13-.13Z"/>
    </g>
  </g>
  <g class="cls-8">
    <g class="cls-7">
      <path class="cls-5" d="M383.81,521.92v-19.23c0-112.39,60.7-196.53,173.09-196.53,75.73,0,169.48,38.46,177.9,180.9v51.69c-8.41,142.44-102.17,180.9-177.9,180.9-112.39,0-173.09-85.34-173.09-197.73M532.85,820.62c85.34,0,155.06-33.05,191.12-86.54h10.82v67.31l9.62,9.62h100.97l9.62-9.62V224.42l-9.62-9.62h-100.97l-9.62,9.62v67.31h-10.82c-36.06-53.49-105.78-86.54-191.12-86.54-145.44,0-269.25,98.56-269.25,297.49v19.23c0,198.93,123.81,298.7,269.25,298.7"/>
    </g>
  </g>
</svg>