<?xml version="1.0" encoding="UTF-8"?>
<svg id="Calque_1" data-name="Calque 1" xmlns="http://www.w3.org/2000/svg" xmlns:xlink="http://www.w3.org/1999/xlink" version="1.1" viewBox="0 0 616 423">
  <defs>
    <style>
      .cls-1 {
        clip-path: url(#clippath);
      }

      .cls-2 {
        fill: none;
      }

      .cls-2, .cls-3, .cls-4 {
        stroke-width: 0px;
      }

      .cls-5 {
        clip-path: url(#clippath-1);
      }

      .cls-4 {
        fill: #fff;
      }
    </style>
    <clipPath id="clippath">
      <rect class="cls-2" x="14" y="116.96" width="176.4" height="130.39"/>
    </clipPath>
    <clipPath id="clippath-1">
      <rect class="cls-2" x="445.61" y="263.19" width="156.39" height="112.17"/>
    </clipPath>
  </defs>
  <g>
    <path class="cls-4" d="M469.43,78.06c.17-8.4.84-9.58,2.86-9.58,2.52,0,3.02,1.34,3.02,9.58h-5.88ZM472.96,136.02c26.04,0,40.99-11.76,40.99-32.09h-37.63c0,5.88-.84,7.9-3.36,7.9-2.86,0-3.7-1.51-3.7-13.94h44.52c0-39.82-8.4-51.91-41.5-51.91-30.74,0-42.5,12.43-42.5,45.02s11.93,45.02,43.18,45.02M380.22,101.91v-21.84c.17-8.57.84-9.91,3.19-9.91,2.69,0,3.02,2.02,3.02,20.83s-.34,20.83-3.02,20.83c-2.35,0-3.02-1.34-3.19-9.91M340.91,167.6h39.31v-42.5c4.37,7.56,11.09,10.92,20.66,10.92,18.65,0,24.86-12.6,24.86-45.02s-6.22-45.02-24.86-45.02c-9.58,0-16.3,3.36-20.66,10.92v-8.9h-39.31v119.62ZM289,107.79c0-4.2,1.18-6.72,4.7-6.89h1.01v7.06c0,4.54-.67,5.88-2.35,5.88-2.35,0-3.36-1.68-3.36-6.05M274.89,136.02c9.74,0,18.48-3.36,21-9.91,0,2.52.17,5.21,1.18,7.9h38.3v-.67c-1.18-5.88-1.18-12.26-1.18-18.14v-39.98c0-17.81-14.11-29.23-41.33-29.23s-39.65,11.42-39.65,31.58h36.62c0-5.04.5-7.39,2.69-7.39s2.35,2.69,2.35,6.38v4.03l-3.19.17c-30.07.84-42,10.58-42,30.07,0,17.81,10.75,25.2,25.2,25.2M205.33,45.97c-30.41,0-42,12.43-42,45.02s11.59,45.02,42,45.02c28.56,0,42.17-11.26,42.17-35.28h-39.31c0,9.91-.34,11.09-2.86,11.09-2.35,0-2.69-2.02-2.69-20.83s.34-20.83,2.69-20.83c2.52,0,2.86,1.18,2.86,11.09h39.31c0-24.02-13.61-35.28-42.17-35.28M118.48,136.02c28.56,0,41.83-9.07,42-28.06.34-31.92-44.86-22.34-44.86-34.1,0-2.52.84-3.7,2.69-3.7s2.69,1.68,2.69,5.38l39.31-.17c0-19.99-13.61-29.4-42.17-29.4s-41.83,9.24-41.83,28.56c0,31.92,44.86,23.02,44.86,34.78,0,1.68-.84,2.52-2.69,2.52s-2.69-1.68-2.69-5.21h-39.48c0,19.99,13.61,29.4,42.17,29.4M13.98,134h58.3v-28.22h-15.62v-18.82h13.94v-28.22h-13.94v-14.11h15.62v-28.22H13.98v117.6Z"/>
    <path class="cls-4" d="M529.12,271.35h18.65v-24.02h-4.03c-3.53,0-5.21-2.52-5.21-6.38v-31.42h7.73v-24.19h-7.73v-20.66h-39.31v20.66h-7.06v24.19h7.06v37.3c0,17.81,8.23,24.53,29.9,24.53M438.4,271.35h39.31v-61.82h12.1v-24.19h-12.1v-1.85c0-3.7,2.69-5.54,5.71-5.54h6.38v-24.19h-12.6c-26.71,0-38.81,8.06-38.81,26.04v5.54h-7.22v24.19h7.22v61.82ZM386.15,160.13c0,11.42,9.41,20.66,20.66,20.66s20.66-9.24,20.66-20.66-9.24-20.33-20.66-20.33-20.66,9.41-20.66,20.33M387.16,271.35h39.31v-86.02h-39.31v86.02ZM296.44,271.35h39.31v-51.07c0-8.57,0-11.09,3.02-11.09,2.69,0,2.69,2.18,2.69,11.09v51.07h39.31v-52.58c0-29.74-10.58-35.45-25.2-35.45-8.9,0-15.46,2.18-19.82,7.06v-36.62h-39.31v117.6ZM247.56,273.36c30.41,0,44.35-11.59,44.35-36.29,0-47.04-46.7-30.74-46.7-51.74,0-4.37.34-5.38,2.02-5.38,1.85,0,2.02,1.01,2.02,10.42h40.32c0-27.05-11.59-38.64-41.16-38.64-34.1,0-45.86,15.29-45.86,36.79,0,39.48,46.7,29.74,46.7,48.89,0,6.55-.17,7.73-1.85,7.73-2.02,0-2.18-1.34-2.18-12.77h-42.67c0,32.26,18.48,40.99,45.02,40.99"/>
    <path class="cls-4" d="M160.75,38.15c2.04,0,3-1.25,3-2.47,0-1.34-.74-1.85-1.74-2.05.92-.3,1.56-.99,1.56-2.04,0-1.3-.91-2.49-2.8-2.49-1.73,0-2.72,1.26-2.72,2.56h1.4c0-.88.52-1.39,1.32-1.39.85,0,1.4.39,1.4,1.31,0,1.05-.81,1.45-1.35,1.45h-.56v1.17h.56c.58,0,1.53.27,1.53,1.46,0,.8-.51,1.3-1.6,1.3-1.01,0-1.55-.7-1.55-1.54h-1.4c.12,1.66,1.16,2.71,2.95,2.71M151.85,36.76l2.6-5.28c.24.54.38,1.26.38,2.14,0,2.17-.81,3.35-2.11,3.35-.33,0-.61-.07-.86-.21M150.6,33.63c0-2.18.81-3.35,2.11-3.35.32,0,.61.08.88.21l-2.6,5.29c-.25-.54-.39-1.26-.39-2.15M152.71,38.15c2.45,0,3.51-2.21,3.51-4.52s-1.06-4.52-3.51-4.52-3.51,2.21-3.51,4.52,1.06,4.52,3.51,4.52M138.65,38h1.27v-3.42c0-1.5.79-2.15,1.71-2.15.71,0,1.33.38,1.33,1.54v4.04h1.27v-4.16c0-1.8-.99-2.39-2.27-2.39-.81,0-1.56.24-2.04.89v-.74h-1.27v6.4ZM132.55,36.25c0-.9,1.21-1.24,2.83-1.24h.12v.23c-.01,1.15-.7,1.86-1.83,1.86-.85,0-1.12-.41-1.12-.85M133.57,38.15c1.1,0,1.6-.44,2.01-.92,0,.2.04.6.09.77h1.24v-.11c-.1-.4-.12-1.16-.12-1.39v-2.54c0-1.71-.95-2.51-2.6-2.51-1.5,0-2.5.66-2.62,2.05h1.27c.13-.63.5-1.09,1.4-1.09.98,0,1.29.54,1.28,1.46v.26h-.15c-2.71,0-4.09.77-4.09,2.16,0,1.21.95,1.85,2.3,1.85M128.43,38h1.27v-8.75h-1.27v8.75ZM121.81,34.8c0-1.48.73-2.38,1.85-2.38s1.79.9,1.79,2.38-.66,2.38-1.79,2.38-1.85-.9-1.85-2.38M120.54,40.5h1.26v-3.35c.41.66,1.08,1,2,1,1.8,0,2.99-1.31,2.99-3.35s-1.19-3.35-2.99-3.35c-.91,0-1.58.34-1.99,1v-.85h-1.27v8.9ZM113.28,38h1.27v-2.98h.58l2.42,2.98h1.54l-3.06-3.69,2.89-2.71h-1.62l-2.29,2.25h-.45v-4.6h-1.27v8.75ZM108.2,38h1.27v-3.4c0-1.34.61-1.84,1.57-1.84h.7v-1.16h-.6c-.79,0-1.34.37-1.68,1.11v-1.11h-1.27v6.4ZM101.34,34.8c0-1.49.72-2.38,1.95-2.38s1.95.89,1.95,2.38-.72,2.38-1.95,2.38-1.95-.89-1.95-2.38M103.29,38.15c1.94,0,3.29-1.37,3.29-3.35s-1.35-3.35-3.29-3.35-3.29,1.37-3.29,3.35,1.35,3.35,3.29,3.35M89.99,38h2.41l1.15-7.58h.2l1.15,7.58h2.41l1.98-8.75h-1.5l-1.53,7.56h-.2l-1.29-7.56h-2.25l-1.29,7.56h-.2l-1.53-7.56h-1.5l1.97,8.75Z"/>
    <path class="cls-4" d="M138.76,22.8c0-1.48.66-2.38,1.79-2.38s1.85.9,1.85,2.38-.73,2.38-1.85,2.38-1.79-.9-1.79-2.38M142.4,26h1.27v-8.75h-1.26v3.2c-.41-.66-1.07-1-2-1-1.8,0-2.99,1.31-2.99,3.35s1.19,3.35,2.99,3.35c.91,0,1.58-.34,1.99-1v.85ZM130.24,26h1.27v-3.42c0-1.5.79-2.15,1.71-2.15.71,0,1.33.38,1.33,1.54v4.04h1.27v-4.16c0-1.8-.99-2.39-2.27-2.39-.81,0-1.56.24-2.04.89v-.74h-1.27v6.4ZM124.14,24.25c0-.9,1.21-1.24,2.83-1.24h.12v.23c-.01,1.15-.7,1.86-1.83,1.86-.85,0-1.12-.41-1.12-.85M125.16,26.15c1.1,0,1.6-.44,2.01-.92,0,.2.04.6.09.77h1.24v-.11c-.1-.4-.12-1.16-.12-1.39v-2.54c0-1.71-.95-2.51-2.6-2.51-1.5,0-2.5.66-2.62,2.05h1.27c.13-.63.5-1.09,1.4-1.09.98,0,1.29.54,1.28,1.46v.26h-.15c-2.71,0-4.09.77-4.09,2.16,0,1.21.95,1.85,2.3,1.85M120.01,26h1.27v-8.75h-1.27v8.75ZM113.17,20.86v-2.44h2.39c.75,0,1.26.5,1.26,1.2s-.54,1.24-1.26,1.24h-2.39ZM113.17,24.83v-2.79h2.39c.84,0,1.46.48,1.46,1.4s-.66,1.39-1.38,1.39h-2.48ZM111.78,26h3.56c1.65,0,3.09-.67,3.09-2.56,0-1.12-.75-1.81-1.49-1.99.62-.19,1.29-.86,1.29-1.82,0-1.62-1.41-2.37-2.77-2.37h-3.67v8.75ZM100.84,26h1.4v-3.8h4.17v-1.17h-4.17v-2.6h4.8v-1.17h-6.2v8.75ZM88.46,26h1.4v-3.22l-.05-4.48h.2l2.48,7.7h2.15l2.5-7.7h.17l-.05,4.48v3.22h1.4v-8.75h-2.55l-2.55,8-2.53-8h-2.57v8.75Z"/>
    <path class="cls-4" d="M361.51,38.15c1.81,0,3.21-1.29,3.21-3.17s-1.21-3.04-2.82-3.04c-.88,0-1.44.24-1.91.85l.35-2.36h3.59v-1.17h-4.68l-.75,4.85h1.59c.33-.68.83-.99,1.55-.99,1.08,0,1.69.68,1.69,1.86,0,1.26-.66,2-1.81,2s-1.83-.6-1.83-1.64h-1.4c0,1.66,1.44,2.81,3.22,2.81M353.15,36.76l2.6-5.28c.24.54.38,1.26.38,2.14,0,2.17-.81,3.35-2.11,3.35-.32,0-.61-.07-.86-.21M351.9,33.63c0-2.18.81-3.35,2.11-3.35.33,0,.61.08.88.21l-2.6,5.29c-.25-.54-.39-1.26-.39-2.15M354.01,38.15c2.45,0,3.51-2.21,3.51-4.52s-1.06-4.52-3.51-4.52-3.51,2.21-3.51,4.52,1.06,4.52,3.51,4.52M347.02,38.15c1.29,0,2.59-.66,2.59-1.86,0-2.62-3.98-1.44-3.98-3,0-.44.28-.91,1.14-.91,1,0,1.35.48,1.5,1.07h1.27c-.19-1.34-1.42-1.99-2.77-1.99s-2.41.75-2.41,1.88c0,2.62,3.98,1.4,3.98,2.96,0,.6-.52.94-1.31.94-1.21,0-1.45-.68-1.56-1.2h-1.27c.19,1.39,1.31,2.12,2.84,2.12M339.66,38.15c1.64,0,3.11-.85,3.11-2.41,0-3.38-5-1.96-5-4.21,0-.85.66-1.25,1.55-1.25,1.05,0,1.76.4,1.88,1.79h1.37c-.16-1.75-1.11-2.96-3.25-2.96-1.64,0-2.95,1.05-2.95,2.41,0,3.38,5,2.1,5,4.23,0,.68-.54,1.24-1.71,1.24-1.48,0-1.94-.83-2.13-1.98h-1.37c.15,1.86,1.31,3.15,3.5,3.15M325.04,34.64h6.61l-2.27,2.21h1.38l2.77-2.78-2.77-2.78h-1.38l2.27,2.21h-6.61v1.13ZM316.7,30.03v1.17h1.9v5.63h-2.01v1.17h5.31v-1.17h-1.9v-7.58h-1.17c0,.69-.24.78-2.12.78M310.86,36.76l2.6-5.28c.24.54.38,1.26.38,2.14,0,2.17-.81,3.35-2.11,3.35-.33,0-.61-.07-.86-.21M309.61,33.63c0-2.18.81-3.35,2.11-3.35.32,0,.61.08.88.21l-2.6,5.29c-.25-.54-.39-1.26-.39-2.15M311.73,38.15c2.45,0,3.51-2.21,3.51-4.52s-1.06-4.52-3.51-4.52-3.51,2.21-3.51,4.52,1.06,4.52,3.51,4.52M304.74,38.15c1.29,0,2.59-.66,2.59-1.86,0-2.62-3.98-1.44-3.98-3,0-.44.27-.91,1.14-.91,1,0,1.35.48,1.5,1.07h1.27c-.19-1.34-1.42-1.99-2.77-1.99s-2.41.75-2.41,1.88c0,2.62,3.97,1.4,3.97,2.96,0,.6-.52.94-1.31.94-1.21,0-1.45-.68-1.56-1.2h-1.27c.19,1.39,1.31,2.12,2.84,2.12M297.38,38.15c1.64,0,3.11-.85,3.11-2.41,0-3.38-5-1.96-5-4.21,0-.85.66-1.25,1.55-1.25,1.05,0,1.76.4,1.88,1.79h1.37c-.16-1.75-1.11-2.96-3.25-2.96-1.64,0-2.95,1.05-2.95,2.41,0,3.38,5,2.1,5,4.23,0,.68-.54,1.24-1.71,1.24-1.48,0-1.94-.83-2.13-1.98h-1.37c.15,1.86,1.31,3.15,3.5,3.15"/>
    <path class="cls-4" d="M351.91,22.15c.17-1.15.84-1.78,1.9-1.78,1.24,0,1.75.89,1.74,1.78h-3.64ZM353.79,26.15c1.43,0,2.62-.71,2.9-2.14h-1.27c-.17.66-.67,1.21-1.62,1.21-1.08,0-1.83-.79-1.91-2.15h4.95c.15-2.02-.72-3.62-3.01-3.62-1.8,0-3.23,1.11-3.23,3.35,0,1.93,1.12,3.35,3.2,3.35M344.14,22.8c0-1.48.73-2.38,1.85-2.38s1.79.9,1.79,2.38-.66,2.38-1.79,2.38-1.85-.9-1.85-2.38M342.86,28.5h1.26v-3.35c.41.66,1.08,1,2,1,1.8,0,2.99-1.31,2.99-3.35s-1.19-3.35-2.99-3.35c-.91,0-1.57.34-1.99,1v-.85h-1.27v8.9ZM337.33,26h.67l-.89,2.5h1.26l3.01-8.9h-1.35l-1.64,5.33h-.25l-1.64-5.33h-1.35l2.16,6.4ZM333.14,26h.89v-.92h-.9c-.5,0-.65-.12-.65-.88v-3.68h1.55v-.92h-1.55v-1.54h-1.27v1.54h-1.15v.92h1.15v3.8c0,1.24.69,1.67,1.94,1.67M319.8,26h1.27v-3.43c0-1.5.79-2.15,1.71-2.15.71,0,1.33.38,1.33,1.54v4.04h1.27v-4.16c0-1.8-.99-2.39-2.27-2.39-.81,0-1.56.24-2.04.89v-.74h-1.27v6.4ZM313.26,22.15c.18-1.15.84-1.78,1.9-1.78,1.24,0,1.75.89,1.74,1.78h-3.64ZM315.14,26.15c1.43,0,2.62-.71,2.9-2.14h-1.27c-.17.66-.67,1.21-1.63,1.21-1.07,0-1.83-.79-1.91-2.15h4.95c.15-2.02-.72-3.62-3.01-3.62-1.8,0-3.22,1.11-3.22,3.35,0,1.93,1.12,3.35,3.2,3.35M305.49,22.8c0-1.48.73-2.38,1.85-2.38s1.79.9,1.79,2.38-.66,2.38-1.79,2.38-1.85-.9-1.85-2.38M304.21,28.5h1.26v-3.35c.41.66,1.08,1,2,1,1.8,0,2.99-1.31,2.99-3.35s-1.19-3.35-2.99-3.35c-.91,0-1.58.34-1.99,1v-.85h-1.27v8.9ZM295.32,21.63c0-2.4,1.48-3.35,2.93-3.35s2.93.95,2.93,3.35-1.48,3.35-2.93,3.35-2.93-.95-2.93-3.35M298.25,26.15c2.61,0,4.32-2.04,4.32-4.52s-1.71-4.52-4.32-4.52-4.32,2.04-4.32,4.52,1.71,4.52,4.32,4.52"/>
    <path class="cls-4" d="M262.33,38.15c1.29,0,2.59-.66,2.59-1.86,0-2.62-3.98-1.44-3.98-3,0-.44.27-.91,1.14-.91,1,0,1.35.48,1.5,1.07h1.27c-.19-1.34-1.42-1.99-2.77-1.99s-2.41.75-2.41,1.88c0,2.62,3.98,1.4,3.98,2.96,0,.6-.52.94-1.31.94-1.21,0-1.45-.68-1.56-1.2h-1.27c.19,1.39,1.31,2.12,2.84,2.12M253.31,34.15c.17-1.15.84-1.78,1.9-1.78,1.24,0,1.75.89,1.74,1.78h-3.64ZM255.18,38.15c1.43,0,2.62-.71,2.9-2.14h-1.27c-.18.66-.68,1.21-1.63,1.21-1.08,0-1.83-.79-1.91-2.15h4.95c.15-2.02-.72-3.62-3.01-3.62-1.8,0-3.22,1.11-3.22,3.35,0,1.93,1.12,3.35,3.2,3.35M249.07,38h1.27v-8.75h-1.27v8.75ZM243.53,38h.68l-.89,2.5h1.26l3.01-8.9h-1.35l-1.64,5.33h-.25l-1.64-5.33h-1.35l2.16,6.4ZM239.34,38h.89v-.92h-.9c-.5,0-.65-.12-.65-.88v-3.68h1.55v-.92h-1.55v-1.54h-1.27v1.54h-1.15v.92h1.15v3.8c0,1.24.69,1.67,1.94,1.67M232.64,38.15c1.29,0,2.59-.66,2.59-1.86,0-2.62-3.97-1.44-3.97-3,0-.44.27-.91,1.14-.91,1,0,1.35.48,1.5,1.07h1.27c-.19-1.34-1.42-1.99-2.77-1.99s-2.41.75-2.41,1.88c0,2.62,3.97,1.4,3.97,2.96,0,.6-.53.94-1.31.94-1.21,0-1.45-.68-1.56-1.2h-1.27c.19,1.39,1.31,2.12,2.84,2.12M215.49,36.76l2.6-5.28c.24.54.38,1.26.38,2.14,0,2.18-.81,3.35-2.11,3.35-.32,0-.61-.08-.86-.21M214.24,33.62c0-2.17.81-3.35,2.11-3.35.32,0,.61.08.88.21l-2.6,5.29c-.25-.54-.39-1.26-.39-2.15M216.35,38.15c2.45,0,3.51-2.21,3.51-4.52s-1.06-4.52-3.51-4.52-3.51,2.21-3.51,4.52,1.06,4.52,3.51,4.52M207.11,32.09c0-1,.59-1.81,1.66-1.81s1.66.73,1.66,1.81c0,.85-.65,1.6-1.66,1.6s-1.66-.75-1.66-1.6M208.77,29.1c-1.73,0-3.06,1.2-3.06,2.99s1.19,2.77,2.79,2.77c1.09,0,1.7-.4,2-.8-.02,1.51-.56,2.91-1.85,2.91-.7,0-1.25-.35-1.38-1.18h-1.4c.25,1.57,1.24,2.35,2.77,2.35,2.68,0,3.31-2.7,3.31-5.05,0-2.04-.75-4-3.19-4"/>
    <path class="cls-4" d="M252.47,26.15c1.29,0,2.59-.66,2.59-1.86,0-2.62-3.97-1.44-3.97-3,0-.44.27-.91,1.14-.91,1,0,1.35.48,1.5,1.07h1.27c-.19-1.34-1.42-1.99-2.77-1.99s-2.41.75-2.41,1.88c0,2.62,3.97,1.4,3.97,2.96,0,.6-.53.94-1.31.94-1.21,0-1.45-.68-1.56-1.2h-1.27c.19,1.39,1.31,2.12,2.84,2.12M247.61,26h.89v-.92h-.9c-.5,0-.65-.12-.65-.88v-3.68h1.55v-.92h-1.55v-1.54h-1.27v1.54h-1.15v.92h1.15v3.8c0,1.24.69,1.67,1.94,1.67M240.41,26.15c1.5,0,2.71-.64,2.71-2.72v-3.83h-1.27v3.83c0,1.42-.67,1.8-1.44,1.8s-1.44-.38-1.44-1.8v-3.83h-1.27v3.83c0,2.09,1.21,2.72,2.71,2.72M233.21,19.45c-2.03,0-3.35,1.42-3.35,3.35s1.32,3.35,3.35,3.35c1.65,0,2.81-.92,3-2.44h-1.28c-.12.94-.76,1.51-1.72,1.51-1.35,0-2.07-1.03-2.07-2.43s.72-2.43,2.07-2.43c.96,0,1.6.57,1.72,1.51h1.28c-.19-1.51-1.35-2.44-3-2.44M214.61,20.09c0-1,.59-1.81,1.66-1.81s1.66.73,1.66,1.81c0,.85-.65,1.6-1.66,1.6s-1.66-.75-1.66-1.6M216.28,17.1c-1.73,0-3.06,1.2-3.06,2.99s1.19,2.77,2.79,2.77c1.09,0,1.7-.4,2-.8-.02,1.51-.56,2.91-1.85,2.91-.7,0-1.25-.35-1.38-1.18h-1.4c.25,1.58,1.24,2.35,2.78,2.35,2.68,0,3.31-2.7,3.31-5.05,0-2.04-.75-4-3.19-4M207.99,24.76l2.6-5.28c.24.54.38,1.26.38,2.14,0,2.17-.81,3.35-2.11,3.35-.32,0-.61-.07-.86-.21M206.74,21.63c0-2.18.81-3.35,2.11-3.35.32,0,.61.08.88.21l-2.6,5.29c-.25-.54-.39-1.26-.39-2.15M208.85,26.15c2.45,0,3.51-2.21,3.51-4.52s-1.06-4.52-3.51-4.52-3.51,2.21-3.51,4.52,1.06,4.52,3.51,4.52"/>
  </g>
  <path class="cls-4" d="M602,142h-80.78V14h80.78v128ZM524.22,139h74.78V17h-74.78v122Z"/>
  <g>
    <path class="cls-4" d="M155.51,399.62c0-1.5.42-2.4,1.68-2.46h.42v2.52c0,1.62-.3,2.1-.9,2.1-.84,0-1.2-.6-1.2-2.16M156.29,409.7c10.44,0,15.36-3.18,15.36-10.02v-11.7c0-6.36-5.04-10.44-14.76-10.44s-14.16,4.08-14.16,11.28h13.08c0-1.8.18-2.64.96-2.64.84,0,.84.96.84,2.28v1.44l-1.14.06c-10.74.3-15,4.02-15,10.26s4.62,9.48,14.82,9.48M123.05,393.62c0-6.72.12-7.44,1.08-7.44.84,0,1.08.48,1.14,3.54v7.8c-.06,3.06-.3,3.54-1.14,3.54-.96,0-1.08-.72-1.08-7.44M125.27,408.98h14.04v-30.72h-14.04v3.18c-1.56-2.7-3.96-3.9-7.38-3.9-6.66,0-8.88,4.5-8.88,16.08s2.22,16.08,8.88,16.08c3.42,0,5.82-1.2,7.38-3.9v3.18ZM90.47,399.62c0-1.5.42-2.4,1.68-2.46h.36v2.52c0,1.62-.24,2.1-.84,2.1-.84,0-1.2-.6-1.2-2.16M85.43,409.7c3.48,0,6.6-1.2,7.5-3.54,0,.9.06,1.86.42,2.82h13.68v-.24c-.42-2.1-.42-4.38-.42-6.48v-14.28c0-6.36-5.04-10.44-14.76-10.44s-14.16,4.08-14.16,11.28h13.08c0-1.8.18-2.64.96-2.64s.84.96.84,2.28v1.44l-1.14.06c-10.74.3-15,3.78-15,10.74,0,6.36,3.84,9,9,9"/>
    <path class="cls-4" d="M525.02,409.72c10.26,0,15-3.3,15-10.14,0-11.28-16.02-7.86-16.02-12.06,0-.9.3-1.32.96-1.32.48,0,.84.3.84.9,0,.3-.06.6-.24,1.02l14.04-.06c.06-.6.12-1.14.12-1.68,0-6-5.46-8.82-14.82-8.82-10.14,0-14.94,3.3-14.94,10.2,0,11.4,16.02,8.22,16.02,12.42,0,.6-.3.9-.96.9-.48,0-.72-.3-.72-.84,0-.3.06-.72.18-1.14h-14.1c-.12.72-.18,1.26-.18,1.92,0,5.94,5.64,8.7,14.82,8.7M493.04,409.72c10.2,0,14.94-3.24,15-10.02.12-11.4-16.02-7.98-16.02-12.18,0-.9.3-1.32.96-1.32s.96.6.96,1.92l14.04-.06c0-7.14-4.86-10.5-15.06-10.5s-14.94,3.3-14.94,10.2c0,11.4,16.02,8.22,16.02,12.42,0,.6-.3.9-.96.9s-.96-.6-.96-1.86h-14.1c0,7.14,4.86,10.5,15.06,10.5M460.28,389.02c.06-3,.3-3.42,1.02-3.42.9,0,1.08.48,1.08,3.42h-2.1ZM461.54,409.72c8.52,0,14.34-3.54,14.34-9.66,0-.6-.06-1.2-.18-1.8h-13.38c.18.66.24,1.14.24,1.56,0,.9-.42,1.26-1.02,1.26-1.02,0-1.26-.54-1.32-4.98h15.9c0-14.22-3-18.54-14.82-18.54-10.98,0-15.18,4.44-15.18,16.08s4.26,16.08,15.42,16.08M428.3,389.02c.06-3,.3-3.42,1.02-3.42.9,0,1.08.48,1.08,3.42h-2.1ZM429.56,409.72c9.3,0,14.64-4.2,14.64-11.46h-13.44c0,2.1-.3,2.82-1.2,2.82-1.02,0-1.32-.54-1.32-4.98h15.9c0-14.22-3-18.54-14.82-18.54-10.98,0-15.18,4.44-15.18,16.08s4.26,16.08,15.42,16.08"/>
  </g>
  <rect class="cls-4" x="560.11" y="15.11" width="3" height="125.78" transform="translate(44.97 311.6) rotate(-32.24)"/>
  <rect class="cls-4" x="498.72" y="76.5" width="125.78" height="3" transform="translate(196.11 511.47) rotate(-57.77)"/>
  <g>
    <path class="cls-4" d="M452.94,38h1.27v-3.43c0-1.5.79-2.15,1.71-2.15.71,0,1.33.38,1.33,1.54v4.04h1.27v-4.16c0-1.8-.99-2.39-2.27-2.39-.81,0-1.56.24-2.04.89v-3.09h-1.27v8.75ZM450.34,38h.89v-.92h-.9c-.5,0-.65-.12-.65-.88v-3.68h1.55v-.92h-1.55v-1.54h-1.27v1.54h-1.15v.92h1.15v3.8c0,1.24.69,1.67,1.94,1.67M440.71,34.8c0-1.48.66-2.38,1.79-2.38s1.85.9,1.85,2.38-.72,2.38-1.85,2.38-1.79-.9-1.79-2.38M444.35,38h1.27v-8.75h-1.26v3.2c-.41-.66-1.08-1-2-1-1.8,0-2.99,1.31-2.99,3.35s1.19,3.35,2.99,3.35c.91,0,1.58-.34,1.99-1v.85ZM436.15,30.1c0,.45.38.82.82.82s.82-.38.82-.82-.38-.81-.82-.81-.82.38-.82.81M436.34,38h1.27v-6.4h-1.27v6.4ZM427.46,38h1.99l.84-5.36h.15l.84,5.36h1.99l1.45-6.4h-1.49l-.81,5.35h-.17l-.83-5.35h-2.1l-.82,5.35h-.17l-.81-5.35h-1.49l1.45,6.4ZM418.22,38.15c1.81,0,3.21-1.29,3.21-3.17s-1.21-3.04-2.82-3.04c-.88,0-1.44.24-1.91.85l.35-2.36h3.59v-1.17h-4.68l-.75,4.85h1.59c.33-.68.83-.99,1.55-.99,1.08,0,1.69.68,1.69,1.86,0,1.26-.66,2-1.81,2s-1.83-.6-1.83-1.64h-1.4c0,1.66,1.44,2.81,3.22,2.81M409.09,38h1.4c0-3.69.71-5.23,3.09-7.58v-1.17h-5.95v1.17h4.56c-2.17,1.96-3.1,4.2-3.1,7.58M396.7,36.4h4.57l-1.15,1.15h1.15l1.58-1.57-1.58-1.57h-1.15l1.15,1.15h-3.6v-4.7h-.97v5.55Z"/>
    <path class="cls-4" d="M472.94,26h.89v-.92h-.9c-.5,0-.65-.12-.65-.88v-3.68h1.55v-.92h-1.55v-1.54h-1.27v1.54h-1.15v.92h1.15v3.8c0,1.24.69,1.67,1.94,1.67M462.87,26h1.27v-3.43c0-1.5.79-2.15,1.71-2.15.71,0,1.33.38,1.33,1.54v4.04h1.27v-4.16c0-1.8-.99-2.39-2.27-2.39-.81,0-1.56.24-2.04.89v-3.09h-1.27v8.75ZM455.91,22.8c0-1.48.66-2.38,1.79-2.38s1.85.9,1.85,2.38-.73,2.38-1.85,2.38-1.79-.9-1.79-2.38M457.66,28.65c1.79,0,3.16-.77,3.16-3.02v-6.02h-1.27v.83c-.41-.65-1.08-.98-1.99-.98-1.8,0-2.99,1.31-2.99,3.35s1.19,3.35,2.99,3.35c.91,0,1.58-.34,1.99-.99v.46c0,1.65-.64,2.1-1.78,2.1s-1.55-.43-1.74-1.2h-1.27c.21,1.28,1.22,2.12,2.9,2.12M451.35,18.1c0,.45.38.82.82.82s.83-.38.83-.82-.38-.81-.83-.81-.82.38-.82.81M451.54,26h1.27v-6.4h-1.27v6.4ZM444.87,22.15c.17-1.15.84-1.78,1.9-1.78,1.24,0,1.75.89,1.74,1.78h-3.64ZM446.75,26.15c1.42,0,2.62-.71,2.9-2.14h-1.27c-.18.66-.68,1.21-1.62,1.21-1.08,0-1.83-.79-1.91-2.15h4.95c.15-2.02-.72-3.62-3.01-3.62-1.8,0-3.23,1.11-3.23,3.35,0,1.93,1.12,3.35,3.2,3.35M435.09,26h1.99l.84-5.36h.15l.84,5.36h1.99l1.45-6.4h-1.49l-.81,5.35h-.17l-.83-5.35h-2.1l-.82,5.35h-.18l-.81-5.35h-1.49l1.45,6.4ZM424.99,24.76l2.6-5.28c.24.54.38,1.26.38,2.14,0,2.17-.81,3.35-2.11,3.35-.32,0-.61-.07-.86-.21M423.74,21.63c0-2.18.81-3.35,2.11-3.35.33,0,.61.08.88.21l-2.6,5.29c-.25-.54-.39-1.26-.39-2.15M425.85,26.15c2.45,0,3.51-2.21,3.51-4.52s-1.06-4.52-3.51-4.52-3.51,2.21-3.51,4.52,1.06,4.52,3.51,4.52M417.36,24.76l2.6-5.28c.24.54.38,1.26.38,2.14,0,2.17-.81,3.35-2.11,3.35-.32,0-.61-.07-.86-.21M416.11,21.63c0-2.18.81-3.35,2.11-3.35.33,0,.61.08.88.21l-2.6,5.29c-.25-.54-.39-1.26-.39-2.15M418.22,26.15c2.45,0,3.51-2.21,3.51-4.52s-1.06-4.52-3.51-4.52-3.51,2.21-3.51,4.52,1.06,4.52,3.51,4.52M408.86,20.09c0-1,.59-1.81,1.66-1.81s1.66.73,1.66,1.81c0,.85-.65,1.6-1.66,1.6s-1.66-.75-1.66-1.6M410.52,17.1c-1.73,0-3.06,1.2-3.06,2.99s1.19,2.77,2.79,2.77c1.09,0,1.7-.4,2-.8-.02,1.51-.56,2.91-1.85,2.91-.7,0-1.25-.35-1.38-1.18h-1.4c.25,1.58,1.24,2.35,2.77,2.35,2.67,0,3.31-2.7,3.31-5.05,0-2.04-.75-4-3.19-4M396.7,24.4h4.57l-1.15,1.15h1.15l1.58-1.57-1.58-1.57h-1.15l1.15,1.15h-3.6v-4.7h-.97v5.55Z"/>
  </g>
  <polygon class="cls-4" points="28.7 392.28 43.4 408.98 14 408.98 28.7 392.28"/>
  <polygon class="cls-4" points="219.8 392.28 234.5 408.98 205.1 408.98 219.8 392.28"/>
  <polygon class="cls-4" points="366.8 392.3 381.5 409 352.1 409 366.8 392.3"/>
  <polygon class="cls-4" points="587.3 392.3 602 409 572.6 409 587.3 392.3"/>
  <path class="cls-4" d="M391.34,319.41c.17-8.4.84-9.58,2.86-9.58,2.52,0,3.02,1.34,3.02,9.58h-5.88ZM394.87,377.37c26.04,0,40.99-11.76,40.99-32.09h-37.63c0,5.88-.84,7.9-3.36,7.9-2.86,0-3.7-1.51-3.7-13.94h44.52c0-39.82-8.4-51.91-41.5-51.91-30.74,0-42.5,12.43-42.5,45.02s11.93,45.02,43.18,45.02M302.13,343.27v-21.84c.17-8.57.84-9.91,3.19-9.91,2.69,0,3.02,2.02,3.02,20.83s-.34,20.83-3.02,20.83c-2.35,0-3.02-1.34-3.19-9.91M262.82,408.96h39.31v-42.5c4.37,7.56,11.09,10.92,20.66,10.92,18.65,0,24.86-12.6,24.86-45.02s-6.22-45.02-24.86-45.02c-9.58,0-16.3,3.36-20.66,10.92v-8.9h-39.31v119.62ZM213.09,331.51c0-17.98.34-19.99,2.69-19.99s2.69,2.02,2.69,19.99c0,19.49-.34,21.67-2.69,21.67s-2.69-2.18-2.69-21.67M215.78,377.37c30.41,0,42-12.77,42-45.86s-11.59-44.18-42-44.18-42,12.26-42,44.18,11.59,45.86,42,45.86M110.95,375.36h39.31v-40.66c0-13.44.67-16.97,15.29-16.97h5.71v-30.07h-5.21c-7.56,0-12.77,3.02-15.79,9.74v-8.06h-39.31v86.02ZM56.69,347.13v-61.15h2.52c3.53,0,3.86,3.02,3.86,30.58s-.34,30.58-3.86,30.58h-2.52ZM14.02,375.36h54.26c28.73,0,37.46-13.61,37.46-58.8s-8.74-58.8-37.46-58.8H14.02v117.6Z"/>
  <g class="cls-1">
    <path class="cls-4" d="M127.69,178.66c0-1.39-1.12-2.51-2.51-2.51s-2.51,1.12-2.51,2.51,1.12,2.51,2.51,2.51,2.51-1.12,2.51-2.51"/>
    <path class="cls-4" d="M129.23,193.71c0-2.24-1.81-4.05-4.05-4.05s-4.05,1.81-4.05,4.05,1.81,4.05,4.05,4.05,4.05-1.81,4.05-4.05"/>
    <path class="cls-4" d="M130.08,208.76c0-2.7-2.19-4.9-4.9-4.9s-4.9,2.19-4.9,4.9,2.19,4.9,4.9,4.9,4.9-2.19,4.9-4.9"/>
    <path class="cls-4" d="M131.7,223.82c0-3.6-2.92-6.52-6.52-6.52s-6.52,2.92-6.52,6.52,2.92,6.52,6.52,6.52,6.52-2.92,6.52-6.52"/>
    <path class="cls-4" d="M133.06,238.87c0-4.35-3.53-7.88-7.89-7.88s-7.89,3.53-7.89,7.88,3.53,7.88,7.89,7.88,7.89-3.53,7.89-7.88"/>
    <path class="cls-4" d="M126.83,163.61c0-.91-.74-1.65-1.65-1.65s-1.65.74-1.65,1.65.74,1.65,1.65,1.65,1.65-.74,1.65-1.65"/>
    <path class="cls-4" d="M126.15,148.56c0-.54-.44-.97-.97-.97s-.97.43-.97.97.44.97.97.97.97-.43.97-.97"/>
    <path class="cls-4" d="M136.98,186.17c0-1.99-1.61-3.6-3.6-3.6s-3.61,1.61-3.61,3.6,1.61,3.6,3.61,3.6,3.6-1.61,3.6-3.6"/>
    <path class="cls-4" d="M138.17,201.24c0-2.65-2.15-4.8-4.8-4.8s-4.8,2.15-4.8,4.8,2.15,4.8,4.8,4.8,4.8-2.15,4.8-4.8"/>
    <path class="cls-4" d="M139.18,216.29c0-3.21-2.6-5.81-5.81-5.81s-5.81,2.6-5.81,5.81,2.6,5.81,5.81,5.81,5.81-2.6,5.81-5.81"/>
    <path class="cls-4" d="M140.4,231.34c0-3.88-3.15-7.03-7.03-7.03s-7.03,3.15-7.03,7.03,3.15,7.03,7.03,7.03,7.03-3.15,7.03-7.03"/>
    <path class="cls-4" d="M141.87,245.89c0-4.7-3.81-8.5-8.5-8.5s-8.5,3.81-8.5,8.5,3.81,8.5,8.5,8.5,8.5-3.81,8.5-8.5"/>
    <path class="cls-4" d="M120.95,186.17c0-2.19-1.78-3.97-3.97-3.97s-3.97,1.78-3.97,3.97,1.78,3.97,3.97,3.97,3.97-1.78,3.97-3.97"/>
    <path class="cls-4" d="M121.79,201.24c0-2.65-2.15-4.8-4.8-4.8s-4.8,2.15-4.8,4.8,2.15,4.8,4.8,4.8,4.8-2.15,4.8-4.8"/>
    <path class="cls-4" d="M122.79,216.29c0-3.21-2.6-5.81-5.81-5.81s-5.81,2.6-5.81,5.81,2.6,5.81,5.81,5.81,5.81-2.6,5.81-5.81"/>
    <path class="cls-4" d="M124.01,231.34c0-3.88-3.15-7.03-7.03-7.03s-7.03,3.15-7.03,7.03,3.15,7.03,7.03,7.03,7.03-3.15,7.03-7.03"/>
    <path class="cls-4" d="M125.49,245.89c0-4.7-3.81-8.5-8.5-8.5s-8.5,3.81-8.5,8.5,3.81,8.5,8.5,8.5,8.5-3.81,8.5-8.5"/>
    <path class="cls-4" d="M153.36,186.17c0-1.99-1.61-3.6-3.6-3.6s-3.61,1.61-3.61,3.6,1.61,3.6,3.61,3.6,3.6-1.61,3.6-3.6"/>
    <path class="cls-4" d="M154.55,201.24c0-2.65-2.15-4.8-4.8-4.8s-4.8,2.15-4.8,4.8,2.15,4.8,4.8,4.8,4.8-2.15,4.8-4.8"/>
    <path class="cls-4" d="M155.56,216.29c0-3.21-2.6-5.81-5.81-5.81s-5.81,2.6-5.81,5.81,2.6,5.81,5.81,5.81,5.81-2.6,5.81-5.81"/>
    <path class="cls-4" d="M156.78,231.34c0-3.88-3.15-7.03-7.03-7.03s-7.03,3.15-7.03,7.03,3.15,7.03,7.03,7.03,7.03-3.15,7.03-7.03"/>
    <path class="cls-4" d="M158.25,245.89c0-4.7-3.81-8.5-8.5-8.5s-8.5,3.81-8.5,8.5,3.81,8.5,8.5,8.5,8.5-3.81,8.5-8.5"/>
    <path class="cls-4" d="M169.74,186.17c0-1.99-1.61-3.6-3.6-3.6s-3.61,1.61-3.61,3.6,1.61,3.6,3.61,3.6,3.6-1.61,3.6-3.6"/>
    <path class="cls-4" d="M170.93,201.24c0-2.65-2.15-4.8-4.8-4.8s-4.8,2.15-4.8,4.8,2.15,4.8,4.8,4.8,4.8-2.15,4.8-4.8"/>
    <path class="cls-4" d="M171.94,216.29c0-3.21-2.6-5.81-5.81-5.81s-5.81,2.6-5.81,5.81,2.6,5.81,5.81,5.81,5.81-2.6,5.81-5.81"/>
    <path class="cls-4" d="M173.16,231.34c0-3.88-3.15-7.03-7.03-7.03s-7.03,3.15-7.03,7.03,3.15,7.03,7.03,7.03,7.03-3.15,7.03-7.03"/>
    <path class="cls-4" d="M174.64,245.89c0-4.7-3.81-8.5-8.5-8.5s-8.5,3.81-8.5,8.5,3.81,8.5,8.5,8.5,8.5-3.81,8.5-8.5"/>
    <path class="cls-4" d="M144.07,178.66c0-1.39-1.12-2.51-2.51-2.51s-2.51,1.12-2.51,2.51,1.12,2.51,2.51,2.51,2.51-1.12,2.51-2.51"/>
    <path class="cls-4" d="M145.61,193.71c0-2.24-1.81-4.05-4.05-4.05s-4.05,1.81-4.05,4.05,1.81,4.05,4.05,4.05,4.05-1.81,4.05-4.05"/>
    <path class="cls-4" d="M146.46,208.76c0-2.7-2.19-4.9-4.9-4.9s-4.9,2.19-4.9,4.9,2.19,4.9,4.9,4.9,4.9-2.19,4.9-4.9"/>
    <path class="cls-4" d="M148.08,223.82c0-3.6-2.92-6.52-6.52-6.52s-6.52,2.92-6.52,6.52,2.92,6.52,6.52,6.52,6.52-2.92,6.52-6.52"/>
    <path class="cls-4" d="M149.45,238.87c0-4.35-3.53-7.88-7.88-7.88s-7.89,3.53-7.89,7.88,3.53,7.88,7.89,7.88,7.88-3.53,7.88-7.88"/>
    <path class="cls-4" d="M143.19,163.61c0-.9-.73-1.63-1.63-1.63s-1.63.73-1.63,1.63.73,1.63,1.63,1.63,1.63-.73,1.63-1.63"/>
    <path class="cls-4" d="M142.63,148.56c0-.59-.48-1.07-1.07-1.07s-1.07.48-1.07,1.07.48,1.07,1.07,1.07,1.07-.48,1.07-1.07"/>
    <path class="cls-4" d="M135.41,171.14c0-1.12-.91-2.04-2.04-2.04s-2.04.91-2.04,2.04.91,2.04,2.04,2.04,2.04-.91,2.04-2.04"/>
    <path class="cls-4" d="M134.71,156.08c0-.74-.6-1.33-1.34-1.33s-1.34.6-1.34,1.33.6,1.33,1.34,1.33,1.34-.6,1.34-1.33"/>
    <path class="cls-4" d="M134.25,141.03c0-.48-.39-.88-.88-.88s-.88.39-.88.88.39.88.88.88.88-.39.88-.88"/>
    <path class="cls-4" d="M119.02,171.14c0-1.12-.91-2.04-2.04-2.04s-2.03.91-2.03,2.04.91,2.04,2.03,2.04,2.04-.91,2.04-2.04"/>
    <path class="cls-4" d="M151.79,171.14c0-1.12-.91-2.04-2.04-2.04s-2.04.91-2.04,2.04.91,2.04,2.04,2.04,2.04-.91,2.04-2.04"/>
    <path class="cls-4" d="M151.09,156.08c0-.74-.6-1.33-1.34-1.33s-1.34.6-1.34,1.33.6,1.33,1.34,1.33,1.34-.6,1.34-1.33"/>
    <path class="cls-4" d="M150.63,141.03c0-.48-.39-.88-.88-.88s-.88.39-.88.88.39.88.88.88.88-.39.88-.88"/>
    <path class="cls-4" d="M118.32,156.08c0-.74-.6-1.33-1.33-1.33s-1.34.6-1.34,1.33.6,1.33,1.34,1.33,1.33-.6,1.33-1.33"/>
    <path class="cls-4" d="M117.86,141.03c0-.48-.39-.88-.88-.88s-.88.39-.88.88.39.88.88.88.88-.39.88-.88"/>
    <path class="cls-4" d="M167.47,156.08c0-.74-.6-1.33-1.34-1.33s-1.34.6-1.34,1.33.6,1.33,1.34,1.33,1.34-.6,1.34-1.33"/>
    <path class="cls-3" d="M167.01,141.03c0-.48-.39-.88-.88-.88s-.88.39-.88.88.39.88.88.88.88-.39.88-.88"/>
    <path class="cls-4" d="M168.17,171.14c0-1.12-.91-2.04-2.04-2.04s-2.04.91-2.04,2.04.91,2.04,2.04,2.04,2.04-.91,2.04-2.04"/>
    <path class="cls-4" d="M160.46,178.66c0-1.39-1.12-2.51-2.51-2.51s-2.51,1.12-2.51,2.51,1.12,2.51,2.51,2.51,2.51-1.12,2.51-2.51"/>
    <path class="cls-4" d="M161.95,193.71c0-2.21-1.79-4.01-4.01-4.01s-4.01,1.79-4.01,4.01,1.79,4.01,4.01,4.01,4.01-1.79,4.01-4.01"/>
    <path class="cls-4" d="M162.79,208.76c0-2.68-2.17-4.85-4.85-4.85s-4.85,2.17-4.85,4.85,2.17,4.85,4.85,4.85,4.85-2.17,4.85-4.85"/>
    <path class="cls-4" d="M164.4,223.82c0-3.56-2.89-6.45-6.45-6.45s-6.45,2.89-6.45,6.45,2.89,6.45,6.45,6.45,6.45-2.89,6.45-6.45"/>
    <path class="cls-4" d="M165.75,238.87c0-4.31-3.49-7.81-7.81-7.81s-7.81,3.49-7.81,7.81,3.5,7.81,7.81,7.81,7.81-3.49,7.81-7.81"/>
    <path class="cls-4" d="M159.58,163.61c0-.9-.73-1.63-1.63-1.63s-1.63.73-1.63,1.63.73,1.63,1.63,1.63,1.63-.73,1.63-1.63"/>
    <path class="cls-4" d="M159.02,148.56c0-.59-.48-1.07-1.07-1.07s-1.07.48-1.07,1.07.48,1.07,1.07,1.07,1.07-.48,1.07-1.07"/>
    <path class="cls-4" d="M176.84,178.66c0-1.39-1.12-2.51-2.51-2.51s-2.51,1.12-2.51,2.51,1.12,2.51,2.51,2.51,2.51-1.12,2.51-2.51"/>
    <path class="cls-4" d="M178.37,193.71c0-2.24-1.81-4.05-4.05-4.05s-4.05,1.81-4.05,4.05,1.81,4.05,4.05,4.05,4.05-1.81,4.05-4.05"/>
    <path class="cls-4" d="M179.22,208.76c0-2.7-2.19-4.9-4.9-4.9s-4.9,2.19-4.9,4.9,2.19,4.9,4.9,4.9,4.9-2.19,4.9-4.9"/>
    <path class="cls-4" d="M180.84,223.82c0-3.6-2.92-6.52-6.52-6.52s-6.52,2.92-6.52,6.52,2.92,6.52,6.52,6.52,6.52-2.92,6.52-6.52"/>
    <path class="cls-4" d="M182.21,238.87c0-4.35-3.53-7.88-7.88-7.88s-7.89,3.53-7.89,7.88,3.53,7.88,7.89,7.88,7.88-3.53,7.88-7.88"/>
    <path class="cls-4" d="M175.97,163.61c0-.91-.74-1.65-1.65-1.65s-1.65.74-1.65,1.65.74,1.65,1.65,1.65,1.65-.74,1.65-1.65"/>
    <path class="cls-4" d="M175.3,148.56c0-.54-.44-.97-.97-.97s-.97.43-.97.97.44.97.97.97.97-.43.97-.97"/>
    <path class="cls-4" d="M186.12,186.17c0-1.99-1.61-3.6-3.6-3.6s-3.61,1.61-3.61,3.6,1.61,3.6,3.61,3.6,3.6-1.61,3.6-3.6"/>
    <path class="cls-4" d="M187.31,201.24c0-2.65-2.15-4.8-4.8-4.8s-4.8,2.15-4.8,4.8,2.15,4.8,4.8,4.8,4.8-2.15,4.8-4.8"/>
    <path class="cls-4" d="M188.32,216.29c0-3.21-2.6-5.81-5.81-5.81s-5.81,2.6-5.81,5.81,2.6,5.81,5.81,5.81,5.81-2.6,5.81-5.81"/>
    <path class="cls-4" d="M189.54,231.34c0-3.88-3.15-7.03-7.03-7.03s-7.03,3.15-7.03,7.03,3.15,7.03,7.03,7.03,7.03-3.15,7.03-7.03"/>
    <path class="cls-4" d="M191.02,245.89c0-4.7-3.81-8.5-8.5-8.5s-8.5,3.81-8.5,8.5,3.81,8.5,8.5,8.5,8.5-3.81,8.5-8.5"/>
    <path class="cls-4" d="M170.1,186.17c0-2.19-1.78-3.97-3.97-3.97s-3.97,1.78-3.97,3.97,1.78,3.97,3.97,3.97,3.97-1.78,3.97-3.97"/>
    <path class="cls-4" d="M170.93,201.24c0-2.65-2.15-4.8-4.8-4.8s-4.8,2.15-4.8,4.8,2.15,4.8,4.8,4.8,4.8-2.15,4.8-4.8"/>
    <path class="cls-4" d="M171.94,216.29c0-3.21-2.6-5.81-5.81-5.81s-5.81,2.6-5.81,5.81,2.6,5.81,5.81,5.81,5.81-2.6,5.81-5.81"/>
    <path class="cls-4" d="M173.16,231.34c0-3.88-3.15-7.03-7.03-7.03s-7.03,3.15-7.03,7.03,3.15,7.03,7.03,7.03,7.03-3.15,7.03-7.03"/>
    <path class="cls-4" d="M174.63,245.89c0-4.7-3.81-8.5-8.5-8.5s-8.5,3.81-8.5,8.5,3.81,8.5,8.5,8.5,8.5-3.81,8.5-8.5"/>
    <path class="cls-3" d="M202.5,186.17c0-1.99-1.61-3.6-3.6-3.6s-3.61,1.61-3.61,3.6,1.61,3.6,3.61,3.6,3.6-1.61,3.6-3.6"/>
    <path class="cls-3" d="M203.7,201.24c0-2.65-2.15-4.8-4.8-4.8s-4.8,2.15-4.8,4.8,2.15,4.8,4.8,4.8,4.8-2.15,4.8-4.8"/>
    <path class="cls-3" d="M204.7,216.29c0-3.21-2.6-5.81-5.81-5.81s-5.81,2.6-5.81,5.81,2.6,5.81,5.81,5.81,5.81-2.6,5.81-5.81"/>
    <path class="cls-3" d="M205.92,231.34c0-3.88-3.15-7.03-7.03-7.03s-7.03,3.15-7.03,7.03,3.15,7.03,7.03,7.03,7.03-3.15,7.03-7.03"/>
    <path class="cls-4" d="M207.4,245.89c0-4.7-3.81-8.5-8.5-8.5s-8.5,3.81-8.5,8.5,3.81,8.5,8.5,8.5,8.5-3.81,8.5-8.5"/>
    <path class="cls-3" d="M218.89,186.17c0-1.99-1.61-3.6-3.6-3.6s-3.61,1.61-3.61,3.6,1.61,3.6,3.61,3.6,3.6-1.61,3.6-3.6"/>
    <path class="cls-3" d="M220.08,201.24c0-2.65-2.15-4.8-4.8-4.8s-4.8,2.15-4.8,4.8,2.15,4.8,4.8,4.8,4.8-2.15,4.8-4.8"/>
    <path class="cls-3" d="M221.09,216.29c0-3.21-2.6-5.81-5.81-5.81s-5.81,2.6-5.81,5.81,2.6,5.81,5.81,5.81,5.81-2.6,5.81-5.81"/>
    <path class="cls-3" d="M222.31,231.34c0-3.88-3.15-7.03-7.03-7.03s-7.03,3.15-7.03,7.03,3.15,7.03,7.03,7.03,7.03-3.15,7.03-7.03"/>
    <path class="cls-3" d="M223.78,245.89c0-4.7-3.81-8.5-8.5-8.5s-8.5,3.81-8.5,8.5,3.81,8.5,8.5,8.5,8.5-3.81,8.5-8.5"/>
    <path class="cls-4" d="M193.22,178.66c0-1.39-1.12-2.51-2.51-2.51s-2.51,1.12-2.51,2.51,1.12,2.51,2.51,2.51,2.51-1.12,2.51-2.51"/>
    <path class="cls-4" d="M194.75,193.71c0-2.24-1.81-4.05-4.05-4.05s-4.05,1.81-4.05,4.05,1.81,4.05,4.05,4.05,4.05-1.81,4.05-4.05"/>
    <path class="cls-4" d="M195.6,208.76c0-2.7-2.19-4.9-4.9-4.9s-4.9,2.19-4.9,4.9,2.19,4.9,4.9,4.9,4.9-2.19,4.9-4.9"/>
    <path class="cls-4" d="M197.22,223.82c0-3.6-2.92-6.52-6.52-6.52s-6.52,2.92-6.52,6.52,2.92,6.52,6.52,6.52,6.52-2.92,6.52-6.52"/>
    <path class="cls-4" d="M198.59,238.87c0-4.35-3.53-7.88-7.88-7.88s-7.89,3.53-7.89,7.88,3.53,7.88,7.89,7.88,7.88-3.53,7.88-7.88"/>
    <path class="cls-4" d="M192.34,163.61c0-.9-.73-1.63-1.63-1.63s-1.63.73-1.63,1.63.73,1.63,1.63,1.63,1.63-.73,1.63-1.63"/>
    <path class="cls-4" d="M191.78,148.56c0-.59-.48-1.07-1.07-1.07s-1.07.48-1.07,1.07.48,1.07,1.07,1.07,1.07-.48,1.07-1.07"/>
    <path class="cls-4" d="M184.55,171.14c0-1.12-.91-2.04-2.04-2.04s-2.04.91-2.04,2.04.91,2.04,2.04,2.04,2.04-.91,2.04-2.04"/>
    <path class="cls-4" d="M183.85,156.08c0-.74-.6-1.33-1.34-1.33s-1.34.6-1.34,1.33.6,1.33,1.34,1.33,1.34-.6,1.34-1.33"/>
    <path class="cls-4" d="M183.39,141.03c0-.48-.39-.88-.88-.88s-.88.39-.88.88.39.88.88.88.88-.39.88-.88"/>
    <path class="cls-4" d="M168.17,171.14c0-1.12-.91-2.04-2.04-2.04s-2.04.91-2.04,2.04.91,2.04,2.04,2.04,2.04-.91,2.04-2.04"/>
    <path class="cls-3" d="M200.93,171.14c0-1.12-.91-2.04-2.04-2.04s-2.04.91-2.04,2.04.91,2.04,2.04,2.04,2.04-.91,2.04-2.04"/>
    <path class="cls-3" d="M200.23,156.08c0-.74-.6-1.33-1.34-1.33s-1.34.6-1.34,1.33.6,1.33,1.34,1.33,1.34-.6,1.34-1.33"/>
    <path class="cls-3" d="M199.77,141.03c0-.48-.39-.88-.88-.88s-.88.39-.88.88.39.88.88.88.88-.39.88-.88"/>
    <path class="cls-4" d="M167.47,156.08c0-.74-.6-1.33-1.34-1.33s-1.34.6-1.34,1.33.6,1.33,1.34,1.33,1.34-.6,1.34-1.33"/>
    <path class="cls-4" d="M167.01,141.03c0-.48-.39-.88-.88-.88s-.88.39-.88.88.39.88.88.88.88-.39.88-.88"/>
    <path class="cls-3" d="M216.62,156.08c0-.74-.6-1.33-1.34-1.33s-1.34.6-1.34,1.33.6,1.33,1.34,1.33,1.34-.6,1.34-1.33"/>
    <path class="cls-3" d="M216.16,141.03c0-.48-.39-.88-.88-.88s-.88.39-.88.88.39.88.88.88.88-.39.88-.88"/>
    <path class="cls-3" d="M217.31,171.14c0-1.12-.91-2.04-2.04-2.04s-2.04.91-2.04,2.04.91,2.04,2.04,2.04,2.04-.91,2.04-2.04"/>
    <path class="cls-3" d="M209.6,178.66c0-1.39-1.12-2.51-2.51-2.51s-2.51,1.12-2.51,2.51,1.12,2.51,2.51,2.51,2.51-1.12,2.51-2.51"/>
    <path class="cls-3" d="M211.09,193.71c0-2.21-1.79-4.01-4.01-4.01s-4.01,1.79-4.01,4.01,1.79,4.01,4.01,4.01,4.01-1.79,4.01-4.01"/>
    <path class="cls-3" d="M211.94,208.76c0-2.68-2.17-4.85-4.85-4.85s-4.85,2.17-4.85,4.85,2.17,4.85,4.85,4.85,4.85-2.17,4.85-4.85"/>
    <path class="cls-3" d="M213.54,223.82c0-3.56-2.89-6.45-6.45-6.45s-6.45,2.89-6.45,6.45,2.89,6.45,6.45,6.45,6.45-2.89,6.45-6.45"/>
    <path class="cls-3" d="M214.9,238.87c0-4.31-3.49-7.81-7.81-7.81s-7.81,3.49-7.81,7.81,3.5,7.81,7.81,7.81,7.81-3.49,7.81-7.81"/>
    <path class="cls-3" d="M208.72,163.61c0-.9-.73-1.63-1.63-1.63s-1.63.73-1.63,1.63.73,1.63,1.63,1.63,1.63-.73,1.63-1.63"/>
    <path class="cls-3" d="M208.16,148.56c0-.59-.48-1.07-1.07-1.07s-1.07.48-1.07,1.07.48,1.07,1.07,1.07,1.07-.48,1.07-1.07"/>
    <path class="cls-4" d="M29.22,178.66c0-1.39-1.12-2.51-2.51-2.51s-2.51,1.12-2.51,2.51,1.12,2.51,2.51,2.51,2.51-1.12,2.51-2.51"/>
    <path class="cls-4" d="M30.76,193.71c0-2.24-1.81-4.05-4.05-4.05s-4.05,1.81-4.05,4.05,1.81,4.05,4.05,4.05,4.05-1.81,4.05-4.05"/>
    <path class="cls-4" d="M31.61,208.76c0-2.7-2.19-4.9-4.9-4.9s-4.9,2.19-4.9,4.9,2.19,4.9,4.9,4.9,4.9-2.19,4.9-4.9"/>
    <path class="cls-4" d="M33.23,223.82c0-3.6-2.92-6.52-6.52-6.52s-6.52,2.92-6.52,6.52,2.92,6.52,6.52,6.52,6.52-2.92,6.52-6.52"/>
    <path class="cls-4" d="M34.6,238.87c0-4.35-3.53-7.88-7.89-7.88s-7.89,3.53-7.89,7.88,3.53,7.88,7.89,7.88,7.89-3.53,7.89-7.88"/>
    <path class="cls-4" d="M28.36,163.61c0-.91-.74-1.65-1.65-1.65s-1.65.74-1.65,1.65.74,1.65,1.65,1.65,1.65-.74,1.65-1.65"/>
    <path class="cls-4" d="M27.68,148.56c0-.54-.44-.97-.97-.97s-.97.43-.97.97.44.97.97.97.97-.43.97-.97"/>
    <path class="cls-4" d="M38.51,186.17c0-1.99-1.61-3.6-3.6-3.6s-3.61,1.61-3.61,3.6,1.61,3.6,3.61,3.6,3.6-1.61,3.6-3.6"/>
    <path class="cls-4" d="M39.7,201.24c0-2.65-2.15-4.8-4.8-4.8s-4.8,2.15-4.8,4.8,2.15,4.8,4.8,4.8,4.8-2.15,4.8-4.8"/>
    <path class="cls-4" d="M40.71,216.29c0-3.21-2.6-5.81-5.81-5.81s-5.81,2.6-5.81,5.81,2.6,5.81,5.81,5.81,5.81-2.6,5.81-5.81"/>
    <path class="cls-4" d="M41.93,231.34c0-3.88-3.15-7.03-7.03-7.03s-7.03,3.15-7.03,7.03,3.15,7.03,7.03,7.03,7.03-3.15,7.03-7.03"/>
    <path class="cls-4" d="M43.4,245.89c0-4.7-3.81-8.5-8.5-8.5s-8.5,3.81-8.5,8.5,3.81,8.5,8.5,8.5,8.5-3.81,8.5-8.5"/>
    <path class="cls-4" d="M22.49,186.17c0-2.19-1.78-3.97-3.97-3.97s-3.97,1.78-3.97,3.97,1.78,3.97,3.97,3.97,3.97-1.78,3.97-3.97"/>
    <path class="cls-4" d="M23.32,201.24c0-2.65-2.15-4.8-4.8-4.8s-4.8,2.15-4.8,4.8,2.15,4.8,4.8,4.8,4.8-2.15,4.8-4.8"/>
    <path class="cls-4" d="M24.33,216.29c0-3.21-2.6-5.81-5.81-5.81s-5.81,2.6-5.81,5.81,2.6,5.81,5.81,5.81,5.81-2.6,5.81-5.81"/>
    <path class="cls-4" d="M25.55,231.34c0-3.88-3.15-7.03-7.03-7.03s-7.03,3.15-7.03,7.03,3.15,7.03,7.03,7.03,7.03-3.15,7.03-7.03"/>
    <path class="cls-4" d="M27.02,245.89c0-4.7-3.81-8.5-8.5-8.5s-8.5,3.81-8.5,8.5,3.81,8.5,8.5,8.5,8.5-3.81,8.5-8.5"/>
    <path class="cls-4" d="M54.89,186.17c0-1.99-1.61-3.6-3.6-3.6s-3.61,1.61-3.61,3.6,1.61,3.6,3.61,3.6,3.6-1.61,3.6-3.6"/>
    <path class="cls-4" d="M56.08,201.24c0-2.65-2.15-4.8-4.8-4.8s-4.8,2.15-4.8,4.8,2.15,4.8,4.8,4.8,4.8-2.15,4.8-4.8"/>
    <path class="cls-4" d="M57.09,216.29c0-3.21-2.6-5.81-5.81-5.81s-5.81,2.6-5.81,5.81,2.6,5.81,5.81,5.81,5.81-2.6,5.81-5.81"/>
    <path class="cls-4" d="M58.31,231.34c0-3.88-3.15-7.03-7.03-7.03s-7.03,3.15-7.03,7.03,3.15,7.03,7.03,7.03,7.03-3.15,7.03-7.03"/>
    <path class="cls-4" d="M59.79,245.89c0-4.7-3.81-8.5-8.5-8.5s-8.5,3.81-8.5,8.5,3.81,8.5,8.5,8.5,8.5-3.81,8.5-8.5"/>
    <path class="cls-4" d="M71.27,186.17c0-1.99-1.61-3.6-3.61-3.6s-3.61,1.61-3.61,3.6,1.61,3.6,3.61,3.6,3.61-1.61,3.61-3.6"/>
    <path class="cls-4" d="M72.47,201.24c0-2.65-2.15-4.8-4.8-4.8s-4.8,2.15-4.8,4.8,2.15,4.8,4.8,4.8,4.8-2.15,4.8-4.8"/>
    <path class="cls-4" d="M73.47,216.29c0-3.21-2.6-5.81-5.81-5.81s-5.81,2.6-5.81,5.81,2.6,5.81,5.81,5.81,5.81-2.6,5.81-5.81"/>
    <path class="cls-4" d="M74.69,231.34c0-3.88-3.15-7.03-7.03-7.03s-7.03,3.15-7.03,7.03,3.15,7.03,7.03,7.03,7.03-3.15,7.03-7.03"/>
    <path class="cls-4" d="M76.17,245.89c0-4.7-3.81-8.5-8.5-8.5s-8.5,3.81-8.5,8.5,3.81,8.5,8.5,8.5,8.5-3.81,8.5-8.5"/>
    <path class="cls-4" d="M45.61,178.66c0-1.39-1.12-2.51-2.51-2.51s-2.51,1.12-2.51,2.51,1.12,2.51,2.51,2.51,2.51-1.12,2.51-2.51"/>
    <path class="cls-4" d="M47.14,193.71c0-2.24-1.81-4.05-4.05-4.05s-4.05,1.81-4.05,4.05,1.81,4.05,4.05,4.05,4.05-1.81,4.05-4.05"/>
    <path class="cls-4" d="M47.99,208.76c0-2.7-2.19-4.9-4.9-4.9s-4.9,2.19-4.9,4.9,2.19,4.9,4.9,4.9,4.9-2.19,4.9-4.9"/>
    <path class="cls-4" d="M49.61,223.82c0-3.6-2.92-6.52-6.52-6.52s-6.52,2.92-6.52,6.52,2.92,6.52,6.52,6.52,6.52-2.92,6.52-6.52"/>
    <path class="cls-4" d="M50.98,238.87c0-4.35-3.53-7.88-7.89-7.88s-7.89,3.53-7.89,7.88,3.53,7.88,7.89,7.88,7.89-3.53,7.89-7.88"/>
    <path class="cls-4" d="M44.73,163.61c0-.9-.73-1.63-1.63-1.63s-1.63.73-1.63,1.63.73,1.63,1.63,1.63,1.63-.73,1.63-1.63"/>
    <path class="cls-4" d="M44.16,148.56c0-.59-.48-1.07-1.07-1.07s-1.07.48-1.07,1.07.48,1.07,1.07,1.07,1.07-.48,1.07-1.07"/>
    <path class="cls-4" d="M36.94,171.14c0-1.12-.91-2.04-2.03-2.04s-2.03.91-2.03,2.04.91,2.04,2.03,2.04,2.03-.91,2.03-2.04"/>
    <path class="cls-4" d="M36.24,156.08c0-.74-.6-1.33-1.33-1.33s-1.34.6-1.34,1.33.6,1.33,1.34,1.33,1.33-.6,1.33-1.33"/>
    <path class="cls-4" d="M35.78,141.03c0-.48-.39-.88-.88-.88s-.88.39-.88.88.39.88.88.88.88-.39.88-.88"/>
    <path class="cls-4" d="M20.56,171.14c0-1.12-.91-2.04-2.03-2.04s-2.03.91-2.03,2.04.91,2.04,2.03,2.04,2.03-.91,2.03-2.04"/>
    <path class="cls-4" d="M53.32,171.14c0-1.12-.91-2.04-2.03-2.04s-2.03.91-2.03,2.04.91,2.04,2.03,2.04,2.03-.91,2.03-2.04"/>
    <path class="cls-4" d="M52.62,156.08c0-.74-.6-1.33-1.33-1.33s-1.34.6-1.34,1.33.6,1.33,1.34,1.33,1.33-.6,1.33-1.33"/>
    <path class="cls-4" d="M52.16,141.03c0-.48-.39-.88-.88-.88s-.88.39-.88.88.39.88.88.88.88-.39.88-.88"/>
    <path class="cls-4" d="M19.86,156.08c0-.74-.6-1.33-1.33-1.33s-1.34.6-1.34,1.33.6,1.33,1.34,1.33,1.33-.6,1.33-1.33"/>
    <path class="cls-4" d="M19.4,141.03c0-.48-.39-.88-.88-.88s-.88.39-.88.88.39.88.88.88.88-.39.88-.88"/>
    <path class="cls-4" d="M69,156.08c0-.74-.6-1.33-1.33-1.33s-1.34.6-1.34,1.33.6,1.33,1.34,1.33,1.33-.6,1.33-1.33"/>
    <path class="cls-4" d="M68.54,141.03c0-.48-.39-.88-.88-.88s-.88.39-.88.88.39.88.88.88.88-.39.88-.88"/>
    <path class="cls-4" d="M69.7,171.14c0-1.12-.91-2.04-2.04-2.04s-2.03.91-2.03,2.04.91,2.04,2.03,2.04,2.04-.91,2.04-2.04"/>
    <path class="cls-4" d="M61.99,178.66c0-1.39-1.12-2.51-2.51-2.51s-2.51,1.12-2.51,2.51,1.12,2.51,2.51,2.51,2.51-1.12,2.51-2.51"/>
    <path class="cls-4" d="M63.48,193.71c0-2.21-1.79-4.01-4.01-4.01s-4.01,1.79-4.01,4.01,1.79,4.01,4.01,4.01,4.01-1.79,4.01-4.01"/>
    <path class="cls-4" d="M64.32,208.76c0-2.68-2.17-4.85-4.85-4.85s-4.85,2.17-4.85,4.85,2.17,4.85,4.85,4.85,4.85-2.17,4.85-4.85"/>
    <path class="cls-4" d="M65.93,223.82c0-3.56-2.89-6.45-6.45-6.45s-6.45,2.89-6.45,6.45,2.89,6.45,6.45,6.45,6.45-2.89,6.45-6.45"/>
    <path class="cls-4" d="M67.28,238.87c0-4.31-3.49-7.81-7.81-7.81s-7.81,3.49-7.81,7.81,3.49,7.81,7.81,7.81,7.81-3.49,7.81-7.81"/>
    <path class="cls-4" d="M61.11,163.61c0-.9-.73-1.63-1.63-1.63s-1.63.73-1.63,1.63.73,1.63,1.63,1.63,1.63-.73,1.63-1.63"/>
    <path class="cls-4" d="M60.55,148.56c0-.59-.48-1.07-1.07-1.07s-1.07.48-1.07,1.07.48,1.07,1.07,1.07,1.07-.48,1.07-1.07"/>
    <path class="cls-4" d="M78.37,178.66c0-1.39-1.12-2.51-2.51-2.51s-2.51,1.12-2.51,2.51,1.12,2.51,2.51,2.51,2.51-1.12,2.51-2.51"/>
    <path class="cls-4" d="M79.9,193.71c0-2.24-1.81-4.05-4.05-4.05s-4.05,1.81-4.05,4.05,1.81,4.05,4.05,4.05,4.05-1.81,4.05-4.05"/>
    <path class="cls-4" d="M80.75,208.76c0-2.7-2.19-4.9-4.9-4.9s-4.9,2.19-4.9,4.9,2.19,4.9,4.9,4.9,4.9-2.19,4.9-4.9"/>
    <path class="cls-4" d="M82.37,223.82c0-3.6-2.92-6.52-6.52-6.52s-6.52,2.92-6.52,6.52,2.92,6.52,6.52,6.52,6.52-2.92,6.52-6.52"/>
    <path class="cls-4" d="M83.74,238.87c0-4.35-3.53-7.88-7.89-7.88s-7.89,3.53-7.89,7.88,3.53,7.88,7.89,7.88,7.89-3.53,7.89-7.88"/>
    <path class="cls-4" d="M77.5,163.61c0-.91-.74-1.65-1.65-1.65s-1.65.74-1.65,1.65.74,1.65,1.65,1.65,1.65-.74,1.65-1.65"/>
    <path class="cls-4" d="M76.83,148.56c0-.54-.44-.97-.97-.97s-.97.43-.97.97.44.97.97.97.97-.43.97-.97"/>
    <path class="cls-4" d="M87.65,186.17c0-1.99-1.61-3.6-3.61-3.6s-3.61,1.61-3.61,3.6,1.61,3.6,3.61,3.6,3.61-1.61,3.61-3.6"/>
    <path class="cls-4" d="M88.85,201.24c0-2.65-2.15-4.8-4.8-4.8s-4.8,2.15-4.8,4.8,2.15,4.8,4.8,4.8,4.8-2.15,4.8-4.8"/>
    <path class="cls-4" d="M89.85,216.29c0-3.21-2.6-5.81-5.81-5.81s-5.81,2.6-5.81,5.81,2.6,5.81,5.81,5.81,5.81-2.6,5.81-5.81"/>
    <path class="cls-4" d="M91.07,231.34c0-3.88-3.15-7.03-7.03-7.03s-7.03,3.15-7.03,7.03,3.15,7.03,7.03,7.03,7.03-3.15,7.03-7.03"/>
    <path class="cls-4" d="M92.55,245.89c0-4.7-3.81-8.5-8.5-8.5s-8.5,3.81-8.5,8.5,3.81,8.5,8.5,8.5,8.5-3.81,8.5-8.5"/>
    <path class="cls-4" d="M71.63,186.17c0-2.19-1.78-3.97-3.97-3.97s-3.97,1.78-3.97,3.97,1.78,3.97,3.97,3.97,3.97-1.78,3.97-3.97"/>
    <path class="cls-4" d="M72.46,201.24c0-2.65-2.15-4.8-4.8-4.8s-4.8,2.15-4.8,4.8,2.15,4.8,4.8,4.8,4.8-2.15,4.8-4.8"/>
    <path class="cls-4" d="M73.47,216.29c0-3.21-2.6-5.81-5.81-5.81s-5.81,2.6-5.81,5.81,2.6,5.81,5.81,5.81,5.81-2.6,5.81-5.81"/>
    <path class="cls-4" d="M74.69,231.34c0-3.88-3.15-7.03-7.03-7.03s-7.03,3.15-7.03,7.03,3.15,7.03,7.03,7.03,7.03-3.15,7.03-7.03"/>
    <path class="cls-4" d="M76.17,245.89c0-4.7-3.81-8.5-8.5-8.5s-8.5,3.81-8.5,8.5,3.81,8.5,8.5,8.5,8.5-3.81,8.5-8.5"/>
    <path class="cls-4" d="M104.03,186.17c0-1.99-1.61-3.6-3.61-3.6s-3.61,1.61-3.61,3.6,1.61,3.6,3.61,3.6,3.61-1.61,3.61-3.6"/>
    <path class="cls-4" d="M105.23,201.24c0-2.65-2.15-4.8-4.8-4.8s-4.8,2.15-4.8,4.8,2.15,4.8,4.8,4.8,4.8-2.15,4.8-4.8"/>
    <path class="cls-4" d="M106.24,216.29c0-3.21-2.6-5.81-5.81-5.81s-5.81,2.6-5.81,5.81,2.6,5.81,5.81,5.81,5.81-2.6,5.81-5.81"/>
    <path class="cls-4" d="M107.45,231.34c0-3.88-3.15-7.03-7.03-7.03s-7.03,3.15-7.03,7.03,3.15,7.03,7.03,7.03,7.03-3.15,7.03-7.03"/>
    <path class="cls-4" d="M108.93,245.89c0-4.7-3.81-8.5-8.5-8.5s-8.5,3.81-8.5,8.5,3.81,8.5,8.5,8.5,8.5-3.81,8.5-8.5"/>
    <path class="cls-4" d="M120.42,186.17c0-1.99-1.61-3.6-3.61-3.6s-3.61,1.61-3.61,3.6,1.61,3.6,3.61,3.6,3.61-1.61,3.61-3.6"/>
    <path class="cls-4" d="M121.61,201.24c0-2.65-2.15-4.8-4.8-4.8s-4.8,2.15-4.8,4.8,2.15,4.8,4.8,4.8,4.8-2.15,4.8-4.8"/>
    <path class="cls-4" d="M122.62,216.29c0-3.21-2.6-5.81-5.81-5.81s-5.81,2.6-5.81,5.81,2.6,5.81,5.81,5.81,5.81-2.6,5.81-5.81"/>
    <path class="cls-4" d="M123.84,231.34c0-3.88-3.15-7.03-7.03-7.03s-7.03,3.15-7.03,7.03,3.15,7.03,7.03,7.03,7.03-3.15,7.03-7.03"/>
    <path class="cls-4" d="M125.31,245.89c0-4.7-3.81-8.5-8.5-8.5s-8.5,3.81-8.5,8.5,3.81,8.5,8.5,8.5,8.5-3.81,8.5-8.5"/>
    <path class="cls-4" d="M94.75,178.66c0-1.39-1.12-2.51-2.51-2.51s-2.51,1.12-2.51,2.51,1.12,2.51,2.51,2.51,2.51-1.12,2.51-2.51"/>
    <path class="cls-4" d="M96.28,193.71c0-2.24-1.81-4.05-4.05-4.05s-4.05,1.81-4.05,4.05,1.81,4.05,4.05,4.05,4.05-1.81,4.05-4.05"/>
    <path class="cls-4" d="M97.13,208.76c0-2.7-2.19-4.9-4.9-4.9s-4.9,2.19-4.9,4.9,2.19,4.9,4.9,4.9,4.9-2.19,4.9-4.9"/>
    <path class="cls-4" d="M98.75,223.82c0-3.6-2.92-6.52-6.52-6.52s-6.52,2.92-6.52,6.52,2.92,6.52,6.52,6.52,6.52-2.92,6.52-6.52"/>
    <path class="cls-4" d="M100.12,238.87c0-4.35-3.53-7.88-7.89-7.88s-7.89,3.53-7.89,7.88,3.53,7.88,7.89,7.88,7.89-3.53,7.89-7.88"/>
    <path class="cls-4" d="M93.87,163.61c0-.9-.73-1.63-1.63-1.63s-1.63.73-1.63,1.63.73,1.63,1.63,1.63,1.63-.73,1.63-1.63"/>
    <path class="cls-4" d="M93.31,148.56c0-.59-.48-1.07-1.07-1.07s-1.07.48-1.07,1.07.48,1.07,1.07,1.07,1.07-.48,1.07-1.07"/>
    <path class="cls-4" d="M86.08,171.14c0-1.12-.91-2.04-2.04-2.04s-2.03.91-2.03,2.04.91,2.04,2.03,2.04,2.04-.91,2.04-2.04"/>
    <path class="cls-4" d="M85.38,156.08c0-.74-.6-1.33-1.33-1.33s-1.34.6-1.34,1.33.6,1.33,1.34,1.33,1.33-.6,1.33-1.33"/>
    <path class="cls-4" d="M84.92,141.03c0-.48-.39-.88-.88-.88s-.88.39-.88.88.39.88.88.88.88-.39.88-.88"/>
    <path class="cls-4" d="M69.7,171.14c0-1.12-.91-2.04-2.04-2.04s-2.03.91-2.03,2.04.91,2.04,2.03,2.04,2.04-.91,2.04-2.04"/>
    <path class="cls-4" d="M102.46,171.14c0-1.12-.91-2.04-2.04-2.04s-2.03.91-2.03,2.04.91,2.04,2.03,2.04,2.04-.91,2.04-2.04"/>
    <path class="cls-4" d="M101.76,156.08c0-.74-.6-1.33-1.33-1.33s-1.34.6-1.34,1.33.6,1.33,1.34,1.33,1.33-.6,1.33-1.33"/>
    <path class="cls-4" d="M101.31,141.03c0-.48-.39-.88-.88-.88s-.88.39-.88.88.39.88.88.88.88-.39.88-.88"/>
    <path class="cls-4" d="M69,156.08c0-.74-.6-1.33-1.33-1.33s-1.34.6-1.34,1.33.6,1.33,1.34,1.33,1.33-.6,1.33-1.33"/>
    <path class="cls-4" d="M68.54,141.03c0-.48-.39-.88-.88-.88s-.88.39-.88.88.39.88.88.88.88-.39.88-.88"/>
    <path class="cls-4" d="M118.15,156.08c0-.74-.6-1.33-1.33-1.33s-1.34.6-1.34,1.33.6,1.33,1.34,1.33,1.33-.6,1.33-1.33"/>
    <path class="cls-4" d="M117.69,141.03c0-.48-.39-.88-.88-.88s-.88.39-.88.88.39.88.88.88.88-.39.88-.88"/>
    <path class="cls-4" d="M118.85,171.14c0-1.12-.91-2.04-2.04-2.04s-2.03.91-2.03,2.04.91,2.04,2.03,2.04,2.04-.91,2.04-2.04"/>
    <path class="cls-4" d="M111.13,178.66c0-1.39-1.12-2.51-2.51-2.51s-2.51,1.12-2.51,2.51,1.12,2.51,2.51,2.51,2.51-1.12,2.51-2.51"/>
    <path class="cls-4" d="M112.63,193.71c0-2.21-1.79-4.01-4.01-4.01s-4.01,1.79-4.01,4.01,1.79,4.01,4.01,4.01,4.01-1.79,4.01-4.01"/>
    <path class="cls-4" d="M113.47,208.76c0-2.68-2.17-4.85-4.85-4.85s-4.85,2.17-4.85,4.85,2.17,4.85,4.85,4.85,4.85-2.17,4.85-4.85"/>
    <path class="cls-4" d="M115.07,223.82c0-3.56-2.89-6.45-6.45-6.45s-6.45,2.89-6.45,6.45,2.89,6.45,6.45,6.45,6.45-2.89,6.45-6.45"/>
    <path class="cls-4" d="M116.43,238.87c0-4.31-3.5-7.81-7.81-7.81s-7.81,3.49-7.81,7.81,3.5,7.81,7.81,7.81,7.81-3.49,7.81-7.81"/>
    <path class="cls-4" d="M110.25,163.61c0-.9-.73-1.63-1.63-1.63s-1.63.73-1.63,1.63.73,1.63,1.63,1.63,1.63-.73,1.63-1.63"/>
    <path class="cls-4" d="M109.69,148.56c0-.59-.48-1.07-1.07-1.07s-1.07.48-1.07,1.07.48,1.07,1.07,1.07,1.07-.48,1.07-1.07"/>
  </g>
  <g class="cls-5">
    <path class="cls-4" d="M539.29,315.68c0-1.39-1.12-2.51-2.51-2.51s-2.51,1.12-2.51,2.51,1.12,2.51,2.51,2.51,2.51-1.12,2.51-2.51"/>
    <path class="cls-4" d="M540.83,330.73c0-2.24-1.81-4.05-4.05-4.05s-4.05,1.81-4.05,4.05,1.81,4.05,4.05,4.05,4.05-1.81,4.05-4.05"/>
    <path class="cls-4" d="M541.68,345.78c0-2.7-2.19-4.9-4.9-4.9s-4.9,2.19-4.9,4.9,2.19,4.9,4.9,4.9,4.9-2.19,4.9-4.9"/>
    <path class="cls-4" d="M543.3,360.83c0-3.6-2.92-6.52-6.52-6.52s-6.52,2.92-6.52,6.52,2.92,6.52,6.52,6.52,6.52-2.92,6.52-6.52"/>
    <path class="cls-4" d="M544.66,375.88c0-4.35-3.53-7.89-7.89-7.89s-7.89,3.53-7.89,7.89,3.53,7.89,7.89,7.89,7.89-3.53,7.89-7.89"/>
    <path class="cls-4" d="M538.43,300.63c0-.91-.74-1.65-1.65-1.65s-1.65.74-1.65,1.65.74,1.65,1.65,1.65,1.65-.74,1.65-1.65"/>
    <path class="cls-4" d="M537.75,285.57c0-.54-.44-.97-.97-.97s-.97.44-.97.97.44.97.97.97.97-.44.97-.97"/>
    <path class="cls-4" d="M548.58,323.19c0-1.99-1.61-3.61-3.6-3.61s-3.61,1.61-3.61,3.61,1.61,3.61,3.61,3.61,3.6-1.61,3.6-3.61"/>
    <path class="cls-4" d="M549.77,338.25c0-2.65-2.15-4.8-4.8-4.8s-4.8,2.15-4.8,4.8,2.15,4.8,4.8,4.8,4.8-2.15,4.8-4.8"/>
    <path class="cls-4" d="M550.78,353.31c0-3.21-2.6-5.81-5.81-5.81s-5.81,2.6-5.81,5.81,2.6,5.81,5.81,5.81,5.81-2.6,5.81-5.81"/>
    <path class="cls-4" d="M552,368.36c0-3.88-3.15-7.03-7.03-7.03s-7.03,3.15-7.03,7.03,3.15,7.03,7.03,7.03,7.03-3.15,7.03-7.03"/>
    <path class="cls-4" d="M553.47,382.91c0-4.69-3.81-8.5-8.5-8.5s-8.5,3.81-8.5,8.5,3.81,8.5,8.5,8.5,8.5-3.81,8.5-8.5"/>
    <path class="cls-4" d="M532.55,323.19c0-2.19-1.78-3.97-3.97-3.97s-3.97,1.78-3.97,3.97,1.78,3.97,3.97,3.97,3.97-1.78,3.97-3.97"/>
    <path class="cls-4" d="M533.39,338.25c0-2.65-2.15-4.8-4.8-4.8s-4.8,2.15-4.8,4.8,2.15,4.8,4.8,4.8,4.8-2.15,4.8-4.8"/>
    <path class="cls-4" d="M534.39,353.31c0-3.21-2.6-5.81-5.81-5.81s-5.81,2.6-5.81,5.81,2.6,5.81,5.81,5.81,5.81-2.6,5.81-5.81"/>
    <path class="cls-4" d="M535.61,368.36c0-3.88-3.15-7.03-7.03-7.03s-7.03,3.15-7.03,7.03,3.15,7.03,7.03,7.03,7.03-3.15,7.03-7.03"/>
    <path class="cls-4" d="M537.09,382.91c0-4.69-3.81-8.5-8.5-8.5s-8.5,3.81-8.5,8.5,3.81,8.5,8.5,8.5,8.5-3.81,8.5-8.5"/>
    <path class="cls-4" d="M564.96,323.19c0-1.99-1.61-3.61-3.6-3.61s-3.61,1.61-3.61,3.61,1.61,3.61,3.61,3.61,3.6-1.61,3.6-3.61"/>
    <path class="cls-4" d="M566.15,338.25c0-2.65-2.15-4.8-4.8-4.8s-4.8,2.15-4.8,4.8,2.15,4.8,4.8,4.8,4.8-2.15,4.8-4.8"/>
    <path class="cls-4" d="M567.16,353.31c0-3.21-2.6-5.81-5.81-5.81s-5.81,2.6-5.81,5.81,2.6,5.81,5.81,5.81,5.81-2.6,5.81-5.81"/>
    <path class="cls-4" d="M568.38,368.36c0-3.88-3.15-7.03-7.03-7.03s-7.03,3.15-7.03,7.03,3.15,7.03,7.03,7.03,7.03-3.15,7.03-7.03"/>
    <path class="cls-4" d="M569.85,382.91c0-4.69-3.81-8.5-8.5-8.5s-8.5,3.81-8.5,8.5,3.81,8.5,8.5,8.5,8.5-3.81,8.5-8.5"/>
    <path class="cls-4" d="M581.34,323.19c0-1.99-1.61-3.61-3.6-3.61s-3.61,1.61-3.61,3.61,1.61,3.61,3.61,3.61,3.6-1.61,3.6-3.61"/>
    <path class="cls-4" d="M582.53,338.25c0-2.65-2.15-4.8-4.8-4.8s-4.8,2.15-4.8,4.8,2.15,4.8,4.8,4.8,4.8-2.15,4.8-4.8"/>
    <path class="cls-4" d="M583.54,353.31c0-3.21-2.6-5.81-5.81-5.81s-5.81,2.6-5.81,5.81,2.6,5.81,5.81,5.81,5.81-2.6,5.81-5.81"/>
    <path class="cls-4" d="M584.76,368.36c0-3.88-3.15-7.03-7.03-7.03s-7.03,3.15-7.03,7.03,3.15,7.03,7.03,7.03,7.03-3.15,7.03-7.03"/>
    <path class="cls-4" d="M586.24,382.91c0-4.69-3.81-8.5-8.5-8.5s-8.5,3.81-8.5,8.5,3.81,8.5,8.5,8.5,8.5-3.81,8.5-8.5"/>
    <path class="cls-4" d="M555.67,315.68c0-1.39-1.12-2.51-2.51-2.51s-2.51,1.12-2.51,2.51,1.12,2.51,2.51,2.51,2.51-1.12,2.51-2.51"/>
    <path class="cls-4" d="M557.21,330.73c0-2.24-1.81-4.05-4.05-4.05s-4.05,1.81-4.05,4.05,1.81,4.05,4.05,4.05,4.05-1.81,4.05-4.05"/>
    <path class="cls-4" d="M558.06,345.78c0-2.7-2.19-4.9-4.9-4.9s-4.9,2.19-4.9,4.9,2.19,4.9,4.9,4.9,4.9-2.19,4.9-4.9"/>
    <path class="cls-4" d="M559.68,360.83c0-3.6-2.92-6.52-6.52-6.52s-6.52,2.92-6.52,6.52,2.92,6.52,6.52,6.52,6.52-2.92,6.52-6.52"/>
    <path class="cls-4" d="M561.05,375.88c0-4.35-3.53-7.89-7.89-7.89s-7.89,3.53-7.89,7.89,3.53,7.89,7.89,7.89,7.89-3.53,7.89-7.89"/>
    <path class="cls-4" d="M554.79,300.63c0-.9-.73-1.63-1.63-1.63s-1.63.73-1.63,1.63.73,1.63,1.63,1.63,1.63-.73,1.63-1.63"/>
    <path class="cls-4" d="M554.23,285.57c0-.59-.48-1.07-1.07-1.07s-1.07.48-1.07,1.07.48,1.07,1.07,1.07,1.07-.48,1.07-1.07"/>
    <path class="cls-4" d="M547.01,308.15c0-1.12-.91-2.04-2.03-2.04s-2.04.91-2.04,2.04.91,2.04,2.04,2.04,2.03-.91,2.03-2.04"/>
    <path class="cls-4" d="M546.31,293.1c0-.74-.6-1.34-1.34-1.34s-1.33.6-1.33,1.34.6,1.34,1.33,1.34,1.34-.6,1.34-1.34"/>
    <path class="cls-4" d="M545.85,278.05c0-.48-.39-.88-.88-.88s-.88.39-.88.88.39.88.88.88.88-.39.88-.88"/>
    <path class="cls-4" d="M530.62,308.15c0-1.12-.91-2.04-2.03-2.04s-2.04.91-2.04,2.04.91,2.04,2.04,2.04,2.03-.91,2.03-2.04"/>
    <path class="cls-4" d="M563.39,308.15c0-1.12-.91-2.04-2.03-2.04s-2.04.91-2.04,2.04.91,2.04,2.04,2.04,2.03-.91,2.03-2.04"/>
    <path class="cls-4" d="M562.69,293.1c0-.74-.6-1.34-1.34-1.34s-1.34.6-1.34,1.34.6,1.34,1.34,1.34,1.34-.6,1.34-1.34"/>
    <path class="cls-4" d="M562.23,278.05c0-.48-.39-.88-.88-.88s-.88.39-.88.88.39.88.88.88.88-.39.88-.88"/>
    <path class="cls-4" d="M529.92,293.1c0-.74-.6-1.34-1.34-1.34s-1.33.6-1.33,1.34.6,1.34,1.33,1.34,1.34-.6,1.34-1.34"/>
    <path class="cls-4" d="M529.46,278.05c0-.48-.39-.88-.88-.88s-.88.39-.88.88.39.88.88.88.88-.39.88-.88"/>
    <path class="cls-4" d="M579.07,293.1c0-.74-.6-1.34-1.34-1.34s-1.33.6-1.33,1.34.6,1.34,1.33,1.34,1.34-.6,1.34-1.34"/>
    <path class="cls-4" d="M578.61,278.05c0-.48-.39-.88-.88-.88s-.88.39-.88.88.39.88.88.88.88-.39.88-.88"/>
    <path class="cls-4" d="M579.77,308.15c0-1.12-.91-2.04-2.03-2.04s-2.04.91-2.04,2.04.91,2.04,2.04,2.04,2.03-.91,2.03-2.04"/>
    <path class="cls-4" d="M572.06,315.68c0-1.39-1.12-2.51-2.51-2.51s-2.51,1.12-2.51,2.51,1.12,2.51,2.51,2.51,2.51-1.12,2.51-2.51"/>
    <path class="cls-4" d="M573.55,330.73c0-2.21-1.79-4.01-4.01-4.01s-4.01,1.79-4.01,4.01,1.79,4.01,4.01,4.01,4.01-1.79,4.01-4.01"/>
    <path class="cls-4" d="M574.39,345.78c0-2.68-2.17-4.85-4.85-4.85s-4.85,2.17-4.85,4.85,2.17,4.85,4.85,4.85,4.85-2.17,4.85-4.85"/>
    <path class="cls-4" d="M576,360.83c0-3.56-2.89-6.45-6.45-6.45s-6.45,2.89-6.45,6.45,2.89,6.45,6.45,6.45,6.45-2.89,6.45-6.45"/>
    <path class="cls-4" d="M577.35,375.88c0-4.31-3.49-7.81-7.81-7.81s-7.81,3.49-7.81,7.81,3.49,7.81,7.81,7.81,7.81-3.49,7.81-7.81"/>
    <path class="cls-4" d="M571.18,300.63c0-.9-.73-1.63-1.63-1.63s-1.63.73-1.63,1.63.73,1.63,1.63,1.63,1.63-.73,1.63-1.63"/>
    <path class="cls-4" d="M570.62,285.57c0-.59-.48-1.07-1.07-1.07s-1.07.48-1.07,1.07.48,1.07,1.07,1.07,1.07-.48,1.07-1.07"/>
    <path class="cls-4" d="M588.44,315.68c0-1.39-1.12-2.51-2.51-2.51s-2.51,1.12-2.51,2.51,1.12,2.51,2.51,2.51,2.51-1.12,2.51-2.51"/>
    <path class="cls-4" d="M589.97,330.73c0-2.24-1.81-4.05-4.05-4.05s-4.05,1.81-4.05,4.05,1.81,4.05,4.05,4.05,4.05-1.81,4.05-4.05"/>
    <path class="cls-4" d="M590.82,345.78c0-2.7-2.19-4.9-4.9-4.9s-4.9,2.19-4.9,4.9,2.19,4.9,4.9,4.9,4.9-2.19,4.9-4.9"/>
    <path class="cls-4" d="M592.44,360.83c0-3.6-2.92-6.52-6.52-6.52s-6.52,2.92-6.52,6.52,2.92,6.52,6.52,6.52,6.52-2.92,6.52-6.52"/>
    <path class="cls-4" d="M593.81,375.88c0-4.35-3.53-7.89-7.89-7.89s-7.89,3.53-7.89,7.89,3.53,7.89,7.89,7.89,7.89-3.53,7.89-7.89"/>
    <path class="cls-4" d="M587.57,300.63c0-.91-.74-1.65-1.65-1.65s-1.65.74-1.65,1.65.74,1.65,1.65,1.65,1.65-.74,1.65-1.65"/>
    <path class="cls-4" d="M586.9,285.57c0-.54-.44-.97-.97-.97s-.97.44-.97.97.44.97.97.97.97-.44.97-.97"/>
    <path class="cls-4" d="M597.72,323.19c0-1.99-1.61-3.61-3.6-3.61s-3.61,1.61-3.61,3.61,1.61,3.61,3.61,3.61,3.6-1.61,3.6-3.61"/>
    <path class="cls-4" d="M598.91,338.25c0-2.65-2.15-4.8-4.8-4.8s-4.8,2.15-4.8,4.8,2.15,4.8,4.8,4.8,4.8-2.15,4.8-4.8"/>
    <path class="cls-4" d="M599.92,353.31c0-3.21-2.6-5.81-5.81-5.81s-5.81,2.6-5.81,5.81,2.6,5.81,5.81,5.81,5.81-2.6,5.81-5.81"/>
    <path class="cls-4" d="M601.14,368.36c0-3.88-3.15-7.03-7.03-7.03s-7.03,3.15-7.03,7.03,3.15,7.03,7.03,7.03,7.03-3.15,7.03-7.03"/>
    <path class="cls-4" d="M602.62,382.91c0-4.69-3.81-8.5-8.5-8.5s-8.5,3.81-8.5,8.5,3.81,8.5,8.5,8.5,8.5-3.81,8.5-8.5"/>
    <path class="cls-4" d="M581.7,323.19c0-2.19-1.78-3.97-3.97-3.97s-3.97,1.78-3.97,3.97,1.78,3.97,3.97,3.97,3.97-1.78,3.97-3.97"/>
    <path class="cls-4" d="M582.53,338.25c0-2.65-2.15-4.8-4.8-4.8s-4.8,2.15-4.8,4.8,2.15,4.8,4.8,4.8,4.8-2.15,4.8-4.8"/>
    <path class="cls-4" d="M583.54,353.31c0-3.21-2.6-5.81-5.81-5.81s-5.81,2.6-5.81,5.81,2.6,5.81,5.81,5.81,5.81-2.6,5.81-5.81"/>
    <path class="cls-4" d="M584.76,368.36c0-3.88-3.15-7.03-7.03-7.03s-7.03,3.15-7.03,7.03,3.15,7.03,7.03,7.03,7.03-3.15,7.03-7.03"/>
    <path class="cls-4" d="M586.23,382.91c0-4.69-3.81-8.5-8.5-8.5s-8.5,3.81-8.5,8.5,3.81,8.5,8.5,8.5,8.5-3.81,8.5-8.5"/>
    <path class="cls-3" d="M614.1,323.19c0-1.99-1.61-3.61-3.6-3.61s-3.61,1.61-3.61,3.61,1.61,3.61,3.61,3.61,3.6-1.61,3.6-3.61"/>
    <path class="cls-3" d="M615.3,338.25c0-2.65-2.15-4.8-4.8-4.8s-4.8,2.15-4.8,4.8,2.15,4.8,4.8,4.8,4.8-2.15,4.8-4.8"/>
    <path class="cls-3" d="M616.3,353.31c0-3.21-2.6-5.81-5.81-5.81s-5.81,2.6-5.81,5.81,2.6,5.81,5.81,5.81,5.81-2.6,5.81-5.81"/>
    <path class="cls-3" d="M617.52,368.36c0-3.88-3.15-7.03-7.03-7.03s-7.03,3.15-7.03,7.03,3.15,7.03,7.03,7.03,7.03-3.15,7.03-7.03"/>
    <path class="cls-3" d="M619,382.91c0-4.69-3.81-8.5-8.5-8.5s-8.5,3.81-8.5,8.5,3.81,8.5,8.5,8.5,8.5-3.81,8.5-8.5"/>
    <path class="cls-4" d="M604.82,315.68c0-1.39-1.12-2.51-2.51-2.51s-2.51,1.12-2.51,2.51,1.12,2.51,2.51,2.51,2.51-1.12,2.51-2.51"/>
    <path class="cls-4" d="M606.35,330.73c0-2.24-1.81-4.05-4.05-4.05s-4.05,1.81-4.05,4.05,1.81,4.05,4.05,4.05,4.05-1.81,4.05-4.05"/>
    <path class="cls-4" d="M607.2,345.78c0-2.7-2.19-4.9-4.9-4.9s-4.9,2.19-4.9,4.9,2.19,4.9,4.9,4.9,4.9-2.19,4.9-4.9"/>
    <path class="cls-4" d="M608.82,360.83c0-3.6-2.92-6.52-6.52-6.52s-6.52,2.92-6.52,6.52,2.92,6.52,6.52,6.52,6.52-2.92,6.52-6.52"/>
    <path class="cls-4" d="M610.19,375.88c0-4.35-3.53-7.89-7.89-7.89s-7.89,3.53-7.89,7.89,3.53,7.89,7.89,7.89,7.89-3.53,7.89-7.89"/>
    <path class="cls-4" d="M603.94,300.63c0-.9-.73-1.63-1.63-1.63s-1.63.73-1.63,1.63.73,1.63,1.63,1.63,1.63-.73,1.63-1.63"/>
    <path class="cls-3" d="M603.38,285.57c0-.59-.48-1.07-1.07-1.07s-1.07.48-1.07,1.07.48,1.07,1.07,1.07,1.07-.48,1.07-1.07"/>
    <path class="cls-4" d="M596.15,308.15c0-1.12-.91-2.04-2.03-2.04s-2.04.91-2.04,2.04.91,2.04,2.04,2.04,2.03-.91,2.03-2.04"/>
    <path class="cls-4" d="M595.45,293.1c0-.74-.6-1.34-1.34-1.34s-1.33.6-1.33,1.34.6,1.34,1.33,1.34,1.34-.6,1.34-1.34"/>
    <path class="cls-4" d="M594.99,278.05c0-.48-.39-.88-.88-.88s-.88.39-.88.88.39.88.88.88.88-.39.88-.88"/>
    <path class="cls-4" d="M579.77,308.15c0-1.12-.91-2.04-2.03-2.04s-2.04.91-2.04,2.04.91,2.04,2.04,2.04,2.03-.91,2.03-2.04"/>
    <path class="cls-3" d="M612.53,308.15c0-1.12-.91-2.04-2.03-2.04s-2.04.91-2.04,2.04.91,2.04,2.04,2.04,2.03-.91,2.03-2.04"/>
    <path class="cls-3" d="M611.83,293.1c0-.74-.6-1.34-1.34-1.34s-1.34.6-1.34,1.34.6,1.34,1.34,1.34,1.34-.6,1.34-1.34"/>
    <path class="cls-3" d="M611.37,278.05c0-.48-.39-.88-.88-.88s-.88.39-.88.88.39.88.88.88.88-.39.88-.88"/>
    <path class="cls-4" d="M579.07,293.1c0-.74-.6-1.34-1.34-1.34s-1.33.6-1.33,1.34.6,1.34,1.33,1.34,1.34-.6,1.34-1.34"/>
    <path class="cls-4" d="M578.61,278.05c0-.48-.39-.88-.88-.88s-.88.39-.88.88.39.88.88.88.88-.39.88-.88"/>
    <path class="cls-3" d="M622.69,330.73c0-2.21-1.79-4.01-4.01-4.01s-4.01,1.79-4.01,4.01,1.79,4.01,4.01,4.01,4.01-1.79,4.01-4.01"/>
    <path class="cls-3" d="M623.54,345.78c0-2.68-2.17-4.85-4.85-4.85s-4.85,2.17-4.85,4.85,2.17,4.85,4.85,4.85,4.85-2.17,4.85-4.85"/>
    <path class="cls-3" d="M625.14,360.83c0-3.56-2.89-6.45-6.45-6.45s-6.45,2.89-6.45,6.45,2.89,6.45,6.45,6.45,6.45-2.89,6.45-6.45"/>
    <path class="cls-3" d="M626.49,375.88c0-4.31-3.49-7.81-7.81-7.81s-7.81,3.49-7.81,7.81,3.49,7.81,7.81,7.81,7.81-3.49,7.81-7.81"/>
    <path class="cls-3" d="M440.82,315.68c0-1.39-1.12-2.51-2.51-2.51s-2.51,1.12-2.51,2.51,1.12,2.51,2.51,2.51,2.51-1.12,2.51-2.51"/>
    <path class="cls-4" d="M442.36,330.73c0-2.24-1.81-4.05-4.05-4.05s-4.05,1.81-4.05,4.05,1.81,4.05,4.05,4.05,4.05-1.81,4.05-4.05"/>
    <path class="cls-4" d="M443.21,345.78c0-2.7-2.19-4.9-4.9-4.9s-4.9,2.19-4.9,4.9,2.19,4.9,4.9,4.9,4.9-2.19,4.9-4.9"/>
    <path class="cls-4" d="M444.83,360.83c0-3.6-2.92-6.52-6.52-6.52s-6.52,2.92-6.52,6.52,2.92,6.52,6.52,6.52,6.52-2.92,6.52-6.52"/>
    <path class="cls-4" d="M446.2,375.88c0-4.35-3.53-7.89-7.89-7.89s-7.89,3.53-7.89,7.89,3.53,7.89,7.89,7.89,7.89-3.53,7.89-7.89"/>
    <path class="cls-3" d="M439.96,300.63c0-.91-.74-1.65-1.65-1.65s-1.65.74-1.65,1.65.74,1.65,1.65,1.65,1.65-.74,1.65-1.65"/>
    <path class="cls-3" d="M439.28,285.57c0-.54-.44-.97-.97-.97s-.97.44-.97.97.44.97.97.97.97-.44.97-.97"/>
    <path class="cls-4" d="M450.11,323.19c0-1.99-1.61-3.61-3.61-3.61s-3.61,1.61-3.61,3.61,1.61,3.61,3.61,3.61,3.61-1.61,3.61-3.61"/>
    <path class="cls-4" d="M451.3,338.25c0-2.65-2.15-4.8-4.8-4.8s-4.8,2.15-4.8,4.8,2.15,4.8,4.8,4.8,4.8-2.15,4.8-4.8"/>
    <path class="cls-4" d="M452.31,353.31c0-3.21-2.6-5.81-5.81-5.81s-5.81,2.6-5.81,5.81,2.6,5.81,5.81,5.81,5.81-2.6,5.81-5.81"/>
    <path class="cls-4" d="M453.53,368.36c0-3.88-3.15-7.03-7.03-7.03s-7.03,3.15-7.03,7.03,3.15,7.03,7.03,7.03,7.03-3.15,7.03-7.03"/>
    <path class="cls-4" d="M455,382.91c0-4.69-3.81-8.5-8.5-8.5s-8.5,3.81-8.5,8.5,3.81,8.5,8.5,8.5,8.5-3.81,8.5-8.5"/>
    <path class="cls-3" d="M434.09,323.19c0-2.19-1.78-3.97-3.97-3.97s-3.97,1.78-3.97,3.97,1.78,3.97,3.97,3.97,3.97-1.78,3.97-3.97"/>
    <path class="cls-3" d="M434.92,338.25c0-2.65-2.15-4.8-4.8-4.8s-4.8,2.15-4.8,4.8,2.15,4.8,4.8,4.8,4.8-2.15,4.8-4.8"/>
    <path class="cls-3" d="M435.93,353.31c0-3.21-2.6-5.81-5.81-5.81s-5.81,2.6-5.81,5.81,2.6,5.81,5.81,5.81,5.81-2.6,5.81-5.81"/>
    <path class="cls-3" d="M437.15,368.36c0-3.88-3.15-7.03-7.03-7.03s-7.03,3.15-7.03,7.03,3.15,7.03,7.03,7.03,7.03-3.15,7.03-7.03"/>
    <path class="cls-3" d="M438.62,382.91c0-4.69-3.81-8.5-8.5-8.5s-8.5,3.81-8.5,8.5,3.81,8.5,8.5,8.5,8.5-3.81,8.5-8.5"/>
    <path class="cls-4" d="M466.49,323.19c0-1.99-1.61-3.61-3.61-3.61s-3.61,1.61-3.61,3.61,1.61,3.61,3.61,3.61,3.61-1.61,3.61-3.61"/>
    <path class="cls-4" d="M467.68,338.25c0-2.65-2.15-4.8-4.8-4.8s-4.8,2.15-4.8,4.8,2.15,4.8,4.8,4.8,4.8-2.15,4.8-4.8"/>
    <path class="cls-4" d="M468.69,353.31c0-3.21-2.6-5.81-5.81-5.81s-5.81,2.6-5.81,5.81,2.6,5.81,5.81,5.81,5.81-2.6,5.81-5.81"/>
    <path class="cls-4" d="M469.91,368.36c0-3.88-3.15-7.03-7.03-7.03s-7.03,3.15-7.03,7.03,3.15,7.03,7.03,7.03,7.03-3.15,7.03-7.03"/>
    <path class="cls-4" d="M471.39,382.91c0-4.69-3.81-8.5-8.5-8.5s-8.5,3.81-8.5,8.5,3.81,8.5,8.5,8.5,8.5-3.81,8.5-8.5"/>
    <path class="cls-4" d="M482.87,323.19c0-1.99-1.61-3.61-3.61-3.61s-3.61,1.61-3.61,3.61,1.61,3.61,3.61,3.61,3.61-1.61,3.61-3.61"/>
    <path class="cls-4" d="M484.07,338.25c0-2.65-2.15-4.8-4.8-4.8s-4.8,2.15-4.8,4.8,2.15,4.8,4.8,4.8,4.8-2.15,4.8-4.8"/>
    <path class="cls-4" d="M485.07,353.31c0-3.21-2.6-5.81-5.81-5.81s-5.81,2.6-5.81,5.81,2.6,5.81,5.81,5.81,5.81-2.6,5.81-5.81"/>
    <path class="cls-4" d="M486.29,368.36c0-3.88-3.15-7.03-7.03-7.03s-7.03,3.15-7.03,7.03,3.15,7.03,7.03,7.03,7.03-3.15,7.03-7.03"/>
    <path class="cls-4" d="M487.77,382.91c0-4.69-3.81-8.5-8.5-8.5s-8.5,3.81-8.5,8.5,3.81,8.5,8.5,8.5,8.5-3.81,8.5-8.5"/>
    <path class="cls-4" d="M457.21,315.68c0-1.39-1.12-2.51-2.51-2.51s-2.51,1.12-2.51,2.51,1.12,2.51,2.51,2.51,2.51-1.12,2.51-2.51"/>
    <path class="cls-4" d="M458.74,330.73c0-2.24-1.81-4.05-4.05-4.05s-4.05,1.81-4.05,4.05,1.81,4.05,4.05,4.05,4.05-1.81,4.05-4.05"/>
    <path class="cls-4" d="M459.59,345.78c0-2.7-2.19-4.9-4.9-4.9s-4.9,2.19-4.9,4.9,2.19,4.9,4.9,4.9,4.9-2.19,4.9-4.9"/>
    <path class="cls-4" d="M461.21,360.83c0-3.6-2.92-6.52-6.52-6.52s-6.52,2.92-6.52,6.52,2.92,6.52,6.52,6.52,6.52-2.92,6.52-6.52"/>
    <path class="cls-4" d="M462.58,375.88c0-4.35-3.53-7.89-7.89-7.89s-7.89,3.53-7.89,7.89,3.53,7.89,7.89,7.89,7.89-3.53,7.89-7.89"/>
    <path class="cls-4" d="M456.33,300.63c0-.9-.73-1.63-1.63-1.63s-1.63.73-1.63,1.63.73,1.63,1.63,1.63,1.63-.73,1.63-1.63"/>
    <path class="cls-4" d="M455.76,285.57c0-.59-.48-1.07-1.07-1.07s-1.07.48-1.07,1.07.48,1.07,1.07,1.07,1.07-.48,1.07-1.07"/>
    <path class="cls-4" d="M448.54,308.15c0-1.12-.91-2.04-2.04-2.04s-2.04.91-2.04,2.04.91,2.04,2.04,2.04,2.04-.91,2.04-2.04"/>
    <path class="cls-4" d="M447.84,293.1c0-.74-.6-1.34-1.33-1.34s-1.34.6-1.34,1.34.6,1.34,1.34,1.34,1.33-.6,1.33-1.34"/>
    <path class="cls-4" d="M447.38,278.05c0-.48-.39-.88-.88-.88s-.88.39-.88.88.39.88.88.88.88-.39.88-.88"/>
    <path class="cls-3" d="M432.16,308.15c0-1.12-.91-2.04-2.04-2.04s-2.04.91-2.04,2.04.91,2.04,2.04,2.04,2.04-.91,2.04-2.04"/>
    <path class="cls-4" d="M464.92,308.15c0-1.12-.91-2.04-2.04-2.04s-2.04.91-2.04,2.04.91,2.04,2.04,2.04,2.04-.91,2.04-2.04"/>
    <path class="cls-4" d="M464.22,293.1c0-.74-.6-1.34-1.33-1.34s-1.34.6-1.34,1.34.6,1.34,1.34,1.34,1.33-.6,1.33-1.34"/>
    <path class="cls-4" d="M463.76,278.05c0-.48-.39-.88-.88-.88s-.88.39-.88.88.39.88.88.88.88-.39.88-.88"/>
    <path class="cls-3" d="M431.46,293.1c0-.74-.6-1.34-1.33-1.34s-1.34.6-1.34,1.34.6,1.34,1.34,1.34,1.33-.6,1.33-1.34"/>
    <path class="cls-3" d="M431,278.05c0-.48-.39-.88-.88-.88s-.88.39-.88.88.39.88.88.88.88-.39.88-.88"/>
    <path class="cls-4" d="M480.6,293.1c0-.74-.6-1.34-1.33-1.34s-1.34.6-1.34,1.34.6,1.34,1.34,1.34,1.33-.6,1.33-1.34"/>
    <path class="cls-4" d="M480.14,278.05c0-.48-.39-.88-.88-.88s-.88.39-.88.88.39.88.88.88.88-.39.88-.88"/>
    <path class="cls-4" d="M481.3,308.15c0-1.12-.91-2.04-2.04-2.04s-2.04.91-2.04,2.04.91,2.04,2.04,2.04,2.04-.91,2.04-2.04"/>
    <path class="cls-4" d="M473.59,315.68c0-1.39-1.12-2.51-2.51-2.51s-2.51,1.12-2.51,2.51,1.12,2.51,2.51,2.51,2.51-1.12,2.51-2.51"/>
    <path class="cls-4" d="M475.08,330.73c0-2.21-1.79-4.01-4.01-4.01s-4.01,1.79-4.01,4.01,1.79,4.01,4.01,4.01,4.01-1.79,4.01-4.01"/>
    <path class="cls-4" d="M475.92,345.78c0-2.68-2.17-4.85-4.85-4.85s-4.85,2.17-4.85,4.85,2.17,4.85,4.85,4.85,4.85-2.17,4.85-4.85"/>
    <path class="cls-4" d="M477.53,360.83c0-3.56-2.89-6.45-6.45-6.45s-6.45,2.89-6.45,6.45,2.89,6.45,6.45,6.45,6.45-2.89,6.45-6.45"/>
    <path class="cls-4" d="M478.88,375.88c0-4.31-3.49-7.81-7.81-7.81s-7.81,3.49-7.81,7.81,3.49,7.81,7.81,7.81,7.81-3.49,7.81-7.81"/>
    <path class="cls-4" d="M472.71,300.63c0-.9-.73-1.63-1.63-1.63s-1.63.73-1.63,1.63.73,1.63,1.63,1.63,1.63-.73,1.63-1.63"/>
    <path class="cls-4" d="M472.15,285.57c0-.59-.48-1.07-1.07-1.07s-1.07.48-1.07,1.07.48,1.07,1.07,1.07,1.07-.48,1.07-1.07"/>
    <path class="cls-4" d="M489.97,315.68c0-1.39-1.12-2.51-2.51-2.51s-2.51,1.12-2.51,2.51,1.12,2.51,2.51,2.51,2.51-1.12,2.51-2.51"/>
    <path class="cls-4" d="M491.5,330.73c0-2.24-1.81-4.05-4.05-4.05s-4.05,1.81-4.05,4.05,1.81,4.05,4.05,4.05,4.05-1.81,4.05-4.05"/>
    <path class="cls-4" d="M492.35,345.78c0-2.7-2.19-4.9-4.9-4.9s-4.9,2.19-4.9,4.9,2.19,4.9,4.9,4.9,4.9-2.19,4.9-4.9"/>
    <path class="cls-4" d="M493.97,360.83c0-3.6-2.92-6.52-6.52-6.52s-6.52,2.92-6.52,6.52,2.92,6.52,6.52,6.52,6.52-2.92,6.52-6.52"/>
    <path class="cls-4" d="M495.34,375.88c0-4.35-3.53-7.89-7.89-7.89s-7.89,3.53-7.89,7.89,3.53,7.89,7.89,7.89,7.89-3.53,7.89-7.89"/>
    <path class="cls-4" d="M489.1,300.63c0-.91-.74-1.65-1.65-1.65s-1.65.74-1.65,1.65.74,1.65,1.65,1.65,1.65-.74,1.65-1.65"/>
    <path class="cls-4" d="M488.43,285.57c0-.54-.44-.97-.97-.97s-.97.44-.97.97.44.97.97.97.97-.44.97-.97"/>
    <path class="cls-4" d="M499.25,323.19c0-1.99-1.61-3.61-3.61-3.61s-3.61,1.61-3.61,3.61,1.61,3.61,3.61,3.61,3.61-1.61,3.61-3.61"/>
    <path class="cls-4" d="M500.45,338.25c0-2.65-2.15-4.8-4.8-4.8s-4.8,2.15-4.8,4.8,2.15,4.8,4.8,4.8,4.8-2.15,4.8-4.8"/>
    <path class="cls-4" d="M501.45,353.31c0-3.21-2.6-5.81-5.81-5.81s-5.81,2.6-5.81,5.81,2.6,5.81,5.81,5.81,5.81-2.6,5.81-5.81"/>
    <path class="cls-4" d="M502.67,368.36c0-3.88-3.15-7.03-7.03-7.03s-7.03,3.15-7.03,7.03,3.15,7.03,7.03,7.03,7.03-3.15,7.03-7.03"/>
    <path class="cls-4" d="M504.15,382.91c0-4.69-3.81-8.5-8.5-8.5s-8.5,3.81-8.5,8.5,3.81,8.5,8.5,8.5,8.5-3.81,8.5-8.5"/>
    <path class="cls-4" d="M483.23,323.19c0-2.19-1.78-3.97-3.97-3.97s-3.97,1.78-3.97,3.97,1.78,3.97,3.97,3.97,3.97-1.78,3.97-3.97"/>
    <path class="cls-4" d="M484.06,338.25c0-2.65-2.15-4.8-4.8-4.8s-4.8,2.15-4.8,4.8,2.15,4.8,4.8,4.8,4.8-2.15,4.8-4.8"/>
    <path class="cls-4" d="M485.07,353.31c0-3.21-2.6-5.81-5.81-5.81s-5.81,2.6-5.81,5.81,2.6,5.81,5.81,5.81,5.81-2.6,5.81-5.81"/>
    <path class="cls-4" d="M486.29,368.36c0-3.88-3.15-7.03-7.03-7.03s-7.03,3.15-7.03,7.03,3.15,7.03,7.03,7.03,7.03-3.15,7.03-7.03"/>
    <path class="cls-4" d="M487.77,382.91c0-4.69-3.81-8.5-8.5-8.5s-8.5,3.81-8.5,8.5,3.81,8.5,8.5,8.5,8.5-3.81,8.5-8.5"/>
    <path class="cls-4" d="M515.63,323.19c0-1.99-1.61-3.61-3.6-3.61s-3.61,1.61-3.61,3.61,1.61,3.61,3.61,3.61,3.6-1.61,3.6-3.61"/>
    <path class="cls-4" d="M516.83,338.25c0-2.65-2.15-4.8-4.8-4.8s-4.8,2.15-4.8,4.8,2.15,4.8,4.8,4.8,4.8-2.15,4.8-4.8"/>
    <path class="cls-4" d="M517.84,353.31c0-3.21-2.6-5.81-5.81-5.81s-5.81,2.6-5.81,5.81,2.6,5.81,5.81,5.81,5.81-2.6,5.81-5.81"/>
    <path class="cls-4" d="M519.05,368.36c0-3.88-3.15-7.03-7.03-7.03s-7.03,3.15-7.03,7.03,3.15,7.03,7.03,7.03,7.03-3.15,7.03-7.03"/>
    <path class="cls-4" d="M520.53,382.91c0-4.69-3.81-8.5-8.5-8.5s-8.5,3.81-8.5,8.5,3.81,8.5,8.5,8.5,8.5-3.81,8.5-8.5"/>
    <path class="cls-4" d="M532.02,323.19c0-1.99-1.61-3.61-3.6-3.61s-3.61,1.61-3.61,3.61,1.61,3.61,3.61,3.61,3.6-1.61,3.6-3.61"/>
    <path class="cls-4" d="M533.21,338.25c0-2.65-2.15-4.8-4.8-4.8s-4.8,2.15-4.8,4.8,2.15,4.8,4.8,4.8,4.8-2.15,4.8-4.8"/>
    <path class="cls-4" d="M534.22,353.31c0-3.21-2.6-5.81-5.81-5.81s-5.81,2.6-5.81,5.81,2.6,5.81,5.81,5.81,5.81-2.6,5.81-5.81"/>
    <path class="cls-4" d="M535.44,368.36c0-3.88-3.15-7.03-7.03-7.03s-7.03,3.15-7.03,7.03,3.15,7.03,7.03,7.03,7.03-3.15,7.03-7.03"/>
    <path class="cls-4" d="M536.91,382.91c0-4.69-3.81-8.5-8.5-8.5s-8.5,3.81-8.5,8.5,3.81,8.5,8.5,8.5,8.5-3.81,8.5-8.5"/>
    <path class="cls-4" d="M506.35,315.68c0-1.39-1.12-2.51-2.51-2.51s-2.51,1.12-2.51,2.51,1.12,2.51,2.51,2.51,2.51-1.12,2.51-2.51"/>
    <path class="cls-4" d="M507.88,330.73c0-2.24-1.81-4.05-4.05-4.05s-4.05,1.81-4.05,4.05,1.81,4.05,4.05,4.05,4.05-1.81,4.05-4.05"/>
    <path class="cls-4" d="M508.73,345.78c0-2.7-2.19-4.9-4.9-4.9s-4.9,2.19-4.9,4.9,2.19,4.9,4.9,4.9,4.9-2.19,4.9-4.9"/>
    <path class="cls-4" d="M510.35,360.83c0-3.6-2.92-6.52-6.52-6.52s-6.52,2.92-6.52,6.52,2.92,6.52,6.52,6.52,6.52-2.92,6.52-6.52"/>
    <path class="cls-4" d="M511.72,375.88c0-4.35-3.53-7.89-7.89-7.89s-7.89,3.53-7.89,7.89,3.53,7.89,7.89,7.89,7.89-3.53,7.89-7.89"/>
    <path class="cls-4" d="M505.47,300.63c0-.9-.73-1.63-1.63-1.63s-1.63.73-1.63,1.63.73,1.63,1.63,1.63,1.63-.73,1.63-1.63"/>
    <path class="cls-4" d="M504.91,285.57c0-.59-.48-1.07-1.07-1.07s-1.07.48-1.07,1.07.48,1.07,1.07,1.07,1.07-.48,1.07-1.07"/>
    <path class="cls-4" d="M497.68,308.15c0-1.12-.91-2.04-2.04-2.04s-2.04.91-2.04,2.04.91,2.04,2.04,2.04,2.04-.91,2.04-2.04"/>
    <path class="cls-4" d="M496.98,293.1c0-.74-.6-1.34-1.33-1.34s-1.34.6-1.34,1.34.6,1.34,1.34,1.34,1.33-.6,1.33-1.34"/>
    <path class="cls-4" d="M496.52,278.05c0-.48-.39-.88-.88-.88s-.88.39-.88.88.39.88.88.88.88-.39.88-.88"/>
    <path class="cls-4" d="M481.3,308.15c0-1.12-.91-2.04-2.04-2.04s-2.04.91-2.04,2.04.91,2.04,2.04,2.04,2.04-.91,2.04-2.04"/>
    <path class="cls-4" d="M514.06,308.15c0-1.12-.91-2.04-2.03-2.04s-2.04.91-2.04,2.04.91,2.04,2.04,2.04,2.03-.91,2.03-2.04"/>
    <path class="cls-4" d="M513.36,293.1c0-.74-.6-1.34-1.34-1.34s-1.34.6-1.34,1.34.6,1.34,1.34,1.34,1.34-.6,1.34-1.34"/>
    <path class="cls-4" d="M512.91,278.05c0-.48-.39-.88-.88-.88s-.88.39-.88.88.39.88.88.88.88-.39.88-.88"/>
    <path class="cls-4" d="M480.6,293.1c0-.74-.6-1.34-1.33-1.34s-1.34.6-1.34,1.34.6,1.34,1.34,1.34,1.33-.6,1.33-1.34"/>
    <path class="cls-4" d="M480.14,278.05c0-.48-.39-.88-.88-.88s-.88.39-.88.88.39.88.88.88.88-.39.88-.88"/>
    <path class="cls-4" d="M529.75,293.1c0-.74-.6-1.34-1.34-1.34s-1.33.6-1.33,1.34.6,1.34,1.33,1.34,1.34-.6,1.34-1.34"/>
    <path class="cls-4" d="M529.29,278.05c0-.48-.39-.88-.88-.88s-.88.39-.88.88.39.88.88.88.88-.39.88-.88"/>
    <path class="cls-4" d="M530.45,308.15c0-1.12-.91-2.04-2.03-2.04s-2.04.91-2.04,2.04.91,2.04,2.04,2.04,2.03-.91,2.03-2.04"/>
    <path class="cls-4" d="M522.73,315.68c0-1.39-1.12-2.51-2.51-2.51s-2.51,1.12-2.51,2.51,1.12,2.51,2.51,2.51,2.51-1.12,2.51-2.51"/>
    <path class="cls-4" d="M524.23,330.73c0-2.21-1.79-4.01-4.01-4.01s-4.01,1.79-4.01,4.01,1.79,4.01,4.01,4.01,4.01-1.79,4.01-4.01"/>
    <path class="cls-4" d="M525.07,345.78c0-2.68-2.17-4.85-4.85-4.85s-4.85,2.17-4.85,4.85,2.17,4.85,4.85,4.85,4.85-2.17,4.85-4.85"/>
    <path class="cls-4" d="M526.67,360.83c0-3.56-2.89-6.45-6.45-6.45s-6.45,2.89-6.45,6.45,2.89,6.45,6.45,6.45,6.45-2.89,6.45-6.45"/>
    <path class="cls-4" d="M528.03,375.88c0-4.31-3.49-7.81-7.81-7.81s-7.81,3.49-7.81,7.81,3.49,7.81,7.81,7.81,7.81-3.49,7.81-7.81"/>
    <path class="cls-4" d="M521.85,300.63c0-.9-.73-1.63-1.63-1.63s-1.63.73-1.63,1.63.73,1.63,1.63,1.63,1.63-.73,1.63-1.63"/>
    <path class="cls-4" d="M521.29,285.57c0-.59-.48-1.07-1.07-1.07s-1.07.48-1.07,1.07.48,1.07,1.07,1.07,1.07-.48,1.07-1.07"/>
  </g>
</svg>