<?xml version="1.0" encoding="UTF-8"?>
<svg id="Calque_1" data-name="Calque 1" xmlns="http://www.w3.org/2000/svg" xmlns:xlink="http://www.w3.org/1999/xlink" viewBox="0 0 616 423">
  <defs>
    <style>
      .cls-1 {
        clip-path: url(#clippath);
      }

      .cls-2, .cls-3 {
        fill: none;
      }

      .cls-2, .cls-4 {
        stroke-width: 0px;
      }

      .cls-5 {
        clip-path: url(#clippath-1);
      }

      .cls-3 {
        stroke: #fff;
        stroke-width: .5px;
      }

      .cls-4 {
        fill: #fff;
      }
    </style>
    <clipPath id="clippath">
      <rect class="cls-2" width="616" height="423"/>
    </clipPath>
    <clipPath id="clippath-1">
      <rect class="cls-2" width="616" height="423"/>
    </clipPath>
  </defs>
  <g class="cls-1">
    <line class="cls-3" x1="602" y1="387.13" x2="14" y2="387.13"/>
    <line class="cls-3" x1="602" y1="408.88" x2="14" y2="408.88"/>
    <line class="cls-3" x1="602" y1="14" x2="14" y2="14"/>
    <g class="cls-5">
      <path class="cls-4" d="M595.54,402.37h1.27v-3.43c0-1.5.79-2.15,1.71-2.15.71,0,1.33.38,1.33,1.54v4.04h1.27v-4.16c0-1.8-.99-2.39-2.27-2.39-.81,0-1.56.24-2.04.89v-3.09h-1.27v8.75ZM593.06,402.37h.89v-.92h-.9c-.5,0-.65-.12-.65-.88v-3.68h1.55v-.92h-1.55v-1.54h-1.27v1.54h-1.15v.92h1.15v3.8c0,1.24.69,1.67,1.94,1.67M583.56,399.18c0-1.48.66-2.38,1.79-2.38s1.85.9,1.85,2.38-.72,2.38-1.85,2.38-1.79-.9-1.79-2.38M587.2,402.37h1.27v-8.75h-1.26v3.2c-.41-.66-1.08-1-2-1-1.8,0-2.99,1.31-2.99,3.35s1.19,3.35,2.99,3.35c.91,0,1.58-.34,1.99-1v.85ZM579.13,394.48c0,.45.38.82.82.82s.82-.38.82-.82-.38-.81-.82-.81-.82.38-.82.81M579.31,402.37h1.27v-6.4h-1.27v6.4ZM570.56,402.37h1.99l.84-5.36h.15l.84,5.36h1.99l1.45-6.4h-1.49l-.81,5.35h-.18l-.82-5.35h-2.1l-.83,5.35h-.17l-.81-5.35h-1.49l1.45,6.4ZM560.71,401.14l2.6-5.28c.24.54.38,1.26.38,2.14,0,2.18-.81,3.35-2.11,3.35-.33,0-.61-.07-.86-.21M559.46,398c0-2.18.81-3.35,2.11-3.35.33,0,.61.08.88.21l-2.6,5.29c-.25-.54-.39-1.26-.39-2.15M561.58,402.52c2.45,0,3.51-2.21,3.51-4.52s-1.06-4.52-3.51-4.52-3.51,2.21-3.51,4.52,1.06,4.52,3.51,4.52M553.21,401.14l2.6-5.28c.24.54.38,1.26.38,2.14,0,2.18-.81,3.35-2.11,3.35-.33,0-.61-.07-.86-.21M551.96,398c0-2.18.81-3.35,2.11-3.35.33,0,.61.08.88.21l-2.6,5.29c-.25-.54-.39-1.26-.39-2.15M554.08,402.52c2.45,0,3.51-2.21,3.51-4.52s-1.06-4.52-3.51-4.52-3.51,2.21-3.51,4.52,1.06,4.52,3.51,4.52M544.05,394.4v1.17h1.9v5.63h-2.01v1.17h5.31v-1.17h-1.9v-7.57h-1.17c0,.69-.24.77-2.12.77M532.93,400.77h4.57l-1.15,1.15h1.15l1.58-1.57-1.58-1.57h-1.15l1.15,1.15h-3.6v-4.7h-.97v5.55ZM521.16,402.37h.89v-.92h-.9c-.5,0-.65-.12-.65-.88v-3.68h1.55v-.92h-1.55v-1.54h-1.27v1.54h-1.15v.92h1.15v3.8c0,1.24.69,1.67,1.94,1.67M511.23,402.37h1.27v-3.43c0-1.5.79-2.15,1.71-2.15.71,0,1.33.38,1.33,1.54v4.04h1.27v-4.16c0-1.8-.99-2.39-2.27-2.39-.81,0-1.56.24-2.04.89v-3.09h-1.27v8.75ZM504.39,399.18c0-1.48.66-2.38,1.79-2.38s1.85.9,1.85,2.38-.73,2.38-1.85,2.38-1.79-.9-1.79-2.38M506.14,405.02c1.79,0,3.16-.77,3.16-3.02v-6.02h-1.27v.84c-.41-.65-1.08-.99-1.99-.99-1.8,0-2.99,1.31-2.99,3.35s1.19,3.35,2.99,3.35c.91,0,1.58-.34,1.99-.99v.46c0,1.65-.64,2.1-1.78,2.1s-1.55-.43-1.74-1.2h-1.27c.21,1.28,1.22,2.12,2.9,2.12M499.95,394.48c0,.45.38.82.82.82s.83-.38.83-.82-.38-.81-.83-.81-.82.38-.82.81M500.14,402.37h1.27v-6.4h-1.27v6.4ZM493.6,398.53c.17-1.15.84-1.78,1.9-1.78,1.24,0,1.75.89,1.74,1.78h-3.64ZM495.48,402.52c1.42,0,2.62-.71,2.9-2.14h-1.27c-.18.66-.68,1.21-1.62,1.21-1.08,0-1.83-.79-1.91-2.15h4.95c.15-2.02-.72-3.62-3.01-3.62-1.8,0-3.23,1.11-3.23,3.35,0,1.93,1.12,3.35,3.2,3.35M483.94,402.37h1.99l.84-5.36h.15l.84,5.36h1.99l1.45-6.4h-1.49l-.81,5.35h-.17l-.83-5.35h-2.1l-.82,5.35h-.18l-.81-5.35h-1.49l1.45,6.4ZM474.09,401.14l2.6-5.28c.24.54.38,1.26.38,2.14,0,2.18-.81,3.35-2.11,3.35-.32,0-.61-.07-.86-.21M472.84,398c0-2.18.81-3.35,2.11-3.35.33,0,.61.08.88.21l-2.6,5.29c-.25-.54-.39-1.26-.39-2.15M474.95,402.52c2.45,0,3.51-2.21,3.51-4.52s-1.06-4.52-3.51-4.52-3.51,2.21-3.51,4.52,1.06,4.52,3.51,4.52M466.59,401.14l2.6-5.28c.24.54.38,1.26.38,2.14,0,2.18-.81,3.35-2.11,3.35-.32,0-.61-.07-.86-.21M465.34,398c0-2.18.81-3.35,2.11-3.35.33,0,.61.08.88.21l-2.6,5.29c-.25-.54-.39-1.26-.39-2.15M467.45,402.52c2.45,0,3.51-2.21,3.51-4.52s-1.06-4.52-3.51-4.52-3.51,2.21-3.51,4.52,1.06,4.52,3.51,4.52M460.44,402.37h1.4v-1.81h1.39v-1.17h-1.39v-2.4h-1.4v2.4h-2.19l3.71-5.76h-1.52l-3.77,5.76v1.17h3.77v1.81ZM446.3,400.77h4.57l-1.15,1.15h1.15l1.58-1.57-1.58-1.57h-1.15l1.15,1.15h-3.6v-4.7h-.97v5.55Z"/>
      <path class="cls-4" d="M148.36,402.37h1.4v-1.81h1.39v-1.17h-1.39v-2.4h-1.4v2.4h-2.19l3.71-5.76h-1.52l-3.78,5.76v1.17h3.78v1.81ZM138.74,401.14l2.6-5.28c.24.54.38,1.26.38,2.14,0,2.18-.81,3.35-2.11,3.35-.32,0-.61-.07-.86-.21M137.49,398c0-2.18.81-3.35,2.11-3.35.32,0,.61.08.88.21l-2.6,5.29c-.25-.54-.39-1.26-.39-2.15M139.6,402.52c2.45,0,3.51-2.21,3.51-4.52s-1.06-4.52-3.51-4.52-3.51,2.21-3.51,4.52,1.06,4.52,3.51,4.52M125.54,402.37h1.27v-3.42c0-1.5.79-2.15,1.71-2.15.71,0,1.33.38,1.33,1.54v4.04h1.27v-4.16c0-1.8-.99-2.39-2.27-2.39-.81,0-1.56.24-2.04.89v-.74h-1.27v6.4ZM119.44,400.63c0-.9,1.21-1.24,2.83-1.24h.12v.23c-.01,1.15-.7,1.86-1.83,1.86-.85,0-1.13-.41-1.13-.85M120.46,402.52c1.1,0,1.6-.44,2.01-.92,0,.2.04.6.09.77h1.24v-.11c-.1-.4-.12-1.16-.12-1.39v-2.54c0-1.71-.95-2.51-2.6-2.51-1.5,0-2.5.66-2.62,2.05h1.27c.12-.63.5-1.09,1.4-1.09.97,0,1.29.54,1.27,1.46v.26h-.15c-2.71,0-4.09.77-4.09,2.16,0,1.21.95,1.85,2.3,1.85M115.31,402.37h1.27v-8.75h-1.27v8.75ZM108.7,399.18c0-1.48.72-2.38,1.85-2.38s1.79.9,1.79,2.38-.66,2.38-1.79,2.38-1.85-.9-1.85-2.38M107.42,404.87h1.26v-3.35c.41.66,1.08,1,2,1,1.8,0,2.99-1.31,2.99-3.35s-1.19-3.35-2.99-3.35c-.91,0-1.58.34-1.99,1v-.85h-1.27v8.9ZM100.16,402.37h1.27v-2.98h.57l2.43,2.98h1.54l-3.06-3.69,2.89-2.71h-1.62l-2.29,2.25h-.45v-4.6h-1.27v8.75ZM95.09,402.37h1.27v-3.4c0-1.34.61-1.84,1.57-1.84h.7v-1.16h-.6c-.79,0-1.34.37-1.67,1.11v-1.11h-1.27v6.4ZM88.22,399.18c0-1.49.72-2.38,1.95-2.38s1.95.89,1.95,2.38-.73,2.38-1.95,2.38-1.95-.89-1.95-2.38M90.17,402.52c1.94,0,3.29-1.37,3.29-3.35s-1.35-3.35-3.29-3.35-3.29,1.37-3.29,3.35,1.35,3.35,3.29,3.35M76.87,402.37h2.41l1.15-7.57h.2l1.15,7.57h2.41l1.97-8.75h-1.5l-1.53,7.56h-.2l-1.29-7.56h-2.25l-1.29,7.56h-.2l-1.53-7.56h-1.5l1.97,8.75ZM65.26,399.18c0-1.48.66-2.38,1.79-2.38s1.85.9,1.85,2.38-.73,2.38-1.85,2.38-1.79-.9-1.79-2.38M68.9,402.37h1.27v-8.75h-1.26v3.2c-.41-.66-1.07-1-2-1-1.8,0-2.99,1.31-2.99,3.35s1.19,3.35,2.99,3.35c.91,0,1.58-.34,1.99-1v.85ZM56.74,402.37h1.27v-3.42c0-1.5.79-2.15,1.71-2.15.71,0,1.33.38,1.33,1.54v4.04h1.27v-4.16c0-1.8-.99-2.39-2.27-2.39-.81,0-1.56.24-2.04.89v-.74h-1.27v6.4ZM50.64,400.63c0-.9,1.21-1.24,2.83-1.24h.12v.23c-.01,1.15-.7,1.86-1.83,1.86-.85,0-1.12-.41-1.12-.85M51.66,402.52c1.1,0,1.6-.44,2.01-.92,0,.2.04.6.09.77h1.24v-.11c-.1-.4-.12-1.16-.12-1.39v-2.54c0-1.71-.95-2.51-2.6-2.51-1.5,0-2.5.66-2.62,2.05h1.27c.13-.63.5-1.09,1.4-1.09.98,0,1.29.54,1.28,1.46v.26h-.15c-2.71,0-4.09.77-4.09,2.16,0,1.21.95,1.85,2.3,1.85M46.51,402.37h1.27v-8.75h-1.27v8.75ZM39.67,397.24v-2.44h2.39c.75,0,1.26.5,1.26,1.2s-.54,1.24-1.26,1.24h-2.39ZM39.67,401.2v-2.79h2.39c.84,0,1.46.48,1.46,1.4s-.66,1.39-1.38,1.39h-2.48ZM38.28,402.37h3.56c1.65,0,3.09-.67,3.09-2.56,0-1.12-.75-1.81-1.49-1.99.62-.19,1.29-.86,1.29-1.83,0-1.62-1.41-2.37-2.77-2.37h-3.67v8.75ZM27.34,402.37h1.4v-3.8h4.18v-1.17h-4.18v-2.6h4.8v-1.17h-6.2v8.75ZM14.96,402.37h1.4v-3.22l-.05-4.48h.2l2.48,7.7h2.15l2.5-7.7h.18l-.05,4.48v3.22h1.4v-8.75h-2.55l-2.55,8-2.52-8h-2.57v8.75Z"/>
      <path class="cls-4" d="M343.59,327.14c0-14.19,6.27-24.75,39.27-29.04,22.77-2.97,31.35-5.61,35.97-9.9v16.5c0,33.66-22.77,48.84-46.86,48.84-18.15,0-28.38-9.57-28.38-26.4M367.35,377.96c24.09,0,42.9-7.59,51.48-21.12v17.16h33.66v-110.88c0-42.9-28.71-62.04-68.97-62.04-29.37,0-68.64,12.87-68.64,49.5,0,3.63.33,7.26,1.65,11.22l33.33,3.3c-.99-2.97-1.32-5.61-1.32-8.25,0-16.5,8.58-31.35,35.31-31.35,19.47,0,34.98,7.26,34.98,29.37,0,13.53-7.59,17.49-39.93,20.13-50.49,4.29-68.97,21.45-68.97,52.14s23.43,50.82,57.42,50.82"/>
      <path class="cls-4" d="M36.68,60.68v-23.4h22.92c7.2,0,12.12,4.8,12.12,11.52s-5.16,11.88-12.12,11.88h-22.92ZM36.68,98.72v-26.76h22.92c8.04,0,14.04,4.56,14.04,13.44s-6.36,13.32-13.2,13.32h-23.76ZM23.24,110h34.2c15.84,0,29.64-6.48,29.64-24.6,0-10.8-7.2-17.4-14.28-19.08,6-1.8,12.36-8.28,12.36-17.52,0-15.6-13.56-22.8-26.64-22.8H23.24v84Z"/>
      <path class="cls-4" d="M545.6,79.28c0-14.16,6.36-22.8,17.16-22.8s17.76,8.64,17.76,22.8-6.96,22.8-17.76,22.8-17.16-8.64-17.16-22.8M580.52,110h12.24V26h-12.12v30.72c-3.96-6.36-10.32-9.6-19.2-9.6-17.28,0-28.68,12.6-28.68,32.16s11.4,32.16,28.68,32.16c8.76,0,15.12-3.24,19.08-9.6v8.16ZM466.76,110h12.24v-32.88c0-14.4,7.56-20.64,16.44-20.64,6.84,0,12.72,3.6,12.72,14.76v38.76h12.24v-39.96c0-17.28-9.48-22.92-21.84-22.92-7.8,0-15,2.28-19.56,8.52v-7.08h-12.24v61.44ZM412.52,92.96c0-5.16,2.28-9,14.28-10.56,8.28-1.08,11.4-2.04,13.08-3.6v6c0,12.24-8.28,17.76-17.04,17.76-6.6,0-10.32-3.48-10.32-9.6M421.16,111.44c8.76,0,15.6-2.76,18.72-7.68v6.24h12.24v-40.32c0-15.6-10.44-22.56-25.08-22.56-10.68,0-24.96,4.68-24.96,18,0,1.32.12,2.64.6,4.08l12.12,1.2c-.36-1.08-.48-2.04-.48-3,0-6,3.12-11.4,12.84-11.4,7.08,0,12.72,2.64,12.72,10.68,0,4.92-2.76,6.36-14.52,7.32-18.36,1.56-25.08,7.8-25.08,18.96s8.52,18.48,20.88,18.48M375.56,110h12.24V26h-12.24v84Z"/>
      <path class="cls-4" d="M99.32,198h12.24v-84h-12.24v84ZM36.68,148.68v-23.4h22.92c7.2,0,12.12,4.8,12.12,11.52s-5.16,11.88-12.12,11.88h-22.92ZM36.68,186.72v-26.76h22.92c8.04,0,14.04,4.56,14.04,13.44s-6.36,13.32-13.2,13.32h-23.76ZM23.24,198h34.2c15.84,0,29.64-6.48,29.64-24.6,0-10.8-7.2-17.4-14.28-19.08,6-1.8,12.36-8.28,12.36-17.52,0-15.6-13.56-22.8-26.64-22.8H23.24v84Z"/>
      <path class="cls-4" d="M545.6,167.28c0-14.16,6.36-22.8,17.16-22.8s17.76,8.64,17.76,22.8-6.96,22.8-17.76,22.8-17.16-8.64-17.16-22.8M580.52,198h12.24v-84h-12.12v30.72c-3.96-6.36-10.32-9.6-19.2-9.6-17.28,0-28.68,12.6-28.68,32.16s11.4,32.16,28.68,32.16c8.76,0,15.12-3.24,19.08-9.6v8.16ZM466.76,198h12.24v-32.88c0-14.4,7.56-20.64,16.44-20.64,6.84,0,12.72,3.6,12.72,14.76v38.76h12.24v-39.96c0-17.28-9.48-22.92-21.84-22.92-7.8,0-15,2.28-19.56,8.52v-7.08h-12.24v61.44ZM412.52,180.96c0-5.16,2.28-9,14.28-10.56,8.28-1.08,11.4-2.04,13.08-3.6v6c0,12.24-8.28,17.76-17.04,17.76-6.6,0-10.32-3.48-10.32-9.6M421.16,199.44c8.76,0,15.6-2.76,18.72-7.68v6.24h12.24v-40.32c0-15.6-10.44-22.56-25.08-22.56-10.68,0-24.96,4.68-24.96,18,0,1.32.12,2.64.6,4.08l12.12,1.2c-.36-1.08-.48-2.04-.48-3,0-6,3.12-11.4,12.84-11.4,7.08,0,12.72,2.64,12.72,10.68,0,4.92-2.76,6.36-14.52,7.32-18.36,1.56-25.08,7.8-25.08,18.96s8.52,18.48,20.88,18.48"/>
      <path class="cls-4" d="M135.92,269.2c0-8.64,11.64-11.88,27.12-11.88h1.2v2.16c-.12,11.04-6.72,17.88-17.52,17.88-8.16,0-10.8-3.96-10.8-8.16M145.76,287.44c10.56,0,15.36-4.2,19.32-8.88,0,1.92.36,5.76.84,7.44h11.88v-1.08c-.96-3.84-1.2-11.16-1.2-13.32v-24.36c0-16.44-9.12-24.12-24.96-24.12-14.4,0-24,6.36-25.2,19.68h12.24c1.2-6,4.8-10.44,13.44-10.44,9.36,0,12.36,5.16,12.24,14.04v2.52h-1.44c-26.04,0-39.24,7.44-39.24,20.76,0,11.64,9.12,17.76,22.08,17.76M99.32,286h12.24v-84h-12.24v84ZM36.68,236.68v-23.4h22.92c7.2,0,12.12,4.8,12.12,11.52s-5.16,11.88-12.12,11.88h-22.92ZM36.68,274.72v-26.76h22.92c8.04,0,14.04,4.56,14.04,13.44s-6.36,13.32-13.2,13.32h-23.76ZM23.24,286h34.2c15.84,0,29.64-6.48,29.64-24.6,0-10.8-7.2-17.4-14.28-19.08,6-1.8,12.36-8.28,12.36-17.52,0-15.6-13.56-22.8-26.64-22.8H23.24v84Z"/>
      <path class="cls-4" d="M545.6,255.28c0-14.16,6.36-22.8,17.16-22.8s17.76,8.64,17.76,22.8-6.96,22.8-17.76,22.8-17.16-8.64-17.16-22.8M580.52,286h12.24v-84h-12.12v30.72c-3.96-6.36-10.32-9.6-19.2-9.6-17.28,0-28.68,12.6-28.68,32.16s11.4,32.16,28.68,32.16c8.76,0,15.12-3.24,19.08-9.6v8.16ZM466.76,286h12.24v-32.88c0-14.4,7.56-20.64,16.44-20.64,6.84,0,12.72,3.6,12.72,14.76v38.76h12.24v-39.96c0-17.28-9.48-22.92-21.84-22.92-7.8,0-15,2.28-19.56,8.52v-7.08h-12.24v61.44Z"/>
      <path class="cls-4" d="M191.48,374h12.24v-32.88c0-14.4,7.56-20.64,16.44-20.64,6.84,0,12.72,3.6,12.72,14.76v38.76h12.24v-39.96c0-17.28-9.48-22.92-21.84-22.92-7.8,0-15,2.28-19.56,8.52v-7.08h-12.24v61.44ZM135.92,357.2c0-8.64,11.64-11.88,27.12-11.88h1.2v2.16c-.12,11.04-6.72,17.88-17.52,17.88-8.16,0-10.8-3.96-10.8-8.16M145.76,375.44c10.56,0,15.36-4.2,19.32-8.88,0,1.92.36,5.76.84,7.44h11.88v-1.08c-.96-3.84-1.2-11.16-1.2-13.32v-24.36c0-16.44-9.12-24.12-24.96-24.12-14.4,0-24,6.36-25.2,19.68h12.24c1.2-6,4.8-10.44,13.44-10.44,9.36,0,12.36,5.16,12.24,14.04v2.52h-1.44c-26.04,0-39.24,7.44-39.24,20.76,0,11.64,9.12,17.76,22.08,17.76M99.32,374h12.24v-84h-12.24v84ZM36.68,324.68v-23.4h22.92c7.2,0,12.12,4.8,12.12,11.52s-5.16,11.88-12.12,11.88h-22.92ZM36.68,362.72v-26.76h22.92c8.04,0,14.04,4.56,14.04,13.44s-6.36,13.32-13.2,13.32h-23.76ZM23.24,374h34.2c15.84,0,29.64-6.48,29.64-24.6,0-10.8-7.2-17.4-14.28-19.08,6-1.8,12.36-8.28,12.36-17.52,0-15.6-13.56-22.8-26.64-22.8H23.24v84Z"/>
      <path class="cls-4" d="M545.6,343.28c0-14.16,6.36-22.8,17.16-22.8s17.76,8.64,17.76,22.8-6.96,22.8-17.76,22.8-17.16-8.64-17.16-22.8M580.52,374h12.24v-84h-12.12v30.72c-3.96-6.36-10.32-9.6-19.2-9.6-17.28,0-28.68,12.6-28.68,32.16s11.4,32.16,28.68,32.16c8.76,0,15.12-3.24,19.08-9.6v8.16Z"/>
      <path class="cls-4" d="M164.6,151.8c0-23.76,32.01-32.67,74.58-32.67h3.3v5.94c-.33,30.36-18.48,49.17-48.18,49.17-22.44,0-29.7-10.89-29.7-22.44M191.66,201.96c29.04,0,42.24-11.55,53.13-24.42,0,5.28.99,15.84,2.31,20.46h32.67v-2.97c-2.64-10.56-3.3-30.69-3.3-36.63v-66.99c0-45.21-25.08-66.33-68.64-66.33-39.6,0-66,17.49-69.3,54.12h33.66c3.3-16.5,13.2-28.71,36.96-28.71,25.74,0,33.99,14.19,33.66,38.61v6.93h-3.96c-71.61,0-107.91,20.46-107.91,57.09,0,32.01,25.08,48.84,60.72,48.84"/>
    </g>
  </g>
</svg>