<?xml version="1.0" encoding="utf-8"?>
<!-- Generator: Adobe Illustrator 29.1.0, SVG Export Plug-In . SVG Version: 9.03 Build 55587)  -->
<svg version="1.0" id="Calque_1" xmlns="http://www.w3.org/2000/svg" xmlns:xlink="http://www.w3.org/1999/xlink" x="0px" y="0px"
	 viewBox="0 0 616 423" style="enable-background:new 0 0 616 423;" xml:space="preserve">
<style type="text/css">
	.st0{clip-path:url(#SVGID_00000139286352475559168650000003362782110730757294_);}
	.st1{clip-path:url(#SVGID_00000050633003903878891140000003760459305762637965_);}
	.st2{fill:#FFFFFF;}
	.st3{fill:none;stroke:#FFFFFF;stroke-width:3;}
	.st4{clip-path:url(#SVGID_00000170262541921026279850000015582800081995835839_);}
	.st5{clip-path:url(#SVGID_00000061453887782682750860000000100868022397265807_);}
	.st6{clip-path:url(#SVGID_00000111904634954033307680000010743884018285487791_);}
	.st7{clip-path:url(#SVGID_00000098204498841684839130000016736299838093300384_);}
	.st8{clip-path:url(#SVGID_00000022527973398065832710000001231321214699645317_);}
</style>
<g>
	<defs>
		<rect id="SVGID_1_" width="616" height="423"/>
	</defs>
	<clipPath id="SVGID_00000014632093483136169530000001914697690771168649_">
		<use xlink:href="#SVGID_1_"  style="overflow:visible;"/>
	</clipPath>
	<g style="clip-path:url(#SVGID_00000014632093483136169530000001914697690771168649_);">
		<g>
			<defs>
				<rect id="SVGID_00000166669430603974069940000008256909881709368478_" width="616" height="423"/>
			</defs>
			<clipPath id="SVGID_00000014628471254263935050000013084850006189010099_">
				<use xlink:href="#SVGID_00000166669430603974069940000008256909881709368478_"  style="overflow:visible;"/>
			</clipPath>
			<g style="clip-path:url(#SVGID_00000014628471254263935050000013084850006189010099_);">
				<path class="st2" d="M465.9,78.1c0.2-8.4,0.8-9.6,2.9-9.6c2.5,0,3,1.3,3,9.6H465.9L465.9,78.1z M469.4,136
					c23.9,0,40.1-9.9,40.1-27.1c0-1.7-0.2-3.4-0.5-5h-37.5c0.5,1.8,0.7,3.2,0.7,4.4c0,2.5-1.2,3.5-2.9,3.5c-2.9,0-3.5-1.5-3.7-13.9
					h44.5c0-39.8-8.4-51.9-41.5-51.9c-30.7,0-42.5,12.4-42.5,45S438.2,136,469.4,136 M378,91c0-18.8,0.2-20.8,2.4-20.8
					s2.4,2,2.4,20.8s-0.2,20.8-2.4,20.8S378,109.8,378,91 M338.7,91v76.6h39.1l0.2-40.8c2.2,5.7,8.2,9.2,16.3,9.2
					c19.8,0,27.7-12.8,27.7-45s-11.9-45-42.3-45S338.7,58.8,338.7,91 M288.8,107.8c0-4.2,1.2-6.7,4.7-6.9h1.2v7.1
					c0,4.5-0.8,5.9-2.5,5.9C289.8,113.8,288.8,112.2,288.8,107.8 M291,136c29.2,0,43-8.9,43-28.1V75.2c0-17.8-14.1-29.2-41.3-29.2
					S253,57.4,253,77.6h36.6c0-5,0.5-7.4,2.7-7.4c2.4,0,2.4,2.7,2.4,6.4v4l-3.2,0.2c-30.1,0.8-42,11.3-42,28.7S262.5,136,291,136
					 M205.3,46c-30.4,0-42,12.4-42,45s11.6,45,42,45c28.6,0,42.2-11.3,42.2-35.3h-39.3c0,9.9-0.3,11.1-2.9,11.1
					c-2.4,0-2.7-2-2.7-20.8s0.3-20.8,2.7-20.8c2.5,0,2.9,1.2,2.9,11.1h39.3C247.5,57.2,233.9,46,205.3,46 M118.5,136
					c28.7,0,42-9.2,42-28.4c0-31.6-44.9-22-44.9-33.8c0-2.5,0.8-3.7,2.7-3.7c1.3,0,2.3,0.8,2.3,2.5c0,0.8-0.2,1.7-0.7,2.9l39.3-0.2
					c0.2-1.7,0.3-3.2,0.3-4.7c0-16.8-15.3-24.7-41.5-24.7c-28.4,0-41.8,9.2-41.8,28.6c0,31.9,44.9,23,44.9,34.8
					c0,1.7-0.8,2.5-2.7,2.5c-1.3,0-2-0.8-2-2.3c0-0.8,0.2-2,0.5-3.2H77.5c-0.3,2-0.5,3.5-0.5,5.4C77,128.3,92.8,136,118.5,136
					 M14,134h58.3v-28.2H56.7V87h13.9V58.7H56.7V44.6h15.6V16.4H14V134L14,134z"/>
				<path class="st2" d="M557.8,273.4c29.9,0,41.7-10.6,41.7-37.1h-39.3c0,11.6-0.2,12.9-2.3,12.9s-2.3-1.3-2.3-12.9v-26.7H580
					v-24.2h-24.5v-20.7h-39.3v71.6C516.1,262.8,527.9,273.4,557.8,273.4 M430.1,183.3v88h39v-61.8h22.7v-24.2h-22.7v-2
					c0-6.4,0.3-7.4,2.7-7.4c2.2,0,2.5,1,2.5,7.4h39.3c0-21.2-13.8-31.6-41.8-31.6S430.1,162.2,430.1,183.3 M382.7,160.1
					c0,11.4,9.4,20.7,20.7,20.7s20.7-9.2,20.7-20.7s-9.2-20.3-20.7-20.3S382.7,149.2,382.7,160.1 M383.7,271.4H423v-86h-39.3V271.4z
					 M293,271.4h39.3v-51.1c0-8.6,0-11.1,3-11.1c2.7,0,2.7,2.2,2.7,11.1v51.1h39.3v-52.6c0-29.7-10.6-35.4-25.2-35.4
					c-8.9,0-15.5,2.2-19.8,7.1v-36.6H293L293,271.4L293,271.4z M244.1,273.4c30.4,0,44.4-11.6,44.4-36.3c0-47-46.7-30.7-46.7-51.7
					c0-4.4,0.3-5.4,2-5.4c1.2,0,2.4,0.5,2.4,3.7c0,1.5-0.3,3.7-0.8,6.7h39.8c0.3-2.7,0.5-5.2,0.5-7.6c0-21.7-13.9-31.1-40.7-31.1
					c-34.1,0-45.9,15.3-45.9,36.8c0,39.5,46.7,29.7,46.7,48.9c0,6.6-0.2,7.7-1.9,7.7c-1.5,0-3.7-0.7-3.7-5.7c0-1.7,0.3-4,1-7.1
					h-41.5c-0.3,2.7-0.5,5.2-0.5,7.6C199.3,266,219.8,273.4,244.1,273.4"/>
				<path class="st2" d="M160.8,38.2c2,0,3-1.2,3-2.5c0-1.3-0.7-1.8-1.7-2c0.9-0.3,1.6-1,1.6-2c0-1.3-0.9-2.5-2.8-2.5
					c-1.7,0-2.7,1.3-2.7,2.6h1.4c0-0.9,0.5-1.4,1.3-1.4c0.9,0,1.4,0.4,1.4,1.3c0,1.1-0.8,1.4-1.4,1.4h-0.6v1.2h0.6
					c0.6,0,1.5,0.3,1.5,1.5c0,0.8-0.5,1.3-1.6,1.3c-1,0-1.6-0.7-1.6-1.5h-1.4C157.9,37.1,159,38.1,160.8,38.2 M151.9,36.8l2.6-5.3
					c0.2,0.5,0.4,1.3,0.4,2.1c0,2.2-0.8,3.3-2.1,3.3C152.4,37,152.1,36.9,151.9,36.8 M150.6,33.6c0-2.2,0.8-3.4,2.1-3.4
					c0.3,0,0.6,0.1,0.9,0.2l-2.6,5.3C150.7,35.2,150.6,34.5,150.6,33.6 M152.7,38.2c2.4,0,3.5-2.2,3.5-4.5s-1.1-4.5-3.5-4.5
					s-3.5,2.2-3.5,4.5S150.3,38.2,152.7,38.2 M138.6,38h1.3v-3.4c0-1.5,0.8-2.2,1.7-2.2c0.7,0,1.3,0.4,1.3,1.5v4h1.3v-4.2
					c0-1.8-1-2.4-2.3-2.4c-0.8,0-1.6,0.2-2,0.9v-0.7h-1.3L138.6,38L138.6,38z M132.6,36.2c0-0.9,1.2-1.2,2.8-1.2h0.1v0.2
					c0,1.2-0.7,1.9-1.8,1.9C132.8,37.1,132.6,36.7,132.6,36.2 M133.6,38.2c1.1,0,1.6-0.4,2-0.9c0,0.2,0,0.6,0.1,0.8h1.2v-0.1
					c-0.1-0.4-0.1-1.2-0.1-1.4V34c0-1.7-0.9-2.5-2.6-2.5c-1.5,0-2.5,0.7-2.6,2.1h1.3c0.1-0.6,0.5-1.1,1.4-1.1c1,0,1.3,0.5,1.3,1.5
					v0.3h-0.1c-2.7,0-4.1,0.8-4.1,2.2C131.3,37.5,132.2,38.1,133.6,38.2 M128.4,38h1.3v-8.8h-1.3V38z M121.8,34.8
					c0-1.5,0.7-2.4,1.8-2.4s1.8,0.9,1.8,2.4s-0.7,2.4-1.8,2.4S121.8,36.3,121.8,34.8 M120.5,40.5h1.3v-3.3c0.4,0.7,1.1,1,2,1
					c1.8,0,3-1.3,3-3.3s-1.2-3.4-3-3.4c-0.9,0-1.6,0.3-2,1v-0.9h-1.3C120.5,31.6,120.5,40.5,120.5,40.5z M113.3,38h1.3v-3h0.6l2.4,3
					h1.5l-3.1-3.7l2.9-2.7h-1.6l-2.3,2.2h-0.4v-4.6h-1.3L113.3,38L113.3,38z M108.2,38h1.3v-3.4c0-1.3,0.6-1.8,1.6-1.8h0.7v-1.2
					h-0.6c-0.8,0-1.3,0.4-1.7,1.1v-1.1h-1.3L108.2,38L108.2,38z M101.3,34.8c0-1.5,0.7-2.4,1.9-2.4s1.9,0.9,1.9,2.4
					s-0.7,2.4-1.9,2.4S101.3,36.3,101.3,34.8 M103.3,38.2c1.9,0,3.3-1.4,3.3-3.3s-1.3-3.4-3.3-3.4s-3.3,1.4-3.3,3.4
					S101.3,38.2,103.3,38.2 M90,38h2.4l1.2-7.6h0.2l1.2,7.6h2.4l2-8.8h-1.5l-1.5,7.6h-0.2l-1.3-7.6h-2.2l-1.3,7.6H91l-1.5-7.6H88
					L90,38L90,38z"/>
				<path class="st2" d="M138.8,22.8c0-1.5,0.7-2.4,1.8-2.4s1.9,0.9,1.9,2.4s-0.7,2.4-1.9,2.4S138.8,24.3,138.8,22.8 M142.4,26h1.3
					v-8.8h-1.3v3.2c-0.4-0.7-1.1-1-2-1c-1.8,0-3,1.3-3,3.4s1.2,3.4,3,3.4c0.9,0,1.6-0.3,2-1L142.4,26L142.4,26z M130.2,26h1.3v-3.4
					c0-1.5,0.8-2.1,1.7-2.1c0.7,0,1.3,0.4,1.3,1.5v4h1.3v-4.2c0-1.8-1-2.4-2.3-2.4c-0.8,0-1.6,0.2-2,0.9v-0.7h-1.3L130.2,26
					L130.2,26z M124.1,24.2c0-0.9,1.2-1.2,2.8-1.2h0.1v0.2c0,1.1-0.7,1.9-1.8,1.9C124.4,25.1,124.1,24.7,124.1,24.2 M125.2,26.1
					c1.1,0,1.6-0.4,2-0.9c0,0.2,0,0.6,0.1,0.8h1.2v-0.1c-0.1-0.4-0.1-1.2-0.1-1.4V22c0-1.7-0.9-2.5-2.6-2.5c-1.5,0-2.5,0.7-2.6,2
					h1.3c0.1-0.6,0.5-1.1,1.4-1.1c1,0,1.3,0.5,1.3,1.5v0.3H127c-2.7,0-4.1,0.8-4.1,2.2C122.9,25.5,123.8,26.1,125.2,26.1 M120,26
					h1.3v-8.8H120V26z M113.2,20.9v-2.4h2.4c0.8,0,1.3,0.5,1.3,1.2s-0.5,1.2-1.3,1.2H113.2z M113.2,24.8V22h2.4
					c0.8,0,1.5,0.5,1.5,1.4s-0.7,1.4-1.4,1.4H113.2L113.2,24.8z M111.8,26h3.6c1.7,0,3.1-0.7,3.1-2.6c0-1.1-0.8-1.8-1.5-2
					c0.6-0.2,1.3-0.9,1.3-1.8c0-1.6-1.4-2.4-2.8-2.4h-3.7L111.8,26L111.8,26z M100.8,26h1.4v-3.8h4.2V21h-4.2v-2.6h4.8v-1.2h-6.2
					L100.8,26L100.8,26z M88.5,26h1.4v-3.2l-0.1-4.5H90l2.5,7.7h2.2l2.5-7.7h0.2l-0.1,4.5V26h1.4v-8.8h-2.6l-2.6,8l-2.5-8h-2.6
					C88.5,17.2,88.5,26,88.5,26z"/>
				<path class="st2" d="M347,38.2c1.3,0,2.6-0.7,2.6-1.9c0-2.6-4-1.4-4-3c0-0.4,0.3-0.9,1.1-0.9c1,0,1.4,0.5,1.5,1.1h1.3
					c-0.2-1.3-1.4-2-2.8-2s-2.4,0.7-2.4,1.9c0,2.6,4,1.4,4,3c0,0.6-0.5,0.9-1.3,0.9c-1.2,0-1.5-0.7-1.6-1.2h-1.3
					C344.4,37.4,345.5,38.2,347,38.2 M339.7,38.2c1.6,0,3.1-0.8,3.1-2.4c0-3.4-5-2-5-4.2c0-0.9,0.7-1.2,1.5-1.2c1,0,1.8,0.4,1.9,1.8
					h1.4c-0.2-1.8-1.1-3-3.2-3c-1.6,0-3,1-3,2.4c0,3.4,5,2.1,5,4.2c0,0.7-0.5,1.2-1.7,1.2c-1.5,0-1.9-0.8-2.1-2h-1.4
					C336.3,36.9,337.5,38.2,339.7,38.2 M325,34.6h6.6l-2.3,2.2h1.4l2.8-2.8l-2.8-2.8h-1.4l2.3,2.2H325V34.6L325,34.6z M316.7,30v1.2
					h1.9v5.6h-2V38h5.3v-1.2H320v-7.6h-1.2C318.8,29.9,318.6,30,316.7,30 M310.9,36.8l2.6-5.3c0.2,0.5,0.4,1.3,0.4,2.1
					c0,2.2-0.8,3.3-2.1,3.3C311.4,37,311.1,36.9,310.9,36.8 M309.6,33.6c0-2.2,0.8-3.4,2.1-3.4c0.3,0,0.6,0.1,0.9,0.2l-2.6,5.3
					C309.7,35.2,309.6,34.5,309.6,33.6 M311.7,38.2c2.5,0,3.5-2.2,3.5-4.5s-1.1-4.5-3.5-4.5s-3.5,2.2-3.5,4.5S309.3,38.2,311.7,38.2
					 M304.7,38.2c1.3,0,2.6-0.7,2.6-1.9c0-2.6-4-1.4-4-3c0-0.4,0.3-0.9,1.1-0.9c1,0,1.4,0.5,1.5,1.1h1.3c-0.2-1.3-1.4-2-2.8-2
					s-2.4,0.7-2.4,1.9c0,2.6,4,1.4,4,3c0,0.6-0.5,0.9-1.3,0.9c-1.2,0-1.5-0.7-1.6-1.2h-1.3C302.1,37.4,303.2,38.2,304.7,38.2
					 M297.4,38.2c1.6,0,3.1-0.8,3.1-2.4c0-3.4-5-2-5-4.2c0-0.9,0.7-1.2,1.5-1.2c1,0,1.8,0.4,1.9,1.8h1.4c-0.2-1.8-1.1-3-3.2-3
					c-1.6,0-3,1-3,2.4c0,3.4,5,2.1,5,4.2c0,0.7-0.5,1.2-1.7,1.2c-1.5,0-1.9-0.8-2.1-2h-1.4C294,36.9,295.2,38.2,297.4,38.2"/>
				<path class="st2" d="M351.9,22.1c0.2-1.1,0.8-1.8,1.9-1.8c1.2,0,1.8,0.9,1.7,1.8H351.9L351.9,22.1z M353.8,26.1
					c1.4,0,2.6-0.7,2.9-2.1h-1.3c-0.2,0.7-0.7,1.2-1.6,1.2c-1.1,0-1.8-0.8-1.9-2.1h5c0.1-2-0.7-3.6-3-3.6c-1.8,0-3.2,1.1-3.2,3.4
					C350.6,24.7,351.7,26.2,353.8,26.1 M344.1,22.8c0-1.5,0.7-2.4,1.9-2.4s1.8,0.9,1.8,2.4s-0.7,2.4-1.8,2.4S344.1,24.3,344.1,22.8
					 M342.9,28.5h1.3v-3.4c0.4,0.7,1.1,1,2,1c1.8,0,3-1.3,3-3.4s-1.2-3.4-3-3.4c-0.9,0-1.6,0.3-2,1v-0.9h-1.3L342.9,28.5L342.9,28.5
					z M337.3,26h0.7l-0.9,2.5h1.3l3-8.9H340l-1.6,5.3h-0.2l-1.6-5.3h-1.4L337.3,26L337.3,26z M333.1,26h0.9v-0.9h-0.9
					c-0.5,0-0.6-0.1-0.6-0.9v-3.7h1.5v-0.9h-1.5v-1.5h-1.3v1.5h-1.1v0.9h1.1v3.8C331.2,25.6,331.9,26,333.1,26 M319.8,26h1.3v-3.4
					c0-1.5,0.8-2.1,1.7-2.1c0.7,0,1.3,0.4,1.3,1.5v4h1.3v-4.2c0-1.8-1-2.4-2.3-2.4c-0.8,0-1.6,0.2-2,0.9v-0.7h-1.3L319.8,26
					L319.8,26z M313.3,22.1c0.2-1.1,0.8-1.8,1.9-1.8c1.2,0,1.8,0.9,1.7,1.8H313.3L313.3,22.1z M315.1,26.1c1.4,0,2.6-0.7,2.9-2.1
					h-1.3c-0.2,0.7-0.7,1.2-1.6,1.2c-1.1,0-1.8-0.8-1.9-2.1h5c0.1-2-0.7-3.6-3-3.6c-1.8,0-3.2,1.1-3.2,3.4
					C312,24.7,313.1,26.2,315.1,26.1 M305.5,22.8c0-1.5,0.7-2.4,1.9-2.4s1.8,0.9,1.8,2.4s-0.7,2.4-1.8,2.4S305.5,24.3,305.5,22.8
					 M304.2,28.5h1.3v-3.4c0.4,0.7,1.1,1,2,1c1.8,0,3-1.3,3-3.4s-1.2-3.4-3-3.4c-0.9,0-1.6,0.3-2,1v-0.9h-1.3L304.2,28.5L304.2,28.5
					z M295.3,21.6c0-2.4,1.5-3.4,2.9-3.4s2.9,1,2.9,3.4s-1.5,3.4-2.9,3.4S295.3,24,295.3,21.6 M298.2,26.1c2.6,0,4.3-2,4.3-4.5
					s-1.7-4.5-4.3-4.5s-4.3,2-4.3,4.5S295.6,26.1,298.2,26.1"/>
				<path class="st2" d="M262.3,38.2c1.3,0,2.6-0.7,2.6-1.9c0-2.6-4-1.4-4-3c0-0.4,0.3-0.9,1.1-0.9c1,0,1.4,0.5,1.5,1.1h1.3
					c-0.2-1.3-1.4-2-2.8-2s-2.4,0.7-2.4,1.9c0,2.6,4,1.4,4,3c0,0.6-0.5,0.9-1.3,0.9c-1.2,0-1.5-0.7-1.6-1.2h-1.3
					C259.7,37.4,260.8,38.2,262.3,38.2 M253.3,34.2c0.2-1.2,0.8-1.8,1.9-1.8c1.2,0,1.8,0.9,1.7,1.8H253.3L253.3,34.2z M255.2,38.2
					c1.4,0,2.6-0.7,2.9-2.1h-1.3c-0.2,0.7-0.7,1.2-1.6,1.2c-1.1,0-1.8-0.8-1.9-2.2h5c0.1-2-0.7-3.6-3-3.6c-1.8,0-3.2,1.1-3.2,3.3
					C252,36.7,253.1,38.1,255.2,38.2 M249.1,38h1.3v-8.8h-1.3V38z M243.5,38h0.7l-0.9,2.5h1.3l3-8.9h-1.4l-1.6,5.3h-0.2l-1.6-5.3
					h-1.4L243.5,38L243.5,38z M239.3,38h0.9v-0.9h-0.9c-0.5,0-0.6-0.1-0.6-0.9v-3.7h1.6v-0.9h-1.6v-1.5h-1.3v1.5h-1.1v0.9h1.1v3.8
					C237.4,37.6,238.1,38,239.3,38 M232.6,38.2c1.3,0,2.6-0.7,2.6-1.9c0-2.6-4-1.4-4-3c0-0.4,0.3-0.9,1.1-0.9c1,0,1.4,0.5,1.5,1.1
					h1.3c-0.2-1.3-1.4-2-2.8-2s-2.4,0.7-2.4,1.9c0,2.6,4,1.4,4,3c0,0.6-0.5,0.9-1.3,0.9c-1.2,0-1.4-0.7-1.6-1.2h-1.3
					C230,37.4,231.1,38.2,232.6,38.2 M215.5,36.8l2.6-5.3c0.2,0.5,0.4,1.3,0.4,2.1c0,2.2-0.8,3.3-2.1,3.3
					C216,37,215.8,36.9,215.5,36.8 M214.2,33.6c0-2.2,0.8-3.4,2.1-3.4c0.3,0,0.6,0.1,0.9,0.2l-2.6,5.3
					C214.4,35.2,214.2,34.5,214.2,33.6 M216.4,38.2c2.4,0,3.5-2.2,3.5-4.5s-1.1-4.5-3.5-4.5s-3.5,2.2-3.5,4.5S213.9,38.2,216.4,38.2
					 M207.1,32.1c0-1,0.6-1.8,1.7-1.8s1.7,0.7,1.7,1.8c0,0.8-0.6,1.6-1.7,1.6S207.1,32.9,207.1,32.1 M208.8,29.1
					c-1.7,0-3.1,1.2-3.1,3c0,1.8,1.2,2.8,2.8,2.8c1.1,0,1.7-0.4,2-0.8c0,1.5-0.6,2.9-1.9,2.9c-0.7,0-1.2-0.3-1.4-1.2h-1.4
					c0.2,1.6,1.2,2.3,2.8,2.3c2.7,0,3.3-2.7,3.3-5C211.9,31,211.2,29.1,208.8,29.1"/>
				<path class="st2" d="M252.5,26.1c1.3,0,2.6-0.7,2.6-1.9c0-2.6-4-1.4-4-3c0-0.4,0.3-0.9,1.1-0.9c1,0,1.4,0.5,1.5,1.1h1.3
					c-0.2-1.3-1.4-2-2.8-2s-2.4,0.8-2.4,1.9c0,2.6,4,1.4,4,3c0,0.6-0.5,0.9-1.3,0.9c-1.2,0-1.4-0.7-1.6-1.2h-1.3
					C249.8,25.4,251,26.2,252.5,26.1 M247.6,26h0.9v-0.9h-0.9c-0.5,0-0.6-0.1-0.6-0.9v-3.7h1.6v-0.9H247v-1.5h-1.3v1.5h-1.1v0.9h1.1
					v3.8C245.7,25.6,246.4,26,247.6,26 M240.4,26.1c1.5,0,2.7-0.6,2.7-2.7v-3.8h-1.3v3.8c0,1.4-0.7,1.8-1.4,1.8s-1.4-0.4-1.4-1.8
					v-3.8h-1.3v3.8C237.7,25.5,238.9,26.1,240.4,26.1 M233.2,19.5c-2,0-3.4,1.4-3.4,3.4s1.3,3.4,3.4,3.4c1.6,0,2.8-0.9,3-2.4h-1.3
					c-0.1,0.9-0.8,1.5-1.7,1.5c-1.4,0-2.1-1-2.1-2.4s0.7-2.4,2.1-2.4c1,0,1.6,0.6,1.7,1.5h1.3C236,20.4,234.9,19.4,233.2,19.5
					 M214.6,20.1c0-1,0.6-1.8,1.7-1.8s1.7,0.7,1.7,1.8c0,0.9-0.6,1.6-1.7,1.6S214.6,20.9,214.6,20.1 M216.3,17.1
					c-1.7,0-3.1,1.2-3.1,3s1.2,2.8,2.8,2.8c1.1,0,1.7-0.4,2-0.8c0,1.5-0.6,2.9-1.9,2.9c-0.7,0-1.2-0.4-1.4-1.2h-1.4
					c0.2,1.6,1.2,2.4,2.8,2.4c2.7,0,3.3-2.7,3.3-5.1C219.5,19,218.7,17.1,216.3,17.1 M208,24.8l2.6-5.3c0.2,0.5,0.4,1.3,0.4,2.1
					c0,2.2-0.8,3.4-2.1,3.4C208.5,25,208.3,24.9,208,24.8 M206.7,21.6c0-2.2,0.8-3.4,2.1-3.4c0.3,0,0.6,0.1,0.9,0.2l-2.6,5.3
					C206.9,23.2,206.7,22.5,206.7,21.6 M208.9,26.1c2.4,0,3.5-2.2,3.5-4.5s-1.1-4.5-3.5-4.5s-3.5,2.2-3.5,4.5S206.4,26.1,208.9,26.1
					"/>
			</g>
		</g>
		<rect x="522.7" y="15.5" class="st3" width="77.8" height="125"/>
		<g>
			<defs>
				<rect id="SVGID_00000086654874459105238820000017665743679866406544_" width="616" height="423"/>
			</defs>
			<clipPath id="SVGID_00000073687570157483234660000001249309684416335505_">
				<use xlink:href="#SVGID_00000086654874459105238820000017665743679866406544_"  style="overflow:visible;"/>
			</clipPath>
			<g style="clip-path:url(#SVGID_00000073687570157483234660000001249309684416335505_);">
				<path class="st2" d="M154.2,399.9c0-1.5,0.4-2.3,1.6-2.4h0.4v2.4c0,1.6-0.2,2-0.8,2C154.6,402,154.2,401.4,154.2,399.9
					 M149.4,409.7c3.4,0,6.4-1.2,7.2-3.4c0,0.9,0.1,1.8,0.4,2.7h13.2v-0.2c-0.4-2-0.4-4.2-0.4-6.3v-13.8c0-6.1-4.9-10.1-14.3-10.1
					s-13.7,3.9-13.7,10.9h12.6c0-1.7,0.2-2.5,0.9-2.5s0.8,0.9,0.8,2.2v1.4l-1.1,0.1c-10.4,0.3-14.5,3.6-14.5,10.4
					C140.6,407.1,144.4,409.7,149.4,409.7 M122.8,394.1c0-6.5,0.1-7.2,1-7.2c0.8,0,1,0.5,1.1,3.4v7.5c-0.1,3-0.3,3.4-1.1,3.4
					C122.9,401.3,122.8,400.6,122.8,394.1 M124.9,409h13.6v-29.7h-13.6v3.1c-1.5-2.6-3.8-3.8-7.1-3.8c-6.4,0-8.6,4.4-8.6,15.5
					s2.2,15.5,8.6,15.5c3.3,0,5.6-1.2,7.1-3.8L124.9,409L124.9,409z M91.4,399.9c0-1.5,0.4-2.3,1.6-2.4h0.4v2.4c0,1.6-0.3,2-0.9,2
					C91.8,402,91.4,401.4,91.4,399.9 M92.2,409.7c10.1,0,14.8-3.1,14.8-9.7v-11.3c0-6.1-4.9-10.1-14.3-10.1s-13.7,3.9-13.7,10.9
					h12.6c0-1.7,0.2-2.5,0.9-2.5c0.8,0,0.8,0.9,0.8,2.2v1.4l-1.1,0.1c-10.4,0.3-14.5,3.9-14.5,9.9S82.3,409.7,92.2,409.7"/>
				<path class="st2" d="M523.4,409.7c9.9,0,14.5-3.2,14.5-9.8c0-10.9-15.5-7.6-15.5-11.7c0-0.9,0.3-1.3,0.9-1.3
					c0.5,0,0.8,0.3,0.8,0.9c0,0.3-0.1,0.6-0.2,1l13.6-0.1c0.1-0.6,0.1-1.1,0.1-1.6c0-5.8-5.3-8.5-14.3-8.5c-9.8,0-14.4,3.2-14.4,9.9
					c0,11,15.5,8,15.5,12c0,0.6-0.3,0.9-0.9,0.9c-0.5,0-0.7-0.3-0.7-0.8c0-0.3,0.1-0.7,0.2-1.1h-13.6c-0.1,0.7-0.2,1.2-0.2,1.9
					C509.1,407,514.5,409.7,523.4,409.7 M492.5,409.7c9.9,0,14.4-3.1,14.5-9.7c0.1-11-15.5-7.7-15.5-11.8c0-0.9,0.3-1.3,0.9-1.3
					s0.9,0.6,0.9,1.9l13.6-0.1c0-6.9-4.7-10.1-14.6-10.1s-14.4,3.2-14.4,9.9c0,11,15.5,8,15.5,12c0,0.6-0.3,0.9-0.9,0.9
					s-0.9-0.6-0.9-1.8H478C478,406.5,482.7,409.7,492.5,409.7 M460.8,389.7c0.1-2.9,0.3-3.3,1-3.3c0.9,0,1,0.5,1,3.3H460.8z
					 M462.1,409.7c8.2,0,13.9-3.4,13.9-9.3c0-0.6-0.1-1.2-0.2-1.7h-12.9c0.2,0.6,0.2,1.1,0.2,1.5c0,0.9-0.4,1.2-1,1.2
					c-1,0-1.2-0.5-1.3-4.8h15.4c0-13.8-2.9-17.9-14.3-17.9c-10.6,0-14.7,4.3-14.7,15.5S451.3,409.7,462.1,409.7 M429.9,389.7
					c0.1-2.9,0.3-3.3,1-3.3c0.9,0,1,0.5,1,3.3H429.9z M431.1,409.7c9,0,14.1-4.1,14.1-11.1h-13c0,2-0.3,2.7-1.2,2.7
					c-1,0-1.3-0.5-1.3-4.8h15.4c0-13.8-2.9-17.9-14.3-17.9c-10.6,0-14.7,4.3-14.7,15.5S420.4,409.7,431.1,409.7"/>
			</g>
		</g>
		<line class="st3" x1="528.1" y1="24.8" x2="595.2" y2="131.2"/>
		<line class="st3" x1="595.2" y1="24.8" x2="528.1" y2="131.2"/>
		<g>
			<defs>
				<rect id="SVGID_00000134946098476349041960000011031278878563516551_" width="616" height="423"/>
			</defs>
			<clipPath id="SVGID_00000073718058052253584690000015596363857225898403_">
				<use xlink:href="#SVGID_00000134946098476349041960000011031278878563516551_"  style="overflow:visible;"/>
			</clipPath>
			<g style="clip-path:url(#SVGID_00000073718058052253584690000015596363857225898403_);">
				<path class="st2" d="M452.9,38h1.3v-3.4c0-1.5,0.8-2.2,1.7-2.2c0.7,0,1.3,0.4,1.3,1.5v4h1.3v-4.2c0-1.8-1-2.4-2.3-2.4
					c-0.8,0-1.6,0.2-2,0.9v-3.1h-1.3L452.9,38L452.9,38z M450.3,38h0.9v-0.9h-0.9c-0.5,0-0.6-0.1-0.6-0.9v-3.7h1.5v-0.9h-1.5v-1.5
					h-1.3v1.5h-1.1v0.9h1.1v3.8C448.4,37.6,449.1,38,450.3,38 M440.7,34.8c0-1.5,0.7-2.4,1.8-2.4s1.9,0.9,1.9,2.4s-0.7,2.4-1.9,2.4
					S440.7,36.3,440.7,34.8 M444.4,38h1.3v-8.8h-1.3v3.2c-0.4-0.7-1.1-1-2-1c-1.8,0-3,1.3-3,3.3s1.2,3.3,3,3.3c0.9,0,1.6-0.3,2-1
					L444.4,38L444.4,38z M436.1,30.1c0,0.5,0.4,0.8,0.8,0.8s0.8-0.4,0.8-0.8s-0.4-0.8-0.8-0.8S436.1,29.7,436.1,30.1 M436.3,38h1.3
					v-6.4h-1.3V38z M427.5,38h2l0.8-5.4h0.1l0.8,5.4h2l1.5-6.4h-1.5l-0.8,5.4h-0.2l-0.8-5.4h-2.1l-0.8,5.4h-0.2l-0.8-5.4H426
					L427.5,38L427.5,38z M418.2,38.2c1.8,0,3.2-1.3,3.2-3.2s-1.2-3-2.8-3c-0.9,0-1.4,0.2-1.9,0.8l0.4-2.4h3.6v-1.2H416l-0.8,4.9h1.6
					c0.3-0.7,0.8-1,1.5-1c1.1,0,1.7,0.7,1.7,1.9c0,1.3-0.7,2-1.8,2s-1.8-0.6-1.8-1.6H415C415,37,416.4,38.2,418.2,38.2 M409.1,38
					h1.4c0-3.7,0.7-5.2,3.1-7.6v-1.2h-6v1.2h4.6C410,32.4,409.1,34.6,409.1,38 M396.7,36.4h4.6l-1.1,1.2h1.1l1.6-1.6l-1.6-1.6h-1.1
					l1.1,1.2h-3.6v-4.7h-1V36.4L396.7,36.4z"/>
				<path class="st2" d="M472.9,26h0.9v-0.9h-0.9c-0.5,0-0.6-0.1-0.6-0.9v-3.7h1.5v-0.9h-1.5v-1.5H471v1.5h-1.1v0.9h1.1v3.8
					C471,25.6,471.7,26,472.9,26 M462.9,26h1.3v-3.4c0-1.5,0.8-2.1,1.7-2.1c0.7,0,1.3,0.4,1.3,1.5v4h1.3v-4.2c0-1.8-1-2.4-2.3-2.4
					c-0.8,0-1.6,0.2-2,0.9v-3.1h-1.3L462.9,26L462.9,26z M455.9,22.8c0-1.5,0.7-2.4,1.8-2.4s1.9,0.9,1.9,2.4s-0.7,2.4-1.9,2.4
					S455.9,24.3,455.9,22.8 M457.7,28.6c1.8,0,3.2-0.8,3.2-3v-6h-1.3v0.8c-0.4-0.6-1.1-1-2-1c-1.8,0-3,1.3-3,3.4s1.2,3.4,3,3.4
					c0.9,0,1.6-0.3,2-1v0.5c0,1.6-0.6,2.1-1.8,2.1s-1.5-0.4-1.7-1.2h-1.3C455,27.8,456,28.6,457.7,28.6 M451.4,18.1
					c0,0.5,0.4,0.8,0.8,0.8s0.8-0.4,0.8-0.8s-0.4-0.8-0.8-0.8S451.4,17.7,451.4,18.1 M451.5,26h1.3v-6.4h-1.3V26z M444.9,22.1
					c0.2-1.1,0.8-1.8,1.9-1.8c1.2,0,1.8,0.9,1.7,1.8H444.9L444.9,22.1z M446.8,26.1c1.4,0,2.6-0.7,2.9-2.1h-1.3
					c-0.2,0.7-0.7,1.2-1.6,1.2c-1.1,0-1.8-0.8-1.9-2.1h5c0.1-2-0.7-3.6-3-3.6c-1.8,0-3.2,1.1-3.2,3.4
					C443.6,24.7,444.7,26.2,446.8,26.1 M435.1,26h2l0.8-5.4h0.1l0.8,5.4h2l1.5-6.4h-1.5L440,25h-0.2l-0.8-5.4h-2.1l-0.8,5.4h-0.2
					l-0.8-5.4h-1.5L435.1,26L435.1,26z M425,24.8l2.6-5.3c0.2,0.5,0.4,1.3,0.4,2.1c0,2.2-0.8,3.4-2.1,3.4
					C425.5,25,425.3,24.9,425,24.8 M423.7,21.6c0-2.2,0.8-3.4,2.1-3.4c0.3,0,0.6,0.1,0.9,0.2l-2.6,5.3
					C423.9,23.2,423.7,22.5,423.7,21.6 M425.9,26.1c2.5,0,3.5-2.2,3.5-4.5s-1.1-4.5-3.5-4.5s-3.5,2.2-3.5,4.5S423.4,26.1,425.9,26.1
					 M417.4,24.8l2.6-5.3c0.2,0.5,0.4,1.3,0.4,2.1c0,2.2-0.8,3.4-2.1,3.4C417.9,25,417.6,24.9,417.4,24.8 M416.1,21.6
					c0-2.2,0.8-3.4,2.1-3.4c0.3,0,0.6,0.1,0.9,0.2l-2.6,5.3C416.2,23.2,416.1,22.5,416.1,21.6 M418.2,26.1c2.5,0,3.5-2.2,3.5-4.5
					s-1.1-4.5-3.5-4.5s-3.5,2.2-3.5,4.5S415.8,26.1,418.2,26.1 M408.9,20.1c0-1,0.6-1.8,1.7-1.8s1.7,0.7,1.7,1.8
					c0,0.9-0.6,1.6-1.7,1.6S408.9,20.9,408.9,20.1 M410.5,17.1c-1.7,0-3.1,1.2-3.1,3s1.2,2.8,2.8,2.8c1.1,0,1.7-0.4,2-0.8
					c0,1.5-0.6,2.9-1.9,2.9c-0.7,0-1.2-0.4-1.4-1.2h-1.4c0.2,1.6,1.2,2.4,2.8,2.4c2.7,0,3.3-2.7,3.3-5.1
					C413.7,19,412.9,17.1,410.5,17.1 M396.7,24.4h4.6l-1.1,1.1h1.1l1.6-1.6l-1.6-1.6h-1.1l1.1,1.1h-3.6v-4.7h-1V24.4L396.7,24.4z"/>
			</g>
		</g>
		<polygon class="st2" points="28.7,392.3 43.4,409 14,409 		"/>
		<polygon class="st2" points="219.8,392.3 234.5,409 205.1,409 		"/>
		<polygon class="st2" points="366.8,392.3 381.5,409 352.1,409 		"/>
		<polygon class="st2" points="587.3,392.3 602,409 572.6,409 		"/>
		<g>
			<defs>
				<rect id="SVGID_00000042712607819541796360000016001989196106596484_" width="616" height="423"/>
			</defs>
			<clipPath id="SVGID_00000137108326708748584630000008290388259282242697_">
				<use xlink:href="#SVGID_00000042712607819541796360000016001989196106596484_"  style="overflow:visible;"/>
			</clipPath>
			<g style="clip-path:url(#SVGID_00000137108326708748584630000008290388259282242697_);">
				<path class="st2" d="M324.1,332.4c0-18.8,0.2-20.8,2.4-20.8s2.4,2,2.4,20.8s-0.2,20.8-2.4,20.8S324.1,351.2,324.1,332.4
					 M284.8,332.4V409H324l0.2-40.8c2.2,5.7,8.2,9.2,16.3,9.2c19.8,0,27.7-12.8,27.7-45s-11.9-45-42.3-45S284.8,300.1,284.8,332.4
					 M236.1,331.5c0-18,0.3-20,2.7-20s2.7,2,2.7,20c0,19.5-0.3,21.7-2.7,21.7S236.1,351,236.1,331.5 M238.8,377.4
					c30.4,0,42-12.8,42-45.9s-11.6-44.2-42-44.2s-42,12.3-42,44.2S208.4,377.4,238.8,377.4 M110.9,375.4h39.3v-57.5
					c0-4.9,0.7-6.4,2.9-6.4s2.5,1.5,2.5,13.3h39.3c0-27.7-7.7-37.5-24.2-37.5c-10.2,0-16.5,3.7-20.5,12.3v-10.2h-39.3V375.4z
					 M56.7,347.1V286h2.5c3.5,0,3.9,3,3.9,30.6s-0.3,30.6-3.9,30.6L56.7,347.1L56.7,347.1z M14,375.4h54.3
					c28.7,0,37.5-13.6,37.5-58.8s-8.7-58.8-37.5-58.8H14V375.4L14,375.4z"/>
			</g>
		</g>
		<g>
			<defs>
				<rect id="SVGID_00000122693276546479481520000017232695127273290897_" x="14" y="117" width="176.4" height="130.4"/>
			</defs>
			<clipPath id="SVGID_00000160904926034086698170000002911279801430549390_">
				<use xlink:href="#SVGID_00000122693276546479481520000017232695127273290897_"  style="overflow:visible;"/>
			</clipPath>
			<g style="clip-path:url(#SVGID_00000160904926034086698170000002911279801430549390_);">
				<path class="st2" d="M29.2,178.7c0-1.4-1.1-2.5-2.5-2.5s-2.5,1.1-2.5,2.5s1.1,2.5,2.5,2.5S29.2,180.1,29.2,178.7"/>
				<path class="st2" d="M30.8,193.7c0-2.2-1.8-4.1-4.1-4.1s-4,1.8-4,4.1s1.8,4.1,4,4.1S30.8,196,30.8,193.7"/>
				<path class="st2" d="M31.6,208.8c0-2.7-2.2-4.9-4.9-4.9s-4.9,2.2-4.9,4.9s2.2,4.9,4.9,4.9S31.6,211.5,31.6,208.8"/>
				<path class="st2" d="M33.2,223.8c0-3.6-2.9-6.5-6.5-6.5s-6.5,2.9-6.5,6.5s2.9,6.5,6.5,6.5S33.2,227.4,33.2,223.8"/>
				<path class="st2" d="M34.6,238.9c0-4.4-3.5-7.9-7.9-7.9s-7.9,3.5-7.9,7.9s3.5,7.9,7.9,7.9S34.6,243.2,34.6,238.9"/>
				<path class="st2" d="M28.4,163.6c0-0.9-0.7-1.6-1.6-1.6s-1.6,0.7-1.6,1.6s0.7,1.6,1.6,1.6S28.4,164.5,28.4,163.6"/>
				<path class="st2" d="M27.7,148.6c0-0.5-0.4-1-1-1s-1,0.4-1,1s0.4,1,1,1S27.7,149.1,27.7,148.6"/>
				<path class="st2" d="M38.5,186.2c0-2-1.6-3.6-3.6-3.6s-3.6,1.6-3.6,3.6s1.6,3.6,3.6,3.6S38.5,188.2,38.5,186.2"/>
				<path class="st2" d="M39.7,201.2c0-2.6-2.2-4.8-4.8-4.8s-4.8,2.1-4.8,4.8s2.2,4.8,4.8,4.8S39.7,203.9,39.7,201.2"/>
				<path class="st2" d="M40.7,216.3c0-3.2-2.6-5.8-5.8-5.8s-5.8,2.6-5.8,5.8s2.6,5.8,5.8,5.8S40.7,219.5,40.7,216.3"/>
				<path class="st2" d="M41.9,231.3c0-3.9-3.2-7-7-7s-7,3.1-7,7s3.1,7,7,7S41.9,235.2,41.9,231.3"/>
				<path class="st2" d="M43.4,245.9c0-4.7-3.8-8.5-8.5-8.5s-8.5,3.8-8.5,8.5s3.8,8.5,8.5,8.5S43.4,250.6,43.4,245.9"/>
				<path class="st2" d="M22.5,186.2c0-2.2-1.8-4-4-4s-4,1.8-4,4s1.8,4,4,4S22.5,188.4,22.5,186.2"/>
				<path class="st2" d="M23.3,201.2c0-2.6-2.1-4.8-4.8-4.8s-4.8,2.1-4.8,4.8s2.2,4.8,4.8,4.8S23.3,203.9,23.3,201.2"/>
				<path class="st2" d="M24.3,216.3c0-3.2-2.6-5.8-5.8-5.8s-5.8,2.6-5.8,5.8s2.6,5.8,5.8,5.8S24.3,219.5,24.3,216.3"/>
				<path class="st2" d="M25.5,231.3c0-3.9-3.1-7-7-7s-7,3.1-7,7s3.1,7,7,7S25.5,235.2,25.5,231.3"/>
				<path class="st2" d="M27,245.9c0-4.7-3.8-8.5-8.5-8.5s-8.5,3.8-8.5,8.5s3.8,8.5,8.5,8.5S27,250.6,27,245.9"/>
				<path class="st2" d="M54.9,186.2c0-2-1.6-3.6-3.6-3.6s-3.6,1.6-3.6,3.6s1.6,3.6,3.6,3.6S54.9,188.2,54.9,186.2"/>
				<path class="st2" d="M56.1,201.2c0-2.6-2.2-4.8-4.8-4.8s-4.8,2.1-4.8,4.8s2.2,4.8,4.8,4.8S56.1,203.9,56.1,201.2"/>
				<path class="st2" d="M57.1,216.3c0-3.2-2.6-5.8-5.8-5.8s-5.8,2.6-5.8,5.8s2.6,5.8,5.8,5.8S57.1,219.5,57.1,216.3"/>
				<path class="st2" d="M58.3,231.3c0-3.9-3.2-7-7-7s-7,3.1-7,7s3.2,7,7,7S58.3,235.2,58.3,231.3"/>
				<path class="st2" d="M59.8,245.9c0-4.7-3.8-8.5-8.5-8.5s-8.5,3.8-8.5,8.5s3.8,8.5,8.5,8.5S59.8,250.6,59.8,245.9"/>
				<path class="st2" d="M71.3,186.2c0-2-1.6-3.6-3.6-3.6s-3.6,1.6-3.6,3.6s1.6,3.6,3.6,3.6S71.3,188.2,71.3,186.2"/>
				<path class="st2" d="M72.5,201.2c0-2.6-2.2-4.8-4.8-4.8s-4.8,2.1-4.8,4.8s2.1,4.8,4.8,4.8S72.5,203.9,72.5,201.2"/>
				<path class="st2" d="M73.5,216.3c0-3.2-2.6-5.8-5.8-5.8s-5.8,2.6-5.8,5.8s2.6,5.8,5.8,5.8S73.5,219.5,73.5,216.3"/>
				<path class="st2" d="M74.7,231.3c0-3.9-3.2-7-7-7s-7,3.1-7,7s3.2,7,7,7S74.7,235.2,74.7,231.3"/>
				<path class="st2" d="M76.2,245.9c0-4.7-3.8-8.5-8.5-8.5s-8.5,3.8-8.5,8.5s3.8,8.5,8.5,8.5S76.2,250.6,76.2,245.9"/>
				<path class="st2" d="M45.6,178.7c0-1.4-1.1-2.5-2.5-2.5s-2.5,1.1-2.5,2.5s1.1,2.5,2.5,2.5S45.6,180.1,45.6,178.7"/>
				<path class="st2" d="M47.1,193.7c0-2.2-1.8-4.1-4-4.1s-4,1.8-4,4.1s1.8,4.1,4,4.1S47.1,196,47.1,193.7"/>
				<path class="st2" d="M48,208.8c0-2.7-2.2-4.9-4.9-4.9s-4.9,2.2-4.9,4.9s2.2,4.9,4.9,4.9S48,211.5,48,208.8"/>
				<path class="st2" d="M49.6,223.8c0-3.6-2.9-6.5-6.5-6.5s-6.5,2.9-6.5,6.5s2.9,6.5,6.5,6.5S49.6,227.4,49.6,223.8"/>
				<path class="st2" d="M51,238.9c0-4.4-3.5-7.9-7.9-7.9s-7.9,3.5-7.9,7.9s3.5,7.9,7.9,7.9S51,243.2,51,238.9"/>
				<path class="st2" d="M44.7,163.6c0-0.9-0.7-1.6-1.6-1.6s-1.6,0.7-1.6,1.6s0.7,1.6,1.6,1.6S44.7,164.5,44.7,163.6"/>
				<path class="st2" d="M44.2,148.6c0-0.6-0.5-1.1-1.1-1.1S42,148,42,148.6s0.5,1.1,1.1,1.1S44.2,149.2,44.2,148.6"/>
				<path class="st2" d="M36.9,171.1c0-1.1-0.9-2-2-2s-2,0.9-2,2s0.9,2,2,2S36.9,172.3,36.9,171.1"/>
				<path class="st2" d="M36.2,156.1c0-0.7-0.6-1.3-1.3-1.3s-1.3,0.6-1.3,1.3s0.6,1.3,1.3,1.3S36.2,156.8,36.2,156.1"/>
				<path class="st2" d="M35.8,141c0-0.5-0.4-0.9-0.9-0.9S34,140.5,34,141s0.4,0.9,0.9,0.9S35.8,141.5,35.8,141"/>
				<path class="st2" d="M20.6,171.1c0-1.1-0.9-2-2-2s-2,0.9-2,2s0.9,2,2,2S20.6,172.3,20.6,171.1"/>
				<path class="st2" d="M53.3,171.1c0-1.1-0.9-2-2-2s-2,0.9-2,2s0.9,2,2,2S53.3,172.3,53.3,171.1"/>
				<path class="st2" d="M52.6,156.1c0-0.7-0.6-1.3-1.3-1.3s-1.3,0.6-1.3,1.3s0.6,1.3,1.3,1.3S52.6,156.8,52.6,156.1"/>
				<path class="st2" d="M52.2,141c0-0.5-0.4-0.9-0.9-0.9s-0.9,0.4-0.9,0.9s0.4,0.9,0.9,0.9S52.2,141.5,52.2,141"/>
				<path class="st2" d="M19.9,156.1c0-0.7-0.6-1.3-1.3-1.3s-1.3,0.6-1.3,1.3s0.6,1.3,1.3,1.3S19.9,156.8,19.9,156.1"/>
				<path class="st2" d="M19.4,141c0-0.5-0.4-0.9-0.9-0.9s-0.9,0.4-0.9,0.9s0.4,0.9,0.9,0.9S19.4,141.5,19.4,141"/>
				<path class="st2" d="M69,156.1c0-0.7-0.6-1.3-1.3-1.3s-1.3,0.6-1.3,1.3s0.6,1.3,1.3,1.3S69,156.8,69,156.1"/>
				<path class="st2" d="M68.5,141c0-0.5-0.4-0.9-0.9-0.9s-0.9,0.4-0.9,0.9s0.4,0.9,0.9,0.9S68.5,141.5,68.5,141"/>
				<path class="st2" d="M69.7,171.1c0-1.1-0.9-2-2-2s-2,0.9-2,2s0.9,2,2,2S69.7,172.3,69.7,171.1"/>
				<path class="st2" d="M62,178.7c0-1.4-1.1-2.5-2.5-2.5s-2.5,1.1-2.5,2.5s1.1,2.5,2.5,2.5S62,180.1,62,178.7"/>
				<path class="st2" d="M63.5,193.7c0-2.2-1.8-4-4-4s-4,1.8-4,4s1.8,4,4,4S63.5,195.9,63.5,193.7"/>
				<path class="st2" d="M64.3,208.8c0-2.7-2.2-4.9-4.8-4.9s-4.8,2.2-4.8,4.9s2.2,4.9,4.8,4.9S64.3,211.4,64.3,208.8"/>
				<path class="st2" d="M65.9,223.8c0-3.6-2.9-6.4-6.5-6.4s-6.5,2.9-6.5,6.4s2.9,6.4,6.5,6.4S65.9,227.4,65.9,223.8"/>
				<path class="st2" d="M67.3,238.9c0-4.3-3.5-7.8-7.8-7.8s-7.8,3.5-7.8,7.8s3.5,7.8,7.8,7.8S67.3,243.2,67.3,238.9"/>
				<path class="st2" d="M61.1,163.6c0-0.9-0.7-1.6-1.6-1.6s-1.6,0.7-1.6,1.6s0.7,1.6,1.6,1.6S61.1,164.5,61.1,163.6"/>
				<path class="st2" d="M60.5,148.6c0-0.6-0.5-1.1-1.1-1.1s-1.1,0.5-1.1,1.1s0.5,1.1,1.1,1.1S60.5,149.2,60.5,148.6"/>
				<path class="st2" d="M78.4,178.7c0-1.4-1.1-2.5-2.5-2.5s-2.5,1.1-2.5,2.5s1.1,2.5,2.5,2.5S78.4,180.1,78.4,178.7"/>
				<path class="st2" d="M79.9,193.7c0-2.2-1.8-4.1-4.1-4.1s-4.1,1.8-4.1,4.1s1.8,4.1,4.1,4.1S79.9,196,79.9,193.7"/>
				<path class="st2" d="M80.8,208.8c0-2.7-2.2-4.9-4.9-4.9s-4.9,2.2-4.9,4.9s2.2,4.9,4.9,4.9S80.8,211.5,80.8,208.8"/>
				<path class="st2" d="M82.4,223.8c0-3.6-2.9-6.5-6.5-6.5s-6.5,2.9-6.5,6.5s2.9,6.5,6.5,6.5S82.4,227.4,82.4,223.8"/>
				<path class="st2" d="M83.7,238.9c0-4.4-3.5-7.9-7.9-7.9s-7.9,3.5-7.9,7.9s3.5,7.9,7.9,7.9S83.7,243.2,83.7,238.9"/>
				<path class="st2" d="M77.5,163.6c0-0.9-0.7-1.6-1.7-1.6s-1.7,0.7-1.7,1.6s0.7,1.6,1.7,1.6S77.5,164.5,77.5,163.6"/>
				<path class="st2" d="M76.8,148.6c0-0.5-0.4-1-1-1s-1,0.4-1,1s0.4,1,1,1S76.8,149.1,76.8,148.6"/>
				<path class="st2" d="M87.7,186.2c0-2-1.6-3.6-3.6-3.6s-3.6,1.6-3.6,3.6s1.6,3.6,3.6,3.6S87.7,188.2,87.7,186.2"/>
				<path class="st2" d="M88.8,201.2c0-2.6-2.2-4.8-4.8-4.8s-4.8,2.1-4.8,4.8s2.2,4.8,4.8,4.8S88.8,203.9,88.8,201.2"/>
				<path class="st2" d="M89.8,216.3c0-3.2-2.6-5.8-5.8-5.8s-5.8,2.6-5.8,5.8s2.6,5.8,5.8,5.8S89.8,219.5,89.8,216.3"/>
				<path class="st2" d="M91.1,231.3c0-3.9-3.2-7-7-7s-7,3.1-7,7s3.2,7,7,7S91.1,235.2,91.1,231.3"/>
				<path class="st2" d="M92.6,245.9c0-4.7-3.8-8.5-8.5-8.5s-8.5,3.8-8.5,8.5s3.8,8.5,8.5,8.5S92.6,250.6,92.6,245.9"/>
				<path class="st2" d="M72.5,201.2c0-2.6-2.2-4.8-4.8-4.8s-4.8,2.1-4.8,4.8s2.1,4.8,4.8,4.8S72.5,203.9,72.5,201.2"/>
				<path class="st2" d="M73.5,216.3c0-3.2-2.6-5.8-5.8-5.8s-5.8,2.6-5.8,5.8s2.6,5.8,5.8,5.8S73.5,219.5,73.5,216.3"/>
				<path class="st2" d="M74.7,231.3c0-3.9-3.2-7-7-7s-7,3.1-7,7s3.2,7,7,7S74.7,235.2,74.7,231.3"/>
				<path class="st2" d="M76.2,245.9c0-4.7-3.8-8.5-8.5-8.5s-8.5,3.8-8.5,8.5s3.8,8.5,8.5,8.5S76.2,250.6,76.2,245.9"/>
				<path class="st2" d="M104,186.2c0-2-1.6-3.6-3.6-3.6s-3.6,1.6-3.6,3.6s1.6,3.6,3.6,3.6S104,188.2,104,186.2"/>
				<path class="st2" d="M105.2,201.2c0-2.6-2.2-4.8-4.8-4.8s-4.8,2.1-4.8,4.8s2.2,4.8,4.8,4.8S105.2,203.9,105.2,201.2"/>
				<path class="st2" d="M106.2,216.3c0-3.2-2.6-5.8-5.8-5.8s-5.8,2.6-5.8,5.8s2.6,5.8,5.8,5.8S106.2,219.5,106.2,216.3"/>
				<path class="st2" d="M107.4,231.3c0-3.9-3.2-7-7-7s-7,3.1-7,7s3.2,7,7,7S107.4,235.2,107.4,231.3"/>
				<path class="st2" d="M108.9,245.9c0-4.7-3.8-8.5-8.5-8.5s-8.5,3.8-8.5,8.5s3.8,8.5,8.5,8.5S108.9,250.6,108.9,245.9"/>
				<path class="st2" d="M120.4,186.2c0-2-1.6-3.6-3.6-3.6s-3.6,1.6-3.6,3.6s1.6,3.6,3.6,3.6S120.4,188.2,120.4,186.2"/>
				<path class="st2" d="M121.6,201.2c0-2.6-2.2-4.8-4.8-4.8s-4.8,2.1-4.8,4.8s2.2,4.8,4.8,4.8S121.6,203.9,121.6,201.2"/>
				<path class="st2" d="M122.6,216.3c0-3.2-2.6-5.8-5.8-5.8s-5.8,2.6-5.8,5.8s2.6,5.8,5.8,5.8S122.6,219.5,122.6,216.3"/>
				<path class="st2" d="M123.8,231.3c0-3.9-3.2-7-7-7s-7,3.1-7,7s3.2,7,7,7S123.8,235.2,123.8,231.3"/>
				<path class="st2" d="M125.3,245.9c0-4.7-3.8-8.5-8.5-8.5s-8.5,3.8-8.5,8.5s3.8,8.5,8.5,8.5S125.3,250.6,125.3,245.9"/>
				<path class="st2" d="M94.8,178.7c0-1.4-1.1-2.5-2.5-2.5s-2.5,1.1-2.5,2.5s1.1,2.5,2.5,2.5S94.8,180.1,94.8,178.7"/>
				<path class="st2" d="M96.3,193.7c0-2.2-1.8-4.1-4.1-4.1s-4.1,1.8-4.1,4.1s1.8,4.1,4.1,4.1S96.3,196,96.3,193.7"/>
				<path class="st2" d="M97.1,208.8c0-2.7-2.2-4.9-4.9-4.9s-4.9,2.2-4.9,4.9s2.2,4.9,4.9,4.9S97.1,211.5,97.1,208.8"/>
				<path class="st2" d="M98.8,223.8c0-3.6-2.9-6.5-6.5-6.5s-6.5,2.9-6.5,6.5s2.9,6.5,6.5,6.5S98.8,227.4,98.8,223.8"/>
				<path class="st2" d="M100.1,238.9c0-4.4-3.5-7.9-7.9-7.9s-7.9,3.5-7.9,7.9s3.5,7.9,7.9,7.9S100.1,243.2,100.1,238.9"/>
				<path class="st2" d="M93.9,163.6c0-0.9-0.7-1.6-1.6-1.6s-1.6,0.7-1.6,1.6s0.7,1.6,1.6,1.6S93.9,164.5,93.9,163.6"/>
				<path class="st2" d="M93.3,148.6c0-0.6-0.5-1.1-1.1-1.1s-1.1,0.5-1.1,1.1s0.5,1.1,1.1,1.1S93.3,149.2,93.3,148.6"/>
				<path class="st2" d="M86.1,171.1c0-1.1-0.9-2-2-2s-2,0.9-2,2s0.9,2,2,2S86.1,172.3,86.1,171.1"/>
				<path class="st2" d="M85.4,156.1c0-0.7-0.6-1.3-1.3-1.3s-1.3,0.6-1.3,1.3s0.6,1.3,1.3,1.3S85.4,156.8,85.4,156.1"/>
				<path class="st2" d="M84.9,141c0-0.5-0.4-0.9-0.9-0.9s-0.9,0.4-0.9,0.9s0.4,0.9,0.9,0.9S84.9,141.5,84.9,141"/>
				<path class="st2" d="M69.7,171.1c0-1.1-0.9-2-2-2s-2,0.9-2,2s0.9,2,2,2S69.7,172.3,69.7,171.1"/>
				<path class="st2" d="M102.5,171.1c0-1.1-0.9-2-2-2s-2,0.9-2,2s0.9,2,2,2S102.5,172.3,102.5,171.1"/>
				<path class="st2" d="M101.8,156.1c0-0.7-0.6-1.3-1.3-1.3s-1.3,0.6-1.3,1.3s0.6,1.3,1.3,1.3S101.8,156.8,101.8,156.1"/>
				<path class="st2" d="M101.3,141c0-0.5-0.4-0.9-0.9-0.9s-0.9,0.4-0.9,0.9s0.4,0.9,0.9,0.9S101.3,141.5,101.3,141"/>
				<path class="st2" d="M69,156.1c0-0.7-0.6-1.3-1.3-1.3s-1.3,0.6-1.3,1.3s0.6,1.3,1.3,1.3S69,156.8,69,156.1"/>
				<path class="st2" d="M68.5,141c0-0.5-0.4-0.9-0.9-0.9s-0.9,0.4-0.9,0.9s0.4,0.9,0.9,0.9S68.5,141.5,68.5,141"/>
				<path class="st2" d="M118.2,156.1c0-0.7-0.6-1.3-1.3-1.3s-1.3,0.6-1.3,1.3s0.6,1.3,1.3,1.3S118.2,156.8,118.2,156.1"/>
				<path class="st2" d="M117.7,141c0-0.5-0.4-0.9-0.9-0.9s-0.9,0.4-0.9,0.9s0.4,0.9,0.9,0.9S117.7,141.5,117.7,141"/>
				<path class="st2" d="M118.8,171.1c0-1.1-0.9-2-2-2s-2,0.9-2,2s0.9,2,2,2S118.8,172.3,118.8,171.1"/>
				<path class="st2" d="M111.1,178.7c0-1.4-1.1-2.5-2.5-2.5s-2.5,1.1-2.5,2.5s1.1,2.5,2.5,2.5S111.1,180.1,111.1,178.7"/>
				<path class="st2" d="M112.6,193.7c0-2.2-1.8-4-4-4s-4,1.8-4,4s1.8,4,4,4S112.6,195.9,112.6,193.7"/>
				<path class="st2" d="M113.5,208.8c0-2.7-2.2-4.9-4.8-4.9s-4.8,2.2-4.8,4.9s2.2,4.9,4.8,4.9S113.5,211.4,113.5,208.8"/>
				<path class="st2" d="M115.1,223.8c0-3.6-2.9-6.4-6.4-6.4s-6.4,2.9-6.4,6.4s2.9,6.4,6.4,6.4S115.1,227.4,115.1,223.8"/>
				<path class="st2" d="M116.4,238.9c0-4.3-3.5-7.8-7.8-7.8s-7.8,3.5-7.8,7.8s3.5,7.8,7.8,7.8S116.4,243.2,116.4,238.9"/>
				<path class="st2" d="M110.2,163.6c0-0.9-0.7-1.6-1.6-1.6s-1.6,0.7-1.6,1.6s0.7,1.6,1.6,1.6S110.2,164.5,110.2,163.6"/>
				<path class="st2" d="M109.7,148.6c0-0.6-0.5-1.1-1.1-1.1s-1.1,0.5-1.1,1.1s0.5,1.1,1.1,1.1S109.7,149.2,109.7,148.6"/>
				<path class="st2" d="M127.5,178.7c0-1.4-1.1-2.5-2.5-2.5s-2.5,1.1-2.5,2.5s1.1,2.5,2.5,2.5S127.5,180.1,127.5,178.7"/>
				<path class="st2" d="M129.1,193.7c0-2.2-1.8-4.1-4.1-4.1s-4.1,1.8-4.1,4.1s1.8,4.1,4.1,4.1S129.1,196,129.1,193.7"/>
				<path class="st2" d="M129.9,208.8c0-2.7-2.2-4.9-4.9-4.9s-4.9,2.2-4.9,4.9s2.2,4.9,4.9,4.9S129.9,211.5,129.9,208.8"/>
				<path class="st2" d="M131.5,223.8c0-3.6-2.9-6.5-6.5-6.5s-6.5,2.9-6.5,6.5s2.9,6.5,6.5,6.5S131.5,227.4,131.5,223.8"/>
				<path class="st2" d="M132.9,238.9c0-4.4-3.5-7.9-7.9-7.9s-7.9,3.5-7.9,7.9s3.5,7.9,7.9,7.9S132.9,243.2,132.9,238.9"/>
				<path class="st2" d="M126.7,163.6c0-0.9-0.7-1.6-1.7-1.6s-1.7,0.7-1.7,1.6s0.7,1.6,1.7,1.6S126.7,164.5,126.7,163.6"/>
				<path class="st2" d="M126,148.6c0-0.5-0.4-1-1-1s-1,0.4-1,1s0.4,1,1,1S126,149.1,126,148.6"/>
				<path class="st2" d="M136.8,186.2c0-2-1.6-3.6-3.6-3.6s-3.6,1.6-3.6,3.6s1.6,3.6,3.6,3.6S136.8,188.2,136.8,186.2"/>
				<path class="st2" d="M138,201.2c0-2.6-2.1-4.8-4.8-4.8s-4.8,2.1-4.8,4.8s2.1,4.8,4.8,4.8S138,203.9,138,201.2"/>
				<path class="st2" d="M139,216.3c0-3.2-2.6-5.8-5.8-5.8s-5.8,2.6-5.8,5.8s2.6,5.8,5.8,5.8S139,219.5,139,216.3"/>
				<path class="st2" d="M140.2,231.3c0-3.9-3.1-7-7-7s-7,3.1-7,7s3.1,7,7,7S140.2,235.2,140.2,231.3"/>
				<path class="st2" d="M141.7,245.9c0-4.7-3.8-8.5-8.5-8.5s-8.5,3.8-8.5,8.5s3.8,8.5,8.5,8.5S141.7,250.6,141.7,245.9"/>
				<path class="st2" d="M121.6,201.2c0-2.6-2.2-4.8-4.8-4.8s-4.8,2.1-4.8,4.8s2.2,4.8,4.8,4.8S121.6,203.9,121.6,201.2"/>
				<path class="st2" d="M122.6,216.3c0-3.2-2.6-5.8-5.8-5.8s-5.8,2.6-5.8,5.8s2.6,5.8,5.8,5.8S122.6,219.5,122.6,216.3"/>
				<path class="st2" d="M123.8,231.3c0-3.9-3.2-7-7-7s-7,3.1-7,7s3.2,7,7,7S123.8,235.2,123.8,231.3"/>
				<path class="st2" d="M125.3,245.9c0-4.7-3.8-8.5-8.5-8.5s-8.5,3.8-8.5,8.5s3.8,8.5,8.5,8.5S125.3,250.6,125.3,245.9"/>
				<path class="st2" d="M153.2,186.2c0-2-1.6-3.6-3.6-3.6s-3.6,1.6-3.6,3.6s1.6,3.6,3.6,3.6S153.2,188.2,153.2,186.2"/>
				<path class="st2" d="M154.4,201.2c0-2.6-2.1-4.8-4.8-4.8s-4.8,2.1-4.8,4.8s2.1,4.8,4.8,4.8S154.4,203.9,154.4,201.2"/>
				<path class="st2" d="M155.4,216.3c0-3.2-2.6-5.8-5.8-5.8s-5.8,2.6-5.8,5.8s2.6,5.8,5.8,5.8S155.4,219.5,155.4,216.3"/>
				<path class="st2" d="M156.6,231.3c0-3.9-3.1-7-7-7s-7,3.1-7,7s3.1,7,7,7S156.6,235.2,156.6,231.3"/>
				<path class="st2" d="M158.1,245.9c0-4.7-3.8-8.5-8.5-8.5s-8.5,3.8-8.5,8.5s3.8,8.5,8.5,8.5S158.1,250.6,158.1,245.9"/>
				<path class="st2" d="M169.6,186.2c0-2-1.6-3.6-3.6-3.6s-3.6,1.6-3.6,3.6s1.6,3.6,3.6,3.6S169.6,188.2,169.6,186.2"/>
				<path class="st2" d="M170.8,201.2c0-2.6-2.1-4.8-4.8-4.8s-4.8,2.1-4.8,4.8s2.1,4.8,4.8,4.8S170.8,203.9,170.8,201.2"/>
				<path class="st2" d="M171.8,216.3c0-3.2-2.6-5.8-5.8-5.8s-5.8,2.6-5.8,5.8s2.6,5.8,5.8,5.8S171.8,219.5,171.8,216.3"/>
				<path class="st2" d="M173,231.3c0-3.9-3.1-7-7-7s-7,3.1-7,7s3.1,7,7,7S173,235.2,173,231.3"/>
				<path class="st2" d="M174.5,245.9c0-4.7-3.8-8.5-8.5-8.5s-8.5,3.8-8.5,8.5s3.8,8.5,8.5,8.5S174.5,250.6,174.5,245.9"/>
				<path class="st2" d="M143.9,178.7c0-1.4-1.1-2.5-2.5-2.5s-2.5,1.1-2.5,2.5s1.1,2.5,2.5,2.5S143.9,180.1,143.9,178.7"/>
				<path class="st2" d="M145.4,193.7c0-2.2-1.8-4.1-4.1-4.1s-4.1,1.8-4.1,4.1s1.8,4.1,4.1,4.1S145.4,196,145.4,193.7"/>
				<path class="st2" d="M146.3,208.8c0-2.7-2.2-4.9-4.9-4.9s-4.9,2.2-4.9,4.9s2.2,4.9,4.9,4.9S146.3,211.5,146.3,208.8"/>
				<path class="st2" d="M147.9,223.8c0-3.6-2.9-6.5-6.5-6.5s-6.5,2.9-6.5,6.5s2.9,6.5,6.5,6.5S147.9,227.4,147.9,223.8"/>
				<path class="st2" d="M149.3,238.9c0-4.4-3.5-7.9-7.9-7.9s-7.9,3.5-7.9,7.9s3.5,7.9,7.9,7.9S149.3,243.2,149.3,238.9"/>
				<path class="st2" d="M143,163.6c0-0.9-0.7-1.6-1.6-1.6s-1.6,0.7-1.6,1.6s0.7,1.6,1.6,1.6S143,164.5,143,163.6"/>
				<path class="st2" d="M142.5,148.6c0-0.6-0.5-1.1-1.1-1.1s-1.1,0.5-1.1,1.1s0.5,1.1,1.1,1.1S142.5,149.2,142.5,148.6"/>
				<path class="st2" d="M135.2,171.1c0-1.1-0.9-2-2-2s-2,0.9-2,2s0.9,2,2,2S135.2,172.3,135.2,171.1"/>
				<path class="st2" d="M134.5,156.1c0-0.7-0.6-1.3-1.3-1.3s-1.3,0.6-1.3,1.3s0.6,1.3,1.3,1.3S134.5,156.8,134.5,156.1"/>
				<path class="st2" d="M134.1,141c0-0.5-0.4-0.9-0.9-0.9s-0.9,0.4-0.9,0.9s0.4,0.9,0.9,0.9S134.1,141.5,134.1,141"/>
				<path class="st2" d="M118.8,171.1c0-1.1-0.9-2-2-2s-2,0.9-2,2s0.9,2,2,2S118.8,172.3,118.8,171.1"/>
				<path class="st2" d="M151.6,171.1c0-1.1-0.9-2-2-2s-2,0.9-2,2s0.9,2,2,2S151.6,172.3,151.6,171.1"/>
				<path class="st2" d="M150.9,156.1c0-0.7-0.6-1.3-1.3-1.3s-1.3,0.6-1.3,1.3s0.6,1.3,1.3,1.3S150.9,156.8,150.9,156.1"/>
				<path class="st2" d="M150.4,141c0-0.5-0.4-0.9-0.9-0.9s-0.9,0.4-0.9,0.9s0.4,0.9,0.9,0.9S150.4,141.5,150.4,141"/>
				<path class="st2" d="M118.2,156.1c0-0.7-0.6-1.3-1.3-1.3s-1.3,0.6-1.3,1.3s0.6,1.3,1.3,1.3S118.2,156.8,118.2,156.1"/>
				<path class="st2" d="M117.7,141c0-0.5-0.4-0.9-0.9-0.9s-0.9,0.4-0.9,0.9s0.4,0.9,0.9,0.9S117.7,141.5,117.7,141"/>
				<path class="st2" d="M167.3,156.1c0-0.7-0.6-1.3-1.3-1.3s-1.3,0.6-1.3,1.3s0.6,1.3,1.3,1.3S167.3,156.8,167.3,156.1"/>
				<path class="st2" d="M166.8,141c0-0.5-0.4-0.9-0.9-0.9s-0.9,0.4-0.9,0.9s0.4,0.9,0.9,0.9S166.8,141.5,166.8,141"/>
				<path class="st2" d="M168,171.1c0-1.1-0.9-2-2-2s-2,0.9-2,2s0.9,2,2,2S168,172.3,168,171.1"/>
				<path class="st2" d="M160.3,178.7c0-1.4-1.1-2.5-2.5-2.5s-2.5,1.1-2.5,2.5s1.1,2.5,2.5,2.5S160.3,180.1,160.3,178.7"/>
				<path class="st2" d="M161.8,193.7c0-2.2-1.8-4-4-4s-4,1.8-4,4s1.8,4,4,4S161.8,195.9,161.8,193.7"/>
				<path class="st2" d="M162.6,208.8c0-2.7-2.2-4.9-4.9-4.9s-4.9,2.2-4.9,4.9s2.2,4.9,4.9,4.9S162.6,211.4,162.6,208.8"/>
				<path class="st2" d="M164.2,223.8c0-3.6-2.9-6.4-6.4-6.4s-6.4,2.9-6.4,6.4s2.9,6.4,6.4,6.4S164.2,227.4,164.2,223.8"/>
				<path class="st2" d="M165.6,238.9c0-4.3-3.5-7.8-7.8-7.8s-7.8,3.5-7.8,7.8s3.5,7.8,7.8,7.8S165.6,243.2,165.6,238.9"/>
				<path class="st2" d="M159.4,163.6c0-0.9-0.7-1.6-1.6-1.6s-1.6,0.7-1.6,1.6s0.7,1.6,1.6,1.6S159.4,164.5,159.4,163.6"/>
				<path class="st2" d="M158.8,148.6c0-0.6-0.5-1.1-1.1-1.1s-1.1,0.5-1.1,1.1s0.5,1.1,1.1,1.1S158.8,149.2,158.8,148.6"/>
				<path class="st2" d="M176.7,178.7c0-1.4-1.1-2.5-2.5-2.5s-2.5,1.1-2.5,2.5s1.1,2.5,2.5,2.5S176.7,180.1,176.7,178.7"/>
				<path class="st2" d="M178.2,193.7c0-2.2-1.8-4.1-4.1-4.1s-4.1,1.8-4.1,4.1s1.8,4.1,4.1,4.1S178.2,196,178.2,193.7"/>
				<path class="st2" d="M179,208.8c0-2.7-2.2-4.9-4.9-4.9s-4.9,2.2-4.9,4.9s2.2,4.9,4.9,4.9S179,211.5,179,208.8"/>
				<path class="st2" d="M180.7,223.8c0-3.6-2.9-6.5-6.5-6.5s-6.5,2.9-6.5,6.5s2.9,6.5,6.5,6.5S180.7,227.4,180.7,223.8"/>
				<path class="st2" d="M182,238.9c0-4.4-3.5-7.9-7.9-7.9s-7.9,3.5-7.9,7.9s3.5,7.9,7.9,7.9S182,243.2,182,238.9"/>
				<path class="st2" d="M175.8,163.6c0-0.9-0.7-1.6-1.6-1.6s-1.6,0.7-1.6,1.6s0.7,1.6,1.6,1.6S175.8,164.5,175.8,163.6"/>
				<path class="st2" d="M175.1,148.6c0-0.5-0.4-1-1-1s-1,0.4-1,1s0.4,1,1,1S175.1,149.1,175.1,148.6"/>
				<path class="st2" d="M185.9,186.2c0-2-1.6-3.6-3.6-3.6s-3.6,1.6-3.6,3.6s1.6,3.6,3.6,3.6S185.9,188.2,185.9,186.2"/>
				<path class="st2" d="M187.1,201.2c0-2.6-2.1-4.8-4.8-4.8s-4.8,2.1-4.8,4.8s2.1,4.8,4.8,4.8S187.1,203.9,187.1,201.2"/>
				<path class="st2" d="M188.1,216.3c0-3.2-2.6-5.8-5.8-5.8s-5.8,2.6-5.8,5.8s2.6,5.8,5.8,5.8S188.1,219.5,188.1,216.3"/>
				<path class="st2" d="M189.4,231.3c0-3.9-3.1-7-7-7s-7,3.1-7,7s3.1,7,7,7S189.4,235.2,189.4,231.3"/>
				<path class="st2" d="M190.8,245.9c0-4.7-3.8-8.5-8.5-8.5s-8.5,3.8-8.5,8.5s3.8,8.5,8.5,8.5S190.8,250.6,190.8,245.9"/>
				<path class="st2" d="M170.8,201.2c0-2.6-2.1-4.8-4.8-4.8s-4.8,2.1-4.8,4.8s2.1,4.8,4.8,4.8S170.8,203.9,170.8,201.2"/>
				<path class="st2" d="M171.8,216.3c0-3.2-2.6-5.8-5.8-5.8s-5.8,2.6-5.8,5.8s2.6,5.8,5.8,5.8S171.8,219.5,171.8,216.3"/>
				<path class="st2" d="M173,231.3c0-3.9-3.1-7-7-7s-7,3.1-7,7s3.1,7,7,7S173,235.2,173,231.3"/>
				<path class="st2" d="M174.5,245.9c0-4.7-3.8-8.5-8.5-8.5s-8.5,3.8-8.5,8.5s3.8,8.5,8.5,8.5S174.5,250.6,174.5,245.9"/>
				<path class="st2" d="M202.3,186.2c0-2-1.6-3.6-3.6-3.6s-3.6,1.6-3.6,3.6s1.6,3.6,3.6,3.6S202.3,188.2,202.3,186.2"/>
				<path class="st2" d="M203.5,201.2c0-2.6-2.1-4.8-4.8-4.8s-4.8,2.1-4.8,4.8s2.1,4.8,4.8,4.8S203.5,203.9,203.5,201.2"/>
				<path class="st2" d="M204.5,216.3c0-3.2-2.6-5.8-5.8-5.8s-5.8,2.6-5.8,5.8s2.6,5.8,5.8,5.8S204.5,219.5,204.5,216.3"/>
				<path class="st2" d="M205.8,231.3c0-3.9-3.1-7-7-7s-7,3.1-7,7s3.1,7,7,7S205.8,235.2,205.8,231.3"/>
				<path class="st2" d="M207.2,245.9c0-4.7-3.8-8.5-8.5-8.5s-8.5,3.8-8.5,8.5s3.8,8.5,8.5,8.5S207.2,250.6,207.2,245.9"/>
				<path class="st2" d="M218.7,186.2c0-2-1.6-3.6-3.6-3.6s-3.6,1.6-3.6,3.6s1.6,3.6,3.6,3.6S218.7,188.2,218.7,186.2"/>
				<path class="st2" d="M219.9,201.2c0-2.6-2.1-4.8-4.8-4.8s-4.8,2.1-4.8,4.8s2.1,4.8,4.8,4.8S219.9,203.9,219.9,201.2"/>
				<path class="st2" d="M220.9,216.3c0-3.2-2.6-5.8-5.8-5.8s-5.8,2.6-5.8,5.8s2.6,5.8,5.8,5.8S220.9,219.5,220.9,216.3"/>
				<path class="st2" d="M222.1,231.3c0-3.9-3.1-7-7-7s-7,3.1-7,7s3.1,7,7,7S222.1,235.2,222.1,231.3"/>
				<path class="st2" d="M223.6,245.9c0-4.7-3.8-8.5-8.5-8.5s-8.5,3.8-8.5,8.5s3.8,8.5,8.5,8.5S223.6,250.6,223.6,245.9"/>
				<path class="st2" d="M193,178.7c0-1.4-1.1-2.5-2.5-2.5s-2.5,1.1-2.5,2.5s1.1,2.5,2.5,2.5S193,180.1,193,178.7"/>
				<path class="st2" d="M194.6,193.7c0-2.2-1.8-4.1-4.1-4.1s-4.1,1.8-4.1,4.1s1.8,4.1,4.1,4.1S194.6,196,194.6,193.7"/>
				<path class="st2" d="M195.4,208.8c0-2.7-2.2-4.9-4.9-4.9s-4.9,2.2-4.9,4.9s2.2,4.9,4.9,4.9S195.4,211.5,195.4,208.8"/>
				<path class="st2" d="M197.1,223.8c0-3.6-2.9-6.5-6.5-6.5s-6.5,2.9-6.5,6.5s2.9,6.5,6.5,6.5S197.1,227.4,197.1,223.8"/>
				<path class="st2" d="M198.4,238.9c0-4.4-3.5-7.9-7.9-7.9s-7.9,3.5-7.9,7.9s3.5,7.9,7.9,7.9S198.4,243.2,198.4,238.9"/>
				<path class="st2" d="M192.2,163.6c0-0.9-0.7-1.6-1.6-1.6s-1.6,0.7-1.6,1.6s0.7,1.6,1.6,1.6S192.2,164.5,192.2,163.6"/>
				<path class="st2" d="M191.6,148.6c0-0.6-0.5-1.1-1.1-1.1s-1.1,0.5-1.1,1.1s0.5,1.1,1.1,1.1S191.6,149.2,191.6,148.6"/>
				<path class="st2" d="M184.4,171.1c0-1.1-0.9-2-2-2s-2,0.9-2,2s0.9,2,2,2S184.4,172.3,184.4,171.1"/>
				<path class="st2" d="M183.7,156.1c0-0.7-0.6-1.3-1.3-1.3s-1.3,0.6-1.3,1.3s0.6,1.3,1.3,1.3S183.7,156.8,183.7,156.1"/>
				<path class="st2" d="M183.2,141c0-0.5-0.4-0.9-0.9-0.9s-0.9,0.4-0.9,0.9s0.4,0.9,0.9,0.9S183.2,141.5,183.2,141"/>
				<path class="st2" d="M168,171.1c0-1.1-0.9-2-2-2s-2,0.9-2,2s0.9,2,2,2S168,172.3,168,171.1"/>
				<path class="st2" d="M200.8,171.1c0-1.1-0.9-2-2-2s-2,0.9-2,2s0.9,2,2,2S200.8,172.3,200.8,171.1"/>
				<path class="st2" d="M200.1,156.1c0-0.7-0.6-1.3-1.3-1.3s-1.3,0.6-1.3,1.3s0.6,1.3,1.3,1.3S200.1,156.8,200.1,156.1"/>
				<path class="st2" d="M199.6,141c0-0.5-0.4-0.9-0.9-0.9s-0.9,0.4-0.9,0.9s0.4,0.9,0.9,0.9S199.6,141.5,199.6,141"/>
				<path class="st2" d="M167.3,156.1c0-0.7-0.6-1.3-1.3-1.3s-1.3,0.6-1.3,1.3s0.6,1.3,1.3,1.3S167.3,156.8,167.3,156.1"/>
				<path class="st2" d="M166.8,141c0-0.5-0.4-0.9-0.9-0.9s-0.9,0.4-0.9,0.9s0.4,0.9,0.9,0.9S166.8,141.5,166.8,141"/>
				<path class="st2" d="M216.4,156.1c0-0.7-0.6-1.3-1.3-1.3s-1.3,0.6-1.3,1.3s0.6,1.3,1.3,1.3S216.4,156.8,216.4,156.1"/>
				<path class="st2" d="M216,141c0-0.5-0.4-0.9-0.9-0.9s-0.9,0.4-0.9,0.9s0.4,0.9,0.9,0.9S216,141.5,216,141"/>
				<path class="st2" d="M217.1,171.1c0-1.1-0.9-2-2-2s-2,0.9-2,2s0.9,2,2,2S217.1,172.3,217.1,171.1"/>
				<path class="st2" d="M209.4,178.7c0-1.4-1.1-2.5-2.5-2.5s-2.5,1.1-2.5,2.5s1.1,2.5,2.5,2.5S209.4,180.1,209.4,178.7"/>
				<path class="st2" d="M210.9,193.7c0-2.2-1.8-4-4-4s-4,1.8-4,4s1.8,4,4,4S210.9,195.9,210.9,193.7"/>
				<path class="st2" d="M211.8,208.8c0-2.7-2.2-4.9-4.9-4.9s-4.9,2.2-4.9,4.9s2.2,4.9,4.9,4.9S211.8,211.4,211.8,208.8"/>
				<path class="st2" d="M213.4,223.8c0-3.6-2.9-6.4-6.4-6.4s-6.4,2.9-6.4,6.4s2.9,6.4,6.4,6.4S213.4,227.4,213.4,223.8"/>
				<path class="st2" d="M214.7,238.9c0-4.3-3.5-7.8-7.8-7.8s-7.8,3.5-7.8,7.8s3.5,7.8,7.8,7.8S214.7,243.2,214.7,238.9"/>
				<path class="st2" d="M208.6,163.6c0-0.9-0.7-1.6-1.6-1.6s-1.6,0.7-1.6,1.6s0.7,1.6,1.6,1.6S208.6,164.5,208.6,163.6"/>
				<path class="st2" d="M208,148.6c0-0.6-0.5-1.1-1.1-1.1s-1.1,0.5-1.1,1.1s0.5,1.1,1.1,1.1S208,149.2,208,148.6"/>
			</g>
		</g>
		<g>
			<defs>
				<rect id="SVGID_00000156553963582632633240000001314001305749563561_" x="379.6" y="254" width="222.4" height="121.4"/>
			</defs>
			<clipPath id="SVGID_00000167355746461288881850000003691026330668435132_">
				<use xlink:href="#SVGID_00000156553963582632633240000001314001305749563561_"  style="overflow:visible;"/>
			</clipPath>
			<g style="clip-path:url(#SVGID_00000167355746461288881850000003691026330668435132_);">
				<path class="st2" d="M562.4,315.7c0-1.4-1.1-2.5-2.5-2.5s-2.5,1.1-2.5,2.5s1.1,2.5,2.5,2.5S562.4,317.1,562.4,315.7"/>
				<path class="st2" d="M563.9,330.8c0-2.2-1.8-4-4-4s-4,1.8-4,4s1.8,4,4,4S563.9,333,563.9,330.8"/>
				<path class="st2" d="M564.8,345.8c0-2.7-2.2-4.9-4.9-4.9s-4.9,2.2-4.9,4.9s2.2,4.9,4.9,4.9S564.8,348.5,564.8,345.8"/>
				<path class="st2" d="M566.4,360.9c0-3.6-2.9-6.5-6.5-6.5s-6.5,2.9-6.5,6.5s2.9,6.5,6.5,6.5S566.4,364.4,566.4,360.9"/>
				<path class="st2" d="M567.8,375.9c0-4.4-3.5-7.9-7.9-7.9s-7.9,3.5-7.9,7.9s3.5,7.9,7.9,7.9S567.8,380.3,567.8,375.9"/>
				<path class="st2" d="M561.5,300.6c0-0.9-0.7-1.6-1.7-1.6s-1.7,0.7-1.7,1.6s0.7,1.6,1.7,1.6S561.5,301.6,561.5,300.6"/>
				<path class="st2" d="M560.9,285.6c0-0.5-0.4-1-1-1s-1,0.4-1,1s0.4,1,1,1S560.9,286.1,560.9,285.6"/>
				<path class="st2" d="M571.7,323.2c0-2-1.6-3.6-3.6-3.6s-3.6,1.6-3.6,3.6s1.6,3.6,3.6,3.6S571.7,325.2,571.7,323.2"/>
				<path class="st2" d="M572.9,338.3c0-2.6-2.2-4.8-4.8-4.8s-4.8,2.1-4.8,4.8s2.2,4.8,4.8,4.8S572.9,340.9,572.9,338.3"/>
				<path class="st2" d="M573.9,353.3c0-3.2-2.6-5.8-5.8-5.8s-5.8,2.6-5.8,5.8s2.6,5.8,5.8,5.8S573.9,356.5,573.9,353.3"/>
				<path class="st2" d="M575.1,368.4c0-3.9-3.2-7-7-7s-7,3.1-7,7s3.2,7,7,7S575.1,372.3,575.1,368.4"/>
				<path class="st2" d="M576.6,382.9c0-4.7-3.8-8.5-8.5-8.5s-8.5,3.8-8.5,8.5s3.8,8.5,8.5,8.5S576.6,387.6,576.6,382.9"/>
				<path class="st2" d="M555.7,323.2c0-2.2-1.8-4-4-4s-4,1.8-4,4s1.8,4,4,4S555.7,325.4,555.7,323.2"/>
				<path class="st2" d="M556.5,338.3c0-2.6-2.2-4.8-4.8-4.8s-4.8,2.1-4.8,4.8s2.2,4.8,4.8,4.8S556.5,340.9,556.5,338.3"/>
				<path class="st2" d="M557.5,353.3c0-3.2-2.6-5.8-5.8-5.8s-5.8,2.6-5.8,5.8s2.6,5.8,5.8,5.8S557.5,356.5,557.5,353.3"/>
				<path class="st2" d="M558.7,368.4c0-3.9-3.2-7-7-7s-7,3.1-7,7s3.2,7,7,7S558.7,372.3,558.7,368.4"/>
				<path class="st2" d="M560.2,382.9c0-4.7-3.8-8.5-8.5-8.5s-8.5,3.8-8.5,8.5s3.8,8.5,8.5,8.5S560.2,387.6,560.2,382.9"/>
				<path class="st2" d="M588.1,323.2c0-2-1.6-3.6-3.6-3.6s-3.6,1.6-3.6,3.6s1.6,3.6,3.6,3.6S588.1,325.2,588.1,323.2"/>
				<path class="st2" d="M589.3,338.3c0-2.6-2.2-4.8-4.8-4.8s-4.8,2.1-4.8,4.8s2.2,4.8,4.8,4.8S589.3,340.9,589.3,338.3"/>
				<path class="st2" d="M590.3,353.3c0-3.2-2.6-5.8-5.8-5.8s-5.8,2.6-5.8,5.8s2.6,5.8,5.8,5.8S590.3,356.5,590.3,353.3"/>
				<path class="st2" d="M591.5,368.4c0-3.9-3.2-7-7-7s-7,3.1-7,7s3.2,7,7,7S591.5,372.3,591.5,368.4"/>
				<path class="st2" d="M593,382.9c0-4.7-3.8-8.5-8.5-8.5s-8.5,3.8-8.5,8.5s3.8,8.5,8.5,8.5S593,387.6,593,382.9"/>
				<path class="st2" d="M604.5,323.2c0-2-1.6-3.6-3.6-3.6s-3.6,1.6-3.6,3.6s1.6,3.6,3.6,3.6S604.5,325.2,604.5,323.2"/>
				<path class="st2" d="M605.7,338.3c0-2.6-2.2-4.8-4.8-4.8s-4.8,2.1-4.8,4.8s2.2,4.8,4.8,4.8S605.7,340.9,605.7,338.3"/>
				<path class="st2" d="M606.7,353.3c0-3.2-2.6-5.8-5.8-5.8s-5.8,2.6-5.8,5.8s2.6,5.8,5.8,5.8S606.7,356.5,606.7,353.3"/>
				<path class="st2" d="M607.9,368.4c0-3.9-3.2-7-7-7s-7,3.1-7,7s3.2,7,7,7S607.9,372.3,607.9,368.4"/>
				<path class="st2" d="M609.3,382.9c0-4.7-3.8-8.5-8.5-8.5s-8.5,3.8-8.5,8.5s3.8,8.5,8.5,8.5S609.3,387.6,609.3,382.9"/>
				<path class="st2" d="M578.8,315.7c0-1.4-1.1-2.5-2.5-2.5s-2.5,1.1-2.5,2.5s1.1,2.5,2.5,2.5S578.8,317.1,578.8,315.7"/>
				<path class="st2" d="M580.3,330.8c0-2.2-1.8-4-4-4s-4,1.8-4,4s1.8,4,4,4S580.3,333,580.3,330.8"/>
				<path class="st2" d="M581.2,345.8c0-2.7-2.2-4.9-4.9-4.9s-4.9,2.2-4.9,4.9s2.2,4.9,4.9,4.9S581.2,348.5,581.2,345.8"/>
				<path class="st2" d="M582.8,360.9c0-3.6-2.9-6.5-6.5-6.5s-6.5,2.9-6.5,6.5s2.9,6.5,6.5,6.5S582.8,364.4,582.8,360.9"/>
				<path class="st2" d="M584.2,375.9c0-4.4-3.5-7.9-7.9-7.9s-7.9,3.5-7.9,7.9s3.5,7.9,7.9,7.9S584.2,380.3,584.2,375.9"/>
				<path class="st2" d="M577.9,300.6c0-0.9-0.7-1.6-1.6-1.6s-1.6,0.7-1.6,1.6s0.7,1.6,1.6,1.6S577.9,301.5,577.9,300.6"/>
				<path class="st2" d="M577.3,285.6c0-0.6-0.5-1.1-1.1-1.1s-1.1,0.5-1.1,1.1s0.5,1.1,1.1,1.1S577.3,286.2,577.3,285.6"/>
				<path class="st2" d="M570.1,308.2c0-1.1-0.9-2-2-2s-2,0.9-2,2s0.9,2,2,2S570.1,309.3,570.1,308.2"/>
				<path class="st2" d="M569.4,293.1c0-0.7-0.6-1.3-1.3-1.3s-1.3,0.6-1.3,1.3s0.6,1.3,1.3,1.3S569.4,293.9,569.4,293.1"/>
				<path class="st2" d="M569,278.1c0-0.5-0.4-0.9-0.9-0.9s-0.9,0.4-0.9,0.9s0.4,0.9,0.9,0.9S569,278.6,569,278.1"/>
				<path class="st2" d="M553.7,308.2c0-1.1-0.9-2-2-2s-2,0.9-2,2s0.9,2,2,2S553.7,309.3,553.7,308.2"/>
				<path class="st2" d="M586.5,308.2c0-1.1-0.9-2-2-2s-2,0.9-2,2s0.9,2,2,2S586.5,309.3,586.5,308.2"/>
				<path class="st2" d="M585.8,293.1c0-0.7-0.6-1.3-1.3-1.3s-1.3,0.6-1.3,1.3s0.6,1.3,1.3,1.3S585.8,293.9,585.8,293.1"/>
				<path class="st2" d="M585.3,278.1c0-0.5-0.4-0.9-0.9-0.9s-0.9,0.4-0.9,0.9s0.4,0.9,0.9,0.9S585.3,278.6,585.3,278.1"/>
				<path class="st2" d="M553,293.1c0-0.7-0.6-1.3-1.3-1.3s-1.3,0.6-1.3,1.3s0.6,1.3,1.3,1.3S553,293.9,553,293.1"/>
				<path class="st2" d="M552.6,278.1c0-0.5-0.4-0.9-0.9-0.9s-0.9,0.4-0.9,0.9s0.4,0.9,0.9,0.9S552.6,278.6,552.6,278.1"/>
				<path class="st2" d="M602.2,293.1c0-0.7-0.6-1.3-1.3-1.3s-1.3,0.6-1.3,1.3s0.6,1.3,1.3,1.3S602.2,293.9,602.2,293.1"/>
				<path class="st2" d="M601.7,278.1c0-0.5-0.4-0.9-0.9-0.9s-0.9,0.4-0.9,0.9s0.4,0.9,0.9,0.9S601.7,278.6,601.7,278.1"/>
				<path class="st2" d="M602.9,308.2c0-1.1-0.9-2-2-2s-2,0.9-2,2s0.9,2,2,2S602.9,309.3,602.9,308.2"/>
				<path class="st2" d="M595.2,315.7c0-1.4-1.1-2.5-2.5-2.5s-2.5,1.1-2.5,2.5s1.1,2.5,2.5,2.5S595.2,317.1,595.2,315.7"/>
				<path class="st2" d="M596.7,330.8c0-2.2-1.8-4-4-4s-4,1.8-4,4s1.8,4,4,4S596.7,333,596.7,330.8"/>
				<path class="st2" d="M597.5,345.8c0-2.7-2.2-4.9-4.8-4.9s-4.8,2.2-4.8,4.9s2.2,4.9,4.8,4.9S597.5,348.5,597.5,345.8"/>
				<path class="st2" d="M599.1,360.9c0-3.6-2.9-6.5-6.5-6.5s-6.5,2.9-6.5,6.5s2.9,6.5,6.5,6.5S599.1,364.4,599.1,360.9"/>
				<path class="st2" d="M600.5,375.9c0-4.3-3.5-7.8-7.8-7.8s-7.8,3.5-7.8,7.8s3.5,7.8,7.8,7.8S600.5,380.2,600.5,375.9"/>
				<path class="st2" d="M594.3,300.6c0-0.9-0.7-1.6-1.6-1.6s-1.6,0.7-1.6,1.6s0.7,1.6,1.6,1.6S594.3,301.5,594.3,300.6"/>
				<path class="st2" d="M593.7,285.6c0-0.6-0.5-1.1-1.1-1.1s-1.1,0.5-1.1,1.1s0.5,1.1,1.1,1.1S593.7,286.2,593.7,285.6"/>
				<path class="st2" d="M611.5,315.7c0-1.4-1.1-2.5-2.5-2.5s-2.5,1.1-2.5,2.5s1.1,2.5,2.5,2.5S611.5,317.1,611.5,315.7"/>
				<path class="st2" d="M613.1,330.8c0-2.2-1.8-4-4-4s-4,1.8-4,4s1.8,4,4,4S613.1,333,613.1,330.8"/>
				<path class="st2" d="M613.9,345.8c0-2.7-2.2-4.9-4.9-4.9s-4.9,2.2-4.9,4.9s2.2,4.9,4.9,4.9S613.9,348.5,613.9,345.8"/>
				<path class="st2" d="M615.5,360.9c0-3.6-2.9-6.5-6.5-6.5s-6.5,2.9-6.5,6.5s2.9,6.5,6.5,6.5S615.5,364.4,615.5,360.9"/>
				<path class="st2" d="M616.9,375.9c0-4.4-3.5-7.9-7.9-7.9s-7.9,3.5-7.9,7.9s3.5,7.9,7.9,7.9S616.9,380.3,616.9,375.9"/>
				<path class="st2" d="M610.7,300.6c0-0.9-0.7-1.6-1.7-1.6s-1.7,0.7-1.7,1.6s0.7,1.6,1.7,1.6S610.7,301.6,610.7,300.6"/>
				<path class="st2" d="M610,285.6c0-0.5-0.4-1-1-1s-1,0.4-1,1s0.4,1,1,1S610,286.1,610,285.6"/>
				<path class="st2" d="M620.8,323.2c0-2-1.6-3.6-3.6-3.6s-3.6,1.6-3.6,3.6s1.6,3.6,3.6,3.6S620.8,325.2,620.8,323.2"/>
				<path class="st2" d="M622,338.3c0-2.6-2.2-4.8-4.8-4.8s-4.8,2.1-4.8,4.8s2.2,4.8,4.8,4.8S622,340.9,622,338.3"/>
				<path class="st2" d="M623,353.3c0-3.2-2.6-5.8-5.8-5.8s-5.8,2.6-5.8,5.8s2.6,5.8,5.8,5.8S623,356.5,623,353.3"/>
				<path class="st2" d="M624.2,368.4c0-3.9-3.2-7-7-7s-7,3.1-7,7s3.2,7,7,7S624.2,372.3,624.2,368.4"/>
				<path class="st2" d="M625.7,382.9c0-4.7-3.8-8.5-8.5-8.5s-8.5,3.8-8.5,8.5s3.8,8.5,8.5,8.5S625.7,387.6,625.7,382.9"/>
				<path class="st2" d="M605.6,338.3c0-2.6-2.2-4.8-4.8-4.8s-4.8,2.1-4.8,4.8s2.2,4.8,4.8,4.8S605.6,340.9,605.6,338.3"/>
				<path class="st2" d="M606.7,353.3c0-3.2-2.6-5.8-5.8-5.8s-5.8,2.6-5.8,5.8s2.6,5.8,5.8,5.8S606.7,356.5,606.7,353.3"/>
				<path class="st2" d="M607.9,368.4c0-3.9-3.2-7-7-7s-7,3.1-7,7s3.2,7,7,7S607.9,372.3,607.9,368.4"/>
				<path class="st2" d="M609.3,382.9c0-4.7-3.8-8.5-8.5-8.5s-8.5,3.8-8.5,8.5s3.8,8.5,8.5,8.5S609.3,387.6,609.3,382.9"/>
				<path class="st2" d="M619.3,308.2c0-1.1-0.9-2-2-2s-2,0.9-2,2s0.9,2,2,2S619.3,309.3,619.3,308.2"/>
				<path class="st2" d="M618.6,293.1c0-0.7-0.6-1.3-1.3-1.3s-1.3,0.6-1.3,1.3s0.6,1.3,1.3,1.3S618.6,293.9,618.6,293.1"/>
				<path class="st2" d="M602.9,308.2c0-1.1-0.9-2-2-2s-2,0.9-2,2s0.9,2,2,2S602.9,309.3,602.9,308.2"/>
				<path class="st2" d="M602.2,293.1c0-0.7-0.6-1.3-1.3-1.3s-1.3,0.6-1.3,1.3s0.6,1.3,1.3,1.3S602.2,293.9,602.2,293.1"/>
				<path class="st2" d="M601.7,278.1c0-0.5-0.4-0.9-0.9-0.9s-0.9,0.4-0.9,0.9s0.4,0.9,0.9,0.9S601.7,278.6,601.7,278.1"/>
				<path class="st2" d="M365.8,315.7c0-1.4-1.1-2.5-2.5-2.5s-2.5,1.1-2.5,2.5s1.1,2.5,2.5,2.5S365.8,317.1,365.8,315.7"/>
				<path class="st2" d="M367.4,330.8c0-2.2-1.8-4-4-4s-4,1.8-4,4s1.8,4,4,4S367.4,333,367.4,330.8"/>
				<path class="st2" d="M368.2,345.8c0-2.7-2.2-4.9-4.9-4.9s-4.9,2.2-4.9,4.9s2.2,4.9,4.9,4.9S368.2,348.5,368.2,345.8"/>
				<path class="st2" d="M369.8,360.9c0-3.6-2.9-6.5-6.5-6.5s-6.5,2.9-6.5,6.5s2.9,6.5,6.5,6.5S369.8,364.4,369.8,360.9"/>
				<path class="st2" d="M371.2,375.9c0-4.4-3.5-7.9-7.9-7.9s-7.9,3.5-7.9,7.9s3.5,7.9,7.9,7.9S371.2,380.3,371.2,375.9"/>
				<path class="st2" d="M365,300.6c0-0.9-0.7-1.6-1.6-1.6s-1.6,0.7-1.6,1.6s0.7,1.6,1.6,1.6S365,301.6,365,300.6"/>
				<path class="st2" d="M364.3,285.6c0-0.5-0.4-1-1-1s-1,0.4-1,1s0.4,1,1,1S364.3,286.1,364.3,285.6"/>
				<path class="st2" d="M375.1,323.2c0-2-1.6-3.6-3.6-3.6s-3.6,1.6-3.6,3.6s1.6,3.6,3.6,3.6S375.1,325.2,375.1,323.2"/>
				<path class="st2" d="M376.3,338.3c0-2.6-2.1-4.8-4.8-4.8s-4.8,2.1-4.8,4.8s2.1,4.8,4.8,4.8S376.3,340.9,376.3,338.3"/>
				<path class="st2" d="M377.3,353.3c0-3.2-2.6-5.8-5.8-5.8s-5.8,2.6-5.8,5.8s2.6,5.8,5.8,5.8S377.3,356.5,377.3,353.3"/>
				<path class="st2" d="M378.5,368.4c0-3.9-3.1-7-7-7s-7,3.1-7,7s3.1,7,7,7S378.5,372.3,378.5,368.4"/>
				<path class="st2" d="M380,382.9c0-4.7-3.8-8.5-8.5-8.5s-8.5,3.8-8.5,8.5s3.8,8.5,8.5,8.5S380,387.6,380,382.9"/>
				<path class="st2" d="M359.1,323.2c0-2.2-1.8-4-4-4s-4,1.8-4,4s1.8,4,4,4S359.1,325.4,359.1,323.2"/>
				<path class="st2" d="M359.9,338.3c0-2.6-2.1-4.8-4.8-4.8s-4.8,2.1-4.8,4.8s2.1,4.8,4.8,4.8S359.9,340.9,359.9,338.3"/>
				<path class="st2" d="M360.9,353.3c0-3.2-2.6-5.8-5.8-5.8s-5.8,2.6-5.8,5.8s2.6,5.8,5.8,5.8S360.9,356.5,360.9,353.3"/>
				<path class="st2" d="M362.1,368.4c0-3.9-3.1-7-7-7s-7,3.1-7,7s3.1,7,7,7S362.1,372.3,362.1,368.4"/>
				<path class="st2" d="M363.6,382.9c0-4.7-3.8-8.5-8.5-8.5s-8.5,3.8-8.5,8.5s3.8,8.5,8.5,8.5S363.6,387.6,363.6,382.9"/>
				<path class="st2" d="M391.5,323.2c0-2-1.6-3.6-3.6-3.6s-3.6,1.6-3.6,3.6s1.6,3.6,3.6,3.6S391.5,325.2,391.5,323.2"/>
				<path class="st2" d="M392.7,338.3c0-2.6-2.1-4.8-4.8-4.8s-4.8,2.1-4.8,4.8s2.1,4.8,4.8,4.8S392.7,340.9,392.7,338.3"/>
				<path class="st2" d="M393.7,353.3c0-3.2-2.6-5.8-5.8-5.8s-5.8,2.6-5.8,5.8s2.6,5.8,5.8,5.8S393.7,356.5,393.7,353.3"/>
				<path class="st2" d="M394.9,368.4c0-3.9-3.1-7-7-7s-7,3.1-7,7s3.1,7,7,7S394.9,372.3,394.9,368.4"/>
				<path class="st2" d="M396.4,382.9c0-4.7-3.8-8.5-8.5-8.5s-8.5,3.8-8.5,8.5s3.8,8.5,8.5,8.5S396.4,387.6,396.4,382.9"/>
				<path class="st2" d="M407.9,323.2c0-2-1.6-3.6-3.6-3.6s-3.6,1.6-3.6,3.6s1.6,3.6,3.6,3.6S407.9,325.2,407.9,323.2"/>
				<path class="st2" d="M409.1,338.3c0-2.6-2.1-4.8-4.8-4.8s-4.8,2.1-4.8,4.8s2.1,4.8,4.8,4.8S409.1,340.9,409.1,338.3"/>
				<path class="st2" d="M410.1,353.3c0-3.2-2.6-5.8-5.8-5.8s-5.8,2.6-5.8,5.8s2.6,5.8,5.8,5.8S410.1,356.5,410.1,353.3"/>
				<path class="st2" d="M411.3,368.4c0-3.9-3.1-7-7-7s-7,3.1-7,7s3.1,7,7,7S411.3,372.3,411.3,368.4"/>
				<path class="st2" d="M412.8,382.9c0-4.7-3.8-8.5-8.5-8.5s-8.5,3.8-8.5,8.5s3.8,8.5,8.5,8.5S412.8,387.6,412.8,382.9"/>
				<path class="st2" d="M382.2,315.7c0-1.4-1.1-2.5-2.5-2.5s-2.5,1.1-2.5,2.5s1.1,2.5,2.5,2.5S382.2,317.1,382.2,315.7"/>
				<path class="st2" d="M383.7,330.8c0-2.2-1.8-4-4-4s-4,1.8-4,4s1.8,4,4,4S383.7,333,383.7,330.8"/>
				<path class="st2" d="M384.6,345.8c0-2.7-2.2-4.9-4.9-4.9s-4.9,2.2-4.9,4.9s2.2,4.9,4.9,4.9S384.6,348.5,384.6,345.8"/>
				<path class="st2" d="M386.2,360.9c0-3.6-2.9-6.5-6.5-6.5s-6.5,2.9-6.5,6.5s2.9,6.5,6.5,6.5S386.2,364.4,386.2,360.9"/>
				<path class="st2" d="M387.6,375.9c0-4.4-3.5-7.9-7.9-7.9s-7.9,3.5-7.9,7.9s3.5,7.9,7.9,7.9S387.6,380.3,387.6,375.9"/>
				<path class="st2" d="M381.3,300.6c0-0.9-0.7-1.6-1.6-1.6s-1.6,0.7-1.6,1.6s0.7,1.6,1.6,1.6S381.3,301.5,381.3,300.6"/>
				<path class="st2" d="M380.8,285.6c0-0.6-0.5-1.1-1.1-1.1s-1.1,0.5-1.1,1.1s0.5,1.1,1.1,1.1S380.8,286.2,380.8,285.6"/>
				<path class="st2" d="M373.5,308.2c0-1.1-0.9-2-2-2s-2,0.9-2,2s0.9,2,2,2S373.5,309.3,373.5,308.2"/>
				<path class="st2" d="M372.8,293.1c0-0.7-0.6-1.3-1.3-1.3s-1.3,0.6-1.3,1.3s0.6,1.3,1.3,1.3S372.8,293.9,372.8,293.1"/>
				<path class="st2" d="M372.4,278.1c0-0.5-0.4-0.9-0.9-0.9s-0.9,0.4-0.9,0.9s0.4,0.9,0.9,0.9S372.4,278.6,372.4,278.1"/>
				<path class="st2" d="M357.1,308.2c0-1.1-0.9-2-2-2s-2,0.9-2,2s0.9,2,2,2S357.1,309.3,357.1,308.2"/>
				<path class="st2" d="M389.9,308.2c0-1.1-0.9-2-2-2s-2,0.9-2,2s0.9,2,2,2S389.9,309.3,389.9,308.2"/>
				<path class="st2" d="M389.2,293.1c0-0.7-0.6-1.3-1.3-1.3s-1.3,0.6-1.3,1.3s0.6,1.3,1.3,1.3S389.2,293.9,389.2,293.1"/>
				<path class="st2" d="M388.8,278.1c0-0.5-0.4-0.9-0.9-0.9s-0.9,0.4-0.9,0.9s0.4,0.9,0.9,0.9S388.8,278.6,388.8,278.1"/>
				<path class="st2" d="M356.4,293.1c0-0.7-0.6-1.3-1.3-1.3s-1.3,0.6-1.3,1.3s0.6,1.3,1.3,1.3S356.4,293.9,356.4,293.1"/>
				<path class="st2" d="M356,278.1c0-0.5-0.4-0.9-0.9-0.9s-0.9,0.4-0.9,0.9s0.4,0.9,0.9,0.9S356,278.6,356,278.1"/>
				<path class="st2" d="M405.6,293.1c0-0.7-0.6-1.3-1.3-1.3s-1.3,0.6-1.3,1.3s0.6,1.3,1.3,1.3S405.6,293.9,405.6,293.1"/>
				<path class="st2" d="M405.1,278.1c0-0.5-0.4-0.9-0.9-0.9s-0.9,0.4-0.9,0.9s0.4,0.9,0.9,0.9S405.1,278.6,405.1,278.1"/>
				<path class="st2" d="M406.3,308.2c0-1.1-0.9-2-2-2s-2,0.9-2,2s0.9,2,2,2S406.3,309.3,406.3,308.2"/>
				<path class="st2" d="M398.6,315.7c0-1.4-1.1-2.5-2.5-2.5s-2.5,1.1-2.5,2.5s1.1,2.5,2.5,2.5S398.6,317.1,398.6,315.7"/>
				<path class="st2" d="M400.1,330.8c0-2.2-1.8-4-4-4s-4,1.8-4,4s1.8,4,4,4S400.1,333,400.1,330.8"/>
				<path class="st2" d="M400.9,345.8c0-2.7-2.2-4.9-4.9-4.9s-4.9,2.2-4.9,4.9s2.2,4.9,4.9,4.9S400.9,348.5,400.9,345.8"/>
				<path class="st2" d="M402.5,360.9c0-3.6-2.9-6.5-6.5-6.5s-6.5,2.9-6.5,6.5s2.9,6.5,6.5,6.5S402.5,364.4,402.5,360.9"/>
				<path class="st2" d="M403.9,375.9c0-4.3-3.5-7.8-7.8-7.8s-7.8,3.5-7.8,7.8s3.5,7.8,7.8,7.8S403.9,380.2,403.9,375.9"/>
				<path class="st2" d="M397.7,300.6c0-0.9-0.7-1.6-1.6-1.6s-1.6,0.7-1.6,1.6s0.7,1.6,1.6,1.6S397.7,301.5,397.7,300.6"/>
				<path class="st2" d="M397.1,285.6c0-0.6-0.5-1.1-1.1-1.1s-1.1,0.5-1.1,1.1s0.5,1.1,1.1,1.1S397.1,286.2,397.1,285.6"/>
				<path class="st2" d="M415,315.7c0-1.4-1.1-2.5-2.5-2.5s-2.5,1.1-2.5,2.5s1.1,2.5,2.5,2.5S415,317.1,415,315.7"/>
				<path class="st2" d="M416.5,330.8c0-2.2-1.8-4-4-4s-4,1.8-4,4s1.8,4,4,4S416.5,333,416.5,330.8"/>
				<path class="st2" d="M417.3,345.8c0-2.7-2.2-4.9-4.9-4.9s-4.9,2.2-4.9,4.9s2.2,4.9,4.9,4.9S417.3,348.5,417.3,345.8"/>
				<path class="st2" d="M419,360.9c0-3.6-2.9-6.5-6.5-6.5s-6.5,2.9-6.5,6.5s2.9,6.5,6.5,6.5S419,364.4,419,360.9"/>
				<path class="st2" d="M420.3,375.9c0-4.4-3.5-7.9-7.9-7.9s-7.9,3.5-7.9,7.9s3.5,7.9,7.9,7.9S420.3,380.3,420.3,375.9"/>
				<path class="st2" d="M414.1,300.6c0-0.9-0.7-1.6-1.6-1.6s-1.6,0.7-1.6,1.6s0.7,1.6,1.6,1.6S414.1,301.6,414.1,300.6"/>
				<path class="st2" d="M413.4,285.6c0-0.5-0.4-1-1-1s-1,0.4-1,1s0.4,1,1,1S413.4,286.1,413.4,285.6"/>
				<path class="st2" d="M424.2,323.2c0-2-1.6-3.6-3.6-3.6s-3.6,1.6-3.6,3.6s1.6,3.6,3.6,3.6S424.2,325.2,424.2,323.2"/>
				<path class="st2" d="M425.4,338.3c0-2.6-2.1-4.8-4.8-4.8s-4.8,2.1-4.8,4.8s2.1,4.8,4.8,4.8S425.4,340.9,425.4,338.3"/>
				<path class="st2" d="M426.4,353.3c0-3.2-2.6-5.8-5.8-5.8s-5.8,2.6-5.8,5.8s2.6,5.8,5.8,5.8S426.4,356.5,426.4,353.3"/>
				<path class="st2" d="M427.7,368.4c0-3.9-3.1-7-7-7s-7,3.1-7,7s3.1,7,7,7S427.7,372.3,427.7,368.4"/>
				<path class="st2" d="M429.1,382.9c0-4.7-3.8-8.5-8.5-8.5s-8.5,3.8-8.5,8.5s3.8,8.5,8.5,8.5S429.1,387.6,429.1,382.9"/>
				<path class="st2" d="M409,338.3c0-2.6-2.1-4.8-4.8-4.8s-4.8,2.1-4.8,4.8s2.1,4.8,4.8,4.8S409,340.9,409,338.3"/>
				<path class="st2" d="M410.1,353.3c0-3.2-2.6-5.8-5.8-5.8s-5.8,2.6-5.8,5.8s2.6,5.8,5.8,5.8S410.1,356.5,410.1,353.3"/>
				<path class="st2" d="M411.3,368.4c0-3.9-3.1-7-7-7s-7,3.1-7,7s3.1,7,7,7S411.3,372.3,411.3,368.4"/>
				<path class="st2" d="M412.8,382.9c0-4.7-3.8-8.5-8.5-8.5s-8.5,3.8-8.5,8.5s3.8,8.5,8.5,8.5S412.8,387.6,412.8,382.9"/>
				<path class="st2" d="M440.6,323.2c0-2-1.6-3.6-3.6-3.6s-3.6,1.6-3.6,3.6s1.6,3.6,3.6,3.6S440.6,325.2,440.6,323.2"/>
				<path class="st2" d="M441.8,338.3c0-2.6-2.1-4.8-4.8-4.8s-4.8,2.1-4.8,4.8s2.1,4.8,4.8,4.8S441.8,340.9,441.8,338.3"/>
				<path class="st2" d="M442.8,353.3c0-3.2-2.6-5.8-5.8-5.8s-5.8,2.6-5.8,5.8s2.6,5.8,5.8,5.8S442.8,356.5,442.8,353.3"/>
				<path class="st2" d="M444,368.4c0-3.9-3.1-7-7-7s-7,3.1-7,7s3.1,7,7,7S444,372.3,444,368.4"/>
				<path class="st2" d="M445.5,382.9c0-4.7-3.8-8.5-8.5-8.5s-8.5,3.8-8.5,8.5s3.8,8.5,8.5,8.5S445.5,387.6,445.5,382.9"/>
				<path class="st2" d="M457,323.2c0-2-1.6-3.6-3.6-3.6s-3.6,1.6-3.6,3.6s1.6,3.6,3.6,3.6S457,325.2,457,323.2"/>
				<path class="st2" d="M458.2,338.3c0-2.6-2.1-4.8-4.8-4.8s-4.8,2.1-4.8,4.8s2.1,4.8,4.8,4.8S458.2,340.9,458.2,338.3"/>
				<path class="st2" d="M459.2,353.3c0-3.2-2.6-5.8-5.8-5.8s-5.8,2.6-5.8,5.8s2.6,5.8,5.8,5.8S459.2,356.5,459.2,353.3"/>
				<path class="st2" d="M460.4,368.4c0-3.9-3.1-7-7-7s-7,3.1-7,7s3.1,7,7,7S460.4,372.3,460.4,368.4"/>
				<path class="st2" d="M461.9,382.9c0-4.7-3.8-8.5-8.5-8.5s-8.5,3.8-8.5,8.5s3.8,8.5,8.5,8.5S461.9,387.6,461.9,382.9"/>
				<path class="st2" d="M431.3,315.7c0-1.4-1.1-2.5-2.5-2.5s-2.5,1.1-2.5,2.5s1.1,2.5,2.5,2.5S431.3,317.1,431.3,315.7"/>
				<path class="st2" d="M432.9,330.8c0-2.2-1.8-4-4-4s-4,1.8-4,4s1.8,4,4,4S432.9,333,432.9,330.8"/>
				<path class="st2" d="M433.7,345.8c0-2.7-2.2-4.9-4.9-4.9s-4.9,2.2-4.9,4.9s2.2,4.9,4.9,4.9S433.7,348.5,433.7,345.8"/>
				<path class="st2" d="M435.3,360.9c0-3.6-2.9-6.5-6.5-6.5s-6.5,2.9-6.5,6.5s2.9,6.5,6.5,6.5S435.3,364.4,435.3,360.9"/>
				<path class="st2" d="M436.7,375.9c0-4.4-3.5-7.9-7.9-7.9s-7.9,3.5-7.9,7.9s3.5,7.9,7.9,7.9S436.7,380.3,436.7,375.9"/>
				<path class="st2" d="M430.5,300.6c0-0.9-0.7-1.6-1.6-1.6s-1.6,0.7-1.6,1.6s0.7,1.6,1.6,1.6S430.5,301.5,430.5,300.6"/>
				<path class="st2" d="M429.9,285.6c0-0.6-0.5-1.1-1.1-1.1s-1.1,0.5-1.1,1.1s0.5,1.1,1.1,1.1S429.9,286.2,429.9,285.6"/>
				<path class="st2" d="M422.7,308.2c0-1.1-0.9-2-2-2s-2,0.9-2,2s0.9,2,2,2S422.7,309.3,422.7,308.2"/>
				<path class="st2" d="M422,293.1c0-0.7-0.6-1.3-1.3-1.3s-1.3,0.6-1.3,1.3s0.6,1.3,1.3,1.3S422,293.9,422,293.1"/>
				<path class="st2" d="M421.5,278.1c0-0.5-0.4-0.9-0.9-0.9s-0.9,0.4-0.9,0.9s0.4,0.9,0.9,0.9S421.5,278.6,421.5,278.1"/>
				<path class="st2" d="M406.3,308.2c0-1.1-0.9-2-2-2s-2,0.9-2,2s0.9,2,2,2S406.3,309.3,406.3,308.2"/>
				<path class="st2" d="M439,308.2c0-1.1-0.9-2-2-2s-2,0.9-2,2s0.9,2,2,2S439,309.3,439,308.2"/>
				<path class="st2" d="M438.4,293.1c0-0.7-0.6-1.3-1.3-1.3s-1.3,0.6-1.3,1.3s0.6,1.3,1.3,1.3S438.4,293.9,438.4,293.1"/>
				<path class="st2" d="M437.9,278.1c0-0.5-0.4-0.9-0.9-0.9s-0.9,0.4-0.9,0.9s0.4,0.9,0.9,0.9S437.9,278.6,437.9,278.1"/>
				<path class="st2" d="M405.6,293.1c0-0.7-0.6-1.3-1.3-1.3s-1.3,0.6-1.3,1.3s0.6,1.3,1.3,1.3S405.6,293.9,405.6,293.1"/>
				<path class="st2" d="M405.1,278.1c0-0.5-0.4-0.9-0.9-0.9s-0.9,0.4-0.9,0.9s0.4,0.9,0.9,0.9S405.1,278.6,405.1,278.1"/>
				<path class="st2" d="M454.7,293.1c0-0.7-0.6-1.3-1.3-1.3s-1.3,0.6-1.3,1.3s0.6,1.3,1.3,1.3S454.7,293.9,454.7,293.1"/>
				<path class="st2" d="M454.3,278.1c0-0.5-0.4-0.9-0.9-0.9s-0.9,0.4-0.9,0.9s0.4,0.9,0.9,0.9S454.3,278.6,454.3,278.1"/>
				<path class="st2" d="M455.4,308.2c0-1.1-0.9-2-2-2s-2,0.9-2,2s0.9,2,2,2S455.4,309.3,455.4,308.2"/>
				<path class="st2" d="M447.7,315.7c0-1.4-1.1-2.5-2.5-2.5s-2.5,1.1-2.5,2.5s1.1,2.5,2.5,2.5S447.7,317.1,447.7,315.7"/>
				<path class="st2" d="M449.2,330.8c0-2.2-1.8-4-4-4s-4,1.8-4,4s1.8,4,4,4S449.2,333,449.2,330.8"/>
				<path class="st2" d="M450.1,345.8c0-2.7-2.2-4.9-4.9-4.9s-4.9,2.2-4.9,4.9s2.2,4.9,4.9,4.9S450.1,348.5,450.1,345.8"/>
				<path class="st2" d="M451.7,360.9c0-3.6-2.9-6.5-6.5-6.5s-6.5,2.9-6.5,6.5s2.9,6.5,6.5,6.5S451.7,364.4,451.7,360.9"/>
				<path class="st2" d="M453,375.9c0-4.3-3.5-7.8-7.8-7.8s-7.8,3.5-7.8,7.8s3.5,7.8,7.8,7.8S453,380.2,453,375.9"/>
				<path class="st2" d="M446.8,300.6c0-0.9-0.7-1.6-1.6-1.6s-1.6,0.7-1.6,1.6s0.7,1.6,1.6,1.6S446.8,301.5,446.8,300.6"/>
				<path class="st2" d="M446.3,285.6c0-0.6-0.5-1.1-1.1-1.1s-1.1,0.5-1.1,1.1s0.5,1.1,1.1,1.1S446.3,286.2,446.3,285.6"/>
				<path class="st2" d="M464.1,315.7c0-1.4-1.1-2.5-2.5-2.5s-2.5,1.1-2.5,2.5s1.1,2.5,2.5,2.5S464.1,317.1,464.1,315.7"/>
				<path class="st2" d="M465.6,330.8c0-2.2-1.8-4-4-4s-4,1.8-4,4s1.8,4,4,4S465.6,333,465.6,330.8"/>
				<path class="st2" d="M466.5,345.8c0-2.7-2.2-4.9-4.9-4.9s-4.9,2.2-4.9,4.9s2.2,4.9,4.9,4.9S466.5,348.5,466.5,345.8"/>
				<path class="st2" d="M468.1,360.9c0-3.6-2.9-6.5-6.5-6.5s-6.5,2.9-6.5,6.5s2.9,6.5,6.5,6.5S468.1,364.4,468.1,360.9"/>
				<path class="st2" d="M469.5,375.9c0-4.4-3.5-7.9-7.9-7.9s-7.9,3.5-7.9,7.9s3.5,7.9,7.9,7.9S469.5,380.3,469.5,375.9"/>
				<path class="st2" d="M463.2,300.6c0-0.9-0.7-1.6-1.6-1.6s-1.6,0.7-1.6,1.6s0.7,1.6,1.6,1.6S463.2,301.6,463.2,300.6"/>
				<path class="st2" d="M462.6,285.6c0-0.5-0.4-1-1-1s-1,0.4-1,1s0.4,1,1,1S462.6,286.1,462.6,285.6"/>
				<path class="st2" d="M473.4,323.2c0-2-1.6-3.6-3.6-3.6s-3.6,1.6-3.6,3.6s1.6,3.6,3.6,3.6S473.4,325.2,473.4,323.2"/>
				<path class="st2" d="M474.6,338.3c0-2.6-2.1-4.8-4.8-4.8s-4.8,2.1-4.8,4.8s2.1,4.8,4.8,4.8S474.6,340.9,474.6,338.3"/>
				<path class="st2" d="M475.6,353.3c0-3.2-2.6-5.8-5.8-5.8s-5.8,2.6-5.8,5.8s2.6,5.8,5.8,5.8S475.6,356.5,475.6,353.3"/>
				<path class="st2" d="M476.8,368.4c0-3.9-3.1-7-7-7s-7,3.1-7,7s3.1,7,7,7S476.8,372.3,476.8,368.4"/>
				<path class="st2" d="M478.3,382.9c0-4.7-3.8-8.5-8.5-8.5s-8.5,3.8-8.5,8.5s3.8,8.5,8.5,8.5S478.3,387.6,478.3,382.9"/>
				<path class="st2" d="M458.2,338.3c0-2.6-2.1-4.8-4.8-4.8s-4.8,2.1-4.8,4.8s2.1,4.8,4.8,4.8S458.2,340.9,458.2,338.3"/>
				<path class="st2" d="M459.2,353.3c0-3.2-2.6-5.8-5.8-5.8s-5.8,2.6-5.8,5.8s2.6,5.8,5.8,5.8S459.2,356.5,459.2,353.3"/>
				<path class="st2" d="M460.4,368.4c0-3.9-3.1-7-7-7s-7,3.1-7,7s3.1,7,7,7S460.4,372.3,460.4,368.4"/>
				<path class="st2" d="M461.9,382.9c0-4.7-3.8-8.5-8.5-8.5s-8.5,3.8-8.5,8.5s3.8,8.5,8.5,8.5S461.9,387.6,461.9,382.9"/>
				<path class="st2" d="M489.8,323.2c0-2-1.6-3.6-3.6-3.6s-3.6,1.6-3.6,3.6s1.6,3.6,3.6,3.6S489.8,325.2,489.8,323.2"/>
				<path class="st2" d="M491,338.3c0-2.6-2.1-4.8-4.8-4.8s-4.8,2.1-4.8,4.8s2.1,4.8,4.8,4.8S491,340.9,491,338.3"/>
				<path class="st2" d="M492,353.3c0-3.2-2.6-5.8-5.8-5.8s-5.8,2.6-5.8,5.8s2.6,5.8,5.8,5.8S492,356.5,492,353.3"/>
				<path class="st2" d="M493.2,368.4c0-3.9-3.1-7-7-7s-7,3.1-7,7s3.1,7,7,7S493.2,372.3,493.2,368.4"/>
				<path class="st2" d="M494.7,382.9c0-4.7-3.8-8.5-8.5-8.5s-8.5,3.8-8.5,8.5s3.8,8.5,8.5,8.5S494.7,387.6,494.7,382.9"/>
				<path class="st2" d="M506.1,323.2c0-2-1.6-3.6-3.6-3.6s-3.6,1.6-3.6,3.6s1.6,3.6,3.6,3.6S506.1,325.2,506.1,323.2"/>
				<path class="st2" d="M507.4,338.3c0-2.6-2.1-4.8-4.8-4.8s-4.8,2.1-4.8,4.8s2.1,4.8,4.8,4.8S507.4,340.9,507.4,338.3"/>
				<path class="st2" d="M508.4,353.3c0-3.2-2.6-5.8-5.8-5.8s-5.8,2.6-5.8,5.8s2.6,5.8,5.8,5.8S508.4,356.5,508.4,353.3"/>
				<path class="st2" d="M509.6,368.4c0-3.9-3.1-7-7-7s-7,3.1-7,7s3.1,7,7,7S509.6,372.3,509.6,368.4"/>
				<path class="st2" d="M511,382.9c0-4.7-3.8-8.5-8.5-8.5s-8.5,3.8-8.5,8.5s3.8,8.5,8.5,8.5S511,387.6,511,382.9"/>
				<path class="st2" d="M480.5,315.7c0-1.4-1.1-2.5-2.5-2.5s-2.5,1.1-2.5,2.5s1.1,2.5,2.5,2.5S480.5,317.1,480.5,315.7"/>
				<path class="st2" d="M482,330.8c0-2.2-1.8-4-4-4s-4,1.8-4,4s1.8,4,4,4S482,333,482,330.8"/>
				<path class="st2" d="M482.9,345.8c0-2.7-2.2-4.9-4.9-4.9s-4.9,2.2-4.9,4.9s2.2,4.9,4.9,4.9S482.9,348.5,482.9,345.8"/>
				<path class="st2" d="M484.5,360.9c0-3.6-2.9-6.5-6.5-6.5s-6.5,2.9-6.5,6.5s2.9,6.5,6.5,6.5S484.5,364.4,484.5,360.9"/>
				<path class="st2" d="M485.9,375.9c0-4.4-3.5-7.9-7.9-7.9s-7.9,3.5-7.9,7.9s3.5,7.9,7.9,7.9S485.9,380.3,485.9,375.9"/>
				<path class="st2" d="M479.6,300.6c0-0.9-0.7-1.6-1.6-1.6s-1.6,0.7-1.6,1.6s0.7,1.6,1.6,1.6S479.6,301.5,479.6,300.6"/>
				<path class="st2" d="M479,285.6c0-0.6-0.5-1.1-1.1-1.1s-1.1,0.5-1.1,1.1s0.5,1.1,1.1,1.1S479,286.2,479,285.6"/>
				<path class="st2" d="M471.8,308.2c0-1.1-0.9-2-2-2s-2,0.9-2,2s0.9,2,2,2S471.8,309.3,471.8,308.2"/>
				<path class="st2" d="M471.1,293.1c0-0.7-0.6-1.3-1.3-1.3s-1.3,0.6-1.3,1.3s0.6,1.3,1.3,1.3S471.1,293.9,471.1,293.1"/>
				<path class="st2" d="M470.7,278.1c0-0.5-0.4-0.9-0.9-0.9s-0.9,0.4-0.9,0.9s0.4,0.9,0.9,0.9S470.7,278.6,470.7,278.1"/>
				<path class="st2" d="M455.4,308.2c0-1.1-0.9-2-2-2s-2,0.9-2,2s0.9,2,2,2S455.4,309.3,455.4,308.2"/>
				<path class="st2" d="M488.2,308.2c0-1.1-0.9-2-2-2s-2,0.9-2,2s0.9,2,2,2S488.2,309.3,488.2,308.2"/>
				<path class="st2" d="M487.5,293.1c0-0.7-0.6-1.3-1.3-1.3s-1.3,0.6-1.3,1.3s0.6,1.3,1.3,1.3S487.5,293.9,487.5,293.1"/>
				<path class="st2" d="M487,278.1c0-0.5-0.4-0.9-0.9-0.9s-0.9,0.4-0.9,0.9s0.4,0.9,0.9,0.9S487,278.6,487,278.1"/>
				<path class="st2" d="M454.7,293.1c0-0.7-0.6-1.3-1.3-1.3s-1.3,0.6-1.3,1.3s0.6,1.3,1.3,1.3S454.7,293.9,454.7,293.1"/>
				<path class="st2" d="M454.3,278.1c0-0.5-0.4-0.9-0.9-0.9s-0.9,0.4-0.9,0.9s0.4,0.9,0.9,0.9S454.3,278.6,454.3,278.1"/>
				<path class="st2" d="M503.9,293.1c0-0.7-0.6-1.3-1.3-1.3s-1.3,0.6-1.3,1.3s0.6,1.3,1.3,1.3S503.9,293.9,503.9,293.1"/>
				<path class="st2" d="M503.4,278.1c0-0.5-0.4-0.9-0.9-0.9s-0.9,0.4-0.9,0.9s0.4,0.9,0.9,0.9S503.4,278.6,503.4,278.1"/>
				<path class="st2" d="M504.6,308.2c0-1.1-0.9-2-2-2s-2,0.9-2,2s0.9,2,2,2S504.6,309.3,504.6,308.2"/>
				<path class="st2" d="M496.9,315.7c0-1.4-1.1-2.5-2.5-2.5s-2.5,1.1-2.5,2.5s1.1,2.5,2.5,2.5S496.9,317.1,496.9,315.7"/>
				<path class="st2" d="M498.4,330.8c0-2.2-1.8-4-4-4s-4,1.8-4,4s1.8,4,4,4S498.4,333,498.4,330.8"/>
				<path class="st2" d="M499.2,345.8c0-2.7-2.2-4.9-4.9-4.9s-4.9,2.2-4.9,4.9s2.2,4.9,4.9,4.9S499.2,348.5,499.2,345.8"/>
				<path class="st2" d="M500.8,360.9c0-3.6-2.9-6.5-6.5-6.5s-6.5,2.9-6.5,6.5s2.9,6.5,6.5,6.5S500.8,364.4,500.8,360.9"/>
				<path class="st2" d="M502.2,375.9c0-4.3-3.5-7.8-7.8-7.8s-7.8,3.5-7.8,7.8s3.5,7.8,7.8,7.8S502.2,380.2,502.2,375.9"/>
				<path class="st2" d="M496,300.6c0-0.9-0.7-1.6-1.6-1.6s-1.6,0.7-1.6,1.6s0.7,1.6,1.6,1.6S496,301.5,496,300.6"/>
				<path class="st2" d="M495.4,285.6c0-0.6-0.5-1.1-1.1-1.1s-1.1,0.5-1.1,1.1s0.5,1.1,1.1,1.1S495.4,286.2,495.4,285.6"/>
				<path class="st2" d="M513.2,315.7c0-1.4-1.1-2.5-2.5-2.5s-2.5,1.1-2.5,2.5s1.1,2.5,2.5,2.5S513.2,317.1,513.2,315.7"/>
				<path class="st2" d="M514.8,330.8c0-2.2-1.8-4-4-4s-4,1.8-4,4s1.8,4,4,4S514.8,333,514.8,330.8"/>
				<path class="st2" d="M515.6,345.8c0-2.7-2.2-4.9-4.9-4.9s-4.9,2.2-4.9,4.9s2.2,4.9,4.9,4.9S515.6,348.5,515.6,345.8"/>
				<path class="st2" d="M517.2,360.9c0-3.6-2.9-6.5-6.5-6.5s-6.5,2.9-6.5,6.5s2.9,6.5,6.5,6.5C514.3,367.4,517.2,364.4,517.2,360.9
					"/>
				<path class="st2" d="M518.6,375.9c0-4.4-3.5-7.9-7.9-7.9s-7.9,3.5-7.9,7.9s3.5,7.9,7.9,7.9C515.1,383.8,518.6,380.3,518.6,375.9
					"/>
				<path class="st2" d="M512.4,300.6c0-0.9-0.7-1.6-1.6-1.6s-1.6,0.7-1.6,1.6s0.7,1.6,1.6,1.6S512.4,301.6,512.4,300.6"/>
				<path class="st2" d="M511.7,285.6c0-0.5-0.4-1-1-1s-1,0.4-1,1s0.4,1,1,1S511.7,286.1,511.7,285.6"/>
				<path class="st2" d="M522.5,323.2c0-2-1.6-3.6-3.6-3.6s-3.6,1.6-3.6,3.6s1.6,3.6,3.6,3.6S522.5,325.2,522.5,323.2"/>
				<path class="st2" d="M523.7,338.3c0-2.6-2.2-4.8-4.8-4.8s-4.8,2.1-4.8,4.8s2.2,4.8,4.8,4.8S523.7,340.9,523.7,338.3"/>
				<path class="st2" d="M524.7,353.3c0-3.2-2.6-5.8-5.8-5.8s-5.8,2.6-5.8,5.8s2.6,5.8,5.8,5.8S524.7,356.5,524.7,353.3"/>
				<path class="st2" d="M526,368.4c0-3.9-3.2-7-7-7s-7,3.1-7,7s3.1,7,7,7S526,372.3,526,368.4"/>
				<path class="st2" d="M527.4,382.9c0-4.7-3.8-8.5-8.5-8.5s-8.5,3.8-8.5,8.5s3.8,8.5,8.5,8.5S527.4,387.6,527.4,382.9"/>
				<path class="st2" d="M507.3,338.3c0-2.6-2.1-4.8-4.8-4.8s-4.8,2.1-4.8,4.8s2.1,4.8,4.8,4.8S507.3,340.9,507.3,338.3"/>
				<path class="st2" d="M508.4,353.3c0-3.2-2.6-5.8-5.8-5.8s-5.8,2.6-5.8,5.8s2.6,5.8,5.8,5.8S508.4,356.5,508.4,353.3"/>
				<path class="st2" d="M509.6,368.4c0-3.9-3.1-7-7-7s-7,3.1-7,7s3.1,7,7,7S509.6,372.3,509.6,368.4"/>
				<path class="st2" d="M511,382.9c0-4.7-3.8-8.5-8.5-8.5s-8.5,3.8-8.5,8.5s3.8,8.5,8.5,8.5S511,387.6,511,382.9"/>
				<path class="st2" d="M538.9,323.2c0-2-1.6-3.6-3.6-3.6s-3.6,1.6-3.6,3.6s1.6,3.6,3.6,3.6S538.9,325.2,538.9,323.2"/>
				<path class="st2" d="M540.1,338.3c0-2.6-2.2-4.8-4.8-4.8s-4.8,2.1-4.8,4.8s2.2,4.8,4.8,4.8S540.1,340.9,540.1,338.3"/>
				<path class="st2" d="M541.1,353.3c0-3.2-2.6-5.8-5.8-5.8s-5.8,2.6-5.8,5.8s2.6,5.8,5.8,5.8S541.1,356.5,541.1,353.3"/>
				<path class="st2" d="M542.3,368.4c0-3.9-3.2-7-7-7s-7,3.1-7,7s3.2,7,7,7S542.3,372.3,542.3,368.4"/>
				<path class="st2" d="M543.8,382.9c0-4.7-3.8-8.5-8.5-8.5s-8.5,3.8-8.5,8.5s3.8,8.5,8.5,8.5S543.8,387.6,543.8,382.9"/>
				<path class="st2" d="M555.3,323.2c0-2-1.6-3.6-3.6-3.6s-3.6,1.6-3.6,3.6s1.6,3.6,3.6,3.6S555.3,325.2,555.3,323.2"/>
				<path class="st2" d="M556.5,338.3c0-2.6-2.2-4.8-4.8-4.8s-4.8,2.1-4.8,4.8s2.2,4.8,4.8,4.8S556.5,340.9,556.5,338.3"/>
				<path class="st2" d="M557.5,353.3c0-3.2-2.6-5.8-5.8-5.8s-5.8,2.6-5.8,5.8s2.6,5.8,5.8,5.8S557.5,356.5,557.5,353.3"/>
				<path class="st2" d="M558.7,368.4c0-3.9-3.2-7-7-7s-7,3.1-7,7s3.2,7,7,7S558.7,372.3,558.7,368.4"/>
				<path class="st2" d="M560.2,382.9c0-4.7-3.8-8.5-8.5-8.5s-8.5,3.8-8.5,8.5s3.8,8.5,8.5,8.5S560.2,387.6,560.2,382.9"/>
				<path class="st2" d="M529.6,315.7c0-1.4-1.1-2.5-2.5-2.5s-2.5,1.1-2.5,2.5s1.1,2.5,2.5,2.5S529.6,317.1,529.6,315.7"/>
				<path class="st2" d="M531.2,330.8c0-2.2-1.8-4-4-4s-4,1.8-4,4s1.8,4,4,4S531.2,333,531.2,330.8"/>
				<path class="st2" d="M532,345.8c0-2.7-2.2-4.9-4.9-4.9s-4.9,2.2-4.9,4.9s2.2,4.9,4.9,4.9S532,348.5,532,345.8"/>
				<path class="st2" d="M533.6,360.9c0-3.6-2.9-6.5-6.5-6.5s-6.5,2.9-6.5,6.5s2.9,6.5,6.5,6.5S533.6,364.4,533.6,360.9"/>
				<path class="st2" d="M535,375.9c0-4.4-3.5-7.9-7.9-7.9s-7.9,3.5-7.9,7.9s3.5,7.9,7.9,7.9S535,380.3,535,375.9"/>
				<path class="st2" d="M528.8,300.6c0-0.9-0.7-1.6-1.6-1.6s-1.6,0.7-1.6,1.6s0.7,1.6,1.6,1.6S528.8,301.5,528.8,300.6"/>
				<path class="st2" d="M528.2,285.6c0-0.6-0.5-1.1-1.1-1.1s-1.1,0.5-1.1,1.1s0.5,1.1,1.1,1.1S528.2,286.2,528.2,285.6"/>
				<path class="st2" d="M521,308.2c0-1.1-0.9-2-2-2s-2,0.9-2,2s0.9,2,2,2S521,309.3,521,308.2"/>
				<path class="st2" d="M520.3,293.1c0-0.7-0.6-1.3-1.3-1.3s-1.3,0.6-1.3,1.3s0.6,1.3,1.3,1.3S520.3,293.9,520.3,293.1"/>
				<path class="st2" d="M519.8,278.1c0-0.5-0.4-0.9-0.9-0.9s-0.9,0.4-0.9,0.9s0.4,0.9,0.9,0.9S519.8,278.6,519.8,278.1"/>
				<path class="st2" d="M504.6,308.2c0-1.1-0.9-2-2-2s-2,0.9-2,2s0.9,2,2,2S504.6,309.3,504.6,308.2"/>
				<path class="st2" d="M537.3,308.2c0-1.1-0.9-2-2-2s-2,0.9-2,2s0.9,2,2,2S537.3,309.3,537.3,308.2"/>
				<path class="st2" d="M536.7,293.1c0-0.7-0.6-1.3-1.3-1.3s-1.3,0.6-1.3,1.3s0.6,1.3,1.3,1.3S536.7,293.9,536.7,293.1"/>
				<path class="st2" d="M536.2,278.1c0-0.5-0.4-0.9-0.9-0.9s-0.9,0.4-0.9,0.9s0.4,0.9,0.9,0.9S536.2,278.6,536.2,278.1"/>
				<path class="st2" d="M503.9,293.1c0-0.7-0.6-1.3-1.3-1.3s-1.3,0.6-1.3,1.3s0.6,1.3,1.3,1.3S503.9,293.9,503.9,293.1"/>
				<path class="st2" d="M503.4,278.1c0-0.5-0.4-0.9-0.9-0.9s-0.9,0.4-0.9,0.9s0.4,0.9,0.9,0.9S503.4,278.6,503.4,278.1"/>
				<path class="st2" d="M553,293.1c0-0.7-0.6-1.3-1.3-1.3s-1.3,0.6-1.3,1.3s0.6,1.3,1.3,1.3S553,293.9,553,293.1"/>
				<path class="st2" d="M552.6,278.1c0-0.5-0.4-0.9-0.9-0.9s-0.9,0.4-0.9,0.9s0.4,0.9,0.9,0.9S552.6,278.6,552.6,278.1"/>
				<path class="st2" d="M553.7,308.2c0-1.1-0.9-2-2-2s-2,0.9-2,2s0.9,2,2,2S553.7,309.3,553.7,308.2"/>
				<path class="st2" d="M546,315.7c0-1.4-1.1-2.5-2.5-2.5s-2.5,1.1-2.5,2.5s1.1,2.5,2.5,2.5S546,317.1,546,315.7"/>
				<path class="st2" d="M547.5,330.8c0-2.2-1.8-4-4-4s-4,1.8-4,4s1.8,4,4,4S547.5,333,547.5,330.8"/>
				<path class="st2" d="M548.3,345.8c0-2.7-2.2-4.9-4.8-4.9s-4.8,2.2-4.8,4.9s2.2,4.9,4.8,4.9S548.3,348.5,548.3,345.8"/>
				<path class="st2" d="M550,360.9c0-3.6-2.9-6.5-6.5-6.5s-6.5,2.9-6.5,6.5s2.9,6.5,6.5,6.5S550,364.4,550,360.9"/>
				<path class="st2" d="M551.3,375.9c0-4.3-3.5-7.8-7.8-7.8s-7.8,3.5-7.8,7.8s3.5,7.8,7.8,7.8S551.3,380.2,551.3,375.9"/>
				<path class="st2" d="M545.1,300.6c0-0.9-0.7-1.6-1.6-1.6s-1.6,0.7-1.6,1.6s0.7,1.6,1.6,1.6S545.1,301.5,545.1,300.6"/>
				<path class="st2" d="M544.6,285.6c0-0.6-0.5-1.1-1.1-1.1s-1.1,0.5-1.1,1.1s0.5,1.1,1.1,1.1S544.6,286.2,544.6,285.6"/>
			</g>
		</g>
	</g>
</g>
<g>
	<path class="st2" d="M361.9,31.9c-0.9,0-1.4,0.2-1.9,0.8l0.4-2.4h3.6v-1.2h-4.7l-0.8,4.8h1.6c0.3-0.7,0.8-1,1.5-1
		c1.1,0,1.7,0.7,1.7,1.9c0,1.3-0.7,2-1.8,2c-1.2,0-1.8-0.6-1.8-1.6h-1.4c0,1.7,1.4,2.8,3.2,2.8c1.8,0,3.2-1.3,3.2-3.2
		S363.5,31.9,361.9,31.9z"/>
	<path class="st2" d="M354,29.1c-2.5,0-3.5,2.2-3.5,4.5s1.1,4.5,3.5,4.5s3.5-2.2,3.5-4.5S356.5,29.1,354,29.1z M351.9,33.6
		L351.9,33.6c0-2.2,0.8-3.3,2.1-3.3c0.3,0,0.6,0.1,0.9,0.2l-2.6,5.3C352,35.2,351.9,34.5,351.9,33.6z M354,37
		c-0.3,0-0.6-0.1-0.9-0.2h0l2.6-5.3c0.2,0.5,0.4,1.3,0.4,2.1C356.1,35.8,355.3,37,354,37z"/>
</g>
</svg>
