<?xml version="1.0" encoding="UTF-8"?>
<svg id="Calque_1" data-name="Calque 1" xmlns="http://www.w3.org/2000/svg" xmlns:xlink="http://www.w3.org/1999/xlink" viewBox="0 0 616 423">
  <defs>
    <style>
      .cls-1 {
        clip-path: url(#clippath);
      }

      .cls-2, .cls-3 {
        fill: none;
      }

      .cls-2, .cls-4 {
        stroke-width: 0px;
      }

      .cls-5 {
        clip-path: url(#clippath-1);
      }

      .cls-6 {
        clip-path: url(#clippath-4);
      }

      .cls-7 {
        clip-path: url(#clippath-3);
      }

      .cls-8 {
        clip-path: url(#clippath-2);
      }

      .cls-9 {
        clip-path: url(#clippath-6);
      }

      .cls-10 {
        clip-path: url(#clippath-5);
      }

      .cls-3 {
        stroke: #fff;
        stroke-width: 3px;
      }

      .cls-4 {
        fill: #fff;
      }
    </style>
    <clipPath id="clippath">
      <rect class="cls-2" width="616" height="423"/>
    </clipPath>
    <clipPath id="clippath-1">
      <rect class="cls-2" width="616" height="423"/>
    </clipPath>
    <clipPath id="clippath-2">
      <rect class="cls-2" width="616" height="423"/>
    </clipPath>
    <clipPath id="clippath-3">
      <rect class="cls-2" width="616" height="423"/>
    </clipPath>
    <clipPath id="clippath-4">
      <rect class="cls-2" width="616" height="423"/>
    </clipPath>
    <clipPath id="clippath-5">
      <rect class="cls-2" x="14" y="116.96" width="176.4" height="130.39"/>
    </clipPath>
    <clipPath id="clippath-6">
      <rect class="cls-2" x="354.33" y="254" width="247.67" height="121.36"/>
    </clipPath>
  </defs>
  <g class="cls-1">
    <g class="cls-5">
      <path class="cls-4" d="M469.43,78.06c.17-8.4.84-9.58,2.86-9.58,2.52,0,3.02,1.34,3.02,9.58h-5.88ZM472.96,136.02c26.04,0,40.99-11.76,40.99-32.09h-37.63c0,5.88-.84,7.9-3.36,7.9-2.86,0-3.7-1.51-3.7-13.94h44.52c0-39.82-8.4-51.91-41.5-51.91-30.74,0-42.5,12.43-42.5,45.02s11.93,45.02,43.18,45.02M380.22,101.91v-21.84c.17-8.57.84-9.91,3.19-9.91,2.69,0,3.02,2.02,3.02,20.83s-.34,20.83-3.02,20.83c-2.35,0-3.02-1.34-3.19-9.91M340.91,167.6h39.31v-42.5c4.37,7.56,11.09,10.92,20.66,10.92,18.65,0,24.86-12.6,24.86-45.02s-6.22-45.02-24.86-45.02c-9.58,0-16.3,3.36-20.66,10.92v-8.9h-39.31v119.62ZM289,107.79c0-4.2,1.18-6.72,4.7-6.89h1.01v7.06c0,4.54-.67,5.88-2.35,5.88-2.35,0-3.36-1.68-3.36-6.05M274.89,136.02c9.74,0,18.48-3.36,21-9.91,0,2.52.17,5.21,1.18,7.9h38.3v-.67c-1.18-5.88-1.18-12.26-1.18-18.14v-39.98c0-17.81-14.11-29.23-41.33-29.23s-39.65,11.42-39.65,31.58h36.62c0-5.04.5-7.39,2.69-7.39s2.35,2.69,2.35,6.38v4.03l-3.19.17c-30.07.84-42,10.58-42,30.07,0,17.81,10.75,25.2,25.2,25.2M205.33,45.97c-30.41,0-42,12.43-42,45.02s11.59,45.02,42,45.02c28.56,0,42.17-11.26,42.17-35.28h-39.31c0,9.91-.34,11.09-2.86,11.09-2.35,0-2.69-2.02-2.69-20.83s.34-20.83,2.69-20.83c2.52,0,2.86,1.18,2.86,11.09h39.31c0-24.02-13.61-35.28-42.17-35.28M118.48,136.02c28.56,0,41.83-9.07,42-28.06.34-31.92-44.86-22.34-44.86-34.1,0-2.52.84-3.7,2.69-3.7s2.69,1.68,2.69,5.38l39.31-.17c0-19.99-13.61-29.4-42.17-29.4s-41.83,9.24-41.83,28.56c0,31.92,44.86,23.02,44.86,34.78,0,1.68-.84,2.52-2.69,2.52s-2.69-1.68-2.69-5.21h-39.48c0,19.99,13.61,29.4,42.17,29.4M13.98,134h58.3v-28.22h-15.62v-18.82h13.94v-28.22h-13.94v-14.11h15.62v-28.22H13.98v117.6Z"/>
      <path class="cls-4" d="M525.51,271.35h18.65v-24.02h-4.03c-3.53,0-5.21-2.52-5.21-6.38v-31.42h7.73v-24.19h-7.73v-20.66h-39.31v20.66h-7.06v24.19h7.06v37.3c0,17.81,8.23,24.53,29.9,24.53M434.79,271.35h39.31v-61.82h12.1v-24.19h-12.1v-1.85c0-3.7,2.69-5.54,5.71-5.54h6.38v-24.19h-12.6c-26.71,0-38.81,8.06-38.81,26.04v5.54h-7.22v24.19h7.22v61.82ZM382.55,160.13c0,11.42,9.41,20.66,20.66,20.66s20.66-9.24,20.66-20.66-9.24-20.33-20.66-20.33-20.66,9.41-20.66,20.33M383.56,271.35h39.31v-86.02h-39.31v86.02ZM292.84,271.35h39.31v-51.07c0-8.57,0-11.09,3.02-11.09,2.69,0,2.69,2.18,2.69,11.09v51.07h39.31v-52.58c0-29.74-10.58-35.45-25.2-35.45-8.9,0-15.46,2.18-19.82,7.06v-36.62h-39.31v117.6ZM243.95,273.36c30.41,0,44.35-11.59,44.35-36.29,0-47.04-46.7-30.74-46.7-51.74,0-4.37.34-5.38,2.02-5.38,1.85,0,2.02,1.01,2.02,10.42h40.32c0-27.05-11.59-38.64-41.16-38.64-34.1,0-45.86,15.29-45.86,36.79,0,39.48,46.7,29.74,46.7,48.89,0,6.55-.17,7.73-1.85,7.73-2.02,0-2.18-1.34-2.18-12.77h-42.67c0,32.26,18.48,40.99,45.02,40.99"/>
      <path class="cls-4" d="M160.75,38.15c2.04,0,3-1.25,3-2.47,0-1.34-.74-1.85-1.74-2.05.92-.3,1.56-.99,1.56-2.04,0-1.3-.91-2.49-2.8-2.49-1.73,0-2.72,1.26-2.72,2.56h1.4c0-.88.52-1.39,1.32-1.39.85,0,1.4.39,1.4,1.31,0,1.05-.81,1.45-1.35,1.45h-.56v1.17h.56c.58,0,1.53.27,1.53,1.46,0,.8-.51,1.3-1.6,1.3-1.01,0-1.55-.7-1.55-1.54h-1.4c.12,1.66,1.16,2.71,2.95,2.71M151.85,36.76l2.6-5.28c.24.54.38,1.26.38,2.14,0,2.17-.81,3.35-2.11,3.35-.33,0-.61-.07-.86-.21M150.6,33.63c0-2.18.81-3.35,2.11-3.35.32,0,.61.08.88.21l-2.6,5.29c-.25-.54-.39-1.26-.39-2.15M152.71,38.15c2.45,0,3.51-2.21,3.51-4.52s-1.06-4.52-3.51-4.52-3.51,2.21-3.51,4.52,1.06,4.52,3.51,4.52M138.65,38h1.27v-3.42c0-1.5.79-2.15,1.71-2.15.71,0,1.33.38,1.33,1.54v4.04h1.27v-4.16c0-1.8-.99-2.39-2.27-2.39-.81,0-1.56.24-2.04.89v-.74h-1.27v6.4ZM132.55,36.25c0-.9,1.21-1.24,2.83-1.24h.12v.23c-.01,1.15-.7,1.86-1.83,1.86-.85,0-1.12-.41-1.12-.85M133.57,38.15c1.1,0,1.6-.44,2.01-.92,0,.2.04.6.09.77h1.24v-.11c-.1-.4-.12-1.16-.12-1.39v-2.54c0-1.71-.95-2.51-2.6-2.51-1.5,0-2.5.66-2.62,2.05h1.27c.13-.63.5-1.09,1.4-1.09.98,0,1.29.54,1.28,1.46v.26h-.15c-2.71,0-4.09.77-4.09,2.16,0,1.21.95,1.85,2.3,1.85M128.43,38h1.27v-8.75h-1.27v8.75ZM121.81,34.8c0-1.48.73-2.38,1.85-2.38s1.79.9,1.79,2.38-.66,2.38-1.79,2.38-1.85-.9-1.85-2.38M120.54,40.5h1.26v-3.35c.41.66,1.08,1,2,1,1.8,0,2.99-1.31,2.99-3.35s-1.19-3.35-2.99-3.35c-.91,0-1.58.34-1.99,1v-.85h-1.27v8.9ZM113.28,38h1.27v-2.98h.58l2.42,2.98h1.54l-3.06-3.69,2.89-2.71h-1.62l-2.29,2.25h-.45v-4.6h-1.27v8.75ZM108.2,38h1.27v-3.4c0-1.34.61-1.84,1.57-1.84h.7v-1.16h-.6c-.79,0-1.34.37-1.68,1.11v-1.11h-1.27v6.4ZM101.34,34.8c0-1.49.72-2.38,1.95-2.38s1.95.89,1.95,2.38-.72,2.38-1.95,2.38-1.95-.89-1.95-2.38M103.29,38.15c1.94,0,3.29-1.37,3.29-3.35s-1.35-3.35-3.29-3.35-3.29,1.37-3.29,3.35,1.35,3.35,3.29,3.35M89.99,38h2.41l1.15-7.58h.2l1.15,7.58h2.41l1.98-8.75h-1.5l-1.53,7.56h-.2l-1.29-7.56h-2.25l-1.29,7.56h-.2l-1.53-7.56h-1.5l1.97,8.75Z"/>
      <path class="cls-4" d="M138.76,22.8c0-1.48.66-2.38,1.79-2.38s1.85.9,1.85,2.38-.73,2.38-1.85,2.38-1.79-.9-1.79-2.38M142.4,26h1.27v-8.75h-1.26v3.2c-.41-.66-1.07-1-2-1-1.8,0-2.99,1.31-2.99,3.35s1.19,3.35,2.99,3.35c.91,0,1.58-.34,1.99-1v.85ZM130.24,26h1.27v-3.42c0-1.5.79-2.15,1.71-2.15.71,0,1.33.38,1.33,1.54v4.04h1.27v-4.16c0-1.8-.99-2.39-2.27-2.39-.81,0-1.56.24-2.04.89v-.74h-1.27v6.4ZM124.14,24.25c0-.9,1.21-1.24,2.83-1.24h.12v.23c-.01,1.15-.7,1.86-1.83,1.86-.85,0-1.12-.41-1.12-.85M125.16,26.15c1.1,0,1.6-.44,2.01-.92,0,.2.04.6.09.77h1.24v-.11c-.1-.4-.12-1.16-.12-1.39v-2.54c0-1.71-.95-2.51-2.6-2.51-1.5,0-2.5.66-2.62,2.05h1.27c.13-.63.5-1.09,1.4-1.09.98,0,1.29.54,1.28,1.46v.26h-.15c-2.71,0-4.09.77-4.09,2.16,0,1.21.95,1.85,2.3,1.85M120.01,26h1.27v-8.75h-1.27v8.75ZM113.17,20.86v-2.44h2.39c.75,0,1.26.5,1.26,1.2s-.54,1.24-1.26,1.24h-2.39ZM113.17,24.83v-2.79h2.39c.84,0,1.46.48,1.46,1.4s-.66,1.39-1.38,1.39h-2.48ZM111.78,26h3.56c1.65,0,3.09-.67,3.09-2.56,0-1.12-.75-1.81-1.49-1.99.62-.19,1.29-.86,1.29-1.82,0-1.62-1.41-2.37-2.77-2.37h-3.67v8.75ZM100.84,26h1.4v-3.8h4.17v-1.17h-4.17v-2.6h4.8v-1.17h-6.2v8.75ZM88.46,26h1.4v-3.22l-.05-4.48h.2l2.48,7.7h2.15l2.5-7.7h.17l-.05,4.48v3.22h1.4v-8.75h-2.55l-2.55,8-2.53-8h-2.57v8.75Z"/>
      <path class="cls-4" d="M361.51,38.15c1.81,0,3.21-1.29,3.21-3.17s-1.21-3.04-2.82-3.04c-.88,0-1.44.24-1.91.85l.35-2.36h3.59v-1.17h-4.68l-.75,4.85h1.59c.33-.68.83-.99,1.55-.99,1.08,0,1.69.68,1.69,1.86,0,1.26-.66,2-1.81,2s-1.83-.6-1.83-1.64h-1.4c0,1.66,1.44,2.81,3.22,2.81M353.15,36.76l2.6-5.28c.24.54.38,1.26.38,2.14,0,2.17-.81,3.35-2.11,3.35-.32,0-.61-.07-.86-.21M351.9,33.63c0-2.18.81-3.35,2.11-3.35.33,0,.61.08.88.21l-2.6,5.29c-.25-.54-.39-1.26-.39-2.15M354.01,38.15c2.45,0,3.51-2.21,3.51-4.52s-1.06-4.52-3.51-4.52-3.51,2.21-3.51,4.52,1.06,4.52,3.51,4.52M347.02,38.15c1.29,0,2.59-.66,2.59-1.86,0-2.62-3.98-1.44-3.98-3,0-.44.28-.91,1.14-.91,1,0,1.35.48,1.5,1.07h1.27c-.19-1.34-1.42-1.99-2.77-1.99s-2.41.75-2.41,1.88c0,2.62,3.98,1.4,3.98,2.96,0,.6-.52.94-1.31.94-1.21,0-1.45-.68-1.56-1.2h-1.27c.19,1.39,1.31,2.12,2.84,2.12M339.66,38.15c1.64,0,3.11-.85,3.11-2.41,0-3.38-5-1.96-5-4.21,0-.85.66-1.25,1.55-1.25,1.05,0,1.76.4,1.88,1.79h1.37c-.16-1.75-1.11-2.96-3.25-2.96-1.64,0-2.95,1.05-2.95,2.41,0,3.38,5,2.1,5,4.23,0,.68-.54,1.24-1.71,1.24-1.48,0-1.94-.83-2.13-1.98h-1.37c.15,1.86,1.31,3.15,3.5,3.15M325.04,34.64h6.61l-2.27,2.21h1.38l2.77-2.78-2.77-2.78h-1.38l2.27,2.21h-6.61v1.13ZM316.7,30.03v1.17h1.9v5.63h-2.01v1.17h5.31v-1.17h-1.9v-7.58h-1.17c0,.69-.24.78-2.12.78M310.86,36.76l2.6-5.28c.24.54.38,1.26.38,2.14,0,2.17-.81,3.35-2.11,3.35-.33,0-.61-.07-.86-.21M309.61,33.63c0-2.18.81-3.35,2.11-3.35.32,0,.61.08.88.21l-2.6,5.29c-.25-.54-.39-1.26-.39-2.15M311.73,38.15c2.45,0,3.51-2.21,3.51-4.52s-1.06-4.52-3.51-4.52-3.51,2.21-3.51,4.52,1.06,4.52,3.51,4.52M304.74,38.15c1.29,0,2.59-.66,2.59-1.86,0-2.62-3.98-1.44-3.98-3,0-.44.27-.91,1.14-.91,1,0,1.35.48,1.5,1.07h1.27c-.19-1.34-1.42-1.99-2.77-1.99s-2.41.75-2.41,1.88c0,2.62,3.97,1.4,3.97,2.96,0,.6-.52.94-1.31.94-1.21,0-1.45-.68-1.56-1.2h-1.27c.19,1.39,1.31,2.12,2.84,2.12M297.38,38.15c1.64,0,3.11-.85,3.11-2.41,0-3.38-5-1.96-5-4.21,0-.85.66-1.25,1.55-1.25,1.05,0,1.76.4,1.88,1.79h1.37c-.16-1.75-1.11-2.96-3.25-2.96-1.64,0-2.95,1.05-2.95,2.41,0,3.38,5,2.1,5,4.23,0,.68-.54,1.24-1.71,1.24-1.48,0-1.94-.83-2.13-1.98h-1.37c.15,1.86,1.31,3.15,3.5,3.15"/>
      <path class="cls-4" d="M351.91,22.15c.17-1.15.84-1.78,1.9-1.78,1.24,0,1.75.89,1.74,1.78h-3.64ZM353.79,26.15c1.43,0,2.62-.71,2.9-2.14h-1.27c-.17.66-.67,1.21-1.62,1.21-1.08,0-1.83-.79-1.91-2.15h4.95c.15-2.02-.72-3.62-3.01-3.62-1.8,0-3.23,1.11-3.23,3.35,0,1.93,1.12,3.35,3.2,3.35M344.14,22.8c0-1.48.73-2.38,1.85-2.38s1.79.9,1.79,2.38-.66,2.38-1.79,2.38-1.85-.9-1.85-2.38M342.86,28.5h1.26v-3.35c.41.66,1.08,1,2,1,1.8,0,2.99-1.31,2.99-3.35s-1.19-3.35-2.99-3.35c-.91,0-1.57.34-1.99,1v-.85h-1.27v8.9ZM337.33,26h.67l-.89,2.5h1.26l3.01-8.9h-1.35l-1.64,5.33h-.25l-1.64-5.33h-1.35l2.16,6.4ZM333.14,26h.89v-.92h-.9c-.5,0-.65-.12-.65-.88v-3.68h1.55v-.92h-1.55v-1.54h-1.27v1.54h-1.15v.92h1.15v3.8c0,1.24.69,1.67,1.94,1.67M319.8,26h1.27v-3.43c0-1.5.79-2.15,1.71-2.15.71,0,1.33.38,1.33,1.54v4.04h1.27v-4.16c0-1.8-.99-2.39-2.27-2.39-.81,0-1.56.24-2.04.89v-.74h-1.27v6.4ZM313.26,22.15c.18-1.15.84-1.78,1.9-1.78,1.24,0,1.75.89,1.74,1.78h-3.64ZM315.14,26.15c1.43,0,2.62-.71,2.9-2.14h-1.27c-.17.66-.67,1.21-1.63,1.21-1.07,0-1.83-.79-1.91-2.15h4.95c.15-2.02-.72-3.62-3.01-3.62-1.8,0-3.22,1.11-3.22,3.35,0,1.93,1.12,3.35,3.2,3.35M305.49,22.8c0-1.48.73-2.38,1.85-2.38s1.79.9,1.79,2.38-.66,2.38-1.79,2.38-1.85-.9-1.85-2.38M304.21,28.5h1.26v-3.35c.41.66,1.08,1,2,1,1.8,0,2.99-1.31,2.99-3.35s-1.19-3.35-2.99-3.35c-.91,0-1.58.34-1.99,1v-.85h-1.27v8.9ZM295.32,21.63c0-2.4,1.48-3.35,2.93-3.35s2.93.95,2.93,3.35-1.48,3.35-2.93,3.35-2.93-.95-2.93-3.35M298.25,26.15c2.61,0,4.32-2.04,4.32-4.52s-1.71-4.52-4.32-4.52-4.32,2.04-4.32,4.52,1.71,4.52,4.32,4.52"/>
      <path class="cls-4" d="M262.33,38.15c1.29,0,2.59-.66,2.59-1.86,0-2.62-3.98-1.44-3.98-3,0-.44.27-.91,1.14-.91,1,0,1.35.48,1.5,1.07h1.27c-.19-1.34-1.42-1.99-2.77-1.99s-2.41.75-2.41,1.88c0,2.62,3.98,1.4,3.98,2.96,0,.6-.52.94-1.31.94-1.21,0-1.45-.68-1.56-1.2h-1.27c.19,1.39,1.31,2.12,2.84,2.12M253.31,34.15c.17-1.15.84-1.78,1.9-1.78,1.24,0,1.75.89,1.74,1.78h-3.64ZM255.18,38.15c1.43,0,2.62-.71,2.9-2.14h-1.27c-.18.66-.68,1.21-1.63,1.21-1.08,0-1.83-.79-1.91-2.15h4.95c.15-2.02-.72-3.62-3.01-3.62-1.8,0-3.22,1.11-3.22,3.35,0,1.93,1.12,3.35,3.2,3.35M249.07,38h1.27v-8.75h-1.27v8.75ZM243.53,38h.68l-.89,2.5h1.26l3.01-8.9h-1.35l-1.64,5.33h-.25l-1.64-5.33h-1.35l2.16,6.4ZM239.34,38h.89v-.92h-.9c-.5,0-.65-.12-.65-.88v-3.68h1.55v-.92h-1.55v-1.54h-1.27v1.54h-1.15v.92h1.15v3.8c0,1.24.69,1.67,1.94,1.67M232.64,38.15c1.29,0,2.59-.66,2.59-1.86,0-2.62-3.97-1.44-3.97-3,0-.44.27-.91,1.14-.91,1,0,1.35.48,1.5,1.07h1.27c-.19-1.34-1.42-1.99-2.77-1.99s-2.41.75-2.41,1.88c0,2.62,3.97,1.4,3.97,2.96,0,.6-.53.94-1.31.94-1.21,0-1.45-.68-1.56-1.2h-1.27c.19,1.39,1.31,2.12,2.84,2.12M215.49,36.76l2.6-5.28c.24.54.38,1.26.38,2.14,0,2.18-.81,3.35-2.11,3.35-.32,0-.61-.08-.86-.21M214.24,33.62c0-2.17.81-3.35,2.11-3.35.32,0,.61.08.88.21l-2.6,5.29c-.25-.54-.39-1.26-.39-2.15M216.35,38.15c2.45,0,3.51-2.21,3.51-4.52s-1.06-4.52-3.51-4.52-3.51,2.21-3.51,4.52,1.06,4.52,3.51,4.52M207.11,32.09c0-1,.59-1.81,1.66-1.81s1.66.73,1.66,1.81c0,.85-.65,1.6-1.66,1.6s-1.66-.75-1.66-1.6M208.77,29.1c-1.73,0-3.06,1.2-3.06,2.99s1.19,2.77,2.79,2.77c1.09,0,1.7-.4,2-.8-.02,1.51-.56,2.91-1.85,2.91-.7,0-1.25-.35-1.38-1.18h-1.4c.25,1.57,1.24,2.35,2.77,2.35,2.68,0,3.31-2.7,3.31-5.05,0-2.04-.75-4-3.19-4"/>
      <path class="cls-4" d="M252.47,26.15c1.29,0,2.59-.66,2.59-1.86,0-2.62-3.97-1.44-3.97-3,0-.44.27-.91,1.14-.91,1,0,1.35.48,1.5,1.07h1.27c-.19-1.34-1.42-1.99-2.77-1.99s-2.41.75-2.41,1.88c0,2.62,3.97,1.4,3.97,2.96,0,.6-.53.94-1.31.94-1.21,0-1.45-.68-1.56-1.2h-1.27c.19,1.39,1.31,2.12,2.84,2.12M247.61,26h.89v-.92h-.9c-.5,0-.65-.12-.65-.88v-3.68h1.55v-.92h-1.55v-1.54h-1.27v1.54h-1.15v.92h1.15v3.8c0,1.24.69,1.67,1.94,1.67M240.41,26.15c1.5,0,2.71-.64,2.71-2.72v-3.83h-1.27v3.83c0,1.42-.67,1.8-1.44,1.8s-1.44-.38-1.44-1.8v-3.83h-1.27v3.83c0,2.09,1.21,2.72,2.71,2.72M233.21,19.45c-2.03,0-3.35,1.42-3.35,3.35s1.32,3.35,3.35,3.35c1.65,0,2.81-.92,3-2.44h-1.28c-.12.94-.76,1.51-1.72,1.51-1.35,0-2.07-1.03-2.07-2.43s.72-2.43,2.07-2.43c.96,0,1.6.57,1.72,1.51h1.28c-.19-1.51-1.35-2.44-3-2.44M214.61,20.09c0-1,.59-1.81,1.66-1.81s1.66.73,1.66,1.81c0,.85-.65,1.6-1.66,1.6s-1.66-.75-1.66-1.6M216.28,17.1c-1.73,0-3.06,1.2-3.06,2.99s1.19,2.77,2.79,2.77c1.09,0,1.7-.4,2-.8-.02,1.51-.56,2.91-1.85,2.91-.7,0-1.25-.35-1.38-1.18h-1.4c.25,1.58,1.24,2.35,2.78,2.35,2.68,0,3.31-2.7,3.31-5.05,0-2.04-.75-4-3.19-4M207.99,24.76l2.6-5.28c.24.54.38,1.26.38,2.14,0,2.17-.81,3.35-2.11,3.35-.32,0-.61-.07-.86-.21M206.74,21.63c0-2.18.81-3.35,2.11-3.35.32,0,.61.08.88.21l-2.6,5.29c-.25-.54-.39-1.26-.39-2.15M208.85,26.15c2.45,0,3.51-2.21,3.51-4.52s-1.06-4.52-3.51-4.52-3.51,2.21-3.51,4.52,1.06,4.52,3.51,4.52"/>
    </g>
    <rect class="cls-3" x="522.72" y="15.5" width="77.78" height="125"/>
    <g class="cls-8">
      <path class="cls-4" d="M154.47,399.93c0-1.45.41-2.32,1.62-2.38h.41v2.44c0,1.57-.29,2.03-.87,2.03-.81,0-1.16-.58-1.16-2.09M155.22,409.68c10.09,0,14.85-3.07,14.85-9.69v-11.31c0-6.15-4.87-10.09-14.27-10.09s-13.69,3.94-13.69,10.9h12.64c0-1.74.17-2.55.93-2.55.81,0,.81.93.81,2.2v1.39l-1.1.06c-10.38.29-14.5,3.89-14.5,9.92s4.47,9.16,14.33,9.16M123.09,394.13c0-6.5.12-7.19,1.04-7.19.81,0,1.04.46,1.1,3.42v7.54c-.06,2.96-.29,3.42-1.1,3.42-.93,0-1.04-.7-1.04-7.19M125.24,408.98h13.57v-29.7h-13.57v3.07c-1.51-2.61-3.83-3.77-7.13-3.77-6.44,0-8.58,4.35-8.58,15.54s2.15,15.54,8.58,15.54c3.31,0,5.63-1.16,7.13-3.77v3.07ZM91.6,399.93c0-1.45.41-2.32,1.62-2.38h.35v2.44c0,1.57-.23,2.03-.81,2.03-.81,0-1.16-.58-1.16-2.09M86.72,409.68c3.36,0,6.38-1.16,7.25-3.42,0,.87.06,1.8.41,2.73h13.22v-.23c-.41-2.03-.41-4.23-.41-6.26v-13.8c0-6.15-4.87-10.09-14.27-10.09s-13.69,3.94-13.69,10.9h12.64c0-1.74.17-2.55.93-2.55s.81.93.81,2.2v1.39l-1.1.06c-10.38.29-14.5,3.65-14.5,10.38,0,6.15,3.71,8.7,8.7,8.7"/>
      <path class="cls-4" d="M522.43,389.69c.06-2.9.29-3.31.99-3.31.87,0,1.04.46,1.04,3.31h-2.03ZM523.65,409.7c8.24,0,13.86-3.42,13.86-9.34,0-.58-.06-1.16-.17-1.74h-12.93c.17.64.23,1.1.23,1.51,0,.87-.41,1.22-.99,1.22-.99,0-1.22-.52-1.28-4.81h15.37c0-13.75-2.9-17.92-14.33-17.92-10.61,0-14.67,4.29-14.67,15.54s4.12,15.54,14.91,15.54M491.52,389.69c.06-2.9.29-3.31.99-3.31.87,0,1.04.46,1.04,3.31h-2.03ZM492.74,409.7c8.99,0,14.15-4.06,14.15-11.08h-12.99c0,2.03-.29,2.73-1.16,2.73-.99,0-1.28-.52-1.28-4.81h15.37c0-13.75-2.9-17.92-14.33-17.92-10.61,0-14.67,4.29-14.67,15.54s4.12,15.54,14.91,15.54M461.77,409.7c9.92,0,14.5-3.19,14.5-9.8,0-10.9-15.49-7.6-15.49-11.66,0-.87.29-1.28.93-1.28.46,0,.81.29.81.87,0,.29-.06.58-.23.99l13.57-.06c.06-.58.12-1.1.12-1.62,0-5.8-5.28-8.53-14.33-8.53-9.8,0-14.44,3.19-14.44,9.86,0,11.02,15.49,7.95,15.49,12.01,0,.58-.29.87-.93.87-.46,0-.7-.29-.7-.81,0-.29.06-.7.17-1.1h-13.63c-.12.7-.17,1.22-.17,1.86,0,5.74,5.45,8.41,14.33,8.41M430.85,409.7c9.86,0,14.44-3.13,14.5-9.69.12-11.02-15.49-7.71-15.49-11.77,0-.87.29-1.28.93-1.28s.93.58.93,1.86l13.57-.06c0-6.9-4.7-10.15-14.56-10.15s-14.44,3.19-14.44,9.86c0,11.02,15.49,7.95,15.49,12.01,0,.58-.29.87-.93.87s-.93-.58-.93-1.8h-13.63c0,6.9,4.7,10.15,14.56,10.15"/>
    </g>
    <line class="cls-3" x1="528.07" y1="24.81" x2="595.16" y2="131.19"/>
    <line class="cls-3" x1="595.16" y1="24.81" x2="528.07" y2="131.19"/>
    <g class="cls-7">
      <path class="cls-4" d="M452.94,38h1.27v-3.43c0-1.5.79-2.15,1.71-2.15.71,0,1.33.38,1.33,1.54v4.04h1.27v-4.16c0-1.8-.99-2.39-2.27-2.39-.81,0-1.56.24-2.04.89v-3.09h-1.27v8.75ZM450.34,38h.89v-.92h-.9c-.5,0-.65-.12-.65-.88v-3.68h1.55v-.92h-1.55v-1.54h-1.27v1.54h-1.15v.92h1.15v3.8c0,1.24.69,1.67,1.94,1.67M440.71,34.8c0-1.48.66-2.38,1.79-2.38s1.85.9,1.85,2.38-.72,2.38-1.85,2.38-1.79-.9-1.79-2.38M444.35,38h1.27v-8.75h-1.26v3.2c-.41-.66-1.08-1-2-1-1.8,0-2.99,1.31-2.99,3.35s1.19,3.35,2.99,3.35c.91,0,1.58-.34,1.99-1v.85ZM436.15,30.1c0,.45.38.82.82.82s.82-.38.82-.82-.38-.81-.82-.81-.82.38-.82.81M436.34,38h1.27v-6.4h-1.27v6.4ZM427.46,38h1.99l.84-5.36h.15l.84,5.36h1.99l1.45-6.4h-1.49l-.81,5.35h-.17l-.83-5.35h-2.1l-.82,5.35h-.17l-.81-5.35h-1.49l1.45,6.4ZM418.22,38.15c1.81,0,3.21-1.29,3.21-3.17s-1.21-3.04-2.82-3.04c-.88,0-1.44.24-1.91.85l.35-2.36h3.59v-1.17h-4.68l-.75,4.85h1.59c.33-.68.83-.99,1.55-.99,1.08,0,1.69.68,1.69,1.86,0,1.26-.66,2-1.81,2s-1.83-.6-1.83-1.64h-1.4c0,1.66,1.44,2.81,3.22,2.81M409.09,38h1.4c0-3.69.71-5.23,3.09-7.58v-1.17h-5.95v1.17h4.56c-2.17,1.96-3.1,4.2-3.1,7.58M396.7,36.4h4.57l-1.15,1.15h1.15l1.58-1.57-1.58-1.57h-1.15l1.15,1.15h-3.6v-4.7h-.97v5.55Z"/>
      <path class="cls-4" d="M472.94,26h.89v-.92h-.9c-.5,0-.65-.12-.65-.88v-3.68h1.55v-.92h-1.55v-1.54h-1.27v1.54h-1.15v.92h1.15v3.8c0,1.24.69,1.67,1.94,1.67M462.87,26h1.27v-3.43c0-1.5.79-2.15,1.71-2.15.71,0,1.33.38,1.33,1.54v4.04h1.27v-4.16c0-1.8-.99-2.39-2.27-2.39-.81,0-1.56.24-2.04.89v-3.09h-1.27v8.75ZM455.91,22.8c0-1.48.66-2.38,1.79-2.38s1.85.9,1.85,2.38-.73,2.38-1.85,2.38-1.79-.9-1.79-2.38M457.66,28.65c1.79,0,3.16-.77,3.16-3.02v-6.02h-1.27v.83c-.41-.65-1.08-.98-1.99-.98-1.8,0-2.99,1.31-2.99,3.35s1.19,3.35,2.99,3.35c.91,0,1.58-.34,1.99-.99v.46c0,1.65-.64,2.1-1.78,2.1s-1.55-.43-1.74-1.2h-1.27c.21,1.28,1.22,2.12,2.9,2.12M451.35,18.1c0,.45.38.82.82.82s.83-.38.83-.82-.38-.81-.83-.81-.82.38-.82.81M451.54,26h1.27v-6.4h-1.27v6.4ZM444.87,22.15c.17-1.15.84-1.78,1.9-1.78,1.24,0,1.75.89,1.74,1.78h-3.64ZM446.75,26.15c1.42,0,2.62-.71,2.9-2.14h-1.27c-.18.66-.68,1.21-1.62,1.21-1.08,0-1.83-.79-1.91-2.15h4.95c.15-2.02-.72-3.62-3.01-3.62-1.8,0-3.23,1.11-3.23,3.35,0,1.93,1.12,3.35,3.2,3.35M435.09,26h1.99l.84-5.36h.15l.84,5.36h1.99l1.45-6.4h-1.49l-.81,5.35h-.17l-.83-5.35h-2.1l-.82,5.35h-.18l-.81-5.35h-1.49l1.45,6.4ZM424.99,24.76l2.6-5.28c.24.54.38,1.26.38,2.14,0,2.17-.81,3.35-2.11,3.35-.32,0-.61-.07-.86-.21M423.74,21.63c0-2.18.81-3.35,2.11-3.35.33,0,.61.08.88.21l-2.6,5.29c-.25-.54-.39-1.26-.39-2.15M425.85,26.15c2.45,0,3.51-2.21,3.51-4.52s-1.06-4.52-3.51-4.52-3.51,2.21-3.51,4.52,1.06,4.52,3.51,4.52M417.36,24.76l2.6-5.28c.24.54.38,1.26.38,2.14,0,2.17-.81,3.35-2.11,3.35-.32,0-.61-.07-.86-.21M416.11,21.63c0-2.18.81-3.35,2.11-3.35.33,0,.61.08.88.21l-2.6,5.29c-.25-.54-.39-1.26-.39-2.15M418.22,26.15c2.45,0,3.51-2.21,3.51-4.52s-1.06-4.52-3.51-4.52-3.51,2.21-3.51,4.52,1.06,4.52,3.51,4.52M408.86,20.09c0-1,.59-1.81,1.66-1.81s1.66.73,1.66,1.81c0,.85-.65,1.6-1.66,1.6s-1.66-.75-1.66-1.6M410.52,17.1c-1.73,0-3.06,1.2-3.06,2.99s1.19,2.77,2.79,2.77c1.09,0,1.7-.4,2-.8-.02,1.51-.56,2.91-1.85,2.91-.7,0-1.25-.35-1.38-1.18h-1.4c.25,1.58,1.24,2.35,2.77,2.35,2.67,0,3.31-2.7,3.31-5.05,0-2.04-.75-4-3.19-4M396.7,24.4h4.57l-1.15,1.15h1.15l1.58-1.57-1.58-1.57h-1.15l1.15,1.15h-3.6v-4.7h-.97v5.55Z"/>
    </g>
    <polygon class="cls-4" points="28.7 392.28 43.4 408.98 14 408.98 28.7 392.28"/>
    <polygon class="cls-4" points="219.8 392.28 234.5 408.98 205.1 408.98 219.8 392.28"/>
    <polygon class="cls-4" points="366.8 392.3 381.5 409 352.1 409 366.8 392.3"/>
    <polygon class="cls-4" points="587.3 392.3 602 409 572.6 409 587.3 392.3"/>
    <g class="cls-6">
      <path class="cls-4" d="M302.13,343.27v-21.84c.17-8.57.84-9.91,3.19-9.91,2.69,0,3.02,2.02,3.02,20.83s-.34,20.83-3.02,20.83c-2.35,0-3.02-1.34-3.19-9.91M262.82,408.96h39.31v-42.5c4.37,7.56,11.09,10.92,20.66,10.92,18.65,0,24.86-12.6,24.86-45.02s-6.22-45.02-24.86-45.02c-9.58,0-16.3,3.36-20.66,10.92v-8.9h-39.31v119.62ZM213.09,331.51c0-17.98.34-19.99,2.69-19.99s2.69,2.02,2.69,19.99c0,19.49-.34,21.67-2.69,21.67s-2.69-2.18-2.69-21.67M215.78,377.37c30.41,0,42-12.77,42-45.86s-11.59-44.18-42-44.18-42,12.26-42,44.18,11.59,45.86,42,45.86M110.95,375.36h39.31v-40.66c0-13.44.67-16.97,15.29-16.97h5.71v-30.07h-5.21c-7.56,0-12.77,3.02-15.79,9.74v-8.06h-39.31v86.02ZM56.69,347.13v-61.15h2.52c3.53,0,3.86,3.02,3.86,30.58s-.34,30.58-3.86,30.58h-2.52ZM14.02,375.36h54.26c28.73,0,37.46-13.61,37.46-58.8s-8.74-58.8-37.46-58.8H14.02v117.6Z"/>
    </g>
    <g class="cls-10">
      <path class="cls-4" d="M29.22,178.66c0-1.39-1.12-2.51-2.51-2.51s-2.51,1.12-2.51,2.51,1.12,2.51,2.51,2.51,2.51-1.12,2.51-2.51"/>
      <path class="cls-4" d="M30.76,193.71c0-2.24-1.81-4.05-4.05-4.05s-4.05,1.81-4.05,4.05,1.81,4.05,4.05,4.05,4.05-1.81,4.05-4.05"/>
      <path class="cls-4" d="M31.61,208.76c0-2.7-2.19-4.9-4.9-4.9s-4.9,2.19-4.9,4.9,2.19,4.9,4.9,4.9,4.9-2.19,4.9-4.9"/>
      <path class="cls-4" d="M33.23,223.82c0-3.6-2.92-6.52-6.52-6.52s-6.52,2.92-6.52,6.52,2.92,6.52,6.52,6.52,6.52-2.92,6.52-6.52"/>
      <path class="cls-4" d="M34.6,238.87c0-4.35-3.53-7.88-7.89-7.88s-7.89,3.53-7.89,7.88,3.53,7.88,7.89,7.88,7.89-3.53,7.89-7.88"/>
      <path class="cls-4" d="M28.36,163.61c0-.91-.74-1.65-1.65-1.65s-1.65.74-1.65,1.65.74,1.65,1.65,1.65,1.65-.74,1.65-1.65"/>
      <path class="cls-4" d="M27.68,148.56c0-.54-.44-.97-.97-.97s-.97.43-.97.97.44.97.97.97.97-.43.97-.97"/>
      <path class="cls-4" d="M38.51,186.17c0-1.99-1.61-3.6-3.6-3.6s-3.61,1.61-3.61,3.6,1.61,3.6,3.61,3.6,3.6-1.61,3.6-3.6"/>
      <path class="cls-4" d="M39.7,201.24c0-2.65-2.15-4.8-4.8-4.8s-4.8,2.15-4.8,4.8,2.15,4.8,4.8,4.8,4.8-2.15,4.8-4.8"/>
      <path class="cls-4" d="M40.71,216.29c0-3.21-2.6-5.81-5.81-5.81s-5.81,2.6-5.81,5.81,2.6,5.81,5.81,5.81,5.81-2.6,5.81-5.81"/>
      <path class="cls-4" d="M41.93,231.34c0-3.88-3.15-7.03-7.03-7.03s-7.03,3.15-7.03,7.03,3.15,7.03,7.03,7.03,7.03-3.15,7.03-7.03"/>
      <path class="cls-4" d="M43.4,245.89c0-4.7-3.81-8.5-8.5-8.5s-8.5,3.81-8.5,8.5,3.81,8.5,8.5,8.5,8.5-3.81,8.5-8.5"/>
      <path class="cls-4" d="M22.49,186.17c0-2.19-1.78-3.97-3.97-3.97s-3.97,1.78-3.97,3.97,1.78,3.97,3.97,3.97,3.97-1.78,3.97-3.97"/>
      <path class="cls-4" d="M23.32,201.24c0-2.65-2.15-4.8-4.8-4.8s-4.8,2.15-4.8,4.8,2.15,4.8,4.8,4.8,4.8-2.15,4.8-4.8"/>
      <path class="cls-4" d="M24.33,216.29c0-3.21-2.6-5.81-5.81-5.81s-5.81,2.6-5.81,5.81,2.6,5.81,5.81,5.81,5.81-2.6,5.81-5.81"/>
      <path class="cls-4" d="M25.55,231.34c0-3.88-3.15-7.03-7.03-7.03s-7.03,3.15-7.03,7.03,3.15,7.03,7.03,7.03,7.03-3.15,7.03-7.03"/>
      <path class="cls-4" d="M27.02,245.89c0-4.7-3.81-8.5-8.5-8.5s-8.5,3.81-8.5,8.5,3.81,8.5,8.5,8.5,8.5-3.81,8.5-8.5"/>
      <path class="cls-4" d="M54.89,186.17c0-1.99-1.61-3.6-3.6-3.6s-3.61,1.61-3.61,3.6,1.61,3.6,3.61,3.6,3.6-1.61,3.6-3.6"/>
      <path class="cls-4" d="M56.08,201.24c0-2.65-2.15-4.8-4.8-4.8s-4.8,2.15-4.8,4.8,2.15,4.8,4.8,4.8,4.8-2.15,4.8-4.8"/>
      <path class="cls-4" d="M57.09,216.29c0-3.21-2.6-5.81-5.81-5.81s-5.81,2.6-5.81,5.81,2.6,5.81,5.81,5.81,5.81-2.6,5.81-5.81"/>
      <path class="cls-4" d="M58.31,231.34c0-3.88-3.15-7.03-7.03-7.03s-7.03,3.15-7.03,7.03,3.15,7.03,7.03,7.03,7.03-3.15,7.03-7.03"/>
      <path class="cls-4" d="M59.79,245.89c0-4.7-3.81-8.5-8.5-8.5s-8.5,3.81-8.5,8.5,3.81,8.5,8.5,8.5,8.5-3.81,8.5-8.5"/>
      <path class="cls-4" d="M71.27,186.17c0-1.99-1.61-3.6-3.61-3.6s-3.61,1.61-3.61,3.6,1.61,3.6,3.61,3.6,3.61-1.61,3.61-3.6"/>
      <path class="cls-4" d="M72.47,201.24c0-2.65-2.15-4.8-4.8-4.8s-4.8,2.15-4.8,4.8,2.15,4.8,4.8,4.8,4.8-2.15,4.8-4.8"/>
      <path class="cls-4" d="M73.47,216.29c0-3.21-2.6-5.81-5.81-5.81s-5.81,2.6-5.81,5.81,2.6,5.81,5.81,5.81,5.81-2.6,5.81-5.81"/>
      <path class="cls-4" d="M74.69,231.34c0-3.88-3.15-7.03-7.03-7.03s-7.03,3.15-7.03,7.03,3.15,7.03,7.03,7.03,7.03-3.15,7.03-7.03"/>
      <path class="cls-4" d="M76.17,245.89c0-4.7-3.81-8.5-8.5-8.5s-8.5,3.81-8.5,8.5,3.81,8.5,8.5,8.5,8.5-3.81,8.5-8.5"/>
      <path class="cls-4" d="M45.61,178.66c0-1.39-1.12-2.51-2.51-2.51s-2.51,1.12-2.51,2.51,1.12,2.51,2.51,2.51,2.51-1.12,2.51-2.51"/>
      <path class="cls-4" d="M47.14,193.71c0-2.24-1.81-4.05-4.05-4.05s-4.05,1.81-4.05,4.05,1.81,4.05,4.05,4.05,4.05-1.81,4.05-4.05"/>
      <path class="cls-4" d="M47.99,208.76c0-2.7-2.19-4.9-4.9-4.9s-4.9,2.19-4.9,4.9,2.19,4.9,4.9,4.9,4.9-2.19,4.9-4.9"/>
      <path class="cls-4" d="M49.61,223.82c0-3.6-2.92-6.52-6.52-6.52s-6.52,2.92-6.52,6.52,2.92,6.52,6.52,6.52,6.52-2.92,6.52-6.52"/>
      <path class="cls-4" d="M50.98,238.87c0-4.35-3.53-7.88-7.89-7.88s-7.89,3.53-7.89,7.88,3.53,7.88,7.89,7.88,7.89-3.53,7.89-7.88"/>
      <path class="cls-4" d="M44.73,163.61c0-.9-.73-1.63-1.63-1.63s-1.63.73-1.63,1.63.73,1.63,1.63,1.63,1.63-.73,1.63-1.63"/>
      <path class="cls-4" d="M44.16,148.56c0-.59-.48-1.07-1.07-1.07s-1.07.48-1.07,1.07.48,1.07,1.07,1.07,1.07-.48,1.07-1.07"/>
      <path class="cls-4" d="M36.94,171.14c0-1.12-.91-2.04-2.03-2.04s-2.03.91-2.03,2.04.91,2.04,2.03,2.04,2.03-.91,2.03-2.04"/>
      <path class="cls-4" d="M36.24,156.08c0-.74-.6-1.33-1.33-1.33s-1.34.6-1.34,1.33.6,1.33,1.34,1.33,1.33-.6,1.33-1.33"/>
      <path class="cls-4" d="M35.78,141.03c0-.48-.39-.88-.88-.88s-.88.39-.88.88.39.88.88.88.88-.39.88-.88"/>
      <path class="cls-4" d="M20.56,171.14c0-1.12-.91-2.04-2.03-2.04s-2.03.91-2.03,2.04.91,2.04,2.03,2.04,2.03-.91,2.03-2.04"/>
      <path class="cls-4" d="M53.32,171.14c0-1.12-.91-2.04-2.03-2.04s-2.03.91-2.03,2.04.91,2.04,2.03,2.04,2.03-.91,2.03-2.04"/>
      <path class="cls-4" d="M52.62,156.08c0-.74-.6-1.33-1.33-1.33s-1.34.6-1.34,1.33.6,1.33,1.34,1.33,1.33-.6,1.33-1.33"/>
      <path class="cls-4" d="M52.16,141.03c0-.48-.39-.88-.88-.88s-.88.39-.88.88.39.88.88.88.88-.39.88-.88"/>
      <path class="cls-4" d="M19.86,156.08c0-.74-.6-1.33-1.33-1.33s-1.34.6-1.34,1.33.6,1.33,1.34,1.33,1.33-.6,1.33-1.33"/>
      <path class="cls-4" d="M19.4,141.03c0-.48-.39-.88-.88-.88s-.88.39-.88.88.39.88.88.88.88-.39.88-.88"/>
      <path class="cls-4" d="M69,156.08c0-.74-.6-1.33-1.33-1.33s-1.34.6-1.34,1.33.6,1.33,1.34,1.33,1.33-.6,1.33-1.33"/>
      <path class="cls-4" d="M68.54,141.03c0-.48-.39-.88-.88-.88s-.88.39-.88.88.39.88.88.88.88-.39.88-.88"/>
      <path class="cls-4" d="M69.7,171.14c0-1.12-.91-2.04-2.04-2.04s-2.03.91-2.03,2.04.91,2.04,2.03,2.04,2.04-.91,2.04-2.04"/>
      <path class="cls-4" d="M61.99,178.66c0-1.39-1.12-2.51-2.51-2.51s-2.51,1.12-2.51,2.51,1.12,2.51,2.51,2.51,2.51-1.12,2.51-2.51"/>
      <path class="cls-4" d="M63.48,193.71c0-2.21-1.79-4.01-4.01-4.01s-4.01,1.79-4.01,4.01,1.79,4.01,4.01,4.01,4.01-1.79,4.01-4.01"/>
      <path class="cls-4" d="M64.32,208.76c0-2.68-2.17-4.85-4.85-4.85s-4.85,2.17-4.85,4.85,2.17,4.85,4.85,4.85,4.85-2.17,4.85-4.85"/>
      <path class="cls-4" d="M65.93,223.82c0-3.56-2.89-6.45-6.45-6.45s-6.45,2.89-6.45,6.45,2.89,6.45,6.45,6.45,6.45-2.89,6.45-6.45"/>
      <path class="cls-4" d="M67.28,238.87c0-4.31-3.49-7.81-7.81-7.81s-7.81,3.49-7.81,7.81,3.49,7.81,7.81,7.81,7.81-3.49,7.81-7.81"/>
      <path class="cls-4" d="M61.11,163.61c0-.9-.73-1.63-1.63-1.63s-1.63.73-1.63,1.63.73,1.63,1.63,1.63,1.63-.73,1.63-1.63"/>
      <path class="cls-4" d="M60.55,148.56c0-.59-.48-1.07-1.07-1.07s-1.07.48-1.07,1.07.48,1.07,1.07,1.07,1.07-.48,1.07-1.07"/>
      <path class="cls-4" d="M78.37,178.66c0-1.39-1.12-2.51-2.51-2.51s-2.51,1.12-2.51,2.51,1.12,2.51,2.51,2.51,2.51-1.12,2.51-2.51"/>
      <path class="cls-4" d="M79.9,193.71c0-2.24-1.81-4.05-4.05-4.05s-4.05,1.81-4.05,4.05,1.81,4.05,4.05,4.05,4.05-1.81,4.05-4.05"/>
      <path class="cls-4" d="M80.75,208.76c0-2.7-2.19-4.9-4.9-4.9s-4.9,2.19-4.9,4.9,2.19,4.9,4.9,4.9,4.9-2.19,4.9-4.9"/>
      <path class="cls-4" d="M82.37,223.82c0-3.6-2.92-6.52-6.52-6.52s-6.52,2.92-6.52,6.52,2.92,6.52,6.52,6.52,6.52-2.92,6.52-6.52"/>
      <path class="cls-4" d="M83.74,238.87c0-4.35-3.53-7.88-7.89-7.88s-7.89,3.53-7.89,7.88,3.53,7.88,7.89,7.88,7.89-3.53,7.89-7.88"/>
      <path class="cls-4" d="M77.5,163.61c0-.91-.74-1.65-1.65-1.65s-1.65.74-1.65,1.65.74,1.65,1.65,1.65,1.65-.74,1.65-1.65"/>
      <path class="cls-4" d="M76.83,148.56c0-.54-.44-.97-.97-.97s-.97.43-.97.97.44.97.97.97.97-.43.97-.97"/>
      <path class="cls-4" d="M87.65,186.17c0-1.99-1.61-3.6-3.61-3.6s-3.61,1.61-3.61,3.6,1.61,3.6,3.61,3.6,3.61-1.61,3.61-3.6"/>
      <path class="cls-4" d="M88.85,201.24c0-2.65-2.15-4.8-4.8-4.8s-4.8,2.15-4.8,4.8,2.15,4.8,4.8,4.8,4.8-2.15,4.8-4.8"/>
      <path class="cls-4" d="M89.85,216.29c0-3.21-2.6-5.81-5.81-5.81s-5.81,2.6-5.81,5.81,2.6,5.81,5.81,5.81,5.81-2.6,5.81-5.81"/>
      <path class="cls-4" d="M91.07,231.34c0-3.88-3.15-7.03-7.03-7.03s-7.03,3.15-7.03,7.03,3.15,7.03,7.03,7.03,7.03-3.15,7.03-7.03"/>
      <path class="cls-4" d="M92.55,245.89c0-4.7-3.81-8.5-8.5-8.5s-8.5,3.81-8.5,8.5,3.81,8.5,8.5,8.5,8.5-3.81,8.5-8.5"/>
      <path class="cls-4" d="M72.46,201.24c0-2.65-2.15-4.8-4.8-4.8s-4.8,2.15-4.8,4.8,2.15,4.8,4.8,4.8,4.8-2.15,4.8-4.8"/>
      <path class="cls-4" d="M73.47,216.29c0-3.21-2.6-5.81-5.81-5.81s-5.81,2.6-5.81,5.81,2.6,5.81,5.81,5.81,5.81-2.6,5.81-5.81"/>
      <path class="cls-4" d="M74.69,231.34c0-3.88-3.15-7.03-7.03-7.03s-7.03,3.15-7.03,7.03,3.15,7.03,7.03,7.03,7.03-3.15,7.03-7.03"/>
      <path class="cls-4" d="M76.17,245.89c0-4.7-3.81-8.5-8.5-8.5s-8.5,3.81-8.5,8.5,3.81,8.5,8.5,8.5,8.5-3.81,8.5-8.5"/>
      <path class="cls-4" d="M104.03,186.17c0-1.99-1.61-3.6-3.61-3.6s-3.61,1.61-3.61,3.6,1.61,3.6,3.61,3.6,3.61-1.61,3.61-3.6"/>
      <path class="cls-4" d="M105.23,201.24c0-2.65-2.15-4.8-4.8-4.8s-4.8,2.15-4.8,4.8,2.15,4.8,4.8,4.8,4.8-2.15,4.8-4.8"/>
      <path class="cls-4" d="M106.24,216.29c0-3.21-2.6-5.81-5.81-5.81s-5.81,2.6-5.81,5.81,2.6,5.81,5.81,5.81,5.81-2.6,5.81-5.81"/>
      <path class="cls-4" d="M107.45,231.34c0-3.88-3.15-7.03-7.03-7.03s-7.03,3.15-7.03,7.03,3.15,7.03,7.03,7.03,7.03-3.15,7.03-7.03"/>
      <path class="cls-4" d="M108.93,245.89c0-4.7-3.81-8.5-8.5-8.5s-8.5,3.81-8.5,8.5,3.81,8.5,8.5,8.5,8.5-3.81,8.5-8.5"/>
      <path class="cls-4" d="M120.42,186.17c0-1.99-1.61-3.6-3.61-3.6s-3.61,1.61-3.61,3.6,1.61,3.6,3.61,3.6,3.61-1.61,3.61-3.6"/>
      <path class="cls-4" d="M121.61,201.24c0-2.65-2.15-4.8-4.8-4.8s-4.8,2.15-4.8,4.8,2.15,4.8,4.8,4.8,4.8-2.15,4.8-4.8"/>
      <path class="cls-4" d="M122.62,216.29c0-3.21-2.6-5.81-5.81-5.81s-5.81,2.6-5.81,5.81,2.6,5.81,5.81,5.81,5.81-2.6,5.81-5.81"/>
      <path class="cls-4" d="M123.84,231.34c0-3.88-3.15-7.03-7.03-7.03s-7.03,3.15-7.03,7.03,3.15,7.03,7.03,7.03,7.03-3.15,7.03-7.03"/>
      <path class="cls-4" d="M125.31,245.89c0-4.7-3.81-8.5-8.5-8.5s-8.5,3.81-8.5,8.5,3.81,8.5,8.5,8.5,8.5-3.81,8.5-8.5"/>
      <path class="cls-4" d="M94.75,178.66c0-1.39-1.12-2.51-2.51-2.51s-2.51,1.12-2.51,2.51,1.12,2.51,2.51,2.51,2.51-1.12,2.51-2.51"/>
      <path class="cls-4" d="M96.28,193.71c0-2.24-1.81-4.05-4.05-4.05s-4.05,1.81-4.05,4.05,1.81,4.05,4.05,4.05,4.05-1.81,4.05-4.05"/>
      <path class="cls-4" d="M97.13,208.76c0-2.7-2.19-4.9-4.9-4.9s-4.9,2.19-4.9,4.9,2.19,4.9,4.9,4.9,4.9-2.19,4.9-4.9"/>
      <path class="cls-4" d="M98.75,223.82c0-3.6-2.92-6.52-6.52-6.52s-6.52,2.92-6.52,6.52,2.92,6.52,6.52,6.52,6.52-2.92,6.52-6.52"/>
      <path class="cls-4" d="M100.12,238.87c0-4.35-3.53-7.88-7.89-7.88s-7.89,3.53-7.89,7.88,3.53,7.88,7.89,7.88,7.89-3.53,7.89-7.88"/>
      <path class="cls-4" d="M93.87,163.61c0-.9-.73-1.63-1.63-1.63s-1.63.73-1.63,1.63.73,1.63,1.63,1.63,1.63-.73,1.63-1.63"/>
      <path class="cls-4" d="M93.31,148.56c0-.59-.48-1.07-1.07-1.07s-1.07.48-1.07,1.07.48,1.07,1.07,1.07,1.07-.48,1.07-1.07"/>
      <path class="cls-4" d="M86.08,171.14c0-1.12-.91-2.04-2.04-2.04s-2.03.91-2.03,2.04.91,2.04,2.03,2.04,2.04-.91,2.04-2.04"/>
      <path class="cls-4" d="M85.38,156.08c0-.74-.6-1.33-1.33-1.33s-1.34.6-1.34,1.33.6,1.33,1.34,1.33,1.33-.6,1.33-1.33"/>
      <path class="cls-4" d="M84.92,141.03c0-.48-.39-.88-.88-.88s-.88.39-.88.88.39.88.88.88.88-.39.88-.88"/>
      <path class="cls-4" d="M69.7,171.14c0-1.12-.91-2.04-2.04-2.04s-2.03.91-2.03,2.04.91,2.04,2.03,2.04,2.04-.91,2.04-2.04"/>
      <path class="cls-4" d="M102.46,171.14c0-1.12-.91-2.04-2.04-2.04s-2.03.91-2.03,2.04.91,2.04,2.03,2.04,2.04-.91,2.04-2.04"/>
      <path class="cls-4" d="M101.76,156.08c0-.74-.6-1.33-1.33-1.33s-1.34.6-1.34,1.33.6,1.33,1.34,1.33,1.33-.6,1.33-1.33"/>
      <path class="cls-4" d="M101.31,141.03c0-.48-.39-.88-.88-.88s-.88.39-.88.88.39.88.88.88.88-.39.88-.88"/>
      <path class="cls-4" d="M69,156.08c0-.74-.6-1.33-1.33-1.33s-1.34.6-1.34,1.33.6,1.33,1.34,1.33,1.33-.6,1.33-1.33"/>
      <path class="cls-4" d="M68.54,141.03c0-.48-.39-.88-.88-.88s-.88.39-.88.88.39.88.88.88.88-.39.88-.88"/>
      <path class="cls-4" d="M118.15,156.08c0-.74-.6-1.33-1.33-1.33s-1.34.6-1.34,1.33.6,1.33,1.34,1.33,1.33-.6,1.33-1.33"/>
      <path class="cls-4" d="M117.69,141.03c0-.48-.39-.88-.88-.88s-.88.39-.88.88.39.88.88.88.88-.39.88-.88"/>
      <path class="cls-4" d="M118.85,171.14c0-1.12-.91-2.04-2.04-2.04s-2.03.91-2.03,2.04.91,2.04,2.03,2.04,2.04-.91,2.04-2.04"/>
      <path class="cls-4" d="M111.13,178.66c0-1.39-1.12-2.51-2.51-2.51s-2.51,1.12-2.51,2.51,1.12,2.51,2.51,2.51,2.51-1.12,2.51-2.51"/>
      <path class="cls-4" d="M112.63,193.71c0-2.21-1.79-4.01-4.01-4.01s-4.01,1.79-4.01,4.01,1.79,4.01,4.01,4.01,4.01-1.79,4.01-4.01"/>
      <path class="cls-4" d="M113.47,208.76c0-2.68-2.17-4.85-4.85-4.85s-4.85,2.17-4.85,4.85,2.17,4.85,4.85,4.85,4.85-2.17,4.85-4.85"/>
      <path class="cls-4" d="M115.07,223.82c0-3.56-2.89-6.45-6.45-6.45s-6.45,2.89-6.45,6.45,2.89,6.45,6.45,6.45,6.45-2.89,6.45-6.45"/>
      <path class="cls-4" d="M116.43,238.87c0-4.31-3.5-7.81-7.81-7.81s-7.81,3.49-7.81,7.81,3.5,7.81,7.81,7.81,7.81-3.49,7.81-7.81"/>
      <path class="cls-4" d="M110.25,163.61c0-.9-.73-1.63-1.63-1.63s-1.63.73-1.63,1.63.73,1.63,1.63,1.63,1.63-.73,1.63-1.63"/>
      <path class="cls-4" d="M109.69,148.56c0-.59-.48-1.07-1.07-1.07s-1.07.48-1.07,1.07.48,1.07,1.07,1.07,1.07-.48,1.07-1.07"/>
      <path class="cls-4" d="M127.52,178.66c0-1.39-1.12-2.51-2.51-2.51s-2.51,1.12-2.51,2.51,1.12,2.51,2.51,2.51,2.51-1.12,2.51-2.51"/>
      <path class="cls-4" d="M129.05,193.71c0-2.24-1.81-4.05-4.05-4.05s-4.05,1.81-4.05,4.05,1.81,4.05,4.05,4.05,4.05-1.81,4.05-4.05"/>
      <path class="cls-4" d="M129.9,208.76c0-2.7-2.19-4.9-4.9-4.9s-4.9,2.19-4.9,4.9,2.19,4.9,4.9,4.9,4.9-2.19,4.9-4.9"/>
      <path class="cls-4" d="M131.52,223.82c0-3.6-2.92-6.52-6.52-6.52s-6.52,2.92-6.52,6.52,2.92,6.52,6.52,6.52,6.52-2.92,6.52-6.52"/>
      <path class="cls-4" d="M132.89,238.87c0-4.35-3.53-7.88-7.89-7.88s-7.89,3.53-7.89,7.88,3.53,7.88,7.89,7.88,7.89-3.53,7.89-7.88"/>
      <path class="cls-4" d="M126.65,163.61c0-.91-.74-1.65-1.65-1.65s-1.65.74-1.65,1.65.74,1.65,1.65,1.65,1.65-.74,1.65-1.65"/>
      <path class="cls-4" d="M125.98,148.56c0-.54-.44-.97-.97-.97s-.97.43-.97.97.44.97.97.97.97-.43.97-.97"/>
      <path class="cls-4" d="M136.8,186.17c0-1.99-1.61-3.6-3.6-3.6s-3.61,1.61-3.61,3.6,1.61,3.6,3.61,3.6,3.6-1.61,3.6-3.6"/>
      <path class="cls-4" d="M137.99,201.24c0-2.65-2.15-4.8-4.8-4.8s-4.8,2.15-4.8,4.8,2.15,4.8,4.8,4.8,4.8-2.15,4.8-4.8"/>
      <path class="cls-4" d="M139,216.29c0-3.21-2.6-5.81-5.81-5.81s-5.81,2.6-5.81,5.81,2.6,5.81,5.81,5.81,5.81-2.6,5.81-5.81"/>
      <path class="cls-4" d="M140.22,231.34c0-3.88-3.15-7.03-7.03-7.03s-7.03,3.15-7.03,7.03,3.15,7.03,7.03,7.03,7.03-3.15,7.03-7.03"/>
      <path class="cls-4" d="M141.7,245.89c0-4.7-3.81-8.5-8.5-8.5s-8.5,3.81-8.5,8.5,3.81,8.5,8.5,8.5,8.5-3.81,8.5-8.5"/>
      <path class="cls-4" d="M121.61,201.24c0-2.65-2.15-4.8-4.8-4.8s-4.8,2.15-4.8,4.8,2.15,4.8,4.8,4.8,4.8-2.15,4.8-4.8"/>
      <path class="cls-4" d="M122.62,216.29c0-3.21-2.6-5.81-5.81-5.81s-5.81,2.6-5.81,5.81,2.6,5.81,5.81,5.81,5.81-2.6,5.81-5.81"/>
      <path class="cls-4" d="M123.84,231.34c0-3.88-3.15-7.03-7.03-7.03s-7.03,3.15-7.03,7.03,3.15,7.03,7.03,7.03,7.03-3.15,7.03-7.03"/>
      <path class="cls-4" d="M125.31,245.89c0-4.7-3.81-8.5-8.5-8.5s-8.5,3.81-8.5,8.5,3.81,8.5,8.5,8.5,8.5-3.81,8.5-8.5"/>
      <path class="cls-4" d="M153.18,186.17c0-1.99-1.61-3.6-3.6-3.6s-3.61,1.61-3.61,3.6,1.61,3.6,3.61,3.6,3.6-1.61,3.6-3.6"/>
      <path class="cls-4" d="M154.38,201.24c0-2.65-2.15-4.8-4.8-4.8s-4.8,2.15-4.8,4.8,2.15,4.8,4.8,4.8,4.8-2.15,4.8-4.8"/>
      <path class="cls-4" d="M155.38,216.29c0-3.21-2.6-5.81-5.81-5.81s-5.81,2.6-5.81,5.81,2.6,5.81,5.81,5.81,5.81-2.6,5.81-5.81"/>
      <path class="cls-4" d="M156.6,231.34c0-3.88-3.15-7.03-7.03-7.03s-7.03,3.15-7.03,7.03,3.15,7.03,7.03,7.03,7.03-3.15,7.03-7.03"/>
      <path class="cls-4" d="M158.08,245.89c0-4.7-3.81-8.5-8.5-8.5s-8.5,3.81-8.5,8.5,3.81,8.5,8.5,8.5,8.5-3.81,8.5-8.5"/>
      <path class="cls-4" d="M169.57,186.17c0-1.99-1.61-3.6-3.6-3.6s-3.61,1.61-3.61,3.6,1.61,3.6,3.61,3.6,3.6-1.61,3.6-3.6"/>
      <path class="cls-4" d="M170.76,201.24c0-2.65-2.15-4.8-4.8-4.8s-4.8,2.15-4.8,4.8,2.15,4.8,4.8,4.8,4.8-2.15,4.8-4.8"/>
      <path class="cls-4" d="M171.77,216.29c0-3.21-2.6-5.81-5.81-5.81s-5.81,2.6-5.81,5.81,2.6,5.81,5.81,5.81,5.81-2.6,5.81-5.81"/>
      <path class="cls-4" d="M172.99,231.34c0-3.88-3.15-7.03-7.03-7.03s-7.03,3.15-7.03,7.03,3.15,7.03,7.03,7.03,7.03-3.15,7.03-7.03"/>
      <path class="cls-4" d="M174.46,245.89c0-4.7-3.81-8.5-8.5-8.5s-8.5,3.81-8.5,8.5,3.81,8.5,8.5,8.5,8.5-3.81,8.5-8.5"/>
      <path class="cls-4" d="M143.9,178.66c0-1.39-1.12-2.51-2.51-2.51s-2.51,1.12-2.51,2.51,1.12,2.51,2.51,2.51,2.51-1.12,2.51-2.51"/>
      <path class="cls-4" d="M145.43,193.71c0-2.24-1.81-4.05-4.05-4.05s-4.05,1.81-4.05,4.05,1.81,4.05,4.05,4.05,4.05-1.81,4.05-4.05"/>
      <path class="cls-4" d="M146.28,208.76c0-2.7-2.19-4.9-4.9-4.9s-4.9,2.19-4.9,4.9,2.19,4.9,4.9,4.9,4.9-2.19,4.9-4.9"/>
      <path class="cls-4" d="M147.9,223.82c0-3.6-2.92-6.52-6.52-6.52s-6.52,2.92-6.52,6.52,2.92,6.52,6.52,6.52,6.52-2.92,6.52-6.52"/>
      <path class="cls-4" d="M149.27,238.87c0-4.35-3.53-7.88-7.88-7.88s-7.89,3.53-7.89,7.88,3.53,7.88,7.89,7.88,7.88-3.53,7.88-7.88"/>
      <path class="cls-4" d="M143.02,163.61c0-.9-.73-1.63-1.63-1.63s-1.63.73-1.63,1.63.73,1.63,1.63,1.63,1.63-.73,1.63-1.63"/>
      <path class="cls-4" d="M142.46,148.56c0-.59-.48-1.07-1.07-1.07s-1.07.48-1.07,1.07.48,1.07,1.07,1.07,1.07-.48,1.07-1.07"/>
      <path class="cls-4" d="M135.23,171.14c0-1.12-.91-2.04-2.04-2.04s-2.04.91-2.04,2.04.91,2.04,2.04,2.04,2.04-.91,2.04-2.04"/>
      <path class="cls-4" d="M134.53,156.08c0-.74-.6-1.33-1.34-1.33s-1.34.6-1.34,1.33.6,1.33,1.34,1.33,1.34-.6,1.34-1.33"/>
      <path class="cls-4" d="M134.07,141.03c0-.48-.39-.88-.88-.88s-.88.39-.88.88.39.88.88.88.88-.39.88-.88"/>
      <path class="cls-4" d="M118.85,171.14c0-1.12-.91-2.04-2.04-2.04s-2.03.91-2.03,2.04.91,2.04,2.03,2.04,2.04-.91,2.04-2.04"/>
      <path class="cls-4" d="M151.61,171.14c0-1.12-.91-2.04-2.04-2.04s-2.04.91-2.04,2.04.91,2.04,2.04,2.04,2.04-.91,2.04-2.04"/>
      <path class="cls-4" d="M150.91,156.08c0-.74-.6-1.33-1.34-1.33s-1.34.6-1.34,1.33.6,1.33,1.34,1.33,1.34-.6,1.34-1.33"/>
      <path class="cls-4" d="M150.45,141.03c0-.48-.39-.88-.88-.88s-.88.39-.88.88.39.88.88.88.88-.39.88-.88"/>
      <path class="cls-4" d="M118.15,156.08c0-.74-.6-1.33-1.33-1.33s-1.34.6-1.34,1.33.6,1.33,1.34,1.33,1.33-.6,1.33-1.33"/>
      <path class="cls-4" d="M117.69,141.03c0-.48-.39-.88-.88-.88s-.88.39-.88.88.39.88.88.88.88-.39.88-.88"/>
      <path class="cls-4" d="M167.3,156.08c0-.74-.6-1.33-1.34-1.33s-1.34.6-1.34,1.33.6,1.33,1.34,1.33,1.34-.6,1.34-1.33"/>
      <path class="cls-4" d="M166.84,141.03c0-.48-.39-.88-.88-.88s-.88.39-.88.88.39.88.88.88.88-.39.88-.88"/>
      <path class="cls-4" d="M168,171.14c0-1.12-.91-2.04-2.04-2.04s-2.04.91-2.04,2.04.91,2.04,2.04,2.04,2.04-.91,2.04-2.04"/>
      <path class="cls-4" d="M160.28,178.66c0-1.39-1.12-2.51-2.51-2.51s-2.51,1.12-2.51,2.51,1.12,2.51,2.51,2.51,2.51-1.12,2.51-2.51"/>
      <path class="cls-4" d="M161.78,193.71c0-2.21-1.79-4.01-4.01-4.01s-4.01,1.79-4.01,4.01,1.79,4.01,4.01,4.01,4.01-1.79,4.01-4.01"/>
      <path class="cls-4" d="M162.62,208.76c0-2.68-2.17-4.85-4.85-4.85s-4.85,2.17-4.85,4.85,2.17,4.85,4.85,4.85,4.85-2.17,4.85-4.85"/>
      <path class="cls-4" d="M164.22,223.82c0-3.56-2.89-6.45-6.45-6.45s-6.45,2.89-6.45,6.45,2.89,6.45,6.45,6.45,6.45-2.89,6.45-6.45"/>
      <path class="cls-4" d="M165.58,238.87c0-4.31-3.49-7.81-7.81-7.81s-7.81,3.49-7.81,7.81,3.5,7.81,7.81,7.81,7.81-3.49,7.81-7.81"/>
      <path class="cls-4" d="M159.4,163.61c0-.9-.73-1.63-1.63-1.63s-1.63.73-1.63,1.63.73,1.63,1.63,1.63,1.63-.73,1.63-1.63"/>
      <path class="cls-4" d="M158.84,148.56c0-.59-.48-1.07-1.07-1.07s-1.07.48-1.07,1.07.48,1.07,1.07,1.07,1.07-.48,1.07-1.07"/>
      <path class="cls-4" d="M176.66,178.66c0-1.39-1.12-2.51-2.51-2.51s-2.51,1.12-2.51,2.51,1.12,2.51,2.51,2.51,2.51-1.12,2.51-2.51"/>
      <path class="cls-4" d="M178.19,193.71c0-2.24-1.81-4.05-4.05-4.05s-4.05,1.81-4.05,4.05,1.81,4.05,4.05,4.05,4.05-1.81,4.05-4.05"/>
      <path class="cls-4" d="M179.04,208.76c0-2.7-2.19-4.9-4.9-4.9s-4.9,2.19-4.9,4.9,2.19,4.9,4.9,4.9,4.9-2.19,4.9-4.9"/>
      <path class="cls-4" d="M180.66,223.82c0-3.6-2.92-6.52-6.52-6.52s-6.52,2.92-6.52,6.52,2.92,6.52,6.52,6.52,6.52-2.92,6.52-6.52"/>
      <path class="cls-4" d="M182.03,238.87c0-4.35-3.53-7.88-7.88-7.88s-7.89,3.53-7.89,7.88,3.53,7.88,7.89,7.88,7.88-3.53,7.88-7.88"/>
      <path class="cls-4" d="M175.8,163.61c0-.91-.74-1.65-1.65-1.65s-1.65.74-1.65,1.65.74,1.65,1.65,1.65,1.65-.74,1.65-1.65"/>
      <path class="cls-4" d="M175.12,148.56c0-.54-.44-.97-.97-.97s-.97.43-.97.97.44.97.97.97.97-.43.97-.97"/>
      <path class="cls-4" d="M185.94,186.17c0-1.99-1.61-3.6-3.6-3.6s-3.61,1.61-3.61,3.6,1.61,3.6,3.61,3.6,3.6-1.61,3.6-3.6"/>
      <path class="cls-4" d="M187.14,201.24c0-2.65-2.15-4.8-4.8-4.8s-4.8,2.15-4.8,4.8,2.15,4.8,4.8,4.8,4.8-2.15,4.8-4.8"/>
      <path class="cls-4" d="M188.15,216.29c0-3.21-2.6-5.81-5.81-5.81s-5.81,2.6-5.81,5.81,2.6,5.81,5.81,5.81,5.81-2.6,5.81-5.81"/>
      <path class="cls-4" d="M189.37,231.34c0-3.88-3.15-7.03-7.03-7.03s-7.03,3.15-7.03,7.03,3.15,7.03,7.03,7.03,7.03-3.15,7.03-7.03"/>
      <path class="cls-4" d="M190.84,245.89c0-4.7-3.81-8.5-8.5-8.5s-8.5,3.81-8.5,8.5,3.81,8.5,8.5,8.5,8.5-3.81,8.5-8.5"/>
      <path class="cls-4" d="M170.76,201.24c0-2.65-2.15-4.8-4.8-4.8s-4.8,2.15-4.8,4.8,2.15,4.8,4.8,4.8,4.8-2.15,4.8-4.8"/>
      <path class="cls-4" d="M171.76,216.29c0-3.21-2.6-5.81-5.81-5.81s-5.81,2.6-5.81,5.81,2.6,5.81,5.81,5.81,5.81-2.6,5.81-5.81"/>
      <path class="cls-4" d="M172.98,231.34c0-3.88-3.15-7.03-7.03-7.03s-7.03,3.15-7.03,7.03,3.15,7.03,7.03,7.03,7.03-3.15,7.03-7.03"/>
      <path class="cls-4" d="M174.46,245.89c0-4.7-3.81-8.5-8.5-8.5s-8.5,3.81-8.5,8.5,3.81,8.5,8.5,8.5,8.5-3.81,8.5-8.5"/>
      <path class="cls-4" d="M202.33,186.17c0-1.99-1.61-3.6-3.6-3.6s-3.61,1.61-3.61,3.6,1.61,3.6,3.61,3.6,3.6-1.61,3.6-3.6"/>
      <path class="cls-4" d="M203.52,201.24c0-2.65-2.15-4.8-4.8-4.8s-4.8,2.15-4.8,4.8,2.15,4.8,4.8,4.8,4.8-2.15,4.8-4.8"/>
      <path class="cls-4" d="M204.53,216.29c0-3.21-2.6-5.81-5.81-5.81s-5.81,2.6-5.81,5.81,2.6,5.81,5.81,5.81,5.81-2.6,5.81-5.81"/>
      <path class="cls-4" d="M205.75,231.34c0-3.88-3.15-7.03-7.03-7.03s-7.03,3.15-7.03,7.03,3.15,7.03,7.03,7.03,7.03-3.15,7.03-7.03"/>
      <path class="cls-4" d="M207.22,245.89c0-4.7-3.81-8.5-8.5-8.5s-8.5,3.81-8.5,8.5,3.81,8.5,8.5,8.5,8.5-3.81,8.5-8.5"/>
      <path class="cls-4" d="M218.71,186.17c0-1.99-1.61-3.6-3.6-3.6s-3.61,1.61-3.61,3.6,1.61,3.6,3.61,3.6,3.6-1.61,3.6-3.6"/>
      <path class="cls-4" d="M219.9,201.24c0-2.65-2.15-4.8-4.8-4.8s-4.8,2.15-4.8,4.8,2.15,4.8,4.8,4.8,4.8-2.15,4.8-4.8"/>
      <path class="cls-4" d="M220.91,216.29c0-3.21-2.6-5.81-5.81-5.81s-5.81,2.6-5.81,5.81,2.6,5.81,5.81,5.81,5.81-2.6,5.81-5.81"/>
      <path class="cls-4" d="M222.13,231.34c0-3.88-3.15-7.03-7.03-7.03s-7.03,3.15-7.03,7.03,3.15,7.03,7.03,7.03,7.03-3.15,7.03-7.03"/>
      <path class="cls-4" d="M223.61,245.89c0-4.7-3.81-8.5-8.5-8.5s-8.5,3.81-8.5,8.5,3.81,8.5,8.5,8.5,8.5-3.81,8.5-8.5"/>
      <path class="cls-4" d="M193.04,178.66c0-1.39-1.12-2.51-2.51-2.51s-2.51,1.12-2.51,2.51,1.12,2.51,2.51,2.51,2.51-1.12,2.51-2.51"/>
      <path class="cls-4" d="M194.58,193.71c0-2.24-1.81-4.05-4.05-4.05s-4.05,1.81-4.05,4.05,1.81,4.05,4.05,4.05,4.05-1.81,4.05-4.05"/>
      <path class="cls-4" d="M195.43,208.76c0-2.7-2.19-4.9-4.9-4.9s-4.9,2.19-4.9,4.9,2.19,4.9,4.9,4.9,4.9-2.19,4.9-4.9"/>
      <path class="cls-4" d="M197.05,223.82c0-3.6-2.92-6.52-6.52-6.52s-6.52,2.92-6.52,6.52,2.92,6.52,6.52,6.52,6.52-2.92,6.52-6.52"/>
      <path class="cls-4" d="M198.42,238.87c0-4.35-3.53-7.88-7.88-7.88s-7.89,3.53-7.89,7.88,3.53,7.88,7.89,7.88,7.88-3.53,7.88-7.88"/>
      <path class="cls-4" d="M192.16,163.61c0-.9-.73-1.63-1.63-1.63s-1.63.73-1.63,1.63.73,1.63,1.63,1.63,1.63-.73,1.63-1.63"/>
      <path class="cls-4" d="M191.6,148.56c0-.59-.48-1.07-1.07-1.07s-1.07.48-1.07,1.07.48,1.07,1.07,1.07,1.07-.48,1.07-1.07"/>
      <path class="cls-4" d="M184.37,171.14c0-1.12-.91-2.04-2.04-2.04s-2.04.91-2.04,2.04.91,2.04,2.04,2.04,2.04-.91,2.04-2.04"/>
      <path class="cls-4" d="M183.67,156.08c0-.74-.6-1.33-1.34-1.33s-1.34.6-1.34,1.33.6,1.33,1.34,1.33,1.34-.6,1.34-1.33"/>
      <path class="cls-4" d="M183.22,141.03c0-.48-.39-.88-.88-.88s-.88.39-.88.88.39.88.88.88.88-.39.88-.88"/>
      <path class="cls-4" d="M167.99,171.14c0-1.12-.91-2.04-2.04-2.04s-2.04.91-2.04,2.04.91,2.04,2.04,2.04,2.04-.91,2.04-2.04"/>
      <path class="cls-4" d="M200.76,171.14c0-1.12-.91-2.04-2.04-2.04s-2.04.91-2.04,2.04.91,2.04,2.04,2.04,2.04-.91,2.04-2.04"/>
      <path class="cls-4" d="M200.06,156.08c0-.74-.6-1.33-1.34-1.33s-1.34.6-1.34,1.33.6,1.33,1.34,1.33,1.34-.6,1.34-1.33"/>
      <path class="cls-4" d="M199.6,141.03c0-.48-.39-.88-.88-.88s-.88.39-.88.88.39.88.88.88.88-.39.88-.88"/>
      <path class="cls-4" d="M167.29,156.08c0-.74-.6-1.33-1.34-1.33s-1.34.6-1.34,1.33.6,1.33,1.34,1.33,1.34-.6,1.34-1.33"/>
      <path class="cls-4" d="M166.83,141.03c0-.48-.39-.88-.88-.88s-.88.39-.88.88.39.88.88.88.88-.39.88-.88"/>
      <path class="cls-4" d="M216.44,156.08c0-.74-.6-1.33-1.34-1.33s-1.34.6-1.34,1.33.6,1.33,1.34,1.33,1.34-.6,1.34-1.33"/>
      <path class="cls-4" d="M215.98,141.03c0-.48-.39-.88-.88-.88s-.88.39-.88.88.39.88.88.88.88-.39.88-.88"/>
      <path class="cls-4" d="M217.14,171.14c0-1.12-.91-2.04-2.04-2.04s-2.04.91-2.04,2.04.91,2.04,2.04,2.04,2.04-.91,2.04-2.04"/>
      <path class="cls-4" d="M209.43,178.66c0-1.39-1.12-2.51-2.51-2.51s-2.51,1.12-2.51,2.51,1.12,2.51,2.51,2.51,2.51-1.12,2.51-2.51"/>
      <path class="cls-4" d="M210.92,193.71c0-2.21-1.79-4.01-4.01-4.01s-4.01,1.79-4.01,4.01,1.79,4.01,4.01,4.01,4.01-1.79,4.01-4.01"/>
      <path class="cls-4" d="M211.76,208.76c0-2.68-2.17-4.85-4.85-4.85s-4.85,2.17-4.85,4.85,2.17,4.85,4.85,4.85,4.85-2.17,4.85-4.85"/>
      <path class="cls-4" d="M213.36,223.82c0-3.56-2.89-6.45-6.45-6.45s-6.45,2.89-6.45,6.45,2.89,6.45,6.45,6.45,6.45-2.89,6.45-6.45"/>
      <path class="cls-4" d="M214.72,238.87c0-4.31-3.49-7.81-7.81-7.81s-7.81,3.49-7.81,7.81,3.5,7.81,7.81,7.81,7.81-3.49,7.81-7.81"/>
      <path class="cls-4" d="M208.55,163.61c0-.9-.73-1.63-1.63-1.63s-1.63.73-1.63,1.63.73,1.63,1.63,1.63,1.63-.73,1.63-1.63"/>
      <path class="cls-4" d="M207.98,148.56c0-.59-.48-1.07-1.07-1.07s-1.07.48-1.07,1.07.48,1.07,1.07,1.07,1.07-.48,1.07-1.07"/>
    </g>
    <g class="cls-9">
      <path class="cls-4" d="M562.4,315.7c0-1.39-1.12-2.51-2.51-2.51s-2.51,1.12-2.51,2.51,1.12,2.51,2.51,2.51,2.51-1.12,2.51-2.51"/>
      <path class="cls-4" d="M563.94,330.75c0-2.24-1.81-4.05-4.05-4.05s-4.05,1.81-4.05,4.05,1.81,4.05,4.05,4.05,4.05-1.81,4.05-4.05"/>
      <path class="cls-4" d="M564.79,345.8c0-2.7-2.19-4.9-4.9-4.9s-4.9,2.19-4.9,4.9,2.19,4.9,4.9,4.9,4.9-2.19,4.9-4.9"/>
      <path class="cls-4" d="M566.41,360.85c0-3.6-2.92-6.52-6.52-6.52s-6.52,2.92-6.52,6.52,2.92,6.52,6.52,6.52,6.52-2.92,6.52-6.52"/>
      <path class="cls-4" d="M567.78,375.9c0-4.35-3.53-7.89-7.89-7.89s-7.89,3.53-7.89,7.89,3.53,7.89,7.89,7.89,7.89-3.53,7.89-7.89"/>
      <path class="cls-4" d="M561.54,300.64c0-.91-.74-1.65-1.65-1.65s-1.65.74-1.65,1.65.74,1.65,1.65,1.65,1.65-.74,1.65-1.65"/>
      <path class="cls-4" d="M560.87,285.59c0-.54-.44-.97-.97-.97s-.97.44-.97.97.44.97.97.97.97-.44.97-.97"/>
      <path class="cls-4" d="M571.69,323.21c0-1.99-1.61-3.61-3.6-3.61s-3.61,1.61-3.61,3.61,1.61,3.61,3.61,3.61,3.6-1.61,3.6-3.61"/>
      <path class="cls-4" d="M572.88,338.27c0-2.65-2.15-4.8-4.8-4.8s-4.8,2.15-4.8,4.8,2.15,4.8,4.8,4.8,4.8-2.15,4.8-4.8"/>
      <path class="cls-4" d="M573.89,353.32c0-3.21-2.6-5.81-5.81-5.81s-5.81,2.6-5.81,5.81,2.6,5.81,5.81,5.81,5.81-2.6,5.81-5.81"/>
      <path class="cls-4" d="M575.11,368.38c0-3.88-3.15-7.03-7.03-7.03s-7.03,3.15-7.03,7.03,3.15,7.03,7.03,7.03,7.03-3.15,7.03-7.03"/>
      <path class="cls-4" d="M576.59,382.93c0-4.69-3.81-8.5-8.5-8.5s-8.5,3.81-8.5,8.5,3.81,8.5,8.5,8.5,8.5-3.81,8.5-8.5"/>
      <path class="cls-4" d="M555.67,323.21c0-2.19-1.78-3.97-3.97-3.97s-3.97,1.78-3.97,3.97,1.78,3.97,3.97,3.97,3.97-1.78,3.97-3.97"/>
      <path class="cls-4" d="M556.5,338.27c0-2.65-2.15-4.8-4.8-4.8s-4.8,2.15-4.8,4.8,2.15,4.8,4.8,4.8,4.8-2.15,4.8-4.8"/>
      <path class="cls-4" d="M557.51,353.32c0-3.21-2.6-5.81-5.81-5.81s-5.81,2.6-5.81,5.81,2.6,5.81,5.81,5.81,5.81-2.6,5.81-5.81"/>
      <path class="cls-4" d="M558.73,368.38c0-3.88-3.15-7.03-7.03-7.03s-7.03,3.15-7.03,7.03,3.15,7.03,7.03,7.03,7.03-3.15,7.03-7.03"/>
      <path class="cls-4" d="M560.2,382.93c0-4.69-3.81-8.5-8.5-8.5s-8.5,3.81-8.5,8.5,3.81,8.5,8.5,8.5,8.5-3.81,8.5-8.5"/>
      <path class="cls-4" d="M588.07,323.21c0-1.99-1.61-3.61-3.6-3.61s-3.61,1.61-3.61,3.61,1.61,3.61,3.61,3.61,3.6-1.61,3.6-3.61"/>
      <path class="cls-4" d="M589.26,338.27c0-2.65-2.15-4.8-4.8-4.8s-4.8,2.15-4.8,4.8,2.15,4.8,4.8,4.8,4.8-2.15,4.8-4.8"/>
      <path class="cls-4" d="M590.27,353.32c0-3.21-2.6-5.81-5.81-5.81s-5.81,2.6-5.81,5.81,2.6,5.81,5.81,5.81,5.81-2.6,5.81-5.81"/>
      <path class="cls-4" d="M591.49,368.38c0-3.88-3.15-7.03-7.03-7.03s-7.03,3.15-7.03,7.03,3.15,7.03,7.03,7.03,7.03-3.15,7.03-7.03"/>
      <path class="cls-4" d="M592.97,382.93c0-4.69-3.81-8.5-8.5-8.5s-8.5,3.81-8.5,8.5,3.81,8.5,8.5,8.5,8.5-3.81,8.5-8.5"/>
      <path class="cls-4" d="M604.45,323.21c0-1.99-1.61-3.61-3.6-3.61s-3.61,1.61-3.61,3.61,1.61,3.61,3.61,3.61,3.6-1.61,3.6-3.61"/>
      <path class="cls-4" d="M605.65,338.27c0-2.65-2.15-4.8-4.8-4.8s-4.8,2.15-4.8,4.8,2.15,4.8,4.8,4.8,4.8-2.15,4.8-4.8"/>
      <path class="cls-4" d="M606.66,353.32c0-3.21-2.6-5.81-5.81-5.81s-5.81,2.6-5.81,5.81,2.6,5.81,5.81,5.81,5.81-2.6,5.81-5.81"/>
      <path class="cls-4" d="M607.87,368.38c0-3.88-3.15-7.03-7.03-7.03s-7.03,3.15-7.03,7.03,3.15,7.03,7.03,7.03,7.03-3.15,7.03-7.03"/>
      <path class="cls-4" d="M609.35,382.93c0-4.69-3.81-8.5-8.5-8.5s-8.5,3.81-8.5,8.5,3.81,8.5,8.5,8.5,8.5-3.81,8.5-8.5"/>
      <path class="cls-4" d="M578.79,315.7c0-1.39-1.12-2.51-2.51-2.51s-2.51,1.12-2.51,2.51,1.12,2.51,2.51,2.51,2.51-1.12,2.51-2.51"/>
      <path class="cls-4" d="M580.32,330.75c0-2.24-1.81-4.05-4.05-4.05s-4.05,1.81-4.05,4.05,1.81,4.05,4.05,4.05,4.05-1.81,4.05-4.05"/>
      <path class="cls-4" d="M581.17,345.8c0-2.7-2.19-4.9-4.9-4.9s-4.9,2.19-4.9,4.9,2.19,4.9,4.9,4.9,4.9-2.19,4.9-4.9"/>
      <path class="cls-4" d="M582.79,360.85c0-3.6-2.92-6.52-6.52-6.52s-6.52,2.92-6.52,6.52,2.92,6.52,6.52,6.52,6.52-2.92,6.52-6.52"/>
      <path class="cls-4" d="M584.16,375.9c0-4.35-3.53-7.89-7.89-7.89s-7.89,3.53-7.89,7.89,3.53,7.89,7.89,7.89,7.89-3.53,7.89-7.89"/>
      <path class="cls-4" d="M577.91,300.64c0-.9-.73-1.63-1.63-1.63s-1.63.73-1.63,1.63.73,1.63,1.63,1.63,1.63-.73,1.63-1.63"/>
      <path class="cls-4" d="M577.35,285.59c0-.59-.48-1.07-1.07-1.07s-1.07.48-1.07,1.07.48,1.07,1.07,1.07,1.07-.48,1.07-1.07"/>
      <path class="cls-4" d="M570.12,308.17c0-1.12-.91-2.04-2.03-2.04s-2.04.91-2.04,2.04.91,2.04,2.04,2.04,2.03-.91,2.03-2.04"/>
      <path class="cls-4" d="M569.42,293.12c0-.74-.6-1.34-1.34-1.34s-1.33.6-1.33,1.34.6,1.34,1.33,1.34,1.34-.6,1.34-1.34"/>
      <path class="cls-4" d="M568.96,278.07c0-.48-.39-.88-.88-.88s-.88.39-.88.88.39.88.88.88.88-.39.88-.88"/>
      <path class="cls-4" d="M553.74,308.17c0-1.12-.91-2.04-2.03-2.04s-2.04.91-2.04,2.04.91,2.04,2.04,2.04,2.03-.91,2.03-2.04"/>
      <path class="cls-4" d="M586.5,308.17c0-1.12-.91-2.04-2.03-2.04s-2.04.91-2.04,2.04.91,2.04,2.04,2.04,2.03-.91,2.03-2.04"/>
      <path class="cls-4" d="M585.8,293.12c0-.74-.6-1.34-1.34-1.34s-1.34.6-1.34,1.34.6,1.34,1.34,1.34,1.34-.6,1.34-1.34"/>
      <path class="cls-4" d="M585.34,278.07c0-.48-.39-.88-.88-.88s-.88.39-.88.88.39.88.88.88.88-.39.88-.88"/>
      <path class="cls-4" d="M553.04,293.12c0-.74-.6-1.34-1.34-1.34s-1.33.6-1.33,1.34.6,1.34,1.33,1.34,1.34-.6,1.34-1.34"/>
      <path class="cls-4" d="M552.58,278.07c0-.48-.39-.88-.88-.88s-.88.39-.88.88.39.88.88.88.88-.39.88-.88"/>
      <path class="cls-4" d="M602.18,293.12c0-.74-.6-1.34-1.34-1.34s-1.33.6-1.33,1.34.6,1.34,1.33,1.34,1.34-.6,1.34-1.34"/>
      <path class="cls-4" d="M601.72,278.07c0-.48-.39-.88-.88-.88s-.88.39-.88.88.39.88.88.88.88-.39.88-.88"/>
      <path class="cls-4" d="M602.88,308.17c0-1.12-.91-2.04-2.03-2.04s-2.04.91-2.04,2.04.91,2.04,2.04,2.04,2.03-.91,2.03-2.04"/>
      <path class="cls-4" d="M595.17,315.7c0-1.39-1.12-2.51-2.51-2.51s-2.51,1.12-2.51,2.51,1.12,2.51,2.51,2.51,2.51-1.12,2.51-2.51"/>
      <path class="cls-4" d="M596.66,330.75c0-2.21-1.79-4.01-4.01-4.01s-4.01,1.79-4.01,4.01,1.79,4.01,4.01,4.01,4.01-1.79,4.01-4.01"/>
      <path class="cls-4" d="M597.5,345.8c0-2.68-2.17-4.85-4.85-4.85s-4.85,2.17-4.85,4.85,2.17,4.85,4.85,4.85,4.85-2.17,4.85-4.85"/>
      <path class="cls-4" d="M599.11,360.85c0-3.56-2.89-6.45-6.45-6.45s-6.45,2.89-6.45,6.45,2.89,6.45,6.45,6.45,6.45-2.89,6.45-6.45"/>
      <path class="cls-4" d="M600.46,375.9c0-4.31-3.49-7.81-7.81-7.81s-7.81,3.49-7.81,7.81,3.49,7.81,7.81,7.81,7.81-3.49,7.81-7.81"/>
      <path class="cls-4" d="M594.29,300.64c0-.9-.73-1.63-1.63-1.63s-1.63.73-1.63,1.63.73,1.63,1.63,1.63,1.63-.73,1.63-1.63"/>
      <path class="cls-4" d="M593.73,285.59c0-.59-.48-1.07-1.07-1.07s-1.07.48-1.07,1.07.48,1.07,1.07,1.07,1.07-.48,1.07-1.07"/>
      <path class="cls-4" d="M611.55,315.7c0-1.39-1.12-2.51-2.51-2.51s-2.51,1.12-2.51,2.51,1.12,2.51,2.51,2.51,2.51-1.12,2.51-2.51"/>
      <path class="cls-4" d="M613.08,330.75c0-2.24-1.81-4.05-4.05-4.05s-4.05,1.81-4.05,4.05,1.81,4.05,4.05,4.05,4.05-1.81,4.05-4.05"/>
      <path class="cls-4" d="M613.93,345.8c0-2.7-2.19-4.9-4.9-4.9s-4.9,2.19-4.9,4.9,2.19,4.9,4.9,4.9,4.9-2.19,4.9-4.9"/>
      <path class="cls-4" d="M615.55,360.85c0-3.6-2.92-6.52-6.52-6.52s-6.52,2.92-6.52,6.52,2.92,6.52,6.52,6.52,6.52-2.92,6.52-6.52"/>
      <path class="cls-4" d="M616.92,375.9c0-4.35-3.53-7.89-7.89-7.89s-7.89,3.53-7.89,7.89,3.53,7.89,7.89,7.89,7.89-3.53,7.89-7.89"/>
      <path class="cls-4" d="M610.68,300.64c0-.91-.74-1.65-1.65-1.65s-1.65.74-1.65,1.65.74,1.65,1.65,1.65,1.65-.74,1.65-1.65"/>
      <path class="cls-4" d="M610.01,285.59c0-.54-.44-.97-.97-.97s-.97.44-.97.97.44.97.97.97.97-.44.97-.97"/>
      <path class="cls-4" d="M620.83,323.21c0-1.99-1.61-3.61-3.6-3.61s-3.61,1.61-3.61,3.61,1.61,3.61,3.61,3.61,3.6-1.61,3.6-3.61"/>
      <path class="cls-4" d="M622.03,338.27c0-2.65-2.15-4.8-4.8-4.8s-4.8,2.15-4.8,4.8,2.15,4.8,4.8,4.8,4.8-2.15,4.8-4.8"/>
      <path class="cls-4" d="M623.03,353.32c0-3.21-2.6-5.81-5.81-5.81s-5.81,2.6-5.81,5.81,2.6,5.81,5.81,5.81,5.81-2.6,5.81-5.81"/>
      <path class="cls-4" d="M624.25,368.38c0-3.88-3.15-7.03-7.03-7.03s-7.03,3.15-7.03,7.03,3.15,7.03,7.03,7.03,7.03-3.15,7.03-7.03"/>
      <path class="cls-4" d="M625.73,382.93c0-4.69-3.81-8.5-8.5-8.5s-8.5,3.81-8.5,8.5,3.81,8.5,8.5,8.5,8.5-3.81,8.5-8.5"/>
      <path class="cls-4" d="M605.64,338.27c0-2.65-2.15-4.8-4.8-4.8s-4.8,2.15-4.8,4.8,2.15,4.8,4.8,4.8,4.8-2.15,4.8-4.8"/>
      <path class="cls-4" d="M606.65,353.32c0-3.21-2.6-5.81-5.81-5.81s-5.81,2.6-5.81,5.81,2.6,5.81,5.81,5.81,5.81-2.6,5.81-5.81"/>
      <path class="cls-4" d="M607.87,368.38c0-3.88-3.15-7.03-7.03-7.03s-7.03,3.15-7.03,7.03,3.15,7.03,7.03,7.03,7.03-3.15,7.03-7.03"/>
      <path class="cls-4" d="M609.35,382.93c0-4.69-3.81-8.5-8.5-8.5s-8.5,3.81-8.5,8.5,3.81,8.5,8.5,8.5,8.5-3.81,8.5-8.5"/>
      <path class="cls-4" d="M619.26,308.17c0-1.12-.91-2.04-2.03-2.04s-2.04.91-2.04,2.04.91,2.04,2.04,2.04,2.03-.91,2.03-2.04"/>
      <path class="cls-4" d="M618.56,293.12c0-.74-.6-1.34-1.34-1.34s-1.33.6-1.33,1.34.6,1.34,1.33,1.34,1.34-.6,1.34-1.34"/>
      <path class="cls-4" d="M602.88,308.17c0-1.12-.91-2.04-2.03-2.04s-2.04.91-2.04,2.04.91,2.04,2.04,2.04,2.03-.91,2.03-2.04"/>
      <path class="cls-4" d="M602.18,293.12c0-.74-.6-1.34-1.34-1.34s-1.33.6-1.33,1.34.6,1.34,1.33,1.34,1.34-.6,1.34-1.34"/>
      <path class="cls-4" d="M601.72,278.07c0-.48-.39-.88-.88-.88s-.88.39-.88.88.39.88.88.88.88-.39.88-.88"/>
      <path class="cls-4" d="M365.81,315.7c0-1.39-1.12-2.51-2.51-2.51s-2.51,1.12-2.51,2.51,1.12,2.51,2.51,2.51,2.51-1.12,2.51-2.51"/>
      <path class="cls-4" d="M367.35,330.75c0-2.24-1.81-4.05-4.05-4.05s-4.05,1.81-4.05,4.05,1.81,4.05,4.05,4.05,4.05-1.81,4.05-4.05"/>
      <path class="cls-4" d="M368.2,345.8c0-2.7-2.19-4.9-4.9-4.9s-4.9,2.19-4.9,4.9,2.19,4.9,4.9,4.9,4.9-2.19,4.9-4.9"/>
      <path class="cls-4" d="M369.82,360.85c0-3.6-2.92-6.52-6.52-6.52s-6.52,2.92-6.52,6.52,2.92,6.52,6.52,6.52,6.52-2.92,6.52-6.52"/>
      <path class="cls-4" d="M371.19,375.9c0-4.35-3.53-7.89-7.89-7.89s-7.89,3.53-7.89,7.89,3.53,7.89,7.89,7.89,7.89-3.53,7.89-7.89"/>
      <path class="cls-4" d="M364.95,300.64c0-.91-.74-1.65-1.65-1.65s-1.65.74-1.65,1.65.74,1.65,1.65,1.65,1.65-.74,1.65-1.65"/>
      <path class="cls-4" d="M364.27,285.59c0-.54-.44-.97-.97-.97s-.97.44-.97.97.44.97.97.97.97-.44.97-.97"/>
      <path class="cls-4" d="M375.1,323.21c0-1.99-1.61-3.61-3.61-3.61s-3.61,1.61-3.61,3.61,1.61,3.61,3.61,3.61,3.61-1.61,3.61-3.61"/>
      <path class="cls-4" d="M376.29,338.27c0-2.65-2.15-4.8-4.8-4.8s-4.8,2.15-4.8,4.8,2.15,4.8,4.8,4.8,4.8-2.15,4.8-4.8"/>
      <path class="cls-4" d="M377.3,353.32c0-3.21-2.6-5.81-5.81-5.81s-5.81,2.6-5.81,5.81,2.6,5.81,5.81,5.81,5.81-2.6,5.81-5.81"/>
      <path class="cls-4" d="M378.52,368.38c0-3.88-3.15-7.03-7.03-7.03s-7.03,3.15-7.03,7.03,3.15,7.03,7.03,7.03,7.03-3.15,7.03-7.03"/>
      <path class="cls-4" d="M379.99,382.93c0-4.69-3.81-8.5-8.5-8.5s-8.5,3.81-8.5,8.5,3.81,8.5,8.5,8.5,8.5-3.81,8.5-8.5"/>
      <path class="cls-4" d="M359.07,323.21c0-2.19-1.78-3.97-3.97-3.97s-3.97,1.78-3.97,3.97,1.78,3.97,3.97,3.97,3.97-1.78,3.97-3.97"/>
      <path class="cls-4" d="M359.91,338.27c0-2.65-2.15-4.8-4.8-4.8s-4.8,2.15-4.8,4.8,2.15,4.8,4.8,4.8,4.8-2.15,4.8-4.8"/>
      <path class="cls-4" d="M360.92,353.32c0-3.21-2.6-5.81-5.81-5.81s-5.81,2.6-5.81,5.81,2.6,5.81,5.81,5.81,5.81-2.6,5.81-5.81"/>
      <path class="cls-4" d="M362.13,368.38c0-3.88-3.15-7.03-7.03-7.03s-7.03,3.15-7.03,7.03,3.15,7.03,7.03,7.03,7.03-3.15,7.03-7.03"/>
      <path class="cls-4" d="M363.61,382.93c0-4.69-3.81-8.5-8.5-8.5s-8.5,3.81-8.5,8.5,3.81,8.5,8.5,8.5,8.5-3.81,8.5-8.5"/>
      <path class="cls-4" d="M391.48,323.21c0-1.99-1.61-3.61-3.61-3.61s-3.61,1.61-3.61,3.61,1.61,3.61,3.61,3.61,3.61-1.61,3.61-3.61"/>
      <path class="cls-4" d="M392.67,338.27c0-2.65-2.15-4.8-4.8-4.8s-4.8,2.15-4.8,4.8,2.15,4.8,4.8,4.8,4.8-2.15,4.8-4.8"/>
      <path class="cls-4" d="M393.68,353.32c0-3.21-2.6-5.81-5.81-5.81s-5.81,2.6-5.81,5.81,2.6,5.81,5.81,5.81,5.81-2.6,5.81-5.81"/>
      <path class="cls-4" d="M394.9,368.38c0-3.88-3.15-7.03-7.03-7.03s-7.03,3.15-7.03,7.03,3.15,7.03,7.03,7.03,7.03-3.15,7.03-7.03"/>
      <path class="cls-4" d="M396.38,382.93c0-4.69-3.81-8.5-8.5-8.5s-8.5,3.81-8.5,8.5,3.81,8.5,8.5,8.5,8.5-3.81,8.5-8.5"/>
      <path class="cls-4" d="M407.86,323.21c0-1.99-1.61-3.61-3.61-3.61s-3.61,1.61-3.61,3.61,1.61,3.61,3.61,3.61,3.61-1.61,3.61-3.61"/>
      <path class="cls-4" d="M409.06,338.27c0-2.65-2.15-4.8-4.8-4.8s-4.8,2.15-4.8,4.8,2.15,4.8,4.8,4.8,4.8-2.15,4.8-4.8"/>
      <path class="cls-4" d="M410.06,353.32c0-3.21-2.6-5.81-5.81-5.81s-5.81,2.6-5.81,5.81,2.6,5.81,5.81,5.81,5.81-2.6,5.81-5.81"/>
      <path class="cls-4" d="M411.28,368.38c0-3.88-3.15-7.03-7.03-7.03s-7.03,3.15-7.03,7.03,3.15,7.03,7.03,7.03,7.03-3.15,7.03-7.03"/>
      <path class="cls-4" d="M412.76,382.93c0-4.69-3.81-8.5-8.5-8.5s-8.5,3.81-8.5,8.5,3.81,8.5,8.5,8.5,8.5-3.81,8.5-8.5"/>
      <path class="cls-4" d="M382.2,315.7c0-1.39-1.12-2.51-2.51-2.51s-2.51,1.12-2.51,2.51,1.12,2.51,2.51,2.51,2.51-1.12,2.51-2.51"/>
      <path class="cls-4" d="M383.73,330.75c0-2.24-1.81-4.05-4.05-4.05s-4.05,1.81-4.05,4.05,1.81,4.05,4.05,4.05,4.05-1.81,4.05-4.05"/>
      <path class="cls-4" d="M384.58,345.8c0-2.7-2.19-4.9-4.9-4.9s-4.9,2.19-4.9,4.9,2.19,4.9,4.9,4.9,4.9-2.19,4.9-4.9"/>
      <path class="cls-4" d="M386.2,360.85c0-3.6-2.92-6.52-6.52-6.52s-6.52,2.92-6.52,6.52,2.92,6.52,6.52,6.52,6.52-2.92,6.52-6.52"/>
      <path class="cls-4" d="M387.57,375.9c0-4.35-3.53-7.89-7.89-7.89s-7.89,3.53-7.89,7.89,3.53,7.89,7.89,7.89,7.89-3.53,7.89-7.89"/>
      <path class="cls-4" d="M381.31,300.64c0-.9-.73-1.63-1.63-1.63s-1.63.73-1.63,1.63.73,1.63,1.63,1.63,1.63-.73,1.63-1.63"/>
      <path class="cls-4" d="M380.75,285.59c0-.59-.48-1.07-1.07-1.07s-1.07.48-1.07,1.07.48,1.07,1.07,1.07,1.07-.48,1.07-1.07"/>
      <path class="cls-4" d="M373.53,308.17c0-1.12-.91-2.04-2.04-2.04s-2.04.91-2.04,2.04.91,2.04,2.04,2.04,2.04-.91,2.04-2.04"/>
      <path class="cls-4" d="M372.83,293.12c0-.74-.6-1.34-1.33-1.34s-1.34.6-1.34,1.34.6,1.34,1.34,1.34,1.33-.6,1.33-1.34"/>
      <path class="cls-4" d="M372.37,278.07c0-.48-.39-.88-.88-.88s-.88.39-.88.88.39.88.88.88.88-.39.88-.88"/>
      <path class="cls-4" d="M357.14,308.17c0-1.12-.91-2.04-2.04-2.04s-2.04.91-2.04,2.04.91,2.04,2.04,2.04,2.04-.91,2.04-2.04"/>
      <path class="cls-4" d="M389.91,308.17c0-1.12-.91-2.04-2.04-2.04s-2.04.91-2.04,2.04.91,2.04,2.04,2.04,2.04-.91,2.04-2.04"/>
      <path class="cls-4" d="M389.21,293.12c0-.74-.6-1.34-1.33-1.34s-1.34.6-1.34,1.34.6,1.34,1.34,1.34,1.33-.6,1.33-1.34"/>
      <path class="cls-4" d="M388.75,278.07c0-.48-.39-.88-.88-.88s-.88.39-.88.88.39.88.88.88.88-.39.88-.88"/>
      <path class="cls-4" d="M356.44,293.12c0-.74-.6-1.34-1.33-1.34s-1.34.6-1.34,1.34.6,1.34,1.34,1.34,1.33-.6,1.33-1.34"/>
      <path class="cls-4" d="M355.98,278.07c0-.48-.39-.88-.88-.88s-.88.39-.88.88.39.88.88.88.88-.39.88-.88"/>
      <path class="cls-4" d="M405.59,293.12c0-.74-.6-1.34-1.33-1.34s-1.34.6-1.34,1.34.6,1.34,1.34,1.34,1.33-.6,1.33-1.34"/>
      <path class="cls-4" d="M405.13,278.07c0-.48-.39-.88-.88-.88s-.88.39-.88.88.39.88.88.88.88-.39.88-.88"/>
      <path class="cls-4" d="M406.29,308.17c0-1.12-.91-2.04-2.04-2.04s-2.04.91-2.04,2.04.91,2.04,2.04,2.04,2.04-.91,2.04-2.04"/>
      <path class="cls-4" d="M398.58,315.7c0-1.39-1.12-2.51-2.51-2.51s-2.51,1.12-2.51,2.51,1.12,2.51,2.51,2.51,2.51-1.12,2.51-2.51"/>
      <path class="cls-4" d="M400.07,330.75c0-2.21-1.79-4.01-4.01-4.01s-4.01,1.79-4.01,4.01,1.79,4.01,4.01,4.01,4.01-1.79,4.01-4.01"/>
      <path class="cls-4" d="M400.91,345.8c0-2.68-2.17-4.85-4.85-4.85s-4.85,2.17-4.85,4.85,2.17,4.85,4.85,4.85,4.85-2.17,4.85-4.85"/>
      <path class="cls-4" d="M402.52,360.85c0-3.56-2.89-6.45-6.45-6.45s-6.45,2.89-6.45,6.45,2.89,6.45,6.45,6.45,6.45-2.89,6.45-6.45"/>
      <path class="cls-4" d="M403.87,375.9c0-4.31-3.49-7.81-7.81-7.81s-7.81,3.49-7.81,7.81,3.49,7.81,7.81,7.81,7.81-3.49,7.81-7.81"/>
      <path class="cls-4" d="M397.7,300.64c0-.9-.73-1.63-1.63-1.63s-1.63.73-1.63,1.63.73,1.63,1.63,1.63,1.63-.73,1.63-1.63"/>
      <path class="cls-4" d="M397.14,285.59c0-.59-.48-1.07-1.07-1.07s-1.07.48-1.07,1.07.48,1.07,1.07,1.07,1.07-.48,1.07-1.07"/>
      <path class="cls-4" d="M414.96,315.7c0-1.39-1.12-2.51-2.51-2.51s-2.51,1.12-2.51,2.51,1.12,2.51,2.51,2.51,2.51-1.12,2.51-2.51"/>
      <path class="cls-4" d="M416.49,330.75c0-2.24-1.81-4.05-4.05-4.05s-4.05,1.81-4.05,4.05,1.81,4.05,4.05,4.05,4.05-1.81,4.05-4.05"/>
      <path class="cls-4" d="M417.34,345.8c0-2.7-2.19-4.9-4.9-4.9s-4.9,2.19-4.9,4.9,2.19,4.9,4.9,4.9,4.9-2.19,4.9-4.9"/>
      <path class="cls-4" d="M418.96,360.85c0-3.6-2.92-6.52-6.52-6.52s-6.52,2.92-6.52,6.52,2.92,6.52,6.52,6.52,6.52-2.92,6.52-6.52"/>
      <path class="cls-4" d="M420.33,375.9c0-4.35-3.53-7.89-7.89-7.89s-7.89,3.53-7.89,7.89,3.53,7.89,7.89,7.89,7.89-3.53,7.89-7.89"/>
      <path class="cls-4" d="M414.09,300.64c0-.91-.74-1.65-1.65-1.65s-1.65.74-1.65,1.65.74,1.65,1.65,1.65,1.65-.74,1.65-1.65"/>
      <path class="cls-4" d="M413.42,285.59c0-.54-.44-.97-.97-.97s-.97.44-.97.97.44.97.97.97.97-.44.97-.97"/>
      <path class="cls-4" d="M424.24,323.21c0-1.99-1.61-3.61-3.61-3.61s-3.61,1.61-3.61,3.61,1.61,3.61,3.61,3.61,3.61-1.61,3.61-3.61"/>
      <path class="cls-4" d="M425.43,338.27c0-2.65-2.15-4.8-4.8-4.8s-4.8,2.15-4.8,4.8,2.15,4.8,4.8,4.8,4.8-2.15,4.8-4.8"/>
      <path class="cls-4" d="M426.44,353.32c0-3.21-2.6-5.81-5.81-5.81s-5.81,2.6-5.81,5.81,2.6,5.81,5.81,5.81,5.81-2.6,5.81-5.81"/>
      <path class="cls-4" d="M427.66,368.38c0-3.88-3.15-7.03-7.03-7.03s-7.03,3.15-7.03,7.03,3.15,7.03,7.03,7.03,7.03-3.15,7.03-7.03"/>
      <path class="cls-4" d="M429.14,382.93c0-4.69-3.81-8.5-8.5-8.5s-8.5,3.81-8.5,8.5,3.81,8.5,8.5,8.5,8.5-3.81,8.5-8.5"/>
      <path class="cls-4" d="M409.05,338.27c0-2.65-2.15-4.8-4.8-4.8s-4.8,2.15-4.8,4.8,2.15,4.8,4.8,4.8,4.8-2.15,4.8-4.8"/>
      <path class="cls-4" d="M410.06,353.32c0-3.21-2.6-5.81-5.81-5.81s-5.81,2.6-5.81,5.81,2.6,5.81,5.81,5.81,5.81-2.6,5.81-5.81"/>
      <path class="cls-4" d="M411.28,368.38c0-3.88-3.15-7.03-7.03-7.03s-7.03,3.15-7.03,7.03,3.15,7.03,7.03,7.03,7.03-3.15,7.03-7.03"/>
      <path class="cls-4" d="M412.75,382.93c0-4.69-3.81-8.5-8.5-8.5s-8.5,3.81-8.5,8.5,3.81,8.5,8.5,8.5,8.5-3.81,8.5-8.5"/>
      <path class="cls-4" d="M440.62,323.21c0-1.99-1.61-3.61-3.61-3.61s-3.61,1.61-3.61,3.61,1.61,3.61,3.61,3.61,3.61-1.61,3.61-3.61"/>
      <path class="cls-4" d="M441.82,338.27c0-2.65-2.15-4.8-4.8-4.8s-4.8,2.15-4.8,4.8,2.15,4.8,4.8,4.8,4.8-2.15,4.8-4.8"/>
      <path class="cls-4" d="M442.82,353.32c0-3.21-2.6-5.81-5.81-5.81s-5.81,2.6-5.81,5.81,2.6,5.81,5.81,5.81,5.81-2.6,5.81-5.81"/>
      <path class="cls-4" d="M444.04,368.38c0-3.88-3.15-7.03-7.03-7.03s-7.03,3.15-7.03,7.03,3.15,7.03,7.03,7.03,7.03-3.15,7.03-7.03"/>
      <path class="cls-4" d="M445.52,382.93c0-4.69-3.81-8.5-8.5-8.5s-8.5,3.81-8.5,8.5,3.81,8.5,8.5,8.5,8.5-3.81,8.5-8.5"/>
      <path class="cls-4" d="M457.01,323.21c0-1.99-1.61-3.61-3.61-3.61s-3.61,1.61-3.61,3.61,1.61,3.61,3.61,3.61,3.61-1.61,3.61-3.61"/>
      <path class="cls-4" d="M458.2,338.27c0-2.65-2.15-4.8-4.8-4.8s-4.8,2.15-4.8,4.8,2.15,4.8,4.8,4.8,4.8-2.15,4.8-4.8"/>
      <path class="cls-4" d="M459.21,353.32c0-3.21-2.6-5.81-5.81-5.81s-5.81,2.6-5.81,5.81,2.6,5.81,5.81,5.81,5.81-2.6,5.81-5.81"/>
      <path class="cls-4" d="M460.43,368.38c0-3.88-3.15-7.03-7.03-7.03s-7.03,3.15-7.03,7.03,3.15,7.03,7.03,7.03,7.03-3.15,7.03-7.03"/>
      <path class="cls-4" d="M461.9,382.93c0-4.69-3.81-8.5-8.5-8.5s-8.5,3.81-8.5,8.5,3.81,8.5,8.5,8.5,8.5-3.81,8.5-8.5"/>
      <path class="cls-4" d="M431.34,315.7c0-1.39-1.12-2.51-2.51-2.51s-2.51,1.12-2.51,2.51,1.12,2.51,2.51,2.51,2.51-1.12,2.51-2.51"/>
      <path class="cls-4" d="M432.87,330.75c0-2.24-1.81-4.05-4.05-4.05s-4.05,1.81-4.05,4.05,1.81,4.05,4.05,4.05,4.05-1.81,4.05-4.05"/>
      <path class="cls-4" d="M433.72,345.8c0-2.7-2.19-4.9-4.9-4.9s-4.9,2.19-4.9,4.9,2.19,4.9,4.9,4.9,4.9-2.19,4.9-4.9"/>
      <path class="cls-4" d="M435.34,360.85c0-3.6-2.92-6.52-6.52-6.52s-6.52,2.92-6.52,6.52,2.92,6.52,6.52,6.52,6.52-2.92,6.52-6.52"/>
      <path class="cls-4" d="M436.71,375.9c0-4.35-3.53-7.89-7.89-7.89s-7.89,3.53-7.89,7.89,3.53,7.89,7.89,7.89,7.89-3.53,7.89-7.89"/>
      <path class="cls-4" d="M430.46,300.64c0-.9-.73-1.63-1.63-1.63s-1.63.73-1.63,1.63.73,1.63,1.63,1.63,1.63-.73,1.63-1.63"/>
      <path class="cls-4" d="M429.9,285.59c0-.59-.48-1.07-1.07-1.07s-1.07.48-1.07,1.07.48,1.07,1.07,1.07,1.07-.48,1.07-1.07"/>
      <path class="cls-4" d="M422.67,308.17c0-1.12-.91-2.04-2.04-2.04s-2.04.91-2.04,2.04.91,2.04,2.04,2.04,2.04-.91,2.04-2.04"/>
      <path class="cls-4" d="M421.97,293.12c0-.74-.6-1.34-1.33-1.34s-1.34.6-1.34,1.34.6,1.34,1.34,1.34,1.33-.6,1.33-1.34"/>
      <path class="cls-4" d="M421.51,278.07c0-.48-.39-.88-.88-.88s-.88.39-.88.88.39.88.88.88.88-.39.88-.88"/>
      <path class="cls-4" d="M406.29,308.17c0-1.12-.91-2.04-2.04-2.04s-2.04.91-2.04,2.04.91,2.04,2.04,2.04,2.04-.91,2.04-2.04"/>
      <path class="cls-4" d="M439.05,308.17c0-1.12-.91-2.04-2.04-2.04s-2.04.91-2.04,2.04.91,2.04,2.04,2.04,2.04-.91,2.04-2.04"/>
      <path class="cls-4" d="M438.35,293.12c0-.74-.6-1.34-1.33-1.34s-1.34.6-1.34,1.34.6,1.34,1.34,1.34,1.33-.6,1.33-1.34"/>
      <path class="cls-4" d="M437.89,278.07c0-.48-.39-.88-.88-.88s-.88.39-.88.88.39.88.88.88.88-.39.88-.88"/>
      <path class="cls-4" d="M405.59,293.12c0-.74-.6-1.34-1.33-1.34s-1.34.6-1.34,1.34.6,1.34,1.34,1.34,1.33-.6,1.33-1.34"/>
      <path class="cls-4" d="M405.13,278.07c0-.48-.39-.88-.88-.88s-.88.39-.88.88.39.88.88.88.88-.39.88-.88"/>
      <path class="cls-4" d="M454.74,293.12c0-.74-.6-1.34-1.33-1.34s-1.34.6-1.34,1.34.6,1.34,1.34,1.34,1.33-.6,1.33-1.34"/>
      <path class="cls-4" d="M454.28,278.07c0-.48-.39-.88-.88-.88s-.88.39-.88.88.39.88.88.88.88-.39.88-.88"/>
      <path class="cls-4" d="M455.44,308.17c0-1.12-.91-2.04-2.04-2.04s-2.04.91-2.04,2.04.91,2.04,2.04,2.04,2.04-.91,2.04-2.04"/>
      <path class="cls-4" d="M447.72,315.7c0-1.39-1.12-2.51-2.51-2.51s-2.51,1.12-2.51,2.51,1.12,2.51,2.51,2.51,2.51-1.12,2.51-2.51"/>
      <path class="cls-4" d="M449.21,330.75c0-2.21-1.79-4.01-4.01-4.01s-4.01,1.79-4.01,4.01,1.79,4.01,4.01,4.01,4.01-1.79,4.01-4.01"/>
      <path class="cls-4" d="M450.06,345.8c0-2.68-2.17-4.85-4.85-4.85s-4.85,2.17-4.85,4.85,2.17,4.85,4.85,4.85,4.85-2.17,4.85-4.85"/>
      <path class="cls-4" d="M451.66,360.85c0-3.56-2.89-6.45-6.45-6.45s-6.45,2.89-6.45,6.45,2.89,6.45,6.45,6.45,6.45-2.89,6.45-6.45"/>
      <path class="cls-4" d="M453.02,375.9c0-4.31-3.49-7.81-7.81-7.81s-7.81,3.49-7.81,7.81,3.49,7.81,7.81,7.81,7.81-3.49,7.81-7.81"/>
      <path class="cls-4" d="M446.84,300.64c0-.9-.73-1.63-1.63-1.63s-1.63.73-1.63,1.63.73,1.63,1.63,1.63,1.63-.73,1.63-1.63"/>
      <path class="cls-4" d="M446.28,285.59c0-.59-.48-1.07-1.07-1.07s-1.07.48-1.07,1.07.48,1.07,1.07,1.07,1.07-.48,1.07-1.07"/>
      <path class="cls-4" d="M464.11,315.7c0-1.39-1.12-2.51-2.51-2.51s-2.51,1.12-2.51,2.51,1.12,2.51,2.51,2.51,2.51-1.12,2.51-2.51"/>
      <path class="cls-4" d="M465.64,330.75c0-2.24-1.81-4.05-4.05-4.05s-4.05,1.81-4.05,4.05,1.81,4.05,4.05,4.05,4.05-1.81,4.05-4.05"/>
      <path class="cls-4" d="M466.49,345.8c0-2.7-2.19-4.9-4.9-4.9s-4.9,2.19-4.9,4.9,2.19,4.9,4.9,4.9,4.9-2.19,4.9-4.9"/>
      <path class="cls-4" d="M468.11,360.85c0-3.6-2.92-6.52-6.52-6.52s-6.52,2.92-6.52,6.52,2.92,6.52,6.52,6.52,6.52-2.92,6.52-6.52"/>
      <path class="cls-4" d="M469.48,375.9c0-4.35-3.53-7.89-7.89-7.89s-7.89,3.53-7.89,7.89,3.53,7.89,7.89,7.89,7.89-3.53,7.89-7.89"/>
      <path class="cls-4" d="M463.24,300.64c0-.91-.74-1.65-1.65-1.65s-1.65.74-1.65,1.65.74,1.65,1.65,1.65,1.65-.74,1.65-1.65"/>
      <path class="cls-4" d="M462.57,285.59c0-.54-.44-.97-.97-.97s-.97.44-.97.97.44.97.97.97.97-.44.97-.97"/>
      <path class="cls-4" d="M473.39,323.21c0-1.99-1.61-3.61-3.61-3.61s-3.61,1.61-3.61,3.61,1.61,3.61,3.61,3.61,3.61-1.61,3.61-3.61"/>
      <path class="cls-4" d="M474.58,338.27c0-2.65-2.15-4.8-4.8-4.8s-4.8,2.15-4.8,4.8,2.15,4.8,4.8,4.8,4.8-2.15,4.8-4.8"/>
      <path class="cls-4" d="M475.59,353.32c0-3.21-2.6-5.81-5.81-5.81s-5.81,2.6-5.81,5.81,2.6,5.81,5.81,5.81,5.81-2.6,5.81-5.81"/>
      <path class="cls-4" d="M476.81,368.38c0-3.88-3.15-7.03-7.03-7.03s-7.03,3.15-7.03,7.03,3.15,7.03,7.03,7.03,7.03-3.15,7.03-7.03"/>
      <path class="cls-4" d="M478.29,382.93c0-4.69-3.81-8.5-8.5-8.5s-8.5,3.81-8.5,8.5,3.81,8.5,8.5,8.5,8.5-3.81,8.5-8.5"/>
      <path class="cls-4" d="M458.2,338.27c0-2.65-2.15-4.8-4.8-4.8s-4.8,2.15-4.8,4.8,2.15,4.8,4.8,4.8,4.8-2.15,4.8-4.8"/>
      <path class="cls-4" d="M459.21,353.32c0-3.21-2.6-5.81-5.81-5.81s-5.81,2.6-5.81,5.81,2.6,5.81,5.81,5.81,5.81-2.6,5.81-5.81"/>
      <path class="cls-4" d="M460.43,368.38c0-3.88-3.15-7.03-7.03-7.03s-7.03,3.15-7.03,7.03,3.15,7.03,7.03,7.03,7.03-3.15,7.03-7.03"/>
      <path class="cls-4" d="M461.9,382.93c0-4.69-3.81-8.5-8.5-8.5s-8.5,3.81-8.5,8.5,3.81,8.5,8.5,8.5,8.5-3.81,8.5-8.5"/>
      <path class="cls-4" d="M489.77,323.21c0-1.99-1.61-3.61-3.61-3.61s-3.61,1.61-3.61,3.61,1.61,3.61,3.61,3.61,3.61-1.61,3.61-3.61"/>
      <path class="cls-4" d="M490.97,338.27c0-2.65-2.15-4.8-4.8-4.8s-4.8,2.15-4.8,4.8,2.15,4.8,4.8,4.8,4.8-2.15,4.8-4.8"/>
      <path class="cls-4" d="M491.97,353.32c0-3.21-2.6-5.81-5.81-5.81s-5.81,2.6-5.81,5.81,2.6,5.81,5.81,5.81,5.81-2.6,5.81-5.81"/>
      <path class="cls-4" d="M493.19,368.38c0-3.88-3.15-7.03-7.03-7.03s-7.03,3.15-7.03,7.03,3.15,7.03,7.03,7.03,7.03-3.15,7.03-7.03"/>
      <path class="cls-4" d="M494.67,382.93c0-4.69-3.81-8.5-8.5-8.5s-8.5,3.81-8.5,8.5,3.81,8.5,8.5,8.5,8.5-3.81,8.5-8.5"/>
      <path class="cls-4" d="M506.15,323.21c0-1.99-1.61-3.61-3.61-3.61s-3.61,1.61-3.61,3.61,1.61,3.61,3.61,3.61,3.61-1.61,3.61-3.61"/>
      <path class="cls-4" d="M507.35,338.27c0-2.65-2.15-4.8-4.8-4.8s-4.8,2.15-4.8,4.8,2.15,4.8,4.8,4.8,4.8-2.15,4.8-4.8"/>
      <path class="cls-4" d="M508.36,353.32c0-3.21-2.6-5.81-5.81-5.81s-5.81,2.6-5.81,5.81,2.6,5.81,5.81,5.81,5.81-2.6,5.81-5.81"/>
      <path class="cls-4" d="M509.58,368.38c0-3.88-3.15-7.03-7.03-7.03s-7.03,3.15-7.03,7.03,3.15,7.03,7.03,7.03,7.03-3.15,7.03-7.03"/>
      <path class="cls-4" d="M511.05,382.93c0-4.69-3.81-8.5-8.5-8.5s-8.5,3.81-8.5,8.5,3.81,8.5,8.5,8.5,8.5-3.81,8.5-8.5"/>
      <path class="cls-4" d="M480.49,315.7c0-1.39-1.12-2.51-2.51-2.51s-2.51,1.12-2.51,2.51,1.12,2.51,2.51,2.51,2.51-1.12,2.51-2.51"/>
      <path class="cls-4" d="M482.02,330.75c0-2.24-1.81-4.05-4.05-4.05s-4.05,1.81-4.05,4.05,1.81,4.05,4.05,4.05,4.05-1.81,4.05-4.05"/>
      <path class="cls-4" d="M482.87,345.8c0-2.7-2.19-4.9-4.9-4.9s-4.9,2.19-4.9,4.9,2.19,4.9,4.9,4.9,4.9-2.19,4.9-4.9"/>
      <path class="cls-4" d="M484.49,360.85c0-3.6-2.92-6.52-6.52-6.52s-6.52,2.92-6.52,6.52,2.92,6.52,6.52,6.52,6.52-2.92,6.52-6.52"/>
      <path class="cls-4" d="M485.86,375.9c0-4.35-3.53-7.89-7.89-7.89s-7.89,3.53-7.89,7.89,3.53,7.89,7.89,7.89,7.89-3.53,7.89-7.89"/>
      <path class="cls-4" d="M479.61,300.64c0-.9-.73-1.63-1.63-1.63s-1.63.73-1.63,1.63.73,1.63,1.63,1.63,1.63-.73,1.63-1.63"/>
      <path class="cls-4" d="M479.05,285.59c0-.59-.48-1.07-1.07-1.07s-1.07.48-1.07,1.07.48,1.07,1.07,1.07,1.07-.48,1.07-1.07"/>
      <path class="cls-4" d="M471.82,308.17c0-1.12-.91-2.04-2.04-2.04s-2.04.91-2.04,2.04.91,2.04,2.04,2.04,2.04-.91,2.04-2.04"/>
      <path class="cls-4" d="M471.12,293.12c0-.74-.6-1.34-1.33-1.34s-1.34.6-1.34,1.34.6,1.34,1.34,1.34,1.33-.6,1.33-1.34"/>
      <path class="cls-4" d="M470.66,278.07c0-.48-.39-.88-.88-.88s-.88.39-.88.88.39.88.88.88.88-.39.88-.88"/>
      <path class="cls-4" d="M455.44,308.17c0-1.12-.91-2.04-2.04-2.04s-2.04.91-2.04,2.04.91,2.04,2.04,2.04,2.04-.91,2.04-2.04"/>
      <path class="cls-4" d="M488.2,308.17c0-1.12-.91-2.04-2.04-2.04s-2.04.91-2.04,2.04.91,2.04,2.04,2.04,2.04-.91,2.04-2.04"/>
      <path class="cls-4" d="M487.5,293.12c0-.74-.6-1.34-1.33-1.34s-1.34.6-1.34,1.34.6,1.34,1.34,1.34,1.33-.6,1.33-1.34"/>
      <path class="cls-4" d="M487.04,278.07c0-.48-.39-.88-.88-.88s-.88.39-.88.88.39.88.88.88.88-.39.88-.88"/>
      <path class="cls-4" d="M454.74,293.12c0-.74-.6-1.34-1.33-1.34s-1.34.6-1.34,1.34.6,1.34,1.34,1.34,1.33-.6,1.33-1.34"/>
      <path class="cls-4" d="M454.28,278.07c0-.48-.39-.88-.88-.88s-.88.39-.88.88.39.88.88.88.88-.39.88-.88"/>
      <path class="cls-4" d="M503.88,293.12c0-.74-.6-1.34-1.33-1.34s-1.34.6-1.34,1.34.6,1.34,1.34,1.34,1.33-.6,1.33-1.34"/>
      <path class="cls-4" d="M503.43,278.07c0-.48-.39-.88-.88-.88s-.88.39-.88.88.39.88.88.88.88-.39.88-.88"/>
      <path class="cls-4" d="M504.58,308.17c0-1.12-.91-2.04-2.04-2.04s-2.04.91-2.04,2.04.91,2.04,2.04,2.04,2.04-.91,2.04-2.04"/>
      <path class="cls-4" d="M496.87,315.7c0-1.39-1.12-2.51-2.51-2.51s-2.51,1.12-2.51,2.51,1.12,2.51,2.51,2.51,2.51-1.12,2.51-2.51"/>
      <path class="cls-4" d="M498.36,330.75c0-2.21-1.79-4.01-4.01-4.01s-4.01,1.79-4.01,4.01,1.79,4.01,4.01,4.01,4.01-1.79,4.01-4.01"/>
      <path class="cls-4" d="M499.21,345.8c0-2.68-2.17-4.85-4.85-4.85s-4.85,2.17-4.85,4.85,2.17,4.85,4.85,4.85,4.85-2.17,4.85-4.85"/>
      <path class="cls-4" d="M500.81,360.85c0-3.56-2.89-6.45-6.45-6.45s-6.45,2.89-6.45,6.45,2.89,6.45,6.45,6.45,6.45-2.89,6.45-6.45"/>
      <path class="cls-4" d="M502.16,375.9c0-4.31-3.49-7.81-7.81-7.81s-7.81,3.49-7.81,7.81,3.49,7.81,7.81,7.81,7.81-3.49,7.81-7.81"/>
      <path class="cls-4" d="M495.99,300.64c0-.9-.73-1.63-1.63-1.63s-1.63.73-1.63,1.63.73,1.63,1.63,1.63,1.63-.73,1.63-1.63"/>
      <path class="cls-4" d="M495.43,285.59c0-.59-.48-1.07-1.07-1.07s-1.07.48-1.07,1.07.48,1.07,1.07,1.07,1.07-.48,1.07-1.07"/>
      <path class="cls-4" d="M513.25,315.7c0-1.39-1.12-2.51-2.51-2.51s-2.51,1.12-2.51,2.51,1.12,2.51,2.51,2.51,2.51-1.12,2.51-2.51"/>
      <path class="cls-4" d="M514.78,330.75c0-2.24-1.81-4.05-4.05-4.05s-4.05,1.81-4.05,4.05,1.81,4.05,4.05,4.05,4.05-1.81,4.05-4.05"/>
      <path class="cls-4" d="M515.63,345.8c0-2.7-2.19-4.9-4.9-4.9s-4.9,2.19-4.9,4.9,2.19,4.9,4.9,4.9,4.9-2.19,4.9-4.9"/>
      <path class="cls-4" d="M517.25,360.85c0-3.6-2.92-6.52-6.52-6.52s-6.52,2.92-6.52,6.52,2.92,6.52,6.52,6.52,6.52-2.92,6.52-6.52"/>
      <path class="cls-4" d="M518.62,375.9c0-4.35-3.53-7.89-7.89-7.89s-7.89,3.53-7.89,7.89,3.53,7.89,7.89,7.89,7.89-3.53,7.89-7.89"/>
      <path class="cls-4" d="M512.39,300.64c0-.91-.74-1.65-1.65-1.65s-1.65.74-1.65,1.65.74,1.65,1.65,1.65,1.65-.74,1.65-1.65"/>
      <path class="cls-4" d="M511.71,285.59c0-.54-.44-.97-.97-.97s-.97.44-.97.97.44.97.97.97.97-.44.97-.97"/>
      <path class="cls-4" d="M522.53,323.21c0-1.99-1.61-3.61-3.6-3.61s-3.61,1.61-3.61,3.61,1.61,3.61,3.61,3.61,3.6-1.61,3.6-3.61"/>
      <path class="cls-4" d="M523.73,338.27c0-2.65-2.15-4.8-4.8-4.8s-4.8,2.15-4.8,4.8,2.15,4.8,4.8,4.8,4.8-2.15,4.8-4.8"/>
      <path class="cls-4" d="M524.73,353.32c0-3.21-2.6-5.81-5.81-5.81s-5.81,2.6-5.81,5.81,2.6,5.81,5.81,5.81,5.81-2.6,5.81-5.81"/>
      <path class="cls-4" d="M525.95,368.38c0-3.88-3.15-7.03-7.03-7.03s-7.03,3.15-7.03,7.03,3.15,7.03,7.03,7.03,7.03-3.15,7.03-7.03"/>
      <path class="cls-4" d="M527.43,382.93c0-4.69-3.81-8.5-8.5-8.5s-8.5,3.81-8.5,8.5,3.81,8.5,8.5,8.5,8.5-3.81,8.5-8.5"/>
      <path class="cls-4" d="M507.34,338.27c0-2.65-2.15-4.8-4.8-4.8s-4.8,2.15-4.8,4.8,2.15,4.8,4.8,4.8,4.8-2.15,4.8-4.8"/>
      <path class="cls-4" d="M508.35,353.32c0-3.21-2.6-5.81-5.81-5.81s-5.81,2.6-5.81,5.81,2.6,5.81,5.81,5.81,5.81-2.6,5.81-5.81"/>
      <path class="cls-4" d="M509.57,368.38c0-3.88-3.15-7.03-7.03-7.03s-7.03,3.15-7.03,7.03,3.15,7.03,7.03,7.03,7.03-3.15,7.03-7.03"/>
      <path class="cls-4" d="M511.05,382.93c0-4.69-3.81-8.5-8.5-8.5s-8.5,3.81-8.5,8.5,3.81,8.5,8.5,8.5,8.5-3.81,8.5-8.5"/>
      <path class="cls-4" d="M538.92,323.21c0-1.99-1.61-3.61-3.6-3.61s-3.61,1.61-3.61,3.61,1.61,3.61,3.61,3.61,3.6-1.61,3.6-3.61"/>
      <path class="cls-4" d="M540.11,338.27c0-2.65-2.15-4.8-4.8-4.8s-4.8,2.15-4.8,4.8,2.15,4.8,4.8,4.8,4.8-2.15,4.8-4.8"/>
      <path class="cls-4" d="M541.12,353.32c0-3.21-2.6-5.81-5.81-5.81s-5.81,2.6-5.81,5.81,2.6,5.81,5.81,5.81,5.81-2.6,5.81-5.81"/>
      <path class="cls-4" d="M542.34,368.38c0-3.88-3.15-7.03-7.03-7.03s-7.03,3.15-7.03,7.03,3.15,7.03,7.03,7.03,7.03-3.15,7.03-7.03"/>
      <path class="cls-4" d="M543.81,382.93c0-4.69-3.81-8.5-8.5-8.5s-8.5,3.81-8.5,8.5,3.81,8.5,8.5,8.5,8.5-3.81,8.5-8.5"/>
      <path class="cls-4" d="M555.3,323.21c0-1.99-1.61-3.61-3.6-3.61s-3.61,1.61-3.61,3.61,1.61,3.61,3.61,3.61,3.6-1.61,3.6-3.61"/>
      <path class="cls-4" d="M556.49,338.27c0-2.65-2.15-4.8-4.8-4.8s-4.8,2.15-4.8,4.8,2.15,4.8,4.8,4.8,4.8-2.15,4.8-4.8"/>
      <path class="cls-4" d="M557.5,353.32c0-3.21-2.6-5.81-5.81-5.81s-5.81,2.6-5.81,5.81,2.6,5.81,5.81,5.81,5.81-2.6,5.81-5.81"/>
      <path class="cls-4" d="M558.72,368.38c0-3.88-3.15-7.03-7.03-7.03s-7.03,3.15-7.03,7.03,3.15,7.03,7.03,7.03,7.03-3.15,7.03-7.03"/>
      <path class="cls-4" d="M560.19,382.93c0-4.69-3.81-8.5-8.5-8.5s-8.5,3.81-8.5,8.5,3.81,8.5,8.5,8.5,8.5-3.81,8.5-8.5"/>
      <path class="cls-4" d="M529.63,315.7c0-1.39-1.12-2.51-2.51-2.51s-2.51,1.12-2.51,2.51,1.12,2.51,2.51,2.51,2.51-1.12,2.51-2.51"/>
      <path class="cls-4" d="M531.17,330.75c0-2.24-1.81-4.05-4.05-4.05s-4.05,1.81-4.05,4.05,1.81,4.05,4.05,4.05,4.05-1.81,4.05-4.05"/>
      <path class="cls-4" d="M532.02,345.8c0-2.7-2.19-4.9-4.9-4.9s-4.9,2.19-4.9,4.9,2.19,4.9,4.9,4.9,4.9-2.19,4.9-4.9"/>
      <path class="cls-4" d="M533.64,360.85c0-3.6-2.92-6.52-6.52-6.52s-6.52,2.92-6.52,6.52,2.92,6.52,6.52,6.52,6.52-2.92,6.52-6.52"/>
      <path class="cls-4" d="M535,375.9c0-4.35-3.53-7.89-7.89-7.89s-7.89,3.53-7.89,7.89,3.53,7.89,7.89,7.89,7.89-3.53,7.89-7.89"/>
      <path class="cls-4" d="M528.75,300.64c0-.9-.73-1.63-1.63-1.63s-1.63.73-1.63,1.63.73,1.63,1.63,1.63,1.63-.73,1.63-1.63"/>
      <path class="cls-4" d="M528.19,285.59c0-.59-.48-1.07-1.07-1.07s-1.07.48-1.07,1.07.48,1.07,1.07,1.07,1.07-.48,1.07-1.07"/>
      <path class="cls-4" d="M520.96,308.17c0-1.12-.91-2.04-2.03-2.04s-2.04.91-2.04,2.04.91,2.04,2.04,2.04,2.03-.91,2.03-2.04"/>
      <path class="cls-4" d="M520.26,293.12c0-.74-.6-1.34-1.34-1.34s-1.33.6-1.33,1.34.6,1.34,1.33,1.34,1.34-.6,1.34-1.34"/>
      <path class="cls-4" d="M519.8,278.07c0-.48-.39-.88-.88-.88s-.88.39-.88.88.39.88.88.88.88-.39.88-.88"/>
      <path class="cls-4" d="M504.58,308.17c0-1.12-.91-2.04-2.04-2.04s-2.04.91-2.04,2.04.91,2.04,2.04,2.04,2.04-.91,2.04-2.04"/>
      <path class="cls-4" d="M537.35,308.17c0-1.12-.91-2.04-2.03-2.04s-2.04.91-2.04,2.04.91,2.04,2.04,2.04,2.03-.91,2.03-2.04"/>
      <path class="cls-4" d="M536.65,293.12c0-.74-.6-1.34-1.34-1.34s-1.34.6-1.34,1.34.6,1.34,1.34,1.34,1.34-.6,1.34-1.34"/>
      <path class="cls-4" d="M536.19,278.07c0-.48-.39-.88-.88-.88s-.88.39-.88.88.39.88.88.88.88-.39.88-.88"/>
      <path class="cls-4" d="M503.88,293.12c0-.74-.6-1.34-1.33-1.34s-1.34.6-1.34,1.34.6,1.34,1.34,1.34,1.33-.6,1.33-1.34"/>
      <path class="cls-4" d="M503.42,278.07c0-.48-.39-.88-.88-.88s-.88.39-.88.88.39.88.88.88.88-.39.88-.88"/>
      <path class="cls-4" d="M553.03,293.12c0-.74-.6-1.34-1.34-1.34s-1.33.6-1.33,1.34.6,1.34,1.33,1.34,1.34-.6,1.34-1.34"/>
      <path class="cls-4" d="M552.57,278.07c0-.48-.39-.88-.88-.88s-.88.39-.88.88.39.88.88.88.88-.39.88-.88"/>
      <path class="cls-4" d="M553.73,308.17c0-1.12-.91-2.04-2.03-2.04s-2.04.91-2.04,2.04.91,2.04,2.04,2.04,2.03-.91,2.03-2.04"/>
      <path class="cls-4" d="M546.01,315.7c0-1.39-1.12-2.51-2.51-2.51s-2.51,1.12-2.51,2.51,1.12,2.51,2.51,2.51,2.51-1.12,2.51-2.51"/>
      <path class="cls-4" d="M547.51,330.75c0-2.21-1.79-4.01-4.01-4.01s-4.01,1.79-4.01,4.01,1.79,4.01,4.01,4.01,4.01-1.79,4.01-4.01"/>
      <path class="cls-4" d="M548.35,345.8c0-2.68-2.17-4.85-4.85-4.85s-4.85,2.17-4.85,4.85,2.17,4.85,4.85,4.85,4.85-2.17,4.85-4.85"/>
      <path class="cls-4" d="M549.95,360.85c0-3.56-2.89-6.45-6.45-6.45s-6.45,2.89-6.45,6.45,2.89,6.45,6.45,6.45,6.45-2.89,6.45-6.45"/>
      <path class="cls-4" d="M551.31,375.9c0-4.31-3.49-7.81-7.81-7.81s-7.81,3.49-7.81,7.81,3.49,7.81,7.81,7.81,7.81-3.49,7.81-7.81"/>
      <path class="cls-4" d="M545.13,300.64c0-.9-.73-1.63-1.63-1.63s-1.63.73-1.63,1.63.73,1.63,1.63,1.63,1.63-.73,1.63-1.63"/>
      <path class="cls-4" d="M544.57,285.59c0-.59-.48-1.07-1.07-1.07s-1.07.48-1.07,1.07.48,1.07,1.07,1.07,1.07-.48,1.07-1.07"/>
    </g>
  </g>
</svg>