<?xml version="1.0" encoding="UTF-8"?>
<svg id="Calque_1" data-name="Calque 1" xmlns="http://www.w3.org/2000/svg" xmlns:xlink="http://www.w3.org/1999/xlink" viewBox="0 0 616 423">
  <defs>
    <style>
      .cls-1 {
        clip-path: url(#clippath);
      }

      .cls-2, .cls-3, .cls-4 {
        fill: none;
      }

      .cls-2, .cls-5 {
        stroke-width: 0px;
      }

      .cls-3 {
        stroke-width: 2.03px;
      }

      .cls-3, .cls-4 {
        stroke: #fff;
      }

      .cls-6 {
        clip-path: url(#clippath-1);
      }

      .cls-7 {
        clip-path: url(#clippath-3);
      }

      .cls-8 {
        clip-path: url(#clippath-2);
      }

      .cls-4 {
        stroke-width: .5px;
      }

      .cls-5 {
        fill: #fff;
      }
    </style>
    <clipPath id="clippath">
      <rect class="cls-2" width="616" height="423"/>
    </clipPath>
    <clipPath id="clippath-1">
      <rect class="cls-2" width="616" height="423"/>
    </clipPath>
    <clipPath id="clippath-2">
      <rect class="cls-2" width="616" height="423"/>
    </clipPath>
    <clipPath id="clippath-3">
      <rect class="cls-2" width="616" height="423"/>
    </clipPath>
  </defs>
  <g class="cls-1">
    <line class="cls-4" x1="602" y1="387.13" x2="14" y2="387.13"/>
    <line class="cls-4" x1="602" y1="408.88" x2="14" y2="408.88"/>
    <g class="cls-6">
      <path class="cls-5" d="M158.22,399.25l3.79-5.08v5.08h-3.79ZM161.05,402.37h2.97v-.3h-.44l-.52-.25v-2.08h1.75v-.5h-1.75v-5.62h-1.05l-4.22,5.62.16.5h4.06v2.08l-.52.25h-.44v.3ZM151.46,401.09l3.65-5.76c.26.68.4,1.58.4,2.68v.12c0,2.7-.91,4.13-2.31,4.13-.74,0-1.34-.4-1.74-1.16M150.88,398.13v-.12c0-2.79.91-4.25,2.31-4.25.73,0,1.33.4,1.73,1.16l-3.65,5.78c-.25-.66-.39-1.51-.39-2.56M153.2,402.62c1.95,0,3.41-1.77,3.41-4.5v-.12c0-2.81-1.46-4.62-3.41-4.62s-3.41,1.81-3.41,4.62v.12c0,2.73,1.46,4.5,3.41,4.5M142.41,402.37h2.92v-.3h-.44l-.52-.25v-3.08c0-1.34-.44-2.25-1.99-2.25-1.15,0-1.83.52-2.26,1.47v-1.35h-1.96v.3h.44l.52.25v4.65l-.52.25h-.44v.3h2.92v-.3h-.44l-.52-.25v-3.18c.32-1.06.91-1.73,1.91-1.73.84,0,1.34.41,1.34,1.83v3.08l-.53.25h-.44v.3ZM132.6,400.49c0-1.08.54-1.81,1.6-1.81.85,0,1.53.46,1.63,1.43v.7c-.1.97-.78,1.4-1.63,1.4-.99,0-1.6-.58-1.6-1.71M135.82,402.37h1.96v-.3h-.44l-.52-.25v-3.15c0-1.15-.41-2.17-2.52-2.17-1.06,0-1.89.26-2.44.55v1.13h.25c.3-.95,1.05-1.39,2.08-1.39,1.26,0,1.64.61,1.64,1.89v.55c-.36-.56-1.03-.85-1.9-.85-1.55,0-2.37.92-2.37,2.11s.85,2.01,2.34,2.01c.9,0,1.58-.29,1.94-.84v.71ZM127.75,402.37h2.92v-.3h-.44l-.52-.25v-8.2h-1.96v.3h.44l.53.25v7.65l-.53.25h-.44v.3ZM122.22,401.44v-3.83c.49-.51,1.1-.74,1.7-.74.99,0,2.03.62,2.03,2.53,0,1.54-.69,2.76-2.06,2.76-.7,0-1.26-.29-1.66-.73M124.02,402.5c1.6,0,2.95-1.1,2.95-3.14,0-2.18-1.52-2.86-2.81-2.86-.95,0-1.55.37-1.94.75v-.62h-1.96v.3h.44l.53.25v7.15l-.53.25h-.44v.3h2.92v-.3h-.44l-.53-.25v-2.48c.34.33.93.65,1.8.65M115.07,399.53v-1.08c.1-1.18.85-1.65,1.78-1.65.74,0,1.24.31,1.24,1.29,0,1.44-1.09,1.44-1.38,1.44h-1.64ZM113.11,402.37h2.92v-.3h-.44l-.53-.25v-2h1.38l1.64,2.55h1.88v-.3h-.44l-.53-.25-1.41-2.1c.84-.21,1.49-.76,1.49-1.72,0-1.06-.8-1.62-1.95-1.62-.94,0-1.69.36-2.06,1.12v-3.87h-1.96v.3h.44l.53.25v7.65l-.53.25h-.44v.3ZM108.12,402.37h2.92v-.3h-.44l-.53-.25v-2.96c.09-1.2.55-1.83,1.35-1.83.45,0,.81.21.96.84h.25v-1.12c-.21-.14-.52-.25-.96-.25-.8,0-1.34.37-1.6,1.21v-1.09h-1.96v.3h.44l.53.25v4.65l-.53.25h-.44v.3ZM102.39,399.5c0-1.75.8-2.69,1.96-2.69s1.96.94,1.96,2.69-.8,2.69-1.96,2.69-1.96-.94-1.96-2.69M104.35,402.5c1.56,0,3-1.15,3-3s-1.44-3-3-3-3,1.15-3,3,1.44,3,3,3M96.95,402.37h.89l2.92-8.2.53-.25h.44v-.3h-2.29v.3h.44l.53.25-2.65,7.44-2.57-7.44.53-.25h.44v-.3h-3.04v.3h.44l.53.25.75,2.14-2.1,5.38-2.76-7.51.53-.25h.44v-.3h-3.05v.3h.44l.53.25,3.07,8.2h.89l2.2-5.59,1.96,5.59ZM81.04,402.37h2.92v-.3h-.44l-.53-.25v-3.08c0-1.34-.44-2.25-1.99-2.25-1.15,0-1.83.52-2.26,1.47v-1.35h-1.96v.3h.44l.53.25v4.65l-.53.25h-.44v.3h2.92v-.3h-.44l-.53-.25v-3.18c.33-1.06.91-1.73,1.91-1.73.84,0,1.34.41,1.34,1.83v3.08l-.53.25h-.44v.3ZM71.05,399.5c0-1.75.8-2.69,1.96-2.69s1.96.94,1.96,2.69-.8,2.69-1.96,2.69-1.96-.94-1.96-2.69M73.01,402.5c1.56,0,3-1.15,3-3s-1.44-3-3-3-3,1.15-3,3,1.44,3,3,3M67.36,402.5c.96,0,1.54-.46,1.65-1.75h-.25c-.09.99-.59,1.18-1.08,1.18-.54,0-.94-.24-.94-1.49v-3.49h2.09v-.32h-2.09v-2.08h-.31l-.69,1.83v.25h-1.24v.32h1.24v3.51c0,1.12.3,2.04,1.61,2.04M61.46,402.5c1.29,0,2.35-.45,2.35-1.74,0-2.5-3.94-1.27-3.94-2.93,0-.64.54-1.03,1.48-1.03.88,0,1.61.34,1.95,1.33h.25v-.88c-.49-.49-1.29-.75-2.19-.75-1.41,0-2.25.64-2.25,1.69,0,2.26,4.03,1.25,4.03,2.95,0,.6-.5,1.06-1.61,1.06-1.25,0-1.91-.59-2.31-1.59h-.25v1c.4.49,1.29.89,2.5.89M55.19,402.37h2.92v-.3h-.44l-.53-.25v-8.2h-1.96v.3h.44l.53.25v7.65l-.53.25h-.44v.3ZM49.62,400.49c0-1.08.54-1.81,1.6-1.81.85,0,1.53.46,1.63,1.43v.7c-.1.97-.77,1.4-1.63,1.4-.99,0-1.6-.58-1.6-1.71M52.85,402.37h1.96v-.3h-.44l-.53-.25v-3.15c0-1.15-.41-2.17-2.52-2.17-1.06,0-1.89.26-2.44.55v1.13h.25c.3-.95,1.05-1.39,2.08-1.39,1.26,0,1.64.61,1.64,1.89v.55c-.36-.56-1.02-.85-1.9-.85-1.55,0-2.37.92-2.37,2.11s.85,2.01,2.34,2.01c.9,0,1.58-.29,1.94-.84v.71ZM38.31,402.37h2.92v-.3h-.44l-.53-.25v-3.79h5.3v3.79l-.52.25h-.44v.3h2.92v-.3h-.44l-.53-.25v-7.65l.53-.25h.44v-.3h-2.92v.3h.44l.52.25v3.55h-5.3v-3.55l.53-.25h.44v-.3h-2.92v.3h.44l.52.25v7.65l-.52.25h-.44v.3ZM26.91,402.37h3.11v-.3h-.52l-.62-.25v-3.73h2.49l.26,1.5v.51h.3v-4.35h-.3v.51l-.26,1.51h-2.49v-3.79l.79-.07h3.51l.47,2.3v.51h.3v-3.11h-7.04v.3h.44l.53.25v7.65l-.53.25h-.44v.3ZM14.56,402.37h2.26v-.3h-.44l-.53-.25v-7.41l3.55,6.34h.5l3.39-6.56v7.64l-.53.25h-.44v.3h2.87v-.3h-.44l-.52-.25v-7.65l.52-.25h.44v-.3h-1.96l-3.24,6.26-3.49-6.26h-1.96v.3h.44l.53.25v7.65l-.53.25h-.44v.3Z"/>
    </g>
    <line class="cls-4" x1="602" y1="14" x2="14" y2="14"/>
    <g class="cls-8">
      <path class="cls-3" d="M31.37,382v-25.72c0-6.63,5.37-12,12-12h253.9"/>
      <path class="cls-3" d="M583.5,382v-25.72c0-6.63-5.37-12-12-12h-282.25"/>
    </g>
    <rect class="cls-5" x="72.8" y="321.81" width="9.93" height="40.08"/>
    <rect class="cls-5" x="285.95" y="350.91" width="12.6" height="31.01"/>
    <rect class="cls-5" x="317.45" y="350.91" width="12.6" height="31.01"/>
    <rect class="cls-5" x="285.95" y="371.98" width="44.1" height="9.94"/>
    <rect class="cls-5" x="533.27" y="321.81" width="9.93" height="40.08"/>
    <g class="cls-7">
      <path class="cls-5" d="M366.02,132.6h19.08v-2.12h-2.74l-2.33-1.44v-16.76c0-6.77-2.05-11.97-11.08-11.97-6.09,0-9.99,2.39-12.24,7.05v-6.22h-15.46v2.12h2.74l2.33,1.44v24.35l-2.33,1.44h-2.74v2.12h19.08v-2.12h-1.92l-1.71-1.44v-17.17c1.3-4.45,3.62-6.7,7.46-6.7s5.47,2.12,5.47,7.11v16.76l-1.71,1.44h-1.91v2.12ZM310.21,122.75c0-5.2,2.05-7.87,6.02-7.87,3.08,0,5.68,1.71,6.16,5.81v3.9c-.41,3.83-2.94,5.68-6.36,5.68s-5.82-2.05-5.82-7.52M322.59,132.6h15.32v-2.12h-2.74l-2.39-1.44v-16.69c0-7.05-3.21-12.04-15.73-12.04-6.43,0-11.36,1.3-15.25,3.21v6.57h2.46c1.51-4.72,4.86-7.25,10.26-7.25,5.95,0,7.87,2.87,7.87,8.48v4.31c-1.85-2.46-4.99-3.69-9.65-3.69-7.93,0-13.27,3.97-13.27,10.95s5.68,10.53,12.93,10.53c4.99,0,8.14-1.51,9.99-3.97v1.44l.2,1.71ZM256.25,132.6h22.5v-2.12h-3.62l-3.22-1.44v-25.72h7.73v-2.19h-7.73v-2.4c-3.83-6.84-3.21-13.2,1.23-13.2,3.08,0,4.92,3.15,6.29,8.35h2.33v-8.14c-1.92-1.23-4.86-2.12-8.21-2.12-9.37,0-12.04,6.98-12.04,15.19v2.33h-5.68v2.19h5.68v25.72l-2.46,1.44h-2.8v2.12ZM227.9,116.8c0-9.99,2.74-14.16,7.39-14.16s7.39,4.17,7.39,14.16-2.74,14.3-7.39,14.3-7.39-4.17-7.39-14.3M235.29,133.43c9.78,0,18.13-5.54,18.13-16.62s-8.35-16.48-18.13-16.48-18.13,5.47-18.13,16.48,8.28,16.62,18.13,16.62M181.73,133.29c8.48,0,14.64-2.67,14.64-10.33,0-13.75-21-9.3-21-16.62,0-2.53,2.39-3.83,6.09-3.83,5.2,0,8.62,2.19,11.08,7.11h2.19v-6.09c-3.01-1.92-7.66-3.08-12.93-3.08-8.82,0-13.89,3.35-13.89,9.92,0,13.13,21.27,9.44,21.27,16.83,0,2.46-2.67,4.04-7.04,4.04-6.36,0-9.85-3.01-12.45-8.41h-2.12v6.57c2.26,2.12,7.32,3.9,14.16,3.9M152.08,133.56c6.98,0,10.05-3.28,10.67-10.4h-2.12c-.48,4.65-2.19,6.23-4.65,6.23s-3.9-1.44-3.9-6.29v-19.77h10.26v-2.19h-10.26v-11.36h-1.51l-9.17,9.1v2.26h-5.88v2.19h5.88v19.7c0,6.16,2.74,10.53,10.67,10.53M102.55,132.6h20.59v-2.12h-2.74l-2.39-1.44v-14.84c.41-5.61,2.53-8.62,6.09-8.62,2.4,0,4.31,1.37,5.34,5.54h2.33v-9.1c-1.3-1.03-3.08-1.71-5.34-1.71-4.17,0-6.98,2.05-8.41,6.57v-5.74h-15.46v2.12h2.74l2.32,1.44v24.35l-2.32,1.44h-2.74v2.12ZM71.5,122.75c0-5.2,2.05-7.87,6.02-7.87,3.08,0,5.68,1.71,6.16,5.81v3.9c-.41,3.83-2.94,5.68-6.36,5.68s-5.81-2.05-5.81-7.52M83.88,132.6h15.32v-2.12h-2.74l-2.39-1.44v-16.69c0-7.05-3.21-12.04-15.73-12.04-6.43,0-11.35,1.3-15.25,3.21v6.57h2.46c1.51-4.72,4.86-7.25,10.26-7.25,5.95,0,7.87,2.87,7.87,8.48v4.31c-1.85-2.46-4.99-3.69-9.64-3.69-7.94,0-13.27,3.97-13.27,10.95s5.68,10.53,12.93,10.53c4.99,0,8.14-1.51,9.99-3.97v1.44l.21,1.71ZM30.83,126.45v-18.74c1.85-3.21,4.24-4.17,6.7-4.17,3.97,0,7.46,2.39,7.46,13.07,0,9.85-2.74,13.61-7.59,13.61-2.6,0-4.86-1.16-6.57-3.76M40.61,133.29c9.23,0,15.12-5.75,15.12-16.83s-6.29-16.14-14.78-16.14c-4.79,0-8.14,1.57-10.12,4.51v-3.69h-15.46v2.12h2.74l2.33,1.44v38.03l-2.33,1.44h-2.74v2.12h20.59v-2.12h-2.74l-2.39-1.44v-13.27c2.05,2.6,5.4,3.83,9.78,3.83"/>
      <path class="cls-5" d="M454.66,62.36c0-9.92,2.6-13.61,7.66-13.61,2.6,0,4.86,1.09,6.5,4.1v18.74c-1.85,2.87-4.1,3.9-6.64,3.9-4.24,0-7.52-2.46-7.52-13.13M468.82,77.88h15.46v-2.12h-2.74l-2.33-1.44V30h-15.53v2.12h2.74l2.39,1.44v16.08c-1.92-2.8-5.2-4.04-9.64-4.04-9.51,0-15.25,5.75-15.25,16.62s6.22,16.49,15.12,16.49c4.38,0,7.73-1.3,9.78-4.1v3.28ZM417.56,56.06c.55-4.58,2.6-8.07,6.98-8.07,3.97,0,5.75,3.08,6.29,8.07h-13.27ZM423.44,78.7c9.44,0,14.77-4.93,15.87-12.11h-2.26c-1.03,4.65-3.9,8-9.78,8-6.84,0-9.92-4.38-9.92-15.6v-.48h21c.34-7.46-4.17-12.93-14.36-12.93-10.74,0-17.65,6.02-17.65,16.69,0,9.17,5.68,16.42,17.1,16.42M383.27,77.88h20.59v-2.12h-2.74l-2.39-1.44V30h-15.46v2.12h2.74l2.32,1.44v40.77l-2.32,1.44h-2.74v2.12ZM355.52,71.73v-18.74c1.85-3.22,4.24-4.17,6.7-4.17,3.97,0,7.46,2.39,7.46,13.07,0,9.85-2.74,13.61-7.59,13.61-2.6,0-4.86-1.16-6.57-3.76M365.23,78.57c9.3,0,15.19-5.75,15.19-16.83s-6.29-16.14-14.77-16.14c-4.79,0-8.14,1.57-10.12,4.51v-20.11h-15.46v2.12h2.74l2.33,1.44v44.33h2.53l7.32-3.97c1.98,3.21,5.54,4.65,10.26,4.65M320.3,77.88h19.08v-2.12h-2.74l-2.33-1.44v-16.76c0-6.7-2.05-11.97-10.67-11.97-6.09,0-10.05,2.6-12.11,7.73-.89-4.58-3.63-7.73-10.33-7.73-5.88,0-9.58,2.33-11.77,6.91v-6.09h-15.46v2.12h2.74l2.33,1.44v24.35l-2.33,1.44h-2.74v2.12h19.08v-2.12h-1.92l-1.71-1.44v-17.24c1.16-4.45,3.28-6.57,6.91-6.57s5.13,2.19,5.13,7.04v16.76l-1.71,1.44h-1.92v2.12h17.65v-2.12h-1.92l-1.71-1.44v-17.24c1.16-4.38,3.28-6.57,6.91-6.57s5.13,2.19,5.13,7.04v16.76l-1.71,1.44h-1.92v2.12ZM249.82,56.06c.55-4.58,2.6-8.07,6.98-8.07,3.97,0,5.75,3.08,6.29,8.07h-13.27ZM255.71,78.7c9.44,0,14.78-4.93,15.87-12.11h-2.26c-1.03,4.65-3.9,8-9.78,8-6.84,0-9.92-4.38-9.92-15.6v-.48h21c.34-7.46-4.17-12.93-14.36-12.93-10.74,0-17.65,6.02-17.65,16.69,0,9.17,5.68,16.42,17.1,16.42M219.17,78.57c8.48,0,14.64-2.67,14.64-10.33,0-13.75-21-9.3-21-16.62,0-2.53,2.39-3.83,6.09-3.83,5.2,0,8.62,2.19,11.08,7.11h2.19v-6.09c-3.01-1.92-7.66-3.08-12.93-3.08-8.82,0-13.89,3.35-13.89,9.92,0,13.13,21.27,9.44,21.27,16.83,0,2.46-2.67,4.04-7.05,4.04-6.36,0-9.85-3.01-12.45-8.41h-2.12v6.57c2.26,2.12,7.32,3.9,14.16,3.9M184.83,78.57c8.48,0,14.64-2.67,14.64-10.33,0-13.75-21-9.3-21-16.62,0-2.53,2.39-3.83,6.09-3.83,5.2,0,8.62,2.19,11.08,7.11h2.19v-6.09c-3.01-1.92-7.66-3.08-12.93-3.08-8.82,0-13.89,3.35-13.89,9.92,0,13.13,21.27,9.44,21.27,16.83,0,2.46-2.67,4.04-7.04,4.04-6.36,0-9.85-3.01-12.45-8.41h-2.12v6.57c2.26,2.12,7.32,3.9,14.16,3.9M138.69,68.03c0-5.2,2.05-7.87,6.02-7.87,3.08,0,5.68,1.71,6.16,5.81v3.9c-.41,3.83-2.94,5.68-6.36,5.68s-5.82-2.05-5.82-7.52M151.07,77.88h15.32v-2.12h-2.74l-2.39-1.44v-16.69c0-7.05-3.21-12.04-15.73-12.04-6.43,0-11.35,1.3-15.25,3.21v6.57h2.46c1.51-4.72,4.86-7.25,10.26-7.25,5.95,0,7.87,2.87,7.87,8.48v4.31c-1.85-2.46-4.99-3.69-9.64-3.69-7.94,0-13.27,3.97-13.27,10.94s5.68,10.53,12.93,10.53c4.99,0,8.14-1.51,9.99-3.97v1.44l.21,1.71ZM108.37,78.57c8.48,0,14.64-2.67,14.64-10.33,0-13.75-21-9.3-21-16.62,0-2.53,2.39-3.83,6.09-3.83,5.2,0,8.62,2.19,11.08,7.11h2.19v-6.09c-3.01-1.92-7.66-3.08-12.93-3.08-8.82,0-13.89,3.35-13.89,9.92,0,13.13,21.27,9.44,21.27,16.83,0,2.46-2.67,4.04-7.04,4.04-6.36,0-9.85-3.01-12.45-8.41h-2.12v6.57c2.26,2.12,7.32,3.9,14.16,3.9M73.64,36.7c0,3.9,2.94,5.88,5.95,5.88s5.88-1.98,5.88-5.88-2.87-5.81-5.88-5.81-5.95,1.98-5.95,5.81M69.4,77.88h20.59v-2.12h-2.74l-2.39-1.44v-27.91h-15.46v2.12h2.74l2.33,1.44v24.35l-2.33,1.44h-2.74v2.12ZM32.26,75.08v-42.2l4.45-.55h4.1c7.25,0,13.06,5.06,13.06,21.61s-5.81,21.62-13.06,21.62h-3.69l-4.86-.48ZM16.6,77.88h24.9c12.79,0,23.12-8.28,23.12-23.94s-10.33-23.94-23.12-23.94h-24.9v2.12h2.74l2.33,1.44v40.77l-2.33,1.44h-2.74v2.12Z"/>
      <path class="cls-5" d="M580.18,254h20.59v-2.12h-2.74l-2.39-1.44v-44.32h-15.46v2.12h2.74l2.33,1.44v40.77l-2.33,1.44h-2.74v2.12ZM549.13,244.15c0-5.2,2.05-7.87,6.02-7.87,3.08,0,5.68,1.71,6.16,5.81v3.9c-.41,3.83-2.94,5.68-6.36,5.68s-5.81-2.05-5.81-7.52M561.51,254h15.32v-2.12h-2.74l-2.39-1.44v-16.69c0-7.05-3.21-12.04-15.73-12.04-6.43,0-11.35,1.3-15.25,3.21v6.57h2.46c1.51-4.72,4.86-7.25,10.26-7.25,5.95,0,7.87,2.87,7.87,8.48v4.31c-1.85-2.46-4.99-3.69-9.65-3.69-7.93,0-13.27,3.97-13.27,10.95s5.68,10.53,12.93,10.53c4.99,0,8.14-1.51,9.99-3.97v1.44l.21,1.71ZM519.12,254.82c7.05,0,13.2-2.53,14.84-11.63h-2.12c-1.37,5.47-4.93,7.87-9.44,7.87-5.75,0-9.78-3.42-9.78-13.68,0-7.94,2.67-13.34,8.62-13.34,4.86,0,8.28,3.97,9.44,9.71h2.19v-7.87c-2.05-2.12-6.43-4.17-12.72-4.17-10.74,0-18.54,5.95-18.54,17.03s7.46,16.07,17.51,16.07M482.78,212.82c0,3.9,2.94,5.88,5.95,5.88s5.88-1.98,5.88-5.88-2.87-5.81-5.88-5.81-5.95,1.98-5.95,5.81M478.54,254h20.59v-2.12h-2.74l-2.39-1.44v-27.91h-15.46v2.12h2.74l2.33,1.44v24.35l-2.33,1.44h-2.74v2.12ZM456.08,254h19.09v-2.12h-2.74l-2.33-1.44v-16.76c0-6.77-2.05-11.97-11.08-11.97-6.09,0-9.99,2.39-12.24,7.04v-6.22h-15.46v2.12h2.74l2.33,1.44v24.35l-2.33,1.44h-2.74v2.12h19.08v-2.12h-1.92l-1.71-1.44v-17.17c1.3-4.45,3.63-6.7,7.46-6.7s5.47,2.12,5.47,7.11v16.76l-1.71,1.44h-1.92v2.12ZM400.27,244.15c0-5.2,2.05-7.87,6.02-7.87,3.08,0,5.68,1.71,6.16,5.81v3.9c-.41,3.83-2.94,5.68-6.36,5.68s-5.81-2.05-5.81-7.52M412.65,254h15.32v-2.12h-2.74l-2.39-1.44v-16.69c0-7.05-3.21-12.04-15.73-12.04-6.43,0-11.35,1.3-15.25,3.21v6.57h2.46c1.51-4.72,4.86-7.25,10.26-7.25,5.95,0,7.87,2.87,7.87,8.48v4.31c-1.85-2.46-4.99-3.69-9.65-3.69-7.93,0-13.27,3.97-13.27,10.95s5.68,10.53,12.93,10.53c4.99,0,8.14-1.51,9.99-3.97v1.44l.21,1.71ZM367.57,254h19.09v-2.12h-2.74l-2.39-1.44v-16.14c0-7.18-1.98-12.59-10.81-12.59-5.95,0-9.92,2.53-12.18,7.46v-23.05h-15.46v2.12h2.74l2.33,1.44v40.77l-2.33,1.44h-2.74v2.12h19.08v-2.12h-1.91l-1.71-1.44v-16.62c1.3-4.79,3.62-7.04,7.32-7.04,3.9,0,5.27,2.26,5.27,6.91v16.76l-1.64,1.44h-1.92v2.12ZM326.06,254.82c7.05,0,13.2-2.53,14.84-11.63h-2.12c-1.37,5.47-4.93,7.87-9.44,7.87-5.75,0-9.78-3.42-9.78-13.68,0-7.94,2.67-13.34,8.62-13.34,4.86,0,8.28,3.97,9.44,9.71h2.19v-7.87c-2.05-2.12-6.43-4.17-12.72-4.17-10.74,0-18.54,5.95-18.54,17.03s7.46,16.07,17.51,16.07M282.3,232.18c.55-4.58,2.6-8.07,6.98-8.07,3.97,0,5.75,3.08,6.29,8.07h-13.27ZM288.18,254.82c9.44,0,14.77-4.93,15.87-12.11h-2.26c-1.03,4.65-3.9,8-9.78,8-6.84,0-9.92-4.38-9.92-15.6v-.48h21c.34-7.46-4.17-12.93-14.36-12.93-10.74,0-17.65,6.02-17.65,16.69,0,9.17,5.68,16.42,17.1,16.42M249.6,254h19.08v-2.12h-2.74l-2.33-1.44v-16.76c0-6.7-2.05-11.97-10.67-11.97-6.09,0-10.06,2.6-12.11,7.73-.89-4.58-3.62-7.73-10.33-7.73-5.88,0-9.58,2.32-11.77,6.91v-6.09h-15.46v2.12h2.74l2.33,1.44v24.35l-2.33,1.44h-2.74v2.12h19.09v-2.12h-1.92l-1.71-1.44v-17.24c1.16-4.45,3.28-6.57,6.91-6.57s5.13,2.19,5.13,7.04v16.76l-1.71,1.44h-1.92v2.12h17.65v-2.12h-1.92l-1.71-1.44v-17.24c1.16-4.38,3.28-6.57,6.91-6.57s5.13,2.19,5.13,7.04v16.76l-1.71,1.44h-1.91v2.12Z"/>
      <path class="cls-5" d="M577.99,177.46c.55-4.58,2.6-8.07,6.98-8.07,3.97,0,5.75,3.08,6.29,8.07h-13.27ZM583.87,200.1c9.44,0,14.78-4.93,15.87-12.11h-2.26c-1.03,4.65-3.9,8-9.78,8-6.84,0-9.92-4.38-9.92-15.6v-.48h21c.34-7.46-4.17-12.93-14.36-12.93-10.74,0-17.65,6.02-17.65,16.69,0,9.17,5.68,16.42,17.1,16.42M551.82,200.24c6.98,0,10.06-3.28,10.67-10.4h-2.12c-.48,4.65-2.19,6.23-4.65,6.23s-3.9-1.44-3.9-6.29v-19.77h10.26v-2.19h-10.26v-11.35h-1.5l-9.17,9.1v2.26h-5.88v2.19h5.88v19.7c0,6.16,2.74,10.53,10.67,10.53M518.62,158.1c0,3.9,2.94,5.88,5.95,5.88s5.88-1.98,5.88-5.88-2.87-5.81-5.88-5.81-5.95,1.98-5.95,5.81M514.38,199.28h20.59v-2.12h-2.74l-2.39-1.44v-27.91h-15.46v2.12h2.74l2.33,1.44v24.35l-2.33,1.44h-2.74v2.12ZM481.24,199.28h20.59v-2.12h-2.74l-2.4-1.44v-14.84c.41-5.61,2.53-8.62,6.09-8.62,2.39,0,4.31,1.37,5.34,5.54h2.33v-9.1c-1.3-1.03-3.08-1.71-5.34-1.71-4.17,0-6.98,2.05-8.41,6.57v-5.74h-15.46v2.12h2.74l2.33,1.44v24.35l-2.33,1.44h-2.74v2.12ZM453.14,183.48c0-9.99,2.74-14.16,7.39-14.16s7.39,4.17,7.39,14.16-2.74,14.3-7.39,14.3-7.39-4.17-7.39-14.3M460.53,200.1c9.78,0,18.13-5.54,18.13-16.62s-8.35-16.49-18.13-16.49-18.13,5.47-18.13,16.49,8.28,16.62,18.13,16.62M417.97,199.28h7.32l11.15-27.91,2.39-1.44h2.67v-2.12h-11.83v2.12h2.33l2.05,1.44-7.52,18.95-7.53-18.95,2.12-1.44h2.33v-2.12h-22.23v2.12h2.74l2.39,1.44,11.63,27.91ZM374.88,189.43c0-5.2,2.05-7.87,6.02-7.87,3.08,0,5.68,1.71,6.16,5.81v3.9c-.41,3.83-2.94,5.68-6.36,5.68s-5.81-2.05-5.81-7.52M387.26,199.28h15.32v-2.12h-2.74l-2.39-1.44v-16.69c0-7.05-3.21-12.04-15.73-12.04-6.43,0-11.35,1.3-15.25,3.21v6.57h2.46c1.51-4.72,4.86-7.25,10.26-7.25,5.95,0,7.87,2.87,7.87,8.48v4.31c-1.85-2.46-4.99-3.69-9.65-3.69-7.93,0-13.27,3.97-13.27,10.95s5.68,10.53,12.93,10.53c4.99,0,8.14-1.51,9.99-3.97v1.44l.2,1.71ZM337.7,199.28h22.51v-2.12h-3.62l-3.22-1.44v-25.72h7.73v-2.19h-7.73v-2.39c-3.83-6.84-3.21-13.2,1.23-13.2,3.08,0,4.92,3.15,6.29,8.35h2.33v-8.14c-1.92-1.23-4.86-2.12-8.21-2.12-9.37,0-12.04,6.98-12.04,15.19v2.33h-5.68v2.19h5.68v25.72l-2.46,1.44h-2.8v2.12ZM289.06,199.28h20.59v-2.12h-2.74l-2.39-1.44v-14.84c.41-5.61,2.53-8.62,6.09-8.62,2.39,0,4.31,1.37,5.33,5.54h2.33v-9.1c-1.3-1.03-3.08-1.71-5.34-1.71-4.17,0-6.98,2.05-8.41,6.57v-5.74h-15.46v2.12h2.74l2.32,1.44v24.35l-2.32,1.44h-2.74v2.12ZM264.9,177.46c.55-4.58,2.6-8.07,6.98-8.07,3.97,0,5.74,3.08,6.29,8.07h-13.27ZM270.78,200.1c9.44,0,14.77-4.93,15.87-12.11h-2.26c-1.03,4.65-3.9,8-9.78,8-6.84,0-9.92-4.38-9.92-15.6v-.48h21c.34-7.46-4.17-12.93-14.36-12.93-10.74,0-17.65,6.02-17.65,16.69,0,9.17,5.68,16.42,17.1,16.42M230.61,199.28h20.59v-2.12h-2.74l-2.39-1.44v-44.32h-15.46v2.12h2.74l2.33,1.44v40.77l-2.33,1.44h-2.74v2.12ZM197.61,183.75c0-9.92,2.6-13.61,7.66-13.61,2.6,0,4.86,1.1,6.5,4.1v18.74c-1.85,2.87-4.1,3.9-6.64,3.9-4.24,0-7.52-2.46-7.52-13.13M211.77,199.28h15.46v-2.12h-2.74l-2.33-1.44v-44.32h-15.53v2.12h2.74l2.39,1.44v16.07c-1.92-2.81-5.2-4.04-9.65-4.04-9.51,0-15.25,5.75-15.25,16.62s6.23,16.49,15.12,16.49c4.38,0,7.73-1.3,9.78-4.1v3.28ZM145.87,180.47l9.03-24.69,8,24.69h-17.03ZM132.4,199.28h13v-2.12h-2.67l-2.39-1.44,4.65-12.86h18.67l4.17,12.86-2.33,1.44h-2.74v2.12h21.75v-2.12h-2.74l-2.39-1.44-14.98-44.32h-16.76v2.12h2.74l2.39,1.44-15.25,40.77-2.39,1.44h-2.74v2.12Z"/>
      <path class="cls-5" d="M352.19,317.88h20.59v-2.12h-2.74l-2.39-1.44v-14.84c.41-5.61,2.53-8.62,6.09-8.62,2.39,0,4.31,1.37,5.34,5.54h2.33v-9.1c-1.3-1.03-3.08-1.71-5.34-1.71-4.17,0-6.98,2.05-8.41,6.57v-5.75h-15.46v2.12h2.74l2.33,1.44v24.35l-2.33,1.44h-2.74v2.12ZM328.03,296.06c.55-4.58,2.6-8.07,6.98-8.07,3.97,0,5.75,3.08,6.29,8.07h-13.27ZM333.91,318.7c9.44,0,14.78-4.92,15.87-12.11h-2.26c-1.03,4.65-3.9,8-9.78,8-6.84,0-9.92-4.38-9.92-15.6v-.48h21c.34-7.46-4.17-12.93-14.36-12.93-10.74,0-17.65,6.02-17.65,16.69,0,9.17,5.68,16.42,17.1,16.42M301.86,318.84c6.98,0,10.06-3.28,10.67-10.4h-2.12c-.48,4.65-2.19,6.22-4.65,6.22s-3.9-1.44-3.9-6.29v-19.77h10.26v-2.19h-10.26v-11.35h-1.5l-9.17,9.1v2.26h-5.88v2.19h5.88v19.7c0,6.16,2.74,10.53,10.67,10.53M268.65,276.7c0,3.9,2.94,5.88,5.95,5.88s5.88-1.98,5.88-5.88-2.87-5.82-5.88-5.82-5.95,1.98-5.95,5.82M264.41,317.88h20.59v-2.12h-2.74l-2.39-1.44v-27.91h-15.46v2.12h2.74l2.33,1.44v24.35l-2.33,1.44h-2.74v2.12ZM231.28,317.88h20.59v-2.12h-2.74l-2.39-1.44v-14.84c.41-5.61,2.53-8.62,6.09-8.62,2.39,0,4.31,1.37,5.34,5.54h2.32v-9.1c-1.3-1.03-3.08-1.71-5.33-1.71-4.17,0-6.98,2.05-8.41,6.57v-5.75h-15.46v2.12h2.74l2.33,1.44v24.35l-2.33,1.44h-2.74v2.12ZM206.08,317.88h6.98l9.92-27.91,2.39-1.44h2.74v-2.12h-11.7v2.12h2.26l1.98,1.44-6.7,18.61-6.09-18.61,1.98-1.44h2.19v-2.12h-19.7v2.12h2.19l1.98,1.44,1.23,3.56-6.02,15.73-6.84-19.29,1.98-1.44h2.19v-2.12h-21.21v2.12h2.74l2.33,1.44,10.81,27.91h6.98l8.14-21.14,7.25,21.14ZM144.87,296.06c.55-4.58,2.6-8.07,6.98-8.07,3.97,0,5.75,3.08,6.29,8.07h-13.27ZM150.76,318.7c9.44,0,14.77-4.92,15.87-12.11h-2.26c-1.03,4.65-3.9,8-9.78,8-6.84,0-9.92-4.38-9.92-15.6v-.48h21c.34-7.46-4.17-12.93-14.37-12.93-10.74,0-17.65,6.02-17.65,16.69,0,9.17,5.68,16.42,17.1,16.42M103.38,311.73v-18.74c1.85-3.21,4.24-4.17,6.7-4.17,3.97,0,7.46,2.39,7.46,13.07,0,9.85-2.74,13.61-7.59,13.61-2.6,0-4.86-1.16-6.57-3.76M113.16,318.57c9.24,0,15.12-5.74,15.12-16.83s-6.29-16.14-14.77-16.14c-4.79,0-8.14,1.57-10.12,4.51v-3.69h-15.46v2.12h2.74l2.33,1.44v38.03l-2.33,1.44h-2.74v2.12h20.59v-2.12h-2.74l-2.39-1.44v-13.27c2.05,2.6,5.4,3.83,9.78,3.83M54.49,331.56h7.59l17.65-41.59,2.32-1.44h2.74v-2.12h-12.04v2.12h2.46l2.19,1.44-7.18,16.89-7.66-16.89,2.19-1.44h2.46v-2.12h-21.62v2.12h2.67l2.39,1.44,14.23,29.48-2.33,5.4h-11.9v1.03l3.83,5.68ZM31.58,318.84c6.98,0,10.06-3.28,10.67-10.4h-2.12c-.48,4.65-2.19,6.22-4.65,6.22s-3.9-1.44-3.9-6.29v-19.77h10.26v-2.19h-10.26v-11.35h-1.5l-9.17,9.1v2.26h-5.88v2.19h5.88v19.7c0,6.16,2.74,10.53,10.67,10.53"/>
      <path class="cls-3" d="M26.05,382v-26.04c0-9.39,7.61-17.01,17.01-17.01h254.22"/>
      <path class="cls-3" d="M588.82,382v-26.04c0-9.39-7.61-17.01-17.01-17.01h-282.57"/>
      <path class="cls-5" d="M14,30.71c.39,0,.71-.32.71-.71s-.32-.71-.71-.71-.71.32-.71.71.32.71.71.71"/>
      <path class="cls-5" d="M14,46.71c.39,0,.71-.32.71-.71s-.32-.71-.71-.71-.71.32-.71.71.32.71.71.71"/>
      <path class="cls-5" d="M14,62.71c.39,0,.71-.32.71-.71s-.32-.71-.71-.71-.71.32-.71.71.32.71.71.71"/>
      <path class="cls-5" d="M14,78.71c.39,0,.71-.32.71-.71s-.32-.71-.71-.71-.71.32-.71.71.32.71.71.71"/>
      <path class="cls-5" d="M14,94.71c.39,0,.71-.32.71-.71s-.32-.71-.71-.71-.71.32-.71.71.32.71.71.71"/>
      <path class="cls-5" d="M14,110.71c.39,0,.71-.32.71-.71s-.32-.71-.71-.71-.71.32-.71.71.32.71.71.71"/>
      <path class="cls-5" d="M14,126.71c.39,0,.71-.32.71-.71s-.32-.71-.71-.71-.71.32-.71.71.32.71.71.71"/>
      <path class="cls-5" d="M14,142.71c.39,0,.71-.32.71-.71s-.32-.71-.71-.71-.71.32-.71.71.32.71.71.71"/>
      <path class="cls-5" d="M14,158.71c.39,0,.71-.32.71-.71s-.32-.71-.71-.71-.71.32-.71.71.32.71.71.71"/>
      <path class="cls-5" d="M14,174.71c.39,0,.71-.32.71-.71s-.32-.71-.71-.71-.71.32-.71.71.32.71.71.71"/>
      <path class="cls-5" d="M14,190.71c.39,0,.71-.32.71-.71s-.32-.71-.71-.71-.71.32-.71.71.32.71.71.71"/>
      <path class="cls-5" d="M14,206.71c.39,0,.71-.32.71-.71s-.32-.71-.71-.71-.71.32-.71.71.32.71.71.71"/>
      <path class="cls-5" d="M14,222.71c.39,0,.71-.32.71-.71s-.32-.71-.71-.71-.71.32-.71.71.32.71.71.71"/>
      <path class="cls-5" d="M14,238.71c.39,0,.71-.32.71-.71s-.32-.71-.71-.71-.71.32-.71.71.32.71.71.71"/>
      <path class="cls-5" d="M14,254.71c.39,0,.71-.32.71-.71s-.32-.71-.71-.71-.71.32-.71.71.32.71.71.71"/>
      <path class="cls-5" d="M14,270.71c.39,0,.71-.32.71-.71s-.32-.71-.71-.71-.71.32-.71.71.32.71.71.71"/>
      <path class="cls-5" d="M14,286.71c.39,0,.71-.32.71-.71s-.32-.71-.71-.71-.71.32-.71.71.32.71.71.71"/>
      <path class="cls-5" d="M14,302.71c.39,0,.71-.32.71-.71s-.32-.71-.71-.71-.71.32-.71.71.32.71.71.71"/>
      <path class="cls-5" d="M14,318.71c.39,0,.71-.32.71-.71s-.32-.71-.71-.71-.71.32-.71.71.32.71.71.71"/>
      <path class="cls-5" d="M14,334.71c.39,0,.71-.32.71-.71s-.32-.71-.71-.71-.71.32-.71.71.32.71.71.71"/>
      <path class="cls-5" d="M43.4,30.71c.39,0,.71-.32.71-.71s-.32-.71-.71-.71-.71.32-.71.71.32.71.71.71"/>
      <path class="cls-5" d="M43.4,46.71c.39,0,.71-.32.71-.71s-.32-.71-.71-.71-.71.32-.71.71.32.71.71.71"/>
      <path class="cls-5" d="M43.4,62.71c.39,0,.71-.32.71-.71s-.32-.71-.71-.71-.71.32-.71.71.32.71.71.71"/>
      <path class="cls-5" d="M43.4,78.71c.39,0,.71-.32.71-.71s-.32-.71-.71-.71-.71.32-.71.71.32.71.71.71"/>
      <path class="cls-5" d="M43.4,94.71c.39,0,.71-.32.71-.71s-.32-.71-.71-.71-.71.32-.71.71.32.71.71.71"/>
      <path class="cls-5" d="M43.4,110.71c.39,0,.71-.32.71-.71s-.32-.71-.71-.71-.71.32-.71.71.32.71.71.71"/>
      <path class="cls-5" d="M43.4,126.71c.39,0,.71-.32.71-.71s-.32-.71-.71-.71-.71.32-.71.71.32.71.71.71"/>
      <path class="cls-5" d="M43.4,142.71c.39,0,.71-.32.71-.71s-.32-.71-.71-.71-.71.32-.71.71.32.71.71.71"/>
      <path class="cls-5" d="M43.4,158.71c.39,0,.71-.32.71-.71s-.32-.71-.71-.71-.71.32-.71.71.32.71.71.71"/>
      <path class="cls-5" d="M43.4,174.71c.39,0,.71-.32.71-.71s-.32-.71-.71-.71-.71.32-.71.71.32.71.71.71"/>
      <path class="cls-5" d="M43.4,190.71c.39,0,.71-.32.71-.71s-.32-.71-.71-.71-.71.32-.71.71.32.71.71.71"/>
      <path class="cls-5" d="M43.4,206.71c.39,0,.71-.32.71-.71s-.32-.71-.71-.71-.71.32-.71.71.32.71.71.71"/>
      <path class="cls-5" d="M43.4,222.71c.39,0,.71-.32.71-.71s-.32-.71-.71-.71-.71.32-.71.71.32.71.71.71"/>
      <path class="cls-5" d="M43.4,238.71c.39,0,.71-.32.71-.71s-.32-.71-.71-.71-.71.32-.71.71.32.71.71.71"/>
      <path class="cls-5" d="M43.4,254.71c.39,0,.71-.32.71-.71s-.32-.71-.71-.71-.71.32-.71.71.32.71.71.71"/>
      <path class="cls-5" d="M43.4,270.71c.39,0,.71-.32.71-.71s-.32-.71-.71-.71-.71.32-.71.71.32.71.71.71"/>
      <path class="cls-5" d="M43.4,286.71c.39,0,.71-.32.71-.71s-.32-.71-.71-.71-.71.32-.71.71.32.71.71.71"/>
      <path class="cls-5" d="M43.4,302.71c.39,0,.71-.32.71-.71s-.32-.71-.71-.71-.71.32-.71.71.32.71.71.71"/>
      <path class="cls-5" d="M43.4,318.71c.39,0,.71-.32.71-.71s-.32-.71-.71-.71-.71.32-.71.71.32.71.71.71"/>
      <path class="cls-5" d="M43.4,334.71c.39,0,.71-.32.71-.71s-.32-.71-.71-.71-.71.32-.71.71.32.71.71.71"/>
      <path class="cls-5" d="M72.8,30.71c.39,0,.71-.32.71-.71s-.32-.71-.71-.71-.71.32-.71.71.32.71.71.71"/>
      <path class="cls-5" d="M72.8,46.71c.39,0,.71-.32.71-.71s-.32-.71-.71-.71-.71.32-.71.71.32.71.71.71"/>
      <path class="cls-5" d="M72.8,62.71c.39,0,.71-.32.71-.71s-.32-.71-.71-.71-.71.32-.71.71.32.71.71.71"/>
      <path class="cls-5" d="M72.8,78.71c.39,0,.71-.32.71-.71s-.32-.71-.71-.71-.71.32-.71.71.32.71.71.71"/>
      <path class="cls-5" d="M72.8,94.71c.39,0,.71-.32.71-.71s-.32-.71-.71-.71-.71.32-.71.71.32.71.71.71"/>
      <path class="cls-5" d="M72.8,110.71c.39,0,.71-.32.71-.71s-.32-.71-.71-.71-.71.32-.71.71.32.71.71.71"/>
      <path class="cls-5" d="M72.8,126.71c.39,0,.71-.32.71-.71s-.32-.71-.71-.71-.71.32-.71.71.32.71.71.71"/>
      <path class="cls-5" d="M72.8,142.71c.39,0,.71-.32.71-.71s-.32-.71-.71-.71-.71.32-.71.71.32.71.71.71"/>
      <path class="cls-5" d="M72.8,158.71c.39,0,.71-.32.71-.71s-.32-.71-.71-.71-.71.32-.71.71.32.71.71.71"/>
      <path class="cls-5" d="M72.8,174.71c.39,0,.71-.32.71-.71s-.32-.71-.71-.71-.71.32-.71.71.32.71.71.71"/>
      <path class="cls-5" d="M72.8,190.71c.39,0,.71-.32.71-.71s-.32-.71-.71-.71-.71.32-.71.71.32.71.71.71"/>
      <path class="cls-5" d="M72.8,206.71c.39,0,.71-.32.71-.71s-.32-.71-.71-.71-.71.32-.71.71.32.71.71.71"/>
      <path class="cls-5" d="M72.8,222.71c.39,0,.71-.32.71-.71s-.32-.71-.71-.71-.71.32-.71.71.32.71.71.71"/>
      <path class="cls-5" d="M72.8,238.71c.39,0,.71-.32.71-.71s-.32-.71-.71-.71-.71.32-.71.71.32.71.71.71"/>
      <path class="cls-5" d="M72.8,254.71c.39,0,.71-.32.71-.71s-.32-.71-.71-.71-.71.32-.71.71.32.71.71.71"/>
      <path class="cls-5" d="M72.8,270.71c.39,0,.71-.32.71-.71s-.32-.71-.71-.71-.71.32-.71.71.32.71.71.71"/>
      <path class="cls-5" d="M72.8,286.71c.39,0,.71-.32.71-.71s-.32-.71-.71-.71-.71.32-.71.71.32.71.71.71"/>
      <path class="cls-5" d="M72.8,302.71c.39,0,.71-.32.71-.71s-.32-.71-.71-.71-.71.32-.71.71.32.71.71.71"/>
      <path class="cls-5" d="M72.8,318.71c.39,0,.71-.32.71-.71s-.32-.71-.71-.71-.71.32-.71.71.32.71.71.71"/>
      <path class="cls-5" d="M72.8,334.71c.39,0,.71-.32.71-.71s-.32-.71-.71-.71-.71.32-.71.71.32.71.71.71"/>
      <path class="cls-5" d="M102.2,30.71c.39,0,.71-.32.71-.71s-.32-.71-.71-.71-.71.32-.71.71.32.71.71.71"/>
      <path class="cls-5" d="M102.2,46.71c.39,0,.71-.32.71-.71s-.32-.71-.71-.71-.71.32-.71.71.32.71.71.71"/>
      <path class="cls-5" d="M102.2,62.71c.39,0,.71-.32.71-.71s-.32-.71-.71-.71-.71.32-.71.71.32.71.71.71"/>
      <path class="cls-5" d="M102.2,78.71c.39,0,.71-.32.71-.71s-.32-.71-.71-.71-.71.32-.71.71.32.71.71.71"/>
      <path class="cls-5" d="M102.2,94.71c.39,0,.71-.32.71-.71s-.32-.71-.71-.71-.71.32-.71.71.32.71.71.71"/>
      <path class="cls-5" d="M102.2,110.71c.39,0,.71-.32.71-.71s-.32-.71-.71-.71-.71.32-.71.71.32.71.71.71"/>
      <path class="cls-5" d="M102.2,126.71c.39,0,.71-.32.71-.71s-.32-.71-.71-.71-.71.32-.71.71.32.71.71.71"/>
      <path class="cls-5" d="M102.2,142.71c.39,0,.71-.32.71-.71s-.32-.71-.71-.71-.71.32-.71.71.32.71.71.71"/>
      <path class="cls-5" d="M102.2,158.71c.39,0,.71-.32.71-.71s-.32-.71-.71-.71-.71.32-.71.71.32.71.71.71"/>
      <path class="cls-5" d="M102.2,174.71c.39,0,.71-.32.71-.71s-.32-.71-.71-.71-.71.32-.71.71.32.71.71.71"/>
      <path class="cls-5" d="M102.2,190.71c.39,0,.71-.32.71-.71s-.32-.71-.71-.71-.71.32-.71.71.32.71.71.71"/>
      <path class="cls-5" d="M102.2,206.71c.39,0,.71-.32.71-.71s-.32-.71-.71-.71-.71.32-.71.71.32.71.71.71"/>
      <path class="cls-5" d="M102.2,222.71c.39,0,.71-.32.71-.71s-.32-.71-.71-.71-.71.32-.71.71.32.71.71.71"/>
      <path class="cls-5" d="M102.2,238.71c.39,0,.71-.32.71-.71s-.32-.71-.71-.71-.71.32-.71.71.32.71.71.71"/>
      <path class="cls-5" d="M102.2,254.71c.39,0,.71-.32.71-.71s-.32-.71-.71-.71-.71.32-.71.71.32.71.71.71"/>
      <path class="cls-5" d="M102.2,270.71c.39,0,.71-.32.71-.71s-.32-.71-.71-.71-.71.32-.71.71.32.71.71.71"/>
      <path class="cls-5" d="M102.2,286.71c.39,0,.71-.32.71-.71s-.32-.71-.71-.71-.71.32-.71.71.32.71.71.71"/>
      <path class="cls-5" d="M102.2,302.71c.39,0,.71-.32.71-.71s-.32-.71-.71-.71-.71.32-.71.71.32.71.71.71"/>
      <path class="cls-5" d="M102.2,318.71c.39,0,.71-.32.71-.71s-.32-.71-.71-.71-.71.32-.71.71.32.71.71.71"/>
      <path class="cls-5" d="M102.2,334.71c.39,0,.71-.32.71-.71s-.32-.71-.71-.71-.71.32-.71.71.32.71.71.71"/>
      <path class="cls-5" d="M131.6,30.71c.39,0,.71-.32.71-.71s-.32-.71-.71-.71-.71.32-.71.71.32.71.71.71"/>
      <path class="cls-5" d="M131.6,46.71c.39,0,.71-.32.71-.71s-.32-.71-.71-.71-.71.32-.71.71.32.71.71.71"/>
      <path class="cls-5" d="M131.6,62.71c.39,0,.71-.32.71-.71s-.32-.71-.71-.71-.71.32-.71.71.32.71.71.71"/>
      <path class="cls-5" d="M131.6,78.71c.39,0,.71-.32.71-.71s-.32-.71-.71-.71-.71.32-.71.71.32.71.71.71"/>
      <path class="cls-5" d="M131.6,94.71c.39,0,.71-.32.71-.71s-.32-.71-.71-.71-.71.32-.71.71.32.71.71.71"/>
      <path class="cls-5" d="M131.6,110.71c.39,0,.71-.32.71-.71s-.32-.71-.71-.71-.71.32-.71.71.32.71.71.71"/>
      <path class="cls-5" d="M131.6,126.71c.39,0,.71-.32.71-.71s-.32-.71-.71-.71-.71.32-.71.71.32.71.71.71"/>
      <path class="cls-5" d="M131.6,142.71c.39,0,.71-.32.71-.71s-.32-.71-.71-.71-.71.32-.71.71.32.71.71.71"/>
      <path class="cls-5" d="M131.6,158.71c.39,0,.71-.32.71-.71s-.32-.71-.71-.71-.71.32-.71.71.32.71.71.71"/>
      <path class="cls-5" d="M131.6,174.71c.39,0,.71-.32.71-.71s-.32-.71-.71-.71-.71.32-.71.71.32.71.71.71"/>
      <path class="cls-5" d="M131.6,190.71c.39,0,.71-.32.71-.71s-.32-.71-.71-.71-.71.32-.71.71.32.71.71.71"/>
      <path class="cls-5" d="M131.6,206.71c.39,0,.71-.32.71-.71s-.32-.71-.71-.71-.71.32-.71.71.32.71.71.71"/>
      <path class="cls-5" d="M131.6,222.71c.39,0,.71-.32.71-.71s-.32-.71-.71-.71-.71.32-.71.71.32.71.71.71"/>
      <path class="cls-5" d="M131.6,238.71c.39,0,.71-.32.71-.71s-.32-.71-.71-.71-.71.32-.71.71.32.71.71.71"/>
      <path class="cls-5" d="M131.6,254.71c.39,0,.71-.32.71-.71s-.32-.71-.71-.71-.71.32-.71.71.32.71.71.71"/>
      <path class="cls-5" d="M131.6,270.71c.39,0,.71-.32.71-.71s-.32-.71-.71-.71-.71.32-.71.71.32.71.71.71"/>
      <path class="cls-5" d="M131.6,286.71c.39,0,.71-.32.71-.71s-.32-.71-.71-.71-.71.32-.71.71.32.71.71.71"/>
      <path class="cls-5" d="M131.6,302.71c.39,0,.71-.32.71-.71s-.32-.71-.71-.71-.71.32-.71.71.32.71.71.71"/>
      <path class="cls-5" d="M131.6,318.71c.39,0,.71-.32.71-.71s-.32-.71-.71-.71-.71.32-.71.71.32.71.71.71"/>
      <path class="cls-5" d="M131.6,334.71c.39,0,.71-.32.71-.71s-.32-.71-.71-.71-.71.32-.71.71.32.71.71.71"/>
      <path class="cls-5" d="M161,30.71c.39,0,.71-.32.71-.71s-.32-.71-.71-.71-.71.32-.71.71.32.71.71.71"/>
      <path class="cls-5" d="M161,46.71c.39,0,.71-.32.71-.71s-.32-.71-.71-.71-.71.32-.71.71.32.71.71.71"/>
      <path class="cls-5" d="M161,62.71c.39,0,.71-.32.71-.71s-.32-.71-.71-.71-.71.32-.71.71.32.71.71.71"/>
      <path class="cls-5" d="M161,78.71c.39,0,.71-.32.71-.71s-.32-.71-.71-.71-.71.32-.71.71.32.71.71.71"/>
      <path class="cls-5" d="M161,94.71c.39,0,.71-.32.71-.71s-.32-.71-.71-.71-.71.32-.71.71.32.71.71.71"/>
      <path class="cls-5" d="M161,110.71c.39,0,.71-.32.71-.71s-.32-.71-.71-.71-.71.32-.71.71.32.71.71.71"/>
      <path class="cls-5" d="M161,126.71c.39,0,.71-.32.71-.71s-.32-.71-.71-.71-.71.32-.71.71.32.71.71.71"/>
      <path class="cls-5" d="M161,142.71c.39,0,.71-.32.71-.71s-.32-.71-.71-.71-.71.32-.71.71.32.71.71.71"/>
      <path class="cls-5" d="M161,158.71c.39,0,.71-.32.71-.71s-.32-.71-.71-.71-.71.32-.71.71.32.71.71.71"/>
      <path class="cls-5" d="M161,174.71c.39,0,.71-.32.71-.71s-.32-.71-.71-.71-.71.32-.71.71.32.71.71.71"/>
      <path class="cls-5" d="M161,190.71c.39,0,.71-.32.71-.71s-.32-.71-.71-.71-.71.32-.71.71.32.71.71.71"/>
      <path class="cls-5" d="M161,206.71c.39,0,.71-.32.71-.71s-.32-.71-.71-.71-.71.32-.71.71.32.71.71.71"/>
      <path class="cls-5" d="M161,222.71c.39,0,.71-.32.71-.71s-.32-.71-.71-.71-.71.32-.71.71.32.71.71.71"/>
      <path class="cls-5" d="M161,238.71c.39,0,.71-.32.71-.71s-.32-.71-.71-.71-.71.32-.71.71.32.71.71.71"/>
      <path class="cls-5" d="M161,254.71c.39,0,.71-.32.71-.71s-.32-.71-.71-.71-.71.32-.71.71.32.71.71.71"/>
      <path class="cls-5" d="M161,270.71c.39,0,.71-.32.71-.71s-.32-.71-.71-.71-.71.32-.71.71.32.71.71.71"/>
      <path class="cls-5" d="M161,286.71c.39,0,.71-.32.71-.71s-.32-.71-.71-.71-.71.32-.71.71.32.71.71.71"/>
      <path class="cls-5" d="M161,302.71c.39,0,.71-.32.71-.71s-.32-.71-.71-.71-.71.32-.71.71.32.71.71.71"/>
      <path class="cls-5" d="M161,318.71c.39,0,.71-.32.71-.71s-.32-.71-.71-.71-.71.32-.71.71.32.71.71.71"/>
      <path class="cls-5" d="M161,334.71c.39,0,.71-.32.71-.71s-.32-.71-.71-.71-.71.32-.71.71.32.71.71.71"/>
      <path class="cls-5" d="M190.4,30.71c.39,0,.71-.32.71-.71s-.32-.71-.71-.71-.71.32-.71.71.32.71.71.71"/>
      <path class="cls-5" d="M190.4,46.71c.39,0,.71-.32.71-.71s-.32-.71-.71-.71-.71.32-.71.71.32.71.71.71"/>
      <path class="cls-5" d="M190.4,62.71c.39,0,.71-.32.71-.71s-.32-.71-.71-.71-.71.32-.71.71.32.71.71.71"/>
      <path class="cls-5" d="M190.4,78.71c.39,0,.71-.32.71-.71s-.32-.71-.71-.71-.71.32-.71.71.32.71.71.71"/>
      <path class="cls-5" d="M190.4,94.71c.39,0,.71-.32.71-.71s-.32-.71-.71-.71-.71.32-.71.71.32.71.71.71"/>
      <path class="cls-5" d="M190.4,110.71c.39,0,.71-.32.71-.71s-.32-.71-.71-.71-.71.32-.71.71.32.71.71.71"/>
      <path class="cls-5" d="M190.4,126.71c.39,0,.71-.32.71-.71s-.32-.71-.71-.71-.71.32-.71.71.32.71.71.71"/>
      <path class="cls-5" d="M190.4,142.71c.39,0,.71-.32.71-.71s-.32-.71-.71-.71-.71.32-.71.71.32.71.71.71"/>
      <path class="cls-5" d="M190.4,158.71c.39,0,.71-.32.71-.71s-.32-.71-.71-.71-.71.32-.71.71.32.71.71.71"/>
      <path class="cls-5" d="M190.4,174.71c.39,0,.71-.32.71-.71s-.32-.71-.71-.71-.71.32-.71.71.32.71.71.71"/>
      <path class="cls-5" d="M190.4,190.71c.39,0,.71-.32.71-.71s-.32-.71-.71-.71-.71.32-.71.71.32.71.71.71"/>
      <path class="cls-5" d="M190.4,206.71c.39,0,.71-.32.71-.71s-.32-.71-.71-.71-.71.32-.71.71.32.71.71.71"/>
      <path class="cls-5" d="M190.4,222.71c.39,0,.71-.32.71-.71s-.32-.71-.71-.71-.71.32-.71.71.32.71.71.71"/>
      <path class="cls-5" d="M190.4,238.71c.39,0,.71-.32.71-.71s-.32-.71-.71-.71-.71.32-.71.71.32.71.71.71"/>
      <path class="cls-5" d="M190.4,254.71c.39,0,.71-.32.71-.71s-.32-.71-.71-.71-.71.32-.71.71.32.71.71.71"/>
      <path class="cls-5" d="M190.4,270.71c.39,0,.71-.32.71-.71s-.32-.71-.71-.71-.71.32-.71.71.32.71.71.71"/>
      <path class="cls-5" d="M190.4,286.71c.39,0,.71-.32.71-.71s-.32-.71-.71-.71-.71.32-.71.71.32.71.71.71"/>
      <path class="cls-5" d="M190.4,302.71c.39,0,.71-.32.71-.71s-.32-.71-.71-.71-.71.32-.71.71.32.71.71.71"/>
      <path class="cls-5" d="M190.4,318.71c.39,0,.71-.32.71-.71s-.32-.71-.71-.71-.71.32-.71.71.32.71.71.71"/>
      <path class="cls-5" d="M190.4,334.71c.39,0,.71-.32.71-.71s-.32-.71-.71-.71-.71.32-.71.71.32.71.71.71"/>
      <path class="cls-5" d="M219.8,30.71c.39,0,.71-.32.71-.71s-.32-.71-.71-.71-.71.32-.71.71.32.71.71.71"/>
      <path class="cls-5" d="M219.8,46.71c.39,0,.71-.32.71-.71s-.32-.71-.71-.71-.71.32-.71.71.32.71.71.71"/>
      <path class="cls-5" d="M219.8,62.71c.39,0,.71-.32.71-.71s-.32-.71-.71-.71-.71.32-.71.71.32.71.71.71"/>
      <path class="cls-5" d="M219.8,78.71c.39,0,.71-.32.71-.71s-.32-.71-.71-.71-.71.32-.71.71.32.71.71.71"/>
      <path class="cls-5" d="M219.8,94.71c.39,0,.71-.32.71-.71s-.32-.71-.71-.71-.71.32-.71.71.32.71.71.71"/>
      <path class="cls-5" d="M219.8,110.71c.39,0,.71-.32.71-.71s-.32-.71-.71-.71-.71.32-.71.71.32.71.71.71"/>
      <path class="cls-5" d="M219.8,126.71c.39,0,.71-.32.71-.71s-.32-.71-.71-.71-.71.32-.71.71.32.71.71.71"/>
      <path class="cls-5" d="M219.8,142.71c.39,0,.71-.32.71-.71s-.32-.71-.71-.71-.71.32-.71.71.32.71.71.71"/>
      <path class="cls-5" d="M219.8,158.71c.39,0,.71-.32.71-.71s-.32-.71-.71-.71-.71.32-.71.71.32.71.71.71"/>
      <path class="cls-5" d="M219.8,174.71c.39,0,.71-.32.71-.71s-.32-.71-.71-.71-.71.32-.71.71.32.71.71.71"/>
      <path class="cls-5" d="M219.8,190.71c.39,0,.71-.32.71-.71s-.32-.71-.71-.71-.71.32-.71.71.32.71.71.71"/>
      <path class="cls-5" d="M219.8,206.71c.39,0,.71-.32.71-.71s-.32-.71-.71-.71-.71.32-.71.71.32.71.71.71"/>
      <path class="cls-5" d="M219.8,222.71c.39,0,.71-.32.71-.71s-.32-.71-.71-.71-.71.32-.71.71.32.71.71.71"/>
      <path class="cls-5" d="M219.8,238.71c.39,0,.71-.32.71-.71s-.32-.71-.71-.71-.71.32-.71.71.32.71.71.71"/>
      <path class="cls-5" d="M219.8,254.71c.39,0,.71-.32.71-.71s-.32-.71-.71-.71-.71.32-.71.71.32.71.71.71"/>
      <path class="cls-5" d="M219.8,270.71c.39,0,.71-.32.71-.71s-.32-.71-.71-.71-.71.32-.71.71.32.71.71.71"/>
      <path class="cls-5" d="M219.8,286.71c.39,0,.71-.32.71-.71s-.32-.71-.71-.71-.71.32-.71.71.32.71.71.71"/>
      <path class="cls-5" d="M219.8,302.71c.39,0,.71-.32.71-.71s-.32-.71-.71-.71-.71.32-.71.71.32.71.71.71"/>
      <path class="cls-5" d="M219.8,318.71c.39,0,.71-.32.71-.71s-.32-.71-.71-.71-.71.32-.71.71.32.71.71.71"/>
      <path class="cls-5" d="M219.8,334.71c.39,0,.71-.32.71-.71s-.32-.71-.71-.71-.71.32-.71.71.32.71.71.71"/>
      <path class="cls-5" d="M249.2,30.71c.39,0,.71-.32.71-.71s-.32-.71-.71-.71-.71.32-.71.71.32.71.71.71"/>
      <path class="cls-5" d="M249.2,46.71c.39,0,.71-.32.71-.71s-.32-.71-.71-.71-.71.32-.71.71.32.71.71.71"/>
      <path class="cls-5" d="M249.2,62.71c.39,0,.71-.32.71-.71s-.32-.71-.71-.71-.71.32-.71.71.32.71.71.71"/>
      <path class="cls-5" d="M249.2,78.71c.39,0,.71-.32.71-.71s-.32-.71-.71-.71-.71.32-.71.71.32.71.71.71"/>
      <path class="cls-5" d="M249.2,94.71c.39,0,.71-.32.71-.71s-.32-.71-.71-.71-.71.32-.71.71.32.71.71.71"/>
      <path class="cls-5" d="M249.2,110.71c.39,0,.71-.32.71-.71s-.32-.71-.71-.71-.71.32-.71.71.32.71.71.71"/>
      <path class="cls-5" d="M249.2,126.71c.39,0,.71-.32.71-.71s-.32-.71-.71-.71-.71.32-.71.71.32.71.71.71"/>
      <path class="cls-5" d="M249.2,142.71c.39,0,.71-.32.71-.71s-.32-.71-.71-.71-.71.32-.71.71.32.71.71.71"/>
      <path class="cls-5" d="M249.2,158.71c.39,0,.71-.32.71-.71s-.32-.71-.71-.71-.71.32-.71.71.32.71.71.71"/>
      <path class="cls-5" d="M249.2,174.71c.39,0,.71-.32.71-.71s-.32-.71-.71-.71-.71.32-.71.71.32.71.71.71"/>
      <path class="cls-5" d="M249.2,190.71c.39,0,.71-.32.71-.71s-.32-.71-.71-.71-.71.32-.71.71.32.71.71.71"/>
      <path class="cls-5" d="M249.2,206.71c.39,0,.71-.32.71-.71s-.32-.71-.71-.71-.71.32-.71.71.32.71.71.71"/>
      <path class="cls-5" d="M249.2,222.71c.39,0,.71-.32.71-.71s-.32-.71-.71-.71-.71.32-.71.71.32.71.71.71"/>
      <path class="cls-5" d="M249.2,238.71c.39,0,.71-.32.71-.71s-.32-.71-.71-.71-.71.32-.71.71.32.71.71.71"/>
      <path class="cls-5" d="M249.2,254.71c.39,0,.71-.32.71-.71s-.32-.71-.71-.71-.71.32-.71.71.32.71.71.71"/>
      <path class="cls-5" d="M249.2,270.71c.39,0,.71-.32.71-.71s-.32-.71-.71-.71-.71.32-.71.71.32.71.71.71"/>
      <path class="cls-5" d="M249.2,286.71c.39,0,.71-.32.71-.71s-.32-.71-.71-.71-.71.32-.71.71.32.71.71.71"/>
      <path class="cls-5" d="M249.2,302.71c.39,0,.71-.32.71-.71s-.32-.71-.71-.71-.71.32-.71.71.32.71.71.71"/>
      <path class="cls-5" d="M249.2,318.71c.39,0,.71-.32.71-.71s-.32-.71-.71-.71-.71.32-.71.71.32.71.71.71"/>
      <path class="cls-5" d="M249.2,334.71c.39,0,.71-.32.71-.71s-.32-.71-.71-.71-.71.32-.71.71.32.71.71.71"/>
      <path class="cls-5" d="M278.6,30.71c.39,0,.71-.32.71-.71s-.32-.71-.71-.71-.71.32-.71.71.32.71.71.71"/>
      <path class="cls-5" d="M278.6,46.71c.39,0,.71-.32.71-.71s-.32-.71-.71-.71-.71.32-.71.71.32.71.71.71"/>
      <path class="cls-5" d="M278.6,62.71c.39,0,.71-.32.71-.71s-.32-.71-.71-.71-.71.32-.71.71.32.71.71.71"/>
      <path class="cls-5" d="M278.6,78.71c.39,0,.71-.32.71-.71s-.32-.71-.71-.71-.71.32-.71.71.32.71.71.71"/>
      <path class="cls-5" d="M278.6,94.71c.39,0,.71-.32.71-.71s-.32-.71-.71-.71-.71.32-.71.71.32.71.71.71"/>
      <path class="cls-5" d="M278.6,110.71c.39,0,.71-.32.71-.71s-.32-.71-.71-.71-.71.32-.71.71.32.71.71.71"/>
      <path class="cls-5" d="M278.6,126.71c.39,0,.71-.32.71-.71s-.32-.71-.71-.71-.71.32-.71.71.32.71.71.71"/>
      <path class="cls-5" d="M278.6,142.71c.39,0,.71-.32.71-.71s-.32-.71-.71-.71-.71.32-.71.71.32.71.71.71"/>
      <path class="cls-5" d="M278.6,158.71c.39,0,.71-.32.71-.71s-.32-.71-.71-.71-.71.32-.71.71.32.71.71.71"/>
      <path class="cls-5" d="M278.6,174.71c.39,0,.71-.32.71-.71s-.32-.71-.71-.71-.71.32-.71.71.32.71.71.71"/>
      <path class="cls-5" d="M278.6,190.71c.39,0,.71-.32.71-.71s-.32-.71-.71-.71-.71.32-.71.71.32.71.71.71"/>
      <path class="cls-5" d="M278.6,206.71c.39,0,.71-.32.71-.71s-.32-.71-.71-.71-.71.32-.71.71.32.71.71.71"/>
      <path class="cls-5" d="M278.6,222.71c.39,0,.71-.32.71-.71s-.32-.71-.71-.71-.71.32-.71.71.32.71.71.71"/>
      <path class="cls-5" d="M278.6,238.71c.39,0,.71-.32.71-.71s-.32-.71-.71-.71-.71.32-.71.71.32.71.71.71"/>
      <path class="cls-5" d="M278.6,254.71c.39,0,.71-.32.71-.71s-.32-.71-.71-.71-.71.32-.71.71.32.71.71.71"/>
      <path class="cls-5" d="M278.6,270.71c.39,0,.71-.32.71-.71s-.32-.71-.71-.71-.71.32-.71.71.32.71.71.71"/>
      <path class="cls-5" d="M278.6,286.71c.39,0,.71-.32.71-.71s-.32-.71-.71-.71-.71.32-.71.71.32.71.71.71"/>
      <path class="cls-5" d="M278.6,302.71c.39,0,.71-.32.71-.71s-.32-.71-.71-.71-.71.32-.71.71.32.71.71.71"/>
      <path class="cls-5" d="M278.6,318.71c.39,0,.71-.32.71-.71s-.32-.71-.71-.71-.71.32-.71.71.32.71.71.71"/>
      <path class="cls-5" d="M278.6,334.71c.39,0,.71-.32.71-.71s-.32-.71-.71-.71-.71.32-.71.71.32.71.71.71"/>
      <path class="cls-5" d="M308,30.71c.39,0,.71-.32.71-.71s-.32-.71-.71-.71-.71.32-.71.71.32.71.71.71"/>
      <path class="cls-5" d="M308,46.71c.39,0,.71-.32.71-.71s-.32-.71-.71-.71-.71.32-.71.71.32.71.71.71"/>
      <path class="cls-5" d="M308,62.71c.39,0,.71-.32.71-.71s-.32-.71-.71-.71-.71.32-.71.71.32.71.71.71"/>
      <path class="cls-5" d="M308,78.71c.39,0,.71-.32.71-.71s-.32-.71-.71-.71-.71.32-.71.71.32.71.71.71"/>
      <path class="cls-5" d="M308,94.71c.39,0,.71-.32.71-.71s-.32-.71-.71-.71-.71.32-.71.71.32.71.71.71"/>
      <path class="cls-5" d="M308,110.71c.39,0,.71-.32.71-.71s-.32-.71-.71-.71-.71.32-.71.71.32.71.71.71"/>
      <path class="cls-5" d="M308,126.71c.39,0,.71-.32.71-.71s-.32-.71-.71-.71-.71.32-.71.71.32.71.71.71"/>
      <path class="cls-5" d="M308,142.71c.39,0,.71-.32.71-.71s-.32-.71-.71-.71-.71.32-.71.71.32.71.71.71"/>
      <path class="cls-5" d="M308,158.71c.39,0,.71-.32.71-.71s-.32-.71-.71-.71-.71.32-.71.71.32.71.71.71"/>
      <path class="cls-5" d="M308,174.71c.39,0,.71-.32.71-.71s-.32-.71-.71-.71-.71.32-.71.71.32.71.71.71"/>
      <path class="cls-5" d="M308,190.71c.39,0,.71-.32.71-.71s-.32-.71-.71-.71-.71.32-.71.71.32.71.71.71"/>
      <path class="cls-5" d="M308,206.71c.39,0,.71-.32.71-.71s-.32-.71-.71-.71-.71.32-.71.71.32.71.71.71"/>
      <path class="cls-5" d="M308,222.71c.39,0,.71-.32.71-.71s-.32-.71-.71-.71-.71.32-.71.71.32.71.71.71"/>
      <path class="cls-5" d="M308,238.71c.39,0,.71-.32.71-.71s-.32-.71-.71-.71-.71.32-.71.71.32.71.71.71"/>
      <path class="cls-5" d="M308,254.71c.39,0,.71-.32.71-.71s-.32-.71-.71-.71-.71.32-.71.71.32.71.71.71"/>
      <path class="cls-5" d="M308,270.71c.39,0,.71-.32.71-.71s-.32-.71-.71-.71-.71.32-.71.71.32.71.71.71"/>
      <path class="cls-5" d="M308,286.71c.39,0,.71-.32.71-.71s-.32-.71-.71-.71-.71.32-.71.71.32.71.71.71"/>
      <path class="cls-5" d="M308,302.71c.39,0,.71-.32.71-.71s-.32-.71-.71-.71-.71.32-.71.71.32.71.71.71"/>
      <path class="cls-5" d="M308,318.71c.39,0,.71-.32.71-.71s-.32-.71-.71-.71-.71.32-.71.71.32.71.71.71"/>
      <path class="cls-5" d="M308,334.71c.39,0,.71-.32.71-.71s-.32-.71-.71-.71-.71.32-.71.71.32.71.71.71"/>
      <path class="cls-5" d="M337.4,30.71c.39,0,.71-.32.71-.71s-.32-.71-.71-.71-.71.32-.71.71.32.71.71.71"/>
      <path class="cls-5" d="M337.4,46.71c.39,0,.71-.32.71-.71s-.32-.71-.71-.71-.71.32-.71.71.32.71.71.71"/>
      <path class="cls-5" d="M337.4,62.71c.39,0,.71-.32.71-.71s-.32-.71-.71-.71-.71.32-.71.71.32.71.71.71"/>
      <path class="cls-5" d="M337.4,78.71c.39,0,.71-.32.71-.71s-.32-.71-.71-.71-.71.32-.71.71.32.71.71.71"/>
      <path class="cls-5" d="M337.4,94.71c.39,0,.71-.32.71-.71s-.32-.71-.71-.71-.71.32-.71.71.32.71.71.71"/>
      <path class="cls-5" d="M337.4,110.71c.39,0,.71-.32.71-.71s-.32-.71-.71-.71-.71.32-.71.71.32.71.71.71"/>
      <path class="cls-5" d="M337.4,126.71c.39,0,.71-.32.71-.71s-.32-.71-.71-.71-.71.32-.71.71.32.71.71.71"/>
      <path class="cls-5" d="M337.4,142.71c.39,0,.71-.32.71-.71s-.32-.71-.71-.71-.71.32-.71.71.32.71.71.71"/>
      <path class="cls-5" d="M337.4,158.71c.39,0,.71-.32.71-.71s-.32-.71-.71-.71-.71.32-.71.71.32.71.71.71"/>
      <path class="cls-5" d="M337.4,174.71c.39,0,.71-.32.71-.71s-.32-.71-.71-.71-.71.32-.71.71.32.71.71.71"/>
      <path class="cls-5" d="M337.4,190.71c.39,0,.71-.32.71-.71s-.32-.71-.71-.71-.71.32-.71.71.32.71.71.71"/>
      <path class="cls-5" d="M337.4,206.71c.39,0,.71-.32.71-.71s-.32-.71-.71-.71-.71.32-.71.71.32.71.71.71"/>
      <path class="cls-5" d="M337.4,222.71c.39,0,.71-.32.71-.71s-.32-.71-.71-.71-.71.32-.71.71.32.71.71.71"/>
      <path class="cls-5" d="M337.4,238.71c.39,0,.71-.32.71-.71s-.32-.71-.71-.71-.71.32-.71.71.32.71.71.71"/>
      <path class="cls-5" d="M337.4,254.71c.39,0,.71-.32.71-.71s-.32-.71-.71-.71-.71.32-.71.71.32.71.71.71"/>
      <path class="cls-5" d="M337.4,270.71c.39,0,.71-.32.71-.71s-.32-.71-.71-.71-.71.32-.71.71.32.71.71.71"/>
      <path class="cls-5" d="M337.4,286.71c.39,0,.71-.32.71-.71s-.32-.71-.71-.71-.71.32-.71.71.32.71.71.71"/>
      <path class="cls-5" d="M337.4,302.71c.39,0,.71-.32.71-.71s-.32-.71-.71-.71-.71.32-.71.71.32.71.71.71"/>
      <path class="cls-5" d="M337.4,318.71c.39,0,.71-.32.71-.71s-.32-.71-.71-.71-.71.32-.71.71.32.71.71.71"/>
      <path class="cls-5" d="M337.4,334.71c.39,0,.71-.32.71-.71s-.32-.71-.71-.71-.71.32-.71.71.32.71.71.71"/>
      <path class="cls-5" d="M366.8,30.71c.39,0,.71-.32.71-.71s-.32-.71-.71-.71-.71.32-.71.71.32.71.71.71"/>
      <path class="cls-5" d="M366.8,46.71c.39,0,.71-.32.71-.71s-.32-.71-.71-.71-.71.32-.71.71.32.71.71.71"/>
      <path class="cls-5" d="M366.8,62.71c.39,0,.71-.32.71-.71s-.32-.71-.71-.71-.71.32-.71.71.32.71.71.71"/>
      <path class="cls-5" d="M366.8,78.71c.39,0,.71-.32.71-.71s-.32-.71-.71-.71-.71.32-.71.71.32.71.71.71"/>
      <path class="cls-5" d="M366.8,94.71c.39,0,.71-.32.71-.71s-.32-.71-.71-.71-.71.32-.71.71.32.71.71.71"/>
      <path class="cls-5" d="M366.8,110.71c.39,0,.71-.32.71-.71s-.32-.71-.71-.71-.71.32-.71.71.32.71.71.71"/>
      <path class="cls-5" d="M366.8,126.71c.39,0,.71-.32.71-.71s-.32-.71-.71-.71-.71.32-.71.71.32.71.71.71"/>
      <path class="cls-5" d="M366.8,142.71c.39,0,.71-.32.71-.71s-.32-.71-.71-.71-.71.32-.71.71.32.71.71.71"/>
      <path class="cls-5" d="M366.8,158.71c.39,0,.71-.32.71-.71s-.32-.71-.71-.71-.71.32-.71.71.32.71.71.71"/>
      <path class="cls-5" d="M366.8,174.71c.39,0,.71-.32.71-.71s-.32-.71-.71-.71-.71.32-.71.71.32.71.71.71"/>
      <path class="cls-5" d="M366.8,190.71c.39,0,.71-.32.71-.71s-.32-.71-.71-.71-.71.32-.71.71.32.71.71.71"/>
      <path class="cls-5" d="M366.8,206.71c.39,0,.71-.32.71-.71s-.32-.71-.71-.71-.71.32-.71.71.32.71.71.71"/>
      <path class="cls-5" d="M366.8,222.71c.39,0,.71-.32.71-.71s-.32-.71-.71-.71-.71.32-.71.71.32.71.71.71"/>
      <path class="cls-5" d="M366.8,238.71c.39,0,.71-.32.71-.71s-.32-.71-.71-.71-.71.32-.71.71.32.71.71.71"/>
      <path class="cls-5" d="M366.8,254.71c.39,0,.71-.32.71-.71s-.32-.71-.71-.71-.71.32-.71.71.32.71.71.71"/>
      <path class="cls-5" d="M366.8,270.71c.39,0,.71-.32.71-.71s-.32-.71-.71-.71-.71.32-.71.71.32.71.71.71"/>
      <path class="cls-5" d="M366.8,286.71c.39,0,.71-.32.71-.71s-.32-.71-.71-.71-.71.32-.71.71.32.71.71.71"/>
      <path class="cls-5" d="M366.8,302.71c.39,0,.71-.32.71-.71s-.32-.71-.71-.71-.71.32-.71.71.32.71.71.71"/>
      <path class="cls-5" d="M366.8,318.71c.39,0,.71-.32.71-.71s-.32-.71-.71-.71-.71.32-.71.71.32.71.71.71"/>
      <path class="cls-5" d="M366.8,334.71c.39,0,.71-.32.71-.71s-.32-.71-.71-.71-.71.32-.71.71.32.71.71.71"/>
      <path class="cls-5" d="M396.2,30.71c.39,0,.71-.32.71-.71s-.32-.71-.71-.71-.71.32-.71.71.32.71.71.71"/>
      <path class="cls-5" d="M396.2,46.71c.39,0,.71-.32.71-.71s-.32-.71-.71-.71-.71.32-.71.71.32.71.71.71"/>
      <path class="cls-5" d="M396.2,62.71c.39,0,.71-.32.71-.71s-.32-.71-.71-.71-.71.32-.71.71.32.71.71.71"/>
      <path class="cls-5" d="M396.2,78.71c.39,0,.71-.32.71-.71s-.32-.71-.71-.71-.71.32-.71.71.32.71.71.71"/>
      <path class="cls-5" d="M396.2,94.71c.39,0,.71-.32.71-.71s-.32-.71-.71-.71-.71.32-.71.71.32.71.71.71"/>
      <path class="cls-5" d="M396.2,110.71c.39,0,.71-.32.71-.71s-.32-.71-.71-.71-.71.32-.71.71.32.71.71.71"/>
      <path class="cls-5" d="M396.2,126.71c.39,0,.71-.32.71-.71s-.32-.71-.71-.71-.71.32-.71.71.32.71.71.71"/>
      <path class="cls-5" d="M396.2,142.71c.39,0,.71-.32.71-.71s-.32-.71-.71-.71-.71.32-.71.71.32.71.71.71"/>
      <path class="cls-5" d="M396.2,158.71c.39,0,.71-.32.71-.71s-.32-.71-.71-.71-.71.32-.71.71.32.71.71.71"/>
      <path class="cls-5" d="M396.2,174.71c.39,0,.71-.32.71-.71s-.32-.71-.71-.71-.71.32-.71.71.32.71.71.71"/>
      <path class="cls-5" d="M396.2,190.71c.39,0,.71-.32.71-.71s-.32-.71-.71-.71-.71.32-.71.71.32.71.71.71"/>
      <path class="cls-5" d="M396.2,206.71c.39,0,.71-.32.71-.71s-.32-.71-.71-.71-.71.32-.71.71.32.71.71.71"/>
      <path class="cls-5" d="M396.2,222.71c.39,0,.71-.32.71-.71s-.32-.71-.71-.71-.71.32-.71.71.32.71.71.71"/>
      <path class="cls-5" d="M396.2,238.71c.39,0,.71-.32.71-.71s-.32-.71-.71-.71-.71.32-.71.71.32.71.71.71"/>
      <path class="cls-5" d="M396.2,254.71c.39,0,.71-.32.71-.71s-.32-.71-.71-.71-.71.32-.71.71.32.71.71.71"/>
      <path class="cls-5" d="M396.2,270.71c.39,0,.71-.32.71-.71s-.32-.71-.71-.71-.71.32-.71.71.32.71.71.71"/>
      <path class="cls-5" d="M396.2,286.71c.39,0,.71-.32.71-.71s-.32-.71-.71-.71-.71.32-.71.71.32.71.71.71"/>
      <path class="cls-5" d="M396.2,302.71c.39,0,.71-.32.71-.71s-.32-.71-.71-.71-.71.32-.71.71.32.71.71.71"/>
      <path class="cls-5" d="M396.2,318.71c.39,0,.71-.32.71-.71s-.32-.71-.71-.71-.71.32-.71.71.32.71.71.71"/>
      <path class="cls-5" d="M396.2,334.71c.39,0,.71-.32.71-.71s-.32-.71-.71-.71-.71.32-.71.71.32.71.71.71"/>
      <path class="cls-5" d="M425.6,30.71c.39,0,.71-.32.71-.71s-.32-.71-.71-.71-.71.32-.71.71.32.71.71.71"/>
      <path class="cls-5" d="M425.6,46.71c.39,0,.71-.32.71-.71s-.32-.71-.71-.71-.71.32-.71.71.32.71.71.71"/>
      <path class="cls-5" d="M425.6,62.71c.39,0,.71-.32.71-.71s-.32-.71-.71-.71-.71.32-.71.71.32.71.71.71"/>
      <path class="cls-5" d="M425.6,78.71c.39,0,.71-.32.71-.71s-.32-.71-.71-.71-.71.32-.71.71.32.71.71.71"/>
      <path class="cls-5" d="M425.6,94.71c.39,0,.71-.32.71-.71s-.32-.71-.71-.71-.71.32-.71.71.32.71.71.71"/>
      <path class="cls-5" d="M425.6,110.71c.39,0,.71-.32.71-.71s-.32-.71-.71-.71-.71.32-.71.71.32.71.71.71"/>
      <path class="cls-5" d="M425.6,126.71c.39,0,.71-.32.71-.71s-.32-.71-.71-.71-.71.32-.71.71.32.71.71.71"/>
      <path class="cls-5" d="M425.6,142.71c.39,0,.71-.32.71-.71s-.32-.71-.71-.71-.71.32-.71.71.32.71.71.71"/>
      <path class="cls-5" d="M425.6,158.71c.39,0,.71-.32.71-.71s-.32-.71-.71-.71-.71.32-.71.71.32.71.71.71"/>
      <path class="cls-5" d="M425.6,174.71c.39,0,.71-.32.71-.71s-.32-.71-.71-.71-.71.32-.71.71.32.71.71.71"/>
      <path class="cls-5" d="M425.6,190.71c.39,0,.71-.32.71-.71s-.32-.71-.71-.71-.71.32-.71.71.32.71.71.71"/>
      <path class="cls-5" d="M425.6,206.71c.39,0,.71-.32.71-.71s-.32-.71-.71-.71-.71.32-.71.71.32.71.71.71"/>
      <path class="cls-5" d="M425.6,222.71c.39,0,.71-.32.71-.71s-.32-.71-.71-.71-.71.32-.71.71.32.71.71.71"/>
      <path class="cls-5" d="M425.6,238.71c.39,0,.71-.32.71-.71s-.32-.71-.71-.71-.71.32-.71.71.32.71.71.71"/>
      <path class="cls-5" d="M425.6,254.71c.39,0,.71-.32.71-.71s-.32-.71-.71-.71-.71.32-.71.71.32.71.71.71"/>
      <path class="cls-5" d="M425.6,270.71c.39,0,.71-.32.71-.71s-.32-.71-.71-.71-.71.32-.71.71.32.71.71.71"/>
      <path class="cls-5" d="M425.6,286.71c.39,0,.71-.32.71-.71s-.32-.71-.71-.71-.71.32-.71.71.32.71.71.71"/>
      <path class="cls-5" d="M425.6,302.71c.39,0,.71-.32.71-.71s-.32-.71-.71-.71-.71.32-.71.71.32.71.71.71"/>
      <path class="cls-5" d="M425.6,318.71c.39,0,.71-.32.71-.71s-.32-.71-.71-.71-.71.32-.71.71.32.71.71.71"/>
      <path class="cls-5" d="M425.6,334.71c.39,0,.71-.32.71-.71s-.32-.71-.71-.71-.71.32-.71.71.32.71.71.71"/>
      <path class="cls-5" d="M455,30.71c.39,0,.71-.32.71-.71s-.32-.71-.71-.71-.71.32-.71.71.32.71.71.71"/>
      <path class="cls-5" d="M455,46.71c.39,0,.71-.32.71-.71s-.32-.71-.71-.71-.71.32-.71.71.32.71.71.71"/>
      <path class="cls-5" d="M455,62.71c.39,0,.71-.32.71-.71s-.32-.71-.71-.71-.71.32-.71.71.32.71.71.71"/>
      <path class="cls-5" d="M455,78.71c.39,0,.71-.32.71-.71s-.32-.71-.71-.71-.71.32-.71.71.32.71.71.71"/>
      <path class="cls-5" d="M455,94.71c.39,0,.71-.32.71-.71s-.32-.71-.71-.71-.71.32-.71.71.32.71.71.71"/>
      <path class="cls-5" d="M455,110.71c.39,0,.71-.32.71-.71s-.32-.71-.71-.71-.71.32-.71.71.32.71.71.71"/>
      <path class="cls-5" d="M455,126.71c.39,0,.71-.32.71-.71s-.32-.71-.71-.71-.71.32-.71.71.32.71.71.71"/>
      <path class="cls-5" d="M455,142.71c.39,0,.71-.32.71-.71s-.32-.71-.71-.71-.71.32-.71.71.32.71.71.71"/>
      <path class="cls-5" d="M455,158.71c.39,0,.71-.32.71-.71s-.32-.71-.71-.71-.71.32-.71.71.32.71.71.71"/>
      <path class="cls-5" d="M455,174.71c.39,0,.71-.32.71-.71s-.32-.71-.71-.71-.71.32-.71.71.32.71.71.71"/>
      <path class="cls-5" d="M455,190.71c.39,0,.71-.32.71-.71s-.32-.71-.71-.71-.71.32-.71.71.32.71.71.71"/>
      <path class="cls-5" d="M455,206.71c.39,0,.71-.32.71-.71s-.32-.71-.71-.71-.71.32-.71.71.32.71.71.71"/>
      <path class="cls-5" d="M455,222.71c.39,0,.71-.32.71-.71s-.32-.71-.71-.71-.71.32-.71.71.32.71.71.71"/>
      <path class="cls-5" d="M455,238.71c.39,0,.71-.32.71-.71s-.32-.71-.71-.71-.71.32-.71.71.32.71.71.71"/>
      <path class="cls-5" d="M455,254.71c.39,0,.71-.32.71-.71s-.32-.71-.71-.71-.71.32-.71.71.32.71.71.71"/>
      <path class="cls-5" d="M455,270.71c.39,0,.71-.32.71-.71s-.32-.71-.71-.71-.71.32-.71.71.32.71.71.71"/>
      <path class="cls-5" d="M455,286.71c.39,0,.71-.32.71-.71s-.32-.71-.71-.71-.71.32-.71.71.32.71.71.71"/>
      <path class="cls-5" d="M455,302.71c.39,0,.71-.32.71-.71s-.32-.71-.71-.71-.71.32-.71.71.32.71.71.71"/>
      <path class="cls-5" d="M455,318.71c.39,0,.71-.32.71-.71s-.32-.71-.71-.71-.71.32-.71.71.32.71.71.71"/>
      <path class="cls-5" d="M455,334.71c.39,0,.71-.32.71-.71s-.32-.71-.71-.71-.71.32-.71.71.32.71.71.71"/>
      <path class="cls-5" d="M484.4,30.71c.39,0,.71-.32.71-.71s-.32-.71-.71-.71-.71.32-.71.71.32.71.71.71"/>
      <path class="cls-5" d="M484.4,46.71c.39,0,.71-.32.71-.71s-.32-.71-.71-.71-.71.32-.71.71.32.71.71.71"/>
      <path class="cls-5" d="M484.4,62.71c.39,0,.71-.32.71-.71s-.32-.71-.71-.71-.71.32-.71.71.32.71.71.71"/>
      <path class="cls-5" d="M484.4,78.71c.39,0,.71-.32.71-.71s-.32-.71-.71-.71-.71.32-.71.71.32.71.71.71"/>
      <path class="cls-5" d="M484.4,94.71c.39,0,.71-.32.71-.71s-.32-.71-.71-.71-.71.32-.71.71.32.71.71.71"/>
      <path class="cls-5" d="M484.4,110.71c.39,0,.71-.32.71-.71s-.32-.71-.71-.71-.71.32-.71.71.32.71.71.71"/>
      <path class="cls-5" d="M484.4,126.71c.39,0,.71-.32.71-.71s-.32-.71-.71-.71-.71.32-.71.71.32.71.71.71"/>
      <path class="cls-5" d="M484.4,142.71c.39,0,.71-.32.71-.71s-.32-.71-.71-.71-.71.32-.71.71.32.71.71.71"/>
      <path class="cls-5" d="M484.4,158.71c.39,0,.71-.32.71-.71s-.32-.71-.71-.71-.71.32-.71.71.32.71.71.71"/>
      <path class="cls-5" d="M484.4,174.71c.39,0,.71-.32.71-.71s-.32-.71-.71-.71-.71.32-.71.71.32.71.71.71"/>
      <path class="cls-5" d="M484.4,190.71c.39,0,.71-.32.71-.71s-.32-.71-.71-.71-.71.32-.71.71.32.71.71.71"/>
      <path class="cls-5" d="M484.4,206.71c.39,0,.71-.32.71-.71s-.32-.71-.71-.71-.71.32-.71.71.32.71.71.71"/>
      <path class="cls-5" d="M484.4,222.71c.39,0,.71-.32.71-.71s-.32-.71-.71-.71-.71.32-.71.71.32.71.71.71"/>
      <path class="cls-5" d="M484.4,238.71c.39,0,.71-.32.71-.71s-.32-.71-.71-.71-.71.32-.71.71.32.71.71.71"/>
      <path class="cls-5" d="M484.4,254.71c.39,0,.71-.32.71-.71s-.32-.71-.71-.71-.71.32-.71.71.32.71.71.71"/>
      <path class="cls-5" d="M484.4,270.71c.39,0,.71-.32.71-.71s-.32-.71-.71-.71-.71.32-.71.71.32.71.71.71"/>
      <path class="cls-5" d="M484.4,286.71c.39,0,.71-.32.71-.71s-.32-.71-.71-.71-.71.32-.71.71.32.71.71.71"/>
      <path class="cls-5" d="M484.4,302.71c.39,0,.71-.32.71-.71s-.32-.71-.71-.71-.71.32-.71.71.32.71.71.71"/>
      <path class="cls-5" d="M484.4,318.71c.39,0,.71-.32.71-.71s-.32-.71-.71-.71-.71.32-.71.71.32.71.71.71"/>
      <path class="cls-5" d="M484.4,334.71c.39,0,.71-.32.71-.71s-.32-.71-.71-.71-.71.32-.71.71.32.71.71.71"/>
      <path class="cls-5" d="M513.8,30.71c.39,0,.71-.32.71-.71s-.32-.71-.71-.71-.71.32-.71.71.32.71.71.71"/>
      <path class="cls-5" d="M513.8,46.71c.39,0,.71-.32.71-.71s-.32-.71-.71-.71-.71.32-.71.71.32.71.71.71"/>
      <path class="cls-5" d="M513.8,62.71c.39,0,.71-.32.71-.71s-.32-.71-.71-.71-.71.32-.71.71.32.71.71.71"/>
      <path class="cls-5" d="M513.8,78.71c.39,0,.71-.32.71-.71s-.32-.71-.71-.71-.71.32-.71.71.32.71.71.71"/>
      <path class="cls-5" d="M513.8,94.71c.39,0,.71-.32.71-.71s-.32-.71-.71-.71-.71.32-.71.71.32.71.71.71"/>
      <path class="cls-5" d="M513.8,110.71c.39,0,.71-.32.71-.71s-.32-.71-.71-.71-.71.32-.71.71.32.71.71.71"/>
      <path class="cls-5" d="M513.8,126.71c.39,0,.71-.32.71-.71s-.32-.71-.71-.71-.71.32-.71.71.32.71.71.71"/>
      <path class="cls-5" d="M513.8,142.71c.39,0,.71-.32.71-.71s-.32-.71-.71-.71-.71.32-.71.71.32.71.71.71"/>
      <path class="cls-5" d="M513.8,158.71c.39,0,.71-.32.71-.71s-.32-.71-.71-.71-.71.32-.71.71.32.71.71.71"/>
      <path class="cls-5" d="M513.8,174.71c.39,0,.71-.32.71-.71s-.32-.71-.71-.71-.71.32-.71.71.32.71.71.71"/>
      <path class="cls-5" d="M513.8,190.71c.39,0,.71-.32.71-.71s-.32-.71-.71-.71-.71.32-.71.71.32.71.71.71"/>
      <path class="cls-5" d="M513.8,206.71c.39,0,.71-.32.71-.71s-.32-.71-.71-.71-.71.32-.71.71.32.71.71.71"/>
      <path class="cls-5" d="M513.8,222.71c.39,0,.71-.32.71-.71s-.32-.71-.71-.71-.71.32-.71.71.32.71.71.71"/>
      <path class="cls-5" d="M513.8,238.71c.39,0,.71-.32.71-.71s-.32-.71-.71-.71-.71.32-.71.71.32.71.71.71"/>
      <path class="cls-5" d="M513.8,254.71c.39,0,.71-.32.71-.71s-.32-.71-.71-.71-.71.32-.71.71.32.71.71.71"/>
      <path class="cls-5" d="M513.8,270.71c.39,0,.71-.32.71-.71s-.32-.71-.71-.71-.71.32-.71.71.32.71.71.71"/>
      <path class="cls-5" d="M513.8,286.71c.39,0,.71-.32.71-.71s-.32-.71-.71-.71-.71.32-.71.71.32.71.71.71"/>
      <path class="cls-5" d="M513.8,302.71c.39,0,.71-.32.71-.71s-.32-.71-.71-.71-.71.32-.71.71.32.71.71.71"/>
      <path class="cls-5" d="M513.8,318.71c.39,0,.71-.32.71-.71s-.32-.71-.71-.71-.71.32-.71.71.32.71.71.71"/>
      <path class="cls-5" d="M513.8,334.71c.39,0,.71-.32.71-.71s-.32-.71-.71-.71-.71.32-.71.71.32.71.71.71"/>
      <path class="cls-5" d="M543.2,30.71c.39,0,.71-.32.71-.71s-.32-.71-.71-.71-.71.32-.71.71.32.71.71.71"/>
      <path class="cls-5" d="M543.2,46.71c.39,0,.71-.32.71-.71s-.32-.71-.71-.71-.71.32-.71.71.32.71.71.71"/>
      <path class="cls-5" d="M543.2,62.71c.39,0,.71-.32.71-.71s-.32-.71-.71-.71-.71.32-.71.71.32.71.71.71"/>
      <path class="cls-5" d="M543.2,78.71c.39,0,.71-.32.71-.71s-.32-.71-.71-.71-.71.32-.71.71.32.71.71.71"/>
      <path class="cls-5" d="M543.2,94.71c.39,0,.71-.32.71-.71s-.32-.71-.71-.71-.71.32-.71.71.32.71.71.71"/>
      <path class="cls-5" d="M543.2,110.71c.39,0,.71-.32.71-.71s-.32-.71-.71-.71-.71.32-.71.71.32.71.71.71"/>
      <path class="cls-5" d="M543.2,126.71c.39,0,.71-.32.71-.71s-.32-.71-.71-.71-.71.32-.71.71.32.71.71.71"/>
      <path class="cls-5" d="M543.2,142.71c.39,0,.71-.32.71-.71s-.32-.71-.71-.71-.71.32-.71.71.32.71.71.71"/>
      <path class="cls-5" d="M543.2,158.71c.39,0,.71-.32.71-.71s-.32-.71-.71-.71-.71.32-.71.71.32.71.71.71"/>
      <path class="cls-5" d="M543.2,174.71c.39,0,.71-.32.71-.71s-.32-.71-.71-.71-.71.32-.71.71.32.71.71.71"/>
      <path class="cls-5" d="M543.2,190.71c.39,0,.71-.32.71-.71s-.32-.71-.71-.71-.71.32-.71.71.32.71.71.71"/>
      <path class="cls-5" d="M543.2,206.71c.39,0,.71-.32.71-.71s-.32-.71-.71-.71-.71.32-.71.71.32.71.71.71"/>
      <path class="cls-5" d="M543.2,222.71c.39,0,.71-.32.71-.71s-.32-.71-.71-.71-.71.32-.71.71.32.71.71.71"/>
      <path class="cls-5" d="M543.2,238.71c.39,0,.71-.32.71-.71s-.32-.71-.71-.71-.71.32-.71.71.32.71.71.71"/>
      <path class="cls-5" d="M543.2,254.71c.39,0,.71-.32.71-.71s-.32-.71-.71-.71-.71.32-.71.71.32.71.71.71"/>
      <path class="cls-5" d="M543.2,270.71c.39,0,.71-.32.71-.71s-.32-.71-.71-.71-.71.32-.71.71.32.71.71.71"/>
      <path class="cls-5" d="M543.2,286.71c.39,0,.71-.32.71-.71s-.32-.71-.71-.71-.71.32-.71.71.32.71.71.71"/>
      <path class="cls-5" d="M543.2,302.71c.39,0,.71-.32.71-.71s-.32-.71-.71-.71-.71.32-.71.71.32.71.71.71"/>
      <path class="cls-5" d="M543.2,318.71c.39,0,.71-.32.71-.71s-.32-.71-.71-.71-.71.32-.71.71.32.71.71.71"/>
      <path class="cls-5" d="M543.2,334.71c.39,0,.71-.32.71-.71s-.32-.71-.71-.71-.71.32-.71.71.32.71.71.71"/>
      <path class="cls-5" d="M572.6,30.71c.39,0,.71-.32.71-.71s-.32-.71-.71-.71-.71.32-.71.71.32.71.71.71"/>
      <path class="cls-5" d="M572.6,46.71c.39,0,.71-.32.71-.71s-.32-.71-.71-.71-.71.32-.71.71.32.71.71.71"/>
      <path class="cls-5" d="M572.6,62.71c.39,0,.71-.32.71-.71s-.32-.71-.71-.71-.71.32-.71.71.32.71.71.71"/>
      <path class="cls-5" d="M572.6,78.71c.39,0,.71-.32.71-.71s-.32-.71-.71-.71-.71.32-.71.71.32.71.71.71"/>
      <path class="cls-5" d="M572.6,94.71c.39,0,.71-.32.71-.71s-.32-.71-.71-.71-.71.32-.71.71.32.71.71.71"/>
      <path class="cls-5" d="M572.6,110.71c.39,0,.71-.32.71-.71s-.32-.71-.71-.71-.71.32-.71.71.32.71.71.71"/>
      <path class="cls-5" d="M572.6,126.71c.39,0,.71-.32.71-.71s-.32-.71-.71-.71-.71.32-.71.71.32.71.71.71"/>
      <path class="cls-5" d="M572.6,142.71c.39,0,.71-.32.71-.71s-.32-.71-.71-.71-.71.32-.71.71.32.71.71.71"/>
      <path class="cls-5" d="M572.6,158.71c.39,0,.71-.32.71-.71s-.32-.71-.71-.71-.71.32-.71.71.32.71.71.71"/>
      <path class="cls-5" d="M572.6,174.71c.39,0,.71-.32.71-.71s-.32-.71-.71-.71-.71.32-.71.71.32.71.71.71"/>
      <path class="cls-5" d="M572.6,190.71c.39,0,.71-.32.71-.71s-.32-.71-.71-.71-.71.32-.71.71.32.71.71.71"/>
      <path class="cls-5" d="M572.6,206.71c.39,0,.71-.32.71-.71s-.32-.71-.71-.71-.71.32-.71.71.32.71.71.71"/>
      <path class="cls-5" d="M572.6,222.71c.39,0,.71-.32.71-.71s-.32-.71-.71-.71-.71.32-.71.71.32.71.71.71"/>
      <path class="cls-5" d="M572.6,238.71c.39,0,.71-.32.71-.71s-.32-.71-.71-.71-.71.32-.71.71.32.71.71.71"/>
      <path class="cls-5" d="M572.6,254.71c.39,0,.71-.32.71-.71s-.32-.71-.71-.71-.71.32-.71.71.32.71.71.71"/>
      <path class="cls-5" d="M572.6,270.71c.39,0,.71-.32.71-.71s-.32-.71-.71-.71-.71.32-.71.71.32.71.71.71"/>
      <path class="cls-5" d="M572.6,286.71c.39,0,.71-.32.71-.71s-.32-.71-.71-.71-.71.32-.71.71.32.71.71.71"/>
      <path class="cls-5" d="M572.6,302.71c.39,0,.71-.32.71-.71s-.32-.71-.71-.71-.71.32-.71.71.32.71.71.71"/>
      <path class="cls-5" d="M572.6,318.71c.39,0,.71-.32.71-.71s-.32-.71-.71-.71-.71.32-.71.71.32.71.71.71"/>
      <path class="cls-5" d="M572.6,334.71c.39,0,.71-.32.71-.71s-.32-.71-.71-.71-.71.32-.71.71.32.71.71.71"/>
      <path class="cls-5" d="M602,30.71c.39,0,.71-.32.71-.71s-.32-.71-.71-.71-.71.32-.71.71.32.71.71.71"/>
      <path class="cls-5" d="M602,46.71c.39,0,.71-.32.71-.71s-.32-.71-.71-.71-.71.32-.71.71.32.71.71.71"/>
      <path class="cls-5" d="M602,62.71c.39,0,.71-.32.71-.71s-.32-.71-.71-.71-.71.32-.71.71.32.71.71.71"/>
      <path class="cls-5" d="M602,78.71c.39,0,.71-.32.71-.71s-.32-.71-.71-.71-.71.32-.71.71.32.71.71.71"/>
      <path class="cls-5" d="M602,94.71c.39,0,.71-.32.71-.71s-.32-.71-.71-.71-.71.32-.71.71.32.71.71.71"/>
      <path class="cls-5" d="M602,110.71c.39,0,.71-.32.71-.71s-.32-.71-.71-.71-.71.32-.71.71.32.71.71.71"/>
      <path class="cls-5" d="M602,126.71c.39,0,.71-.32.71-.71s-.32-.71-.71-.71-.71.32-.71.71.32.71.71.71"/>
      <path class="cls-5" d="M602,142.71c.39,0,.71-.32.71-.71s-.32-.71-.71-.71-.71.32-.71.71.32.71.71.71"/>
      <path class="cls-5" d="M602,158.71c.39,0,.71-.32.71-.71s-.32-.71-.71-.71-.71.32-.71.71.32.71.71.71"/>
      <path class="cls-5" d="M602,174.71c.39,0,.71-.32.71-.71s-.32-.71-.71-.71-.71.32-.71.71.32.71.71.71"/>
      <path class="cls-5" d="M602,190.71c.39,0,.71-.32.71-.71s-.32-.71-.71-.71-.71.32-.71.71.32.71.71.71"/>
      <path class="cls-5" d="M602,206.71c.39,0,.71-.32.71-.71s-.32-.71-.71-.71-.71.32-.71.71.32.71.71.71"/>
      <path class="cls-5" d="M602,222.71c.39,0,.71-.32.71-.71s-.32-.71-.71-.71-.71.32-.71.71.32.71.71.71"/>
      <path class="cls-5" d="M602,238.71c.39,0,.71-.32.71-.71s-.32-.71-.71-.71-.71.32-.71.71.32.71.71.71"/>
      <path class="cls-5" d="M602,254.71c.39,0,.71-.32.71-.71s-.32-.71-.71-.71-.71.32-.71.71.32.71.71.71"/>
      <path class="cls-5" d="M602,270.71c.39,0,.71-.32.71-.71s-.32-.71-.71-.71-.71.32-.71.71.32.71.71.71"/>
      <path class="cls-5" d="M602,286.71c.39,0,.71-.32.71-.71s-.32-.71-.71-.71-.71.32-.71.71.32.71.71.71"/>
      <path class="cls-5" d="M602,302.71c.39,0,.71-.32.71-.71s-.32-.71-.71-.71-.71.32-.71.71.32.71.71.71"/>
      <path class="cls-5" d="M602,318.71c.39,0,.71-.32.71-.71s-.32-.71-.71-.71-.71.32-.71.71.32.71.71.71"/>
      <path class="cls-5" d="M602,334.71c.39,0,.71-.32.71-.71s-.32-.71-.71-.71-.71.32-.71.71.32.71.71.71"/>
      <path class="cls-5" d="M598.85,402.37h2.92v-.3h-.44l-.53-.25v-3.08c0-1.34-.44-2.25-1.99-2.25-1.15,0-1.83.52-2.26,1.47v-4.35h-1.96v.3h.44l.52.25v7.65l-.52.25h-.44v.3h2.92v-.3h-.44l-.53-.25v-3.18c.33-1.06.91-1.73,1.91-1.73.84,0,1.34.41,1.34,1.83v3.08l-.53.25h-.44v.3ZM592.31,402.5c.96,0,1.54-.46,1.65-1.75h-.25c-.09.99-.59,1.18-1.08,1.18-.54,0-.94-.24-.94-1.49v-3.49h2.09v-.32h-2.09v-2.07h-.31l-.69,1.82v.25h-1.24v.32h1.24v3.51c0,1.12.3,2.04,1.61,2.04M583.5,399.54c0-1.53.6-2.7,2.06-2.7.71,0,1.25.26,1.65.71v3.84c-.48.51-1.05.74-1.69.74-1.1,0-2.03-.7-2.03-2.59M587.21,402.37h1.96v-.3h-.44l-.53-.25v-8.2h-1.96v.3h.44l.53.25v2.99c-.31-.36-.94-.66-1.83-.66-1.65,0-2.92,1.02-2.92,3.01,0,2.15,1.5,2.99,2.89,2.99.91,0,1.49-.37,1.86-.75v.62ZM579.49,394.92c0,.49.37.75.74.75s.74-.26.74-.75-.38-.74-.74-.74-.74.24-.74.74M578.79,402.37h2.92v-.3h-.44l-.53-.25v-5.2h-1.96v.3h.44l.53.25v4.65l-.53.25h-.44v.3ZM575.14,402.37h.35l2.03-5.2.52-.25h.44v-.3h-2.27v.3h.44l.52.25-1.52,3.99-1.43-3.99.53-.25h.44v-.3h-2.97v.3h.44l.53.25.25.64-1.39,3.39-1.44-4.02.52-.25h.44v-.3h-2.97v.3h.44l.52.25,1.98,5.2h.35l1.71-4.12,1.56,4.12ZM559.04,401.09l3.65-5.76c.26.68.4,1.58.4,2.68v.12c0,2.7-.91,4.13-2.31,4.13-.74,0-1.34-.4-1.74-1.16M558.46,398.12v-.12c0-2.79.91-4.25,2.31-4.25.73,0,1.33.4,1.73,1.16l-3.65,5.78c-.25-.66-.39-1.51-.39-2.56M560.78,402.62c1.95,0,3.41-1.77,3.41-4.5v-.12c0-2.81-1.46-4.62-3.41-4.62s-3.41,1.81-3.41,4.62v.12c0,2.73,1.46,4.5,3.41,4.5M550.54,401.09l3.65-5.76c.26.68.4,1.58.4,2.68v.12c0,2.7-.91,4.13-2.31,4.13-.74,0-1.34-.4-1.74-1.16M549.96,398.12v-.12c0-2.79.91-4.25,2.31-4.25.73,0,1.33.4,1.73,1.16l-3.65,5.78c-.25-.66-.39-1.51-.39-2.56M552.28,402.62c1.95,0,3.41-1.77,3.41-4.5v-.12c0-2.81-1.46-4.62-3.41-4.62s-3.41,1.81-3.41,4.62v.12c0,2.73,1.46,4.5,3.41,4.5M541.06,402.37h5.22v-.3h-1.56l-.53-.25v-8.2h-.42l-1.12.3h-1.5v.3h2v7.6l-.53.25h-1.56v.3ZM533.39,397.98l-.15.15,1.35,1.79h-4.67v-6.29h-.5v6.76h5.17l-1.35,1.79.15.15,2.28-1.99v-.37l-2.28-1.99ZM515.9,402.5c.96,0,1.54-.46,1.65-1.75h-.25c-.09.99-.59,1.18-1.08,1.18-.54,0-.94-.24-.94-1.49v-3.49h2.09v-.32h-2.09v-2.07h-.31l-.69,1.82v.25h-1.24v.32h1.24v3.51c0,1.12.3,2.04,1.61,2.04M510.03,402.37h2.92v-.3h-.44l-.52-.25v-3.08c0-1.34-.44-2.25-1.99-2.25-1.15,0-1.83.52-2.26,1.47v-4.35h-1.96v.3h.44l.52.25v7.65l-.52.25h-.44v.3h2.92v-.3h-.44l-.52-.25v-3.18c.32-1.06.91-1.73,1.91-1.73.84,0,1.34.41,1.34,1.83v3.08l-.52.25h-.44v.3ZM500.59,398.31c0-1.19.66-1.69,1.41-1.69s1.41.49,1.41,1.68-.7,1.7-1.41,1.7-1.41-.46-1.41-1.69M500.09,403.6c0-.66.4-1.09,1.59-1.34l1.43.25c.75.12,1.27.38,1.27,1.01,0,.86-.92,1.23-2.31,1.23s-1.98-.36-1.98-1.15M501.9,405c2.03,0,3.23-.65,3.23-1.9,0-.89-.67-1.34-1.79-1.53l-3.31-.56,1.93-.76h.05c1.01,0,2.37-.57,2.37-1.95,0-.61-.28-1.06-.66-1.38h.72l.76.13h.18v-.42h-2.17c-.38-.17-.81-.25-1.2-.25-1.08,0-2.38.6-2.38,1.92,0,1.11.91,1.71,1.8,1.89l-1.74.69v1.05l1.41.24c-1.38.27-1.91.74-1.91,1.41,0,.82.77,1.42,2.71,1.42M496.46,394.92c0,.49.38.75.74.75s.74-.26.74-.75-.37-.74-.74-.74-.74.24-.74.74M495.76,402.37h2.92v-.3h-.44l-.53-.25v-5.2h-1.96v.3h.44l.52.25v4.65l-.52.25h-.44v.3ZM490.66,398.51c.19-1.01.76-1.71,1.76-1.71s1.48.66,1.59,1.71h-3.35ZM492.41,402.5c1.63,0,2.53-1.05,2.75-2.19h-.25c-.16.8-.83,1.69-2.11,1.69-1.38,0-2.2-1.03-2.2-2.71,0-.16.01-.33.03-.48h4.35c-.05-1.1-.62-2.31-2.44-2.31s-2.97,1.2-2.97,3.1,1.25,2.9,2.85,2.9M485.81,402.37h.35l2.02-5.2.52-.25h.44v-.3h-2.27v.3h.44l.52.25-1.52,3.99-1.43-3.99.53-.25h.44v-.3h-2.98v.3h.44l.52.25.25.64-1.39,3.39-1.44-4.02.53-.25h.44v-.3h-2.98v.3h.44l.52.25,1.98,5.2h.35l1.71-4.12,1.56,4.12ZM470.59,401.09l3.65-5.76c.26.68.4,1.58.4,2.68v.12c0,2.7-.91,4.13-2.31,4.13-.74,0-1.34-.4-1.74-1.16M470.01,398.12v-.12c0-2.79.91-4.25,2.31-4.25.73,0,1.33.4,1.73,1.16l-3.65,5.78c-.25-.66-.39-1.51-.39-2.56M472.33,402.62c1.95,0,3.41-1.77,3.41-4.5v-.12c0-2.81-1.46-4.62-3.41-4.62s-3.41,1.81-3.41,4.62v.12c0,2.73,1.46,4.5,3.41,4.5M462.09,401.09l3.65-5.76c.26.68.4,1.58.4,2.68v.12c0,2.7-.91,4.13-2.31,4.13-.74,0-1.34-.4-1.74-1.16M461.51,398.12v-.12c0-2.79.91-4.25,2.31-4.25.73,0,1.33.4,1.73,1.16l-3.65,5.78c-.25-.66-.39-1.51-.39-2.56M463.83,402.62c1.95,0,3.41-1.77,3.41-4.5v-.12c0-2.81-1.46-4.62-3.41-4.62s-3.41,1.81-3.41,4.62v.12c0,2.73,1.46,4.5,3.41,4.5M453.84,402.37h1.36l3.31-8.44v-.31h-6v2.1h.27v-.3l.21-.8h4.92l-4.09,7.75ZM444.94,397.98l-.15.15,1.35,1.79h-4.68v-6.29h-.5v6.76h5.17l-1.35,1.79.15.15,2.27-1.99v-.37l-2.27-1.99Z"/>
    </g>
  </g>
</svg>