<?xml version="1.0" encoding="UTF-8"?>
<svg id="Calque_1" data-name="Calque 1" xmlns="http://www.w3.org/2000/svg" xmlns:xlink="http://www.w3.org/1999/xlink" viewBox="0 0 616 860">
  <defs>
    <style>
      .cls-1 {
        clip-path: url(#clippath);
      }

      .cls-2, .cls-3, .cls-4, .cls-5, .cls-6 {
        fill: none;
      }

      .cls-2, .cls-7, .cls-8 {
        stroke-width: 0px;
      }

      .cls-3 {
        stroke: #fff;
      }

      .cls-3, .cls-4 {
        stroke-miterlimit: 1;
        stroke-width: 9.25px;
      }

      .cls-4, .cls-5, .cls-6 {
        stroke: #000;
      }

      .cls-5 {
        stroke-width: 18.5px;
      }

      .cls-9 {
        clip-path: url(#clippath-1);
      }

      .cls-10 {
        clip-path: url(#clippath-3);
      }

      .cls-11 {
        clip-path: url(#clippath-2);
      }

      .cls-6 {
        stroke-width: 3px;
      }

      .cls-8 {
        fill: #fff;
      }
    </style>
    <clipPath id="clippath">
      <rect class="cls-2" width="616" height="860"/>
    </clipPath>
    <clipPath id="clippath-1">
      <rect class="cls-2" width="616" height="860"/>
    </clipPath>
    <clipPath id="clippath-2">
      <rect class="cls-2" width="616" height="860"/>
    </clipPath>
    <clipPath id="clippath-3">
      <rect class="cls-2" width="616" height="860"/>
    </clipPath>
  </defs>
  <g class="cls-1">
    <polyline class="cls-6" points="331.75 397.56 331.74 571.81 379.31 828.75"/>
    <polyline class="cls-6" points="284.25 397.56 284.26 571.81 236.69 828.75"/>
    <polyline class="cls-6" points="315.9 383.38 315.9 571.81 347.62 845.88"/>
    <polyline class="cls-6" points="300.1 383.38 300.1 571.81 268.38 845.88"/>
    <polyline class="cls-6" points="347.6 383.38 347.6 571.81 411.01 811.97"/>
    <polyline class="cls-6" points="268.4 383.38 268.4 571.81 204.99 811.97"/>
    <polyline class="cls-6" points="363.45 383.38 363.45 571.81 442.71 794.49"/>
    <polyline class="cls-6" points="252.55 383.38 252.55 571.81 173.29 794.49"/>
    <polyline class="cls-6" points="379.3 383.38 379.3 571.81 474.4 777.36"/>
    <polyline class="cls-6" points="236.7 383.38 236.7 571.81 141.6 777.36"/>
    <polyline class="cls-6" points="395.15 383.38 395.15 571.81 506.1 760.23"/>
    <polyline class="cls-6" points="220.85 383.38 220.85 571.81 109.9 760.23"/>
    <polyline class="cls-6" points="410.99 383.38 410.99 571.81 537.79 743.1"/>
    <polyline class="cls-6" points="205.01 383.38 205.01 571.81 78.21 743.1"/>
    <polyline class="cls-6" points="426.84 383.38 426.84 571.81 569.49 725.97"/>
    <polyline class="cls-6" points="189.16 383.38 189.16 571.81 46.51 725.97"/>
    <polyline class="cls-6" points="442.69 404.64 442.69 571.81 601.3 708.84"/>
    <polyline class="cls-6" points="173.31 404.64 173.31 571.81 14.7 708.84"/>
    <g class="cls-9">
      <path class="cls-7" d="M33.5,846h44.54l35.07-165.9c22.27-47.32,52.89-76.83,94.08-76.83,37.3,0,46.76,23.38,33.4,81.28l-25.05,108c-8.91,38.41,9.46,59.01,41.75,59.01,45.09,0,57.9-39.53,66.8-84.62h-12.8c-8.35,40.64-18.93,67.92-40.64,67.92-13.92,0-17.26-11.69-12.8-31.18l27.28-119.13c13.92-60.68,3.9-100.21-58.45-100.21-45.65,0-80.72,20.6-106.33,62.35l40.64-190.39h-87.4l-2.78,13.36h19.49l21.15,11.14-77.94,365.2Z"/>
      <path class="cls-7" d="M301.82,696.27h28.16l32.63-154.21c9.39-27.71,19.67-39.78,31.29-39.78,8.94,0,14.75,7.6,8.49,37.1l-28.16,129.63c-4.02,19.22,3.58,29.95,22.35,29.95,21.01,0,28.61-15.65,35.31-47.83h-8.49c-5.81,24.14-9.39,35.31-17.43,35.31-6.26,0-6.26-5.81-3.58-17.43l27.71-128.29c8.49-39.34-.45-54.53-22.35-54.53-16.09,0-28.61,8.94-38.89,26.82l27.27-129.63h-45.15l-1.79,7.6h10.28l6.26,4.92-63.92,300.38Z"/>
      <path class="cls-7" d="M424.89,739.25h30.77l30.77-144.06c12.93-32.56,28.54-49.95,49.06-49.95,17.39,0,24.08,12.04,15.61,48.61l-24.53,111.95c-5.35,23.64,4.91,37.02,26.76,37.02,26.76,0,35.23-22.3,42.37-56.2h-9.37c-6.24,27.65-11.6,43.26-23.19,43.26-8.03,0-9.37-7.14-6.24-20.52l25.42-115.07c9.37-42.82.89-64.67-32.11-64.67-24.53,0-43.26,12.49-57.98,37.02l29.88-139.6h-55.3l-1.78,8.92h12.49l10.26,6.24-62.89,297.04Z"/>
      <path class="cls-7" d="M103.66,43.6h7.58v-3.2h-.48v.64l-.27,1.44h-6.11l3.38-2.66c2.1-1.65,3.2-2.61,3.2-4.5,0-2.02-1.33-3.25-3.54-3.25-1.74,0-2.9.78-3.62,1.52v2h.4c.38-1.87,1.41-3.12,3.09-3.12s2.32,1.25,2.32,3.02c0,1.47-.45,2.59-2.32,4.08l-3.63,2.9v1.12ZM95.79,41.95l4.67-7.38c.34.86.51,2.02.51,3.42v.16c0,3.46-1.17,5.28-2.96,5.28-.94,0-1.71-.51-2.22-1.49M95.06,38.16v-.16c0-3.57,1.17-5.44,2.96-5.44.93,0,1.7.51,2.21,1.49l-4.67,7.39c-.32-.85-.5-1.94-.5-3.28M98.01,43.92c2.5,0,4.37-2.27,4.37-5.76v-.16c0-3.6-1.87-5.92-4.37-5.92s-4.37,2.32-4.37,5.92v.16c0,3.49,1.87,5.76,4.37,5.76M84.21,43.6h3.74v-.38h-.56l-.67-.32v-3.94c0-1.71-.56-2.88-2.54-2.88-1.47,0-2.34.67-2.9,1.89v-1.73h-2.51v.38h.56l.67.32v5.95l-.67.32h-.56v.38h3.74v-.38h-.56l-.67-.32v-4.06c.42-1.36,1.17-2.21,2.45-2.21,1.07,0,1.71.53,1.71,2.34v3.94l-.67.32h-.56v.38ZM71.65,41.18c0-1.38.69-2.32,2.05-2.32,1.09,0,1.95.59,2.08,1.82v.9c-.13,1.25-.99,1.79-2.08,1.79-1.26,0-2.05-.74-2.05-2.19M75.78,43.6h2.51v-.38h-.56l-.67-.32v-4.03c0-1.47-.53-2.78-3.23-2.78-1.36,0-2.42.34-3.12.7v1.44h.32c.38-1.22,1.34-1.78,2.66-1.78,1.62,0,2.1.78,2.1,2.42v.7c-.46-.72-1.31-1.09-2.43-1.09-1.98,0-3.04,1.18-3.04,2.7s1.09,2.58,2.99,2.58c1.15,0,2.02-.37,2.48-1.07v.91ZM65.44,43.6h3.74v-.38h-.56l-.67-.32v-10.5h-2.51v.38h.56l.67.32v9.79l-.67.32h-.56v.38ZM58.37,42.4v-4.9c.62-.66,1.41-.94,2.18-.94,1.26,0,2.59.8,2.59,3.23,0,1.97-.88,3.54-2.64,3.54-.9,0-1.62-.37-2.13-.93M60.67,43.76c2.05,0,3.78-1.41,3.78-4.02,0-2.78-1.95-3.66-3.6-3.66-1.22,0-1.98.48-2.48.96v-.8h-2.51v.38h.56l.67.32v9.15l-.67.32h-.56v.38h3.74v-.38h-.56l-.67-.32v-3.17c.43.42,1.18.83,2.3.83M49.22,39.95v-1.38c.13-1.5,1.09-2.11,2.27-2.11.94,0,1.58.4,1.58,1.65,0,1.84-1.39,1.84-1.76,1.84h-2.1ZM46.7,43.6h3.74v-.38h-.56l-.67-.32v-2.56h1.76l2.1,3.26h2.42v-.38h-.56l-.67-.32-1.81-2.69c1.07-.27,1.9-.98,1.9-2.21,0-1.36-1.02-2.08-2.5-2.08-1.2,0-2.16.46-2.64,1.44v-4.96h-2.51v.38h.56l.67.32v9.79l-.67.32h-.56v.38ZM40.32,43.6h3.74v-.38h-.56l-.67-.32v-3.79c.11-1.54.7-2.34,1.73-2.34.58,0,1.04.27,1.23,1.07h.32v-1.44c-.27-.18-.67-.32-1.23-.32-1.02,0-1.71.48-2.05,1.55v-1.39h-2.51v.38h.56l.67.32v5.95l-.67.32h-.56v.38ZM32.98,39.92c0-2.24,1.02-3.44,2.51-3.44s2.51,1.2,2.51,3.44-1.02,3.44-2.51,3.44-2.51-1.2-2.51-3.44M35.49,43.76c2,0,3.84-1.47,3.84-3.84s-1.84-3.84-3.84-3.84-3.84,1.47-3.84,3.84,1.84,3.84,3.84,3.84M26.02,43.6h1.14l3.74-10.5.67-.32h.56v-.38h-2.93v.38h.56l.67.32-3.39,9.52-3.3-9.52.67-.32h.56v-.38h-3.89v.38h.56l.67.32.96,2.74-2.69,6.88-3.54-9.62.67-.32h.56v-.38h-3.9v.38h.56l.67.32,3.94,10.5h1.14l2.82-7.15,2.51,7.15Z"/>
      <path class="cls-7" d="M99.81,27.6h3.74v-.38h-.56l-.67-.32v-3.94c0-1.71-.56-2.88-2.54-2.88-1.47,0-2.34.67-2.9,1.89v-1.73h-2.51v.38h.56l.67.32v5.95l-.67.32h-.56v.38h3.74v-.38h-.56l-.67-.32v-4.06c.42-1.36,1.17-2.21,2.45-2.21,1.07,0,1.71.53,1.71,2.34v3.94l-.67.32h-.56v.38ZM87.02,23.92c0-2.24,1.02-3.44,2.51-3.44s2.51,1.2,2.51,3.44-1.02,3.44-2.51,3.44-2.51-1.2-2.51-3.44M89.54,27.76c2,0,3.84-1.47,3.84-3.84s-1.84-3.84-3.84-3.84-3.84,1.47-3.84,3.84,1.84,3.84,3.84,3.84M82.3,27.76c1.23,0,1.97-.59,2.11-2.24h-.32c-.11,1.26-.75,1.5-1.38,1.5-.69,0-1.2-.3-1.2-1.9v-4.46h2.67v-.42h-2.67v-2.66h-.4l-.88,2.34v.32h-1.58v.42h1.58v4.5c0,1.44.38,2.61,2.06,2.61M74.75,27.76c1.65,0,3.01-.58,3.01-2.22,0-3.2-5.04-1.63-5.04-3.76,0-.82.69-1.31,1.89-1.31,1.12,0,2.06.43,2.5,1.7h.32v-1.12c-.62-.62-1.65-.96-2.8-.96-1.81,0-2.88.82-2.88,2.16,0,2.9,5.15,1.6,5.15,3.78,0,.77-.64,1.36-2.06,1.36-1.6,0-2.45-.75-2.96-2.03h-.32v1.28c.51.62,1.65,1.14,3.2,1.14M66.72,27.6h3.74v-.38h-.56l-.67-.32v-10.5h-2.51v.38h.56l.67.32v9.79l-.67.32h-.56v.38ZM59.6,25.18c0-1.38.69-2.32,2.05-2.32,1.09,0,1.95.59,2.08,1.82v.9c-.13,1.25-.99,1.79-2.08,1.79-1.26,0-2.05-.74-2.05-2.19M63.73,27.6h2.51v-.38h-.56l-.67-.32v-4.03c0-1.47-.53-2.78-3.23-2.78-1.36,0-2.42.34-3.12.7v1.44h.32c.38-1.22,1.34-1.78,2.66-1.78,1.62,0,2.1.78,2.1,2.42v.7c-.46-.72-1.31-1.09-2.43-1.09-1.98,0-3.04,1.18-3.04,2.7s1.09,2.58,2.99,2.58c1.15,0,2.02-.37,2.48-1.07v.91ZM45.12,27.6h3.74v-.38h-.56l-.67-.32v-4.85h6.78v4.85l-.67.32h-.56v.38h3.74v-.38h-.56l-.67-.32v-9.79l.67-.32h.56v-.38h-3.74v.38h.56l.67.32v4.54h-6.78v-4.54l.67-.32h.56v-.38h-3.74v.38h.56l.67.32v9.79l-.67.32h-.56v.38ZM30.53,27.6h3.98v-.38h-.67l-.8-.32v-4.77h3.18l.34,1.92v.66h.38v-5.57h-.38v.66l-.34,1.94h-3.18v-4.85l1.01-.1h4.5l.61,2.94v.66h.38v-3.98h-9.01v.38h.56l.67.32v9.79l-.67.32h-.56v.38ZM14.72,27.6h2.9v-.38h-.56l-.67-.32v-9.49l4.54,8.11h.64l4.34-8.4v9.78l-.67.32h-.56v.38h3.68v-.38h-.56l-.67-.32v-9.79l.67-.32h.56v-.38h-2.51l-4.14,8.02-4.46-8.02h-2.51v.38h.56l.67.32v9.79l-.67.32h-.56v.38Z"/>
      <path class="cls-7" d="M532.58,43.6h3.74v-.38h-.56l-.67-.32v-3.94c0-1.71-.56-2.88-2.54-2.88-1.47,0-2.34.67-2.9,1.89v-5.57h-2.51v.38h.56l.67.32v9.79l-.67.32h-.56v.38h3.74v-.38h-.56l-.67-.32v-4.06c.42-1.36,1.17-2.21,2.45-2.21,1.07,0,1.71.53,1.71,2.34v3.94l-.67.32h-.56v.38ZM524.21,43.76c1.23,0,1.97-.59,2.11-2.24h-.32c-.11,1.26-.75,1.5-1.38,1.5-.69,0-1.2-.3-1.2-1.9v-4.46h2.67v-.42h-2.67v-2.66h-.4l-.88,2.34v.32h-1.58v.42h1.58v4.5c0,1.44.38,2.61,2.06,2.61M512.93,39.97c0-1.95.77-3.46,2.64-3.46.91,0,1.6.34,2.11.91v4.91c-.61.66-1.34.94-2.16.94-1.41,0-2.59-.9-2.59-3.31M517.68,43.6h2.51v-.38h-.56l-.67-.32v-10.5h-2.51v.38h.56l.67.32v3.82c-.4-.46-1.2-.85-2.34-.85-2.11,0-3.74,1.31-3.74,3.86,0,2.75,1.92,3.82,3.7,3.82,1.17,0,1.9-.48,2.38-.96v.8ZM507.8,34.06c0,.62.48.96.94.96s.94-.34.94-.96-.48-.94-.94-.94-.94.3-.94.94M506.9,43.6h3.74v-.38h-.56l-.67-.32v-6.66h-2.51v.38h.56l.67.32v5.95l-.67.32h-.56v.38ZM502.23,43.6h.45l2.59-6.66.67-.32h.56v-.38h-2.91v.38h.56l.67.32-1.95,5.1-1.82-5.1.67-.32h.56v-.38h-3.81v.38h.56l.67.32.32.82-1.78,4.34-1.84-5.15.67-.32h.56v-.38h-3.81v.38h.56l.67.32,2.53,6.66h.45l2.19-5.28,2,5.28ZM481.62,41.95l4.67-7.38c.34.86.51,2.02.51,3.42v.16c0,3.46-1.17,5.28-2.96,5.28-.94,0-1.71-.51-2.22-1.49M480.88,38.16v-.16c0-3.57,1.17-5.44,2.96-5.44.93,0,1.7.51,2.21,1.49l-4.67,7.39c-.32-.85-.5-1.94-.5-3.28M483.84,43.92c2.5,0,4.37-2.27,4.37-5.76v-.16c0-3.6-1.87-5.92-4.37-5.92s-4.37,2.32-4.37,5.92v.16c0,3.49,1.87,5.76,4.37,5.76M470.74,41.95l4.67-7.38c.34.86.51,2.02.51,3.42v.16c0,3.46-1.17,5.28-2.96,5.28-.94,0-1.71-.51-2.22-1.49M470,38.16v-.16c0-3.57,1.17-5.44,2.96-5.44.93,0,1.7.51,2.21,1.49l-4.67,7.39c-.32-.85-.5-1.94-.5-3.28M472.96,43.92c2.5,0,4.37-2.27,4.37-5.76v-.16c0-3.6-1.87-5.92-4.37-5.92s-4.37,2.32-4.37,5.92v.16c0,3.49,1.87,5.76,4.37,5.76M458.61,43.6h6.69v-.38h-2l-.67-.32v-10.5h-.54l-1.44.38h-1.92v.38h2.56v9.73l-.67.32h-2v.38ZM448.18,39.46h7.52v-.48h-7.52v.48ZM441.67,43.92c2.4,0,4.02-1.46,4.02-3.9,0-2.32-1.44-3.62-3.58-3.62-1.39,0-2.35.56-3.01,1.44v-4.13h5.94v-1.31h-6.08l-.32,1.28v5.04h.34c.62-1.12,1.47-1.84,2.78-1.84,1.52,0,2.53.98,2.53,3.22s-1.01,3.44-2.62,3.44c-1.42,0-2.58-1.04-2.86-2.98h-.5v2.22c.61.5,1.78,1.14,3.38,1.14M428.98,43.6h1.74l4.24-10.8v-.4h-7.68v2.69h.35v-.38l.27-1.02h6.3l-5.23,9.92ZM417.59,37.97l-.19.19,1.73,2.29h-5.98v-8.05h-.64v8.66h6.62l-1.73,2.29.19.19,2.91-2.54v-.48l-2.91-2.54Z"/>
      <path class="cls-7" d="M509.54,27.76c1.23,0,1.97-.59,2.11-2.24h-.32c-.11,1.26-.75,1.5-1.38,1.5-.69,0-1.2-.3-1.2-1.9v-4.46h2.67v-.42h-2.67v-2.66h-.4l-.88,2.34v.32h-1.58v.42h1.58v4.5c0,1.44.38,2.61,2.06,2.61M502.02,27.6h3.74v-.38h-.56l-.67-.32v-3.94c0-1.71-.56-2.88-2.54-2.88-1.47,0-2.34.67-2.9,1.89v-5.57h-2.51v.38h.56l.67.32v9.79l-.67.32h-.56v.38h3.74v-.38h-.56l-.67-.32v-4.06c.42-1.36,1.17-2.21,2.45-2.21,1.07,0,1.71.53,1.71,2.34v3.94l-.67.32h-.56v.38ZM489.94,22.4c0-1.52.85-2.16,1.81-2.16s1.81.62,1.81,2.14-.9,2.18-1.81,2.18-1.81-.59-1.81-2.16M489.3,29.17c0-.85.51-1.39,2.03-1.71l1.82.32c.96.16,1.63.48,1.63,1.3,0,1.1-1.18,1.57-2.96,1.57s-2.53-.46-2.53-1.47M491.62,30.96c2.59,0,4.13-.83,4.13-2.43,0-1.14-.86-1.71-2.29-1.95l-4.24-.72,2.46-.98h.06c1.3,0,3.04-.74,3.04-2.5,0-.78-.35-1.36-.85-1.76h.93l.98.16h.22v-.54h-2.78c-.48-.22-1.04-.32-1.54-.32-1.38,0-3.04.77-3.04,2.46,0,1.42,1.17,2.19,2.3,2.42l-2.22.88v1.34l1.81.3c-1.76.35-2.45.94-2.45,1.81,0,1.06.99,1.82,3.47,1.82M484.66,18.06c0,.62.48.96.94.96s.94-.34.94-.96-.48-.94-.94-.94-.94.3-.94.94M483.76,27.6h3.74v-.38h-.56l-.67-.32v-6.66h-2.51v.38h.56l.67.32v5.95l-.67.32h-.56v.38ZM477.24,22.66c.24-1.3.98-2.19,2.26-2.19s1.89.85,2.03,2.19h-4.29ZM479.48,27.76c2.08,0,3.23-1.34,3.52-2.8h-.32c-.21,1.02-1.07,2.16-2.7,2.16-1.76,0-2.82-1.31-2.82-3.47,0-.21.02-.42.03-.61h5.57c-.06-1.41-.8-2.96-3.12-2.96s-3.81,1.54-3.81,3.97,1.6,3.71,3.65,3.71M471.03,27.6h.45l2.59-6.66.67-.32h.56v-.38h-2.91v.38h.56l.67.32-1.95,5.1-1.82-5.1.67-.32h.56v-.38h-3.81v.38h.56l.67.32.32.82-1.78,4.34-1.84-5.15.67-.32h.56v-.38h-3.81v.38h.56l.67.32,2.53,6.66h.45l2.19-5.28,2,5.28ZM450.42,25.95l4.67-7.38c.34.86.51,2.02.51,3.42v.16c0,3.46-1.17,5.28-2.96,5.28-.94,0-1.71-.51-2.22-1.49M449.68,22.16v-.16c0-3.57,1.17-5.44,2.96-5.44.93,0,1.7.51,2.21,1.49l-4.67,7.39c-.32-.85-.5-1.94-.5-3.28M452.64,27.92c2.5,0,4.37-2.27,4.37-5.76v-.16c0-3.6-1.87-5.92-4.37-5.92s-4.37,2.32-4.37,5.92v.16c0,3.49,1.87,5.76,4.37,5.76M439.54,25.95l4.67-7.38c.34.86.51,2.02.51,3.42v.16c0,3.46-1.17,5.28-2.96,5.28-.94,0-1.71-.51-2.22-1.49M438.8,22.16v-.16c0-3.57,1.17-5.44,2.96-5.44.93,0,1.7.51,2.21,1.49l-4.67,7.39c-.32-.85-.5-1.94-.5-3.28M441.76,27.92c2.5,0,4.37-2.27,4.37-5.76v-.16c0-3.6-1.87-5.92-4.37-5.92s-4.37,2.32-4.37,5.92v.16c0,3.49,1.87,5.76,4.37,5.76M426.66,23.6l4.85-6.5v6.5h-4.85ZM430.28,27.6h3.81v-.38h-.56l-.67-.32v-2.66h2.24v-.64h-2.24v-7.2h-1.34l-5.41,7.2.21.64h5.2v2.66l-.67.32h-.56v.38ZM417.59,21.97l-.19.19,1.73,2.29h-5.98v-8.05h-.64v8.66h6.62l-1.73,2.29.19.19,2.91-2.54v-.48l-2.91-2.54Z"/>
      <path class="cls-7" d="M214.18,43.76c1.65,0,3.01-.58,3.01-2.22,0-3.2-5.04-1.63-5.04-3.76,0-.82.69-1.31,1.89-1.31,1.12,0,2.06.43,2.5,1.7h.32v-1.12c-.62-.62-1.65-.96-2.8-.96-1.81,0-2.88.82-2.88,2.16,0,2.9,5.15,1.6,5.15,3.78,0,.77-.64,1.36-2.06,1.36-1.6,0-2.45-.75-2.96-2.03h-.32v1.28c.51.62,1.65,1.14,3.2,1.14M203.75,38.66c.24-1.3.98-2.19,2.26-2.19s1.89.85,2.03,2.19h-4.29ZM205.99,43.76c2.08,0,3.23-1.34,3.52-2.8h-.32c-.21,1.02-1.07,2.16-2.7,2.16-1.76,0-2.82-1.31-2.82-3.47,0-.21.02-.42.03-.61h5.57c-.06-1.41-.8-2.96-3.12-2.96s-3.81,1.54-3.81,3.97,1.6,3.71,3.65,3.71M197.67,43.6h3.74v-.38h-.56l-.67-.32v-10.5h-2.51v.38h.56l.67.32v9.79l-.67.32h-.56v.38ZM190.73,46.8h1.15l4.5-9.86.67-.32h.56v-.38h-2.94v.38h.56l.67.32-2.29,5.01-2.22-5.01.67-.32h.56v-.38h-3.87v.38h.56l.67.32,2.99,6.43-1.06,2.3h-2.3v.32l1.12.8ZM186.2,43.76c1.23,0,1.97-.59,2.11-2.24h-.32c-.11,1.26-.75,1.5-1.38,1.5-.69,0-1.2-.3-1.2-1.9v-4.46h2.67v-.42h-2.67v-2.66h-.4l-.88,2.34v.32h-1.58v.42h1.58v4.5c0,1.44.38,2.61,2.06,2.61M178.65,43.76c1.65,0,3.01-.58,3.01-2.22,0-3.2-5.04-1.63-5.04-3.76,0-.82.69-1.31,1.89-1.31,1.12,0,2.06.43,2.5,1.7h.32v-1.12c-.62-.62-1.65-.96-2.8-.96-1.81,0-2.88.82-2.88,2.16,0,2.9,5.15,1.6,5.15,3.78,0,.77-.64,1.36-2.06,1.36-1.6,0-2.45-.75-2.96-2.03h-.32v1.28c.51.62,1.65,1.14,3.2,1.14M160.38,41.95l4.67-7.38c.34.86.51,2.02.51,3.42v.16c0,3.46-1.17,5.28-2.96,5.28-.94,0-1.71-.51-2.22-1.49M159.64,38.16v-.16c0-3.57,1.17-5.44,2.96-5.44.93,0,1.7.51,2.21,1.49l-4.67,7.39c-.32-.85-.5-1.94-.5-3.28M162.6,43.92c2.5,0,4.37-2.27,4.37-5.76v-.16c0-3.6-1.87-5.92-4.37-5.92s-4.37,2.32-4.37,5.92v.16c0,3.49,1.87,5.76,4.37,5.76M149.26,35.65c0-1.7.56-3.18,2.54-3.18,1.68,0,2.51,1.1,2.62,3.54-.13,1.78-1.23,2.72-2.75,2.72-1.78,0-2.42-1.25-2.42-3.07M151.84,32.08c-2.53,0-3.98,1.47-3.98,3.66,0,2.3,1.58,3.44,3.58,3.44,1.49,0,2.46-.64,2.98-1.54-.32,4.06-2.48,5.58-4.88,5.58l-.83-.82h-.46v1.18h1.22c4.08,0,6.4-2.7,6.4-6.78,0-3.42-1.63-4.74-4.02-4.74"/>
      <path class="cls-7" d="M203.09,27.76c1.65,0,3.01-.58,3.01-2.22,0-3.2-5.04-1.63-5.04-3.76,0-.82.69-1.31,1.89-1.31,1.12,0,2.06.43,2.5,1.7h.32v-1.12c-.62-.62-1.65-.96-2.8-.96-1.81,0-2.88.82-2.88,2.16,0,2.9,5.15,1.6,5.15,3.78,0,.77-.64,1.36-2.06,1.36-1.6,0-2.45-.75-2.96-2.03h-.32v1.28c.51.62,1.65,1.14,3.2,1.14M196.36,27.76c1.23,0,1.97-.59,2.11-2.24h-.32c-.11,1.26-.75,1.5-1.38,1.5-.69,0-1.2-.3-1.2-1.9v-4.46h2.67v-.42h-2.67v-2.66h-.4l-.88,2.34v.32h-1.58v.42h1.58v4.5c0,1.44.38,2.61,2.06,2.61M187.14,27.76c1.26,0,2.22-.62,2.78-1.81v1.65h2.51v-.38h-.56l-.67-.32v-6.66h-2.51v.38h.56l.67.32v4.08c-.37,1.38-1.14,2.19-2.42,2.19-.96,0-1.58-.5-1.58-2.34v-4.64h-2.51v.38h.56l.67.32v3.94c0,1.82.86,2.88,2.5,2.88M179.17,27.76c1.41,0,2.94-.58,3.36-2.67h-.32c-.3,1.47-1.44,2.03-2.56,2.03-1.47,0-2.88-.94-2.88-3.26,0-1.89.94-3.39,2.69-3.39,1.34,0,2.27.91,2.38,2.02h.32v-1.44c-.48-.5-1.38-.96-2.66-.96-2.38,0-4.06,1.52-4.06,3.95s1.54,3.73,3.73,3.73M160.14,19.65c0-1.7.56-3.18,2.54-3.18,1.68,0,2.51,1.1,2.62,3.54-.13,1.78-1.23,2.72-2.75,2.72-1.78,0-2.42-1.25-2.42-3.07M162.72,16.08c-2.53,0-3.98,1.47-3.98,3.66,0,2.3,1.58,3.44,3.58,3.44,1.49,0,2.46-.64,2.98-1.54-.32,4.06-2.48,5.58-4.88,5.58l-.83-.82h-.46v1.18h1.22c4.08,0,6.4-2.7,6.4-6.78,0-3.42-1.63-4.74-4.02-4.74M149.5,25.95l4.67-7.38c.34.86.51,2.02.51,3.42v.16c0,3.46-1.17,5.28-2.96,5.28-.94,0-1.71-.51-2.22-1.49M148.76,22.16v-.16c0-3.57,1.17-5.44,2.96-5.44.93,0,1.7.51,2.21,1.49l-4.67,7.39c-.32-.85-.5-1.94-.5-3.28M151.72,27.92c2.5,0,4.37-2.27,4.37-5.76v-.16c0-3.6-1.87-5.92-4.37-5.92s-4.37,2.32-4.37,5.92v.16c0,3.49,1.87,5.76,4.37,5.76"/>
      <path class="cls-7" d="M383.19,43.6h7.58v-3.2h-.48v.64l-.27,1.44h-6.11l3.38-2.66c2.1-1.65,3.2-2.61,3.2-4.5,0-2.02-1.33-3.25-3.54-3.25-1.74,0-2.9.78-3.62,1.52v2h.4c.38-1.87,1.41-3.12,3.09-3.12s2.32,1.25,2.32,3.02c0,1.47-.45,2.59-2.32,4.08l-3.63,2.9v1.12ZM373.7,41.95l4.67-7.38c.34.86.51,2.02.51,3.42v.16c0,3.46-1.17,5.28-2.96,5.28-.94,0-1.71-.51-2.22-1.49M372.96,38.16v-.16c0-3.57,1.17-5.44,2.96-5.44.93,0,1.7.51,2.21,1.49l-4.67,7.39c-.32-.85-.5-1.94-.5-3.28M375.92,43.92c2.5,0,4.37-2.27,4.37-5.76v-.16c0-3.6-1.87-5.92-4.37-5.92s-4.37,2.32-4.37,5.92v.16c0,3.49,1.87,5.76,4.37,5.76M366.85,43.76c1.65,0,3.01-.58,3.01-2.22,0-3.2-5.04-1.63-5.04-3.76,0-.82.69-1.31,1.89-1.31,1.12,0,2.06.43,2.5,1.7h.32v-1.12c-.62-.62-1.65-.96-2.8-.96-1.81,0-2.88.82-2.88,2.16,0,2.9,5.15,1.6,5.15,3.78,0,.77-.64,1.36-2.06,1.36-1.6,0-2.45-.75-2.96-2.03h-.32v1.28c.51.62,1.65,1.14,3.2,1.14M357.71,43.92c2.22,0,4.02-1.01,4.02-3.22,0-4.46-7.3-2.48-7.3-6.02,0-1.39,1.18-2.19,2.86-2.19s2.94.8,3.65,3.12h.32v-3.22h-.3l-.02,1.28c-.72-1.04-1.97-1.6-3.63-1.6-2.26,0-3.79,1.01-3.79,2.99,0,4.34,7.3,2.46,7.3,6.06,0,1.3-.96,2.37-3.02,2.37s-3.54-1.1-4.11-3.28h-.32v3.38h.3l.02-1.41c.78,1.15,2.35,1.73,4.03,1.73M343.54,34.22l3.04,3.47h-9.42v.64h9.42l-3.04,3.47.32.35,4.54-3.92v-.45l-4.54-3.92-.32.35ZM324.39,43.6h6.69v-.38h-2l-.67-.32v-10.5h-.54l-1.44.38h-1.92v.38h2.56v9.73l-.67.32h-2v.38ZM314.76,41.95l4.67-7.38c.34.86.51,2.02.51,3.42v.16c0,3.46-1.17,5.28-2.96,5.28-.94,0-1.71-.51-2.22-1.49M314.02,38.16v-.16c0-3.57,1.17-5.44,2.96-5.44.93,0,1.7.51,2.21,1.49l-4.67,7.39c-.32-.85-.5-1.94-.5-3.28M316.98,43.92c2.5,0,4.37-2.27,4.37-5.76v-.16c0-3.6-1.87-5.92-4.37-5.92s-4.37,2.32-4.37,5.92v.16c0,3.49,1.87,5.76,4.37,5.76M307.91,43.76c1.65,0,3.01-.58,3.01-2.22,0-3.2-5.04-1.63-5.04-3.76,0-.82.69-1.31,1.89-1.31,1.12,0,2.06.43,2.5,1.7h.32v-1.12c-.62-.62-1.65-.96-2.8-.96-1.81,0-2.88.82-2.88,2.16,0,2.9,5.15,1.6,5.15,3.78,0,.77-.64,1.36-2.06,1.36-1.6,0-2.45-.75-2.96-2.03h-.32v1.28c.51.62,1.65,1.14,3.2,1.14M298.77,43.92c2.22,0,4.02-1.01,4.02-3.22,0-4.46-7.3-2.48-7.3-6.02,0-1.39,1.18-2.19,2.86-2.19s2.94.8,3.65,3.12h.32v-3.22h-.3l-.02,1.28c-.72-1.04-1.97-1.6-3.63-1.6-2.26,0-3.79,1.01-3.79,2.99,0,4.34,7.3,2.46,7.3,6.06,0,1.3-.96,2.37-3.02,2.37s-3.54-1.1-4.11-3.28h-.32v3.38h.3l.02-1.41c.78,1.15,2.35,1.73,4.03,1.73"/>
      <path class="cls-7" d="M366.71,22.66c.24-1.3.98-2.19,2.26-2.19s1.89.85,2.03,2.19h-4.29ZM368.95,27.76c2.08,0,3.23-1.34,3.52-2.8h-.32c-.21,1.02-1.07,2.16-2.7,2.16-1.76,0-2.82-1.31-2.82-3.47,0-.21.02-.42.03-.61h5.57c-.06-1.41-.8-2.96-3.12-2.96s-3.81,1.54-3.81,3.97,1.6,3.71,3.65,3.71M357.62,26.4v-4.9c.62-.66,1.41-.94,2.18-.94,1.26,0,2.59.8,2.59,3.23,0,1.97-.88,3.54-2.64,3.54-.9,0-1.62-.37-2.13-.93M359.92,27.76c2.05,0,3.78-1.41,3.78-4.02,0-2.78-1.95-3.66-3.6-3.66-1.22,0-1.98.48-2.48.96v-.8h-2.51v.38h.56l.67.32v9.15l-.67.32h-.56v.38h3.74v-.38h-.56l-.67-.32v-3.17c.43.42,1.18.83,2.3.83M347.83,30.8h1.15l4.5-9.86.67-.32h.56v-.38h-2.94v.38h.56l.67.32-2.29,5.01-2.22-5.01.67-.32h.56v-.38h-3.87v.38h.56l.67.32,2.99,6.43-1.06,2.3h-2.3v.32l1.12.8ZM343.3,27.76c1.23,0,1.97-.59,2.11-2.24h-.32c-.11,1.26-.75,1.5-1.38,1.5-.69,0-1.2-.3-1.2-1.9v-4.46h2.67v-.42h-2.67v-2.66h-.4l-.88,2.34v.32h-1.58v.42h1.58v4.5c0,1.44.38,2.61,2.06,2.61M331.04,27.6h3.74v-.38h-.56l-.67-.32v-3.94c0-1.71-.56-2.88-2.54-2.88-1.47,0-2.34.67-2.9,1.89v-1.73h-2.51v.38h.56l.67.32v5.95l-.67.32h-.56v.38h3.74v-.38h-.56l-.67-.32v-4.06c.42-1.36,1.17-2.21,2.45-2.21,1.07,0,1.71.53,1.71,2.34v3.94l-.67.32h-.56v.38ZM319.08,22.66c.24-1.3.98-2.19,2.26-2.19s1.89.85,2.03,2.19h-4.29ZM321.32,27.76c2.08,0,3.23-1.34,3.52-2.8h-.32c-.21,1.02-1.07,2.16-2.7,2.16-1.76,0-2.82-1.31-2.82-3.47,0-.21.02-.42.03-.61h5.57c-.06-1.41-.8-2.96-3.12-2.96s-3.81,1.54-3.81,3.97,1.6,3.71,3.65,3.71M309.99,26.4v-4.9c.62-.66,1.41-.94,2.18-.94,1.26,0,2.59.8,2.59,3.23,0,1.97-.88,3.54-2.64,3.54-.9,0-1.62-.37-2.13-.93M312.29,27.76c2.05,0,3.78-1.41,3.78-4.02,0-2.78-1.95-3.66-3.6-3.66-1.22,0-1.98.48-2.48.96v-.8h-2.51v.38h.56l.67.32v9.15l-.67.32h-.56v.38h3.74v-.38h-.56l-.67-.32v-3.17c.43.42,1.18.83,2.3.83M295.6,22c0-3.36,1.7-5.5,4.5-5.5s4.51,2.14,4.51,5.5-1.7,5.5-4.51,5.5-4.5-2.14-4.5-5.5M300.1,27.92c3.23,0,5.84-2.22,5.84-5.92s-2.61-5.92-5.84-5.92-5.84,2.22-5.84,5.92,2.62,5.92,5.84,5.92"/>
      <path class="cls-7" d="M586.64,30.73h15.36c0-9.35-7.05-16.73-16.98-16.73v15.07h-15.02c0,9.15,7.14,16.93,16.64,16.93v-15.27Z"/>
      <path class="cls-7" d="M584.46,326.1c0,5.45,4.32,9.78,9.78,9.78s9.78-4.32,9.78-9.78-4.32-9.78-9.78-9.78-9.78,4.32-9.78,9.78M589.91,302.04h8.65l3.38-62.04v-37.6h-15.79v37.6l3.76,62.04ZM497.68,335.88c28.01,0,45.87-13.54,54.14-31.77l5.45,29.89h4.7v-61.1h-59.22v4.7h48.5v13.54c-4.51,20.12-20.68,37.6-49.82,37.6s-53.39-18.42-53.39-60.72,21.62-62.04,52.83-62.04c25.94,0,44.74,14.1,51.14,43.43h4.7v-47h-4.51l-1.88,19.55c-8.27-12.03-25.94-21.43-50.01-21.43-37.41,0-68.06,25.57-68.06,68.81s27.64,66.55,65.42,66.55M289.32,334h34.03v-4.51h-6.58l-7.9-3.76v-110.54l82.72,118.82h14.66v-123.33l7.9-3.76h6.58v-4.51h-34.03v4.51h6.58l7.9,3.76v111.11l-84.04-119.38h-27.82v4.51h6.58l7.9,3.76v115.06l-7.9,3.76h-6.58v4.51ZM171.96,283.24l28.76-70.88,27.64,70.88h-56.4ZM134.54,334h34.78v-4.51h-6.58l-7.9-3.76,15.42-37.98h59.78l14.85,37.98-7.9,3.76h-6.58v4.51h45.12v-4.51h-6.58l-7.9-3.76-49.07-123.33h-30.08v4.51h6.58l7.9,3.76-47.38,115.06-7.9,3.76h-6.58v4.51ZM43.76,262.56v-53.39l21.62-2.26h16.36c15.6,0,27.45,6.77,27.45,26.7,0,22.75-14.85,28.95-31.02,28.95h-34.4ZM43.76,327.23v-59.97h39.67c16.36,0,29.52,7.33,29.52,31.21s-12.78,31.02-31.21,31.02h-16.36l-21.62-2.26ZM14.24,334h67.49c22.18,0,46.25-9.4,46.25-35.72,0-19.93-14.29-29.89-31.58-33.65,15.98-4.51,27.82-13.91,27.82-30.64,0-22.94-22.56-31.58-42.49-31.58H14.24v4.51h6.58l7.9,3.76v115.06l-7.9,3.76h-6.58v4.51Z"/>
      <path class="cls-7" d="M584.46,190.1c0,5.45,4.32,9.78,9.78,9.78s9.78-4.32,9.78-9.78-4.32-9.78-9.78-9.78-9.78,4.32-9.78,9.78M589.91,166.04h8.65l3.38-62.04v-37.6h-15.79v37.6l3.76,62.04ZM497.68,199.88c28.01,0,45.87-13.54,54.14-31.77l5.45,29.89h4.7v-61.1h-59.22v4.7h48.5v13.54c-4.51,20.12-20.68,37.6-49.82,37.6s-53.39-18.42-53.39-60.72,21.62-62.04,52.83-62.04c25.94,0,44.74,14.1,51.14,43.43h4.7v-47h-4.51l-1.88,19.55c-8.27-12.03-25.94-21.43-50.01-21.43-37.41,0-68.06,25.57-68.06,68.81s27.64,66.55,65.42,66.55M289.32,198h34.03v-4.51h-6.58l-7.9-3.76v-110.54l82.72,118.82h14.66v-123.33l7.9-3.76h6.58v-4.51h-34.03v4.51h6.58l7.9,3.76v111.11l-84.04-119.38h-27.82v4.51h6.58l7.9,3.76v115.06l-7.9,3.76h-6.58v4.51ZM171.96,147.24l28.76-70.88,27.64,70.88h-56.4ZM134.54,198h34.78v-4.51h-6.58l-7.9-3.76,15.42-37.98h59.78l14.85,37.98-7.9,3.76h-6.58v4.51h45.12v-4.51h-6.58l-7.9-3.76-49.07-123.33h-30.08v4.51h6.58l7.9,3.76-47.38,115.06-7.9,3.76h-6.58v4.51ZM43.76,126.56v-53.39l21.62-2.26h16.36c15.6,0,27.45,6.77,27.45,26.7,0,22.75-14.85,28.95-31.02,28.95h-34.4ZM43.76,191.23v-59.97h39.67c16.36,0,29.52,7.33,29.52,31.21s-12.78,31.02-31.21,31.02h-16.36l-21.62-2.26ZM14.24,198h67.49c22.18,0,46.25-9.4,46.25-35.72,0-19.93-14.29-29.89-31.58-33.65,15.98-4.51,27.82-13.91,27.82-30.64,0-22.94-22.56-31.58-42.49-31.58H14.24v4.51h6.58l7.9,3.76v115.06l-7.9,3.76h-6.58v4.51Z"/>
      <path class="cls-7" d="M146.3,425.37c13.77,0,24.98-11.21,24.98-24.98s-11.21-24.98-24.98-24.98-24.98,11.21-24.98,24.98,11.21,24.98,24.98,24.98"/>
      <circle class="cls-3" cx="146.3" cy="400.39" r="24.98"/>
      <path class="cls-7" d="M308,425.37c13.77,0,24.98-11.21,24.98-24.98s-11.21-24.98-24.98-24.98-24.98,11.21-24.98,24.98,11.21,24.98,24.98,24.98"/>
      <circle class="cls-3" cx="308" cy="400.39" r="24.98"/>
      <path class="cls-7" d="M469.96,425.37c13.77,0,24.98-11.21,24.98-24.98s-11.21-24.98-24.98-24.98-24.98,11.21-24.98,24.98,11.21,24.98,24.98,24.98"/>
      <circle class="cls-3" cx="469.96" cy="400.39" r="24.98"/>
    </g>
    <line class="cls-5" x1="146.3" y1="333.17" x2="146.3" y2="400.39"/>
    <line class="cls-5" x1="308" y1="333.17" x2="308" y2="400.39"/>
    <line class="cls-5" x1="469.96" y1="333.17" x2="469.96" y2="400.39"/>
    <g class="cls-11">
      <path class="cls-7" d="M525.02,825.41h36.23v-16.9h-2.54v3.56l-1.4,5.47h-27.07l10.55-7.75c10.93-8.01,19.45-12.84,19.45-22.5,0-8.9-6.99-14.11-17.41-14.11-8.39,0-13.6,3.31-16.91,6.23v10.55h2.42c2.54-9.15,6.35-14.49,12.84-14.49,5.97,0,9.03,4.96,9.03,12.46,0,6.99-2.54,13.35-10.55,19.19l-14.62,10.68v7.63ZM500.62,801.64c0-24.66,18.81-42.45,42.58-42.45s42.58,17.79,42.58,42.45-18.94,42.2-42.58,42.2-42.58-17.54-42.58-42.2M543.2,847.27c25.55,0,46.01-18.94,46.01-45.63s-20.46-45.88-46.01-45.88-46.01,19.19-46.01,45.88,20.34,45.63,46.01,45.63"/>
      <path class="cls-7" d="M146.3,367.67c34.95,0,63.38-17.85,63.38-39.78s-28.43-39.79-63.38-39.79-63.38,17.85-63.38,39.79,28.43,39.78,63.38,39.78"/>
      <ellipse class="cls-4" cx="146.3" cy="327.89" rx="63.38" ry="39.79"/>
      <path class="cls-7" d="M308.34,367.67c34.95,0,63.38-17.85,63.38-39.78s-28.43-39.79-63.38-39.79-63.38,17.85-63.38,39.79,28.43,39.78,63.38,39.78"/>
      <ellipse class="cls-4" cx="308.34" cy="327.89" rx="63.38" ry="39.79"/>
      <path class="cls-7" d="M469.96,367.67c34.95,0,63.38-17.85,63.38-39.78s-28.43-39.79-63.38-39.79-63.38,17.85-63.38,39.79,28.43,39.78,63.38,39.78"/>
      <ellipse class="cls-4" cx="469.96" cy="327.89" rx="63.38" ry="39.79"/>
      <path class="cls-8" d="M146.3,350.09c34.95,0,63.38-17.85,63.38-39.78s-28.43-39.79-63.38-39.79-63.38,17.85-63.38,39.79,28.43,39.78,63.38,39.78"/>
      <ellipse class="cls-4" cx="146.3" cy="310.31" rx="63.38" ry="39.79"/>
      <path class="cls-8" d="M308,350.09c34.95,0,63.38-17.85,63.38-39.78s-28.43-39.79-63.38-39.79-63.38,17.85-63.38,39.79,28.43,39.78,63.38,39.78"/>
      <ellipse class="cls-4" cx="308" cy="310.31" rx="63.38" ry="39.79"/>
      <path class="cls-8" d="M469.96,350.09c34.95,0,63.38-17.85,63.38-39.78s-28.43-39.79-63.38-39.79-63.38,17.85-63.38,39.79,28.43,39.78,63.38,39.78"/>
      <ellipse class="cls-4" cx="469.96" cy="310.31" rx="63.38" ry="39.79"/>
    </g>
    <polygon class="cls-7" points="142.68 330.35 149.21 330.35 176.13 290.81 180.35 289.6 183.87 289.6 183.87 288.16 165.39 288.16 165.39 289.6 168.9 289.6 173.12 290.81 148.51 327.39 125.11 290.81 129.32 289.6 132.84 289.6 132.84 288.16 108.73 288.16 108.73 289.6 112.25 289.6 116.47 290.81 142.68 330.35"/>
    <path class="cls-7" d="M290.66,314.07l15.37-22.72,14.77,22.72h-30.13ZM270.67,330.35h18.58v-1.45h-3.52l-4.22-1.21,8.24-12.17h31.94l7.94,12.17-4.22,1.21h-3.51v1.45h24.11v-1.45h-3.51l-4.22-1.21-26.22-39.54h-16.07v1.45h3.52l4.22,1.21-25.31,36.88-4.22,1.21h-3.52v1.45Z"/>
    <g class="cls-10">
      <path class="cls-7" d="M454.24,309.61v-19.53l11.55-.48h8.34c10.25,0,14.77,3.43,14.77,9.4,0,6.87-6.13,10.61-16.67,10.61h-17.98ZM438.47,330.35h25.82v-1.45h-4.52l-5.53-1.21v-16.57h11.55l22.8,19.23h14.57v-1.45h-3.52l-4.22-1.21-20.39-16.63c11.65-.6,21.9-4.94,21.9-11.99s-10.25-10.91-22.8-10.91h-35.66v1.45h3.52l4.22,1.21v36.88l-4.22,1.21h-3.52v1.45Z"/>
    </g>
  </g>
</svg>