<?xml version="1.0" encoding="UTF-8"?>
<svg id="Calque_1" data-name="Calque 1" xmlns="http://www.w3.org/2000/svg" xmlns:xlink="http://www.w3.org/1999/xlink" viewBox="0 0 616 860">
  <defs>
    <style>
      .cls-1 {
        clip-path: url(#clippath);
      }

      .cls-2, .cls-3, .cls-4, .cls-5, .cls-6 {
        fill: none;
      }

      .cls-2, .cls-7, .cls-8 {
        stroke-width: 0px;
      }

      .cls-3, .cls-4 {
        stroke-miterlimit: 1;
        stroke-width: 9.25px;
      }

      .cls-3, .cls-5, .cls-6 {
        stroke: #fff;
      }

      .cls-4 {
        stroke: #000;
      }

      .cls-5 {
        stroke-width: 18.5px;
      }

      .cls-9 {
        clip-path: url(#clippath-1);
      }

      .cls-10 {
        clip-path: url(#clippath-3);
      }

      .cls-11 {
        clip-path: url(#clippath-2);
      }

      .cls-6 {
        stroke-width: 3px;
      }

      .cls-8 {
        fill: #fff;
      }
    </style>
    <clipPath id="clippath">
      <rect class="cls-2" width="616" height="860"/>
    </clipPath>
    <clipPath id="clippath-1">
      <rect class="cls-2" width="616" height="860"/>
    </clipPath>
    <clipPath id="clippath-2">
      <rect class="cls-2" width="616" height="860"/>
    </clipPath>
    <clipPath id="clippath-3">
      <rect class="cls-2" width="616" height="860"/>
    </clipPath>
  </defs>
  <g class="cls-1">
    <polyline class="cls-6" points="331.75 397.56 331.74 571.81 379.31 828.75"/>
    <polyline class="cls-6" points="284.25 397.56 284.26 571.81 236.69 828.75"/>
    <polyline class="cls-6" points="315.9 383.38 315.9 571.81 347.62 845.88"/>
    <polyline class="cls-6" points="300.1 383.38 300.1 571.81 268.38 845.88"/>
    <polyline class="cls-6" points="347.6 383.38 347.6 571.81 411.01 811.97"/>
    <polyline class="cls-6" points="268.4 383.38 268.4 571.81 204.99 811.97"/>
    <polyline class="cls-6" points="363.45 383.38 363.45 571.81 442.71 794.49"/>
    <polyline class="cls-6" points="252.55 383.38 252.55 571.81 173.29 794.49"/>
    <polyline class="cls-6" points="379.3 383.38 379.3 571.81 474.4 777.36"/>
    <polyline class="cls-6" points="236.7 383.38 236.7 571.81 141.6 777.36"/>
    <polyline class="cls-6" points="395.15 383.38 395.15 571.81 506.1 760.23"/>
    <polyline class="cls-6" points="220.85 383.38 220.85 571.81 109.9 760.23"/>
    <polyline class="cls-6" points="410.99 383.38 410.99 571.81 537.79 743.1"/>
    <polyline class="cls-6" points="205.01 383.38 205.01 571.81 78.21 743.1"/>
    <polyline class="cls-6" points="426.84 383.38 426.84 571.81 569.49 725.97"/>
    <polyline class="cls-6" points="189.16 383.38 189.16 571.81 46.51 725.97"/>
    <polyline class="cls-6" points="442.69 404.64 442.69 571.81 601.3 708.84"/>
    <polyline class="cls-6" points="173.31 404.64 173.31 571.81 14.7 708.84"/>
    <g class="cls-9">
      <path class="cls-8" d="M203.3,846h130.27v-13.36h-19.48l-23.38-11.13v-136.95c0-59.57-19.49-100.21-88.52-100.21-51.22,0-81.28,23.38-100.76,65.69v-193.73H14.02v13.36h19.49l23.38,11.14v340.7l-23.38,11.13H14.02v13.36h130.27v-13.36h-19.48l-23.38-11.13v-141.4c14.47-47.32,40.64-76.83,85.18-76.83,37.3,0,59.57,18.37,59.57,81.28v136.95l-23.38,11.13h-19.49v13.36Z"/>
      <path class="cls-8" d="M377.37,696.27h59.9v-7.6h-10.73l-6.26-4.92v-142.15c0-40.23-10.28-55.43-32.63-55.43-17.43,0-28.16,10.28-34.87,29.5v-132.31h-45.59v7.6h10.73l6.7,4.92v287.87l-6.7,4.92h-10.73v7.6h59.9v-7.6h-8.94l-5.36-4.92v-135.89c2.68-31.29,9.39-45.59,21.9-45.59,11.18,0,17.43,7.15,17.43,37.1v144.38l-5.81,4.92h-8.94v7.6Z"/>
      <path class="cls-8" d="M525.24,739.25h76.71v-8.92h-12.49l-11.6-6.24v-128.89c0-43.26-12.04-65.56-47.72-65.56-27.21,0-43.26,14.72-53.07,41.92v-144.5h-55.3v8.92h12.49l11.6,6.24v281.87l-11.6,6.24h-12.49v8.92h76.71v-8.92h-11.15l-10.26-6.24v-122.65c5.8-37.02,18.29-56.2,40.59-56.2,18.29,0,28.99,10.26,28.99,48.61v130.23l-10.26,6.24h-11.15v8.92Z"/>
      <path class="cls-8" d="M103.66,43.6h7.58v-3.2h-.48v.64l-.27,1.44h-6.11l3.38-2.66c2.1-1.65,3.2-2.61,3.2-4.5,0-2.02-1.33-3.25-3.54-3.25-1.74,0-2.9.78-3.62,1.52v2h.4c.38-1.87,1.41-3.12,3.09-3.12s2.32,1.25,2.32,3.02c0,1.47-.45,2.59-2.32,4.08l-3.63,2.9v1.12ZM95.79,41.95l4.67-7.38c.34.86.51,2.02.51,3.42v.16c0,3.46-1.17,5.28-2.96,5.28-.94,0-1.71-.51-2.22-1.49M95.06,38.16v-.16c0-3.57,1.17-5.44,2.96-5.44.93,0,1.7.51,2.21,1.49l-4.67,7.39c-.32-.85-.5-1.94-.5-3.28M98.01,43.92c2.5,0,4.37-2.27,4.37-5.76v-.16c0-3.6-1.87-5.92-4.37-5.92s-4.37,2.32-4.37,5.92v.16c0,3.49,1.87,5.76,4.37,5.76M84.21,43.6h3.74v-.38h-.56l-.67-.32v-3.94c0-1.71-.56-2.88-2.54-2.88-1.47,0-2.34.67-2.9,1.89v-1.73h-2.51v.38h.56l.67.32v5.95l-.67.32h-.56v.38h3.74v-.38h-.56l-.67-.32v-4.06c.42-1.36,1.17-2.21,2.45-2.21,1.07,0,1.71.53,1.71,2.34v3.94l-.67.32h-.56v.38ZM71.65,41.18c0-1.38.69-2.32,2.05-2.32,1.09,0,1.95.59,2.08,1.82v.9c-.13,1.25-.99,1.79-2.08,1.79-1.26,0-2.05-.74-2.05-2.19M75.78,43.6h2.51v-.38h-.56l-.67-.32v-4.03c0-1.47-.53-2.78-3.23-2.78-1.36,0-2.42.34-3.12.7v1.44h.32c.38-1.22,1.34-1.78,2.66-1.78,1.62,0,2.1.78,2.1,2.42v.7c-.46-.72-1.31-1.09-2.43-1.09-1.98,0-3.04,1.18-3.04,2.7s1.09,2.58,2.99,2.58c1.15,0,2.02-.37,2.48-1.07v.91ZM65.44,43.6h3.74v-.38h-.56l-.67-.32v-10.5h-2.51v.38h.56l.67.32v9.79l-.67.32h-.56v.38ZM58.37,42.4v-4.9c.62-.66,1.41-.94,2.18-.94,1.26,0,2.59.8,2.59,3.23,0,1.97-.88,3.54-2.64,3.54-.9,0-1.62-.37-2.13-.93M60.67,43.76c2.05,0,3.78-1.41,3.78-4.02,0-2.78-1.95-3.66-3.6-3.66-1.22,0-1.98.48-2.48.96v-.8h-2.51v.38h.56l.67.32v9.15l-.67.32h-.56v.38h3.74v-.38h-.56l-.67-.32v-3.17c.43.42,1.18.83,2.3.83M49.22,39.95v-1.38c.13-1.5,1.09-2.11,2.27-2.11.94,0,1.58.4,1.58,1.65,0,1.84-1.39,1.84-1.76,1.84h-2.1ZM46.7,43.6h3.74v-.38h-.56l-.67-.32v-2.56h1.76l2.1,3.26h2.42v-.38h-.56l-.67-.32-1.81-2.69c1.07-.27,1.9-.98,1.9-2.21,0-1.36-1.02-2.08-2.5-2.08-1.2,0-2.16.46-2.64,1.44v-4.96h-2.51v.38h.56l.67.32v9.79l-.67.32h-.56v.38ZM40.32,43.6h3.74v-.38h-.56l-.67-.32v-3.79c.11-1.54.7-2.34,1.73-2.34.58,0,1.04.27,1.23,1.07h.32v-1.44c-.27-.18-.67-.32-1.23-.32-1.02,0-1.71.48-2.05,1.55v-1.39h-2.51v.38h.56l.67.32v5.95l-.67.32h-.56v.38ZM32.98,39.92c0-2.24,1.02-3.44,2.51-3.44s2.51,1.2,2.51,3.44-1.02,3.44-2.51,3.44-2.51-1.2-2.51-3.44M35.49,43.76c2,0,3.84-1.47,3.84-3.84s-1.84-3.84-3.84-3.84-3.84,1.47-3.84,3.84,1.84,3.84,3.84,3.84M26.02,43.6h1.14l3.74-10.5.67-.32h.56v-.38h-2.93v.38h.56l.67.32-3.39,9.52-3.3-9.52.67-.32h.56v-.38h-3.89v.38h.56l.67.32.96,2.74-2.69,6.88-3.54-9.62.67-.32h.56v-.38h-3.9v.38h.56l.67.32,3.94,10.5h1.14l2.82-7.15,2.51,7.15Z"/>
      <path class="cls-8" d="M99.81,27.6h3.74v-.38h-.56l-.67-.32v-3.94c0-1.71-.56-2.88-2.54-2.88-1.47,0-2.34.67-2.9,1.89v-1.73h-2.51v.38h.56l.67.32v5.95l-.67.32h-.56v.38h3.74v-.38h-.56l-.67-.32v-4.06c.42-1.36,1.17-2.21,2.45-2.21,1.07,0,1.71.53,1.71,2.34v3.94l-.67.32h-.56v.38ZM87.02,23.92c0-2.24,1.02-3.44,2.51-3.44s2.51,1.2,2.51,3.44-1.02,3.44-2.51,3.44-2.51-1.2-2.51-3.44M89.54,27.76c2,0,3.84-1.47,3.84-3.84s-1.84-3.84-3.84-3.84-3.84,1.47-3.84,3.84,1.84,3.84,3.84,3.84M82.3,27.76c1.23,0,1.97-.59,2.11-2.24h-.32c-.11,1.26-.75,1.5-1.38,1.5-.69,0-1.2-.3-1.2-1.9v-4.46h2.67v-.42h-2.67v-2.66h-.4l-.88,2.34v.32h-1.58v.42h1.58v4.5c0,1.44.38,2.61,2.06,2.61M74.75,27.76c1.65,0,3.01-.58,3.01-2.22,0-3.2-5.04-1.63-5.04-3.76,0-.82.69-1.31,1.89-1.31,1.12,0,2.06.43,2.5,1.7h.32v-1.12c-.62-.62-1.65-.96-2.8-.96-1.81,0-2.88.82-2.88,2.16,0,2.9,5.15,1.6,5.15,3.78,0,.77-.64,1.36-2.06,1.36-1.6,0-2.45-.75-2.96-2.03h-.32v1.28c.51.62,1.65,1.14,3.2,1.14M66.72,27.6h3.74v-.38h-.56l-.67-.32v-10.5h-2.51v.38h.56l.67.32v9.79l-.67.32h-.56v.38ZM59.6,25.18c0-1.38.69-2.32,2.05-2.32,1.09,0,1.95.59,2.08,1.82v.9c-.13,1.25-.99,1.79-2.08,1.79-1.26,0-2.05-.74-2.05-2.19M63.73,27.6h2.51v-.38h-.56l-.67-.32v-4.03c0-1.47-.53-2.78-3.23-2.78-1.36,0-2.42.34-3.12.7v1.44h.32c.38-1.22,1.34-1.78,2.66-1.78,1.62,0,2.1.78,2.1,2.42v.7c-.46-.72-1.31-1.09-2.43-1.09-1.98,0-3.04,1.18-3.04,2.7s1.09,2.58,2.99,2.58c1.15,0,2.02-.37,2.48-1.07v.91ZM45.12,27.6h3.74v-.38h-.56l-.67-.32v-4.85h6.78v4.85l-.67.32h-.56v.38h3.74v-.38h-.56l-.67-.32v-9.79l.67-.32h.56v-.38h-3.74v.38h.56l.67.32v4.54h-6.78v-4.54l.67-.32h.56v-.38h-3.74v.38h.56l.67.32v9.79l-.67.32h-.56v.38ZM30.53,27.6h3.98v-.38h-.67l-.8-.32v-4.77h3.18l.34,1.92v.66h.38v-5.57h-.38v.66l-.34,1.94h-3.18v-4.85l1.01-.1h4.5l.61,2.94v.66h.38v-3.98h-9.01v.38h.56l.67.32v9.79l-.67.32h-.56v.38ZM14.72,27.6h2.9v-.38h-.56l-.67-.32v-9.49l4.54,8.11h.64l4.34-8.4v9.78l-.67.32h-.56v.38h3.68v-.38h-.56l-.67-.32v-9.79l.67-.32h.56v-.38h-2.51l-4.14,8.02-4.46-8.02h-2.51v.38h.56l.67.32v9.79l-.67.32h-.56v.38Z"/>
      <path class="cls-8" d="M532.58,43.6h3.74v-.38h-.56l-.67-.32v-3.94c0-1.71-.56-2.88-2.54-2.88-1.47,0-2.34.67-2.9,1.89v-5.57h-2.51v.38h.56l.67.32v9.79l-.67.32h-.56v.38h3.74v-.38h-.56l-.67-.32v-4.06c.42-1.36,1.17-2.21,2.45-2.21,1.07,0,1.71.53,1.71,2.34v3.94l-.67.32h-.56v.38ZM524.21,43.76c1.23,0,1.97-.59,2.11-2.24h-.32c-.11,1.26-.75,1.5-1.38,1.5-.69,0-1.2-.3-1.2-1.9v-4.46h2.67v-.42h-2.67v-2.66h-.4l-.88,2.34v.32h-1.58v.42h1.58v4.5c0,1.44.38,2.61,2.06,2.61M512.93,39.97c0-1.95.77-3.46,2.64-3.46.91,0,1.6.34,2.11.91v4.91c-.61.66-1.34.94-2.16.94-1.41,0-2.59-.9-2.59-3.31M517.68,43.6h2.51v-.38h-.56l-.67-.32v-10.5h-2.51v.38h.56l.67.32v3.82c-.4-.46-1.2-.85-2.34-.85-2.11,0-3.74,1.31-3.74,3.86,0,2.75,1.92,3.82,3.7,3.82,1.17,0,1.9-.48,2.38-.96v.8ZM507.8,34.06c0,.62.48.96.94.96s.94-.34.94-.96-.48-.94-.94-.94-.94.3-.94.94M506.9,43.6h3.74v-.38h-.56l-.67-.32v-6.66h-2.51v.38h.56l.67.32v5.95l-.67.32h-.56v.38ZM502.23,43.6h.45l2.59-6.66.67-.32h.56v-.38h-2.91v.38h.56l.67.32-1.95,5.1-1.82-5.1.67-.32h.56v-.38h-3.81v.38h.56l.67.32.32.82-1.78,4.34-1.84-5.15.67-.32h.56v-.38h-3.81v.38h.56l.67.32,2.53,6.66h.45l2.19-5.28,2,5.28ZM481.62,41.95l4.67-7.38c.34.86.51,2.02.51,3.42v.16c0,3.46-1.17,5.28-2.96,5.28-.94,0-1.71-.51-2.22-1.49M480.88,38.16v-.16c0-3.57,1.17-5.44,2.96-5.44.93,0,1.7.51,2.21,1.49l-4.67,7.39c-.32-.85-.5-1.94-.5-3.28M483.84,43.92c2.5,0,4.37-2.27,4.37-5.76v-.16c0-3.6-1.87-5.92-4.37-5.92s-4.37,2.32-4.37,5.92v.16c0,3.49,1.87,5.76,4.37,5.76M470.74,41.95l4.67-7.38c.34.86.51,2.02.51,3.42v.16c0,3.46-1.17,5.28-2.96,5.28-.94,0-1.71-.51-2.22-1.49M470,38.16v-.16c0-3.57,1.17-5.44,2.96-5.44.93,0,1.7.51,2.21,1.49l-4.67,7.39c-.32-.85-.5-1.94-.5-3.28M472.96,43.92c2.5,0,4.37-2.27,4.37-5.76v-.16c0-3.6-1.87-5.92-4.37-5.92s-4.37,2.32-4.37,5.92v.16c0,3.49,1.87,5.76,4.37,5.76M458.61,43.6h6.69v-.38h-2l-.67-.32v-10.5h-.54l-1.44.38h-1.92v.38h2.56v9.73l-.67.32h-2v.38ZM448.18,39.46h7.52v-.48h-7.52v.48ZM441.67,43.92c2.4,0,4.02-1.46,4.02-3.9,0-2.32-1.44-3.62-3.58-3.62-1.39,0-2.35.56-3.01,1.44v-4.13h5.94v-1.31h-6.08l-.32,1.28v5.04h.34c.62-1.12,1.47-1.84,2.78-1.84,1.52,0,2.53.98,2.53,3.22s-1.01,3.44-2.62,3.44c-1.42,0-2.58-1.04-2.86-2.98h-.5v2.22c.61.5,1.78,1.14,3.38,1.14M428.98,43.6h1.74l4.24-10.8v-.4h-7.68v2.69h.35v-.38l.27-1.02h6.3l-5.23,9.92ZM417.59,37.97l-.19.19,1.73,2.29h-5.98v-8.05h-.64v8.66h6.62l-1.73,2.29.19.19,2.91-2.54v-.48l-2.91-2.54Z"/>
      <path class="cls-8" d="M509.54,27.76c1.23,0,1.97-.59,2.11-2.24h-.32c-.11,1.26-.75,1.5-1.38,1.5-.69,0-1.2-.3-1.2-1.9v-4.46h2.67v-.42h-2.67v-2.66h-.4l-.88,2.34v.32h-1.58v.42h1.58v4.5c0,1.44.38,2.61,2.06,2.61M502.02,27.6h3.74v-.38h-.56l-.67-.32v-3.94c0-1.71-.56-2.88-2.54-2.88-1.47,0-2.34.67-2.9,1.89v-5.57h-2.51v.38h.56l.67.32v9.79l-.67.32h-.56v.38h3.74v-.38h-.56l-.67-.32v-4.06c.42-1.36,1.17-2.21,2.45-2.21,1.07,0,1.71.53,1.71,2.34v3.94l-.67.32h-.56v.38ZM489.94,22.4c0-1.52.85-2.16,1.81-2.16s1.81.62,1.81,2.14-.9,2.18-1.81,2.18-1.81-.59-1.81-2.16M489.3,29.17c0-.85.51-1.39,2.03-1.71l1.82.32c.96.16,1.63.48,1.63,1.3,0,1.1-1.18,1.57-2.96,1.57s-2.53-.46-2.53-1.47M491.62,30.96c2.59,0,4.13-.83,4.13-2.43,0-1.14-.86-1.71-2.29-1.95l-4.24-.72,2.46-.98h.06c1.3,0,3.04-.74,3.04-2.5,0-.78-.35-1.36-.85-1.76h.93l.98.16h.22v-.54h-2.78c-.48-.22-1.04-.32-1.54-.32-1.38,0-3.04.77-3.04,2.46,0,1.42,1.17,2.19,2.3,2.42l-2.22.88v1.34l1.81.3c-1.76.35-2.45.94-2.45,1.81,0,1.06.99,1.82,3.47,1.82M484.66,18.06c0,.62.48.96.94.96s.94-.34.94-.96-.48-.94-.94-.94-.94.3-.94.94M483.76,27.6h3.74v-.38h-.56l-.67-.32v-6.66h-2.51v.38h.56l.67.32v5.95l-.67.32h-.56v.38ZM477.24,22.66c.24-1.3.98-2.19,2.26-2.19s1.89.85,2.03,2.19h-4.29ZM479.48,27.76c2.08,0,3.23-1.34,3.52-2.8h-.32c-.21,1.02-1.07,2.16-2.7,2.16-1.76,0-2.82-1.31-2.82-3.47,0-.21.02-.42.03-.61h5.57c-.06-1.41-.8-2.96-3.12-2.96s-3.81,1.54-3.81,3.97,1.6,3.71,3.65,3.71M471.03,27.6h.45l2.59-6.66.67-.32h.56v-.38h-2.91v.38h.56l.67.32-1.95,5.1-1.82-5.1.67-.32h.56v-.38h-3.81v.38h.56l.67.32.32.82-1.78,4.34-1.84-5.15.67-.32h.56v-.38h-3.81v.38h.56l.67.32,2.53,6.66h.45l2.19-5.28,2,5.28ZM450.42,25.95l4.67-7.38c.34.86.51,2.02.51,3.42v.16c0,3.46-1.17,5.28-2.96,5.28-.94,0-1.71-.51-2.22-1.49M449.68,22.16v-.16c0-3.57,1.17-5.44,2.96-5.44.93,0,1.7.51,2.21,1.49l-4.67,7.39c-.32-.85-.5-1.94-.5-3.28M452.64,27.92c2.5,0,4.37-2.27,4.37-5.76v-.16c0-3.6-1.87-5.92-4.37-5.92s-4.37,2.32-4.37,5.92v.16c0,3.49,1.87,5.76,4.37,5.76M439.54,25.95l4.67-7.38c.34.86.51,2.02.51,3.42v.16c0,3.46-1.17,5.28-2.96,5.28-.94,0-1.71-.51-2.22-1.49M438.8,22.16v-.16c0-3.57,1.17-5.44,2.96-5.44.93,0,1.7.51,2.21,1.49l-4.67,7.39c-.32-.85-.5-1.94-.5-3.28M441.76,27.92c2.5,0,4.37-2.27,4.37-5.76v-.16c0-3.6-1.87-5.92-4.37-5.92s-4.37,2.32-4.37,5.92v.16c0,3.49,1.87,5.76,4.37,5.76M426.66,23.6l4.85-6.5v6.5h-4.85ZM430.28,27.6h3.81v-.38h-.56l-.67-.32v-2.66h2.24v-.64h-2.24v-7.2h-1.34l-5.41,7.2.21.64h5.2v2.66l-.67.32h-.56v.38ZM417.59,21.97l-.19.19,1.73,2.29h-5.98v-8.05h-.64v8.66h6.62l-1.73,2.29.19.19,2.91-2.54v-.48l-2.91-2.54Z"/>
      <path class="cls-8" d="M214.18,43.76c1.65,0,3.01-.58,3.01-2.22,0-3.2-5.04-1.63-5.04-3.76,0-.82.69-1.31,1.89-1.31,1.12,0,2.06.43,2.5,1.7h.32v-1.12c-.62-.62-1.65-.96-2.8-.96-1.81,0-2.88.82-2.88,2.16,0,2.9,5.15,1.6,5.15,3.78,0,.77-.64,1.36-2.06,1.36-1.6,0-2.45-.75-2.96-2.03h-.32v1.28c.51.62,1.65,1.14,3.2,1.14M203.75,38.66c.24-1.3.98-2.19,2.26-2.19s1.89.85,2.03,2.19h-4.29ZM205.99,43.76c2.08,0,3.23-1.34,3.52-2.8h-.32c-.21,1.02-1.07,2.16-2.7,2.16-1.76,0-2.82-1.31-2.82-3.47,0-.21.02-.42.03-.61h5.57c-.06-1.41-.8-2.96-3.12-2.96s-3.81,1.54-3.81,3.97,1.6,3.71,3.65,3.71M197.67,43.6h3.74v-.38h-.56l-.67-.32v-10.5h-2.51v.38h.56l.67.32v9.79l-.67.32h-.56v.38ZM190.73,46.8h1.15l4.5-9.86.67-.32h.56v-.38h-2.94v.38h.56l.67.32-2.29,5.01-2.22-5.01.67-.32h.56v-.38h-3.87v.38h.56l.67.32,2.99,6.43-1.06,2.3h-2.3v.32l1.12.8ZM186.2,43.76c1.23,0,1.97-.59,2.11-2.24h-.32c-.11,1.26-.75,1.5-1.38,1.5-.69,0-1.2-.3-1.2-1.9v-4.46h2.67v-.42h-2.67v-2.66h-.4l-.88,2.34v.32h-1.58v.42h1.58v4.5c0,1.44.38,2.61,2.06,2.61M178.65,43.76c1.65,0,3.01-.58,3.01-2.22,0-3.2-5.04-1.63-5.04-3.76,0-.82.69-1.31,1.89-1.31,1.12,0,2.06.43,2.5,1.7h.32v-1.12c-.62-.62-1.65-.96-2.8-.96-1.81,0-2.88.82-2.88,2.16,0,2.9,5.15,1.6,5.15,3.78,0,.77-.64,1.36-2.06,1.36-1.6,0-2.45-.75-2.96-2.03h-.32v1.28c.51.62,1.65,1.14,3.2,1.14M160.38,41.95l4.67-7.38c.34.86.51,2.02.51,3.42v.16c0,3.46-1.17,5.28-2.96,5.28-.94,0-1.71-.51-2.22-1.49M159.64,38.16v-.16c0-3.57,1.17-5.44,2.96-5.44.93,0,1.7.51,2.21,1.49l-4.67,7.39c-.32-.85-.5-1.94-.5-3.28M162.6,43.92c2.5,0,4.37-2.27,4.37-5.76v-.16c0-3.6-1.87-5.92-4.37-5.92s-4.37,2.32-4.37,5.92v.16c0,3.49,1.87,5.76,4.37,5.76M149.26,35.65c0-1.7.56-3.18,2.54-3.18,1.68,0,2.51,1.1,2.62,3.54-.13,1.78-1.23,2.72-2.75,2.72-1.78,0-2.42-1.25-2.42-3.07M151.84,32.08c-2.53,0-3.98,1.47-3.98,3.66,0,2.3,1.58,3.44,3.58,3.44,1.49,0,2.46-.64,2.98-1.54-.32,4.06-2.48,5.58-4.88,5.58l-.83-.82h-.46v1.18h1.22c4.08,0,6.4-2.7,6.4-6.78,0-3.42-1.63-4.74-4.02-4.74"/>
      <path class="cls-8" d="M203.09,27.76c1.65,0,3.01-.58,3.01-2.22,0-3.2-5.04-1.63-5.04-3.76,0-.82.69-1.31,1.89-1.31,1.12,0,2.06.43,2.5,1.7h.32v-1.12c-.62-.62-1.65-.96-2.8-.96-1.81,0-2.88.82-2.88,2.16,0,2.9,5.15,1.6,5.15,3.78,0,.77-.64,1.36-2.06,1.36-1.6,0-2.45-.75-2.96-2.03h-.32v1.28c.51.62,1.65,1.14,3.2,1.14M196.36,27.76c1.23,0,1.97-.59,2.11-2.24h-.32c-.11,1.26-.75,1.5-1.38,1.5-.69,0-1.2-.3-1.2-1.9v-4.46h2.67v-.42h-2.67v-2.66h-.4l-.88,2.34v.32h-1.58v.42h1.58v4.5c0,1.44.38,2.61,2.06,2.61M187.14,27.76c1.26,0,2.22-.62,2.78-1.81v1.65h2.51v-.38h-.56l-.67-.32v-6.66h-2.51v.38h.56l.67.32v4.08c-.37,1.38-1.14,2.19-2.42,2.19-.96,0-1.58-.5-1.58-2.34v-4.64h-2.51v.38h.56l.67.32v3.94c0,1.82.86,2.88,2.5,2.88M179.17,27.76c1.41,0,2.94-.58,3.36-2.67h-.32c-.3,1.47-1.44,2.03-2.56,2.03-1.47,0-2.88-.94-2.88-3.26,0-1.89.94-3.39,2.69-3.39,1.34,0,2.27.91,2.38,2.02h.32v-1.44c-.48-.5-1.38-.96-2.66-.96-2.38,0-4.06,1.52-4.06,3.95s1.54,3.73,3.73,3.73M160.14,19.65c0-1.7.56-3.18,2.54-3.18,1.68,0,2.51,1.1,2.62,3.54-.13,1.78-1.23,2.72-2.75,2.72-1.78,0-2.42-1.25-2.42-3.07M162.72,16.08c-2.53,0-3.98,1.47-3.98,3.66,0,2.3,1.58,3.44,3.58,3.44,1.49,0,2.46-.64,2.98-1.54-.32,4.06-2.48,5.58-4.88,5.58l-.83-.82h-.46v1.18h1.22c4.08,0,6.4-2.7,6.4-6.78,0-3.42-1.63-4.74-4.02-4.74M149.5,25.95l4.67-7.38c.34.86.51,2.02.51,3.42v.16c0,3.46-1.17,5.28-2.96,5.28-.94,0-1.71-.51-2.22-1.49M148.76,22.16v-.16c0-3.57,1.17-5.44,2.96-5.44.93,0,1.7.51,2.21,1.49l-4.67,7.39c-.32-.85-.5-1.94-.5-3.28M151.72,27.92c2.5,0,4.37-2.27,4.37-5.76v-.16c0-3.6-1.87-5.92-4.37-5.92s-4.37,2.32-4.37,5.92v.16c0,3.49,1.87,5.76,4.37,5.76"/>
      <path class="cls-8" d="M383.19,43.6h7.58v-3.2h-.48v.64l-.27,1.44h-6.11l3.38-2.66c2.1-1.65,3.2-2.61,3.2-4.5,0-2.02-1.33-3.25-3.54-3.25-1.74,0-2.9.78-3.62,1.52v2h.4c.38-1.87,1.41-3.12,3.09-3.12s2.32,1.25,2.32,3.02c0,1.47-.45,2.59-2.32,4.08l-3.63,2.9v1.12ZM373.7,41.95l4.67-7.38c.34.86.51,2.02.51,3.42v.16c0,3.46-1.17,5.28-2.96,5.28-.94,0-1.71-.51-2.22-1.49M372.96,38.16v-.16c0-3.57,1.17-5.44,2.96-5.44.93,0,1.7.51,2.21,1.49l-4.67,7.39c-.32-.85-.5-1.94-.5-3.28M375.92,43.92c2.5,0,4.37-2.27,4.37-5.76v-.16c0-3.6-1.87-5.92-4.37-5.92s-4.37,2.32-4.37,5.92v.16c0,3.49,1.87,5.76,4.37,5.76M366.85,43.76c1.65,0,3.01-.58,3.01-2.22,0-3.2-5.04-1.63-5.04-3.76,0-.82.69-1.31,1.89-1.31,1.12,0,2.06.43,2.5,1.7h.32v-1.12c-.62-.62-1.65-.96-2.8-.96-1.81,0-2.88.82-2.88,2.16,0,2.9,5.15,1.6,5.15,3.78,0,.77-.64,1.36-2.06,1.36-1.6,0-2.45-.75-2.96-2.03h-.32v1.28c.51.62,1.65,1.14,3.2,1.14M357.71,43.92c2.22,0,4.02-1.01,4.02-3.22,0-4.46-7.3-2.48-7.3-6.02,0-1.39,1.18-2.19,2.86-2.19s2.94.8,3.65,3.12h.32v-3.22h-.3l-.02,1.28c-.72-1.04-1.97-1.6-3.63-1.6-2.26,0-3.79,1.01-3.79,2.99,0,4.34,7.3,2.46,7.3,6.06,0,1.3-.96,2.37-3.02,2.37s-3.54-1.1-4.11-3.28h-.32v3.38h.3l.02-1.41c.78,1.15,2.35,1.73,4.03,1.73M343.54,34.22l3.04,3.47h-9.42v.64h9.42l-3.04,3.47.32.35,4.54-3.92v-.45l-4.54-3.92-.32.35ZM324.39,43.6h6.69v-.38h-2l-.67-.32v-10.5h-.54l-1.44.38h-1.92v.38h2.56v9.73l-.67.32h-2v.38ZM314.76,41.95l4.67-7.38c.34.86.51,2.02.51,3.42v.16c0,3.46-1.17,5.28-2.96,5.28-.94,0-1.71-.51-2.22-1.49M314.02,38.16v-.16c0-3.57,1.17-5.44,2.96-5.44.93,0,1.7.51,2.21,1.49l-4.67,7.39c-.32-.85-.5-1.94-.5-3.28M316.98,43.92c2.5,0,4.37-2.27,4.37-5.76v-.16c0-3.6-1.87-5.92-4.37-5.92s-4.37,2.32-4.37,5.92v.16c0,3.49,1.87,5.76,4.37,5.76M307.91,43.76c1.65,0,3.01-.58,3.01-2.22,0-3.2-5.04-1.63-5.04-3.76,0-.82.69-1.31,1.89-1.31,1.12,0,2.06.43,2.5,1.7h.32v-1.12c-.62-.62-1.65-.96-2.8-.96-1.81,0-2.88.82-2.88,2.16,0,2.9,5.15,1.6,5.15,3.78,0,.77-.64,1.36-2.06,1.36-1.6,0-2.45-.75-2.96-2.03h-.32v1.28c.51.62,1.65,1.14,3.2,1.14M298.77,43.92c2.22,0,4.02-1.01,4.02-3.22,0-4.46-7.3-2.48-7.3-6.02,0-1.39,1.18-2.19,2.86-2.19s2.94.8,3.65,3.12h.32v-3.22h-.3l-.02,1.28c-.72-1.04-1.97-1.6-3.63-1.6-2.26,0-3.79,1.01-3.79,2.99,0,4.34,7.3,2.46,7.3,6.06,0,1.3-.96,2.37-3.02,2.37s-3.54-1.1-4.11-3.28h-.32v3.38h.3l.02-1.41c.78,1.15,2.35,1.73,4.03,1.73"/>
      <path class="cls-8" d="M366.71,22.66c.24-1.3.98-2.19,2.26-2.19s1.89.85,2.03,2.19h-4.29ZM368.95,27.76c2.08,0,3.23-1.34,3.52-2.8h-.32c-.21,1.02-1.07,2.16-2.7,2.16-1.76,0-2.82-1.31-2.82-3.47,0-.21.02-.42.03-.61h5.57c-.06-1.41-.8-2.96-3.12-2.96s-3.81,1.54-3.81,3.97,1.6,3.71,3.65,3.71M357.62,26.4v-4.9c.62-.66,1.41-.94,2.18-.94,1.26,0,2.59.8,2.59,3.23,0,1.97-.88,3.54-2.64,3.54-.9,0-1.62-.37-2.13-.93M359.92,27.76c2.05,0,3.78-1.41,3.78-4.02,0-2.78-1.95-3.66-3.6-3.66-1.22,0-1.98.48-2.48.96v-.8h-2.51v.38h.56l.67.32v9.15l-.67.32h-.56v.38h3.74v-.38h-.56l-.67-.32v-3.17c.43.42,1.18.83,2.3.83M347.83,30.8h1.15l4.5-9.86.67-.32h.56v-.38h-2.94v.38h.56l.67.32-2.29,5.01-2.22-5.01.67-.32h.56v-.38h-3.87v.38h.56l.67.32,2.99,6.43-1.06,2.3h-2.3v.32l1.12.8ZM343.3,27.76c1.23,0,1.97-.59,2.11-2.24h-.32c-.11,1.26-.75,1.5-1.38,1.5-.69,0-1.2-.3-1.2-1.9v-4.46h2.67v-.42h-2.67v-2.66h-.4l-.88,2.34v.32h-1.58v.42h1.58v4.5c0,1.44.38,2.61,2.06,2.61M331.04,27.6h3.74v-.38h-.56l-.67-.32v-3.94c0-1.71-.56-2.88-2.54-2.88-1.47,0-2.34.67-2.9,1.89v-1.73h-2.51v.38h.56l.67.32v5.95l-.67.32h-.56v.38h3.74v-.38h-.56l-.67-.32v-4.06c.42-1.36,1.17-2.21,2.45-2.21,1.07,0,1.71.53,1.71,2.34v3.94l-.67.32h-.56v.38ZM319.08,22.66c.24-1.3.98-2.19,2.26-2.19s1.89.85,2.03,2.19h-4.29ZM321.32,27.76c2.08,0,3.23-1.34,3.52-2.8h-.32c-.21,1.02-1.07,2.16-2.7,2.16-1.76,0-2.82-1.31-2.82-3.47,0-.21.02-.42.03-.61h5.57c-.06-1.41-.8-2.96-3.12-2.96s-3.81,1.54-3.81,3.97,1.6,3.71,3.65,3.71M309.99,26.4v-4.9c.62-.66,1.41-.94,2.18-.94,1.26,0,2.59.8,2.59,3.23,0,1.97-.88,3.54-2.64,3.54-.9,0-1.62-.37-2.13-.93M312.29,27.76c2.05,0,3.78-1.41,3.78-4.02,0-2.78-1.95-3.66-3.6-3.66-1.22,0-1.98.48-2.48.96v-.8h-2.51v.38h.56l.67.32v9.15l-.67.32h-.56v.38h3.74v-.38h-.56l-.67-.32v-3.17c.43.42,1.18.83,2.3.83M295.6,22c0-3.36,1.7-5.5,4.5-5.5s4.51,2.14,4.51,5.5-1.7,5.5-4.51,5.5-4.5-2.14-4.5-5.5M300.1,27.92c3.23,0,5.84-2.22,5.84-5.92s-2.61-5.92-5.84-5.92-5.84,2.22-5.84,5.92,2.62,5.92,5.84,5.92"/>
      <path class="cls-8" d="M586.64,30.73h15.36c0-9.35-7.05-16.73-16.98-16.73v15.07h-15.02c0,9.15,7.14,16.93,16.64,16.93v-15.27Z"/>
      <path class="cls-8" d="M479.94,230.74c2.15,0,3.85-1.7,3.85-3.85s-1.7-3.85-3.85-3.85-3.85,1.7-3.85,3.85,1.7,3.85,3.85,3.85M455.99,230.74c7.62,0,13.91-2.66,13.91-10.29,0-14.8-23.31-7.55-23.31-17.39,0-3.77,3.18-6.07,8.73-6.07,5.18,0,9.55,2,11.54,7.84h1.48v-5.18c-2.89-2.89-7.62-4.44-12.95-4.44-8.36,0-13.32,3.77-13.32,9.99,0,13.39,23.83,7.4,23.83,17.46,0,3.55-2.96,6.29-9.55,6.29-7.4,0-11.32-3.48-13.69-9.4h-1.48v5.92c2.37,2.89,7.62,5.25,14.8,5.25M408.87,207.13c1.11-5.99,4.51-10.14,10.43-10.14s8.73,3.92,9.4,10.14h-19.83ZM419.23,230.74c9.62,0,14.95-6.22,16.28-12.95h-1.48c-.96,4.74-4.96,9.99-12.51,9.99-8.14,0-13.02-6.07-13.02-16.06,0-.96.07-1.92.15-2.81h25.75c-.3-6.51-3.7-13.69-14.43-13.69s-17.61,7.1-17.61,18.35,7.4,17.17,16.87,17.17M382.05,230h17.32v-1.78h-2.59l-3.11-1.48v-18.2c0-7.84-2.52-13.32-11.1-13.32-6.66,0-10.66,3.26-12.88,9.03-.89-5.48-3.85-9.03-10.8-9.03-6.44,0-10.21,3.03-12.58,8.51v-7.77h-11.62v1.78h2.59l3.11,1.48v27.53l-3.11,1.48h-2.59v1.78h17.32v-1.78h-2.59l-3.11-1.48v-18.87c1.7-6.44,4.66-10.14,10.29-10.14,4.66,0,7.47,2.44,7.47,10.8v18.2l-3.11,1.48h-2.59v1.78h17.32v-1.78h-2.59l-3.11-1.48v-18.57c1.7-6.66,4.66-10.43,10.29-10.43,4.66,0,7.47,2.44,7.47,10.8v18.2l-3.11,1.48h-2.59v1.78ZM305.66,207.13c1.11-5.99,4.51-10.14,10.43-10.14s8.73,3.92,9.4,10.14h-19.83ZM316.02,230.74c9.62,0,14.95-6.22,16.28-12.95h-1.48c-.96,4.74-4.96,9.99-12.51,9.99-8.14,0-13.02-6.07-13.02-16.06,0-.96.07-1.92.15-2.81h25.75c-.3-6.51-3.7-13.69-14.43-13.69s-17.61,7.1-17.61,18.35,7.4,17.17,16.87,17.17M278.92,230h17.32v-1.78h-2.59l-3.11-1.48v-18.2c0-7.92-2.59-13.32-11.77-13.32-6.81,0-10.8,3.11-13.39,8.73v-25.75h-11.62v1.78h2.59l3.11,1.48v45.29l-3.11,1.48h-2.59v1.78h17.32v-1.78h-2.59l-3.11-1.48v-18.8c1.92-6.29,5.4-10.21,11.32-10.21,4.96,0,7.92,2.44,7.92,10.8v18.2l-3.11,1.48h-2.59v1.78ZM240.78,230.74c5.7,0,9.1-2.74,9.77-10.36h-1.48c-.52,5.85-3.48,6.96-6.36,6.96-3.18,0-5.55-1.41-5.55-8.81v-20.65h12.36v-1.92h-12.36v-12.28h-1.85l-4.07,10.8v1.48h-7.33v1.92h7.33v20.79c0,6.66,1.78,12.06,9.55,12.06M190.09,230.74c5.7,0,9.1-2.74,9.77-10.36h-1.48c-.52,5.85-3.48,6.96-6.36,6.96-3.18,0-5.55-1.41-5.55-8.81v-20.65h12.36v-1.92h-12.36v-12.28h-1.85l-4.07,10.8v1.48h-7.33v1.92h7.33v20.79c0,6.66,1.78,12.06,9.55,12.06M156.54,230h17.32v-1.78h-2.59l-3.11-1.48v-18.2c0-7.92-2.59-13.32-11.77-13.32-6.81,0-10.8,3.11-13.39,8.73v-7.99h-11.62v1.78h2.59l3.11,1.48v27.53l-3.11,1.48h-2.59v1.78h17.32v-1.78h-2.59l-3.11-1.48v-18.8c1.92-6.29,5.4-10.21,11.32-10.21,4.96,0,7.92,2.44,7.92,10.8v18.2l-3.11,1.48h-2.59v1.78ZM102.34,207.13c1.11-5.99,4.51-10.14,10.43-10.14s8.73,3.92,9.4,10.14h-19.83ZM112.7,230.74c9.62,0,14.95-6.22,16.28-12.95h-1.48c-.96,4.74-4.96,9.99-12.51,9.99-8.14,0-13.02-6.07-13.02-16.06,0-.96.07-1.92.15-2.81h25.75c-.3-6.51-3.7-13.69-14.43-13.69s-17.61,7.1-17.61,18.35,7.4,17.17,16.87,17.17M65.38,205.95c0-7.03,3.92-9.99,8.36-9.99s8.36,2.89,8.36,9.92-4.14,10.06-8.36,10.06-8.36-2.74-8.36-9.99M62.42,237.25c0-3.92,2.37-6.44,9.4-7.92l8.44,1.48c4.44.74,7.55,2.22,7.55,5.99,0,5.11-5.48,7.25-13.69,7.25s-11.69-2.15-11.69-6.81M73.15,245.54c11.99,0,19.09-3.85,19.09-11.25,0-5.25-4-7.92-10.58-9.03l-19.61-3.33,11.4-4.51h.3c5.99,0,14.06-3.4,14.06-11.54,0-3.63-1.63-6.29-3.92-8.14h4.29l4.51.74h1.04v-2.52h-12.88c-2.22-1.04-4.81-1.48-7.1-1.48-6.36,0-14.06,3.55-14.06,11.4,0,6.59,5.4,10.14,10.66,11.17l-10.29,4.07v6.22l8.36,1.41c-8.14,1.63-11.32,4.37-11.32,8.36,0,4.88,4.59,8.44,16.06,8.44M24.06,218.83c0-6.36,3.18-10.73,9.47-10.73,5.03,0,9.03,2.74,9.62,8.44v4.14c-.59,5.77-4.59,8.29-9.62,8.29-5.85,0-9.47-3.4-9.47-10.14M43.16,230h11.62v-1.78h-2.59l-3.11-1.48v-18.65c0-6.81-2.44-12.88-14.95-12.88-6.29,0-11.17,1.55-14.43,3.26v6.66h1.48c1.78-5.62,6.22-8.21,12.28-8.21,7.47,0,9.69,3.63,9.69,11.17v3.26c-2.15-3.33-6.07-5.03-11.25-5.03-9.18,0-14.06,5.48-14.06,12.51s5.03,11.91,13.84,11.91c5.33,0,9.32-1.7,11.47-4.96v4.22Z"/>
      <path class="cls-8" d="M589.35,174.74c5.7,0,9.1-2.74,9.77-10.36h-1.48c-.52,5.85-3.48,6.96-6.36,6.96-3.18,0-5.55-1.41-5.55-8.81v-20.65h12.36v-1.92h-12.36v-12.28h-1.85l-4.07,10.8v1.48h-7.33v1.92h7.33v20.79c0,6.66,1.78,12.06,9.55,12.06M543.97,151.13c1.11-5.99,4.51-10.14,10.43-10.14s8.73,3.92,9.4,10.14h-19.83ZM554.33,174.74c9.62,0,14.95-6.22,16.28-12.95h-1.48c-.96,4.74-4.96,9.99-12.51,9.99-8.14,0-13.02-6.07-13.02-16.06,0-.96.07-1.92.15-2.81h25.75c-.3-6.51-3.7-13.69-14.43-13.69s-17.61,7.1-17.61,18.35,7.4,17.17,16.87,17.17M506.19,174h17.32v-1.78h-2.59l-3.11-1.48v-17.54c.52-7.1,3.26-10.8,7.99-10.8,2.66,0,4.81,1.26,5.7,4.96h1.48v-6.66c-1.26-.81-3.11-1.48-5.7-1.48-4.74,0-7.92,2.22-9.47,7.18v-6.44h-11.62v1.78h2.59l3.11,1.48v27.53l-3.11,1.48h-2.59v1.78ZM487.65,174.74c6.51,0,13.62-2.66,15.54-12.36h-1.48c-1.41,6.81-6.66,9.4-11.84,9.4-6.81,0-13.32-4.37-13.32-15.1,0-8.73,4.37-15.69,12.43-15.69,6.22,0,10.51,4.22,11.03,9.32h1.48v-6.66c-2.22-2.29-6.36-4.44-12.28-4.44-11.03,0-18.8,7.03-18.8,18.28s7.1,17.24,17.24,17.24M438.2,151.13c1.11-5.99,4.51-10.14,10.43-10.14s8.73,3.92,9.4,10.14h-19.83ZM448.56,174.74c9.62,0,14.95-6.22,16.28-12.95h-1.48c-.96,4.74-4.96,9.99-12.51,9.99-8.14,0-13.02-6.07-13.02-16.06,0-.96.07-1.92.15-2.81h25.75c-.3-6.51-3.7-13.69-14.43-13.69s-17.61,7.1-17.61,18.35,7.4,17.17,16.87,17.17M412.36,174.74c7.62,0,13.91-2.66,13.91-10.29,0-14.8-23.31-7.55-23.31-17.39,0-3.77,3.18-6.07,8.73-6.07,5.18,0,9.55,2,11.54,7.84h1.48v-5.18c-2.89-2.89-7.62-4.44-12.95-4.44-8.36,0-13.32,3.77-13.32,9.99,0,13.39,23.83,7.4,23.83,17.46,0,3.55-2.96,6.29-9.55,6.29-7.4,0-11.32-3.48-13.69-9.4h-1.48v5.92c2.37,2.89,7.62,5.25,14.8,5.25M344.13,174h17.32v-1.78h-2.59l-3.11-1.48v-17.54c.52-7.1,3.26-10.8,7.99-10.8,2.66,0,4.81,1.26,5.7,4.96h1.48v-6.66c-1.26-.81-3.11-1.48-5.7-1.48-4.74,0-7.92,2.22-9.47,7.18v-6.44h-11.62v1.78h2.59l3.11,1.48v27.53l-3.11,1.48h-2.59v1.78ZM315.09,151.13c1.11-5.99,4.51-10.14,10.43-10.14s8.73,3.92,9.4,10.14h-19.83ZM325.45,174.74c9.62,0,14.95-6.22,16.28-12.95h-1.48c-.96,4.74-4.96,9.99-12.51,9.99-8.14,0-13.02-6.07-13.02-16.06,0-.96.07-1.92.15-2.81h25.75c-.3-6.51-3.7-13.69-14.43-13.69s-17.61,7.1-17.61,18.35,7.4,17.17,16.87,17.17M288.36,174h17.32v-1.78h-2.59l-3.11-1.48v-18.2c0-7.92-2.59-13.32-11.77-13.32-6.81,0-10.8,3.11-13.39,8.73v-25.75h-11.62v1.78h2.59l3.11,1.48v45.29l-3.11,1.48h-2.59v1.78h17.32v-1.78h-2.59l-3.11-1.48v-18.8c1.92-6.29,5.4-10.21,11.32-10.21,4.96,0,7.92,2.44,7.92,10.8v18.2l-3.11,1.48h-2.59v1.78ZM250.21,174.74c5.7,0,9.1-2.74,9.77-10.36h-1.48c-.52,5.85-3.48,6.96-6.36,6.96-3.18,0-5.55-1.41-5.55-8.81v-20.65h12.36v-1.92h-12.36v-12.28h-1.85l-4.07,10.8v1.48h-7.33v1.92h7.33v20.79c0,6.66,1.78,12.06,9.55,12.06M202.27,156.98c0-10.36,4.74-15.91,11.62-15.91s11.62,5.55,11.62,15.91-4.74,15.91-11.62,15.91-11.62-5.55-11.62-15.91M213.89,174.74c9.25,0,17.76-6.81,17.76-17.76s-8.51-17.76-17.76-17.76-17.76,6.81-17.76,17.76,8.51,17.76,17.76,17.76M137.52,157.2c0-9.03,3.55-15.98,12.21-15.98,4.22,0,7.4,1.55,9.77,4.22v22.72c-2.81,3.03-6.22,4.37-9.99,4.37-6.51,0-11.99-4.14-11.99-15.32M159.5,174h11.62v-1.78h-2.59l-3.11-1.48v-48.54h-11.62v1.78h2.59l3.11,1.48v17.69c-1.85-2.15-5.55-3.92-10.8-3.92-9.77,0-17.32,6.07-17.32,17.83,0,12.73,8.88,17.69,17.09,17.69,5.4,0,8.81-2.22,11.03-4.44v3.7ZM111.15,174h17.32v-1.78h-2.59l-3.11-1.48v-18.2c0-7.92-2.59-13.32-11.77-13.32-6.81,0-10.8,3.11-13.39,8.73v-7.99h-11.62v1.78h2.59l3.11,1.48v27.53l-3.11,1.48h-2.59v1.78h17.32v-1.78h-2.59l-3.11-1.48v-18.8c1.92-6.29,5.4-10.21,11.32-10.21,4.96,0,7.92,2.44,7.92,10.8v18.2l-3.11,1.48h-2.59v1.78ZM51.67,162.83c0-6.36,3.18-10.73,9.47-10.73,5.03,0,9.03,2.74,9.62,8.44v4.14c-.59,5.77-4.59,8.29-9.62,8.29-5.85,0-9.47-3.4-9.47-10.14M70.76,174h11.62v-1.78h-2.59l-3.11-1.48v-18.65c0-6.81-2.44-12.88-14.95-12.88-6.29,0-11.17,1.55-14.43,3.26v6.66h1.48c1.78-5.62,6.22-8.21,12.28-8.21,7.47,0,9.69,3.63,9.69,11.17v3.26c-2.15-3.33-6.07-5.03-11.25-5.03-9.18,0-14.06,5.48-14.06,12.51s5.03,11.91,13.84,11.91c5.33,0,9.32-1.7,11.47-4.96v4.22Z"/>
      <path class="cls-8" d="M478.79,68.27c0,4.37,5.48,2.89,5.48,7.47,0,2.59-1.78,4.81-5.03,5.85v1.48c5.85-1.55,8.51-6.29,8.51-11.47,0-4.88-2.37-7.18-5.11-7.18-2.15,0-3.85,1.41-3.85,3.85M467.39,81.59v1.48c5.85-1.55,8.51-6.29,8.51-11.47,0-4.88-2.37-7.18-5.11-7.18-2.15,0-3.85,1.41-3.85,3.85,0,4.37,5.48,2.89,5.48,7.47,0,2.59-1.78,4.81-5.03,5.85M442.94,118h17.32v-1.78h-2.59l-3.11-1.48v-48.54h-11.62v1.78h2.59l3.11,1.48v45.29l-3.11,1.48h-2.59v1.78ZM422.09,118h17.32v-1.78h-2.59l-3.11-1.48v-48.54h-11.62v1.78h2.59l3.11,1.48v45.29l-3.11,1.48h-2.59v1.78ZM387.76,106.83c0-6.36,3.18-10.73,9.47-10.73,5.03,0,9.03,2.74,9.62,8.44v4.14c-.59,5.77-4.59,8.29-9.62,8.29-5.85,0-9.47-3.4-9.47-10.14M406.85,118h11.62v-1.78h-2.59l-3.11-1.48v-18.65c0-6.81-2.44-12.88-14.95-12.88-6.29,0-11.17,1.55-14.43,3.26v6.66h1.48c1.78-5.62,6.22-8.21,12.28-8.21,7.47,0,9.69,3.63,9.69,11.17v3.26c-2.15-3.33-6.07-5.03-11.25-5.03-9.18,0-14.06,5.48-14.06,12.51s5.03,11.91,13.84,11.91c5.33,0,9.32-1.7,11.47-4.96v4.22ZM347.23,112.45v-22.64c2.89-3.03,6.51-4.37,10.06-4.37,5.85,0,11.91,3.7,11.91,14.95,0,9.1-4,16.35-12.14,16.35-4.14,0-7.47-1.7-9.84-4.29M357.81,118.74c9.62,0,17.54-6.51,17.54-18.57,0-12.88-9.03-16.95-16.65-16.95-5.62,0-9.18,2.22-11.47,4.44v-21.46h-11.62v1.78h2.59l3.11,1.48v48.54h1.48l3.77-3.77c2.37,2.52,5.92,4.51,11.25,4.51M307.64,118h17.32v-1.78h-2.59l-3.11-1.48v-17.54c.52-7.1,3.26-10.8,7.99-10.8,2.66,0,4.81,1.26,5.7,4.96h1.48v-6.66c-1.26-.81-3.11-1.48-5.7-1.48-4.74,0-7.92,2.22-9.47,7.18v-6.44h-11.62v1.78h2.59l3.11,1.48v27.53l-3.11,1.48h-2.59v1.78ZM278.6,95.13c1.11-5.99,4.51-10.14,10.43-10.14s8.73,3.92,9.4,10.14h-19.83ZM288.96,118.74c9.62,0,14.95-6.22,16.28-12.95h-1.48c-.96,4.74-4.96,9.99-12.51,9.99-8.14,0-13.02-6.07-13.02-16.06,0-.96.07-1.92.15-2.81h25.75c-.3-6.51-3.7-13.69-14.43-13.69s-17.61,7.1-17.61,18.35,7.4,17.17,16.87,17.17M235.58,101.2c0-9.03,3.55-15.98,12.21-15.98,4.22,0,7.4,1.55,9.77,4.22v22.72c-2.81,3.03-6.22,4.37-9.99,4.37-6.51,0-11.99-4.14-11.99-15.32M257.56,118h11.62v-1.78h-2.59l-3.11-1.48v-48.54h-11.62v1.78h2.59l3.11,1.48v17.69c-1.85-2.15-5.55-3.92-10.8-3.92-9.77,0-17.32,6.07-17.32,17.83,0,12.73,8.88,17.69,17.09,17.69,5.4,0,8.81-2.22,11.03-4.44v3.7ZM209.22,118h17.32v-1.78h-2.59l-3.11-1.48v-18.2c0-7.92-2.59-13.32-11.77-13.32-6.81,0-10.8,3.11-13.39,8.73v-7.99h-11.62v1.78h2.59l3.11,1.48v27.53l-3.11,1.48h-2.59v1.78h17.32v-1.78h-2.59l-3.11-1.48v-18.8c1.92-6.29,5.4-10.21,11.32-10.21,4.96,0,7.92,2.44,7.92,10.8v18.2l-3.11,1.48h-2.59v1.78ZM156.1,118.74c5.85,0,10.29-2.89,12.88-8.36v7.62h11.62v-1.78h-2.59l-3.11-1.48v-30.78h-11.62v1.78h2.59l3.11,1.48v18.87c-1.7,6.36-5.25,10.14-11.17,10.14-4.44,0-7.33-2.29-7.33-10.8v-21.46h-11.62v1.78h2.59l3.11,1.48v18.2c0,8.44,4,13.32,11.54,13.32M121.72,118h17.32v-1.78h-2.59l-3.11-1.48v-18.2c0-7.92-2.59-13.32-11.77-13.32-6.81,0-10.8,3.11-13.39,8.73v-25.75h-11.62v1.78h2.59l3.11,1.48v45.29l-3.11,1.48h-2.59v1.78h17.32v-1.78h-2.59l-3.11-1.48v-18.8c1.92-6.29,5.4-10.21,11.32-10.21,4.96,0,7.92,2.44,7.92,10.8v18.2l-3.11,1.48h-2.59v1.78ZM60.03,118h17.32v-1.78h-2.59l-3.11-1.48v-46.69h16.43l1.85,13.69v2.96h2.15v-18.5h-46.77v18.5h2.15v-2.96l1.85-13.69h16.43v46.69l-3.11,1.48h-2.59v1.78ZM29.02,75.15c0,4.88,2.37,7.18,5.11,7.18,2.15,0,3.85-1.41,3.85-3.85,0-4.37-5.48-2.89-5.48-7.47,0-2.59,1.78-4.81,5.03-5.85v-1.48c-5.85,1.55-8.51,6.29-8.51,11.47M24.95,65.16v-1.48c-5.85,1.55-8.51,6.29-8.51,11.47,0,4.88,2.37,7.18,5.11,7.18,2.15,0,3.85-1.41,3.85-3.85,0-4.37-5.48-2.89-5.48-7.47,0-2.59,1.78-4.81,5.03-5.85"/>
      <path class="cls-8" d="M146.3,339.33c34.95,0,63.38-17.85,63.38-39.78s-28.43-39.79-63.38-39.79-63.38,17.85-63.38,39.79,28.43,39.78,63.38,39.78"/>
      <ellipse class="cls-3" cx="146.3" cy="299.54" rx="63.38" ry="39.79"/>
      <path class="cls-8" d="M308.34,339.33c34.95,0,63.38-17.85,63.38-39.78s-28.43-39.79-63.38-39.79-63.38,17.85-63.38,39.79,28.43,39.78,63.38,39.78"/>
      <ellipse class="cls-3" cx="308.34" cy="299.54" rx="63.38" ry="39.79"/>
      <path class="cls-8" d="M469.96,339.33c34.95,0,63.38-17.85,63.38-39.78s-28.43-39.79-63.38-39.79-63.38,17.85-63.38,39.79,28.43,39.78,63.38,39.78"/>
      <ellipse class="cls-3" cx="469.96" cy="299.54" rx="63.38" ry="39.79"/>
      <path class="cls-8" d="M146.3,425.37c13.77,0,24.98-11.21,24.98-24.98s-11.21-24.98-24.98-24.98-24.98,11.21-24.98,24.98,11.21,24.98,24.98,24.98"/>
      <circle class="cls-4" cx="146.3" cy="400.39" r="24.98"/>
      <path class="cls-8" d="M308,425.37c13.77,0,24.98-11.21,24.98-24.98s-11.21-24.98-24.98-24.98-24.98,11.21-24.98,24.98,11.21,24.98,24.98,24.98"/>
      <circle class="cls-4" cx="308" cy="400.39" r="24.98"/>
      <path class="cls-8" d="M469.96,425.37c13.77,0,24.98-11.21,24.98-24.98s-11.21-24.98-24.98-24.98-24.98,11.21-24.98,24.98,11.21,24.98,24.98,24.98"/>
      <circle class="cls-4" cx="469.96" cy="400.39" r="24.98"/>
      <path class="cls-7" d="M146.3,321.75c34.95,0,63.38-17.85,63.38-39.78s-28.43-39.79-63.38-39.79-63.38,17.85-63.38,39.79,28.43,39.78,63.38,39.78"/>
      <ellipse class="cls-3" cx="146.3" cy="281.96" rx="63.38" ry="39.79"/>
      <path class="cls-7" d="M308,321.75c34.95,0,63.38-17.85,63.38-39.78s-28.43-39.79-63.38-39.79-63.38,17.85-63.38,39.79,28.43,39.78,63.38,39.78"/>
      <ellipse class="cls-3" cx="308" cy="281.96" rx="63.38" ry="39.79"/>
      <path class="cls-7" d="M469.96,321.75c34.95,0,63.38-17.85,63.38-39.78s-28.43-39.79-63.38-39.79-63.38,17.85-63.38,39.79,28.43,39.78,63.38,39.78"/>
      <ellipse class="cls-3" cx="469.96" cy="281.96" rx="63.38" ry="39.79"/>
    </g>
    <line class="cls-5" x1="146.3" y1="333.17" x2="146.3" y2="400.39"/>
    <line class="cls-5" x1="308" y1="333.17" x2="308" y2="400.39"/>
    <line class="cls-5" x1="469.96" y1="333.17" x2="469.96" y2="400.39"/>
    <g class="cls-11">
      <path class="cls-8" d="M527.69,780.79h10.8v39.02l-5.34,2.54h-4.45v3.05h28.98v-3.05h-4.45l-5.34-2.54v-45.25h-2.92l-8.9,2.8h-8.39v3.43ZM500.62,801.64c0-24.66,18.81-42.45,42.58-42.45s42.58,17.79,42.58,42.45-18.94,42.2-42.58,42.2-42.58-17.54-42.58-42.2M543.2,847.27c25.55,0,46.01-18.94,46.01-45.63s-20.46-45.88-46.01-45.88-46.01,19.19-46.01,45.88,20.34,45.63,46.01,45.63"/>
    </g>
    <polygon class="cls-8" points="142.68 302 149.21 302 176.13 262.46 180.35 261.26 183.87 261.26 183.87 259.81 165.39 259.81 165.39 261.26 168.9 261.26 173.12 262.46 148.51 299.05 125.11 262.46 129.32 261.26 132.84 261.26 132.84 259.81 108.73 259.81 108.73 261.26 112.25 261.26 116.47 262.46 142.68 302"/>
    <path class="cls-8" d="M290.66,285.73l15.37-22.72,14.77,22.72h-30.13ZM270.67,302h18.58v-1.45h-3.52l-4.22-1.21,8.24-12.17h31.94l7.94,12.17-4.22,1.21h-3.51v1.45h24.11v-1.45h-3.51l-4.22-1.21-26.22-39.54h-16.07v1.45h3.52l4.22,1.21-25.31,36.88-4.22,1.21h-3.52v1.45Z"/>
    <g class="cls-10">
      <path class="cls-8" d="M454.24,281.27v-19.53l11.55-.48h8.34c10.25,0,14.77,3.43,14.77,9.4,0,6.87-6.13,10.61-16.67,10.61h-17.98ZM438.47,302h25.82v-1.45h-4.52l-5.53-1.21v-16.57h11.55l22.8,19.23h14.57v-1.45h-3.52l-4.22-1.21-20.39-16.63c11.65-.6,21.9-4.94,21.9-11.99s-10.25-10.91-22.8-10.91h-35.66v1.45h3.52l4.22,1.21v36.88l-4.22,1.21h-3.52v1.45Z"/>
    </g>
  </g>
</svg>