<?xml version="1.0" encoding="UTF-8"?>
<svg id="Calque_1" data-name="Calque 1" xmlns="http://www.w3.org/2000/svg" xmlns:xlink="http://www.w3.org/1999/xlink" viewBox="0 0 616 860">
  <defs>
    <style>
      .cls-1 {
        clip-path: url(#clippath);
      }

      .cls-2, .cls-3, .cls-4 {
        fill: none;
      }

      .cls-2, .cls-5, .cls-6 {
        stroke-width: 0px;
      }

      .cls-7 {
        clip-path: url(#clippath-1);
      }

      .cls-8 {
        clip-path: url(#clippath-4);
      }

      .cls-9 {
        clip-path: url(#clippath-3);
      }

      .cls-10 {
        clip-path: url(#clippath-2);
      }

      .cls-3 {
        stroke-width: 3px;
      }

      .cls-3, .cls-4 {
        stroke: #000;
      }

      .cls-6 {
        fill: #fff;
      }
    </style>
    <clipPath id="clippath">
      <rect class="cls-2" width="616" height="860"/>
    </clipPath>
    <clipPath id="clippath-1">
      <rect class="cls-2" width="616" height="860"/>
    </clipPath>
    <clipPath id="clippath-2">
      <rect class="cls-2" width="616" height="860"/>
    </clipPath>
    <clipPath id="clippath-3">
      <rect class="cls-2" width="616" height="860"/>
    </clipPath>
    <clipPath id="clippath-4">
      <rect class="cls-2" width="616" height="860"/>
    </clipPath>
  </defs>
  <g class="cls-1">
    <g class="cls-7">
      <path class="cls-5" d="M602,382h-235.2v235.2c0-129.89,105.3-235.2,235.2-235.2"/>
      <path class="cls-5" d="M54.15,194c0-14.4,19.4-19.8,45.2-19.8h2v3.6c-.2,18.4-11.2,29.8-29.2,29.8-13.6,0-18-6.6-18-13.6M70.55,224.4c17.6,0,25.6-7,32.2-14.8,0,3.2.6,9.6,1.4,12.4h19.8v-1.8c-1.6-6.4-2-18.6-2-22.2v-40.6c0-27.4-15.2-40.2-41.6-40.2-24,0-40,10.6-42,32.8h20.4c2-10,8-17.4,22.4-17.4,15.6,0,20.6,8.6,20.4,23.4v4.2h-2.4c-43.4,0-65.4,12.4-65.4,34.6,0,19.4,15.2,29.6,36.8,29.6"/>
      <path class="cls-5" d="M194.6,533.2c24,0,43.1-3.9,57.3-11.7,14.19-7.8,27.3-18.69,39.3-32.7,0,5.61.39,12.21,1.2,19.8.8,7.6,1.8,13.41,3,17.4h59.4v-5.4c-2.01-8-3.51-18.39-4.5-31.2-1-12.8-1.5-23.79-1.5-33v-128.4c-.4-26-5.61-47.7-15.6-65.1-10-17.4-24.1-30.3-42.3-38.7-18.21-8.4-40.5-12.6-66.9-12.6-24.4,0-45.6,3.6-63.6,10.8-18,7.2-32.4,18.1-43.2,32.7-10.8,14.61-17.2,32.91-19.2,54.9h61.2c3.2-16.4,10.1-29.19,20.7-38.4,10.59-9.2,26.1-13.8,46.5-13.8,15.2,0,27.3,2.7,36.3,8.1s15.5,13.2,19.5,23.4c3.99,10.2,5.79,23.1,5.4,38.7l-.6,65.4c0,18.4-3.6,34.3-10.8,47.7-7.2,13.41-17.31,23.7-30.3,30.9-13,7.2-28.5,10.8-46.5,10.8s-32.5-3.8-41.1-11.4c-8.61-7.59-12.9-17.4-12.9-29.4,0-14,5.79-25.4,17.4-34.2,11.6-8.79,27.5-15.2,47.7-19.2,20.19-3.99,43.7-6,70.5-6h15.6l.6-42h-16.8c-43.2,0-79.41,4-108.6,12-29.2,8.01-51.1,19.71-65.7,35.1-14.61,15.4-21.9,34.3-21.9,56.7,0,28.41,10.1,50.31,30.3,65.7,20.19,15.4,46.89,23.1,80.1,23.1"/>
      <path class="cls-5" d="M103.84,33.39v1.5h1.97v7.2h-1.89v1.5h5.57v-1.5h-1.89v-9.7h-1.5c0,.88-.3.99-2.26.99M96.37,42.02l3.33-6.75c.3.69.48,1.62.48,2.74,0,2.78-1.04,4.29-2.7,4.29-.42,0-.78-.1-1.1-.27M94.77,38c0-2.78,1.04-4.29,2.7-4.29.42,0,.78.1,1.12.27l-3.33,6.77c-.32-.69-.5-1.62-.5-2.75M97.47,43.79c3.14,0,4.5-2.83,4.5-5.79s-1.36-5.79-4.5-5.79-4.5,2.83-4.5,5.79,1.36,5.79,4.5,5.79M79.47,43.6h1.63v-4.38c0-1.92,1.01-2.75,2.19-2.75.91,0,1.7.48,1.7,1.97v5.17h1.63v-5.33c0-2.3-1.26-3.06-2.91-3.06-1.04,0-2,.3-2.61,1.14v-.94h-1.63v8.19ZM71.66,41.36c0-1.15,1.55-1.58,3.62-1.58h.16v.29c-.02,1.47-.9,2.38-2.34,2.38-1.09,0-1.44-.53-1.44-1.09M72.98,43.79c1.41,0,2.05-.56,2.58-1.18,0,.26.05.77.11.99h1.58v-.14c-.13-.51-.16-1.49-.16-1.78v-3.25c0-2.19-1.22-3.22-3.33-3.22-1.92,0-3.2.85-3.36,2.62h1.63c.16-.8.64-1.39,1.79-1.39,1.25,0,1.65.69,1.63,1.87v.34h-.19c-3.47,0-5.23.99-5.23,2.77,0,1.55,1.22,2.37,2.94,2.37M66.38,43.6h1.63v-11.2h-1.63v11.2ZM57.92,39.5c0-1.89.93-3.04,2.37-3.04s2.29,1.15,2.29,3.04-.85,3.04-2.29,3.04-2.37-1.15-2.37-3.04M56.29,46.8h1.62v-4.29c.53.85,1.38,1.28,2.56,1.28,2.3,0,3.82-1.68,3.82-4.29s-1.52-4.29-3.82-4.29c-1.17,0-2.02.43-2.54,1.28v-1.09h-1.63v11.39ZM46.99,43.6h1.63v-3.81h.74l3.1,3.81h1.97l-3.92-4.72,3.7-3.47h-2.08l-2.93,2.88h-.58v-5.89h-1.63v11.2ZM40.5,43.6h1.63v-4.35c0-1.71.78-2.35,2.02-2.35h.9v-1.49h-.77c-1.01,0-1.71.48-2.14,1.42v-1.42h-1.63v8.19ZM31.71,39.5c0-1.9.93-3.04,2.5-3.04s2.5,1.14,2.5,3.04-.93,3.04-2.5,3.04-2.5-1.14-2.5-3.04M34.21,43.79c2.48,0,4.21-1.76,4.21-4.29s-1.73-4.29-4.21-4.29-4.21,1.76-4.21,4.29,1.73,4.29,4.21,4.29M17.18,43.6h3.09l1.47-9.7h.26l1.47,9.7h3.09l2.53-11.2h-1.92l-1.95,9.68h-.26l-1.65-9.68h-2.88l-1.65,9.68h-.26l-1.95-9.68h-1.92l2.53,11.2Z"/>
      <path class="cls-5" d="M79.62,23.5c0-1.89.85-3.04,2.29-3.04s2.37,1.15,2.37,3.04-.93,3.04-2.37,3.04-2.29-1.15-2.29-3.04M84.27,27.6h1.63v-11.2h-1.62v4.1c-.53-.85-1.38-1.28-2.56-1.28-2.3,0-3.82,1.68-3.82,4.29s1.52,4.29,3.82,4.29c1.17,0,2.02-.43,2.54-1.28v1.09ZM68.7,27.6h1.63v-4.38c0-1.92,1.01-2.75,2.19-2.75.91,0,1.7.48,1.7,1.97v5.17h1.63v-5.33c0-2.3-1.26-3.06-2.91-3.06-1.04,0-2,.3-2.61,1.14v-.94h-1.63v8.19ZM60.89,25.36c0-1.15,1.55-1.58,3.62-1.58h.16v.29c-.02,1.47-.9,2.38-2.34,2.38-1.09,0-1.44-.53-1.44-1.09M62.21,27.79c1.41,0,2.05-.56,2.58-1.18,0,.26.05.77.11.99h1.58v-.14c-.13-.51-.16-1.49-.16-1.78v-3.25c0-2.19-1.22-3.22-3.33-3.22-1.92,0-3.2.85-3.36,2.62h1.63c.16-.8.64-1.39,1.79-1.39,1.25,0,1.65.69,1.63,1.87v.34h-.19c-3.47,0-5.23.99-5.23,2.77,0,1.55,1.22,2.37,2.94,2.37M55.61,27.6h1.63v-11.2h-1.63v11.2ZM46.86,21.02v-3.12h3.06c.96,0,1.62.64,1.62,1.54s-.69,1.58-1.62,1.58h-3.06ZM46.86,26.1v-3.57h3.06c1.07,0,1.87.61,1.87,1.79s-.85,1.78-1.76,1.78h-3.17ZM45.07,27.6h4.56c2.11,0,3.95-.86,3.95-3.28,0-1.44-.96-2.32-1.9-2.54.8-.24,1.65-1.1,1.65-2.34,0-2.08-1.81-3.04-3.55-3.04h-4.7v11.2ZM31.07,27.6h1.79v-4.86h5.34v-1.5h-5.34v-3.33h6.14v-1.5h-7.94v11.2ZM15.23,27.6h1.79v-4.13l-.06-5.73h.26l3.17,9.86h2.75l3.2-9.86h.22l-.06,5.73v4.13h1.79v-11.2h-3.26l-3.26,10.24-3.23-10.24h-3.3v11.2Z"/>
      <path class="cls-5" d="M380.61,43.79c2.32,0,4.11-1.65,4.11-4.06s-1.55-3.89-3.62-3.89c-1.12,0-1.84.3-2.45,1.09l.45-3.02h4.59v-1.5h-5.98l-.96,6.21h2.03c.42-.86,1.06-1.26,1.98-1.26,1.38,0,2.16.86,2.16,2.38,0,1.62-.85,2.56-2.32,2.56s-2.34-.77-2.34-2.1h-1.79c0,2.13,1.84,3.6,4.13,3.6M369.91,42.02l3.33-6.75c.3.69.48,1.62.48,2.74,0,2.78-1.04,4.29-2.7,4.29-.42,0-.78-.1-1.1-.27M368.31,38c0-2.78,1.04-4.29,2.7-4.29.42,0,.78.1,1.12.27l-3.33,6.77c-.32-.69-.5-1.62-.5-2.75M371.01,43.79c3.14,0,4.5-2.83,4.5-5.79s-1.36-5.79-4.5-5.79-4.5,2.83-4.5,5.79,1.36,5.79,4.5,5.79M362.07,43.79c1.65,0,3.31-.85,3.31-2.38,0-3.36-5.09-1.84-5.09-3.84,0-.56.35-1.17,1.46-1.17,1.28,0,1.73.61,1.92,1.36h1.63c-.24-1.71-1.82-2.54-3.55-2.54s-3.09.96-3.09,2.4c0,3.36,5.09,1.79,5.09,3.79,0,.77-.67,1.2-1.68,1.2-1.55,0-1.86-.86-2-1.54h-1.63c.24,1.78,1.68,2.72,3.63,2.72M352.64,43.79c2.1,0,3.98-1.09,3.98-3.09,0-4.32-6.4-2.51-6.4-5.39,0-1.09.85-1.6,1.98-1.6,1.34,0,2.26.51,2.4,2.29h1.76c-.21-2.24-1.42-3.79-4.16-3.79-2.1,0-3.78,1.34-3.78,3.09,0,4.32,6.4,2.69,6.4,5.41,0,.86-.69,1.58-2.19,1.58-1.89,0-2.48-1.06-2.72-2.53h-1.76c.19,2.38,1.68,4.03,4.48,4.03M333.92,39.3h8.46l-2.91,2.83h1.76l3.55-3.55-3.55-3.55h-1.76l2.91,2.83-8.46.02v1.42ZM323.25,33.39v1.5h2.43v7.2h-2.58v1.5h6.8v-1.5h-2.43v-9.7h-1.5c0,.88-.3.99-2.72.99M315.78,42.02l3.33-6.75c.3.69.48,1.62.48,2.74,0,2.78-1.04,4.29-2.7,4.29-.42,0-.78-.1-1.1-.27M314.18,38c0-2.78,1.04-4.29,2.7-4.29.42,0,.78.1,1.12.27l-3.33,6.77c-.32-.69-.5-1.62-.5-2.75M316.88,43.79c3.14,0,4.5-2.83,4.5-5.79s-1.36-5.79-4.5-5.79-4.5,2.83-4.5,5.79,1.36,5.79,4.5,5.79M307.94,43.79c1.65,0,3.31-.85,3.31-2.38,0-3.36-5.09-1.84-5.09-3.84,0-.56.35-1.17,1.46-1.17,1.28,0,1.73.61,1.92,1.36h1.63c-.24-1.71-1.82-2.54-3.55-2.54s-3.09.96-3.09,2.4c0,3.36,5.09,1.79,5.09,3.79,0,.77-.67,1.2-1.68,1.2-1.55,0-1.86-.86-2-1.54h-1.63c.24,1.78,1.68,2.72,3.63,2.72M298.52,43.79c2.1,0,3.98-1.09,3.98-3.09,0-4.32-6.4-2.51-6.4-5.39,0-1.09.85-1.6,1.98-1.6,1.34,0,2.26.51,2.4,2.29h1.76c-.21-2.24-1.42-3.79-4.16-3.79-2.1,0-3.78,1.34-3.78,3.09,0,4.32,6.4,2.69,6.4,5.41,0,.86-.69,1.58-2.19,1.58-1.89,0-2.48-1.06-2.72-2.53h-1.76c.19,2.38,1.68,4.03,4.48,4.03"/>
      <path class="cls-5" d="M368.32,22.67c.22-1.47,1.07-2.27,2.43-2.27,1.58,0,2.24,1.14,2.22,2.27h-4.66ZM370.72,27.79c1.82,0,3.36-.91,3.71-2.74h-1.63c-.22.85-.86,1.55-2.08,1.55-1.38,0-2.34-1.01-2.45-2.75h6.34c.19-2.59-.93-4.64-3.86-4.64-2.3,0-4.13,1.42-4.13,4.29,0,2.46,1.44,4.29,4.1,4.29M358.37,23.5c0-1.89.93-3.04,2.37-3.04s2.29,1.15,2.29,3.04-.85,3.04-2.29,3.04-2.37-1.15-2.37-3.04M356.74,30.8h1.62v-4.29c.53.85,1.38,1.28,2.56,1.28,2.3,0,3.82-1.68,3.82-4.29s-1.52-4.29-3.82-4.29c-1.17,0-2.02.43-2.54,1.28v-1.09h-1.63v11.39ZM349.65,27.6h.86l-1.14,3.2h1.62l3.86-11.39h-1.73l-2.1,6.82h-.32l-2.1-6.82h-1.73l2.77,8.19ZM344.29,27.6h1.14v-1.18h-1.15c-.64,0-.83-.16-.83-1.12v-4.7h1.98v-1.18h-1.98v-1.97h-1.63v1.97h-1.47v1.18h1.47v4.86c0,1.58.88,2.14,2.48,2.14M327.22,27.6h1.63v-4.38c0-1.92,1.01-2.75,2.19-2.75.91,0,1.7.48,1.7,1.97v5.17h1.63v-5.33c0-2.3-1.26-3.06-2.91-3.06-1.04,0-2,.3-2.61,1.14v-.94h-1.63v8.19ZM318.85,22.67c.22-1.47,1.07-2.27,2.43-2.27,1.58,0,2.24,1.14,2.22,2.27h-4.66ZM321.25,27.79c1.82,0,3.36-.91,3.71-2.74h-1.63c-.22.85-.86,1.55-2.08,1.55-1.38,0-2.34-1.01-2.45-2.75h6.34c.19-2.59-.93-4.64-3.86-4.64-2.3,0-4.13,1.42-4.13,4.29,0,2.46,1.44,4.29,4.1,4.29M308.9,23.5c0-1.89.93-3.04,2.37-3.04s2.29,1.15,2.29,3.04-.85,3.04-2.29,3.04-2.37-1.15-2.37-3.04M307.27,30.8h1.62v-4.29c.53.85,1.38,1.28,2.56,1.28,2.3,0,3.82-1.68,3.82-4.29s-1.52-4.29-3.82-4.29c-1.17,0-2.02.43-2.54,1.28v-1.09h-1.63v11.39ZM295.89,22c0-3.07,1.89-4.29,3.74-4.29s3.74,1.22,3.74,4.29-1.89,4.29-3.74,4.29-3.74-1.22-3.74-4.29M299.64,27.79c3.34,0,5.54-2.61,5.54-5.79s-2.19-5.79-5.54-5.79-5.54,2.61-5.54,5.79,2.19,5.79,5.54,5.79"/>
      <path class="cls-5" d="M217.06,43.79c1.65,0,3.31-.85,3.31-2.38,0-3.36-5.09-1.84-5.09-3.84,0-.56.35-1.17,1.46-1.17,1.28,0,1.73.61,1.92,1.36h1.63c-.24-1.71-1.82-2.54-3.55-2.54s-3.09.96-3.09,2.4c0,3.36,5.09,1.79,5.09,3.79,0,.77-.67,1.2-1.68,1.2-1.55,0-1.86-.86-2-1.54h-1.63c.24,1.78,1.68,2.72,3.63,2.72M205.51,38.67c.22-1.47,1.07-2.27,2.43-2.27,1.58,0,2.24,1.14,2.22,2.27h-4.66ZM207.91,43.79c1.82,0,3.36-.91,3.71-2.74h-1.63c-.22.85-.86,1.55-2.08,1.55-1.38,0-2.34-1.01-2.45-2.75h6.34c.19-2.59-.93-4.64-3.86-4.64-2.3,0-4.13,1.42-4.13,4.29,0,2.46,1.44,4.29,4.1,4.29M200.09,43.6h1.63v-11.2h-1.63v11.2ZM193,43.6h.86l-1.14,3.2h1.62l3.86-11.39h-1.73l-2.1,6.82h-.32l-2.1-6.82h-1.73l2.77,8.19ZM187.64,43.6h1.14v-1.18h-1.15c-.64,0-.83-.16-.83-1.12v-4.7h1.98v-1.18h-1.98v-1.97h-1.63v1.97h-1.47v1.18h1.47v4.86c0,1.58.88,2.14,2.48,2.14M179.06,43.79c1.65,0,3.31-.85,3.31-2.38,0-3.36-5.09-1.84-5.09-3.84,0-.56.35-1.17,1.46-1.17,1.28,0,1.73.61,1.92,1.36h1.63c-.24-1.71-1.82-2.54-3.55-2.54s-3.09.96-3.09,2.4c0,3.36,5.09,1.79,5.09,3.79,0,.77-.67,1.2-1.68,1.2-1.55,0-1.86-.86-2-1.54h-1.63c.24,1.78,1.68,2.72,3.63,2.72M159.6,42.02l3.33-6.75c.3.69.48,1.62.48,2.74,0,2.78-1.04,4.29-2.7,4.29-.42,0-.78-.1-1.1-.27M158,38c0-2.78,1.04-4.29,2.7-4.29.42,0,.78.1,1.12.27l-3.33,6.77c-.32-.69-.5-1.62-.5-2.75M160.7,43.79c3.14,0,4.5-2.83,4.5-5.79s-1.36-5.79-4.5-5.79-4.5,2.83-4.5,5.79,1.36,5.79,4.5,5.79M148.88,36.03c0-1.28.75-2.32,2.13-2.32s2.13.93,2.13,2.32c0,1.09-.83,2.05-2.13,2.05s-2.13-.96-2.13-2.05M151,32.21c-2.21,0-3.92,1.54-3.92,3.82s1.52,3.55,3.57,3.55c1.39,0,2.18-.51,2.56-1.02-.03,1.94-.72,3.73-2.37,3.73-.9,0-1.6-.45-1.76-1.5h-1.79c.32,2.02,1.58,3.01,3.55,3.01,3.42,0,4.24-3.46,4.24-6.46,0-2.61-.96-5.12-4.08-5.12"/>
      <path class="cls-5" d="M204.44,27.79c1.65,0,3.31-.85,3.31-2.38,0-3.36-5.09-1.84-5.09-3.84,0-.56.35-1.17,1.46-1.17,1.28,0,1.73.61,1.92,1.36h1.63c-.24-1.71-1.82-2.54-3.55-2.54s-3.09.96-3.09,2.4c0,3.36,5.09,1.79,5.09,3.79,0,.77-.67,1.2-1.68,1.2-1.55,0-1.86-.86-2-1.54h-1.63c.24,1.78,1.68,2.72,3.63,2.72M198.21,27.6h1.14v-1.18h-1.15c-.64,0-.83-.16-.83-1.12v-4.7h1.98v-1.18h-1.98v-1.97h-1.63v1.97h-1.47v1.18h1.47v4.86c0,1.58.88,2.14,2.48,2.14M189,27.79c1.92,0,3.47-.82,3.47-3.49v-4.9h-1.63v4.9c0,1.82-.86,2.3-1.84,2.3s-1.84-.48-1.84-2.3v-4.9h-1.63v4.9c0,2.67,1.55,3.49,3.47,3.49M179.78,19.22c-2.59,0-4.29,1.82-4.29,4.29s1.7,4.29,4.29,4.29c2.11,0,3.6-1.18,3.84-3.12h-1.63c-.16,1.2-.98,1.94-2.21,1.94-1.73,0-2.66-1.31-2.66-3.1s.93-3.1,2.66-3.1c1.23,0,2.05.74,2.21,1.94h1.63c-.24-1.94-1.73-3.12-3.84-3.12M158.48,20.03c0-1.28.75-2.32,2.13-2.32s2.13.93,2.13,2.32c0,1.09-.83,2.05-2.13,2.05s-2.13-.96-2.13-2.05M160.6,16.21c-2.21,0-3.92,1.54-3.92,3.82s1.52,3.55,3.57,3.55c1.39,0,2.18-.51,2.56-1.02-.03,1.94-.72,3.73-2.37,3.73-.9,0-1.6-.45-1.76-1.5h-1.79c.32,2.02,1.58,3.01,3.55,3.01,3.42,0,4.24-3.46,4.24-6.46,0-2.61-.96-5.12-4.08-5.12M150,26.02l3.33-6.75c.3.69.48,1.62.48,2.74,0,2.78-1.04,4.29-2.7,4.29-.42,0-.78-.1-1.1-.27M148.4,22c0-2.78,1.04-4.29,2.7-4.29.42,0,.78.1,1.12.27l-3.33,6.77c-.32-.69-.5-1.62-.5-2.75M151.1,27.79c3.14,0,4.5-2.83,4.5-5.79s-1.36-5.79-4.5-5.79-4.5,2.83-4.5,5.79,1.36,5.79,4.5,5.79"/>
      <path class="cls-5" d="M586.64,30.73h15.36c0-9.35-7.05-16.73-16.98-16.73v15.07h-15.02c0,9.15,7.14,16.93,16.64,16.93v-15.27Z"/>
    </g>
    <polygon class="cls-5" points="80.07 78.71 65.37 62 94.77 62 80.07 78.71"/>
    <line class="cls-4" x1="80.07" y1="77.35" x2="80.07" y2="117.51"/>
    <rect class="cls-5" x="543.27" y="65" width="43.86" height="301"/>
    <g class="cls-10">
      <path class="cls-5" d="M387.64,301.2v-33.28h51.84c11.68,0,20.16,5.92,20.16,16.64,0,9.92-8.32,16.64-19.36,16.64h-52.64ZM387.64,352.08v-36.96h53.28c11.52,0,21.28,6.4,21.28,17.92,0,12.96-10.4,19.04-22.08,19.04h-52.48ZM369.08,366h71.04c22.24,0,40.8-8.8,40.8-31.68,0-14.72-10.4-23.84-22.08-26.24,10.56-2.56,19.52-11.84,19.52-24.64,0-20.96-18.72-29.44-37.92-29.44h-71.36v112Z"/>
      <path class="cls-5" d="M235.26,132.22v-31.2h30.56c9.6,0,16.16,6.4,16.16,15.36s-6.88,15.84-16.16,15.84h-30.56ZM235.26,182.94v-35.68h30.56c10.72,0,18.72,6.08,18.72,17.92s-8.48,17.76-17.6,17.76h-31.68ZM217.34,197.98h45.6c21.12,0,39.52-8.64,39.52-32.8,0-14.4-9.6-23.2-19.04-25.44,8-2.4,16.48-11.04,16.48-23.36,0-20.8-18.08-30.4-35.52-30.4h-47.04v112Z"/>
      <path class="cls-5" d="M455.7,137.75h-105v-54.25h102.75c7,0,13.21,1,18.62,3,5.41,2,9.66,5.04,12.75,9.12,3.08,4.09,4.62,9.12,4.62,15.12,0,5.34-1.46,10.04-4.38,14.12-2.92,4.09-6.96,7.25-12.12,9.5-5.17,2.25-10.92,3.38-17.25,3.38M454.2,217.5h-103.5v-59.25h106.75c6.33,0,12.25,1.12,17.75,3.38s9.91,5.54,13.25,9.88c3.33,4.34,5,9.34,5,15,0,7-1.79,12.79-5.38,17.38-3.59,4.59-8.34,8-14.25,10.25-5.92,2.25-12.46,3.38-19.62,3.38M320.7,238h137.75c12.5,0,23.62-1.66,33.38-5,9.75-3.33,17.46-8.62,23.12-15.88,5.66-7.25,8.5-16.46,8.5-27.62,0-7.5-1.67-14.16-5-20-3.34-5.83-7.84-10.54-13.5-14.12-5.67-3.58-12-6.04-19-7.38,6.33-1.5,12.04-4.08,17.12-7.75,5.08-3.66,9.08-8.25,12-13.75,2.91-5.5,4.38-11.58,4.38-18.25,0-10.5-2.84-19.12-8.5-25.88-5.67-6.75-13.12-11.66-22.38-14.75-9.25-3.08-19.54-4.62-30.88-4.62h-137v175Z"/>
      <path class="cls-5" d="M14.06,846h61.2v-164.4c0-72,37.8-103.2,82.2-103.2,34.2,0,63.6,18,63.6,73.8v193.8h61.2v-199.8c0-86.4-47.4-114.6-109.2-114.6-39,0-75,11.4-97.8,42.6v-35.4H14.06v307.2Z"/>
      <path class="cls-5" d="M366.14,692.4c0-70.8,31.8-114,85.8-114s88.8,43.2,88.8,114-34.8,114-88.8,114-85.8-43.2-85.8-114M540.74,846h61.2v-420h-60.6v153.6c-19.8-31.8-51.6-48-96-48-86.4,0-143.4,63-143.4,160.8s57,160.8,143.4,160.8c43.8,0,75.6-16.2,95.4-48v40.8Z"/>
    </g>
    <rect class="cls-3" x="162.5" y="63.5" width="438" height="317"/>
    <line class="cls-4" x1="72.72" y1="222" x2="224.3" y2="526"/>
    <line class="cls-4" x1="80.07" y1="117.15" x2="224.3" y2="211.4"/>
    <g class="cls-9">
      <path class="cls-6" d="M72.72,224.28c1.26,0,2.28-1.02,2.28-2.28s-1.02-2.28-2.28-2.28-2.28,1.02-2.28,2.28,1.02,2.28,2.28,2.28"/>
      <path class="cls-4" d="M72.72,224.28c1.26,0,2.28-1.02,2.28-2.28s-1.02-2.28-2.28-2.28-2.28,1.02-2.28,2.28,1.02,2.28,2.28,2.28Z"/>
      <path class="cls-6" d="M80.07,119.78c1.26,0,2.28-1.02,2.28-2.28s-1.02-2.28-2.28-2.28-2.28,1.02-2.28,2.28,1.02,2.28,2.28,2.28"/>
      <path class="cls-4" d="M80.07,119.78c1.26,0,2.28-1.02,2.28-2.28s-1.02-2.28-2.28-2.28-2.28,1.02-2.28,2.28,1.02,2.28,2.28,2.28Z"/>
      <path class="cls-6" d="M224.3,528.28c1.26,0,2.28-1.02,2.28-2.28s-1.02-2.27-2.28-2.27-2.28,1.02-2.28,2.27,1.02,2.28,2.28,2.28"/>
      <path class="cls-4" d="M224.3,528.28c1.26,0,2.28-1.02,2.28-2.28s-1.02-2.27-2.28-2.27-2.28,1.02-2.28,2.27,1.02,2.28,2.28,2.28Z"/>
      <path class="cls-6" d="M224.3,213.68c1.26,0,2.28-1.02,2.28-2.28s-1.02-2.28-2.28-2.28-2.28,1.02-2.28,2.28,1.02,2.28,2.28,2.28"/>
      <path class="cls-4" d="M224.3,213.68c1.26,0,2.28-1.02,2.28-2.28s-1.02-2.28-2.28-2.28-2.28,1.02-2.28,2.28,1.02,2.28,2.28,2.28Z"/>
    </g>
    <polygon class="cls-5" points="256.47 78.71 241.77 62 271.17 62 256.47 78.71"/>
    <g class="cls-8">
      <path class="cls-5" d="M530.48,43.6h1.63v-4.38c0-1.92,1.01-2.75,2.19-2.75.91,0,1.7.48,1.7,1.97v5.17h1.63v-5.33c0-2.3-1.26-3.06-2.91-3.06-1.04,0-2,.3-2.61,1.14v-3.95h-1.63v11.2ZM527.32,43.6h1.14v-1.18h-1.15c-.64,0-.83-.16-.83-1.12v-4.7h1.98v-1.18h-1.98v-1.97h-1.63v1.97h-1.47v1.18h1.47v4.86c0,1.58.88,2.14,2.48,2.14M515.16,39.5c0-1.89.85-3.04,2.29-3.04s2.37,1.15,2.37,3.04-.93,3.04-2.37,3.04-2.29-1.15-2.29-3.04M519.81,43.6h1.63v-11.2h-1.62v4.1c-.53-.85-1.38-1.28-2.56-1.28-2.3,0-3.82,1.68-3.82,4.29s1.52,4.29,3.82,4.29c1.17,0,2.02-.43,2.54-1.28v1.09ZM509.48,33.49c0,.58.48,1.06,1.06,1.06s1.06-.48,1.06-1.06-.48-1.04-1.06-1.04-1.06.48-1.06,1.04M509.72,43.6h1.63v-8.19h-1.63v8.19ZM498.52,43.6h2.54l1.07-6.86h.19l1.07,6.86h2.54l1.86-8.19h-1.9l-1.04,6.85h-.22l-1.06-6.85h-2.69l-1.06,6.85h-.22l-1.04-6.85h-1.9l1.86,8.19ZM487.01,43.79c2.32,0,4.11-1.65,4.11-4.06s-1.55-3.89-3.62-3.89c-1.12,0-1.84.3-2.45,1.09l.45-3.02h4.59v-1.5h-5.98l-.96,6.21h2.03c.42-.86,1.06-1.26,1.98-1.26,1.38,0,2.16.86,2.16,2.38,0,1.62-.85,2.56-2.32,2.56s-2.34-.77-2.34-2.1h-1.79c0,2.13,1.84,3.6,4.13,3.6M473.65,43.6h7.62v-1.5h-5.58l2.86-2.32c1.55-1.26,2.5-2.51,2.5-4.1,0-2.18-1.46-3.47-3.74-3.47-2.82,0-3.71,1.95-3.71,3.58h1.79c0-.93.34-2.08,1.92-2.08,1.01,0,1.95.4,1.95,1.97,0,1.33-1.04,2.32-1.95,3.09l-3.65,3.06v1.78ZM464.58,33.39v1.5h2.43v7.2h-2.58v1.5h6.8v-1.5h-2.43v-9.7h-1.5c0,.88-.3.99-2.72.99M455.01,40.26h8v-1.5h-8v1.5ZM447.11,42.02l3.33-6.75c.3.69.48,1.62.48,2.74,0,2.78-1.04,4.29-2.7,4.29-.42,0-.78-.1-1.1-.27M445.51,38c0-2.78,1.04-4.29,2.7-4.29.42,0,.78.1,1.12.27l-3.33,6.77c-.32-.69-.5-1.62-.5-2.75M448.21,43.79c3.14,0,4.5-2.83,4.5-5.79s-1.36-5.79-4.5-5.79-4.5,2.83-4.5,5.79,1.36,5.79,4.5,5.79M437.51,42.02l3.33-6.75c.3.69.48,1.62.48,2.74,0,2.78-1.04,4.29-2.7,4.29-.42,0-.78-.1-1.1-.27M435.91,38c0-2.78,1.04-4.29,2.7-4.29.42,0,.78.1,1.12.27l-3.33,6.77c-.32-.69-.5-1.62-.5-2.75M438.61,43.79c3.14,0,4.5-2.83,4.5-5.79s-1.36-5.79-4.5-5.79-4.5,2.83-4.5,5.79,1.36,5.79,4.5,5.79M425.78,33.39v1.5h2.43v7.2h-2.58v1.5h6.8v-1.5h-2.43v-9.7h-1.5c0,.88-.3.99-2.72.99M411.54,41.55h5.86l-1.47,1.47h1.47l2.02-2.02-2.02-2.02h-1.47l1.47,1.47h-4.61v-6.02h-1.25v7.1Z"/>
      <path class="cls-5" d="M513.09,27.6h1.14v-1.18h-1.15c-.64,0-.83-.16-.83-1.12v-4.7h1.98v-1.18h-1.98v-1.97h-1.63v1.97h-1.47v1.18h1.47v4.86c0,1.58.88,2.14,2.48,2.14M500.37,27.6h1.63v-4.38c0-1.92,1.01-2.75,2.19-2.75.91,0,1.7.48,1.7,1.97v5.17h1.63v-5.33c0-2.3-1.26-3.06-2.91-3.06-1.04,0-2,.3-2.61,1.14v-3.95h-1.63v11.2ZM491.62,23.5c0-1.89.85-3.04,2.29-3.04s2.37,1.15,2.37,3.04-.93,3.04-2.37,3.04-2.29-1.15-2.29-3.04M493.86,30.99c2.29,0,4.05-.99,4.05-3.87v-7.71h-1.63v1.07c-.53-.83-1.38-1.26-2.54-1.26-2.3,0-3.82,1.68-3.82,4.29s1.52,4.29,3.82,4.29c1.17,0,2.02-.43,2.54-1.26v.59c0,2.11-.82,2.69-2.27,2.69s-1.98-.54-2.22-1.54h-1.63c.27,1.63,1.57,2.72,3.71,2.72M485.94,17.49c0,.58.48,1.06,1.06,1.06s1.06-.48,1.06-1.06-.48-1.04-1.06-1.04-1.06.48-1.06,1.04M486.18,27.6h1.63v-8.19h-1.63v8.19ZM477.81,22.67c.22-1.47,1.07-2.27,2.43-2.27,1.58,0,2.24,1.14,2.22,2.27h-4.66ZM480.21,27.79c1.82,0,3.36-.91,3.71-2.74h-1.63c-.22.85-.86,1.55-2.08,1.55-1.38,0-2.34-1.01-2.45-2.75h6.34c.19-2.59-.93-4.64-3.86-4.64-2.3,0-4.13,1.42-4.13,4.29,0,2.46,1.44,4.29,4.1,4.29M465.44,27.6h2.54l1.07-6.86h.19l1.07,6.86h2.54l1.86-8.19h-1.9l-1.04,6.85h-.22l-1.06-6.85h-2.69l-1.06,6.85h-.22l-1.04-6.85h-1.9l1.86,8.19ZM448.8,26.02l3.33-6.75c.3.69.48,1.62.48,2.74,0,2.78-1.04,4.29-2.7,4.29-.42,0-.78-.1-1.1-.27M447.2,22c0-2.78,1.04-4.29,2.7-4.29.42,0,.78.1,1.12.27l-3.33,6.77c-.32-.69-.5-1.62-.5-2.75M449.9,27.79c3.14,0,4.5-2.83,4.5-5.79s-1.36-5.79-4.5-5.79-4.5,2.83-4.5,5.79,1.36,5.79,4.5,5.79M439.2,26.02l3.33-6.75c.3.69.48,1.62.48,2.74,0,2.78-1.04,4.29-2.7,4.29-.42,0-.78-.1-1.1-.27M437.6,22c0-2.78,1.04-4.29,2.7-4.29.42,0,.78.1,1.12.27l-3.33,6.77c-.32-.69-.5-1.62-.5-2.75M440.3,27.79c3.14,0,4.5-2.83,4.5-5.79s-1.36-5.79-4.5-5.79-4.5,2.83-4.5,5.79,1.36,5.79,4.5,5.79M431.32,27.6h1.79v-2.32h1.78v-1.5h-1.78v-3.07h-1.79v3.07h-2.8l4.75-7.38h-1.95l-4.83,7.38v1.5h4.83v2.32ZM411.54,25.55h5.86l-1.47,1.47h1.47l2.02-2.02-2.02-2.02h-1.47l1.47,1.47h-4.61v-6.02h-1.25v7.1Z"/>
    </g>
  </g>
</svg>