<?xml version="1.0" encoding="UTF-8"?>
<svg id="Calque_1" data-name="Calque 1" xmlns="http://www.w3.org/2000/svg" xmlns:xlink="http://www.w3.org/1999/xlink" viewBox="0 0 616 860">
  <defs>
    <style>
      .cls-1 {
        clip-path: url(#clippath);
      }

      .cls-2 {
        fill: none;
      }

      .cls-2, .cls-3 {
        stroke-width: 0px;
      }

      .cls-4 {
        clip-path: url(#clippath-1);
      }

      .cls-3 {
        fill: #fff;
      }
    </style>
    <clipPath id="clippath">
      <rect class="cls-2" width="616" height="860"/>
    </clipPath>
    <clipPath id="clippath-1">
      <rect class="cls-2" width="616" height="860"/>
    </clipPath>
  </defs>
  <g class="cls-1">
    <g class="cls-4">
      <path class="cls-3" d="M601.98,78c-170.49,0-308.7,42.98-308.7,96s138.21,96,308.7,96"/>
      <path class="cls-3" d="M381.17,739.92c6.8-27.88,29.92-43.86,68.68-43.86,43.18,0,64.26,19.04,65.96,43.86h-134.64ZM450.53,850.08c56.44,0,97.92-20.74,108.12-60.86h-44.88c-7.48,18.7-27.2,31.28-62.56,31.28-45.9,0-69.02-20.06-71.74-54.74h182.24c2.72-59.84-35.7-97.92-110.84-97.92-66.3,0-116.96,32.3-116.96,89.76,0,54.4,42.5,92.48,116.62,92.48"/>
      <path class="cls-3" d="M64.48,254h45.22v-85.68c0-39.1,23.46-61.2,64.94-61.2,35.36,0,56.1,15.3,56.1,56.44v90.44h45.22v-94.18c0-62.22-35.7-83.98-88.74-83.98-35.02,0-61.88,9.86-77.52,30.26v-26.18h-45.22v174.08Z"/>
      <path class="cls-3" d="M21.35,654c166.43,0,301.35,42.98,301.35,96s-134.92,96-301.35,96"/>
      <path class="cls-3" d="M21.35,558c166.43,0,301.35,21.49,301.35,48s-134.92,48-301.35,48"/>
      <path class="cls-3" d="M21.35,478c166.43,0,301.35-3.58,301.35-8s-134.92-8-301.35-8"/>
      <path class="cls-3" d="M21.35,478c166.43,0,301.35,7.16,301.35,16s-134.92,16-301.35,16"/>
      <path class="cls-3" d="M21.35,510c166.43,0,301.35,10.74,301.35,24s-134.92,24-301.35,24"/>
      <path class="cls-3" d="M104.05,43.6h7.62v-1.5h-5.58l2.86-2.32c1.55-1.26,2.5-2.51,2.5-4.1,0-2.18-1.46-3.47-3.74-3.47-2.82,0-3.71,1.95-3.71,3.58h1.79c0-.93.34-2.08,1.92-2.08,1.01,0,1.95.4,1.95,1.97,0,1.33-1.04,2.32-1.95,3.09l-3.65,3.06v1.78ZM96.37,42.02l3.33-6.75c.3.69.48,1.62.48,2.74,0,2.78-1.04,4.29-2.7,4.29-.42,0-.78-.1-1.1-.27M94.77,38c0-2.78,1.04-4.29,2.7-4.29.42,0,.78.1,1.12.27l-3.33,6.77c-.32-.69-.5-1.62-.5-2.75M97.47,43.79c3.14,0,4.5-2.83,4.5-5.79s-1.36-5.79-4.5-5.79-4.5,2.83-4.5,5.79,1.36,5.79,4.5,5.79M79.47,43.6h1.63v-4.38c0-1.92,1.01-2.75,2.19-2.75.91,0,1.7.48,1.7,1.97v5.17h1.63v-5.33c0-2.3-1.26-3.06-2.91-3.06-1.04,0-2,.3-2.61,1.14v-.94h-1.63v8.19ZM71.66,41.36c0-1.15,1.55-1.58,3.62-1.58h.16v.29c-.02,1.47-.9,2.38-2.34,2.38-1.09,0-1.44-.53-1.44-1.09M72.98,43.79c1.41,0,2.05-.56,2.58-1.18,0,.26.05.77.11.99h1.58v-.14c-.13-.51-.16-1.49-.16-1.78v-3.25c0-2.19-1.22-3.22-3.33-3.22-1.92,0-3.2.85-3.36,2.62h1.63c.16-.8.64-1.39,1.79-1.39,1.25,0,1.65.69,1.63,1.87v.34h-.19c-3.47,0-5.23.99-5.23,2.77,0,1.55,1.22,2.37,2.94,2.37M66.38,43.6h1.63v-11.2h-1.63v11.2ZM57.92,39.5c0-1.89.93-3.04,2.37-3.04s2.29,1.15,2.29,3.04-.85,3.04-2.29,3.04-2.37-1.15-2.37-3.04M56.29,46.8h1.62v-4.29c.53.85,1.38,1.28,2.56,1.28,2.3,0,3.82-1.68,3.82-4.29s-1.52-4.29-3.82-4.29c-1.17,0-2.02.43-2.54,1.28v-1.09h-1.63v11.39ZM46.99,43.6h1.63v-3.81h.74l3.1,3.81h1.97l-3.92-4.72,3.7-3.47h-2.08l-2.93,2.88h-.58v-5.89h-1.63v11.2ZM40.5,43.6h1.63v-4.35c0-1.71.78-2.35,2.02-2.35h.9v-1.49h-.77c-1.01,0-1.71.48-2.14,1.42v-1.42h-1.63v8.19ZM31.71,39.5c0-1.9.93-3.04,2.5-3.04s2.5,1.14,2.5,3.04-.93,3.04-2.5,3.04-2.5-1.14-2.5-3.04M34.21,43.79c2.48,0,4.21-1.76,4.21-4.29s-1.73-4.29-4.21-4.29-4.21,1.76-4.21,4.29,1.73,4.29,4.21,4.29M17.18,43.6h3.09l1.47-9.7h.26l1.47,9.7h3.09l2.53-11.2h-1.92l-1.95,9.68h-.26l-1.65-9.68h-2.88l-1.65,9.68h-.26l-1.95-9.68h-1.92l2.53,11.2Z"/>
      <path class="cls-3" d="M79.62,23.5c0-1.89.85-3.04,2.29-3.04s2.37,1.15,2.37,3.04-.93,3.04-2.37,3.04-2.29-1.15-2.29-3.04M84.27,27.6h1.63v-11.2h-1.62v4.1c-.53-.85-1.38-1.28-2.56-1.28-2.3,0-3.82,1.68-3.82,4.29s1.52,4.29,3.82,4.29c1.17,0,2.02-.43,2.54-1.28v1.09ZM68.7,27.6h1.63v-4.38c0-1.92,1.01-2.75,2.19-2.75.91,0,1.7.48,1.7,1.97v5.17h1.63v-5.33c0-2.3-1.26-3.06-2.91-3.06-1.04,0-2,.3-2.61,1.14v-.94h-1.63v8.19ZM60.89,25.36c0-1.15,1.55-1.58,3.62-1.58h.16v.29c-.02,1.47-.9,2.38-2.34,2.38-1.09,0-1.44-.53-1.44-1.09M62.21,27.79c1.41,0,2.05-.56,2.58-1.18,0,.26.05.77.11.99h1.58v-.14c-.13-.51-.16-1.49-.16-1.78v-3.25c0-2.19-1.22-3.22-3.33-3.22-1.92,0-3.2.85-3.36,2.62h1.63c.16-.8.64-1.39,1.79-1.39,1.25,0,1.65.69,1.63,1.87v.34h-.19c-3.47,0-5.23.99-5.23,2.77,0,1.55,1.22,2.37,2.94,2.37M55.61,27.6h1.63v-11.2h-1.63v11.2ZM46.86,21.02v-3.12h3.06c.96,0,1.62.64,1.62,1.54s-.69,1.58-1.62,1.58h-3.06ZM46.86,26.1v-3.57h3.06c1.07,0,1.87.61,1.87,1.79s-.85,1.78-1.76,1.78h-3.17ZM45.07,27.6h4.56c2.11,0,3.95-.86,3.95-3.28,0-1.44-.96-2.32-1.9-2.54.8-.24,1.65-1.1,1.65-2.34,0-2.08-1.81-3.04-3.55-3.04h-4.7v11.2ZM31.07,27.6h1.79v-4.86h5.34v-1.5h-5.34v-3.33h6.14v-1.5h-7.94v11.2ZM15.23,27.6h1.79v-4.13l-.06-5.73h.26l3.17,9.86h2.75l3.2-9.86h.22l-.06,5.73v4.13h1.79v-11.2h-3.26l-3.26,10.24-3.23-10.24h-3.3v11.2Z"/>
      <path class="cls-3" d="M380.61,43.79c2.32,0,4.11-1.65,4.11-4.06s-1.55-3.89-3.62-3.89c-1.12,0-1.84.3-2.45,1.09l.45-3.02h4.59v-1.5h-5.98l-.96,6.21h2.03c.42-.86,1.06-1.26,1.98-1.26,1.38,0,2.16.86,2.16,2.38,0,1.62-.85,2.56-2.32,2.56s-2.34-.77-2.34-2.1h-1.79c0,2.13,1.84,3.6,4.13,3.6M369.91,42.02l3.33-6.75c.3.69.48,1.62.48,2.74,0,2.78-1.04,4.29-2.7,4.29-.42,0-.78-.1-1.1-.27M368.31,38c0-2.78,1.04-4.29,2.7-4.29.42,0,.78.1,1.12.27l-3.33,6.77c-.32-.69-.5-1.62-.5-2.75M371.01,43.79c3.14,0,4.5-2.83,4.5-5.79s-1.36-5.79-4.5-5.79-4.5,2.83-4.5,5.79,1.36,5.79,4.5,5.79M362.07,43.79c1.65,0,3.31-.85,3.31-2.38,0-3.36-5.09-1.84-5.09-3.84,0-.56.35-1.17,1.46-1.17,1.28,0,1.73.61,1.92,1.36h1.63c-.24-1.71-1.82-2.54-3.55-2.54s-3.09.96-3.09,2.4c0,3.36,5.09,1.79,5.09,3.79,0,.77-.67,1.2-1.68,1.2-1.55,0-1.86-.86-2-1.54h-1.63c.24,1.78,1.68,2.72,3.63,2.72M352.64,43.79c2.1,0,3.98-1.09,3.98-3.09,0-4.32-6.4-2.51-6.4-5.39,0-1.09.85-1.6,1.98-1.6,1.34,0,2.26.51,2.4,2.29h1.76c-.21-2.24-1.42-3.79-4.16-3.79-2.1,0-3.78,1.34-3.78,3.09,0,4.32,6.4,2.69,6.4,5.41,0,.86-.69,1.58-2.19,1.58-1.89,0-2.48-1.06-2.72-2.53h-1.76c.19,2.38,1.68,4.03,4.48,4.03M333.92,39.3h8.46l-2.91,2.83h1.76l3.55-3.55-3.55-3.55h-1.76l2.91,2.83-8.46.02v1.42ZM323.25,33.39v1.5h2.43v7.2h-2.58v1.5h6.8v-1.5h-2.43v-9.7h-1.5c0,.88-.3.99-2.72.99M315.78,42.02l3.33-6.75c.3.69.48,1.62.48,2.74,0,2.78-1.04,4.29-2.7,4.29-.42,0-.78-.1-1.1-.27M314.18,38c0-2.78,1.04-4.29,2.7-4.29.42,0,.78.1,1.12.27l-3.33,6.77c-.32-.69-.5-1.62-.5-2.75M316.88,43.79c3.14,0,4.5-2.83,4.5-5.79s-1.36-5.79-4.5-5.79-4.5,2.83-4.5,5.79,1.36,5.79,4.5,5.79M307.94,43.79c1.65,0,3.31-.85,3.31-2.38,0-3.36-5.09-1.84-5.09-3.84,0-.56.35-1.17,1.46-1.17,1.28,0,1.73.61,1.92,1.36h1.63c-.24-1.71-1.82-2.54-3.55-2.54s-3.09.96-3.09,2.4c0,3.36,5.09,1.79,5.09,3.79,0,.77-.67,1.2-1.68,1.2-1.55,0-1.86-.86-2-1.54h-1.63c.24,1.78,1.68,2.72,3.63,2.72M298.52,43.79c2.1,0,3.98-1.09,3.98-3.09,0-4.32-6.4-2.51-6.4-5.39,0-1.09.85-1.6,1.98-1.6,1.34,0,2.26.51,2.4,2.29h1.76c-.21-2.24-1.42-3.79-4.16-3.79-2.1,0-3.78,1.34-3.78,3.09,0,4.32,6.4,2.69,6.4,5.41,0,.86-.69,1.58-2.19,1.58-1.89,0-2.48-1.06-2.72-2.53h-1.76c.19,2.38,1.68,4.03,4.48,4.03"/>
      <path class="cls-3" d="M368.32,22.67c.22-1.47,1.07-2.27,2.43-2.27,1.58,0,2.24,1.14,2.22,2.27h-4.66ZM370.72,27.79c1.82,0,3.36-.91,3.71-2.74h-1.63c-.22.85-.86,1.55-2.08,1.55-1.38,0-2.34-1.01-2.45-2.75h6.34c.19-2.59-.93-4.64-3.86-4.64-2.3,0-4.13,1.42-4.13,4.29,0,2.46,1.44,4.29,4.1,4.29M358.37,23.5c0-1.89.93-3.04,2.37-3.04s2.29,1.15,2.29,3.04-.85,3.04-2.29,3.04-2.37-1.15-2.37-3.04M356.74,30.8h1.62v-4.29c.53.85,1.38,1.28,2.56,1.28,2.3,0,3.82-1.68,3.82-4.29s-1.52-4.29-3.82-4.29c-1.17,0-2.02.43-2.54,1.28v-1.09h-1.63v11.39ZM349.65,27.6h.86l-1.14,3.2h1.62l3.86-11.39h-1.73l-2.1,6.82h-.32l-2.1-6.82h-1.73l2.77,8.19ZM344.29,27.6h1.14v-1.18h-1.15c-.64,0-.83-.16-.83-1.12v-4.7h1.98v-1.18h-1.98v-1.97h-1.63v1.97h-1.47v1.18h1.47v4.86c0,1.58.88,2.14,2.48,2.14M327.22,27.6h1.63v-4.38c0-1.92,1.01-2.75,2.19-2.75.91,0,1.7.48,1.7,1.97v5.17h1.63v-5.33c0-2.3-1.26-3.06-2.91-3.06-1.04,0-2,.3-2.61,1.14v-.94h-1.63v8.19ZM318.85,22.67c.22-1.47,1.07-2.27,2.43-2.27,1.58,0,2.24,1.14,2.22,2.27h-4.66ZM321.25,27.79c1.82,0,3.36-.91,3.71-2.74h-1.63c-.22.85-.86,1.55-2.08,1.55-1.38,0-2.34-1.01-2.45-2.75h6.34c.19-2.59-.93-4.64-3.86-4.64-2.3,0-4.13,1.42-4.13,4.29,0,2.46,1.44,4.29,4.1,4.29M308.9,23.5c0-1.89.93-3.04,2.37-3.04s2.29,1.15,2.29,3.04-.85,3.04-2.29,3.04-2.37-1.15-2.37-3.04M307.27,30.8h1.62v-4.29c.53.85,1.38,1.28,2.56,1.28,2.3,0,3.82-1.68,3.82-4.29s-1.52-4.29-3.82-4.29c-1.17,0-2.02.43-2.54,1.28v-1.09h-1.63v11.39ZM295.89,22c0-3.07,1.89-4.29,3.74-4.29s3.74,1.22,3.74,4.29-1.89,4.29-3.74,4.29-3.74-1.22-3.74-4.29M299.64,27.79c3.34,0,5.54-2.61,5.54-5.79s-2.19-5.79-5.54-5.79-5.54,2.61-5.54,5.79,2.19,5.79,5.54,5.79"/>
      <path class="cls-3" d="M526.81,43.6h1.63v-4.38c0-1.92,1.01-2.75,2.19-2.75.91,0,1.7.48,1.7,1.97v5.17h1.63v-5.33c0-2.3-1.26-3.06-2.91-3.06-1.04,0-2,.3-2.61,1.14v-3.95h-1.63v11.2ZM523.64,43.6h1.14v-1.18h-1.15c-.64,0-.83-.16-.83-1.12v-4.7h1.98v-1.18h-1.98v-1.97h-1.63v1.97h-1.47v1.18h1.47v4.86c0,1.58.88,2.14,2.48,2.14M511.48,39.5c0-1.89.85-3.04,2.29-3.04s2.37,1.15,2.37,3.04-.93,3.04-2.37,3.04-2.29-1.15-2.29-3.04M516.14,43.6h1.63v-11.2h-1.62v4.1c-.53-.85-1.38-1.28-2.56-1.28-2.3,0-3.82,1.68-3.82,4.29s1.52,4.29,3.82,4.29c1.17,0,2.02-.43,2.54-1.28v1.09ZM505.8,33.49c0,.58.48,1.06,1.06,1.06s1.06-.48,1.06-1.06-.48-1.04-1.06-1.04-1.06.48-1.06,1.04M506.04,43.6h1.63v-8.19h-1.63v8.19ZM494.84,43.6h2.54l1.07-6.86h.19l1.07,6.86h2.54l1.86-8.19h-1.9l-1.04,6.85h-.22l-1.06-6.85h-2.69l-1.06,6.85h-.22l-1.04-6.85h-1.9l1.86,8.19ZM479.3,43.79c2.32,0,4.11-1.65,4.11-4.06s-1.55-3.89-3.62-3.89c-1.12,0-1.84.3-2.45,1.09l.45-3.02h4.59v-1.5h-5.98l-.96,6.21h2.03c.42-.86,1.06-1.26,1.98-1.26,1.38,0,2.16.86,2.16,2.38,0,1.62-.85,2.56-2.32,2.56s-2.34-.77-2.34-2.1h-1.79c0,2.13,1.84,3.6,4.13,3.6M466.47,33.39v1.5h2.43v7.2h-2.58v1.5h6.8v-1.5h-2.43v-9.7h-1.5c0,.88-.3.99-2.72.99M456.87,33.39v1.5h2.43v7.2h-2.58v1.5h6.8v-1.5h-2.43v-9.7h-1.5c0,.88-.3.99-2.72.99M440.94,41.55h5.86l-1.47,1.47h1.47l2.02-2.02-2.02-2.02h-1.47l1.47,1.47h-4.61v-6.02h-1.25v7.1Z"/>
      <path class="cls-3" d="M542.49,27.6h1.14v-1.18h-1.15c-.64,0-.83-.16-.83-1.12v-4.7h1.98v-1.18h-1.98v-1.97h-1.63v1.97h-1.47v1.18h1.47v4.86c0,1.58.88,2.14,2.48,2.14M529.77,27.6h1.63v-4.38c0-1.92,1.01-2.75,2.19-2.75.91,0,1.7.48,1.7,1.97v5.17h1.63v-5.33c0-2.3-1.26-3.06-2.91-3.06-1.04,0-2,.3-2.61,1.14v-3.95h-1.63v11.2ZM521.02,23.5c0-1.89.85-3.04,2.29-3.04s2.37,1.15,2.37,3.04-.93,3.04-2.37,3.04-2.29-1.15-2.29-3.04M523.26,30.99c2.29,0,4.05-.99,4.05-3.87v-7.71h-1.63v1.07c-.53-.83-1.38-1.26-2.54-1.26-2.3,0-3.82,1.68-3.82,4.29s1.52,4.29,3.82,4.29c1.17,0,2.02-.43,2.54-1.26v.59c0,2.11-.82,2.69-2.27,2.69s-1.98-.54-2.22-1.54h-1.63c.27,1.63,1.57,2.72,3.71,2.72M515.34,17.49c0,.58.48,1.06,1.06,1.06s1.06-.48,1.06-1.06-.48-1.04-1.06-1.04-1.06.48-1.06,1.04M515.58,27.6h1.63v-8.19h-1.63v8.19ZM507.21,22.67c.22-1.47,1.07-2.27,2.43-2.27,1.58,0,2.24,1.14,2.22,2.27h-4.66ZM509.61,27.79c1.82,0,3.36-.91,3.71-2.74h-1.63c-.22.85-.86,1.55-2.08,1.55-1.38,0-2.34-1.01-2.45-2.75h6.34c.19-2.59-.93-4.64-3.86-4.64-2.3,0-4.13,1.42-4.13,4.29,0,2.46,1.44,4.29,4.1,4.29M494.84,27.6h2.54l1.07-6.86h.19l1.07,6.86h2.54l1.86-8.19h-1.9l-1.04,6.85h-.22l-1.06-6.85h-2.69l-1.06,6.85h-.22l-1.04-6.85h-1.9l1.86,8.19ZM478.2,26.02l3.33-6.75c.3.69.48,1.62.48,2.74,0,2.78-1.04,4.29-2.7,4.29-.42,0-.78-.1-1.1-.27M476.6,22c0-2.78,1.04-4.29,2.7-4.29.42,0,.78.1,1.12.27l-3.33,6.77c-.32-.69-.5-1.62-.5-2.75M479.3,27.79c3.14,0,4.5-2.83,4.5-5.79s-1.36-5.79-4.5-5.79-4.5,2.83-4.5,5.79,1.36,5.79,4.5,5.79M468.6,26.02l3.33-6.75c.3.69.48,1.62.48,2.74,0,2.78-1.04,4.29-2.7,4.29-.42,0-.78-.1-1.1-.27M467,22c0-2.78,1.04-4.29,2.7-4.29.42,0,.78.1,1.12.27l-3.33,6.77c-.32-.69-.5-1.62-.5-2.75M469.7,27.79c3.14,0,4.5-2.83,4.5-5.79s-1.36-5.79-4.5-5.79-4.5,2.83-4.5,5.79,1.36,5.79,4.5,5.79M460.1,27.79c2.32,0,4.11-1.65,4.11-4.06s-1.55-3.89-3.62-3.89c-1.12,0-1.84.3-2.45,1.09l.45-3.02h4.59v-1.5h-5.98l-.96,6.21h2.03c.42-.86,1.06-1.26,1.98-1.26,1.38,0,2.16.86,2.16,2.38,0,1.62-.85,2.56-2.32,2.56s-2.34-.77-2.34-2.1h-1.79c0,2.13,1.84,3.6,4.13,3.6M440.94,25.55h5.86l-1.47,1.47h1.47l2.02-2.02-2.02-2.02h-1.47l1.47,1.47h-4.61v-6.02h-1.25v7.1Z"/>
      <path class="cls-3" d="M217.06,43.79c1.65,0,3.31-.85,3.31-2.38,0-3.36-5.09-1.84-5.09-3.84,0-.56.35-1.17,1.46-1.17,1.28,0,1.73.61,1.92,1.36h1.63c-.24-1.71-1.82-2.54-3.55-2.54s-3.09.96-3.09,2.4c0,3.36,5.09,1.79,5.09,3.79,0,.77-.67,1.2-1.68,1.2-1.55,0-1.86-.86-2-1.54h-1.63c.24,1.78,1.68,2.72,3.63,2.72M205.51,38.67c.22-1.47,1.07-2.27,2.43-2.27,1.58,0,2.24,1.14,2.22,2.27h-4.66ZM207.91,43.79c1.82,0,3.36-.91,3.71-2.74h-1.63c-.22.85-.86,1.55-2.08,1.55-1.38,0-2.34-1.01-2.45-2.75h6.34c.19-2.59-.93-4.64-3.86-4.64-2.3,0-4.13,1.42-4.13,4.29,0,2.46,1.44,4.29,4.1,4.29M200.09,43.6h1.63v-11.2h-1.63v11.2ZM193,43.6h.86l-1.14,3.2h1.62l3.86-11.39h-1.73l-2.1,6.82h-.32l-2.1-6.82h-1.73l2.77,8.19ZM187.64,43.6h1.14v-1.18h-1.15c-.64,0-.83-.16-.83-1.12v-4.7h1.98v-1.18h-1.98v-1.97h-1.63v1.97h-1.47v1.18h1.47v4.86c0,1.58.88,2.14,2.48,2.14M179.06,43.79c1.65,0,3.31-.85,3.31-2.38,0-3.36-5.09-1.84-5.09-3.84,0-.56.35-1.17,1.46-1.17,1.28,0,1.73.61,1.92,1.36h1.63c-.24-1.71-1.82-2.54-3.55-2.54s-3.09.96-3.09,2.4c0,3.36,5.09,1.79,5.09,3.79,0,.77-.67,1.2-1.68,1.2-1.55,0-1.86-.86-2-1.54h-1.63c.24,1.78,1.68,2.72,3.63,2.72M159.6,42.02l3.33-6.75c.3.69.48,1.62.48,2.74,0,2.78-1.04,4.29-2.7,4.29-.42,0-.78-.1-1.1-.27M158,38c0-2.78,1.04-4.29,2.7-4.29.42,0,.78.1,1.12.27l-3.33,6.77c-.32-.69-.5-1.62-.5-2.75M160.7,43.79c3.14,0,4.5-2.83,4.5-5.79s-1.36-5.79-4.5-5.79-4.5,2.83-4.5,5.79,1.36,5.79,4.5,5.79M148.88,36.03c0-1.28.75-2.32,2.13-2.32s2.13.93,2.13,2.32c0,1.09-.83,2.05-2.13,2.05s-2.13-.96-2.13-2.05M151,32.21c-2.21,0-3.92,1.54-3.92,3.82s1.52,3.55,3.57,3.55c1.39,0,2.18-.51,2.56-1.02-.03,1.94-.72,3.73-2.37,3.73-.9,0-1.6-.45-1.76-1.5h-1.79c.32,2.02,1.58,3.01,3.55,3.01,3.42,0,4.24-3.46,4.24-6.46,0-2.61-.96-5.12-4.08-5.12"/>
      <path class="cls-3" d="M204.44,27.79c1.65,0,3.31-.85,3.31-2.38,0-3.36-5.09-1.84-5.09-3.84,0-.56.35-1.17,1.46-1.17,1.28,0,1.73.61,1.92,1.36h1.63c-.24-1.71-1.82-2.54-3.55-2.54s-3.09.96-3.09,2.4c0,3.36,5.09,1.79,5.09,3.79,0,.77-.67,1.2-1.68,1.2-1.55,0-1.86-.86-2-1.54h-1.63c.24,1.78,1.68,2.72,3.63,2.72M198.21,27.6h1.14v-1.18h-1.15c-.64,0-.83-.16-.83-1.12v-4.7h1.98v-1.18h-1.98v-1.97h-1.63v1.97h-1.47v1.18h1.47v4.86c0,1.58.88,2.14,2.48,2.14M189,27.79c1.92,0,3.47-.82,3.47-3.49v-4.9h-1.63v4.9c0,1.82-.86,2.3-1.84,2.3s-1.84-.48-1.84-2.3v-4.9h-1.63v4.9c0,2.67,1.55,3.49,3.47,3.49M179.78,19.22c-2.59,0-4.29,1.82-4.29,4.29s1.7,4.29,4.29,4.29c2.11,0,3.6-1.18,3.84-3.12h-1.63c-.16,1.2-.98,1.94-2.21,1.94-1.73,0-2.66-1.31-2.66-3.1s.93-3.1,2.66-3.1c1.23,0,2.05.74,2.21,1.94h1.63c-.24-1.94-1.73-3.12-3.84-3.12M158.48,20.03c0-1.28.75-2.32,2.13-2.32s2.13.93,2.13,2.32c0,1.09-.83,2.05-2.13,2.05s-2.13-.96-2.13-2.05M160.6,16.21c-2.21,0-3.92,1.54-3.92,3.82s1.52,3.55,3.57,3.55c1.39,0,2.18-.51,2.56-1.02-.03,1.94-.72,3.73-2.37,3.73-.9,0-1.6-.45-1.76-1.5h-1.79c.32,2.02,1.58,3.01,3.55,3.01,3.42,0,4.24-3.46,4.24-6.46,0-2.61-.96-5.12-4.08-5.12M150,26.02l3.33-6.75c.3.69.48,1.62.48,2.74,0,2.78-1.04,4.29-2.7,4.29-.42,0-.78-.1-1.1-.27M148.4,22c0-2.78,1.04-4.29,2.7-4.29.42,0,.78.1,1.12.27l-3.33,6.77c-.32-.69-.5-1.62-.5-2.75M151.1,27.79c3.14,0,4.5-2.83,4.5-5.79s-1.36-5.79-4.5-5.79-4.5,2.83-4.5,5.79,1.36,5.79,4.5,5.79"/>
      <path class="cls-3" d="M586.64,30.73h15.36c0-9.35-7.05-16.73-16.98-16.73v15.07h-15.02c0,9.15,7.14,16.93,16.64,16.93v-15.27Z"/>
      <path class="cls-3" d="M601.98,270c-170.49,0-308.7,21.49-308.7,48s138.21,48,308.7,48"/>
      <path class="cls-3" d="M601.98,462c-170.49,0-308.7-3.58-308.7-8s138.21-8,308.7-8"/>
      <path class="cls-3" d="M601.98,414c-170.49,0-308.7,7.16-308.7,16s138.21,16,308.7,16"/>
      <path class="cls-3" d="M601.98,366c-170.49,0-308.7,10.74-308.7,24s138.21,24,308.7,24"/>
      <path class="cls-3" d="M447.47,658.08c68,0,104.04-22.78,104.04-78.88v-99.28h-45.22v99.28c0,36.38-19.72,49.3-58.82,49.3s-58.48-12.92-58.48-49.3v-99.28h-45.22v99.28c0,56.1,35.7,78.88,103.7,78.88"/>
      <path class="cls-3" d="M101.88,339.92c6.8-27.88,29.92-43.86,68.68-43.86,43.18,0,64.26,19.04,65.96,43.86H101.88ZM171.24,450.08c56.44,0,97.92-20.74,108.12-60.86h-44.88c-7.48,18.7-27.2,31.28-62.56,31.28-45.9,0-69.02-20.06-71.74-54.74h182.24c2.72-59.84-35.7-97.92-110.84-97.92-66.3,0-116.96,32.3-116.96,89.76,0,54.4,42.5,92.48,116.62,92.48"/>
    </g>
  </g>
</svg>