<?xml version="1.0" encoding="UTF-8"?>
<svg id="Calque_1" data-name="Calque 1" xmlns="http://www.w3.org/2000/svg" xmlns:xlink="http://www.w3.org/1999/xlink" viewBox="0 0 616 860">
  <defs>
    <style>
      .cls-1 {
        clip-path: url(#clippath);
      }

      .cls-2, .cls-3 {
        fill: none;
      }

      .cls-2, .cls-4 {
        stroke-width: 0px;
      }

      .cls-5 {
        clip-path: url(#clippath-1);
      }

      .cls-6 {
        clip-path: url(#clippath-4);
      }

      .cls-7 {
        clip-path: url(#clippath-3);
      }

      .cls-8 {
        clip-path: url(#clippath-2);
      }

      .cls-9 {
        clip-path: url(#clippath-7);
      }

      .cls-10 {
        clip-path: url(#clippath-8);
      }

      .cls-11 {
        clip-path: url(#clippath-6);
      }

      .cls-12 {
        clip-path: url(#clippath-5);
      }

      .cls-3 {
        stroke: #fff;
      }

      .cls-4 {
        fill: #fff;
      }
    </style>
    <clipPath id="clippath">
      <rect class="cls-2" width="616" height="860"/>
    </clipPath>
    <clipPath id="clippath-1">
      <rect class="cls-2" x="14" y="62" width="38.1" height="304"/>
    </clipPath>
    <clipPath id="clippath-2">
      <rect class="cls-2" x="563.9" y="62" width="38.1" height="304"/>
    </clipPath>
    <clipPath id="clippath-3">
      <rect class="cls-2" width="616" height="860"/>
    </clipPath>
    <clipPath id="clippath-4">
      <rect class="cls-2" x="14" y="62" width="12.14" height="304"/>
    </clipPath>
    <clipPath id="clippath-5">
      <rect class="cls-2" x="14" y="654" width="12.14" height="119.99"/>
    </clipPath>
    <clipPath id="clippath-6">
      <rect class="cls-2" x="589.86" y="654" width="12.14" height="119.99"/>
    </clipPath>
    <clipPath id="clippath-7">
      <rect class="cls-2" x="589.86" y="62" width="12.14" height="304"/>
    </clipPath>
    <clipPath id="clippath-8">
      <rect class="cls-2" width="616" height="860"/>
    </clipPath>
  </defs>
  <g class="cls-1">
    <g class="cls-5">
      <line class="cls-3" x1="14.33" y1="21.13" x2="60.71" y2="67.51"/>
      <line class="cls-3" x1="14.33" y1="33.27" x2="60.71" y2="79.65"/>
      <line class="cls-3" x1="14.33" y1="45.41" x2="60.71" y2="91.79"/>
      <line class="cls-3" x1="14.33" y1="57.54" x2="60.71" y2="103.92"/>
      <line class="cls-3" x1="14.33" y1="69.68" x2="60.71" y2="116.06"/>
      <line class="cls-3" x1="14.33" y1="81.82" x2="60.71" y2="128.2"/>
      <line class="cls-3" x1="14.33" y1="93.96" x2="60.71" y2="140.34"/>
      <line class="cls-3" x1="14.33" y1="106.1" x2="60.71" y2="152.47"/>
      <line class="cls-3" x1="14.33" y1="118.23" x2="60.71" y2="164.61"/>
      <line class="cls-3" x1="14.33" y1="130.37" x2="60.71" y2="176.75"/>
      <line class="cls-3" x1="14.33" y1="142.51" x2="60.71" y2="188.89"/>
      <line class="cls-3" x1="14.33" y1="154.65" x2="60.71" y2="201.02"/>
      <line class="cls-3" x1="14.33" y1="166.78" x2="60.71" y2="213.16"/>
      <line class="cls-3" x1="14.33" y1="178.92" x2="60.71" y2="225.3"/>
      <line class="cls-3" x1="14.33" y1="191.06" x2="60.71" y2="237.44"/>
      <line class="cls-3" x1="14.33" y1="203.2" x2="60.71" y2="249.58"/>
      <line class="cls-3" x1="14.33" y1="215.34" x2="60.71" y2="261.71"/>
      <line class="cls-3" x1="14.33" y1="227.47" x2="60.71" y2="273.85"/>
      <line class="cls-3" x1="14.33" y1="239.61" x2="60.71" y2="285.99"/>
      <line class="cls-3" x1="14.33" y1="251.75" x2="60.71" y2="298.13"/>
      <line class="cls-3" x1="14.33" y1="263.89" x2="60.71" y2="310.26"/>
      <line class="cls-3" x1="14.33" y1="276.02" x2="60.71" y2="322.4"/>
      <line class="cls-3" x1="14.33" y1="288.16" x2="60.71" y2="334.54"/>
      <line class="cls-3" x1="14.33" y1="300.3" x2="60.71" y2="346.68"/>
      <line class="cls-3" x1="14.33" y1="312.44" x2="60.71" y2="358.82"/>
      <line class="cls-3" x1="14.33" y1="324.58" x2="60.71" y2="370.95"/>
      <line class="cls-3" x1="14.33" y1="336.71" x2="60.71" y2="383.09"/>
      <line class="cls-3" x1="14.33" y1="348.85" x2="60.71" y2="395.23"/>
      <line class="cls-3" x1="14.33" y1="360.99" x2="60.71" y2="407.37"/>
    </g>
    <g class="cls-8">
      <line class="cls-3" x1="601.67" y1="21.13" x2="555.29" y2="67.51"/>
      <line class="cls-3" x1="601.67" y1="33.27" x2="555.29" y2="79.65"/>
      <line class="cls-3" x1="601.67" y1="45.41" x2="555.29" y2="91.79"/>
      <line class="cls-3" x1="601.67" y1="57.54" x2="555.29" y2="103.92"/>
      <line class="cls-3" x1="601.67" y1="69.68" x2="555.29" y2="116.06"/>
      <line class="cls-3" x1="601.67" y1="81.82" x2="555.29" y2="128.2"/>
      <line class="cls-3" x1="601.67" y1="93.96" x2="555.29" y2="140.34"/>
      <line class="cls-3" x1="601.67" y1="106.1" x2="555.29" y2="152.47"/>
      <line class="cls-3" x1="601.67" y1="118.23" x2="555.29" y2="164.61"/>
      <line class="cls-3" x1="601.67" y1="130.37" x2="555.29" y2="176.75"/>
      <line class="cls-3" x1="601.67" y1="142.51" x2="555.29" y2="188.89"/>
      <line class="cls-3" x1="601.67" y1="154.65" x2="555.29" y2="201.02"/>
      <line class="cls-3" x1="601.67" y1="166.78" x2="555.29" y2="213.16"/>
      <line class="cls-3" x1="601.67" y1="178.92" x2="555.29" y2="225.3"/>
      <line class="cls-3" x1="601.67" y1="191.06" x2="555.29" y2="237.44"/>
      <line class="cls-3" x1="601.67" y1="203.2" x2="555.29" y2="249.58"/>
      <line class="cls-3" x1="601.67" y1="215.34" x2="555.29" y2="261.71"/>
      <line class="cls-3" x1="601.67" y1="227.47" x2="555.29" y2="273.85"/>
      <line class="cls-3" x1="601.67" y1="239.61" x2="555.29" y2="285.99"/>
      <line class="cls-3" x1="601.67" y1="251.75" x2="555.29" y2="298.13"/>
      <line class="cls-3" x1="601.67" y1="263.89" x2="555.29" y2="310.26"/>
      <line class="cls-3" x1="601.67" y1="276.02" x2="555.29" y2="322.4"/>
      <line class="cls-3" x1="601.67" y1="288.16" x2="555.29" y2="334.54"/>
      <line class="cls-3" x1="601.67" y1="300.3" x2="555.29" y2="346.68"/>
      <line class="cls-3" x1="601.67" y1="312.44" x2="555.29" y2="358.82"/>
      <line class="cls-3" x1="601.67" y1="324.58" x2="555.29" y2="370.95"/>
      <line class="cls-3" x1="601.67" y1="336.71" x2="555.29" y2="383.09"/>
      <line class="cls-3" x1="601.67" y1="348.85" x2="555.29" y2="395.23"/>
      <line class="cls-3" x1="601.67" y1="360.99" x2="555.29" y2="407.37"/>
    </g>
    <g class="cls-7">
      <path class="cls-4" d="M90.61,33.68v8.93l-1.47.16v.32h3.98v-.32l-1.33-.16v-9.7l-.29-.19-2.37.8v.16h1.47ZM82.3,41.82l3.84-7.22c.37.8.56,1.94.56,3.39,0,3.36-.93,4.83-2.58,4.83-.77,0-1.39-.32-1.82-1.01M81.55,38c0-3.2.93-4.83,2.58-4.83.74,0,1.33.32,1.76.98l-3.84,7.18c-.32-.78-.5-1.87-.5-3.33M84.13,43.28c2.22,0,3.79-1.92,3.79-5.28s-1.57-5.28-3.79-5.28-3.79,2.08-3.79,5.28c0,3.36,1.57,5.28,3.79,5.28M68.69,43.09h3.23v-.26l-1.02-.26v-4.53c.38-.74.91-1.39,1.84-1.39.98,0,1.3.66,1.3,2.18v3.74l-1.02.26v.26h3.23v-.26l-1.02-.26v-4c0-1.73-.94-2.4-2.1-2.4-1.31,0-1.86.74-2.16,1.22h-.06v-1.02l-.26-.19-1.95.5v.26l1.02.06v5.58l-1.02.26v.26ZM61.78,41.41c0,1.15.69,1.87,1.92,1.87s1.76-.59,2.1-1.28v.1c0,.77.53,1.12,1.31,1.12.51,0,.82-.24,1.09-.54l-.16-.18c-.24.26-.5.34-.67.34-.34,0-.38-.18-.38-.82v-4.14c0-1.17-1.15-1.7-2.18-1.7-1.17,0-2.66.62-2.66,1.41,0,.26.13.5.53.5l.56-.56c.29-.75.59-1.06,1.44-1.06s1.12.45,1.12,1.57v1.18h-.03c-1.94,0-3.98.56-3.98,2.19M65.76,39.52h.03v1.84c-.24.7-.8,1.42-1.71,1.42-.83,0-1.15-.67-1.15-1.46,0-1.33,1.14-1.81,2.83-1.81M57.62,43.09h3.23v-.26l-1.02-.26v-9.66l-.26-.19-1.95.26v.32l1.02.1v9.18l-1.02.26v.26ZM51.58,41.97v-4.13c.32-.48.91-1.18,1.9-1.18,1.62,0,2.11,1.12,2.11,3.17,0,1.87-.82,3.17-2.14,3.17-.78,0-1.47-.5-1.87-1.02M49.38,46.7h3.65v-.26l-1.44-.26v-3.7c.42.4,1.06.78,1.87.78,1.52,0,3.38-1.1,3.38-3.74,0-2.16-1.66-3.36-3.04-3.36-1.17,0-1.82.58-2.21,1.06v-.86l-.22-.19-2.11.5v.26l1.15.06v9.2l-1.02.26v.26ZM43.52,39.54v-1.49c.35-.74.96-1.39,1.81-1.39.78,0,1.23.42,1.23,1.26,0,1.07-.94,1.62-1.55,1.62h-1.49ZM41.31,43.09h3.23v-.26l-1.02-.26v-2.69h.1c1.66,0,2.61.19,2.61,1.49,0,.9.69,1.71,1.79,1.71h.77v-.29h-.58c-.43,0-.53-.48-.67-1.3-.21-1.2-1.47-1.71-2.51-1.71h-.05v-.06c1.3,0,2.77-.56,2.77-1.97,0-1.06-.77-1.58-1.98-1.58-1.06,0-1.79.51-2.18,1.22h-.06v-4.48l-.26-.19-1.95.26v.32l1.02.1v9.18l-1.02.26v.26ZM38.13,37.63h-.06v-1.26l-.22-.19-2.11.5v.26l1.15.06v5.58l-1.02.26v.26h3.44v-.26l-1.23-.26v-4.43c.21-.46.74-1.3,1.46-1.3l.78.46c.48,0,.74-.24.74-.56,0-.29-.34-.58-1.07-.58-1.1,0-1.7,1.17-1.84,1.46M29.3,39.57c0-1.98.69-3.1,2.16-3.1s2.16,1.44,2.16,3.42-.69,3.1-2.16,3.1-2.16-1.44-2.16-3.42M31.36,43.28c1.98,0,3.49-1.57,3.49-3.55,0-2.14-1.47-3.55-3.3-3.55-1.98,0-3.49,1.57-3.49,3.55,0,2.14,1.47,3.55,3.3,3.55M23.62,43.09h.21l3.22-9.7,1.18-.16v-.32h-3.36v.32l1.76.16-2.51,7.71-2.45-7.71,1.76-.16v-.32h-4.03v.32l1.02.16.9,2.72-2.11,5.15-2.69-7.87,1.78-.16v-.32h-4.21v.32l1.18.16,3.41,9.7h.19l2.62-6.43,2.13,6.43Z"/>
      <path class="cls-4" d="M92.48,23.63c0-1.87.82-3.17,2.14-3.17.78,0,1.47.5,1.87,1.02v4.13c-.26.38-.85,1.18-1.9,1.18-1.46,0-2.11-1.12-2.11-3.17M96.54,27.09h2.16v-.26l-1.02-.26v-9.66l-.22-.19-2.11.26v.32l1.15.1v3.62c-.42-.4-1.06-.83-1.87-.83-1.52,0-3.38,1.1-3.38,3.74,0,2.16,1.5,3.36,3.04,3.36,1.17,0,1.82-.58,2.22-1.09l.03.9ZM82.93,27.09h3.23v-.26l-1.02-.26v-4.53c.38-.74.91-1.39,1.84-1.39.98,0,1.3.66,1.3,2.18v3.74l-1.02.26v.26h3.23v-.26l-1.02-.26v-4c0-1.73-.94-2.4-2.1-2.4-1.31,0-1.86.74-2.16,1.22h-.06v-1.02l-.26-.19-1.95.5v.26l1.02.06v5.58l-1.02.26v.26ZM76.01,25.41c0,1.15.69,1.87,1.92,1.87s1.76-.59,2.1-1.28v.1c0,.77.53,1.12,1.31,1.12.51,0,.82-.24,1.09-.54l-.16-.18c-.24.26-.5.34-.67.34-.34,0-.38-.18-.38-.82v-4.14c0-1.17-1.15-1.7-2.18-1.7-1.17,0-2.66.62-2.66,1.41,0,.26.13.5.53.5l.56-.56c.29-.75.59-1.06,1.44-1.06s1.12.45,1.12,1.57v1.18h-.03c-1.94,0-3.98.56-3.98,2.19M80,23.52h.03v1.84c-.24.7-.8,1.42-1.71,1.42-.83,0-1.15-.67-1.15-1.46,0-1.33,1.14-1.81,2.83-1.81M72.58,21.63h-.06v-1.26l-.22-.19-2.11.5v.26l1.15.06v5.58l-1.02.26v.26h3.44v-.26l-1.23-.26v-4.43c.21-.46.74-1.3,1.46-1.3l.78.46c.48,0,.74-.24.74-.56,0-.29-.34-.58-1.07-.58-1.1,0-1.7,1.17-1.84,1.46M63.71,22.3c0-1.42.72-1.84,1.65-1.84s1.65.74,1.65,2.16-.72,1.86-1.65,1.86-1.65-.75-1.65-2.18M63.31,28.78c0-.78.19-1.25.61-1.58.1.02.19.03.29.03h1.81c1.3,0,2,.22,2,1.23,0,1.22-1.07,2.14-2.64,2.14-1.3,0-2.06-.45-2.06-1.82M68.16,22.3c0-.59-.19-1.04-.51-1.38.14-.16.32-.24.43-.24l.67.46c.38,0,.61-.22.61-.5,0-.35-.29-.48-.64-.48-.43,0-.96.24-1.26.59-.53-.42-1.3-.59-2.1-.59-1.46,0-2.8.88-2.8,2.45,0,.88.43,1.46,1.07,1.78l-.78.78c-.27.75.11,1.6.77,1.92-.83.42-1.49.96-1.49,1.92,0,1.38,1.58,1.87,3.07,1.87,1.78,0,3.86-.94,3.86-2.85,0-1.14-.86-1.79-2.53-1.79h-1.84c-.85,0-1.3-.24-1.3-.78,0-.45.21-.75.5-.94.43.16.94.24,1.47.24,1.6,0,2.8-.91,2.8-2.46M56.43,22.54c.22-1.38.94-2.08,1.95-2.08,1.07,0,1.49.69,1.49,1.87l-1.18.21h-2.26ZM58.37,27.28c1.5,0,2.26-.86,2.69-1.63l-.24-.16c-.3.53-1.01,1.06-2.19,1.06-1.3,0-2.27-.75-2.27-3.02,0-.24.02-.48.03-.69h4.7c0-1.81-1.5-2.66-2.8-2.66-1.44,0-3.17,1.14-3.17,3.71,0,2.05,1.28,3.39,3.25,3.39M51.82,21.63h-.06v-1.26l-.22-.19-2.11.5v.26l1.15.06v5.58l-1.02.26v.26h3.44v-.26l-1.23-.26v-4.43c.21-.46.74-1.3,1.46-1.3l.78.46c.48,0,.74-.24.74-.56,0-.29-.34-.58-1.07-.58-1.1,0-1.7,1.17-1.84,1.46M42.19,27.09h4.42v-.32l-1.62-.16v-9.22l1.02-.08h1.22c.46,0,.88.86.94,2.54h.58l-.16-2.94h-8.22l-.16,2.94h.58c.03-1.68.43-2.54.94-2.54h1.06l1.02.08v9.22l-1.62.16v.32ZM28.29,27.09h4.9v-.32l-2.21-.16v-4.75h2.05c.24,0,.5.03.74.19l.16,1.44h.48v-3.71h-.48l-.16,1.44c-.24.16-.5.19-.74.19h-2.05v-4.02l2.11-.03h2c.26,0,.51.83.67,2.18h.42l-.16-2.62h-7.73v.32l1.47.16v9.22l-1.47.16v.32ZM14.48,27.09h3.54v-.32l-1.62-.16v-8.72l4.11,9.2h.22l3.9-9.36v8.88l-1.62.16v.32h4.3v-.32l-1.47-.16v-9.22l1.47-.16v-.32h-2.83l-3.5,8.35-3.7-8.35h-2.82v.32l1.47.16v9.22l-1.47.16v.32Z"/>
      <path class="cls-4" d="M511.37,32.72l-1.95.26v.32l1.02.1v9.18l-1.02.26v.26h3.23v-.26l-1.02-.26v-4.54c.38-.72.91-1.38,1.84-1.38.98,0,1.3.66,1.3,2.18v3.74l-1.02.26v.26h3.23v-.26l-1.02-.26v-4c0-1.73-.83-2.4-2.1-2.4s-1.86.74-2.16,1.22h-.06v-4.48l-.26-.19ZM504.07,36.43v.48h1.31v4.78c0,1.34,1.07,1.58,1.79,1.58.66,0,1.18-.34,1.54-.78l-.19-.19c-.26.27-.74.58-1.2.58-.62,0-.75-.27-.75-1.09v-4.88h2.05l.21-.54h-2.26v-1.7h-.22c-.32,1.57-1.04,1.76-2.27,1.76M497.5,39.63c0-1.87.82-3.17,2.14-3.17.78,0,1.47.5,1.87,1.02v4.13c-.26.38-.85,1.18-1.9,1.18-1.46,0-2.11-1.12-2.11-3.17M501.56,43.09h2.16v-.26l-1.02-.26v-9.66l-.22-.19-2.11.26v.32l1.15.1v3.62c-.42-.4-1.06-.83-1.87-.83-1.52,0-3.38,1.1-3.38,3.74,0,2.16,1.5,3.36,3.04,3.36,1.17,0,1.82-.58,2.22-1.09l.03.9ZM493.12,33.49c0,.43.34.77.77.77s.77-.34.77-.77-.34-.77-.77-.77-.77.34-.77.77M492.17,43.09h3.33v-.26l-1.02-.26v-6.21l-.26-.19-1.95.5v.26l1.02.06v5.58l-1.12.26v.26ZM488.72,43.09h.22l2.03-6.21.77-.26v-.26h-2.27v.26l1.14.26-1.44,4.42-1.68-4.42,1.14-.26v-.26h-3.09v.26l.77.26.24.62-1.3,3.78-1.73-4.4,1.12-.26v-.26h-3.07v.26l.77.26,2.42,6.21h.22l1.74-5.14,2,5.14ZM472.2,41.82l3.84-7.22c.37.8.56,1.94.56,3.39,0,3.36-.93,4.83-2.58,4.83-.77,0-1.39-.32-1.82-1.01M471.45,38c0-3.2.93-4.83,2.58-4.83.74,0,1.33.32,1.76.98l-3.84,7.18c-.32-.78-.5-1.87-.5-3.33M474.03,43.28c2.22,0,3.79-1.92,3.79-5.28s-1.57-5.28-3.79-5.28-3.79,2.08-3.79,5.28c0,3.36,1.57,5.28,3.79,5.28M463.66,41.82l3.84-7.22c.37.8.56,1.94.56,3.39,0,3.36-.93,4.83-2.58,4.83-.77,0-1.39-.32-1.82-1.01M462.91,38c0-3.2.93-4.83,2.58-4.83.74,0,1.33.32,1.76.98l-3.84,7.18c-.32-.78-.5-1.87-.5-3.33M465.48,43.28c2.22,0,3.79-1.92,3.79-5.28s-1.57-5.28-3.79-5.28-3.79,2.08-3.79,5.28c0,3.36,1.57,5.28,3.79,5.28M456.22,33.68v8.93l-1.47.16v.32h3.98v-.32l-1.33-.16v-9.7l-.29-.19-2.37.8v.16h1.47ZM445.8,38.13l-.13.19,1.46,2.22h-5.87v-7.63h-.32v7.95h6.19l-1.46,2.22.13.19,3.02-2.58-3.02-2.58Z"/>
      <path class="cls-4" d="M518.76,20.43v.48h1.31v4.78c0,1.34,1.07,1.58,1.79,1.58.66,0,1.18-.34,1.54-.78l-.19-.19c-.26.27-.74.58-1.2.58-.62,0-.75-.27-.75-1.09v-4.88h2.05l.21-.54h-2.26v-1.7h-.22c-.32,1.57-1.04,1.76-2.27,1.76M512.88,16.72l-1.95.26v.32l1.02.1v9.18l-1.02.26v.26h3.23v-.26l-1.02-.26v-4.54c.38-.72.91-1.38,1.84-1.38.98,0,1.3.66,1.3,2.18v3.74l-1.02.26v.26h3.23v-.26l-1.02-.26v-4c0-1.73-.83-2.4-2.1-2.4s-1.86.74-2.16,1.22h-.06v-4.48l-.26-.19ZM504.81,22.3c0-1.42.72-1.84,1.65-1.84s1.65.74,1.65,2.16-.72,1.86-1.65,1.86-1.65-.75-1.65-2.18M504.41,28.78c0-.78.19-1.25.61-1.58.1.02.19.03.29.03h1.81c1.3,0,2,.22,2,1.23,0,1.22-1.07,2.14-2.64,2.14-1.3,0-2.06-.45-2.06-1.82M509.26,22.3c0-.59-.19-1.04-.51-1.38.14-.16.32-.24.43-.24l.67.46c.38,0,.61-.22.61-.5,0-.35-.29-.48-.64-.48-.43,0-.96.24-1.26.59-.53-.42-1.3-.59-2.1-.59-1.46,0-2.8.88-2.8,2.45,0,.88.43,1.46,1.07,1.78l-.78.78c-.27.75.11,1.6.77,1.92-.83.42-1.49.96-1.49,1.92,0,1.38,1.58,1.87,3.07,1.87,1.78,0,3.86-.94,3.86-2.85,0-1.14-.86-1.79-2.53-1.79h-1.84c-.85,0-1.3-.24-1.3-.78,0-.45.21-.75.5-.94.43.16.94.24,1.47.24,1.6,0,2.8-.91,2.8-2.46M500.17,17.49c0,.43.34.77.77.77s.77-.34.77-.77-.34-.77-.77-.77-.77.34-.77.77M499.23,27.09h3.33v-.26l-1.02-.26v-6.21l-.26-.19-1.95.5v.26l1.02.06v5.58l-1.12.26v.26ZM493.63,22.54c.22-1.38.94-2.08,1.95-2.08,1.07,0,1.49.69,1.49,1.87l-1.18.21h-2.26ZM495.56,27.28c1.5,0,2.26-.86,2.69-1.63l-.24-.16c-.3.53-1.01,1.06-2.19,1.06-1.3,0-2.27-.75-2.27-3.02,0-.24.02-.48.03-.69h4.7c0-1.81-1.5-2.66-2.8-2.66-1.44,0-3.17,1.14-3.17,3.71,0,2.05,1.28,3.39,3.25,3.39M488.72,27.09h.22l2.03-6.21.77-.26v-.26h-2.27v.26l1.14.26-1.44,4.42-1.68-4.42,1.14-.26v-.26h-3.09v.26l.77.26.24.62-1.3,3.78-1.73-4.4,1.12-.26v-.26h-3.07v.26l.77.26,2.42,6.21h.22l1.74-5.14,2,5.14ZM472.2,25.82l3.84-7.22c.37.8.56,1.94.56,3.39,0,3.36-.93,4.83-2.58,4.83-.77,0-1.39-.32-1.82-1.01M471.45,22c0-3.2.93-4.83,2.58-4.83.74,0,1.33.32,1.76.98l-3.84,7.18c-.32-.78-.5-1.87-.5-3.33M474.03,27.28c2.22,0,3.79-1.92,3.79-5.28s-1.57-5.28-3.79-5.28-3.79,2.08-3.79,5.28c0,3.36,1.57,5.28,3.79,5.28M463.66,25.82l3.84-7.22c.37.8.56,1.94.56,3.39,0,3.36-.93,4.83-2.58,4.83-.77,0-1.39-.32-1.82-1.01M462.91,22c0-3.2.93-4.83,2.58-4.83.74,0,1.33.32,1.76.98l-3.84,7.18c-.32-.78-.5-1.87-.5-3.33M465.48,27.28c2.22,0,3.79-1.92,3.79-5.28s-1.57-5.28-3.79-5.28-3.79,2.08-3.79,5.28c0,3.36,1.57,5.28,3.79,5.28M460.14,23.54h-1.7v-4.06h-.32l-.86.8v3.26h-3.5l4.35-6.62h-.69l-4.5,6.83.37.75h3.97v2.11l-1.47.16v.32h3.9v-.32l-1.25-.16v-2.11h2.18l.16-2.11h-.21l-.43,1.15ZM445.8,22.13l-.13.19,1.46,2.22h-5.87v-7.63h-.32v7.95h6.19l-1.46,2.22.13.19,3.02-2.58-3.02-2.58Z"/>
      <path class="cls-4" d="M208.34,41.92c0,.53-.27,1.07-1.68,1.07-1.02,0-1.62-.35-1.97-1.22l-.14-.66h-.29l.05,1.3c.37.38,1.14.86,2.42.86,1.57,0,2.64-.72,2.64-1.94,0-2.5-3.86-1.84-3.86-3.76,0-.46.35-1.12,1.49-1.12.9,0,1.42.45,1.66,1.06l.08.48h.22c-.02-.42-.05-.83-.06-1.25-.35-.29-1.18-.58-2-.58-1.2,0-2.42.67-2.42,1.9,0,2.51,3.86,1.54,3.86,3.84M198.52,38.54c.22-1.38.94-2.08,1.95-2.08,1.07,0,1.49.69,1.49,1.87l-1.18.21h-2.26ZM200.45,43.28c1.5,0,2.26-.86,2.69-1.63l-.24-.16c-.3.53-1.01,1.06-2.19,1.06-1.3,0-2.27-.75-2.27-3.02,0-.24.02-.48.03-.69h4.7c0-1.81-1.5-2.66-2.8-2.66-1.44,0-3.17,1.14-3.17,3.71,0,2.05,1.28,3.39,3.25,3.39M193.21,43.09h3.23v-.26l-1.02-.26v-9.66l-.26-.19-1.95.26v.32l1.02.1v9.18l-1.02.26v.26ZM187.11,46.9c.59,0,1.33-.34,1.78-1.46l3.42-8.56.77-.26v-.26h-2.26v.26l1.12.26-1.9,4.8-1.9-4.8,1.12-.26v-.26h-3.18v.26l.77.26,2.59,6.21-.77,1.95c-.3.77-.5,1.2-1.15,1.2l-.88-.5c-.29,0-.59.14-.59.53s.51.62,1.07.62M180.87,36.43v.48h1.31v4.78c0,1.34,1.07,1.58,1.79,1.58.66,0,1.18-.34,1.54-.78l-.19-.19c-.26.27-.74.58-1.2.58-.62,0-.75-.27-.75-1.09v-4.88h2.05l.21-.54h-2.26v-1.7h-.22c-.32,1.57-1.04,1.76-2.27,1.76M179.24,41.92c0,.53-.27,1.07-1.68,1.07-1.02,0-1.62-.35-1.97-1.22l-.14-.66h-.29l.05,1.3c.37.38,1.14.86,2.42.86,1.57,0,2.64-.72,2.64-1.94,0-2.5-3.86-1.84-3.86-3.76,0-.46.35-1.12,1.49-1.12.9,0,1.42.45,1.66,1.06l.08.48h.22c-.02-.42-.05-.83-.06-1.25-.35-.29-1.18-.58-2-.58-1.2,0-2.42.67-2.42,1.9,0,2.51,3.86,1.54,3.86,3.84M157.29,41.82l3.84-7.22c.37.8.56,1.94.56,3.39,0,3.36-.93,4.83-2.58,4.83-.77,0-1.39-.32-1.82-1.01M156.54,38c0-3.2.93-4.83,2.58-4.83.74,0,1.33.32,1.76.98l-3.84,7.18c-.32-.78-.5-1.87-.5-3.33M159.12,43.28c2.22,0,3.79-1.92,3.79-5.28s-1.57-5.28-3.79-5.28-3.79,2.08-3.79,5.28c0,3.36,1.57,5.28,3.79,5.28M148.67,35.92c0-1.47.34-2.75,1.89-2.75,1.71,0,2.02,1.84,2.02,3.46v.35c-.54,1.04-1.23,1.52-2.29,1.52-1.2,0-1.62-1.1-1.62-2.58M152.51,37.58h.05c-.11,3.01-.82,4.77-2.59,5.34l-1.09-1.14c-.32,0-.72.18-.72.75,0,.46.59.74,1.38.74,2.18,0,4.26-2.29,4.26-6.16,0-1.92-.69-4.4-3.15-4.4-1.87,0-3.18,1.54-3.18,3.2,0,1.82,1.1,3.02,2.74,3.02,1.25,0,2.05-.85,2.32-1.36"/>
      <path class="cls-4" d="M199.29,25.92c0,.53-.27,1.07-1.68,1.07-1.02,0-1.62-.35-1.97-1.22l-.14-.66h-.29l.05,1.3c.37.38,1.14.86,2.42.86,1.57,0,2.64-.72,2.64-1.94,0-2.5-3.86-1.84-3.86-3.76,0-.46.35-1.12,1.49-1.12.9,0,1.42.45,1.66,1.06l.08.48h.22c-.02-.42-.05-.83-.06-1.25-.35-.29-1.18-.58-2-.58-1.2,0-2.42.67-2.42,1.9,0,2.51,3.86,1.54,3.86,3.84M189.72,20.43v.48h1.31v4.78c0,1.34,1.07,1.58,1.79,1.58.66,0,1.18-.34,1.54-.78l-.19-.19c-.26.27-.74.58-1.2.58-.62,0-.75-.27-.75-1.09v-4.88h2.05l.21-.54h-2.26v-1.7h-.22c-.32,1.57-1.04,1.76-2.27,1.76M187.09,27.09h2.21v-.26l-1.02-.26v-6.21h-2.21v.26l1.02.26v4.54c-.38.72-.91,1.38-1.84,1.38-.98,0-1.3-.66-1.3-2.18v-4.26h-2.21v.26l1.02.26v4c0,1.73.94,2.4,2.1,2.4,1.31,0,1.86-.74,2.16-1.22h.06v1.02ZM180.18,21.74l.27.34c.35,0,.46-.24.46-.43,0-.77-1.09-1.47-2.37-1.47-1.55,0-3.39,1.15-3.39,3.7,0,2.13,1.22,3.41,3.12,3.41,1.57,0,2.35-.86,2.82-1.63l-.24-.14c-.32.53-1.09,1.04-2.19,1.04-1.46,0-2.27-1.04-2.27-3.02,0-2.11,1.01-3.06,2.16-3.06.78,0,1.34.35,1.63,1.28M157.21,19.92c0-1.47.34-2.75,1.89-2.75,1.71,0,2.02,1.84,2.02,3.46v.35c-.54,1.04-1.23,1.52-2.29,1.52-1.2,0-1.62-1.1-1.62-2.58M161.05,21.58h.05c-.11,3.01-.82,4.77-2.59,5.34l-1.09-1.14c-.32,0-.72.18-.72.75,0,.46.59.74,1.38.74,2.18,0,4.26-2.29,4.26-6.16,0-1.92-.69-4.4-3.15-4.4-1.87,0-3.18,1.54-3.18,3.2,0,1.82,1.1,3.02,2.74,3.02,1.25,0,2.05-.85,2.32-1.36M148.75,25.82l3.84-7.22c.37.8.56,1.94.56,3.39,0,3.36-.93,4.83-2.58,4.83-.77,0-1.39-.32-1.82-1.01M148,22c0-3.2.93-4.83,2.58-4.83.74,0,1.33.32,1.76.98l-3.84,7.18c-.32-.78-.5-1.87-.5-3.33M150.57,27.28c2.22,0,3.79-1.92,3.79-5.28s-1.57-5.28-3.79-5.28-3.79,2.08-3.79,5.28c0,3.36,1.57,5.28,3.79,5.28"/>
      <path class="cls-4" d="M373.14,39.54h-1.7v-4.06h-.32l-.86.8v3.26h-3.5l4.35-6.62h-.69l-4.5,6.83.37.75h3.97v2.11l-1.47.16v.32h3.9v-.32l-1.25-.16v-2.11h2.18l.16-2.11h-.21l-.43,1.15ZM359.57,41.82l3.84-7.22c.37.8.56,1.94.56,3.39,0,3.36-.93,4.83-2.58,4.83-.77,0-1.39-.32-1.82-1.01M358.82,38c0-3.2.93-4.83,2.58-4.83.74,0,1.33.32,1.76.98l-3.84,7.18c-.32-.78-.5-1.87-.5-3.33M361.4,43.28c2.22,0,3.79-1.92,3.79-5.28s-1.57-5.28-3.79-5.28-3.79,2.08-3.79,5.28c0,3.36,1.57,5.28,3.79,5.28M355.59,41.92c0,.53-.27,1.07-1.68,1.07-1.02,0-1.62-.35-1.97-1.22l-.14-.66h-.29l.05,1.3c.37.38,1.14.86,2.42.86,1.57,0,2.64-.72,2.64-1.94,0-2.5-3.86-1.84-3.86-3.76,0-.46.35-1.12,1.49-1.12.9,0,1.42.45,1.66,1.06l.08.48h.22c-.02-.42-.05-.83-.06-1.25-.35-.29-1.18-.58-2-.58-1.2,0-2.42.67-2.42,1.9,0,2.51,3.86,1.54,3.86,3.84M349.24,40.75c0,.93-.48,2.08-2.43,2.08-1.39,0-2.14-.66-2.75-1.73l-.24-1.01h-.38l.24,2.05c.32.22,1.22,1.14,3.06,1.14,2.16,0,3.57-1.25,3.57-3.01,0-3.46-5.58-2.66-5.58-5.23,0-.85.46-1.87,2.22-1.87,1.14,0,1.89.5,2.37,1.55l.11.74h.38l-.13-1.66c-.51-.59-1.68-1.07-2.78-1.07-1.66,0-3.23.99-3.23,2.7,0,3.18,5.58,2.13,5.58,5.33M335.7,40.53l3.18-2.9-3.18-2.9-.13.19,1.63,2.54h-8.58v.32h8.58l-1.63,2.54.13.19ZM319.8,33.68v8.93l-1.47.16v.32h3.98v-.32l-1.33-.16v-9.7l-.29-.19-2.37.8v.16h1.47ZM310.15,41.82l3.84-7.22c.37.8.56,1.94.56,3.39,0,3.36-.93,4.83-2.58,4.83-.77,0-1.39-.32-1.82-1.01M309.4,38c0-3.2.93-4.83,2.58-4.83.74,0,1.33.32,1.76.98l-3.84,7.18c-.32-.78-.5-1.87-.5-3.33M311.97,43.28c2.22,0,3.79-1.92,3.79-5.28s-1.57-5.28-3.79-5.28-3.79,2.08-3.79,5.28c0,3.36,1.57,5.28,3.79,5.28M306.16,41.92c0,.53-.27,1.07-1.68,1.07-1.02,0-1.62-.35-1.97-1.22l-.14-.66h-.29l.05,1.3c.37.38,1.14.86,2.42.86,1.57,0,2.64-.72,2.64-1.94,0-2.5-3.86-1.84-3.86-3.76,0-.46.35-1.12,1.49-1.12.9,0,1.42.45,1.66,1.06l.08.48h.22c-.02-.42-.05-.83-.06-1.25-.35-.29-1.18-.58-2-.58-1.2,0-2.42.67-2.42,1.9,0,2.51,3.86,1.54,3.86,3.84M299.81,40.75c0,.93-.48,2.08-2.43,2.08-1.39,0-2.14-.66-2.75-1.73l-.24-1.01h-.38l.24,2.05c.32.22,1.22,1.14,3.06,1.14,2.16,0,3.57-1.25,3.57-3.01,0-3.46-5.58-2.66-5.58-5.23,0-.85.46-1.87,2.22-1.87,1.14,0,1.89.5,2.37,1.55l.11.74h.38l-.13-1.66c-.51-.59-1.68-1.07-2.78-1.07-1.66,0-3.23.99-3.23,2.7,0,3.18,5.58,2.13,5.58,5.33"/>
      <path class="cls-4" d="M354.98,22.54c.22-1.38.94-2.08,1.95-2.08,1.07,0,1.49.69,1.49,1.87l-1.18.21h-2.26ZM356.92,27.28c1.5,0,2.26-.86,2.69-1.63l-.24-.16c-.3.53-1.01,1.06-2.19,1.06-1.3,0-2.27-.75-2.27-3.02,0-.24.02-.48.03-.69h4.7c0-1.81-1.5-2.66-2.8-2.66-1.44,0-3.17,1.14-3.17,3.71,0,2.05,1.28,3.39,3.25,3.39M347.14,25.97v-4.13c.32-.48.91-1.18,1.9-1.18,1.62,0,2.11,1.12,2.11,3.17,0,1.87-.82,3.17-2.14,3.17-.78,0-1.47-.5-1.87-1.02M344.93,30.7h3.65v-.26l-1.44-.26v-3.7c.42.4,1.06.78,1.87.78,1.52,0,3.38-1.1,3.38-3.74,0-2.16-1.66-3.36-3.04-3.36-1.17,0-1.82.58-2.21,1.06v-.86l-.22-.19-2.11.5v.26l1.15.06v9.2l-1.02.26v.26ZM338.4,30.9c.59,0,1.33-.34,1.78-1.46l3.42-8.56.77-.26v-.26h-2.26v.26l1.12.26-1.9,4.8-1.9-4.8,1.12-.26v-.26h-3.18v.26l.77.26,2.59,6.21-.77,1.95c-.3.77-.5,1.2-1.15,1.2l-.88-.5c-.29,0-.59.14-.59.53s.51.62,1.07.62M332.16,20.43v.48h1.31v4.78c0,1.34,1.07,1.58,1.79,1.58.66,0,1.18-.34,1.54-.78l-.19-.19c-.26.27-.74.58-1.2.58-.62,0-.75-.27-.75-1.09v-4.88h2.05l.21-.54h-2.26v-1.7h-.22c-.32,1.57-1.04,1.76-2.27,1.76M321.06,27.09h3.23v-.26l-1.02-.26v-4.53c.38-.74.91-1.39,1.84-1.39.98,0,1.3.66,1.3,2.18v3.74l-1.02.26v.26h3.23v-.26l-1.02-.26v-4c0-1.73-.94-2.4-2.1-2.4-1.31,0-1.86.74-2.16,1.22h-.06v-1.02l-.26-.19-1.95.5v.26l1.02.06v5.58l-1.02.26v.26ZM315.46,22.54c.22-1.38.94-2.08,1.95-2.08,1.07,0,1.49.69,1.49,1.87l-1.18.21h-2.26ZM317.4,27.28c1.5,0,2.26-.86,2.69-1.63l-.24-.16c-.3.53-1.01,1.06-2.19,1.06-1.3,0-2.27-.75-2.27-3.02,0-.24.02-.48.03-.69h4.7c0-1.81-1.5-2.66-2.8-2.66-1.44,0-3.17,1.14-3.17,3.71,0,2.05,1.28,3.39,3.25,3.39M307.62,25.97v-4.13c.32-.48.91-1.18,1.9-1.18,1.62,0,2.11,1.12,2.11,3.17,0,1.87-.82,3.17-2.14,3.17-.78,0-1.47-.5-1.87-1.02M305.41,30.7h3.65v-.26l-1.44-.26v-3.7c.42.4,1.06.78,1.87.78,1.52,0,3.38-1.1,3.38-3.74,0-2.16-1.66-3.36-3.04-3.36-1.17,0-1.82.58-2.21,1.06v-.86l-.22-.19-2.11.5v.26l1.15.06v9.2l-1.02.26v.26ZM295.32,21.84c0-3.14,1.47-4.67,3.79-4.67s3.79,2.02,3.79,5.15-1.47,4.51-3.79,4.51-3.79-1.86-3.79-4.99M299.09,27.28c2.51,0,5.02-1.66,5.02-5.28s-2.51-5.28-5.02-5.28-4.99,1.82-4.99,5.44,2.48,5.12,4.99,5.12"/>
      <path class="cls-4" d="M586.64,30.73h15.36c0-9.35-7.05-16.73-16.98-16.73v15.07h-15.02c0,9.15,7.14,16.93,16.64,16.93v-15.27Z"/>
    </g>
    <line class="cls-3" x1="293.3" y1="62" x2="14" y2="62"/>
    <line class="cls-3" x1="602" y1="62" x2="322.7" y2="62"/>
    <line class="cls-3" x1="308" y1="846" x2="308" y2="61.5"/>
    <line class="cls-3" x1="14" y1="846" x2="14" y2="478"/>
    <line class="cls-3" x1="602" y1="846" x2="602" y2="478"/>
    <g class="cls-6">
      <line class="cls-3" x1="51.77" y1="19.47" x2="5.39" y2="65.85"/>
      <line class="cls-3" x1="51.77" y1="31.61" x2="5.39" y2="77.99"/>
      <line class="cls-3" x1="51.77" y1="43.75" x2="5.39" y2="90.12"/>
      <line class="cls-3" x1="51.77" y1="55.88" x2="5.39" y2="102.26"/>
      <line class="cls-3" x1="51.77" y1="68.02" x2="5.39" y2="114.4"/>
      <line class="cls-3" x1="51.77" y1="80.16" x2="5.39" y2="126.54"/>
      <line class="cls-3" x1="51.77" y1="92.3" x2="5.39" y2="138.68"/>
      <line class="cls-3" x1="51.77" y1="104.44" x2="5.39" y2="150.81"/>
      <line class="cls-3" x1="51.77" y1="116.57" x2="5.39" y2="162.95"/>
      <line class="cls-3" x1="51.77" y1="128.71" x2="5.39" y2="175.09"/>
      <line class="cls-3" x1="51.77" y1="140.85" x2="5.39" y2="187.23"/>
      <line class="cls-3" x1="51.77" y1="152.99" x2="5.39" y2="199.36"/>
      <line class="cls-3" x1="51.77" y1="165.12" x2="5.39" y2="211.5"/>
      <line class="cls-3" x1="51.77" y1="177.26" x2="5.39" y2="223.64"/>
      <line class="cls-3" x1="51.77" y1="189.4" x2="5.39" y2="235.78"/>
      <line class="cls-3" x1="51.77" y1="201.54" x2="5.39" y2="247.92"/>
      <line class="cls-3" x1="51.77" y1="213.67" x2="5.39" y2="260.05"/>
      <line class="cls-3" x1="51.77" y1="225.81" x2="5.39" y2="272.19"/>
      <line class="cls-3" x1="51.77" y1="237.95" x2="5.39" y2="284.33"/>
      <line class="cls-3" x1="51.77" y1="250.09" x2="5.39" y2="296.47"/>
      <line class="cls-3" x1="51.77" y1="262.23" x2="5.39" y2="308.6"/>
      <line class="cls-3" x1="51.77" y1="274.36" x2="5.39" y2="320.74"/>
      <line class="cls-3" x1="51.77" y1="286.5" x2="5.39" y2="332.88"/>
      <line class="cls-3" x1="51.77" y1="298.64" x2="5.39" y2="345.02"/>
      <line class="cls-3" x1="51.77" y1="310.78" x2="5.39" y2="357.15"/>
      <line class="cls-3" x1="51.77" y1="322.91" x2="5.39" y2="369.29"/>
      <line class="cls-3" x1="51.77" y1="335.05" x2="5.39" y2="381.43"/>
      <line class="cls-3" x1="51.77" y1="347.19" x2="5.39" y2="393.57"/>
      <line class="cls-3" x1="51.77" y1="359.33" x2="5.39" y2="405.71"/>
    </g>
    <g class="cls-12">
      <line class="cls-3" x1="51.77" y1="609.53" x2="5.39" y2="655.91"/>
      <line class="cls-3" x1="51.77" y1="621.67" x2="5.39" y2="668.04"/>
      <line class="cls-3" x1="51.77" y1="633.8" x2="5.39" y2="680.18"/>
      <line class="cls-3" x1="51.77" y1="645.94" x2="5.39" y2="692.32"/>
      <line class="cls-3" x1="51.77" y1="658.08" x2="5.39" y2="704.46"/>
      <line class="cls-3" x1="51.77" y1="670.22" x2="5.39" y2="716.59"/>
      <line class="cls-3" x1="51.77" y1="682.35" x2="5.39" y2="728.73"/>
      <line class="cls-3" x1="51.77" y1="694.49" x2="5.39" y2="740.87"/>
      <line class="cls-3" x1="51.77" y1="706.63" x2="5.39" y2="753.01"/>
      <line class="cls-3" x1="51.77" y1="718.77" x2="5.39" y2="765.15"/>
      <line class="cls-3" x1="51.77" y1="730.91" x2="5.39" y2="777.28"/>
      <line class="cls-3" x1="51.77" y1="743.04" x2="5.39" y2="789.42"/>
      <line class="cls-3" x1="51.77" y1="755.18" x2="5.39" y2="801.56"/>
      <line class="cls-3" x1="51.77" y1="767.32" x2="5.39" y2="813.7"/>
    </g>
    <g class="cls-11">
      <line class="cls-3" x1="564.23" y1="609.53" x2="610.61" y2="655.91"/>
      <line class="cls-3" x1="564.23" y1="621.67" x2="610.61" y2="668.04"/>
      <line class="cls-3" x1="564.23" y1="633.8" x2="610.61" y2="680.18"/>
      <line class="cls-3" x1="564.23" y1="645.94" x2="610.61" y2="692.32"/>
      <line class="cls-3" x1="564.23" y1="658.08" x2="610.61" y2="704.46"/>
      <line class="cls-3" x1="564.23" y1="670.22" x2="610.61" y2="716.59"/>
      <line class="cls-3" x1="564.23" y1="682.35" x2="610.61" y2="728.73"/>
      <line class="cls-3" x1="564.23" y1="694.49" x2="610.61" y2="740.87"/>
      <line class="cls-3" x1="564.23" y1="706.63" x2="610.61" y2="753.01"/>
      <line class="cls-3" x1="564.23" y1="718.77" x2="610.61" y2="765.15"/>
      <line class="cls-3" x1="564.23" y1="730.91" x2="610.61" y2="777.28"/>
      <line class="cls-3" x1="564.23" y1="743.04" x2="610.61" y2="789.42"/>
      <line class="cls-3" x1="564.23" y1="755.18" x2="610.61" y2="801.56"/>
      <line class="cls-3" x1="564.23" y1="767.32" x2="610.61" y2="813.7"/>
    </g>
    <g class="cls-9">
      <line class="cls-3" x1="564.23" y1="19.47" x2="610.61" y2="65.85"/>
      <line class="cls-3" x1="564.23" y1="31.61" x2="610.61" y2="77.99"/>
      <line class="cls-3" x1="564.23" y1="43.75" x2="610.61" y2="90.12"/>
      <line class="cls-3" x1="564.23" y1="55.88" x2="610.61" y2="102.26"/>
      <line class="cls-3" x1="564.23" y1="68.02" x2="610.61" y2="114.4"/>
      <line class="cls-3" x1="564.23" y1="80.16" x2="610.61" y2="126.54"/>
      <line class="cls-3" x1="564.23" y1="92.3" x2="610.61" y2="138.68"/>
      <line class="cls-3" x1="564.23" y1="104.44" x2="610.61" y2="150.81"/>
      <line class="cls-3" x1="564.23" y1="116.57" x2="610.61" y2="162.95"/>
      <line class="cls-3" x1="564.23" y1="128.71" x2="610.61" y2="175.09"/>
      <line class="cls-3" x1="564.23" y1="140.85" x2="610.61" y2="187.23"/>
      <line class="cls-3" x1="564.23" y1="152.99" x2="610.61" y2="199.36"/>
      <line class="cls-3" x1="564.23" y1="165.12" x2="610.61" y2="211.5"/>
      <line class="cls-3" x1="564.23" y1="177.26" x2="610.61" y2="223.64"/>
      <line class="cls-3" x1="564.23" y1="189.4" x2="610.61" y2="235.78"/>
      <line class="cls-3" x1="564.23" y1="201.54" x2="610.61" y2="247.92"/>
      <line class="cls-3" x1="564.23" y1="213.67" x2="610.61" y2="260.05"/>
      <line class="cls-3" x1="564.23" y1="225.81" x2="610.61" y2="272.19"/>
      <line class="cls-3" x1="564.23" y1="237.95" x2="610.61" y2="284.33"/>
      <line class="cls-3" x1="564.23" y1="250.09" x2="610.61" y2="296.47"/>
      <line class="cls-3" x1="564.23" y1="262.23" x2="610.61" y2="308.6"/>
      <line class="cls-3" x1="564.23" y1="274.36" x2="610.61" y2="320.74"/>
      <line class="cls-3" x1="564.23" y1="286.5" x2="610.61" y2="332.88"/>
      <line class="cls-3" x1="564.23" y1="298.64" x2="610.61" y2="345.02"/>
      <line class="cls-3" x1="564.23" y1="310.78" x2="610.61" y2="357.15"/>
      <line class="cls-3" x1="564.23" y1="322.91" x2="610.61" y2="369.29"/>
      <line class="cls-3" x1="564.23" y1="335.05" x2="610.61" y2="381.43"/>
      <line class="cls-3" x1="564.23" y1="347.19" x2="610.61" y2="393.57"/>
      <line class="cls-3" x1="564.23" y1="359.33" x2="610.61" y2="405.71"/>
    </g>
    <g class="cls-10">
      <path class="cls-4" d="M387.71,668.53h-.77v-15.17l-2.69-2.3-25.34,5.95v3.07l13.82.77v67.01l-12.29,3.07v3.07h41.28v-3.07l-14.78-3.07v-53.18c2.5-5.57,8.83-15.55,17.47-15.55l9.41,5.57c5.76,0,8.83-2.88,8.83-6.72,0-3.46-4.03-6.91-12.86-6.91-13.25,0-20.35,14.02-22.08,17.47M282.27,676.59c0-17.09,8.64-22.08,19.78-22.08s19.78,8.83,19.78,25.92-8.64,22.27-19.78,22.27-19.78-9.02-19.78-26.11M277.47,754.35c0-9.41,2.3-14.98,7.3-19.01,1.15.19,2.3.38,3.46.38h21.7c15.55,0,24,2.69,24,14.78,0,14.59-12.86,25.73-31.68,25.73-15.55,0-24.77-5.38-24.77-21.89M335.64,676.59c0-7.1-2.3-12.48-6.14-16.51,1.73-1.92,3.84-2.88,5.18-2.88l8.06,5.57c4.61,0,7.3-2.69,7.3-5.95,0-4.22-3.46-5.76-7.68-5.76-5.18,0-11.52,2.88-15.17,7.1-6.34-4.99-15.55-7.1-25.15-7.1-17.47,0-33.6,10.56-33.6,29.38,0,10.56,5.18,17.47,12.86,21.31l-9.41,9.41c-3.26,9.02,1.34,19.2,9.22,23.04-9.98,4.99-17.86,11.52-17.86,23.04,0,16.51,19.01,22.46,36.86,22.46,21.31,0,46.27-11.33,46.27-34.18,0-13.63-10.37-21.5-30.34-21.5h-22.08c-10.18,0-15.55-2.88-15.55-9.41,0-5.38,2.5-9.02,5.95-11.33,5.18,1.92,11.33,2.88,17.66,2.88,19.2,0,33.6-10.94,33.6-29.57M198.71,679.47c2.69-16.51,11.33-24.96,23.42-24.96,12.86,0,17.86,8.26,17.86,22.46l-14.21,2.5h-27.07ZM221.94,736.3c18.05,0,27.07-10.37,32.26-19.58l-2.88-1.92c-3.65,6.34-12.1,12.67-26.3,12.67-15.55,0-27.26-9.02-27.26-36.29,0-2.88.19-5.76.38-8.26h56.45c0-21.7-18.05-31.87-33.6-31.87-17.28,0-38.02,13.63-38.02,44.54,0,24.58,15.36,40.7,38.98,40.7M144.97,668.53h-.77v-15.17l-2.69-2.3-25.34,5.95v3.07l13.82.77v67.01l-12.29,3.07v3.07h41.28v-3.07l-14.78-3.07v-53.18c2.5-5.57,8.83-15.55,17.47-15.55l9.41,5.57c5.76,0,8.83-2.88,8.83-6.72,0-3.46-4.03-6.91-12.86-6.91-13.25,0-20.35,14.02-22.08,17.47M40.41,734h52.99v-3.84l-19.39-1.92v-110.59l12.29-.96h14.59c5.57,0,10.56,10.37,11.33,30.53h6.91l-1.92-35.33H18.52l-1.92,35.33h6.91c.38-20.16,5.18-30.53,11.33-30.53h12.67l12.29.96v110.59l-19.39,1.92v3.84Z"/>
      <path class="cls-4" d="M170.61,812.95c0-17.9,7.8-30.29,20.5-30.29,7.5,0,14.08,4.74,17.9,9.79v39.47c-2.45,3.67-8.11,11.32-18.21,11.32-13.92,0-20.2-10.71-20.2-30.29M209.48,846h20.65v-2.45l-9.79-2.45v-92.41l-2.14-1.84-20.2,2.45v3.06l11.02.92v34.58c-3.98-3.82-10.1-7.96-17.9-7.96-14.54,0-32.28,10.56-32.28,35.8,0,20.65,14.38,32.13,29.07,32.13,11.17,0,17.44-5.51,21.27-10.4l.31,8.57ZM82.23,846h30.91v-2.45l-9.79-2.45v-43.3c3.67-7.04,8.72-13.31,17.6-13.31,9.33,0,12.39,6.27,12.39,20.81v35.8l-9.79,2.45v2.45h30.91v-2.45l-9.79-2.45v-38.25c0-16.52-9.03-22.95-20.04-22.95-12.55,0-17.75,7.04-20.65,11.63h-.61v-9.79l-2.45-1.84-18.67,4.74v2.45l9.79.61v53.4l-9.79,2.45v2.45ZM14.14,829.94c0,11.02,6.58,17.9,18.36,17.9s16.83-5.66,20.04-12.24v.92c0,7.34,5.05,10.71,12.55,10.71,4.9,0,7.8-2.29,10.4-5.2l-1.53-1.68c-2.29,2.45-4.74,3.21-6.43,3.21-3.21,0-3.67-1.68-3.67-7.8v-39.63c0-11.17-11.02-16.22-20.81-16.22-11.17,0-25.4,5.97-25.4,13.46,0,2.45,1.22,4.74,5.05,4.74l5.35-5.36c2.75-7.19,5.66-10.1,13.77-10.1s10.71,4.28,10.71,14.99v11.32h-.31c-18.51,0-38.1,5.36-38.1,20.96M52.24,811.88h.31v17.59c-2.29,6.73-7.65,13.62-16.37,13.62-7.96,0-11.02-6.43-11.02-13.92,0-12.7,10.86-17.29,27.08-17.29"/>
      <path class="cls-4" d="M553.61,846h11.02l9.95-46.21c2.75-5.51,8.72-13.46,14.99-13.46l6.27,4.44c4.59,0,6.58-1.84,7.19-5.35.46-2.75-1.07-5.51-7.96-5.51-9.64,0-16.98,11.17-18.67,13.92h-.61l2.6-12.09-1.68-1.84-20.81,4.74-.61,2.45,10.71.61-12.39,58.29ZM489.71,812.95c3.67-17.9,13.46-30.29,25.4-30.29,6.43,0,12.24,3.37,15.76,7.8l-8.87,41.62c-4.13,4.9-11.17,11.17-20.04,11.17-13.77,0-16.22-10.86-12.24-30.29M498.12,847.84c10.86,0,18.05-5.36,22.8-9.95-.92,6.43,2.91,9.33,9.64,9.33,5.35,0,8.72-2.3,11.93-5.2l-1.22-1.68c-2.75,2.45-5.35,3.21-6.88,3.21-3.21,0-3.37-1.68-1.99-7.8l11.47-54.01h-3.06l-7.5,4.9c-3.82-3.67-10.1-6.73-17.59-6.73-13.62,0-32.59,10.56-37.79,35.8-4.28,20.65,7.34,32.13,20.2,32.13M426.7,846h5.81l53.09-92.72,11.17-1.53.61-3.06h-32.59l-.92,3.06,17.59,1.53-45.29,79.41-11.78-79.41,16.83-1.53.92-3.06h-41l-.61,3.06,11.78,1.53,14.38,92.72Z"/>
      <path class="cls-4" d="M459.21,233.09c6.55-40.25,27.61-60.84,57.1-60.84,31.36,0,43.52,20.12,43.52,54.76l-34.63,6.08h-65.99ZM515.84,371.61c43.99,0,65.99-25.27,78.62-47.74l-7.02-4.68c-8.89,15.44-29.48,30.89-64.12,30.89-37.91,0-66.46-22-66.46-88.45,0-7.02.47-14.04.94-20.12h137.59c0-52.88-43.99-77.69-81.9-77.69-42.12,0-92.66,33.23-92.66,108.58,0,59.9,37.44,99.22,95,99.22M328.22,206.41h-1.87v-36.97l-6.55-5.62-61.78,14.51v7.49l33.7,1.87v163.33l-29.95,7.49v7.49h100.62v-7.49l-36.04-7.49v-129.64c6.08-13.57,21.53-37.91,42.59-37.91l22.93,13.57c14.04,0,21.53-7.02,21.53-16.38,0-8.42-9.83-16.85-31.36-16.85-32.29,0-49.61,34.16-53.82,42.59M73.35,366h129.17v-9.36l-47.27-4.68V82.39l29.95-2.34h35.57c13.57,0,25.74,25.27,27.61,74.41h16.85l-4.68-86.11H20l-4.68,86.11h16.85c.94-49.14,12.64-74.41,27.61-74.41h30.89l29.95,2.34v269.57l-47.27,4.68v9.36Z"/>
      <path class="cls-4" d="M475.78,496.34c0-30.26,15.3-39.1,35.02-39.1s35.02,15.64,35.02,45.9-15.3,39.44-35.02,39.44-35.02-15.98-35.02-46.24M467.28,634.04c0-16.66,4.08-26.52,12.92-33.66,2.04.34,4.08.68,6.12.68h38.42c27.54,0,42.5,4.76,42.5,26.18,0,25.84-22.78,45.56-56.1,45.56-27.54,0-43.86-9.52-43.86-38.76M570.3,496.34c0-12.58-4.08-22.1-10.88-29.24,3.06-3.4,6.8-5.1,9.18-5.1l14.28,9.86c8.16,0,12.92-4.76,12.92-10.54,0-7.48-6.12-10.2-13.6-10.2-9.18,0-20.4,5.1-26.86,12.58-11.22-8.84-27.54-12.58-44.54-12.58-30.94,0-59.5,18.7-59.5,52.02,0,18.7,9.18,30.94,22.78,37.74l-16.66,16.66c-5.78,15.98,2.38,34,16.32,40.8-17.68,8.84-31.62,20.4-31.62,40.8,0,29.24,33.66,39.78,65.28,39.78,37.74,0,81.94-20.06,81.94-60.52,0-24.14-18.36-38.08-53.72-38.08h-39.1c-18.02,0-27.54-5.1-27.54-16.66,0-9.52,4.42-15.98,10.54-20.06,9.18,3.4,20.06,5.1,31.28,5.1,34,0,59.5-19.38,59.5-52.36M331.21,501.44c4.76-29.24,20.06-44.2,41.48-44.2,22.78,0,31.62,14.62,31.62,39.78l-25.16,4.42h-47.94ZM372.35,602.08c31.96,0,47.94-18.36,57.12-34.68l-5.1-3.4c-6.46,11.22-21.42,22.44-46.58,22.44-27.54,0-48.28-15.98-48.28-64.26,0-5.1.34-10.2.68-14.62h99.96c0-38.42-31.96-56.44-59.5-56.44-30.6,0-67.32,24.14-67.32,78.88,0,43.52,27.2,72.08,69.02,72.08M239.45,482.06h-1.36v-26.86l-4.76-4.08-44.88,10.54v5.44l24.48,1.36v118.66l-21.76,5.44v5.44h73.1v-5.44l-26.18-5.44v-94.18c4.42-9.86,15.64-27.54,30.94-27.54l16.66,9.86c10.2,0,15.64-5.1,15.64-11.9,0-6.12-7.14-12.24-22.78-12.24-23.46,0-36.04,24.82-39.1,30.94M57.69,598h93.84v-6.8l-34.34-3.4v-195.84l21.76-1.7h25.84c9.86,0,18.7,18.36,20.06,54.06h12.24l-3.4-62.56H18.93l-3.4,62.56h12.24c.68-35.7,9.18-54.06,20.06-54.06h22.44l21.76,1.7v195.84l-34.34,3.4v6.8Z"/>
    </g>
  </g>
</svg>