<?xml version="1.0" encoding="UTF-8"?>
<svg id="Calque_1" data-name="Calque 1" xmlns="http://www.w3.org/2000/svg" xmlns:xlink="http://www.w3.org/1999/xlink" viewBox="0 0 616 423">
  <defs>
    <style>
      .cls-1 {
        clip-path: url(#clippath);
      }

      .cls-2, .cls-3, .cls-4 {
        fill: none;
      }

      .cls-2, .cls-5 {
        stroke-width: 0px;
      }

      .cls-6 {
        clip-path: url(#clippath-1);
      }

      .cls-7 {
        clip-path: url(#clippath-4);
      }

      .cls-8 {
        clip-path: url(#clippath-3);
      }

      .cls-9 {
        clip-path: url(#clippath-2);
      }

      .cls-3 {
        stroke-width: .5px;
      }

      .cls-3, .cls-4 {
        stroke: #fff;
      }

      .cls-4 {
        stroke-width: .66px;
      }

      .cls-5 {
        fill: #fff;
      }
    </style>
    <clipPath id="clippath">
      <rect class="cls-2" width="616" height="423"/>
    </clipPath>
    <clipPath id="clippath-1">
      <rect class="cls-2" x="14" y="54.48" width="588" height="7.99"/>
    </clipPath>
    <clipPath id="clippath-2">
      <rect class="cls-2" x="14" y="398.46" width="588" height="7.99"/>
    </clipPath>
    <clipPath id="clippath-3">
      <rect class="cls-2" width="616" height="423"/>
    </clipPath>
    <clipPath id="clippath-4">
      <rect class="cls-2" width="616" height="423"/>
    </clipPath>
  </defs>
  <g class="cls-1">
    <g class="cls-6">
      <line class="cls-4" x1="461.8" y1="37.6" x2="431.26" y2="68.14"/>
      <line class="cls-4" x1="453.81" y1="37.6" x2="423.27" y2="68.14"/>
      <line class="cls-4" x1="445.82" y1="37.6" x2="415.28" y2="68.14"/>
      <line class="cls-4" x1="437.82" y1="37.6" x2="407.29" y2="68.14"/>
      <line class="cls-4" x1="429.83" y1="37.6" x2="399.3" y2="68.14"/>
      <line class="cls-4" x1="421.84" y1="37.6" x2="391.31" y2="68.14"/>
      <line class="cls-4" x1="413.85" y1="37.6" x2="383.32" y2="68.14"/>
      <line class="cls-4" x1="405.86" y1="37.6" x2="375.33" y2="68.14"/>
      <line class="cls-4" x1="397.87" y1="37.6" x2="367.33" y2="68.14"/>
      <line class="cls-4" x1="389.88" y1="37.6" x2="359.34" y2="68.14"/>
      <line class="cls-4" x1="381.89" y1="37.6" x2="351.35" y2="68.14"/>
      <line class="cls-4" x1="373.89" y1="37.6" x2="343.36" y2="68.14"/>
      <line class="cls-4" x1="365.9" y1="37.6" x2="335.37" y2="68.14"/>
      <line class="cls-4" x1="357.91" y1="37.6" x2="327.38" y2="68.14"/>
      <line class="cls-4" x1="349.92" y1="37.6" x2="319.39" y2="68.14"/>
      <line class="cls-4" x1="341.93" y1="37.6" x2="311.4" y2="68.14"/>
      <line class="cls-4" x1="333.94" y1="37.6" x2="303.4" y2="68.14"/>
      <line class="cls-4" x1="325.95" y1="37.6" x2="295.41" y2="68.14"/>
      <line class="cls-4" x1="317.96" y1="37.6" x2="287.42" y2="68.14"/>
      <line class="cls-4" x1="309.96" y1="37.6" x2="279.43" y2="68.14"/>
      <line class="cls-4" x1="301.97" y1="37.6" x2="271.44" y2="68.14"/>
      <line class="cls-4" x1="293.98" y1="37.6" x2="263.45" y2="68.14"/>
      <line class="cls-4" x1="285.99" y1="37.6" x2="255.46" y2="68.14"/>
      <line class="cls-4" x1="278" y1="37.6" x2="247.47" y2="68.14"/>
      <line class="cls-4" x1="270.01" y1="37.6" x2="239.47" y2="68.14"/>
      <line class="cls-4" x1="262.02" y1="37.6" x2="231.48" y2="68.14"/>
      <line class="cls-4" x1="254.03" y1="37.6" x2="223.49" y2="68.14"/>
      <line class="cls-4" x1="246.03" y1="37.6" x2="215.5" y2="68.14"/>
      <line class="cls-4" x1="238.04" y1="37.6" x2="207.51" y2="68.14"/>
      <line class="cls-4" x1="230.05" y1="37.6" x2="199.52" y2="68.14"/>
      <line class="cls-4" x1="222.06" y1="37.6" x2="191.53" y2="68.14"/>
      <line class="cls-4" x1="214.07" y1="37.6" x2="183.54" y2="68.14"/>
      <line class="cls-4" x1="206.08" y1="37.6" x2="175.54" y2="68.14"/>
      <line class="cls-4" x1="198.09" y1="37.6" x2="167.55" y2="68.14"/>
      <line class="cls-4" x1="190.1" y1="37.6" x2="159.56" y2="68.14"/>
      <line class="cls-4" x1="182.1" y1="37.6" x2="151.57" y2="68.14"/>
      <line class="cls-4" x1="174.11" y1="37.6" x2="143.58" y2="68.14"/>
      <line class="cls-4" x1="166.12" y1="37.6" x2="135.59" y2="68.14"/>
      <line class="cls-4" x1="158.13" y1="37.6" x2="127.6" y2="68.14"/>
      <line class="cls-4" x1="150.14" y1="37.6" x2="119.61" y2="68.14"/>
      <line class="cls-4" x1="142.15" y1="37.6" x2="111.61" y2="68.14"/>
      <line class="cls-4" x1="134.16" y1="37.6" x2="103.62" y2="68.14"/>
      <line class="cls-4" x1="126.17" y1="37.6" x2="95.63" y2="68.14"/>
      <line class="cls-4" x1="118.18" y1="37.6" x2="87.64" y2="68.14"/>
      <line class="cls-4" x1="110.18" y1="37.6" x2="79.65" y2="68.14"/>
      <line class="cls-4" x1="102.19" y1="37.6" x2="71.66" y2="68.14"/>
      <line class="cls-4" x1="94.2" y1="37.6" x2="63.67" y2="68.14"/>
      <line class="cls-4" x1="86.21" y1="37.6" x2="55.68" y2="68.14"/>
      <line class="cls-4" x1="78.22" y1="37.6" x2="47.69" y2="68.14"/>
      <line class="cls-4" x1="70.23" y1="37.6" x2="39.69" y2="68.14"/>
      <line class="cls-4" x1="62.24" y1="37.6" x2="31.7" y2="68.14"/>
      <line class="cls-4" x1="54.25" y1="37.6" x2="23.71" y2="68.14"/>
      <line class="cls-4" x1="46.25" y1="37.6" x2="15.72" y2="68.14"/>
      <line class="cls-4" x1="38.26" y1="37.6" x2="7.73" y2="68.14"/>
      <line class="cls-4" x1="629.59" y1="37.6" x2="599.06" y2="68.14"/>
      <line class="cls-4" x1="621.6" y1="37.6" x2="591.07" y2="68.14"/>
      <line class="cls-4" x1="613.61" y1="37.6" x2="583.07" y2="68.14"/>
      <line class="cls-4" x1="605.62" y1="37.6" x2="575.08" y2="68.14"/>
      <line class="cls-4" x1="597.63" y1="37.6" x2="567.09" y2="68.14"/>
      <line class="cls-4" x1="589.63" y1="37.6" x2="559.1" y2="68.14"/>
      <line class="cls-4" x1="581.64" y1="37.6" x2="551.11" y2="68.14"/>
      <line class="cls-4" x1="573.65" y1="37.6" x2="543.12" y2="68.14"/>
      <line class="cls-4" x1="565.66" y1="37.6" x2="535.13" y2="68.14"/>
      <line class="cls-4" x1="557.67" y1="37.6" x2="527.14" y2="68.14"/>
      <line class="cls-4" x1="549.68" y1="37.6" x2="519.14" y2="68.14"/>
      <line class="cls-4" x1="541.69" y1="37.6" x2="511.15" y2="68.14"/>
      <line class="cls-4" x1="533.7" y1="37.6" x2="503.16" y2="68.14"/>
      <line class="cls-4" x1="525.7" y1="37.6" x2="495.17" y2="68.14"/>
      <line class="cls-4" x1="517.71" y1="37.6" x2="487.18" y2="68.14"/>
      <line class="cls-4" x1="509.72" y1="37.6" x2="479.19" y2="68.14"/>
      <line class="cls-4" x1="501.73" y1="37.6" x2="471.2" y2="68.14"/>
      <line class="cls-4" x1="493.74" y1="37.6" x2="463.21" y2="68.14"/>
      <line class="cls-4" x1="485.75" y1="37.6" x2="455.21" y2="68.14"/>
      <line class="cls-4" x1="477.76" y1="37.6" x2="447.22" y2="68.14"/>
      <line class="cls-4" x1="469.77" y1="37.6" x2="439.23" y2="68.14"/>
    </g>
    <g class="cls-9">
      <line class="cls-4" x1="461.8" y1="381.58" x2="431.26" y2="412.12"/>
      <line class="cls-4" x1="453.81" y1="381.58" x2="423.27" y2="412.12"/>
      <line class="cls-4" x1="445.82" y1="381.58" x2="415.28" y2="412.12"/>
      <line class="cls-4" x1="437.82" y1="381.58" x2="407.29" y2="412.12"/>
      <line class="cls-4" x1="429.83" y1="381.58" x2="399.3" y2="412.12"/>
      <line class="cls-4" x1="421.84" y1="381.58" x2="391.31" y2="412.12"/>
      <line class="cls-4" x1="413.85" y1="381.58" x2="383.32" y2="412.12"/>
      <line class="cls-4" x1="405.86" y1="381.58" x2="375.33" y2="412.12"/>
      <line class="cls-4" x1="397.87" y1="381.58" x2="367.33" y2="412.12"/>
      <line class="cls-4" x1="389.88" y1="381.58" x2="359.34" y2="412.12"/>
      <line class="cls-4" x1="381.89" y1="381.58" x2="351.35" y2="412.12"/>
      <line class="cls-4" x1="373.89" y1="381.58" x2="343.36" y2="412.12"/>
      <line class="cls-4" x1="365.9" y1="381.58" x2="335.37" y2="412.12"/>
      <line class="cls-4" x1="357.91" y1="381.58" x2="327.38" y2="412.12"/>
      <line class="cls-4" x1="349.92" y1="381.58" x2="319.39" y2="412.12"/>
      <line class="cls-4" x1="341.93" y1="381.58" x2="311.4" y2="412.12"/>
      <line class="cls-4" x1="333.94" y1="381.58" x2="303.4" y2="412.12"/>
      <line class="cls-4" x1="325.95" y1="381.58" x2="295.41" y2="412.12"/>
      <line class="cls-4" x1="317.96" y1="381.58" x2="287.42" y2="412.12"/>
      <line class="cls-4" x1="309.96" y1="381.58" x2="279.43" y2="412.12"/>
      <line class="cls-4" x1="301.97" y1="381.58" x2="271.44" y2="412.12"/>
      <line class="cls-4" x1="293.98" y1="381.58" x2="263.45" y2="412.12"/>
      <line class="cls-4" x1="285.99" y1="381.58" x2="255.46" y2="412.12"/>
      <line class="cls-4" x1="278" y1="381.58" x2="247.47" y2="412.12"/>
      <line class="cls-4" x1="270.01" y1="381.58" x2="239.47" y2="412.12"/>
      <line class="cls-4" x1="262.02" y1="381.58" x2="231.48" y2="412.12"/>
      <line class="cls-4" x1="254.03" y1="381.58" x2="223.49" y2="412.12"/>
      <line class="cls-4" x1="246.03" y1="381.58" x2="215.5" y2="412.12"/>
      <line class="cls-4" x1="238.04" y1="381.58" x2="207.51" y2="412.12"/>
      <line class="cls-4" x1="230.05" y1="381.58" x2="199.52" y2="412.12"/>
      <line class="cls-4" x1="222.06" y1="381.58" x2="191.53" y2="412.12"/>
      <line class="cls-4" x1="214.07" y1="381.58" x2="183.54" y2="412.12"/>
      <line class="cls-4" x1="206.08" y1="381.58" x2="175.54" y2="412.12"/>
      <line class="cls-4" x1="198.09" y1="381.58" x2="167.55" y2="412.12"/>
      <line class="cls-4" x1="190.1" y1="381.58" x2="159.56" y2="412.12"/>
      <line class="cls-4" x1="182.1" y1="381.58" x2="151.57" y2="412.12"/>
      <line class="cls-4" x1="174.11" y1="381.58" x2="143.58" y2="412.12"/>
      <line class="cls-4" x1="166.12" y1="381.58" x2="135.59" y2="412.12"/>
      <line class="cls-4" x1="158.13" y1="381.58" x2="127.6" y2="412.12"/>
      <line class="cls-4" x1="150.14" y1="381.58" x2="119.61" y2="412.12"/>
      <line class="cls-4" x1="142.15" y1="381.58" x2="111.61" y2="412.12"/>
      <line class="cls-4" x1="134.16" y1="381.58" x2="103.62" y2="412.12"/>
      <line class="cls-4" x1="126.17" y1="381.58" x2="95.63" y2="412.12"/>
      <line class="cls-4" x1="118.18" y1="381.58" x2="87.64" y2="412.12"/>
      <line class="cls-4" x1="110.18" y1="381.58" x2="79.65" y2="412.12"/>
      <line class="cls-4" x1="102.19" y1="381.58" x2="71.66" y2="412.12"/>
      <line class="cls-4" x1="94.2" y1="381.58" x2="63.67" y2="412.12"/>
      <line class="cls-4" x1="86.21" y1="381.58" x2="55.68" y2="412.12"/>
      <line class="cls-4" x1="78.22" y1="381.58" x2="47.69" y2="412.12"/>
      <line class="cls-4" x1="70.23" y1="381.58" x2="39.69" y2="412.12"/>
      <line class="cls-4" x1="62.24" y1="381.58" x2="31.7" y2="412.12"/>
      <line class="cls-4" x1="54.25" y1="381.58" x2="23.71" y2="412.12"/>
      <line class="cls-4" x1="46.25" y1="381.58" x2="15.72" y2="412.12"/>
      <line class="cls-4" x1="38.26" y1="381.58" x2="7.73" y2="412.12"/>
      <line class="cls-4" x1="629.59" y1="381.58" x2="599.06" y2="412.12"/>
      <line class="cls-4" x1="621.6" y1="381.58" x2="591.07" y2="412.12"/>
      <line class="cls-4" x1="613.61" y1="381.58" x2="583.07" y2="412.12"/>
      <line class="cls-4" x1="605.62" y1="381.58" x2="575.08" y2="412.12"/>
      <line class="cls-4" x1="597.63" y1="381.58" x2="567.09" y2="412.12"/>
      <line class="cls-4" x1="589.63" y1="381.58" x2="559.1" y2="412.12"/>
      <line class="cls-4" x1="581.64" y1="381.58" x2="551.11" y2="412.12"/>
      <line class="cls-4" x1="573.65" y1="381.58" x2="543.12" y2="412.12"/>
      <line class="cls-4" x1="565.66" y1="381.58" x2="535.13" y2="412.12"/>
      <line class="cls-4" x1="557.67" y1="381.58" x2="527.14" y2="412.12"/>
      <line class="cls-4" x1="549.68" y1="381.58" x2="519.14" y2="412.12"/>
      <line class="cls-4" x1="541.69" y1="381.58" x2="511.15" y2="412.12"/>
      <line class="cls-4" x1="533.7" y1="381.58" x2="503.16" y2="412.12"/>
      <line class="cls-4" x1="525.7" y1="381.58" x2="495.17" y2="412.12"/>
      <line class="cls-4" x1="517.71" y1="381.58" x2="487.18" y2="412.12"/>
      <line class="cls-4" x1="509.72" y1="381.58" x2="479.19" y2="412.12"/>
      <line class="cls-4" x1="501.73" y1="381.58" x2="471.2" y2="412.12"/>
      <line class="cls-4" x1="493.74" y1="381.58" x2="463.21" y2="412.12"/>
      <line class="cls-4" x1="485.75" y1="381.58" x2="455.21" y2="412.12"/>
      <line class="cls-4" x1="477.76" y1="381.58" x2="447.22" y2="412.12"/>
      <line class="cls-4" x1="469.77" y1="381.58" x2="439.23" y2="412.12"/>
    </g>
    <g class="cls-8">
      <path class="cls-5" d="M94.56,39.39c0,1.66-.78,2.35-2.32,2.35-.93,0-1.65-.43-1.65-1.63l-.45-.45c-.7,0-.9.4-.9.77,0,1.01,1.42,1.76,2.94,1.76,2.1,0,3.58-1.36,3.58-3.06,0-1.52-1.15-2.38-3.22-2.38v-.06c1.33-.45,2.83-1.34,2.83-2.91,0-1.44-1.07-2.14-2.66-2.14-1.98,0-2.93,1.42-3.33,2.62l.29.11c.32-.96,1.26-2.03,2.66-2.03,1.18,0,1.82.64,1.82,1.78,0,1.71-1.65,2.48-2.45,2.67l.1.34c1.79,0,2.74.61,2.74,2.27M82.3,40.74l3.84-7.22c.37.8.56,1.94.56,3.39,0,3.36-.93,4.83-2.58,4.83-.77,0-1.39-.32-1.82-1.01M81.55,36.91c0-3.2.93-4.83,2.58-4.83.74,0,1.33.32,1.76.98l-3.84,7.18c-.32-.78-.5-1.87-.5-3.33M84.13,42.19c2.22,0,3.79-1.92,3.79-5.28s-1.57-5.28-3.79-5.28-3.79,2.08-3.79,5.28c0,3.36,1.57,5.28,3.79,5.28M68.69,42h3.23v-.26l-1.02-.26v-4.53c.38-.74.91-1.39,1.84-1.39.98,0,1.3.66,1.3,2.18v3.74l-1.02.26v.26h3.23v-.26l-1.02-.26v-4c0-1.73-.94-2.4-2.1-2.4-1.31,0-1.86.74-2.16,1.22h-.06v-1.02l-.26-.19-1.95.5v.26l1.02.06v5.58l-1.02.26v.26ZM61.78,40.32c0,1.15.69,1.87,1.92,1.87s1.76-.59,2.1-1.28v.1c0,.77.53,1.12,1.31,1.12.51,0,.82-.24,1.09-.54l-.16-.18c-.24.26-.5.34-.67.34-.34,0-.38-.18-.38-.82v-4.14c0-1.17-1.15-1.7-2.18-1.7-1.17,0-2.66.62-2.66,1.41,0,.26.13.5.53.5l.56-.56c.29-.75.59-1.06,1.44-1.06s1.12.45,1.12,1.57v1.18h-.03c-1.94,0-3.98.56-3.98,2.19M65.76,38.43h.03v1.84c-.24.7-.8,1.42-1.71,1.42-.83,0-1.15-.67-1.15-1.46,0-1.33,1.14-1.81,2.83-1.81M57.62,42h3.23v-.26l-1.02-.26v-9.66l-.26-.19-1.95.26v.32l1.02.1v9.18l-1.02.26v.26ZM51.58,40.88v-4.13c.32-.48.91-1.18,1.9-1.18,1.62,0,2.11,1.12,2.11,3.17,0,1.87-.82,3.17-2.14,3.17-.78,0-1.47-.5-1.87-1.02M49.38,45.62h3.65v-.26l-1.44-.26v-3.7c.42.4,1.06.78,1.87.78,1.52,0,3.38-1.1,3.38-3.74,0-2.16-1.66-3.36-3.04-3.36-1.17,0-1.82.58-2.21,1.06v-.86l-.22-.19-2.11.5v.26l1.15.06v9.2l-1.02.26v.26ZM43.52,38.45v-1.49c.35-.74.96-1.39,1.81-1.39.78,0,1.23.42,1.23,1.26,0,1.07-.94,1.62-1.55,1.62h-1.49ZM41.31,42h3.23v-.26l-1.02-.26v-2.69h.1c1.66,0,2.61.19,2.61,1.49,0,.9.69,1.71,1.79,1.71h.77v-.29h-.58c-.43,0-.53-.48-.67-1.3-.21-1.2-1.47-1.71-2.51-1.71h-.05v-.06c1.3,0,2.77-.56,2.77-1.97,0-1.06-.77-1.58-1.98-1.58-1.06,0-1.79.51-2.18,1.22h-.06v-4.48l-.26-.19-1.95.26v.32l1.02.1v9.18l-1.02.26v.26ZM38.13,36.54h-.06v-1.26l-.22-.19-2.11.5v.26l1.15.06v5.58l-1.02.26v.26h3.44v-.26l-1.23-.26v-4.43c.21-.46.74-1.3,1.46-1.3l.78.46c.48,0,.74-.24.74-.56,0-.29-.34-.58-1.07-.58-1.1,0-1.7,1.17-1.84,1.46M29.3,38.48c0-1.98.69-3.1,2.16-3.1s2.16,1.44,2.16,3.42-.69,3.1-2.16,3.1-2.16-1.44-2.16-3.42M31.36,42.19c1.98,0,3.49-1.57,3.49-3.55,0-2.14-1.47-3.55-3.3-3.55-1.98,0-3.49,1.57-3.49,3.55,0,2.14,1.47,3.55,3.3,3.55M23.62,42h.21l3.22-9.7,1.18-.16v-.32h-3.36v.32l1.76.16-2.51,7.71-2.45-7.71,1.76-.16v-.32h-4.03v.32l1.02.16.9,2.72-2.11,5.15-2.69-7.87,1.78-.16v-.32h-4.21v.32l1.18.16,3.41,9.7h.19l2.62-6.43,2.13,6.43Z"/>
      <path class="cls-5" d="M92.48,22.54c0-1.87.82-3.17,2.14-3.17.78,0,1.47.5,1.87,1.02v4.13c-.26.38-.85,1.18-1.9,1.18-1.46,0-2.11-1.12-2.11-3.17M96.54,26h2.16v-.26l-1.02-.26v-9.66l-.22-.19-2.11.26v.32l1.15.1v3.62c-.42-.4-1.06-.83-1.87-.83-1.52,0-3.38,1.1-3.38,3.74,0,2.16,1.5,3.36,3.04,3.36,1.17,0,1.82-.58,2.22-1.09l.03.9ZM82.93,26h3.23v-.26l-1.02-.26v-4.53c.38-.74.91-1.39,1.84-1.39.98,0,1.3.66,1.3,2.18v3.74l-1.02.26v.26h3.23v-.26l-1.02-.26v-4c0-1.73-.94-2.4-2.1-2.4-1.31,0-1.86.74-2.16,1.22h-.06v-1.02l-.26-.19-1.95.5v.26l1.02.06v5.58l-1.02.26v.26ZM76.01,24.32c0,1.15.69,1.87,1.92,1.87s1.76-.59,2.1-1.28v.1c0,.77.53,1.12,1.31,1.12.51,0,.82-.24,1.09-.54l-.16-.18c-.24.26-.5.34-.67.34-.34,0-.38-.18-.38-.82v-4.14c0-1.17-1.15-1.7-2.18-1.7-1.17,0-2.66.62-2.66,1.41,0,.26.13.5.53.5l.56-.56c.29-.75.59-1.06,1.44-1.06s1.12.45,1.12,1.57v1.18h-.03c-1.94,0-3.98.56-3.98,2.19M80,22.43h.03v1.84c-.24.7-.8,1.42-1.71,1.42-.83,0-1.15-.67-1.15-1.46,0-1.33,1.14-1.81,2.83-1.81M72.58,20.54h-.06v-1.26l-.22-.19-2.11.5v.26l1.15.06v5.58l-1.02.26v.26h3.44v-.26l-1.23-.26v-4.43c.21-.46.74-1.3,1.46-1.3l.78.46c.48,0,.74-.24.74-.56,0-.29-.34-.58-1.07-.58-1.1,0-1.7,1.17-1.84,1.46M63.71,21.22c0-1.42.72-1.84,1.65-1.84s1.65.74,1.65,2.16-.72,1.86-1.65,1.86-1.65-.75-1.65-2.18M63.31,27.7c0-.78.19-1.25.61-1.58.1.02.19.03.29.03h1.81c1.3,0,2,.22,2,1.23,0,1.22-1.07,2.14-2.64,2.14-1.3,0-2.06-.45-2.06-1.82M68.16,21.22c0-.59-.19-1.04-.51-1.38.14-.16.32-.24.43-.24l.67.46c.38,0,.61-.22.61-.5,0-.35-.29-.48-.64-.48-.43,0-.96.24-1.26.59-.53-.42-1.3-.59-2.1-.59-1.46,0-2.8.88-2.8,2.45,0,.88.43,1.46,1.07,1.78l-.78.78c-.27.75.11,1.6.77,1.92-.83.42-1.49.96-1.49,1.92,0,1.38,1.58,1.87,3.07,1.87,1.78,0,3.86-.94,3.86-2.85,0-1.14-.86-1.79-2.53-1.79h-1.84c-.85,0-1.3-.24-1.3-.78,0-.45.21-.75.5-.94.43.16.94.24,1.47.24,1.6,0,2.8-.91,2.8-2.46M56.43,21.46c.22-1.38.94-2.08,1.95-2.08,1.07,0,1.49.69,1.49,1.87l-1.18.21h-2.26ZM58.37,26.19c1.5,0,2.26-.86,2.69-1.63l-.24-.16c-.3.53-1.01,1.06-2.19,1.06-1.3,0-2.27-.75-2.27-3.02,0-.24.02-.48.03-.69h4.7c0-1.81-1.5-2.66-2.8-2.66-1.44,0-3.17,1.14-3.17,3.71,0,2.05,1.28,3.39,3.25,3.39M51.82,20.54h-.06v-1.26l-.22-.19-2.11.5v.26l1.15.06v5.58l-1.02.26v.26h3.44v-.26l-1.23-.26v-4.43c.21-.46.74-1.3,1.46-1.3l.78.46c.48,0,.74-.24.74-.56,0-.29-.34-.58-1.07-.58-1.1,0-1.7,1.17-1.84,1.46M42.19,26h4.42v-.32l-1.62-.16v-9.22l1.02-.08h1.22c.46,0,.88.86.94,2.54h.58l-.16-2.94h-8.22l-.16,2.94h.58c.03-1.68.43-2.54.94-2.54h1.06l1.02.08v9.22l-1.62.16v.32ZM28.29,26h4.9v-.32l-2.21-.16v-4.75h2.05c.24,0,.5.03.74.19l.16,1.44h.48v-3.71h-.48l-.16,1.44c-.24.16-.5.19-.74.19h-2.05v-4.02l2.11-.03h2c.26,0,.51.83.67,2.18h.42l-.16-2.62h-7.73v.32l1.47.16v9.22l-1.47.16v.32ZM14.48,26h3.54v-.32l-1.62-.16v-8.72l4.11,9.2h.22l3.9-9.36v8.88l-1.62.16v.32h4.3v-.32l-1.47-.16v-9.22l1.47-.16v-.32h-2.83l-3.5,8.35-3.7-8.35h-2.82v.32l1.47.16v9.22l-1.47.16v.32Z"/>
      <path class="cls-5" d="M446.64,38.45h-1.7v-4.06h-.32l-.86.8v3.26h-3.5l4.35-6.62h-.69l-4.5,6.83.37.75h3.97v2.11l-1.47.16v.32h3.9v-.32l-1.25-.16v-2.11h2.18l.16-2.11h-.21l-.43,1.15ZM433.07,40.74l3.84-7.22c.37.8.56,1.94.56,3.39,0,3.36-.93,4.83-2.58,4.83-.77,0-1.39-.32-1.82-1.01M432.32,36.91c0-3.2.93-4.83,2.58-4.83.74,0,1.33.32,1.76.98l-3.84,7.18c-.32-.78-.5-1.87-.5-3.33M434.9,42.19c2.22,0,3.79-1.92,3.79-5.28s-1.57-5.28-3.79-5.28-3.79,2.08-3.79,5.28c0,3.36,1.57,5.28,3.79,5.28M429.09,40.83c0,.53-.27,1.07-1.68,1.07-1.02,0-1.62-.35-1.97-1.22l-.14-.66h-.29l.05,1.3c.37.38,1.14.86,2.42.86,1.57,0,2.64-.72,2.64-1.94,0-2.5-3.86-1.84-3.86-3.76,0-.46.35-1.12,1.49-1.12.9,0,1.42.45,1.66,1.06l.08.48h.22c-.02-.42-.05-.83-.06-1.25-.35-.29-1.18-.58-2-.58-1.2,0-2.42.67-2.42,1.9,0,2.51,3.86,1.54,3.86,3.84M422.74,39.66c0,.93-.48,2.08-2.43,2.08-1.39,0-2.14-.66-2.75-1.73l-.24-1.01h-.38l.24,2.05c.32.22,1.22,1.14,3.06,1.14,2.16,0,3.57-1.25,3.57-3.01,0-3.46-5.58-2.66-5.58-5.23,0-.85.46-1.87,2.22-1.87,1.14,0,1.89.5,2.37,1.55l.11.74h.38l-.13-1.66c-.51-.59-1.68-1.07-2.78-1.07-1.66,0-3.23.99-3.23,2.7,0,3.18,5.58,2.13,5.58,5.33M409.2,39.44l3.18-2.9-3.18-2.9-.13.19,1.63,2.54h-8.58v.32h8.58l-1.63,2.54.13.19ZM393.3,32.59v8.93l-1.47.16v.32h3.98v-.32l-1.33-.16v-9.7l-.29-.19-2.37.8v.16h1.47ZM383.65,40.74l3.84-7.22c.37.8.56,1.94.56,3.39,0,3.36-.93,4.83-2.58,4.83-.77,0-1.39-.32-1.82-1.01M382.9,36.91c0-3.2.93-4.83,2.58-4.83.74,0,1.33.32,1.76.98l-3.84,7.18c-.32-.78-.5-1.87-.5-3.33M385.47,42.19c2.22,0,3.79-1.92,3.79-5.28s-1.57-5.28-3.79-5.28-3.79,2.08-3.79,5.28c0,3.36,1.57,5.28,3.79,5.28M379.66,40.83c0,.53-.27,1.07-1.68,1.07-1.02,0-1.62-.35-1.97-1.22l-.14-.66h-.29l.05,1.3c.37.38,1.14.86,2.42.86,1.57,0,2.64-.72,2.64-1.94,0-2.5-3.86-1.84-3.86-3.76,0-.46.35-1.12,1.49-1.12.9,0,1.42.45,1.66,1.06l.08.48h.22c-.02-.42-.05-.83-.06-1.25-.35-.29-1.18-.58-2-.58-1.2,0-2.42.67-2.42,1.9,0,2.51,3.86,1.54,3.86,3.84M373.31,39.66c0,.93-.48,2.08-2.43,2.08-1.39,0-2.14-.66-2.75-1.73l-.24-1.01h-.38l.24,2.05c.32.22,1.22,1.14,3.06,1.14,2.16,0,3.57-1.25,3.57-3.01,0-3.46-5.58-2.66-5.58-5.23,0-.85.46-1.87,2.22-1.87,1.14,0,1.89.5,2.37,1.55l.11.74h.38l-.13-1.66c-.51-.59-1.68-1.07-2.78-1.07-1.66,0-3.23.99-3.23,2.7,0,3.18,5.58,2.13,5.58,5.33"/>
      <path class="cls-5" d="M428.48,21.46c.22-1.38.94-2.08,1.95-2.08,1.07,0,1.49.69,1.49,1.87l-1.18.21h-2.26ZM430.42,26.19c1.5,0,2.26-.86,2.69-1.63l-.24-.16c-.3.53-1.01,1.06-2.19,1.06-1.3,0-2.27-.75-2.27-3.02,0-.24.02-.48.03-.69h4.7c0-1.81-1.5-2.66-2.8-2.66-1.44,0-3.17,1.14-3.17,3.71,0,2.05,1.28,3.39,3.25,3.39M420.64,24.88v-4.13c.32-.48.91-1.18,1.9-1.18,1.62,0,2.11,1.12,2.11,3.17,0,1.87-.82,3.17-2.14,3.17-.78,0-1.47-.5-1.87-1.02M418.43,29.62h3.65v-.26l-1.44-.26v-3.7c.42.4,1.06.78,1.87.78,1.52,0,3.38-1.1,3.38-3.74,0-2.16-1.66-3.36-3.04-3.36-1.17,0-1.82.58-2.21,1.06v-.86l-.22-.19-2.11.5v.26l1.15.06v9.2l-1.02.26v.26ZM411.9,29.81c.59,0,1.33-.34,1.78-1.46l3.42-8.56.77-.26v-.26h-2.26v.26l1.12.26-1.9,4.8-1.9-4.8,1.12-.26v-.26h-3.18v.26l.77.26,2.59,6.21-.77,1.95c-.3.77-.5,1.2-1.15,1.2l-.88-.5c-.29,0-.59.14-.59.53s.51.62,1.07.62M405.66,19.34v.48h1.31v4.78c0,1.34,1.07,1.58,1.79,1.58.66,0,1.18-.34,1.54-.78l-.19-.19c-.26.27-.74.58-1.2.58-.62,0-.75-.27-.75-1.09v-4.88h2.05l.21-.54h-2.26v-1.7h-.22c-.32,1.57-1.04,1.76-2.27,1.76M394.56,26h3.23v-.26l-1.02-.26v-4.53c.38-.74.91-1.39,1.84-1.39.98,0,1.3.66,1.3,2.18v3.74l-1.02.26v.26h3.23v-.26l-1.02-.26v-4c0-1.73-.94-2.4-2.1-2.4-1.31,0-1.86.74-2.16,1.22h-.06v-1.02l-.26-.19-1.95.5v.26l1.02.06v5.58l-1.02.26v.26ZM388.96,21.46c.22-1.38.94-2.08,1.95-2.08,1.07,0,1.49.69,1.49,1.87l-1.18.21h-2.26ZM390.9,26.19c1.5,0,2.26-.86,2.69-1.63l-.24-.16c-.3.53-1.01,1.06-2.19,1.06-1.3,0-2.27-.75-2.27-3.02,0-.24.02-.48.03-.69h4.7c0-1.81-1.5-2.66-2.8-2.66-1.44,0-3.17,1.14-3.17,3.71,0,2.05,1.28,3.39,3.25,3.39M381.12,24.88v-4.13c.32-.48.91-1.18,1.9-1.18,1.62,0,2.11,1.12,2.11,3.17,0,1.87-.82,3.17-2.14,3.17-.78,0-1.47-.5-1.87-1.02M378.91,29.62h3.65v-.26l-1.44-.26v-3.7c.42.4,1.06.78,1.87.78,1.52,0,3.38-1.1,3.38-3.74,0-2.16-1.66-3.36-3.04-3.36-1.17,0-1.82.58-2.21,1.06v-.86l-.22-.19-2.11.5v.26l1.15.06v9.2l-1.02.26v.26ZM368.82,20.75c0-3.14,1.47-4.67,3.79-4.67s3.79,2.02,3.79,5.15-1.47,4.51-3.79,4.51-3.79-1.86-3.79-4.99M372.59,26.19c2.51,0,5.02-1.66,5.02-5.28s-2.51-5.28-5.02-5.28-4.99,1.82-4.99,5.44,2.48,5.12,4.99,5.12"/>
      <path class="cls-5" d="M306.99,40.83c0,.53-.27,1.07-1.68,1.07-1.02,0-1.62-.35-1.97-1.22l-.14-.66h-.29l.05,1.3c.37.38,1.14.86,2.42.86,1.57,0,2.64-.72,2.64-1.94,0-2.5-3.86-1.84-3.86-3.76,0-.46.35-1.12,1.49-1.12.9,0,1.42.45,1.66,1.06l.08.48h.22c-.02-.42-.05-.83-.06-1.25-.35-.29-1.18-.58-2-.58-1.2,0-2.42.67-2.42,1.9,0,2.51,3.86,1.54,3.86,3.84M297.17,37.46c.22-1.38.94-2.08,1.95-2.08,1.07,0,1.49.69,1.49,1.87l-1.18.21h-2.26ZM299.1,42.19c1.5,0,2.26-.86,2.69-1.63l-.24-.16c-.3.53-1.01,1.06-2.19,1.06-1.3,0-2.27-.75-2.27-3.02,0-.24.02-.48.03-.69h4.7c0-1.81-1.5-2.66-2.8-2.66-1.44,0-3.17,1.14-3.17,3.71,0,2.05,1.28,3.39,3.25,3.39M291.85,42h3.23v-.26l-1.02-.26v-9.66l-.26-.19-1.95.26v.32l1.02.1v9.18l-1.02.26v.26ZM285.76,45.81c.59,0,1.33-.34,1.78-1.46l3.42-8.56.77-.26v-.26h-2.26v.26l1.12.26-1.9,4.8-1.9-4.8,1.12-.26v-.26h-3.18v.26l.77.26,2.59,6.21-.77,1.95c-.3.77-.5,1.2-1.15,1.2l-.88-.5c-.29,0-.59.14-.59.53s.51.62,1.07.62M279.52,35.34v.48h1.31v4.78c0,1.34,1.07,1.58,1.79,1.58.66,0,1.18-.34,1.54-.78l-.19-.19c-.26.27-.74.58-1.2.58-.62,0-.75-.27-.75-1.09v-4.88h2.05l.21-.54h-2.26v-1.7h-.22c-.32,1.57-1.04,1.76-2.27,1.76M277.89,40.83c0,.53-.27,1.07-1.68,1.07-1.02,0-1.62-.35-1.97-1.22l-.15-.66h-.29l.05,1.3c.37.38,1.13.86,2.42.86,1.57,0,2.64-.72,2.64-1.94,0-2.5-3.86-1.84-3.86-3.76,0-.46.35-1.12,1.49-1.12.9,0,1.43.45,1.66,1.06l.08.48h.22c-.02-.42-.05-.83-.07-1.25-.35-.29-1.18-.58-2-.58-1.2,0-2.42.67-2.42,1.9,0,2.51,3.86,1.54,3.86,3.84M260.19,40.74l3.84-7.22c.37.8.56,1.94.56,3.39,0,3.36-.93,4.83-2.58,4.83-.77,0-1.39-.32-1.82-1.01M259.44,36.91c0-3.2.93-4.83,2.58-4.83.74,0,1.33.32,1.76.98l-3.84,7.18c-.32-.78-.5-1.87-.5-3.33M262.02,42.19c2.22,0,3.79-1.92,3.79-5.28s-1.57-5.28-3.79-5.28-3.79,2.08-3.79,5.28c0,3.36,1.57,5.28,3.79,5.28M251.57,34.83c0-1.47.34-2.75,1.89-2.75,1.71,0,2.02,1.84,2.02,3.46v.35c-.54,1.04-1.23,1.52-2.29,1.52-1.2,0-1.62-1.1-1.62-2.58M255.41,36.5h.05c-.11,3.01-.82,4.77-2.59,5.34l-1.09-1.14c-.32,0-.72.18-.72.75,0,.46.59.74,1.38.74,2.18,0,4.26-2.29,4.26-6.16,0-1.92-.69-4.4-3.15-4.4-1.87,0-3.18,1.54-3.18,3.2,0,1.82,1.1,3.02,2.74,3.02,1.25,0,2.05-.85,2.32-1.36"/>
      <path class="cls-5" d="M297.93,24.83c0,.53-.27,1.07-1.68,1.07-1.02,0-1.62-.35-1.97-1.22l-.14-.66h-.29l.05,1.3c.37.38,1.14.86,2.42.86,1.57,0,2.64-.72,2.64-1.94,0-2.5-3.86-1.84-3.86-3.76,0-.46.35-1.12,1.49-1.12.9,0,1.42.45,1.66,1.06l.08.48h.22c-.02-.42-.05-.83-.06-1.25-.35-.29-1.18-.58-2-.58-1.2,0-2.42.67-2.42,1.9,0,2.51,3.86,1.54,3.86,3.84M288.37,19.34v.48h1.31v4.78c0,1.34,1.07,1.58,1.79,1.58.66,0,1.18-.34,1.54-.78l-.19-.19c-.26.27-.74.58-1.2.58-.62,0-.75-.27-.75-1.09v-4.88h2.05l.21-.54h-2.26v-1.7h-.22c-.32,1.57-1.04,1.76-2.27,1.76M285.74,26h2.21v-.26l-1.02-.26v-6.21h-2.21v.26l1.02.26v4.54c-.38.72-.91,1.38-1.84,1.38-.98,0-1.3-.66-1.3-2.18v-4.26h-2.21v.26l1.02.26v4c0,1.73.94,2.4,2.1,2.4,1.31,0,1.86-.74,2.16-1.22h.06v1.02ZM278.83,20.66l.27.34c.35,0,.46-.24.46-.43,0-.77-1.09-1.47-2.37-1.47-1.55,0-3.39,1.15-3.39,3.7,0,2.13,1.22,3.41,3.12,3.41,1.57,0,2.35-.86,2.82-1.63l-.24-.14c-.32.53-1.09,1.04-2.19,1.04-1.46,0-2.27-1.04-2.27-3.02,0-2.11,1.01-3.06,2.16-3.06.78,0,1.34.35,1.63,1.28M260.11,18.83c0-1.47.34-2.75,1.89-2.75,1.71,0,2.02,1.84,2.02,3.46v.35c-.54,1.04-1.23,1.52-2.29,1.52-1.2,0-1.62-1.1-1.62-2.58M263.95,20.5h.05c-.11,3.01-.82,4.77-2.59,5.34l-1.09-1.14c-.32,0-.72.18-.72.75,0,.46.59.74,1.38.74,2.18,0,4.26-2.29,4.26-6.16,0-1.92-.69-4.4-3.15-4.4-1.87,0-3.18,1.54-3.18,3.2,0,1.82,1.1,3.02,2.74,3.02,1.25,0,2.05-.85,2.32-1.36M251.65,24.74l3.84-7.22c.37.8.56,1.94.56,3.39,0,3.36-.93,4.83-2.58,4.83-.77,0-1.39-.32-1.82-1.01M250.9,20.91c0-3.2.93-4.83,2.58-4.83.74,0,1.33.32,1.76.98l-3.84,7.18c-.32-.78-.5-1.87-.5-3.33M253.47,26.19c2.22,0,3.79-1.92,3.79-5.28s-1.57-5.28-3.79-5.28-3.79,2.08-3.79,5.28c0,3.36,1.57,5.28,3.79,5.28"/>
      <path class="cls-5" d="M592.9,31.63l-1.95.26v.32l1.02.1v9.18l-1.02.26v.26h3.23v-.26l-1.02-.26v-4.54c.38-.72.91-1.38,1.84-1.38.98,0,1.3.66,1.3,2.18v3.74l-1.02.26v.26h3.23v-.26l-1.02-.26v-4c0-1.73-.83-2.4-2.1-2.4s-1.86.74-2.16,1.22h-.06v-4.48l-.26-.19ZM585.44,35.34v.48h1.31v4.78c0,1.34,1.07,1.58,1.79,1.58.66,0,1.18-.34,1.54-.78l-.19-.19c-.26.27-.74.58-1.2.58-.62,0-.75-.27-.75-1.09v-4.88h2.05l.21-.54h-2.26v-1.7h-.22c-.32,1.57-1.04,1.76-2.27,1.76M578.7,38.54c0-1.87.82-3.17,2.14-3.17.78,0,1.47.5,1.87,1.02v4.13c-.26.38-.85,1.18-1.9,1.18-1.46,0-2.11-1.12-2.11-3.17M582.77,42h2.16v-.26l-1.02-.26v-9.66l-.22-.19-2.11.26v.32l1.15.1v3.62c-.42-.4-1.06-.83-1.87-.83-1.52,0-3.38,1.1-3.38,3.74,0,2.16,1.5,3.36,3.04,3.36,1.17,0,1.82-.58,2.22-1.09l.03.9ZM574.16,32.4c0,.43.34.77.77.77s.77-.34.77-.77-.34-.77-.77-.77-.77.34-.77.77M573.21,42h3.33v-.26l-1.02-.26v-6.21l-.26-.19-1.95.5v.26l1.02.06v5.58l-1.12.26v.26ZM569.6,42h.22l2.03-6.21.77-.26v-.26h-2.27v.26l1.14.26-1.44,4.42-1.68-4.42,1.14-.26v-.26h-3.09v.26l.77.26.24.62-1.3,3.78-1.73-4.4,1.12-.26v-.26h-3.07v.26l.77.26,2.42,6.21h.22l1.74-5.14,2,5.14ZM552.77,40.74l3.84-7.22c.37.8.56,1.94.56,3.39,0,3.36-.93,4.83-2.58,4.83-.77,0-1.39-.32-1.83-1.01M552.02,36.91c0-3.2.93-4.83,2.58-4.83.73,0,1.33.32,1.76.98l-3.84,7.18c-.32-.78-.5-1.87-.5-3.33M554.59,42.19c2.22,0,3.79-1.92,3.79-5.28s-1.57-5.28-3.79-5.28-3.79,2.08-3.79,5.28c0,3.36,1.57,5.28,3.79,5.28M544.06,40.74l3.84-7.22c.37.8.56,1.94.56,3.39,0,3.36-.93,4.83-2.58,4.83-.77,0-1.39-.32-1.82-1.01M543.31,36.91c0-3.2.93-4.83,2.58-4.83.74,0,1.33.32,1.76.98l-3.84,7.18c-.32-.78-.5-1.87-.5-3.33M545.89,42.19c2.22,0,3.79-1.92,3.79-5.28s-1.57-5.28-3.79-5.28-3.79,2.08-3.79,5.28c0,3.36,1.57,5.28,3.79,5.28M536.46,32.59v8.93l-1.47.16v.32h3.98v-.32l-1.33-.16v-9.7l-.29-.19-2.37.8v.16h1.47ZM525.57,39.44l3.18-2.9-3.18-2.9-.13.19,1.63,2.54h-8.58v.32h8.58l-1.63,2.54.13.19ZM509.55,42.19c2.1,0,3.71-1.36,3.71-3.52,0-2.37-1.66-3.18-3.09-3.18-1.25,0-1.97.46-2.34.77l.48-3.25h4.29l.16-1.81h-.16l-.32.62h-4.29l-.7,4.8.38.27c.5-.58,1.25-.83,2.19-.83,1.31,0,2.18.83,2.18,2.9,0,1.73-.82,2.78-2.4,2.78-1.23,0-1.71-.7-1.71-1.63l-.45-.45c-.48,0-.74.32-.74.74,0,1.07,1.38,1.79,2.8,1.79M504.34,31.82h-5.6l-.21,2.06h.21l.43-.85h4.58l-4.03,8.96h1.52l3.1-9.28v-.9ZM489.9,37.04l-.13.19,1.46,2.22h-5.87v-7.63h-.32v7.95h6.19l-1.46,2.22.13.19,3.02-2.58-3.02-2.58Z"/>
      <path class="cls-5" d="M564.62,19.34v.48h1.31v4.78c0,1.34,1.07,1.58,1.79,1.58.66,0,1.18-.34,1.54-.78l-.19-.19c-.26.27-.74.58-1.2.58-.62,0-.75-.27-.75-1.09v-4.88h2.05l.21-.54h-2.26v-1.7h-.22c-.32,1.57-1.04,1.76-2.27,1.76M558.58,15.63l-1.95.26v.32l1.02.1v9.18l-1.02.26v.26h3.23v-.26l-1.02-.26v-4.54c.38-.72.91-1.38,1.84-1.38.98,0,1.3.66,1.3,2.18v3.74l-1.02.26v.26h3.23v-.26l-1.02-.26v-4c0-1.73-.83-2.4-2.1-2.4s-1.86.74-2.16,1.22h-.06v-4.48l-.26-.19ZM550.35,21.22c0-1.42.72-1.84,1.65-1.84s1.65.74,1.65,2.16-.72,1.86-1.65,1.86-1.65-.75-1.65-2.18M549.95,27.7c0-.78.19-1.25.61-1.58.1.02.19.03.29.03h1.81c1.3,0,2,.22,2,1.23,0,1.22-1.07,2.14-2.64,2.14-1.3,0-2.06-.45-2.06-1.82M554.8,21.22c0-.59-.19-1.04-.51-1.38.14-.16.32-.24.43-.24l.67.46c.38,0,.61-.22.61-.5,0-.35-.29-.48-.64-.48-.43,0-.96.24-1.26.59-.53-.42-1.3-.59-2.1-.59-1.46,0-2.8.88-2.8,2.45,0,.88.43,1.46,1.07,1.78l-.78.78c-.27.75.11,1.6.77,1.92-.83.42-1.49.96-1.49,1.92,0,1.38,1.58,1.87,3.07,1.87,1.78,0,3.86-.94,3.86-2.85,0-1.14-.86-1.79-2.53-1.79h-1.84c-.85,0-1.3-.24-1.3-.78,0-.45.21-.75.5-.94.43.16.94.24,1.47.24,1.6,0,2.8-.91,2.8-2.46M545.55,16.4c0,.43.34.77.77.77s.77-.34.77-.77-.34-.77-.77-.77-.77.34-.77.77M544.61,26h3.33v-.26l-1.02-.26v-6.21l-.26-.19-1.95.5v.26l1.02.06v5.58l-1.12.26v.26ZM538.85,21.46c.22-1.38.94-2.08,1.95-2.08,1.07,0,1.49.69,1.49,1.87l-1.18.21h-2.26ZM540.78,26.19c1.5,0,2.26-.86,2.69-1.63l-.24-.16c-.3.53-1.01,1.06-2.19,1.06-1.3,0-2.27-.75-2.27-3.02,0-.24.02-.48.03-.69h4.7c0-1.81-1.5-2.66-2.8-2.66-1.44,0-3.17,1.14-3.17,3.71,0,2.05,1.28,3.39,3.25,3.39M533.78,26h.22l2.03-6.21.77-.26v-.26h-2.27v.26l1.14.26-1.44,4.42-1.68-4.42,1.14-.26v-.26h-3.09v.26l.77.26.24.62-1.3,3.78-1.73-4.4,1.12-.26v-.26h-3.07v.26l.77.26,2.42,6.21h.22l1.74-5.14,2,5.14ZM516.94,24.74l3.84-7.22c.37.8.56,1.94.56,3.39,0,3.36-.93,4.83-2.58,4.83-.77,0-1.39-.32-1.82-1.01M516.19,20.91c0-3.2.93-4.83,2.58-4.83.74,0,1.33.32,1.76.98l-3.84,7.18c-.32-.78-.5-1.87-.5-3.33M518.77,26.19c2.22,0,3.79-1.92,3.79-5.28s-1.57-5.28-3.79-5.28-3.79,2.08-3.79,5.28c0,3.36,1.57,5.28,3.79,5.28M508.24,24.74l3.84-7.22c.37.8.56,1.94.56,3.39,0,3.36-.93,4.83-2.58,4.83-.77,0-1.39-.32-1.82-1.01M507.49,20.91c0-3.2.93-4.83,2.58-4.83.74,0,1.33.32,1.76.98l-3.84,7.18c-.32-.78-.5-1.87-.5-3.33M510.06,26.19c2.22,0,3.79-1.92,3.79-5.28s-1.57-5.28-3.79-5.28-3.79,2.08-3.79,5.28c0,3.36,1.57,5.28,3.79,5.28M500.64,16.59v8.93l-1.47.16v.32h3.98v-.32l-1.33-.16v-9.7l-.29-.19-2.37.8v.16h1.47ZM489.9,21.04l-.13.19,1.46,2.22h-5.87v-7.63h-.32v7.95h6.19l-1.46,2.22.13.19,3.02-2.58-3.02-2.58Z"/>
    </g>
    <line class="cls-3" x1="322.7" y1="78" x2="322.7" y2="382"/>
    <line class="cls-3" x1="602" y1="62.25" x2="14" y2="62.25"/>
    <line class="cls-3" x1="602" y1="398.21" x2="14" y2="398.21"/>
    <g class="cls-7">
      <path class="cls-5" d="M95.31,218v-122.77l36.97-4.27h18.96c35.08,0,62.57,18.49,62.57,62.57s-29.39,64.46-59.72,64.46h-58.78ZM15.68,382h127.51v-9.48l-47.87-4.74v-138.41h27.02c34.13,0,78.21,18.01,78.21,84.37,8.53,48.82,45.5,68.26,79.16,68.26h27.02v-9.48h-18.49c-24.65,0-44.56-9.95-51.67-57.35-7.11-47.4-29.39-79.63-71.1-83.9v-1.9c51.67-2.37,84.37-35.08,84.37-78.68,0-49.77-37.92-73-104.28-73-31.76,0-87.22,1.42-130.82,2.84v9.48l44.56,4.74v273.02l-43.61,4.74v9.48Z"/>
      <path class="cls-5" d="M499.78,138.96c0-35.28,16.56-52.56,42.66-52.56s42.66,22.68,42.66,57.96c0,22.14-6.48,36.36-17.82,44.1-5.58-7.56-10.8-14.94-16.56-23.22l-7.02,4.5c5.58,7.92,11.16,15.12,17.46,21.96-5.58,2.34-11.7,3.42-18.72,3.42-26.1,0-42.66-20.88-42.66-56.16M542.26,200.16c7.74,0,15.48-1.44,22.5-4.32,6.12,6.48,12.42,12.96,19.8,19.98l2.7-2.7c-6.3-7.38-11.52-13.86-16.38-20.16,16.02-8.64,27.9-25.92,27.9-52.2,0-40.68-28.26-59.4-56.52-59.4s-56.16,20.52-56.16,61.2,27.9,57.6,56.16,57.6"/>
      <path class="cls-5" d="M499.78,282.73c0-35.28,16.56-52.56,42.66-52.56s42.66,22.68,42.66,57.96-16.56,50.76-42.66,50.76-42.66-20.88-42.66-56.16M542.26,343.93h3.24l-28.08,14.76v3.24c16.92,0,29.34,1.98,40.32,5.04,9.54,2.7,17.1,10.08,26.82,10.08,7.56,0,14.22-2.7,14.22-8.46,0-4.32-3.24-7.2-7.56-7.2l-9,6.12c-15.66-7.92-31.68-9.54-56.7-8.64l31.86-16.74c22.5-5.76,41.4-24.3,41.4-57.6,0-40.68-28.26-59.4-56.52-59.4s-56.16,20.52-56.16,61.2,27.9,57.6,56.16,57.6"/>
      <path class="cls-5" d="M392.14,218.94V89.54l9.48-3.32h5.21c13.27,0,24.17,14.69,24.17,64.46,0,45.03-12.32,68.26-27.97,68.26h-10.9ZM335.26,382h86.74v-7.11l-29.86-4.74v-143.62h1.9c29.86,0,33.65,19.91,32.71,77.26,10.43,50.72,19.43,78.21,46.45,78.21h19.43v-7.11h-3.32c-19.91,0-23.23-21.8-29.39-69.2-6.64-48.35-12.8-80.11-45.98-80.11v-1.42c31.76-1.9,48.82-31.76,48.82-76.31,0-47.4-17.06-69.68-55.93-69.68-19.91,0-50.24,1.42-72.05,2.37v7.11l26.07,4.74v277.76l-25.6,4.74v7.11Z"/>
    </g>
  </g>
</svg>