<?xml version="1.0" encoding="UTF-8"?>
<svg id="Calque_1" data-name="Calque 1" xmlns="http://www.w3.org/2000/svg" xmlns:xlink="http://www.w3.org/1999/xlink" viewBox="0 0 616 423">
  <defs>
    <style>
      .cls-1 {
        clip-path: url(#clippath);
      }

      .cls-2, .cls-3 {
        fill: none;
      }

      .cls-2, .cls-4 {
        stroke-width: 0px;
      }

      .cls-5 {
        clip-path: url(#clippath-1);
      }

      .cls-6 {
        clip-path: url(#clippath-2);
      }

      .cls-3 {
        stroke: #000;
        stroke-width: .5px;
      }
    </style>
    <clipPath id="clippath">
      <rect class="cls-2" width="616" height="423"/>
    </clipPath>
    <clipPath id="clippath-1">
      <rect class="cls-2" width="616" height="423"/>
    </clipPath>
    <clipPath id="clippath-2">
      <rect class="cls-2" width="616" height="423"/>
    </clipPath>
  </defs>
  <g class="cls-1">
    <line class="cls-3" x1="602" y1="387.13" x2="14" y2="387.13"/>
    <line class="cls-3" x1="602" y1="408.88" x2="14" y2="408.88"/>
    <line class="cls-3" x1="602" y1="14" x2="14" y2="14"/>
    <g class="cls-5">
      <path class="cls-4" d="M507.17,291.26c0-9.18,7.1-17.02,18.65-17.02,8.58,0,17.02,5.18,17.02,18.2,0,11.99-7.4,17.32-15.54,21.31-10.66-5.62-20.13-11.4-20.13-22.5M503.32,345.28c0-13.76,9.03-21.16,16.43-25.31,12.58,6.81,25.9,13.17,25.9,27.08,0,10.36-7.55,16.58-21.46,16.58-11.99,0-20.87-7.25-20.87-18.35M523.6,367.78c15.98,0,31.82-9.62,31.82-24.86s-13.02-21.46-25.6-27.82c10.21-5.03,21.02-12.14,21.02-23.83s-10.66-21.16-25.75-21.16c-16.43,0-27.68,11.4-27.68,23.98s9.03,18.5,19.39,24.27c-11.4,4.74-22.94,12.43-22.94,26.79,0,15.84,17.91,22.64,29.75,22.64M444.13,367.78c19.39,0,34.34-12.58,34.34-32.56,0-21.9-15.39-29.45-28.56-29.45-11.54,0-18.2,4.29-21.61,7.1l4.44-30.04h39.66l1.48-16.72h-1.48l-2.96,5.77h-39.66l-6.51,44.4,3.55,2.52c4.59-5.33,11.54-7.7,20.28-7.7,12.14,0,20.13,7.7,20.13,26.79,0,15.98-7.55,25.75-22.2,25.75-11.4,0-15.84-6.51-15.84-15.1l-4.14-4.14c-4.44,0-6.81,2.96-6.81,6.81,0,9.92,12.73,16.58,25.9,16.58M355.47,329.74h53.28v-4.44h-53.28v4.44ZM297.75,291.26c0-9.18,7.1-17.02,18.65-17.02,8.58,0,17.02,5.18,17.02,18.2,0,11.99-7.4,17.32-15.54,21.31-10.66-5.62-20.13-11.4-20.13-22.5M293.91,345.28c0-13.76,9.03-21.16,16.43-25.31,12.58,6.81,25.9,13.17,25.9,27.08,0,10.36-7.55,16.58-21.46,16.58-11.99,0-20.87-7.25-20.87-18.35M314.18,367.78c15.98,0,31.82-9.62,31.82-24.86s-13.02-21.46-25.6-27.82c10.21-5.03,21.02-12.14,21.02-23.83s-10.66-21.16-25.75-21.16c-16.43,0-27.68,11.4-27.68,23.98s9.03,18.5,19.39,24.27c-11.4,4.74-22.94,12.43-22.94,26.79,0,15.84,17.91,22.64,29.75,22.64M257.65,341.88c0,15.39-7.25,21.76-21.46,21.76-8.58,0-15.24-4-15.24-15.1l-4.14-4.14c-6.51,0-8.29,3.7-8.29,7.1,0,9.32,13.17,16.28,27.23,16.28,19.39,0,33.15-12.58,33.15-28.27,0-14.06-10.66-22.05-29.75-22.05v-.59c12.28-4.14,26.2-12.43,26.2-26.94,0-13.32-9.92-19.83-24.57-19.83-18.35,0-27.08,13.17-30.78,24.27l2.66,1.04c2.96-8.88,11.69-18.8,24.57-18.8,10.95,0,16.87,5.92,16.87,16.43,0,15.84-15.24,22.94-22.64,24.72l.89,3.11c16.58,0,25.31,5.62,25.31,21.02"/>
      <path class="cls-4" d="M469.8,184.43v4.44h12.14v44.25c0,12.43,9.92,14.65,16.58,14.65,6.07,0,10.95-3.11,14.21-7.25l-1.78-1.78c-2.37,2.52-6.81,5.33-11.1,5.33-5.77,0-6.96-2.52-6.96-10.06v-45.14h18.94l1.92-5.03h-20.87v-15.69h-2.07c-2.96,14.5-9.62,16.28-21.02,16.28M444.49,157.2c0,4,3.11,7.1,7.1,7.1s7.1-3.11,7.1-7.1-3.11-7.1-7.1-7.1-7.1,3.11-7.1,7.1M435.76,246h30.78v-2.37l-9.47-2.37v-57.42l-2.37-1.78-18.06,4.59v2.37l9.47.59v51.65l-10.36,2.37v2.37ZM382.04,213.14v-13.76c3.26-6.81,8.88-12.88,16.72-12.88,7.25,0,11.4,3.85,11.4,11.69,0,9.92-8.73,14.95-14.36,14.95h-13.76ZM361.62,246h29.9v-2.37l-9.47-2.37v-24.86h.89c15.39,0,24.12,1.78,24.12,13.76,0,8.29,6.36,15.84,16.58,15.84h7.1v-2.66h-5.33c-4,0-4.88-4.44-6.22-11.99-1.92-11.1-13.62-15.84-23.24-15.84h-.44v-.59c11.99,0,25.6-5.18,25.6-18.2,0-9.77-7.1-14.65-18.35-14.65-9.77,0-16.58,4.74-20.13,11.25h-.59v-41.44l-2.37-1.78-18.06,2.37v2.96l9.47.89v84.95l-9.47,2.37v2.37ZM317.51,213.14h-15.69v-37.59h-2.96l-7.99,7.4v30.19h-32.41l40.26-61.27h-6.36l-41.59,63.2,3.4,6.96h36.7v19.54l-13.62,1.48v2.96h36.11v-2.96l-11.54-1.48v-19.54h20.13l1.48-19.54h-1.92l-4,10.66Z"/>
      <path class="cls-4" d="M558.68,38.98v82.58l-13.62,1.48v2.96h36.85v-2.96l-12.28-1.48V31.87l-2.66-1.78-21.9,7.4v1.48h13.62ZM479.35,94.92c0-19.83,6.96-30.19,21.9-30.19s21.9,13.32,21.9,30.19c0,19.83-6.96,30.19-21.9,30.19s-21.9-13.32-21.9-30.19M501.25,127.78c18.35,0,32.86-14.5,32.86-32.86,0-19.83-14.21-32.86-32.86-32.86s-32.86,14.5-32.86,32.86c0,19.83,14.21,32.86,32.86,32.86M405.94,89.74h53.28v-4.44h-53.28v4.44ZM367.16,36.61c11.69,0,17.46,7.84,17.46,19.24,0,13.02-9.03,27.53-22.2,42.03l-23.53,26.05v2.07h59.35l1.48-20.72h-1.48l-5.48,10.95h-42.62l20.87-21.02c11.69-11.84,24.86-26.64,24.86-42.03s-11.25-23.09-25.75-23.09c-16.13,0-24.42,10.95-28.56,24.27l2.66,1.04c4.88-12.73,12.73-18.8,22.94-18.8M275.55,114.31l35.52-66.75c3.4,7.4,5.18,17.91,5.18,31.38,0,31.08-8.58,44.7-23.83,44.7-7.1,0-12.88-2.96-16.87-9.32M268.6,78.94c0-29.6,8.58-44.7,23.83-44.7,6.81,0,12.28,2.96,16.28,9.03l-35.52,66.45c-2.96-7.25-4.59-17.32-4.59-30.78M292.43,127.78c20.57,0,35.08-17.76,35.08-48.84s-14.5-48.84-35.08-48.84-35.08,19.24-35.08,48.84c0,31.08,14.5,48.84,35.08,48.84M199.19,119.19l30.64-46.03c3.85,5.48,5.62,13.17,5.62,21.76,0,19.83-6.96,30.19-21.9,30.19-6.07,0-10.8-2.22-14.36-5.92M191.64,94.92c0-19.83,6.96-30.19,21.9-30.19,5.77,0,10.21,1.92,13.76,5.33l-30.64,45.73c-3.4-5.33-5.03-12.73-5.03-20.87M213.54,127.78c18.35,0,32.86-14.5,32.86-32.86,0-19.83-14.21-32.86-32.86-32.86s-32.86,14.5-32.86,32.86c0,19.83,14.21,32.86,32.86,32.86"/>
      <path class="cls-4" d="M68.65,328.26l.89,3.11h19.09v6.81l-8.14,1.33v2.22h22.79v-2.22l-7.55-1.33v-6.81h9.62l.89-10.95h-.89l-2.52,4.44h-7.1v-15.69h-1.63l-5.48,4.29v11.4h-13.62l19.54-31.23h-4.29l-21.61,34.63ZM42.9,318.94c0-26.34,18.06-44.4,44.55-44.4s44.4,18.06,44.4,44.4-18.06,44.4-44.4,44.4-44.55-18.06-44.55-44.4M87.45,367.18c28.86,0,48.54-19.54,48.54-48.25s-19.68-48.25-48.54-48.25-48.69,19.54-48.69,48.25,19.83,48.25,48.69,48.25"/>
    </g>
    <polygon class="cls-4" points="78.86 200.12 50.89 223.95 78.86 247.78 80.05 246 66.58 225.43 123.86 225.43 123.86 151.87 120.9 151.87 120.9 222.47 66.58 222.47 80.05 201.9 78.86 200.12"/>
    <polygon class="cls-4" points="109.65 102.32 139.1 75.53 109.65 48.74 108.46 50.52 123.56 74.05 51.19 74.05 66.28 50.52 65.1 48.74 35.65 75.53 65.1 102.32 66.28 100.54 51.19 77.01 123.56 77.01 108.46 100.54 109.65 102.32"/>
    <line class="cls-3" x1="161" y1="30" x2="161" y2="366"/>
    <g class="cls-6">
      <path class="cls-4" d="M597.42,393.88l-1.52.2v.25l.8.07v7.18l-.8.2v.2h2.52v-.2l-.8-.2v-3.55c.3-.56.71-1.08,1.44-1.08.76,0,1.01.51,1.01,1.7v2.93l-.8.2v.2h2.52v-.2l-.8-.2v-3.13c0-1.35-.65-1.87-1.64-1.87s-1.45.57-1.69.95h-.05v-3.5l-.2-.15ZM591.73,396.78v.37h1.03v3.74c0,1.05.84,1.24,1.4,1.24.51,0,.92-.26,1.2-.61l-.15-.15c-.2.21-.58.45-.94.45-.49,0-.59-.21-.59-.85v-3.81h1.6l.16-.42h-1.76v-1.33h-.17c-.25,1.23-.81,1.38-1.77,1.38M586.59,399.27c0-1.46.64-2.48,1.68-2.48.61,0,1.15.39,1.46.8v3.23c-.2.3-.66.92-1.49.92-1.14,0-1.65-.88-1.65-2.48M589.76,401.97h1.69v-.2l-.8-.2v-7.55l-.17-.15-1.65.2v.25l.9.07v2.83c-.33-.31-.83-.65-1.46-.65-1.19,0-2.64.86-2.64,2.92,0,1.69,1.17,2.62,2.37,2.62.91,0,1.43-.45,1.74-.85l.03.7ZM583.16,394.47c0,.34.26.6.6.6s.6-.26.6-.6-.26-.6-.6-.6-.6.26-.6.6M582.43,401.97h2.6v-.2l-.8-.2v-4.85l-.2-.15-1.52.39v.2l.8.05v4.36l-.88.2v.2ZM579.73,401.97h.17l1.59-4.85.6-.2v-.2h-1.77v.2l.89.2-1.12,3.45-1.31-3.45.89-.2v-.2h-2.41v.2l.6.2.19.49-1.01,2.95-1.35-3.44.88-.2v-.2h-2.4v.2l.6.2,1.89,4.85h.17l1.36-4.01,1.56,4.01ZM566.83,400.99l3-5.64c.29.62.44,1.51.44,2.65,0,2.63-.73,3.78-2.01,3.78-.6,0-1.09-.25-1.42-.79M566.24,398c0-2.5.72-3.78,2.01-3.78.58,0,1.04.25,1.38.76l-3,5.61c-.25-.61-.39-1.46-.39-2.6M568.25,402.12c1.74,0,2.96-1.5,2.96-4.12s-1.22-4.12-2.96-4.12-2.96,1.62-2.96,4.12c0,2.63,1.22,4.12,2.96,4.12M560.15,400.99l3-5.64c.29.62.44,1.51.44,2.65,0,2.63-.73,3.78-2.01,3.78-.6,0-1.09-.25-1.42-.79M559.56,398c0-2.5.73-3.78,2.01-3.78.58,0,1.04.25,1.38.76l-3,5.61c-.25-.61-.39-1.46-.39-2.6M561.58,402.12c1.74,0,2.96-1.5,2.96-4.12s-1.22-4.12-2.96-4.12-2.96,1.62-2.96,4.12c0,2.63,1.22,4.12,2.96,4.12M554.34,394.62v6.98l-1.15.12v.25h3.11v-.25l-1.04-.12v-7.58l-.22-.15-1.85.62v.12h1.15ZM546.2,398.1l-.1.15,1.14,1.74h-4.59v-5.96h-.25v6.21h4.84l-1.14,1.74.1.15,2.36-2.01-2.36-2.01ZM530.51,396.78v.37h1.03v3.74c0,1.05.84,1.24,1.4,1.24.51,0,.93-.26,1.2-.61l-.15-.15c-.2.21-.58.45-.94.45-.49,0-.59-.21-.59-.85v-3.81h1.6l.16-.42h-1.76v-1.33h-.17c-.25,1.23-.81,1.38-1.77,1.38M525.91,393.88l-1.52.2v.25l.8.07v7.18l-.8.2v.2h2.52v-.2l-.8-.2v-3.55c.3-.56.71-1.08,1.44-1.08.76,0,1.01.51,1.01,1.7v2.93l-.8.2v.2h2.52v-.2l-.8-.2v-3.13c0-1.35-.65-1.87-1.64-1.87s-1.45.57-1.69.95h-.05v-3.5l-.2-.15ZM519.61,398.24c0-1.11.56-1.44,1.29-1.44s1.29.58,1.29,1.69-.56,1.45-1.29,1.45-1.29-.59-1.29-1.7M519.3,403.3c0-.61.15-.98.47-1.24.08.01.15.02.22.02h1.41c1.01,0,1.56.17,1.56.96,0,.95-.84,1.68-2.06,1.68-1.01,0-1.61-.35-1.61-1.43M523.09,398.24c0-.46-.15-.81-.4-1.08.11-.12.25-.19.34-.19l.53.36c.3,0,.47-.17.47-.39,0-.27-.22-.37-.5-.37-.34,0-.75.19-.99.46-.41-.32-1.01-.46-1.64-.46-1.14,0-2.19.69-2.19,1.91,0,.69.34,1.14.84,1.39l-.61.61c-.21.59.09,1.25.6,1.5-.65.33-1.16.75-1.16,1.5,0,1.07,1.24,1.46,2.4,1.46,1.39,0,3.01-.74,3.01-2.22,0-.89-.67-1.4-1.97-1.4h-1.44c-.66,0-1.01-.19-1.01-.61,0-.35.16-.59.39-.74.34.12.74.19,1.15.19,1.25,0,2.19-.71,2.19-1.92M515.99,394.47c0,.34.26.6.6.6s.6-.26.6-.6-.26-.6-.6-.6-.6.26-.6.6M515.25,401.97h2.6v-.2l-.8-.2v-4.85l-.2-.15-1.52.39v.2l.8.05v4.36l-.88.2v.2ZM510.88,398.43c.17-1.08.74-1.63,1.53-1.63.84,0,1.16.54,1.16,1.46l-.92.16h-1.76ZM512.39,402.12c1.17,0,1.76-.67,2.1-1.27l-.19-.12c-.24.41-.79.83-1.71.83-1.01,0-1.78-.59-1.78-2.36,0-.19.01-.38.03-.54h3.68c0-1.41-1.17-2.07-2.19-2.07-1.13,0-2.47.89-2.47,2.9,0,1.6,1,2.65,2.54,2.65M507.04,401.97h.18l1.59-4.85.6-.2v-.2h-1.77v.2l.89.2-1.12,3.45-1.31-3.45.89-.2v-.2h-2.41v.2l.6.2.19.49-1.01,2.95-1.35-3.44.88-.2v-.2h-2.4v.2l.6.2,1.89,4.85h.18l1.36-4.01,1.56,4.01ZM494.14,400.99l3-5.64c.29.62.44,1.51.44,2.65,0,2.63-.73,3.78-2.01,3.78-.6,0-1.09-.25-1.43-.79M493.55,398c0-2.5.73-3.78,2.01-3.78.58,0,1.04.25,1.38.76l-3,5.61c-.25-.61-.39-1.46-.39-2.6M495.56,402.12c1.74,0,2.96-1.5,2.96-4.12s-1.22-4.12-2.96-4.12-2.96,1.62-2.96,4.12c0,2.63,1.22,4.12,2.96,4.12M487.46,400.99l3-5.64c.29.62.44,1.51.44,2.65,0,2.63-.73,3.78-2.01,3.78-.6,0-1.09-.25-1.43-.79M486.88,398c0-2.5.73-3.78,2.01-3.78.57,0,1.04.25,1.38.76l-3,5.61c-.25-.61-.39-1.46-.39-2.6M488.89,402.12c1.74,0,2.96-1.5,2.96-4.12s-1.22-4.12-2.96-4.12-2.96,1.62-2.96,4.12c0,2.63,1.22,4.12,2.96,4.12M481.65,394.62v6.98l-1.15.12v.25h3.11v-.25l-1.04-.12v-7.58l-.22-.15-1.85.62v.12h1.15ZM473.51,398.1l-.1.15,1.14,1.74h-4.59v-5.96h-.25v6.21h4.84l-1.14,1.74.1.15,2.36-2.01-2.36-2.01Z"/>
      <path class="cls-4" d="M147.19,399.2h-1.33v-3.17h-.25l-.67.62v2.55h-2.74l3.4-5.17h-.54l-3.51,5.34.29.59h3.1v1.65l-1.15.12v.25h3.05v-.25l-.98-.12v-1.65h1.7l.12-1.65h-.16l-.34.9ZM136.24,400.99l3-5.64c.29.62.44,1.51.44,2.65,0,2.62-.73,3.78-2.01,3.78-.6,0-1.09-.25-1.43-.79M135.65,398c0-2.5.73-3.78,2.01-3.78.58,0,1.04.25,1.38.76l-3,5.61c-.25-.61-.39-1.46-.39-2.6M137.66,402.12c1.74,0,2.96-1.5,2.96-4.12s-1.22-4.12-2.96-4.12-2.96,1.62-2.96,4.12c0,2.62,1.22,4.12,2.96,4.12M125.6,401.97h2.52v-.2l-.8-.2v-3.54c.3-.57.71-1.09,1.44-1.09.76,0,1.01.51,1.01,1.7v2.93l-.8.2v.2h2.52v-.2l-.8-.2v-3.13c0-1.35-.74-1.87-1.64-1.87-1.03,0-1.45.57-1.69.95h-.05v-.8l-.2-.15-1.52.39v.2l.8.05v4.36l-.8.2v.2ZM120.2,400.66c0,.9.54,1.46,1.5,1.46s1.38-.46,1.64-1v.08c0,.6.41.87,1.02.87.4,0,.64-.19.85-.42l-.12-.14c-.19.2-.39.26-.53.26-.26,0-.3-.14-.3-.64v-3.24c0-.91-.9-1.32-1.7-1.32-.91,0-2.07.49-2.07,1.1,0,.2.1.39.41.39l.44-.44c.22-.59.46-.83,1.13-.83s.88.35.88,1.23v.93h-.03c-1.51,0-3.11.44-3.11,1.71M123.31,399.19h.03v1.44c-.19.55-.62,1.11-1.34,1.11-.65,0-.9-.52-.9-1.14,0-1.04.89-1.41,2.21-1.41M116.95,401.97h2.52v-.2l-.8-.2v-7.55l-.2-.15-1.52.2v.25l.8.08v7.17l-.8.2v.2ZM112.24,401.1v-3.23c.25-.38.71-.92,1.49-.92,1.26,0,1.65.88,1.65,2.48,0,1.46-.64,2.48-1.68,2.48-.61,0-1.15-.39-1.46-.8M110.51,404.8h2.85v-.2l-1.13-.2v-2.89c.32.31.82.61,1.46.61,1.19,0,2.64-.86,2.64-2.92,0-1.69-1.3-2.62-2.37-2.62-.91,0-1.43.45-1.73.82v-.67l-.18-.15-1.65.39v.2l.9.05v7.19l-.8.2v.2ZM105.94,399.2v-1.16c.28-.57.75-1.09,1.41-1.09.61,0,.96.33.96.99,0,.84-.74,1.26-1.21,1.26h-1.16ZM104.21,401.97h2.52v-.2l-.8-.2v-2.1h.08c1.3,0,2.04.15,2.04,1.16,0,.7.54,1.34,1.4,1.34h.6v-.22h-.45c-.34,0-.41-.38-.53-1.01-.16-.94-1.15-1.34-1.96-1.34h-.04v-.05c1.01,0,2.16-.44,2.16-1.54,0-.82-.6-1.24-1.55-1.24-.82,0-1.4.4-1.7.95h-.05v-3.5l-.2-.15-1.52.2v.25l.8.08v7.17l-.8.2v.2ZM101.72,397.71h-.05v-.99l-.17-.15-1.65.39v.2l.9.05v4.36l-.8.2v.2h2.69v-.2l-.96-.2v-3.46c.16-.36.58-1.01,1.14-1.01l.61.36c.38,0,.58-.19.58-.44,0-.22-.26-.45-.84-.45-.86,0-1.33.91-1.44,1.14M94.82,399.23c0-1.55.54-2.43,1.69-2.43s1.69,1.12,1.69,2.68-.54,2.43-1.69,2.43-1.69-1.13-1.69-2.68M96.44,402.12c1.55,0,2.72-1.22,2.72-2.77,0-1.68-1.15-2.77-2.57-2.77-1.55,0-2.72,1.22-2.72,2.77,0,1.68,1.15,2.77,2.57,2.77M90.39,401.97h.16l2.51-7.57.93-.12v-.25h-2.62v.25l1.38.12-1.96,6.02-1.91-6.02,1.38-.12v-.25h-3.15v.25l.8.12.7,2.12-1.65,4.02-2.1-6.15,1.39-.12v-.25h-3.29v.25l.93.12,2.66,7.57h.15l2.05-5.02,1.66,5.02ZM75.31,399.28c0-1.46.64-2.48,1.68-2.48.61,0,1.15.39,1.46.8v3.23c-.2.3-.66.93-1.49.93-1.14,0-1.65-.88-1.65-2.48M78.49,401.97h1.69v-.2l-.8-.2v-7.55l-.18-.15-1.65.2v.25l.9.08v2.82c-.32-.31-.82-.65-1.46-.65-1.19,0-2.64.86-2.64,2.92,0,1.69,1.17,2.62,2.37,2.62.91,0,1.43-.45,1.74-.85l.03.7ZM67.85,401.97h2.52v-.2l-.8-.2v-3.54c.3-.57.71-1.09,1.44-1.09.76,0,1.01.51,1.01,1.7v2.93l-.8.2v.2h2.52v-.2l-.8-.2v-3.13c0-1.35-.74-1.87-1.64-1.87-1.03,0-1.45.57-1.69.95h-.05v-.8l-.2-.15-1.52.39v.2l.8.05v4.36l-.8.2v.2ZM62.45,400.66c0,.9.54,1.46,1.5,1.46s1.38-.46,1.64-1v.08c0,.6.41.87,1.02.87.4,0,.64-.19.85-.42l-.12-.14c-.19.2-.39.26-.53.26-.26,0-.3-.14-.3-.64v-3.24c0-.91-.9-1.32-1.7-1.32-.91,0-2.07.49-2.07,1.1,0,.2.1.39.41.39l.44-.44c.23-.59.46-.83,1.12-.83s.88.35.88,1.23v.93h-.03c-1.51,0-3.11.44-3.11,1.71M65.56,399.19h.03v1.44c-.19.55-.62,1.11-1.34,1.11-.65,0-.9-.52-.9-1.14,0-1.04.89-1.41,2.21-1.41M59.76,397.71h-.05v-.99l-.17-.15-1.65.39v.2l.9.05v4.36l-.8.2v.2h2.69v-.2l-.96-.2v-3.46c.16-.36.58-1.01,1.14-1.01l.61.36c.38,0,.58-.19.58-.44,0-.22-.26-.45-.84-.45-.86,0-1.33.91-1.44,1.14M52.84,398.24c0-1.11.56-1.44,1.29-1.44s1.29.58,1.29,1.69-.56,1.45-1.29,1.45-1.29-.59-1.29-1.7M52.52,403.3c0-.61.15-.98.48-1.24.08.01.15.03.23.03h1.41c1.01,0,1.56.17,1.56.96,0,.95-.84,1.68-2.06,1.68-1.01,0-1.61-.35-1.61-1.43M56.31,398.24c0-.46-.15-.81-.4-1.08.11-.12.25-.19.34-.19l.52.36c.3,0,.48-.18.48-.39,0-.27-.23-.37-.5-.37-.34,0-.75.19-.99.46-.41-.32-1.01-.46-1.64-.46-1.14,0-2.19.69-2.19,1.91,0,.69.34,1.14.84,1.39l-.61.61c-.21.59.09,1.25.6,1.5-.65.32-1.16.75-1.16,1.5,0,1.08,1.24,1.46,2.4,1.46,1.39,0,3.01-.74,3.01-2.23,0-.89-.67-1.4-1.97-1.4h-1.44c-.66,0-1.01-.19-1.01-.61,0-.35.16-.59.39-.74.34.12.74.19,1.15.19,1.25,0,2.19-.71,2.19-1.92M47.15,398.43c.18-1.08.74-1.63,1.53-1.63.84,0,1.16.54,1.16,1.46l-.93.16h-1.76ZM48.66,402.12c1.18,0,1.76-.67,2.1-1.27l-.19-.12c-.24.41-.79.83-1.71.83-1.01,0-1.78-.59-1.78-2.36,0-.19.01-.38.03-.54h3.67c0-1.41-1.17-2.07-2.19-2.07-1.12,0-2.47.89-2.47,2.9,0,1.6,1,2.65,2.54,2.65M43.55,397.71h-.05v-.99l-.17-.15-1.65.39v.2l.9.05v4.36l-.8.2v.2h2.69v-.2l-.96-.2v-3.46c.16-.36.58-1.01,1.14-1.01l.61.36c.38,0,.58-.19.58-.44,0-.22-.26-.45-.84-.45-.86,0-1.33.91-1.44,1.14M36.02,401.97h3.45v-.25l-1.26-.12v-7.2l.8-.06h.95c.36,0,.69.67.74,1.99h.45l-.12-2.3h-6.42l-.12,2.3h.45c.02-1.31.34-1.99.74-1.99h.83l.8.06v7.2l-1.26.12v.25ZM25.16,401.97h3.83v-.25l-1.73-.12v-3.71h1.6c.19,0,.39.02.58.15l.12,1.12h.37v-2.9h-.37l-.12,1.13c-.19.12-.39.15-.58.15h-1.6v-3.14l1.65-.03h1.56c.2,0,.4.65.52,1.7h.33l-.12-2.05h-6.04v.25l1.15.12v7.2l-1.15.12v.25ZM14.38,401.97h2.76v-.25l-1.26-.12v-6.81l3.21,7.19h.18l3.05-7.31v6.94l-1.26.12v.25h3.36v-.25l-1.15-.12v-7.2l1.15-.12v-.25h-2.21l-2.74,6.52-2.89-6.52h-2.2v.25l1.15.12v7.2l-1.15.12v.25Z"/>
    </g>
  </g>
</svg>