<?xml version="1.0" encoding="UTF-8"?>
<svg id="Calque_1" data-name="Calque 1" xmlns="http://www.w3.org/2000/svg" xmlns:xlink="http://www.w3.org/1999/xlink" viewBox="0 0 616 423">
  <defs>
    <style>
      .cls-1 {
        clip-path: url(#clippath);
      }

      .cls-2, .cls-3, .cls-4 {
        fill: none;
      }

      .cls-2, .cls-5 {
        stroke-width: 0px;
      }

      .cls-3 {
        stroke-width: 2px;
      }

      .cls-3, .cls-4 {
        stroke: #000;
      }

      .cls-6 {
        clip-path: url(#clippath-1);
      }

      .cls-7 {
        clip-path: url(#clippath-2);
      }

      .cls-4 {
        stroke-width: .5px;
      }
    </style>
    <clipPath id="clippath">
      <rect class="cls-2" width="616" height="423"/>
    </clipPath>
    <clipPath id="clippath-1">
      <rect class="cls-2" width="616" height="423"/>
    </clipPath>
    <clipPath id="clippath-2">
      <rect class="cls-2" width="616" height="423"/>
    </clipPath>
  </defs>
  <g class="cls-1">
    <polyline class="cls-3" points="249.2 31 15 31 15 149.01 249.2 149.01"/>
    <polygon class="cls-5" points="205.1 90 249.2 150 249.2 30 205.1 90"/>
    <g class="cls-6">
      <path class="cls-5" d="M38.64,120.24v-.94c0-9.54,3.67-13.63,9.82-13.63,4.42,0,7.71,1.83,9.78,4.14v19.27c-2.3,3.01-5.64,4.7-9.73,4.7-6.25,0-9.87-4.04-9.87-13.54M44.7,143.13c5.73,0,10.76-1.97,13.54-4.79v3.67h13.86v-44.74h-13.86v3.2c-2.91-2.26-7.57-4.32-13.72-4.32-11.94,0-19.69,7.66-19.69,23.17v.94c0,14.85,7.85,22.89,19.88,22.89"/>
      <path class="cls-5" d="M40.21,73.87v-.38c0-2.63,1.79-4.89,6.44-5.55l9.54-1.32v2.3c0,6.2-4.42,9.64-10.15,9.64-3.67,0-5.83-1.6-5.83-4.7M42.05,87.13c6.2,0,10.95-1.97,14.01-5.73v4.61h13.54v-29.47c0-12.17-7.75-16.4-19.36-16.4-8.51,0-15.32,2.35-19.18,4.93l-1.08,10.25h2.26c3.81-3.43,9.07-5.55,14.85-5.55,5.45,0,9.07,1.93,9.07,7.29v1.79l-12.17,1.5c-11.42,1.46-16.87,6.49-16.87,14.01v.47c0,7.85,5.73,12.31,14.95,12.31"/>
      <path class="cls-5" d="M98.7,120.24v-.99c0-8.65,2.91-12.27,7.94-12.27,3.43,0,6.2,1.41,7.94,3.38v18.24c-1.83,2.59-4.56,3.81-7.8,3.81-5.22,0-8.08-3.43-8.08-12.17M101.38,143.13c5.55,0,10.53-1.74,13.21-4.42v3.29h16.97v-44.74h-16.97v2.96c-2.91-2.16-7.47-4.09-13.54-4.09-11.84,0-19.32,7.24-19.32,23.12v.99c0,15.23,7.52,22.89,19.65,22.89"/>
      <path class="cls-5" d="M99.76,73.54v-.38c0-2.44,1.6-4.32,5.45-4.79l7.61-.94v2.21c0,5.12-3.53,7.8-8.27,7.8-3.01,0-4.79-1.27-4.79-3.9M99.15,87.13c5.88,0,10.48-1.69,13.54-5.12v3.99h16.54v-29.42c0-12.17-7.9-16.45-20.63-16.45-9.02,0-16.45,2.21-20.73,4.7l-1.18,11.51h2.73c3.67-3.01,9.12-4.98,14.99-4.98,5.36,0,8.37,1.69,8.41,6.02v1.41l-11.14,1.27c-11.99,1.46-17.86,6.44-17.86,14.24v.52c0,8.04,5.97,12.31,15.32,12.31"/>
      <path class="cls-5" d="M160.27,120.24v-1.03c0-7.8,2.12-10.9,6.06-10.9,2.44,0,4.61.89,6.06,2.54v17.44c-1.46,1.97-3.48,2.77-5.83,2.77-4.18,0-6.3-2.87-6.3-10.81M159.56,143.13c5.36,0,10.2-1.46,12.83-3.9v2.77h20.16v-44.74h-20.16v2.68c-3.01-2.11-7.43-3.81-13.3-3.81-11.8,0-18.99,6.82-18.99,23.08v1.03c0,15.6,7.19,22.89,19.46,22.89"/>
      <path class="cls-5" d="M160.81,73.22v-.38c0-2.26,1.36-3.71,4.47-4.09l5.69-.52v2.12c.05,4.09-2.63,6.02-6.39,6.02-2.35,0-3.76-.99-3.76-3.15M157.75,87.13c5.64,0,10.1-1.46,13.11-4.61v3.48h19.55v-29.38c0-12.17-8.08-16.5-21.95-16.5-9.49,0-17.58,2.07-22.28,4.46l-1.27,12.74h3.24c3.48-2.49,9.16-4.37,15.13-4.37,5.22,0,7.66,1.46,7.66,4.7v1.08l-10.1,1.03c-12.5,1.46-18.75,6.39-18.75,14.48v.61c0,8.18,6.16,12.27,15.65,12.27"/>
      <path class="cls-5" d="M181.29,321.92v-2.09c0-14.06,2.76-19.19,8.46-19.19,2.95,0,6.27.76,8.55,3.51v33.25c-1.99,3.04-4.85,3.8-7.88,3.8-6.37,0-9.12-4.65-9.12-19.29M173.03,368.28c10.36,0,20.14-2.47,25.27-7.03v4.75h47.12v-90.44h-47.12v4.94c-6.08-4.27-15.01-7.22-26.41-7.22-23.85,0-37.71,12.92-37.71,46.55v2.09c0,32.4,13.87,46.36,38.85,46.36M58.75,339.21l.28-1.24c.85-4.18,4.18-5.99,7.88-6.46l8.84-.95-1.33,6.46c-.95,5.13-5.61,7.22-10.17,7.22s-6.18-1.8-5.51-5.03M42.41,368.28c10.74,0,19.67-2.47,26.79-7.89l-1.24,5.61h45.51l12.35-58.33c5.51-25.93-13.49-34.39-42.37-34.39-18.43,0-36.57,3.61-47.21,8.55l-8.74,28.31h7.6c7.41-4.56,24.6-7.69,35.34-7.69,7.7,0,10.74,1.52,10.26,3.7l-.1.67-23.46,2.75c-21.85,2.56-39.24,10.83-43.04,27.55l-.28,1.43c-4.47,19.86,7.89,29.74,28.59,29.74"/>
      <path class="cls-5" d="M179.77,209.92l.47-2.09c2.85-13.87,6.74-19.1,12.45-19.1,2.94,0,6.08.76,7.79,3.42l-7.03,33.25c-2.66,2.85-5.6,3.61-8.65,3.61-6.36,0-8.07-4.56-5.03-19.1M162.39,256.28c9.98,0,20.04-2.47,25.93-6.93l-.95,4.65h47.12l19.19-90.44h-47.12l-1.04,4.94c-5.32-4.27-13.78-7.22-26.22-7.22-22.8,0-39.24,9.98-46.17,43.51l-.48,2.19c-6.93,32.58,3.99,49.3,29.74,49.3M61.03,227.49v-.76c0-4.18,2.38-6.27,6.93-6.75l7.79-.47v4.27c0,6.18-3.51,8.55-9.22,8.55-3.42,0-5.51-1.43-5.51-4.85M49.91,256.28c10.92,0,19.57-2.47,25.56-8.26v5.99h45.6v-59.28c0-24.7-16.53-33.44-46.93-33.44-20.24,0-37.72,3.89-48.26,8.55l-2.66,28.31h7.6c6.65-4.09,18.52-7.69,30.87-7.69,10.26,0,13.97,2.47,13.97,6.84v1.52l-18.24,1.71c-26.41,2.85-39.9,12.63-39.9,29.54v1.43c0,16.82,13.02,24.79,32.4,24.79"/>
      <path class="cls-5" d="M347.04,206.66v-6.54c0-76.06,32.69-110.13,85.69-110.13,39.58,0,67.8,17.55,85.35,36.82v146.95c-19.96,26.15-49.21,41.64-85.69,41.64-53.69,0-85.35-33.38-85.35-108.75M416.21,374.26c44.05,0,81.22-16.17,101.87-38.89v30.63h78.12V38.37h-78.12v25.12c-21.34-16.86-55.75-33.38-102.21-33.38-87.76,0-146.95,59.19-146.95,170.01v6.54c0,106,60.23,167.6,147.3,167.6"/>
    </g>
    <line class="cls-4" x1="602" y1="387.13" x2="14" y2="387.13"/>
    <line class="cls-4" x1="602" y1="408.88" x2="14" y2="408.88"/>
    <g class="cls-7">
      <path class="cls-5" d="M595.95,402.25h1v-4.05c.48-.77,1-1.2,1.88-1.2s1.29.46,1.29,1.49v3.76h1v-3.74c0-1.54-.69-2.36-2.08-2.36-1.04,0-1.67.44-2.1,1.02v-3.42h-1v8.5ZM590.79,397.15h1.16v3.23c0,1.29.52,1.87,1.91,1.87h.72v-.07l-.09-.78h-.66c-.66,0-.89-.34-.89-1.02v-3.23h1.65v-.85h-1.65v-1.56h-1v1.56h-1.16v.85ZM584.94,399.36v-.11c0-1.49.69-2.18,1.81-2.18.84,0,1.43.38,1.79.77v2.8c-.42.54-1.04.88-1.81.88-1.11,0-1.79-.69-1.79-2.16M586.65,402.4c.82,0,1.51-.31,1.89-.75v.6h1v-8.5h-1v3.03c-.39-.31-1.03-.63-1.88-.63-1.6,0-2.72,1.13-2.72,3.09v.11c0,1.88,1.14,3.04,2.71,3.04M580.51,394.56c0,.45.37.82.82.82s.82-.38.82-.82-.38-.83-.82-.83-.82.38-.82.83M579.69,402.25h3.3v-.85h-1.15v-5.1h-2.06l-.11.75v.1h1.17v4.25h-1.15v.85ZM571.38,402.25h1.73l1.16-5.1h.2l1.16,5.1h1.73l1.32-5.95h-1.04l-1.05,5.1h-.29l-1.16-5.1h-1.55l-1.17,5.1h-.29l-1.03-5.1h-1.06l1.32,5.95ZM562.06,401.06l2.98-5.49c.37.57.57,1.39.57,2.37v.17c0,2.03-.91,3.32-2.36,3.32-.46,0-.86-.13-1.19-.36M560.89,398.11v-.17c0-2.06.9-3.36,2.36-3.36.45,0,.84.12,1.18.35l-2.98,5.49c-.36-.57-.56-1.36-.56-2.31M563.26,402.4c2.16,0,3.41-1.87,3.41-4.29v-.17c0-2.45-1.24-4.34-3.41-4.34s-3.41,1.89-3.41,4.34v.17c0,2.43,1.26,4.29,3.41,4.29M553.94,401.06l2.98-5.49c.37.57.58,1.39.58,2.37v.17c0,2.03-.91,3.32-2.36,3.32-.46,0-.86-.13-1.19-.36M552.77,398.11v-.17c0-2.06.9-3.36,2.36-3.36.45,0,.84.12,1.18.35l-2.98,5.49c-.36-.57-.56-1.36-.56-2.31M555.13,402.4c2.16,0,3.41-1.87,3.41-4.29v-.17c0-2.45-1.24-4.34-3.41-4.34s-3.41,1.89-3.41,4.34v.17c0,2.43,1.26,4.29,3.41,4.29M544.18,402.25h5.91v-.94h-2.42v-7.56h-2.92l-.43.77v.2h2.33v6.58h-2.46v.94ZM534.66,393.69h-1.05v6.44h4.71l-1.4,1.39.73.73,2.65-2.66-2.65-2.65-.73.72,1.43,1.42h-3.69v-5.39ZM521.64,397.15h1.16v3.23c0,1.29.52,1.87,1.91,1.87h.73v-.07l-.09-.78h-.66c-.66,0-.89-.34-.89-1.02v-3.23h1.65v-.85h-1.65v-1.56h-1v1.56h-1.16v.85ZM515.28,402.25h1v-4.05c.48-.77,1-1.2,1.88-1.2s1.29.46,1.29,1.49v3.76h1v-3.74c0-1.54-.69-2.36-2.08-2.36-1.04,0-1.67.44-2.09,1.02v-3.42h-1v8.5ZM508.82,399.36v-.11c0-1.49.69-2.18,1.81-2.18.84,0,1.43.38,1.79.77v2.8c-.42.54-1.04.88-1.81.88-1.11,0-1.79-.69-1.79-2.16M510.7,404.95c1.54,0,2.7-.79,2.7-2.33v-6.32h-1v.46c-.39-.31-1.01-.61-1.86-.61-1.62,0-2.75,1.13-2.75,3.09v.11c0,1.88,1.15,3.04,2.74,3.04.8,0,1.48-.3,1.87-.72v.94c0,.96-.69,1.41-1.7,1.41-1.11,0-1.96-.53-2.38-1.09h-.15l.16,1.22c.44.38,1.27.78,2.37.78M504.35,394.56c0,.45.38.82.82.82s.83-.38.83-.82-.38-.83-.83-.83-.82.38-.82.83M503.54,402.25h3.3v-.85h-1.15v-5.1h-2.06l-.11.75v.1h1.17v4.25h-1.15v.85ZM497.96,398.59c.2-.96.88-1.53,1.86-1.53,1.11,0,1.65.7,1.65,1.48v.05h-3.51ZM499.91,402.4c.94,0,1.77-.3,2.22-.76l.08-.99h-.11c-.43.51-1.18.84-2.07.84-1.33,0-2.08-.77-2.13-2.05h4.58v-.34c0-1.94-1.05-2.95-2.64-2.95-1.7,0-2.97,1.19-2.97,3.07v.09c0,1.96,1.22,3.09,3.05,3.09M488.55,402.25h1.73l1.16-5.1h.2l1.16,5.1h1.73l1.32-5.95h-1.04l-1.05,5.1h-.29l-1.16-5.1h-1.55l-1.17,5.1h-.29l-1.02-5.1h-1.06l1.32,5.95ZM480.73,401.06l2.98-5.49c.37.57.57,1.39.57,2.37v.17c0,2.03-.91,3.32-2.36,3.32-.46,0-.86-.13-1.19-.36M479.56,398.11v-.17c0-2.06.9-3.36,2.36-3.36.45,0,.84.12,1.18.35l-2.98,5.49c-.36-.57-.56-1.36-.56-2.31M481.93,402.4c2.16,0,3.41-1.87,3.41-4.29v-.17c0-2.45-1.24-4.34-3.41-4.34s-3.41,1.89-3.41,4.34v.17c0,2.43,1.26,4.29,3.41,4.29M472.61,401.06l2.98-5.49c.37.57.58,1.39.58,2.37v.17c0,2.03-.91,3.32-2.36,3.32-.46,0-.86-.13-1.19-.36M471.44,398.11v-.17c0-2.06.9-3.36,2.36-3.36.45,0,.84.12,1.18.35l-2.98,5.49c-.36-.57-.56-1.36-.56-2.31M473.8,402.4c2.16,0,3.41-1.87,3.41-4.29v-.17c0-2.45-1.24-4.34-3.41-4.34s-3.41,1.89-3.41,4.34v.17c0,2.43,1.26,4.29,3.41,4.29M464.26,396.62v-.19c0-1.09.81-1.86,2.06-1.86s2.04.78,2.04,1.86v.17c0,1.04-.81,1.79-2.06,1.79s-2.04-.74-2.04-1.78M466.33,393.6c-1.81,0-3.12,1.22-3.12,2.84v.19c0,1.64,1.18,2.75,2.88,2.75.77,0,1.31-.22,1.68-.51-.54,1.12-1.8,2.32-2.94,3.39h1.33c1.31-1.25,3.26-3.06,3.26-5.49v-.21c0-1.71-1.26-2.95-3.09-2.95M455.77,394.57l2.71,2.71h-6.55v1.04h6.57l-2.73,2.72.74.74,3.24-3.24.74-.74-.74-.74-3.23-3.24-.75.74ZM445.51,401.06l2.98-5.49c.37.57.58,1.39.58,2.37v.17c0,2.03-.91,3.32-2.36,3.32-.46,0-.86-.13-1.19-.36M444.35,398.11v-.17c0-2.06.9-3.36,2.36-3.36.45,0,.84.12,1.18.35l-2.98,5.49c-.36-.57-.56-1.36-.56-2.31M446.71,402.4c2.16,0,3.41-1.87,3.41-4.29v-.17c0-2.45-1.24-4.34-3.41-4.34s-3.41,1.89-3.41,4.34v.17c0,2.43,1.26,4.29,3.41,4.29M437.39,401.06l2.98-5.49c.37.57.58,1.39.58,2.37v.17c0,2.03-.91,3.32-2.36,3.32-.46,0-.86-.13-1.19-.36M436.22,398.11v-.17c0-2.06.9-3.36,2.36-3.36.45,0,.84.12,1.18.35l-2.98,5.49c-.36-.57-.56-1.36-.56-2.31M438.58,402.4c2.16,0,3.41-1.87,3.41-4.29v-.17c0-2.45-1.24-4.34-3.41-4.34s-3.41,1.89-3.41,4.34v.17c0,2.43,1.26,4.29,3.41,4.29M430.46,402.4c1.82,0,3.06-1.23,3.06-3.07v-.09c0-1.91-1.17-2.87-2.72-2.87-.89,0-1.49.3-1.86.64l.23-2.29h3.65l.22-.78v-.2h-4.74l-.42,4.4h1.02c.44-.59,1.08-.8,1.77-.8,1.11,0,1.8.6,1.8,1.92v.09c0,1.5-.9,2.06-2.04,2.06s-1.9-.61-2.37-1.33h-.27l.11,1.25c.51.61,1.47,1.05,2.56,1.05M418.11,393.69h-1.05v6.44h4.71l-1.4,1.39.73.73,2.65-2.66-2.65-2.65-.73.72,1.42,1.42h-3.69v-5.39Z"/>
      <path class="cls-5" d="M137.99,398.81v-.1l2.74-3.99h.14v4.09h-2.88ZM140.87,402.25h1.05v-2.46h1.19l.25-.82v-.15h-1.44v-5.06h-1.59l-3.51,4.96v1.07h4.05v2.46ZM131,401.06l2.98-5.49c.37.57.57,1.39.57,2.37v.17c0,2.03-.91,3.32-2.36,3.32-.46,0-.86-.12-1.19-.36M129.83,398.11v-.17c0-2.06.9-3.36,2.36-3.36.45,0,.84.12,1.18.35l-2.98,5.49c-.36-.57-.56-1.36-.56-2.31M132.19,402.4c2.16,0,3.41-1.87,3.41-4.29v-.17c0-2.45-1.24-4.34-3.41-4.34s-3.41,1.89-3.41,4.34v.17c0,2.43,1.26,4.29,3.41,4.29M119.73,402.25h1v-4.05c.47-.73,1-1.14,1.88-1.14s1.29.44,1.29,1.42v3.76h1v-3.74c0-1.55-.69-2.36-2.07-2.36-1.04,0-1.69.48-2.11,1.02v-.87h-1v5.95ZM114.04,400.73v-.05c0-.41.29-.81,1.12-.94l1.77-.26v.32c0,1.09-.83,1.75-1.85,1.75-.66,0-1.05-.29-1.05-.82M114.94,402.4c.89,0,1.56-.34,1.98-.92v.77h1v-3.92c0-1.62-.99-2.18-2.23-2.18-1,0-1.74.35-2.13.71l-.12,1.04h.16c.56-.59,1.2-.9,1.94-.9s1.41.33,1.41,1.33v.32l-1.9.27c-1.38.19-1.99.88-1.99,1.81v.04c0,1.01.7,1.64,1.89,1.64M110.57,402.25h1v-8.5h-1v8.5ZM104.37,400.68v-2.8c.36-.41.94-.82,1.81-.82,1.1,0,1.81.66,1.81,2.16v.11c0,1.47-.68,2.18-1.8,2.18-.78,0-1.39-.33-1.81-.83M106.26,402.4c1.59,0,2.75-1.19,2.75-3.06v-.11c0-1.96-1.14-3.08-2.74-3.08-.89,0-1.51.34-1.91.68v-.53h-1v8.5h1v-3.1c.39.41,1.07.7,1.89.7M97.43,402.25h1v-2.84h.33l2.18,2.84h1.27l-2.64-3.3,2.39-2.65h-1.17l-1.95,2.19h-.41v-4.74h-1v8.5ZM93.22,402.25h1v-3.54c0-1.01.54-1.53,1.39-1.53h.76v-.1l-.25-.78h-.44c-.63,0-1.18.25-1.46.78v-.78h-1v5.95ZM86.76,399.38v-.2c0-1.51.91-2.11,1.93-2.11s1.93.61,1.93,2.11v.2c0,1.51-.91,2.11-1.93,2.11s-1.93-.61-1.93-2.11M88.69,402.4c1.41,0,2.96-.96,2.96-3.02v-.2c0-2.06-1.56-3.02-2.96-3.02s-2.96.96-2.96,3.02v.2c0,2.06,1.56,3.02,2.96,3.02M75.67,402.25h1.76l1.77-7.65h.3l1.76,7.65h1.78l2.07-8.5h-1.05l-1.76,7.67h-.3l-1.71-7.67h-1.85l-1.71,7.67h-.3l-1.76-7.67h-1.05l2.07,8.5ZM65.71,398.59c.2-.96.88-1.53,1.86-1.53,1.11,0,1.65.7,1.65,1.48v.05h-3.51ZM67.67,402.4c.94,0,1.78-.3,2.22-.76l.07-.99h-.11c-.43.51-1.18.84-2.07.84-1.33,0-2.08-.77-2.13-2.05h4.57v-.34c0-1.94-1.05-2.95-2.64-2.95-1.69,0-2.97,1.19-2.97,3.08v.09c0,1.96,1.23,3.09,3.05,3.09M62.06,402.25h1v-8.5h-1v8.5ZM55.67,402.25h4.95v-.85h-3.75v-.06l3.62-4.08v-.96h-4.81v.85h3.59v.06l-3.6,4.06v.97ZM49.66,402.25h4.95v-.85h-3.75v-.06l3.62-4.08v-.96h-4.81v.85h3.59v.06l-3.6,4.06v.97ZM43.74,399.38v-.2c0-1.51.91-2.11,1.93-2.11s1.93.61,1.93,2.11v.2c0,1.51-.91,2.11-1.93,2.11s-1.93-.61-1.93-2.11M45.67,402.4c1.41,0,2.96-.96,2.96-3.02v-.2c0-2.06-1.56-3.02-2.96-3.02s-2.96.96-2.96,3.02v.2c0,2.06,1.56,3.02,2.96,3.02M34.39,402.25h1.05v-6.97h.02l4.38,6.97h1.25v-8.5h-1.05v6.98h-.03l-4.38-6.98h-1.25v8.5ZM25.4,402.25h1.05v-3.75h4.05v-.97h-4.05v-2.8h4.38v-.97h-5.43v8.5ZM18.4,401.34h1.6l2.26-6.61h.1l-.04,2.38v5.15h1.07v-8.5h-1.88l-2.3,6.98h-.05l-2.3-6.98h-1.87v8.5h1.07v-5.15l-.04-2.38h.1l2.26,6.61Z"/>
    </g>
    <line class="cls-4" x1="602" y1="14" x2="14" y2="14"/>
  </g>
</svg>