<?xml version="1.0" encoding="UTF-8"?>
<svg id="Calque_1" data-name="Calque 1" xmlns="http://www.w3.org/2000/svg" xmlns:xlink="http://www.w3.org/1999/xlink" viewBox="0 0 616 423">
  <defs>
    <style>
      .cls-1 {
        clip-path: url(#clippath);
      }

      .cls-2 {
        fill: none;
      }

      .cls-2, .cls-3 {
        stroke-width: 0px;
      }

      .cls-4 {
        clip-path: url(#clippath-1);
      }
    </style>
    <clipPath id="clippath">
      <rect class="cls-2" width="616" height="423"/>
    </clipPath>
    <clipPath id="clippath-1">
      <rect class="cls-2" width="616" height="423"/>
    </clipPath>
  </defs>
  <g class="cls-1">
    <polygon class="cls-3" points="308 366 14 409 602 409 308 366"/>
    <g class="cls-4">
      <path class="cls-3" d="M437.68,243.09h27.84v-35.92l22.72-72.88h-31.52l-4.48,46.64h-1.28l-4.48-46.64h-31.52l22.72,72.88v35.92ZM356.96,154.85h13.84v88.24h27.84v-88.24h13.76v-20.56h-55.44v20.56ZM318.64,185.49v-30.72h2.24c4.24,0,6.08,4.32,6.08,14.88v1.84c0,10.08-1.84,14-6.08,14h-2.24ZM290.8,243.09h27.84v-37.04h10.48c15.2,0,25.68-7.36,25.68-34.96v-2.88c0-26.32-10.48-33.92-25.68-33.92h-38.32v108.8ZM220.72,231.41h26.32l9.28-82.08h1.2l-2.56,43.6v50.16h26.8v-108.8h-43.12l-4.08,61.44h-1.28l-4.16-61.44h-43.04v108.8h26.8v-50.16l-2.64-43.6h1.28l9.2,82.08ZM131.04,243.09h47.2v-20.56h-19.36v-24.72h16.96v-20.56h-16.96v-22.4h19.28v-20.56h-47.12v108.8Z"/>
      <path class="cls-3" d="M533.52,359.16c19.44,0,28-13.68,28-31.6v-.96c0-35.12-23.84-32-23.84-50.32v-.64c0-4.4,1.6-9.44,7.04-9.44,4.16,0,7.28,2.32,8.96,8.08h4.08l-2.08-21.84c-2.96-3.12-10.48-5.12-17.92-5.12-18.96,0-29.44,11.28-29.44,28.48v.96c0,30.72,25.6,30.4,25.6,49.04v.72c0,6.56-2.48,10.8-8.08,10.8s-10.56-3.28-14.48-13.52h-4.08l1.28,24.16c6.24,7.12,14.96,11.2,24.96,11.2M453.68,357.64h47.2v-20.56h-19.36v-24.72h16.96v-20.56h-16.96v-22.4h19.28v-20.56h-47.12v108.8ZM401.68,357.64h46.4v-20.56h-18.64v-88.24h-27.76v108.8ZM350.32,357.64h44v-20.56h-8.08v-67.68h8.08v-20.56h-44v20.56h8.08v67.68h-8.08v20.56ZM282,345.96h26.32l9.28-82.08h1.2l-2.56,43.6v50.16h26.8v-108.8h-43.12l-4.08,61.44h-1.28l-4.16-61.44h-43.04v108.8h26.8v-50.16l-2.64-43.6h1.28l9.2,82.08ZM188.8,327.24l8.16-38c.08,3.84.08,8.16.08,12.96v2.16c0,21.52-.32,34.24-4.32,34.24-2.32,0-3.44-4.16-3.92-11.36M188.32,304.36v-2.16c0-20.88.24-34.32,4.4-34.32,2.24,0,3.28,3.92,3.84,11.04l-8.16,37.92c-.08-3.76-.08-8-.08-12.48M192.72,359.16c25.76,0,32.16-24.88,32.16-54.8v-2.16c0-29.84-6.24-54.88-32.16-54.88s-32.24,24.96-32.24,54.88v2.08c0,30.08,6.4,54.88,32.24,54.88M124.08,359.16c21.44,0,29.12-14.88,29.12-38.88v-1.84c0-19.76-4.64-33.12-18.08-33.12-4.64,0-7.84,1.36-9.84,4.08l1.36-21.04h20.8l2.64-17.52v-2h-46l-3.68,60.56,9.2.64c1.76-4,3.84-6.08,7.44-6.08,6.24,0,8.48,5.84,8.48,15.92v1.28c0,10.72-2.48,17.04-10.08,17.04-5.2,0-9.36-2.72-11.92-8.96h-4.16l.8,20.88c5.2,6.08,14.48,9.04,23.92,9.04M53.2,267.48v2.16h10.64v88h27.12v-108.8h-31.84l-5.92,18.64Z"/>
      <path class="cls-3" d="M568,109.83v-38.4c.96-3.2,1.99-4.56,3.19-4.56,2.87,0,3.51,5.68,3.51,22.56v1.84c0,16.96-.72,22.8-4.23,22.8-1.12,0-1.76-1.12-2.47-4.24M581.25,130.07c13.49,0,20.75-10.56,20.75-38.8v-1.84c0-28.96-6.94-38.56-19.95-38.56-5.75,0-10.78,1.92-14.05,7.04v-5.52h-27.3v108.8h27.3v-37.6c2.87,4.72,8.06,6.48,13.25,6.48M437.9,128.55h27.3v-52.64c1.04-4.16,2.32-5.68,4.15-5.68s2.24,1.2,2.24,4.88v53.44h27.3v-52.88c1.2-4,2.48-5.44,4.23-5.44s2.24,1.28,2.24,5.04v53.28h27.3v-53.6c0-17.76-7.26-24.08-18.2-24.08-8.38,0-14.13,3.52-17.96,10.24-3.03-6.88-8.78-10.24-16.28-10.24-6.31,0-11.33,2.24-15.01,6.64v-5.12h-27.3v76.16ZM396.63,91.83v-2.72c0-15.92.32-21.2,3.43-21.2s3.35,5.28,3.35,21.2v2.72c0,15.92-.32,21.2-3.35,21.2s-3.43-5.28-3.43-21.2M400.07,130.07c17.72,0,30.65-8.08,30.65-38.24v-2.72c0-30.16-12.93-38.24-30.65-38.24s-30.73,8.08-30.73,38.24v2.72c0,30.16,12.93,38.24,30.73,38.24M334.78,128.55h27.3V19.75h-27.3v108.8ZM292.71,70.95v-30.72h2.23c4.23,0,6.07,4.32,6.07,14.88v1.84c0,10.08-1.84,14-6.07,14h-2.23ZM264.94,128.55h27.78v-37.04h10.46c15.17,0,25.62-7.36,25.62-34.96v-2.88c0-26.32-10.46-33.92-25.62-33.92h-38.23v108.8ZM230.61,130.07c17.96,0,27.06-7.36,27.06-22.8v-1.2c0-26-24.03-21.36-24.03-32v-.64c0-3.28,1.44-6.16,6.62-6.16s8.54,2,10.54,5.28h3.43l-1.52-17.44c-3.43-2.56-10.3-4.24-18.84-4.24-18.84,0-26.18,8.56-26.18,20.16v1.52c0,24.4,23.55,22.24,23.55,32.8v.64c0,4.16-1.68,6.8-6.15,6.8-5.67,0-10.3-2.08-14.61-7.84h-3.11l.88,18.64c4.23,3.68,11.73,6.48,22.35,6.48M139.31,128.55h27.3v-52.64c1.04-4.16,2.32-5.68,4.15-5.68s2.24,1.44,2.24,5.6v52.72h27.3v-53.6c0-16.32-5.51-24.08-18.2-24.08-6.79,0-11.81,2.16-15.48,6.56v-5.04h-27.3v76.16ZM98.28,107.59v-.8c0-8.08,2.23-10.64,6.47-11.36l.4-.08v12.56c0,5.68-.96,7.84-3.35,7.84s-3.51-2.4-3.51-8.16M91.34,130.07c5.99,0,10.7-1.92,13.65-6.08v4.56h26.26v-54.32c0-17.28-9.26-23.36-26.34-23.36-11.57,0-21.39,3.04-27.14,6.88l-1.52,17.04h4.55c3.43-3.92,9.66-6.64,16.68-6.64,5.83,0,7.66,1.92,7.66,7.36v7.36l-7.18.96c-16.36,2.48-24.5,9.92-24.5,24.88v1.28c0,13.76,7.1,20.08,17.88,20.08M40.33,130.07c19.4,0,27.94-13.68,27.94-31.6v-.96c0-35.12-23.78-32-23.78-50.32v-.64c0-4.4,1.6-9.44,7.02-9.44,4.15,0,7.26,2.32,8.94,8.08h4.07l-2.07-21.84c-2.95-3.12-10.46-5.12-17.88-5.12-18.92,0-29.37,11.28-29.37,28.48v.96c0,30.72,25.54,30.4,25.54,49.04v.72c0,6.56-2.47,10.8-8.06,10.8s-10.54-3.28-14.45-13.52h-4.07l1.28,24.16c6.23,7.12,14.93,11.2,24.9,11.2"/>
      <path class="cls-3" d="M147.1,38.17c2,0,3.45-.97,3.45-2.77v-.08c0-1.62-1.18-2.48-2.81-2.6.97-.32,2.37-1.25,2.37-3.18v-1.05h-5.33l-.28,1.01v.08h4.44c0,1.53-1.09,2.23-2.11,2.58v1.37c1.85,0,2.55.83,2.55,1.79v.08c0,1.16-.86,1.71-2.21,1.71-1.44,0-2.37-.64-2.73-1.43h-.38l.16,1.32c.56.75,1.56,1.17,2.88,1.17M137.65,36.67l3.34-6.15c.41.64.64,1.55.64,2.65v.19c0,2.28-1.02,3.72-2.65,3.72-.51,0-.96-.14-1.34-.41M136.34,33.36v-.19c0-2.31,1.01-3.77,2.65-3.77.5,0,.94.14,1.32.39l-3.34,6.15c-.41-.64-.63-1.52-.63-2.59M138.98,38.17c2.42,0,3.82-2.09,3.82-4.81v-.19c0-2.74-1.39-4.86-3.82-4.86s-3.82,2.11-3.82,4.86v.19c0,2.72,1.41,4.81,3.82,4.81M125.03,38h1.12v-4.54c.53-.82,1.12-1.27,2.11-1.27s1.45.5,1.45,1.6v4.21h1.12v-4.19c0-1.74-.78-2.64-2.32-2.64-1.17,0-1.9.53-2.36,1.14v-.97h-1.12v6.66ZM118.66,36.29v-.06c0-.45.33-.91,1.26-1.05l1.98-.3v.36c0,1.23-.93,1.96-2.07,1.96-.74,0-1.18-.32-1.18-.92M119.66,38.17c1,0,1.75-.39,2.22-1.04v.87h1.12v-4.4c0-1.82-1.11-2.43-2.5-2.43-1.12,0-1.95.39-2.39.8l-.14,1.16h.18c.62-.66,1.34-1.01,2.17-1.01s1.58.36,1.58,1.48v.36l-2.13.3c-1.54.22-2.23.99-2.23,2.02v.04c0,1.13.78,1.84,2.12,1.84M114.77,38h1.12v-9.52h-1.12v9.52ZM107.82,36.24v-3.14c.41-.46,1.06-.92,2.02-.92,1.23,0,2.02.74,2.02,2.42v.13c0,1.65-.76,2.44-2.02,2.44-.87,0-1.56-.36-2.03-.93M109.94,38.17c1.79,0,3.08-1.33,3.08-3.43v-.13c0-2.2-1.28-3.44-3.07-3.44-.99,0-1.69.38-2.14.76v-.59h-1.12v9.52h1.12v-3.48c.43.45,1.2.79,2.12.79M100.05,38h1.12v-3.18h.37l2.44,3.18h1.42l-2.95-3.7,2.67-2.97h-1.31l-2.18,2.46h-.46v-5.31h-1.12v9.52ZM95.33,38h1.12v-3.96c0-1.13.6-1.71,1.55-1.71h.85v-.11l-.28-.87h-.49c-.71,0-1.32.28-1.64.87v-.87h-1.12v6.66ZM88.1,34.78v-.22c0-1.69,1.02-2.37,2.16-2.37s2.16.68,2.16,2.37v.22c0,1.69-1.01,2.37-2.16,2.37s-2.16-.68-2.16-2.37M90.27,38.17c1.58,0,3.32-1.08,3.32-3.39v-.22c0-2.31-1.74-3.39-3.32-3.39s-3.32,1.08-3.32,3.39v.22c0,2.31,1.74,3.39,3.32,3.39M75.68,38h1.97l1.98-8.57h.34l1.97,8.57h1.99l2.32-9.52h-1.18l-1.97,8.6h-.34l-1.92-8.6h-2.07l-1.92,8.6h-.34l-1.97-8.6h-1.18l2.32,9.52Z"/>
      <path class="cls-3" d="M130.72,21.9c.22-1.08.98-1.71,2.09-1.71,1.25,0,1.85.78,1.85,1.65v.06h-3.94ZM132.91,26.17c1.06,0,1.99-.34,2.49-.85l.08-1.11h-.13c-.48.57-1.32.94-2.32.94-1.49,0-2.33-.86-2.39-2.3h5.12v-.38c0-2.17-1.18-3.3-2.95-3.3-1.9,0-3.32,1.34-3.32,3.44v.1c0,2.2,1.37,3.46,3.42,3.46M126.62,26h1.12v-9.52h-1.12v9.52ZM119.47,26h5.54v-.95h-4.2v-.07l4.06-4.57v-1.08h-5.39v.95h4.02v.07l-4.03,4.55v1.09ZM112.73,26h5.54v-.95h-4.2v-.07l4.06-4.57v-1.08h-5.39v.95h4.02v.07l-4.03,4.55v1.09ZM106.11,22.78v-.22c0-1.69,1.01-2.37,2.16-2.37s2.16.68,2.16,2.37v.22c0,1.69-1.01,2.37-2.16,2.37s-2.16-.68-2.16-2.37M108.28,26.17c1.58,0,3.32-1.08,3.32-3.39v-.22c0-2.31-1.74-3.39-3.32-3.39s-3.32,1.08-3.32,3.39v.22c0,2.31,1.74,3.39,3.32,3.39M95.63,26h1.18v-7.81h.03l4.9,7.81h1.4v-9.52h-1.18v7.81h-.03l-4.9-7.81h-1.4v9.52ZM85.57,26h1.17v-4.2h4.54v-1.09h-4.54v-3.14h4.9v-1.09h-6.07v9.52ZM77.73,24.98h1.79l2.54-7.41h.11l-.04,2.66v5.77h1.2v-9.52h-2.1l-2.58,7.81h-.06l-2.58-7.81h-2.1v9.52h1.2v-5.77l-.04-2.66h.11l2.53,7.41Z"/>
      <path class="cls-3" d="M406.25,38h6.62v-1.06h-2.72v-8.46h-3.27l-.48.87v.22h2.6v7.37h-2.76v1.06ZM398.98,36.67l3.34-6.15c.41.64.64,1.55.64,2.65v.19c0,2.28-1.02,3.72-2.65,3.72-.51,0-.96-.14-1.34-.41M397.67,33.36v-.19c0-2.31,1.01-3.77,2.65-3.77.5,0,.95.14,1.32.39l-3.34,6.15c-.41-.64-.63-1.52-.63-2.59M400.32,38.17c2.42,0,3.82-2.09,3.82-4.81v-.19c0-2.74-1.39-4.86-3.82-4.86s-3.82,2.11-3.82,4.86v.19c0,2.72,1.41,4.81,3.82,4.81M392.56,38.17c1.63,0,2.64-.76,2.64-1.94v-.1c0-2.62-3.95-1.43-3.95-3.02v-.07c0-.43.29-.93,1.4-.93.76,0,1.46.25,1.93.87h.17l-.06-1.22c-.47-.35-1.13-.59-2-.59-1.74,0-2.55.89-2.55,1.92v.07c0,2.62,3.95,1.46,3.95,3.03v.08c0,.63-.57.94-1.49.94s-1.68-.32-2.39-1.08h-.17l.09,1.2c.41.49,1.34.83,2.43.83M385.47,38.17c1.8,0,3.24-.92,3.24-2.65v-.08c0-3.64-5.24-1.84-5.24-4.43v-.06c0-1.18,1.06-1.54,2.07-1.54,1.23,0,2.07.55,2.63,1.5h.15l-.06-1.54c-.74-.77-1.71-1.05-2.72-1.05-1.93,0-3.26,1-3.26,2.71v.06c0,3.61,5.24,1.86,5.24,4.4v.08c0,1.08-.99,1.51-2.08,1.51-1.27,0-2.33-.58-3.07-1.79h-.17l.04,1.46c.49.71,1.63,1.42,3.22,1.42"/>
      <path class="cls-3" d="M440.38,21.9c.22-1.08.98-1.71,2.09-1.71,1.25,0,1.85.78,1.85,1.65v.06h-3.93ZM442.57,26.17c1.06,0,1.99-.34,2.48-.85l.08-1.11h-.13c-.48.57-1.32.94-2.32.94-1.49,0-2.33-.86-2.39-2.3h5.12v-.38c0-2.17-1.18-3.3-2.95-3.3-1.9,0-3.32,1.34-3.32,3.44v.1c0,2.2,1.37,3.46,3.42,3.46M432.56,24.24v-3.14c.41-.46,1.06-.92,2.02-.92,1.23,0,2.02.74,2.02,2.42v.13c0,1.65-.76,2.44-2.02,2.44-.87,0-1.56-.36-2.03-.93M434.68,26.17c1.79,0,3.08-1.33,3.08-3.43v-.13c0-2.2-1.28-3.44-3.07-3.44-.99,0-1.69.38-2.14.76v-.59h-1.12v9.52h1.12v-3.48c.43.45,1.2.79,2.12.79M425.34,28.86h1.13l3.64-9.52h-1.14l-1.95,5.17h-.25l-1.88-5.17h-1.21l2.37,6.13h.64l-1.34,3.39ZM418.67,20.29h1.3v3.62c0,1.45.58,2.09,2.14,2.09h.81v-.08l-.1-.87h-.74c-.74,0-.99-.38-.99-1.14v-3.62h1.85v-.95h-1.85v-1.75h-1.12v1.75h-1.3v.95ZM409.02,26h1.12v-4.54c.53-.82,1.12-1.27,2.11-1.27s1.45.5,1.45,1.6v4.21h1.12v-4.19c0-1.74-.78-2.64-2.32-2.64-1.17,0-1.9.53-2.36,1.14v-.97h-1.12v6.66ZM402.22,21.9c.22-1.08.98-1.71,2.09-1.71,1.25,0,1.85.78,1.85,1.65v.06h-3.93ZM404.41,26.17c1.06,0,1.99-.34,2.48-.85l.08-1.11h-.13c-.48.57-1.32.94-2.32.94-1.49,0-2.33-.86-2.39-2.3h5.12v-.38c0-2.17-1.18-3.3-2.95-3.3-1.9,0-3.33,1.34-3.33,3.44v.1c0,2.2,1.37,3.46,3.42,3.46M394.39,24.24v-3.14c.41-.46,1.06-.92,2.02-.92,1.23,0,2.02.74,2.02,2.42v.13c0,1.65-.76,2.44-2.02,2.44-.87,0-1.56-.36-2.03-.93M396.52,26.17c1.78,0,3.08-1.33,3.08-3.43v-.13c0-2.2-1.28-3.44-3.07-3.44-.99,0-1.69.38-2.14.76v-.59h-1.12v9.52h1.12v-3.48c.43.45,1.2.79,2.12.79M383.45,21.38v-.28c0-2.45,1.6-3.7,3.42-3.7s3.42,1.25,3.42,3.7v.28c0,2.45-1.6,3.7-3.42,3.7s-3.42-1.25-3.42-3.7M386.86,26.17c2.7,0,4.62-1.97,4.62-4.79v-.28c0-2.81-1.92-4.79-4.62-4.79s-4.62,1.97-4.62,4.79v.28c0,2.82,1.92,4.79,4.62,4.79"/>
      <path class="cls-3" d="M246.97,38.17c1.63,0,2.65-.76,2.65-1.94v-.1c0-2.62-3.95-1.43-3.95-3.02v-.07c0-.43.29-.93,1.4-.93.76,0,1.46.25,1.93.87h.17l-.06-1.22c-.47-.35-1.13-.59-2-.59-1.74,0-2.55.9-2.55,1.92v.07c0,2.62,3.95,1.46,3.95,3.03v.08c0,.63-.57.94-1.49.94s-1.68-.32-2.39-1.08h-.17l.09,1.2c.41.49,1.34.83,2.43.83M238.06,33.9c.22-1.08.98-1.71,2.09-1.71,1.25,0,1.85.78,1.85,1.65v.06h-3.93ZM240.25,38.17c1.06,0,1.99-.34,2.49-.85l.08-1.11h-.13c-.48.57-1.32.94-2.32.94-1.49,0-2.33-.86-2.39-2.3h5.12v-.38c0-2.17-1.18-3.3-2.95-3.3-1.9,0-3.32,1.34-3.32,3.44v.1c0,2.2,1.37,3.46,3.42,3.46M233.97,38h1.12v-9.52h-1.12v9.52ZM227.87,40.86h1.13l3.64-9.52h-1.14l-1.95,5.17h-.25l-1.88-5.17h-1.21l2.37,6.13h.64l-1.34,3.39ZM221.2,32.29h1.3v3.62c0,1.45.58,2.09,2.14,2.09h.81v-.08l-.1-.87h-.74c-.74,0-.99-.38-.99-1.14v-3.62h1.85v-.95h-1.85v-1.75h-1.12v1.75h-1.3v.95ZM217.64,38.17c1.63,0,2.65-.76,2.65-1.94v-.1c0-2.62-3.95-1.43-3.95-3.02v-.07c0-.43.29-.93,1.4-.93.76,0,1.46.25,1.93.87h.17l-.06-1.22c-.47-.35-1.13-.59-2-.59-1.74,0-2.56.9-2.56,1.92v.07c0,2.62,3.95,1.46,3.95,3.03v.08c0,.63-.57.94-1.49.94s-1.68-.32-2.39-1.08h-.17l.09,1.2c.41.49,1.34.83,2.43.83M202.71,36.67l3.34-6.15c.41.64.64,1.55.64,2.65v.19c0,2.27-1.01,3.72-2.65,3.72-.51,0-.96-.14-1.34-.41M201.4,33.36v-.19c0-2.31,1.01-3.77,2.65-3.77.5,0,.95.14,1.32.39l-3.34,6.15c-.41-.64-.63-1.52-.63-2.59M204.05,38.17c2.42,0,3.82-2.09,3.82-4.81v-.19c0-2.74-1.38-4.86-3.82-4.86s-3.82,2.11-3.82,4.86v.19c0,2.72,1.41,4.81,3.82,4.81M193.37,31.7v-.21c0-1.22.9-2.09,2.31-2.09s2.28.87,2.28,2.09v.2c0,1.17-.9,2-2.31,2s-2.28-.83-2.28-1.99M195.68,28.31c-2.02,0-3.49,1.36-3.49,3.18v.21c0,1.84,1.32,3.08,3.23,3.08.86,0,1.47-.24,1.88-.57-.61,1.26-2.02,2.6-3.29,3.79h1.49c1.47-1.4,3.65-3.42,3.65-6.15v-.24c0-1.92-1.41-3.3-3.46-3.3"/>
      <path class="cls-3" d="M237.41,26.17c1.63,0,2.65-.76,2.65-1.94v-.1c0-2.62-3.95-1.43-3.95-3.02v-.07c0-.43.29-.93,1.4-.93.76,0,1.46.25,1.93.87h.17l-.06-1.22c-.47-.35-1.13-.59-2-.59-1.74,0-2.55.89-2.55,1.92v.07c0,2.62,3.95,1.46,3.95,3.03v.08c0,.63-.57.94-1.49.94s-1.68-.32-2.39-1.08h-.17l.09,1.2c.41.49,1.34.83,2.43.83M229.54,20.29h1.3v3.62c0,1.45.58,2.09,2.14,2.09h.81v-.08l-.1-.87h-.74c-.74,0-.99-.38-.99-1.14v-3.62h1.85v-.95h-1.85v-1.75h-1.12v1.75h-1.3v.95ZM228.14,19.34h-1.12v4.54c-.53.82-1.12,1.27-2.11,1.27s-1.45-.5-1.45-1.6v-4.21h-1.12v4.19c0,1.74.78,2.64,2.32,2.64,1.17,0,1.9-.53,2.36-1.14v.97h1.12v-6.66ZM218.49,26.17c.99,0,1.76-.34,2.25-.73l.08-1.27h-.17c-.53.64-1.32.98-2.1.98-1.21,0-2.21-.8-2.21-2.37v-.21c0-1.57.99-2.37,2.21-2.37.78,0,1.57.34,2.1.98h.17l-.08-1.27c-.48-.41-1.26-.73-2.23-.73-1.94,0-3.31,1.24-3.31,3.39v.21c0,2.15,1.39,3.39,3.3,3.39M202.47,19.7v-.21c0-1.22.9-2.09,2.31-2.09s2.28.87,2.28,2.09v.2c0,1.17-.9,2-2.31,2s-2.28-.83-2.28-1.99M204.78,16.31c-2.02,0-3.49,1.36-3.49,3.18v.21c0,1.84,1.32,3.08,3.23,3.08.86,0,1.47-.24,1.88-.57-.61,1.26-2.02,2.6-3.29,3.79h1.49c1.47-1.4,3.65-3.42,3.65-6.15v-.24c0-1.92-1.41-3.3-3.46-3.3M193.61,24.67l3.34-6.15c.41.64.64,1.55.64,2.65v.19c0,2.28-1.01,3.72-2.65,3.72-.51,0-.96-.14-1.34-.41M192.3,21.36v-.19c0-2.31,1.01-3.77,2.65-3.77.5,0,.95.14,1.32.39l-3.34,6.15c-.41-.64-.63-1.52-.63-2.59M194.95,26.17c2.42,0,3.82-2.09,3.82-4.81v-.19c0-2.74-1.39-4.86-3.82-4.86s-3.82,2.11-3.82,4.86v.19c0,2.72,1.41,4.81,3.82,4.81"/>
      <path class="cls-3" d="M576.9,38h1.12v-4.54c.53-.86,1.12-1.34,2.11-1.34s1.45.52,1.45,1.67v4.21h1.12v-4.19c0-1.73-.77-2.65-2.33-2.65-1.17,0-1.87.5-2.35,1.14v-3.83h-1.12v9.52ZM570.99,32.29h1.3v3.62c0,1.45.58,2.09,2.14,2.09h.81v-.08l-.1-.87h-.74c-.74,0-.99-.38-.99-1.14v-3.62h1.85v-.95h-1.85v-1.75h-1.12v1.75h-1.3v.95ZM564.3,34.76v-.13c0-1.67.78-2.44,2.02-2.44.95,0,1.6.43,2.01.86v3.14c-.47.61-1.16.99-2.03.99-1.25,0-2-.77-2-2.42M566.21,38.17c.92,0,1.69-.35,2.12-.84v.67h1.12v-9.52h-1.12v3.39c-.44-.35-1.15-.71-2.11-.71-1.79,0-3.05,1.27-3.05,3.46v.13c0,2.1,1.27,3.41,3.03,3.41M559.19,29.39c0,.5.42.92.92.92s.92-.42.92-.92-.42-.92-.92-.92-.92.42-.92.92M558.28,38h3.7v-.95h-1.29v-5.71h-2.31l-.13.84v.11h1.32v4.76h-1.29v.95ZM548.82,38h1.94l1.3-5.71h.22l1.3,5.71h1.94l1.48-6.66h-1.16l-1.18,5.71h-.32l-1.29-5.71h-1.74l-1.31,5.71h-.32l-1.15-5.71h-1.19l1.48,6.66ZM539.45,38.17c2.04,0,3.43-1.38,3.43-3.44v-.1c0-2.14-1.32-3.21-3.05-3.21-1,0-1.67.34-2.08.71l.25-2.56h4.09l.25-.87v-.22h-5.3l-.48,4.93h1.15c.5-.66,1.21-.9,1.98-.9,1.25,0,2.02.67,2.02,2.16v.1c0,1.68-1.01,2.31-2.29,2.31s-2.13-.68-2.65-1.48h-.31l.13,1.4c.57.69,1.65,1.17,2.87,1.17M529.07,38h1.27l3.61-8.43v-1.09h-5.99l-.28.89v.2h4.95l-3.57,8.43ZM516.1,28.41h-1.17v7.21h5.28l-1.57,1.56.81.82,2.97-2.97-2.97-2.97-.81.8,1.6,1.59h-4.13v-6.04Z"/>
      <path class="cls-3" d="M595.83,20.29h1.3v3.62c0,1.45.58,2.09,2.14,2.09h.81v-.08l-.1-.87h-.74c-.74,0-.99-.38-.99-1.14v-3.62h1.85v-.95h-1.85v-1.75h-1.12v1.75h-1.3v.95ZM588.56,26h1.12v-4.54c.53-.86,1.12-1.34,2.11-1.34s1.45.52,1.45,1.67v4.21h1.12v-4.19c0-1.73-.77-2.65-2.33-2.65-1.17,0-1.87.5-2.35,1.14v-3.83h-1.12v9.52ZM581.19,22.76v-.13c0-1.67.78-2.44,2.02-2.44.94,0,1.6.43,2.01.86v3.14c-.47.61-1.16.99-2.03.99-1.25,0-2-.77-2-2.42M583.3,29.02c1.72,0,3.02-.88,3.02-2.6v-7.08h-1.13v.52c-.44-.34-1.13-.68-2.08-.68-1.81,0-3.08,1.27-3.08,3.46v.13c0,2.1,1.29,3.41,3.07,3.41.9,0,1.65-.34,2.09-.8v1.06c0,1.08-.77,1.58-1.9,1.58-1.24,0-2.2-.6-2.67-1.22h-.17l.18,1.37c.49.42,1.43.87,2.65.87M576.04,17.39c0,.5.42.92.92.92s.92-.42.92-.92-.42-.92-.92-.92-.92.42-.92.92M575.13,26h3.69v-.95h-1.29v-5.71h-2.31l-.13.84v.11h1.32v4.76h-1.29v.95ZM568.74,21.9c.22-1.08.98-1.71,2.09-1.71,1.25,0,1.85.79,1.85,1.65v.06h-3.93ZM570.93,26.17c1.06,0,1.99-.34,2.48-.85l.08-1.11h-.13c-.48.57-1.32.94-2.32.94-1.49,0-2.33-.86-2.39-2.3h5.12v-.38c0-2.17-1.17-3.3-2.95-3.3-1.9,0-3.33,1.34-3.33,3.44v.1c0,2.2,1.37,3.46,3.42,3.46M558.06,26h1.94l1.3-5.71h.22l1.3,5.71h1.94l1.48-6.66h-1.16l-1.17,5.71h-.32l-1.29-5.71h-1.74l-1.31,5.71h-.32l-1.15-5.71h-1.19l1.48,6.66ZM547.35,24.67l3.34-6.15c.41.64.64,1.55.64,2.65v.19c0,2.27-1.01,3.72-2.65,3.72-.51,0-.96-.14-1.34-.41M546.04,21.36v-.19c0-2.31,1.01-3.77,2.65-3.77.5,0,.95.14,1.32.39l-3.34,6.15c-.41-.64-.63-1.52-.63-2.59M548.69,26.17c2.42,0,3.82-2.09,3.82-4.81v-.19c0-2.74-1.39-4.86-3.82-4.86s-3.82,2.11-3.82,4.86v.19c0,2.72,1.41,4.81,3.82,4.81M538.11,24.67l3.34-6.15c.41.64.65,1.55.65,2.65v.19c0,2.27-1.02,3.72-2.65,3.72-.51,0-.96-.14-1.34-.41M536.8,21.36v-.19c0-2.31,1.01-3.77,2.65-3.77.5,0,.95.14,1.32.39l-3.34,6.15c-.41-.64-.63-1.52-.63-2.59M539.45,26.17c2.42,0,3.82-2.09,3.82-4.81v-.19c0-2.74-1.39-4.86-3.82-4.86s-3.82,2.11-3.82,4.86v.19c0,2.72,1.41,4.81,3.82,4.81M528.63,19.7v-.21c0-1.22.9-2.09,2.31-2.09s2.28.87,2.28,2.09v.2c0,1.17-.9,2-2.31,2s-2.28-.83-2.28-1.99M530.94,16.31c-2.02,0-3.49,1.36-3.49,3.18v.21c0,1.84,1.32,3.08,3.23,3.08.86,0,1.47-.24,1.88-.57-.61,1.26-2.02,2.6-3.29,3.79h1.49c1.47-1.4,3.65-3.42,3.65-6.14v-.24c0-1.92-1.41-3.3-3.46-3.3M516.1,16.41h-1.17v7.21h5.28l-1.57,1.56.81.82,2.97-2.97-2.97-2.97-.81.8,1.6,1.59h-4.13v-6.04Z"/>
    </g>
  </g>
</svg>