<?xml version="1.0" encoding="UTF-8"?>
<svg id="Calque_1" data-name="Calque 1" xmlns="http://www.w3.org/2000/svg" xmlns:xlink="http://www.w3.org/1999/xlink" viewBox="0 0 616 860">
  <defs>
    <style>
      .cls-1 {
        clip-path: url(#clippath);
      }

      .cls-2, .cls-3, .cls-4 {
        stroke-width: 0px;
      }

      .cls-2, .cls-5 {
        fill: none;
      }

      .cls-6 {
        clip-path: url(#clippath-1);
      }

      .cls-7 {
        clip-path: url(#clippath-4);
      }

      .cls-8 {
        clip-path: url(#clippath-3);
      }

      .cls-9 {
        clip-path: url(#clippath-2);
      }

      .cls-10 {
        clip-path: url(#clippath-7);
      }

      .cls-11 {
        clip-path: url(#clippath-8);
      }

      .cls-12 {
        clip-path: url(#clippath-6);
      }

      .cls-13 {
        clip-path: url(#clippath-5);
      }

      .cls-14 {
        clip-path: url(#clippath-9);
      }

      .cls-5 {
        stroke: #000;
      }

      .cls-4 {
        fill: #fff;
      }
    </style>
    <clipPath id="clippath">
      <rect class="cls-2" width="616" height="860"/>
    </clipPath>
    <clipPath id="clippath-1">
      <rect class="cls-2" width="616" height="860"/>
    </clipPath>
    <clipPath id="clippath-2">
      <rect class="cls-2" width="616" height="860"/>
    </clipPath>
    <clipPath id="clippath-3">
      <rect class="cls-2" x="410.9" y="750" width="191.1" height="96"/>
    </clipPath>
    <clipPath id="clippath-4">
      <rect class="cls-2" x="410.9" y="654" width="191.1" height="96"/>
    </clipPath>
    <clipPath id="clippath-5">
      <rect class="cls-2" x="410.9" y="558" width="191.1" height="96"/>
    </clipPath>
    <clipPath id="clippath-6">
      <rect class="cls-2" x="543.13" y="78" width="58.93" height="130.39"/>
    </clipPath>
    <clipPath id="clippath-7">
      <rect class="cls-2" x="87.5" y="331.61" width="132.3" height="130.39"/>
    </clipPath>
    <clipPath id="clippath-8">
      <rect class="cls-2" width="616" height="860"/>
    </clipPath>
    <clipPath id="clippath-9">
      <rect class="cls-2" width="616" height="860"/>
    </clipPath>
  </defs>
  <g class="cls-1">
    <g class="cls-6">
      <path class="cls-3" d="M71.84,654.96c10.43-50.2,45.64-79.54,97.15-79.54,58.03,0,86.06,36.51,86.06,76.94v2.61H71.84ZM173.88,853.82c49.23,0,92.58-15.65,115.73-39.77l3.91-51.51h-5.87c-22.49,26.73-61.61,43.68-107.91,43.68-69.44,0-108.56-40.1-111.17-106.93h238.63v-17.6c0-101.06-54.77-153.87-137.57-153.87-88.35,0-154.85,62.27-154.85,160.39v4.56c0,102.36,63.9,161.04,159.09,161.04"/>
      <path class="cls-3" d="M95.56,42.43v1.01h7.01v-1.25h-4.91v-.06c3.36-3.05,4.8-4.34,4.8-6.41v-.11c0-2.37-1.61-3.24-3.35-3.24-1.38,0-2.63.58-3.3,1.46l-.1,1.44h.35c.88-1.34,1.79-1.65,2.84-1.65,1.22,0,2.22.42,2.22,2.11v.11c0,1.59-.98,2.7-5.55,6.59M88.11,41.92l3.82-7.03c.47.74.74,1.78.74,3.03v.22c0,2.6-1.16,4.25-3.02,4.25-.58,0-1.1-.16-1.53-.46M86.62,38.14v-.22c0-2.64,1.15-4.3,3.02-4.3.58,0,1.08.16,1.51.45l-3.82,7.03c-.46-.73-.72-1.74-.72-2.96M89.64,43.63c2.77,0,4.37-2.39,4.37-5.5v-.22c0-3.14-1.58-5.55-4.37-5.55s-4.37,2.42-4.37,5.55v.22c0,3.11,1.61,5.5,4.37,5.5M73.69,43.44h1.28v-5.18c.61-.94,1.28-1.46,2.41-1.46s1.66.57,1.66,1.82v4.82h1.28v-4.78c0-1.98-.89-3.02-2.65-3.02-1.34,0-2.17.61-2.7,1.3v-1.11h-1.28v7.62ZM66.41,41.49v-.06c0-.52.38-1.04,1.44-1.2l2.26-.34v.42c0,1.4-1.06,2.24-2.36,2.24-.85,0-1.34-.37-1.34-1.06M67.55,43.63c1.14,0,2-.44,2.54-1.18v.99h1.28v-5.02c0-2.08-1.27-2.78-2.86-2.78-1.28,0-2.23.45-2.73.91l-.16,1.33h.21c.71-.75,1.54-1.15,2.48-1.15s1.8.42,1.8,1.7v.41l-2.43.34c-1.76.25-2.55,1.13-2.55,2.31v.05c0,1.29.9,2.1,2.42,2.1M61.97,43.44h1.28v-10.88h-1.28v10.88ZM54.02,41.43v-3.58c.46-.53,1.21-1.05,2.31-1.05,1.41,0,2.31.85,2.31,2.77v.14c0,1.88-.87,2.78-2.3,2.78-.99,0-1.78-.42-2.32-1.06M56.45,43.63c2.04,0,3.52-1.52,3.52-3.92v-.14c0-2.51-1.46-3.94-3.5-3.94-1.14,0-1.94.44-2.44.87v-.68h-1.28v10.88h1.28v-3.98c.5.52,1.38.9,2.42.9M45.14,43.44h1.28v-3.64h.42l2.79,3.64h1.62l-3.38-4.22,3.06-3.39h-1.5l-2.5,2.81h-.53v-6.07h-1.28v10.88ZM39.75,43.44h1.28v-4.53c0-1.29.69-1.96,1.78-1.96h.98v-.13l-.32-1h-.56c-.81,0-1.51.32-1.87.99v-.99h-1.28v7.62ZM31.49,39.76v-.26c0-1.93,1.16-2.7,2.47-2.7s2.47.78,2.47,2.7v.26c0,1.93-1.16,2.7-2.47,2.7s-2.47-.78-2.47-2.7M33.96,43.63c1.8,0,3.79-1.23,3.79-3.87v-.26c0-2.64-1.99-3.87-3.79-3.87s-3.79,1.23-3.79,3.87v.26c0,2.64,1.99,3.87,3.79,3.87M17.29,43.44h2.26l2.26-9.79h.38l2.25,9.79h2.27l2.65-10.88h-1.34l-2.26,9.82h-.38l-2.19-9.82h-2.37l-2.19,9.82h-.38l-2.26-9.82h-1.34l2.65,10.88Z"/>
      <path class="cls-3" d="M80.19,22.75c.26-1.23,1.12-1.95,2.38-1.95,1.42,0,2.11.9,2.11,1.89v.06h-4.5ZM82.69,27.63c1.21,0,2.27-.38,2.84-.98l.1-1.26h-.14c-.55.66-1.51,1.07-2.65,1.07-1.7,0-2.66-.98-2.73-2.62h5.86v-.43c0-2.48-1.34-3.78-3.38-3.78-2.17,0-3.8,1.53-3.8,3.94v.11c0,2.51,1.57,3.95,3.9,3.95M75.51,27.44h1.28v-10.88h-1.28v10.88ZM67.33,27.44h6.34v-1.09h-4.8v-.08l4.64-5.22v-1.23h-6.16v1.09h4.59v.08l-4.61,5.2v1.25ZM59.64,27.44h6.34v-1.09h-4.8v-.08l4.64-5.22v-1.23h-6.16v1.09h4.59v.08l-4.61,5.2v1.25ZM52.07,23.76v-.26c0-1.93,1.16-2.7,2.47-2.7s2.47.78,2.47,2.7v.26c0,1.93-1.16,2.7-2.47,2.7s-2.47-.78-2.47-2.7M54.54,27.63c1.8,0,3.79-1.23,3.79-3.87v-.26c0-2.64-1.99-3.87-3.79-3.87s-3.79,1.23-3.79,3.87v.26c0,2.64,1.99,3.87,3.79,3.87M40.1,27.44h1.34v-8.93h.03l5.6,8.93h1.6v-10.88h-1.34v8.93h-.03l-5.6-8.93h-1.6v10.88ZM28.59,27.44h1.34v-4.8h5.18v-1.25h-5.18v-3.58h5.6v-1.25h-6.94v10.88ZM19.63,26.27h2.05l2.9-8.46h.13l-.05,3.04v6.59h1.38v-10.88h-2.4l-2.94,8.93h-.06l-2.94-8.93h-2.4v10.88h1.38v-6.59l-.05-3.04h.13l2.9,8.46Z"/>
      <path class="cls-3" d="M321.59,43.44h7.57v-1.21h-3.1v-9.67h-3.74l-.54.99v.26h2.98v8.42h-3.15v1.21ZM313.28,41.92l3.82-7.03c.47.74.74,1.78.74,3.03v.22c0,2.6-1.16,4.25-3.02,4.25-.58,0-1.1-.16-1.53-.46M311.78,38.14v-.22c0-2.64,1.15-4.3,3.02-4.3.58,0,1.08.16,1.51.45l-3.82,7.03c-.46-.73-.72-1.74-.72-2.96M314.8,43.63c2.77,0,4.37-2.39,4.37-5.5v-.22c0-3.14-1.58-5.55-4.37-5.55s-4.37,2.42-4.37,5.55v.22c0,3.11,1.61,5.5,4.37,5.5M305.94,43.63c1.86,0,3.02-.87,3.02-2.22v-.11c0-2.99-4.51-1.63-4.51-3.46v-.08c0-.49.33-1.06,1.6-1.06.87,0,1.66.28,2.21.99h.19l-.07-1.39c-.54-.4-1.3-.67-2.29-.67-1.98,0-2.92,1.02-2.92,2.19v.08c0,2.99,4.51,1.67,4.51,3.46v.1c0,.72-.66,1.08-1.7,1.08s-1.92-.36-2.73-1.23h-.19l.1,1.38c.47.56,1.54.94,2.78.94M297.84,43.63c2.06,0,3.7-1.06,3.7-3.03v-.1c0-4.16-5.98-2.1-5.98-5.06v-.06c0-1.35,1.22-1.76,2.36-1.76,1.4,0,2.36.62,3.01,1.71h.18l-.06-1.76c-.85-.88-1.95-1.2-3.1-1.2-2.21,0-3.72,1.14-3.72,3.1v.06c0,4.13,5.98,2.13,5.98,5.03v.1c0,1.23-1.14,1.73-2.38,1.73-1.45,0-2.66-.66-3.51-2.05h-.19l.04,1.67c.56.81,1.86,1.62,3.68,1.62"/>
      <path class="cls-3" d="M360.6,22.75c.26-1.23,1.12-1.95,2.38-1.95,1.42,0,2.11.9,2.11,1.89v.06h-4.5ZM363.1,27.63c1.21,0,2.27-.38,2.84-.98l.1-1.26h-.14c-.55.66-1.51,1.07-2.65,1.07-1.7,0-2.66-.98-2.73-2.62h5.86v-.43c0-2.48-1.34-3.78-3.38-3.78-2.17,0-3.8,1.53-3.8,3.94v.11c0,2.51,1.57,3.95,3.9,3.95M351.65,25.43v-3.58c.46-.53,1.21-1.05,2.31-1.05,1.41,0,2.31.85,2.31,2.77v.14c0,1.88-.87,2.78-2.3,2.78-.99,0-1.78-.42-2.32-1.06M354.08,27.63c2.04,0,3.52-1.52,3.52-3.92v-.14c0-2.51-1.46-3.94-3.5-3.94-1.14,0-1.94.44-2.44.87v-.68h-1.28v10.88h1.28v-3.98c.5.52,1.38.9,2.42.9M343.4,30.7h1.29l4.16-10.88h-1.3l-2.22,5.9h-.29l-2.15-5.9h-1.38l2.71,7.01h.73l-1.54,3.87ZM335.78,20.91h1.49v4.14c0,1.66.66,2.39,2.45,2.39h.93v-.09l-.11-1h-.85c-.85,0-1.14-.43-1.14-1.3v-4.14h2.11v-1.09h-2.11v-2h-1.28v2h-1.49v1.09ZM324.76,27.44h1.28v-5.18c.61-.94,1.28-1.46,2.41-1.46s1.66.57,1.66,1.82v4.82h1.28v-4.78c0-1.98-.89-3.02-2.65-3.02-1.34,0-2.17.61-2.7,1.3v-1.11h-1.28v7.62ZM316.98,22.75c.26-1.23,1.12-1.95,2.38-1.95,1.42,0,2.11.9,2.11,1.89v.06h-4.5ZM319.48,27.63c1.21,0,2.27-.38,2.84-.98l.1-1.26h-.14c-.55.66-1.51,1.07-2.65,1.07-1.7,0-2.66-.98-2.73-2.62h5.86v-.43c0-2.48-1.34-3.78-3.38-3.78-2.17,0-3.8,1.53-3.8,3.94v.11c0,2.51,1.57,3.95,3.9,3.95M308.04,25.43v-3.58c.46-.53,1.21-1.05,2.31-1.05,1.41,0,2.31.85,2.31,2.77v.14c0,1.88-.87,2.78-2.3,2.78-.99,0-1.78-.42-2.32-1.06M310.46,27.63c2.04,0,3.52-1.52,3.52-3.92v-.14c0-2.51-1.46-3.94-3.5-3.94-1.14,0-1.94.44-2.44.87v-.68h-1.28v10.88h1.28v-3.98c.5.52,1.38.9,2.42.9M295.52,22.16v-.32c0-2.8,1.83-4.22,3.9-4.22s3.9,1.42,3.9,4.22v.32c0,2.8-1.83,4.22-3.9,4.22s-3.9-1.42-3.9-4.22M299.43,27.63c3.09,0,5.28-2.26,5.28-5.47v-.32c0-3.22-2.19-5.47-5.28-5.47s-5.28,2.26-5.28,5.47v.32c0,3.22,2.19,5.47,5.28,5.47"/>
      <path class="cls-3" d="M211.76,43.63c1.86,0,3.02-.87,3.02-2.22v-.11c0-2.99-4.51-1.63-4.51-3.46v-.08c0-.49.33-1.06,1.6-1.06.87,0,1.66.28,2.21.99h.19l-.07-1.39c-.54-.4-1.3-.67-2.29-.67-1.98,0-2.92,1.02-2.92,2.19v.08c0,2.99,4.51,1.67,4.51,3.46v.1c0,.72-.66,1.08-1.7,1.08s-1.92-.36-2.73-1.23h-.19l.1,1.38c.47.56,1.54.94,2.78.94M201.58,38.75c.26-1.23,1.12-1.95,2.38-1.95,1.42,0,2.11.9,2.11,1.89v.06h-4.5ZM204.09,43.63c1.21,0,2.27-.38,2.84-.98l.1-1.26h-.14c-.55.66-1.51,1.07-2.65,1.07-1.7,0-2.66-.98-2.73-2.62h5.86v-.43c0-2.48-1.34-3.78-3.38-3.78-2.17,0-3.8,1.53-3.8,3.94v.11c0,2.51,1.57,3.95,3.9,3.95M196.9,43.44h1.28v-10.88h-1.28v10.88ZM189.93,46.7h1.29l4.16-10.88h-1.3l-2.22,5.9h-.29l-2.15-5.9h-1.38l2.71,7.01h.73l-1.54,3.87ZM182.31,36.91h1.49v4.14c0,1.66.66,2.39,2.45,2.39h.93v-.09l-.11-1h-.85c-.85,0-1.14-.43-1.14-1.3v-4.14h2.11v-1.09h-2.11v-2h-1.28v2h-1.49v1.09ZM178.25,43.63c1.86,0,3.02-.87,3.02-2.22v-.11c0-2.99-4.51-1.63-4.51-3.46v-.08c0-.49.33-1.06,1.6-1.06.87,0,1.66.28,2.21.99h.19l-.07-1.39c-.54-.4-1.3-.67-2.29-.67-1.98,0-2.92,1.02-2.92,2.19v.08c0,2.99,4.51,1.67,4.51,3.46v.1c0,.72-.66,1.08-1.7,1.08s-1.92-.36-2.73-1.23h-.19l.1,1.38c.47.56,1.54.94,2.78.94M160.37,41.92l3.82-7.03c.47.74.74,1.78.74,3.03v.22c0,2.6-1.16,4.25-3.02,4.25-.58,0-1.1-.16-1.53-.46M158.88,38.14v-.22c0-2.64,1.15-4.3,3.02-4.3.58,0,1.08.16,1.51.45l-3.82,7.03c-.46-.73-.72-1.74-.72-2.96M161.9,43.63c2.77,0,4.37-2.39,4.37-5.5v-.22c0-3.14-1.58-5.55-4.37-5.55s-4.37,2.42-4.37,5.55v.22c0,3.11,1.61,5.5,4.37,5.5M149.69,36.24v-.24c0-1.39,1.03-2.38,2.64-2.38s2.61.99,2.61,2.38v.22c0,1.34-1.03,2.29-2.64,2.29s-2.61-.95-2.61-2.27M152.33,32.37c-2.31,0-3.99,1.56-3.99,3.63v.24c0,2.1,1.51,3.52,3.69,3.52.98,0,1.68-.28,2.15-.66-.7,1.44-2.3,2.97-3.76,4.34h1.7c1.68-1.6,4.17-3.91,4.17-7.02v-.27c0-2.19-1.61-3.78-3.96-3.78"/>
      <path class="cls-3" d="M200.84,27.63c1.86,0,3.02-.87,3.02-2.22v-.11c0-2.99-4.51-1.63-4.51-3.46v-.08c0-.49.33-1.06,1.6-1.06.87,0,1.66.28,2.21.99h.19l-.07-1.39c-.54-.4-1.3-.67-2.29-.67-1.98,0-2.92,1.02-2.92,2.19v.08c0,2.99,4.51,1.67,4.51,3.46v.1c0,.72-.66,1.08-1.7,1.08s-1.92-.36-2.73-1.23h-.19l.1,1.38c.47.56,1.54.94,2.78.94M191.84,20.91h1.49v4.14c0,1.66.66,2.39,2.45,2.39h.93v-.09l-.11-1h-.85c-.85,0-1.14-.43-1.14-1.3v-4.14h2.11v-1.09h-2.11v-2h-1.28v2h-1.49v1.09ZM190.24,19.82h-1.28v5.18c-.61.94-1.28,1.46-2.41,1.46s-1.66-.57-1.66-1.82v-4.82h-1.28v4.78c0,1.98.89,3.02,2.65,3.02,1.34,0,2.17-.61,2.7-1.3v1.11h1.28v-7.62ZM179.21,27.63c1.14,0,2.02-.38,2.57-.83l.1-1.46h-.19c-.61.74-1.5,1.12-2.4,1.12-1.38,0-2.52-.92-2.52-2.71v-.24c0-1.79,1.14-2.71,2.52-2.71.9,0,1.79.38,2.4,1.12h.19l-.1-1.46c-.55-.47-1.44-.83-2.55-.83-2.22,0-3.78,1.42-3.78,3.88v.24c0,2.46,1.58,3.88,3.77,3.88M160.09,20.24v-.24c0-1.39,1.03-2.38,2.64-2.38s2.61.99,2.61,2.38v.22c0,1.34-1.03,2.29-2.64,2.29s-2.61-.95-2.61-2.27M162.73,16.37c-2.31,0-3.99,1.56-3.99,3.63v.24c0,2.1,1.51,3.52,3.69,3.52.98,0,1.68-.28,2.15-.66-.7,1.44-2.3,2.97-3.76,4.34h1.7c1.68-1.6,4.17-3.91,4.17-7.02v-.27c0-2.19-1.61-3.78-3.96-3.78M149.97,25.92l3.82-7.03c.47.74.74,1.78.74,3.03v.22c0,2.6-1.16,4.25-3.02,4.25-.58,0-1.1-.16-1.53-.46M148.48,22.14v-.22c0-2.64,1.15-4.3,3.02-4.3.58,0,1.08.16,1.51.45l-3.82,7.03c-.46-.73-.72-1.74-.72-2.96M151.5,27.63c2.77,0,4.37-2.39,4.37-5.5v-.22c0-3.14-1.58-5.55-4.37-5.55s-4.37,2.42-4.37,5.55v.22c0,3.11,1.61,5.5,4.37,5.5"/>
      <path class="cls-3" d="M586.64,30.73h15.36c0-9.35-7.05-16.73-16.98-16.73v15.07h-15.02c0,9.15,7.14,16.93,16.64,16.93v-15.27Z"/>
    </g>
    <polygon class="cls-3" points="410.9 542 602 478 219.8 478 410.9 542"/>
    <g class="cls-9">
      <path class="cls-3" d="M13.98,414h56v-226.8c26.6-40.95,56-63.7,105.35-63.7s72.45,24.85,72.45,79.8v210.7h56v-209.3c0-86.8-38.85-132.3-115.85-132.3-58.45,0-94.85,26.6-117.95,57.05v-48.65H13.98v333.2Z"/>
    </g>
    <rect class="cls-3" x="219.8" y="78" width="382.2" height="400"/>
    <rect class="cls-3" x="410.9" y="750" width="191.1" height="96"/>
    <g class="cls-8">
      <path class="cls-4" d="M437.52,706.62c6.32-26.21,24.57-41.89,51.48-41.89,30.89,0,45.63,18.95,45.63,39.78v2.11h-97.11ZM496.72,852.64c36.74,0,69.03-9.13,88.69-24.8l5.15-50.08h-9.83c-17.32,15.91-41.65,24.8-72.07,24.8-41.42,0-67.16-17.32-72.54-54.99h164.27v-17.55c0-77.45-47.97-111.38-110.92-111.38-70.67,0-122.62,43.29-122.62,115.36v5.62c0,72.54,49.61,113.02,129.87,113.02"/>
    </g>
    <rect class="cls-3" x="410.9" y="654" width="191.1" height="96"/>
    <g class="cls-7">
      <path class="cls-4" d="M428.39,612.26c7.02-31.12,28.78-49.37,60.61-49.37,36.5,0,53.82,22.46,53.82,47.5v1.87h-114.43ZM494.62,756.64c36.04,0,67.86-10.3,85.88-26.68l3.98-43.52h-7.02c-16.61,17.55-42.82,28.08-74.65,28.08-45.86,0-72.77-22.7-76.28-65.99h168.01v-14.98c0-74.88-43.76-110.92-105.07-110.92-66.92,0-116.77,43.99-116.77,115.13v4.45c0,73.01,47.74,114.43,121.91,114.43"/>
    </g>
    <rect class="cls-3" x="410.9" y="558" width="191.1" height="96"/>
    <g class="cls-13">
      <path class="cls-4" d="M419.62,517.9c7.49-36.04,32.76-57.1,69.73-57.1,41.65,0,61.78,26.21,61.78,55.22v1.87h-131.51ZM492.86,660.64c35.33,0,66.46-11.23,83.07-28.55l2.81-36.97h-4.21c-16.15,19.19-44.23,31.36-77.45,31.36-49.84,0-77.92-28.78-79.79-76.75h171.29v-12.64c0-72.54-39.31-110.45-98.75-110.45-63.41,0-111.15,44.69-111.15,115.13v3.28c0,73.48,45.86,115.6,114.19,115.6"/>
    </g>
    <line class="cls-5" x1="602" y1="558" x2="308" y2="558"/>
    <line class="cls-5" x1="602" y1="654" x2="308" y2="654"/>
    <line class="cls-5" x1="602" y1="750" x2="308" y2="750"/>
    <line class="cls-5" x1="602" y1="846" x2="308" y2="846"/>
    <g class="cls-12">
      <path class="cls-4" d="M509.48,150.95c0,1.39-1.12,2.51-2.51,2.51s-2.51-1.12-2.51-2.51,1.12-2.51,2.51-2.51,2.51,1.12,2.51,2.51"/>
      <path class="cls-4" d="M511.02,135.9c0,2.23-1.81,4.05-4.05,4.05s-4.05-1.81-4.05-4.05,1.81-4.05,4.05-4.05,4.05,1.81,4.05,4.05"/>
      <path class="cls-4" d="M511.87,120.85c0,2.7-2.19,4.9-4.9,4.9s-4.9-2.19-4.9-4.9,2.19-4.9,4.9-4.9,4.9,2.19,4.9,4.9"/>
      <path class="cls-4" d="M513.49,105.79c0,3.6-2.92,6.52-6.52,6.52s-6.52-2.92-6.52-6.52,2.92-6.52,6.52-6.52,6.52,2.92,6.52,6.52"/>
      <path class="cls-4" d="M514.86,90.74c0,4.35-3.53,7.89-7.89,7.89s-7.89-3.53-7.89-7.89,3.53-7.89,7.89-7.89,7.89,3.53,7.89,7.89"/>
      <path class="cls-4" d="M508.62,166c0,.91-.74,1.65-1.65,1.65s-1.65-.74-1.65-1.65.74-1.65,1.65-1.65,1.65.74,1.65,1.65"/>
      <path class="cls-4" d="M507.94,181.05c0,.54-.44.97-.97.97s-.97-.43-.97-.97.44-.97.97-.97.97.43.97.97"/>
      <path class="cls-4" d="M518.77,143.44c0,1.99-1.61,3.6-3.6,3.6s-3.61-1.61-3.61-3.6,1.61-3.6,3.61-3.6,3.6,1.61,3.6,3.6"/>
      <path class="cls-4" d="M519.96,128.37c0,2.65-2.15,4.8-4.8,4.8s-4.8-2.15-4.8-4.8,2.15-4.8,4.8-4.8,4.8,2.15,4.8,4.8"/>
      <path class="cls-4" d="M520.97,113.32c0,3.21-2.6,5.81-5.81,5.81s-5.81-2.6-5.81-5.81,2.6-5.81,5.81-5.81,5.81,2.6,5.81,5.81"/>
      <path class="cls-4" d="M522.19,98.27c0,3.88-3.15,7.03-7.03,7.03s-7.03-3.15-7.03-7.03,3.15-7.03,7.03-7.03,7.03,3.15,7.03,7.03"/>
      <path class="cls-4" d="M523.66,83.72c0,4.7-3.81,8.5-8.5,8.5s-8.5-3.81-8.5-8.5,3.81-8.5,8.5-8.5,8.5,3.81,8.5,8.5"/>
      <path class="cls-4" d="M502.75,143.44c0,2.19-1.78,3.97-3.97,3.97s-3.97-1.78-3.97-3.97,1.78-3.97,3.97-3.97,3.97,1.78,3.97,3.97"/>
      <path class="cls-4" d="M503.58,128.37c0,2.65-2.15,4.8-4.8,4.8s-4.8-2.15-4.8-4.8,2.15-4.8,4.8-4.8,4.8,2.15,4.8,4.8"/>
      <path class="cls-4" d="M504.59,113.32c0,3.21-2.6,5.81-5.81,5.81s-5.81-2.6-5.81-5.81,2.6-5.81,5.81-5.81,5.81,2.6,5.81,5.81"/>
      <path class="cls-4" d="M505.81,98.27c0,3.88-3.15,7.03-7.03,7.03s-7.03-3.15-7.03-7.03,3.15-7.03,7.03-7.03,7.03,3.15,7.03,7.03"/>
      <path class="cls-4" d="M507.28,83.72c0,4.7-3.81,8.5-8.5,8.5s-8.5-3.81-8.5-8.5,3.81-8.5,8.5-8.5,8.5,3.81,8.5,8.5"/>
      <path class="cls-4" d="M535.15,143.44c0,1.99-1.61,3.6-3.6,3.6s-3.61-1.61-3.61-3.6,1.61-3.6,3.61-3.6,3.6,1.61,3.6,3.6"/>
      <path class="cls-4" d="M536.34,128.37c0,2.65-2.15,4.8-4.8,4.8s-4.8-2.15-4.8-4.8,2.15-4.8,4.8-4.8,4.8,2.15,4.8,4.8"/>
      <path class="cls-4" d="M537.35,113.32c0,3.21-2.6,5.81-5.81,5.81s-5.81-2.6-5.81-5.81,2.6-5.81,5.81-5.81,5.81,2.6,5.81,5.81"/>
      <path class="cls-4" d="M538.57,98.27c0,3.88-3.15,7.03-7.03,7.03s-7.03-3.15-7.03-7.03,3.15-7.03,7.03-7.03,7.03,3.15,7.03,7.03"/>
      <path class="cls-4" d="M540.05,83.72c0,4.7-3.81,8.5-8.5,8.5s-8.5-3.81-8.5-8.5,3.81-8.5,8.5-8.5,8.5,3.81,8.5,8.5"/>
      <path class="cls-4" d="M551.53,143.44c0,1.99-1.61,3.6-3.6,3.6s-3.61-1.61-3.61-3.6,1.61-3.6,3.61-3.6,3.6,1.61,3.6,3.6"/>
      <path class="cls-4" d="M552.73,128.37c0,2.65-2.15,4.8-4.8,4.8s-4.8-2.15-4.8-4.8,2.15-4.8,4.8-4.8,4.8,2.15,4.8,4.8"/>
      <path class="cls-4" d="M553.73,113.32c0,3.21-2.6,5.81-5.81,5.81s-5.81-2.6-5.81-5.81,2.6-5.81,5.81-5.81,5.81,2.6,5.81,5.81"/>
      <path class="cls-4" d="M554.95,98.27c0,3.88-3.15,7.03-7.03,7.03s-7.03-3.15-7.03-7.03,3.15-7.03,7.03-7.03,7.03,3.15,7.03,7.03"/>
      <path class="cls-4" d="M556.43,83.72c0,4.7-3.81,8.5-8.5,8.5s-8.5-3.81-8.5-8.5,3.81-8.5,8.5-8.5,8.5,3.81,8.5,8.5"/>
      <path class="cls-4" d="M525.87,150.95c0,1.39-1.12,2.51-2.51,2.51s-2.51-1.12-2.51-2.51,1.12-2.51,2.51-2.51,2.51,1.12,2.51,2.51"/>
      <path class="cls-4" d="M527.4,135.9c0,2.23-1.81,4.05-4.05,4.05s-4.05-1.81-4.05-4.05,1.81-4.05,4.05-4.05,4.05,1.81,4.05,4.05"/>
      <path class="cls-4" d="M528.25,120.85c0,2.7-2.19,4.9-4.9,4.9s-4.9-2.19-4.9-4.9,2.19-4.9,4.9-4.9,4.9,2.19,4.9,4.9"/>
      <path class="cls-4" d="M529.87,105.79c0,3.6-2.92,6.52-6.52,6.52s-6.52-2.92-6.52-6.52,2.92-6.52,6.52-6.52,6.52,2.92,6.52,6.52"/>
      <path class="cls-4" d="M531.24,90.74c0,4.35-3.53,7.89-7.89,7.89s-7.89-3.53-7.89-7.89,3.53-7.89,7.89-7.89,7.89,3.53,7.89,7.89"/>
      <path class="cls-4" d="M524.99,166c0,.9-.73,1.63-1.63,1.63s-1.63-.73-1.63-1.63.73-1.63,1.63-1.63,1.63.73,1.63,1.63"/>
      <path class="cls-4" d="M524.42,181.05c0,.59-.48,1.07-1.07,1.07s-1.07-.48-1.07-1.07.48-1.07,1.07-1.07,1.07.48,1.07,1.07"/>
      <path class="cls-4" d="M517.2,158.47c0,1.12-.91,2.03-2.03,2.03s-2.04-.91-2.04-2.03.91-2.03,2.04-2.03,2.03.91,2.03,2.03"/>
      <path class="cls-4" d="M516.5,173.53c0,.74-.6,1.34-1.34,1.34s-1.33-.6-1.33-1.34.6-1.34,1.33-1.34,1.34.6,1.34,1.34"/>
      <path class="cls-4" d="M516.04,188.58c0,.48-.39.88-.88.88s-.88-.39-.88-.88.39-.88.88-.88.88.39.88.88"/>
      <path class="cls-4" d="M500.81,158.47c0,1.12-.91,2.03-2.04,2.03s-2.04-.91-2.04-2.03.91-2.03,2.04-2.03,2.04.91,2.04,2.03"/>
      <path class="cls-4" d="M533.58,158.47c0,1.12-.91,2.03-2.03,2.03s-2.04-.91-2.04-2.03.91-2.03,2.04-2.03,2.03.91,2.03,2.03"/>
      <path class="cls-4" d="M532.88,173.53c0,.74-.6,1.34-1.34,1.34s-1.34-.6-1.34-1.34.6-1.34,1.34-1.34,1.34.6,1.34,1.34"/>
      <path class="cls-4" d="M532.42,188.58c0,.48-.39.88-.88.88s-.88-.39-.88-.88.39-.88.88-.88.88.39.88.88"/>
      <path class="cls-4" d="M500.11,173.53c0,.74-.6,1.34-1.33,1.34s-1.34-.6-1.34-1.34.6-1.34,1.34-1.34,1.33.6,1.33,1.34"/>
      <path class="cls-4" d="M499.66,188.58c0,.48-.39.88-.88.88s-.88-.39-.88-.88.39-.88.88-.88.88.39.88.88"/>
      <path class="cls-4" d="M549.26,173.53c0,.74-.6,1.34-1.34,1.34s-1.33-.6-1.33-1.34.6-1.34,1.33-1.34,1.34.6,1.34,1.34"/>
      <path class="cls-4" d="M548.8,188.58c0,.48-.39.88-.88.88s-.88-.39-.88-.88.39-.88.88-.88.88.39.88.88"/>
      <path class="cls-4" d="M549.96,158.47c0,1.12-.91,2.03-2.03,2.03s-2.04-.91-2.04-2.03.91-2.03,2.04-2.03,2.03.91,2.03,2.03"/>
      <path class="cls-4" d="M542.25,150.95c0,1.39-1.12,2.51-2.51,2.51s-2.51-1.12-2.51-2.51,1.12-2.51,2.51-2.51,2.51,1.12,2.51,2.51"/>
      <path class="cls-4" d="M543.74,135.9c0,2.21-1.79,4.01-4.01,4.01s-4.01-1.79-4.01-4.01,1.79-4.01,4.01-4.01,4.01,1.79,4.01,4.01"/>
      <path class="cls-4" d="M544.58,120.85c0,2.68-2.17,4.85-4.85,4.85s-4.85-2.17-4.85-4.85,2.17-4.85,4.85-4.85,4.85,2.17,4.85,4.85"/>
      <path class="cls-4" d="M546.19,105.79c0,3.56-2.89,6.45-6.45,6.45s-6.45-2.89-6.45-6.45,2.89-6.45,6.45-6.45,6.45,2.89,6.45,6.45"/>
      <path class="cls-4" d="M547.54,90.74c0,4.31-3.49,7.81-7.81,7.81s-7.81-3.5-7.81-7.81,3.49-7.81,7.81-7.81,7.81,3.5,7.81,7.81"/>
      <path class="cls-4" d="M541.37,166c0,.9-.73,1.63-1.63,1.63s-1.63-.73-1.63-1.63.73-1.63,1.63-1.63,1.63.73,1.63,1.63"/>
      <path class="cls-4" d="M540.81,181.05c0,.59-.48,1.07-1.07,1.07s-1.07-.48-1.07-1.07.48-1.07,1.07-1.07,1.07.48,1.07,1.07"/>
      <path class="cls-4" d="M558.63,150.95c0,1.39-1.12,2.51-2.51,2.51s-2.51-1.12-2.51-2.51,1.12-2.51,2.51-2.51,2.51,1.12,2.51,2.51"/>
      <path class="cls-4" d="M560.16,135.9c0,2.23-1.81,4.05-4.05,4.05s-4.05-1.81-4.05-4.05,1.81-4.05,4.05-4.05,4.05,1.81,4.05,4.05"/>
      <path class="cls-4" d="M561.01,120.85c0,2.7-2.19,4.9-4.9,4.9s-4.9-2.19-4.9-4.9,2.19-4.9,4.9-4.9,4.9,2.19,4.9,4.9"/>
      <path class="cls-4" d="M562.63,105.79c0,3.6-2.92,6.52-6.52,6.52s-6.52-2.92-6.52-6.52,2.92-6.52,6.52-6.52,6.52,2.92,6.52,6.52"/>
      <path class="cls-4" d="M564,90.74c0,4.35-3.53,7.89-7.89,7.89s-7.89-3.53-7.89-7.89,3.53-7.89,7.89-7.89,7.89,3.53,7.89,7.89"/>
      <path class="cls-4" d="M557.76,166c0,.91-.74,1.65-1.65,1.65s-1.65-.74-1.65-1.65.74-1.65,1.65-1.65,1.65.74,1.65,1.65"/>
      <path class="cls-4" d="M557.09,181.05c0,.54-.44.97-.97.97s-.97-.43-.97-.97.44-.97.97-.97.97.43.97.97"/>
      <path class="cls-4" d="M567.91,143.44c0,1.99-1.61,3.6-3.6,3.6s-3.61-1.61-3.61-3.6,1.61-3.6,3.61-3.6,3.6,1.61,3.6,3.6"/>
      <path class="cls-4" d="M569.1,128.37c0,2.65-2.15,4.8-4.8,4.8s-4.8-2.15-4.8-4.8,2.15-4.8,4.8-4.8,4.8,2.15,4.8,4.8"/>
      <path class="cls-4" d="M570.11,113.32c0,3.21-2.6,5.81-5.81,5.81s-5.81-2.6-5.81-5.81,2.6-5.81,5.81-5.81,5.81,2.6,5.81,5.81"/>
      <path class="cls-4" d="M571.33,98.27c0,3.88-3.15,7.03-7.03,7.03s-7.03-3.15-7.03-7.03,3.15-7.03,7.03-7.03,7.03,3.15,7.03,7.03"/>
      <path class="cls-4" d="M572.81,83.72c0,4.7-3.81,8.5-8.5,8.5s-8.5-3.81-8.5-8.5,3.81-8.5,8.5-8.5,8.5,3.81,8.5,8.5"/>
      <path class="cls-4" d="M552.72,128.37c0,2.65-2.15,4.8-4.8,4.8s-4.8-2.15-4.8-4.8,2.15-4.8,4.8-4.8,4.8,2.15,4.8,4.8"/>
      <path class="cls-4" d="M553.73,113.32c0,3.21-2.6,5.81-5.81,5.81s-5.81-2.6-5.81-5.81,2.6-5.81,5.81-5.81,5.81,2.6,5.81,5.81"/>
      <path class="cls-4" d="M554.95,98.27c0,3.88-3.15,7.03-7.03,7.03s-7.03-3.15-7.03-7.03,3.15-7.03,7.03-7.03,7.03,3.15,7.03,7.03"/>
      <path class="cls-4" d="M556.42,83.72c0,4.7-3.81,8.5-8.5,8.5s-8.5-3.81-8.5-8.5,3.81-8.5,8.5-8.5,8.5,3.81,8.5,8.5"/>
      <path class="cls-4" d="M584.29,143.44c0,1.99-1.61,3.6-3.6,3.6s-3.61-1.61-3.61-3.6,1.61-3.6,3.61-3.6,3.6,1.61,3.6,3.6"/>
      <path class="cls-4" d="M585.49,128.37c0,2.65-2.15,4.8-4.8,4.8s-4.8-2.15-4.8-4.8,2.15-4.8,4.8-4.8,4.8,2.15,4.8,4.8"/>
      <path class="cls-4" d="M586.49,113.32c0,3.21-2.6,5.81-5.81,5.81s-5.81-2.6-5.81-5.81,2.6-5.81,5.81-5.81,5.81,2.6,5.81,5.81"/>
      <path class="cls-4" d="M587.71,98.27c0,3.88-3.15,7.03-7.03,7.03s-7.03-3.15-7.03-7.03,3.15-7.03,7.03-7.03,7.03,3.15,7.03,7.03"/>
      <path class="cls-4" d="M589.19,83.72c0,4.7-3.81,8.5-8.5,8.5s-8.5-3.81-8.5-8.5,3.81-8.5,8.5-8.5,8.5,3.81,8.5,8.5"/>
      <path class="cls-4" d="M600.68,143.44c0,1.99-1.61,3.6-3.6,3.6s-3.61-1.61-3.61-3.6,1.61-3.6,3.61-3.6,3.6,1.61,3.6,3.6"/>
      <path class="cls-4" d="M601.87,128.37c0,2.65-2.15,4.8-4.8,4.8s-4.8-2.15-4.8-4.8,2.15-4.8,4.8-4.8,4.8,2.15,4.8,4.8"/>
      <path class="cls-4" d="M602.88,113.32c0,3.21-2.6,5.81-5.81,5.81s-5.81-2.6-5.81-5.81,2.6-5.81,5.81-5.81,5.81,2.6,5.81,5.81"/>
      <path class="cls-4" d="M604.1,98.27c0,3.88-3.15,7.03-7.03,7.03s-7.03-3.15-7.03-7.03,3.15-7.03,7.03-7.03,7.03,3.15,7.03,7.03"/>
      <path class="cls-4" d="M605.57,83.72c0,4.7-3.81,8.5-8.5,8.5s-8.5-3.81-8.5-8.5,3.81-8.5,8.5-8.5,8.5,3.81,8.5,8.5"/>
      <path class="cls-4" d="M575.01,150.95c0,1.39-1.12,2.51-2.51,2.51s-2.51-1.12-2.51-2.51,1.12-2.51,2.51-2.51,2.51,1.12,2.51,2.51"/>
      <path class="cls-4" d="M576.54,135.9c0,2.23-1.81,4.05-4.05,4.05s-4.05-1.81-4.05-4.05,1.81-4.05,4.05-4.05,4.05,1.81,4.05,4.05"/>
      <path class="cls-4" d="M577.39,120.85c0,2.7-2.19,4.9-4.9,4.9s-4.9-2.19-4.9-4.9,2.19-4.9,4.9-4.9,4.9,2.19,4.9,4.9"/>
      <path class="cls-4" d="M579.01,105.79c0,3.6-2.92,6.52-6.52,6.52s-6.52-2.92-6.52-6.52,2.92-6.52,6.52-6.52,6.52,2.92,6.52,6.52"/>
      <path class="cls-4" d="M580.38,90.74c0,4.35-3.53,7.89-7.89,7.89s-7.89-3.53-7.89-7.89,3.53-7.89,7.89-7.89,7.89,3.53,7.89,7.89"/>
      <path class="cls-4" d="M574.13,166c0,.9-.73,1.63-1.63,1.63s-1.63-.73-1.63-1.63.73-1.63,1.63-1.63,1.63.73,1.63,1.63"/>
      <path class="cls-4" d="M573.57,181.05c0,.59-.48,1.07-1.07,1.07s-1.07-.48-1.07-1.07.48-1.07,1.07-1.07,1.07.48,1.07,1.07"/>
      <path class="cls-4" d="M566.34,158.47c0,1.12-.91,2.03-2.03,2.03s-2.04-.91-2.04-2.03.91-2.03,2.04-2.03,2.03.91,2.03,2.03"/>
      <path class="cls-4" d="M565.64,173.53c0,.74-.6,1.34-1.34,1.34s-1.33-.6-1.33-1.34.6-1.34,1.33-1.34,1.34.6,1.34,1.34"/>
      <path class="cls-4" d="M565.18,188.58c0,.48-.39.88-.88.88s-.88-.39-.88-.88.39-.88.88-.88.88.39.88.88"/>
      <path class="cls-4" d="M549.96,158.47c0,1.12-.91,2.03-2.03,2.03s-2.04-.91-2.04-2.03.91-2.03,2.04-2.03,2.03.91,2.03,2.03"/>
      <path class="cls-4" d="M582.72,158.47c0,1.12-.91,2.03-2.03,2.03s-2.04-.91-2.04-2.03.91-2.03,2.04-2.03,2.03.91,2.03,2.03"/>
      <path class="cls-4" d="M582.02,173.53c0,.74-.6,1.34-1.34,1.34s-1.34-.6-1.34-1.34.6-1.34,1.34-1.34,1.34.6,1.34,1.34"/>
      <path class="cls-4" d="M581.56,188.58c0,.48-.39.88-.88.88s-.88-.39-.88-.88.39-.88.88-.88.88.39.88.88"/>
      <path class="cls-4" d="M549.26,173.53c0,.74-.6,1.34-1.34,1.34s-1.33-.6-1.33-1.34.6-1.34,1.33-1.34,1.34.6,1.34,1.34"/>
      <path class="cls-4" d="M548.8,188.58c0,.48-.39.88-.88.88s-.88-.39-.88-.88.39-.88.88-.88.88.39.88.88"/>
      <path class="cls-4" d="M598.41,173.53c0,.74-.6,1.34-1.34,1.34s-1.33-.6-1.33-1.34.6-1.34,1.33-1.34,1.34.6,1.34,1.34"/>
      <path class="cls-4" d="M597.95,188.58c0,.48-.39.88-.88.88s-.88-.39-.88-.88.39-.88.88-.88.88.39.88.88"/>
      <path class="cls-4" d="M599.11,158.47c0,1.12-.91,2.03-2.03,2.03s-2.04-.91-2.04-2.03.91-2.03,2.04-2.03,2.03.91,2.03,2.03"/>
      <path class="cls-4" d="M591.39,150.95c0,1.39-1.12,2.51-2.51,2.51s-2.51-1.12-2.51-2.51,1.12-2.51,2.51-2.51,2.51,1.12,2.51,2.51"/>
      <path class="cls-4" d="M592.89,135.9c0,2.21-1.79,4.01-4.01,4.01s-4.01-1.79-4.01-4.01,1.79-4.01,4.01-4.01,4.01,1.79,4.01,4.01"/>
      <path class="cls-4" d="M593.73,120.85c0,2.68-2.17,4.85-4.85,4.85s-4.85-2.17-4.85-4.85,2.17-4.85,4.85-4.85,4.85,2.17,4.85,4.85"/>
      <path class="cls-4" d="M595.33,105.79c0,3.56-2.89,6.45-6.45,6.45s-6.45-2.89-6.45-6.45,2.89-6.45,6.45-6.45,6.45,2.89,6.45,6.45"/>
      <path class="cls-4" d="M596.69,90.74c0,4.31-3.49,7.81-7.81,7.81s-7.81-3.5-7.81-7.81,3.49-7.81,7.81-7.81,7.81,3.5,7.81,7.81"/>
      <path class="cls-4" d="M590.51,166c0,.9-.73,1.63-1.63,1.63s-1.63-.73-1.63-1.63.73-1.63,1.63-1.63,1.63.73,1.63,1.63"/>
      <path class="cls-4" d="M589.95,181.05c0,.59-.48,1.07-1.07,1.07s-1.07-.48-1.07-1.07.48-1.07,1.07-1.07,1.07.48,1.07,1.07"/>
      <path class="cls-4" d="M607.78,150.95c0,1.39-1.12,2.51-2.51,2.51s-2.51-1.12-2.51-2.51,1.12-2.51,2.51-2.51,2.51,1.12,2.51,2.51"/>
      <path class="cls-4" d="M609.31,135.9c0,2.23-1.81,4.05-4.05,4.05s-4.05-1.81-4.05-4.05,1.81-4.05,4.05-4.05,4.05,1.81,4.05,4.05"/>
      <path class="cls-4" d="M610.16,120.85c0,2.7-2.19,4.9-4.9,4.9s-4.9-2.19-4.9-4.9,2.19-4.9,4.9-4.9,4.9,2.19,4.9,4.9"/>
      <path class="cls-4" d="M611.78,105.79c0,3.6-2.92,6.52-6.52,6.52s-6.52-2.92-6.52-6.52,2.92-6.52,6.52-6.52,6.52,2.92,6.52,6.52"/>
      <path class="cls-4" d="M613.15,90.74c0,4.35-3.53,7.89-7.89,7.89s-7.89-3.53-7.89-7.89,3.53-7.89,7.89-7.89,7.89,3.53,7.89,7.89"/>
      <path class="cls-4" d="M606.91,166c0,.91-.74,1.65-1.65,1.65s-1.65-.74-1.65-1.65.74-1.65,1.65-1.65,1.65.74,1.65,1.65"/>
      <path class="cls-4" d="M606.24,181.05c0,.54-.44.97-.97.97s-.97-.43-.97-.97.44-.97.97-.97.97.43.97.97"/>
      <path class="cls-4" d="M617.06,143.44c0,1.99-1.61,3.6-3.6,3.6s-3.61-1.61-3.61-3.6,1.61-3.6,3.61-3.6,3.6,1.61,3.6,3.6"/>
      <path class="cls-4" d="M618.25,128.37c0,2.65-2.15,4.8-4.8,4.8s-4.8-2.15-4.8-4.8,2.15-4.8,4.8-4.8,4.8,2.15,4.8,4.8"/>
      <path class="cls-4" d="M619.26,113.32c0,3.21-2.6,5.81-5.81,5.81s-5.81-2.6-5.81-5.81,2.6-5.81,5.81-5.81,5.81,2.6,5.81,5.81"/>
      <path class="cls-4" d="M620.48,98.27c0,3.88-3.15,7.03-7.03,7.03s-7.03-3.15-7.03-7.03,3.15-7.03,7.03-7.03,7.03,3.15,7.03,7.03"/>
      <path class="cls-4" d="M621.96,83.72c0,4.7-3.81,8.5-8.5,8.5s-8.5-3.81-8.5-8.5,3.81-8.5,8.5-8.5,8.5,3.81,8.5,8.5"/>
      <path class="cls-4" d="M601.87,128.37c0,2.65-2.15,4.8-4.8,4.8s-4.8-2.15-4.8-4.8,2.15-4.8,4.8-4.8,4.8,2.15,4.8,4.8"/>
      <path class="cls-4" d="M602.88,113.32c0,3.21-2.6,5.81-5.81,5.81s-5.81-2.6-5.81-5.81,2.6-5.81,5.81-5.81,5.81,2.6,5.81,5.81"/>
      <path class="cls-4" d="M604.1,98.27c0,3.88-3.15,7.03-7.03,7.03s-7.03-3.15-7.03-7.03,3.15-7.03,7.03-7.03,7.03,3.15,7.03,7.03"/>
      <path class="cls-4" d="M605.57,83.72c0,4.7-3.81,8.5-8.5,8.5s-8.5-3.81-8.5-8.5,3.81-8.5,8.5-8.5,8.5,3.81,8.5,8.5"/>
      <path class="cls-4" d="M628.16,105.79c0,3.6-2.92,6.52-6.52,6.52s-6.52-2.92-6.52-6.52,2.92-6.52,6.52-6.52,6.52,2.92,6.52,6.52"/>
      <path class="cls-4" d="M629.53,90.74c0,4.35-3.53,7.89-7.89,7.89s-7.89-3.53-7.89-7.89,3.53-7.89,7.89-7.89,7.89,3.53,7.89,7.89"/>
      <path class="cls-4" d="M615.49,158.47c0,1.12-.91,2.03-2.03,2.03s-2.04-.91-2.04-2.03.91-2.03,2.04-2.03,2.03.91,2.03,2.03"/>
      <path class="cls-4" d="M614.79,173.53c0,.74-.6,1.34-1.34,1.34s-1.33-.6-1.33-1.34.6-1.34,1.33-1.34,1.34.6,1.34,1.34"/>
      <path class="cls-4" d="M614.33,188.58c0,.48-.39.88-.88.88s-.88-.39-.88-.88.39-.88.88-.88.88.39.88.88"/>
      <path class="cls-4" d="M599.11,158.47c0,1.12-.91,2.03-2.03,2.03s-2.04-.91-2.04-2.03.91-2.03,2.04-2.03,2.03.91,2.03,2.03"/>
      <path class="cls-4" d="M598.41,173.53c0,.74-.6,1.34-1.34,1.34s-1.33-.6-1.33-1.34.6-1.34,1.33-1.34,1.34.6,1.34,1.34"/>
      <path class="cls-4" d="M597.95,188.58c0,.48-.39.88-.88.88s-.88-.39-.88-.88.39-.88.88-.88.88.39.88.88"/>
    </g>
    <g class="cls-10">
      <path class="cls-3" d="M253.45,389.05c0-1.39,1.12-2.51,2.51-2.51s2.51,1.12,2.51,2.51-1.12,2.51-2.51,2.51-2.51-1.12-2.51-2.51"/>
      <path class="cls-3" d="M251.92,404.1c0-2.23,1.81-4.05,4.05-4.05s4.05,1.81,4.05,4.05-1.81,4.05-4.05,4.05-4.05-1.81-4.05-4.05"/>
      <path class="cls-3" d="M251.07,419.15c0-2.7,2.19-4.9,4.9-4.9s4.9,2.19,4.9,4.9-2.19,4.9-4.9,4.9-4.9-2.19-4.9-4.9"/>
      <path class="cls-3" d="M249.45,434.2c0-3.6,2.92-6.52,6.52-6.52s6.52,2.92,6.52,6.52-2.92,6.52-6.52,6.52-6.52-2.92-6.52-6.52"/>
      <path class="cls-3" d="M248.08,449.26c0-4.36,3.53-7.89,7.88-7.89s7.89,3.53,7.89,7.89-3.53,7.89-7.89,7.89-7.88-3.53-7.88-7.89"/>
      <path class="cls-3" d="M254.32,374c0-.91.74-1.65,1.65-1.65s1.65.74,1.65,1.65-.74,1.65-1.65,1.65-1.65-.74-1.65-1.65"/>
      <path class="cls-3" d="M254.99,358.95c0-.54.44-.97.97-.97s.97.43.97.97-.44.97-.97.97-.97-.43-.97-.97"/>
      <path class="cls-3" d="M244.17,396.56c0-1.99,1.61-3.61,3.6-3.61s3.61,1.61,3.61,3.61-1.61,3.61-3.61,3.61-3.6-1.61-3.6-3.61"/>
      <path class="cls-3" d="M242.97,411.63c0-2.65,2.15-4.8,4.8-4.8s4.8,2.15,4.8,4.8-2.15,4.8-4.8,4.8-4.8-2.15-4.8-4.8"/>
      <path class="cls-3" d="M241.97,426.68c0-3.21,2.6-5.81,5.81-5.81s5.81,2.6,5.81,5.81-2.6,5.81-5.81,5.81-5.81-2.6-5.81-5.81"/>
      <path class="cls-3" d="M240.75,441.73c0-3.88,3.15-7.03,7.03-7.03s7.03,3.15,7.03,7.03-3.15,7.03-7.03,7.03-7.03-3.15-7.03-7.03"/>
      <path class="cls-3" d="M239.27,456.28c0-4.7,3.81-8.5,8.5-8.5s8.5,3.81,8.5,8.5-3.81,8.5-8.5,8.5-8.5-3.81-8.5-8.5"/>
      <path class="cls-3" d="M260.19,396.56c0-2.19,1.78-3.97,3.97-3.97s3.97,1.78,3.97,3.97-1.78,3.97-3.97,3.97-3.97-1.78-3.97-3.97"/>
      <path class="cls-3" d="M259.36,411.63c0-2.65,2.15-4.8,4.8-4.8s4.8,2.15,4.8,4.8-2.15,4.8-4.8,4.8-4.8-2.15-4.8-4.8"/>
      <path class="cls-3" d="M258.35,426.68c0-3.21,2.6-5.81,5.81-5.81s5.81,2.6,5.81,5.81-2.6,5.81-5.81,5.81-5.81-2.6-5.81-5.81"/>
      <path class="cls-3" d="M257.13,441.73c0-3.88,3.15-7.03,7.03-7.03s7.03,3.15,7.03,7.03-3.15,7.03-7.03,7.03-7.03-3.15-7.03-7.03"/>
      <path class="cls-3" d="M255.65,456.28c0-4.7,3.81-8.5,8.5-8.5s8.5,3.81,8.5,8.5-3.81,8.5-8.5,8.5-8.5-3.81-8.5-8.5"/>
      <path class="cls-3" d="M227.78,396.56c0-1.99,1.61-3.61,3.6-3.61s3.61,1.61,3.61,3.61-1.61,3.61-3.61,3.61-3.6-1.61-3.6-3.61"/>
      <path class="cls-3" d="M226.59,411.63c0-2.65,2.15-4.8,4.8-4.8s4.8,2.15,4.8,4.8-2.15,4.8-4.8,4.8-4.8-2.15-4.8-4.8"/>
      <path class="cls-3" d="M225.58,426.68c0-3.21,2.6-5.81,5.81-5.81s5.81,2.6,5.81,5.81-2.6,5.81-5.81,5.81-5.81-2.6-5.81-5.81"/>
      <path class="cls-3" d="M224.36,441.73c0-3.88,3.15-7.03,7.03-7.03s7.03,3.15,7.03,7.03-3.15,7.03-7.03,7.03-7.03-3.15-7.03-7.03"/>
      <path class="cls-3" d="M222.89,456.28c0-4.7,3.81-8.5,8.5-8.5s8.5,3.81,8.5,8.5-3.81,8.5-8.5,8.5-8.5-3.81-8.5-8.5"/>
      <path class="cls-3" d="M211.4,396.56c0-1.99,1.61-3.61,3.6-3.61s3.61,1.61,3.61,3.61-1.61,3.61-3.61,3.61-3.6-1.61-3.6-3.61"/>
      <path class="cls-3" d="M210.21,411.63c0-2.65,2.15-4.8,4.8-4.8s4.8,2.15,4.8,4.8-2.15,4.8-4.8,4.8-4.8-2.15-4.8-4.8"/>
      <path class="cls-3" d="M209.2,426.68c0-3.21,2.6-5.81,5.81-5.81s5.81,2.6,5.81,5.81-2.6,5.81-5.81,5.81-5.81-2.6-5.81-5.81"/>
      <path class="cls-3" d="M207.98,441.73c0-3.88,3.15-7.03,7.03-7.03s7.03,3.15,7.03,7.03-3.15,7.03-7.03,7.03-7.03-3.15-7.03-7.03"/>
      <path class="cls-3" d="M206.51,456.28c0-4.7,3.81-8.5,8.5-8.5s8.5,3.81,8.5,8.5-3.81,8.5-8.5,8.5-8.5-3.81-8.5-8.5"/>
      <path class="cls-3" d="M237.07,389.05c0-1.39,1.12-2.51,2.51-2.51s2.51,1.12,2.51,2.51-1.12,2.51-2.51,2.51-2.51-1.12-2.51-2.51"/>
      <path class="cls-3" d="M235.53,404.1c0-2.23,1.81-4.05,4.05-4.05s4.05,1.81,4.05,4.05-1.81,4.05-4.05,4.05-4.05-1.81-4.05-4.05"/>
      <path class="cls-3" d="M234.68,419.15c0-2.7,2.19-4.9,4.9-4.9s4.9,2.19,4.9,4.9-2.19,4.9-4.9,4.9-4.9-2.19-4.9-4.9"/>
      <path class="cls-3" d="M233.06,434.2c0-3.6,2.92-6.52,6.52-6.52s6.52,2.92,6.52,6.52-2.92,6.52-6.52,6.52-6.52-2.92-6.52-6.52"/>
      <path class="cls-3" d="M231.7,449.26c0-4.36,3.53-7.89,7.88-7.89s7.89,3.53,7.89,7.89-3.53,7.89-7.89,7.89-7.88-3.53-7.88-7.89"/>
      <path class="cls-3" d="M237.95,374c0-.9.73-1.63,1.63-1.63s1.63.73,1.63,1.63-.73,1.63-1.63,1.63-1.63-.73-1.63-1.63"/>
      <path class="cls-3" d="M238.51,358.95c0-.59.48-1.07,1.07-1.07s1.07.48,1.07,1.07-.48,1.07-1.07,1.07-1.07-.48-1.07-1.07"/>
      <path class="cls-3" d="M245.74,381.52c0-1.12.91-2.04,2.04-2.04s2.04.91,2.04,2.04-.91,2.04-2.04,2.04-2.04-.91-2.04-2.04"/>
      <path class="cls-3" d="M246.44,366.47c0-.74.6-1.33,1.34-1.33s1.34.6,1.34,1.33-.6,1.33-1.34,1.33-1.34-.6-1.34-1.33"/>
      <path class="cls-3" d="M246.9,351.42c0-.48.39-.88.88-.88s.88.39.88.88-.39.88-.88.88-.88-.39-.88-.88"/>
      <path class="cls-3" d="M262.12,381.52c0-1.12.91-2.04,2.04-2.04s2.04.91,2.04,2.04-.91,2.04-2.04,2.04-2.04-.91-2.04-2.04"/>
      <path class="cls-3" d="M229.35,381.52c0-1.12.91-2.04,2.04-2.04s2.04.91,2.04,2.04-.91,2.04-2.04,2.04-2.04-.91-2.04-2.04"/>
      <path class="cls-3" d="M230.05,366.47c0-.74.6-1.33,1.34-1.33s1.34.6,1.34,1.33-.6,1.33-1.34,1.33-1.34-.6-1.34-1.33"/>
      <path class="cls-3" d="M230.51,351.42c0-.48.39-.88.88-.88s.88.39.88.88-.39.88-.88.88-.88-.39-.88-.88"/>
      <path class="cls-3" d="M262.82,366.47c0-.74.6-1.33,1.33-1.33s1.34.6,1.34,1.33-.6,1.33-1.34,1.33-1.33-.6-1.33-1.33"/>
      <path class="cls-3" d="M263.28,351.42c0-.48.39-.88.88-.88s.88.39.88.88-.39.88-.88.88-.88-.39-.88-.88"/>
      <path class="cls-3" d="M213.67,366.47c0-.74.6-1.33,1.34-1.33s1.34.6,1.34,1.33-.6,1.33-1.34,1.33-1.34-.6-1.34-1.33"/>
      <path class="cls-3" d="M214.13,351.42c0-.48.39-.88.88-.88s.88.39.88.88-.39.88-.88.88-.88-.39-.88-.88"/>
      <path class="cls-3" d="M212.97,381.52c0-1.12.91-2.04,2.04-2.04s2.04.91,2.04,2.04-.91,2.04-2.04,2.04-2.04-.91-2.04-2.04"/>
      <path class="cls-3" d="M220.69,389.05c0-1.39,1.12-2.51,2.51-2.51s2.51,1.12,2.51,2.51-1.12,2.51-2.51,2.51-2.51-1.12-2.51-2.51"/>
      <path class="cls-3" d="M219.19,404.1c0-2.21,1.79-4.01,4.01-4.01s4.01,1.79,4.01,4.01-1.79,4.01-4.01,4.01-4.01-1.79-4.01-4.01"/>
      <path class="cls-3" d="M218.35,419.15c0-2.68,2.17-4.85,4.85-4.85s4.85,2.17,4.85,4.85-2.17,4.85-4.85,4.85-4.85-2.17-4.85-4.85"/>
      <path class="cls-3" d="M216.75,434.2c0-3.56,2.89-6.45,6.45-6.45s6.45,2.89,6.45,6.45-2.89,6.45-6.45,6.45-6.45-2.89-6.45-6.45"/>
      <path class="cls-3" d="M215.39,449.26c0-4.31,3.49-7.81,7.81-7.81s7.81,3.49,7.81,7.81-3.5,7.81-7.81,7.81-7.81-3.49-7.81-7.81"/>
      <path class="cls-3" d="M221.57,374c0-.9.73-1.63,1.63-1.63s1.63.73,1.63,1.63-.73,1.63-1.63,1.63-1.63-.73-1.63-1.63"/>
      <path class="cls-3" d="M222.13,358.95c0-.59.48-1.07,1.07-1.07s1.07.48,1.07,1.07-.48,1.07-1.07,1.07-1.07-.48-1.07-1.07"/>
      <path class="cls-3" d="M204.31,389.05c0-1.39,1.12-2.51,2.51-2.51s2.51,1.12,2.51,2.51-1.12,2.51-2.51,2.51-2.51-1.12-2.51-2.51"/>
      <path class="cls-3" d="M202.77,404.1c0-2.23,1.81-4.05,4.05-4.05s4.05,1.81,4.05,4.05-1.81,4.05-4.05,4.05-4.05-1.81-4.05-4.05"/>
      <path class="cls-3" d="M201.92,419.15c0-2.7,2.19-4.9,4.9-4.9s4.9,2.19,4.9,4.9-2.19,4.9-4.9,4.9-4.9-2.19-4.9-4.9"/>
      <path class="cls-3" d="M200.3,434.2c0-3.6,2.92-6.52,6.52-6.52s6.52,2.92,6.52,6.52-2.92,6.52-6.52,6.52-6.52-2.92-6.52-6.52"/>
      <path class="cls-3" d="M198.93,449.26c0-4.36,3.53-7.89,7.88-7.89s7.89,3.53,7.89,7.89-3.53,7.89-7.89,7.89-7.88-3.53-7.88-7.89"/>
      <path class="cls-3" d="M205.17,374c0-.91.74-1.65,1.65-1.65s1.65.74,1.65,1.65-.74,1.65-1.65,1.65-1.65-.74-1.65-1.65"/>
      <path class="cls-3" d="M205.85,358.95c0-.54.44-.97.97-.97s.97.43.97.97-.44.97-.97.97-.97-.43-.97-.97"/>
      <path class="cls-3" d="M195.02,396.56c0-1.99,1.61-3.61,3.6-3.61s3.61,1.61,3.61,3.61-1.61,3.61-3.61,3.61-3.6-1.61-3.6-3.61"/>
      <path class="cls-3" d="M193.83,411.63c0-2.65,2.15-4.8,4.8-4.8s4.8,2.15,4.8,4.8-2.15,4.8-4.8,4.8-4.8-2.15-4.8-4.8"/>
      <path class="cls-3" d="M192.82,426.68c0-3.21,2.6-5.81,5.81-5.81s5.81,2.6,5.81,5.81-2.6,5.81-5.81,5.81-5.81-2.6-5.81-5.81"/>
      <path class="cls-3" d="M191.6,441.73c0-3.88,3.15-7.03,7.03-7.03s7.03,3.15,7.03,7.03-3.15,7.03-7.03,7.03-7.03-3.15-7.03-7.03"/>
      <path class="cls-3" d="M190.13,456.28c0-4.7,3.81-8.5,8.5-8.5s8.5,3.81,8.5,8.5-3.81,8.5-8.5,8.5-8.5-3.81-8.5-8.5"/>
      <path class="cls-3" d="M210.21,411.63c0-2.65,2.15-4.8,4.8-4.8s4.8,2.15,4.8,4.8-2.15,4.8-4.8,4.8-4.8-2.15-4.8-4.8"/>
      <path class="cls-3" d="M209.2,426.68c0-3.21,2.6-5.81,5.81-5.81s5.81,2.6,5.81,5.81-2.6,5.81-5.81,5.81-5.81-2.6-5.81-5.81"/>
      <path class="cls-3" d="M207.99,441.73c0-3.88,3.15-7.03,7.03-7.03s7.03,3.15,7.03,7.03-3.15,7.03-7.03,7.03-7.03-3.15-7.03-7.03"/>
      <path class="cls-3" d="M206.51,456.28c0-4.7,3.81-8.5,8.5-8.5s8.5,3.81,8.5,8.5-3.81,8.5-8.5,8.5-8.5-3.81-8.5-8.5"/>
      <path class="cls-3" d="M178.64,396.56c0-1.99,1.61-3.61,3.6-3.61s3.61,1.61,3.61,3.61-1.61,3.61-3.61,3.61-3.6-1.61-3.6-3.61"/>
      <path class="cls-3" d="M177.45,411.63c0-2.65,2.15-4.8,4.8-4.8s4.8,2.15,4.8,4.8-2.15,4.8-4.8,4.8-4.8-2.15-4.8-4.8"/>
      <path class="cls-3" d="M176.44,426.68c0-3.21,2.6-5.81,5.81-5.81s5.81,2.6,5.81,5.81-2.6,5.81-5.81,5.81-5.81-2.6-5.81-5.81"/>
      <path class="cls-3" d="M175.22,441.73c0-3.88,3.15-7.03,7.03-7.03s7.03,3.15,7.03,7.03-3.15,7.03-7.03,7.03-7.03-3.15-7.03-7.03"/>
      <path class="cls-3" d="M173.74,456.28c0-4.7,3.81-8.5,8.5-8.5s8.5,3.81,8.5,8.5-3.81,8.5-8.5,8.5-8.5-3.81-8.5-8.5"/>
      <path class="cls-3" d="M162.26,396.56c0-1.99,1.61-3.61,3.6-3.61s3.61,1.61,3.61,3.61-1.61,3.61-3.61,3.61-3.6-1.61-3.6-3.61"/>
      <path class="cls-3" d="M161.06,411.63c0-2.65,2.15-4.8,4.8-4.8s4.8,2.15,4.8,4.8-2.15,4.8-4.8,4.8-4.8-2.15-4.8-4.8"/>
      <path class="cls-3" d="M160.06,426.68c0-3.21,2.6-5.81,5.81-5.81s5.81,2.6,5.81,5.81-2.6,5.81-5.81,5.81-5.81-2.6-5.81-5.81"/>
      <path class="cls-3" d="M158.84,441.73c0-3.88,3.15-7.03,7.03-7.03s7.03,3.15,7.03,7.03-3.15,7.03-7.03,7.03-7.03-3.15-7.03-7.03"/>
      <path class="cls-3" d="M157.36,456.28c0-4.7,3.81-8.5,8.5-8.5s8.5,3.81,8.5,8.5-3.81,8.5-8.5,8.5-8.5-3.81-8.5-8.5"/>
      <path class="cls-3" d="M187.92,389.05c0-1.39,1.12-2.51,2.51-2.51s2.51,1.12,2.51,2.51-1.12,2.51-2.51,2.51-2.51-1.12-2.51-2.51"/>
      <path class="cls-3" d="M186.39,404.1c0-2.23,1.81-4.05,4.05-4.05s4.05,1.81,4.05,4.05-1.81,4.05-4.05,4.05-4.05-1.81-4.05-4.05"/>
      <path class="cls-3" d="M185.54,419.15c0-2.7,2.19-4.9,4.9-4.9s4.9,2.19,4.9,4.9-2.19,4.9-4.9,4.9-4.9-2.19-4.9-4.9"/>
      <path class="cls-3" d="M183.92,434.2c0-3.6,2.92-6.52,6.52-6.52s6.52,2.92,6.52,6.52-2.92,6.52-6.52,6.52-6.52-2.92-6.52-6.52"/>
      <path class="cls-3" d="M182.55,449.26c0-4.36,3.53-7.89,7.88-7.89s7.89,3.53,7.89,7.89-3.53,7.89-7.89,7.89-7.88-3.53-7.88-7.89"/>
      <path class="cls-3" d="M188.81,374c0-.9.73-1.63,1.63-1.63s1.63.73,1.63,1.63-.73,1.63-1.63,1.63-1.63-.73-1.63-1.63"/>
      <path class="cls-3" d="M189.37,358.95c0-.59.48-1.07,1.07-1.07s1.07.48,1.07,1.07-.48,1.07-1.07,1.07-1.07-.48-1.07-1.07"/>
      <path class="cls-3" d="M196.59,381.52c0-1.12.91-2.04,2.04-2.04s2.04.91,2.04,2.04-.91,2.04-2.04,2.04-2.04-.91-2.04-2.04"/>
      <path class="cls-3" d="M197.29,366.47c0-.74.6-1.33,1.34-1.33s1.34.6,1.34,1.33-.6,1.33-1.34,1.33-1.34-.6-1.34-1.33"/>
      <path class="cls-3" d="M197.75,351.42c0-.48.39-.88.88-.88s.88.39.88.88-.39.88-.88.88-.88-.39-.88-.88"/>
      <path class="cls-3" d="M212.98,381.52c0-1.12.91-2.04,2.04-2.04s2.04.91,2.04,2.04-.91,2.04-2.04,2.04-2.04-.91-2.04-2.04"/>
      <path class="cls-3" d="M180.21,381.52c0-1.12.91-2.04,2.04-2.04s2.04.91,2.04,2.04-.91,2.04-2.04,2.04-2.04-.91-2.04-2.04"/>
      <path class="cls-3" d="M180.91,366.47c0-.74.6-1.33,1.34-1.33s1.34.6,1.34,1.33-.6,1.33-1.34,1.33-1.34-.6-1.34-1.33"/>
      <path class="cls-3" d="M181.37,351.42c0-.48.39-.88.88-.88s.88.39.88.88-.39.88-.88.88-.88-.39-.88-.88"/>
      <path class="cls-3" d="M213.68,366.47c0-.74.6-1.33,1.34-1.33s1.34.6,1.34,1.33-.6,1.33-1.34,1.33-1.34-.6-1.34-1.33"/>
      <path class="cls-3" d="M214.13,351.42c0-.48.39-.88.88-.88s.88.39.88.88-.39.88-.88.88-.88-.39-.88-.88"/>
      <path class="cls-3" d="M164.53,366.47c0-.74.6-1.33,1.34-1.33s1.34.6,1.34,1.33-.6,1.33-1.34,1.33-1.34-.6-1.34-1.33"/>
      <path class="cls-3" d="M164.99,351.42c0-.48.39-.88.88-.88s.88.39.88.88-.39.88-.88.88-.88-.39-.88-.88"/>
      <path class="cls-3" d="M163.83,381.52c0-1.12.91-2.04,2.04-2.04s2.04.91,2.04,2.04-.91,2.04-2.04,2.04-2.04-.91-2.04-2.04"/>
      <path class="cls-3" d="M171.54,389.05c0-1.39,1.12-2.51,2.51-2.51s2.51,1.12,2.51,2.51-1.12,2.51-2.51,2.51-2.51-1.12-2.51-2.51"/>
      <path class="cls-3" d="M170.05,404.1c0-2.21,1.79-4.01,4.01-4.01s4.01,1.79,4.01,4.01-1.79,4.01-4.01,4.01-4.01-1.79-4.01-4.01"/>
      <path class="cls-3" d="M169.21,419.15c0-2.68,2.17-4.85,4.85-4.85s4.85,2.17,4.85,4.85-2.17,4.85-4.85,4.85-4.85-2.17-4.85-4.85"/>
      <path class="cls-3" d="M167.6,434.2c0-3.56,2.89-6.45,6.45-6.45s6.45,2.89,6.45,6.45-2.89,6.45-6.45,6.45-6.45-2.89-6.45-6.45"/>
      <path class="cls-3" d="M166.25,449.26c0-4.31,3.49-7.81,7.81-7.81s7.81,3.49,7.81,7.81-3.5,7.81-7.81,7.81-7.81-3.49-7.81-7.81"/>
      <path class="cls-3" d="M172.42,374c0-.9.73-1.63,1.63-1.63s1.63.73,1.63,1.63-.73,1.63-1.63,1.63-1.63-.73-1.63-1.63"/>
      <path class="cls-3" d="M172.98,358.95c0-.59.48-1.07,1.07-1.07s1.07.48,1.07,1.07-.48,1.07-1.07,1.07-1.07-.48-1.07-1.07"/>
      <path class="cls-3" d="M155.16,389.05c0-1.39,1.12-2.51,2.51-2.51s2.51,1.12,2.51,2.51-1.12,2.51-2.51,2.51-2.51-1.12-2.51-2.51"/>
      <path class="cls-3" d="M153.62,404.1c0-2.23,1.81-4.05,4.05-4.05s4.05,1.81,4.05,4.05-1.81,4.05-4.05,4.05-4.05-1.81-4.05-4.05"/>
      <path class="cls-3" d="M152.77,419.15c0-2.7,2.19-4.9,4.9-4.9s4.9,2.19,4.9,4.9-2.19,4.9-4.9,4.9-4.9-2.19-4.9-4.9"/>
      <path class="cls-3" d="M151.15,434.2c0-3.6,2.92-6.52,6.52-6.52s6.52,2.92,6.52,6.52-2.92,6.52-6.52,6.52-6.52-2.92-6.52-6.52"/>
      <path class="cls-3" d="M149.79,449.26c0-4.36,3.53-7.89,7.88-7.89s7.89,3.53,7.89,7.89-3.53,7.89-7.89,7.89-7.88-3.53-7.88-7.89"/>
      <path class="cls-3" d="M156.02,374c0-.91.74-1.65,1.65-1.65s1.65.74,1.65,1.65-.74,1.65-1.65,1.65-1.65-.74-1.65-1.65"/>
      <path class="cls-3" d="M156.7,358.95c0-.54.44-.97.97-.97s.97.43.97.97-.44.97-.97.97-.97-.43-.97-.97"/>
      <path class="cls-3" d="M145.87,396.56c0-1.99,1.61-3.61,3.6-3.61s3.61,1.61,3.61,3.61-1.61,3.61-3.61,3.61-3.6-1.61-3.6-3.61"/>
      <path class="cls-3" d="M144.68,411.63c0-2.65,2.15-4.8,4.8-4.8s4.8,2.15,4.8,4.8-2.15,4.8-4.8,4.8-4.8-2.15-4.8-4.8"/>
      <path class="cls-3" d="M143.67,426.68c0-3.21,2.6-5.81,5.81-5.81s5.81,2.6,5.81,5.81-2.6,5.81-5.81,5.81-5.81-2.6-5.81-5.81"/>
      <path class="cls-3" d="M142.45,441.73c0-3.88,3.15-7.03,7.03-7.03s7.03,3.15,7.03,7.03-3.15,7.03-7.03,7.03-7.03-3.15-7.03-7.03"/>
      <path class="cls-3" d="M140.98,456.28c0-4.7,3.81-8.5,8.5-8.5s8.5,3.81,8.5,8.5-3.81,8.5-8.5,8.5-8.5-3.81-8.5-8.5"/>
      <path class="cls-3" d="M161.06,411.63c0-2.65,2.15-4.8,4.8-4.8s4.8,2.15,4.8,4.8-2.15,4.8-4.8,4.8-4.8-2.15-4.8-4.8"/>
      <path class="cls-3" d="M160.06,426.68c0-3.21,2.6-5.81,5.81-5.81s5.81,2.6,5.81,5.81-2.6,5.81-5.81,5.81-5.81-2.6-5.81-5.81"/>
      <path class="cls-3" d="M158.84,441.73c0-3.88,3.15-7.03,7.03-7.03s7.03,3.15,7.03,7.03-3.15,7.03-7.03,7.03-7.03-3.15-7.03-7.03"/>
      <path class="cls-3" d="M157.36,456.28c0-4.7,3.81-8.5,8.5-8.5s8.5,3.81,8.5,8.5-3.81,8.5-8.5,8.5-8.5-3.81-8.5-8.5"/>
      <path class="cls-3" d="M129.49,396.56c0-1.99,1.61-3.61,3.6-3.61s3.61,1.61,3.61,3.61-1.61,3.61-3.61,3.61-3.6-1.61-3.6-3.61"/>
      <path class="cls-3" d="M128.3,411.63c0-2.65,2.15-4.8,4.8-4.8s4.8,2.15,4.8,4.8-2.15,4.8-4.8,4.8-4.8-2.15-4.8-4.8"/>
      <path class="cls-3" d="M127.29,426.68c0-3.21,2.6-5.81,5.81-5.81s5.81,2.6,5.81,5.81-2.6,5.81-5.81,5.81-5.81-2.6-5.81-5.81"/>
      <path class="cls-3" d="M126.07,441.73c0-3.88,3.15-7.03,7.03-7.03s7.03,3.15,7.03,7.03-3.15,7.03-7.03,7.03-7.03-3.15-7.03-7.03"/>
      <path class="cls-3" d="M124.6,456.28c0-4.7,3.81-8.5,8.5-8.5s8.5,3.81,8.5,8.5-3.81,8.5-8.5,8.5-8.5-3.81-8.5-8.5"/>
      <path class="cls-3" d="M113.11,396.56c0-1.99,1.61-3.61,3.61-3.61s3.61,1.61,3.61,3.61-1.61,3.61-3.61,3.61-3.61-1.61-3.61-3.61"/>
      <path class="cls-3" d="M111.92,411.63c0-2.65,2.15-4.8,4.8-4.8s4.8,2.15,4.8,4.8-2.15,4.8-4.8,4.8-4.8-2.15-4.8-4.8"/>
      <path class="cls-3" d="M110.91,426.68c0-3.21,2.6-5.81,5.81-5.81s5.81,2.6,5.81,5.81-2.6,5.81-5.81,5.81-5.81-2.6-5.81-5.81"/>
      <path class="cls-3" d="M109.69,441.73c0-3.88,3.15-7.03,7.03-7.03s7.03,3.15,7.03,7.03-3.15,7.03-7.03,7.03-7.03-3.15-7.03-7.03"/>
      <path class="cls-3" d="M108.21,456.28c0-4.7,3.81-8.5,8.5-8.5s8.5,3.81,8.5,8.5-3.81,8.5-8.5,8.5-8.5-3.81-8.5-8.5"/>
      <path class="cls-3" d="M138.78,389.05c0-1.39,1.12-2.51,2.51-2.51s2.51,1.12,2.51,2.51-1.12,2.51-2.51,2.51-2.51-1.12-2.51-2.51"/>
      <path class="cls-3" d="M137.24,404.1c0-2.23,1.81-4.05,4.05-4.05s4.05,1.81,4.05,4.05-1.81,4.05-4.05,4.05-4.05-1.81-4.05-4.05"/>
      <path class="cls-3" d="M136.39,419.15c0-2.7,2.19-4.9,4.9-4.9s4.9,2.19,4.9,4.9-2.19,4.9-4.9,4.9-4.9-2.19-4.9-4.9"/>
      <path class="cls-3" d="M134.77,434.2c0-3.6,2.92-6.52,6.52-6.52s6.52,2.92,6.52,6.52-2.92,6.52-6.52,6.52-6.52-2.92-6.52-6.52"/>
      <path class="cls-3" d="M133.4,449.26c0-4.36,3.53-7.89,7.88-7.89s7.89,3.53,7.89,7.89-3.53,7.89-7.89,7.89-7.88-3.53-7.88-7.89"/>
      <path class="cls-3" d="M139.66,374c0-.9.73-1.63,1.63-1.63s1.63.73,1.63,1.63-.73,1.63-1.63,1.63-1.63-.73-1.63-1.63"/>
      <path class="cls-3" d="M140.22,358.95c0-.59.48-1.07,1.07-1.07s1.07.48,1.07,1.07-.48,1.07-1.07,1.07-1.07-.48-1.07-1.07"/>
      <path class="cls-3" d="M147.44,381.52c0-1.12.91-2.04,2.04-2.04s2.04.91,2.04,2.04-.91,2.04-2.04,2.04-2.04-.91-2.04-2.04"/>
      <path class="cls-3" d="M148.14,366.47c0-.74.6-1.33,1.34-1.33s1.34.6,1.34,1.33-.6,1.33-1.34,1.33-1.34-.6-1.34-1.33"/>
      <path class="cls-3" d="M148.6,351.42c0-.48.39-.88.88-.88s.88.39.88.88-.39.88-.88.88-.88-.39-.88-.88"/>
      <path class="cls-3" d="M163.83,381.52c0-1.12.91-2.04,2.04-2.04s2.04.91,2.04,2.04-.91,2.04-2.04,2.04-2.04-.91-2.04-2.04"/>
      <path class="cls-3" d="M131.06,381.52c0-1.12.91-2.04,2.04-2.04s2.04.91,2.04,2.04-.91,2.04-2.04,2.04-2.04-.91-2.04-2.04"/>
      <path class="cls-3" d="M131.76,366.47c0-.74.6-1.33,1.34-1.33s1.34.6,1.34,1.33-.6,1.33-1.34,1.33-1.34-.6-1.34-1.33"/>
      <path class="cls-3" d="M132.22,351.42c0-.48.39-.88.88-.88s.88.39.88.88-.39.88-.88.88-.88-.39-.88-.88"/>
      <path class="cls-3" d="M164.53,366.47c0-.74.6-1.33,1.34-1.33s1.34.6,1.34,1.33-.6,1.33-1.34,1.33-1.34-.6-1.34-1.33"/>
      <path class="cls-3" d="M164.99,351.42c0-.48.39-.88.88-.88s.88.39.88.88-.39.88-.88.88-.88-.39-.88-.88"/>
      <path class="cls-3" d="M115.38,366.47c0-.74.6-1.33,1.33-1.33s1.34.6,1.34,1.33-.6,1.33-1.34,1.33-1.33-.6-1.33-1.33"/>
      <path class="cls-3" d="M115.84,351.42c0-.48.39-.88.88-.88s.88.39.88.88-.39.88-.88.88-.88-.39-.88-.88"/>
      <path class="cls-3" d="M114.68,381.52c0-1.12.91-2.04,2.04-2.04s2.03.91,2.03,2.04-.91,2.04-2.03,2.04-2.04-.91-2.04-2.04"/>
      <path class="cls-3" d="M122.39,389.05c0-1.39,1.12-2.51,2.51-2.51s2.51,1.12,2.51,2.51-1.12,2.51-2.51,2.51-2.51-1.12-2.51-2.51"/>
      <path class="cls-3" d="M120.9,404.1c0-2.21,1.79-4.01,4.01-4.01s4.01,1.79,4.01,4.01-1.79,4.01-4.01,4.01-4.01-1.79-4.01-4.01"/>
      <path class="cls-3" d="M120.06,419.15c0-2.68,2.17-4.85,4.85-4.85s4.85,2.17,4.85,4.85-2.17,4.85-4.85,4.85-4.85-2.17-4.85-4.85"/>
      <path class="cls-3" d="M118.45,434.2c0-3.56,2.89-6.45,6.45-6.45s6.45,2.89,6.45,6.45-2.89,6.45-6.45,6.45-6.45-2.89-6.45-6.45"/>
      <path class="cls-3" d="M117.1,449.26c0-4.31,3.5-7.81,7.81-7.81s7.81,3.49,7.81,7.81-3.49,7.81-7.81,7.81-7.81-3.49-7.81-7.81"/>
      <path class="cls-3" d="M123.27,374c0-.9.73-1.63,1.63-1.63s1.63.73,1.63,1.63-.73,1.63-1.63,1.63-1.63-.73-1.63-1.63"/>
      <path class="cls-3" d="M123.83,358.95c0-.59.48-1.07,1.07-1.07s1.07.48,1.07,1.07-.48,1.07-1.07,1.07-1.07-.48-1.07-1.07"/>
      <path class="cls-3" d="M106.01,389.05c0-1.39,1.12-2.51,2.51-2.51s2.51,1.12,2.51,2.51-1.12,2.51-2.51,2.51-2.51-1.12-2.51-2.51"/>
      <path class="cls-3" d="M104.48,404.1c0-2.23,1.81-4.05,4.05-4.05s4.05,1.81,4.05,4.05-1.81,4.05-4.05,4.05-4.05-1.81-4.05-4.05"/>
      <path class="cls-3" d="M103.63,419.15c0-2.7,2.19-4.9,4.9-4.9s4.9,2.19,4.9,4.9-2.19,4.9-4.9,4.9-4.9-2.19-4.9-4.9"/>
      <path class="cls-3" d="M102.01,434.2c0-3.6,2.92-6.52,6.52-6.52s6.52,2.92,6.52,6.52-2.92,6.52-6.52,6.52-6.52-2.92-6.52-6.52"/>
      <path class="cls-3" d="M100.64,449.26c0-4.36,3.53-7.89,7.89-7.89s7.89,3.53,7.89,7.89-3.53,7.89-7.89,7.89-7.89-3.53-7.89-7.89"/>
      <path class="cls-3" d="M106.88,374c0-.91.74-1.65,1.65-1.65s1.65.74,1.65,1.65-.74,1.65-1.65,1.65-1.65-.74-1.65-1.65"/>
      <path class="cls-3" d="M107.55,358.95c0-.54.44-.97.97-.97s.97.43.97.97-.44.97-.97.97-.97-.43-.97-.97"/>
      <path class="cls-3" d="M96.73,396.56c0-1.99,1.61-3.61,3.61-3.61s3.61,1.61,3.61,3.61-1.61,3.61-3.61,3.61-3.61-1.61-3.61-3.61"/>
      <path class="cls-3" d="M95.54,411.63c0-2.65,2.15-4.8,4.8-4.8s4.8,2.15,4.8,4.8-2.15,4.8-4.8,4.8-4.8-2.15-4.8-4.8"/>
      <path class="cls-3" d="M94.53,426.68c0-3.21,2.6-5.81,5.81-5.81s5.81,2.6,5.81,5.81-2.6,5.81-5.81,5.81-5.81-2.6-5.81-5.81"/>
      <path class="cls-3" d="M93.31,441.73c0-3.88,3.15-7.03,7.03-7.03s7.03,3.15,7.03,7.03-3.15,7.03-7.03,7.03-7.03-3.15-7.03-7.03"/>
      <path class="cls-3" d="M91.83,456.28c0-4.7,3.81-8.5,8.5-8.5s8.5,3.81,8.5,8.5-3.81,8.5-8.5,8.5-8.5-3.81-8.5-8.5"/>
      <path class="cls-3" d="M111.92,411.63c0-2.65,2.15-4.8,4.8-4.8s4.8,2.15,4.8,4.8-2.15,4.8-4.8,4.8-4.8-2.15-4.8-4.8"/>
      <path class="cls-3" d="M110.91,426.68c0-3.21,2.6-5.81,5.81-5.81s5.81,2.6,5.81,5.81-2.6,5.81-5.81,5.81-5.81-2.6-5.81-5.81"/>
      <path class="cls-3" d="M109.69,441.73c0-3.88,3.15-7.03,7.03-7.03s7.03,3.15,7.03,7.03-3.15,7.03-7.03,7.03-7.03-3.15-7.03-7.03"/>
      <path class="cls-3" d="M108.22,456.28c0-4.7,3.81-8.5,8.5-8.5s8.5,3.81,8.5,8.5-3.81,8.5-8.5,8.5-8.5-3.81-8.5-8.5"/>
      <path class="cls-3" d="M80.35,396.56c0-1.99,1.61-3.61,3.61-3.61s3.61,1.61,3.61,3.61-1.61,3.61-3.61,3.61-3.61-1.61-3.61-3.61"/>
      <path class="cls-3" d="M79.15,411.63c0-2.65,2.15-4.8,4.8-4.8s4.8,2.15,4.8,4.8-2.15,4.8-4.8,4.8-4.8-2.15-4.8-4.8"/>
      <path class="cls-3" d="M78.15,426.68c0-3.21,2.6-5.81,5.81-5.81s5.81,2.6,5.81,5.81-2.6,5.81-5.81,5.81-5.81-2.6-5.81-5.81"/>
      <path class="cls-3" d="M76.93,441.73c0-3.88,3.15-7.03,7.03-7.03s7.03,3.15,7.03,7.03-3.15,7.03-7.03,7.03-7.03-3.15-7.03-7.03"/>
      <path class="cls-3" d="M75.45,456.28c0-4.7,3.81-8.5,8.5-8.5s8.5,3.81,8.5,8.5-3.81,8.5-8.5,8.5-8.5-3.81-8.5-8.5"/>
      <path class="cls-3" d="M63.97,396.56c0-1.99,1.61-3.61,3.6-3.61s3.61,1.61,3.61,3.61-1.61,3.61-3.61,3.61-3.6-1.61-3.6-3.61"/>
      <path class="cls-3" d="M62.77,411.63c0-2.65,2.15-4.8,4.8-4.8s4.8,2.15,4.8,4.8-2.15,4.8-4.8,4.8-4.8-2.15-4.8-4.8"/>
      <path class="cls-3" d="M61.76,426.68c0-3.21,2.6-5.81,5.81-5.81s5.81,2.6,5.81,5.81-2.6,5.81-5.81,5.81-5.81-2.6-5.81-5.81"/>
      <path class="cls-3" d="M60.54,441.73c0-3.88,3.15-7.03,7.03-7.03s7.03,3.15,7.03,7.03-3.15,7.03-7.03,7.03-7.03-3.15-7.03-7.03"/>
      <path class="cls-3" d="M59.07,456.28c0-4.7,3.81-8.5,8.5-8.5s8.5,3.81,8.5,8.5-3.81,8.5-8.5,8.5-8.5-3.81-8.5-8.5"/>
      <path class="cls-3" d="M89.63,389.05c0-1.39,1.12-2.51,2.51-2.51s2.51,1.12,2.51,2.51-1.12,2.51-2.51,2.51-2.51-1.12-2.51-2.51"/>
      <path class="cls-3" d="M88.1,404.1c0-2.23,1.81-4.05,4.05-4.05s4.05,1.81,4.05,4.05-1.81,4.05-4.05,4.05-4.05-1.81-4.05-4.05"/>
      <path class="cls-3" d="M87.25,419.15c0-2.7,2.19-4.9,4.9-4.9s4.9,2.19,4.9,4.9-2.19,4.9-4.9,4.9-4.9-2.19-4.9-4.9"/>
      <path class="cls-3" d="M85.63,434.2c0-3.6,2.92-6.52,6.52-6.52s6.52,2.92,6.52,6.52-2.92,6.52-6.52,6.52-6.52-2.92-6.52-6.52"/>
      <path class="cls-3" d="M84.26,449.26c0-4.36,3.53-7.89,7.89-7.89s7.89,3.53,7.89,7.89-3.53,7.89-7.89,7.89-7.89-3.53-7.89-7.89"/>
      <path class="cls-3" d="M90.51,374c0-.9.73-1.63,1.63-1.63s1.63.73,1.63,1.63-.73,1.63-1.63,1.63-1.63-.73-1.63-1.63"/>
      <path class="cls-3" d="M91.07,358.95c0-.59.48-1.07,1.07-1.07s1.07.48,1.07,1.07-.48,1.07-1.07,1.07-1.07-.48-1.07-1.07"/>
      <path class="cls-3" d="M98.3,381.52c0-1.12.91-2.04,2.04-2.04s2.03.91,2.03,2.04-.91,2.04-2.03,2.04-2.04-.91-2.04-2.04"/>
      <path class="cls-3" d="M99,366.47c0-.74.6-1.33,1.33-1.33s1.34.6,1.34,1.33-.6,1.33-1.34,1.33-1.33-.6-1.33-1.33"/>
      <path class="cls-3" d="M99.46,351.42c0-.48.39-.88.88-.88s.88.39.88.88-.39.88-.88.88-.88-.39-.88-.88"/>
      <path class="cls-3" d="M114.68,381.52c0-1.12.91-2.04,2.04-2.04s2.03.91,2.03,2.04-.91,2.04-2.03,2.04-2.04-.91-2.04-2.04"/>
      <path class="cls-3" d="M81.92,381.52c0-1.12.91-2.04,2.04-2.04s2.03.91,2.03,2.04-.91,2.04-2.03,2.04-2.04-.91-2.04-2.04"/>
      <path class="cls-3" d="M82.62,366.47c0-.74.6-1.33,1.33-1.33s1.34.6,1.34,1.33-.6,1.33-1.34,1.33-1.33-.6-1.33-1.33"/>
      <path class="cls-3" d="M83.08,351.42c0-.48.39-.88.88-.88s.88.39.88.88-.39.88-.88.88-.88-.39-.88-.88"/>
      <path class="cls-3" d="M115.38,366.47c0-.74.6-1.33,1.33-1.33s1.34.6,1.34,1.33-.6,1.33-1.34,1.33-1.33-.6-1.33-1.33"/>
      <path class="cls-3" d="M115.84,351.42c0-.48.39-.88.88-.88s.88.39.88.88-.39.88-.88.88-.88-.39-.88-.88"/>
      <path class="cls-3" d="M66.24,366.47c0-.74.6-1.33,1.33-1.33s1.34.6,1.34,1.33-.6,1.33-1.34,1.33-1.33-.6-1.33-1.33"/>
      <path class="cls-3" d="M66.69,351.42c0-.48.39-.88.88-.88s.88.39.88.88-.39.88-.88.88-.88-.39-.88-.88"/>
      <path class="cls-3" d="M65.54,381.52c0-1.12.91-2.04,2.04-2.04s2.03.91,2.03,2.04-.91,2.04-2.03,2.04-2.04-.91-2.04-2.04"/>
      <path class="cls-3" d="M73.25,389.05c0-1.39,1.12-2.51,2.51-2.51s2.51,1.12,2.51,2.51-1.12,2.51-2.51,2.51-2.51-1.12-2.51-2.51"/>
      <path class="cls-3" d="M71.76,404.1c0-2.21,1.79-4.01,4.01-4.01s4.01,1.79,4.01,4.01-1.79,4.01-4.01,4.01-4.01-1.79-4.01-4.01"/>
      <path class="cls-3" d="M70.91,419.15c0-2.68,2.17-4.85,4.85-4.85s4.85,2.17,4.85,4.85-2.17,4.85-4.85,4.85-4.85-2.17-4.85-4.85"/>
      <path class="cls-3" d="M69.31,434.2c0-3.56,2.89-6.45,6.45-6.45s6.45,2.89,6.45,6.45-2.89,6.45-6.45,6.45-6.45-2.89-6.45-6.45"/>
      <path class="cls-3" d="M67.96,449.26c0-4.31,3.5-7.81,7.81-7.81s7.81,3.49,7.81,7.81-3.5,7.81-7.81,7.81-7.81-3.49-7.81-7.81"/>
      <path class="cls-3" d="M74.13,374c0-.9.73-1.63,1.63-1.63s1.63.73,1.63,1.63-.73,1.63-1.63,1.63-1.63-.73-1.63-1.63"/>
      <path class="cls-3" d="M74.69,358.95c0-.59.48-1.07,1.07-1.07s1.07.48,1.07,1.07-.48,1.07-1.07,1.07-1.07-.48-1.07-1.07"/>
    </g>
    <g class="cls-11">
      <path class="cls-3" d="M343.04,600.19c1.92-9.15,8.4-14.49,17.88-14.49,10.68,0,15.84,6.65,15.84,14.02v.47h-33.72ZM361.82,636.43c9.06,0,17.04-2.85,21.3-7.25l.72-9.39h-1.08c-4.14,4.87-11.34,7.96-19.86,7.96-12.78,0-19.98-7.31-20.46-19.48h43.92v-3.21c0-18.41-10.08-28.04-25.32-28.04-16.26,0-28.5,11.35-28.5,29.22v.83c0,18.65,11.76,29.34,29.28,29.34"/>
      <path class="cls-3" d="M345.29,695.78c1.8-7.9,7.38-12.53,15.54-12.53,9.36,0,13.8,5.7,13.8,12.06v.48h-29.34ZM362.27,732.43c9.24,0,17.4-2.61,22.02-6.77l1.02-11.05h-1.8c-4.26,4.46-10.98,7.13-19.14,7.13-11.76,0-18.66-5.76-19.56-16.75h43.08v-3.8c0-19.01-11.22-28.16-26.94-28.16-17.16,0-29.94,11.17-29.94,29.22v1.13c0,18.53,12.24,29.05,31.26,29.05"/>
      <path class="cls-3" d="M347.63,791.36c1.62-6.65,6.3-10.63,13.2-10.63,7.92,0,11.7,4.81,11.7,10.1v.53h-24.9ZM362.81,828.43c9.42,0,17.7-2.32,22.74-6.3l1.32-12.71h-2.52c-4.44,4.04-10.68,6.3-18.48,6.3-10.62,0-17.22-4.4-18.6-13.96h42.12v-4.46c0-19.66-12.3-28.27-28.44-28.27-18.12,0-31.44,10.99-31.44,29.28v1.43c0,18.41,12.72,28.69,33.3,28.69"/>
    </g>
    <rect class="cls-3" x="14" y="430" width="205.8" height="48"/>
    <g class="cls-14">
      <path class="cls-3" d="M493.75,43.44h1.28v-5.18c.61-.98,1.28-1.54,2.41-1.54s1.66.59,1.66,1.9v4.82h1.28v-4.78c0-1.98-.88-3.02-2.66-3.02-1.34,0-2.14.57-2.68,1.3v-4.38h-1.28v10.88ZM487.15,36.91h1.49v4.14c0,1.66.66,2.39,2.45,2.39h.93v-.09l-.11-1h-.85c-.85,0-1.14-.43-1.14-1.3v-4.14h2.11v-1.09h-2.11v-2h-1.28v2h-1.49v1.09ZM479.66,39.74v-.14c0-1.91.89-2.79,2.31-2.79,1.08,0,1.83.49,2.3.98v3.58c-.54.7-1.33,1.13-2.32,1.13-1.42,0-2.29-.88-2.29-2.76M481.84,43.63c1.05,0,1.93-.4,2.42-.96v.77h1.28v-10.88h-1.28v3.88c-.5-.4-1.31-.81-2.41-.81-2.05,0-3.48,1.45-3.48,3.96v.14c0,2.4,1.46,3.9,3.46,3.9M473.98,33.6c0,.58.48,1.06,1.06,1.06s1.06-.48,1.06-1.06-.48-1.06-1.06-1.06-1.06.48-1.06,1.06M472.94,43.44h4.22v-1.09h-1.47v-6.53h-2.64l-.14.96v.13h1.5v5.44h-1.47v1.09ZM462.29,43.44h2.22l1.49-6.53h.26l1.49,6.53h2.22l1.69-7.62h-1.33l-1.34,6.53h-.37l-1.48-6.53h-1.98l-1.5,6.53h-.37l-1.31-6.53h-1.36l1.69,7.62ZM450.37,41.92l3.82-7.03c.47.74.74,1.78.74,3.03v.22c0,2.6-1.16,4.25-3.02,4.25-.58,0-1.1-.16-1.53-.46M448.88,38.14v-.22c0-2.64,1.15-4.3,3.02-4.3.58,0,1.08.16,1.51.45l-3.82,7.03c-.46-.73-.72-1.74-.72-2.96M451.9,43.63c2.77,0,4.37-2.39,4.37-5.5v-.22c0-3.14-1.58-5.55-4.37-5.55s-4.37,2.42-4.37,5.55v.22c0,3.11,1.61,5.5,4.37,5.5M439.97,41.92l3.82-7.03c.47.74.74,1.78.74,3.03v.22c0,2.6-1.16,4.25-3.02,4.25-.58,0-1.1-.16-1.53-.46M438.48,38.14v-.22c0-2.64,1.15-4.3,3.02-4.3.58,0,1.08.16,1.51.45l-3.82,7.03c-.46-.73-.72-1.74-.72-2.96M441.5,43.63c2.77,0,4.37-2.39,4.37-5.5v-.22c0-3.14-1.58-5.55-4.37-5.55s-4.37,2.42-4.37,5.55v.22c0,3.11,1.61,5.5,4.37,5.5M427.48,43.44h7.57v-1.21h-3.1v-9.67h-3.74l-.54.99v.26h2.98v8.42h-3.15v1.21ZM413.52,32.48h-1.34v8.24h6.03l-1.79,1.78.93.94,3.39-3.4-3.39-3.39-.93.92,1.82,1.82h-4.72v-6.9Z"/>
      <path class="cls-3" d="M549.73,20.91h1.49v4.14c0,1.66.66,2.39,2.45,2.39h.93v-.09l-.11-1h-.85c-.85,0-1.14-.43-1.14-1.3v-4.14h2.11v-1.09h-2.11v-2h-1.28v2h-1.49v1.09ZM541.59,27.44h1.28v-5.18c.61-.98,1.28-1.54,2.41-1.54s1.66.59,1.66,1.9v4.82h1.28v-4.78c0-1.98-.88-3.02-2.66-3.02-1.34,0-2.14.57-2.68,1.3v-4.38h-1.28v10.88ZM533.32,23.74v-.14c0-1.91.89-2.79,2.31-2.79,1.08,0,1.83.49,2.3.98v3.58c-.54.7-1.33,1.13-2.32,1.13-1.42,0-2.29-.88-2.29-2.76M535.73,30.9c1.97,0,3.46-1.01,3.46-2.98v-8.1h-1.29v.59c-.5-.39-1.3-.78-2.38-.78-2.07,0-3.52,1.45-3.52,3.96v.14c0,2.4,1.47,3.9,3.5,3.9,1.02,0,1.89-.38,2.39-.92v1.21c0,1.23-.88,1.81-2.17,1.81-1.42,0-2.51-.68-3.05-1.39h-.19l.21,1.57c.56.48,1.63.99,3.03.99M527.6,17.6c0,.58.48,1.06,1.06,1.06s1.06-.48,1.06-1.06-.48-1.06-1.06-1.06-1.06.48-1.06,1.06M526.56,27.44h4.22v-1.09h-1.47v-6.53h-2.64l-.14.96v.13h1.5v5.44h-1.47v1.09ZM519.42,22.75c.26-1.23,1.12-1.95,2.38-1.95,1.42,0,2.11.9,2.11,1.89v.06h-4.5ZM521.92,27.63c1.21,0,2.27-.38,2.84-.98l.1-1.26h-.14c-.55.66-1.51,1.07-2.65,1.07-1.7,0-2.66-.98-2.73-2.62h5.86v-.43c0-2.48-1.34-3.78-3.38-3.78-2.17,0-3.8,1.53-3.8,3.94v.11c0,2.51,1.57,3.95,3.9,3.95M507.37,27.44h2.22l1.49-6.53h.26l1.49,6.53h2.22l1.69-7.62h-1.33l-1.34,6.53h-.37l-1.48-6.53h-1.98l-1.5,6.53h-.37l-1.31-6.53h-1.36l1.69,7.62ZM495.45,25.92l3.82-7.03c.47.74.74,1.78.74,3.03v.22c0,2.6-1.16,4.25-3.02,4.25-.58,0-1.1-.16-1.53-.46M493.95,22.14v-.22c0-2.64,1.15-4.3,3.02-4.3.58,0,1.08.16,1.51.45l-3.82,7.03c-.46-.73-.72-1.74-.72-2.96M496.98,27.63c2.77,0,4.37-2.39,4.37-5.5v-.22c0-3.14-1.58-5.55-4.37-5.55s-4.37,2.42-4.37,5.55v.22c0,3.11,1.61,5.5,4.37,5.5M485.05,25.92l3.82-7.03c.47.74.74,1.78.74,3.03v.22c0,2.6-1.16,4.25-3.02,4.25-.58,0-1.1-.16-1.53-.46M483.55,22.14v-.22c0-2.64,1.15-4.3,3.02-4.3.58,0,1.08.16,1.51.45l-3.82,7.03c-.46-.73-.72-1.74-.72-2.96M486.58,27.63c2.77,0,4.37-2.39,4.37-5.5v-.22c0-3.14-1.58-5.55-4.37-5.55s-4.37,2.42-4.37,5.55v.22c0,3.11,1.61,5.5,4.37,5.5M474.35,24v-.22c0-1.34,1.03-2.29,2.64-2.29s2.61.95,2.61,2.27v.24c0,1.39-1.03,2.38-2.64,2.38s-2.61-.99-2.61-2.38M476.96,27.63c2.31,0,3.99-1.56,3.99-3.63v-.24c0-2.1-1.51-3.52-3.69-3.52-.98,0-1.68.28-2.15.66.7-1.44,2.3-2.97,3.76-4.34h-1.7c-1.68,1.6-4.17,3.91-4.17,7.02v.27c0,2.19,1.61,3.78,3.96,3.78M463.5,17.61l3.46,3.46h-8.38v1.34h8.41l-3.49,3.48.95.95,4.14-4.14.94-.94-.94-.95-4.14-4.14-.96.95ZM450.37,25.92l3.82-7.03c.47.74.74,1.78.74,3.03v.22c0,2.6-1.16,4.25-3.02,4.25-.58,0-1.1-.16-1.53-.46M448.88,22.14v-.22c0-2.64,1.15-4.3,3.02-4.3.58,0,1.08.16,1.51.45l-3.82,7.03c-.46-.73-.72-1.74-.72-2.96M451.9,27.63c2.77,0,4.37-2.39,4.37-5.5v-.22c0-3.14-1.58-5.55-4.37-5.55s-4.37,2.42-4.37,5.55v.22c0,3.11,1.61,5.5,4.37,5.5M439.97,25.92l3.82-7.03c.47.74.74,1.78.74,3.03v.22c0,2.6-1.16,4.25-3.02,4.25-.58,0-1.1-.16-1.53-.46M438.48,22.14v-.22c0-2.64,1.15-4.3,3.02-4.3.58,0,1.08.16,1.51.45l-3.82,7.03c-.46-.73-.72-1.74-.72-2.96M441.5,27.63c2.77,0,4.37-2.39,4.37-5.5v-.22c0-3.14-1.58-5.55-4.37-5.55s-4.37,2.42-4.37,5.55v.22c0,3.11,1.61,5.5,4.37,5.5M428.36,23.04v-.13l3.5-5.1h.18v5.23h-3.68ZM432.04,27.44h1.34v-3.15h1.52l.32-1.06v-.19h-1.84v-6.48h-2.03l-4.5,6.35v1.38h5.18v3.15ZM413.52,16.48h-1.34v8.24h6.03l-1.79,1.78.93.94,3.39-3.4-3.39-3.39-.93.92,1.82,1.82h-4.72v-6.9Z"/>
      <path class="cls-4" d="M219.49,462h55.12v-223.24c26.18-40.31,55.12-62.7,103.69-62.7s71.31,24.46,71.31,78.55v207.39h55.12v-206.01c0-85.44-38.24-130.22-114.03-130.22-57.53,0-93.36,26.18-116.1,56.15v-47.89h-55.12v327.96Z"/>
    </g>
  </g>
</svg>