<?xml version="1.0" encoding="UTF-8"?>
<svg id="Calque_1" data-name="Calque 1" xmlns="http://www.w3.org/2000/svg" xmlns:xlink="http://www.w3.org/1999/xlink" viewBox="0 0 616 860">
  <defs>
    <style>
      .cls-1, .cls-2, .cls-3 {
        stroke-width: 0px;
      }

      .cls-1, .cls-4 {
        fill: none;
      }

      .cls-5 {
        clip-path: url(#clippath-4);
      }

      .cls-6 {
        clip-path: url(#clippath-7);
      }

      .cls-7 {
        clip-path: url(#clippath-6);
      }

      .cls-8 {
        clip-path: url(#clippath-5);
      }

      .cls-9 {
        clip-path: url(#clippath-13);
      }

      .cls-10 {
        clip-path: url(#clippath-12);
      }

      .cls-11 {
        clip-path: url(#clippath-10);
      }

      .cls-12 {
        clip-path: url(#clippath-11);
      }

      .cls-4 {
        stroke: #fff;
      }

      .cls-3 {
        fill: #fff;
      }
    </style>
    <clipPath id="clippath">
      <rect class="cls-1" x="-1908" width="616" height="860"/>
    </clipPath>
    <clipPath id="clippath-1">
      <rect class="cls-1" x="-1908" width="616" height="860"/>
    </clipPath>
    <clipPath id="clippath-2">
      <rect class="cls-1" x="-1472.4" y="62.57" width="180.4" height="241.13"/>
    </clipPath>
    <clipPath id="clippath-4">
      <rect class="cls-1" width="616" height="860"/>
    </clipPath>
    <clipPath id="clippath-5">
      <rect class="cls-1" width="616" height="860"/>
    </clipPath>
    <clipPath id="clippath-6">
      <rect class="cls-1" width="616" height="860"/>
    </clipPath>
    <clipPath id="clippath-7">
      <rect class="cls-1" width="616" height="860"/>
    </clipPath>
    <clipPath id="clippath-8">
      <rect class="cls-1" x="14.78" y="323.81" width="586.44" height="522.19"/>
    </clipPath>
    <clipPath id="clippath-10">
      <rect class="cls-1" x="14.78" y="323.81" width="586.44" height="522.19"/>
    </clipPath>
    <clipPath id="clippath-11">
      <rect class="cls-1" x="14.78" y="323.81" width="586.44" height="522.19"/>
    </clipPath>
    <clipPath id="clippath-12">
      <rect class="cls-1" x="14.78" y="323.81" width="586.44" height="522.19"/>
    </clipPath>
    <clipPath id="clippath-13">
      <rect class="cls-1" x="14.78" y="323.81" width="586.44" height="522.19"/>
    </clipPath>
    <clipPath id="clippath-14">
      <rect class="cls-1" x="636" width="616" height="860"/>
    </clipPath>
    <clipPath id="clippath-15">
      <rect class="cls-1" x="636" width="616" height="860"/>
    </clipPath>
    <clipPath id="clippath-16">
      <rect class="cls-1" x="636" y="126" width="263.19" height="288"/>
    </clipPath>
    <clipPath id="clippath-18">
      <rect class="cls-1" x="997.8" y="419.47" width="240.99" height="244.91"/>
    </clipPath>
    <clipPath id="clippath-20">
      <rect class="cls-1" x="1046.9" y="34.96" width="191.1" height="237.16"/>
    </clipPath>
  </defs>
  <g class="cls-5">
    <g class="cls-8">
      <polygon class="cls-3" points="251.33 846 364.68 846 580.5 319.32 481.5 319.32 314.19 727.7 146.88 319.32 35.51 319.32 251.33 846"/>
      <polygon class="cls-3" points="127.58 302 177.96 302 273.88 67.92 229.88 67.92 155.52 249.42 81.16 67.92 31.66 67.92 127.58 302"/>
      <polygon class="cls-3" points="155.61 84.28 140.91 67.58 170.31 67.58 155.61 84.28"/>
      <line class="cls-4" x1="291.86" y1="67.58" x2="601.95" y2="319.36"/>
      <g class="cls-7">
        <path class="cls-2" d="M291.86,69.85c1.26,0,2.28-1.02,2.28-2.28s-1.02-2.28-2.28-2.28-2.28,1.02-2.28,2.28,1.02,2.28,2.28,2.28"/>
        <path class="cls-4" d="M291.86,69.85c1.26,0,2.28-1.02,2.28-2.28s-1.02-2.28-2.28-2.28-2.28,1.02-2.28,2.28,1.02,2.28,2.28,2.28Z"/>
        <path class="cls-2" d="M14,70.96c1.26,0,2.28-1.02,2.28-2.28s-1.02-2.28-2.28-2.28-2.28,1.02-2.28,2.28,1.02,2.28,2.28,2.28"/>
        <path class="cls-4" d="M14,70.96c1.26,0,2.28-1.02,2.28-2.28s-1.02-2.28-2.28-2.28-2.28,1.02-2.28,2.28,1.02,2.28,2.28,2.28Z"/>
        <path class="cls-2" d="M601.95,321.64c1.26,0,2.28-1.02,2.28-2.28s-1.02-2.28-2.28-2.28-2.28,1.02-2.28,2.28,1.02,2.28,2.28,2.28"/>
        <path class="cls-4" d="M601.95,321.64c1.26,0,2.28-1.02,2.28-2.28s-1.02-2.28-2.28-2.28-2.28,1.02-2.28,2.28,1.02,2.28,2.28,2.28Z"/>
        <path class="cls-3" d="M96.41,32.86h-1.19l-2.84,1.44v1.46l2.56-1.18v8.56h1.47v-10.28ZM85.88,41.75l3.32-6.32c.18.52.28,1.16.28,1.95v1.26c0,2.33-.85,3.44-2.38,3.44-.48,0-.88-.1-1.22-.32M84.72,38.63v-1.26c0-2.32.85-3.44,2.38-3.44.48,0,.88.11,1.22.32l-3.32,6.32c-.18-.52-.28-1.16-.28-1.95M87.1,43.36c2.67,0,3.85-1.97,3.85-4.73v-1.26c0-2.76-1.18-4.73-3.85-4.73s-3.85,1.97-3.85,4.73v1.26c0,2.76,1.18,4.73,3.85,4.73M72.61,43.14h1.46v-4.75c.08-.95.84-1.66,1.88-1.66,1.23,0,1.71.73,1.71,1.83v4.58h1.46v-4.87c0-1.95-1.13-2.8-2.78-2.8-.93,0-1.77.34-2.27.88v-.66h-1.46v7.45ZM65.88,41.26v-.1c0-.6.54-.86,1.62-1.12.82-.19,1.46-.37,1.9-.6v1.13c0,1.11-1.06,1.58-2.04,1.58-.85,0-1.48-.29-1.48-.88M67.1,43.36c1.05,0,1.84-.32,2.33-.8.02.25.06.43.09.58h1.48c-.08-.39-.15-.95-.15-2.03v-3.09c0-1.62-1.21-2.55-3.11-2.55s-3.25.93-3.25,2.62v.16h1.46v-.16c0-.83.47-1.4,1.75-1.4s1.68.57,1.68,1.02v.09c0,.51-.48.69-2.09,1.04-1.46.32-2.87.94-2.87,2.39v.11c0,1.27,1.12,2.02,2.69,2.02M61.42,43.14h1.46v-10.28h-1.46v10.28ZM53.83,39.54v-.25c0-1.54.88-2.56,2.37-2.56s2.33,1.02,2.33,2.56v.25c0,1.54-.84,2.59-2.33,2.59s-2.37-1.05-2.37-2.59M56.48,43.36c2.3,0,3.52-1.64,3.52-3.75v-.39c0-2.14-1.22-3.72-3.52-3.72-1.17,0-2.08.4-2.65,1.04v-.85h-1.46v10.44h1.46v-3.85c.57.65,1.49,1.08,2.65,1.08M44.06,43.14h1.45v-2.06l1.18-1.18,2.52,3.24h1.84l-3.33-4.28,3.15-3.16h-1.88l-3.48,3.5v-6.34h-1.45v10.28ZM38.46,43.14h1.46v-4.3c0-1.39.78-2.08,1.92-2.08h.91v-1.29h-.98c-.8,0-1.43.31-1.85.82v-.59h-1.46v7.45ZM30.88,39.5v-.17c0-1.62.88-2.64,2.35-2.64s2.34,1.02,2.34,2.64v.17c0,1.62-.88,2.64-2.34,2.64s-2.35-1.02-2.35-2.64M33.23,43.36c2.37,0,3.81-1.47,3.81-3.88v-.14c0-2.41-1.45-3.88-3.81-3.88s-3.82,1.47-3.82,3.88v.14c0,2.41,1.45,3.88,3.82,3.88M17.93,43.14h1.68l2.51-8.37,2.51,8.37h1.68l3.28-10.28h-1.54l-2.63,8.24-2.46-8.24h-1.65l-2.47,8.24-2.62-8.24h-1.55l3.28,10.28Z"/>
        <path class="cls-3" d="M65.3,25.26v-.1c0-.6.54-.86,1.62-1.12.82-.19,1.46-.37,1.9-.6v1.13c0,1.11-1.06,1.58-2.04,1.58-.85,0-1.48-.29-1.48-.88M66.51,27.36c1.05,0,1.84-.32,2.32-.8.02.25.06.43.09.58h1.48c-.08-.39-.15-.95-.15-2.03v-3.09c0-1.62-1.21-2.55-3.11-2.55s-3.25.93-3.25,2.62v.16h1.45v-.16c0-.83.47-1.4,1.75-1.4s1.68.57,1.68,1.02v.09c0,.51-.48.69-2.09,1.04-1.46.32-2.87.94-2.87,2.39v.11c0,1.27,1.12,2.02,2.69,2.02M59.35,27.36c2.07,0,3.16-.93,3.16-2.33v-.06c0-1.25-.83-2.02-2.21-2.21l-1.59-.21c-.66-.08-1.01-.36-1.01-.83v-.06c0-.54.53-.98,1.65-.98s1.65.45,1.65,1.07v.04h1.47v-.04c0-1.32-1.06-2.3-3.12-2.3s-3.12.98-3.12,2.27v.06c0,1.23.83,2,2.16,2.18l1.59.21c.72.1,1.06.41,1.06.88v.06c0,.59-.48,1.02-1.69,1.02s-1.72-.43-1.72-1.04v-.06h-1.47v.06c0,1.34,1.13,2.27,3.18,2.27M48.99,22.63c.22-1.25,1.04-1.94,2.29-1.94,1.46,0,2.16.95,2.16,1.94h-4.45ZM51.27,27.36c2.3,0,3.6-1.4,3.6-2.84v-.07h-1.45v.07c0,.77-.68,1.61-2.14,1.61-1.36,0-2.23-.83-2.33-2.32h5.96v-.85c0-2.03-1.22-3.5-3.63-3.5s-3.81,1.47-3.81,3.88v.14c0,2.41,1.45,3.88,3.81,3.88M42.25,27.14h1.65l4.14-10.28h-1.47l-3.44,8.56-3.44-8.56h-1.59l4.14,10.28ZM27.22,27.14h1.47v-4.52h5.14v-1.26h-5.14v-3.23h5.82v-1.26h-7.29v10.28ZM15.12,27.14h1.47v-8l2.9,8h1.12l2.9-8v8h1.47v-10.28h-2.06l-2.87,7.92-2.87-7.92h-2.06v10.28Z"/>
        <path class="cls-3" d="M511.45,43.14h1.46v-4.75c.08-.95.84-1.66,1.88-1.66,1.22,0,1.71.73,1.71,1.83v4.58h1.46v-4.87c0-1.95-1.13-2.8-2.78-2.8-.93,0-1.77.34-2.27.88v-3.49h-1.46v10.28ZM508.44,43.14h1.48v-1.19h-1.12c-.6,0-.98-.29-.98-.98v-4.09h2.1v-1.19h-2.37c.2-.14.31-.32.31-.71v-1.15h-1.45v1.19c0,.52-.24.67-.73.67h-.59v1.19h1.27v4.09c0,1.58.99,2.17,2.07,2.17M497.61,39.54v-.25c0-1.54.84-2.56,2.33-2.56s2.37,1.02,2.37,2.56v.25c0,1.54-.88,2.59-2.37,2.59s-2.33-1.05-2.33-2.59M499.66,43.36c1.16,0,2.08-.43,2.65-1.08v.85h1.45v-10.28h-1.45v3.67c-.57-.64-1.48-1.04-2.65-1.04-2.3,0-3.52,1.58-3.52,3.72v.39c0,2.11,1.22,3.75,3.52,3.75M493.02,33.87c0,.52.42.97.96.97s.96-.46.96-.97-.42-.96-.96-.96-.96.44-.96.96M493.25,43.14h1.46v-7.45h-1.46v7.45ZM483.32,43.14h1.67l1.53-5.1,1.47,5.1h1.76l2.21-7.45h-1.52l-1.65,5.49-1.6-5.49h-1.31l-1.63,5.48-1.62-5.48h-1.52l2.21,7.45ZM472.28,41.75l3.32-6.32c.18.52.28,1.16.28,1.95v1.26c0,2.32-.85,3.44-2.38,3.44-.48,0-.88-.1-1.22-.32M471.11,38.63v-1.26c0-2.32.85-3.44,2.38-3.44.48,0,.88.1,1.22.32l-3.32,6.32c-.18-.52-.28-1.16-.28-1.95M473.49,43.36c2.67,0,3.85-1.97,3.85-4.73v-1.26c0-2.76-1.18-4.73-3.85-4.73s-3.85,1.97-3.85,4.73v1.26c0,2.76,1.18,4.73,3.85,4.73M462.95,41.75l3.32-6.32c.18.52.28,1.16.28,1.95v1.26c0,2.32-.85,3.44-2.38,3.44-.48,0-.88-.1-1.22-.32M461.79,38.63v-1.26c0-2.32.85-3.44,2.38-3.44.48,0,.88.1,1.22.32l-3.32,6.32c-.18-.52-.28-1.16-.28-1.95M464.17,43.36c2.67,0,3.85-1.97,3.85-4.73v-1.26c0-2.76-1.18-4.73-3.85-4.73s-3.85,1.97-3.85,4.73v1.26c0,2.76,1.17,4.73,3.85,4.73M458.39,32.86h-1.19l-2.84,1.44v1.46l2.56-1.18v8.56h1.47v-10.28ZM441.17,40.93h6.69l-2.07,2.06.91.88,3.68-3.67-3.68-3.67-.91.88,2.07,2.06h-5.22v-6.94h-1.47v8.41Z"/>
        <path class="cls-3" d="M529.13,27.14h1.48v-1.19h-1.12c-.6,0-.98-.29-.98-.98v-4.09h2.1v-1.19h-2.37c.2-.14.31-.32.31-.71v-1.15h-1.46v1.19c0,.52-.24.67-.73.67h-.59v1.19h1.27v4.09c0,1.58.99,2.17,2.07,2.17M518.19,27.14h1.46v-4.75c.08-.95.84-1.66,1.88-1.66,1.23,0,1.71.73,1.71,1.83v4.58h1.46v-4.87c0-1.95-1.13-2.8-2.78-2.8-.93,0-1.77.34-2.27.88v-3.49h-1.46v10.28ZM510.35,23.57v-.25c0-1.54.84-2.59,2.33-2.59s2.37,1.05,2.37,2.59v.25c0,1.54-.88,2.56-2.37,2.56s-2.33-1.02-2.33-2.56M512.77,30.36c2.01,0,3.74-1.03,3.74-3.01v-7.66h-1.46v.88c-.58-.65-1.5-1.07-2.65-1.07-2.3,0-3.52,1.64-3.52,3.75v.39c0,2.14,1.22,3.72,3.52,3.72,1.17,0,2.08-.4,2.65-1.04v1.03c0,1.2-.95,1.79-2.29,1.79s-2.28-.59-2.28-1.52v-.11h-1.47v.11c0,1.9,1.84,2.74,3.74,2.74M505.7,17.87c0,.52.42.97.96.97s.96-.46.96-.97-.42-.96-.96-.96-.96.44-.96.96M505.93,27.14h1.46v-7.45h-1.46v7.45ZM498.5,22.63c.22-1.25,1.04-1.94,2.29-1.94,1.46,0,2.16.95,2.16,1.94h-4.45ZM500.78,27.36c2.3,0,3.6-1.4,3.6-2.84v-.07h-1.45v.07c0,.77-.68,1.61-2.14,1.61-1.37,0-2.23-.83-2.33-2.32h5.96v-.85c0-2.03-1.22-3.5-3.63-3.5s-3.81,1.47-3.81,3.88v.14c0,2.41,1.45,3.88,3.81,3.88M487.61,27.14h1.67l1.53-5.1,1.47,5.1h1.76l2.21-7.45h-1.52l-1.65,5.49-1.6-5.49h-1.31l-1.63,5.48-1.62-5.48h-1.52l2.21,7.45ZM476.56,25.75l3.32-6.32c.18.52.28,1.16.28,1.95v1.26c0,2.32-.85,3.44-2.38,3.44-.48,0-.88-.1-1.22-.32M475.4,22.63v-1.26c0-2.32.85-3.44,2.38-3.44.48,0,.88.1,1.22.32l-3.32,6.32c-.18-.52-.28-1.16-.28-1.95M477.78,27.36c2.67,0,3.85-1.97,3.85-4.73v-1.26c0-2.76-1.18-4.73-3.85-4.73s-3.85,1.97-3.85,4.73v1.26c0,2.76,1.18,4.73,3.85,4.73M467.24,25.75l3.32-6.32c.18.52.28,1.16.28,1.95v1.26c0,2.32-.85,3.44-2.38,3.44-.48,0-.88-.1-1.22-.32M466.07,22.63v-1.26c0-2.32.85-3.44,2.38-3.44.48,0,.88.1,1.22.32l-3.32,6.32c-.18-.52-.28-1.16-.28-1.95M468.45,27.36c2.67,0,3.85-1.97,3.85-4.73v-1.26c0-2.76-1.18-4.73-3.85-4.73s-3.85,1.97-3.85,4.73v1.26c0,2.76,1.17,4.73,3.85,4.73M456.02,23.2l3.5-4.35v4.35h-3.5ZM459.52,27.14h1.47v-2.67h1.97v-1.26h-1.97v-6.34h-1.48l-5.14,6.38v1.22h5.15v2.67ZM441.17,24.93h6.69l-2.07,2.06.91.88,3.68-3.67-3.68-3.67-.91.88,2.07,2.06h-5.22v-6.94h-1.47v8.41Z"/>
        <path class="cls-3" d="M211.85,43.36c2.07,0,3.16-.93,3.16-2.33v-.06c0-1.25-.83-2.02-2.21-2.21l-1.59-.21c-.66-.08-1.02-.36-1.02-.83v-.06c0-.54.53-.98,1.65-.98s1.65.45,1.65,1.07v.04h1.47v-.04c0-1.32-1.06-2.29-3.12-2.29s-3.12.98-3.12,2.27v.06c0,1.23.83,2,2.16,2.18l1.59.21c.72.1,1.07.41,1.07.88v.06c0,.59-.48,1.02-1.69,1.02s-1.72-.43-1.72-1.04v-.06h-1.47v.06c0,1.34,1.13,2.27,3.18,2.27M201.49,38.63c.22-1.25,1.04-1.94,2.29-1.94,1.46,0,2.16.95,2.16,1.94h-4.45ZM203.77,43.36c2.3,0,3.6-1.4,3.6-2.84v-.07h-1.45v.07c0,.77-.68,1.61-2.14,1.61-1.37,0-2.23-.83-2.33-2.32h5.96v-.85c0-2.03-1.22-3.5-3.63-3.5s-3.81,1.47-3.81,3.88v.14c0,2.41,1.45,3.88,3.81,3.88M197.09,43.14h1.46v-10.28h-1.46v10.28ZM189.91,46.13h1.43l4.59-10.44h-1.44l-2.39,5.45-2.27-5.45h-1.57l3.06,7.23-1.41,3.21ZM186.01,43.14h1.48v-1.19h-1.12c-.6,0-.98-.29-.98-.98v-4.09h2.1v-1.19h-2.37c.2-.14.31-.32.31-.71v-1.15h-1.46v1.19c0,.52-.24.67-.73.67h-.59v1.19h1.27v4.09c0,1.58.99,2.17,2.07,2.17M178.52,43.36c2.07,0,3.16-.93,3.16-2.33v-.06c0-1.25-.83-2.02-2.21-2.21l-1.59-.21c-.66-.08-1.01-.36-1.01-.83v-.06c0-.54.53-.98,1.65-.98s1.65.45,1.65,1.07v.04h1.47v-.04c0-1.32-1.06-2.29-3.12-2.29s-3.12.98-3.12,2.27v.06c0,1.23.82,2,2.16,2.18l1.59.21c.72.1,1.06.41,1.06.88v.06c0,.59-.48,1.02-1.69,1.02s-1.71-.43-1.71-1.04v-.06h-1.47v.06c0,1.34,1.13,2.27,3.18,2.27M158.82,41.75l3.32-6.32c.18.52.28,1.16.28,1.95v1.26c0,2.32-.85,3.44-2.38,3.44-.48,0-.88-.11-1.22-.32M157.66,38.63v-1.26c0-2.33.85-3.44,2.38-3.44.48,0,.88.1,1.22.32l-3.32,6.32c-.18-.52-.28-1.16-.28-1.95M160.04,43.36c2.67,0,3.85-1.97,3.85-4.73v-1.26c0-2.76-1.18-4.73-3.85-4.73s-3.85,1.97-3.85,4.73v1.26c0,2.76,1.18,4.73,3.85,4.73M148.62,36.05v-.06c0-1.18.85-2.07,2.18-2.07s2.18.88,2.18,2.07v.06c0,1.21-.85,2.08-2.18,2.08s-2.18-.87-2.18-2.08M150.8,32.64c-2.2,0-3.68,1.46-3.68,3.42v.07c0,1.96,1.48,3.3,3.48,3.3.88,0,1.85-.32,2.41-.88v.11c0,1.57-.9,3.44-3.46,3.44h-1.69v1.26h1.55c4.14,0,5.13-2.91,5.13-5.96v-.32c0-2.98-1.5-4.44-3.75-4.44"/>
        <path class="cls-3" d="M201.07,27.36c2.07,0,3.16-.93,3.16-2.33v-.06c0-1.25-.83-2.02-2.21-2.21l-1.59-.21c-.66-.08-1.02-.36-1.02-.83v-.06c0-.54.53-.98,1.65-.98s1.65.45,1.65,1.07v.04h1.47v-.04c0-1.32-1.06-2.3-3.12-2.3s-3.12.98-3.12,2.27v.06c0,1.23.83,2,2.16,2.18l1.59.21c.72.1,1.06.41,1.06.88v.06c0,.59-.48,1.02-1.69,1.02s-1.72-.43-1.72-1.04v-.06h-1.47v.06c0,1.34,1.13,2.27,3.18,2.27M195.2,27.14h1.48v-1.19h-1.12c-.6,0-.98-.29-.98-.98v-4.09h2.1v-1.19h-2.37c.2-.14.31-.32.31-.71v-1.15h-1.46v1.19c0,.52-.24.67-.73.67h-.59v1.19h1.27v4.09c0,1.58.99,2.17,2.07,2.17M190.53,19.69h-1.46v4.75c-.08.95-.84,1.66-1.88,1.66-1.22,0-1.71-.73-1.71-1.83v-4.58h-1.46v4.87c0,1.95,1.13,2.8,2.78,2.8.93,0,1.77-.34,2.27-.88v.66h1.46v-7.45ZM179.03,27.36c2.32,0,3.61-1.47,3.61-2.9v-.07h-1.46v.07c0,.73-.69,1.68-2.16,1.68s-2.35-.95-2.35-2.64v-.17c0-1.69.88-2.64,2.35-2.64s2.16.95,2.16,1.68v.07h1.46v-.07c0-1.43-1.29-2.9-3.61-2.9s-3.81,1.47-3.81,3.88v.14c0,2.41,1.45,3.88,3.81,3.88M157.95,20.05v-.06c0-1.18.85-2.07,2.18-2.07s2.18.88,2.18,2.07v.06c0,1.21-.85,2.08-2.18,2.08s-2.18-.87-2.18-2.08M160.12,16.64c-2.2,0-3.67,1.46-3.67,3.42v.07c0,1.96,1.48,3.3,3.48,3.3.88,0,1.86-.32,2.41-.88v.11c0,1.57-.9,3.44-3.46,3.44h-1.69v1.26h1.55c4.14,0,5.13-2.91,5.13-5.96v-.32c0-2.98-1.5-4.44-3.75-4.44M149.74,25.75l3.32-6.32c.18.52.28,1.16.28,1.95v1.26c0,2.33-.85,3.44-2.38,3.44-.48,0-.88-.1-1.22-.32M148.58,22.63v-1.26c0-2.32.85-3.44,2.38-3.44.48,0,.88.11,1.22.32l-3.32,6.32c-.18-.52-.28-1.16-.28-1.95M150.96,27.36c2.67,0,3.85-1.97,3.85-4.73v-1.26c0-2.76-1.18-4.73-3.85-4.73s-3.85,1.97-3.85,4.73v1.26c0,2.76,1.18,4.73,3.85,4.73"/>
        <path class="cls-3" d="M324.5,32.86h-1.19l-2.84,1.44v1.46l2.56-1.18v8.56h1.47v-10.28ZM313.97,41.75l3.32-6.32c.18.52.28,1.16.28,1.95v1.26c0,2.33-.85,3.44-2.38,3.44-.48,0-.88-.1-1.22-.32M312.81,38.63v-1.26c0-2.32.85-3.44,2.38-3.44.48,0,.88.11,1.22.32l-3.32,6.32c-.18-.52-.28-1.16-.28-1.95M315.19,43.36c2.67,0,3.85-1.97,3.85-4.73v-1.26c0-2.76-1.17-4.73-3.85-4.73s-3.85,1.97-3.85,4.73v1.26c0,2.76,1.18,4.73,3.85,4.73M306.68,43.36c2.07,0,3.16-.93,3.16-2.33v-.06c0-1.25-.83-2.02-2.21-2.21l-1.59-.21c-.66-.08-1.02-.36-1.02-.83v-.06c0-.54.53-.98,1.65-.98s1.65.45,1.65,1.07v.04h1.47v-.04c0-1.32-1.06-2.3-3.12-2.3s-3.12.98-3.12,2.27v.06c0,1.23.83,2,2.16,2.18l1.59.21c.72.1,1.06.41,1.06.88v.06c0,.59-.48,1.02-1.69,1.02s-1.72-.43-1.72-1.04v-.06h-1.47v.06c0,1.34,1.13,2.27,3.18,2.27M298.13,43.36c2.45,0,4.06-1.15,4.06-2.97v-.17c0-1.69-1.15-2.63-3.04-2.88l-1.68-.22c-1.26-.17-1.77-.68-1.77-1.41v-.16c0-.8.65-1.61,2.44-1.61s2.46.81,2.46,1.62v.24h1.46v-.24c0-1.9-1.62-2.91-3.91-2.91s-3.93,1.01-3.93,2.98v.15c0,1.51,1.1,2.53,2.95,2.77l1.68.22c1.22.16,1.87.67,1.87,1.51v.17c0,.97-.94,1.62-2.58,1.62s-2.6-.65-2.6-1.76v-.36h-1.46v.36c0,1.9,1.6,3.05,4.06,3.05"/>
        <path class="cls-3" d="M358.98,22.63c.22-1.25,1.04-1.94,2.29-1.94,1.46,0,2.16.95,2.16,1.94h-4.45ZM361.26,27.36c2.3,0,3.61-1.4,3.61-2.84v-.07h-1.46v.07c0,.77-.68,1.61-2.14,1.61-1.36,0-2.23-.83-2.33-2.32h5.96v-.85c0-2.03-1.22-3.5-3.63-3.5s-3.81,1.47-3.81,3.88v.14c0,2.41,1.45,3.88,3.81,3.88M350.13,23.54v-.25c0-1.54.88-2.56,2.37-2.56s2.33,1.02,2.33,2.56v.25c0,1.54-.84,2.59-2.33,2.59s-2.37-1.05-2.37-2.59M352.79,27.36c2.3,0,3.52-1.64,3.52-3.75v-.39c0-2.14-1.22-3.72-3.52-3.72-1.17,0-2.08.4-2.65,1.04v-.85h-1.45v10.44h1.45v-3.85c.57.65,1.49,1.08,2.65,1.08M341.5,30.13h1.43l4.59-10.44h-1.43l-2.39,5.45-2.27-5.45h-1.58l3.06,7.23-1.41,3.21ZM337.6,27.14h1.48v-1.19h-1.12c-.6,0-.98-.29-.98-.98v-4.09h2.1v-1.19h-2.37c.2-.14.31-.32.31-.71v-1.15h-1.45v1.19c0,.52-.24.67-.73.67h-.59v1.19h1.27v4.09c0,1.58.99,2.17,2.07,2.17M324.08,27.14h1.46v-4.75c.08-.95.84-1.66,1.88-1.66,1.23,0,1.71.73,1.71,1.83v4.58h1.46v-4.87c0-1.95-1.13-2.8-2.78-2.8-.93,0-1.77.34-2.27.88v-.66h-1.46v7.45ZM316.65,22.63c.22-1.25,1.04-1.94,2.29-1.94,1.46,0,2.16.95,2.16,1.94h-4.45ZM318.93,27.36c2.3,0,3.6-1.4,3.6-2.84v-.07h-1.45v.07c0,.77-.68,1.61-2.14,1.61-1.36,0-2.23-.83-2.33-2.32h5.96v-.85c0-2.03-1.22-3.5-3.63-3.5s-3.81,1.47-3.81,3.88v.14c0,2.41,1.45,3.88,3.81,3.88M307.8,23.54v-.25c0-1.54.88-2.56,2.37-2.56s2.33,1.02,2.33,2.56v.25c0,1.54-.84,2.59-2.33,2.59s-2.37-1.05-2.37-2.59M310.46,27.36c2.3,0,3.52-1.64,3.52-3.75v-.39c0-2.14-1.22-3.72-3.52-3.72-1.17,0-2.08.4-2.65,1.04v-.85h-1.45v10.44h1.45v-3.85c.58.65,1.49,1.08,2.65,1.08M295.6,22.13v-.25c0-2.62,1.62-3.94,3.81-3.94s3.81,1.32,3.81,3.94v.25c0,2.63-1.62,3.94-3.81,3.94s-3.81-1.32-3.81-3.94M299.4,27.36c3.07,0,5.29-1.79,5.29-5.24v-.25c0-3.37-2.23-5.24-5.29-5.24s-5.29,1.86-5.29,5.24v.25c0,3.45,2.23,5.24,5.29,5.24"/>
        <path class="cls-3" d="M586.64,30.73h15.36c0-9.35-7.05-16.73-16.98-16.73v15.07h-15.02c0,9.15,7.14,16.93,16.64,16.93v-15.27Z"/>
      </g>
      <line class="cls-4" x1="14" y1="70.35" x2="14" y2="319.36"/>
      <g class="cls-6">
        <path class="cls-2" d="M14,321.64c1.26,0,2.28-1.02,2.28-2.28s-1.02-2.28-2.28-2.28-2.28,1.02-2.28,2.28,1.02,2.28,2.28,2.28"/>
        <path class="cls-4" d="M14,321.64c1.26,0,2.28-1.02,2.28-2.28s-1.02-2.28-2.28-2.28-2.28,1.02-2.28,2.28,1.02,2.28,2.28,2.28Z"/>
        <path class="cls-3" d="M527.89,302h24.75v-73.07c0-23.56,13.33-35.34,32.61-35.34h15.47v-22.02h-16.66c-13.57,0-24.4,5.24-31.42,13.92v-10.11h-24.75v126.62ZM419.49,269.99v-1.67c0-10.11,9.16-14.64,27.61-19.04,13.92-3.21,24.75-6.31,32.25-10.23v19.16c0,18.92-18.09,26.77-34.63,26.77-14.52,0-25.23-5-25.23-14.99M440.19,305.81c17.85,0,31.3-5.47,39.51-13.68.36,4.28.95,7.26,1.55,9.88h25.23c-1.31-6.66-2.62-16.18-2.62-34.51v-52.6c0-27.49-20.59-43.32-52.84-43.32s-55.22,15.83-55.22,44.62v2.74h24.75v-2.74c0-14.04,7.97-23.8,29.75-23.8s28.56,9.76,28.56,17.26v1.55c0,8.69-8.21,11.78-35.58,17.73-24.75,5.35-48.79,16.07-48.79,40.58v1.9c0,21.54,19.04,34.39,45.7,34.39M308.46,302h27.25l51.88-126.62h-23.8l-40.22,98.17-40.22-98.17h-26.77l51.88,126.62Z"/>
      </g>
      <rect class="cls-3" x="14.96" y="356.45" width="8.9" height="8.9"/>
      <rect class="cls-3" x="23.86" y="365.35" width="8.9" height="8.9"/>
      <polygon class="cls-3" points="103.97 374.25 103.97 365.35 103.97 356.45 103.97 347.54 95.07 347.54 86.16 347.54 77.26 347.54 68.36 347.54 59.46 347.54 50.56 347.54 41.66 347.54 32.76 347.54 23.86 347.54 23.86 356.45 32.76 356.45 41.66 356.45 50.56 356.45 59.46 356.45 68.36 356.45 77.26 356.45 86.16 356.45 95.07 356.45 95.07 365.35 95.07 374.25 95.07 383.15 95.07 392.05 95.07 400.95 95.07 409.85 95.07 418.75 95.07 427.65 103.97 427.65 103.97 418.75 103.97 409.85 103.97 400.95 103.97 392.05 103.97 383.15 112.87 383.15 112.87 374.25 103.97 374.25"/>
      <polygon class="cls-3" points="130.67 383.15 121.77 383.15 112.87 383.15 112.87 392.05 121.77 392.05 130.67 392.05 139.57 392.05 139.57 383.15 130.67 383.15"/>
      <polygon class="cls-3" points="86.16 436.55 86.16 445.45 95.07 445.45 95.07 436.55 95.07 427.65 86.16 427.65 86.16 436.55"/>
      <polygon class="cls-3" points="14.96 374.25 14.96 383.15 14.96 392.05 14.96 400.95 14.96 409.85 14.96 418.75 14.96 427.65 14.96 436.55 14.96 445.45 14.96 454.36 23.86 454.36 23.86 445.45 23.86 436.55 32.76 436.55 41.66 436.55 41.66 427.65 32.76 427.65 23.86 427.65 23.86 418.75 23.86 409.85 23.86 400.95 23.86 392.05 23.86 383.15 23.86 374.25 14.96 374.25"/>
      <polygon class="cls-3" points="50.56 436.55 41.66 436.55 41.66 445.45 50.56 445.45 59.46 445.45 59.46 436.55 50.56 436.55"/>
      <polygon class="cls-3" points="68.36 445.45 59.46 445.45 59.46 454.36 68.36 454.36 77.26 454.36 77.26 463.26 77.26 472.16 86.16 472.16 86.16 463.26 86.16 454.36 86.16 445.45 77.26 445.45 68.36 445.45"/>
      <rect class="cls-2" x="14.96" y="365.35" width="8.9" height="8.9"/>
      <polygon class="cls-2" points="95.07 365.35 95.07 356.45 86.16 356.45 77.26 356.45 68.36 356.45 59.46 356.45 50.56 356.45 41.66 356.45 32.76 356.45 23.86 356.45 23.86 365.35 32.76 365.35 41.66 365.35 50.56 365.35 59.46 365.35 68.36 365.35 77.26 365.35 86.16 365.35 95.07 365.35"/>
      <rect class="cls-2" x="23.86" y="374.25" width="8.9" height="8.9"/>
      <rect class="cls-2" x="103.97" y="383.15" width="8.9" height="8.9"/>
      <polygon class="cls-2" points="130.67 392.05 121.77 392.05 112.87 392.05 112.87 400.95 121.77 400.95 130.67 400.95 139.57 400.95 139.57 392.05 130.67 392.05"/>
      <rect class="cls-2" x="95.07" y="427.65" width="8.9" height="8.9"/>
      <rect class="cls-2" x="86.17" y="445.45" width="8.9" height="8.9"/>
      <polygon class="cls-2" points="32.76 436.55 23.86 436.55 23.86 445.45 32.76 445.45 41.66 445.45 41.66 436.55 32.76 436.55"/>
      <polygon class="cls-2" points="50.56 445.45 41.66 445.45 41.66 454.36 50.56 454.36 59.46 454.36 59.46 445.45 50.56 445.45"/>
      <polygon class="cls-2" points="59.46 454.36 59.46 463.26 68.36 463.26 77.26 463.26 77.26 454.36 68.36 454.36 59.46 454.36"/>
      <rect class="cls-2" x="14.96" y="454.36" width="8.9" height="8.9"/>
      <rect class="cls-3" x="139.57" y="356.45" width="8.9" height="8.9"/>
      <rect class="cls-3" x="148.47" y="365.35" width="8.9" height="8.9"/>
      <polygon class="cls-3" points="228.58 374.25 228.58 365.35 228.58 356.45 228.58 347.54 219.68 347.54 210.78 347.54 201.88 347.54 192.98 347.54 184.08 347.54 175.17 347.54 166.27 347.54 157.37 347.54 148.47 347.54 148.47 356.45 157.37 356.45 166.27 356.45 175.17 356.45 184.08 356.45 192.98 356.45 201.88 356.45 210.78 356.45 219.68 356.45 219.68 365.35 219.68 374.25 219.68 383.15 219.68 392.05 219.68 400.95 219.68 409.85 219.68 418.75 219.68 427.65 228.58 427.65 228.58 418.75 228.58 409.85 228.58 400.95 228.58 392.05 228.58 383.15 237.48 383.15 237.48 374.25 228.58 374.25"/>
      <polygon class="cls-3" points="255.28 383.15 246.38 383.15 237.48 383.15 237.48 392.05 246.38 392.05 255.28 392.05 264.18 392.05 264.18 383.15 255.28 383.15"/>
      <polygon class="cls-3" points="210.78 436.55 210.78 445.45 219.68 445.45 219.68 436.55 219.68 427.65 210.78 427.65 210.78 436.55"/>
      <polygon class="cls-3" points="157.37 427.65 148.47 427.65 148.47 418.75 148.47 409.85 148.47 400.95 148.47 392.05 148.47 383.15 148.47 374.25 139.57 374.25 139.57 383.15 139.57 392.05 139.57 400.95 139.57 409.85 139.57 418.75 139.57 427.65 139.57 436.55 139.57 445.46 139.57 454.36 148.47 454.36 148.47 445.46 148.47 436.55 157.37 436.55 166.27 436.55 166.27 427.65 157.37 427.65"/>
      <polygon class="cls-3" points="175.17 436.55 166.27 436.55 166.27 445.45 175.17 445.45 184.08 445.45 184.08 436.55 175.17 436.55"/>
      <polygon class="cls-3" points="192.98 445.45 184.08 445.45 184.08 454.36 192.98 454.36 201.88 454.36 201.88 463.26 201.88 472.16 210.78 472.16 210.78 463.26 210.78 454.36 210.78 445.45 201.88 445.45 192.98 445.45"/>
      <rect class="cls-2" x="139.57" y="365.35" width="8.9" height="8.9"/>
      <polygon class="cls-2" points="219.68 365.35 219.68 356.45 210.78 356.45 201.88 356.45 192.98 356.45 184.08 356.45 175.17 356.45 166.27 356.45 157.37 356.45 148.47 356.45 148.47 365.35 157.37 365.35 166.27 365.35 175.17 365.35 184.08 365.35 192.98 365.35 201.88 365.35 210.78 365.35 219.68 365.35"/>
      <rect class="cls-2" x="148.47" y="374.25" width="8.9" height="8.9"/>
      <rect class="cls-2" x="228.58" y="383.15" width="8.9" height="8.9"/>
      <polygon class="cls-2" points="255.28 392.05 246.38 392.05 237.48 392.05 237.48 400.95 246.38 400.95 255.28 400.95 264.18 400.95 264.18 392.05 255.28 392.05"/>
      <rect class="cls-2" x="219.68" y="427.65" width="8.9" height="8.9"/>
      <rect class="cls-2" x="210.78" y="445.45" width="8.9" height="8.9"/>
      <polygon class="cls-2" points="157.37 436.55 148.47 436.55 148.47 445.45 157.37 445.45 166.27 445.45 166.27 436.55 157.37 436.55"/>
      <polygon class="cls-2" points="175.17 445.45 166.27 445.45 166.27 454.36 175.17 454.36 184.08 454.36 184.08 445.45 175.17 445.45"/>
      <polygon class="cls-2" points="184.08 454.36 184.08 463.26 192.98 463.26 201.88 463.26 201.88 454.36 192.98 454.36 184.08 454.36"/>
      <rect class="cls-2" x="139.57" y="454.36" width="8.9" height="8.9"/>
      <rect class="cls-3" x="264.18" y="356.45" width="8.9" height="8.9"/>
      <rect class="cls-3" x="273.09" y="365.35" width="8.9" height="8.9"/>
      <polygon class="cls-3" points="353.19 374.25 353.19 365.35 353.19 356.45 353.19 347.54 344.29 347.54 335.39 347.54 326.49 347.54 317.59 347.54 308.69 347.54 299.79 347.54 290.89 347.54 281.99 347.54 273.09 347.54 273.09 356.45 281.99 356.45 290.89 356.45 299.79 356.45 308.69 356.45 317.59 356.45 326.49 356.45 335.39 356.45 344.29 356.45 344.29 365.35 344.29 374.25 344.29 383.15 344.29 392.05 344.29 400.95 344.29 409.85 344.29 418.75 344.29 427.65 353.19 427.65 353.19 418.75 353.19 409.85 353.19 400.95 353.19 392.05 353.19 383.15 362.1 383.15 362.1 374.25 353.19 374.25"/>
      <polygon class="cls-3" points="379.9 383.15 371 383.15 362.1 383.15 362.1 392.05 371 392.05 379.9 392.05 388.8 392.05 388.8 383.15 379.9 383.15"/>
      <polygon class="cls-3" points="335.39 436.55 335.39 445.45 344.29 445.45 344.29 436.55 344.29 427.65 335.39 427.65 335.39 436.55"/>
      <polygon class="cls-3" points="281.99 427.65 273.09 427.65 273.09 418.75 273.09 409.85 273.09 400.95 273.09 392.05 273.09 383.15 273.09 374.25 264.18 374.25 264.18 383.15 264.18 392.05 264.18 400.95 264.18 409.85 264.18 418.75 264.18 427.65 264.18 436.55 264.18 445.46 264.18 454.36 273.09 454.36 273.09 445.46 273.09 436.55 281.99 436.55 290.89 436.55 290.89 427.65 281.99 427.65"/>
      <polygon class="cls-3" points="299.79 436.55 290.89 436.55 290.89 445.45 299.79 445.45 308.69 445.45 308.69 436.55 299.79 436.55"/>
      <polygon class="cls-3" points="317.59 445.45 308.69 445.45 308.69 454.36 317.59 454.36 326.49 454.36 326.49 463.26 326.49 472.16 335.39 472.16 335.39 463.26 335.39 454.36 335.39 445.45 326.49 445.45 317.59 445.45"/>
      <rect class="cls-2" x="264.18" y="365.35" width="8.9" height="8.9"/>
      <polygon class="cls-2" points="344.29 365.35 344.29 356.45 335.39 356.45 326.49 356.45 317.59 356.45 308.69 356.45 299.79 356.45 290.89 356.45 281.99 356.45 273.09 356.45 273.09 365.35 281.99 365.35 290.89 365.35 299.79 365.35 308.69 365.35 317.59 365.35 326.49 365.35 335.39 365.35 344.29 365.35"/>
      <rect class="cls-2" x="273.09" y="374.25" width="8.9" height="8.9"/>
      <rect class="cls-2" x="353.2" y="383.15" width="8.9" height="8.9"/>
      <polygon class="cls-2" points="379.9 392.05 371 392.05 362.1 392.05 362.1 400.95 371 400.95 379.9 400.95 388.8 400.95 388.8 392.05 379.9 392.05"/>
      <rect class="cls-2" x="344.29" y="427.65" width="8.9" height="8.9"/>
      <rect class="cls-2" x="335.39" y="445.45" width="8.9" height="8.9"/>
      <polygon class="cls-2" points="281.99 436.55 273.09 436.55 273.09 445.45 281.99 445.45 290.89 445.45 290.89 436.55 281.99 436.55"/>
      <polygon class="cls-2" points="299.79 445.45 290.89 445.45 290.89 454.36 299.79 454.36 308.69 454.36 308.69 445.45 299.79 445.45"/>
      <polygon class="cls-2" points="308.69 454.36 308.69 463.26 317.59 463.26 326.49 463.26 326.49 454.36 317.59 454.36 308.69 454.36"/>
      <rect class="cls-2" x="264.18" y="454.36" width="8.9" height="8.9"/>
      <rect class="cls-3" x="388.8" y="356.45" width="8.9" height="8.9"/>
      <rect class="cls-3" x="397.7" y="365.35" width="8.9" height="8.9"/>
      <polygon class="cls-3" points="477.81 374.25 477.81 365.35 477.81 356.45 477.81 347.54 468.91 347.54 460.01 347.54 451.11 347.54 442.2 347.54 433.3 347.54 424.4 347.54 415.5 347.54 406.6 347.54 397.7 347.54 397.7 356.45 406.6 356.45 415.5 356.45 424.4 356.45 433.3 356.45 442.2 356.45 451.11 356.45 460.01 356.45 468.91 356.45 468.91 365.35 468.91 374.25 468.91 383.15 468.91 392.05 468.91 400.95 468.91 409.85 468.91 418.75 468.91 427.65 477.81 427.65 477.81 418.75 477.81 409.85 477.81 400.95 477.81 392.05 477.81 383.15 486.71 383.15 486.71 374.25 477.81 374.25"/>
      <polygon class="cls-3" points="504.51 383.15 495.61 383.15 486.71 383.15 486.71 392.05 495.61 392.05 504.51 392.05 513.41 392.05 513.41 383.15 504.51 383.15"/>
      <polygon class="cls-3" points="460.01 436.55 460.01 445.45 468.91 445.45 468.91 436.55 468.91 427.65 460.01 427.65 460.01 436.55"/>
      <polygon class="cls-3" points="406.6 427.65 397.7 427.65 397.7 418.75 397.7 409.85 397.7 400.95 397.7 392.05 397.7 383.15 397.7 374.25 388.8 374.25 388.8 383.15 388.8 392.05 388.8 400.95 388.8 409.85 388.8 418.75 388.8 427.65 388.8 436.55 388.8 445.46 388.8 454.36 397.7 454.36 397.7 445.46 397.7 436.55 406.6 436.55 415.5 436.55 415.5 427.65 406.6 427.65"/>
      <polygon class="cls-3" points="424.4 436.55 415.5 436.55 415.5 445.45 424.4 445.45 433.3 445.45 433.3 436.55 424.4 436.55"/>
      <polygon class="cls-3" points="442.2 445.45 433.3 445.45 433.3 454.36 442.2 454.36 451.11 454.36 451.11 463.26 451.11 472.16 460.01 472.16 460.01 463.26 460.01 454.36 460.01 445.45 451.11 445.45 442.2 445.45"/>
      <rect class="cls-2" x="388.8" y="365.35" width="8.9" height="8.9"/>
      <polygon class="cls-2" points="468.91 365.35 468.91 356.45 460.01 356.45 451.11 356.45 442.2 356.45 433.3 356.45 424.4 356.45 415.5 356.45 406.6 356.45 397.7 356.45 397.7 365.35 406.6 365.35 415.5 365.35 424.4 365.35 433.3 365.35 442.2 365.35 451.11 365.35 460.01 365.35 468.91 365.35"/>
      <rect class="cls-2" x="397.7" y="374.25" width="8.9" height="8.9"/>
      <rect class="cls-2" x="477.81" y="383.15" width="8.9" height="8.9"/>
      <polygon class="cls-2" points="504.51 392.05 495.61 392.05 486.71 392.05 486.71 400.95 495.61 400.95 504.51 400.95 513.41 400.95 513.41 392.05 504.51 392.05"/>
      <rect class="cls-2" x="468.91" y="427.65" width="8.9" height="8.9"/>
      <rect class="cls-2" x="460.01" y="445.45" width="8.9" height="8.9"/>
      <polygon class="cls-2" points="406.6 436.55 397.7 436.55 397.7 445.45 406.6 445.45 415.5 445.45 415.5 436.55 406.6 436.55"/>
      <polygon class="cls-2" points="424.4 445.45 415.5 445.45 415.5 454.36 424.4 454.36 433.3 454.36 433.3 445.45 424.4 445.45"/>
      <polygon class="cls-2" points="433.3 454.36 433.3 463.26 442.2 463.26 451.11 463.26 451.11 454.36 442.2 454.36 433.3 454.36"/>
      <rect class="cls-2" x="388.8" y="454.36" width="8.9" height="8.9"/>
      <rect class="cls-3" x="513.41" y="356.45" width="8.9" height="8.9"/>
      <rect class="cls-3" x="522.31" y="365.35" width="8.9" height="8.9"/>
      <polygon class="cls-3" points="593.52 347.54 584.62 347.54 575.72 347.54 566.82 347.54 557.92 347.54 549.02 347.54 540.12 347.54 531.22 347.54 522.31 347.54 522.31 356.44 531.22 356.44 540.12 356.44 549.02 356.44 557.92 356.44 566.82 356.44 575.72 356.44 584.62 356.44 593.52 356.44 593.52 365.35 593.52 374.25 593.52 383.15 593.52 392.05 593.52 400.95 593.52 409.85 593.52 418.75 593.52 427.65 601.23 427.65 601.23 347.54 593.52 347.54"/>
      <polygon class="cls-3" points="584.62 436.55 584.62 445.45 593.52 445.45 593.52 436.55 593.52 427.65 584.62 427.65 584.62 436.55"/>
      <polygon class="cls-3" points="531.21 427.65 522.31 427.65 522.31 418.75 522.31 409.85 522.31 400.95 522.31 392.05 522.31 383.15 522.31 374.25 513.41 374.25 513.41 383.15 513.41 392.05 513.41 400.95 513.41 409.85 513.41 418.75 513.41 427.65 513.41 436.55 513.41 445.46 513.41 454.36 522.31 454.36 522.31 445.46 522.31 436.55 531.21 436.55 540.12 436.55 540.12 427.65 531.21 427.65"/>
      <polygon class="cls-3" points="549.02 436.55 540.12 436.55 540.12 445.45 549.02 445.45 557.92 445.45 557.92 436.55 549.02 436.55"/>
      <polygon class="cls-3" points="566.82 445.45 557.92 445.45 557.92 454.36 566.82 454.36 575.72 454.36 575.72 463.26 575.72 472.16 584.62 472.16 584.62 463.26 584.62 454.36 584.62 445.45 575.72 445.45 566.82 445.45"/>
      <rect class="cls-2" x="513.41" y="365.35" width="8.9" height="8.9"/>
      <polygon class="cls-2" points="593.52 365.35 593.52 356.45 584.62 356.45 575.72 356.45 566.82 356.45 557.92 356.45 549.02 356.45 540.12 356.45 531.21 356.45 522.31 356.45 522.31 365.35 531.21 365.35 540.12 365.35 549.02 365.35 557.92 365.35 566.82 365.35 575.72 365.35 584.62 365.35 593.52 365.35"/>
      <rect class="cls-2" x="522.31" y="374.25" width="8.9" height="8.9"/>
      <g class="cls-11">
        <rect class="cls-2" x="602.42" y="383.15" width="8.9" height="8.9"/>
      </g>
      <rect class="cls-2" x="593.52" y="427.65" width="7.7" height="8.9"/>
      <rect class="cls-2" x="584.62" y="445.45" width="8.9" height="8.9"/>
      <polygon class="cls-2" points="531.21 436.55 522.31 436.55 522.31 445.45 531.21 445.45 540.12 445.45 540.12 436.55 531.21 436.55"/>
      <polygon class="cls-2" points="549.02 445.45 540.12 445.45 540.12 454.36 549.02 454.36 557.92 454.36 557.92 445.45 549.02 445.45"/>
      <polygon class="cls-2" points="557.92 454.36 557.92 463.26 566.82 463.26 575.72 463.26 575.72 454.36 566.82 454.36 557.92 454.36"/>
      <rect class="cls-2" x="513.41" y="454.36" width="8.9" height="8.9"/>
      <rect class="cls-3" x="14.96" y="481.06" width="8.9" height="8.9"/>
      <rect class="cls-3" x="23.86" y="489.96" width="8.9" height="8.9"/>
      <polygon class="cls-3" points="103.97 498.86 103.97 489.96 103.97 481.06 103.97 472.16 95.07 472.16 86.16 472.16 77.26 472.16 68.36 472.16 59.46 472.16 50.56 472.16 41.66 472.16 32.76 472.16 23.86 472.16 23.86 481.06 32.76 481.06 41.66 481.06 50.56 481.06 59.46 481.06 68.36 481.06 77.26 481.06 86.16 481.06 95.07 481.06 95.07 489.96 95.07 498.86 95.07 507.76 95.07 516.66 95.07 525.56 95.07 534.46 95.07 543.37 95.07 552.27 103.97 552.27 103.97 543.37 103.97 534.46 103.97 525.56 103.97 516.66 103.97 507.76 112.87 507.76 112.87 498.86 103.97 498.86"/>
      <polygon class="cls-3" points="130.67 507.76 121.77 507.76 112.87 507.76 112.87 516.66 121.77 516.66 130.67 516.66 139.57 516.66 139.57 507.76 130.67 507.76"/>
      <polygon class="cls-3" points="86.16 561.17 86.16 570.07 95.07 570.07 95.07 561.17 95.07 552.27 86.16 552.27 86.16 561.17"/>
      <polygon class="cls-3" points="14.96 498.86 14.96 507.76 14.96 516.66 14.96 525.56 14.96 534.46 14.96 543.37 14.96 552.27 14.96 561.17 14.96 570.07 14.96 578.97 23.86 578.97 23.86 570.07 23.86 561.17 32.76 561.17 41.66 561.17 41.66 552.27 32.76 552.27 23.86 552.27 23.86 543.37 23.86 534.46 23.86 525.56 23.86 516.66 23.86 507.76 23.86 498.86 14.96 498.86"/>
      <polygon class="cls-3" points="50.56 561.17 41.66 561.17 41.66 570.07 50.56 570.07 59.46 570.07 59.46 561.17 50.56 561.17"/>
      <polygon class="cls-3" points="68.36 570.07 59.46 570.07 59.46 578.97 68.36 578.97 77.26 578.97 77.26 587.87 77.26 596.77 86.16 596.77 86.16 587.87 86.16 578.97 86.16 570.07 77.26 570.07 68.36 570.07"/>
      <rect class="cls-2" x="14.96" y="489.96" width="8.9" height="8.9"/>
      <polygon class="cls-2" points="95.07 489.96 95.07 481.06 86.16 481.06 77.26 481.06 68.36 481.06 59.46 481.06 50.56 481.06 41.66 481.06 32.76 481.06 23.86 481.06 23.86 489.96 32.76 489.96 41.66 489.96 50.56 489.96 59.46 489.96 68.36 489.96 77.26 489.96 86.16 489.96 95.07 489.96"/>
      <rect class="cls-2" x="23.86" y="498.86" width="8.9" height="8.9"/>
      <rect class="cls-2" x="103.97" y="507.76" width="8.9" height="8.9"/>
      <polygon class="cls-2" points="130.67 516.66 121.77 516.66 112.87 516.66 112.87 525.56 121.77 525.56 130.67 525.56 139.57 525.56 139.57 516.66 130.67 516.66"/>
      <rect class="cls-2" x="95.07" y="552.27" width="8.9" height="8.9"/>
      <rect class="cls-2" x="86.17" y="570.07" width="8.9" height="8.9"/>
      <polygon class="cls-2" points="32.76 561.17 23.86 561.17 23.86 570.07 32.76 570.07 41.66 570.07 41.66 561.17 32.76 561.17"/>
      <polygon class="cls-2" points="50.56 570.07 41.66 570.07 41.66 578.97 50.56 578.97 59.46 578.97 59.46 570.07 50.56 570.07"/>
      <polygon class="cls-2" points="59.46 578.97 59.46 587.87 68.36 587.87 77.26 587.87 77.26 578.97 68.36 578.97 59.46 578.97"/>
      <rect class="cls-2" x="14.96" y="578.97" width="8.9" height="8.9"/>
      <rect class="cls-3" x="139.57" y="481.06" width="8.9" height="8.9"/>
      <rect class="cls-3" x="148.47" y="489.96" width="8.9" height="8.9"/>
      <polygon class="cls-3" points="228.58 498.86 228.58 489.96 228.58 481.06 228.58 472.16 219.68 472.16 210.78 472.16 201.88 472.16 192.98 472.16 184.08 472.16 175.17 472.16 166.27 472.16 157.37 472.16 148.47 472.16 148.47 481.06 157.37 481.06 166.27 481.06 175.17 481.06 184.08 481.06 192.98 481.06 201.88 481.06 210.78 481.06 219.68 481.06 219.68 489.96 219.68 498.86 219.68 507.76 219.68 516.66 219.68 525.56 219.68 534.46 219.68 543.37 219.68 552.27 228.58 552.27 228.58 543.37 228.58 534.46 228.58 525.56 228.58 516.66 228.58 507.76 237.48 507.76 237.48 498.86 228.58 498.86"/>
      <polygon class="cls-3" points="255.28 507.76 246.38 507.76 237.48 507.76 237.48 516.66 246.38 516.66 255.28 516.66 264.18 516.66 264.18 507.76 255.28 507.76"/>
      <polygon class="cls-3" points="210.78 561.17 210.78 570.07 219.68 570.07 219.68 561.17 219.68 552.27 210.78 552.27 210.78 561.17"/>
      <polygon class="cls-3" points="157.37 552.27 148.47 552.27 148.47 543.37 148.47 534.46 148.47 525.56 148.47 516.66 148.47 507.76 148.47 498.86 139.57 498.86 139.57 507.76 139.57 516.66 139.57 525.56 139.57 534.46 139.57 543.37 139.57 552.27 139.57 561.17 139.57 570.07 139.57 578.97 148.47 578.97 148.47 570.07 148.47 561.17 157.37 561.17 166.27 561.17 166.27 552.27 157.37 552.27"/>
      <polygon class="cls-3" points="175.17 561.17 166.27 561.17 166.27 570.07 175.17 570.07 184.08 570.07 184.08 561.17 175.17 561.17"/>
      <polygon class="cls-3" points="192.98 570.07 184.08 570.07 184.08 578.97 192.98 578.97 201.88 578.97 201.88 587.87 201.88 596.77 210.78 596.77 210.78 587.87 210.78 578.97 210.78 570.07 201.88 570.07 192.98 570.07"/>
      <rect class="cls-2" x="139.57" y="489.96" width="8.9" height="8.9"/>
      <polygon class="cls-2" points="219.68 489.96 219.68 481.06 210.78 481.06 201.88 481.06 192.98 481.06 184.08 481.06 175.17 481.06 166.27 481.06 157.37 481.06 148.47 481.06 148.47 489.96 157.37 489.96 166.27 489.96 175.17 489.96 184.08 489.96 192.98 489.96 201.88 489.96 210.78 489.96 219.68 489.96"/>
      <rect class="cls-2" x="148.47" y="498.86" width="8.9" height="8.9"/>
      <rect class="cls-2" x="228.58" y="507.76" width="8.9" height="8.9"/>
      <polygon class="cls-2" points="255.28 516.66 246.38 516.66 237.48 516.66 237.48 525.56 246.38 525.56 255.28 525.56 264.18 525.56 264.18 516.66 255.28 516.66"/>
      <rect class="cls-2" x="219.68" y="552.27" width="8.9" height="8.9"/>
      <rect class="cls-2" x="210.78" y="570.07" width="8.9" height="8.9"/>
      <polygon class="cls-2" points="157.37 561.17 148.47 561.17 148.47 570.07 157.37 570.07 166.27 570.07 166.27 561.17 157.37 561.17"/>
      <polygon class="cls-2" points="175.17 570.07 166.27 570.07 166.27 578.97 175.17 578.97 184.08 578.97 184.08 570.07 175.17 570.07"/>
      <polygon class="cls-2" points="184.08 578.97 184.08 587.87 192.98 587.87 201.88 587.87 201.88 578.97 192.98 578.97 184.08 578.97"/>
      <rect class="cls-2" x="139.57" y="578.97" width="8.9" height="8.9"/>
      <rect class="cls-3" x="264.18" y="481.06" width="8.9" height="8.9"/>
      <rect class="cls-3" x="273.09" y="489.96" width="8.9" height="8.9"/>
      <polygon class="cls-3" points="353.19 498.86 353.19 489.96 353.19 481.06 353.19 472.16 344.29 472.16 335.39 472.16 326.49 472.16 317.59 472.16 308.69 472.16 299.79 472.16 290.89 472.16 281.99 472.16 273.09 472.16 273.09 481.06 281.99 481.06 290.89 481.06 299.79 481.06 308.69 481.06 317.59 481.06 326.49 481.06 335.39 481.06 344.29 481.06 344.29 489.96 344.29 498.86 344.29 507.76 344.29 516.66 344.29 525.56 344.29 534.46 344.29 543.37 344.29 552.27 353.19 552.27 353.19 543.37 353.19 534.46 353.19 525.56 353.19 516.66 353.19 507.76 362.1 507.76 362.1 498.86 353.19 498.86"/>
      <polygon class="cls-3" points="379.9 507.76 371 507.76 362.1 507.76 362.1 516.66 371 516.66 379.9 516.66 388.8 516.66 388.8 507.76 379.9 507.76"/>
      <polygon class="cls-3" points="335.39 561.17 335.39 570.07 344.29 570.07 344.29 561.17 344.29 552.27 335.39 552.27 335.39 561.17"/>
      <polygon class="cls-3" points="281.99 552.27 273.09 552.27 273.09 543.37 273.09 534.46 273.09 525.56 273.09 516.66 273.09 507.76 273.09 498.86 264.18 498.86 264.18 507.76 264.18 516.66 264.18 525.56 264.18 534.46 264.18 543.37 264.18 552.27 264.18 561.17 264.18 570.07 264.18 578.97 273.09 578.97 273.09 570.07 273.09 561.17 281.99 561.17 290.89 561.17 290.89 552.27 281.99 552.27"/>
      <polygon class="cls-3" points="299.79 561.17 290.89 561.17 290.89 570.07 299.79 570.07 308.69 570.07 308.69 561.17 299.79 561.17"/>
      <polygon class="cls-3" points="317.59 570.07 308.69 570.07 308.69 578.97 317.59 578.97 326.49 578.97 326.49 587.87 326.49 596.77 335.39 596.77 335.39 587.87 335.39 578.97 335.39 570.07 326.49 570.07 317.59 570.07"/>
      <rect class="cls-2" x="264.18" y="489.96" width="8.9" height="8.9"/>
      <polygon class="cls-2" points="344.29 489.96 344.29 481.06 335.39 481.06 326.49 481.06 317.59 481.06 308.69 481.06 299.79 481.06 290.89 481.06 281.99 481.06 273.09 481.06 273.09 489.96 281.99 489.96 290.89 489.96 299.79 489.96 308.69 489.96 317.59 489.96 326.49 489.96 335.39 489.96 344.29 489.96"/>
      <rect class="cls-2" x="273.09" y="498.86" width="8.9" height="8.9"/>
      <rect class="cls-2" x="353.2" y="507.76" width="8.9" height="8.9"/>
      <polygon class="cls-2" points="379.9 516.66 371 516.66 362.1 516.66 362.1 525.56 371 525.56 379.9 525.56 388.8 525.56 388.8 516.66 379.9 516.66"/>
      <rect class="cls-2" x="344.29" y="552.27" width="8.9" height="8.9"/>
      <rect class="cls-2" x="335.39" y="570.07" width="8.9" height="8.9"/>
      <polygon class="cls-2" points="281.99 561.17 273.09 561.17 273.09 570.07 281.99 570.07 290.89 570.07 290.89 561.17 281.99 561.17"/>
      <polygon class="cls-2" points="299.79 570.07 290.89 570.07 290.89 578.97 299.79 578.97 308.69 578.97 308.69 570.07 299.79 570.07"/>
      <polygon class="cls-2" points="308.69 578.97 308.69 587.87 317.59 587.87 326.49 587.87 326.49 578.97 317.59 578.97 308.69 578.97"/>
      <rect class="cls-2" x="264.18" y="578.97" width="8.9" height="8.9"/>
      <rect class="cls-3" x="388.8" y="481.06" width="8.9" height="8.9"/>
      <rect class="cls-3" x="397.7" y="489.96" width="8.9" height="8.9"/>
      <polygon class="cls-3" points="477.81 498.86 477.81 489.96 477.81 481.06 477.81 472.16 468.91 472.16 460.01 472.16 451.11 472.16 442.2 472.16 433.3 472.16 424.4 472.16 415.5 472.16 406.6 472.16 397.7 472.16 397.7 481.06 406.6 481.06 415.5 481.06 424.4 481.06 433.3 481.06 442.2 481.06 451.11 481.06 460.01 481.06 468.91 481.06 468.91 489.96 468.91 498.86 468.91 507.76 468.91 516.66 468.91 525.56 468.91 534.46 468.91 543.37 468.91 552.27 477.81 552.27 477.81 543.37 477.81 534.46 477.81 525.56 477.81 516.66 477.81 507.76 486.71 507.76 486.71 498.86 477.81 498.86"/>
      <polygon class="cls-3" points="504.51 507.76 495.61 507.76 486.71 507.76 486.71 516.66 495.61 516.66 504.51 516.66 513.41 516.66 513.41 507.76 504.51 507.76"/>
      <polygon class="cls-3" points="460.01 561.17 460.01 570.07 468.91 570.07 468.91 561.17 468.91 552.27 460.01 552.27 460.01 561.17"/>
      <polygon class="cls-3" points="406.6 552.27 397.7 552.27 397.7 543.37 397.7 534.46 397.7 525.56 397.7 516.66 397.7 507.76 397.7 498.86 388.8 498.86 388.8 507.76 388.8 516.66 388.8 525.56 388.8 534.46 388.8 543.37 388.8 552.27 388.8 561.17 388.8 570.07 388.8 578.97 397.7 578.97 397.7 570.07 397.7 561.17 406.6 561.17 415.5 561.17 415.5 552.27 406.6 552.27"/>
      <polygon class="cls-3" points="424.4 561.17 415.5 561.17 415.5 570.07 424.4 570.07 433.3 570.07 433.3 561.17 424.4 561.17"/>
      <polygon class="cls-3" points="442.2 570.07 433.3 570.07 433.3 578.97 442.2 578.97 451.11 578.97 451.11 587.87 451.11 596.77 460.01 596.77 460.01 587.87 460.01 578.97 460.01 570.07 451.11 570.07 442.2 570.07"/>
      <rect class="cls-2" x="388.8" y="489.96" width="8.9" height="8.9"/>
      <polygon class="cls-2" points="468.91 489.96 468.91 481.06 460.01 481.06 451.11 481.06 442.2 481.06 433.3 481.06 424.4 481.06 415.5 481.06 406.6 481.06 397.7 481.06 397.7 489.96 406.6 489.96 415.5 489.96 424.4 489.96 433.3 489.96 442.2 489.96 451.11 489.96 460.01 489.96 468.91 489.96"/>
      <rect class="cls-2" x="397.7" y="498.86" width="8.9" height="8.9"/>
      <rect class="cls-2" x="477.81" y="507.76" width="8.9" height="8.9"/>
      <polygon class="cls-2" points="504.51 516.66 495.61 516.66 486.71 516.66 486.71 525.56 495.61 525.56 504.51 525.56 513.41 525.56 513.41 516.66 504.51 516.66"/>
      <rect class="cls-2" x="468.91" y="552.27" width="8.9" height="8.9"/>
      <rect class="cls-2" x="460.01" y="570.07" width="8.9" height="8.9"/>
      <polygon class="cls-2" points="406.6 561.17 397.7 561.17 397.7 570.07 406.6 570.07 415.5 570.07 415.5 561.17 406.6 561.17"/>
      <polygon class="cls-2" points="424.4 570.07 415.5 570.07 415.5 578.97 424.4 578.97 433.3 578.97 433.3 570.07 424.4 570.07"/>
      <polygon class="cls-2" points="433.3 578.97 433.3 587.87 442.2 587.87 451.11 587.87 451.11 578.97 442.2 578.97 433.3 578.97"/>
      <rect class="cls-2" x="388.8" y="578.97" width="8.9" height="8.9"/>
      <rect class="cls-3" x="513.41" y="481.06" width="8.9" height="8.9"/>
      <rect class="cls-3" x="522.31" y="489.96" width="8.9" height="8.9"/>
      <polygon class="cls-3" points="593.52 472.16 584.62 472.16 575.72 472.16 566.82 472.16 557.92 472.16 549.02 472.16 540.12 472.16 531.22 472.16 522.31 472.16 522.31 481.06 531.22 481.06 540.12 481.06 549.02 481.06 557.92 481.06 566.82 481.06 575.72 481.06 584.62 481.06 593.52 481.06 593.52 489.96 593.52 498.86 593.52 507.76 593.52 516.66 593.52 525.56 593.52 534.46 593.52 543.37 593.52 552.27 601.23 552.27 601.23 472.16 593.52 472.16"/>
      <polygon class="cls-3" points="584.62 561.17 584.62 570.07 593.52 570.07 593.52 561.17 593.52 552.27 584.62 552.27 584.62 561.17"/>
      <polygon class="cls-3" points="531.21 552.27 522.31 552.27 522.31 543.37 522.31 534.46 522.31 525.56 522.31 516.66 522.31 507.76 522.31 498.86 513.41 498.86 513.41 507.76 513.41 516.66 513.41 525.56 513.41 534.46 513.41 543.37 513.41 552.27 513.41 561.17 513.41 570.07 513.41 578.97 522.31 578.97 522.31 570.07 522.31 561.17 531.21 561.17 540.12 561.17 540.12 552.27 531.21 552.27"/>
      <polygon class="cls-3" points="549.02 561.17 540.12 561.17 540.12 570.07 549.02 570.07 557.92 570.07 557.92 561.17 549.02 561.17"/>
      <polygon class="cls-3" points="566.82 570.07 557.92 570.07 557.92 578.97 566.82 578.97 575.72 578.97 575.72 587.87 575.72 596.77 584.62 596.77 584.62 587.87 584.62 578.97 584.62 570.07 575.72 570.07 566.82 570.07"/>
      <rect class="cls-2" x="513.41" y="489.96" width="8.9" height="8.9"/>
      <polygon class="cls-2" points="593.52 489.96 593.52 481.06 584.62 481.06 575.72 481.06 566.82 481.06 557.92 481.06 549.02 481.06 540.12 481.06 531.21 481.06 522.31 481.06 522.31 489.96 531.21 489.96 540.12 489.96 549.02 489.96 557.92 489.96 566.82 489.96 575.72 489.96 584.62 489.96 593.52 489.96"/>
      <rect class="cls-2" x="522.31" y="498.86" width="8.9" height="8.9"/>
      <g class="cls-12">
        <rect class="cls-2" x="602.42" y="507.76" width="8.9" height="8.9"/>
      </g>
      <rect class="cls-2" x="593.52" y="552.27" width="7.7" height="8.9"/>
      <rect class="cls-2" x="584.62" y="570.07" width="8.9" height="8.9"/>
      <polygon class="cls-2" points="531.21 561.17 522.31 561.17 522.31 570.07 531.21 570.07 540.12 570.07 540.12 561.17 531.21 561.17"/>
      <polygon class="cls-2" points="549.02 570.07 540.12 570.07 540.12 578.97 549.02 578.97 557.92 578.97 557.92 570.07 549.02 570.07"/>
      <polygon class="cls-2" points="557.92 578.97 557.92 587.87 566.82 587.87 575.72 587.87 575.72 578.97 566.82 578.97 557.92 578.97"/>
      <rect class="cls-2" x="513.41" y="578.97" width="8.9" height="8.9"/>
      <rect class="cls-3" x="14.96" y="605.67" width="8.9" height="8.9"/>
      <rect class="cls-3" x="23.86" y="614.57" width="8.9" height="8.9"/>
      <polygon class="cls-3" points="103.97 623.48 103.97 614.57 103.97 605.67 103.97 596.77 95.07 596.77 86.16 596.77 77.26 596.77 68.36 596.77 59.46 596.77 50.56 596.77 41.66 596.77 32.76 596.77 23.86 596.77 23.86 605.67 32.76 605.67 41.66 605.67 50.56 605.67 59.46 605.67 68.36 605.67 77.26 605.67 86.16 605.67 95.07 605.67 95.07 614.57 95.07 623.48 95.07 632.38 95.07 641.28 95.07 650.18 95.07 659.08 95.07 667.98 95.07 676.88 103.97 676.88 103.97 667.98 103.97 659.08 103.97 650.18 103.97 641.28 103.97 632.38 112.87 632.38 112.87 623.48 103.97 623.48"/>
      <polygon class="cls-3" points="130.67 632.38 121.77 632.38 112.87 632.38 112.87 641.28 121.77 641.28 130.67 641.28 139.57 641.28 139.57 632.38 130.67 632.38"/>
      <polygon class="cls-3" points="86.16 685.78 86.16 694.68 95.07 694.68 95.07 685.78 95.07 676.88 86.16 676.88 86.16 685.78"/>
      <polygon class="cls-3" points="14.96 623.47 14.96 632.38 14.96 641.28 14.96 650.18 14.96 659.08 14.96 667.98 14.96 676.88 14.96 685.78 14.96 694.68 14.96 703.58 23.86 703.58 23.86 694.68 23.86 685.78 32.76 685.78 41.66 685.78 41.66 676.88 32.76 676.88 23.86 676.88 23.86 667.98 23.86 659.08 23.86 650.18 23.86 641.28 23.86 632.38 23.86 623.47 14.96 623.47"/>
      <polygon class="cls-3" points="50.56 685.78 41.66 685.78 41.66 694.68 50.56 694.68 59.46 694.68 59.46 685.78 50.56 685.78"/>
      <polygon class="cls-3" points="68.36 694.68 59.46 694.68 59.46 703.58 68.36 703.58 77.26 703.58 77.26 712.49 77.26 721.39 86.16 721.39 86.16 712.49 86.16 703.58 86.16 694.68 77.26 694.68 68.36 694.68"/>
      <rect class="cls-2" x="14.96" y="614.57" width="8.9" height="8.9"/>
      <polygon class="cls-2" points="95.07 614.57 95.07 605.67 86.16 605.67 77.26 605.67 68.36 605.67 59.46 605.67 50.56 605.67 41.66 605.67 32.76 605.67 23.86 605.67 23.86 614.57 32.76 614.57 41.66 614.57 50.56 614.57 59.46 614.57 68.36 614.57 77.26 614.57 86.16 614.57 95.07 614.57"/>
      <rect class="cls-2" x="23.86" y="623.48" width="8.9" height="8.9"/>
      <rect class="cls-2" x="103.97" y="632.38" width="8.9" height="8.9"/>
      <polygon class="cls-2" points="130.67 641.28 121.77 641.28 112.87 641.28 112.87 650.18 121.77 650.18 130.67 650.18 139.57 650.18 139.57 641.28 130.67 641.28"/>
      <rect class="cls-2" x="95.07" y="676.88" width="8.9" height="8.9"/>
      <rect class="cls-2" x="86.17" y="694.68" width="8.9" height="8.9"/>
      <polygon class="cls-2" points="32.76 685.78 23.86 685.78 23.86 694.68 32.76 694.68 41.66 694.68 41.66 685.78 32.76 685.78"/>
      <polygon class="cls-2" points="50.56 694.68 41.66 694.68 41.66 703.58 50.56 703.58 59.46 703.58 59.46 694.68 50.56 694.68"/>
      <polygon class="cls-2" points="59.46 703.58 59.46 712.49 68.36 712.49 77.26 712.49 77.26 703.58 68.36 703.58 59.46 703.58"/>
      <rect class="cls-2" x="14.96" y="703.58" width="8.9" height="8.9"/>
      <rect class="cls-3" x="139.57" y="605.67" width="8.9" height="8.9"/>
      <rect class="cls-3" x="148.47" y="614.57" width="8.9" height="8.9"/>
      <polygon class="cls-3" points="228.58 623.48 228.58 614.57 228.58 605.67 228.58 596.77 219.68 596.77 210.78 596.77 201.88 596.77 192.98 596.77 184.08 596.77 175.17 596.77 166.27 596.77 157.37 596.77 148.47 596.77 148.47 605.67 157.37 605.67 166.27 605.67 175.17 605.67 184.08 605.67 192.98 605.67 201.88 605.67 210.78 605.67 219.68 605.67 219.68 614.57 219.68 623.48 219.68 632.38 219.68 641.28 219.68 650.18 219.68 659.08 219.68 667.98 219.68 676.88 228.58 676.88 228.58 667.98 228.58 659.08 228.58 650.18 228.58 641.28 228.58 632.38 237.48 632.38 237.48 623.48 228.58 623.48"/>
      <polygon class="cls-3" points="255.28 632.38 246.38 632.38 237.48 632.38 237.48 641.28 246.38 641.28 255.28 641.28 264.18 641.28 264.18 632.38 255.28 632.38"/>
      <polygon class="cls-3" points="210.78 685.78 210.78 694.68 219.68 694.68 219.68 685.78 219.68 676.88 210.78 676.88 210.78 685.78"/>
      <polygon class="cls-3" points="157.37 676.88 148.47 676.88 148.47 667.98 148.47 659.08 148.47 650.18 148.47 641.28 148.47 632.38 148.47 623.48 139.57 623.48 139.57 632.38 139.57 641.28 139.57 650.18 139.57 659.08 139.57 667.98 139.57 676.88 139.57 685.78 139.57 694.68 139.57 703.58 148.47 703.58 148.47 694.68 148.47 685.78 157.37 685.78 166.27 685.78 166.27 676.88 157.37 676.88"/>
      <polygon class="cls-3" points="175.17 685.78 166.27 685.78 166.27 694.68 175.17 694.68 184.08 694.68 184.08 685.78 175.17 685.78"/>
      <polygon class="cls-3" points="192.98 694.68 184.08 694.68 184.08 703.58 192.98 703.58 201.88 703.58 201.88 712.49 201.88 721.39 210.78 721.39 210.78 712.49 210.78 703.58 210.78 694.68 201.88 694.68 192.98 694.68"/>
      <rect class="cls-2" x="139.57" y="614.57" width="8.9" height="8.9"/>
      <polygon class="cls-2" points="219.68 614.57 219.68 605.67 210.78 605.67 201.88 605.67 192.98 605.67 184.08 605.67 175.17 605.67 166.27 605.67 157.37 605.67 148.47 605.67 148.47 614.57 157.37 614.57 166.27 614.57 175.17 614.57 184.08 614.57 192.98 614.57 201.88 614.57 210.78 614.57 219.68 614.57"/>
      <rect class="cls-2" x="148.47" y="623.48" width="8.9" height="8.9"/>
      <rect class="cls-2" x="228.58" y="632.38" width="8.9" height="8.9"/>
      <polygon class="cls-2" points="255.28 641.28 246.38 641.28 237.48 641.28 237.48 650.18 246.38 650.18 255.28 650.18 264.18 650.18 264.18 641.28 255.28 641.28"/>
      <rect class="cls-2" x="219.68" y="676.88" width="8.9" height="8.9"/>
      <rect class="cls-2" x="210.78" y="694.68" width="8.9" height="8.9"/>
      <polygon class="cls-2" points="157.37 685.78 148.47 685.78 148.47 694.68 157.37 694.68 166.27 694.68 166.27 685.78 157.37 685.78"/>
      <polygon class="cls-2" points="175.17 694.68 166.27 694.68 166.27 703.58 175.17 703.58 184.08 703.58 184.08 694.68 175.17 694.68"/>
      <polygon class="cls-2" points="184.08 703.58 184.08 712.49 192.98 712.49 201.88 712.49 201.88 703.58 192.98 703.58 184.08 703.58"/>
      <rect class="cls-2" x="139.57" y="703.58" width="8.9" height="8.9"/>
      <rect class="cls-3" x="264.18" y="605.67" width="8.9" height="8.9"/>
      <rect class="cls-3" x="273.09" y="614.57" width="8.9" height="8.9"/>
      <polygon class="cls-3" points="353.19 623.48 353.19 614.57 353.19 605.67 353.19 596.77 344.29 596.77 335.39 596.77 326.49 596.77 317.59 596.77 308.69 596.77 299.79 596.77 290.89 596.77 281.99 596.77 273.09 596.77 273.09 605.67 281.99 605.67 290.89 605.67 299.79 605.67 308.69 605.67 317.59 605.67 326.49 605.67 335.39 605.67 344.29 605.67 344.29 614.57 344.29 623.48 344.29 632.38 344.29 641.28 344.29 650.18 344.29 659.08 344.29 667.98 344.29 676.88 353.19 676.88 353.19 667.98 353.19 659.08 353.19 650.18 353.19 641.28 353.19 632.38 362.1 632.38 362.1 623.48 353.19 623.48"/>
      <polygon class="cls-3" points="379.9 632.38 371 632.38 362.1 632.38 362.1 641.28 371 641.28 379.9 641.28 388.8 641.28 388.8 632.38 379.9 632.38"/>
      <polygon class="cls-3" points="335.39 685.78 335.39 694.68 344.29 694.68 344.29 685.78 344.29 676.88 335.39 676.88 335.39 685.78"/>
      <polygon class="cls-3" points="281.99 676.88 273.09 676.88 273.09 667.98 273.09 659.08 273.09 650.18 273.09 641.28 273.09 632.38 273.09 623.48 264.18 623.48 264.18 632.38 264.18 641.28 264.18 650.18 264.18 659.08 264.18 667.98 264.18 676.88 264.18 685.78 264.18 694.68 264.18 703.58 273.09 703.58 273.09 694.68 273.09 685.78 281.99 685.78 290.89 685.78 290.89 676.88 281.99 676.88"/>
      <polygon class="cls-3" points="299.79 685.78 290.89 685.78 290.89 694.68 299.79 694.68 308.69 694.68 308.69 685.78 299.79 685.78"/>
      <polygon class="cls-3" points="317.59 694.68 308.69 694.68 308.69 703.58 317.59 703.58 326.49 703.58 326.49 712.49 326.49 721.39 335.39 721.39 335.39 712.49 335.39 703.58 335.39 694.68 326.49 694.68 317.59 694.68"/>
      <rect class="cls-2" x="264.18" y="614.57" width="8.9" height="8.9"/>
      <polygon class="cls-2" points="344.29 614.57 344.29 605.67 335.39 605.67 326.49 605.67 317.59 605.67 308.69 605.67 299.79 605.67 290.89 605.67 281.99 605.67 273.09 605.67 273.09 614.57 281.99 614.57 290.89 614.57 299.79 614.57 308.69 614.57 317.59 614.57 326.49 614.57 335.39 614.57 344.29 614.57"/>
      <rect class="cls-2" x="273.09" y="623.48" width="8.9" height="8.9"/>
      <rect class="cls-2" x="353.2" y="632.38" width="8.9" height="8.9"/>
      <polygon class="cls-2" points="379.9 641.28 371 641.28 362.1 641.28 362.1 650.18 371 650.18 379.9 650.18 388.8 650.18 388.8 641.28 379.9 641.28"/>
      <rect class="cls-2" x="344.29" y="676.88" width="8.9" height="8.9"/>
      <rect class="cls-2" x="335.39" y="694.68" width="8.9" height="8.9"/>
      <polygon class="cls-2" points="281.99 685.78 273.09 685.78 273.09 694.68 281.99 694.68 290.89 694.68 290.89 685.78 281.99 685.78"/>
      <polygon class="cls-2" points="299.79 694.68 290.89 694.68 290.89 703.58 299.79 703.58 308.69 703.58 308.69 694.68 299.79 694.68"/>
      <polygon class="cls-2" points="308.69 703.58 308.69 712.49 317.59 712.49 326.49 712.49 326.49 703.58 317.59 703.58 308.69 703.58"/>
      <rect class="cls-2" x="264.18" y="703.58" width="8.9" height="8.9"/>
      <rect class="cls-3" x="388.8" y="605.67" width="8.9" height="8.9"/>
      <rect class="cls-3" x="397.7" y="614.57" width="8.9" height="8.9"/>
      <polygon class="cls-3" points="477.81 623.48 477.81 614.57 477.81 605.67 477.81 596.77 468.91 596.77 460.01 596.77 451.11 596.77 442.2 596.77 433.3 596.77 424.4 596.77 415.5 596.77 406.6 596.77 397.7 596.77 397.7 605.67 406.6 605.67 415.5 605.67 424.4 605.67 433.3 605.67 442.2 605.67 451.11 605.67 460.01 605.67 468.91 605.67 468.91 614.57 468.91 623.48 468.91 632.38 468.91 641.28 468.91 650.18 468.91 659.08 468.91 667.98 468.91 676.88 477.81 676.88 477.81 667.98 477.81 659.08 477.81 650.18 477.81 641.28 477.81 632.38 486.71 632.38 486.71 623.48 477.81 623.48"/>
      <polygon class="cls-3" points="504.51 632.38 495.61 632.38 486.71 632.38 486.71 641.28 495.61 641.28 504.51 641.28 513.41 641.28 513.41 632.38 504.51 632.38"/>
      <polygon class="cls-3" points="460.01 685.78 460.01 694.68 468.91 694.68 468.91 685.78 468.91 676.88 460.01 676.88 460.01 685.78"/>
      <polygon class="cls-3" points="406.6 676.88 397.7 676.88 397.7 667.98 397.7 659.08 397.7 650.18 397.7 641.28 397.7 632.38 397.7 623.48 388.8 623.48 388.8 632.38 388.8 641.28 388.8 650.18 388.8 659.08 388.8 667.98 388.8 676.88 388.8 685.78 388.8 694.68 388.8 703.58 397.7 703.58 397.7 694.68 397.7 685.78 406.6 685.78 415.5 685.78 415.5 676.88 406.6 676.88"/>
      <polygon class="cls-3" points="424.4 685.78 415.5 685.78 415.5 694.68 424.4 694.68 433.3 694.68 433.3 685.78 424.4 685.78"/>
      <polygon class="cls-3" points="442.2 694.68 433.3 694.68 433.3 703.58 442.2 703.58 451.11 703.58 451.11 712.49 451.11 721.39 460.01 721.39 460.01 712.49 460.01 703.58 460.01 694.68 451.11 694.68 442.2 694.68"/>
      <rect class="cls-2" x="388.8" y="614.57" width="8.9" height="8.9"/>
      <polygon class="cls-2" points="468.91 614.57 468.91 605.67 460.01 605.67 451.11 605.67 442.2 605.67 433.3 605.67 424.4 605.67 415.5 605.67 406.6 605.67 397.7 605.67 397.7 614.57 406.6 614.57 415.5 614.57 424.4 614.57 433.3 614.57 442.2 614.57 451.11 614.57 460.01 614.57 468.91 614.57"/>
      <rect class="cls-2" x="397.7" y="623.48" width="8.9" height="8.9"/>
      <rect class="cls-2" x="477.81" y="632.38" width="8.9" height="8.9"/>
      <polygon class="cls-2" points="504.51 641.28 495.61 641.28 486.71 641.28 486.71 650.18 495.61 650.18 504.51 650.18 513.41 650.18 513.41 641.28 504.51 641.28"/>
      <rect class="cls-2" x="468.91" y="676.88" width="8.9" height="8.9"/>
      <rect class="cls-2" x="460.01" y="694.68" width="8.9" height="8.9"/>
      <polygon class="cls-2" points="406.6 685.78 397.7 685.78 397.7 694.68 406.6 694.68 415.5 694.68 415.5 685.78 406.6 685.78"/>
      <polygon class="cls-2" points="424.4 694.68 415.5 694.68 415.5 703.58 424.4 703.58 433.3 703.58 433.3 694.68 424.4 694.68"/>
      <polygon class="cls-2" points="433.3 703.58 433.3 712.49 442.2 712.49 451.11 712.49 451.11 703.58 442.2 703.58 433.3 703.58"/>
      <rect class="cls-2" x="388.8" y="703.58" width="8.9" height="8.9"/>
      <rect class="cls-3" x="513.41" y="605.67" width="8.9" height="8.9"/>
      <rect class="cls-3" x="522.31" y="614.57" width="8.9" height="8.9"/>
      <polygon class="cls-3" points="593.52 596.77 584.62 596.77 575.72 596.77 566.82 596.77 557.92 596.77 549.02 596.77 540.12 596.77 531.22 596.77 522.31 596.77 522.31 605.67 531.22 605.67 540.12 605.67 549.02 605.67 557.92 605.67 566.82 605.67 575.72 605.67 584.62 605.67 593.52 605.67 593.52 614.57 593.52 623.47 593.52 632.38 593.52 641.28 593.52 650.18 593.52 659.08 593.52 667.98 593.52 676.88 601.23 676.88 601.23 596.77 593.52 596.77"/>
      <polygon class="cls-3" points="584.62 685.78 584.62 694.68 593.52 694.68 593.52 685.78 593.52 676.88 584.62 676.88 584.62 685.78"/>
      <polygon class="cls-3" points="531.21 676.88 522.31 676.88 522.31 667.98 522.31 659.08 522.31 650.18 522.31 641.28 522.31 632.38 522.31 623.48 513.41 623.48 513.41 632.38 513.41 641.28 513.41 650.18 513.41 659.08 513.41 667.98 513.41 676.88 513.41 685.78 513.41 694.68 513.41 703.58 522.31 703.58 522.31 694.68 522.31 685.78 531.21 685.78 540.12 685.78 540.12 676.88 531.21 676.88"/>
      <polygon class="cls-3" points="549.02 685.78 540.12 685.78 540.12 694.68 549.02 694.68 557.92 694.68 557.92 685.78 549.02 685.78"/>
      <polygon class="cls-3" points="566.82 694.68 557.92 694.68 557.92 703.58 566.82 703.58 575.72 703.58 575.72 712.49 575.72 721.39 584.62 721.39 584.62 712.49 584.62 703.58 584.62 694.68 575.72 694.68 566.82 694.68"/>
      <rect class="cls-2" x="513.41" y="614.57" width="8.9" height="8.9"/>
      <polygon class="cls-2" points="593.52 614.57 593.52 605.67 584.62 605.67 575.72 605.67 566.82 605.67 557.92 605.67 549.02 605.67 540.12 605.67 531.21 605.67 522.31 605.67 522.31 614.57 531.21 614.57 540.12 614.57 549.02 614.57 557.92 614.57 566.82 614.57 575.72 614.57 584.62 614.57 593.52 614.57"/>
      <rect class="cls-2" x="522.31" y="623.48" width="8.9" height="8.9"/>
      <g class="cls-10">
        <rect class="cls-2" x="602.42" y="632.38" width="8.9" height="8.9"/>
      </g>
      <rect class="cls-2" x="593.52" y="676.88" width="7.7" height="8.9"/>
      <rect class="cls-2" x="584.62" y="694.68" width="8.9" height="8.9"/>
      <polygon class="cls-2" points="531.21 685.78 522.31 685.78 522.31 694.68 531.21 694.68 540.12 694.68 540.12 685.78 531.21 685.78"/>
      <polygon class="cls-2" points="549.02 694.68 540.12 694.68 540.12 703.58 549.02 703.58 557.92 703.58 557.92 694.68 549.02 694.68"/>
      <polygon class="cls-2" points="557.92 703.58 557.92 712.49 566.82 712.49 575.72 712.49 575.72 703.58 566.82 703.58 557.92 703.58"/>
      <rect class="cls-2" x="513.41" y="703.58" width="8.9" height="8.9"/>
      <rect class="cls-3" x="14.96" y="730.29" width="8.9" height="8.9"/>
      <rect class="cls-3" x="23.86" y="739.19" width="8.9" height="8.9"/>
      <polygon class="cls-3" points="103.97 748.09 103.97 739.19 103.97 730.29 103.97 721.39 95.07 721.39 86.16 721.39 77.26 721.39 68.36 721.39 59.46 721.39 50.56 721.39 41.66 721.39 32.76 721.39 23.86 721.39 23.86 730.29 32.76 730.29 41.66 730.29 50.56 730.29 59.46 730.29 68.36 730.29 77.26 730.29 86.16 730.29 95.07 730.29 95.07 739.19 95.07 748.09 95.07 756.99 95.07 765.89 95.07 774.79 95.07 783.69 95.07 792.59 95.07 801.49 103.97 801.49 103.97 792.59 103.97 783.69 103.97 774.79 103.97 765.89 103.97 756.99 112.87 756.99 112.87 748.09 103.97 748.09"/>
      <polygon class="cls-3" points="130.67 756.99 121.77 756.99 112.87 756.99 112.87 765.89 121.77 765.89 130.67 765.89 139.57 765.89 139.57 756.99 130.67 756.99"/>
      <polygon class="cls-3" points="86.16 810.4 86.16 819.3 95.07 819.3 95.07 810.4 95.07 801.49 86.16 801.49 86.16 810.4"/>
      <polygon class="cls-3" points="14.96 748.09 14.96 756.99 14.96 765.89 14.96 774.79 14.96 783.69 14.96 792.59 14.96 801.49 14.96 810.4 14.96 819.3 14.96 828.2 23.86 828.2 23.86 819.3 23.86 810.4 32.76 810.4 41.66 810.4 41.66 801.49 32.76 801.49 23.86 801.49 23.86 792.59 23.86 783.69 23.86 774.79 23.86 765.89 23.86 756.99 23.86 748.09 14.96 748.09"/>
      <polygon class="cls-3" points="50.56 810.4 41.66 810.4 41.66 819.3 50.56 819.3 59.46 819.3 59.46 810.4 50.56 810.4"/>
      <polygon class="cls-3" points="77.26 819.3 68.36 819.3 59.46 819.3 59.46 828.2 68.36 828.2 77.26 828.2 77.26 837.1 77.26 846 86.17 846 86.17 837.1 86.17 828.2 86.17 819.3 77.26 819.3"/>
      <rect class="cls-2" x="14.96" y="739.19" width="8.9" height="8.9"/>
      <polygon class="cls-2" points="95.07 739.19 95.07 730.29 86.16 730.29 77.26 730.29 68.36 730.29 59.46 730.29 50.56 730.29 41.66 730.29 32.76 730.29 23.86 730.29 23.86 739.19 32.76 739.19 41.66 739.19 50.56 739.19 59.46 739.19 68.36 739.19 77.26 739.19 86.16 739.19 95.07 739.19"/>
      <rect class="cls-2" x="23.86" y="748.09" width="8.9" height="8.9"/>
      <rect class="cls-2" x="103.97" y="756.99" width="8.9" height="8.9"/>
      <polygon class="cls-2" points="130.67 765.89 121.77 765.89 112.87 765.89 112.87 774.79 121.77 774.79 130.67 774.79 139.57 774.79 139.57 765.89 130.67 765.89"/>
      <rect class="cls-2" x="95.07" y="801.49" width="8.9" height="8.9"/>
      <rect class="cls-2" x="86.17" y="819.3" width="8.9" height="8.9"/>
      <polygon class="cls-2" points="32.76 810.4 23.86 810.4 23.86 819.3 32.76 819.3 41.66 819.3 41.66 810.4 32.76 810.4"/>
      <polygon class="cls-2" points="50.56 819.3 41.66 819.3 41.66 828.2 50.56 828.2 59.46 828.2 59.46 819.3 50.56 819.3"/>
      <polygon class="cls-2" points="59.46 828.2 59.46 837.1 68.36 837.1 77.26 837.1 77.26 828.2 68.36 828.2 59.46 828.2"/>
      <rect class="cls-2" x="14.96" y="828.2" width="8.9" height="8.9"/>
      <rect class="cls-3" x="139.57" y="730.29" width="8.9" height="8.9"/>
      <rect class="cls-3" x="148.47" y="739.19" width="8.9" height="8.9"/>
      <polygon class="cls-3" points="228.58 748.09 228.58 739.19 228.58 730.29 228.58 721.39 219.68 721.39 210.78 721.39 201.88 721.39 192.98 721.39 184.08 721.39 175.17 721.39 166.27 721.39 157.37 721.39 148.47 721.39 148.47 730.29 157.37 730.29 166.27 730.29 175.17 730.29 184.08 730.29 192.98 730.29 201.88 730.29 210.78 730.29 219.68 730.29 219.68 739.19 219.68 748.09 219.68 756.99 219.68 765.89 219.68 774.79 219.68 783.69 219.68 792.59 219.68 801.49 228.58 801.49 228.58 792.59 228.58 783.69 228.58 774.79 228.58 765.89 228.58 756.99 237.48 756.99 237.48 748.09 228.58 748.09"/>
      <polygon class="cls-3" points="255.28 756.99 246.38 756.99 237.48 756.99 237.48 765.89 246.38 765.89 255.28 765.89 264.18 765.89 264.18 756.99 255.28 756.99"/>
      <polygon class="cls-3" points="210.78 810.4 210.78 819.3 219.68 819.3 219.68 810.4 219.68 801.49 210.78 801.49 210.78 810.4"/>
      <polygon class="cls-3" points="157.37 801.49 148.47 801.49 148.47 792.59 148.47 783.69 148.47 774.79 148.47 765.89 148.47 756.99 148.47 748.09 139.57 748.09 139.57 756.99 139.57 765.89 139.57 774.79 139.57 783.69 139.57 792.59 139.57 801.49 139.57 810.4 139.57 819.3 139.57 828.2 148.47 828.2 148.47 819.3 148.47 810.4 157.37 810.4 166.27 810.4 166.27 801.49 157.37 801.49"/>
      <polygon class="cls-3" points="175.17 810.4 166.27 810.4 166.27 819.3 175.17 819.3 184.08 819.3 184.08 810.4 175.17 810.4"/>
      <polygon class="cls-3" points="201.88 819.3 192.98 819.3 184.08 819.3 184.08 828.2 192.98 828.2 201.88 828.2 201.88 837.1 201.88 846 210.78 846 210.78 837.1 210.78 828.2 210.78 819.3 201.88 819.3"/>
      <rect class="cls-2" x="139.57" y="739.19" width="8.9" height="8.9"/>
      <polygon class="cls-2" points="219.68 739.19 219.68 730.29 210.78 730.29 201.88 730.29 192.98 730.29 184.08 730.29 175.17 730.29 166.27 730.29 157.37 730.29 148.47 730.29 148.47 739.19 157.37 739.19 166.27 739.19 175.17 739.19 184.08 739.19 192.98 739.19 201.88 739.19 210.78 739.19 219.68 739.19"/>
      <rect class="cls-2" x="148.47" y="748.09" width="8.9" height="8.9"/>
      <rect class="cls-2" x="228.58" y="756.99" width="8.9" height="8.9"/>
      <polygon class="cls-2" points="255.28 765.89 246.38 765.89 237.48 765.89 237.48 774.79 246.38 774.79 255.28 774.79 264.18 774.79 264.18 765.89 255.28 765.89"/>
      <rect class="cls-2" x="219.68" y="801.49" width="8.9" height="8.9"/>
      <rect class="cls-2" x="210.78" y="819.3" width="8.9" height="8.9"/>
      <polygon class="cls-2" points="157.37 810.4 148.47 810.4 148.47 819.3 157.37 819.3 166.27 819.3 166.27 810.4 157.37 810.4"/>
      <polygon class="cls-2" points="175.17 819.3 166.27 819.3 166.27 828.2 175.17 828.2 184.08 828.2 184.08 819.3 175.17 819.3"/>
      <polygon class="cls-2" points="184.08 828.2 184.08 837.1 192.98 837.1 201.88 837.1 201.88 828.2 192.98 828.2 184.08 828.2"/>
      <rect class="cls-2" x="139.57" y="828.2" width="8.9" height="8.9"/>
      <rect class="cls-3" x="264.18" y="730.29" width="8.9" height="8.9"/>
      <rect class="cls-3" x="273.09" y="739.19" width="8.9" height="8.9"/>
      <polygon class="cls-3" points="353.19 748.09 353.19 739.19 353.19 730.29 353.19 721.39 344.29 721.39 335.39 721.39 326.49 721.39 317.59 721.39 308.69 721.39 299.79 721.39 290.89 721.39 281.99 721.39 273.09 721.39 273.09 730.29 281.99 730.29 290.89 730.29 299.79 730.29 308.69 730.29 317.59 730.29 326.49 730.29 335.39 730.29 344.29 730.29 344.29 739.19 344.29 748.09 344.29 756.99 344.29 765.89 344.29 774.79 344.29 783.69 344.29 792.59 344.29 801.49 353.19 801.49 353.19 792.59 353.19 783.69 353.19 774.79 353.19 765.89 353.19 756.99 362.1 756.99 362.1 748.09 353.19 748.09"/>
      <polygon class="cls-3" points="379.9 756.99 371 756.99 362.1 756.99 362.1 765.89 371 765.89 379.9 765.89 388.8 765.89 388.8 756.99 379.9 756.99"/>
      <polygon class="cls-3" points="335.39 810.4 335.39 819.3 344.29 819.3 344.29 810.4 344.29 801.49 335.39 801.49 335.39 810.4"/>
      <polygon class="cls-3" points="281.99 801.49 273.09 801.49 273.09 792.59 273.09 783.69 273.09 774.79 273.09 765.89 273.09 756.99 273.09 748.09 264.18 748.09 264.18 756.99 264.18 765.89 264.18 774.79 264.18 783.69 264.18 792.59 264.18 801.49 264.18 810.4 264.18 819.3 264.18 828.2 273.09 828.2 273.09 819.3 273.09 810.4 281.99 810.4 290.89 810.4 290.89 801.49 281.99 801.49"/>
      <polygon class="cls-3" points="299.79 810.4 290.89 810.4 290.89 819.3 299.79 819.3 308.69 819.3 308.69 810.4 299.79 810.4"/>
      <polygon class="cls-3" points="326.49 819.3 317.59 819.3 308.69 819.3 308.69 828.2 317.59 828.2 326.49 828.2 326.49 837.1 326.49 846 335.39 846 335.39 837.1 335.39 828.2 335.39 819.3 326.49 819.3"/>
      <rect class="cls-2" x="264.18" y="739.19" width="8.9" height="8.9"/>
      <polygon class="cls-2" points="344.29 739.19 344.29 730.29 335.39 730.29 326.49 730.29 317.59 730.29 308.69 730.29 299.79 730.29 290.89 730.29 281.99 730.29 273.09 730.29 273.09 739.19 281.99 739.19 290.89 739.19 299.79 739.19 308.69 739.19 317.59 739.19 326.49 739.19 335.39 739.19 344.29 739.19"/>
      <rect class="cls-2" x="273.09" y="748.09" width="8.9" height="8.9"/>
      <rect class="cls-2" x="353.2" y="756.99" width="8.9" height="8.9"/>
      <polygon class="cls-2" points="379.9 765.89 371 765.89 362.1 765.89 362.1 774.79 371 774.79 379.9 774.79 388.8 774.79 388.8 765.89 379.9 765.89"/>
      <rect class="cls-2" x="344.29" y="801.49" width="8.9" height="8.9"/>
      <rect class="cls-2" x="335.39" y="819.3" width="8.9" height="8.9"/>
      <polygon class="cls-2" points="281.99 810.4 273.09 810.4 273.09 819.3 281.99 819.3 290.89 819.3 290.89 810.4 281.99 810.4"/>
      <polygon class="cls-2" points="299.79 819.3 290.89 819.3 290.89 828.2 299.79 828.2 308.69 828.2 308.69 819.3 299.79 819.3"/>
      <polygon class="cls-2" points="308.69 828.2 308.69 837.1 317.59 837.1 326.49 837.1 326.49 828.2 317.59 828.2 308.69 828.2"/>
      <rect class="cls-2" x="264.18" y="828.2" width="8.9" height="8.9"/>
      <rect class="cls-3" x="388.8" y="730.29" width="8.9" height="8.9"/>
      <rect class="cls-3" x="397.7" y="739.19" width="8.9" height="8.9"/>
      <polygon class="cls-3" points="477.81 748.09 477.81 739.19 477.81 730.29 477.81 721.39 468.91 721.39 460.01 721.39 451.11 721.39 442.2 721.39 433.3 721.39 424.4 721.39 415.5 721.39 406.6 721.39 397.7 721.39 397.7 730.29 406.6 730.29 415.5 730.29 424.4 730.29 433.3 730.29 442.2 730.29 451.11 730.29 460.01 730.29 468.91 730.29 468.91 739.19 468.91 748.09 468.91 756.99 468.91 765.89 468.91 774.79 468.91 783.69 468.91 792.59 468.91 801.49 477.81 801.49 477.81 792.59 477.81 783.69 477.81 774.79 477.81 765.89 477.81 756.99 486.71 756.99 486.71 748.09 477.81 748.09"/>
      <polygon class="cls-3" points="504.51 756.99 495.61 756.99 486.71 756.99 486.71 765.89 495.61 765.89 504.51 765.89 513.41 765.89 513.41 756.99 504.51 756.99"/>
      <polygon class="cls-3" points="460.01 810.4 460.01 819.3 468.91 819.3 468.91 810.4 468.91 801.49 460.01 801.49 460.01 810.4"/>
      <polygon class="cls-3" points="406.6 801.49 397.7 801.49 397.7 792.59 397.7 783.69 397.7 774.79 397.7 765.89 397.7 756.99 397.7 748.09 388.8 748.09 388.8 756.99 388.8 765.89 388.8 774.79 388.8 783.69 388.8 792.59 388.8 801.49 388.8 810.4 388.8 819.3 388.8 828.2 397.7 828.2 397.7 819.3 397.7 810.4 406.6 810.4 415.5 810.4 415.5 801.49 406.6 801.49"/>
      <polygon class="cls-3" points="424.4 810.4 415.5 810.4 415.5 819.3 424.4 819.3 433.3 819.3 433.3 810.4 424.4 810.4"/>
      <polygon class="cls-3" points="451.11 819.3 442.21 819.3 433.3 819.3 433.3 828.2 442.21 828.2 451.11 828.2 451.11 837.1 451.11 846 460.01 846 460.01 837.1 460.01 828.2 460.01 819.3 451.11 819.3"/>
      <rect class="cls-2" x="388.8" y="739.19" width="8.9" height="8.9"/>
      <polygon class="cls-2" points="468.91 739.19 468.91 730.29 460.01 730.29 451.11 730.29 442.2 730.29 433.3 730.29 424.4 730.29 415.5 730.29 406.6 730.29 397.7 730.29 397.7 739.19 406.6 739.19 415.5 739.19 424.4 739.19 433.3 739.19 442.2 739.19 451.11 739.19 460.01 739.19 468.91 739.19"/>
      <rect class="cls-2" x="397.7" y="748.09" width="8.9" height="8.9"/>
      <rect class="cls-2" x="477.81" y="756.99" width="8.9" height="8.9"/>
      <polygon class="cls-2" points="504.51 765.89 495.61 765.89 486.71 765.89 486.71 774.79 495.61 774.79 504.51 774.79 513.41 774.79 513.41 765.89 504.51 765.89"/>
      <rect class="cls-2" x="468.91" y="801.49" width="8.9" height="8.9"/>
      <rect class="cls-2" x="460.01" y="819.3" width="8.9" height="8.9"/>
      <polygon class="cls-2" points="406.6 810.4 397.7 810.4 397.7 819.3 406.6 819.3 415.5 819.3 415.5 810.4 406.6 810.4"/>
      <polygon class="cls-2" points="424.4 819.3 415.5 819.3 415.5 828.2 424.4 828.2 433.3 828.2 433.3 819.3 424.4 819.3"/>
      <polygon class="cls-2" points="433.3 828.2 433.3 837.1 442.2 837.1 451.11 837.1 451.11 828.2 442.2 828.2 433.3 828.2"/>
      <rect class="cls-2" x="388.8" y="828.2" width="8.9" height="8.9"/>
      <rect class="cls-3" x="513.41" y="730.29" width="8.9" height="8.9"/>
      <rect class="cls-3" x="522.31" y="739.19" width="8.9" height="8.9"/>
      <polygon class="cls-3" points="593.52 721.39 584.62 721.39 575.72 721.39 566.82 721.39 557.92 721.39 549.02 721.39 540.12 721.39 531.22 721.39 522.31 721.39 522.31 730.29 531.22 730.29 540.12 730.29 549.02 730.29 557.92 730.29 566.82 730.29 575.72 730.29 584.62 730.29 593.52 730.29 593.52 739.19 593.52 748.09 593.52 756.99 593.52 765.89 593.52 774.79 593.52 783.69 593.52 792.59 593.52 801.49 601.23 801.49 601.23 721.39 593.52 721.39"/>
      <polygon class="cls-3" points="584.62 810.4 584.62 819.3 593.52 819.3 593.52 810.4 593.52 801.49 584.62 801.49 584.62 810.4"/>
      <polygon class="cls-3" points="531.21 801.49 522.31 801.49 522.31 792.59 522.31 783.69 522.31 774.79 522.31 765.89 522.31 756.99 522.31 748.09 513.41 748.09 513.41 756.99 513.41 765.89 513.41 774.79 513.41 783.69 513.41 792.59 513.41 801.49 513.41 810.4 513.41 819.3 513.41 828.2 522.31 828.2 522.31 819.3 522.31 810.4 531.21 810.4 540.12 810.4 540.12 801.49 531.21 801.49"/>
      <polygon class="cls-3" points="549.02 810.4 540.12 810.4 540.12 819.3 549.02 819.3 557.92 819.3 557.92 810.4 549.02 810.4"/>
      <polygon class="cls-3" points="575.72 819.3 566.82 819.3 557.92 819.3 557.92 828.2 566.82 828.2 575.72 828.2 575.72 837.1 575.72 846 584.62 846 584.62 837.1 584.62 828.2 584.62 819.3 575.72 819.3"/>
      <rect class="cls-2" x="513.41" y="739.19" width="8.9" height="8.9"/>
      <polygon class="cls-2" points="593.52 739.19 593.52 730.29 584.62 730.29 575.72 730.29 566.82 730.29 557.92 730.29 549.02 730.29 540.12 730.29 531.21 730.29 522.31 730.29 522.31 739.19 531.21 739.19 540.12 739.19 549.02 739.19 557.92 739.19 566.82 739.19 575.72 739.19 584.62 739.19 593.52 739.19"/>
      <rect class="cls-2" x="522.31" y="748.09" width="8.9" height="8.9"/>
      <g class="cls-9">
        <rect class="cls-2" x="602.42" y="756.99" width="8.9" height="8.9"/>
      </g>
      <rect class="cls-2" x="593.52" y="801.49" width="7.7" height="8.9"/>
      <rect class="cls-2" x="584.62" y="819.3" width="8.9" height="8.9"/>
      <polygon class="cls-2" points="531.21 810.4 522.31 810.4 522.31 819.3 531.21 819.3 540.12 819.3 540.12 810.4 531.21 810.4"/>
      <polygon class="cls-2" points="549.02 819.3 540.12 819.3 540.12 828.2 549.02 828.2 557.92 828.2 557.92 819.3 549.02 819.3"/>
      <polygon class="cls-2" points="557.92 828.2 557.92 837.1 566.82 837.1 575.72 837.1 575.72 828.2 566.82 828.2 557.92 828.2"/>
      <rect class="cls-2" x="513.41" y="828.2" width="8.9" height="8.9"/>
    </g>
  </g>
</svg>