<?xml version="1.0" encoding="UTF-8"?>
<svg id="Calque_1" data-name="Calque 1" xmlns="http://www.w3.org/2000/svg" xmlns:xlink="http://www.w3.org/1999/xlink" viewBox="0 0 616 860">
  <defs>
    <style>
      .cls-1 {
        clip-path: url(#clippath);
      }

      .cls-2, .cls-3, .cls-4 {
        stroke-width: 0px;
      }

      .cls-2, .cls-5 {
        fill: none;
      }

      .cls-6 {
        clip-path: url(#clippath-1);
      }

      .cls-7 {
        clip-path: url(#clippath-4);
      }

      .cls-8 {
        clip-path: url(#clippath-3);
      }

      .cls-9 {
        clip-path: url(#clippath-2);
      }

      .cls-10 {
        clip-path: url(#clippath-9);
      }

      .cls-5 {
        stroke: #000;
      }

      .cls-4 {
        fill: #fff;
      }
    </style>
    <clipPath id="clippath">
      <rect class="cls-2" width="616" height="860"/>
    </clipPath>
    <clipPath id="clippath-1">
      <rect class="cls-2" width="616" height="860"/>
    </clipPath>
    <clipPath id="clippath-2">
      <rect class="cls-2" width="616" height="860"/>
    </clipPath>
    <clipPath id="clippath-3">
      <rect class="cls-2" width="616" height="860"/>
    </clipPath>
    <clipPath id="clippath-4">
      <rect class="cls-2" width="616" height="860"/>
    </clipPath>
    <clipPath id="clippath-5">
      <rect class="cls-2" x="14" y="667.67" width="193.22" height="178.33"/>
    </clipPath>
    <clipPath id="clippath-7">
      <rect class="cls-2" x="444.55" y="385.3" width="171.45" height="195.39"/>
    </clipPath>
    <clipPath id="clippath-9">
      <rect class="cls-2" x="444.55" y="385.3" width="171.45" height="195.39"/>
    </clipPath>
    <clipPath id="clippath-10">
      <rect class="cls-2" x="636" width="616" height="860"/>
    </clipPath>
    <clipPath id="clippath-11">
      <rect class="cls-2" x="636" width="616" height="860"/>
    </clipPath>
    <clipPath id="clippath-12">
      <rect class="cls-2" x="1071.15" y="356.13" width="180.85" height="241.13"/>
    </clipPath>
    <clipPath id="clippath-14">
      <rect class="cls-2" x="636.54" y="329.46" width="160.54" height="241.13"/>
    </clipPath>
  </defs>
  <g class="cls-1">
    <g class="cls-6">
      <g class="cls-9">
        <path class="cls-3" d="M96.41,32.86h-1.19l-2.84,1.44v1.46l2.56-1.18v8.56h1.47v-10.28ZM85.88,41.75l3.32-6.32c.18.52.28,1.16.28,1.95v1.26c0,2.33-.85,3.44-2.38,3.44-.48,0-.88-.1-1.22-.32M84.72,38.63v-1.26c0-2.32.85-3.44,2.38-3.44.48,0,.88.11,1.22.32l-3.32,6.32c-.18-.52-.28-1.16-.28-1.95M87.1,43.36c2.67,0,3.85-1.97,3.85-4.73v-1.26c0-2.76-1.18-4.73-3.85-4.73s-3.85,1.97-3.85,4.73v1.26c0,2.76,1.18,4.73,3.85,4.73M72.61,43.14h1.46v-4.75c.08-.95.84-1.66,1.88-1.66,1.23,0,1.71.73,1.71,1.83v4.58h1.46v-4.87c0-1.95-1.13-2.8-2.78-2.8-.93,0-1.77.34-2.27.88v-.66h-1.46v7.45ZM65.88,41.26v-.1c0-.6.54-.86,1.62-1.12.82-.19,1.46-.37,1.9-.6v1.13c0,1.11-1.06,1.58-2.04,1.58-.85,0-1.48-.29-1.48-.88M67.1,43.36c1.05,0,1.84-.32,2.33-.8.02.25.06.43.09.58h1.48c-.08-.39-.15-.95-.15-2.03v-3.09c0-1.62-1.21-2.55-3.11-2.55s-3.25.93-3.25,2.62v.16h1.46v-.16c0-.83.47-1.4,1.75-1.4s1.68.57,1.68,1.02v.09c0,.51-.48.69-2.09,1.04-1.46.32-2.87.94-2.87,2.39v.11c0,1.27,1.12,2.02,2.69,2.02M61.42,43.14h1.46v-10.28h-1.46v10.28ZM53.83,39.54v-.25c0-1.54.88-2.56,2.37-2.56s2.33,1.02,2.33,2.56v.25c0,1.54-.84,2.59-2.33,2.59s-2.37-1.05-2.37-2.59M56.48,43.36c2.3,0,3.52-1.64,3.52-3.75v-.39c0-2.14-1.22-3.72-3.52-3.72-1.17,0-2.08.4-2.65,1.04v-.85h-1.46v10.44h1.46v-3.85c.57.65,1.49,1.08,2.65,1.08M44.06,43.14h1.45v-2.06l1.18-1.18,2.52,3.24h1.84l-3.33-4.28,3.15-3.16h-1.88l-3.48,3.5v-6.34h-1.45v10.28ZM38.46,43.14h1.46v-4.3c0-1.39.78-2.08,1.92-2.08h.91v-1.29h-.98c-.8,0-1.43.31-1.85.82v-.59h-1.46v7.45ZM30.88,39.5v-.17c0-1.62.88-2.64,2.35-2.64s2.34,1.02,2.34,2.64v.17c0,1.62-.88,2.64-2.34,2.64s-2.35-1.02-2.35-2.64M33.23,43.36c2.37,0,3.81-1.47,3.81-3.88v-.14c0-2.41-1.45-3.88-3.81-3.88s-3.82,1.47-3.82,3.88v.14c0,2.41,1.45,3.88,3.82,3.88M17.93,43.14h1.68l2.51-8.37,2.51,8.37h1.68l3.28-10.28h-1.54l-2.63,8.24-2.46-8.24h-1.65l-2.47,8.24-2.62-8.24h-1.55l3.28,10.28Z"/>
        <path class="cls-3" d="M65.3,25.26v-.1c0-.6.54-.86,1.62-1.12.82-.19,1.46-.37,1.9-.6v1.13c0,1.11-1.06,1.58-2.04,1.58-.85,0-1.48-.29-1.48-.88M66.51,27.36c1.05,0,1.84-.32,2.32-.8.02.25.06.43.09.58h1.48c-.08-.39-.15-.95-.15-2.03v-3.09c0-1.62-1.21-2.55-3.11-2.55s-3.25.93-3.25,2.62v.16h1.45v-.16c0-.83.47-1.4,1.75-1.4s1.68.57,1.68,1.02v.09c0,.51-.48.69-2.09,1.04-1.46.32-2.87.94-2.87,2.39v.11c0,1.27,1.12,2.02,2.69,2.02M59.35,27.36c2.07,0,3.16-.93,3.16-2.33v-.06c0-1.25-.83-2.02-2.21-2.21l-1.59-.21c-.66-.08-1.01-.36-1.01-.83v-.06c0-.54.53-.98,1.65-.98s1.65.45,1.65,1.07v.04h1.47v-.04c0-1.32-1.06-2.3-3.12-2.3s-3.12.98-3.12,2.27v.06c0,1.23.83,2,2.16,2.18l1.59.21c.72.1,1.06.41,1.06.88v.06c0,.59-.48,1.02-1.69,1.02s-1.72-.43-1.72-1.04v-.06h-1.47v.06c0,1.34,1.13,2.27,3.18,2.27M48.99,22.63c.22-1.25,1.04-1.94,2.29-1.94,1.46,0,2.16.95,2.16,1.94h-4.45ZM51.27,27.36c2.3,0,3.6-1.4,3.6-2.84v-.07h-1.45v.07c0,.77-.68,1.61-2.14,1.61-1.36,0-2.23-.83-2.33-2.32h5.96v-.85c0-2.03-1.22-3.5-3.63-3.5s-3.81,1.47-3.81,3.88v.14c0,2.41,1.45,3.88,3.81,3.88M42.25,27.14h1.65l4.14-10.28h-1.47l-3.44,8.56-3.44-8.56h-1.59l4.14,10.28ZM27.22,27.14h1.47v-4.52h5.14v-1.26h-5.14v-3.23h5.82v-1.26h-7.29v10.28ZM15.12,27.14h1.47v-8l2.9,8h1.12l2.9-8v8h1.47v-10.28h-2.06l-2.87,7.92-2.87-7.92h-2.06v10.28Z"/>
        <path class="cls-3" d="M511.45,43.14h1.46v-4.75c.08-.95.84-1.66,1.88-1.66,1.22,0,1.71.73,1.71,1.83v4.58h1.46v-4.87c0-1.95-1.13-2.8-2.78-2.8-.93,0-1.77.34-2.27.88v-3.49h-1.46v10.28ZM508.44,43.14h1.48v-1.19h-1.12c-.6,0-.98-.29-.98-.98v-4.09h2.1v-1.19h-2.37c.2-.14.31-.32.31-.71v-1.15h-1.45v1.19c0,.52-.24.67-.73.67h-.59v1.19h1.27v4.09c0,1.58.99,2.17,2.07,2.17M497.61,39.54v-.25c0-1.54.84-2.56,2.33-2.56s2.37,1.02,2.37,2.56v.25c0,1.54-.88,2.59-2.37,2.59s-2.33-1.05-2.33-2.59M499.66,43.36c1.16,0,2.08-.43,2.65-1.08v.85h1.45v-10.28h-1.45v3.67c-.57-.64-1.48-1.04-2.65-1.04-2.3,0-3.52,1.58-3.52,3.72v.39c0,2.11,1.22,3.75,3.52,3.75M493.02,33.87c0,.52.42.97.96.97s.96-.46.96-.97-.42-.96-.96-.96-.96.44-.96.96M493.25,43.14h1.46v-7.45h-1.46v7.45ZM483.32,43.14h1.67l1.53-5.1,1.47,5.1h1.76l2.21-7.45h-1.52l-1.65,5.49-1.6-5.49h-1.31l-1.63,5.48-1.62-5.48h-1.52l2.21,7.45ZM472.28,41.75l3.32-6.32c.18.52.28,1.16.28,1.95v1.26c0,2.32-.85,3.44-2.38,3.44-.48,0-.88-.1-1.22-.32M471.11,38.63v-1.26c0-2.32.85-3.44,2.38-3.44.48,0,.88.1,1.22.32l-3.32,6.32c-.18-.52-.28-1.16-.28-1.95M473.49,43.36c2.67,0,3.85-1.97,3.85-4.73v-1.26c0-2.76-1.18-4.73-3.85-4.73s-3.85,1.97-3.85,4.73v1.26c0,2.76,1.18,4.73,3.85,4.73M462.95,41.75l3.32-6.32c.18.52.28,1.16.28,1.95v1.26c0,2.32-.85,3.44-2.38,3.44-.48,0-.88-.1-1.22-.32M461.79,38.63v-1.26c0-2.32.85-3.44,2.38-3.44.48,0,.88.1,1.22.32l-3.32,6.32c-.18-.52-.28-1.16-.28-1.95M464.17,43.36c2.67,0,3.85-1.97,3.85-4.73v-1.26c0-2.76-1.18-4.73-3.85-4.73s-3.85,1.97-3.85,4.73v1.26c0,2.76,1.17,4.73,3.85,4.73M458.39,32.86h-1.19l-2.84,1.44v1.46l2.56-1.18v8.56h1.47v-10.28ZM441.17,40.93h6.69l-2.07,2.06.91.88,3.68-3.67-3.68-3.67-.91.88,2.07,2.06h-5.22v-6.94h-1.47v8.41Z"/>
        <path class="cls-3" d="M529.13,27.14h1.48v-1.19h-1.12c-.6,0-.98-.29-.98-.98v-4.09h2.1v-1.19h-2.37c.2-.14.31-.32.31-.71v-1.15h-1.46v1.19c0,.52-.24.67-.73.67h-.59v1.19h1.27v4.09c0,1.58.99,2.17,2.07,2.17M518.19,27.14h1.46v-4.75c.08-.95.84-1.66,1.88-1.66,1.23,0,1.71.73,1.71,1.83v4.58h1.46v-4.87c0-1.95-1.13-2.8-2.78-2.8-.93,0-1.77.34-2.27.88v-3.49h-1.46v10.28ZM510.35,23.57v-.25c0-1.54.84-2.59,2.33-2.59s2.37,1.05,2.37,2.59v.25c0,1.54-.88,2.56-2.37,2.56s-2.33-1.02-2.33-2.56M512.77,30.36c2.01,0,3.74-1.03,3.74-3.01v-7.66h-1.46v.88c-.58-.65-1.5-1.07-2.65-1.07-2.3,0-3.52,1.64-3.52,3.75v.39c0,2.14,1.22,3.72,3.52,3.72,1.17,0,2.08-.4,2.65-1.04v1.03c0,1.2-.95,1.79-2.29,1.79s-2.28-.59-2.28-1.52v-.11h-1.47v.11c0,1.9,1.84,2.74,3.74,2.74M505.7,17.87c0,.52.42.97.96.97s.96-.46.96-.97-.42-.96-.96-.96-.96.44-.96.96M505.93,27.14h1.46v-7.45h-1.46v7.45ZM498.5,22.63c.22-1.25,1.04-1.94,2.29-1.94,1.46,0,2.16.95,2.16,1.94h-4.45ZM500.78,27.36c2.3,0,3.6-1.4,3.6-2.84v-.07h-1.45v.07c0,.77-.68,1.61-2.14,1.61-1.37,0-2.23-.83-2.33-2.32h5.96v-.85c0-2.03-1.22-3.5-3.63-3.5s-3.81,1.47-3.81,3.88v.14c0,2.41,1.45,3.88,3.81,3.88M487.61,27.14h1.67l1.53-5.1,1.47,5.1h1.76l2.21-7.45h-1.52l-1.65,5.49-1.6-5.49h-1.31l-1.63,5.48-1.62-5.48h-1.52l2.21,7.45ZM476.56,25.75l3.32-6.32c.18.52.28,1.16.28,1.95v1.26c0,2.32-.85,3.44-2.38,3.44-.48,0-.88-.1-1.22-.32M475.4,22.63v-1.26c0-2.32.85-3.44,2.38-3.44.48,0,.88.1,1.22.32l-3.32,6.32c-.18-.52-.28-1.16-.28-1.95M477.78,27.36c2.67,0,3.85-1.97,3.85-4.73v-1.26c0-2.76-1.18-4.73-3.85-4.73s-3.85,1.97-3.85,4.73v1.26c0,2.76,1.18,4.73,3.85,4.73M467.24,25.75l3.32-6.32c.18.52.28,1.16.28,1.95v1.26c0,2.32-.85,3.44-2.38,3.44-.48,0-.88-.1-1.22-.32M466.07,22.63v-1.26c0-2.32.85-3.44,2.38-3.44.48,0,.88.1,1.22.32l-3.32,6.32c-.18-.52-.28-1.16-.28-1.95M468.45,27.36c2.67,0,3.85-1.97,3.85-4.73v-1.26c0-2.76-1.18-4.73-3.85-4.73s-3.85,1.97-3.85,4.73v1.26c0,2.76,1.17,4.73,3.85,4.73M456.02,23.2l3.5-4.35v4.35h-3.5ZM459.52,27.14h1.47v-2.67h1.97v-1.26h-1.97v-6.34h-1.48l-5.14,6.38v1.22h5.15v2.67ZM441.17,24.93h6.69l-2.07,2.06.91.88,3.68-3.67-3.68-3.67-.91.88,2.07,2.06h-5.22v-6.94h-1.47v8.41Z"/>
        <path class="cls-3" d="M211.85,43.36c2.07,0,3.16-.93,3.16-2.33v-.06c0-1.25-.83-2.02-2.21-2.21l-1.59-.21c-.66-.08-1.02-.36-1.02-.83v-.06c0-.54.53-.98,1.65-.98s1.65.45,1.65,1.07v.04h1.47v-.04c0-1.32-1.06-2.29-3.12-2.29s-3.12.98-3.12,2.27v.06c0,1.23.83,2,2.16,2.18l1.59.21c.72.1,1.07.41,1.07.88v.06c0,.59-.48,1.02-1.69,1.02s-1.72-.43-1.72-1.04v-.06h-1.47v.06c0,1.34,1.13,2.27,3.18,2.27M201.49,38.63c.22-1.25,1.04-1.94,2.29-1.94,1.46,0,2.16.95,2.16,1.94h-4.45ZM203.77,43.36c2.3,0,3.6-1.4,3.6-2.84v-.07h-1.45v.07c0,.77-.68,1.61-2.14,1.61-1.37,0-2.23-.83-2.33-2.32h5.96v-.85c0-2.03-1.22-3.5-3.63-3.5s-3.81,1.47-3.81,3.88v.14c0,2.41,1.45,3.88,3.81,3.88M197.09,43.14h1.46v-10.28h-1.46v10.28ZM189.91,46.13h1.43l4.59-10.44h-1.44l-2.39,5.45-2.27-5.45h-1.57l3.06,7.23-1.41,3.21ZM186.01,43.14h1.48v-1.19h-1.12c-.6,0-.98-.29-.98-.98v-4.09h2.1v-1.19h-2.37c.2-.14.31-.32.31-.71v-1.15h-1.46v1.19c0,.52-.24.67-.73.67h-.59v1.19h1.27v4.09c0,1.58.99,2.17,2.07,2.17M178.52,43.36c2.07,0,3.16-.93,3.16-2.33v-.06c0-1.25-.83-2.02-2.21-2.21l-1.59-.21c-.66-.08-1.01-.36-1.01-.83v-.06c0-.54.53-.98,1.65-.98s1.65.45,1.65,1.07v.04h1.47v-.04c0-1.32-1.06-2.29-3.12-2.29s-3.12.98-3.12,2.27v.06c0,1.23.82,2,2.16,2.18l1.59.21c.72.1,1.06.41,1.06.88v.06c0,.59-.48,1.02-1.69,1.02s-1.71-.43-1.71-1.04v-.06h-1.47v.06c0,1.34,1.13,2.27,3.18,2.27M158.82,41.75l3.32-6.32c.18.52.28,1.16.28,1.95v1.26c0,2.32-.85,3.44-2.38,3.44-.48,0-.88-.11-1.22-.32M157.66,38.63v-1.26c0-2.33.85-3.44,2.38-3.44.48,0,.88.1,1.22.32l-3.32,6.32c-.18-.52-.28-1.16-.28-1.95M160.04,43.36c2.67,0,3.85-1.97,3.85-4.73v-1.26c0-2.76-1.18-4.73-3.85-4.73s-3.85,1.97-3.85,4.73v1.26c0,2.76,1.18,4.73,3.85,4.73M148.62,36.05v-.06c0-1.18.85-2.07,2.18-2.07s2.18.88,2.18,2.07v.06c0,1.21-.85,2.08-2.18,2.08s-2.18-.87-2.18-2.08M150.8,32.64c-2.2,0-3.68,1.46-3.68,3.42v.07c0,1.96,1.48,3.3,3.48,3.3.88,0,1.85-.32,2.41-.88v.11c0,1.57-.9,3.44-3.46,3.44h-1.69v1.26h1.55c4.14,0,5.13-2.91,5.13-5.96v-.32c0-2.98-1.5-4.44-3.75-4.44"/>
        <path class="cls-3" d="M201.07,27.36c2.07,0,3.16-.93,3.16-2.33v-.06c0-1.25-.83-2.02-2.21-2.21l-1.59-.21c-.66-.08-1.02-.36-1.02-.83v-.06c0-.54.53-.98,1.65-.98s1.65.45,1.65,1.07v.04h1.47v-.04c0-1.32-1.06-2.3-3.12-2.3s-3.12.98-3.12,2.27v.06c0,1.23.83,2,2.16,2.18l1.59.21c.72.1,1.06.41,1.06.88v.06c0,.59-.48,1.02-1.69,1.02s-1.72-.43-1.72-1.04v-.06h-1.47v.06c0,1.34,1.13,2.27,3.18,2.27M195.2,27.14h1.48v-1.19h-1.12c-.6,0-.98-.29-.98-.98v-4.09h2.1v-1.19h-2.37c.2-.14.31-.32.31-.71v-1.15h-1.46v1.19c0,.52-.24.67-.73.67h-.59v1.19h1.27v4.09c0,1.58.99,2.17,2.07,2.17M190.53,19.69h-1.46v4.75c-.08.95-.84,1.66-1.88,1.66-1.22,0-1.71-.73-1.71-1.83v-4.58h-1.46v4.87c0,1.95,1.13,2.8,2.78,2.8.93,0,1.77-.34,2.27-.88v.66h1.46v-7.45ZM179.03,27.36c2.32,0,3.61-1.47,3.61-2.9v-.07h-1.46v.07c0,.73-.69,1.68-2.16,1.68s-2.35-.95-2.35-2.64v-.17c0-1.69.88-2.64,2.35-2.64s2.16.95,2.16,1.68v.07h1.46v-.07c0-1.43-1.29-2.9-3.61-2.9s-3.81,1.47-3.81,3.88v.14c0,2.41,1.45,3.88,3.81,3.88M157.95,20.05v-.06c0-1.18.85-2.07,2.18-2.07s2.18.88,2.18,2.07v.06c0,1.21-.85,2.08-2.18,2.08s-2.18-.87-2.18-2.08M160.12,16.64c-2.2,0-3.67,1.46-3.67,3.42v.07c0,1.96,1.48,3.3,3.48,3.3.88,0,1.86-.32,2.41-.88v.11c0,1.57-.9,3.44-3.46,3.44h-1.69v1.26h1.55c4.14,0,5.13-2.91,5.13-5.96v-.32c0-2.98-1.5-4.44-3.75-4.44M149.74,25.75l3.32-6.32c.18.52.28,1.16.28,1.95v1.26c0,2.33-.85,3.44-2.38,3.44-.48,0-.88-.1-1.22-.32M148.58,22.63v-1.26c0-2.32.85-3.44,2.38-3.44.48,0,.88.11,1.22.32l-3.32,6.32c-.18-.52-.28-1.16-.28-1.95M150.96,27.36c2.67,0,3.85-1.97,3.85-4.73v-1.26c0-2.76-1.18-4.73-3.85-4.73s-3.85,1.97-3.85,4.73v1.26c0,2.76,1.18,4.73,3.85,4.73"/>
        <path class="cls-3" d="M324.5,32.86h-1.19l-2.84,1.44v1.46l2.56-1.18v8.56h1.47v-10.28ZM313.97,41.75l3.32-6.32c.18.52.28,1.16.28,1.95v1.26c0,2.33-.85,3.44-2.38,3.44-.48,0-.88-.1-1.22-.32M312.81,38.63v-1.26c0-2.32.85-3.44,2.38-3.44.48,0,.88.11,1.22.32l-3.32,6.32c-.18-.52-.28-1.16-.28-1.95M315.19,43.36c2.67,0,3.85-1.97,3.85-4.73v-1.26c0-2.76-1.17-4.73-3.85-4.73s-3.85,1.97-3.85,4.73v1.26c0,2.76,1.18,4.73,3.85,4.73M306.68,43.36c2.07,0,3.16-.93,3.16-2.33v-.06c0-1.25-.83-2.02-2.21-2.21l-1.59-.21c-.66-.08-1.02-.36-1.02-.83v-.06c0-.54.53-.98,1.65-.98s1.65.45,1.65,1.07v.04h1.47v-.04c0-1.32-1.06-2.3-3.12-2.3s-3.12.98-3.12,2.27v.06c0,1.23.83,2,2.16,2.18l1.59.21c.72.1,1.06.41,1.06.88v.06c0,.59-.48,1.02-1.69,1.02s-1.72-.43-1.72-1.04v-.06h-1.47v.06c0,1.34,1.13,2.27,3.18,2.27M298.13,43.36c2.45,0,4.06-1.15,4.06-2.97v-.17c0-1.69-1.15-2.63-3.04-2.88l-1.68-.22c-1.26-.17-1.77-.68-1.77-1.41v-.16c0-.8.65-1.61,2.44-1.61s2.46.81,2.46,1.62v.24h1.46v-.24c0-1.9-1.62-2.91-3.91-2.91s-3.93,1.01-3.93,2.98v.15c0,1.51,1.1,2.53,2.95,2.77l1.68.22c1.22.16,1.87.67,1.87,1.51v.17c0,.97-.94,1.62-2.58,1.62s-2.6-.65-2.6-1.76v-.36h-1.46v.36c0,1.9,1.6,3.05,4.06,3.05"/>
        <path class="cls-3" d="M358.98,22.63c.22-1.25,1.04-1.94,2.29-1.94,1.46,0,2.16.95,2.16,1.94h-4.45ZM361.26,27.36c2.3,0,3.61-1.4,3.61-2.84v-.07h-1.46v.07c0,.77-.68,1.61-2.14,1.61-1.36,0-2.23-.83-2.33-2.32h5.96v-.85c0-2.03-1.22-3.5-3.63-3.5s-3.81,1.47-3.81,3.88v.14c0,2.41,1.45,3.88,3.81,3.88M350.13,23.54v-.25c0-1.54.88-2.56,2.37-2.56s2.33,1.02,2.33,2.56v.25c0,1.54-.84,2.59-2.33,2.59s-2.37-1.05-2.37-2.59M352.79,27.36c2.3,0,3.52-1.64,3.52-3.75v-.39c0-2.14-1.22-3.72-3.52-3.72-1.17,0-2.08.4-2.65,1.04v-.85h-1.45v10.44h1.45v-3.85c.57.65,1.49,1.08,2.65,1.08M341.5,30.13h1.43l4.59-10.44h-1.43l-2.39,5.45-2.27-5.45h-1.58l3.06,7.23-1.41,3.21ZM337.6,27.14h1.48v-1.19h-1.12c-.6,0-.98-.29-.98-.98v-4.09h2.1v-1.19h-2.37c.2-.14.31-.32.31-.71v-1.15h-1.45v1.19c0,.52-.24.67-.73.67h-.59v1.19h1.27v4.09c0,1.58.99,2.17,2.07,2.17M324.08,27.14h1.46v-4.75c.08-.95.84-1.66,1.88-1.66,1.23,0,1.71.73,1.71,1.83v4.58h1.46v-4.87c0-1.95-1.13-2.8-2.78-2.8-.93,0-1.77.34-2.27.88v-.66h-1.46v7.45ZM316.65,22.63c.22-1.25,1.04-1.94,2.29-1.94,1.46,0,2.16.95,2.16,1.94h-4.45ZM318.93,27.36c2.3,0,3.6-1.4,3.6-2.84v-.07h-1.45v.07c0,.77-.68,1.61-2.14,1.61-1.36,0-2.23-.83-2.33-2.32h5.96v-.85c0-2.03-1.22-3.5-3.63-3.5s-3.81,1.47-3.81,3.88v.14c0,2.41,1.45,3.88,3.81,3.88M307.8,23.54v-.25c0-1.54.88-2.56,2.37-2.56s2.33,1.02,2.33,2.56v.25c0,1.54-.84,2.59-2.33,2.59s-2.37-1.05-2.37-2.59M310.46,27.36c2.3,0,3.52-1.64,3.52-3.75v-.39c0-2.14-1.22-3.72-3.52-3.72-1.17,0-2.08.4-2.65,1.04v-.85h-1.45v10.44h1.45v-3.85c.58.65,1.49,1.08,2.65,1.08M295.6,22.13v-.25c0-2.62,1.62-3.94,3.81-3.94s3.81,1.32,3.81,3.94v.25c0,2.63-1.62,3.94-3.81,3.94s-3.81-1.32-3.81-3.94M299.4,27.36c3.07,0,5.29-1.79,5.29-5.24v-.25c0-3.37-2.23-5.24-5.29-5.24s-5.29,1.86-5.29,5.24v.25c0,3.45,2.23,5.24,5.29,5.24"/>
        <path class="cls-3" d="M586.64,30.73h15.36c0-9.35-7.05-16.73-16.98-16.73v15.07h-15.02c0,9.15,7.14,16.93,16.64,16.93v-15.27Z"/>
        <path class="cls-3" d="M391.94,581.04c65.12,0,99.22-29.26,99.22-73.26v-1.76c0-39.38-26.18-63.58-69.52-69.3l-49.94-6.6c-20.68-2.64-31.9-11.22-31.9-26.18v-1.76c0-16.94,16.72-30.8,51.92-30.8s51.92,14.08,51.92,33.66v1.32h46.2v-1.32c0-41.36-33.22-72.16-98.12-72.16s-98.12,30.8-98.12,71.5v1.76c0,38.72,25.96,62.92,67.98,68.42l49.94,6.6c22.66,3.08,33.44,12.76,33.44,27.5v1.76c0,18.48-14.96,32.12-53.02,32.12s-53.9-13.64-53.9-32.78v-1.98h-46.2v1.98c0,42.02,35.42,71.28,100.1,71.28M77.34,432.32c6.82-39.38,32.78-60.94,71.94-60.94,45.98,0,67.76,29.7,67.76,60.94H77.34ZM149.06,581.04c72.38,0,113.3-44,113.3-89.1v-2.2h-45.76v2.2c0,24.2-21.34,50.6-67.32,50.6-42.9,0-69.96-25.96-73.26-72.82h187.22v-26.84c0-63.8-38.28-110-114.18-110s-119.68,46.2-119.68,121.88v4.4c0,75.68,45.54,121.88,119.68,121.88"/>
        <path class="cls-3" d="M408.22,733.8v-7.92c0-48.4,26.4-81.4,73.26-81.4s74.58,33,74.58,81.4v7.92c0,48.4-27.72,80.52-74.58,80.52s-73.26-32.12-73.26-80.52M472.68,853.04c36.74,0,65.34-12.54,83.38-32.78v25.74h45.76v-234.08h-45.76v27.5c-18.26-20.46-47.08-33.66-83.38-33.66-72.38,0-110.66,51.48-110.66,117.92v12.32c0,67.32,38.28,117.04,110.66,117.04M170.41,786.82v-3.08c0-18.7,16.94-27.06,51.04-35.2,25.74-5.94,45.76-11.66,59.62-18.92v35.42c0,34.98-33.44,49.5-64.02,49.5-26.84,0-46.64-9.24-46.64-27.72M208.69,853.04c33,0,57.86-10.12,73.04-25.3.66,7.92,1.76,13.42,2.86,18.26h46.64c-2.42-12.32-4.84-29.92-4.84-63.8v-97.24c0-50.82-38.06-80.08-97.68-80.08s-102.08,29.26-102.08,82.5v5.06h45.76v-5.06c0-25.96,14.74-44,55-44s52.8,18.04,52.8,31.9v2.86c0,16.06-15.18,21.78-65.78,32.78-45.76,9.9-90.2,29.7-90.2,75.02v3.52c0,39.82,35.2,63.58,84.48,63.58"/>
      </g>
      <polygon class="cls-3" points="127.58 302 177.96 302 273.88 67.92 229.88 67.92 155.52 249.42 81.16 67.92 31.66 67.92 127.58 302"/>
      <polygon class="cls-3" points="155.61 84.28 140.91 67.58 170.31 67.58 155.61 84.28"/>
      <line class="cls-5" x1="291.86" y1="67.58" x2="601.95" y2="319.36"/>
      <g class="cls-8">
        <path class="cls-4" d="M291.86,69.85c1.26,0,2.28-1.02,2.28-2.28s-1.02-2.28-2.28-2.28-2.28,1.02-2.28,2.28,1.02,2.28,2.28,2.28"/>
        <path class="cls-5" d="M291.86,69.85c1.26,0,2.28-1.02,2.28-2.28s-1.02-2.28-2.28-2.28-2.28,1.02-2.28,2.28,1.02,2.28,2.28,2.28Z"/>
        <path class="cls-4" d="M14,70.96c1.26,0,2.28-1.02,2.28-2.28s-1.02-2.28-2.28-2.28-2.28,1.02-2.28,2.28,1.02,2.28,2.28,2.28"/>
        <path class="cls-5" d="M14,70.96c1.26,0,2.28-1.02,2.28-2.28s-1.02-2.28-2.28-2.28-2.28,1.02-2.28,2.28,1.02,2.28,2.28,2.28Z"/>
        <path class="cls-4" d="M601.95,321.64c1.26,0,2.28-1.02,2.28-2.28s-1.02-2.28-2.28-2.28-2.28,1.02-2.28,2.28,1.02,2.28,2.28,2.28"/>
        <path class="cls-5" d="M601.95,321.64c1.26,0,2.28-1.02,2.28-2.28s-1.02-2.28-2.28-2.28-2.28,1.02-2.28,2.28,1.02,2.28,2.28,2.28Z"/>
      </g>
      <line class="cls-5" x1="14" y1="70.35" x2="14" y2="319.36"/>
      <g class="cls-7">
        <path class="cls-4" d="M14,321.64c1.26,0,2.28-1.02,2.28-2.28s-1.02-2.28-2.28-2.28-2.28,1.02-2.28,2.28,1.02,2.28,2.28,2.28"/>
        <path class="cls-5" d="M14,321.64c1.26,0,2.28-1.02,2.28-2.28s-1.02-2.28-2.28-2.28-2.28,1.02-2.28,2.28,1.02,2.28,2.28,2.28Z"/>
        <path class="cls-3" d="M527.89,302h24.75v-73.07c0-23.56,13.33-35.34,32.61-35.34h15.47v-22.02h-16.66c-13.57,0-24.4,5.24-31.42,13.92v-10.11h-24.75v126.62ZM419.49,269.99v-1.67c0-10.11,9.16-14.64,27.61-19.04,13.92-3.21,24.75-6.31,32.25-10.23v19.16c0,18.92-18.09,26.77-34.63,26.77-14.52,0-25.23-5-25.23-14.99M440.19,305.81c17.85,0,31.3-5.47,39.51-13.68.36,4.28.95,7.26,1.55,9.88h25.23c-1.31-6.66-2.62-16.18-2.62-34.51v-52.6c0-27.49-20.59-43.32-52.84-43.32s-55.22,15.83-55.22,44.62v2.74h24.75v-2.74c0-14.04,7.97-23.8,29.75-23.8s28.56,9.76,28.56,17.26v1.55c0,8.69-8.21,11.78-35.58,17.73-24.75,5.35-48.79,16.07-48.79,40.58v1.9c0,21.54,19.04,34.39,45.7,34.39M308.46,302h27.25l51.88-126.62h-23.8l-40.22,98.17-40.22-98.17h-26.77l51.88,126.62Z"/>
      </g>
      <rect class="cls-4" x="120.83" y="685.47" width="8.9" height="8.9"/>
      <polygon class="cls-4" points="138.64 703.27 147.54 703.27 147.54 694.37 138.64 694.37 129.74 694.37 129.74 703.27 138.64 703.27"/>
      <rect class="cls-4" x="147.54" y="712.17" width="8.9" height="8.9"/>
      <rect class="cls-4" x="103.03" y="685.47" width="8.9" height="8.9"/>
      <polygon class="cls-4" points="76.33 712.17 76.33 703.27 67.43 703.27 58.53 703.27 58.53 712.17 67.43 712.17 76.33 712.17"/>
      <polygon class="cls-4" points="58.53 721.08 58.53 729.98 67.43 729.98 76.33 729.98 76.33 721.08 67.43 721.08 58.53 721.08"/>
      <polygon class="cls-4" points="58.53 721.08 58.53 712.17 49.63 712.17 40.73 712.17 40.73 721.08 49.63 721.08 58.53 721.08"/>
      <polygon class="cls-4" points="40.73 738.88 40.73 729.98 31.83 729.98 22.92 729.98 22.92 738.88 31.83 738.88 40.73 738.88"/>
      <polygon class="cls-4" points="22.92 756.68 14.02 756.68 14.02 765.58 22.92 765.58 31.83 765.58 31.83 756.68 22.92 756.68"/>
      <polygon class="cls-4" points="22.92 774.48 14.02 774.48 14.02 783.38 22.92 783.38 31.83 783.38 31.83 774.48 22.92 774.48"/>
      <rect class="cls-4" x="31.83" y="792.28" width="8.9" height="8.9"/>
      <polygon class="cls-4" points="58.53 801.18 49.63 801.18 40.73 801.18 40.73 810.09 49.63 810.09 58.53 810.09 58.53 801.18"/>
      <rect class="cls-4" x="67.43" y="801.18" width="8.9" height="8.9"/>
      <polygon class="cls-4" points="94.13 801.18 103.03 801.18 111.93 801.18 120.84 801.18 120.84 792.28 111.93 792.28 111.93 783.38 120.84 783.38 120.84 792.28 129.74 792.28 138.64 792.28 147.54 792.28 147.54 783.38 138.64 783.38 138.64 774.48 129.74 774.48 120.84 774.48 111.93 774.48 103.03 774.48 94.13 774.48 85.23 774.48 76.33 774.48 76.33 783.38 85.23 783.38 94.13 783.38 94.13 792.28 85.23 792.28 76.33 792.28 76.33 801.18 85.23 801.18 94.13 801.18"/>
      <rect class="cls-4" x="129.74" y="801.18" width="8.9" height="8.9"/>
      <polygon class="cls-4" points="156.44 801.18 147.54 801.18 147.54 810.09 156.44 810.09 165.34 810.09 174.24 810.09 174.24 801.18 165.34 801.18 156.44 801.18"/>
      <rect class="cls-4" x="174.24" y="783.38" width="8.9" height="8.9"/>
      <polygon class="cls-4" points="174.24 756.68 174.24 765.58 174.24 774.48 183.14 774.48 183.14 765.58 183.14 756.68 174.24 756.68"/>
      <rect class="cls-4" x="120.83" y="810.08" width="8.9" height="8.9"/>
      <rect class="cls-4" x="120.83" y="827.89" width="8.9" height="8.9"/>
      <rect class="cls-4" x="138.64" y="810.08" width="8.9" height="8.9"/>
      <rect class="cls-4" x="58.53" y="810.08" width="8.9" height="8.9"/>
      <rect class="cls-4" x="58.53" y="827.89" width="8.9" height="8.9"/>
      <rect class="cls-4" x="138.64" y="827.89" width="8.9" height="8.9"/>
      <rect class="cls-4" x="129.74" y="836.79" width="8.9" height="8.9"/>
      <polygon class="cls-4" points="120.84 845.69 111.93 845.69 103.03 845.69 94.13 845.69 85.23 845.69 76.33 845.69 67.43 845.69 67.43 846 129.74 846 129.74 845.69 120.84 845.69"/>
      <polygon class="cls-4" points="85.23 721.08 94.13 721.08 103.03 721.08 111.93 721.08 111.93 712.17 103.03 712.17 94.13 712.17 85.23 712.17 76.33 712.17 76.33 721.08 85.23 721.08"/>
      <polygon class="cls-4" points="165.34 747.78 156.44 747.78 147.54 747.78 147.54 756.68 156.44 756.68 165.34 756.68 174.24 756.68 174.24 747.78 165.34 747.78"/>
      <rect class="cls-4" x="138.64" y="765.58" width="8.9" height="8.9"/>
      <polygon class="cls-4" points="85.23 738.88 94.13 738.88 103.03 738.88 111.93 738.88 111.93 729.98 103.03 729.98 94.13 729.98 85.23 729.98 76.33 729.98 76.33 738.88 85.23 738.88"/>
      <rect class="cls-3" x="120.83" y="818.99" width="8.9" height="8.9"/>
      <rect class="cls-3" x="138.64" y="818.99" width="8.9" height="8.9"/>
      <rect class="cls-3" x="129.74" y="827.89" width="8.9" height="8.9"/>
      <polygon class="cls-3" points="138.64 694.37 147.54 694.37 147.54 685.47 138.64 685.47 129.74 685.47 129.74 694.37 138.64 694.37"/>
      <polygon class="cls-3" points="58.53 712.17 58.53 721.08 67.43 721.08 76.33 721.08 76.33 712.17 67.43 712.17 58.53 712.17"/>
      <polygon class="cls-3" points="40.73 729.98 40.73 721.08 40.73 712.17 31.83 712.17 31.83 721.08 22.92 721.08 22.92 729.98 31.83 729.98 40.73 729.98"/>
      <polygon class="cls-3" points="22.92 738.88 22.92 747.78 14.02 747.78 14.02 756.68 22.92 756.68 31.83 756.68 31.83 747.78 31.83 738.88 22.92 738.88"/>
      <polygon class="cls-3" points="22.92 765.58 14.02 765.58 14.02 774.48 22.92 774.48 31.83 774.48 31.83 765.58 22.92 765.58"/>
      <rect class="cls-3" x="31.83" y="783.38" width="8.9" height="8.9"/>
      <polygon class="cls-3" points="49.63 792.28 40.73 792.28 40.73 801.18 49.63 801.18 58.53 801.18 58.53 792.28 49.63 792.28"/>
      <rect class="cls-3" x="67.43" y="792.28" width="8.9" height="8.9"/>
      <rect class="cls-3" x="58.53" y="801.18" width="8.9" height="8.9"/>
      <rect class="cls-3" x="58.53" y="818.99" width="8.9" height="8.9"/>
      <polygon class="cls-3" points="120.84 836.79 111.93 836.79 103.03 836.79 94.13 836.79 85.23 836.79 76.33 836.79 67.43 836.79 67.43 845.69 76.33 845.69 85.23 845.69 94.13 845.69 103.03 845.69 111.93 845.69 120.84 845.69 129.74 845.69 129.74 836.79 120.84 836.79"/>
      <polygon class="cls-3" points="76.33 667.67 76.33 676.57 76.33 685.47 67.43 685.47 67.43 694.37 58.53 694.37 49.63 694.37 49.63 703.27 40.73 703.27 40.73 712.17 49.63 712.17 58.53 712.17 58.53 703.27 67.43 703.27 76.33 703.27 76.33 712.17 85.23 712.17 94.13 712.17 103.03 712.17 111.93 712.17 111.93 703.27 103.03 703.27 103.03 694.37 103.03 685.47 129.74 685.47 129.74 676.57 120.84 676.57 120.84 667.67 76.33 667.67"/>
      <rect class="cls-3" x="147.54" y="703.27" width="8.9" height="8.9"/>
      <polygon class="cls-3" points="76.33 783.38 76.33 792.28 85.23 792.28 94.13 792.28 94.13 783.38 85.23 783.38 76.33 783.38"/>
      <rect class="cls-3" x="111.93" y="783.38" width="8.9" height="8.9"/>
      <rect class="cls-3" x="129.74" y="792.28" width="8.9" height="8.9"/>
      <polygon class="cls-3" points="165.34 801.18 174.24 801.18 174.24 792.28 165.34 792.28 156.44 792.28 147.54 792.28 147.54 801.18 156.44 801.18 165.34 801.18"/>
      <rect class="cls-3" x="174.24" y="774.48" width="8.9" height="8.9"/>
      <polygon class="cls-3" points="174.24 765.58 183.14 765.58 183.14 756.68 183.14 747.78 174.24 747.78 174.24 756.68 174.24 765.58"/>
      <rect class="cls-3" x="120.83" y="801.18" width="8.9" height="8.9"/>
      <rect class="cls-3" x="138.64" y="801.18" width="8.9" height="8.9"/>
      <polygon class="cls-3" points="85.23 729.98 94.13 729.98 103.03 729.98 111.93 729.98 111.93 738.88 103.03 738.88 94.13 738.88 85.23 738.88 76.33 738.88 76.33 747.78 76.33 756.68 76.33 765.58 76.33 774.48 85.23 774.48 94.13 774.48 94.13 783.38 103.03 783.38 111.93 783.38 111.93 774.48 120.84 774.48 120.84 783.38 129.74 783.38 138.64 783.38 147.54 783.38 147.54 774.48 138.64 774.48 138.64 765.58 147.54 765.58 147.54 756.68 147.54 747.78 156.44 747.78 165.34 747.78 174.24 747.78 174.24 738.88 174.24 729.98 165.34 729.98 156.44 729.98 156.44 721.08 147.54 721.08 147.54 712.17 138.64 712.17 138.64 721.08 138.64 729.98 129.74 729.98 120.84 729.98 120.84 721.08 111.93 721.08 103.03 721.08 94.13 721.08 85.23 721.08 76.33 721.08 76.33 729.98 85.23 729.98"/>
      <rect class="cls-4" x="486.3" y="412" width="8.9" height="8.9"/>
      <rect class="cls-4" x="486.3" y="429.8" width="8.9" height="8.9"/>
      <rect class="cls-4" x="477.39" y="438.7" width="8.9" height="8.9"/>
      <polygon class="cls-3" points="486.29 429.8 495.2 429.8 495.2 420.9 486.29 420.9 486.29 412 477.39 412 477.39 420.9 477.39 429.8 477.39 438.71 486.29 438.71 486.29 429.8"/>
      <rect class="cls-4" x="477.39" y="465.41" width="8.9" height="8.9"/>
      <rect class="cls-4" x="495.2" y="394.2" width="8.9" height="8.9"/>
      <rect class="cls-4" x="539.7" y="447.61" width="8.9" height="8.9"/>
      <rect class="cls-4" x="539.7" y="465.41" width="8.9" height="8.9"/>
      <rect class="cls-4" x="548.6" y="429.8" width="8.9" height="8.9"/>
      <rect class="cls-4" x="557.5" y="420.9" width="8.9" height="8.9"/>
      <rect class="cls-4" x="566.4" y="403.1" width="8.9" height="8.9"/>
      <polygon class="cls-4" points="593.11 403.1 593.11 394.2 584.21 394.2 575.3 394.2 575.3 403.1 584.21 403.1 593.11 403.1"/>
      <rect class="cls-4" x="593.11" y="403.1" width="8.9" height="8.9"/>
      <rect class="cls-4" x="584.21" y="420.9" width="8.9" height="8.9"/>
      <rect class="cls-4" x="584.21" y="438.7" width="8.9" height="8.9"/>
      <rect class="cls-4" x="584.21" y="456.51" width="8.9" height="8.9"/>
      <rect class="cls-4" x="575.3" y="465.41" width="8.9" height="8.9"/>
      <rect class="cls-4" x="566.4" y="456.51" width="8.9" height="8.9"/>
      <rect class="cls-4" x="477.39" y="572.22" width="8.9" height="8.46"/>
      <polygon class="cls-4" points="495.2 563.32 486.29 563.32 486.29 572.22 495.2 572.22 504.1 572.22 504.1 563.32 495.2 563.32"/>
      <polygon class="cls-4" points="584.21 572.22 575.31 572.22 566.4 572.22 566.4 580.69 593.11 580.69 593.11 572.22 584.21 572.22"/>
      <g class="cls-10">
        <rect class="cls-4" x="593.11" y="581.12" width="8.9" height="8.9"/>
      </g>
      <rect class="cls-4" x="504.1" y="572.22" width="8.9" height="8.46"/>
      <rect class="cls-3" x="486.3" y="403.1" width="8.9" height="8.9"/>
      <rect class="cls-3" x="495.2" y="385.3" width="8.9" height="8.9"/>
      <rect class="cls-3" x="539.7" y="438.7" width="8.9" height="8.9"/>
      <rect class="cls-3" x="539.7" y="456.51" width="8.9" height="8.9"/>
      <rect class="cls-3" x="548.6" y="420.9" width="8.9" height="8.9"/>
      <rect class="cls-3" x="557.5" y="412" width="8.9" height="8.9"/>
      <rect class="cls-3" x="566.4" y="394.2" width="8.9" height="8.9"/>
      <polygon class="cls-3" points="575.31 385.3 575.31 394.2 584.21 394.2 593.11 394.2 593.11 385.3 575.31 385.3"/>
      <rect class="cls-3" x="593.11" y="394.2" width="8.9" height="8.9"/>
      <rect class="cls-3" x="584.21" y="412" width="8.9" height="8.9"/>
      <rect class="cls-3" x="584.21" y="429.8" width="8.9" height="8.9"/>
      <rect class="cls-3" x="584.21" y="447.61" width="8.9" height="8.9"/>
      <rect class="cls-3" x="575.3" y="456.51" width="8.9" height="8.9"/>
      <rect class="cls-3" x="566.4" y="447.61" width="8.9" height="8.9"/>
      <rect class="cls-3" x="477.39" y="563.32" width="8.9" height="8.9"/>
      <polygon class="cls-3" points="495.2 554.42 486.29 554.42 486.29 563.32 495.2 563.32 504.1 563.32 504.1 554.42 495.2 554.42"/>
      <polygon class="cls-3" points="584.21 563.32 575.3 563.32 566.4 563.32 566.4 572.22 575.3 572.22 584.21 572.22 593.11 572.22 593.11 563.32 584.21 563.32"/>
      <rect class="cls-3" x="593.11" y="572.22" width="8.9" height="8.46"/>
      <rect class="cls-3" x="504.1" y="563.32" width="8.9" height="8.9"/>
      <rect class="cls-3" x="504.1" y="394.2" width="8.9" height="8.9"/>
      <path class="cls-3" d="M530.8,474.31v8.9h-8.9v35.6h8.9v-8.9h8.9v8.9h8.9v8.9h8.9v-8.9h8.9v-8.9h8.9v-8.9h-8.9v-8.9h-8.9v-8.9h8.9v8.9h8.9v8.9h8.9v-8.9h8.9v-8.9h-8.9v-8.9h-44.51v-8.9h-8.9v8.9ZM539.7,483.21h8.9v8.9h-8.9v8.9h-8.9v-8.9h8.9v-8.9Z"/>
      <rect class="cls-3" x="530.8" y="518.81" width="8.9" height="8.9"/>
      <rect class="cls-3" x="539.7" y="527.71" width="8.9" height="8.9"/>
      <polygon class="cls-3" points="557.5 536.62 548.6 536.62 548.6 545.52 539.7 545.52 539.7 554.42 548.6 554.42 557.5 554.42 566.4 554.42 566.4 545.52 557.5 545.52 557.5 536.62"/>
      <polygon class="cls-3" points="530.8 536.62 530.8 527.72 521.9 527.72 521.9 518.81 513 518.81 504.1 518.81 504.1 527.72 513 527.72 513 536.62 504.1 536.62 504.1 545.52 513 545.52 513 554.42 521.9 554.42 530.8 554.42 530.8 545.52 539.7 545.52 539.7 536.62 530.8 536.62"/>
      <rect class="cls-3" x="557.5" y="527.71" width="8.9" height="8.9"/>
      <polygon class="cls-3" points="575.3 518.81 566.4 518.81 566.4 527.72 575.3 527.72 575.3 536.62 566.4 536.62 566.4 545.52 575.3 545.52 575.3 554.42 584.21 554.42 584.21 545.52 593.11 545.52 593.11 536.62 593.11 527.72 593.11 518.81 584.21 518.81 584.21 509.91 575.3 509.91 575.3 518.81"/>
      <rect class="cls-3" x="584.21" y="501.01" width="8.9" height="8.9"/>
      <polygon class="cls-3" points="486.29 518.81 486.29 527.72 495.2 527.72 495.2 518.81 495.2 509.91 486.29 509.91 486.29 518.81"/>
      <polygon class="cls-3" points="477.39 492.11 486.29 492.11 486.29 483.21 486.29 474.31 477.39 474.31 477.39 465.41 486.29 465.41 486.29 474.31 495.2 474.31 495.2 465.41 504.1 465.41 504.1 474.31 504.1 483.21 495.2 483.21 495.2 492.11 495.2 501.01 495.2 509.91 504.1 509.91 513 509.91 513 501.01 513 492.11 513 483.21 513 474.31 521.9 474.31 521.9 465.41 513 465.41 513 456.51 521.9 456.51 521.9 447.61 530.8 447.61 530.8 438.71 530.8 429.8 530.8 420.9 530.8 412 521.9 412 521.9 403.1 513 403.1 513 412 513 420.9 513 429.8 513 438.71 504.1 438.71 504.1 447.61 495.2 447.61 495.2 438.71 486.29 438.71 486.29 447.61 477.39 447.61 477.39 438.71 468.49 438.71 468.49 447.61 468.49 456.51 468.49 465.41 468.49 474.31 468.49 483.21 477.39 483.21 477.39 492.11"/>
    </g>
  </g>
</svg>