<?xml version="1.0" encoding="UTF-8"?>
<svg id="Calque_1" data-name="Calque 1" xmlns="http://www.w3.org/2000/svg" xmlns:xlink="http://www.w3.org/1999/xlink" viewBox="0 0 616 423">
  <defs>
    <style>
      .cls-1, .cls-2, .cls-3, .cls-4, .cls-5, .cls-6, .cls-7, .cls-8, .cls-9, .cls-10, .cls-11 {
        fill: none;
      }

      .cls-1, .cls-12, .cls-13 {
        stroke-width: 0px;
      }

      .cls-2 {
        stroke-width: .25px;
      }

      .cls-2, .cls-3, .cls-4, .cls-5, .cls-6, .cls-7, .cls-10, .cls-11 {
        stroke: #000;
      }

      .cls-3 {
        stroke-width: .5px;
      }

      .cls-14 {
        clip-path: url(#clippath-20);
      }

      .cls-15 {
        clip-path: url(#clippath-21);
      }

      .cls-16 {
        clip-path: url(#clippath-24);
      }

      .cls-17 {
        clip-path: url(#clippath-23);
      }

      .cls-18 {
        clip-path: url(#clippath-22);
      }

      .cls-19 {
        clip-path: url(#clippath-25);
      }

      .cls-20 {
        clip-path: url(#clippath-27);
      }

      .cls-21 {
        clip-path: url(#clippath-26);
      }

      .cls-22 {
        clip-path: url(#clippath-14);
      }

      .cls-23 {
        clip-path: url(#clippath-13);
      }

      .cls-24 {
        clip-path: url(#clippath-12);
      }

      .cls-25 {
        clip-path: url(#clippath-10);
      }

      .cls-26 {
        clip-path: url(#clippath-15);
      }

      .cls-27 {
        clip-path: url(#clippath-17);
      }

      .cls-28 {
        clip-path: url(#clippath-16);
      }

      .cls-29 {
        clip-path: url(#clippath-19);
      }

      .cls-30 {
        clip-path: url(#clippath-11);
      }

      .cls-31 {
        clip-path: url(#clippath-18);
      }

      .cls-4 {
        stroke-width: 1.26px;
      }

      .cls-5 {
        stroke-width: .89px;
      }

      .cls-5, .cls-9, .cls-10 {
        stroke-linecap: round;
        stroke-linejoin: round;
      }

      .cls-6 {
        stroke-width: .55px;
      }

      .cls-8, .cls-9 {
        stroke: #fff;
      }

      .cls-13 {
        fill: #fff;
      }

      .cls-9, .cls-10 {
        stroke-width: 1.12px;
      }

      .cls-11 {
        stroke-width: 1.38px;
      }
    </style>
    <clipPath id="clippath">
      <rect class="cls-1" x="-1272" y="-437" width="616" height="860"/>
    </clipPath>
    <clipPath id="clippath-1">
      <rect class="cls-1" x="-1272" y="-437" width="616" height="860"/>
    </clipPath>
    <clipPath id="clippath-2">
      <rect class="cls-1" x="-1257.22" y="-113.19" width="586.44" height="522.19"/>
    </clipPath>
    <clipPath id="clippath-4">
      <rect class="cls-1" x="-636" y="-437" width="616" height="860"/>
    </clipPath>
    <clipPath id="clippath-5">
      <rect class="cls-1" x="-636" y="-437" width="616" height="860"/>
    </clipPath>
    <clipPath id="clippath-6">
      <rect class="cls-1" x="-274.2" y="-17.53" width="240.99" height="244.91"/>
    </clipPath>
    <clipPath id="clippath-8">
      <rect class="cls-1" x="-225.1" y="-402.04" width="191.1" height="237.16"/>
    </clipPath>
    <clipPath id="clippath-10">
      <rect class="cls-1" width="616" height="423"/>
    </clipPath>
    <clipPath id="clippath-11">
      <rect class="cls-1" width="616" height="423"/>
    </clipPath>
    <clipPath id="clippath-12">
      <rect class="cls-1" width="616" height="423"/>
    </clipPath>
    <clipPath id="clippath-13">
      <rect class="cls-1" width="616" height="423"/>
    </clipPath>
    <clipPath id="clippath-14">
      <rect class="cls-1" width="616" height="423"/>
    </clipPath>
    <clipPath id="clippath-15">
      <rect class="cls-1" width="616" height="423"/>
    </clipPath>
    <clipPath id="clippath-16">
      <rect class="cls-1" width="616" height="423"/>
    </clipPath>
    <clipPath id="clippath-17">
      <path class="cls-1" d="M107.18,260.38c0,23.99,19.45,43.44,43.44,43.44s43.44-19.45,43.44-43.44-19.45-43.44-43.44-43.44-43.44,19.45-43.44,43.44"/>
    </clipPath>
    <clipPath id="clippath-18">
      <rect class="cls-1" width="616" height="423"/>
    </clipPath>
    <clipPath id="clippath-19">
      <rect class="cls-1" width="616" height="423"/>
    </clipPath>
    <clipPath id="clippath-20">
      <path class="cls-1" d="M535.49,81.2c0,10.49,8.5,18.99,18.99,18.99s18.99-8.5,18.99-18.99-8.5-18.99-18.99-18.99-18.99,8.5-18.99,18.99"/>
    </clipPath>
    <clipPath id="clippath-21">
      <rect class="cls-1" width="616" height="423"/>
    </clipPath>
    <clipPath id="clippath-22">
      <path class="cls-1" d="M464.8,81.2c0,10.49,8.5,18.99,18.99,18.99s18.99-8.5,18.99-18.99-8.5-18.99-18.99-18.99-18.99,8.5-18.99,18.99"/>
    </clipPath>
    <clipPath id="clippath-23">
      <rect class="cls-1" width="616" height="423"/>
    </clipPath>
    <clipPath id="clippath-24">
      <path class="cls-1" d="M298.71,79.12c0,13.25,10.74,23.98,23.99,23.98s23.98-10.74,23.98-23.98-10.74-23.98-23.98-23.98-23.99,10.74-23.99,23.98"/>
    </clipPath>
    <clipPath id="clippath-25">
      <rect class="cls-1" width="616" height="423"/>
    </clipPath>
    <clipPath id="clippath-26">
      <path class="cls-1" d="M375.35,79.12c0,13.25,10.74,23.98,23.98,23.98s23.98-10.74,23.98-23.98-10.74-23.98-23.98-23.98-23.98,10.74-23.98,23.98"/>
    </clipPath>
    <clipPath id="clippath-27">
      <rect class="cls-1" width="616" height="423"/>
    </clipPath>
    <clipPath id="clippath-28">
      <rect class="cls-1" x="636" width="616" height="423"/>
    </clipPath>
    <clipPath id="clippath-29">
      <rect class="cls-1" x="636" width="616" height="423"/>
    </clipPath>
    <clipPath id="clippath-30">
      <rect class="cls-1" x="650" y="29.2" width="279.3" height="352.8"/>
    </clipPath>
  </defs>
  <g class="cls-25">
    <g class="cls-30">
      <path class="cls-3" d="M15.54,14.12h584.92c.78,0,1.42.63,1.42,1.42v391.67c0,.78-.64,1.42-1.42,1.42H15.54c-.78,0-1.42-.63-1.42-1.42V15.54c0-.78.63-1.42,1.42-1.42Z"/>
      <path class="cls-3" d="M268.14,29.45h325.23c.78,0,1.42.63,1.42,1.42v92.54c0,.78-.64,1.42-1.42,1.42h-325.23c-.78,0-1.42-.63-1.42-1.42V30.87c0-.78.63-1.42,1.42-1.42Z"/>
      <path class="cls-3" d="M268.14,124.81h325.23c.78,0,1.42.63,1.42,1.42v269.52c0,.78-.64,1.42-1.42,1.42h-325.23c-.78,0-1.42-.63-1.42-1.42V126.23c0-.78.63-1.42,1.42-1.42Z"/>
      <rect class="cls-3" x="21.74" y="124.81" width="243.59" height="272.36" rx="1.42" ry="1.42"/>
      <path class="cls-12" d="M49.22,27.77h.63v-1.94h2.2v-.54h-2.2v-1.39h2.5v-.54h-3.13v4.4ZM45.44,27.77h.63v-1.94h2.2v-.54h-2.2v-1.39h2.5v-.54h-3.13v4.4ZM40.71,25.62v-.11c0-1.12.69-1.69,1.63-1.69s1.63.56,1.63,1.69v.11c0,1.12-.69,1.69-1.63,1.69s-1.63-.56-1.63-1.69M42.34,27.87c1.31,0,2.27-.77,2.27-2.24v-.11c0-1.45-.95-2.24-2.27-2.24s-2.27.8-2.27,2.24v.11c0,1.48.95,2.24,2.27,2.24"/>
      <path class="cls-12" d="M94.84,27.87c1.05,0,1.74-.49,1.74-1.27v-.07c0-.72-.49-1.12-1.31-1.23l-.72-.1c-.54-.07-.76-.29-.76-.61v-.07c0-.34.28-.69,1.04-.69s1.06.35,1.06.69v.1h.62v-.1c0-.81-.7-1.25-1.68-1.25s-1.68.43-1.68,1.28v.07c0,.65.47,1.08,1.26,1.19l.72.1c.52.07.8.29.8.64v.08c0,.41-.4.69-1.1.69s-1.12-.28-1.12-.75v-.15h-.62v.15c0,.81.69,1.31,1.74,1.31"/>
      <path class="cls-12" d="M201.75,115.54h.63v-3.86h1.39v-.54h-3.42v.54h1.4v3.86ZM197.9,115.64c1.28,0,2.12-.77,2.12-1.75v-.02h-.64v.02c0,.64-.57,1.19-1.48,1.19s-1.63-.56-1.63-1.69v-.11c0-1.12.69-1.69,1.63-1.69s1.48.55,1.48,1.19v.02h.64v-.02c0-.94-.83-1.75-2.12-1.75s-2.27.8-2.27,2.24v.11c0,1.48.95,2.24,2.27,2.24M192.04,115.54h3.13v-.54h-2.5v-1.4h2.2v-.54h-2.2v-1.39h2.5v-.54h-3.13v4.4ZM188.56,115.54h2.84v-.54h-2.21v-3.86h-.63v4.4ZM184.59,115.54h3.13v-.54h-2.5v-1.4h2.2v-.54h-2.2v-1.39h2.5v-.54h-3.13v4.4ZM182.04,115.64c1.05,0,1.74-.49,1.74-1.27v-.07c0-.72-.5-1.12-1.31-1.23l-.72-.1c-.54-.07-.76-.29-.76-.61v-.07c0-.34.28-.69,1.04-.69s1.06.35,1.06.69v.1h.62v-.1c0-.81-.7-1.25-1.68-1.25s-1.68.43-1.68,1.28v.07c0,.65.47,1.08,1.26,1.19l.72.1c.52.07.8.29.8.64v.08c0,.41-.4.69-1.1.69s-1.12-.28-1.12-.75v-.15h-.62v.15c0,.81.69,1.31,1.74,1.31"/>
    </g>
    <path class="cls-12" d="M162.88,115.54h.63v-1.94h2.2v-.54h-2.2v-1.39h2.5v-.54h-3.13v4.4ZM160.22,115.54h.63v-3.86h1.4v-.54h-3.42v.54h1.39v3.86ZM156.32,115.54h.63v-3.86h1.39v-.54h-3.42v.54h1.4v3.86Z"/>
    <g class="cls-24">
      <path class="cls-12" d="M131.21,115.06h.63v-1.94h2.2v-.54h-2.2v-1.39h2.5v-.54h-3.13v4.4ZM128.55,115.06h.63v-3.86h1.4v-.54h-3.42v.54h1.4v3.86ZM122.96,112.91v-.11c0-1.12.69-1.69,1.63-1.69s1.63.56,1.63,1.69v.11c0,1.12-.69,1.69-1.63,1.69s-1.63-.56-1.63-1.69M124.6,115.16c1.31,0,2.27-.77,2.27-2.24v-.11c0-1.45-.95-2.24-2.27-2.24s-2.27.8-2.27,2.24v.11c0,1.48.95,2.24,2.27,2.24"/>
      <path class="cls-12" d="M248.53,115.54h.63v-3.86h1.4v-.54h-3.42v.54h1.39v3.86ZM244.03,113.29v-1.61h1.16c.64,0,.89.39.89.79v.04c0,.4-.25.79-.89.79h-1.16ZM243.4,115.54h.63v-1.71h.72l1.23,1.71h.77l-1.25-1.73c.75-.1,1.21-.65,1.21-1.32v-.04c0-.73-.56-1.32-1.45-1.32h-1.87v4.4ZM239.77,113.93l.82-2.1.81,2.1h-1.63ZM238.53,115.54h.61l.42-1.07h2.06l.41,1.07h.68l-1.72-4.4h-.73l-1.73,4.4ZM236.86,115.54h.63v-3.86h1.4v-.54h-3.42v.54h1.4v3.86ZM233.27,115.64c1.05,0,1.74-.49,1.74-1.27v-.07c0-.72-.5-1.12-1.31-1.23l-.72-.1c-.54-.07-.76-.29-.76-.61v-.07c0-.34.28-.69,1.04-.69s1.06.35,1.06.69v.1h.62v-.1c0-.81-.7-1.25-1.68-1.25s-1.68.43-1.68,1.28v.07c0,.65.47,1.08,1.26,1.19l.72.1c.52.07.8.29.8.64v.08c0,.41-.4.69-1.1.69s-1.12-.28-1.12-.75v-.15h-.62v.15c0,.81.69,1.31,1.74,1.31"/>
      <path class="cls-12" d="M27.57,27.87c1.05,0,1.74-.49,1.74-1.27v-.07c0-.72-.49-1.12-1.31-1.23l-.72-.1c-.54-.07-.76-.29-.76-.61v-.07c0-.34.28-.69,1.04-.69s1.06.35,1.06.69v.1h.62v-.1c0-.81-.7-1.25-1.68-1.25s-1.68.43-1.68,1.28v.07c0,.65.47,1.08,1.26,1.19l.72.1c.52.07.8.29.8.64v.08c0,.41-.41.69-1.1.69s-1.12-.28-1.12-.75v-.15h-.62v.15c0,.81.69,1.31,1.74,1.31"/>
      <path class="cls-12" d="M76.36,27.87c1.28,0,2.12-.77,2.12-1.75v-.02h-.64v.02c0,.64-.57,1.19-1.48,1.19s-1.63-.56-1.63-1.69v-.11c0-1.12.69-1.69,1.63-1.69s1.48.55,1.48,1.19v.02h.64v-.02c0-.94-.83-1.75-2.12-1.75s-2.27.8-2.27,2.24v.11c0,1.48.95,2.24,2.27,2.24"/>
      <path class="cls-12" d="M63.04,25.62v-.11c0-1.12.69-1.69,1.63-1.69s1.63.56,1.63,1.69v.11c0,1.12-.69,1.69-1.63,1.69s-1.63-.56-1.63-1.69M64.67,27.87c1.31,0,2.27-.77,2.27-2.24v-.11c0-1.45-.95-2.24-2.27-2.24s-2.27.8-2.27,2.24v.11c0,1.48.95,2.24,2.27,2.24"/>
    </g>
    <polygon class="cls-12" points="111.88 27.77 115.01 27.77 115.01 27.23 112.51 27.23 112.51 25.83 114.72 25.83 114.72 25.29 112.51 25.29 112.51 23.91 115.01 23.91 115.01 23.37 111.88 23.37 111.88 27.77"/>
    <g class="cls-23">
      <path class="cls-7" d="M192.26,64.48c6.18,0,11.19-5.01,11.19-11.19s-5.01-11.19-11.19-11.19-11.19,5.01-11.19,11.19,5.01,11.19,11.19,11.19Z"/>
      <path class="cls-7" d="M143.55,42.1c6.18,0,11.19,5.01,11.19,11.19s-5.01,11.19-11.19,11.19-11.19-5.01-11.19-11.19,5.01-11.19,11.19-11.19Z"/>
      <path class="cls-12" d="M242.41,54.06h7.07c0-4.3-3.24-7.7-7.81-7.7v6.93h-6.91c0,4.21,3.29,7.79,7.65,7.79v-7.02Z"/>
      <path class="cls-7" d="M242.11,64.91c6.18,0,11.19-5.01,11.19-11.19s-5.01-11.19-11.19-11.19-11.19,5.01-11.19,11.19,5.01,11.19,11.19,11.19Z"/>
      <path class="cls-12" d="M39.1,95.77c1.54,0,2.79-1.25,2.79-2.79s-1.25-2.79-2.79-2.79-2.79,1.25-2.79,2.79,1.25,2.79,2.79,2.79"/>
      <path class="cls-12" d="M39.1,106.5c1.54,0,2.79-1.25,2.79-2.79s-1.25-2.79-2.79-2.79-2.79,1.25-2.79,2.79,1.25,2.79,2.79,2.79"/>
      <path class="cls-12" d="M50.24,95.77c1.54,0,2.79-1.25,2.79-2.79s-1.25-2.79-2.79-2.79-2.79,1.25-2.79,2.79,1.25,2.79,2.79,2.79"/>
      <path class="cls-12" d="M50.24,106.5c1.54,0,2.79-1.25,2.79-2.79s-1.25-2.79-2.79-2.79-2.79,1.25-2.79,2.79,1.25,2.79,2.79,2.79"/>
      <path class="cls-6" d="M46.13,68.65c8.48,0,15.35-6.87,15.35-15.35s-6.87-15.35-15.35-15.35-15.35,6.88-15.35,15.35,6.87,15.35,15.35,15.35Z"/>
      <path class="cls-6" d="M94.84,68.65c8.48,0,15.35-6.87,15.35-15.35s-6.87-15.35-15.35-15.35-15.35,6.88-15.35,15.35,6.87,15.35,15.35,15.35Z"/>
      <path class="cls-12" d="M31.84,48.15h28.57c.86,0,1.56.7,1.56,1.56v7.17c0,.86-.7,1.56-1.56,1.56h-28.57c-.86,0-1.56-.7-1.56-1.56v-7.17c0-.86.7-1.56,1.56-1.56Z"/>
    </g>
    <rect class="cls-13" x="30.28" y="50.72" width="31.69" height=".86"/>
    <rect class="cls-13" x="30.28" y="53" width="31.69" height=".86"/>
    <g class="cls-22">
      <path class="cls-12" d="M80.56,48.15h28.57c.86,0,1.56.7,1.56,1.56v7.17c0,.86-.7,1.56-1.56,1.56h-28.57c-.86,0-1.56-.7-1.56-1.56v-7.17c0-.86.7-1.56,1.56-1.56Z"/>
    </g>
    <rect class="cls-13" x="79" y="50.72" width="31.69" height=".86"/>
    <rect class="cls-13" x="79" y="53" width="31.69" height=".86"/>
    <line class="cls-3" x1="46.13" y1="35.93" x2="46.13" y2="30.92"/>
    <line class="cls-3" x1="94.84" y1="35.93" x2="94.84" y2="30.92"/>
    <polyline class="cls-3" points="32.47 42.4 27.56 37.49 27.56 30.92"/>
    <polyline class="cls-3" points="81.18 42.4 76.27 37.49 76.27 30.92"/>
    <polyline class="cls-3" points="59.75 42.4 64.66 37.49 64.66 30.92"/>
    <polyline class="cls-3" points="108.47 42.4 113.38 37.49 113.38 30.92"/>
    <g class="cls-26">
      <path class="cls-12" d="M137.04,90.7c-4.23,0-7.65,3.43-7.65,7.65s3.43,7.65,7.65,7.65h15.24c4.23,0,7.65-3.43,7.65-7.65s-3.43-7.65-7.65-7.65h-15.24Z"/>
      <path class="cls-7" d="M137.04,90.7c-4.23,0-7.65,3.43-7.65,7.65s3.43,7.65,7.65,7.65h15.24c4.23,0,7.65-3.43,7.65-7.65s-3.43-7.65-7.65-7.65h-15.24Z"/>
      <path class="cls-13" d="M184.37,90.7c-4.23,0-7.65,3.43-7.65,7.65s3.43,7.65,7.65,7.65h15.24c4.23,0,7.65-3.43,7.65-7.65s-3.43-7.65-7.65-7.65h-15.24Z"/>
      <path class="cls-7" d="M184.37,90.7c-4.23,0-7.65,3.43-7.65,7.65s3.43,7.65,7.65,7.65h15.24c4.23,0,7.65-3.43,7.65-7.65s-3.43-7.65-7.65-7.65h-15.24Z"/>
      <path class="cls-13" d="M233.34,90.7c-4.23,0-7.65,3.43-7.65,7.65s3.43,7.65,7.65,7.65h15.24c4.23,0,7.65-3.43,7.65-7.65s-3.43-7.65-7.65-7.65h-15.24Z"/>
      <path class="cls-7" d="M233.34,90.7c-4.23,0-7.65,3.43-7.65,7.65s3.43,7.65,7.65,7.65h15.24c4.23,0,7.65-3.43,7.65-7.65s-3.43-7.65-7.65-7.65h-15.24Z"/>
      <path class="cls-13" d="M144.98,90.7c-4.23,0-7.65,3.43-7.65,7.65s3.43,7.65,7.65,7.65h7.31c4.23,0,7.65-3.43,7.65-7.65s-3.43-7.65-7.65-7.65h-7.31Z"/>
      <path class="cls-7" d="M144.98,90.7c-4.23,0-7.65,3.43-7.65,7.65s3.43,7.65,7.65,7.65h7.31c4.23,0,7.65-3.43,7.65-7.65s-3.43-7.65-7.65-7.65h-7.31Z"/>
      <path class="cls-3" d="M23.19,29.45h45.88c.78,0,1.42.64,1.42,1.42v44.85c0,.78-.64,1.42-1.42,1.42H23.19c-.78,0-1.42-.63-1.42-1.42V30.87c0-.78.63-1.42,1.42-1.42Z"/>
      <path class="cls-3" d="M71.9,29.45h45.88c.78,0,1.42.64,1.42,1.42v44.85c0,.78-.64,1.42-1.42,1.42h-45.88c-.78,0-1.42-.63-1.42-1.42V30.87c0-.78.63-1.42,1.42-1.42Z"/>
      <path class="cls-3" d="M120.61,29.45h45.88c.78,0,1.42.64,1.42,1.42v44.85c0,.78-.64,1.42-1.42,1.42h-45.88c-.78,0-1.42-.63-1.42-1.42V30.87c0-.78.63-1.42,1.42-1.42Z"/>
      <path class="cls-3" d="M23.16,77.14h240.75c.78,0,1.42.64,1.42,1.42v44.85c0,.78-.63,1.42-1.42,1.42H23.16c-.78,0-1.42-.63-1.42-1.42v-44.85c0-.78.63-1.42,1.42-1.42Z"/>
      <path class="cls-3" d="M169.32,29.45h45.88c.78,0,1.42.64,1.42,1.42v44.85c0,.78-.64,1.42-1.42,1.42h-45.88c-.78,0-1.42-.63-1.42-1.42V30.87c0-.78.63-1.42,1.42-1.42Z"/>
      <path class="cls-3" d="M218.03,29.45h45.88c.78,0,1.42.64,1.42,1.42v44.85c0,.78-.64,1.42-1.42,1.42h-45.88c-.78,0-1.42-.63-1.42-1.42V30.87c0-.78.63-1.42,1.42-1.42Z"/>
    </g>
    <polygon class="cls-12" points="192.26 58.7 185.23 50.71 199.29 50.71 192.26 58.7"/>
    <polygon class="cls-12" points="143.55 47.88 136.52 55.87 150.58 55.87 143.55 47.88"/>
    <g class="cls-28">
      <path class="cls-3" d="M143.55,38.76c8.03,0,14.54,6.51,14.54,14.54s-6.51,14.54-14.54,14.54-14.54-6.51-14.54-14.54,6.51-14.54,14.54-14.54Z"/>
      <path class="cls-3" d="M192.26,38.76c8.03,0,14.54,6.51,14.54,14.54s-6.51,14.54-14.54,14.54-14.54-6.51-14.54-14.54,6.51-14.54,14.54-14.54Z"/>
      <path class="cls-3" d="M242.07,38.76c8.03,0,14.53,6.51,14.53,14.54s-6.51,14.54-14.53,14.54-14.54-6.51-14.54-14.54,6.51-14.54,14.54-14.54Z"/>
      <path class="cls-13" d="M143.53,357.58c57.6,0,104.29-46.69,104.29-104.29s-46.69-104.29-104.29-104.29-104.29,46.69-104.29,104.29,46.69,104.29,104.29,104.29"/>
      <circle class="cls-11" cx="143.53" cy="253.29" r="104.29"/>
      <path class="cls-12" d="M143.53,302.05c26.93,0,48.76-21.83,48.76-48.76s-21.83-48.76-48.76-48.76-48.76,21.83-48.76,48.76,21.83,48.76,48.76,48.76"/>
      <path class="cls-12" d="M309.8,186.81h-1.19l-2.84,1.44v1.46l2.56-1.18v8.56h1.47v-10.27ZM299.27,195.69l3.32-6.32c.18.52.28,1.16.28,1.95v1.26c0,2.32-.85,3.44-2.38,3.44-.48,0-.88-.1-1.22-.32M298.11,192.58v-1.26c0-2.32.85-3.44,2.38-3.44.48,0,.88.1,1.22.32l-3.32,6.32c-.18-.52-.28-1.16-.28-1.95M300.49,197.31c2.67,0,3.85-1.97,3.85-4.73v-1.26c0-2.76-1.17-4.73-3.85-4.73s-3.85,1.97-3.85,4.73v1.26c0,2.76,1.18,4.73,3.85,4.73M291.98,197.31c2.07,0,3.16-.93,3.16-2.33v-.06c0-1.25-.83-2.02-2.21-2.21l-1.59-.21c-.66-.08-1.02-.36-1.02-.83v-.06c0-.54.53-.98,1.65-.98s1.65.45,1.65,1.07v.04h1.47v-.04c0-1.32-1.06-2.29-3.12-2.29s-3.12.98-3.12,2.27v.06c0,1.23.83,2,2.16,2.18l1.59.21c.72.1,1.06.41,1.06.88v.06c0,.59-.48,1.02-1.69,1.02s-1.72-.43-1.72-1.04v-.06h-1.47v.06c0,1.34,1.13,2.27,3.18,2.27M283.43,197.31c2.45,0,4.06-1.15,4.06-2.97v-.17c0-1.69-1.15-2.63-3.04-2.88l-1.68-.22c-1.26-.17-1.77-.68-1.77-1.41v-.16c0-.8.65-1.61,2.44-1.61s2.46.81,2.46,1.62v.24h1.46v-.24c0-1.9-1.62-2.91-3.91-2.91s-3.93,1.01-3.93,2.98v.15c0,1.51,1.1,2.53,2.95,2.77l1.68.22c1.22.16,1.87.67,1.87,1.51v.18c0,.97-.94,1.62-2.58,1.62s-2.6-.65-2.6-1.76v-.36h-1.46v.36c0,1.9,1.6,3.05,4.06,3.05"/>
      <path class="cls-12" d="M344.28,176.58c.22-1.25,1.04-1.94,2.29-1.94,1.46,0,2.16.95,2.16,1.94h-4.45ZM346.56,181.31c2.3,0,3.6-1.4,3.6-2.84v-.07h-1.45v.07c0,.77-.68,1.61-2.14,1.61-1.36,0-2.23-.83-2.33-2.32h5.96v-.85c0-2.03-1.22-3.5-3.63-3.5s-3.81,1.47-3.81,3.88v.14c0,2.41,1.45,3.88,3.81,3.88M335.43,177.49v-.25c0-1.54.88-2.56,2.37-2.56s2.33,1.02,2.33,2.56v.25c0,1.54-.84,2.59-2.33,2.59s-2.37-1.05-2.37-2.59M338.09,181.31c2.3,0,3.52-1.64,3.52-3.75v-.39c0-2.14-1.22-3.72-3.52-3.72-1.17,0-2.08.4-2.65,1.04v-.85h-1.45v10.44h1.45v-3.85c.57.65,1.49,1.08,2.65,1.08M326.8,184.08h1.43l4.59-10.44h-1.43l-2.39,5.45-2.27-5.45h-1.57l3.06,7.23-1.41,3.21ZM322.9,181.09h1.48v-1.19h-1.12c-.6,0-.98-.29-.98-.98v-4.09h2.1v-1.19h-2.37c.2-.14.31-.32.31-.71v-1.15h-1.45v1.19c0,.52-.24.67-.73.67h-.59v1.19h1.27v4.09c0,1.58.99,2.17,2.07,2.17M309.38,181.09h1.46v-4.75c.08-.94.84-1.66,1.88-1.66,1.23,0,1.71.73,1.71,1.83v4.58h1.45v-4.87c0-1.95-1.13-2.8-2.78-2.8-.93,0-1.77.34-2.27.88v-.66h-1.46v7.45ZM301.95,176.58c.22-1.25,1.04-1.94,2.29-1.94,1.46,0,2.16.95,2.16,1.94h-4.45ZM304.23,181.31c2.3,0,3.6-1.4,3.6-2.84v-.07h-1.46v.07c0,.77-.68,1.61-2.14,1.61-1.36,0-2.23-.83-2.33-2.32h5.96v-.85c0-2.03-1.22-3.5-3.63-3.5s-3.81,1.47-3.81,3.88v.14c0,2.41,1.45,3.88,3.81,3.88M293.1,177.49v-.25c0-1.54.88-2.56,2.37-2.56s2.33,1.02,2.33,2.56v.25c0,1.54-.84,2.59-2.33,2.59s-2.37-1.05-2.37-2.59M295.76,181.31c2.3,0,3.52-1.64,3.52-3.75v-.39c0-2.14-1.22-3.72-3.52-3.72-1.17,0-2.08.4-2.65,1.04v-.85h-1.45v10.44h1.45v-3.85c.58.65,1.49,1.08,2.65,1.08M280.9,176.07v-.25c0-2.62,1.62-3.94,3.81-3.94s3.81,1.32,3.81,3.94v.25c0,2.63-1.62,3.94-3.81,3.94s-3.81-1.32-3.81-3.94M284.7,181.31c3.07,0,5.29-1.79,5.29-5.24v-.25c0-3.37-2.23-5.24-5.29-5.24s-5.29,1.86-5.29,5.24v.25c0,3.45,2.23,5.24,5.29,5.24"/>
      <path class="cls-12" d="M344.15,165.31c2.07,0,3.16-.93,3.16-2.33v-.06c0-1.25-.83-2.02-2.21-2.21l-1.59-.21c-.66-.08-1.02-.36-1.02-.83v-.06c0-.54.53-.98,1.65-.98s1.65.45,1.65,1.07v.04h1.47v-.04c0-1.32-1.06-2.29-3.12-2.29s-3.12.98-3.12,2.27v.06c0,1.23.83,2,2.16,2.18l1.59.21c.72.1,1.07.41,1.07.88v.06c0,.59-.48,1.02-1.69,1.02s-1.71-.43-1.71-1.04v-.06h-1.47v.06c0,1.34,1.13,2.27,3.18,2.27M333.79,160.58c.22-1.25,1.04-1.94,2.29-1.94,1.46,0,2.16.95,2.16,1.94h-4.45ZM336.07,165.31c2.3,0,3.61-1.4,3.61-2.83v-.07h-1.45v.07c0,.77-.68,1.61-2.14,1.61-1.36,0-2.23-.83-2.33-2.32h5.96v-.85c0-2.03-1.22-3.5-3.63-3.5s-3.81,1.47-3.81,3.88v.14c0,2.41,1.45,3.88,3.81,3.88M329.4,165.09h1.46v-10.28h-1.46v10.28ZM322.21,168.08h1.43l4.59-10.44h-1.43l-2.39,5.45-2.27-5.45h-1.58l3.06,7.23-1.41,3.21ZM318.31,165.09h1.48v-1.19h-1.12c-.6,0-.98-.29-.98-.98v-4.09h2.1v-1.19h-2.37c.2-.14.31-.32.31-.71v-1.15h-1.46v1.19c0,.52-.24.67-.73.67h-.59v1.19h1.27v4.09c0,1.58.99,2.17,2.07,2.17M310.82,165.31c2.07,0,3.16-.93,3.16-2.33v-.06c0-1.25-.83-2.02-2.21-2.21l-1.59-.21c-.66-.08-1.01-.36-1.01-.83v-.06c0-.54.53-.98,1.65-.98s1.65.45,1.65,1.07v.04h1.47v-.04c0-1.32-1.06-2.29-3.12-2.29s-3.12.98-3.12,2.27v.06c0,1.23.82,2,2.16,2.18l1.59.21c.72.1,1.06.41,1.06.88v.06c0,.59-.48,1.02-1.69,1.02s-1.71-.43-1.71-1.04v-.06h-1.47v.06c0,1.34,1.13,2.27,3.18,2.27M291.12,163.69l3.32-6.32c.18.52.28,1.16.28,1.95v1.26c0,2.32-.85,3.44-2.38,3.44-.48,0-.88-.1-1.22-.32M289.96,160.58v-1.26c0-2.32.85-3.44,2.38-3.44.48,0,.88.1,1.22.32l-3.32,6.32c-.18-.52-.28-1.16-.28-1.95M292.34,165.31c2.67,0,3.85-1.97,3.85-4.73v-1.26c0-2.76-1.18-4.73-3.85-4.73s-3.85,1.97-3.85,4.73v1.26c0,2.76,1.18,4.73,3.85,4.73M280.92,158v-.06c0-1.18.85-2.07,2.18-2.07s2.18.88,2.18,2.07v.06c0,1.21-.85,2.08-2.18,2.08s-2.18-.87-2.18-2.08M283.1,154.59c-2.2,0-3.67,1.45-3.67,3.42v.07c0,1.96,1.48,3.3,3.48,3.3.88,0,1.86-.32,2.41-.88v.11c0,1.57-.9,3.44-3.46,3.44h-1.69v1.26h1.55c4.14,0,5.13-2.91,5.13-5.96v-.32c0-2.98-1.5-4.44-3.75-4.44"/>
      <path class="cls-12" d="M333.37,149.31c2.07,0,3.16-.93,3.16-2.33v-.06c0-1.25-.83-2.02-2.21-2.21l-1.59-.21c-.66-.08-1.02-.36-1.02-.83v-.06c0-.54.53-.98,1.65-.98s1.65.45,1.65,1.07v.04h1.47v-.04c0-1.32-1.06-2.29-3.12-2.29s-3.12.98-3.12,2.27v.06c0,1.23.83,2,2.16,2.18l1.59.21c.72.1,1.06.41,1.06.88v.06c0,.59-.48,1.02-1.69,1.02s-1.72-.43-1.72-1.04v-.06h-1.47v.06c0,1.34,1.13,2.27,3.18,2.27M327.51,149.09h1.48v-1.19h-1.12c-.6,0-.98-.29-.98-.98v-4.09h2.1v-1.19h-2.37c.2-.14.31-.32.31-.71v-1.15h-1.46v1.19c0,.52-.24.67-.73.67h-.59v1.19h1.27v4.09c0,1.58.99,2.17,2.07,2.17M322.83,141.64h-1.46v4.75c-.08.94-.84,1.66-1.88,1.66-1.23,0-1.71-.73-1.71-1.83v-4.58h-1.46v4.87c0,1.95,1.13,2.8,2.78,2.8.93,0,1.77-.34,2.27-.88v.66h1.46v-7.45ZM311.33,149.31c2.32,0,3.61-1.47,3.61-2.9v-.07h-1.45v.07c0,.73-.69,1.68-2.16,1.68s-2.35-.95-2.35-2.64v-.17c0-1.69.88-2.64,2.35-2.64s2.16.94,2.16,1.68v.07h1.45v-.07c0-1.43-1.29-2.9-3.61-2.9s-3.81,1.47-3.81,3.88v.14c0,2.41,1.45,3.88,3.81,3.88M290.25,142v-.06c0-1.18.86-2.06,2.18-2.06s2.18.88,2.18,2.06v.06c0,1.21-.85,2.08-2.18,2.08s-2.18-.87-2.18-2.08M292.42,138.59c-2.2,0-3.67,1.45-3.67,3.41v.07c0,1.96,1.48,3.3,3.48,3.3.88,0,1.85-.32,2.41-.88v.11c0,1.57-.9,3.44-3.46,3.44h-1.69v1.26h1.55c4.14,0,5.13-2.91,5.13-5.96v-.32c0-2.98-1.5-4.44-3.75-4.44M282.04,147.69l3.32-6.32c.18.52.28,1.16.28,1.95v1.26c0,2.32-.85,3.44-2.38,3.44-.48,0-.88-.1-1.22-.32M280.88,144.58v-1.26c0-2.32.85-3.44,2.38-3.44.48,0,.88.1,1.22.32l-3.32,6.32c-.18-.52-.28-1.16-.28-1.95M283.26,149.31c2.67,0,3.85-1.97,3.85-4.73v-1.26c0-2.76-1.18-4.73-3.85-4.73s-3.85,1.97-3.85,4.73v1.26c0,2.76,1.18,4.73,3.85,4.73"/>
      <path class="cls-12" d="M309.38,381.29h1.46v-4.75c.08-.95.84-1.66,1.88-1.66,1.23,0,1.71.73,1.71,1.83v4.58h1.46v-4.87c0-1.95-1.13-2.8-2.78-2.8-.93,0-1.77.34-2.27.88v-3.49h-1.46v10.28ZM306.37,381.29h1.48v-1.19h-1.12c-.6,0-.98-.29-.98-.98v-4.09h2.1v-1.19h-2.37c.2-.14.31-.32.31-.71v-1.15h-1.46v1.19c0,.52-.24.67-.73.67h-.59v1.19h1.27v4.09c0,1.58.99,2.17,2.07,2.17M295.53,377.69v-.25c0-1.54.84-2.56,2.33-2.56s2.37,1.02,2.37,2.56v.25c0,1.54-.88,2.59-2.37,2.59s-2.33-1.05-2.33-2.59M297.58,381.51c1.16,0,2.08-.43,2.65-1.08v.85h1.46v-10.28h-1.46v3.67c-.57-.64-1.48-1.04-2.65-1.04-2.3,0-3.52,1.58-3.52,3.72v.39c0,2.12,1.22,3.75,3.52,3.75M290.95,372.02c0,.52.42.97.96.97s.96-.46.96-.97-.42-.96-.96-.96-.96.44-.96.96M291.18,381.29h1.45v-7.45h-1.45v7.45ZM281.25,381.29h1.67l1.53-5.1,1.47,5.1h1.76l2.21-7.45h-1.52l-1.65,5.49-1.6-5.49h-1.31l-1.63,5.48-1.62-5.48h-1.52l2.21,7.45Z"/>
      <path class="cls-12" d="M312.14,363.9l3.32-6.32c.18.52.28,1.16.28,1.95v1.26c0,2.32-.85,3.44-2.38,3.44-.48,0-.88-.1-1.22-.32M310.97,360.78v-1.26c0-2.32.85-3.44,2.38-3.44.48,0,.88.11,1.22.32l-3.32,6.32c-.18-.52-.28-1.16-.28-1.95M313.35,365.51c2.67,0,3.85-1.97,3.85-4.73v-1.26c0-2.76-1.18-4.73-3.85-4.73s-3.85,1.97-3.85,4.73v1.26c0,2.76,1.17,4.73,3.85,4.73M302.81,363.9l3.32-6.32c.18.52.28,1.16.28,1.95v1.26c0,2.32-.85,3.44-2.38,3.44-.48,0-.88-.1-1.22-.32M301.65,360.78v-1.26c0-2.32.85-3.44,2.38-3.44.48,0,.88.11,1.22.32l-3.32,6.32c-.18-.52-.28-1.16-.28-1.95M304.03,365.51c2.67,0,3.85-1.97,3.85-4.73v-1.26c0-2.76-1.18-4.73-3.85-4.73s-3.85,1.97-3.85,4.73v1.26c0,2.76,1.17,4.73,3.85,4.73M298.25,355.02h-1.19l-2.84,1.44v1.46l2.56-1.18v8.56h1.47v-10.28ZM279.47,363.09h6.69l-2.07,2.06.91.88,3.68-3.67-3.68-3.67-.91.88,2.07,2.06h-5.22v-6.94h-1.47v8.41Z"/>
      <path class="cls-12" d="M322.77,349.29h1.48v-1.19h-1.12c-.6,0-.98-.29-.98-.98v-4.09h2.1v-1.19h-2.37c.2-.14.31-.32.31-.71v-1.15h-1.46v1.19c0,.52-.24.67-.73.67h-.59v1.19h1.27v4.09c0,1.58.99,2.17,2.07,2.17M311.84,349.29h1.46v-4.75c.08-.94.84-1.66,1.88-1.66,1.22,0,1.71.73,1.71,1.83v4.58h1.46v-4.87c0-1.95-1.13-2.8-2.78-2.8-.93,0-1.77.34-2.27.88v-3.49h-1.46v10.28ZM304,345.72v-.25c0-1.54.84-2.59,2.33-2.59s2.37,1.05,2.37,2.59v.25c0,1.54-.88,2.56-2.37,2.56s-2.33-1.02-2.33-2.56M306.41,352.51c2.01,0,3.74-1.04,3.74-3.01v-7.66h-1.45v.88c-.58-.65-1.5-1.07-2.65-1.07-2.3,0-3.52,1.64-3.52,3.75v.39c0,2.14,1.22,3.72,3.52,3.72,1.17,0,2.08-.4,2.65-1.04v1.03c0,1.2-.95,1.79-2.29,1.79s-2.27-.59-2.27-1.52v-.11h-1.47v.11c0,1.9,1.84,2.74,3.74,2.74M299.34,340.02c0,.52.42.97.96.97s.96-.46.96-.97-.42-.96-.96-.96-.96.44-.96.96M299.57,349.29h1.46v-7.45h-1.46v7.45ZM292.14,344.78c.22-1.25,1.04-1.94,2.29-1.94,1.46,0,2.16.94,2.16,1.94h-4.45ZM294.42,349.51c2.3,0,3.6-1.4,3.6-2.83v-.07h-1.45v.07c0,.77-.68,1.61-2.14,1.61-1.37,0-2.23-.83-2.33-2.32h5.96v-.85c0-2.03-1.22-3.5-3.63-3.5s-3.81,1.47-3.81,3.88v.14c0,2.41,1.45,3.88,3.81,3.88M281.25,349.29h1.67l1.53-5.1,1.47,5.1h1.76l2.21-7.45h-1.52l-1.65,5.49-1.6-5.49h-1.31l-1.63,5.48-1.62-5.48h-1.52l2.21,7.45Z"/>
      <path class="cls-12" d="M316.42,331.9l3.32-6.32c.18.52.28,1.16.28,1.95v1.26c0,2.32-.85,3.44-2.38,3.44-.48,0-.88-.11-1.22-.32M315.26,328.78v-1.26c0-2.32.85-3.44,2.38-3.44.48,0,.88.11,1.22.32l-3.32,6.32c-.18-.52-.28-1.16-.28-1.95M317.64,333.51c2.67,0,3.85-1.97,3.85-4.73v-1.26c0-2.76-1.18-4.73-3.85-4.73s-3.85,1.97-3.85,4.73v1.26c0,2.76,1.17,4.73,3.85,4.73M307.1,331.9l3.32-6.32c.18.52.28,1.16.28,1.95v1.26c0,2.32-.85,3.44-2.38,3.44-.48,0-.88-.11-1.22-.32M305.93,328.78v-1.26c0-2.32.85-3.44,2.38-3.44.48,0,.88.11,1.22.32l-3.32,6.32c-.18-.52-.28-1.16-.28-1.95M308.31,333.51c2.67,0,3.85-1.97,3.85-4.73v-1.26c0-2.76-1.18-4.73-3.85-4.73s-3.85,1.97-3.85,4.73v1.26c0,2.76,1.17,4.73,3.85,4.73M295.88,329.36l3.5-4.35v4.35h-3.5ZM299.38,333.29h1.47v-2.67h1.97v-1.26h-1.97v-6.34h-1.48l-5.14,6.38v1.22h5.15v2.67ZM279.47,331.09h6.69l-2.07,2.06.91.88,3.68-3.67-3.68-3.67-.91.88,2.07,2.06h-5.22v-6.94h-1.47v8.41Z"/>
      <path class="cls-12" d="M150.62,303.82c23.99,0,43.44-19.45,43.44-43.44s-19.45-43.44-43.44-43.44-43.44,19.45-43.44,43.44,19.45,43.44,43.44,43.44"/>
    </g>
    <g class="cls-27">
      <path class="cls-13" d="M157.12,273.3c10.9,0,19.74-9.13,19.74-20.38s-8.84-20.39-19.74-20.39-19.74,9.13-19.74,20.39,8.84,20.38,19.74,20.38"/>
    </g>
    <g class="cls-31">
      <path class="cls-8" d="M150.62,303.82c23.99,0,43.44-19.45,43.44-43.44s-19.45-43.44-43.44-43.44-43.44,19.45-43.44,43.44,19.45,43.44,43.44,43.44Z"/>
      <path class="cls-12" d="M386.72,388.33h82.72c65.12,0,99.22-29.26,99.22-73.26v-1.76c0-39.38-26.18-63.58-69.52-69.3l-49.94-6.6c-20.68-2.64-31.9-11.22-31.9-26.18v-1.76c0-16.94,16.72-30.8,51.92-30.8l82.06.44v-38.94h-82.06c-64.9,0-98.12,30.8-98.12,71.5v1.76c0,38.72,25.96,62.92,67.98,68.42l49.94,6.6c22.66,3.08,33.44,12.76,33.44,27.5v1.76c0,18.48-14.96,32.12-53.02,32.12h-82.72v38.5Z"/>
    </g>
    <path class="cls-12" d="M461.63,48.13h2.83v-.54h-1.1v-3.86h-.51l-1.22.62v.62l1.1-.48v3.1h-1.1v.54ZM456.16,48.13h.72l1.07-3.59,1.07,3.59h.72l1.4-4.4h-.66l-1.13,3.53-1.06-3.53h-.71l-1.06,3.53-1.12-3.53h-.66l1.4,4.4Z"/>
    <g class="cls-29">
      <path class="cls-12" d="M532.32,47.68v.44h3.1v-.54h-2.46c0-.35.18-.56.74-.84l.65-.33c.61-.31,1.11-.69,1.11-1.45v-.03c0-.76-.59-1.31-1.57-1.31s-1.57.55-1.57,1.33v.06h.64v-.06c0-.46.38-.77.93-.77s.93.27.93.76v.03c0,.45-.25.69-.73.94l-.68.34c-.75.38-1.09.73-1.09,1.44M526.82,48.13h.72l1.07-3.59,1.07,3.59h.72l1.4-4.4h-.66l-1.13,3.53-1.06-3.53h-.71l-1.06,3.53-1.12-3.53h-.66l1.4,4.4Z"/>
      <path class="cls-12" d="M554.48,110.54c16.2,0,29.34-13.14,29.34-29.34s-13.14-29.34-29.34-29.34-29.34,13.14-29.34,29.34,13.14,29.34,29.34,29.34"/>
      <path class="cls-13" d="M554.48,105.85c13.61,0,24.64-11.03,24.64-24.64s-11.03-24.64-24.64-24.64-24.64,11.03-24.64,24.64,11.03,24.64,24.64,24.64"/>
      <path class="cls-12" d="M554.48,103.38c12.25,0,22.18-9.93,22.18-22.18s-9.93-22.18-22.18-22.18-22.18,9.93-22.18,22.18,9.93,22.18,22.18,22.18"/>
      <path class="cls-12" d="M554.48,100.19c10.49,0,18.99-8.5,18.99-18.99s-8.5-18.99-18.99-18.99-18.99,8.5-18.99,18.99,8.5,18.99,18.99,18.99"/>
    </g>
    <g class="cls-14">
      <path class="cls-13" d="M567.3,83.89c9,0,16.3-7.3,16.3-16.3s-7.3-16.3-16.3-16.3-16.3,7.3-16.3,16.3,7.3,16.3,16.3,16.3"/>
      <path class="cls-2" d="M567.3,83.89c9,0,16.3-7.3,16.3-16.3s-7.3-16.3-16.3-16.3-16.3,7.3-16.3,16.3,7.3,16.3,16.3,16.3Z"/>
    </g>
    <g class="cls-15">
      <circle class="cls-8" cx="554.48" cy="81.2" r="18.99"/>
      <path class="cls-5" d="M571.66,80.86c0-9.35-7.58-16.92-16.92-16.92"/>
      <path class="cls-12" d="M483.79,110.54c16.2,0,29.34-13.14,29.34-29.34s-13.14-29.34-29.34-29.34-29.34,13.14-29.34,29.34,13.14,29.34,29.34,29.34"/>
      <path class="cls-13" d="M483.79,105.85c13.61,0,24.64-11.03,24.64-24.64s-11.03-24.64-24.64-24.64-24.64,11.03-24.64,24.64,11.03,24.64,24.64,24.64"/>
      <path class="cls-12" d="M483.79,103.38c12.25,0,22.18-9.93,22.18-22.18s-9.93-22.18-22.18-22.18-22.18,9.93-22.18,22.18,9.93,22.18,22.18,22.18"/>
      <path class="cls-12" d="M483.79,100.19c10.49,0,18.99-8.5,18.99-18.99s-8.5-18.99-18.99-18.99-18.99,8.5-18.99,18.99,8.5,18.99,18.99,18.99"/>
    </g>
    <g class="cls-18">
      <path class="cls-13" d="M496.61,83.89c9,0,16.3-7.3,16.3-16.3s-7.3-16.3-16.3-16.3-16.3,7.3-16.3,16.3,7.3,16.3,16.3,16.3"/>
      <path class="cls-2" d="M496.61,83.89c9,0,16.3-7.3,16.3-16.3s-7.3-16.3-16.3-16.3-16.3,7.3-16.3,16.3,7.3,16.3,16.3,16.3Z"/>
    </g>
    <g class="cls-17">
      <circle class="cls-8" cx="483.79" cy="81.2" r="18.99"/>
      <path class="cls-5" d="M500.98,80.86c0-9.35-7.58-16.92-16.92-16.92"/>
      <path class="cls-12" d="M322.7,110.54c17.35,0,31.42-14.07,31.42-31.42s-14.07-31.42-31.42-31.42-31.42,14.07-31.42,31.42,14.07,31.42,31.42,31.42"/>
      <path class="cls-13" d="M322.7,105.51c14.58,0,26.39-11.82,26.39-26.39s-11.82-26.39-26.39-26.39-26.39,11.82-26.39,26.39,11.82,26.39,26.39,26.39"/>
      <path class="cls-12" d="M322.7,104.22c13.86,0,25.1-11.24,25.1-25.1s-11.24-25.1-25.1-25.1-25.1,11.24-25.1,25.1,11.24,25.1,25.1,25.1"/>
      <path class="cls-12" d="M322.7,103.11c13.25,0,23.98-10.74,23.98-23.98s-10.74-23.98-23.98-23.98-23.98,10.74-23.98,23.98,10.74,23.98,23.98,23.98"/>
    </g>
    <g class="cls-16">
      <path class="cls-12" d="M337.14,95.53c18.31,0,33.15-14.84,33.15-33.15s-14.84-33.15-33.15-33.15-33.15,14.84-33.15,33.15,14.84,33.15,33.15,33.15"/>
    </g>
    <g class="cls-19">
      <path class="cls-4" d="M322.7,103.11c13.25,0,23.98-10.74,23.98-23.98s-10.74-23.98-23.98-23.98-23.98,10.74-23.98,23.98,10.74,23.98,23.98,23.98Z"/>
      <path class="cls-9" d="M344.4,78.69c0-11.8-9.57-21.37-21.37-21.37"/>
      <path class="cls-13" d="M318,77.59c.47-2.68,2.24-4.15,4.91-4.15,3.13,0,4.62,2.03,4.62,4.15h-9.53ZM322.89,87.73c4.93,0,7.73-3,7.73-6.08v-.15h-3.12v.15c0,1.65-1.46,3.45-4.59,3.45-2.93,0-4.77-1.77-5-4.96h12.77v-1.83c0-4.35-2.61-7.5-7.79-7.5s-8.16,3.15-8.16,8.31v.3c0,5.16,3.11,8.31,8.16,8.31"/>
      <path class="cls-12" d="M399.34,110.54c17.35,0,31.42-14.07,31.42-31.42s-14.07-31.42-31.42-31.42-31.42,14.07-31.42,31.42,14.07,31.42,31.42,31.42"/>
      <path class="cls-13" d="M399.34,105.51c14.58,0,26.39-11.82,26.39-26.39s-11.82-26.39-26.39-26.39-26.39,11.82-26.39,26.39,11.82,26.39,26.39,26.39"/>
      <path class="cls-12" d="M399.34,104.22c13.86,0,25.1-11.24,25.1-25.1s-11.24-25.1-25.1-25.1-25.1,11.24-25.1,25.1,11.24,25.1,25.1,25.1"/>
      <path class="cls-12" d="M399.34,103.11c13.25,0,23.98-10.74,23.98-23.98s-10.74-23.98-23.98-23.98-23.98,10.74-23.98,23.98,10.74,23.98,23.98,23.98"/>
    </g>
    <g class="cls-21">
      <path class="cls-13" d="M413.78,95.53c18.31,0,33.15-14.84,33.15-33.15s-14.84-33.15-33.15-33.15-33.15,14.84-33.15,33.15,14.84,33.15,33.15,33.15"/>
    </g>
    <g class="cls-20">
      <path class="cls-4" d="M399.34,103.11c13.25,0,23.98-10.74,23.98-23.98s-10.74-23.98-23.98-23.98-23.98,10.74-23.98,23.98,10.74,23.98,23.98,23.98Z"/>
      <path class="cls-13" d="M421.04,78.69c0-11.8-9.57-21.37-21.37-21.37"/>
      <path class="cls-10" d="M421.04,78.69c0-11.8-9.57-21.37-21.37-21.37"/>
      <path class="cls-12" d="M399.37,87.73c4.44,0,6.77-1.99,6.77-4.99v-.12c0-2.68-1.79-4.34-4.74-4.73l-3.4-.45c-1.41-.18-2.17-.76-2.17-1.79v-.12c0-1.15,1.14-2.1,3.54-2.1s3.54.96,3.54,2.3v.09h3.15v-.09c0-2.82-2.26-4.92-6.69-4.92s-6.69,2.1-6.69,4.88v.12c0,2.64,1.77,4.29,4.63,4.66l3.4.45c1.55.21,2.28.87,2.28,1.88v.12c0,1.26-1.02,2.19-3.61,2.19s-3.67-.93-3.67-2.23v-.14h-3.15v.14c0,2.86,2.42,4.86,6.83,4.86"/>
    </g>
  </g>
</svg>