<?xml version="1.0" encoding="utf-8"?>
<!-- Generator: Adobe Illustrator 29.1.0, SVG Export Plug-In . SVG Version: 9.03 Build 55587)  -->
<svg version="1.0" id="Calque_1" xmlns="http://www.w3.org/2000/svg" xmlns:xlink="http://www.w3.org/1999/xlink" x="0px" y="0px"
	 viewBox="0 0 616 860" style="enable-background:new 0 0 616 860;" xml:space="preserve">
<style type="text/css">
	.st0{clip-path:url(#SVGID_00000010271860912893467950000010041521511870729130_);}
	.st1{clip-path:url(#SVGID_00000101079302128314008200000013636842795792808075_);}
	.st2{fill:none;stroke:#FFFFFF;}
	.st3{fill:#FFFFFF;}
	.st4{clip-path:url(#SVGID_00000066476261473118096360000006527502336114426499_);}
</style>
<g>
	<defs>
		<rect id="SVGID_1_" width="616" height="860"/>
	</defs>
	<clipPath id="SVGID_00000111913237462076094180000003208194723200534168_">
		<use xlink:href="#SVGID_1_"  style="overflow:visible;"/>
	</clipPath>
	<g style="clip-path:url(#SVGID_00000111913237462076094180000003208194723200534168_);">
		<g>
			<defs>
				<rect id="SVGID_00000081609568443080650020000008115243836874461058_" width="616" height="860"/>
			</defs>
			<clipPath id="SVGID_00000129174647663663877630000011193691980884010663_">
				<use xlink:href="#SVGID_00000081609568443080650020000008115243836874461058_"  style="overflow:visible;"/>
			</clipPath>
			<g style="clip-path:url(#SVGID_00000129174647663663877630000011193691980884010663_);">
				<path class="st2" d="M496,320.5l-75.5,13.2H249.9c0,0-12.2,72.8-82.8,72.8s-115.3-43-115.3-43L14.5,491.6
					c0,0,59.3,19.3,75.5,40.4c16.2,21.1,20.3,48.3,20.3,48.3h121.8c54.4,0,102.3,13.2,102.3,13.2l267.1,15.8V316.1L496,320.5z"/>
				<path class="st3" d="M395.1,525.5c0-101.6,26.1-154.6,63.9-154.6c22.5,0,37.8,16,45.7,35.6v214.2c-8.7,26.9-28.3,42.1-50.8,42.1
					C416.9,662.7,395.1,622.1,395.1,525.5 M440.8,678.7c28.3,0,52.3-13.1,63.9-43.6c0,26.9,16.7,42.8,43.6,42.8
					c21.8,0,33.4-11.6,42.1-26.9l-5.1-3.6c-8,11.6-14.5,16-22.5,16c-12.3,0-16.7-10.9-16.7-37.8V365.1h-10.2l-29.8,26.1
					c-8.7-23.2-29.8-34.1-55.9-34.1c-57.4,0-97.3,63.2-97.3,168.4C353,614.1,385.6,678.7,440.8,678.7"/>
				<path class="st3" d="M100,599.6c0-55.2,26.9-87.1,95.1-87.9v110.4c-9.4,23.2-26.9,39.2-51.6,39.2
					C114.5,661.3,100,640.2,100,599.6 M238.6,678c21.8,0,33.4-11.6,41.4-26.9l-5.1-3.6c-7.3,11.6-14.5,16-22.5,16
					c-11.6,0-16-10.9-16-37.8V437c0-29.8-14.5-80.6-77.7-80.6c-51.6,0-85.7,35.6-85.7,75.5c0,18.1,7.3,26.1,21.1,26.1
					c13.1,0,21.8-8.7,21.8-25.4c0-45,6.5-66.1,37-66.1c36.3,0,42.1,27.6,42.1,78.4v56.6c-71.2,0.7-136.5,24-136.5,100.2
					c0,49.4,29.8,76.2,71.9,76.2c36.3,0,55.2-17.4,64.6-38.5C196.5,663.5,212.5,678,238.6,678"/>
				<path class="st3" d="M77.8,43.8h3.7v-0.3c-1.2,0-1.2-0.2-1.2-0.8v-4.3c0.4-1.1,1.2-2,2.3-2c1,0,1.5,0.8,1.5,2.3v3.9
					c0,0.7,0,0.8-1.2,0.8v0.3h3.7v-0.3c-1.2,0-1.2-0.2-1.2-0.8v-4c0-1.6-0.9-2.6-2.4-2.6c-1.3,0-2.1,0.7-2.8,1.8v-1.6h-2.6v0.3
					c1.2,0,1.2,0.2,1.2,0.8v5.3c0,0.7,0,0.8-1.2,0.8L77.8,43.8L77.8,43.8z M70.7,42c0-1.4,0.8-2,3.3-2.1v2.5
					c-0.4,0.8-1.2,1.2-1.9,1.2C71.2,43.5,70.7,43,70.7,42 M75.5,44c0.8,0,1.1-0.4,1.3-0.8L76.7,43c-0.2,0.4-0.4,0.6-0.8,0.6
					c-0.4,0-0.5-0.4-0.5-1.2v-4.2c0-1.5-1.1-2.3-2.7-2.3s-2.9,0.8-2.9,1.9c0,0.5,0.2,0.8,0.7,0.8s0.7-0.4,0.7-0.9
					c0-1.1,0.2-1.6,1.3-1.6c1.5,0,1.5,1,1.5,2.2v1.2c-2.5,0-4.6,0.7-4.6,2.4c0,1.3,1.2,2,2.5,2s1.8-0.6,2.2-1.2
					C74.1,43.6,74.8,44,75.5,44 M64.6,43.8h3.7v-0.3c-1.2,0-1.2-0.2-1.2-0.8V32.2h-2.6v0.3c1.2,0,1.2,0.2,1.2,0.8v9.3
					c0,0.7,0,0.8-1.2,0.8L64.6,43.8L64.6,43.8z M57.7,42.3v-4.8c0.4-0.5,1.2-1.1,2.2-1.1c1.6,0,2.4,1.3,2.4,3.5
					c0,2.7-1.3,3.7-2.5,3.7C58.8,43.6,58.1,42.9,57.7,42.3 M55.1,47.5h4.1v-0.3c-1.5,0-1.5-0.2-1.5-0.8v-3.7
					c0.4,0.7,1.2,1.3,2.4,1.3c2,0,3.6-1.7,3.6-4.1S62.1,36,60.2,36c-1.1,0-2,0.5-2.5,1.2v-1h-2.6v0.3c1.2,0,1.2,0.2,1.2,0.8v9.1
					c0,0.7,0,0.8-1.2,0.8L55.1,47.5L55.1,47.5z M46,43.8h3.7v-0.3c-1.2,0-1.2-0.2-1.2-0.8v-3.1H49l2.1,3.1c0.5,0.7,0.2,0.8-0.7,0.8
					v0.3h3.8v-0.3c-0.8,0-1.1-0.1-1.4-0.7l-2.3-3.5l2-2.3c0.4-0.5,1-0.5,1.4-0.5v-0.3h-2.5v0.3c0.7,0,1.1,0.1,0.8,0.4l-2,2.2h-1.8
					v-6.9H46v0.3c1.2,0,1.2,0.2,1.2,0.8v9.3c0,0.7,0,0.8-1.2,0.8L46,43.8L46,43.8z M39.5,43.8h3.7v-0.3c-1.2,0-1.2-0.2-1.2-0.8v-4.4
					c0.3-0.9,0.5-1.7,1.3-1.7c1,0,0.6,1.3,1.5,1.3c0.4,0,0.7-0.2,0.7-0.8c0-0.7-0.5-1.2-1.5-1.2c-1.2,0-1.8,0.7-2.1,1.7v-1.4h-2.6
					v0.3c1.2,0,1.2,0.2,1.2,0.8v5.3c0,0.7,0,0.8-1.2,0.8L39.5,43.8L39.5,43.8z M32,39.8c0-2.5,1.1-3.5,2.5-3.5
					c1.5,0,2.6,1.1,2.6,3.7s-1.1,3.6-2.5,3.6C33.1,43.6,32,42.4,32,39.8 M34.6,44c2,0,3.9-1.4,3.9-4s-2-4-3.9-4s-3.9,1.4-3.9,4
					S32.6,44,34.6,44 M22.2,33.3l0.3,0.8l-2.7,7.9l-2.7-8.8c-0.2-0.6-0.1-0.7,1.1-0.7v-0.3h-3.9v0.3c1.1,0,1.2,0.1,1.4,0.7L19.1,44
					h0.4l3.2-9.2l3,9.2h0.4l3.4-10.7c0.2-0.6,0.2-0.7,1.5-0.7v-0.3h-2.9v0.3c1.1,0,1.2,0.2,1,0.7L26.4,42l-2.8-8.7
					c-0.2-0.6-0.2-0.7,0.9-0.7v-0.3h-3.7v0.3C21.9,32.6,22,32.7,22.2,33.3"/>
				<path class="st3" d="M95.1,28c0.8,0,1.2-0.4,1.5-1l-0.2-0.1c-0.3,0.5-0.6,0.7-1,0.7c-0.7,0-0.8-0.6-0.8-1.6v-5.4l2.2-0.2v-0.2
					h-2.2v-1.8h-0.2l-1.2,1v0.8h-1.3v0.4h1.3v5.3C93.3,27.3,93.9,28,95.1,28 M86.2,28c1.4,0,2.3-0.8,2.8-1.9v1.7h2.6v-0.3
					c-1.2,0-1.2-0.2-1.2-0.8v-6.4h-2.6v0.3c1.2,0,1.2,0.2,1.2,0.8v4.3c-0.4,1.1-1,2-2.2,2s-1.6-0.8-1.6-2.5v-4.9h-2.6v0.3
					c1.2,0,1.2,0.2,1.2,0.8v3.9C83.8,26.9,84.6,28,86.2,28 M78.8,28c1.1,0,2.1-0.4,2.9-1.6l-0.2-0.2c-0.7,0.9-1.5,1.2-2.3,1.2
					c-1.6,0-2.7-1-2.7-3.5c0-2.4,1-3.6,2.6-3.6c0.8,0,0.9,0.4,1.1,1.1c0.1,0.4,0.3,0.7,0.8,0.7c0.4,0,0.7-0.2,0.7-0.7
					c0-0.9-1.1-1.5-2.4-1.5c-2.2,0-4,1.5-4,4.2C75.2,26.4,76.5,28,78.8,28 M71.3,17.9c0,0.6,0.4,0.9,0.9,0.9s0.9-0.4,0.9-0.9
					c0-0.6-0.4-1-0.9-1S71.3,17.3,71.3,17.9 M70.5,27.8h3.7v-0.3c-1.2,0-1.2-0.2-1.2-0.8v-6.4h-2.6v0.3c1.2,0,1.2,0.2,1.2,0.8v5.3
					c0,0.6,0,0.8-1.2,0.8L70.5,27.8L70.5,27.8z M65.9,27.8h3.7v-0.3c-1.2,0-1.2-0.2-1.2-0.8V16.2h-2.6v0.3c1.2,0,1.2,0.2,1.2,0.8
					v9.3c0,0.6,0,0.8-1.2,0.8L65.9,27.8L65.9,27.8z M58.8,26c0-1.4,0.8-2,3.3-2.1v2.5c-0.4,0.9-1.2,1.1-1.9,1.1
					C59.4,27.5,58.8,27,58.8,26 M63.6,28c0.8,0,1.1-0.4,1.3-0.8L64.8,27c-0.2,0.4-0.4,0.6-0.8,0.6c-0.4,0-0.5-0.4-0.5-1.1v-4.2
					c0-1.5-1.1-2.3-2.7-2.3s-2.9,0.8-2.9,1.9c0,0.5,0.2,0.9,0.7,0.9s0.7-0.4,0.7-0.9c0-1.1,0.2-1.6,1.3-1.6c1.5,0,1.5,1,1.5,2.2v1.1
					c-2.5,0-4.6,0.7-4.6,2.4c0,1.3,1.2,2,2.5,2s1.8-0.6,2.2-1.2C62.2,27.6,62.9,28,63.6,28 M51.5,28c1.5,0,3.2-0.4,4.3-1.2l0.2-1.9
					h-0.4c-0.5,1.7-2,2.8-4.1,2.8c-2.8,0-4.8-1.9-4.8-5.5s2.1-5.8,4.8-5.8c1.9,0,3.5,1,4,2.8H56l-0.2-1.9c-1.1-0.8-2.8-1.2-4.2-1.2
					c-3.7,0-6.3,2.8-6.3,6.2S47.9,28,51.5,28 M30.7,27.8H36v-0.3c-2.2,0-2.2-0.2-2.2-0.9v-4.4h2.3c0.6,0,1.3,0.1,1.3,1.5h0.3v-3.3
					h-0.3c0,1.3-0.7,1.5-1.3,1.5h-2.3v-5.3h3.9c0.6,0,1.5,0,1.7,2h0.2v-2.3h-9v0.3c1.7,0,1.7,0.2,1.7,0.9v9.1c0,0.7,0,0.9-1.7,0.9
					L30.7,27.8L30.7,27.8z M14.6,27.8h3.8v-0.3c-1.7,0-1.7-0.2-1.7-0.9v-9.5l4.9,10.7h0.1L26.5,17v9.6c0,0.7,0,0.9-1.7,0.9v0.3h4.9
					v-0.3c-1.7,0-1.7-0.2-1.7-0.9v-9.1c0-0.7,0-0.9,1.7-0.9v-0.3h-3.2l-4.2,9.6l-4.3-9.6h-3.3v0.3c1.7,0,1.7,0.2,1.7,0.9v9.1
					c0,0.7,0,0.9-1.7,0.9L14.6,27.8L14.6,27.8z"/>
				<path class="st3" d="M211.9,44c1.7,0,2.8-0.7,2.8-2.2c0-3.1-4.8-2-4.8-4.2c0-0.9,0.8-1.2,1.7-1.2c1.9,0,1.3,1.6,2.3,1.6
					c0.4,0,0.6-0.3,0.6-0.6c0-0.8-1.4-1.3-2.7-1.3c-1.6,0-2.8,0.7-2.8,2c0,2.8,4.8,1.8,4.8,4.2c0,1-0.8,1.4-1.8,1.4
					c-2.1,0-1.6-1.9-2.6-1.9c-0.3,0-0.7,0.2-0.7,0.7C208.8,43.4,210.4,44,211.9,44 M202,39c0.1-1.7,0.8-2.8,2.3-2.8
					c1.1,0,2,0.7,2,2.6l-0.5,0.2H202L202,39z M204.4,44c1.3,0,2.2-0.6,2.9-1.6l-0.2-0.1c-0.6,0.8-1.4,1.2-2.4,1.2
					c-1.2,0-2.7-0.5-2.7-3.6c0-0.2,0-0.3,0-0.5h5.6c0-2-1.4-3.3-3.2-3.3c-2.3,0-3.8,1.9-3.8,4.2S202.3,44,204.4,44 M195.9,43.8h3.7
					v-0.3c-1.2,0-1.2-0.2-1.2-0.8V32.2h-2.6v0.3c1.2,0,1.2,0.2,1.2,0.8v9.3c0,0.7,0,0.8-1.2,0.8L195.9,43.8L195.9,43.8z M189.1,47.8
					c0.9,0,1.5-0.4,2-1.8l3.4-8.6c0.2-0.6,0.3-0.8,1.3-0.8v-0.3h-2.9v0.3c1.5,0,1.4,0.1,1.2,0.8l-2.1,5.3l-2-5.3
					c-0.3-0.7-0.2-0.8,0.9-0.8v-0.3h-3.7v0.3c1.1,0,1.2,0.2,1.5,0.8l2.7,6.7l-0.7,1.8c-0.2,1.4-0.7,1.6-1.1,1.6s-0.5-0.2-0.6-0.7
					c-0.1-0.5-0.4-0.7-0.8-0.7s-0.6,0.2-0.6,0.7C187.6,47.3,188.2,47.8,189.1,47.8 M184.9,44c0.8,0,1.2-0.4,1.5-1l-0.2-0.1
					c-0.3,0.5-0.6,0.7-1,0.7c-0.7,0-0.8-0.6-0.8-1.6v-5.4l2.2-0.2v-0.2h-2.2v-1.8h-0.2l-1.2,1v0.8h-1.3v0.4h1.3v5.3
					C183.1,43.3,183.7,44,184.9,44 M178.2,44c1.7,0,2.8-0.7,2.8-2.2c0-3.1-4.8-2-4.8-4.2c0-0.9,0.8-1.2,1.7-1.2
					c1.9,0,1.3,1.6,2.3,1.6c0.4,0,0.6-0.3,0.6-0.6c0-0.8-1.4-1.3-2.7-1.3c-1.6,0-2.8,0.7-2.8,2c0,2.8,4.8,1.8,4.8,4.2
					c0,1-0.8,1.4-1.8,1.4c-2.1,0-1.6-1.9-2.6-1.9c-0.3,0-0.7,0.2-0.7,0.7C175,43.4,176.6,44,178.2,44 M159.9,42.4l3.9-8.5
					c0.5,1.1,0.7,2.5,0.7,4.1c0,3.1-0.8,5.7-2.7,5.7C161,43.7,160.4,43.2,159.9,42.4 M159.1,38c0-3.1,0.8-5.7,2.7-5.7
					c0.8,0,1.4,0.5,1.8,1.2l-3.9,8.5C159.3,41,159.1,39.5,159.1,38 M161.8,44c2.2,0,4.1-2.4,4.1-6s-1.9-6-4.1-6s-4.1,2.4-4.1,6
					S159.6,44,161.8,44 M148.8,35.5c0-1.7,0.9-3.2,2.7-3.2c1.9,0,2.7,1.7,2.7,3.2c0,1.8-1.1,3.3-2.8,3.3S148.8,37.2,148.8,35.5
					 M148.4,43.8V44c4-0.6,7.2-3.6,7.2-7.3c0-2.4-1.4-4.7-4.2-4.7c-2,0-4,1.1-4,3.5c0,2.2,1.7,3.5,3.7,3.5c1.6,0,2.6-0.9,3.1-2.2
					C154.2,40.6,151.5,43.3,148.4,43.8"/>
				<path class="st3" d="M200.9,28c1.7,0,2.8-0.7,2.8-2.2c0-3.1-4.8-2-4.8-4.2c0-0.9,0.8-1.2,1.7-1.2c1.9,0,1.3,1.6,2.3,1.6
					c0.4,0,0.6-0.3,0.6-0.6c0-0.8-1.4-1.3-2.7-1.3c-1.6,0-2.8,0.7-2.8,2c0,2.8,4.8,1.8,4.8,4.2c0,1-0.8,1.4-1.8,1.4
					c-2.1,0-1.6-1.9-2.6-1.9c-0.3,0-0.7,0.2-0.7,0.6C197.8,27.4,199.3,28,200.9,28 M195.1,28c0.8,0,1.2-0.4,1.5-1l-0.2-0.1
					c-0.3,0.5-0.6,0.7-1,0.7c-0.7,0-0.8-0.6-0.8-1.6v-5.4l2.2-0.2v-0.2h-2.2v-1.8h-0.2l-1.2,1v0.8H192v0.4h1.3v5.3
					C193.3,27.3,194,28,195.1,28 M186.2,28c1.4,0,2.3-0.8,2.8-1.9v1.7h2.6v-0.3c-1.2,0-1.2-0.2-1.2-0.8v-6.4h-2.6v0.3
					c1.2,0,1.2,0.2,1.2,0.8v4.3c-0.4,1.1-1,2-2.2,2s-1.6-0.8-1.6-2.5v-4.9h-2.6v0.3c1.2,0,1.2,0.2,1.2,0.8v3.9
					C183.8,26.9,184.7,28,186.2,28 M178.9,28c1.1,0,2.1-0.4,2.9-1.6l-0.2-0.2c-0.7,0.9-1.5,1.2-2.3,1.2c-1.6,0-2.7-1-2.7-3.5
					c0-2.4,1-3.6,2.6-3.6c0.8,0,0.9,0.4,1.1,1.1c0.1,0.4,0.3,0.7,0.8,0.7c0.4,0,0.6-0.2,0.6-0.7c0-0.9-1.1-1.5-2.4-1.5
					c-2.2,0-4,1.5-4,4.2C175.2,26.4,176.6,28,178.9,28 M159.1,19.5c0-1.7,0.9-3.2,2.7-3.2c1.9,0,2.7,1.7,2.7,3.1
					c0,1.8-1.1,3.3-2.8,3.3S159.1,21.2,159.1,19.5 M158.7,27.8V28c4-0.6,7.2-3.6,7.2-7.3c0-2.4-1.4-4.7-4.2-4.7c-2,0-4,1.1-4,3.5
					c0,2.2,1.7,3.5,3.7,3.5c1.6,0,2.6-0.9,3.1-2.2C164.5,24.6,161.9,27.3,158.7,27.8 M149.6,26.4l3.9-8.5c0.5,1.1,0.7,2.5,0.7,4.1
					c0,3.1-0.8,5.7-2.7,5.7C150.6,27.7,150,27.2,149.6,26.4 M148.7,22c0-3.1,0.8-5.7,2.7-5.7c0.8,0,1.4,0.5,1.8,1.2l-3.9,8.5
					C148.9,25,148.7,23.5,148.7,22 M151.5,28c2.2,0,4.1-2.4,4.1-6s-1.9-6-4.1-6s-4.1,2.4-4.1,6S149.2,28,151.5,28"/>
				<path class="st3" d="M378.1,43.1v0.7h7.7v-2.9h-0.3c0,1.2-0.2,1.7-0.9,1.7h-5.2c3.2-2.4,6.1-4.6,6.1-7.3c0-2.1-1.8-3.2-3.7-3.2
					c-2.1,0-3.1,1.3-3.6,3l0.2,0c0.4-1.4,1.4-2.6,3.2-2.6c1.9,0,2.5,1.4,2.5,2.9C384.2,38.4,382.2,40.1,378.1,43.1 M369.7,42.4
					l3.9-8.5c0.5,1.1,0.7,2.5,0.7,4.1c0,3.1-0.8,5.7-2.7,5.7C370.8,43.7,370.2,43.2,369.7,42.4 M368.9,38c0-3.1,0.8-5.7,2.7-5.7
					c0.8,0,1.4,0.5,1.8,1.2l-3.9,8.5C369.1,41,368.9,39.5,368.9,38 M371.6,44c2.2,0,4.1-2.4,4.1-6s-1.9-6-4.1-6s-4.1,2.4-4.1,6
					S369.4,44,371.6,44 M363.1,44c1.7,0,2.8-0.7,2.8-2.2c0-3.1-4.8-2-4.8-4.2c0-0.9,0.8-1.2,1.7-1.2c1.9,0,1.3,1.6,2.3,1.6
					c0.4,0,0.6-0.3,0.6-0.6c0-0.8-1.4-1.3-2.7-1.3c-1.6,0-2.8,0.7-2.8,2c0,2.8,4.8,1.8,4.8,4.2c0,1-0.8,1.4-1.8,1.4
					c-2.1,0-1.5-1.9-2.6-1.9c-0.3,0-0.7,0.2-0.7,0.7C360,43.4,361.6,44,363.1,44 M354.7,44c1.8,0,4.1-1,4.1-3.4c0-4.3-6.8-2.6-6.8-6
					c0-1.4,0.9-2.3,2.7-2.3s2.6,0.8,3,2.5h0.4l-0.2-1.9c-1-0.6-2-0.9-3.2-0.9c-2.2,0-3.7,1.1-3.7,3c0,4.1,6.8,2.4,6.8,6
					c0,2-1.5,2.7-3.1,2.7c-1.9,0-2.9-1-3.4-2.9h-0.5l0.2,1.9C352,43.6,353.6,44,354.7,44 M334.8,38h9.3l-3,3.1l0.2,0.2l4.4-3.5
					l-4.4-3.5l-0.2,0.2l3,3.1h-9.3V38L334.8,38z M321.9,43.8h7v-0.3c-2.8,0-2.8-0.2-2.8-0.9V32h-0.4c-1.1,0.7-2.1,1.1-4,1.1v0.4
					c1.5,0,2.3-0.2,2.9-0.5v9.5c0,0.7,0,0.9-2.8,0.9L321.9,43.8L321.9,43.8z M313.1,42.4l3.9-8.5c0.5,1.1,0.7,2.5,0.7,4.1
					c0,3.1-0.8,5.7-2.7,5.7C314.2,43.7,313.5,43.2,313.1,42.4 M312.2,38c0-3.1,0.8-5.7,2.7-5.7c0.8,0,1.4,0.5,1.8,1.2l-3.9,8.5
					C312.5,41,312.3,39.5,312.2,38 M315,44c2.2,0,4.1-2.4,4.1-6s-1.9-6-4.1-6s-4.1,2.4-4.1,6S312.8,44,315,44 M306.5,44
					c1.7,0,2.8-0.7,2.8-2.2c0-3.1-4.8-2-4.8-4.2c0-0.9,0.8-1.2,1.7-1.2c1.9,0,1.3,1.6,2.3,1.6c0.4,0,0.6-0.3,0.6-0.6
					c0-0.8-1.4-1.3-2.7-1.3c-1.6,0-2.8,0.7-2.8,2c0,2.8,4.8,1.8,4.8,4.2c0,1-0.8,1.4-1.8,1.4c-2.1,0-1.5-1.9-2.6-1.9
					c-0.3,0-0.7,0.2-0.7,0.7C303.4,43.4,304.9,44,306.5,44 M298,44c1.8,0,4.1-1,4.1-3.4c0-4.3-6.8-2.6-6.8-6c0-1.4,0.9-2.3,2.7-2.3
					s2.6,0.8,3,2.5h0.4l-0.2-1.9c-1-0.6-2-0.9-3.2-0.9c-2.2,0-3.7,1.1-3.7,3c0,4.1,6.8,2.4,6.8,6c0,2-1.5,2.7-3.1,2.7
					c-1.9,0-2.9-1-3.4-2.9h-0.5l0.2,1.9C295.4,43.6,297,44,298,44"/>
				<path class="st3" d="M364.3,23c0.1-1.7,0.8-2.8,2.3-2.8c1.1,0,2,0.6,2,2.6L368,23H364.3L364.3,23z M366.6,28
					c1.3,0,2.2-0.6,2.9-1.6l-0.2-0.1c-0.6,0.9-1.4,1.1-2.4,1.1c-1.2,0-2.7-0.5-2.7-3.6c0-0.2,0-0.3,0-0.5h5.6c0-2-1.4-3.3-3.2-3.3
					c-2.3,0-3.8,1.9-3.8,4.2S364.5,28,366.6,28 M355.7,26.3v-4.8c0.4-0.5,1.1-1.1,2.2-1.1c1.6,0,2.4,1.4,2.4,3.5
					c0,2.7-1.3,3.6-2.5,3.6C356.8,27.6,356.1,27,355.7,26.3 M353.2,31.5h4.1v-0.3c-1.5,0-1.5-0.2-1.5-0.8v-3.7
					c0.4,0.6,1.2,1.3,2.4,1.3c2,0,3.6-1.7,3.6-4.1s-1.5-3.9-3.5-3.9c-1.1,0-2,0.5-2.5,1.2v-1h-2.6v0.3c1.2,0,1.2,0.2,1.2,0.8v9.1
					c0,0.6,0,0.8-1.2,0.8L353.2,31.5L353.2,31.5z M346,31.8c0.9,0,1.5-0.4,2-1.8l3.4-8.6c0.2-0.6,0.3-0.8,1.3-0.8v-0.3h-2.9v0.3
					c1.5,0,1.4,0.1,1.2,0.8l-2.1,5.3l-2-5.3c-0.3-0.7-0.2-0.8,0.9-0.8v-0.3h-3.7v0.3c1.1,0,1.2,0.2,1.5,0.8l2.7,6.7l-0.7,1.8
					c-0.2,1.4-0.7,1.6-1.1,1.6s-0.5-0.2-0.6-0.7c-0.1-0.5-0.4-0.7-0.8-0.7s-0.6,0.2-0.6,0.7C344.5,31.4,345.1,31.8,346,31.8
					 M341.8,28c0.8,0,1.2-0.4,1.5-1l-0.2-0.1c-0.3,0.5-0.6,0.7-1,0.7c-0.7,0-0.8-0.6-0.8-1.6v-5.4l2.2-0.2v-0.2h-2.2v-1.8h-0.2
					l-1.2,1v0.8h-1.3v0.4h1.3v5.3C339.9,27.3,340.6,28,341.8,28 M324.7,27.8h3.7v-0.3c-1.2,0-1.2-0.2-1.2-0.8v-4.3
					c0.4-1.1,1.2-2,2.3-2c1,0,1.5,0.8,1.5,2.3v3.9c0,0.6,0,0.8-1.2,0.8v0.3h3.7v-0.3c-1.2,0-1.2-0.2-1.2-0.8v-4.1
					c0-1.6-0.9-2.6-2.4-2.6c-1.3,0-2.1,0.6-2.8,1.9v-1.6h-2.6v0.3c1.2,0,1.2,0.2,1.2,0.8v5.3c0,0.6,0,0.8-1.2,0.8L324.7,27.8
					L324.7,27.8z M318.2,23c0.1-1.7,0.8-2.8,2.3-2.8c1.1,0,2,0.6,2,2.6l-0.5,0.2H318.2L318.2,23z M320.5,28c1.3,0,2.2-0.6,2.9-1.6
					l-0.2-0.1c-0.6,0.9-1.4,1.1-2.4,1.1c-1.2,0-2.7-0.5-2.7-3.6c0-0.2,0-0.3,0-0.5h5.6c0-2-1.4-3.3-3.2-3.3c-2.3,0-3.8,1.9-3.8,4.2
					S318.4,28,320.5,28 M309.6,26.3v-4.8c0.4-0.5,1.1-1.1,2.2-1.1c1.6,0,2.4,1.4,2.4,3.5c0,2.7-1.3,3.6-2.5,3.6
					C310.7,27.6,310,27,309.6,26.3 M307.1,31.5h4.1v-0.3c-1.5,0-1.5-0.2-1.5-0.8v-3.7c0.4,0.6,1.2,1.3,2.4,1.3c2,0,3.6-1.7,3.6-4.1
					s-1.5-3.9-3.5-3.9c-1.1,0-2,0.5-2.5,1.2v-1h-2.6v0.3c1.2,0,1.2,0.2,1.2,0.8v9.1c0,0.6,0,0.8-1.2,0.8L307.1,31.5L307.1,31.5z
					 M295.5,22c0-3.9,1.9-5.6,4.5-5.6c2.9,0,4.5,2.2,4.5,5.7c0,3.9-1.9,5.6-4.5,5.6C297.1,27.7,295.5,25.5,295.5,22 M299.9,28
					c3,0,6-2.3,6-6S303,16,300,16s-6,2.3-6,6S297,28,299.9,28"/>
				<path class="st3" d="M586.8,30.7h15.4c0-9.4-7-16.7-17-16.7v15.1h-15c0,9.2,7.1,16.9,16.6,16.9V30.7z"/>
				<path class="st3" d="M181.5,238h23.4v-1.7c-8,0-8-1.2-8-5.6v-62.4c0-3.4,0.6-5.5,5.8-5.5h3.8c3.4,0,7,1.7,7.3,13.6h1.7v-15.1
					h-44.5v15.1h1.8c0-11.9,4-13.6,7.2-13.6h3.8c5.2,0,5.9,2.2,5.9,5.5v62.4c0,4.4,0,5.6-8.2,5.6L181.5,238L181.5,238z M125.7,198.9
					c0-27,5.8-37.1,16-37.1c11.6,0,16.3,13.1,16.3,38.4c0,27-5.6,37.2-15.8,37.2C130.5,237.4,125.7,224.3,125.7,198.9 M141.8,239.3
					c13.7,0,23.8-13.1,23.8-39.5c0-27.8-10.3-40-23.6-40s-23.6,12.8-23.6,39.5S128.4,239.3,141.8,239.3 M70,198.9
					c0-27,5.8-37.1,16-37.1c11.6,0,16.3,13.1,16.3,38.4c0,27-5.6,37.2-15.8,37.2C74.8,237.4,70,224.3,70,198.9 M86.1,239.3
					c13.7,0,23.8-13.1,23.8-39.5c0-27.8-10.3-40-23.6-40s-23.6,12.8-23.6,39.5S72.8,239.3,86.1,239.3 M16,238h26.3v-1.7
					c-11.2,0-11.2-1.2-11.2-5.6v-30.1h8.4c4.2,0,7.1,0.6,7.1,10.7h1.7v-22.8h-1.7c0,9.6-2.9,10.2-7.1,10.2h-8.4V163h14.2
					c4.3,0,9.5,0.7,9.8,12.8h1.6v-14.6H16v1.7c8,0,8,1.2,8,5.6v62.2c0,4.4,0,5.6-8,5.6C16,236.3,16,238,16,238z"/>
				<path class="st3" d="M308.1,102.8V67.1h7.8c5,0,11,2.4,11,17.9c0,11.2-3.2,17.8-11.6,17.8H308.1L308.1,102.8z M292.9,142H316
					v-1.7c-7.9,0-7.9-1.2-7.9-5.6v-30.1h5.5c6.6,0,9.6,3.2,11.6,14.8l2.3,13.1c1.3,7.6,4.6,10.4,10.9,10.4c1.7,0,3.6-0.1,6-1v-1.2
					c-6.2,0.6-8-1.1-9.1-7.7l-2.6-13.9c-1.6-8.8-6.4-13.4-12.5-14.8c6.4-1.1,14-7.6,14-20.4c0-14.8-9.8-18.7-17.9-18.7h-23.5v1.7
					c8,0,8,1.2,8,5.6v62.2c0,4.4,0,5.6-8,5.6V142z M246.4,142h40.7v-13.4h-1.6c-0.5,11.2-5.5,11.5-10,11.5h-7.3
					c-6.6,0-6.7-1-6.7-5.3v-30.4h8.2c4.8,0,7.3,0.6,7.3,10.8h1.6V92.4H277c0,9.6-2.5,10.3-7.3,10.3h-8.2V67.1h13.9
					c4.4,0,9.6,0.6,10.1,13.1h1.7v-15h-40.8v1.7c8,0,8,1.2,8,5.6v62.2c0,4.4,0,5.6-8,5.6L246.4,142L246.4,142z M223.4,143.4
					c10,0,17.6-6.7,17.6-19.6c0-25.3-27.7-22.9-27.7-45.6c0-8.3,3.2-12.7,10.3-12.7s10.8,5.3,13,16.6h2.2l-1.6-12.8
					c-4.4-4.1-8.8-5.5-13.6-5.5c-9.5,0-16.3,5.4-16.3,17.3c0,23.4,27.7,22.8,27.7,45.6c0,10.8-4.3,15-11.5,15
					c-7.7,0-12.2-4.9-14.8-17.8h-2.3l1.4,12.2C212,141.3,218.1,143.4,223.4,143.4 M181,143.4c10,0,17.6-6.7,17.6-19.6
					c0-25.3-27.7-22.9-27.7-45.6c0-8.3,3.2-12.7,10.3-12.7s10.8,5.3,13,16.6h2.2l-1.6-12.8c-4.4-4.1-8.8-5.5-13.6-5.5
					c-9.5,0-16.3,5.4-16.3,17.3c0,23.4,27.7,22.8,27.7,45.6c0,10.8-4.3,15-11.5,15c-7.7,0-12.2-4.9-14.8-17.8h-2.3l1.4,12.2
					C169.6,141.3,175.7,143.4,181,143.4 M115.8,142h40.7v-13.4H155c-0.5,11.2-5.5,11.5-10,11.5h-7.3c-6.6,0-6.7-1-6.7-5.3v-30.4h8.2
					c4.8,0,7.3,0.6,7.3,10.8h1.6V92.4h-1.6c0,9.6-2.5,10.3-7.3,10.3H131V67.1h13.9c4.4,0,9.6,0.6,10.1,13.1h1.7v-15h-40.8v1.7
					c8,0,8,1.2,8,5.6v62.2c0,4.4,0,5.6-8,5.6L115.8,142L115.8,142z M77,102.8V67.1h7.8c5,0,11,2.4,11,17.9
					c0,11.2-3.2,17.8-11.6,17.8C84.2,102.8,77,102.8,77,102.8z M61.7,142h23.2v-1.7c-7.9,0-7.9-1.2-7.9-5.6v-30.1h5.5
					c6.6,0,9.6,3.2,11.6,14.8l2.3,13.1c1.3,7.6,4.6,10.4,10.9,10.4c1.7,0,3.6-0.1,6-1v-1.2c-6.2,0.6-8-1.1-9.1-7.7l-2.6-13.9
					c-1.6-8.8-6.4-13.4-12.5-14.8c6.4-1.1,14-7.6,14-20.4c0-14.8-9.8-18.7-17.9-18.7H61.7v1.7c8,0,8,1.2,8,5.6v62.2
					c0,4.4,0,5.6-8,5.6C61.7,140.3,61.7,142,61.7,142z M31.2,106.5V67h8.3c5.8,0,11.8,4.6,11.8,19.8c0,12.7-4.2,19.7-12.5,19.7
					C38.8,106.5,31.3,106.5,31.2,106.5z M16,142h23.3v-1.7c-8,0-8-1.2-8-5.6v-26.5h8.9c8.3,0,18.4-6.7,18.4-22
					c0-16.2-10.8-21-18.7-21H16v1.7c8,0,8,1.2,8,5.6v62.2c0,4.4,0,5.6-8,5.6C16,140.3,16,142,16,142z"/>
				<path class="st3" d="M577.3,335.3c5.9,0,12.7-1.7,17.3-6.7v-18.5c0-4.3,0-5.5,5.5-5.5v-1.7h-20.3v1.7c7.8,0,7.8,1.2,7.8,5.5
					v19.4c-2.3,2.5-5.4,3.8-9.8,3.8c-11.6,0-17.6-10.1-17.6-39.4c0-24.1,6.1-36.2,16.8-36.2c8,0,13.6,6.5,16.2,17h1.9l-1.6-12
					c-4.1-4.6-10.3-7-16.6-7c-16,0-24.4,16.3-24.4,39.7C552.6,321.4,560.4,335.3,577.3,335.3 M494.9,334H513v-1.7c-8,0-8-1.2-8-5.6
					v-64.3l29.8,71.6h5.8v-69.5c0-4.4,0-5.6,8-5.6v-1.7h-18.2v1.7c8,0,8,1.2,8,5.6v60.8l-28.2-68.2h-15.2v1.7c8,0,8,1.2,8,5.6v62.2
					c0,4.4,0,5.6-8,5.6L494.9,334L494.9,334z M467.4,334h23.3v-1.7c-8,0-8-1.2-8-5.6v-62.2c0-4.4,0-5.6,8-5.6v-1.7h-23.3v1.7
					c8,0,8,1.2,8,5.6v62.2c0,4.4,0,5.6-8,5.6V334z M422.1,264.5l1.8,7.7l-11.5,48.7l-12.6-56.3c-1-4.4-0.6-5.8,5.6-5.8v-1.7h-19.9
					v1.7c4.9,0,6,1.2,7.1,5.8l16.2,70.3h2.3l13.8-58.7l14,58.7h2.3l15.6-70.2c1-4.4,2-5.9,7.2-5.9v-1.7h-15.5v1.7
					c6.8,0,7.2,1.3,6.1,5.9l-12.2,56.5l-13-56.6c-1.1-4.6-0.6-5.8,5.3-5.8v-1.7h-19.3v1.7C420.2,258.9,421.2,260,422.1,264.5
					 M364.5,335.4c10,0,17.6-6.7,17.6-19.6c0-25.3-27.7-22.9-27.7-45.6c0-8.3,3.2-12.7,10.3-12.7s10.8,5.3,13,16.6h2.2l-1.6-12.8
					c-4.4-4.1-8.8-5.5-13.6-5.5c-9.5,0-16.3,5.4-16.3,17.3c0,23.4,27.7,22.8,27.7,45.6c0,10.8-4.3,15-11.5,15
					c-7.7,0-12.2-4.9-14.8-17.8h-2.3l1.4,12.2C353.1,333.3,359.3,335.4,364.5,335.4"/>
				<path class="st3" d="M565.5,238h23.4v-1.7c-8,0-8-1.2-8-5.6v-62.4c0-3.4,0.6-5.5,5.8-5.5h3.8c3.4,0,7,1.7,7.3,13.6h1.7v-15.1
					H555v15.1h1.8c0-11.9,4-13.6,7.2-13.6h3.8c5.2,0,5.9,2.2,5.9,5.5v62.4c0,4.4,0,5.6-8.2,5.6L565.5,238L565.5,238z M524.9,239.4
					c11,0,17.8-5.6,17.8-21.8v-49.1c0-4.4,0-5.6,8-5.6v-1.7h-18.2v1.7c7.9,0,7.9,1.2,7.9,5.6v49.1c0,16.1-6.1,19.3-14,19.3
					s-13.9-3.1-13.9-19.3v-49.1c0-4.4,0-5.6,7.9-5.6v-1.7h-23v1.7c8,0,8,1.2,8,5.6v49.1C505.3,233.1,513.3,239.4,524.9,239.4
					 M474.3,239.3c6.6,0,12.6-2.8,16.7-6.7l1.4-12.4h-2.3c-2,10.6-7.2,17.2-15.4,17.2c-10.1,0-16.7-8.9-16.7-37.4
					s6.7-38.2,16.8-38.2c7.8,0,13.2,6.4,15.2,17.2h2.3l-1.4-12.4c-4.1-4-10.1-6.7-16.4-6.7c-15.8,0-24,14.6-24,40
					S459,239.3,474.3,239.3"/>
				<path class="st2" d="M310.3,624.1L21.6,595l-7.1,250.5h223.7c0,0,39-34.3,56.8-113.3C312.7,653.3,310.3,624.1,310.3,624.1
					L310.3,624.1z"/>
			</g>
		</g>
		<polygon class="st2" points="601.5,845.5 305.6,845.5 317.9,639.7 601.5,664.9 		"/>
		<g>
			<defs>
				<rect id="SVGID_00000131330242140661845780000004435695066274377610_" width="616" height="860"/>
			</defs>
			<clipPath id="SVGID_00000139293076021742878050000013045310702700655520_">
				<use xlink:href="#SVGID_00000131330242140661845780000004435695066274377610_"  style="overflow:visible;"/>
			</clipPath>
			<g style="clip-path:url(#SVGID_00000139293076021742878050000013045310702700655520_);">
				<path class="st3" d="M510.8,103.6c0,23.3,17.6,39.7,39.7,39.7s39.7-16.4,39.7-39.7s-17.8-39.7-39.7-39.7S510.8,80.4,510.8,103.6
					 M543.2,121.5v-1.2c5.4,0,5.5-1,5.5-3.5v-28c-1.8,0.8-4.2,1-6.5,0.7v-1.3c4.1,0.1,6.5-0.8,10-3.7h1.2v32.3
					c0,2.5,0.2,3.5,5.4,3.5v1.2H543.2L543.2,121.5z"/>
				<path class="st3" d="M56.2,313.5v-1.9c9.6-8.9,13-15.1,13-24c0-5-1.2-8.8-4.8-8.8s-5.3,2.8-6,7.1H57c0.7-5,3.1-9.4,8-9.4
					c5.5,0,8.9,4.8,8.9,10.8c0,8-6.4,15.5-14.6,22.9h11.3c2,0,2.8-0.2,2.8-5.3h1.1v8.5L56.2,313.5L56.2,313.5z M28.1,295.6
					c0-21.7,16.6-37.2,37.2-37.2s37.2,15.5,37.2,37.2s-16.6,37.2-37.2,37.2S28.1,317.4,28.1,295.6 M65.3,335.3
					c22,0,39.7-16.4,39.7-39.7s-17.8-39.7-39.7-39.7s-39.7,16.6-39.7,39.7S43.2,335.3,65.3,335.3"/>
				<path class="st3" d="M564.2,795.4c0.6-19.1,4.6-30.5,14.1-30.5c7.7,0,12.7,8.1,12.9,27.6l-5.8,2.9L564.2,795.4L564.2,795.4z
					 M579.5,848.3c10.2,0,16.6-6.4,21.2-18.5L599,829c-3.9,9.5-9.5,13.9-17,13.9c-10.4,0-18-9.7-18-41.3v-4h38
					c0-22.2-8.1-34.9-23-34.9c-18.5,0-26.4,20.7-26.4,42.3C552.6,831.2,562.5,848.3,579.5,848.3 M492.6,807.2
					c0-27.4,7.3-40.7,17.8-40.7c6.8,0,11.4,5,13.5,11.4v56.5c-2.5,6.6-8.1,9.5-13.9,9.5C498.4,843.9,492.6,831.9,492.6,807.2
					 M506.5,848.1c7.3,0,14.1-3.3,17.4-10.8v8.7h22v-2.3c-10.8,0-10.8-1.3-10.8-7.9V722.5h-22v2.3c10.8,0,10.8,1.3,10.8,7.9v40.1
					c-2.3-5.6-7.9-10-16-10c-15.8,0-26.4,18.1-26.4,44.4C481.4,830.2,490.5,848.1,506.5,848.1 M425.5,802.8
					c0-26.2,6.6-37.2,16.2-37.2c11.2,0,17.4,15.4,17.4,42.3s-6.6,37.6-16,37.6C431.6,845.4,425.5,829.8,425.5,802.8 M442.2,848.1
					c16.8,0,28-16.2,28-42.7s-11.4-42.7-28-42.7s-28,16.2-28,42.7S425.4,848.1,442.2,848.1 M340.9,846h31.3v-2.3
					c-9.5,0-9.5-1.3-9.5-7.9V801h5.8l16,33.4c3.7,7.7,1.9,9.3-5.2,9.3v2.3h31.9v-2.3c-8.1,0-11-1.5-13.9-7.7l-18.7-38.8l15.4-24.1
					c3.1-4.6,6.8-5.8,12.4-5.8v-2.3h-23.2v2.3c6,0,10.4,1.2,7.7,5.4l-15,23.9h-13.1v-74.1h-21.8v2.3c10.6,0,10.6,1.3,10.6,7.9v103.1
					c0,6.6,0,7.9-10.6,7.9L340.9,846L340.9,846z M310.2,741.2c0,5,3.9,8.3,8.3,8.3s8.3-3.3,8.3-8.3s-3.9-8.3-8.3-8.3
					S310.2,736,310.2,741.2 M303.3,846h32.6v-2.3c-10.8,0-10.8-1.3-10.8-7.9v-70.8h-21.8v2.3c10.6,0,10.6,1.3,10.6,7.9v60.6
					c0,6.6,0,7.9-10.6,7.9V846L303.3,846z M226.3,846h31.1v-2.3c-9.3,0-9.3-1.3-9.3-7.9V785c3.3-12,8.9-17.8,17-17.8
					c7.5,0,11.2,5.2,11.2,19.5v49c0,6.6,0,7.9-9.3,7.9v2.3h31.1v-2.3c-10.8,0-10.8-1.3-10.8-7.9v-50.2c0-15.8-7.1-22.8-18.5-22.8
					c-10.4,0-16.6,5.8-20.6,15.2v-55.6h-21.8v2.3c10.6,0,10.6,1.3,10.6,7.9v103.1c0,6.6,0,7.9-10.6,7.9L226.3,846L226.3,846z
					 M170.1,846h48.8v-26.2h-2.5c0,14.9-3.9,23.7-11,23.7h-23.7l36.7-76v-2.5H172v23.2h2.3c0-14.3,3.9-20.7,10.8-20.7h21.6
					l-36.7,76.2L170.1,846L170.1,846z M116.7,802.8c0-26.2,6.6-37.2,16.2-37.2c11.2,0,17.4,15.4,17.4,42.3s-6.6,37.6-16,37.6
					C122.8,845.4,116.7,829.8,116.7,802.8 M133.4,848.1c16.8,0,28-16.2,28-42.7s-11.4-42.7-28-42.7s-28,16.2-28,42.7
					S116.7,848.1,133.4,848.1 M64.6,843.3v2.7h38.2v-2.7c-7.3,0-12.5-0.6-15.8-7.3l-29.3-60l23.5-44.6c3.3-6,7.3-6.2,15.2-6.2v-2.7
					H69.8v2.7c7.7,0,10.8,0.4,7.9,5.2l-24.9,46.9H38.9v-43c0-7.1,0-9.1,12.7-9.1v-2.7h-37v2.7c12.9,0,12.9,1.9,12.9,9.1v100
					c0,7.1,0,9.1-12.9,9.1v2.7h36.9v-2.7c-12.5,0-12.5-1.9-12.5-9.1v-53.1h8.7l25.3,53.3C76.5,842.5,75.4,843.3,64.6,843.3"/>
				<path class="st3" d="M512.9,43.8h3.7v-0.3c-1.2,0-1.2-0.2-1.2-0.8v-4.3c0.4-1.1,1.2-2,2.3-2c1,0,1.5,0.8,1.5,2.3v3.9
					c0,0.7,0,0.8-1.2,0.8v0.3h3.7v-0.3c-1.2,0-1.2-0.2-1.2-0.8v-4c0-1.6-0.9-2.6-2.4-2.6c-1.3,0-2.1,0.7-2.8,1.8v-5.6h-2.6v0.3
					c1.2,0,1.2,0.2,1.2,0.8v9.3c0,0.7,0,0.8-1.2,0.8L512.9,43.8L512.9,43.8z M510.5,44c0.8,0,1.2-0.4,1.5-1l-0.2-0.1
					c-0.3,0.5-0.6,0.7-1,0.7c-0.7,0-0.8-0.6-0.8-1.6v-5.4l2.2-0.2v-0.2h-2.2v-1.8h-0.2l-1.2,1v0.8h-1.3v0.4h1.3v5.3
					C508.7,43.3,509.4,44,510.5,44 M499.6,40c0-2.7,1.3-3.7,2.6-3.7c0.9,0,1.6,0.5,2,1.3v4.9c-0.4,0.5-1.1,1-2.2,1
					C500.5,43.6,499.6,42.2,499.6,40 M501.7,44c1.1,0,2-0.5,2.5-1.2v1h2.6v-0.3c-1.2,0-1.2-0.2-1.2-0.8V32.2H503v0.3
					c1.2,0,1.2,0.2,1.2,0.8v3.8c-0.4-0.7-1.1-1.2-2.3-1.2c-2.1,0-3.7,1.7-3.7,4.1S499.8,44,501.7,44 M494.4,33.9
					c0,0.6,0.5,0.9,1,0.9s1-0.4,1-0.9c0-0.6-0.5-1-1-1S494.4,33.3,494.4,33.9 M493.5,43.8h3.7v-0.3c-1.2,0-1.2-0.2-1.2-0.8v-6.4
					h-2.6v0.3c1.2,0,1.2,0.2,1.2,0.8v5.3c0,0.7,0,0.8-1.2,0.8L493.5,43.8L493.5,43.8z M486.1,37.2L486.1,37.2l-1.9,5.3l-1.8-5.3
					c-0.2-0.6-0.2-0.7,0.9-0.7v-0.3h-3.8v0.3c1.1,0,1.3,0.2,1.5,0.7l2.5,6.8h0.4l2.3-6.3l2.4,6.3h0.5l2.5-6.8
					c0.2-0.6,0.4-0.7,1.3-0.7v-0.3h-2.8v0.3c1.4,0,1.4,0.1,1.2,0.7l-1.9,5.3l-1.8-5.3c-0.2-0.6-0.2-0.7,0.7-0.7v-0.3H485v0.3
					C485.8,36.5,485.9,36.6,486.1,37.2 M469.6,44c2.5,0,4.2-1.5,4.2-4s-1.8-3.5-3.7-3.5c-1.4,0-2.3,0.5-3,1l0.6-3.9h5.4v-2.4h-0.3
					c0,1.1-0.5,1.1-1,1.1h-4.3l-0.9,5.6l0.6,0.7c0.5-0.5,1.5-0.9,2.6-0.9c1.6,0,2.7,0.8,2.7,2.8c0,1.9-1,3.2-2.7,3.2
					c-1.1,0-1.7-0.5-2.2-1.1c-0.5-0.7-0.5-1.2-1-1.2c-0.4,0-0.6,0.3-0.6,0.7C466,43.2,467.7,44,469.6,44 M457.3,43.8h1.4l4.4-10.9
					v-0.6h-7v2.7h0.3c0-1.3,0.5-1.3,1-1.3h5L457.3,43.8L457.3,43.8z M441.5,32.6H441v8h6.8l-2.3,2.5l0.2,0.1l3.6-2.8l-3.6-2.8
					l-0.2,0.1l2.3,2.5h-6.4V32.6L441.5,32.6z"/>
				<path class="st3" d="M537.3,28c0.8,0,1.2-0.4,1.5-1l-0.2-0.1c-0.3,0.5-0.6,0.7-1,0.7c-0.7,0-0.8-0.6-0.8-1.6v-5.4l2.2-0.2v-0.2
					h-2.2v-1.8h-0.2l-1.2,1v0.8h-1.3v0.4h1.3v5.3C535.5,27.3,536.2,28,537.3,28 M524.9,27.8h3.7v-0.3c-1.2,0-1.2-0.2-1.2-0.8v-4.3
					c0.4-1.1,1.2-2,2.3-2c1,0,1.5,0.8,1.5,2.3v3.9c0,0.6,0,0.8-1.2,0.8v0.3h3.7v-0.3c-1.2,0-1.2-0.2-1.2-0.8v-4.1
					c0-1.6-0.9-2.6-2.4-2.6c-1.3,0-2.1,0.6-2.8,1.9v-5.6h-2.6v0.3c1.2,0,1.2,0.2,1.2,0.8v9.3c0,0.6,0,0.8-1.2,0.8L524.9,27.8
					L524.9,27.8z M518,22.5c0-1.6,0.8-2.3,1.8-2.3s1.9,0.7,1.9,2.4s-0.8,2.3-1.8,2.3C518.9,24.9,518,24.1,518,22.5 M517.3,29.7
					c0-0.9,0.5-1.6,1.8-1.9c0.1,0,0.2,0,0.3,0l1.2,0c0.7,0,2.3,0.1,2.3,1.6c0,1.3-1.2,2.1-3,2.1S517.3,30.8,517.3,29.7 M519.6,31.8
					c2.1,0,4.4-0.8,4.4-2.9c0-1.5-1.2-2.1-3.2-2.2l-1.2,0c-1.1,0-1.8-0.1-1.8-0.7c0-0.5,0.6-0.7,1.2-0.8c0.2,0,0.5,0,0.7,0
					c1.8,0,3.1-1.2,3.1-2.7c0-0.7-0.3-1.3-0.8-1.8h2l0-0.5h-0.9l-1.5,0.2c-0.5-0.3-1.1-0.5-1.8-0.5c-2,0-3,1.4-3,2.7
					c0,1.1,0.7,2,1.8,2.4c-1.2,0.3-1.8,0.8-1.8,1.4s0.6,1.1,1.8,1.3c-1.2,0.2-2.7,0.9-2.7,2C515.9,31.1,517.8,31.7,519.6,31.8
					 M512.4,17.9c0,0.6,0.5,0.9,1,0.9s1-0.4,1-0.9c0-0.6-0.5-1-1-1S512.4,17.3,512.4,17.9 M511.6,27.8h3.7v-0.3
					c-1.2,0-1.2-0.2-1.2-0.8v-6.4h-2.6v0.3c1.2,0,1.2,0.2,1.2,0.8v5.3c0,0.6,0,0.8-1.2,0.8L511.6,27.8L511.6,27.8z M505.1,23
					c0.1-1.7,0.8-2.8,2.3-2.8c1.1,0,2,0.6,2,2.6l-0.5,0.2H505.1L505.1,23z M507.5,28c1.3,0,2.2-0.6,2.9-1.6l-0.2-0.1
					c-0.6,0.9-1.4,1.1-2.4,1.1c-1.2,0-2.7-0.5-2.7-3.6c0-0.2,0-0.3,0-0.5h5.6c0-2-1.4-3.3-3.2-3.3c-2.3,0-3.8,1.9-3.8,4.2
					S505.3,28,507.5,28 M496.5,21.2L496.5,21.2l-1.9,5.3l-1.8-5.3c-0.2-0.6-0.2-0.7,0.9-0.7v-0.3h-3.8v0.3c1.1,0,1.3,0.2,1.5,0.7
					l2.5,6.8h0.4l2.3-6.3L499,28h0.5l2.5-6.8c0.2-0.6,0.4-0.7,1.3-0.7v-0.3h-2.8v0.3c1.4,0,1.4,0.1,1.2,0.7l-1.9,5.3l-1.8-5.3
					c-0.2-0.6-0.2-0.7,0.7-0.7v-0.3h-3.2v0.3C496.1,20.5,496.2,20.6,496.5,21.2 M478.3,26.4l3.9-8.5c0.5,1.1,0.7,2.5,0.7,4.1
					c0,3.1-0.8,5.7-2.7,5.7C479.4,27.7,478.8,27.2,478.3,26.4 M477.5,22c0-3.1,0.8-5.7,2.7-5.7c0.8,0,1.4,0.5,1.8,1.2l-3.9,8.5
					C477.7,25,477.5,23.5,477.5,22 M480.2,28c2.2,0,4.1-2.4,4.1-6s-1.9-6-4.1-6s-4.1,2.4-4.1,6S478,28,480.2,28 M468,26.4l3.9-8.5
					c0.5,1.1,0.7,2.5,0.7,4.1c0,3.1-0.8,5.7-2.7,5.7C469,27.7,468.4,27.2,468,26.4 M467.1,22c0-3.1,0.8-5.7,2.7-5.7
					c0.8,0,1.4,0.5,1.8,1.2l-3.9,8.5C467.3,25,467.1,23.5,467.1,22 M469.9,28c2.2,0,4.1-2.4,4.1-6s-1.9-6-4.1-6s-4.1,2.4-4.1,6
					S467.6,28,469.9,28 M455.7,27.1v0.7h7.7v-2.9h-0.3c0,1.2-0.2,1.7-0.9,1.7H457c3.2-2.4,6.1-4.6,6.1-7.3c0-2.1-1.8-3.2-3.7-3.2
					c-2.1,0-3.1,1.4-3.6,3l0.2,0c0.4-1.4,1.4-2.6,3.2-2.6c1.9,0,2.5,1.4,2.5,2.9C461.8,22.4,459.7,24.1,455.7,27.1 M441.5,16.6H441
					v8h6.8l-2.3,2.5l0.2,0.1l3.6-2.8l-3.6-2.8l-0.2,0.1l2.3,2.5h-6.4V16.6L441.5,16.6z"/>
			</g>
		</g>
	</g>
</g>
<g>
	<path class="st3" d="M109.3,40.9c0,1.2-0.2,1.7-0.9,1.7h-5.2c3.2-2.4,6.1-4.6,6.1-7.3c0-2.1-1.8-3.2-3.7-3.2c-2.1,0-3.1,1.4-3.6,3
		l0.2,0c0.4-1.4,1.4-2.6,3.2-2.6c1.9,0,2.5,1.4,2.5,2.9c0,3-2.1,4.8-6.1,7.8v0.7h7.7v-2.9H109.3z"/>
	<path class="st3" d="M96.4,32c-2.2,0-4.1,2.4-4.1,6s1.9,6,4.1,6s4.1-2.4,4.1-6S98.7,32,96.4,32z M93.7,38L93.7,38
		c0-3.1,0.8-5.7,2.7-5.7c0.8,0,1.4,0.5,1.8,1.2L94.4,42C93.9,41,93.7,39.5,93.7,38z M96.4,43.7c-0.8,0-1.4-0.5-1.9-1.3l0,0l3.9-8.5
		c0.5,1.1,0.7,2.5,0.7,4.1C99.2,41.1,98.3,43.7,96.4,43.7z"/>
</g>
</svg>
