<?xml version="1.0" encoding="UTF-8"?>
<svg id="Calque_1" data-name="Calque 1" xmlns="http://www.w3.org/2000/svg" xmlns:xlink="http://www.w3.org/1999/xlink" viewBox="0 0 616 860">
  <defs>
    <style>
      .cls-1 {
        clip-path: url(#clippath);
      }

      .cls-2, .cls-3 {
        fill: none;
      }

      .cls-2, .cls-4 {
        stroke-width: 0px;
      }

      .cls-5 {
        clip-path: url(#clippath-1);
      }

      .cls-6 {
        clip-path: url(#clippath-2);
      }

      .cls-3 {
        stroke: #fff;
      }

      .cls-4 {
        fill: #fff;
      }
    </style>
    <clipPath id="clippath">
      <rect class="cls-2" width="616" height="860"/>
    </clipPath>
    <clipPath id="clippath-1">
      <rect class="cls-2" width="616" height="860"/>
    </clipPath>
    <clipPath id="clippath-2">
      <rect class="cls-2" width="616" height="860"/>
    </clipPath>
  </defs>
  <g class="cls-1">
    <g class="cls-5">
      <path class="cls-4" d="M181.64,238h23.4v-1.68c-8.04,0-8.04-1.2-8.04-5.64v-62.4c0-3.36.6-5.52,5.76-5.52h3.84c3.36,0,6.96,1.68,7.32,13.56h1.68v-15.12h-44.52v15.12h1.8c0-11.88,3.96-13.56,7.2-13.56h3.84c5.16,0,5.88,2.16,5.88,5.52v62.4c0,4.44,0,5.64-8.16,5.64v1.68ZM125.84,198.88c0-27,5.76-37.08,15.96-37.08,11.64,0,16.32,13.08,16.32,38.4,0,27-5.64,37.2-15.84,37.2-11.64,0-16.44-13.08-16.44-38.52M141.92,239.32c13.68,0,23.76-13.08,23.76-39.48,0-27.84-10.32-39.96-23.64-39.96s-23.64,12.84-23.64,39.48,10.2,39.96,23.52,39.96M70.16,198.88c0-27,5.76-37.08,15.96-37.08,11.64,0,16.32,13.08,16.32,38.4,0,27-5.64,37.2-15.84,37.2-11.64,0-16.44-13.08-16.44-38.52M86.24,239.32c13.68,0,23.76-13.08,23.76-39.48,0-27.84-10.32-39.96-23.64-39.96s-23.64,12.84-23.64,39.48,10.2,39.96,23.52,39.96M16.16,238h26.28v-1.68c-11.16,0-11.16-1.2-11.16-5.64v-30.12h8.4c4.2,0,7.08.6,7.08,10.68h1.68v-22.8h-1.68c0,9.6-2.88,10.2-7.08,10.2h-8.4v-35.64h14.16c4.32,0,9.48.72,9.84,12.84h1.56v-14.64H16.16v1.68c8.04,0,8.04,1.2,8.04,5.64v62.16c0,4.44,0,5.64-8.04,5.64v1.68Z"/>
      <path class="cls-4" d="M308.24,102.76v-35.64h7.8c5.04,0,11.04,2.4,11.04,17.88,0,11.16-3.24,17.76-11.64,17.76h-7.2ZM293,142h23.16v-1.68c-7.92,0-7.92-1.2-7.92-5.64v-30.12h5.52c6.6,0,9.6,3.24,11.64,14.76l2.28,13.08c1.32,7.56,4.56,10.44,10.92,10.44,1.68,0,3.6-.12,6-.96v-1.2c-6.24.6-8.04-1.08-9.12-7.68l-2.64-13.92c-1.56-8.76-6.36-13.44-12.48-14.76,6.36-1.08,14.04-7.56,14.04-20.4,0-14.76-9.84-18.72-17.88-18.72h-23.52v1.68c8.04,0,8.04,1.2,8.04,5.64v62.16c0,4.44,0,5.64-8.04,5.64v1.68ZM246.56,142h40.68v-13.44h-1.56c-.48,11.16-5.52,11.52-9.96,11.52h-7.32c-6.6,0-6.72-.96-6.72-5.28v-30.36h8.16c4.8,0,7.32.6,7.32,10.8h1.56v-22.8h-1.56c0,9.6-2.52,10.32-7.32,10.32h-8.16v-35.64h13.92c4.44,0,9.6.6,10.08,13.08h1.68v-15h-40.8v1.68c8.04,0,8.04,1.2,8.04,5.64v62.16c0,4.44,0,5.64-8.04,5.64v1.68ZM223.52,143.44c9.96,0,17.64-6.72,17.64-19.56,0-25.32-27.72-22.92-27.72-45.6,0-8.28,3.24-12.72,10.32-12.72s10.8,5.28,12.96,16.56h2.16l-1.56-12.84c-4.44-4.08-8.76-5.52-13.56-5.52-9.48,0-16.32,5.4-16.32,17.28,0,23.4,27.72,22.8,27.72,45.6,0,10.8-4.32,15-11.52,15-7.68,0-12.24-4.92-14.76-17.76h-2.28l1.44,12.24c4.08,5.16,10.2,7.32,15.48,7.32M181.16,143.44c9.96,0,17.64-6.72,17.64-19.56,0-25.32-27.72-22.92-27.72-45.6,0-8.28,3.24-12.72,10.32-12.72s10.8,5.28,12.96,16.56h2.16l-1.56-12.84c-4.44-4.08-8.76-5.52-13.56-5.52-9.48,0-16.32,5.4-16.32,17.28,0,23.4,27.72,22.8,27.72,45.6,0,10.8-4.32,15-11.52,15-7.68,0-12.24-4.92-14.76-17.76h-2.28l1.44,12.24c4.08,5.16,10.2,7.32,15.48,7.32M116,142h40.68v-13.44h-1.56c-.48,11.16-5.52,11.52-9.96,11.52h-7.32c-6.6,0-6.72-.96-6.72-5.28v-30.36h8.16c4.8,0,7.32.6,7.32,10.8h1.56v-22.8h-1.56c0,9.6-2.52,10.32-7.32,10.32h-8.16v-35.64h13.92c4.44,0,9.6.6,10.08,13.08h1.68v-15h-40.8v1.68c8.04,0,8.04,1.2,8.04,5.64v62.16c0,4.44,0,5.64-8.04,5.64v1.68ZM77.12,102.76v-35.64h7.8c5.04,0,11.04,2.4,11.04,17.88,0,11.16-3.24,17.76-11.64,17.76h-7.2ZM61.88,142h23.16v-1.68c-7.92,0-7.92-1.2-7.92-5.64v-30.12h5.52c6.6,0,9.6,3.24,11.64,14.76l2.28,13.08c1.32,7.56,4.56,10.44,10.92,10.44,1.68,0,3.6-.12,6-.96v-1.2c-6.24.6-8.04-1.08-9.12-7.68l-2.64-13.92c-1.56-8.76-6.36-13.44-12.48-14.76,6.36-1.08,14.04-7.56,14.04-20.4,0-14.76-9.84-18.72-17.88-18.72h-23.52v1.68c8.04,0,8.04,1.2,8.04,5.64v62.16c0,4.44,0,5.64-8.04,5.64v1.68ZM31.4,106.48v-39.48h8.28c5.76,0,11.76,4.56,11.76,19.8,0,12.72-4.2,19.68-12.48,19.68h-7.56ZM16.16,142h23.28v-1.68c-8.04,0-8.04-1.2-8.04-5.64v-26.52h8.88c8.28,0,18.36-6.72,18.36-21.96,0-16.2-10.8-21-18.72-21h-23.76v1.68c8.04,0,8.04,1.2,8.04,5.64v62.16c0,4.44,0,5.64-8.04,5.64v1.68Z"/>
      <path class="cls-4" d="M101.91,43.09v.67h7.72v-2.88h-.29c0,1.19-.22,1.66-.9,1.66h-5.17c3.22-2.36,6.12-4.63,6.12-7.31,0-2.12-1.84-3.2-3.71-3.2-2.09,0-3.11,1.35-3.58,2.97l.22.05c.38-1.39,1.39-2.59,3.19-2.59,1.93,0,2.48,1.37,2.48,2.88,0,3.04-2.07,4.77-6.08,7.76M94.55,42.43l3.94-8.53c.47,1.06.68,2.52.68,4.1,0,3.08-.83,5.72-2.74,5.72-.83,0-1.44-.49-1.89-1.3M93.7,38c0-3.08.83-5.72,2.74-5.72.79,0,1.4.47,1.84,1.22l-3.92,8.5c-.45-1.04-.65-2.47-.65-4M96.44,43.98c2.23,0,4.14-2.38,4.14-5.98s-1.91-5.98-4.14-5.98-4.14,2.38-4.14,5.98,1.91,5.98,4.14,5.98M77.81,43.76h3.74v-.29c-1.19,0-1.19-.18-1.19-.83v-4.27c.41-1.06,1.17-1.96,2.3-1.96,1.04,0,1.53.76,1.53,2.3v3.92c0,.65,0,.83-1.19.83v.29h3.74v-.29c-1.19,0-1.19-.18-1.19-.83v-4.05c0-1.6-.9-2.61-2.43-2.61-1.3,0-2.12.65-2.77,1.85v-1.64h-2.56v.29c1.19,0,1.19.18,1.19.83v5.33c0,.65,0,.83-1.19.83v.29ZM70.72,42c0-1.37.77-2.05,3.28-2.09v2.48c-.43.85-1.17,1.15-1.91,1.15-.86,0-1.37-.49-1.37-1.55M75.51,43.98c.77,0,1.06-.38,1.33-.83l-.18-.13c-.22.36-.45.58-.77.58-.41,0-.52-.36-.52-1.15v-4.19c0-1.49-1.1-2.27-2.66-2.27s-2.9.77-2.9,1.91c0,.54.25.85.72.85s.72-.38.72-.88c0-1.06.25-1.58,1.3-1.58,1.46,0,1.46,1.01,1.46,2.16v1.15c-2.54.04-4.64.67-4.64,2.43,0,1.33,1.19,1.96,2.47,1.96s1.84-.58,2.18-1.24c.07.86.74,1.24,1.51,1.24M64.63,43.76h3.74v-.29c-1.19,0-1.19-.18-1.19-.83v-10.4h-2.56v.29c1.19,0,1.19.18,1.19.83v9.29c0,.65,0,.83-1.19.83v.29ZM57.69,42.28v-4.84c.38-.52,1.15-1.06,2.18-1.06,1.58,0,2.43,1.35,2.43,3.55,0,2.7-1.28,3.65-2.54,3.65-1.01,0-1.69-.63-2.07-1.3M55.13,47.54h4.1v-.29c-1.55,0-1.55-.18-1.55-.83v-3.71c.4.65,1.19,1.26,2.36,1.26,2,0,3.62-1.73,3.62-4.14s-1.53-3.85-3.46-3.85c-1.08,0-2.02.49-2.52,1.21v-.99h-2.56v.29c1.19,0,1.19.18,1.19.83v9.11c0,.65,0,.83-1.19.83v.29ZM45.97,43.76h3.74v-.29c-1.19,0-1.19-.18-1.19-.83v-3.1h.5l2.09,3.1c.5.74.2.83-.68.83v.29h3.82v-.29c-.85,0-1.06-.13-1.44-.68l-2.32-3.49,2.03-2.3c.41-.47,1.01-.5,1.4-.5v-.29h-2.45v.29c.68,0,1.08.07.77.43l-1.96,2.2h-1.76v-6.88h-2.56v.29c1.19,0,1.19.18,1.19.83v9.29c0,.65,0,.83-1.19.83v.29ZM39.45,43.76h3.74v-.29c-1.19,0-1.19-.18-1.19-.83v-4.36c.29-.94.54-1.66,1.31-1.66,1.01,0,.59,1.26,1.55,1.26.41,0,.7-.25.7-.76,0-.65-.5-1.15-1.46-1.15-1.17,0-1.76.72-2.11,1.66v-1.44h-2.56v.29c1.19,0,1.19.18,1.19.83v5.33c0,.65,0,.83-1.19.83v.29ZM32,39.85c0-2.54,1.1-3.51,2.5-3.51,1.51,0,2.61,1.12,2.61,3.65s-1.1,3.62-2.5,3.62c-1.51,0-2.61-1.22-2.61-3.76M34.56,43.98c1.96,0,3.92-1.4,3.92-4s-1.96-4-3.92-4-3.92,1.4-3.92,4,1.96,4,3.92,4M22.19,33.28l.29.85-2.72,7.94-2.68-8.78c-.16-.56-.14-.72,1.08-.72v-.32h-3.85v.32c1.12,0,1.19.14,1.37.72l3.37,10.69h.43l3.19-9.25,3.04,9.25h.43l3.37-10.69c.18-.56.23-.72,1.49-.72v-.32h-2.88v.32c1.15,0,1.17.16.99.72l-2.72,8.69-2.75-8.69c-.18-.56-.18-.72.9-.72v-.32h-3.73v.32c1.12,0,1.19.14,1.39.72"/>
      <path class="cls-4" d="M95.09,27.98c.83,0,1.17-.4,1.49-.97l-.18-.11c-.27.5-.59.7-.99.7-.67,0-.77-.58-.77-1.6v-5.44l2.16-.18v-.18h-2.16v-1.84h-.18l-1.19,1.01v.83h-1.33v.36h1.33v5.33c0,1.4.68,2.09,1.82,2.09M86.18,27.98c1.37,0,2.34-.77,2.77-1.93v1.71h2.56v-.29c-1.19,0-1.19-.18-1.19-.83v-6.44h-2.56v.29c1.19,0,1.19.18,1.19.83v4.27c-.41,1.06-1.04,1.96-2.21,1.96s-1.62-.79-1.62-2.48v-4.86h-2.56v.29c1.19,0,1.19.18,1.19.83v3.87c0,1.71.88,2.79,2.43,2.79M78.85,27.98c1.13,0,2.11-.4,2.9-1.58l-.22-.16c-.67.92-1.48,1.17-2.27,1.17-1.55,0-2.7-.95-2.7-3.51,0-2.38.99-3.62,2.56-3.62.81,0,.92.4,1.06,1.13.07.4.31.74.77.74.36,0,.65-.22.65-.67,0-.9-1.08-1.49-2.39-1.49-2.16,0-4.01,1.53-4.01,4.16,0,2.25,1.35,3.83,3.65,3.83M71.31,17.9c0,.56.45.94.95.94s.95-.38.95-.94c0-.61-.45-.95-.95-.95s-.95.32-.95.95M70.48,27.76h3.74v-.29c-1.19,0-1.19-.18-1.19-.83v-6.44h-2.56v.29c1.19,0,1.19.18,1.19.83v5.33c0,.65,0,.83-1.19.83v.29ZM65.95,27.76h3.74v-.29c-1.19,0-1.19-.18-1.19-.83v-10.4h-2.56v.29c1.19,0,1.19.18,1.19.83v9.29c0,.65,0,.83-1.19.83v.29ZM58.85,26c0-1.37.77-2.05,3.28-2.09v2.48c-.43.85-1.17,1.15-1.91,1.15-.86,0-1.37-.49-1.37-1.55M63.64,27.98c.77,0,1.06-.38,1.33-.83l-.18-.13c-.22.36-.45.58-.77.58-.41,0-.52-.36-.52-1.15v-4.19c0-1.49-1.1-2.27-2.66-2.27s-2.9.77-2.9,1.91c0,.54.25.85.72.85s.72-.38.72-.88c0-1.06.25-1.58,1.3-1.58,1.46,0,1.46,1.01,1.46,2.16v1.15c-2.54.04-4.64.67-4.64,2.43,0,1.33,1.19,1.96,2.47,1.96s1.84-.58,2.18-1.24c.07.86.74,1.24,1.51,1.24M51.48,27.98c1.48,0,3.2-.41,4.28-1.21l.22-1.91h-.43c-.45,1.69-1.96,2.79-4.07,2.79-2.75,0-4.79-1.85-4.79-5.47s2.09-5.83,4.84-5.83c1.89,0,3.55,1.01,4.01,2.79h.43l-.22-1.91c-1.08-.79-2.83-1.21-4.21-1.21-3.65,0-6.35,2.79-6.35,6.17s2.72,5.78,6.28,5.78M30.74,27.76h5.29v-.32c-2.16,0-2.16-.18-2.16-.9v-4.37h2.32c.59,0,1.33.14,1.33,1.53h.29v-3.31h-.29c0,1.31-.74,1.48-1.33,1.48h-2.32v-5.33h3.91c.61,0,1.51,0,1.69,2.02h.25v-2.3h-8.98v.32c1.73,0,1.73.18,1.73.9v9.07c0,.72,0,.9-1.73.9v.32ZM14.58,27.76h3.82v-.32c-1.73,0-1.73-.18-1.73-.9v-9.47l4.95,10.69h.11l4.73-10.8v9.58c0,.72,0,.9-1.73.9v.32h4.86v-.32c-1.73,0-1.73-.18-1.73-.9v-9.07c0-.72,0-.9,1.73-.9v-.32h-3.2l-4.23,9.56-4.28-9.56h-3.29v.32c1.73,0,1.73.18,1.73.9v9.07c0,.72,0,.9-1.73.9v.32Z"/>
      <path class="cls-4" d="M512.93,43.76h3.74v-.29c-1.19,0-1.19-.18-1.19-.83v-4.27c.41-1.06,1.17-1.96,2.3-1.96,1.04,0,1.53.76,1.53,2.3v3.92c0,.65,0,.83-1.19.83v.29h3.74v-.29c-1.19,0-1.19-.18-1.19-.83v-4.05c0-1.6-.9-2.61-2.43-2.61-1.3,0-2.12.65-2.77,1.85v-5.6h-2.56v.29c1.19,0,1.19.18,1.19.83v9.29c0,.65,0,.83-1.19.83v.29ZM510.55,43.98c.83,0,1.17-.4,1.49-.97l-.18-.11c-.27.5-.59.7-.99.7-.67,0-.77-.58-.77-1.6v-5.44l2.16-.18v-.18h-2.16v-1.84h-.18l-1.19,1.01v.83h-1.33v.36h1.33v5.33c0,1.4.68,2.09,1.82,2.09M499.63,40.03c0-2.7,1.26-3.65,2.59-3.65.94,0,1.62.49,2.02,1.26v4.9c-.4.52-1.15,1.04-2.18,1.04-1.58,0-2.43-1.35-2.43-3.55M501.71,43.98c1.06,0,2.02-.49,2.52-1.19v.97h2.56v-.29c-1.19,0-1.19-.18-1.19-.83v-10.4h-2.56v.29c1.19,0,1.19.18,1.19.83v3.85c-.38-.7-1.15-1.22-2.29-1.22-2.11,0-3.69,1.73-3.69,4.14s1.53,3.85,3.46,3.85M494.37,33.9c0,.56.45.94.95.94s.95-.38.95-.94c0-.61-.45-.95-.95-.95s-.95.32-.95.95M493.54,43.76h3.74v-.29c-1.19,0-1.19-.18-1.19-.83v-6.44h-2.56v.29c1.19,0,1.19.18,1.19.83v5.33c0,.65,0,.83-1.19.83v.29ZM486.15,37.21l.02.04-1.89,5.22-1.8-5.26c-.22-.61-.25-.72.9-.72v-.29h-3.78v.29c1.12,0,1.26.16,1.48.72l2.5,6.77h.43l2.3-6.32,2.36,6.32h.45l2.5-6.77c.22-.58.38-.72,1.31-.72v-.29h-2.79v.29c1.39,0,1.4.07,1.17.72l-1.93,5.29-1.84-5.29c-.22-.61-.23-.72.72-.72v-.29h-3.24v.29c.79,0,.88.11,1.12.72M469.57,43.98c2.48,0,4.18-1.49,4.18-4.05s-1.76-3.49-3.67-3.49c-1.4,0-2.3.52-2.95,1.04l.61-3.91h5.38v-2.39h-.29c0,1.06-.54,1.06-1.04,1.06h-4.28l-.88,5.56.59.72c.54-.47,1.53-.86,2.57-.86,1.57,0,2.7.77,2.7,2.83,0,1.94-1.04,3.19-2.7,3.19-1.06,0-1.73-.5-2.16-1.13-.45-.67-.45-1.21-1.01-1.21-.41,0-.58.31-.58.67,0,1.17,1.71,1.98,3.53,1.98M457.27,43.76h1.4l4.39-10.91v-.61h-6.97v2.68h.32c0-1.35.54-1.35,1.04-1.35h4.95l-5.15,10.19ZM441.49,32.62h-.47v7.99h6.82l-2.27,2.52.18.11,3.56-2.84-3.56-2.84-.18.11,2.27,2.52h-6.35v-7.56Z"/>
      <path class="cls-4" d="M537.3,27.98c.83,0,1.17-.4,1.49-.97l-.18-.11c-.27.5-.59.7-.99.7-.67,0-.77-.58-.77-1.6v-5.44l2.16-.18v-.18h-2.16v-1.84h-.18l-1.19,1.01v.83h-1.33v.36h1.33v5.33c0,1.4.68,2.09,1.82,2.09M524.9,27.76h3.74v-.29c-1.19,0-1.19-.18-1.19-.83v-4.27c.41-1.06,1.17-1.96,2.3-1.96,1.04,0,1.53.76,1.53,2.3v3.92c0,.65,0,.83-1.19.83v.29h3.74v-.29c-1.19,0-1.19-.18-1.19-.83v-4.05c0-1.6-.9-2.61-2.43-2.61-1.3,0-2.12.65-2.77,1.85v-5.6h-2.56v.29c1.19,0,1.19.18,1.19.83v9.29c0,.65,0,.83-1.19.83v.29ZM517.99,22.5c0-1.62.85-2.27,1.84-2.27s1.87.74,1.87,2.38-.81,2.32-1.8,2.32c-1.04,0-1.91-.79-1.91-2.43M517.3,29.69c0-.92.54-1.57,1.8-1.94.09.02.18.02.27.02l1.15.04c.74.02,2.29.09,2.29,1.62,0,1.33-1.17,2.09-2.99,2.09s-2.52-.74-2.52-1.82M519.62,31.76c2.11,0,4.37-.79,4.37-2.88,0-1.48-1.19-2.11-3.19-2.2l-1.17-.05c-1.08-.05-1.78-.13-1.78-.67,0-.45.63-.7,1.22-.83.23.04.47.05.7.05,1.85,0,3.11-1.24,3.11-2.68,0-.7-.31-1.31-.81-1.76h2.02l-.05-.54h-.88l-1.51.23c-.5-.29-1.12-.45-1.82-.45-2.03,0-3.04,1.37-3.04,2.66,0,1.1.7,2,1.84,2.36-1.22.31-1.82.76-1.82,1.42s.56,1.12,1.78,1.28c-1.19.2-2.66.86-2.66,2.05,0,1.4,1.89,2,3.69,2M512.41,17.9c0,.56.45.94.95.94s.95-.38.95-.94c0-.61-.45-.95-.95-.95s-.95.32-.95.95M511.58,27.76h3.74v-.29c-1.19,0-1.19-.18-1.19-.83v-6.44h-2.56v.29c1.19,0,1.19.18,1.19.83v5.33c0,.65,0,.83-1.19.83v.29ZM505.1,23.04c.13-1.71.81-2.81,2.27-2.81,1.12,0,1.96.65,1.96,2.56l-.47.25h-3.76ZM507.48,27.98c1.31,0,2.21-.56,2.92-1.58l-.2-.14c-.59.85-1.39,1.15-2.39,1.15-1.24,0-2.74-.47-2.74-3.64,0-.18,0-.34.02-.5h5.62c0-2.03-1.39-3.28-3.22-3.28-2.29,0-3.78,1.89-3.78,4.16s1.62,3.83,3.78,3.83M496.49,21.21l.02.04-1.89,5.22-1.8-5.26c-.22-.61-.25-.72.9-.72v-.29h-3.78v.29c1.12,0,1.26.16,1.48.72l2.5,6.77h.43l2.3-6.32,2.36,6.32h.45l2.5-6.77c.22-.58.38-.72,1.31-.72v-.29h-2.79v.29c1.39,0,1.4.07,1.17.72l-1.93,5.29-1.84-5.29c-.22-.61-.23-.72.72-.72v-.29h-3.24v.29c.79,0,.88.11,1.12.72M478.33,26.43l3.94-8.53c.47,1.06.68,2.52.68,4.1,0,3.08-.83,5.72-2.74,5.72-.83,0-1.44-.49-1.89-1.3M477.49,22c0-3.08.83-5.72,2.74-5.72.79,0,1.4.47,1.84,1.22l-3.92,8.5c-.45-1.04-.65-2.47-.65-4M480.22,27.98c2.23,0,4.14-2.38,4.14-5.98s-1.91-5.98-4.14-5.98-4.14,2.38-4.14,5.98,1.91,5.98,4.14,5.98M467.98,26.43l3.94-8.53c.47,1.06.68,2.52.68,4.1,0,3.08-.83,5.72-2.74,5.72-.83,0-1.44-.49-1.89-1.3M467.14,22c0-3.08.83-5.72,2.74-5.72.79,0,1.4.47,1.84,1.22l-3.92,8.5c-.45-1.04-.65-2.47-.65-4M469.87,27.98c2.23,0,4.14-2.38,4.14-5.98s-1.91-5.98-4.14-5.98-4.14,2.38-4.14,5.98,1.91,5.98,4.14,5.98M455.69,27.09v.67h7.72v-2.88h-.29c0,1.19-.22,1.66-.9,1.66h-5.17c3.22-2.36,6.12-4.63,6.12-7.31,0-2.12-1.84-3.2-3.71-3.2-2.09,0-3.11,1.35-3.58,2.97l.22.05c.38-1.39,1.39-2.59,3.19-2.59,1.93,0,2.48,1.37,2.48,2.88,0,3.04-2.07,4.77-6.08,7.76M441.49,16.62h-.47v7.99h6.82l-2.27,2.52.18.11,3.56-2.84-3.56-2.84-.18.11,2.27,2.52h-6.35v-7.56Z"/>
      <path class="cls-4" d="M211.92,43.98c1.66,0,2.84-.7,2.84-2.23,0-3.08-4.81-2.03-4.81-4.23,0-.86.76-1.24,1.71-1.24,1.94,0,1.33,1.58,2.29,1.58.41,0,.59-.29.59-.59,0-.83-1.37-1.28-2.68-1.28-1.6,0-2.77.67-2.77,2.05,0,2.79,4.81,1.84,4.81,4.21,0,.95-.77,1.44-1.82,1.44-2.07,0-1.55-1.93-2.59-1.93-.32,0-.7.18-.7.65,0,.95,1.58,1.57,3.13,1.57M202.04,39.04c.12-1.71.81-2.81,2.27-2.81,1.12,0,1.96.65,1.96,2.56l-.47.25h-3.76ZM204.42,43.98c1.31,0,2.21-.56,2.92-1.58l-.2-.14c-.59.85-1.39,1.15-2.39,1.15-1.24,0-2.74-.47-2.74-3.64,0-.18,0-.34.02-.5h5.62c0-2.03-1.39-3.28-3.22-3.28-2.29,0-3.78,1.89-3.78,4.16s1.62,3.83,3.78,3.83M195.92,43.76h3.74v-.29c-1.19,0-1.19-.18-1.19-.83v-10.4h-2.56v.29c1.19,0,1.19.18,1.19.83v9.29c0,.65,0,.83-1.19.83v.29ZM189.06,47.76c.9,0,1.46-.43,2-1.8l3.42-8.64c.23-.59.34-.83,1.31-.83v-.29h-2.88v.29c1.49,0,1.44.14,1.17.83l-2.09,5.26-1.98-5.26c-.27-.74-.2-.83.9-.83v-.29h-3.71v.29c1.12,0,1.21.18,1.48.83l2.74,6.68-.72,1.75c-.22,1.39-.68,1.62-1.06,1.62s-.52-.23-.65-.68c-.14-.52-.38-.74-.76-.74s-.65.25-.65.68c0,.72.63,1.13,1.48,1.13M184.87,43.98c.83,0,1.17-.4,1.49-.97l-.18-.11c-.27.5-.59.7-.99.7-.67,0-.77-.58-.77-1.6v-5.44l2.16-.18v-.18h-2.16v-1.84h-.18l-1.19,1.01v.83h-1.33v.36h1.33v5.33c0,1.4.68,2.09,1.82,2.09M178.17,43.98c1.66,0,2.84-.7,2.84-2.23,0-3.08-4.81-2.03-4.81-4.23,0-.86.76-1.24,1.71-1.24,1.94,0,1.33,1.58,2.29,1.58.41,0,.59-.29.59-.59,0-.83-1.37-1.28-2.68-1.28-1.6,0-2.77.67-2.77,2.05,0,2.79,4.81,1.84,4.81,4.21,0,.95-.77,1.44-1.82,1.44-2.07,0-1.55-1.93-2.59-1.93-.32,0-.7.18-.7.65,0,.95,1.58,1.57,3.13,1.57M159.93,42.43l3.94-8.53c.47,1.06.68,2.52.68,4.1,0,3.08-.83,5.72-2.74,5.72-.83,0-1.44-.49-1.89-1.3M159.08,38c0-3.08.83-5.72,2.74-5.72.79,0,1.4.47,1.84,1.22l-3.92,8.5c-.45-1.04-.65-2.47-.65-4M161.82,43.98c2.23,0,4.14-2.38,4.14-5.98s-1.91-5.98-4.14-5.98-4.14,2.38-4.14,5.98,1.91,5.98,4.14,5.98M148.78,35.46c0-1.71.88-3.19,2.68-3.19,1.93,0,2.68,1.71,2.68,3.15,0,1.8-1.13,3.28-2.83,3.28s-2.54-1.51-2.54-3.24M148.37,43.76v.22c4.03-.61,7.24-3.6,7.24-7.27,0-2.41-1.37-4.68-4.21-4.68-2,0-4.01,1.12-4.01,3.47,0,2.16,1.69,3.53,3.69,3.53,1.6,0,2.59-.86,3.13-2.18-.04,3.76-2.7,6.46-5.83,6.91"/>
      <path class="cls-4" d="M200.89,27.98c1.66,0,2.84-.7,2.84-2.23,0-3.08-4.81-2.03-4.81-4.23,0-.86.76-1.24,1.71-1.24,1.94,0,1.33,1.58,2.29,1.58.41,0,.59-.29.59-.59,0-.83-1.37-1.28-2.68-1.28-1.6,0-2.77.67-2.77,2.05,0,2.79,4.81,1.84,4.81,4.21,0,.95-.77,1.44-1.82,1.44-2.07,0-1.55-1.93-2.59-1.93-.32,0-.7.18-.7.65,0,.95,1.58,1.57,3.13,1.57M195.11,27.98c.83,0,1.17-.4,1.49-.97l-.18-.11c-.27.5-.59.7-.99.7-.67,0-.77-.58-.77-1.6v-5.44l2.16-.18v-.18h-2.16v-1.84h-.18l-1.19,1.01v.83h-1.33v.36h1.33v5.33c0,1.4.68,2.09,1.82,2.09M186.2,27.98c1.37,0,2.34-.77,2.77-1.93v1.71h2.56v-.29c-1.19,0-1.19-.18-1.19-.83v-6.44h-2.56v.29c1.19,0,1.19.18,1.19.83v4.27c-.41,1.06-1.04,1.96-2.21,1.96s-1.62-.79-1.62-2.48v-4.86h-2.56v.29c1.19,0,1.19.18,1.19.83v3.87c0,1.71.88,2.79,2.43,2.79M178.88,27.98c1.13,0,2.11-.4,2.9-1.58l-.22-.16c-.67.92-1.48,1.17-2.27,1.17-1.55,0-2.7-.95-2.7-3.51,0-2.38.99-3.62,2.56-3.62.81,0,.92.4,1.06,1.13.07.4.31.74.77.74.36,0,.65-.22.65-.67,0-.9-1.08-1.49-2.39-1.49-2.16,0-4.01,1.53-4.01,4.16,0,2.25,1.35,3.83,3.65,3.83M159.13,19.46c0-1.71.88-3.19,2.68-3.19,1.93,0,2.68,1.71,2.68,3.15,0,1.8-1.13,3.28-2.83,3.28s-2.54-1.51-2.54-3.24M158.72,27.76v.22c4.03-.61,7.24-3.6,7.24-7.27,0-2.41-1.37-4.68-4.21-4.68-2,0-4.01,1.12-4.01,3.47,0,2.16,1.69,3.53,3.69,3.53,1.6,0,2.59-.86,3.13-2.18-.04,3.76-2.7,6.46-5.83,6.91M149.58,26.43l3.94-8.53c.47,1.06.68,2.52.68,4.1,0,3.08-.83,5.72-2.74,5.72-.83,0-1.44-.49-1.89-1.3M148.73,22c0-3.08.83-5.72,2.74-5.72.79,0,1.4.47,1.84,1.22l-3.92,8.5c-.45-1.04-.65-2.47-.65-4M151.47,27.98c2.23,0,4.14-2.38,4.14-5.98s-1.91-5.98-4.14-5.98-4.14,2.38-4.14,5.98,1.91,5.98,4.14,5.98"/>
      <path class="cls-4" d="M378.15,43.09v.67h7.72v-2.88h-.29c0,1.19-.22,1.66-.9,1.66h-5.17c3.22-2.36,6.12-4.63,6.12-7.31,0-2.12-1.84-3.2-3.71-3.2-2.09,0-3.11,1.35-3.58,2.97l.22.05c.38-1.39,1.39-2.59,3.19-2.59,1.93,0,2.48,1.37,2.48,2.88,0,3.04-2.07,4.77-6.08,7.76M369.74,42.43l3.94-8.53c.47,1.06.68,2.52.68,4.1,0,3.08-.83,5.72-2.74,5.72-.83,0-1.44-.49-1.89-1.3M368.9,38c0-3.08.83-5.72,2.74-5.72.79,0,1.4.47,1.84,1.22l-3.92,8.5c-.45-1.04-.65-2.47-.65-4M371.64,43.98c2.23,0,4.14-2.38,4.14-5.98s-1.91-5.98-4.14-5.98-4.14,2.38-4.14,5.98,1.91,5.98,4.14,5.98M363.14,43.98c1.66,0,2.84-.7,2.84-2.23,0-3.08-4.81-2.03-4.81-4.23,0-.86.76-1.24,1.71-1.24,1.94,0,1.33,1.58,2.29,1.58.41,0,.59-.29.59-.59,0-.83-1.37-1.28-2.68-1.28-1.6,0-2.77.67-2.77,2.05,0,2.79,4.81,1.84,4.81,4.21,0,.95-.77,1.44-1.82,1.44-2.07,0-1.55-1.93-2.59-1.93-.32,0-.7.18-.7.65,0,.95,1.58,1.57,3.13,1.57M354.7,43.98c1.8,0,4.07-1.01,4.07-3.44,0-4.34-6.79-2.61-6.79-5.98,0-1.42.94-2.29,2.68-2.29s2.57.85,3.01,2.54h.43l-.2-1.87c-1.04-.63-2.02-.92-3.17-.92-2.2,0-3.73,1.06-3.73,2.95,0,4.09,6.79,2.38,6.79,6.01,0,1.98-1.51,2.74-3.11,2.74-1.85,0-2.88-1.03-3.35-2.86h-.45l.2,1.89c.95.86,2.56,1.22,3.62,1.22M334.84,37.95h9.27l-3.02,3.06.18.18,4.36-3.46-4.36-3.46-.18.18,3.02,3.06h-9.27v.43ZM321.9,43.76h6.95v-.32c-2.77,0-2.77-.18-2.77-.9v-10.51h-.36c-1.15.65-2.14,1.13-3.98,1.13v.36c1.53,0,2.27-.16,2.93-.52v9.54c0,.72,0,.9-2.77.9v.32ZM313.1,42.43l3.94-8.53c.47,1.06.68,2.52.68,4.1,0,3.08-.83,5.72-2.74,5.72-.83,0-1.44-.49-1.89-1.3M312.25,38c0-3.08.83-5.72,2.74-5.72.79,0,1.4.47,1.84,1.22l-3.92,8.5c-.45-1.04-.65-2.47-.65-4M314.99,43.98c2.23,0,4.14-2.38,4.14-5.98s-1.91-5.98-4.14-5.98-4.14,2.38-4.14,5.98,1.91,5.98,4.14,5.98M306.49,43.98c1.66,0,2.84-.7,2.84-2.23,0-3.08-4.81-2.03-4.81-4.23,0-.86.76-1.24,1.71-1.24,1.94,0,1.33,1.58,2.29,1.58.41,0,.59-.29.59-.59,0-.83-1.37-1.28-2.68-1.28-1.6,0-2.77.67-2.77,2.05,0,2.79,4.81,1.84,4.81,4.21,0,.95-.77,1.44-1.82,1.44-2.07,0-1.55-1.93-2.59-1.93-.32,0-.7.18-.7.65,0,.95,1.58,1.57,3.13,1.57M298.05,43.98c1.8,0,4.07-1.01,4.07-3.44,0-4.34-6.79-2.61-6.79-5.98,0-1.42.94-2.29,2.68-2.29s2.57.85,3.01,2.54h.43l-.2-1.87c-1.04-.63-2.02-.92-3.17-.92-2.2,0-3.73,1.06-3.73,2.95,0,4.09,6.79,2.38,6.79,6.01,0,1.98-1.51,2.74-3.11,2.74-1.85,0-2.88-1.03-3.35-2.86h-.45l.2,1.89c.95.86,2.56,1.22,3.62,1.22"/>
      <path class="cls-4" d="M364.26,23.04c.13-1.71.81-2.81,2.27-2.81,1.12,0,1.96.65,1.96,2.56l-.47.25h-3.76ZM366.63,27.98c1.31,0,2.21-.56,2.92-1.58l-.2-.14c-.59.85-1.39,1.15-2.39,1.15-1.24,0-2.74-.47-2.74-3.64,0-.18,0-.34.02-.5h5.62c0-2.03-1.39-3.28-3.22-3.28-2.29,0-3.78,1.89-3.78,4.16s1.62,3.83,3.78,3.83M355.72,26.28v-4.84c.38-.52,1.15-1.06,2.18-1.06,1.58,0,2.43,1.35,2.43,3.55,0,2.7-1.28,3.65-2.54,3.65-1.01,0-1.69-.63-2.07-1.3M353.17,31.54h4.1v-.29c-1.55,0-1.55-.18-1.55-.83v-3.71c.4.65,1.19,1.26,2.36,1.26,2,0,3.62-1.73,3.62-4.14s-1.53-3.85-3.46-3.85c-1.08,0-2.02.49-2.52,1.21v-.99h-2.56v.29c1.19,0,1.19.18,1.19.83v9.11c0,.65,0,.83-1.19.83v.29ZM345.95,31.76c.9,0,1.46-.43,2-1.8l3.42-8.64c.23-.59.34-.83,1.31-.83v-.29h-2.88v.29c1.49,0,1.44.14,1.17.83l-2.09,5.26-1.98-5.26c-.27-.74-.2-.83.9-.83v-.29h-3.71v.29c1.12,0,1.21.18,1.48.83l2.74,6.68-.72,1.75c-.22,1.39-.68,1.62-1.06,1.62s-.52-.23-.65-.68c-.14-.52-.38-.74-.76-.74s-.65.25-.65.68c0,.72.63,1.13,1.48,1.13M341.76,27.98c.83,0,1.17-.4,1.49-.97l-.18-.11c-.27.5-.59.7-.99.7-.67,0-.77-.58-.77-1.6v-5.44l2.16-.18v-.18h-2.16v-1.84h-.18l-1.19,1.01v.83h-1.33v.36h1.33v5.33c0,1.4.68,2.09,1.82,2.09M324.66,27.76h3.74v-.29c-1.19,0-1.19-.18-1.19-.83v-4.27c.41-1.06,1.17-1.96,2.3-1.96,1.04,0,1.53.76,1.53,2.3v3.92c0,.65,0,.83-1.19.83v.29h3.74v-.29c-1.19,0-1.19-.18-1.19-.83v-4.05c0-1.6-.9-2.61-2.43-2.61-1.3,0-2.12.65-2.77,1.85v-1.64h-2.56v.29c1.19,0,1.19.18,1.19.83v5.33c0,.65,0,.83-1.19.83v.29ZM318.18,23.04c.13-1.71.81-2.81,2.27-2.81,1.12,0,1.96.65,1.96,2.56l-.47.25h-3.76ZM320.55,27.98c1.31,0,2.21-.56,2.92-1.58l-.2-.14c-.59.85-1.39,1.15-2.39,1.15-1.24,0-2.74-.47-2.74-3.64,0-.18,0-.34.02-.5h5.62c0-2.03-1.39-3.28-3.22-3.28-2.29,0-3.78,1.89-3.78,4.16s1.62,3.83,3.78,3.83M309.64,26.28v-4.84c.38-.52,1.15-1.06,2.18-1.06,1.58,0,2.43,1.35,2.43,3.55,0,2.7-1.28,3.65-2.54,3.65-1.01,0-1.69-.63-2.07-1.3M307.09,31.54h4.1v-.29c-1.55,0-1.55-.18-1.55-.83v-3.71c.4.65,1.19,1.26,2.36,1.26,2,0,3.62-1.73,3.62-4.14s-1.53-3.85-3.46-3.85c-1.08,0-2.02.49-2.52,1.21v-.99h-2.56v.29c1.19,0,1.19.18,1.19.83v9.11c0,.65,0,.83-1.19.83v.29ZM295.55,21.95c0-3.85,1.87-5.6,4.45-5.6,2.88,0,4.45,2.16,4.45,5.71,0,3.85-1.87,5.6-4.45,5.6-2.88,0-4.45-2.16-4.45-5.71M299.94,27.98c3.01,0,5.99-2.32,5.99-6.03s-2.92-5.92-5.89-5.92-5.99,2.32-5.99,6.03,2.92,5.92,5.89,5.92"/>
      <path class="cls-4" d="M586.77,30.73h15.36c0-9.35-7.05-16.73-16.98-16.73v15.07h-15.02c0,9.15,7.14,16.93,16.64,16.93v-15.27Z"/>
    </g>
    <polygon class="cls-3" points="310.43 334.5 14.49 334.5 26.84 576.66 310.43 546.96 310.43 334.5"/>
    <g class="cls-6">
      <path class="cls-3" d="M310.32,816.32l-288.74,29.13-7.1-250.49h223.66s39.03,34.3,56.8,113.27c17.78,78.96,15.39,108.09,15.39,108.09Z"/>
      <path class="cls-3" d="M601.5,334.5v488.47s-27.53-1.73-44.86,6.04c-17.34,7.77-31.61,16.4-31.61,16.4l-125.42-84.58s11.22-69.04-8.16-100.97c-19.37-31.93-59.14-45.74-59.14-45.74v-219.21l-15.3-60.41h284.49Z"/>
      <path class="cls-4" d="M564.22,795.43c.58-19.11,4.63-30.49,14.09-30.49,7.72,0,12.74,8.11,12.93,27.6l-5.79,2.9h-21.23ZM579.46,848.32c10.23,0,16.6-6.37,21.23-18.53l-1.74-.77c-3.86,9.46-9.46,13.9-16.98,13.9-10.42,0-17.95-9.65-17.95-41.3v-4.05h38.02c0-22.19-8.11-34.93-22.97-34.93-18.53,0-26.44,20.65-26.44,42.27,0,26.25,9.84,43.43,26.83,43.43M492.61,807.21c0-27.41,7.33-40.72,17.76-40.72,6.75,0,11.39,5.02,13.51,11.39v56.55c-2.51,6.56-8.11,9.46-13.9,9.46-11.58,0-17.37-11.97-17.37-36.67M506.51,848.12c7.33,0,14.09-3.28,17.37-10.81v8.68h22v-2.32c-10.81,0-10.81-1.35-10.81-7.91v-113.29h-22v2.32c10.81,0,10.81,1.35,10.81,7.91v40.14c-2.32-5.6-7.91-10.04-16.02-10.04-15.83,0-26.44,18.14-26.44,44.39,0,22.97,9.07,40.92,25.09,40.92M425.45,802.77c0-26.25,6.56-37.25,16.21-37.25,11.19,0,17.37,15.44,17.37,42.27s-6.56,37.64-16.02,37.64c-11.39,0-17.56-15.63-17.56-42.65M442.24,848.12c16.79,0,27.98-16.21,27.98-42.65s-11.39-42.65-27.98-42.65-27.99,16.21-27.99,42.65,11.19,42.65,27.99,42.65M340.91,846h31.27v-2.32c-9.46,0-9.46-1.35-9.46-7.91v-34.74h5.79l16.02,33.39c3.67,7.72,1.93,9.26-5.21,9.26v2.32h31.85v-2.32c-8.11,0-11-1.54-13.9-7.72l-18.72-38.79,15.44-24.12c3.09-4.63,6.76-5.79,12.35-5.79v-2.32h-23.16v2.32c5.98,0,10.42,1.16,7.72,5.4l-15.05,23.93h-13.12v-74.11h-21.81v2.32c10.61,0,10.61,1.35,10.61,7.91v103.06c0,6.56,0,7.91-10.61,7.91v2.32ZM310.23,741.2c0,5.02,3.86,8.3,8.3,8.3s8.3-3.28,8.3-8.3-3.86-8.3-8.3-8.3-8.3,3.09-8.3,8.3M303.28,846h32.62v-2.32c-10.81,0-10.81-1.35-10.81-7.91v-70.83h-21.81v2.32c10.62,0,10.62,1.35,10.62,7.91v60.6c0,6.56,0,7.91-10.62,7.91v2.32ZM226.28,846h31.07v-2.32c-9.26,0-9.26-1.35-9.26-7.91v-50.76c3.28-11.97,8.88-17.76,16.98-17.76,7.53,0,11.19,5.21,11.19,19.49v49.02c0,6.56,0,7.91-9.26,7.91v2.32h31.07v-2.32c-10.81,0-10.81-1.35-10.81-7.91v-50.18c0-15.83-7.14-22.77-18.53-22.77-10.42,0-16.6,5.79-20.65,15.25v-55.58h-21.81v2.32c10.61,0,10.61,1.35,10.61,7.91v103.06c0,6.56,0,7.91-10.61,7.91v2.32ZM170.12,846h48.83v-26.25h-2.51c0,14.86-3.86,23.74-11,23.74h-23.74l36.67-76.04v-2.51h-46.32v23.16h2.32c0-14.28,3.86-20.65,10.81-20.65h21.62l-36.67,76.23v2.32ZM116.66,802.77c0-26.25,6.56-37.25,16.21-37.25,11.19,0,17.37,15.44,17.37,42.27s-6.56,37.64-16.02,37.64c-11.39,0-17.56-15.63-17.56-42.65M133.45,848.12c16.79,0,27.99-16.21,27.99-42.65s-11.39-42.65-27.99-42.65-27.98,16.21-27.98,42.65,11.19,42.65,27.98,42.65M64.55,843.3v2.7h38.21v-2.7c-7.33,0-12.54-.58-15.83-7.33l-29.34-60.02,23.55-44.58c3.28-5.98,7.33-6.18,15.25-6.18v-2.7h-26.63v2.7c7.72,0,10.81.39,7.91,5.21l-24.9,46.9h-13.9v-43.04c0-7.14,0-9.07,12.74-9.07v-2.7H14.56v2.7c12.93,0,12.93,1.93,12.93,9.07v99.97c0,7.14,0,9.07-12.93,9.07v2.7h36.86v-2.7c-12.54,0-12.54-1.93-12.54-9.07v-53.08h8.68l25.28,53.27c3.67,8.11,2.51,8.88-8.3,8.88"/>
      <path class="cls-4" d="M396.48,599.3c11.74-55.28,45.46-87,114.31-87.73l-23.25,109.39c-14.03,23.67-35.63,40.46-60.37,40.46-29.19,0-39.41-21.05-30.69-62.12M519.45,677.86c22.07,0,35.69-11.67,47.55-26.65l-4.44-3.75c-10.03,11.88-17.99,15.82-25.83,15.82-12.36,0-13.89-10.37-8.15-37.38l40.18-189.03c6.27-29.54,1.98-80.48-61.2-80.48-51.67,0-93.5,35.57-101.95,75.32-3.91,18.4,1.08,26.62,14.97,26.62s23.76-8.71,27.41-25.95c9.59-45.08,20.77-65.54,51.47-65.54,36.5,0,36.39,26.95,25.48,78.29l-12,56.45c-71.84.52-142.3,24.12-158.39,99.85-10.48,49.3,13.79,76.43,56.26,76.43,36.56,0,59.75-18.32,73.04-39.39-4.46,24.08,9.39,39.38,35.57,39.38h.04Z"/>
      <path class="cls-4" d="M81.23,603.69c0-84.88,44.54-236.86,110-236.86,19.01,0,31.66,10.74,36.17,25.65l-50.96,228.01c-16.34,27.94-36.64,41.79-57.46,41.79-24.94,0-37.76-16.27-37.76-58.6h0ZM103.54,678.71c30.14,0,55.53-17.04,69.7-40.42-2.1,23.27,6.75,40.42,33.86,40.42,22.19,0,37.82-11.47,50.47-32.38l-4.38-3.66c-9.56,12.68-16.86,19.03-26.89,19.03-15.3,0-13.28-17.65-8.25-40.32l56.64-256.29h-10.71l-22.59,15.55c-11.72-14.3-30.2-23.42-54.2-23.42-87.95,0-146.92,139.81-146.92,235.62,0,60.46,25.36,85.87,63.28,85.87Z"/>
      <path class="cls-4" d="M577.14,335.32c5.88,0,12.72-1.68,17.28-6.72v-18.48c0-4.32,0-5.52,5.52-5.52v-1.68h-20.28v1.68c7.8,0,7.8,1.2,7.8,5.52v19.44c-2.28,2.52-5.4,3.84-9.84,3.84-11.64,0-17.64-10.08-17.64-39.36,0-24.12,6.12-36.24,16.8-36.24,8.04,0,13.56,6.48,16.2,17.04h1.92l-1.56-12c-4.08-4.56-10.32-6.96-16.56-6.96-15.96,0-24.36,16.32-24.36,39.72,0,25.8,7.8,39.72,24.72,39.72M494.7,334h18.12v-1.68c-8.04,0-8.04-1.2-8.04-5.64v-64.32l29.76,71.64h5.76v-69.48c0-4.44,0-5.64,8.04-5.64v-1.68h-18.24v1.68c8.04,0,8.04,1.2,8.04,5.64v60.84l-28.2-68.16h-15.24v1.68c8.04,0,8.04,1.2,8.04,5.64v62.16c0,4.44,0,5.64-8.04,5.64v1.68ZM467.22,334h23.28v-1.68c-8.04,0-8.04-1.2-8.04-5.64v-62.16c0-4.44,0-5.64,8.04-5.64v-1.68h-23.28v1.68c8.04,0,8.04,1.2,8.04,5.64v62.16c0,4.44,0,5.64-8.04,5.64v1.68ZM421.98,264.52l1.8,7.68-11.52,48.72-12.6-56.28c-.96-4.44-.6-5.76,5.64-5.76v-1.68h-19.92v1.68c4.92,0,6,1.2,7.08,5.76l16.2,70.32h2.28l13.8-58.68,14.04,58.68h2.28l15.6-70.2c.96-4.44,2.04-5.88,7.2-5.88v-1.68h-15.48v1.68c6.84,0,7.2,1.32,6.12,5.88l-12.24,56.52-12.96-56.64c-1.08-4.56-.6-5.76,5.28-5.76v-1.68h-19.32v1.68c4.8,0,5.76,1.08,6.72,5.64M364.38,335.44c9.96,0,17.64-6.72,17.64-19.56,0-25.32-27.72-22.92-27.72-45.6,0-8.28,3.24-12.72,10.32-12.72s10.8,5.28,12.96,16.56h2.16l-1.56-12.84c-4.44-4.08-8.76-5.52-13.56-5.52-9.48,0-16.32,5.4-16.32,17.28,0,23.4,27.72,22.8,27.72,45.6,0,10.8-4.32,15-11.52,15-7.68,0-12.24-4.92-14.76-17.76h-2.28l1.44,12.24c4.08,5.16,10.2,7.32,15.48,7.32"/>
      <path class="cls-4" d="M565.38,238h23.4v-1.68c-8.04,0-8.04-1.2-8.04-5.64v-62.4c0-3.36.6-5.52,5.76-5.52h3.84c3.36,0,6.96,1.68,7.32,13.56h1.68v-15.12h-44.52v15.12h1.8c0-11.88,3.96-13.56,7.2-13.56h3.84c5.16,0,5.88,2.16,5.88,5.52v62.4c0,4.44,0,5.64-8.16,5.64v1.68ZM524.7,239.44c11.04,0,17.76-5.64,17.76-21.84v-49.08c0-4.44,0-5.64,8.04-5.64v-1.68h-18.24v1.68c7.92,0,7.92,1.2,7.92,5.64v49.08c0,16.08-6.12,19.32-14.04,19.32s-13.92-3.12-13.92-19.32v-49.08c0-4.44,0-5.64,7.92-5.64v-1.68h-23.04v1.68c8.04,0,8.04,1.2,8.04,5.64v49.08c0,15.48,8.04,21.84,19.56,21.84M474.19,239.32c6.6,0,12.6-2.76,16.68-6.72l1.44-12.36h-2.28c-2.04,10.56-7.2,17.16-15.36,17.16-10.08,0-16.68-8.88-16.68-37.44s6.72-38.16,16.8-38.16c7.8,0,13.2,6.36,15.24,17.16h2.28l-1.44-12.36c-4.08-3.96-10.08-6.72-16.44-6.72-15.84,0-24,14.64-24,39.96s8.4,39.48,23.76,39.48"/>
      <path class="cls-4" d="M541.43,121.48v-1.92c9.6-8.88,12.96-15.12,12.96-24,0-5.04-1.2-8.76-4.8-8.76s-5.28,2.76-6,7.08h-1.32c.72-5.04,3.12-9.36,8.04-9.36,5.52,0,8.88,4.8,8.88,10.8,0,8.04-6.36,15.48-14.64,22.92h11.28c2.04,0,2.76-.24,2.76-5.28h1.08v8.52h-18.24ZM513.35,103.6c0-21.72,16.56-37.2,37.2-37.2s37.2,15.48,37.2,37.2-16.56,37.2-37.2,37.2-37.2-15.36-37.2-37.2M550.55,143.32c21.96,0,39.72-16.44,39.72-39.72s-17.76-39.72-39.72-39.72-39.72,16.56-39.72,39.72,17.64,39.72,39.72,39.72"/>
      <path class="cls-4" d="M25.58,295.6c0,23.28,17.64,39.72,39.72,39.72s39.72-16.44,39.72-39.72-17.76-39.72-39.72-39.72-39.72,16.56-39.72,39.72M57.98,313.48v-1.2c5.4,0,5.52-.96,5.52-3.48v-27.96c-1.8.84-4.2.96-6.48.72v-1.32c4.08.12,6.48-.84,9.96-3.72h1.2v32.28c0,2.52.24,3.48,5.4,3.48v1.2h-15.6Z"/>
    </g>
  </g>
</svg>