<?xml version="1.0" encoding="UTF-8"?>
<svg id="Calque_1" data-name="Calque 1" xmlns="http://www.w3.org/2000/svg" xmlns:xlink="http://www.w3.org/1999/xlink" viewBox="0 0 616 860">
  <defs>
    <style>
      .cls-1 {
        clip-path: url(#clippath);
      }

      .cls-2, .cls-3 {
        stroke-width: 0px;
      }

      .cls-2, .cls-4 {
        fill: none;
      }

      .cls-5 {
        clip-path: url(#clippath-1);
      }

      .cls-6 {
        clip-path: url(#clippath-4);
      }

      .cls-7 {
        clip-path: url(#clippath-3);
      }

      .cls-8 {
        clip-path: url(#clippath-2);
      }

      .cls-9 {
        clip-path: url(#clippath-7);
      }

      .cls-10 {
        clip-path: url(#clippath-8);
      }

      .cls-11 {
        clip-path: url(#clippath-6);
      }

      .cls-12 {
        clip-path: url(#clippath-5);
      }

      .cls-4 {
        stroke: #000;
      }
    </style>
    <clipPath id="clippath">
      <rect class="cls-2" width="616" height="860"/>
    </clipPath>
    <clipPath id="clippath-1">
      <rect class="cls-2" x="14" y="62" width="38.1" height="304"/>
    </clipPath>
    <clipPath id="clippath-2">
      <rect class="cls-2" x="563.9" y="62" width="38.1" height="304"/>
    </clipPath>
    <clipPath id="clippath-3">
      <rect class="cls-2" width="616" height="860"/>
    </clipPath>
    <clipPath id="clippath-4">
      <rect class="cls-2" x="14" y="62" width="12.14" height="304"/>
    </clipPath>
    <clipPath id="clippath-5">
      <rect class="cls-2" x="14" y="654" width="12.14" height="119.99"/>
    </clipPath>
    <clipPath id="clippath-6">
      <rect class="cls-2" x="589.86" y="654" width="12.14" height="119.99"/>
    </clipPath>
    <clipPath id="clippath-7">
      <rect class="cls-2" x="589.86" y="62" width="12.14" height="304"/>
    </clipPath>
    <clipPath id="clippath-8">
      <rect class="cls-2" width="616" height="860"/>
    </clipPath>
  </defs>
  <g class="cls-1">
    <g class="cls-5">
      <line class="cls-4" x1="14.33" y1="21.13" x2="60.71" y2="67.51"/>
      <line class="cls-4" x1="14.33" y1="33.27" x2="60.71" y2="79.65"/>
      <line class="cls-4" x1="14.33" y1="45.41" x2="60.71" y2="91.79"/>
      <line class="cls-4" x1="14.33" y1="57.54" x2="60.71" y2="103.92"/>
      <line class="cls-4" x1="14.33" y1="69.68" x2="60.71" y2="116.06"/>
      <line class="cls-4" x1="14.33" y1="81.82" x2="60.71" y2="128.2"/>
      <line class="cls-4" x1="14.33" y1="93.96" x2="60.71" y2="140.34"/>
      <line class="cls-4" x1="14.33" y1="106.1" x2="60.71" y2="152.47"/>
      <line class="cls-4" x1="14.33" y1="118.23" x2="60.71" y2="164.61"/>
      <line class="cls-4" x1="14.33" y1="130.37" x2="60.71" y2="176.75"/>
      <line class="cls-4" x1="14.33" y1="142.51" x2="60.71" y2="188.89"/>
      <line class="cls-4" x1="14.33" y1="154.65" x2="60.71" y2="201.02"/>
      <line class="cls-4" x1="14.33" y1="166.78" x2="60.71" y2="213.16"/>
      <line class="cls-4" x1="14.33" y1="178.92" x2="60.71" y2="225.3"/>
      <line class="cls-4" x1="14.33" y1="191.06" x2="60.71" y2="237.44"/>
      <line class="cls-4" x1="14.33" y1="203.2" x2="60.71" y2="249.58"/>
      <line class="cls-4" x1="14.33" y1="215.34" x2="60.71" y2="261.71"/>
      <line class="cls-4" x1="14.33" y1="227.47" x2="60.71" y2="273.85"/>
      <line class="cls-4" x1="14.33" y1="239.61" x2="60.71" y2="285.99"/>
      <line class="cls-4" x1="14.33" y1="251.75" x2="60.71" y2="298.13"/>
      <line class="cls-4" x1="14.33" y1="263.89" x2="60.71" y2="310.26"/>
      <line class="cls-4" x1="14.33" y1="276.02" x2="60.71" y2="322.4"/>
      <line class="cls-4" x1="14.33" y1="288.16" x2="60.71" y2="334.54"/>
      <line class="cls-4" x1="14.33" y1="300.3" x2="60.71" y2="346.68"/>
      <line class="cls-4" x1="14.33" y1="312.44" x2="60.71" y2="358.82"/>
      <line class="cls-4" x1="14.33" y1="324.58" x2="60.71" y2="370.95"/>
      <line class="cls-4" x1="14.33" y1="336.71" x2="60.71" y2="383.09"/>
      <line class="cls-4" x1="14.33" y1="348.85" x2="60.71" y2="395.23"/>
      <line class="cls-4" x1="14.33" y1="360.99" x2="60.71" y2="407.37"/>
    </g>
    <g class="cls-8">
      <line class="cls-4" x1="601.67" y1="21.13" x2="555.29" y2="67.51"/>
      <line class="cls-4" x1="601.67" y1="33.27" x2="555.29" y2="79.65"/>
      <line class="cls-4" x1="601.67" y1="45.41" x2="555.29" y2="91.79"/>
      <line class="cls-4" x1="601.67" y1="57.54" x2="555.29" y2="103.92"/>
      <line class="cls-4" x1="601.67" y1="69.68" x2="555.29" y2="116.06"/>
      <line class="cls-4" x1="601.67" y1="81.82" x2="555.29" y2="128.2"/>
      <line class="cls-4" x1="601.67" y1="93.96" x2="555.29" y2="140.34"/>
      <line class="cls-4" x1="601.67" y1="106.1" x2="555.29" y2="152.47"/>
      <line class="cls-4" x1="601.67" y1="118.23" x2="555.29" y2="164.61"/>
      <line class="cls-4" x1="601.67" y1="130.37" x2="555.29" y2="176.75"/>
      <line class="cls-4" x1="601.67" y1="142.51" x2="555.29" y2="188.89"/>
      <line class="cls-4" x1="601.67" y1="154.65" x2="555.29" y2="201.02"/>
      <line class="cls-4" x1="601.67" y1="166.78" x2="555.29" y2="213.16"/>
      <line class="cls-4" x1="601.67" y1="178.92" x2="555.29" y2="225.3"/>
      <line class="cls-4" x1="601.67" y1="191.06" x2="555.29" y2="237.44"/>
      <line class="cls-4" x1="601.67" y1="203.2" x2="555.29" y2="249.58"/>
      <line class="cls-4" x1="601.67" y1="215.34" x2="555.29" y2="261.71"/>
      <line class="cls-4" x1="601.67" y1="227.47" x2="555.29" y2="273.85"/>
      <line class="cls-4" x1="601.67" y1="239.61" x2="555.29" y2="285.99"/>
      <line class="cls-4" x1="601.67" y1="251.75" x2="555.29" y2="298.13"/>
      <line class="cls-4" x1="601.67" y1="263.89" x2="555.29" y2="310.26"/>
      <line class="cls-4" x1="601.67" y1="276.02" x2="555.29" y2="322.4"/>
      <line class="cls-4" x1="601.67" y1="288.16" x2="555.29" y2="334.54"/>
      <line class="cls-4" x1="601.67" y1="300.3" x2="555.29" y2="346.68"/>
      <line class="cls-4" x1="601.67" y1="312.44" x2="555.29" y2="358.82"/>
      <line class="cls-4" x1="601.67" y1="324.58" x2="555.29" y2="370.95"/>
      <line class="cls-4" x1="601.67" y1="336.71" x2="555.29" y2="383.09"/>
      <line class="cls-4" x1="601.67" y1="348.85" x2="555.29" y2="395.23"/>
      <line class="cls-4" x1="601.67" y1="360.99" x2="555.29" y2="407.37"/>
    </g>
    <g class="cls-7">
      <path class="cls-3" d="M90.61,33.68v8.93l-1.47.16v.32h3.98v-.32l-1.33-.16v-9.7l-.29-.19-2.37.8v.16h1.47ZM82.3,41.82l3.84-7.22c.37.8.56,1.94.56,3.39,0,3.36-.93,4.83-2.58,4.83-.77,0-1.39-.32-1.82-1.01M81.55,38c0-3.2.93-4.83,2.58-4.83.74,0,1.33.32,1.76.98l-3.84,7.18c-.32-.78-.5-1.87-.5-3.33M84.13,43.28c2.22,0,3.79-1.92,3.79-5.28s-1.57-5.28-3.79-5.28-3.79,2.08-3.79,5.28c0,3.36,1.57,5.28,3.79,5.28M68.69,43.09h3.23v-.26l-1.02-.26v-4.53c.38-.74.91-1.39,1.84-1.39.98,0,1.3.66,1.3,2.18v3.74l-1.02.26v.26h3.23v-.26l-1.02-.26v-4c0-1.73-.94-2.4-2.1-2.4-1.31,0-1.86.74-2.16,1.22h-.06v-1.02l-.26-.19-1.95.5v.26l1.02.06v5.58l-1.02.26v.26ZM61.78,41.41c0,1.15.69,1.87,1.92,1.87s1.76-.59,2.1-1.28v.1c0,.77.53,1.12,1.31,1.12.51,0,.82-.24,1.09-.54l-.16-.18c-.24.26-.5.34-.67.34-.34,0-.38-.18-.38-.82v-4.14c0-1.17-1.15-1.7-2.18-1.7-1.17,0-2.66.62-2.66,1.41,0,.26.13.5.53.5l.56-.56c.29-.75.59-1.06,1.44-1.06s1.12.45,1.12,1.57v1.18h-.03c-1.94,0-3.98.56-3.98,2.19M65.76,39.52h.03v1.84c-.24.7-.8,1.42-1.71,1.42-.83,0-1.15-.67-1.15-1.46,0-1.33,1.14-1.81,2.83-1.81M57.62,43.09h3.23v-.26l-1.02-.26v-9.66l-.26-.19-1.95.26v.32l1.02.1v9.18l-1.02.26v.26ZM51.58,41.97v-4.13c.32-.48.91-1.18,1.9-1.18,1.62,0,2.11,1.12,2.11,3.17,0,1.87-.82,3.17-2.14,3.17-.78,0-1.47-.5-1.87-1.02M49.38,46.7h3.65v-.26l-1.44-.26v-3.7c.42.4,1.06.78,1.87.78,1.52,0,3.38-1.1,3.38-3.74,0-2.16-1.66-3.36-3.04-3.36-1.17,0-1.82.58-2.21,1.06v-.86l-.22-.19-2.11.5v.26l1.15.06v9.2l-1.02.26v.26ZM43.52,39.54v-1.49c.35-.74.96-1.39,1.81-1.39.78,0,1.23.42,1.23,1.26,0,1.07-.94,1.62-1.55,1.62h-1.49ZM41.31,43.09h3.23v-.26l-1.02-.26v-2.69h.1c1.66,0,2.61.19,2.61,1.49,0,.9.69,1.71,1.79,1.71h.77v-.29h-.58c-.43,0-.53-.48-.67-1.3-.21-1.2-1.47-1.71-2.51-1.71h-.05v-.06c1.3,0,2.77-.56,2.77-1.97,0-1.06-.77-1.58-1.98-1.58-1.06,0-1.79.51-2.18,1.22h-.06v-4.48l-.26-.19-1.95.26v.32l1.02.1v9.18l-1.02.26v.26ZM38.13,37.63h-.06v-1.26l-.22-.19-2.11.5v.26l1.15.06v5.58l-1.02.26v.26h3.44v-.26l-1.23-.26v-4.43c.21-.46.74-1.3,1.46-1.3l.78.46c.48,0,.74-.24.74-.56,0-.29-.34-.58-1.07-.58-1.1,0-1.7,1.17-1.84,1.46M29.3,39.57c0-1.98.69-3.1,2.16-3.1s2.16,1.44,2.16,3.42-.69,3.1-2.16,3.1-2.16-1.44-2.16-3.42M31.36,43.28c1.98,0,3.49-1.57,3.49-3.55,0-2.14-1.47-3.55-3.3-3.55-1.98,0-3.49,1.57-3.49,3.55,0,2.14,1.47,3.55,3.3,3.55M23.62,43.09h.21l3.22-9.7,1.18-.16v-.32h-3.36v.32l1.76.16-2.51,7.71-2.45-7.71,1.76-.16v-.32h-4.03v.32l1.02.16.9,2.72-2.11,5.15-2.69-7.87,1.78-.16v-.32h-4.21v.32l1.18.16,3.41,9.7h.19l2.62-6.43,2.13,6.43Z"/>
      <path class="cls-3" d="M92.48,23.63c0-1.87.82-3.17,2.14-3.17.78,0,1.47.5,1.87,1.02v4.13c-.26.38-.85,1.18-1.9,1.18-1.46,0-2.11-1.12-2.11-3.17M96.54,27.09h2.16v-.26l-1.02-.26v-9.66l-.22-.19-2.11.26v.32l1.15.1v3.62c-.42-.4-1.06-.83-1.87-.83-1.52,0-3.38,1.1-3.38,3.74,0,2.16,1.5,3.36,3.04,3.36,1.17,0,1.82-.58,2.22-1.09l.03.9ZM82.93,27.09h3.23v-.26l-1.02-.26v-4.53c.38-.74.91-1.39,1.84-1.39.98,0,1.3.66,1.3,2.18v3.74l-1.02.26v.26h3.23v-.26l-1.02-.26v-4c0-1.73-.94-2.4-2.1-2.4-1.31,0-1.86.74-2.16,1.22h-.06v-1.02l-.26-.19-1.95.5v.26l1.02.06v5.58l-1.02.26v.26ZM76.01,25.41c0,1.15.69,1.87,1.92,1.87s1.76-.59,2.1-1.28v.1c0,.77.53,1.12,1.31,1.12.51,0,.82-.24,1.09-.54l-.16-.18c-.24.26-.5.34-.67.34-.34,0-.38-.18-.38-.82v-4.14c0-1.17-1.15-1.7-2.18-1.7-1.17,0-2.66.62-2.66,1.41,0,.26.13.5.53.5l.56-.56c.29-.75.59-1.06,1.44-1.06s1.12.45,1.12,1.57v1.18h-.03c-1.94,0-3.98.56-3.98,2.19M80,23.52h.03v1.84c-.24.7-.8,1.42-1.71,1.42-.83,0-1.15-.67-1.15-1.46,0-1.33,1.14-1.81,2.83-1.81M72.58,21.63h-.06v-1.26l-.22-.19-2.11.5v.26l1.15.06v5.58l-1.02.26v.26h3.44v-.26l-1.23-.26v-4.43c.21-.46.74-1.3,1.46-1.3l.78.46c.48,0,.74-.24.74-.56,0-.29-.34-.58-1.07-.58-1.1,0-1.7,1.17-1.84,1.46M63.71,22.3c0-1.42.72-1.84,1.65-1.84s1.65.74,1.65,2.16-.72,1.86-1.65,1.86-1.65-.75-1.65-2.18M63.31,28.78c0-.78.19-1.25.61-1.58.1.02.19.03.29.03h1.81c1.3,0,2,.22,2,1.23,0,1.22-1.07,2.14-2.64,2.14-1.3,0-2.06-.45-2.06-1.82M68.16,22.3c0-.59-.19-1.04-.51-1.38.14-.16.32-.24.43-.24l.67.46c.38,0,.61-.22.61-.5,0-.35-.29-.48-.64-.48-.43,0-.96.24-1.26.59-.53-.42-1.3-.59-2.1-.59-1.46,0-2.8.88-2.8,2.45,0,.88.43,1.46,1.07,1.78l-.78.78c-.27.75.11,1.6.77,1.92-.83.42-1.49.96-1.49,1.92,0,1.38,1.58,1.87,3.07,1.87,1.78,0,3.86-.94,3.86-2.85,0-1.14-.86-1.79-2.53-1.79h-1.84c-.85,0-1.3-.24-1.3-.78,0-.45.21-.75.5-.94.43.16.94.24,1.47.24,1.6,0,2.8-.91,2.8-2.46M56.43,22.54c.22-1.38.94-2.08,1.95-2.08,1.07,0,1.49.69,1.49,1.87l-1.18.21h-2.26ZM58.37,27.28c1.5,0,2.26-.86,2.69-1.63l-.24-.16c-.3.53-1.01,1.06-2.19,1.06-1.3,0-2.27-.75-2.27-3.02,0-.24.02-.48.03-.69h4.7c0-1.81-1.5-2.66-2.8-2.66-1.44,0-3.17,1.14-3.17,3.71,0,2.05,1.28,3.39,3.25,3.39M51.82,21.63h-.06v-1.26l-.22-.19-2.11.5v.26l1.15.06v5.58l-1.02.26v.26h3.44v-.26l-1.23-.26v-4.43c.21-.46.74-1.3,1.46-1.3l.78.46c.48,0,.74-.24.74-.56,0-.29-.34-.58-1.07-.58-1.1,0-1.7,1.17-1.84,1.46M42.19,27.09h4.42v-.32l-1.62-.16v-9.22l1.02-.08h1.22c.46,0,.88.86.94,2.54h.58l-.16-2.94h-8.22l-.16,2.94h.58c.03-1.68.43-2.54.94-2.54h1.06l1.02.08v9.22l-1.62.16v.32ZM28.29,27.09h4.9v-.32l-2.21-.16v-4.75h2.05c.24,0,.5.03.74.19l.16,1.44h.48v-3.71h-.48l-.16,1.44c-.24.16-.5.19-.74.19h-2.05v-4.02l2.11-.03h2c.26,0,.51.83.67,2.18h.42l-.16-2.62h-7.73v.32l1.47.16v9.22l-1.47.16v.32ZM14.48,27.09h3.54v-.32l-1.62-.16v-8.72l4.11,9.2h.22l3.9-9.36v8.88l-1.62.16v.32h4.3v-.32l-1.47-.16v-9.22l1.47-.16v-.32h-2.83l-3.5,8.35-3.7-8.35h-2.82v.32l1.47.16v9.22l-1.47.16v.32Z"/>
      <path class="cls-3" d="M511.37,32.72l-1.95.26v.32l1.02.1v9.18l-1.02.26v.26h3.23v-.26l-1.02-.26v-4.54c.38-.72.91-1.38,1.84-1.38.98,0,1.3.66,1.3,2.18v3.74l-1.02.26v.26h3.23v-.26l-1.02-.26v-4c0-1.73-.83-2.4-2.1-2.4s-1.86.74-2.16,1.22h-.06v-4.48l-.26-.19ZM504.07,36.43v.48h1.31v4.78c0,1.34,1.07,1.58,1.79,1.58.66,0,1.18-.34,1.54-.78l-.19-.19c-.26.27-.74.58-1.2.58-.62,0-.75-.27-.75-1.09v-4.88h2.05l.21-.54h-2.26v-1.7h-.22c-.32,1.57-1.04,1.76-2.27,1.76M497.5,39.63c0-1.87.82-3.17,2.14-3.17.78,0,1.47.5,1.87,1.02v4.13c-.26.38-.85,1.18-1.9,1.18-1.46,0-2.11-1.12-2.11-3.17M501.56,43.09h2.16v-.26l-1.02-.26v-9.66l-.22-.19-2.11.26v.32l1.15.1v3.62c-.42-.4-1.06-.83-1.87-.83-1.52,0-3.38,1.1-3.38,3.74,0,2.16,1.5,3.36,3.04,3.36,1.17,0,1.82-.58,2.22-1.09l.03.9ZM493.12,33.49c0,.43.34.77.77.77s.77-.34.77-.77-.34-.77-.77-.77-.77.34-.77.77M492.17,43.09h3.33v-.26l-1.02-.26v-6.21l-.26-.19-1.95.5v.26l1.02.06v5.58l-1.12.26v.26ZM488.72,43.09h.22l2.03-6.21.77-.26v-.26h-2.27v.26l1.14.26-1.44,4.42-1.68-4.42,1.14-.26v-.26h-3.09v.26l.77.26.24.62-1.3,3.78-1.73-4.4,1.12-.26v-.26h-3.07v.26l.77.26,2.42,6.21h.22l1.74-5.14,2,5.14ZM472.2,41.82l3.84-7.22c.37.8.56,1.94.56,3.39,0,3.36-.93,4.83-2.58,4.83-.77,0-1.39-.32-1.82-1.01M471.45,38c0-3.2.93-4.83,2.58-4.83.74,0,1.33.32,1.76.98l-3.84,7.18c-.32-.78-.5-1.87-.5-3.33M474.03,43.28c2.22,0,3.79-1.92,3.79-5.28s-1.57-5.28-3.79-5.28-3.79,2.08-3.79,5.28c0,3.36,1.57,5.28,3.79,5.28M463.66,41.82l3.84-7.22c.37.8.56,1.94.56,3.39,0,3.36-.93,4.83-2.58,4.83-.77,0-1.39-.32-1.82-1.01M462.91,38c0-3.2.93-4.83,2.58-4.83.74,0,1.33.32,1.76.98l-3.84,7.18c-.32-.78-.5-1.87-.5-3.33M465.48,43.28c2.22,0,3.79-1.92,3.79-5.28s-1.57-5.28-3.79-5.28-3.79,2.08-3.79,5.28c0,3.36,1.57,5.28,3.79,5.28M456.22,33.68v8.93l-1.47.16v.32h3.98v-.32l-1.33-.16v-9.7l-.29-.19-2.37.8v.16h1.47ZM445.8,38.13l-.13.19,1.46,2.22h-5.87v-7.63h-.32v7.95h6.19l-1.46,2.22.13.19,3.02-2.58-3.02-2.58Z"/>
      <path class="cls-3" d="M518.76,20.43v.48h1.31v4.78c0,1.34,1.07,1.58,1.79,1.58.66,0,1.18-.34,1.54-.78l-.19-.19c-.26.27-.74.58-1.2.58-.62,0-.75-.27-.75-1.09v-4.88h2.05l.21-.54h-2.26v-1.7h-.22c-.32,1.57-1.04,1.76-2.27,1.76M512.88,16.72l-1.95.26v.32l1.02.1v9.18l-1.02.26v.26h3.23v-.26l-1.02-.26v-4.54c.38-.72.91-1.38,1.84-1.38.98,0,1.3.66,1.3,2.18v3.74l-1.02.26v.26h3.23v-.26l-1.02-.26v-4c0-1.73-.83-2.4-2.1-2.4s-1.86.74-2.16,1.22h-.06v-4.48l-.26-.19ZM504.81,22.3c0-1.42.72-1.84,1.65-1.84s1.65.74,1.65,2.16-.72,1.86-1.65,1.86-1.65-.75-1.65-2.18M504.41,28.78c0-.78.19-1.25.61-1.58.1.02.19.03.29.03h1.81c1.3,0,2,.22,2,1.23,0,1.22-1.07,2.14-2.64,2.14-1.3,0-2.06-.45-2.06-1.82M509.26,22.3c0-.59-.19-1.04-.51-1.38.14-.16.32-.24.43-.24l.67.46c.38,0,.61-.22.61-.5,0-.35-.29-.48-.64-.48-.43,0-.96.24-1.26.59-.53-.42-1.3-.59-2.1-.59-1.46,0-2.8.88-2.8,2.45,0,.88.43,1.46,1.07,1.78l-.78.78c-.27.75.11,1.6.77,1.92-.83.42-1.49.96-1.49,1.92,0,1.38,1.58,1.87,3.07,1.87,1.78,0,3.86-.94,3.86-2.85,0-1.14-.86-1.79-2.53-1.79h-1.84c-.85,0-1.3-.24-1.3-.78,0-.45.21-.75.5-.94.43.16.94.24,1.47.24,1.6,0,2.8-.91,2.8-2.46M500.17,17.49c0,.43.34.77.77.77s.77-.34.77-.77-.34-.77-.77-.77-.77.34-.77.77M499.23,27.09h3.33v-.26l-1.02-.26v-6.21l-.26-.19-1.95.5v.26l1.02.06v5.58l-1.12.26v.26ZM493.63,22.54c.22-1.38.94-2.08,1.95-2.08,1.07,0,1.49.69,1.49,1.87l-1.18.21h-2.26ZM495.56,27.28c1.5,0,2.26-.86,2.69-1.63l-.24-.16c-.3.53-1.01,1.06-2.19,1.06-1.3,0-2.27-.75-2.27-3.02,0-.24.02-.48.03-.69h4.7c0-1.81-1.5-2.66-2.8-2.66-1.44,0-3.17,1.14-3.17,3.71,0,2.05,1.28,3.39,3.25,3.39M488.72,27.09h.22l2.03-6.21.77-.26v-.26h-2.27v.26l1.14.26-1.44,4.42-1.68-4.42,1.14-.26v-.26h-3.09v.26l.77.26.24.62-1.3,3.78-1.73-4.4,1.12-.26v-.26h-3.07v.26l.77.26,2.42,6.21h.22l1.74-5.14,2,5.14ZM472.2,25.82l3.84-7.22c.37.8.56,1.94.56,3.39,0,3.36-.93,4.83-2.58,4.83-.77,0-1.39-.32-1.82-1.01M471.45,22c0-3.2.93-4.83,2.58-4.83.74,0,1.33.32,1.76.98l-3.84,7.18c-.32-.78-.5-1.87-.5-3.33M474.03,27.28c2.22,0,3.79-1.92,3.79-5.28s-1.57-5.28-3.79-5.28-3.79,2.08-3.79,5.28c0,3.36,1.57,5.28,3.79,5.28M463.66,25.82l3.84-7.22c.37.8.56,1.94.56,3.39,0,3.36-.93,4.83-2.58,4.83-.77,0-1.39-.32-1.82-1.01M462.91,22c0-3.2.93-4.83,2.58-4.83.74,0,1.33.32,1.76.98l-3.84,7.18c-.32-.78-.5-1.87-.5-3.33M465.48,27.28c2.22,0,3.79-1.92,3.79-5.28s-1.57-5.28-3.79-5.28-3.79,2.08-3.79,5.28c0,3.36,1.57,5.28,3.79,5.28M460.14,23.54h-1.7v-4.06h-.32l-.86.8v3.26h-3.5l4.35-6.62h-.69l-4.5,6.83.37.75h3.97v2.11l-1.47.16v.32h3.9v-.32l-1.25-.16v-2.11h2.18l.16-2.11h-.21l-.43,1.15ZM445.8,22.13l-.13.19,1.46,2.22h-5.87v-7.63h-.32v7.95h6.19l-1.46,2.22.13.19,3.02-2.58-3.02-2.58Z"/>
      <path class="cls-3" d="M208.34,41.92c0,.53-.27,1.07-1.68,1.07-1.02,0-1.62-.35-1.97-1.22l-.14-.66h-.29l.05,1.3c.37.38,1.14.86,2.42.86,1.57,0,2.64-.72,2.64-1.94,0-2.5-3.86-1.84-3.86-3.76,0-.46.35-1.12,1.49-1.12.9,0,1.42.45,1.66,1.06l.08.48h.22c-.02-.42-.05-.83-.06-1.25-.35-.29-1.18-.58-2-.58-1.2,0-2.42.67-2.42,1.9,0,2.51,3.86,1.54,3.86,3.84M198.52,38.54c.22-1.38.94-2.08,1.95-2.08,1.07,0,1.49.69,1.49,1.87l-1.18.21h-2.26ZM200.45,43.28c1.5,0,2.26-.86,2.69-1.63l-.24-.16c-.3.53-1.01,1.06-2.19,1.06-1.3,0-2.27-.75-2.27-3.02,0-.24.02-.48.03-.69h4.7c0-1.81-1.5-2.66-2.8-2.66-1.44,0-3.17,1.14-3.17,3.71,0,2.05,1.28,3.39,3.25,3.39M193.21,43.09h3.23v-.26l-1.02-.26v-9.66l-.26-.19-1.95.26v.32l1.02.1v9.18l-1.02.26v.26ZM187.11,46.9c.59,0,1.33-.34,1.78-1.46l3.42-8.56.77-.26v-.26h-2.26v.26l1.12.26-1.9,4.8-1.9-4.8,1.12-.26v-.26h-3.18v.26l.77.26,2.59,6.21-.77,1.95c-.3.77-.5,1.2-1.15,1.2l-.88-.5c-.29,0-.59.14-.59.53s.51.62,1.07.62M180.87,36.43v.48h1.31v4.78c0,1.34,1.07,1.58,1.79,1.58.66,0,1.18-.34,1.54-.78l-.19-.19c-.26.27-.74.58-1.2.58-.62,0-.75-.27-.75-1.09v-4.88h2.05l.21-.54h-2.26v-1.7h-.22c-.32,1.57-1.04,1.76-2.27,1.76M179.24,41.92c0,.53-.27,1.07-1.68,1.07-1.02,0-1.62-.35-1.97-1.22l-.14-.66h-.29l.05,1.3c.37.38,1.14.86,2.42.86,1.57,0,2.64-.72,2.64-1.94,0-2.5-3.86-1.84-3.86-3.76,0-.46.35-1.12,1.49-1.12.9,0,1.42.45,1.66,1.06l.08.48h.22c-.02-.42-.05-.83-.06-1.25-.35-.29-1.18-.58-2-.58-1.2,0-2.42.67-2.42,1.9,0,2.51,3.86,1.54,3.86,3.84M157.29,41.82l3.84-7.22c.37.8.56,1.94.56,3.39,0,3.36-.93,4.83-2.58,4.83-.77,0-1.39-.32-1.82-1.01M156.54,38c0-3.2.93-4.83,2.58-4.83.74,0,1.33.32,1.76.98l-3.84,7.18c-.32-.78-.5-1.87-.5-3.33M159.12,43.28c2.22,0,3.79-1.92,3.79-5.28s-1.57-5.28-3.79-5.28-3.79,2.08-3.79,5.28c0,3.36,1.57,5.28,3.79,5.28M148.67,35.92c0-1.47.34-2.75,1.89-2.75,1.71,0,2.02,1.84,2.02,3.46v.35c-.54,1.04-1.23,1.52-2.29,1.52-1.2,0-1.62-1.1-1.62-2.58M152.51,37.58h.05c-.11,3.01-.82,4.77-2.59,5.34l-1.09-1.14c-.32,0-.72.18-.72.75,0,.46.59.74,1.38.74,2.18,0,4.26-2.29,4.26-6.16,0-1.92-.69-4.4-3.15-4.4-1.87,0-3.18,1.54-3.18,3.2,0,1.82,1.1,3.02,2.74,3.02,1.25,0,2.05-.85,2.32-1.36"/>
      <path class="cls-3" d="M199.29,25.92c0,.53-.27,1.07-1.68,1.07-1.02,0-1.62-.35-1.97-1.22l-.14-.66h-.29l.05,1.3c.37.38,1.14.86,2.42.86,1.57,0,2.64-.72,2.64-1.94,0-2.5-3.86-1.84-3.86-3.76,0-.46.35-1.12,1.49-1.12.9,0,1.42.45,1.66,1.06l.08.48h.22c-.02-.42-.05-.83-.06-1.25-.35-.29-1.18-.58-2-.58-1.2,0-2.42.67-2.42,1.9,0,2.51,3.86,1.54,3.86,3.84M189.72,20.43v.48h1.31v4.78c0,1.34,1.07,1.58,1.79,1.58.66,0,1.18-.34,1.54-.78l-.19-.19c-.26.27-.74.58-1.2.58-.62,0-.75-.27-.75-1.09v-4.88h2.05l.21-.54h-2.26v-1.7h-.22c-.32,1.57-1.04,1.76-2.27,1.76M187.09,27.09h2.21v-.26l-1.02-.26v-6.21h-2.21v.26l1.02.26v4.54c-.38.72-.91,1.38-1.84,1.38-.98,0-1.3-.66-1.3-2.18v-4.26h-2.21v.26l1.02.26v4c0,1.73.94,2.4,2.1,2.4,1.31,0,1.86-.74,2.16-1.22h.06v1.02ZM180.18,21.74l.27.34c.35,0,.46-.24.46-.43,0-.77-1.09-1.47-2.37-1.47-1.55,0-3.39,1.15-3.39,3.7,0,2.13,1.22,3.41,3.12,3.41,1.57,0,2.35-.86,2.82-1.63l-.24-.14c-.32.53-1.09,1.04-2.19,1.04-1.46,0-2.27-1.04-2.27-3.02,0-2.11,1.01-3.06,2.16-3.06.78,0,1.34.35,1.63,1.28M157.21,19.92c0-1.47.34-2.75,1.89-2.75,1.71,0,2.02,1.84,2.02,3.46v.35c-.54,1.04-1.23,1.52-2.29,1.52-1.2,0-1.62-1.1-1.62-2.58M161.05,21.58h.05c-.11,3.01-.82,4.77-2.59,5.34l-1.09-1.14c-.32,0-.72.18-.72.75,0,.46.59.74,1.38.74,2.18,0,4.26-2.29,4.26-6.16,0-1.92-.69-4.4-3.15-4.4-1.87,0-3.18,1.54-3.18,3.2,0,1.82,1.1,3.02,2.74,3.02,1.25,0,2.05-.85,2.32-1.36M148.75,25.82l3.84-7.22c.37.8.56,1.94.56,3.39,0,3.36-.93,4.83-2.58,4.83-.77,0-1.39-.32-1.82-1.01M148,22c0-3.2.93-4.83,2.58-4.83.74,0,1.33.32,1.76.98l-3.84,7.18c-.32-.78-.5-1.87-.5-3.33M150.57,27.28c2.22,0,3.79-1.92,3.79-5.28s-1.57-5.28-3.79-5.28-3.79,2.08-3.79,5.28c0,3.36,1.57,5.28,3.79,5.28"/>
      <path class="cls-3" d="M373.14,39.54h-1.7v-4.06h-.32l-.86.8v3.26h-3.5l4.35-6.62h-.69l-4.5,6.83.37.75h3.97v2.11l-1.47.16v.32h3.9v-.32l-1.25-.16v-2.11h2.18l.16-2.11h-.21l-.43,1.15ZM359.57,41.82l3.84-7.22c.37.8.56,1.94.56,3.39,0,3.36-.93,4.83-2.58,4.83-.77,0-1.39-.32-1.82-1.01M358.82,38c0-3.2.93-4.83,2.58-4.83.74,0,1.33.32,1.76.98l-3.84,7.18c-.32-.78-.5-1.87-.5-3.33M361.4,43.28c2.22,0,3.79-1.92,3.79-5.28s-1.57-5.28-3.79-5.28-3.79,2.08-3.79,5.28c0,3.36,1.57,5.28,3.79,5.28M355.59,41.92c0,.53-.27,1.07-1.68,1.07-1.02,0-1.62-.35-1.97-1.22l-.14-.66h-.29l.05,1.3c.37.38,1.14.86,2.42.86,1.57,0,2.64-.72,2.64-1.94,0-2.5-3.86-1.84-3.86-3.76,0-.46.35-1.12,1.49-1.12.9,0,1.42.45,1.66,1.06l.08.48h.22c-.02-.42-.05-.83-.06-1.25-.35-.29-1.18-.58-2-.58-1.2,0-2.42.67-2.42,1.9,0,2.51,3.86,1.54,3.86,3.84M349.24,40.75c0,.93-.48,2.08-2.43,2.08-1.39,0-2.14-.66-2.75-1.73l-.24-1.01h-.38l.24,2.05c.32.22,1.22,1.14,3.06,1.14,2.16,0,3.57-1.25,3.57-3.01,0-3.46-5.58-2.66-5.58-5.23,0-.85.46-1.87,2.22-1.87,1.14,0,1.89.5,2.37,1.55l.11.74h.38l-.13-1.66c-.51-.59-1.68-1.07-2.78-1.07-1.66,0-3.23.99-3.23,2.7,0,3.18,5.58,2.13,5.58,5.33M335.7,40.53l3.18-2.9-3.18-2.9-.13.19,1.63,2.54h-8.58v.32h8.58l-1.63,2.54.13.19ZM319.8,33.68v8.93l-1.47.16v.32h3.98v-.32l-1.33-.16v-9.7l-.29-.19-2.37.8v.16h1.47ZM310.15,41.82l3.84-7.22c.37.8.56,1.94.56,3.39,0,3.36-.93,4.83-2.58,4.83-.77,0-1.39-.32-1.82-1.01M309.4,38c0-3.2.93-4.83,2.58-4.83.74,0,1.33.32,1.76.98l-3.84,7.18c-.32-.78-.5-1.87-.5-3.33M311.97,43.28c2.22,0,3.79-1.92,3.79-5.28s-1.57-5.28-3.79-5.28-3.79,2.08-3.79,5.28c0,3.36,1.57,5.28,3.79,5.28M306.16,41.92c0,.53-.27,1.07-1.68,1.07-1.02,0-1.62-.35-1.97-1.22l-.14-.66h-.29l.05,1.3c.37.38,1.14.86,2.42.86,1.57,0,2.64-.72,2.64-1.94,0-2.5-3.86-1.84-3.86-3.76,0-.46.35-1.12,1.49-1.12.9,0,1.42.45,1.66,1.06l.08.48h.22c-.02-.42-.05-.83-.06-1.25-.35-.29-1.18-.58-2-.58-1.2,0-2.42.67-2.42,1.9,0,2.51,3.86,1.54,3.86,3.84M299.81,40.75c0,.93-.48,2.08-2.43,2.08-1.39,0-2.14-.66-2.75-1.73l-.24-1.01h-.38l.24,2.05c.32.22,1.22,1.14,3.06,1.14,2.16,0,3.57-1.25,3.57-3.01,0-3.46-5.58-2.66-5.58-5.23,0-.85.46-1.87,2.22-1.87,1.14,0,1.89.5,2.37,1.55l.11.74h.38l-.13-1.66c-.51-.59-1.68-1.07-2.78-1.07-1.66,0-3.23.99-3.23,2.7,0,3.18,5.58,2.13,5.58,5.33"/>
      <path class="cls-3" d="M354.98,22.54c.22-1.38.94-2.08,1.95-2.08,1.07,0,1.49.69,1.49,1.87l-1.18.21h-2.26ZM356.92,27.28c1.5,0,2.26-.86,2.69-1.63l-.24-.16c-.3.53-1.01,1.06-2.19,1.06-1.3,0-2.27-.75-2.27-3.02,0-.24.02-.48.03-.69h4.7c0-1.81-1.5-2.66-2.8-2.66-1.44,0-3.17,1.14-3.17,3.71,0,2.05,1.28,3.39,3.25,3.39M347.14,25.97v-4.13c.32-.48.91-1.18,1.9-1.18,1.62,0,2.11,1.12,2.11,3.17,0,1.87-.82,3.17-2.14,3.17-.78,0-1.47-.5-1.87-1.02M344.93,30.7h3.65v-.26l-1.44-.26v-3.7c.42.4,1.06.78,1.87.78,1.52,0,3.38-1.1,3.38-3.74,0-2.16-1.66-3.36-3.04-3.36-1.17,0-1.82.58-2.21,1.06v-.86l-.22-.19-2.11.5v.26l1.15.06v9.2l-1.02.26v.26ZM338.4,30.9c.59,0,1.33-.34,1.78-1.46l3.42-8.56.77-.26v-.26h-2.26v.26l1.12.26-1.9,4.8-1.9-4.8,1.12-.26v-.26h-3.18v.26l.77.26,2.59,6.21-.77,1.95c-.3.77-.5,1.2-1.15,1.2l-.88-.5c-.29,0-.59.14-.59.53s.51.62,1.07.62M332.16,20.43v.48h1.31v4.78c0,1.34,1.07,1.58,1.79,1.58.66,0,1.18-.34,1.54-.78l-.19-.19c-.26.27-.74.58-1.2.58-.62,0-.75-.27-.75-1.09v-4.88h2.05l.21-.54h-2.26v-1.7h-.22c-.32,1.57-1.04,1.76-2.27,1.76M321.06,27.09h3.23v-.26l-1.02-.26v-4.53c.38-.74.91-1.39,1.84-1.39.98,0,1.3.66,1.3,2.18v3.74l-1.02.26v.26h3.23v-.26l-1.02-.26v-4c0-1.73-.94-2.4-2.1-2.4-1.31,0-1.86.74-2.16,1.22h-.06v-1.02l-.26-.19-1.95.5v.26l1.02.06v5.58l-1.02.26v.26ZM315.46,22.54c.22-1.38.94-2.08,1.95-2.08,1.07,0,1.49.69,1.49,1.87l-1.18.21h-2.26ZM317.4,27.28c1.5,0,2.26-.86,2.69-1.63l-.24-.16c-.3.53-1.01,1.06-2.19,1.06-1.3,0-2.27-.75-2.27-3.02,0-.24.02-.48.03-.69h4.7c0-1.81-1.5-2.66-2.8-2.66-1.44,0-3.17,1.14-3.17,3.71,0,2.05,1.28,3.39,3.25,3.39M307.62,25.97v-4.13c.32-.48.91-1.18,1.9-1.18,1.62,0,2.11,1.12,2.11,3.17,0,1.87-.82,3.17-2.14,3.17-.78,0-1.47-.5-1.87-1.02M305.41,30.7h3.65v-.26l-1.44-.26v-3.7c.42.4,1.06.78,1.87.78,1.52,0,3.38-1.1,3.38-3.74,0-2.16-1.66-3.36-3.04-3.36-1.17,0-1.82.58-2.21,1.06v-.86l-.22-.19-2.11.5v.26l1.15.06v9.2l-1.02.26v.26ZM295.32,21.84c0-3.14,1.47-4.67,3.79-4.67s3.79,2.02,3.79,5.15-1.47,4.51-3.79,4.51-3.79-1.86-3.79-4.99M299.09,27.28c2.51,0,5.02-1.66,5.02-5.28s-2.51-5.28-5.02-5.28-4.99,1.82-4.99,5.44,2.48,5.12,4.99,5.12"/>
      <path class="cls-3" d="M586.64,30.73h15.36c0-9.35-7.05-16.73-16.98-16.73v15.07h-15.02c0,9.15,7.14,16.93,16.64,16.93v-15.27Z"/>
    </g>
    <line class="cls-4" x1="293.3" y1="62" x2="14" y2="62"/>
    <line class="cls-4" x1="602" y1="62" x2="322.7" y2="62"/>
    <line class="cls-4" x1="308" y1="846" x2="308" y2="61.5"/>
    <line class="cls-4" x1="14" y1="846" x2="14" y2="478"/>
    <line class="cls-4" x1="602" y1="846" x2="602" y2="478"/>
    <g class="cls-6">
      <line class="cls-4" x1="51.77" y1="19.47" x2="5.39" y2="65.85"/>
      <line class="cls-4" x1="51.77" y1="31.61" x2="5.39" y2="77.99"/>
      <line class="cls-4" x1="51.77" y1="43.75" x2="5.39" y2="90.12"/>
      <line class="cls-4" x1="51.77" y1="55.88" x2="5.39" y2="102.26"/>
      <line class="cls-4" x1="51.77" y1="68.02" x2="5.39" y2="114.4"/>
      <line class="cls-4" x1="51.77" y1="80.16" x2="5.39" y2="126.54"/>
      <line class="cls-4" x1="51.77" y1="92.3" x2="5.39" y2="138.68"/>
      <line class="cls-4" x1="51.77" y1="104.44" x2="5.39" y2="150.81"/>
      <line class="cls-4" x1="51.77" y1="116.57" x2="5.39" y2="162.95"/>
      <line class="cls-4" x1="51.77" y1="128.71" x2="5.39" y2="175.09"/>
      <line class="cls-4" x1="51.77" y1="140.85" x2="5.39" y2="187.23"/>
      <line class="cls-4" x1="51.77" y1="152.99" x2="5.39" y2="199.36"/>
      <line class="cls-4" x1="51.77" y1="165.12" x2="5.39" y2="211.5"/>
      <line class="cls-4" x1="51.77" y1="177.26" x2="5.39" y2="223.64"/>
      <line class="cls-4" x1="51.77" y1="189.4" x2="5.39" y2="235.78"/>
      <line class="cls-4" x1="51.77" y1="201.54" x2="5.39" y2="247.92"/>
      <line class="cls-4" x1="51.77" y1="213.67" x2="5.39" y2="260.05"/>
      <line class="cls-4" x1="51.77" y1="225.81" x2="5.39" y2="272.19"/>
      <line class="cls-4" x1="51.77" y1="237.95" x2="5.39" y2="284.33"/>
      <line class="cls-4" x1="51.77" y1="250.09" x2="5.39" y2="296.47"/>
      <line class="cls-4" x1="51.77" y1="262.23" x2="5.39" y2="308.6"/>
      <line class="cls-4" x1="51.77" y1="274.36" x2="5.39" y2="320.74"/>
      <line class="cls-4" x1="51.77" y1="286.5" x2="5.39" y2="332.88"/>
      <line class="cls-4" x1="51.77" y1="298.64" x2="5.39" y2="345.02"/>
      <line class="cls-4" x1="51.77" y1="310.78" x2="5.39" y2="357.15"/>
      <line class="cls-4" x1="51.77" y1="322.91" x2="5.39" y2="369.29"/>
      <line class="cls-4" x1="51.77" y1="335.05" x2="5.39" y2="381.43"/>
      <line class="cls-4" x1="51.77" y1="347.19" x2="5.39" y2="393.57"/>
      <line class="cls-4" x1="51.77" y1="359.33" x2="5.39" y2="405.71"/>
    </g>
    <g class="cls-12">
      <line class="cls-4" x1="51.77" y1="609.53" x2="5.39" y2="655.91"/>
      <line class="cls-4" x1="51.77" y1="621.67" x2="5.39" y2="668.04"/>
      <line class="cls-4" x1="51.77" y1="633.8" x2="5.39" y2="680.18"/>
      <line class="cls-4" x1="51.77" y1="645.94" x2="5.39" y2="692.32"/>
      <line class="cls-4" x1="51.77" y1="658.08" x2="5.39" y2="704.46"/>
      <line class="cls-4" x1="51.77" y1="670.22" x2="5.39" y2="716.59"/>
      <line class="cls-4" x1="51.77" y1="682.35" x2="5.39" y2="728.73"/>
      <line class="cls-4" x1="51.77" y1="694.49" x2="5.39" y2="740.87"/>
      <line class="cls-4" x1="51.77" y1="706.63" x2="5.39" y2="753.01"/>
      <line class="cls-4" x1="51.77" y1="718.77" x2="5.39" y2="765.15"/>
      <line class="cls-4" x1="51.77" y1="730.91" x2="5.39" y2="777.28"/>
      <line class="cls-4" x1="51.77" y1="743.04" x2="5.39" y2="789.42"/>
      <line class="cls-4" x1="51.77" y1="755.18" x2="5.39" y2="801.56"/>
      <line class="cls-4" x1="51.77" y1="767.32" x2="5.39" y2="813.7"/>
    </g>
    <g class="cls-11">
      <line class="cls-4" x1="564.23" y1="609.53" x2="610.61" y2="655.91"/>
      <line class="cls-4" x1="564.23" y1="621.67" x2="610.61" y2="668.04"/>
      <line class="cls-4" x1="564.23" y1="633.8" x2="610.61" y2="680.18"/>
      <line class="cls-4" x1="564.23" y1="645.94" x2="610.61" y2="692.32"/>
      <line class="cls-4" x1="564.23" y1="658.08" x2="610.61" y2="704.46"/>
      <line class="cls-4" x1="564.23" y1="670.22" x2="610.61" y2="716.59"/>
      <line class="cls-4" x1="564.23" y1="682.35" x2="610.61" y2="728.73"/>
      <line class="cls-4" x1="564.23" y1="694.49" x2="610.61" y2="740.87"/>
      <line class="cls-4" x1="564.23" y1="706.63" x2="610.61" y2="753.01"/>
      <line class="cls-4" x1="564.23" y1="718.77" x2="610.61" y2="765.15"/>
      <line class="cls-4" x1="564.23" y1="730.91" x2="610.61" y2="777.28"/>
      <line class="cls-4" x1="564.23" y1="743.04" x2="610.61" y2="789.42"/>
      <line class="cls-4" x1="564.23" y1="755.18" x2="610.61" y2="801.56"/>
      <line class="cls-4" x1="564.23" y1="767.32" x2="610.61" y2="813.7"/>
    </g>
    <g class="cls-9">
      <line class="cls-4" x1="564.23" y1="19.47" x2="610.61" y2="65.85"/>
      <line class="cls-4" x1="564.23" y1="31.61" x2="610.61" y2="77.99"/>
      <line class="cls-4" x1="564.23" y1="43.75" x2="610.61" y2="90.12"/>
      <line class="cls-4" x1="564.23" y1="55.88" x2="610.61" y2="102.26"/>
      <line class="cls-4" x1="564.23" y1="68.02" x2="610.61" y2="114.4"/>
      <line class="cls-4" x1="564.23" y1="80.16" x2="610.61" y2="126.54"/>
      <line class="cls-4" x1="564.23" y1="92.3" x2="610.61" y2="138.68"/>
      <line class="cls-4" x1="564.23" y1="104.44" x2="610.61" y2="150.81"/>
      <line class="cls-4" x1="564.23" y1="116.57" x2="610.61" y2="162.95"/>
      <line class="cls-4" x1="564.23" y1="128.71" x2="610.61" y2="175.09"/>
      <line class="cls-4" x1="564.23" y1="140.85" x2="610.61" y2="187.23"/>
      <line class="cls-4" x1="564.23" y1="152.99" x2="610.61" y2="199.36"/>
      <line class="cls-4" x1="564.23" y1="165.12" x2="610.61" y2="211.5"/>
      <line class="cls-4" x1="564.23" y1="177.26" x2="610.61" y2="223.64"/>
      <line class="cls-4" x1="564.23" y1="189.4" x2="610.61" y2="235.78"/>
      <line class="cls-4" x1="564.23" y1="201.54" x2="610.61" y2="247.92"/>
      <line class="cls-4" x1="564.23" y1="213.67" x2="610.61" y2="260.05"/>
      <line class="cls-4" x1="564.23" y1="225.81" x2="610.61" y2="272.19"/>
      <line class="cls-4" x1="564.23" y1="237.95" x2="610.61" y2="284.33"/>
      <line class="cls-4" x1="564.23" y1="250.09" x2="610.61" y2="296.47"/>
      <line class="cls-4" x1="564.23" y1="262.23" x2="610.61" y2="308.6"/>
      <line class="cls-4" x1="564.23" y1="274.36" x2="610.61" y2="320.74"/>
      <line class="cls-4" x1="564.23" y1="286.5" x2="610.61" y2="332.88"/>
      <line class="cls-4" x1="564.23" y1="298.64" x2="610.61" y2="345.02"/>
      <line class="cls-4" x1="564.23" y1="310.78" x2="610.61" y2="357.15"/>
      <line class="cls-4" x1="564.23" y1="322.91" x2="610.61" y2="369.29"/>
      <line class="cls-4" x1="564.23" y1="335.05" x2="610.61" y2="381.43"/>
      <line class="cls-4" x1="564.23" y1="347.19" x2="610.61" y2="393.57"/>
      <line class="cls-4" x1="564.23" y1="359.33" x2="610.61" y2="405.71"/>
    </g>
    <g class="cls-10">
      <path class="cls-3" d="M342.78,734h13.82l12.48-57.98c3.46-6.91,10.94-16.9,18.82-16.9l7.87,5.57c5.76,0,8.26-2.3,9.02-6.72.58-3.46-1.34-6.91-9.98-6.91-12.1,0-21.31,14.02-23.42,17.47h-.77l3.26-15.17-2.11-2.3-26.11,5.95-.77,3.07,13.44.77-15.55,73.15ZM261.99,692.34c5.76-23.23,16.51-37.82,31.3-37.82,8.64,0,15.94,4.22,20.54,9.79l-11.14,52.03c-5.38,6.34-13.63,14.21-26.3,14.21-16.13,0-19.97-15.94-14.4-38.21M269.29,779.7c19.2,0,35.14-7.3,40.13-30.53l20.54-95.81h-3.84l-9.41,6.14c-4.8-4.61-12.67-8.45-22.08-8.45-19.58,0-42.05,16.9-47.42,44.93-4.99,26.3,9.6,40.32,26.11,40.32,10.56,0,19.97-4.99,27.84-12.67l-6.34,30.53c-3.46,16.51-10.75,21.89-24.77,21.89-11.71,0-19.01-8.26-16.7-17.47l-1.15-5.18c-4.99-3.07-11.71-.58-11.71,7.3s8.64,19.01,28.8,19.01M183.27,693.3c5.95-26.69,17.86-38.78,30.14-38.78,10.75,0,10.75,7.68,8.83,15.17-3.46,13.06-17.66,17.86-38.98,23.62M194.98,736.3c16.9,0,26.88-10.37,33.6-19.58l-2.5-1.92c-4.8,6.34-13.63,12.67-24.96,12.67-15.74,0-21.89-12.48-18.43-31.1,27.84-6.14,50.69-14.02,53.76-28.61,1.73-8.06-4.03-16.7-21.12-16.7s-40.13,15.36-46.27,44.35c-4.99,23.81,4.61,40.9,25.92,40.9M111.37,734h13.82l12.48-57.98c3.46-6.91,10.94-16.9,18.82-16.9l7.87,5.57c5.76,0,8.26-2.3,9.02-6.72.58-3.46-1.34-6.91-9.98-6.91-12.1,0-21.31,14.02-23.42,17.47h-.77l3.26-15.17-2.11-2.3-26.11,5.95-.77,3.07,13.44.77-15.55,73.15ZM29.08,734h53.38l1.15-3.84-20.35-1.92,23.62-110.59,12.29-.96h14.21c5.57,0,8.26,10.37,4.61,30.53h6.91l5.57-35.33H33.69l-9.41,35.33h6.91c4.61-20.16,11.52-30.53,17.47-30.53h12.48l11.71.96-23.42,110.59-19.39,1.92-.96,3.84Z"/>
      <path class="cls-3" d="M173.19,812.65c4.44-18.97,13.92-29.99,25.24-29.99,7.5,0,12.85,4.59,15.61,9.64l-8.57,39.78c-3.21,3.67-10.25,11.17-20.04,11.17-12.7,0-16.52-12.24-12.24-30.6M182.21,847.84c9.95,0,17.29-5.35,22.19-10.1-.92,6.43,3.37,9.49,9.64,9.49,5.51,0,8.72-2.3,11.93-5.2l-1.22-1.68c-2.6,2.3-5.05,3.21-7.19,3.21-2.75,0-3.06-1.53-1.68-7.8l18.51-87.06-1.68-1.84-20.35,2.45-.61,3.06,10.56.92-7.34,34.43c-3.06-3.67-8.11-7.8-16.07-7.8-13.46,0-32.74,11.47-37.49,35.8-4.13,20.96,6.58,32.13,20.81,32.13M138.7,847.22c5.66,0,9.03-2.3,12.24-5.2l-1.22-1.68c-2.6,2.3-5.05,3.21-7.04,3.21-3.67,0-2.75-3.06-2.14-6.12l7.34-34.58c3.52-16.68-3.37-22.95-14.69-22.95s-18.21,7.04-22.03,11.63h-.61l2.14-9.79-1.99-1.84-19.28,4.74-.61,2.45,9.49.61-12.39,58.29h11.17l10.25-48.19c5.66-7.5,12.7-13.31,20.04-13.31,8.42,0,9.95,6.12,6.89,20.81l-6.58,31.21c-1.53,7.34,2.14,10.71,9.03,10.71M24.55,812.95c3.67-17.9,13.46-30.29,25.4-30.29,6.43,0,12.24,3.37,15.76,7.8l-8.87,41.62c-4.13,4.9-11.17,11.17-20.04,11.17-13.77,0-16.22-10.86-12.24-30.29M32.96,847.84c10.86,0,18.05-5.35,22.8-9.94-.92,6.43,2.91,9.33,9.64,9.33,5.35,0,8.72-2.3,11.93-5.2l-1.22-1.68c-2.75,2.45-5.35,3.21-6.88,3.21-3.21,0-3.37-1.68-1.99-7.8l11.47-54.01h-3.06l-7.5,4.9c-3.83-3.67-10.1-6.73-17.6-6.73-13.62,0-32.59,10.56-37.79,35.8-4.28,20.65,7.34,32.13,20.2,32.13"/>
      <path class="cls-3" d="M571.97,793.83h-.61v-12.09l-2.14-1.84-20.2,4.74v2.45l11.02.61v53.4l-9.79,2.45v2.45h32.9v-2.45l-11.78-2.45v-42.38c1.99-4.44,7.04-12.39,13.92-12.39l7.5,4.44c4.59,0,7.04-2.29,7.04-5.35,0-2.75-3.21-5.51-10.25-5.51-10.56,0-16.22,11.17-17.59,13.92M481.61,829.93c0,11.02,6.58,17.9,18.36,17.9s16.83-5.66,20.04-12.24v.92c0,7.34,5.05,10.71,12.55,10.71,4.9,0,7.8-2.3,10.4-5.2l-1.53-1.68c-2.3,2.45-4.74,3.21-6.43,3.21-3.21,0-3.67-1.68-3.67-7.8v-39.63c0-11.17-11.02-16.22-20.81-16.22-11.17,0-25.4,5.97-25.4,13.46,0,2.45,1.22,4.74,5.05,4.74l5.35-5.36c2.75-7.19,5.66-10.1,13.77-10.1s10.71,4.28,10.71,14.99v11.32h-.31c-18.51,0-38.1,5.36-38.1,20.96M519.71,811.88h.31v17.59c-2.29,6.73-7.65,13.62-16.37,13.62-7.96,0-11.02-6.43-11.02-13.92,0-12.7,10.86-17.29,27.08-17.29M436.85,846h5.97l34.12-92.72,11.32-1.53v-3.06h-32.44v3.06l16.83,1.53-28.92,79.41-29.38-79.41,16.98-1.53v-3.06h-40.55v3.06l11.17,1.53,34.88,92.72Z"/>
      <path class="cls-3" d="M442.84,266.78c14.51-65.05,43.52-94.54,73.48-94.54,26.21,0,26.21,18.72,21.53,36.97-8.42,31.82-43.06,43.52-95,57.56M471.39,371.61c41.18,0,65.52-25.27,81.9-47.74l-6.08-4.68c-11.7,15.44-33.23,30.89-60.84,30.89-38.38,0-53.35-30.42-44.93-75.82,67.86-14.98,123.55-34.16,131.04-69.73,4.21-19.66-9.83-40.72-51.48-40.72s-97.81,37.44-112.79,108.11c-12.17,58.03,11.23,99.68,63.18,99.68M267.58,366h33.7l30.42-141.34c8.42-16.85,26.68-41.18,45.86-41.18l19.19,13.57c14.04,0,20.12-5.62,22-16.38,1.4-8.42-3.28-16.85-24.34-16.85-29.48,0-51.95,34.16-57.1,42.59h-1.87l7.96-36.97-5.15-5.62-63.65,14.51-1.87,7.49,32.76,1.87-37.91,178.31ZM67,366h130.1l2.81-9.36-49.61-4.68,57.56-269.57,29.95-2.34h34.63c13.57,0,20.12,25.27,11.23,74.41h16.85l13.57-86.11H78.23l-22.93,86.11h16.85c11.23-49.14,28.08-74.41,42.59-74.41h30.42l28.55,2.34-57.1,269.57-47.27,4.68-2.34,9.36Z"/>
      <path class="cls-3" d="M444.97,524.22c10.2-41.14,29.24-66.98,55.42-66.98,15.3,0,28.22,7.48,36.38,17.34l-19.72,92.14c-9.52,11.22-24.14,25.16-46.58,25.16-28.56,0-35.36-28.22-25.5-67.66M457.89,678.92c34,0,62.22-12.92,71.06-54.06l36.38-169.66h-6.8l-16.66,10.88c-8.5-8.16-22.44-14.96-39.1-14.96-34.68,0-74.46,29.92-83.98,79.56-8.84,46.58,17,71.4,46.24,71.4,18.7,0,35.36-8.84,49.3-22.44l-11.22,54.06c-6.12,29.24-19.04,38.76-43.86,38.76-20.74,0-33.66-14.62-29.58-30.94l-2.04-9.18c-8.84-5.44-20.74-1.02-20.74,12.92s15.3,33.66,51,33.66M307.27,525.92c10.54-47.26,31.62-68.68,53.38-68.68,19.04,0,19.04,13.6,15.64,26.86-6.12,23.12-31.28,31.62-69.02,41.82M328.01,602.08c29.92,0,47.6-18.36,59.5-34.68l-4.42-3.4c-8.5,11.22-24.14,22.44-44.2,22.44-27.88,0-38.76-22.1-32.64-55.08,49.3-10.88,89.76-24.82,95.2-50.66,3.06-14.28-7.14-29.58-37.4-29.58s-71.06,27.2-81.94,78.54c-8.84,42.16,8.16,72.42,45.9,72.42M181.65,598h24.48l22.1-102.68c6.12-12.24,19.38-29.92,33.32-29.92l13.94,9.86c10.2,0,14.62-4.08,15.98-11.9,1.02-6.12-2.38-12.24-17.68-12.24-21.42,0-37.74,24.82-41.48,30.94h-1.36l5.78-26.86-3.74-4.08-46.24,10.54-1.36,5.44,23.8,1.36-27.54,129.54ZM37.63,598h94.52l2.04-6.8-36.04-3.4,41.82-195.84,21.76-1.7h25.16c9.86,0,14.62,18.36,8.16,54.06h12.24l9.86-62.56H45.79l-16.66,62.56h12.24c8.16-35.7,20.4-54.06,30.94-54.06h22.1l20.74,1.7-41.48,195.84-34.34,3.4-1.7,6.8Z"/>
    </g>
  </g>
</svg>