<?xml version="1.0" encoding="UTF-8"?>
<svg id="Calque_1" data-name="Calque 1" xmlns="http://www.w3.org/2000/svg" xmlns:xlink="http://www.w3.org/1999/xlink" viewBox="0 0 616 423">
  <defs>
    <style>
      .cls-1 {
        clip-path: url(#clippath);
      }

      .cls-2, .cls-3, .cls-4 {
        fill: none;
      }

      .cls-2, .cls-5, .cls-6 {
        stroke-width: 0px;
      }

      .cls-3 {
        stroke-width: .25px;
      }

      .cls-3, .cls-4 {
        stroke: #000;
      }

      .cls-7 {
        clip-path: url(#clippath-1);
      }

      .cls-8 {
        clip-path: url(#clippath-3);
      }

      .cls-9 {
        clip-path: url(#clippath-2);
      }

      .cls-4 {
        stroke-width: 3px;
      }

      .cls-6 {
        fill: #fff;
      }
    </style>
    <clipPath id="clippath">
      <rect class="cls-2" width="616" height="423"/>
    </clipPath>
    <clipPath id="clippath-1">
      <rect class="cls-2" width="616" height="423"/>
    </clipPath>
    <clipPath id="clippath-2">
      <rect class="cls-2" width="616" height="423"/>
    </clipPath>
    <clipPath id="clippath-3">
      <rect class="cls-2" width="616" height="423"/>
    </clipPath>
  </defs>
  <g class="cls-1">
    <polyline class="cls-6" points="587.43 407.13 587.43 15.02 28.57 15.02 28.57 407.13"/>
    <polyline class="cls-4" points="587.43 407.13 587.43 15.02 28.57 15.02 28.57 407.13"/>
    <g class="cls-7">
      <path class="cls-5" d="M525.3,171.03V39.29l5.02-1.16h5.41c13.91,0,19.32,22.79,19.32,62.2,0,56.79-12.75,70.7-22.41,70.7h-7.34ZM497.88,302h40.95v-5.41h-8.11l-5.41-3.48v-115.13h7.34l22.02,124.01h26.27v-5.41h-8.11l-5.41-3.48-21.63-118.99c12.36-7.73,23.18-28.2,23.18-73.4,0-50.61-13.52-69.16-31.68-69.16h-39.41v5.41h8.5l5.02,3.48v252.66l-5.02,3.48h-8.5v5.41ZM409.06,302h75.72v-82.29h-7.34v26.66l-4.25,49.06h-26.27l-10.43-1.93v-124.4h17l3.86,26.66v25.88h6.18v-113.2h-6.18v26.27l-3.86,26.27h-17V40.06l10.43-1.93h26.27l4.25,49.06v26.66h7.34V31.56h-75.72v5.41h8.5l5.02,3.48v252.66l-5.02,3.48h-8.5v5.41ZM330.41,302h49.45v-5.41h-10.82l-6.95-3.48V38.13h22.79l4.64,74.56v15.45h7.34V31.56h-83.45v96.59h6.57v-15.45l5.02-74.56h22.79v254.98l-6.95,3.48h-10.43v5.41ZM232.82,302h49.45v-5.41h-10.82l-6.95-3.48V38.13h22.79l4.64,74.56v15.45h7.34V31.56h-83.45v96.59h6.57v-15.45l5.02-74.56h22.79v254.98l-6.95,3.48h-10.43v5.41ZM125.12,302h75.72v-82.29h-7.34v26.66l-4.25,49.06h-26.27l-10.43-1.93v-124.4h17l3.86,26.66v25.88h6.18v-113.2h-6.18v26.27l-3.86,26.27h-17V40.06l10.43-1.93h26.27l4.25,49.06v26.66h7.34V31.56h-75.72v5.41h8.5l5.02,3.48v252.66l-5.02,3.48h-8.5v5.41ZM37,302h75.72v-82.29h-7.34v26.66l-4.25,49.06h-27.04l-9.66-2.7V40.45l5.41-3.48h8.11v-5.41h-40.95v5.41h8.5l5.02,3.48v252.66l-5.02,3.48h-8.5v5.41Z"/>
    </g>
    <line class="cls-3" x1="43.4" y1="46" x2="572.6" y2="46"/>
    <line class="cls-3" x1="43.4" y1="78" x2="572.6" y2="78"/>
    <line class="cls-3" x1="43.4" y1="110" x2="572.6" y2="110"/>
    <line class="cls-3" x1="43.4" y1="142" x2="572.6" y2="142"/>
    <line class="cls-3" x1="43.4" y1="174" x2="572.6" y2="174"/>
    <line class="cls-3" x1="43.4" y1="206" x2="572.6" y2="206"/>
    <line class="cls-3" x1="43.4" y1="238" x2="572.6" y2="238"/>
    <line class="cls-3" x1="43.4" y1="270" x2="572.6" y2="270"/>
    <line class="cls-3" x1="43.4" y1="302" x2="572.6" y2="302"/>
    <line class="cls-3" x1="43.4" y1="318" x2="572.6" y2="318"/>
    <line class="cls-3" x1="43.4" y1="334" x2="572.6" y2="334"/>
    <line class="cls-3" x1="43.4" y1="350" x2="572.6" y2="350"/>
    <line class="cls-3" x1="43.4" y1="366" x2="572.6" y2="366"/>
    <line class="cls-3" x1="43.4" y1="382" x2="572.6" y2="382"/>
    <line class="cls-3" x1="43.4" y1="398" x2="572.6" y2="398"/>
    <polyline class="cls-6" points="600.98 409 600.98 193.85 15.02 193.85 15.02 409"/>
    <polyline class="cls-4" points="600.98 409 600.98 193.85 15.02 193.85 15.02 409"/>
    <g class="cls-9">
      <path class="cls-5" d="M533.63,358.08h60.19v-45.95h-5.29v13.42l-5.29,27.25h-15.25l-6.71-.81v-62.63h10.17l2.85,16.47v12.4h4.68v-63.44h-4.68v12.61l-2.85,16.06h-10.17v-61.61l6.71-.81h15.25l5.29,27.04v13.62h5.29v-45.95h-60.19v4.27h5.29l3.25,2.24v129.32l-3.25,2.24h-5.29v4.27ZM466,358.08h60.19v-45.95h-5.29v13.42l-5.29,27.25h-16.47l-5.49-1.42v-129.12l3.25-2.24h5.29v-4.27h-36.19v4.27h5.29l3.25,2.24v129.32l-3.25,2.24h-5.29v4.27ZM407.54,358.08h36.19v-4.27h-5.08l-3.25-2.24v-54.49l16.27-74.83,3.25-2.24h5.29v-4.27h-22.57v4.27h5.29l3.25,2.24-13.62,63.03-13.83-63.03,3.46-2.24h5.08v-4.27h-37.62v4.27h5.29l3.25,2.24,17.89,74.83v54.49l-3.25,2.24h-5.29v4.27ZM327.94,358.08h42.09v-4.27h-7.12l-4.47-2.24v-130.54h13.42l5.69,37.41v8.13h5.29v-50.83h-67.71v50.83h4.88v-8.13l5.69-37.41h13.62v130.54l-4.47,2.24h-6.91v4.27ZM283.55,360.11c15.66,0,24.81-13.83,24.81-37.82,0-51.24-38.63-46.16-38.63-84.79,0-10.78,2.85-18.91,11.59-18.91,10.37,0,14.44,12.61,16.47,39.65h6.71v-42.5h-4.68l-1.83,14.23c-3.46-11.39-8.74-16.27-17.08-16.27-13.83,0-23.99,11.39-23.99,32.74,0,47.38,37.62,42.7,37.62,84.99,0,13.42-3.46,23.79-12.61,23.79-10.78,0-16.06-14.23-18.71-47.99h-6.51v50.83h4.68l1.42-19.93c4.27,16.47,11.39,21.96,20.74,21.96M181.07,352.39v-131.15l2.85-.41h2.64c5.49,0,13.62,10.37,13.62,65.68s-7.73,66.49-13.62,66.49h-1.83l-3.66-.61ZM153.62,358.08h33.55c18.71,0,32.13-17.69,32.13-72.39s-13.42-69.95-32.13-69.95h-33.55v4.27h5.29l3.25,2.24v129.32l-3.25,2.24h-5.29v4.27ZM85.99,358.08h60.19v-45.95h-5.29v13.42l-5.29,27.25h-16.47l-5.49-1.42v-129.12l3.25-2.24h5.29v-4.27h-36.19v4.27h5.29l3.25,2.24v129.32l-3.25,2.24h-5.29v4.27ZM41.91,286.5c0-48.6,1.63-67.71,9.96-67.71s9.56,18.91,9.56,67.71-1.42,68.53-9.56,68.53-9.96-19.72-9.96-68.53M51.88,360.11c21.15,0,29.08-21.15,29.08-73.61s-7.52-72.79-29.08-72.79-29.48,21.96-29.48,72.79,8.13,73.61,29.48,73.61"/>
    </g>
    <polyline class="cls-6" points="600.98 409 600.98 370.7 15.02 370.7 15.02 409"/>
    <polyline class="cls-4" points="600.98 409 600.98 370.7 15.02 370.7 15.02 409"/>
    <g class="cls-8">
      <path class="cls-5" d="M110.61,395.2c1.25,0,1.89.57,1.89,2,0,1.79-1.02,2.34-1.9,2.34h-1.12v.28h1.12c1.22,0,2.38.46,2.38,2.53,0,1.92-1.01,2.65-2.23,2.65-1.65,0-2.75-1.33-2.96-3.08h-.42v2.1c.88.88,2.04,1.26,3.23,1.26,1.96,0,3.6-1.01,3.6-3,0-1.79-1.33-2.45-2.56-2.66,1.07-.32,2.08-1.12,2.08-2.41,0-1.51-1.41-2.29-3.08-2.29-1.3,0-2.31.45-3,.98v1.33h.35c.43-1.43,1.33-2.03,2.61-2.03M100.27,403.56l4.09-6.46c.29.76.45,1.76.45,3v.14c0,3.02-1.02,4.62-2.59,4.62-.83,0-1.5-.45-1.95-1.3M99.62,400.24v-.14c0-3.12,1.02-4.76,2.59-4.76.81,0,1.49.45,1.93,1.3l-4.09,6.47c-.28-.74-.43-1.69-.43-2.87M102.21,405.28c2.18,0,3.82-1.99,3.82-5.04v-.14c0-3.15-1.64-5.18-3.82-5.18s-3.82,2.03-3.82,5.18v.14c0,3.05,1.64,5.04,3.82,5.04M90.13,405h3.28v-.33h-.49l-.59-.28v-3.44c0-1.5-.49-2.52-2.22-2.52-1.29,0-2.04.59-2.53,1.65v-1.51h-2.2v.33h.49l.59.28v5.21l-.59.28h-.49v.33h3.28v-.33h-.49l-.59-.28v-3.56c.36-1.19,1.02-1.93,2.14-1.93.94,0,1.5.46,1.5,2.05v3.44l-.59.28h-.49v.33ZM79.14,402.89c0-1.21.6-2.03,1.79-2.03.95,0,1.71.52,1.82,1.6v.78c-.11,1.09-.87,1.57-1.82,1.57-1.11,0-1.79-.65-1.79-1.92M82.75,405h2.2v-.33h-.49l-.59-.28v-3.53c0-1.29-.46-2.43-2.83-2.43-1.19,0-2.11.29-2.73.61v1.26h.28c.34-1.07,1.18-1.56,2.32-1.56,1.41,0,1.83.69,1.83,2.11v.62c-.41-.63-1.15-.95-2.13-.95-1.74,0-2.66,1.03-2.66,2.37s.95,2.25,2.62,2.25c1.01,0,1.76-.32,2.17-.94v.8ZM73.71,405h3.27v-.33h-.49l-.59-.28v-9.18h-2.2v.33h.49l.59.28v8.57l-.59.28h-.49v.33ZM67.52,403.95v-4.28c.55-.57,1.23-.83,1.9-.83,1.11,0,2.27.7,2.27,2.83,0,1.72-.77,3.09-2.31,3.09-.78,0-1.42-.32-1.86-.81M69.54,405.14c1.79,0,3.3-1.23,3.3-3.51,0-2.44-1.71-3.2-3.15-3.2-1.07,0-1.74.42-2.17.84v-.7h-2.2v.33h.49l.59.28v8.01l-.59.28h-.49v.33h3.27v-.33h-.49l-.59-.28v-2.77c.38.36,1.04.73,2.02.73M59.51,401.81v-1.2c.11-1.32.95-1.85,1.99-1.85.83,0,1.39.35,1.39,1.44,0,1.61-1.22,1.61-1.54,1.61h-1.84ZM57.32,405h3.27v-.33h-.49l-.59-.28v-2.24h1.54l1.83,2.86h2.11v-.33h-.49l-.59-.28-1.58-2.35c.94-.24,1.66-.85,1.66-1.93,0-1.19-.89-1.82-2.18-1.82-1.05,0-1.89.4-2.31,1.26v-4.34h-2.2v.33h.49l.59.28v8.57l-.59.28h-.49v.33ZM51.73,405h3.28v-.33h-.49l-.59-.28v-3.32c.1-1.34.62-2.05,1.51-2.05.51,0,.91.24,1.08.94h.28v-1.26c-.24-.15-.59-.28-1.08-.28-.9,0-1.5.42-1.79,1.36v-1.22h-2.2v.33h.49l.59.28v5.21l-.59.28h-.49v.33ZM45.3,401.78c0-1.96.9-3.01,2.2-3.01s2.2,1.05,2.2,3.01-.9,3.01-2.2,3.01-2.2-1.05-2.2-3.01M47.5,405.14c1.75,0,3.36-1.29,3.36-3.36s-1.61-3.36-3.36-3.36-3.36,1.29-3.36,3.36,1.61,3.36,3.36,3.36M39.21,405h.99l3.28-9.18.59-.28h.49v-.33h-2.56v.33h.49l.59.28-2.97,8.33-2.88-8.33.59-.28h.49v-.33h-3.4v.33h.49l.59.28.84,2.4-2.35,6.02-3.09-8.42.59-.28h.49v-.33h-3.42v.33h.49l.59.28,3.44,9.18h.99l2.46-6.26,2.2,6.26Z"/>
      <path class="cls-5" d="M103.78,389h3.28v-.33h-.49l-.59-.28v-3.44c0-1.5-.49-2.52-2.23-2.52-1.29,0-2.04.59-2.53,1.65v-1.51h-2.2v.33h.49l.59.28v5.21l-.59.28h-.49v.33h3.28v-.33h-.49l-.59-.28v-3.56c.36-1.19,1.02-1.93,2.14-1.93.94,0,1.5.46,1.5,2.05v3.44l-.59.28h-.49v.33ZM92.59,385.78c0-1.96.9-3.01,2.2-3.01s2.2,1.05,2.2,3.01-.9,3.01-2.2,3.01-2.2-1.05-2.2-3.01M94.79,389.14c1.75,0,3.36-1.29,3.36-3.36s-1.61-3.36-3.36-3.36-3.36,1.29-3.36,3.36,1.61,3.36,3.36,3.36M88.46,389.14c1.08,0,1.72-.52,1.85-1.96h-.28c-.1,1.11-.66,1.32-1.2,1.32-.6,0-1.05-.27-1.05-1.67v-3.91h2.34v-.36h-2.34v-2.32h-.35l-.77,2.04v.28h-1.39v.36h1.39v3.94c0,1.26.34,2.28,1.81,2.28M81.86,389.14c1.44,0,2.63-.5,2.63-1.95,0-2.8-4.41-1.43-4.41-3.29,0-.72.6-1.15,1.65-1.15.98,0,1.81.38,2.18,1.49h.28v-.98c-.54-.55-1.44-.84-2.45-.84-1.58,0-2.52.71-2.52,1.89,0,2.53,4.51,1.4,4.51,3.3,0,.67-.56,1.19-1.81,1.19-1.4,0-2.14-.66-2.59-1.78h-.28v1.12c.45.55,1.44.99,2.8.99M74.83,389h3.27v-.33h-.49l-.59-.28v-9.18h-2.2v.33h.49l.59.28v8.57l-.59.28h-.49v.33ZM68.6,386.89c0-1.21.6-2.03,1.79-2.03.95,0,1.71.52,1.82,1.6v.78c-.11,1.09-.87,1.57-1.82,1.57-1.11,0-1.79-.65-1.79-1.92M72.21,389h2.2v-.33h-.49l-.59-.28v-3.53c0-1.29-.46-2.43-2.83-2.43-1.19,0-2.11.29-2.73.61v1.26h.28c.34-1.07,1.18-1.56,2.32-1.56,1.41,0,1.83.69,1.83,2.11v.62c-.41-.63-1.15-.95-2.13-.95-1.74,0-2.66,1.03-2.66,2.37s.95,2.25,2.62,2.25c1.01,0,1.76-.32,2.17-.94v.8ZM55.93,389h3.28v-.33h-.49l-.59-.28v-4.24h5.94v4.24l-.59.28h-.49v.33h3.28v-.33h-.49l-.59-.28v-8.57l.59-.28h.49v-.33h-3.28v.33h.49l.59.28v3.98h-5.94v-3.98l.59-.28h.49v-.33h-3.28v.33h.49l.59.28v8.57l-.59.28h-.49v.33ZM43.16,389h3.49v-.33h-.59l-.7-.28v-4.17h2.79l.3,1.68v.57h.33v-4.87h-.33v.57l-.3,1.69h-2.79v-4.24l.88-.08h3.94l.53,2.58v.57h.33v-3.49h-7.88v.33h.49l.59.28v8.57l-.59.28h-.49v.33ZM29.33,389h2.53v-.33h-.49l-.59-.28v-8.3l3.98,7.1h.56l3.8-7.35v8.56l-.59.28h-.49v.33h3.22v-.33h-.49l-.59-.28v-8.57l.59-.28h.49v-.33h-2.2l-3.63,7.01-3.91-7.01h-2.2v.33h.49l.59.28v8.57l-.59.28h-.49v.33Z"/>
      <path class="cls-5" d="M416.05,405h6.63v-2.8h-.42v.56l-.24,1.26h-5.35l2.96-2.33c1.83-1.44,2.8-2.28,2.8-3.93,0-1.76-1.16-2.84-3.09-2.84-1.53,0-2.53.68-3.16,1.33v1.75h.35c.34-1.64,1.23-2.73,2.7-2.73s2.03,1.09,2.03,2.65c0,1.29-.39,2.27-2.03,3.57l-3.18,2.53v.98ZM407.75,403.56l4.09-6.46c.29.76.45,1.77.45,3v.14c0,3.02-1.02,4.62-2.59,4.62-.83,0-1.5-.45-1.95-1.3M407.1,400.24v-.14c0-3.12,1.02-4.76,2.59-4.76.81,0,1.48.45,1.93,1.3l-4.09,6.47c-.28-.74-.43-1.69-.43-2.87M409.7,405.28c2.18,0,3.82-1.99,3.82-5.04v-.14c0-3.15-1.64-5.18-3.82-5.18s-3.82,2.03-3.82,5.18v.14c0,3.05,1.64,5.04,3.82,5.04M401.76,405.14c1.44,0,2.63-.5,2.63-1.95,0-2.8-4.41-1.43-4.41-3.29,0-.72.6-1.15,1.65-1.15.98,0,1.81.38,2.18,1.49h.28v-.98c-.54-.55-1.44-.84-2.45-.84-1.58,0-2.52.71-2.52,1.89,0,2.53,4.51,1.4,4.51,3.3,0,.67-.56,1.19-1.81,1.19-1.4,0-2.14-.66-2.59-1.78h-.28v1.12c.45.55,1.44.99,2.8.99M393.76,405.28c1.95,0,3.51-.88,3.51-2.81,0-3.91-6.38-2.17-6.38-5.27,0-1.22,1.04-1.92,2.51-1.92s2.57.7,3.19,2.73h.28v-2.81h-.27v1.12c-.64-.91-1.73-1.4-3.19-1.4-1.97,0-3.31.88-3.31,2.62,0,3.8,6.38,2.16,6.38,5.31,0,1.14-.84,2.07-2.65,2.07s-3.09-.97-3.59-2.87h-.28v2.95h.27v-1.23c.7,1.01,2.07,1.51,3.54,1.51M381.36,396.8l2.66,3.04h-8.24v.56h8.24l-2.66,3.04.28.31,3.98-3.43v-.39l-3.98-3.43-.28.31ZM364.6,405h5.85v-.33h-1.75l-.59-.28v-9.18h-.48l-1.26.34h-1.68v.33h2.24v8.51l-.59.28h-1.75v.33ZM356.17,403.56l4.09-6.46c.29.76.45,1.77.45,3v.14c0,3.02-1.02,4.62-2.59,4.62-.83,0-1.5-.45-1.95-1.3M355.53,400.24v-.14c0-3.12,1.02-4.76,2.59-4.76.81,0,1.48.45,1.93,1.3l-4.09,6.47c-.28-.74-.43-1.69-.43-2.87M358.12,405.28c2.18,0,3.82-1.99,3.82-5.04v-.14c0-3.15-1.64-5.18-3.82-5.18s-3.82,2.03-3.82,5.18v.14c0,3.05,1.64,5.04,3.82,5.04M350.18,405.14c1.44,0,2.63-.5,2.63-1.95,0-2.8-4.41-1.43-4.41-3.29,0-.72.6-1.15,1.65-1.15.98,0,1.81.38,2.18,1.49h.28v-.98c-.55-.55-1.44-.84-2.45-.84-1.58,0-2.52.71-2.52,1.89,0,2.53,4.51,1.4,4.51,3.3,0,.67-.56,1.19-1.81,1.19-1.4,0-2.14-.66-2.59-1.78h-.28v1.12c.45.55,1.44.99,2.8.99M342.19,405.28c1.95,0,3.51-.88,3.51-2.81,0-3.91-6.38-2.17-6.38-5.27,0-1.22,1.04-1.92,2.51-1.92s2.57.7,3.19,2.73h.28v-2.81h-.27v1.12c-.64-.91-1.74-1.4-3.19-1.4-1.97,0-3.32.88-3.32,2.62,0,3.8,6.38,2.16,6.38,5.31,0,1.14-.84,2.07-2.65,2.07s-3.09-.97-3.59-2.87h-.28v2.95h.27v-1.23c.7,1.01,2.07,1.51,3.54,1.51"/>
      <path class="cls-5" d="M401.63,384.68c.21-1.13.86-1.92,1.98-1.92s1.65.74,1.78,1.92h-3.75ZM403.59,389.14c1.82,0,2.83-1.17,3.08-2.45h-.28c-.18.9-.94,1.89-2.37,1.89-1.54,0-2.46-1.15-2.46-3.04,0-.18.01-.36.03-.53h4.87c-.06-1.23-.7-2.59-2.73-2.59s-3.33,1.34-3.33,3.47,1.4,3.25,3.19,3.25M393.68,387.95v-4.28c.55-.57,1.23-.83,1.9-.83,1.11,0,2.27.7,2.27,2.83,0,1.72-.77,3.1-2.31,3.1-.78,0-1.42-.32-1.86-.81M395.7,389.14c1.79,0,3.3-1.23,3.3-3.51,0-2.44-1.71-3.21-3.15-3.21-1.06,0-1.74.42-2.17.84v-.7h-2.2v.33h.49l.59.28v8.01l-.59.28h-.49v.33h3.28v-.33h-.49l-.59-.28v-2.77c.38.36,1.04.73,2.02.73M385.11,391.8h1.01l3.93-8.62.59-.28h.49v-.33h-2.57v.33h.49l.59.28-2,4.38-1.95-4.38.59-.28h.49v-.33h-3.39v.33h.49l.59.28,2.62,5.63-.92,2.02h-2.02v.28l.98.7ZM381.15,389.14c1.08,0,1.72-.52,1.85-1.96h-.28c-.1,1.11-.66,1.32-1.21,1.32-.6,0-1.05-.27-1.05-1.67v-3.91h2.34v-.36h-2.34v-2.32h-.35l-.77,2.04v.28h-1.39v.36h1.39v3.93c0,1.26.34,2.28,1.81,2.28M370.43,389h3.28v-.33h-.49l-.59-.28v-3.44c0-1.5-.49-2.52-2.23-2.52-1.29,0-2.05.59-2.54,1.65v-1.51h-2.2v.33h.49l.59.28v5.21l-.59.28h-.49v.33h3.27v-.33h-.49l-.59-.28v-3.56c.36-1.19,1.02-1.93,2.14-1.93.94,0,1.5.46,1.5,2.04v3.44l-.59.28h-.49v.33ZM359.95,384.68c.21-1.13.85-1.92,1.98-1.92s1.65.74,1.78,1.92h-3.75ZM361.91,389.14c1.82,0,2.83-1.17,3.08-2.45h-.28c-.18.9-.94,1.89-2.37,1.89-1.54,0-2.46-1.15-2.46-3.04,0-.18.01-.36.03-.53h4.87c-.06-1.23-.7-2.59-2.73-2.59s-3.33,1.34-3.33,3.47,1.4,3.25,3.19,3.25M352,387.95v-4.28c.55-.57,1.23-.83,1.9-.83,1.11,0,2.27.7,2.27,2.83,0,1.72-.77,3.1-2.31,3.1-.79,0-1.42-.32-1.86-.81M354.02,389.14c1.79,0,3.3-1.23,3.3-3.51,0-2.44-1.71-3.21-3.15-3.21-1.07,0-1.74.42-2.17.84v-.7h-2.2v.33h.49l.59.28v8.01l-.59.28h-.49v.33h3.27v-.33h-.49l-.59-.28v-2.77c.38.36,1.04.73,2.02.73M339.42,384.1c0-2.94,1.48-4.82,3.93-4.82s3.95,1.88,3.95,4.82-1.48,4.82-3.95,4.82-3.93-1.88-3.93-4.82M343.35,389.28c2.83,0,5.11-1.94,5.11-5.18s-2.28-5.18-5.11-5.18-5.11,1.94-5.11,5.18,2.29,5.18,5.11,5.18"/>
      <path class="cls-5" d="M219.69,405.14c1.44,0,2.63-.5,2.63-1.95,0-2.8-4.41-1.43-4.41-3.29,0-.72.6-1.15,1.65-1.15.98,0,1.81.38,2.18,1.49h.28v-.98c-.54-.55-1.44-.84-2.45-.84-1.58,0-2.52.71-2.52,1.89,0,2.53,4.51,1.4,4.51,3.3,0,.67-.56,1.19-1.81,1.19-1.4,0-2.14-.66-2.59-1.78h-.28v1.12c.45.55,1.44.99,2.8.99M210.56,400.67c.21-1.14.86-1.92,1.98-1.92s1.65.74,1.78,1.92h-3.75ZM212.52,405.14c1.82,0,2.83-1.17,3.08-2.45h-.28c-.18.9-.94,1.89-2.36,1.89-1.54,0-2.47-1.15-2.47-3.04,0-.18.01-.36.03-.53h4.87c-.06-1.23-.7-2.59-2.73-2.59s-3.33,1.34-3.33,3.47,1.4,3.25,3.19,3.25M205.24,405h3.27v-.33h-.49l-.59-.28v-9.18h-2.2v.33h.49l.59.28v8.57l-.59.28h-.49v.33ZM199.16,407.8h1.01l3.93-8.62.59-.28h.49v-.33h-2.57v.33h.49l.59.28-2,4.38-1.95-4.38.59-.28h.49v-.33h-3.39v.33h.49l.59.28,2.62,5.63-.92,2.02h-2.02v.28l.98.7ZM195.2,405.14c1.08,0,1.72-.52,1.85-1.96h-.28c-.1,1.11-.66,1.32-1.21,1.32-.6,0-1.05-.27-1.05-1.67v-3.91h2.34v-.36h-2.34v-2.32h-.35l-.77,2.04v.28h-1.39v.36h1.39v3.93c0,1.26.34,2.28,1.81,2.28M188.59,405.14c1.44,0,2.63-.5,2.63-1.95,0-2.8-4.41-1.43-4.41-3.29,0-.72.6-1.15,1.65-1.15.98,0,1.81.38,2.19,1.49h.28v-.98c-.54-.55-1.44-.84-2.45-.84-1.58,0-2.52.71-2.52,1.89,0,2.53,4.51,1.4,4.51,3.3,0,.67-.56,1.19-1.81,1.19-1.4,0-2.14-.66-2.59-1.78h-.28v1.12c.45.55,1.44.99,2.8.99M173.32,403.56l4.09-6.45c.29.76.45,1.76.45,3v.14c0,3.02-1.02,4.62-2.59,4.62-.83,0-1.5-.45-1.95-1.3M172.67,400.24v-.14c0-3.12,1.02-4.76,2.59-4.76.81,0,1.48.45,1.93,1.3l-4.09,6.47c-.28-.74-.43-1.69-.43-2.87M175.27,405.28c2.18,0,3.82-1.99,3.82-5.04v-.14c0-3.15-1.64-5.18-3.82-5.18s-3.82,2.03-3.82,5.18v.14c0,3.05,1.64,5.04,3.82,5.04M163.59,398.04c0-1.48.49-2.79,2.23-2.79,1.47,0,2.2.97,2.3,3.09-.11,1.56-1.08,2.38-2.41,2.38-1.56,0-2.12-1.09-2.12-2.69M165.84,394.92c-2.21,0-3.49,1.29-3.49,3.2,0,2.02,1.38,3.01,3.13,3.01,1.3,0,2.16-.56,2.61-1.34-.28,3.56-2.17,4.89-4.27,4.89l-.73-.71h-.41v1.03h1.06c3.57,0,5.6-2.37,5.6-5.94,0-3-1.43-4.14-3.51-4.14"/>
      <path class="cls-5" d="M209.99,389.14c1.44,0,2.63-.5,2.63-1.95,0-2.8-4.41-1.43-4.41-3.29,0-.72.6-1.15,1.65-1.15.98,0,1.81.38,2.18,1.49h.28v-.98c-.54-.55-1.44-.84-2.45-.84-1.58,0-2.52.71-2.52,1.89,0,2.53,4.51,1.4,4.51,3.3,0,.67-.56,1.19-1.81,1.19-1.4,0-2.14-.66-2.59-1.78h-.28v1.12c.45.55,1.44.99,2.8.99M204.09,389.14c1.08,0,1.72-.52,1.85-1.96h-.28c-.1,1.11-.66,1.32-1.2,1.32-.6,0-1.05-.27-1.05-1.67v-3.91h2.34v-.36h-2.34v-2.32h-.35l-.77,2.04v.28h-1.39v.36h1.39v3.93c0,1.26.34,2.28,1.81,2.28M196.03,389.14c1.11,0,1.95-.54,2.44-1.58v1.44h2.2v-.33h-.49l-.59-.28v-5.82h-2.2v.33h.49l.59.28v3.57c-.32,1.21-.99,1.92-2.11,1.92-.84,0-1.39-.43-1.39-2.05v-4.06h-2.2v.33h.49l.59.28v3.44c0,1.6.76,2.52,2.18,2.52M189.06,389.14c1.23,0,2.58-.5,2.94-2.34h-.28c-.26,1.29-1.26,1.78-2.24,1.78-1.29,0-2.52-.83-2.52-2.86,0-1.65.83-2.97,2.35-2.97,1.18,0,1.99.8,2.09,1.77h.28v-1.26c-.42-.43-1.2-.84-2.32-.84-2.09,0-3.56,1.33-3.56,3.46s1.34,3.26,3.26,3.26M173.11,382.04c0-1.49.49-2.79,2.23-2.79,1.47,0,2.2.97,2.3,3.1-.11,1.55-1.08,2.38-2.41,2.38-1.55,0-2.11-1.09-2.11-2.69M175.36,378.92c-2.21,0-3.49,1.29-3.49,3.21,0,2.02,1.38,3.01,3.14,3.01,1.3,0,2.16-.56,2.6-1.34-.28,3.56-2.17,4.89-4.27,4.89l-.73-.72h-.41v1.03h1.06c3.57,0,5.6-2.37,5.6-5.94,0-3-1.43-4.14-3.51-4.14M163.8,387.56l4.09-6.46c.29.76.45,1.76.45,3v.14c0,3.02-1.02,4.62-2.59,4.62-.83,0-1.5-.45-1.95-1.3M163.15,384.24v-.14c0-3.12,1.02-4.76,2.59-4.76.81,0,1.48.45,1.93,1.3l-4.09,6.47c-.28-.74-.43-1.69-.43-2.87M165.75,389.28c2.18,0,3.82-1.99,3.82-5.04v-.14c0-3.15-1.64-5.18-3.82-5.18s-3.82,2.03-3.82,5.18v.14c0,3.05,1.64,5.04,3.82,5.04"/>
      <path class="cls-5" d="M511.21,405h3.27v-.33h-.49l-.59-.28v-3.44c0-1.5-.49-2.52-2.22-2.52-1.29,0-2.05.59-2.54,1.65v-4.87h-2.2v.33h.49l.59.28v8.57l-.59.28h-.49v.33h3.27v-.33h-.49l-.59-.28v-3.56c.37-1.19,1.02-1.93,2.14-1.93.94,0,1.5.46,1.5,2.05v3.44l-.59.28h-.49v.33ZM503.75,405.14c1.08,0,1.72-.52,1.85-1.96h-.28c-.1,1.11-.66,1.32-1.21,1.32-.6,0-1.05-.27-1.05-1.67v-3.91h2.34v-.36h-2.34v-2.32h-.35l-.77,2.04v.28h-1.39v.36h1.39v3.93c0,1.26.34,2.28,1.81,2.28M493.74,401.82c0-1.71.67-3.02,2.31-3.02.8,0,1.4.29,1.85.8v4.3c-.53.57-1.18.83-1.89.83-1.23,0-2.27-.78-2.27-2.9M497.9,405h2.2v-.33h-.49l-.59-.28v-9.18h-2.2v.33h.49l.59.28v3.35c-.35-.41-1.05-.74-2.04-.74-1.85,0-3.28,1.15-3.28,3.37,0,2.41,1.68,3.34,3.23,3.34,1.02,0,1.67-.42,2.09-.84v.7ZM489.1,396.66c0,.55.42.84.82.84s.83-.29.83-.84-.42-.83-.83-.83-.82.27-.82.83M488.32,405h3.27v-.33h-.49l-.59-.28v-5.82h-2.2v.33h.49l.59.28v5.21l-.59.28h-.49v.33ZM484.09,405h.39l2.27-5.82.59-.28h.49v-.33h-2.55v.33h.49l.59.28-1.71,4.47-1.6-4.47.59-.28h.49v-.33h-3.33v.33h.49l.59.28.28.71-1.55,3.79-1.61-4.51.59-.28h.49v-.33h-3.33v.33h.49l.59.28,2.21,5.82h.39l1.92-4.62,1.75,4.62ZM467.64,405.28c2.1,0,3.51-1.27,3.51-3.41,0-2.03-1.26-3.16-3.14-3.16-1.22,0-2.06.49-2.63,1.26v-3.61h5.2v-1.15h-5.32l-.28,1.12v4.41h.29c.55-.98,1.29-1.61,2.44-1.61,1.33,0,2.21.85,2.21,2.82s-.88,3.01-2.3,3.01c-1.25,0-2.25-.91-2.51-2.6h-.43v1.95c.53.43,1.55.99,2.95.99M456.4,405h1.53l3.71-9.45v-.35h-6.72v2.35h.31v-.34l.24-.9h5.52l-4.58,8.68ZM446.15,400.07l-.17.17,1.51,2h-5.24v-7.04h-.56v7.57h5.79l-1.51,2,.17.17,2.55-2.23v-.42l-2.55-2.23Z"/>
      <path class="cls-5" d="M574.11,389.14c1.08,0,1.72-.52,1.85-1.96h-.28c-.1,1.11-.66,1.32-1.2,1.32-.6,0-1.05-.27-1.05-1.67v-3.91h2.34v-.36h-2.34v-2.32h-.35l-.77,2.04v.28h-1.39v.36h1.39v3.94c0,1.26.34,2.28,1.8,2.28M567.39,389h3.27v-.33h-.49l-.59-.28v-3.44c0-1.5-.49-2.52-2.22-2.52-1.29,0-2.04.59-2.54,1.65v-4.87h-2.2v.33h.49l.59.28v8.57l-.59.28h-.49v.33h3.27v-.33h-.49l-.59-.28v-3.56c.36-1.19,1.02-1.93,2.14-1.93.94,0,1.5.46,1.5,2.05v3.44l-.59.28h-.49v.33ZM556.68,384.45c0-1.33.74-1.89,1.58-1.89s1.58.55,1.58,1.88-.78,1.91-1.58,1.91-1.58-.52-1.58-1.89M556.12,390.37c0-.74.45-1.22,1.78-1.5l1.6.28c.84.14,1.43.42,1.43,1.13,0,.97-1.04,1.37-2.59,1.37s-2.21-.41-2.21-1.29M558.15,391.94c2.27,0,3.61-.73,3.61-2.13,0-.99-.76-1.5-2-1.71l-3.71-.63,2.16-.85h.06c1.13,0,2.66-.64,2.66-2.18,0-.69-.31-1.19-.74-1.54h.81l.85.14h.2v-.47h-2.43c-.42-.2-.91-.28-1.35-.28-1.2,0-2.66.67-2.66,2.15,0,1.25,1.02,1.92,2.02,2.11l-1.95.77v1.18l1.58.27c-1.54.31-2.14.83-2.14,1.58,0,.92.87,1.59,3.04,1.59M551.92,380.66c0,.55.42.84.83.84s.83-.29.83-.84-.42-.83-.83-.83-.83.27-.83.83M551.14,389h3.28v-.33h-.49l-.59-.28v-5.82h-2.2v.33h.49l.59.28v5.21l-.59.28h-.49v.33ZM545.28,384.67c.21-1.14.85-1.92,1.97-1.92s1.65.74,1.78,1.92h-3.75ZM547.25,389.14c1.82,0,2.83-1.17,3.08-2.45h-.28c-.18.9-.94,1.89-2.36,1.89-1.54,0-2.46-1.15-2.46-3.04,0-.18.01-.37.03-.53h4.87c-.06-1.23-.7-2.59-2.73-2.59s-3.33,1.34-3.33,3.47,1.4,3.25,3.19,3.25M539.71,389h.39l2.27-5.82.59-.28h.49v-.33h-2.55v.33h.49l.59.28-1.71,4.47-1.6-4.47.59-.28h.49v-.33h-3.33v.33h.49l.59.28.28.71-1.55,3.79-1.61-4.51.59-.28h.49v-.33h-3.33v.33h.49l.59.28,2.21,5.82h.39l1.92-4.62,1.75,4.62ZM522.38,387.56l4.09-6.46c.29.76.45,1.76.45,3v.14c0,3.03-1.02,4.62-2.59,4.62-.83,0-1.5-.45-1.95-1.3M521.74,384.24v-.14c0-3.12,1.02-4.76,2.59-4.76.81,0,1.48.45,1.93,1.3l-4.09,6.47c-.28-.74-.43-1.7-.43-2.87M524.33,389.28c2.18,0,3.82-1.99,3.82-5.04v-.14c0-3.15-1.64-5.18-3.82-5.18s-3.82,2.03-3.82,5.18v.14c0,3.05,1.64,5.04,3.82,5.04M512.72,387.56l4.09-6.46c.29.76.45,1.76.45,3v.14c0,3.03-1.02,4.62-2.59,4.62-.83,0-1.5-.45-1.95-1.3M512.08,384.24v-.14c0-3.12,1.02-4.76,2.59-4.76.81,0,1.48.45,1.93,1.3l-4.09,6.47c-.28-.74-.43-1.7-.43-2.87M514.67,389.28c2.18,0,3.82-1.99,3.82-5.04v-.14c0-3.15-1.64-5.18-3.82-5.18s-3.82,2.03-3.82,5.18v.14c0,3.05,1.64,5.04,3.82,5.04M504.92,389.28c2.1,0,3.51-1.27,3.51-3.42,0-2.03-1.26-3.16-3.14-3.16-1.22,0-2.06.49-2.63,1.26v-3.61h5.2v-1.15h-5.32l-.28,1.12v4.41h.29c.54-.98,1.29-1.61,2.44-1.61,1.33,0,2.21.85,2.21,2.81s-.88,3.01-2.3,3.01c-1.25,0-2.26-.91-2.51-2.61h-.43v1.95c.53.43,1.55.99,2.95.99M491.39,380.8l2.66,3.04h-8.25v.56h8.25l-2.66,3.04.28.31,3.97-3.43v-.39l-3.97-3.43-.28.31ZM475.44,387.56l4.09-6.46c.29.76.45,1.76.45,3v.14c0,3.03-1.02,4.62-2.59,4.62-.83,0-1.5-.45-1.95-1.3M474.8,384.24v-.14c0-3.12,1.02-4.76,2.59-4.76.81,0,1.48.45,1.93,1.3l-4.09,6.47c-.28-.74-.43-1.7-.43-2.87M477.39,389.28c2.18,0,3.82-1.99,3.82-5.04v-.14c0-3.15-1.64-5.18-3.82-5.18s-3.82,2.03-3.82,5.18v.14c0,3.05,1.64,5.04,3.82,5.04M465.78,387.56l4.09-6.46c.29.76.45,1.76.45,3v.14c0,3.03-1.02,4.62-2.59,4.62-.83,0-1.5-.45-1.95-1.3M465.14,384.24v-.14c0-3.12,1.02-4.76,2.59-4.76.81,0,1.48.45,1.93,1.3l-4.09,6.47c-.28-.74-.43-1.7-.43-2.87M467.73,389.28c2.18,0,3.82-1.99,3.82-5.04v-.14c0-3.15-1.64-5.18-3.82-5.18s-3.82,2.03-3.82,5.18v.14c0,3.05,1.64,5.04,3.82,5.04M454.9,389h6.63v-2.8h-.42v.56l-.24,1.26h-5.35l2.95-2.32c1.83-1.44,2.8-2.28,2.8-3.94,0-1.76-1.16-2.84-3.09-2.84-1.53,0-2.53.68-3.16,1.33v1.75h.35c.34-1.64,1.23-2.73,2.7-2.73s2.03,1.09,2.03,2.65c0,1.29-.39,2.27-2.03,3.57l-3.18,2.53v.98ZM446.15,384.07l-.17.17,1.51,2h-5.24v-7.04h-.56v7.57h5.79l-1.51,2,.17.17,2.55-2.23v-.42l-2.55-2.23Z"/>
    </g>
    <rect class="cls-6" y="409" width="616" height="14"/>
  </g>
</svg>