<?xml version="1.0" encoding="UTF-8"?>
<svg id="Calque_1" data-name="Calque 1" xmlns="http://www.w3.org/2000/svg" xmlns:xlink="http://www.w3.org/1999/xlink" viewBox="0 0 616 860">
  <defs>
    <style>
      .cls-1 {
        clip-path: url(#clippath);
      }

      .cls-2 {
        fill: none;
      }

      .cls-2, .cls-3, .cls-4, .cls-5, .cls-6, .cls-7, .cls-8 {
        stroke-width: 0px;
      }

      .cls-9 {
        mask: url(#mask);
      }

      .cls-10 {
        clip-path: url(#clippath-1);
      }

      .cls-11 {
        clip-path: url(#clippath-4);
      }

      .cls-12 {
        clip-path: url(#clippath-3);
      }

      .cls-13 {
        clip-path: url(#clippath-2);
      }

      .cls-14 {
        clip-path: url(#clippath-7);
      }

      .cls-15 {
        clip-path: url(#clippath-8);
      }

      .cls-16 {
        clip-path: url(#clippath-6);
      }

      .cls-17 {
        clip-path: url(#clippath-5);
      }

      .cls-3 {
        fill: url(#Dégradé_sans_nom_8);
      }

      .cls-4 {
        fill: url(#Dégradé_sans_nom_9);
      }

      .cls-5 {
        fill: url(#Dégradé_sans_nom_7);
      }

      .cls-18 {
        mask: url(#mask-1);
      }

      .cls-7 {
        fill: #fff;
      }

      .cls-8 {
        fill: url(#Dégradé_sans_nom_10);
      }
    </style>
    <clipPath id="clippath">
      <rect class="cls-2" width="616" height="860"/>
    </clipPath>
    <clipPath id="clippath-1">
      <rect class="cls-2" width="616" height="860"/>
    </clipPath>
    <clipPath id="clippath-2">
      <rect class="cls-2" width="616" height="860"/>
    </clipPath>
    <radialGradient id="Dégradé_sans_nom_8" data-name="Dégradé sans nom 8" cx="0" cy="860" fx="0" fy="860" r="1" gradientTransform="translate(242.72 -147467.08) scale(172.26)" gradientUnits="userSpaceOnUse">
      <stop offset="0" stop-color="#fff"/>
      <stop offset=".15" stop-color="#fbfbfb"/>
      <stop offset=".28" stop-color="#f1f1f1"/>
      <stop offset=".4" stop-color="#dfdfdf"/>
      <stop offset=".52" stop-color="#c7c7c7"/>
      <stop offset=".63" stop-color="#a7a7a7"/>
      <stop offset=".74" stop-color="gray"/>
      <stop offset=".84" stop-color="#525252"/>
      <stop offset=".95" stop-color="#1e1e1e"/>
      <stop offset="1" stop-color="#000"/>
    </radialGradient>
    <mask id="mask" x="0" y="0" width="616" height="860" maskUnits="userSpaceOnUse">
      <rect class="cls-3" width="616" height="860"/>
    </mask>
    <clipPath id="clippath-3">
      <rect class="cls-2" x="69.47" y="500.24" width="346.51" height="346.51"/>
    </clipPath>
    <clipPath id="clippath-4">
      <path class="cls-2" d="M242.73,501.24c95.13,0,172.26,77.12,172.26,172.26s-77.12,172.26-172.26,172.26-172.26-77.12-172.26-172.26,77.12-172.26,172.26-172.26"/>
    </clipPath>
    <radialGradient id="Dégradé_sans_nom_7" data-name="Dégradé sans nom 7" cx="0" cy="860" fx="0" fy="860" r="1" gradientTransform="translate(242.72 -147467.08) scale(172.26)" gradientUnits="userSpaceOnUse">
      <stop offset="0" stop-color="#010202"/>
      <stop offset=".42" stop-color="#010202"/>
      <stop offset=".47" stop-color="#090a0a"/>
      <stop offset=".55" stop-color="#222323"/>
      <stop offset=".65" stop-color="#494a4a"/>
      <stop offset=".76" stop-color="#818181"/>
      <stop offset=".89" stop-color="#c6c6c6"/>
      <stop offset=".99" stop-color="#fff"/>
      <stop offset="1" stop-color="#fff"/>
    </radialGradient>
    <clipPath id="clippath-5">
      <rect class="cls-2" width="616" height="860"/>
    </clipPath>
    <clipPath id="clippath-6">
      <rect class="cls-2" width="616" height="860"/>
    </clipPath>
    <radialGradient id="Dégradé_sans_nom_10" data-name="Dégradé sans nom 10" cx="0" cy="860" fx="0" fy="860" r="1" gradientTransform="translate(305.81 -188757.24) scale(219.91)" gradientUnits="userSpaceOnUse">
      <stop offset="0" stop-color="#fff"/>
      <stop offset=".15" stop-color="#fbfbfb"/>
      <stop offset=".28" stop-color="#f1f1f1"/>
      <stop offset=".4" stop-color="#dfdfdf"/>
      <stop offset=".52" stop-color="#c7c7c7"/>
      <stop offset=".63" stop-color="#a7a7a7"/>
      <stop offset=".74" stop-color="gray"/>
      <stop offset=".84" stop-color="#525252"/>
      <stop offset=".95" stop-color="#1e1e1e"/>
      <stop offset="1" stop-color="#000"/>
    </radialGradient>
    <mask id="mask-1" x="0" y="0" width="616" height="860" maskUnits="userSpaceOnUse">
      <rect class="cls-8" width="616" height="860"/>
    </mask>
    <clipPath id="clippath-7">
      <rect class="cls-2" x="84.91" y="140.33" width="441.81" height="441.81"/>
    </clipPath>
    <clipPath id="clippath-8">
      <path class="cls-2" d="M305.81,141.33c121.45,0,219.9,98.46,219.9,219.91s-98.46,219.9-219.9,219.9-219.91-98.46-219.91-219.9,98.45-219.91,219.91-219.91"/>
    </clipPath>
    <radialGradient id="Dégradé_sans_nom_9" data-name="Dégradé sans nom 9" cx="0" cy="860" fx="0" fy="860" r="1" gradientTransform="translate(305.81 -188757.24) scale(219.91)" gradientUnits="userSpaceOnUse">
      <stop offset="0" stop-color="#010202"/>
      <stop offset=".42" stop-color="#010202"/>
      <stop offset=".47" stop-color="#090a0a"/>
      <stop offset=".55" stop-color="#222323"/>
      <stop offset=".65" stop-color="#494a4a"/>
      <stop offset=".76" stop-color="#818181"/>
      <stop offset=".89" stop-color="#c6c6c6"/>
      <stop offset=".99" stop-color="#fff"/>
      <stop offset="1" stop-color="#fff"/>
    </radialGradient>
  </defs>
  <g class="cls-1">
    <g class="cls-10">
      <g class="cls-13">
        <path class="cls-6" d="M72.45,765.49v-3.5c0-29.46,18.67-41.71,52.51-44.34l74.68-5.83v22.75c0,51.63-36.76,70.01-66.51,70.01h-19.84c-23.92,0-40.84-14-40.84-39.09M116.2,853c34.71,0,64.18-9.33,83.72-39.09v32.09h86.64v-51.34h-29.75v-150.52c0-71.76-50.17-103.85-115.22-103.85s-119.89,35-119.89,96.55v4.96h58.34v-4.67c0-31.8,17.5-45.51,40.84-45.51h38.5c24.5,0,39.09,13.71,39.09,50.17v19.25l-73.51,5.54c-88.39,6.71-110.85,53.09-110.85,92.47v3.5c0,54.55,34.13,90.43,102.1,90.43"/>
        <g class="cls-9">
          <g class="cls-12">
            <g class="cls-11">
              <rect class="cls-5" x="70.47" y="501.24" width="344.51" height="344.51"/>
            </g>
          </g>
        </g>
        <path class="cls-6" d="M95.09,43.6h5.86v-1.47h-2.02v-9.73h-3.84v1.52h2.21v8.21h-2.21v1.47ZM87.77,41.14l4.34-4.51v2.65c0,2.66-.92,3.04-1.94,3.04h-.7c-.7,0-1.36-.18-1.7-1.18M87.53,39.28v-2.56c0-2.59.92-3.04,1.94-3.04h.7c.72,0,1.4.22,1.73,1.29l-4.37,4.6v-.29ZM89.81,43.79c2.81,0,3.92-1.81,3.92-4.51v-2.56c0-2.66-1.11-4.51-3.92-4.51s-3.92,1.85-3.92,4.51v2.56c0,2.7,1.11,4.51,3.92,4.51M73.78,43.6h1.6v-5.17c0-1.22.51-1.78,1.31-1.78h.85c.82,0,1.15.4,1.15,1.54v5.41h1.6v-5.65c0-2.02-1.02-2.74-2.73-2.74-.89,0-1.66.22-2.18.84v-.65h-1.6v8.19ZM66.29,41.39v-.1c0-.81.51-1.14,1.44-1.22l2.05-.16v.62c0,1.42-1.01,1.92-1.82,1.92h-.54c-.66,0-1.12-.38-1.12-1.07M67.5,43.79c.95,0,1.76-.26,2.3-1.07v.88h2.38v-1.41h-.82v-4.13c0-1.97-1.38-2.85-3.16-2.85s-3.29.96-3.29,2.65v.14h1.6v-.13c0-.87.48-1.25,1.12-1.25h1.06c.67,0,1.07.38,1.07,1.38v.53l-2.02.15c-2.42.18-3.04,1.46-3.04,2.54v.1c0,1.5.94,2.48,2.8,2.48M61.34,43.6h1.6v-11.2h-1.6v11.2ZM53.81,40.14v-1.28c0-1.66.71-2.22,1.7-2.22h.85c.77,0,1.5.56,1.5,2.22v1.28c0,1.66-.62,2.22-1.5,2.22h-.85c-.91,0-1.7-.56-1.7-2.22M52.3,46.8h1.6v-3.87c.39.48.98.86,2.16.86,1.89,0,3.39-.7,3.39-3.57v-1.36c0-2.86-1.5-3.65-3.31-3.65-1.22,0-1.82.31-2.24.84v-.65h-1.6v11.39ZM43.94,43.6h1.6v-3.87h.9l2.85,3.87h1.9l-3.39-4.58,3.25-3.62h-1.97l-2.58,2.91h-.96v-5.92h-1.6v11.2ZM38.55,43.6h1.6v-6.78h2.54v-1.41h-4.14v8.19ZM31.03,39.9v-.8c0-1.66.54-2.46,1.5-2.46h1.02c.88,0,1.5.8,1.5,2.46v.8c0,1.66-.62,2.46-1.5,2.46h-1.02c-.96,0-1.5-.8-1.5-2.46M33.05,43.79c2.3,0,3.62-1.34,3.62-3.57v-1.44c0-2.22-1.31-3.57-3.62-3.57s-3.62,1.34-3.62,3.57v1.44c0,2.22,1.31,3.57,3.62,3.57M16.7,43.6h2.82l1.95-9.02,1.95,9.02h2.82l2.54-11.2h-1.66l-2.19,9.73h-.19l-2.13-9.73h-2.27l-2.13,9.73h-.19l-2.19-9.73h-1.66l2.54,11.2Z"/>
        <path class="cls-6" d="M88.25,25.39v-.1c0-.81.51-1.14,1.44-1.22l2.05-.16v.62c0,1.42-1.01,1.92-1.82,1.92h-.54c-.66,0-1.12-.38-1.12-1.07M89.45,27.79c.95,0,1.76-.26,2.3-1.07v.88h2.38v-1.41h-.82v-4.13c0-1.97-1.38-2.85-3.16-2.85s-3.29.96-3.29,2.65v.14h1.6v-.13c0-.87.48-1.25,1.12-1.25h1.06c.67,0,1.07.38,1.07,1.38v.53l-2.02.15c-2.42.18-3.04,1.46-3.04,2.54v.1c0,1.5.94,2.48,2.8,2.48M83.3,27.6h1.6v-11.2h-1.6v11.2ZM77.85,27.79c1.76,0,3.3-.67,3.3-3.02v-5.36h-1.6v5.06c0,1.7-.53,1.86-1.33,1.86h-.74c-.8,0-1.33-.16-1.33-1.86v-5.06h-1.6v5.36c0,2.35,1.54,3.02,3.3,3.02M69.52,27.79c2.16,0,3.47-1,3.47-3.18v-.2h-1.6v.18c0,1.54-.89,1.78-1.52,1.78h-.7c-.99,0-1.57-.59-1.57-2v-1.68c0-1.49.58-2.08,1.57-2.08h.7c.62,0,1.52.25,1.52,1.75v.22h1.6v-.18c0-2.2-1.3-3.2-3.47-3.2-2.62,0-3.52,1.5-3.52,3.49v1.68c0,1.9.9,3.41,3.52,3.41M58.9,25.39v-.1c0-.81.51-1.14,1.44-1.22l2.05-.16v.62c0,1.42-1.01,1.92-1.82,1.92h-.54c-.66,0-1.12-.38-1.12-1.07M60.1,27.79c.95,0,1.76-.26,2.3-1.07v.88h2.38v-1.41h-.82v-4.13c0-1.97-1.38-2.85-3.16-2.85s-3.29.96-3.29,2.65v.14h1.6v-.13c0-.87.48-1.25,1.12-1.25h1.06c.67,0,1.07.38,1.07,1.38v.53l-2.02.15c-2.42.18-3.04,1.46-3.04,2.54v.1c0,1.5.94,2.48,2.8,2.48M44.59,27.6h1.6v-5.17c0-1.22.51-1.78,1.31-1.78h.85c.71,0,.99.4.99,1.54v5.41h1.6v-5.15c0-1.23.51-1.79,1.31-1.79h.85c.71,0,.99.4.99,1.54v5.41h1.6v-5.65c0-2.02-.96-2.74-2.57-2.74-.94,0-1.93.25-2.58.98-.42-.7-1.18-.98-2.18-.98-.9,0-1.67.22-2.18.82v-.63h-1.6v8.19ZM40.67,27.6h1.63v-11.2h-1.63v11.2ZM28.58,27.6h1.63v-4.94h4.32v-1.47h-4.32v-3.31h5.12v-1.47h-6.75v11.2ZM15.26,27.6h1.63v-9.57h.22l2.38,7.5h2.3l2.38-7.5h.22v9.57h1.63v-11.2h-2.98l-2.42,7.92-2.42-7.92h-2.98v11.2Z"/>
        <path class="cls-6" d="M321.51,43.6h6.74v-1.47h-2.42v-9.73h-4.32v1.52h2.69v8.21h-2.69v1.47ZM313.31,41.14l4.34-4.51v2.65c0,2.66-.92,3.04-1.94,3.04h-.7c-.7,0-1.36-.18-1.7-1.18M313.07,39.28v-2.56c0-2.59.92-3.04,1.94-3.04h.7c.72,0,1.4.22,1.73,1.29l-4.37,4.6v-.29ZM315.36,43.79c2.81,0,3.92-1.81,3.92-4.51v-2.56c0-2.66-1.11-4.51-3.92-4.51s-3.92,1.85-3.92,4.51v2.56c0,2.7,1.11,4.51,3.92,4.51M306.96,43.79c2.34,0,3.14-1.2,3.14-2.26v-.14c0-1.3-.42-2.03-2.11-2.38l-1.78-.37c-.64-.14-.98-.5-.98-1.06v-.06c0-.52.42-.89.98-.89h.9c.66,0,1.29.35,1.29,1.39v.16h1.6v-.16c0-1.78-1.24-2.8-3.34-2.8-1.7,0-3.02.96-3.02,2.3v.3c0,.98.62,1.85,2.11,2.17l1.89.4c.62.14.86.42.86,1.01v.14c0,.46-.45.85-1.09.85h-.91c-.54,0-1.33-.06-1.33-1.57v-.16h-1.63v.16c0,1.92,1.06,2.98,3.42,2.98M298.12,43.79c2.81,0,3.95-1.41,3.95-2.93v-.42c0-1.56-.8-2.69-2.96-3.07l-1.54-.27c-1.55-.27-1.84-.89-1.84-1.57v-.24c0-.94.61-1.62,1.84-1.62h.77c1.07,0,1.92.58,1.92,2.08v.16h1.66v-.16c0-2.27-1.63-3.55-3.97-3.55s-3.86,1.31-3.86,3.09v.4c0,1.34.92,2.53,2.85,2.88l2.1.38c.91.17,1.39.82,1.39,1.57v.34c0,1.02-.8,1.46-1.87,1.46h-.62c-1.12,0-2.26-.22-2.26-2.08v-.32h-1.66v.32c0,.57,0,3.55,4.1,3.55"/>
        <path class="cls-6" d="M359.76,22.58c.03-1.17.38-1.95,1.56-1.95h.87c.77,0,1.38.37,1.38,1.92v.03h-3.81ZM361.67,27.79c2.18,0,3.5-.85,3.5-2.74v-.06h-1.6v.08c0,.83-.42,1.29-1.27,1.29h-.97c-1.14,0-1.56-.65-1.56-2.16v-.22h5.42v-1.25c0-1.74-.51-3.52-3.42-3.52-2.13,0-3.6.94-3.6,3.52v1.41c0,2.13.85,3.65,3.5,3.65M350.88,24.14v-1.28c0-1.66.71-2.22,1.7-2.22h.85c.77,0,1.5.56,1.5,2.22v1.28c0,1.66-.62,2.22-1.5,2.22h-.85c-.91,0-1.7-.56-1.7-2.22M349.38,30.8h1.6v-3.87c.39.48.98.86,2.16.86,1.89,0,3.39-.7,3.39-3.57v-1.36c0-2.86-1.5-3.65-3.31-3.65-1.22,0-1.82.31-2.24.84v-.65h-1.6v11.39ZM343.08,30.8h1.66l3.36-11.39h-1.76l-1.84,6.78h-.45l-1.84-6.78h-1.76l2.42,8.19h1.22l-1.02,3.2ZM335.86,27.6h3.79v-1.41h-2.19v-5.38h2.19v-1.41h-2.19v-1.97h-1.6v1.97h-1.49v1.41h1.49v6.78ZM322.82,27.6h1.6v-5.17c0-1.22.51-1.78,1.31-1.78h.85c.82,0,1.15.4,1.15,1.54v5.41h1.6v-5.65c0-2.02-1.02-2.74-2.73-2.74-.89,0-1.66.22-2.18.84v-.65h-1.6v8.19ZM315.52,22.58c.03-1.17.38-1.95,1.56-1.95h.87c.77,0,1.38.37,1.38,1.92v.03h-3.81ZM317.43,27.79c2.18,0,3.5-.85,3.5-2.74v-.06h-1.6v.08c0,.83-.42,1.29-1.27,1.29h-.97c-1.14,0-1.56-.65-1.56-2.16v-.22h5.42v-1.25c0-1.74-.51-3.52-3.42-3.52-2.13,0-3.6.94-3.6,3.52v1.41c0,2.13.85,3.65,3.5,3.65M306.64,24.14v-1.28c0-1.66.71-2.22,1.7-2.22h.85c.77,0,1.5.56,1.5,2.22v1.28c0,1.66-.62,2.22-1.5,2.22h-.85c-.91,0-1.7-.56-1.7-2.22M305.14,30.8h1.6v-3.87c.39.48.98.86,2.16.86,1.89,0,3.39-.7,3.39-3.57v-1.36c0-2.86-1.5-3.65-3.31-3.65-1.22,0-1.82.31-2.24.84v-.65h-1.6v11.39ZM295.89,22.96v-1.84c0-3.07,1.33-3.44,2.42-3.44h.7c1.09,0,2.42.37,2.42,3.44v1.84c0,3.07-1.33,3.36-2.42,3.36h-.7c-1.09,0-2.42-.29-2.42-3.36M298.66,27.79c2.76,0,4.4-1.68,4.4-4.67v-2.16c0-2.99-1.64-4.75-4.4-4.75s-4.4,1.76-4.4,4.75v2.16c0,2.99,1.64,4.67,4.4,4.67"/>
        <path class="cls-6" d="M213.2,43.79c2.34,0,3.14-1.2,3.14-2.26v-.14c0-1.3-.42-2.03-2.11-2.38l-1.78-.37c-.64-.14-.98-.5-.98-1.06v-.06c0-.52.42-.89.98-.89h.9c.66,0,1.29.35,1.29,1.39v.16h1.6v-.16c0-1.78-1.24-2.8-3.34-2.8-1.7,0-3.02.96-3.02,2.3v.3c0,.98.62,1.85,2.11,2.17l1.89.4c.62.14.86.42.86,1.01v.14c0,.46-.45.85-1.09.85h-.91c-.54,0-1.33-.06-1.33-1.57v-.16h-1.63v.16c0,1.92,1.06,2.98,3.42,2.98M202.87,38.58c.03-1.17.38-1.95,1.56-1.95h.87c.77,0,1.38.37,1.38,1.92v.03h-3.81ZM204.77,43.79c2.18,0,3.5-.85,3.5-2.74v-.06h-1.6v.08c0,.83-.42,1.29-1.27,1.29h-.97c-1.14,0-1.56-.65-1.56-2.16v-.22h5.42v-1.25c0-1.74-.51-3.52-3.42-3.52-2.13,0-3.6.94-3.6,3.52v1.41c0,2.13.85,3.65,3.5,3.65M197.78,43.6h1.6v-11.2h-1.6v11.2ZM191.48,46.8h1.66l3.36-11.39h-1.76l-1.84,6.78h-.45l-1.84-6.78h-1.76l2.42,8.19h1.22l-1.02,3.2ZM184.26,43.6h3.79v-1.41h-2.19v-5.38h2.19v-1.41h-2.19v-1.97h-1.6v1.97h-1.49v1.41h1.49v6.78ZM178.68,43.79c2.34,0,3.14-1.2,3.14-2.26v-.14c0-1.3-.42-2.03-2.11-2.38l-1.78-.37c-.64-.14-.98-.5-.98-1.06v-.06c0-.52.42-.89.98-.89h.9c.66,0,1.29.35,1.29,1.39v.16h1.6v-.16c0-1.78-1.24-2.8-3.34-2.8-1.7,0-3.02.96-3.02,2.3v.3c0,.98.62,1.85,2.11,2.17l1.89.4c.62.14.86.42.86,1.01v.14c0,.46-.45.85-1.09.85h-.91c-.54,0-1.33-.06-1.33-1.57v-.16h-1.63v.16c0,1.92,1.06,2.98,3.42,2.98M158.22,41.14l4.34-4.51v2.65c0,2.66-.92,3.04-1.94,3.04h-.7c-.7,0-1.36-.18-1.7-1.18M157.98,39.28v-2.56c0-2.59.92-3.04,1.94-3.04h.7c.72,0,1.4.22,1.73,1.29l-4.37,4.6v-.29ZM160.27,43.79c2.81,0,3.92-1.81,3.92-4.51v-2.56c0-2.66-1.11-4.51-3.92-4.51s-3.92,1.85-3.92,4.51v2.56c0,2.7,1.11,4.51,3.92,4.51M148.91,36.08v-.26c0-1.5.7-2.14,1.68-2.14h.74c.98,0,1.68.83,1.68,2.24v.08c0,1.49-.7,2.11-1.68,2.11h-.74c-.98,0-1.68-.51-1.68-2.03M150.96,32.21c-2.1,0-3.68,1.14-3.68,3.62v.42c0,2.34,1.35,3.34,3.31,3.34,1.31,0,2.12-.47,2.42-.97v.28c0,2.11-.58,3.42-1.8,3.42h-.77c-1.02,0-1.49-.72-1.49-1.7v-.13h-1.63v.13c0,2.02,1.17,3.17,3.42,3.17,2.88,0,3.9-2.05,3.9-5.41v-1.33c0-3.47-1.54-4.85-3.68-4.85"/>
        <path class="cls-6" d="M201.77,27.79c2.34,0,3.14-1.2,3.14-2.26v-.14c0-1.3-.42-2.03-2.11-2.38l-1.78-.37c-.64-.14-.98-.5-.98-1.06v-.06c0-.52.42-.89.98-.89h.9c.66,0,1.29.35,1.29,1.39v.16h1.6v-.16c0-1.78-1.24-2.8-3.34-2.8-1.7,0-3.02.96-3.02,2.3v.3c0,.98.62,1.85,2.11,2.17l1.89.4c.62.14.86.42.86,1.01v.14c0,.46-.45.85-1.09.85h-.91c-.54,0-1.33-.06-1.33-1.57v-.16h-1.63v.16c0,1.92,1.06,2.98,3.42,2.98M193.46,27.6h3.79v-1.41h-2.19v-5.38h2.19v-1.41h-2.19v-1.97h-1.6v1.97h-1.49v1.41h1.49v6.78ZM187.26,27.79c1.76,0,3.3-.67,3.3-3.02v-5.36h-1.6v5.06c0,1.7-.53,1.86-1.33,1.86h-.74c-.8,0-1.33-.16-1.33-1.86v-5.06h-1.6v5.36c0,2.35,1.54,3.02,3.3,3.02M178.93,27.79c2.16,0,3.47-1,3.47-3.18v-.2h-1.6v.18c0,1.54-.89,1.78-1.52,1.78h-.7c-.99,0-1.57-.59-1.57-2v-1.68c0-1.49.58-2.08,1.57-2.08h.7c.62,0,1.52.25,1.52,1.75v.22h1.6v-.18c0-2.2-1.3-3.2-3.47-3.2-2.62,0-3.52,1.5-3.52,3.49v1.68c0,1.9.9,3.41,3.52,3.41M158.22,20.08v-.26c0-1.5.7-2.14,1.68-2.14h.74c.98,0,1.68.83,1.68,2.24v.08c0,1.49-.7,2.11-1.68,2.11h-.74c-.98,0-1.68-.51-1.68-2.03M160.27,16.21c-2.1,0-3.68,1.14-3.68,3.62v.42c0,2.34,1.35,3.34,3.31,3.34,1.31,0,2.12-.47,2.42-.97v.28c0,2.11-.58,3.42-1.8,3.42h-.77c-1.02,0-1.49-.72-1.49-1.7v-.13h-1.63v.13c0,2.02,1.17,3.17,3.42,3.17,2.88,0,3.9-2.05,3.9-5.41v-1.33c0-3.47-1.54-4.85-3.68-4.85M148.91,25.14l4.34-4.51v2.65c0,2.66-.92,3.04-1.94,3.04h-.7c-.7,0-1.36-.18-1.7-1.18M148.67,23.28v-2.56c0-2.59.92-3.04,1.94-3.04h.7c.72,0,1.4.22,1.73,1.29l-4.37,4.6v-.29ZM150.96,27.79c2.81,0,3.92-1.81,3.92-4.51v-2.56c0-2.66-1.11-4.51-3.92-4.51s-3.92,1.85-3.92,4.51v2.56c0,2.7,1.11,4.51,3.92,4.51"/>
        <path class="cls-6" d="M524.88,43.6h1.6v-5.17c0-1.22.51-1.78,1.31-1.78h.85c.82,0,1.15.4,1.15,1.54v5.41h1.6v-5.65c0-2.02-1.02-2.74-2.73-2.74-.88,0-1.65.22-2.17.82v-3.64h-1.62v11.2ZM519.48,43.6h3.79v-1.41h-2.19v-5.38h2.19v-1.41h-2.19v-1.97h-1.6v1.97h-1.49v1.41h1.49v6.78ZM510.96,40.14v-1.28c0-1.66.62-2.22,1.5-2.22h.85c.91,0,1.7.56,1.7,2.22v1.28c0,1.66-.71,2.22-1.7,2.22h-.85c-.77,0-1.5-.56-1.5-2.22M512.59,43.79c1.32,0,1.9-.32,2.32-.87v.68h1.6v-11.2h-1.6v3.68c-.39-.48-.98-.86-2.16-.86-1.89,0-3.39.7-3.39,3.57v1.36c0,2.86,1.5,3.65,3.23,3.65M505.84,34.14h1.66v-1.74h-1.66v1.74ZM505.87,43.6h1.6v-8.19h-1.6v8.19ZM494.36,43.6h2.62l1.43-6.89,1.43,6.89h2.62l1.9-8.19h-1.68l-1.44,6.78h-.19l-1.44-6.78h-2.42l-1.44,6.78h-.19l-1.44-6.78h-1.68l1.9,8.19ZM476.53,41.14l4.34-4.51v2.65c0,2.66-.92,3.04-1.94,3.04h-.7c-.7,0-1.36-.18-1.7-1.18M476.29,39.28v-2.56c0-2.59.92-3.04,1.94-3.04h.7c.72,0,1.4.22,1.73,1.29l-4.37,4.6v-.29ZM478.58,43.79c2.81,0,3.92-1.81,3.92-4.51v-2.56c0-2.66-1.11-4.51-3.92-4.51s-3.92,1.85-3.92,4.51v2.56c0,2.7,1.11,4.51,3.92,4.51M467.22,41.14l4.34-4.51v2.65c0,2.66-.92,3.04-1.94,3.04h-.7c-.7,0-1.36-.18-1.7-1.18M466.98,39.28v-2.56c0-2.59.92-3.04,1.94-3.04h.7c.72,0,1.4.22,1.73,1.29l-4.37,4.6v-.29ZM469.27,43.79c2.81,0,3.92-1.81,3.92-4.51v-2.56c0-2.66-1.11-4.51-3.92-4.51s-3.92,1.85-3.92,4.51v2.56c0,2.7,1.11,4.51,3.92,4.51M456.8,43.6h6.74v-1.47h-2.42v-9.73h-4.32v1.52h2.69v8.21h-2.69v1.47ZM442.37,32.74h-1.43v7.99h6.54l-2.02,2.01.89.86,3.59-3.58-3.59-3.58-.89.86,2.02,2.02h-5.1v-6.56Z"/>
        <path class="cls-6" d="M536.36,27.6h3.79v-1.41h-2.19v-5.38h2.19v-1.41h-2.19v-1.97h-1.6v1.97h-1.49v1.41h1.49v6.78ZM527.14,27.6h1.6v-5.17c0-1.22.51-1.78,1.31-1.78h.85c.82,0,1.15.4,1.15,1.54v5.41h1.6v-5.65c0-2.02-1.02-2.74-2.73-2.74-.88,0-1.65.22-2.17.82v-3.64h-1.62v11.2ZM519.35,23.58v-.48c0-1.82.61-2.46,1.54-2.46h.74c.9,0,1.78.43,1.78,2.43v.43c0,2.12-.87,2.69-1.78,2.69h-.74c-.94,0-1.54-.43-1.54-2.61M521.36,30.99c2.42,0,3.54-1.24,3.54-3.39v-8.19h-1.6v.67c-.41-.47-1.01-.86-2.1-.86-2.02,0-3.46,1.2-3.46,3.57v1.04c0,2.74,1.44,3.65,3.33,3.65,1.11,0,1.82-.29,2.22-.75v.88c0,1.78-.82,1.98-1.44,1.98h-.85c-.7,0-1.52-.26-1.52-1.31h-1.57c0,1.36.66,2.72,3.44,2.72M514.23,18.14h1.66v-1.74h-1.66v1.74ZM514.26,27.6h1.6v-8.19h-1.6v8.19ZM506.96,22.58c.03-1.17.38-1.95,1.56-1.95h.87c.77,0,1.38.37,1.38,1.92v.03h-3.81ZM508.87,27.79c2.18,0,3.5-.85,3.5-2.74v-.06h-1.6v.08c0,.83-.42,1.29-1.27,1.29h-.97c-1.14,0-1.56-.65-1.56-2.16v-.22h5.42v-1.25c0-1.74-.51-3.52-3.42-3.52-2.13,0-3.6.94-3.6,3.52v1.41c0,2.13.85,3.65,3.5,3.65M494.36,27.6h2.62l1.43-6.89,1.43,6.89h2.62l1.9-8.19h-1.68l-1.44,6.78h-.19l-1.44-6.78h-2.42l-1.44,6.78h-.19l-1.44-6.78h-1.68l1.9,8.19ZM476.53,25.14l4.34-4.51v2.65c0,2.66-.92,3.04-1.94,3.04h-.7c-.7,0-1.36-.18-1.7-1.18M476.29,23.28v-2.56c0-2.59.92-3.04,1.94-3.04h.7c.72,0,1.4.22,1.73,1.29l-4.37,4.6v-.29ZM478.58,27.79c2.81,0,3.92-1.81,3.92-4.51v-2.56c0-2.66-1.11-4.51-3.92-4.51s-3.92,1.85-3.92,4.51v2.56c0,2.7,1.11,4.51,3.92,4.51M467.22,25.14l4.34-4.51v2.65c0,2.66-.92,3.04-1.94,3.04h-.7c-.7,0-1.36-.18-1.7-1.18M466.98,23.28v-2.56c0-2.59.92-3.04,1.94-3.04h.7c.72,0,1.4.22,1.73,1.29l-4.37,4.6v-.29ZM469.27,27.79c2.81,0,3.92-1.81,3.92-4.51v-2.56c0-2.66-1.11-4.51-3.92-4.51s-3.92,1.85-3.92,4.51v2.56c0,2.7,1.11,4.51,3.92,4.51M457.37,23.5l3.02-5.71h.41v5.71h-3.43ZM460.8,27.6h1.63v-2.62h1.71v-1.47h-1.71v-7.1h-2.94l-3.81,7.1v1.47h5.12v2.62ZM442.37,16.74h-1.43v7.99h6.54l-2.02,2.01.89.86,3.59-3.58-3.59-3.58-.89.86,2.02,2.02h-5.1v-6.56Z"/>
        <path class="cls-6" d="M586.64,30.73h15.36c0-9.35-7.05-16.73-16.98-16.73v15.07h-15.02c0,9.15,7.14,16.93,16.64,16.93v-15.27Z"/>
      </g>
      <polygon class="cls-6" points="450.67 846 509.01 846 509.01 598.64 601.77 598.64 601.77 547.3 450.67 547.3 450.67 846"/>
      <g class="cls-17">
        <path class="cls-6" d="M311.08,643.75c160.65,0,290.88-130.23,290.88-290.87S471.73,62,311.08,62,20.21,192.23,20.21,352.87s130.23,290.87,290.88,290.87"/>
      </g>
      <polygon class="cls-7" points="253.74 542 362.26 542 490.02 133.62 422.93 133.62 318.5 488.33 297.5 488.33 193.07 133.62 125.98 133.62 253.74 542"/>
      <g class="cls-16">
        <path class="cls-7" d="M565.34,350c0-140.42-113.83-254.25-254.25-254.25S56.83,209.58,56.83,350"/>
        <path class="cls-6" d="M513.8,350.94c0-126.21-102.31-228.52-228.52-228.52S56.76,224.73,56.76,350.94"/>
        <g class="cls-18">
          <g class="cls-14">
            <g class="cls-15">
              <rect class="cls-4" x="85.91" y="141.33" width="439.81" height="439.81"/>
            </g>
          </g>
        </g>
      </g>
    </g>
  </g>
</svg>