<?xml version="1.0" encoding="UTF-8"?>
<svg id="Calque_1" data-name="Calque 1" xmlns="http://www.w3.org/2000/svg" xmlns:xlink="http://www.w3.org/1999/xlink" viewBox="0 0 616 423">
  <defs>
    <style>
      .cls-1, .cls-2 {
        fill: none;
      }

      .cls-1, .cls-3, .cls-4 {
        stroke-width: 0px;
      }

      .cls-5 {
        clip-path: url(#clippath-7);
      }

      .cls-6 {
        clip-path: url(#clippath-8);
      }

      .cls-7 {
        clip-path: url(#clippath-6);
      }

      .cls-8 {
        clip-path: url(#clippath-9);
      }

      .cls-2 {
        stroke: #fff;
        stroke-width: .5px;
      }

      .cls-9 {
        clip-path: url(#clippath-20);
      }

      .cls-10 {
        clip-path: url(#clippath-14);
      }

      .cls-11 {
        clip-path: url(#clippath-13);
      }

      .cls-12 {
        clip-path: url(#clippath-12);
      }

      .cls-13 {
        clip-path: url(#clippath-15);
      }

      .cls-14 {
        clip-path: url(#clippath-17);
      }

      .cls-15 {
        clip-path: url(#clippath-16);
      }

      .cls-16 {
        clip-path: url(#clippath-19);
      }

      .cls-17 {
        clip-path: url(#clippath-18);
      }

      .cls-4 {
        fill: #fff;
      }
    </style>
    <clipPath id="clippath">
      <rect class="cls-1" x="-1272" y="-437" width="616" height="860"/>
    </clipPath>
    <clipPath id="clippath-1">
      <rect class="cls-1" x="-1272" y="-437" width="616" height="860"/>
    </clipPath>
    <clipPath id="clippath-2">
      <rect class="cls-1" x="-836.85" y="-80.87" width="180.85" height="241.13"/>
    </clipPath>
    <clipPath id="clippath-4">
      <rect class="cls-1" x="-836.4" y="-374.43" width="180.4" height="241.13"/>
    </clipPath>
    <clipPath id="clippath-6">
      <rect class="cls-1" width="616" height="423"/>
    </clipPath>
    <clipPath id="clippath-7">
      <rect class="cls-1" width="616" height="423"/>
    </clipPath>
    <clipPath id="clippath-8">
      <rect class="cls-1" width="616" height="423"/>
    </clipPath>
    <clipPath id="clippath-9">
      <rect class="cls-1" width="616" height="423"/>
    </clipPath>
    <clipPath id="clippath-10">
      <rect class="cls-1" x="14" y="23.37" width="279.3" height="364.01"/>
    </clipPath>
    <clipPath id="clippath-12">
      <rect class="cls-1" x="14" y="23.37" width="279.3" height="364.01"/>
    </clipPath>
    <clipPath id="clippath-13">
      <rect class="cls-1" x="14" y="23.37" width="279.3" height="364.01"/>
    </clipPath>
    <clipPath id="clippath-14">
      <rect class="cls-1" x="14" y="23.37" width="279.3" height="364.01"/>
    </clipPath>
    <clipPath id="clippath-15">
      <rect class="cls-1" x="14" y="23.37" width="279.3" height="364.01"/>
    </clipPath>
    <clipPath id="clippath-16">
      <rect class="cls-1" x="14" y="23.37" width="279.3" height="364.01"/>
    </clipPath>
    <clipPath id="clippath-17">
      <rect class="cls-1" x="14" y="23.37" width="279.3" height="364.01"/>
    </clipPath>
    <clipPath id="clippath-18">
      <rect class="cls-1" x="14" y="23.37" width="279.3" height="364.01"/>
    </clipPath>
    <clipPath id="clippath-19">
      <rect class="cls-1" x="14" y="23.37" width="279.3" height="364.01"/>
    </clipPath>
    <clipPath id="clippath-20">
      <rect class="cls-1" x="14" y="23.37" width="279.3" height="364.01"/>
    </clipPath>
    <clipPath id="clippath-21">
      <rect class="cls-1" x="636" y="-437" width="616" height="860"/>
    </clipPath>
    <clipPath id="clippath-22">
      <rect class="cls-1" x="636" y="-437" width="616" height="860"/>
    </clipPath>
    <clipPath id="clippath-23">
      <rect class="cls-1" x="650.78" y="-113.19" width="586.44" height="522.19"/>
    </clipPath>
    <clipPath id="clippath-25">
      <rect class="cls-1" x="1272" y="-437" width="616" height="860"/>
    </clipPath>
    <clipPath id="clippath-26">
      <rect class="cls-1" x="1272" y="-437" width="616" height="860"/>
    </clipPath>
    <clipPath id="clippath-27">
      <rect class="cls-1" x="1272" y="-311" width="263.19" height="288"/>
    </clipPath>
    <clipPath id="clippath-29">
      <rect class="cls-1" x="1682.9" y="-402.04" width="191.1" height="237.16"/>
    </clipPath>
  </defs>
  <g class="cls-7">
    <g class="cls-5">
      <g class="cls-6">
        <path class="cls-4" d="M229,109.09h57.23v-15.79h-36.42v-17.95h32.72v-15.85h-32.72v-18.3h36.42v-15.79h-57.23v83.68ZM161.97,109.09h57.23v-15.79h-36.42v-17.95h32.72v-15.85h-32.72v-18.3h36.42v-15.79h-57.23v83.68ZM106.51,64.11v-22.91h14.08c6.84,0,9.92,4.05,9.92,9.8v3.42c0,5.64-3.08,9.69-9.92,9.69h-14.08ZM85.71,109.09h20.81v-29.18h8.66l13.74,29.18h23.09l-15.22-31.58c9.06-3.88,14.59-12.03,14.59-23.03v-3.65c0-16.02-11.4-25.42-27.36-25.42h-38.3v83.68ZM21.24,109.09h20.8v-33.74h32.26v-15.85h-32.26v-18.3h35.68v-15.79H21.24v83.68Z"/>
        <path class="cls-4" d="M249.3,205.09h20.8v-30.15l27.59-53.52h-20.52l-16.13,31.58-16.36-31.58h-23.48l28.1,53.58v30.1ZM181.01,174.08l8.78-30.78,8.72,30.78h-17.5ZM152.91,205.09h19.27l4.33-15.22h26.45l4.33,15.22h21.72l-23.14-83.68h-29.81l-23.14,83.68ZM94.31,205.09h53.75v-15.79h-32.95v-67.89h-20.81v83.68ZM42.04,160.11v-22.91h14.08c6.84,0,9.92,4.05,9.92,9.8v3.42c0,5.64-3.08,9.69-9.92,9.69h-14.08ZM21.24,205.09h20.8v-29.18h17.5c16.36,0,27.36-9.92,27.36-25.42v-3.65c0-16.02-11.4-25.42-27.36-25.42H21.24v83.68Z"/>
      </g>
      <polygon class="cls-4" points="355.14 366 573.39 366 573.39 303.68 505.21 303.68 505.21 35.7 443.34 35.7 355.14 78.9 355.14 153.38 423.31 123.9 423.31 303.68 355.14 303.68 355.14 366"/>
      <line class="cls-2" x1="602" y1="408.88" x2="14" y2="408.88"/>
      <g class="cls-8">
        <path class="cls-4" d="M595.32,402.59h1.3v-4.24c.07-.84.75-1.48,1.68-1.48,1.09,0,1.53.65,1.53,1.63v4.09h1.3v-4.35c0-1.74-1.01-2.5-2.48-2.5-.83,0-1.58.3-2.02.79v-3.11h-1.3v9.17ZM592.63,402.59h1.33v-1.06h-1c-.54,0-.88-.26-.88-.88v-3.65h1.88v-1.06h-2.11c.18-.12.28-.29.28-.64v-1.02h-1.3v1.06c0,.46-.21.6-.65.6h-.52v1.06h1.14v3.65c0,1.41.89,1.94,1.85,1.94M582.96,399.38v-.23c0-1.38.75-2.29,2.08-2.29s2.12.91,2.12,2.29v.23c0,1.38-.79,2.31-2.12,2.31s-2.08-.94-2.08-2.31M584.79,402.79c1.04,0,1.86-.38,2.37-.96v.76h1.3v-9.17h-1.3v3.28c-.51-.57-1.32-.93-2.37-.93-2.06,0-3.14,1.41-3.14,3.32v.35c0,1.89,1.09,3.35,3.14,3.35M578.87,394.31c0,.46.38.87.86.87s.86-.41.86-.87-.38-.86-.86-.86-.86.39-.86.86M579.07,402.59h1.3v-6.65h-1.3v6.65ZM570.2,402.59h1.49l1.37-4.56,1.31,4.56h1.57l1.98-6.65h-1.36l-1.47,4.91-1.43-4.91h-1.17l-1.46,4.89-1.45-4.89h-1.36l1.97,6.65ZM560.34,401.34l2.96-5.65c.16.46.25,1.04.25,1.74v1.12c0,2.07-.76,3.07-2.12,3.07-.43,0-.79-.09-1.09-.29M559.3,398.56v-1.12c0-2.08.76-3.07,2.12-3.07.42,0,.79.09,1.09.29l-2.96,5.64c-.16-.46-.25-1.04-.25-1.74M561.43,402.79c2.39,0,3.44-1.76,3.44-4.23v-1.12c0-2.46-1.05-4.22-3.44-4.22s-3.44,1.76-3.44,4.22v1.12c0,2.46,1.05,4.23,3.44,4.23M552.02,401.34l2.96-5.65c.16.46.25,1.04.25,1.74v1.12c0,2.07-.76,3.07-2.13,3.07-.42,0-.79-.09-1.09-.29M550.98,398.56v-1.12c0-2.08.76-3.07,2.12-3.07.42,0,.79.09,1.09.29l-2.96,5.64c-.16-.46-.25-1.04-.25-1.74M553.1,402.79c2.39,0,3.44-1.76,3.44-4.23v-1.12c0-2.46-1.05-4.22-3.44-4.22s-3.44,1.76-3.44,4.22v1.12c0,2.46,1.05,4.23,3.44,4.23M547.94,393.41h-1.06l-2.54,1.29v1.3l2.29-1.06v7.64h1.31v-9.17ZM532.57,400.62h5.98l-1.85,1.84.81.78,3.29-3.27-3.29-3.28-.81.79,1.85,1.84h-4.66v-6.2h-1.31v7.51ZM523.11,402.59h1.33v-1.06h-1c-.54,0-.88-.26-.88-.88v-3.65h1.88v-1.06h-2.11c.18-.12.28-.29.28-.64v-1.02h-1.3v1.06c0,.46-.21.6-.65.6h-.53v1.06h1.14v3.65c0,1.41.89,1.94,1.85,1.94M513.34,402.59h1.3v-4.24c.07-.84.75-1.48,1.68-1.48,1.09,0,1.53.65,1.53,1.63v4.09h1.3v-4.35c0-1.74-1.01-2.5-2.48-2.5-.83,0-1.58.3-2.03.79v-3.11h-1.3v9.17ZM506.34,399.4v-.23c0-1.38.75-2.31,2.08-2.31s2.12.94,2.12,2.31v.23c0,1.38-.79,2.29-2.12,2.29s-2.08-.91-2.08-2.29M508.5,405.46c1.79,0,3.34-.92,3.34-2.69v-6.84h-1.3v.78c-.52-.58-1.34-.96-2.37-.96-2.06,0-3.14,1.46-3.14,3.35v.35c0,1.91,1.09,3.33,3.14,3.33,1.04,0,1.86-.36,2.37-.93v.92c0,1.07-.85,1.59-2.04,1.59s-2.03-.52-2.03-1.36v-.1h-1.31v.1c0,1.7,1.64,2.45,3.34,2.45M502.19,394.31c0,.46.38.87.86.87s.86-.41.86-.87-.38-.86-.86-.86-.86.39-.86.86M502.39,402.59h1.3v-6.65h-1.3v6.65ZM495.76,398.56c.19-1.12.93-1.73,2.04-1.73,1.31,0,1.93.84,1.93,1.73h-3.97ZM497.79,402.79c2.06,0,3.22-1.25,3.22-2.53v-.06h-1.3v.06c0,.69-.61,1.44-1.91,1.44-1.22,0-1.99-.74-2.08-2.07h5.32v-.76c0-1.81-1.09-3.12-3.24-3.12s-3.4,1.31-3.4,3.46v.12c0,2.15,1.29,3.46,3.4,3.46M486.03,402.59h1.49l1.37-4.56,1.31,4.56h1.57l1.98-6.65h-1.36l-1.47,4.91-1.43-4.91h-1.17l-1.46,4.89-1.45-4.89h-1.36l1.97,6.65ZM476.17,401.34l2.96-5.65c.16.46.25,1.04.25,1.74v1.12c0,2.07-.76,3.07-2.12,3.07-.42,0-.79-.09-1.09-.29M475.13,398.56v-1.12c0-2.08.76-3.07,2.13-3.07.43,0,.79.09,1.09.29l-2.96,5.64c-.16-.46-.25-1.04-.25-1.74M477.26,402.79c2.39,0,3.44-1.76,3.44-4.23v-1.12c0-2.46-1.05-4.22-3.44-4.22s-3.44,1.76-3.44,4.22v1.12c0,2.46,1.05,4.23,3.44,4.23M467.84,401.34l2.96-5.65c.16.46.25,1.04.25,1.74v1.12c0,2.07-.76,3.07-2.12,3.07-.43,0-.79-.09-1.09-.29M466.81,398.56v-1.12c0-2.08.76-3.07,2.12-3.07.42,0,.79.09,1.09.29l-2.96,5.64c-.16-.46-.25-1.04-.25-1.74M468.93,402.79c2.39,0,3.44-1.76,3.44-4.23v-1.12c0-2.46-1.05-4.22-3.44-4.22s-3.44,1.76-3.44,4.22v1.12c0,2.46,1.05,4.23,3.44,4.23M464.21,394.47v-1.06h-6.3v1.12h4.62c-1.61,1.95-3.2,4.59-3.2,7.53v.52h1.31v-.52c0-3.04,1.69-5.46,3.58-7.59M446.12,400.62h5.97l-1.85,1.84.81.78,3.29-3.27-3.29-3.28-.81.79,1.85,1.84h-4.66v-6.2h-1.31v7.51Z"/>
        <path class="cls-4" d="M138.77,399.08l3.12-3.89v3.89h-3.12ZM141.9,402.59h1.31v-2.39h1.76v-1.12h-1.76v-5.66h-1.32l-4.59,5.7v1.09h4.6v2.39ZM131.49,401.34l2.96-5.64c.16.46.25,1.04.25,1.74v1.12c0,2.08-.76,3.07-2.13,3.07-.43,0-.79-.09-1.09-.29M130.45,398.56v-1.12c0-2.08.76-3.07,2.12-3.07.43,0,.79.09,1.09.29l-2.96,5.64c-.16-.46-.25-1.04-.25-1.74M132.57,402.79c2.39,0,3.44-1.76,3.44-4.23v-1.12c0-2.46-1.05-4.22-3.44-4.22s-3.44,1.76-3.44,4.22v1.12c0,2.46,1.05,4.23,3.44,4.23M119.64,402.59h1.3v-4.24c.07-.84.75-1.48,1.68-1.48,1.09,0,1.53.65,1.53,1.63v4.09h1.3v-4.35c0-1.74-1.01-2.5-2.48-2.5-.83,0-1.58.3-2.03.79v-.59h-1.3v6.65ZM113.63,400.91v-.09c0-.53.48-.77,1.45-1,.73-.17,1.3-.33,1.69-.54v1.01c0,.99-.95,1.41-1.82,1.41-.76,0-1.33-.26-1.33-.79M114.72,402.79c.94,0,1.64-.29,2.07-.72.02.22.05.38.08.52h1.32c-.07-.35-.14-.85-.14-1.81v-2.76c0-1.44-1.08-2.27-2.77-2.27s-2.9.83-2.9,2.34v.14h1.3v-.14c0-.74.42-1.25,1.56-1.25s1.5.51,1.5.91v.08c0,.46-.43.62-1.87.93-1.3.28-2.56.84-2.56,2.13v.1c0,1.13,1,1.81,2.4,1.81M109.64,402.59h1.3v-9.18h-1.3v9.18ZM102.87,399.38v-.23c0-1.38.79-2.29,2.12-2.29s2.08.91,2.08,2.29v.23c0,1.38-.75,2.31-2.08,2.31s-2.12-.94-2.12-2.31M105.24,402.79c2.06,0,3.14-1.46,3.14-3.35v-.35c0-1.91-1.09-3.32-3.14-3.32-1.04,0-1.86.36-2.37.93v-.76h-1.3v9.32h1.3v-3.44c.51.58,1.33.96,2.37.96M94.14,402.59h1.3v-1.84l1.06-1.06,2.25,2.89h1.64l-2.98-3.82,2.81-2.82h-1.68l-3.11,3.12v-5.66h-1.3v9.17ZM89.14,402.59h1.3v-3.84c0-1.24.7-1.86,1.71-1.86h.81v-1.16h-.88c-.71,0-1.28.28-1.65.73v-.53h-1.3v6.65ZM82.38,399.34v-.15c0-1.45.79-2.36,2.09-2.36s2.09.91,2.09,2.36v.15c0,1.45-.79,2.36-2.09,2.36s-2.09-.91-2.09-2.36M84.47,402.79c2.11,0,3.41-1.31,3.41-3.46v-.12c0-2.15-1.29-3.46-3.41-3.46s-3.41,1.31-3.41,3.46v.12c0,2.15,1.29,3.46,3.41,3.46M70.82,402.59h1.5l2.24-7.47,2.24,7.47h1.5l2.93-9.17h-1.38l-2.35,7.36-2.2-7.36h-1.47l-2.21,7.36-2.34-7.36h-1.38l2.92,9.17ZM59.8,400.91v-.09c0-.53.48-.77,1.45-1,.73-.17,1.3-.33,1.69-.54v1.01c0,.99-.95,1.41-1.82,1.41-.76,0-1.33-.26-1.33-.79M60.89,402.79c.94,0,1.64-.29,2.08-.72.02.22.05.38.08.52h1.32c-.07-.35-.14-.85-.14-1.81v-2.76c0-1.44-1.08-2.27-2.77-2.27s-2.9.83-2.9,2.34v.14h1.3v-.14c0-.74.42-1.25,1.56-1.25s1.5.51,1.5.91v.08c0,.46-.43.62-1.87.93-1.3.28-2.56.84-2.56,2.13v.1c0,1.13,1,1.81,2.4,1.81M54.49,402.79c1.85,0,2.82-.83,2.82-2.08v-.05c0-1.12-.74-1.81-1.97-1.97l-1.42-.19c-.59-.08-.91-.32-.91-.74v-.05c0-.48.48-.88,1.48-.88s1.48.4,1.48.96v.04h1.31v-.04c0-1.17-.94-2.05-2.79-2.05s-2.79.87-2.79,2.03v.05c0,1.1.74,1.79,1.93,1.94l1.42.19c.64.09.95.36.95.78v.05c0,.52-.42.91-1.51.91s-1.53-.39-1.53-.93v-.06h-1.31v.06c0,1.19,1,2.02,2.84,2.02M45.24,398.56c.19-1.12.93-1.73,2.04-1.73,1.31,0,1.93.84,1.93,1.73h-3.97ZM47.28,402.79c2.06,0,3.22-1.25,3.22-2.53v-.06h-1.3v.06c0,.69-.61,1.44-1.91,1.44-1.22,0-1.99-.74-2.08-2.07h5.32v-.76c0-1.81-1.09-3.12-3.24-3.12s-3.4,1.31-3.4,3.46v.12c0,2.15,1.29,3.46,3.4,3.46M39.22,402.59h1.47l3.7-9.18h-1.31l-3.07,7.64-3.08-7.64h-1.42l3.7,9.18ZM25.8,402.59h1.31v-4.04h4.59v-1.12h-4.59v-2.89h5.2v-1.12h-6.51v9.17ZM15,402.59h1.31v-7.14l2.59,7.14h1l2.59-7.14v7.14h1.31v-9.17h-1.84l-2.56,7.07-2.56-7.07h-1.84v9.17Z"/>
      </g>
      <line class="cls-2" x1="602" y1="387.13" x2="14" y2="387.13"/>
      <line class="cls-2" x1="308" y1="376.63" x2="308" y2="24.63"/>
      <line class="cls-2" x1="602" y1="14" x2="14" y2="14"/>
      <rect class="cls-4" x="81.44" y="58.04" width="7.11" height="7.11"/>
      <rect class="cls-4" x="74.33" y="72.26" width="7.11" height="7.11"/>
      <polygon class="cls-4" points="67.22 86.48 74.33 86.48 74.33 79.37 67.22 79.37 60.11 79.37 53 79.37 53 86.48 60.11 86.48 67.22 86.48"/>
      <polygon class="cls-4" points="45.89 93.59 45.89 100.7 53 100.7 60.11 100.7 60.11 93.59 53 93.59 45.89 93.59"/>
      <polygon class="cls-4" points="53 114.92 53 107.81 45.89 107.81 38.78 107.81 38.78 114.92 45.89 114.92 53 114.92"/>
      <polygon class="cls-4" points="45.89 122.03 45.89 129.14 53 129.14 60.11 129.14 67.22 129.14 67.22 122.03 60.11 122.03 60.11 114.92 53 114.92 53 122.03 45.89 122.03"/>
      <rect class="cls-4" x="67.22" y="129.14" width="7.11" height="7.11"/>
      <rect class="cls-4" x="88.55" y="122.03" width="7.11" height="7.11"/>
      <rect class="cls-4" x="95.66" y="107.81" width="7.11" height="7.11"/>
      <rect class="cls-4" x="81.44" y="114.92" width="7.11" height="7.11"/>
      <rect class="cls-4" x="102.77" y="114.92" width="7.11" height="7.11"/>
      <rect class="cls-4" x="109.88" y="107.81" width="7.11" height="7.11"/>
      <polygon class="cls-4" points="124.1 93.59 116.99 93.59 116.99 100.7 124.1 100.7 131.21 100.7 131.21 93.59 124.1 93.59"/>
      <polygon class="cls-4" points="138.32 129.14 131.21 129.14 124.1 129.14 124.1 122.03 116.99 122.03 116.99 129.14 109.88 129.14 102.77 129.14 95.66 129.14 95.66 136.25 88.55 136.25 81.44 136.25 81.44 143.36 88.55 143.36 95.66 143.36 95.66 150.47 102.77 150.47 102.77 143.36 102.77 136.25 109.88 136.25 116.99 136.25 124.1 136.25 131.21 136.25 131.21 143.36 138.32 143.36 145.43 143.36 145.43 136.25 138.32 136.25 138.32 129.14"/>
      <polygon class="cls-4" points="159.65 129.14 152.54 129.14 145.43 129.14 145.43 136.25 152.54 136.25 159.65 136.25 166.76 136.25 166.76 129.14 159.65 129.14"/>
      <rect class="cls-4" x="166.76" y="122.03" width="7.11" height="7.11"/>
      <rect class="cls-4" x="180.98" y="122.03" width="7.11" height="7.11"/>
      <rect class="cls-4" x="188.09" y="129.14" width="7.11" height="7.11"/>
      <rect class="cls-4" x="202.31" y="136.25" width="7.11" height="7.11"/>
      <rect class="cls-4" x="216.53" y="150.47" width="7.11" height="7.11"/>
      <rect class="cls-4" x="244.97" y="122.03" width="7.11" height="7.11"/>
      <rect class="cls-4" x="252.08" y="129.14" width="7.11" height="7.11"/>
      <rect class="cls-4" x="259.19" y="136.25" width="7.11" height="7.11"/>
      <rect class="cls-4" x="259.19" y="114.92" width="7.11" height="7.11"/>
      <rect class="cls-4" x="273.41" y="114.92" width="7.11" height="7.11"/>
      <polygon class="cls-4" points="273.41 136.25 280.52 136.25 287.63 136.25 287.63 129.14 280.52 129.14 273.41 129.14 273.41 136.25"/>
      <polygon class="cls-4" points="287.63 143.36 280.52 143.36 280.52 150.47 287.63 150.47 293.3 150.47 293.3 143.36 287.63 143.36"/>
      <g class="cls-12">
        <rect class="cls-4" x="294.74" y="157.58" width="7.11" height="7.11"/>
        <rect class="cls-4" x="294.74" y="178.91" width="7.11" height="7.11"/>
      </g>
      <rect class="cls-4" x="287.63" y="171.8" width="5.67" height="7.11"/>
      <rect class="cls-4" x="266.3" y="143.36" width="7.11" height="7.11"/>
      <rect class="cls-4" x="252.08" y="150.47" width="7.11" height="7.11"/>
      <rect class="cls-4" x="244.97" y="157.58" width="7.11" height="7.11"/>
      <rect class="cls-4" x="230.75" y="157.58" width="7.11" height="7.11"/>
      <rect class="cls-4" x="223.64" y="164.69" width="7.11" height="7.11"/>
      <polygon class="cls-4" points="230.75 178.91 223.64 178.91 216.53 178.91 216.53 186.02 223.64 186.02 230.75 186.02 230.75 178.91"/>
      <rect class="cls-4" x="216.53" y="193.13" width="7.11" height="7.11"/>
      <rect class="cls-4" x="280.52" y="235.79" width="7.11" height="7.11"/>
      <rect class="cls-4" x="273.41" y="242.9" width="7.11" height="7.11"/>
      <rect class="cls-4" x="266.3" y="250.01" width="7.11" height="7.11"/>
      <rect class="cls-4" x="266.3" y="228.68" width="7.11" height="7.11"/>
      <rect class="cls-4" x="259.19" y="221.57" width="7.11" height="7.11"/>
      <rect class="cls-4" x="223.64" y="221.57" width="7.11" height="7.11"/>
      <rect class="cls-4" x="230.75" y="235.79" width="7.11" height="7.11"/>
      <polygon class="cls-4" points="252.08 186.02 244.97 186.02 244.97 189.58 244.97 193.13 252.08 193.13 252.08 189.58 252.08 186.02"/>
      <rect class="cls-4" x="252.08" y="200.24" width="7.11" height="7.11"/>
      <polygon class="cls-4" points="244.97 210.91 244.97 207.35 237.86 207.35 237.86 210.91 237.86 214.46 244.97 214.46 244.97 210.91"/>
      <rect class="cls-4" x="237.86" y="228.68" width="7.11" height="7.11"/>
      <rect class="cls-4" x="252.08" y="235.79" width="7.11" height="7.11"/>
      <rect class="cls-4" x="266.3" y="207.35" width="7.11" height="7.11"/>
      <rect class="cls-4" x="273.41" y="214.46" width="7.11" height="7.11"/>
      <rect class="cls-4" x="237.86" y="242.9" width="7.11" height="7.11"/>
      <rect class="cls-4" x="287.63" y="221.57" width="5.67" height="7.11"/>
      <g class="cls-11">
        <polygon class="cls-4" points="323.18 214.46 323.18 207.35 316.07 207.35 316.07 200.24 323.18 200.24 323.18 193.13 316.07 193.13 308.96 193.13 301.85 193.13 301.85 200.24 308.96 200.24 308.96 207.35 301.85 207.35 294.74 207.35 294.74 214.46 301.85 214.46 301.85 221.57 308.96 221.57 316.07 221.57 316.07 214.46 323.18 214.46"/>
        <polygon class="cls-4" points="308.96 242.9 316.07 242.9 323.18 242.9 323.18 235.79 316.07 235.79 316.07 228.68 308.96 228.68 301.85 228.68 294.74 228.68 294.74 235.79 294.74 242.9 301.85 242.9 308.96 242.9"/>
      </g>
      <polygon class="cls-4" points="287.63 257.12 280.52 257.12 273.41 257.12 273.41 264.23 280.52 264.23 287.63 264.23 287.63 271.34 293.3 271.34 293.3 257.12 287.63 257.12"/>
      <polygon class="cls-4" points="280.52 271.34 273.41 271.34 273.41 278.45 273.41 285.56 280.52 285.56 287.63 285.56 287.63 292.67 293.3 292.67 293.3 278.45 287.63 278.45 287.63 271.34 280.52 271.34"/>
      <g class="cls-10">
        <polygon class="cls-4" points="351.62 285.56 344.51 285.56 344.51 292.67 344.51 299.78 337.4 299.78 330.29 299.78 323.18 299.78 323.18 292.67 316.07 292.67 308.96 292.67 301.85 292.67 294.74 292.67 294.74 299.78 294.74 306.89 301.85 306.89 308.96 306.89 308.96 314 301.85 314 301.85 321.11 301.85 328.22 308.96 328.22 308.96 321.11 316.07 321.11 323.18 321.11 323.18 314 330.29 314 337.4 314 344.51 314 351.62 314 351.62 306.89 351.62 299.78 358.73 299.78 358.73 292.67 365.84 292.67 372.95 292.67 372.95 285.56 365.84 285.56 358.73 285.56 358.73 278.45 351.62 278.45 351.62 285.56"/>
      </g>
      <rect class="cls-4" x="287.63" y="193.13" width="5.67" height="7.11"/>
      <rect class="cls-4" x="280.52" y="200.24" width="7.11" height="7.11"/>
      <rect class="cls-4" x="273.41" y="193.13" width="7.11" height="7.11"/>
      <rect class="cls-4" x="287.63" y="242.9" width="5.67" height="7.11"/>
      <polygon class="cls-4" points="223.64 214.46 223.64 207.35 216.53 207.35 209.42 207.35 209.42 214.46 216.53 214.46 223.64 214.46"/>
      <rect class="cls-4" x="202.31" y="221.57" width="7.11" height="7.11"/>
      <polygon class="cls-4" points="209.42 242.9 216.53 242.9 223.64 242.9 223.64 235.79 216.53 235.79 209.42 235.79 202.31 235.79 202.31 242.9 209.42 242.9"/>
      <rect class="cls-4" x="223.64" y="242.9" width="7.11" height="7.11"/>
      <rect class="cls-4" x="230.75" y="250.01" width="7.11" height="7.11"/>
      <polygon class="cls-4" points="244.97 264.23 252.08 264.23 252.08 257.12 244.97 257.12 237.86 257.12 237.86 264.23 244.97 264.23"/>
      <rect class="cls-4" x="252.08" y="264.23" width="7.11" height="7.11"/>
      <rect class="cls-4" x="259.19" y="271.34" width="7.11" height="7.11"/>
      <polygon class="cls-4" points="188.09 235.79 195.2 235.79 202.31 235.79 202.31 228.68 195.2 228.68 188.09 228.68 180.98 228.68 173.87 228.68 173.87 235.79 180.98 235.79 188.09 235.79"/>
      <rect class="cls-4" x="166.76" y="235.79" width="7.11" height="7.11"/>
      <rect class="cls-4" x="159.65" y="242.9" width="7.11" height="7.11"/>
      <polygon class="cls-4" points="152.54 257.12 152.54 264.23 159.65 264.23 159.65 257.12 159.65 250.01 152.54 250.01 152.54 257.12"/>
      <polygon class="cls-4" points="74.33 271.34 67.22 271.34 60.11 271.34 53 271.34 53 278.45 60.11 278.45 67.22 278.45 74.33 278.45 81.44 278.45 88.55 278.45 88.55 271.34 81.44 271.34 74.33 271.34"/>
      <rect class="cls-4" x="95.66" y="271.34" width="7.11" height="7.11"/>
      <rect class="cls-4" x="102.77" y="278.45" width="7.11" height="7.11"/>
      <rect class="cls-4" x="124.1" y="278.45" width="7.11" height="7.11"/>
      <rect class="cls-4" x="131.21" y="285.56" width="7.11" height="7.11"/>
      <polygon class="cls-4" points="138.32 356.66 138.32 363.77 145.43 363.77 152.54 363.77 152.54 356.66 145.43 356.66 145.43 349.55 138.32 349.55 138.32 356.66"/>
      <rect class="cls-4" x="152.54" y="363.77" width="7.11" height="7.11"/>
      <rect class="cls-4" x="145.43" y="264.23" width="7.11" height="7.11"/>
      <rect class="cls-4" x="152.54" y="278.45" width="7.11" height="7.11"/>
      <polygon class="cls-4" points="145.43 292.67 138.32 292.67 138.32 299.78 145.43 299.78 152.54 299.78 152.54 292.67 152.54 285.56 145.43 285.56 145.43 292.67"/>
      <rect class="cls-4" x="145.43" y="306.89" width="7.11" height="7.11"/>
      <rect class="cls-4" x="152.54" y="299.78" width="7.11" height="7.11"/>
      <polygon class="cls-4" points="173.87 299.78 180.98 299.78 188.09 299.78 195.2 299.78 195.2 292.67 188.09 292.67 180.98 292.67 173.87 292.67 166.76 292.67 159.65 292.67 159.65 299.78 166.76 299.78 173.87 299.78"/>
      <polygon class="cls-4" points="202.31 306.89 209.42 306.89 209.42 299.78 202.31 299.78 195.2 299.78 195.2 306.89 202.31 306.89"/>
      <polygon class="cls-4" points="216.53 314 223.64 314 230.75 314 237.86 314 237.86 306.89 230.75 306.89 223.64 306.89 216.53 306.89 209.42 306.89 209.42 314 216.53 314"/>
      <rect class="cls-4" x="138.32" y="314" width="7.11" height="7.11"/>
      <polygon class="cls-4" points="131.21 328.22 131.21 335.33 138.32 335.33 138.32 328.22 138.32 321.11 131.21 321.11 131.21 328.22"/>
      <rect class="cls-4" x="138.32" y="335.33" width="7.11" height="7.11"/>
      <polygon class="cls-4" points="180.98 328.22 180.98 321.11 173.87 321.11 166.76 321.11 166.76 328.22 173.87 328.22 180.98 328.22"/>
      <polygon class="cls-4" points="188.09 335.33 195.2 335.33 195.2 328.22 188.09 328.22 180.98 328.22 180.98 335.33 188.09 335.33"/>
      <rect class="cls-4" x="195.2" y="335.33" width="7.11" height="7.11"/>
      <polygon class="cls-4" points="209.42 349.55 216.53 349.55 216.53 342.44 209.42 342.44 202.31 342.44 202.31 349.55 209.42 349.55"/>
      <polygon class="cls-4" points="223.64 356.66 230.75 356.66 230.75 349.55 223.64 349.55 216.53 349.55 216.53 356.66 223.64 356.66"/>
      <rect class="cls-4" x="230.75" y="356.66" width="7.11" height="7.11"/>
      <polygon class="cls-4" points="188.09 242.9 180.98 242.9 173.87 242.9 173.87 250.01 180.98 250.01 188.09 250.01 195.2 250.01 195.2 242.9 188.09 242.9"/>
      <polygon class="cls-4" points="202.31 250.01 195.2 250.01 195.2 257.12 202.31 257.12 209.42 257.12 209.42 250.01 202.31 250.01"/>
      <polygon class="cls-4" points="223.64 257.12 216.53 257.12 209.42 257.12 209.42 264.23 216.53 264.23 223.64 264.23 230.75 264.23 230.75 257.12 223.64 257.12"/>
      <rect class="cls-4" x="230.75" y="264.23" width="7.11" height="7.11"/>
      <rect class="cls-4" x="237.86" y="271.34" width="7.11" height="7.11"/>
      <rect class="cls-4" x="244.97" y="278.45" width="7.11" height="7.11"/>
      <polygon class="cls-4" points="180.98 278.45 188.09 278.45 195.2 278.45 202.31 278.45 202.31 271.34 195.2 271.34 188.09 271.34 180.98 271.34 173.87 271.34 173.87 278.45 180.98 278.45"/>
      <polygon class="cls-4" points="209.42 285.56 216.53 285.56 216.53 278.45 209.42 278.45 202.31 278.45 202.31 285.56 209.42 285.56"/>
      <polygon class="cls-4" points="223.64 292.67 230.75 292.67 230.75 285.56 223.64 285.56 216.53 285.56 216.53 292.67 223.64 292.67"/>
      <polygon class="cls-4" points="124.1 242.9 131.21 242.9 131.21 235.79 124.1 235.79 116.99 235.79 109.88 235.79 109.88 242.9 116.99 242.9 124.1 242.9"/>
      <polygon class="cls-4" points="74.33 157.58 81.44 157.58 88.55 157.58 88.55 150.47 81.44 150.47 74.33 150.47 74.33 157.58"/>
      <rect class="cls-4" x="67.22" y="157.58" width="7.11" height="7.11"/>
      <rect class="cls-4" x="53" y="157.58" width="7.11" height="7.11"/>
      <rect class="cls-4" x="45.89" y="136.25" width="7.11" height="7.11"/>
      <rect class="cls-4" x="45.89" y="150.47" width="7.11" height="7.11"/>
      <rect class="cls-4" x="38.78" y="157.58" width="7.11" height="7.11"/>
      <rect class="cls-4" x="31.67" y="171.8" width="7.11" height="7.11"/>
      <rect class="cls-4" x="45.89" y="171.8" width="7.11" height="7.11"/>
      <rect class="cls-4" x="67.22" y="186.02" width="7.11" height="7.11"/>
      <polygon class="cls-4" points="67.22 200.24 60.11 200.24 53 200.24 53 207.35 60.11 207.35 67.22 207.35 74.33 207.35 74.33 200.24 67.22 200.24"/>
      <rect class="cls-4" x="74.33" y="207.35" width="7.11" height="7.11"/>
      <rect class="cls-4" x="67.22" y="214.46" width="7.11" height="7.11"/>
      <polygon class="cls-4" points="81.44 221.57 74.33 221.57 74.33 225.13 74.33 228.68 81.44 228.68 81.44 225.13 81.44 221.57"/>
      <rect class="cls-4" x="67.22" y="242.9" width="7.11" height="7.11"/>
      <polygon class="cls-4" points="45.89 250.01 45.89 257.12 53 257.12 60.11 257.12 60.11 250.01 60.11 242.9 53 242.9 53 250.01 45.89 250.01"/>
      <rect class="cls-4" x="38.78" y="257.12" width="7.11" height="7.11"/>
      <polygon class="cls-4" points="88.55 235.79 81.44 235.79 81.44 242.9 81.44 250.01 88.55 250.01 88.55 242.9 88.55 235.79"/>
      <rect class="cls-4" x="88.55" y="250.01" width="7.11" height="7.11"/>
      <polygon class="cls-4" points="102.77 264.23 109.88 264.23 109.88 257.12 102.77 257.12 95.66 257.12 95.66 264.23 102.77 264.23"/>
      <polygon class="cls-4" points="116.99 271.34 109.88 271.34 109.88 278.45 116.99 278.45 124.1 278.45 124.1 271.34 116.99 271.34"/>
      <polygon class="cls-4" points="53 221.57 53 228.68 60.11 228.68 67.22 228.68 67.22 221.57 60.11 221.57 53 221.57"/>
      <rect class="cls-4" x="45.89" y="235.79" width="7.11" height="7.11"/>
      <rect class="cls-4" x="60.11" y="235.79" width="7.11" height="7.11"/>
      <rect class="cls-4" x="38.78" y="221.57" width="7.11" height="7.11"/>
      <polygon class="cls-4" points="31.67 235.79 24.56 235.79 17.45 235.79 14 235.79 14 242.9 17.45 242.9 24.56 242.9 31.67 242.9 38.78 242.9 38.78 235.79 31.67 235.79"/>
      <polygon class="cls-4" points="24.56 221.57 17.45 221.57 14 221.57 14 228.68 17.45 228.68 24.56 228.68 31.67 228.68 31.67 221.57 24.56 221.57"/>
      <polygon class="cls-4" points="31.67 214.46 38.78 214.46 38.78 207.35 31.67 207.35 24.56 207.35 17.45 207.35 17.45 214.46 24.56 214.46 31.67 214.46"/>
      <polygon class="cls-4" points="24.56 250.01 17.45 250.01 14 250.01 14 257.12 17.45 257.12 24.56 257.12 31.67 257.12 31.67 250.01 24.56 250.01"/>
      <polygon class="cls-4" points="31.67 264.23 24.56 264.23 17.45 264.23 14 264.23 14 271.34 17.45 271.34 24.56 271.34 31.67 271.34 38.78 271.34 38.78 264.23 31.67 264.23"/>
      <polygon class="cls-4" points="38.78 278.45 31.67 278.45 24.56 278.45 17.45 278.45 14 278.45 14 285.56 17.45 285.56 24.56 285.56 31.67 285.56 38.78 285.56 45.89 285.56 45.89 278.45 38.78 278.45"/>
      <polygon class="cls-4" points="252.08 306.89 259.19 306.89 266.3 306.89 273.41 306.89 280.52 306.89 287.63 306.89 287.63 299.78 280.52 299.78 273.41 299.78 266.3 299.78 259.19 299.78 252.08 299.78 244.97 299.78 237.86 299.78 237.86 306.89 244.97 306.89 252.08 306.89"/>
      <polygon class="cls-4" points="259.19 285.56 252.08 285.56 252.08 292.67 259.19 292.67 266.3 292.67 273.41 292.67 273.41 285.56 266.3 285.56 259.19 285.56"/>
      <polygon class="cls-4" points="287.63 314 280.52 314 273.41 314 266.3 314 259.19 314 252.08 314 244.97 314 237.86 314 237.86 321.11 244.97 321.11 252.08 321.11 259.19 321.11 266.3 321.11 273.41 321.11 280.52 321.11 287.63 321.11 293.3 321.11 293.3 314 287.63 314"/>
      <g class="cls-13">
        <rect class="cls-4" x="294.74" y="328.22" width="7.11" height="7.11"/>
      </g>
      <polygon class="cls-4" points="244.97 335.33 252.08 335.33 259.19 335.33 266.3 335.33 273.41 335.33 280.52 335.33 287.63 335.33 287.63 328.22 280.52 328.22 273.41 328.22 266.3 328.22 259.19 328.22 252.08 328.22 244.97 328.22 237.86 328.22 237.86 335.33 244.97 335.33"/>
      <polygon class="cls-4" points="223.64 321.11 223.64 328.22 230.75 328.22 237.86 328.22 237.86 321.11 230.75 321.11 223.64 321.11"/>
      <rect class="cls-4" x="230.75" y="335.33" width="7.11" height="7.11"/>
      <polygon class="cls-4" points="287.63 342.44 280.52 342.44 273.41 342.44 266.3 342.44 259.19 342.44 252.08 342.44 244.97 342.44 237.86 342.44 237.86 349.55 244.97 349.55 252.08 349.55 259.19 349.55 266.3 349.55 273.41 349.55 280.52 349.55 287.63 349.55 293.3 349.55 293.3 342.44 287.63 342.44"/>
      <polygon class="cls-4" points="287.63 356.66 280.52 356.66 273.41 356.66 266.3 356.66 259.19 356.66 252.08 356.66 252.08 363.77 259.19 363.77 266.3 363.77 273.41 363.77 273.41 370.88 280.52 370.88 287.63 370.88 293.3 370.88 293.3 356.66 287.63 356.66"/>
      <polygon class="cls-4" points="38.78 292.67 31.67 292.67 24.56 292.67 17.45 292.67 14 292.67 14 321.11 17.45 321.11 24.56 321.11 31.67 321.11 31.67 314 38.78 314 45.89 314 53 314 53 306.89 45.89 306.89 38.78 306.89 31.67 306.89 31.67 299.78 38.78 299.78 45.89 299.78 45.89 292.67 38.78 292.67"/>
      <polygon class="cls-4" points="45.89 321.11 38.78 321.11 31.67 321.11 31.67 328.22 24.56 328.22 17.45 328.22 14 328.22 14 370.88 17.45 370.88 24.56 370.88 31.67 370.88 31.67 363.77 38.78 363.77 45.89 363.77 53 363.77 53 356.66 45.89 356.66 38.78 356.66 31.67 356.66 31.67 349.55 38.78 349.55 45.89 349.55 53 349.55 53 342.44 45.89 342.44 38.78 342.44 31.67 342.44 31.67 335.33 38.78 335.33 45.89 335.33 45.89 328.22 53 328.22 53 321.11 45.89 321.11"/>
      <rect class="cls-4" x="31.67" y="186.02" width="7.11" height="7.11"/>
      <rect class="cls-4" x="45.89" y="214.46" width="7.11" height="7.11"/>
      <rect class="cls-4" x="38.78" y="200.24" width="7.11" height="7.11"/>
      <polygon class="cls-4" points="124.1 193.13 116.99 193.13 116.99 200.24 124.1 200.24 131.21 200.24 131.21 193.13 124.1 193.13"/>
      <polygon class="cls-4" points="145.43 207.35 145.43 200.24 138.32 200.24 131.21 200.24 131.21 207.35 138.32 207.35 145.43 207.35"/>
      <rect class="cls-4" x="145.43" y="193.13" width="7.11" height="7.11"/>
      <polygon class="cls-4" points="159.65 186.02 159.65 178.91 159.65 171.8 159.65 164.69 152.54 164.69 152.54 171.8 152.54 178.91 152.54 186.02 152.54 193.13 159.65 193.13 159.65 186.02"/>
      <rect class="cls-4" x="237.86" y="143.36" width="7.11" height="7.11"/>
      <rect class="cls-4" x="230.75" y="136.25" width="7.11" height="7.11"/>
      <rect class="cls-4" x="223.64" y="122.03" width="7.11" height="7.11"/>
      <polygon class="cls-4" points="202.31 157.58 209.42 157.58 209.42 150.47 202.31 150.47 195.2 150.47 195.2 157.58 202.31 157.58"/>
      <rect class="cls-4" x="209.42" y="164.69" width="7.11" height="7.11"/>
      <polygon class="cls-4" points="195.2 178.91 202.31 178.91 209.42 178.91 209.42 171.8 202.31 171.8 195.2 171.8 188.09 171.8 188.09 178.91 195.2 178.91"/>
      <polygon class="cls-4" points="180.98 164.69 180.98 157.58 188.09 157.58 188.09 150.47 195.2 150.47 195.2 143.36 188.09 143.36 180.98 143.36 180.98 150.47 173.87 150.47 173.87 157.58 166.76 157.58 166.76 164.69 173.87 164.69 173.87 171.8 180.98 171.8 188.09 171.8 188.09 164.69 180.98 164.69"/>
      <rect class="cls-4" x="124.1" y="143.36" width="7.11" height="7.11"/>
      <polygon class="cls-4" points="109.88 150.47 102.77 150.47 102.77 157.58 109.88 157.58 116.99 157.58 124.1 157.58 124.1 150.47 116.99 150.47 109.88 150.47"/>
      <rect class="cls-4" x="138.32" y="86.48" width="7.11" height="7.11"/>
      <rect class="cls-4" x="145.43" y="79.37" width="7.11" height="7.11"/>
      <rect class="cls-4" x="138.32" y="65.15" width="7.11" height="7.11"/>
      <rect class="cls-4" x="145.43" y="58.04" width="7.11" height="7.11"/>
      <rect class="cls-4" x="131.21" y="72.26" width="7.11" height="7.11"/>
      <polygon class="cls-4" points="159.65 72.26 166.76 72.26 166.76 65.15 159.65 65.15 152.54 65.15 152.54 72.26 159.65 72.26"/>
      <polygon class="cls-4" points="159.65 50.93 159.65 58.04 166.76 58.04 173.87 58.04 173.87 50.93 166.76 50.93 159.65 50.93"/>
      <polygon class="cls-4" points="180.98 50.93 188.09 50.93 188.09 43.82 180.98 43.82 173.87 43.82 173.87 50.93 180.98 50.93"/>
      <polygon class="cls-4" points="202.31 50.93 209.42 50.93 216.53 50.93 223.64 50.93 223.64 43.82 216.53 43.82 209.42 43.82 202.31 43.82 195.2 43.82 195.2 50.93 202.31 50.93"/>
      <polygon class="cls-4" points="230.75 58.04 237.86 58.04 237.86 50.93 230.75 50.93 223.64 50.93 223.64 58.04 230.75 58.04"/>
      <rect class="cls-4" x="237.86" y="58.04" width="7.11" height="7.11"/>
      <polygon class="cls-4" points="252.08 72.26 259.19 72.26 259.19 65.15 252.08 65.15 244.97 65.15 244.97 72.26 252.08 72.26"/>
      <polygon class="cls-4" points="266.3 79.37 273.41 79.37 273.41 72.26 266.3 72.26 259.19 72.26 259.19 79.37 266.3 79.37"/>
      <rect class="cls-4" x="266.3" y="86.48" width="7.11" height="7.11"/>
      <rect class="cls-4" x="273.41" y="79.37" width="7.11" height="7.11"/>
      <rect class="cls-4" x="280.52" y="93.59" width="7.11" height="7.11"/>
      <rect class="cls-4" x="280.52" y="107.81" width="7.11" height="7.11"/>
      <rect class="cls-4" x="188.09" y="36.71" width="7.11" height="7.11"/>
      <polygon class="cls-4" points="166.76 36.71 159.65 36.71 152.54 36.71 145.43 36.71 138.32 36.71 138.32 43.82 145.43 43.82 152.54 43.82 159.65 43.82 166.76 43.82 173.87 43.82 173.87 36.71 166.76 36.71"/>
      <polygon class="cls-4" points="124.1 43.82 116.99 43.82 109.88 43.82 109.88 50.93 116.99 50.93 124.1 50.93 131.21 50.93 138.32 50.93 138.32 43.82 131.21 43.82 124.1 43.82"/>
      <polygon class="cls-4" points="95.66 50.93 88.55 50.93 88.55 58.04 95.66 58.04 102.77 58.04 109.88 58.04 109.88 50.93 102.77 50.93 95.66 50.93"/>
      <polygon class="cls-4" points="138.32 122.03 138.32 114.92 138.32 107.81 145.43 107.81 145.43 100.7 138.32 100.7 131.21 100.7 131.21 107.81 131.21 114.92 124.1 114.92 124.1 122.03 131.21 122.03 138.32 122.03"/>
      <rect class="cls-4" x="145.43" y="157.58" width="7.11" height="7.11"/>
      <rect class="cls-4" x="166.76" y="178.91" width="7.11" height="7.11"/>
      <rect class="cls-4" x="81.44" y="164.69" width="7.11" height="7.11"/>
      <polygon class="cls-4" points="74.33 171.8 67.22 171.8 67.22 178.91 74.33 178.91 81.44 178.91 81.44 171.8 74.33 171.8"/>
      <rect class="cls-4" x="81.44" y="178.91" width="7.11" height="7.11"/>
      <rect class="cls-4" x="81.44" y="193.13" width="7.11" height="7.11"/>
      <rect class="cls-4" x="102.77" y="221.57" width="7.11" height="7.11"/>
      <polygon class="cls-4" points="145.43 221.57 145.43 214.46 138.32 214.46 131.21 214.46 131.21 207.35 124.1 207.35 124.1 214.46 116.99 214.46 109.88 214.46 109.88 221.57 116.99 221.57 124.1 221.57 131.21 221.57 138.32 221.57 138.32 228.68 145.43 228.68 152.54 228.68 152.54 221.57 145.43 221.57"/>
      <polygon class="cls-4" points="159.65 228.68 152.54 228.68 152.54 235.79 152.54 242.9 159.65 242.9 159.65 235.79 159.65 228.68"/>
      <rect class="cls-4" x="88.55" y="186.02" width="7.11" height="7.11"/>
      <rect class="cls-4" x="88.55" y="171.8" width="7.11" height="7.11"/>
      <rect class="cls-4" x="173.87" y="186.02" width="7.11" height="7.11"/>
      <rect class="cls-4" x="166.76" y="193.13" width="7.11" height="7.11"/>
      <rect class="cls-4" x="173.87" y="200.24" width="7.11" height="7.11"/>
      <polygon class="cls-4" points="173.87 150.47 173.87 143.36 180.98 143.36 180.98 136.25 173.87 136.25 166.76 136.25 166.76 143.36 159.65 143.36 152.54 143.36 152.54 150.47 159.65 150.47 159.65 157.58 166.76 157.58 166.76 150.47 173.87 150.47"/>
      <polygon class="cls-4" points="152.54 349.55 159.65 349.55 166.76 349.55 166.76 342.44 166.76 335.33 166.76 328.22 159.65 328.22 159.65 335.33 159.65 342.44 152.54 342.44 145.43 342.44 145.43 349.55 152.54 349.55"/>
      <polygon class="cls-4" points="159.65 278.45 166.76 278.45 166.76 271.34 173.87 271.34 173.87 264.23 166.76 264.23 159.65 264.23 159.65 271.34 159.65 278.45"/>
      <rect class="cls-3" x="81.44" y="65.15" width="7.11" height="7.11"/>
      <rect class="cls-3" x="74.33" y="79.37" width="7.11" height="7.11"/>
      <polygon class="cls-3" points="67.22 93.59 74.33 93.59 74.33 86.48 67.22 86.48 60.11 86.48 53 86.48 53 93.59 60.11 93.59 67.22 93.59"/>
      <polygon class="cls-3" points="45.89 100.7 45.89 107.81 53 107.81 60.11 107.81 60.11 100.7 53 100.7 45.89 100.7"/>
      <polygon class="cls-3" points="45.89 114.92 38.78 114.92 38.78 122.03 45.89 122.03 53 122.03 53 114.92 45.89 114.92"/>
      <polygon class="cls-3" points="67.22 136.25 67.22 129.14 60.11 129.14 60.11 122.03 53 122.03 53 129.14 45.89 129.14 45.89 136.25 53 136.25 60.11 136.25 67.22 136.25"/>
      <rect class="cls-3" x="67.22" y="136.25" width="7.11" height="7.11"/>
      <rect class="cls-3" x="88.55" y="129.14" width="7.11" height="7.11"/>
      <rect class="cls-3" x="95.66" y="114.92" width="7.11" height="7.11"/>
      <rect class="cls-3" x="81.44" y="122.03" width="7.11" height="7.11"/>
      <rect class="cls-3" x="102.77" y="122.03" width="7.11" height="7.11"/>
      <rect class="cls-3" x="109.88" y="114.92" width="7.11" height="7.11"/>
      <polygon class="cls-3" points="124.1 100.7 116.99 100.7 116.99 107.81 124.1 107.81 131.21 107.81 131.21 100.7 124.1 100.7"/>
      <polygon class="cls-3" points="166.76 143.36 166.76 136.25 159.65 136.25 152.54 136.25 145.43 136.25 145.43 143.36 152.54 143.36 159.65 143.36 166.76 143.36"/>
      <polygon class="cls-3" points="177.42 150.47 180.98 150.47 180.98 143.36 177.42 143.36 173.87 143.36 173.87 150.47 177.42 150.47"/>
      <rect class="cls-3" x="166.76" y="129.14" width="7.11" height="7.11"/>
      <rect class="cls-3" x="180.98" y="129.14" width="7.11" height="7.11"/>
      <rect class="cls-3" x="188.09" y="136.25" width="7.11" height="7.11"/>
      <rect class="cls-3" x="202.31" y="143.36" width="7.11" height="7.11"/>
      <rect class="cls-3" x="216.53" y="157.58" width="7.11" height="7.11"/>
      <rect class="cls-3" x="244.97" y="129.14" width="7.11" height="7.11"/>
      <rect class="cls-3" x="252.08" y="136.25" width="7.11" height="7.11"/>
      <rect class="cls-3" x="259.19" y="143.36" width="7.11" height="7.11"/>
      <rect class="cls-3" x="259.19" y="122.03" width="7.11" height="7.11"/>
      <rect class="cls-3" x="273.41" y="122.03" width="7.11" height="7.11"/>
      <polygon class="cls-3" points="273.41 143.36 280.52 143.36 287.63 143.36 287.63 136.25 280.52 136.25 273.41 136.25 273.41 143.36"/>
      <polygon class="cls-3" points="287.63 150.47 280.52 150.47 280.52 157.58 287.63 157.58 293.3 157.58 293.3 150.47 287.63 150.47"/>
      <g class="cls-15">
        <rect class="cls-3" x="294.74" y="164.69" width="7.11" height="7.11"/>
        <rect class="cls-3" x="294.74" y="186.02" width="7.11" height="7.11"/>
      </g>
      <rect class="cls-3" x="287.63" y="178.91" width="5.67" height="7.11"/>
      <rect class="cls-3" x="266.3" y="150.47" width="7.11" height="7.11"/>
      <rect class="cls-3" x="252.08" y="157.58" width="7.11" height="7.11"/>
      <rect class="cls-3" x="244.97" y="164.69" width="7.11" height="7.11"/>
      <rect class="cls-3" x="230.75" y="164.69" width="7.11" height="7.11"/>
      <rect class="cls-3" x="223.64" y="171.8" width="7.11" height="7.11"/>
      <polygon class="cls-3" points="230.75 186.02 223.64 186.02 216.53 186.02 216.53 193.13 223.64 193.13 230.75 193.13 230.75 186.02"/>
      <rect class="cls-3" x="216.53" y="200.24" width="7.11" height="7.11"/>
      <rect class="cls-3" x="280.52" y="242.9" width="7.11" height="7.11"/>
      <rect class="cls-3" x="273.41" y="250.01" width="7.11" height="7.11"/>
      <rect class="cls-3" x="266.3" y="257.12" width="7.11" height="7.11"/>
      <rect class="cls-3" x="266.3" y="235.79" width="7.11" height="7.11"/>
      <rect class="cls-3" x="259.19" y="228.68" width="7.11" height="7.11"/>
      <rect class="cls-3" x="223.64" y="228.68" width="7.11" height="7.11"/>
      <rect class="cls-3" x="230.75" y="242.9" width="7.11" height="7.11"/>
      <polygon class="cls-3" points="252.08 193.13 244.97 193.13 244.97 200.24 244.97 207.35 252.08 207.35 252.08 200.24 252.08 193.13"/>
      <rect class="cls-3" x="252.08" y="207.35" width="7.11" height="7.11"/>
      <polygon class="cls-3" points="244.97 221.57 244.97 214.46 237.86 214.46 237.86 221.57 237.86 228.68 244.97 228.68 244.97 221.57"/>
      <rect class="cls-3" x="237.86" y="235.79" width="7.11" height="7.11"/>
      <rect class="cls-3" x="252.08" y="242.9" width="7.11" height="7.11"/>
      <rect class="cls-3" x="266.3" y="214.46" width="7.11" height="7.11"/>
      <rect class="cls-3" x="273.41" y="221.57" width="7.11" height="7.11"/>
      <rect class="cls-3" x="237.86" y="250.01" width="7.11" height="7.11"/>
      <rect class="cls-3" x="287.63" y="228.68" width="5.67" height="7.11"/>
      <g class="cls-14">
        <rect class="cls-3" x="294.74" y="285.56" width="7.11" height="7.11"/>
      </g>
      <rect class="cls-3" x="273.41" y="285.56" width="14.22" height="7.11"/>
      <rect class="cls-3" x="287.63" y="292.67" width="5.67" height="7.11"/>
      <rect class="cls-3" x="273.41" y="264.23" width="14.22" height="7.11"/>
      <g class="cls-17">
        <rect class="cls-3" x="294.74" y="264.23" width="14.22" height="7.11"/>
      </g>
      <rect class="cls-3" x="287.63" y="200.24" width="5.67" height="7.11"/>
      <rect class="cls-3" x="280.52" y="207.35" width="7.11" height="7.11"/>
      <rect class="cls-3" x="273.41" y="200.24" width="7.11" height="7.11"/>
      <rect class="cls-3" x="287.63" y="250.01" width="5.67" height="7.11"/>
      <g class="cls-16">
        <rect class="cls-3" x="294.74" y="242.9" width="28.44" height="7.11"/>
        <rect class="cls-3" x="294.74" y="221.57" width="21.33" height="7.11"/>
      </g>
      <polygon class="cls-3" points="223.64 221.57 223.64 214.46 216.53 214.46 209.42 214.46 209.42 221.57 216.53 221.57 223.64 221.57"/>
      <rect class="cls-3" x="202.31" y="228.68" width="7.11" height="7.11"/>
      <polygon class="cls-3" points="209.42 250.01 216.53 250.01 223.64 250.01 223.64 242.9 216.53 242.9 209.42 242.9 202.31 242.9 202.31 250.01 209.42 250.01"/>
      <rect class="cls-3" x="223.64" y="250.01" width="7.11" height="7.11"/>
      <rect class="cls-3" x="230.75" y="257.12" width="7.11" height="7.11"/>
      <polygon class="cls-3" points="244.97 271.34 252.08 271.34 252.08 264.23 244.97 264.23 237.86 264.23 237.86 271.34 244.97 271.34"/>
      <rect class="cls-3" x="252.08" y="271.34" width="7.11" height="7.11"/>
      <rect class="cls-3" x="259.19" y="278.45" width="7.11" height="7.11"/>
      <polygon class="cls-3" points="188.09 242.9 195.2 242.9 202.31 242.9 202.31 235.79 195.2 235.79 188.09 235.79 180.98 235.79 173.87 235.79 173.87 242.9 180.98 242.9 188.09 242.9"/>
      <polygon class="cls-3" points="156.09 242.9 152.54 242.9 148.98 242.9 145.43 242.9 145.43 250.01 148.98 250.01 152.54 250.01 156.09 250.01 159.65 250.01 159.65 242.9 156.09 242.9"/>
      <polygon class="cls-3" points="172.09 242.9 170.32 242.9 168.54 242.9 166.76 242.9 166.76 250.01 168.54 250.01 170.32 250.01 172.09 250.01 173.87 250.01 173.87 242.9 172.09 242.9"/>
      <polygon class="cls-3" points="131.21 250.01 131.21 257.12 138.32 257.12 145.43 257.12 145.43 250.01 138.32 250.01 131.21 250.01"/>
      <polygon class="cls-3" points="124.1 264.23 124.1 271.34 131.21 271.34 131.21 264.23 131.21 257.12 124.1 257.12 124.1 264.23"/>
      <polygon class="cls-3" points="74.33 278.45 67.22 278.45 60.11 278.45 53 278.45 53 285.56 60.11 285.56 67.22 285.56 74.33 285.56 81.44 285.56 88.55 285.56 88.55 278.45 81.44 278.45 74.33 278.45"/>
      <rect class="cls-3" x="95.66" y="278.45" width="7.11" height="7.11"/>
      <rect class="cls-3" x="102.77" y="285.56" width="7.11" height="7.11"/>
      <rect class="cls-3" x="31.67" y="335.33" width="14.22" height="7.11"/>
      <rect class="cls-3" x="31.67" y="349.55" width="21.33" height="7.11"/>
      <rect class="cls-3" x="31.67" y="314" width="21.33" height="7.11"/>
      <rect class="cls-3" x="14" y="321.11" width="17.67" height="7.11"/>
      <rect class="cls-3" x="31.67" y="363.77" width="21.33" height="7.11"/>
      <rect class="cls-3" x="14" y="370.88" width="17.67" height="7.11"/>
      <rect class="cls-3" x="45.89" y="328.22" width="7.11" height="7.11"/>
      <rect class="cls-3" x="31.67" y="299.78" width="14.22" height="7.11"/>
      <rect class="cls-3" x="124.1" y="285.56" width="7.11" height="7.11"/>
      <rect class="cls-3" x="131.21" y="292.67" width="7.11" height="7.11"/>
      <rect class="cls-3" x="152.54" y="370.88" width="7.11" height="7.11"/>
      <polygon class="cls-3" points="138.32 278.45 145.43 278.45 152.54 278.45 152.54 271.34 145.43 271.34 138.32 271.34 131.21 271.34 131.21 278.45 138.32 278.45"/>
      <rect class="cls-3" x="152.54" y="264.23" width="7.11" height="7.11"/>
      <rect class="cls-3" x="152.54" y="285.56" width="7.11" height="7.11"/>
      <rect class="cls-3" x="145.43" y="292.67" width="7.11" height="7.11"/>
      <rect class="cls-3" x="138.32" y="299.78" width="7.11" height="7.11"/>
      <rect class="cls-3" x="145.43" y="314" width="7.11" height="7.11"/>
      <rect class="cls-3" x="152.54" y="306.89" width="7.11" height="7.11"/>
      <polygon class="cls-3" points="188.09 299.78 180.98 299.78 173.87 299.78 166.76 299.78 159.65 299.78 159.65 306.89 166.76 306.89 173.87 306.89 180.98 306.89 188.09 306.89 195.2 306.89 195.2 299.78 188.09 299.78"/>
      <polygon class="cls-3" points="202.31 306.89 195.2 306.89 195.2 314 202.31 314 209.42 314 209.42 306.89 202.31 306.89"/>
      <rect class="cls-3" x="138.32" y="321.11" width="7.11" height="7.11"/>
      <polygon class="cls-3" points="131.21 338.89 131.21 342.44 138.32 342.44 138.32 338.89 138.32 335.33 131.21 335.33 131.21 338.89"/>
      <polygon class="cls-3" points="152.54 356.66 159.65 356.66 166.76 356.66 166.76 349.55 159.65 349.55 152.54 349.55 145.43 349.55 145.43 356.66 152.54 356.66"/>
      <polygon class="cls-3" points="143.06 370.88 147.8 370.88 152.54 370.88 152.54 363.77 147.8 363.77 143.06 363.77 138.32 363.77 138.32 370.88 143.06 370.88"/>
      <polygon class="cls-3" points="188.09 342.44 195.2 342.44 195.2 335.33 188.09 335.33 180.98 335.33 180.98 342.44 188.09 342.44"/>
      <polygon class="cls-3" points="173.87 335.33 180.98 335.33 180.98 328.22 173.87 328.22 166.76 328.22 166.76 335.33 173.87 335.33"/>
      <rect class="cls-3" x="195.2" y="342.44" width="7.11" height="7.11"/>
      <polygon class="cls-3" points="209.42 356.66 216.53 356.66 216.53 349.55 209.42 349.55 202.31 349.55 202.31 356.66 209.42 356.66"/>
      <polygon class="cls-3" points="223.64 363.77 230.75 363.77 230.75 356.66 223.64 356.66 216.53 356.66 216.53 363.77 223.64 363.77"/>
      <rect class="cls-3" x="230.75" y="363.77" width="7.11" height="7.11"/>
      <polygon class="cls-3" points="188.09 250.01 180.98 250.01 173.87 250.01 173.87 257.12 180.98 257.12 188.09 257.12 195.2 257.12 195.2 250.01 188.09 250.01"/>
      <polygon class="cls-3" points="202.31 257.12 195.2 257.12 195.2 264.23 202.31 264.23 209.42 264.23 209.42 257.12 202.31 257.12"/>
      <polygon class="cls-3" points="223.64 264.23 216.53 264.23 209.42 264.23 209.42 271.34 216.53 271.34 223.64 271.34 230.75 271.34 230.75 264.23 223.64 264.23"/>
      <rect class="cls-3" x="230.75" y="271.34" width="7.11" height="7.11"/>
      <rect class="cls-3" x="237.86" y="278.45" width="7.11" height="7.11"/>
      <rect class="cls-3" x="244.97" y="285.56" width="7.11" height="7.11"/>
      <polygon class="cls-3" points="170.31 278.45 173.87 278.45 173.87 271.34 170.31 271.34 166.76 271.34 166.76 278.45 170.31 278.45"/>
      <polygon class="cls-3" points="180.98 285.56 188.09 285.56 195.2 285.56 202.31 285.56 202.31 278.45 195.2 278.45 188.09 278.45 180.98 278.45 173.87 278.45 173.87 285.56 180.98 285.56"/>
      <polygon class="cls-3" points="209.42 292.67 216.53 292.67 216.53 285.56 209.42 285.56 202.31 285.56 202.31 292.67 209.42 292.67"/>
      <polygon class="cls-3" points="223.64 299.78 230.75 299.78 230.75 292.67 223.64 292.67 216.53 292.67 216.53 299.78 223.64 299.78"/>
      <polygon class="cls-3" points="124.1 242.9 116.99 242.9 109.88 242.9 109.88 250.01 116.99 250.01 124.1 250.01 131.21 250.01 131.21 242.9 124.1 242.9"/>
      <polygon class="cls-3" points="88.55 164.69 88.55 157.58 81.44 157.58 74.33 157.58 74.33 164.69 81.44 164.69 88.55 164.69"/>
      <rect class="cls-3" x="67.22" y="164.69" width="7.11" height="7.11"/>
      <rect class="cls-3" x="53" y="164.69" width="7.11" height="7.11"/>
      <rect class="cls-3" x="45.89" y="143.36" width="7.11" height="7.11"/>
      <rect class="cls-3" x="45.89" y="157.58" width="7.11" height="7.11"/>
      <rect class="cls-3" x="38.78" y="164.69" width="7.11" height="7.11"/>
      <rect class="cls-3" x="31.67" y="178.91" width="7.11" height="7.11"/>
      <rect class="cls-3" x="45.89" y="178.91" width="7.11" height="7.11"/>
      <rect class="cls-3" x="67.22" y="178.91" width="7.11" height="7.11"/>
      <rect class="cls-3" x="67.22" y="193.13" width="7.11" height="7.11"/>
      <polygon class="cls-3" points="67.22 207.35 60.11 207.35 53 207.35 53 214.46 60.11 214.46 67.22 214.46 74.33 214.46 74.33 207.35 67.22 207.35"/>
      <rect class="cls-3" x="74.33" y="214.46" width="7.11" height="7.11"/>
      <rect class="cls-3" x="67.22" y="221.57" width="7.11" height="7.11"/>
      <polygon class="cls-3" points="81.44 228.68 74.33 228.68 74.33 235.79 74.33 242.9 81.44 242.9 81.44 235.79 81.44 228.68"/>
      <rect class="cls-3" x="67.22" y="250.01" width="7.11" height="7.11"/>
      <polygon class="cls-3" points="45.89 257.12 45.89 264.23 53 264.23 60.11 264.23 60.11 257.12 60.11 250.01 53 250.01 53 257.12 45.89 257.12"/>
      <rect class="cls-3" x="38.78" y="264.23" width="7.11" height="7.11"/>
      <polygon class="cls-3" points="88.55 242.9 81.44 242.9 81.44 250.01 81.44 257.12 88.55 257.12 88.55 250.01 88.55 242.9"/>
      <rect class="cls-3" x="88.55" y="257.12" width="7.11" height="7.11"/>
      <polygon class="cls-3" points="102.77 271.34 109.88 271.34 109.88 264.23 102.77 264.23 95.66 264.23 95.66 271.34 102.77 271.34"/>
      <polygon class="cls-3" points="116.99 278.45 109.88 278.45 109.88 285.56 116.99 285.56 124.1 285.56 124.1 278.45 116.99 278.45"/>
      <polygon class="cls-3" points="53 228.68 53 235.79 60.11 235.79 67.22 235.79 67.22 228.68 60.11 228.68 53 228.68"/>
      <rect class="cls-3" x="45.89" y="242.9" width="7.11" height="7.11"/>
      <rect class="cls-3" x="60.11" y="242.9" width="7.11" height="7.11"/>
      <rect class="cls-3" x="38.78" y="228.68" width="7.11" height="7.11"/>
      <polygon class="cls-3" points="38.78 214.46 31.67 214.46 24.56 214.46 17.45 214.46 17.45 221.57 24.56 221.57 31.67 221.57 38.78 221.57 38.78 214.46"/>
      <polygon class="cls-3" points="24.56 228.68 17.45 228.68 14 228.68 14 235.79 17.45 235.79 24.56 235.79 31.67 235.79 31.67 228.68 24.56 228.68"/>
      <polygon class="cls-3" points="24.56 257.12 17.45 257.12 14 257.12 14 264.23 17.45 264.23 24.56 264.23 31.67 264.23 31.67 257.12 24.56 257.12"/>
      <polygon class="cls-3" points="31.67 242.9 24.56 242.9 17.45 242.9 14 242.9 14 250.01 17.45 250.01 24.56 250.01 31.67 250.01 38.78 250.01 38.78 242.9 31.67 242.9"/>
      <polygon class="cls-3" points="31.67 271.34 24.56 271.34 17.45 271.34 14 271.34 14 278.45 17.45 278.45 24.56 278.45 31.67 278.45 38.78 278.45 38.78 271.34 31.67 271.34"/>
      <polygon class="cls-3" points="38.78 285.56 31.67 285.56 24.56 285.56 17.45 285.56 14 285.56 14 292.67 17.45 292.67 24.56 292.67 31.67 292.67 38.78 292.67 45.89 292.67 45.89 285.56 38.78 285.56"/>
      <polygon class="cls-3" points="230.75 314 223.64 314 216.53 314 209.42 314 209.42 321.11 216.53 321.11 223.64 321.11 230.75 321.11 237.86 321.11 237.86 314 230.75 314"/>
      <polygon class="cls-3" points="252.08 314 259.19 314 266.3 314 273.41 314 280.52 314 287.63 314 287.63 306.89 280.52 306.89 273.41 306.89 266.3 306.89 259.19 306.89 252.08 306.89 244.97 306.89 237.86 306.89 237.86 314 244.97 314 252.08 314"/>
      <polygon class="cls-3" points="259.19 292.67 252.08 292.67 252.08 299.78 259.19 299.78 266.3 299.78 273.41 299.78 273.41 292.67 266.3 292.67 259.19 292.67"/>
      <polygon class="cls-3" points="287.63 321.11 280.52 321.11 273.41 321.11 266.3 321.11 259.19 321.11 252.08 321.11 244.97 321.11 237.86 321.11 237.86 328.22 244.97 328.22 252.08 328.22 259.19 328.22 266.3 328.22 273.41 328.22 280.52 328.22 287.63 328.22 293.3 328.22 293.3 321.11 287.63 321.11"/>
      <g class="cls-9">
        <rect class="cls-3" x="294.74" y="335.33" width="7.11" height="7.11"/>
      </g>
      <polygon class="cls-3" points="252.08 342.44 259.19 342.44 266.3 342.44 273.41 342.44 280.52 342.44 287.63 342.44 287.63 335.33 280.52 335.33 273.41 335.33 266.3 335.33 259.19 335.33 252.08 335.33 244.97 335.33 237.86 335.33 237.86 342.44 244.97 342.44 252.08 342.44"/>
      <polygon class="cls-3" points="230.75 328.22 223.64 328.22 223.64 335.33 230.75 335.33 237.86 335.33 237.86 328.22 230.75 328.22"/>
      <rect class="cls-3" x="230.75" y="342.44" width="7.11" height="7.11"/>
      <polygon class="cls-3" points="287.63 349.55 280.52 349.55 273.41 349.55 266.3 349.55 259.19 349.55 252.08 349.55 244.97 349.55 237.86 349.55 237.86 356.66 244.97 356.66 252.08 356.66 259.19 356.66 266.3 356.66 273.41 356.66 280.52 356.66 287.63 356.66 293.3 356.66 293.3 349.55 287.63 349.55"/>
      <rect class="cls-3" x="252.08" y="363.77" width="21.33" height="7.11"/>
      <rect class="cls-3" x="273.41" y="370.88" width="19.89" height="7.11"/>
      <rect class="cls-3" x="31.67" y="193.13" width="7.11" height="7.11"/>
      <rect class="cls-3" x="45.89" y="221.57" width="7.11" height="7.11"/>
      <rect class="cls-3" x="38.78" y="207.35" width="7.11" height="7.11"/>
      <polygon class="cls-3" points="124.1 200.24 116.99 200.24 116.99 207.35 124.1 207.35 131.21 207.35 131.21 200.24 124.1 200.24"/>
      <polygon class="cls-3" points="138.32 214.46 145.43 214.46 145.43 207.35 138.32 207.35 131.21 207.35 131.21 214.46 138.32 214.46"/>
      <rect class="cls-3" x="145.43" y="200.24" width="7.11" height="7.11"/>
      <rect class="cls-3" x="152.54" y="193.13" width="7.11" height="7.11"/>
      <rect class="cls-3" x="237.86" y="150.47" width="7.11" height="7.11"/>
      <rect class="cls-3" x="230.75" y="143.36" width="7.11" height="7.11"/>
      <rect class="cls-3" x="223.64" y="129.14" width="7.11" height="7.11"/>
      <polygon class="cls-3" points="191.64 157.58 195.2 157.58 195.2 150.47 191.64 150.47 188.09 150.47 188.09 157.58 191.64 157.58"/>
      <polygon class="cls-3" points="170.31 157.58 173.87 157.58 173.87 150.47 170.31 150.47 166.76 150.47 166.76 157.58 170.31 157.58"/>
      <polygon class="cls-3" points="202.31 164.69 209.42 164.69 209.42 157.58 202.31 157.58 195.2 157.58 195.2 164.69 202.31 164.69"/>
      <rect class="cls-3" x="209.42" y="171.8" width="7.11" height="7.11"/>
      <polygon class="cls-3" points="195.2 186.02 202.31 186.02 209.42 186.02 209.42 178.91 202.31 178.91 195.2 178.91 188.09 178.91 188.09 186.02 195.2 186.02"/>
      <polygon class="cls-3" points="180.98 171.8 173.87 171.8 173.87 178.91 180.98 178.91 188.09 178.91 188.09 171.8 180.98 171.8"/>
      <rect class="cls-3" x="166.76" y="164.69" width="7.11" height="7.11"/>
      <rect class="cls-3" x="124.1" y="150.47" width="7.11" height="7.11"/>
      <polygon class="cls-3" points="109.88 157.58 102.77 157.58 102.77 164.69 109.88 164.69 116.99 164.69 124.1 164.69 124.1 157.58 116.99 157.58 109.88 157.58"/>
      <polygon class="cls-3" points="86.18 143.36 81.44 143.36 81.44 150.47 86.18 150.47 90.92 150.47 95.66 150.47 95.66 143.36 90.92 143.36 86.18 143.36"/>
      <polygon class="cls-3" points="112.25 136.25 102.77 136.25 102.77 143.36 112.25 143.36 121.73 143.36 131.21 143.36 131.21 136.25 121.73 136.25 112.25 136.25"/>
      <polygon class="cls-3" points="131.21 143.36 124.1 143.36 124.1 150.47 131.21 150.47 138.32 150.47 145.43 150.47 145.43 143.36 138.32 143.36 131.21 143.36"/>
      <rect class="cls-3" x="138.32" y="93.59" width="7.11" height="7.11"/>
      <rect class="cls-3" x="145.43" y="86.48" width="7.11" height="7.11"/>
      <rect class="cls-3" x="138.32" y="72.26" width="7.11" height="7.11"/>
      <rect class="cls-3" x="145.43" y="65.15" width="7.11" height="7.11"/>
      <rect class="cls-3" x="131.21" y="79.37" width="7.11" height="7.11"/>
      <polygon class="cls-3" points="159.65 79.37 166.76 79.37 166.76 72.26 159.65 72.26 152.54 72.26 152.54 79.37 159.65 79.37"/>
      <polygon class="cls-3" points="159.65 58.04 159.65 65.15 166.76 65.15 173.87 65.15 173.87 58.04 166.76 58.04 159.65 58.04"/>
      <polygon class="cls-3" points="180.98 58.04 188.09 58.04 188.09 50.93 180.98 50.93 173.87 50.93 173.87 58.04 180.98 58.04"/>
      <polygon class="cls-3" points="202.31 58.04 209.42 58.04 216.53 58.04 223.64 58.04 223.64 50.93 216.53 50.93 209.42 50.93 202.31 50.93 195.2 50.93 195.2 58.04 202.31 58.04"/>
      <polygon class="cls-3" points="230.75 65.15 237.86 65.15 237.86 58.04 230.75 58.04 223.64 58.04 223.64 65.15 230.75 65.15"/>
      <rect class="cls-3" x="237.86" y="65.15" width="7.11" height="7.11"/>
      <polygon class="cls-3" points="252.08 79.37 259.19 79.37 259.19 72.26 252.08 72.26 244.97 72.26 244.97 79.37 252.08 79.37"/>
      <polygon class="cls-3" points="266.3 86.48 273.41 86.48 273.41 79.37 266.3 79.37 259.19 79.37 259.19 86.48 266.3 86.48"/>
      <rect class="cls-3" x="266.3" y="93.59" width="7.11" height="7.11"/>
      <rect class="cls-3" x="273.41" y="86.48" width="7.11" height="7.11"/>
      <rect class="cls-3" x="280.52" y="100.7" width="7.11" height="7.11"/>
      <rect class="cls-3" x="280.52" y="114.92" width="7.11" height="7.11"/>
      <rect class="cls-3" x="188.09" y="43.82" width="7.11" height="7.11"/>
      <polygon class="cls-3" points="152.54 50.93 159.65 50.93 166.76 50.93 173.87 50.93 173.87 43.82 166.76 43.82 159.65 43.82 152.54 43.82 145.43 43.82 138.32 43.82 138.32 50.93 145.43 50.93 152.54 50.93"/>
      <polygon class="cls-3" points="109.88 50.93 109.88 58.04 116.99 58.04 124.1 58.04 131.21 58.04 138.32 58.04 138.32 50.93 131.21 50.93 124.1 50.93 116.99 50.93 109.88 50.93"/>
      <polygon class="cls-3" points="95.66 58.04 88.55 58.04 88.55 65.15 95.66 65.15 102.77 65.15 109.88 65.15 109.88 58.04 102.77 58.04 95.66 58.04"/>
      <polygon class="cls-3" points="138.32 129.14 138.32 122.03 138.32 114.92 145.43 114.92 145.43 107.81 138.32 107.81 131.21 107.81 131.21 114.92 131.21 122.03 124.1 122.03 124.1 129.14 131.21 129.14 138.32 129.14"/>
    </g>
  </g>
</svg>