<?xml version="1.0" encoding="UTF-8"?>
<svg id="Calque_1" xmlns="http://www.w3.org/2000/svg" xmlns:xlink="http://www.w3.org/1999/xlink" version="1.1" viewBox="0 0 616 423">
  <!-- Generator: Adobe Illustrator 29.1.0, SVG Export Plug-In . SVG Version: 2.1.0 Build 142)  -->
  <defs>
    <style>
      .st0, .st1, .st2, .st3, .st4, .st5, .st6, .st7, .st8, .st9, .st10 {
        fill: none;
      }

      .st1 {
        stroke-width: .2px;
      }

      .st1, .st4, .st9 {
        stroke: #000;
      }

      .st11 {
        isolation: isolate;
      }

      .st12 {
        clip-path: url(#clippath-17);
      }

      .st13 {
        clip-path: url(#clippath-11);
      }

      .st14 {
        clip-path: url(#clippath-16);
      }

      .st15 {
        clip-path: url(#clippath-18);
      }

      .st16 {
        clip-path: url(#clippath-10);
      }

      .st17 {
        clip-path: url(#clippath-15);
      }

      .st18 {
        clip-path: url(#clippath-13);
      }

      .st19 {
        clip-path: url(#clippath-14);
      }

      .st20 {
        clip-path: url(#clippath-12);
      }

      .st21 {
        clip-path: url(#clippath-1);
      }

      .st22 {
        clip-path: url(#clippath-3);
      }

      .st23 {
        clip-path: url(#clippath-4);
      }

      .st24 {
        clip-path: url(#clippath-2);
      }

      .st25 {
        clip-path: url(#clippath-7);
      }

      .st26 {
        clip-path: url(#clippath-6);
      }

      .st27 {
        clip-path: url(#clippath-9);
      }

      .st28 {
        clip-path: url(#clippath-8);
      }

      .st29 {
        clip-path: url(#clippath-5);
      }

      .st2, .st3, .st4 {
        stroke-linecap: round;
        stroke-linejoin: round;
      }

      .st2, .st3, .st5, .st6, .st7, .st8, .st10 {
        stroke: #fff;
      }

      .st2, .st4 {
        stroke-width: 1.1px;
      }

      .st3 {
        stroke-width: .9px;
      }

      .st30 {
        fill: #fff;
      }

      .st5 {
        stroke-width: .5px;
      }

      .st6 {
        stroke-width: 1.3px;
      }

      .st7 {
        stroke-width: .6px;
      }

      .st8 {
        stroke-width: 1.4px;
      }

      .st31 {
        clip-path: url(#clippath);
      }
    </style>
    <clipPath id="clippath">
      <rect class="st0" width="616" height="423"/>
    </clipPath>
    <clipPath id="clippath-1">
      <rect class="st0" width="616" height="423"/>
    </clipPath>
    <clipPath id="clippath-2">
      <rect class="st0" width="616" height="423"/>
    </clipPath>
    <clipPath id="clippath-3">
      <rect class="st0" width="616" height="423"/>
    </clipPath>
    <clipPath id="clippath-4">
      <rect class="st0" width="616" height="423"/>
    </clipPath>
    <clipPath id="clippath-5">
      <circle class="st0" cx="554.5" cy="81.2" r="19"/>
    </clipPath>
    <clipPath id="clippath-6">
      <rect class="st0" width="616" height="423"/>
    </clipPath>
    <clipPath id="clippath-7">
      <rect class="st0" width="616" height="423"/>
    </clipPath>
    <clipPath id="clippath-8">
      <rect class="st0" width="616" height="423"/>
    </clipPath>
    <clipPath id="clippath-9">
      <rect class="st0" width="616" height="423"/>
    </clipPath>
    <clipPath id="clippath-10">
      <path class="st0" d="M298.7,79.1c0,13.2,10.7,24,24,24s24-10.7,24-24-10.7-24-24-24-24,10.7-24,24Z"/>
    </clipPath>
    <clipPath id="clippath-11">
      <rect class="st0" width="616" height="423"/>
    </clipPath>
    <clipPath id="clippath-12">
      <rect class="st0" width="616" height="423"/>
    </clipPath>
    <clipPath id="clippath-13">
      <circle class="st0" cx="399.3" cy="79.1" r="24"/>
    </clipPath>
    <clipPath id="clippath-14">
      <rect class="st0" width="616" height="423"/>
    </clipPath>
    <clipPath id="clippath-15">
      <circle class="st0" cx="154.3" cy="239.3" r="43.4"/>
    </clipPath>
    <clipPath id="clippath-16">
      <rect class="st0" width="616" height="423"/>
    </clipPath>
    <clipPath id="clippath-17">
      <circle class="st0" cx="483.8" cy="81.2" r="19"/>
    </clipPath>
    <clipPath id="clippath-18">
      <rect class="st0" width="616" height="423"/>
    </clipPath>
  </defs>
  <g class="st31">
    <g>
      <g class="st21">
        <g>
          <path class="st5" d="M15.5,14.1h584.9c.8,0,1.4.6,1.4,1.4v391.7c0,.8-.6,1.4-1.4,1.4H15.5c-.8,0-1.4-.6-1.4-1.4V15.5c0-.8.6-1.4,1.4-1.4Z"/>
          <path class="st5" d="M268.1,29.5h325.2c.8,0,1.4.6,1.4,1.4v92.5c0,.8-.6,1.4-1.4,1.4h-325.2c-.8,0-1.4-.6-1.4-1.4V30.9c0-.8.6-1.4,1.4-1.4h0Z"/>
          <path class="st5" d="M268.1,124.8h325.2c.8,0,1.4.6,1.4,1.4v269.5c0,.8-.6,1.4-1.4,1.4h-325.2c-.8,0-1.4-.6-1.4-1.4V126.2c0-.8.6-1.4,1.4-1.4h0Z"/>
          <rect class="st5" x="21.7" y="124.8" width="243.6" height="272.4" rx="1.4" ry="1.4"/>
        </g>
      </g>
      <path class="st30" d="M461.6,48.1h2.8v-.5h-1.1v-3.9h-.5l-1.2.6v.6l1.1-.5v3.1h-1.1v.5h0ZM456.2,48.1h.7l1.1-3.6,1.1,3.6h.7l1.4-4.4h-.7l-1.1,3.5-1.1-3.5h-.7l-1.1,3.5-1.1-3.5h-.7l1.4,4.4h0Z"/>
      <g class="st24">
        <g>
          <path class="st30" d="M49.2,27.8h.6v-1.9h2.2v-.5h-2.2v-1.4h2.5v-.5h-3.1v4.4h0ZM45.4,27.8h.6v-1.9h2.2v-.5h-2.2v-1.4h2.5v-.5h-3.1v4.4h0ZM40.7,25.6h0c0-1.2.7-1.8,1.6-1.8s1.6.6,1.6,1.7h0c0,1.2-.7,1.8-1.6,1.8s-1.6-.6-1.6-1.7M42.3,27.9c1.3,0,2.3-.8,2.3-2.2h0c0-1.6-1-2.4-2.3-2.4s-2.3.8-2.3,2.2h0c0,1.6,1,2.4,2.3,2.4"/>
          <path class="st30" d="M94.8,27.9c1.1,0,1.7-.5,1.7-1.3h0c0-.8-.5-1.2-1.3-1.3h-.7c-.5-.2-.8-.4-.8-.7h0c0-.4.3-.8,1-.8s1.1.4,1.1.7h0c0,.1.6.1.6.1h0c0-.9-.7-1.4-1.7-1.4s-1.7.4-1.7,1.3h0c0,.7.5,1.1,1.3,1.3h.7c.5.2.8.4.8.7h0c0,.5-.4.8-1.1.8s-1.1-.3-1.1-.8h0c0-.1-.6-.1-.6-.1h0c0,1,.7,1.5,1.7,1.5"/>
          <path class="st30" d="M201.8,115.5h.6v-3.9h1.4v-.5h-3.4v.5h1.4v3.9ZM197.9,115.6c1.3,0,2.1-.8,2.1-1.8h0s-.6,0-.6,0h0c0,.7-.6,1.2-1.5,1.2s-1.6-.6-1.6-1.7h0c0-1.2.7-1.8,1.6-1.8s1.5.6,1.5,1.2h0s.6,0,.6,0h0c0-1-.8-1.8-2.1-1.8s-2.3.8-2.3,2.2h0c0,1.6.9,2.3,2.3,2.3M192,115.5h3.1v-.5h-2.5v-1.4h2.2v-.5h-2.2v-1.4h2.5v-.5h-3.1v4.4h0ZM188.6,115.5h2.8v-.5h-2.2v-3.9h-.6v4.4h0ZM184.6,115.5h3.1v-.5h-2.5v-1.4h2.2v-.5h-2.2v-1.4h2.5v-.5h-3.1v4.4h0ZM182,115.6c1.1,0,1.7-.5,1.7-1.3h0c0-.8-.5-1.2-1.3-1.3h-.7c-.5-.2-.8-.4-.8-.7h0c0-.4.3-.8,1-.8s1.1.3,1.1.7h0c0,0,.6,0,.6,0h0c0-.9-.7-1.3-1.7-1.3s-1.7.4-1.7,1.3h0c0,.7.5,1.2,1.3,1.3h.7c.5.2.8.4.8.7h0c0,.5-.4.8-1.1.8s-1.1-.3-1.1-.8v-.2h-.6v.2c0,.8.7,1.3,1.7,1.3"/>
        </g>
      </g>
      <path class="st30" d="M162.9,115.5h.6v-1.9h2.2v-.5h-2.2v-1.4h2.5v-.5h-3.1v4.4h0ZM160.2,115.5h.6v-3.9h1.4v-.5h-3.4v.5h1.4v3.9ZM156.3,115.5h.6v-3.9h1.4v-.5h-3.4v.5h1.4v3.9Z"/>
      <g class="st22">
        <g>
          <path class="st30" d="M131.2,115.1h.6v-1.9h2.2v-.5h-2.2v-1.4h2.5v-.5h-3.1v4.4h0ZM128.6,115.1h.6v-3.9h1.4v-.5h-3.4v.5h1.4v3.9h0ZM123,112.9h0c0-1.2.7-1.8,1.6-1.8s1.6.6,1.6,1.7h0c0,1.2-.7,1.8-1.6,1.8s-1.6-.6-1.6-1.7M124.6,115.2c1.3,0,2.3-.8,2.3-2.2h0c0-1.6-.9-2.3-2.3-2.3s-2.3.8-2.3,2.2h0c0,1.6.9,2.3,2.3,2.3"/>
          <path class="st30" d="M248.5,115.5h.6v-3.9h1.4v-.5h-3.4v.5h1.4v3.9ZM244,113.3v-1.6h1.2c.6,0,.9.4.9.8h0c0,.4-.2.8-.9.8h-1.2ZM243.4,115.5h.6v-1.7h.7l1.2,1.7h.8l-1.2-1.7c.8,0,1.2-.7,1.2-1.3h0c0-.8-.6-1.4-1.4-1.4h-1.9v4.4h0ZM239.8,113.9l.8-2.1.8,2.1h-1.6ZM238.5,115.5h.6l.4-1.1h2.1l.4,1.1h.7l-1.7-4.4h-.7l-1.7,4.4ZM236.9,115.5h.6v-3.9h1.4v-.5h-3.4v.5h1.4v3.9h0ZM233.3,115.6c1.1,0,1.7-.5,1.7-1.3h0c0-.8-.5-1.2-1.3-1.3h-.7c-.5-.2-.8-.4-.8-.7h0c0-.4.3-.8,1-.8s1.1.3,1.1.7h0c0,0,.6,0,.6,0h0c0-.9-.7-1.3-1.7-1.3s-1.7.4-1.7,1.3h0c0,.7.5,1.2,1.3,1.3h.7c.5.2.8.4.8.7h0c0,.5-.4.8-1.1.8s-1.1-.3-1.1-.8v-.2h-.6v.2c0,.8.7,1.3,1.7,1.3"/>
          <path class="st30" d="M27.6,27.9c1,0,1.7-.5,1.7-1.3h0c0-.8-.5-1.2-1.3-1.3h-.7c-.5-.2-.8-.4-.8-.7h0c0-.4.3-.8,1-.8s1.1.4,1.1.7h0c0,.1.6.1.6.1h0c0-.9-.7-1.4-1.7-1.4s-1.7.4-1.7,1.3h0c0,.7.5,1.1,1.3,1.3h.7c.5.2.8.4.8.7h0c0,.5-.4.8-1.1.8s-1.1-.3-1.1-.8h0c0-.1-.6-.1-.6-.1h0c0,1,.7,1.5,1.7,1.5"/>
          <path class="st30" d="M76.4,27.9c1.3,0,2.1-.8,2.1-1.8h0s-.6,0-.6,0h0c0,.7-.6,1.2-1.5,1.2s-1.6-.6-1.6-1.7h0c0-1.2.7-1.8,1.6-1.8s1.5.5,1.5,1.2h0s.6,0,.6,0h0c0-1-.8-1.8-2.1-1.8s-2.3.8-2.3,2.2h0c0,1.6.9,2.4,2.3,2.4"/>
          <path class="st30" d="M63,25.6h0c0-1.2.7-1.8,1.6-1.8s1.6.6,1.6,1.7h0c0,1.2-.7,1.8-1.6,1.8s-1.6-.6-1.6-1.7M64.7,27.9c1.3,0,2.3-.8,2.3-2.2h0c0-1.6-.9-2.4-2.3-2.4s-2.3.8-2.3,2.2h0c0,1.6,1,2.4,2.3,2.4"/>
        </g>
      </g>
      <polygon class="st30" points="111.9 27.8 115 27.8 115 27.2 112.5 27.2 112.5 25.8 114.7 25.8 114.7 25.3 112.5 25.3 112.5 23.9 115 23.9 115 23.4 111.9 23.4 111.9 27.8"/>
      <g class="st23">
        <g>
          <path class="st30" d="M532.3,47.7v.4h3.1v-.5h-2.5c0-.3.2-.6.7-.8l.7-.3c.6-.3,1.1-.7,1.1-1.5h0c0-.8-.6-1.3-1.6-1.3s-1.6.5-1.6,1.3h0c0,0,.6,0,.6,0h0c0-.5.4-.8.9-.8s.9.3.9.8h0c0,.5-.2.7-.7,1l-.7.3c-.8.4-1.1.7-1.1,1.4M526.8,48.1h.7l1.1-3.6,1.1,3.6h.7l1.4-4.4h-.7l-1.1,3.5-1.1-3.5h-.7l-1.1,3.5-1.1-3.5h-.7l1.4,4.4h0Z"/>
          <path class="st30" d="M554.5,110.5c16.2,0,29.3-13.1,29.3-29.3s-13.1-29.3-29.3-29.3-29.3,13.1-29.3,29.3,13.1,29.3,29.3,29.3"/>
          <path d="M554.5,105.8c13.6,0,24.6-11,24.6-24.6s-11-24.6-24.6-24.6-24.6,11-24.6,24.6,11,24.6,24.6,24.6"/>
          <path class="st30" d="M554.5,103.4c12.2,0,22.2-9.9,22.2-22.2s-9.9-22.2-22.2-22.2-22.2,9.9-22.2,22.2,9.9,22.2,22.2,22.2"/>
          <path d="M143.5,357.6c57.6,0,104.3-46.7,104.3-104.3s-46.7-104.3-104.3-104.3-104.3,46.7-104.3,104.3,46.7,104.3,104.3,104.3"/>
          <circle class="st8" cx="143.5" cy="253.3" r="104.3"/>
          <path class="st30" d="M554.5,100.2c10.5,0,19-8.5,19-19s-8.5-19-19-19-19,8.5-19,19,8.5,19,19,19"/>
        </g>
      </g>
      <g class="st29">
        <g>
          <path d="M567.3,83.9c9,0,16.3-7.3,16.3-16.3s-7.3-16.3-16.3-16.3-16.3,7.3-16.3,16.3,7.3,16.3,16.3,16.3"/>
          <path class="st1" d="M567.3,83.9c9,0,16.3-7.3,16.3-16.3s-7.3-16.3-16.3-16.3-16.3,7.3-16.3,16.3,7.3,16.3,16.3,16.3Z"/>
        </g>
      </g>
      <g class="st26">
        <g>
          <circle class="st9" cx="554.5" cy="81.2" r="19"/>
          <path class="st30" d="M143.5,302c26.9,0,48.8-21.8,48.8-48.8s-21.8-48.8-48.8-48.8-48.8,21.8-48.8,48.8,21.8,48.8,48.8,48.8"/>
          <path class="st3" d="M571.7,80.9c0-9.3-7.6-16.9-16.9-16.9"/>
          <path class="st10" d="M192.3,64.5c6.2,0,11.2-5,11.2-11.2s-5-11.2-11.2-11.2-11.2,5-11.2,11.2,5,11.2,11.2,11.2Z"/>
          <path class="st10" d="M143.6,42.1c6.2,0,11.2,5,11.2,11.2s-5,11.2-11.2,11.2-11.2-5-11.2-11.2,5-11.2,11.2-11.2Z"/>
          <path class="st30" d="M242.4,54.1h7.1c0-4.3-3.2-7.7-7.8-7.7v6.9h-6.9c0,4.2,3.3,7.8,7.6,7.8v-7Z"/>
          <path class="st10" d="M242.1,64.9c6.2,0,11.2-5,11.2-11.2s-5-11.2-11.2-11.2-11.2,5-11.2,11.2,5,11.2,11.2,11.2Z"/>
          <path class="st30" d="M39.1,95.8c1.5,0,2.8-1.2,2.8-2.8s-1.2-2.8-2.8-2.8-2.8,1.2-2.8,2.8,1.2,2.8,2.8,2.8"/>
          <path class="st30" d="M39.1,106.5c1.5,0,2.8-1.2,2.8-2.8s-1.2-2.8-2.8-2.8-2.8,1.2-2.8,2.8,1.2,2.8,2.8,2.8"/>
          <path class="st30" d="M50.2,95.8c1.5,0,2.8-1.2,2.8-2.8s-1.2-2.8-2.8-2.8-2.8,1.2-2.8,2.8,1.2,2.8,2.8,2.8"/>
          <path class="st30" d="M50.2,106.5c1.5,0,2.8-1.2,2.8-2.8s-1.2-2.8-2.8-2.8-2.8,1.2-2.8,2.8,1.2,2.8,2.8,2.8"/>
          <path class="st7" d="M46.1,68.7c8.5,0,15.4-6.9,15.4-15.3s-6.9-15.3-15.3-15.3-15.4,6.9-15.4,15.3,6.9,15.3,15.3,15.3Z"/>
          <path class="st7" d="M94.8,68.7c8.5,0,15.3-6.9,15.3-15.3s-6.9-15.3-15.3-15.3-15.3,6.9-15.3,15.3,6.9,15.3,15.3,15.3Z"/>
          <path class="st30" d="M31.8,48.2h28.6c.9,0,1.6.7,1.6,1.6v7.2c0,.9-.7,1.6-1.6,1.6h-28.6c-.9,0-1.6-.7-1.6-1.6v-7.2c0-.9.7-1.6,1.6-1.6Z"/>
        </g>
      </g>
      <rect x="30.3" y="50.7" width="31.7" height=".9"/>
      <rect x="30.3" y="53" width="31.7" height=".9"/>
      <g class="st25">
        <path class="st30" d="M80.6,48.2h28.6c.9,0,1.6.7,1.6,1.6v7.2c0,.9-.7,1.6-1.6,1.6h-28.6c-.9,0-1.6-.7-1.6-1.6v-7.2c0-.9.7-1.6,1.6-1.6Z"/>
      </g>
      <rect x="79" y="50.7" width="31.7" height=".9"/>
      <rect x="79" y="53" width="31.7" height=".9"/>
      <line class="st5" x1="46.1" y1="35.9" x2="46.1" y2="30.9"/>
      <line class="st5" x1="94.8" y1="35.9" x2="94.8" y2="30.9"/>
      <polyline class="st5" points="32.5 42.4 27.6 37.5 27.6 30.9"/>
      <polyline class="st5" points="81.2 42.4 76.3 37.5 76.3 30.9"/>
      <polyline class="st5" points="59.8 42.4 64.7 37.5 64.7 30.9"/>
      <polyline class="st5" points="108.5 42.4 113.4 37.5 113.4 30.9"/>
      <g class="st28">
        <g>
          <path class="st30" d="M137,90.7c-4.2,0-7.6,3.4-7.6,7.7s3.4,7.7,7.6,7.7h15.2c4.2,0,7.6-3.4,7.6-7.7s-3.4-7.7-7.6-7.7h-15.2Z"/>
          <path class="st10" d="M137,90.7c-4.2,0-7.6,3.4-7.6,7.7s3.4,7.7,7.6,7.7h15.2c4.2,0,7.6-3.4,7.6-7.7s-3.4-7.7-7.6-7.7h-15.2Z"/>
          <path d="M184.4,90.7c-4.2,0-7.6,3.4-7.6,7.7s3.4,7.7,7.6,7.7h15.2c4.2,0,7.6-3.4,7.6-7.7s-3.4-7.7-7.6-7.7h-15.2Z"/>
          <path class="st10" d="M184.4,90.7c-4.2,0-7.6,3.4-7.6,7.7s3.4,7.7,7.6,7.7h15.2c4.2,0,7.6-3.4,7.6-7.7s-3.4-7.7-7.6-7.7h-15.2Z"/>
          <path d="M233.3,90.7c-4.2,0-7.6,3.4-7.6,7.7s3.4,7.7,7.6,7.7h15.2c4.2,0,7.7-3.4,7.7-7.7s-3.4-7.7-7.6-7.7h-15.2Z"/>
          <path class="st10" d="M233.3,90.7c-4.2,0-7.6,3.4-7.6,7.7s3.4,7.7,7.6,7.7h15.2c4.2,0,7.7-3.4,7.7-7.7s-3.4-7.7-7.6-7.7h-15.2Z"/>
          <path d="M145,90.7c-4.2,0-7.6,3.4-7.6,7.7s3.4,7.7,7.6,7.7h7.3c4.2,0,7.6-3.4,7.6-7.7s-3.4-7.7-7.6-7.7h-7.3Z"/>
          <path class="st10" d="M145,90.7c-4.2,0-7.6,3.4-7.6,7.7s3.4,7.7,7.6,7.7h7.3c4.2,0,7.6-3.4,7.6-7.7s-3.4-7.7-7.6-7.7h-7.3Z"/>
          <path class="st5" d="M23.2,29.5h45.9c.8,0,1.4.6,1.4,1.4v44.9c0,.8-.6,1.4-1.4,1.4H23.2c-.8,0-1.4-.6-1.4-1.4V30.9c0-.8.6-1.4,1.4-1.4Z"/>
          <path class="st5" d="M71.9,29.5h45.9c.8,0,1.4.6,1.4,1.4v44.9c0,.8-.6,1.4-1.4,1.4h-45.9c-.8,0-1.4-.6-1.4-1.4V30.9c0-.8.6-1.4,1.4-1.4Z"/>
          <path class="st5" d="M120.6,29.5h45.9c.8,0,1.4.6,1.4,1.4v44.9c0,.8-.6,1.4-1.4,1.4h-45.9c-.8,0-1.4-.6-1.4-1.4V30.9c0-.8.6-1.4,1.4-1.4Z"/>
          <path class="st5" d="M23.2,77.1h240.8c.8,0,1.4.6,1.4,1.4v44.8c0,.8-.6,1.4-1.4,1.4H23.2c-.8,0-1.4-.6-1.4-1.4v-44.8c0-.8.6-1.4,1.4-1.4Z"/>
          <path class="st5" d="M169.3,29.5h45.9c.8,0,1.4.6,1.4,1.4v44.9c0,.8-.6,1.4-1.4,1.4h-45.9c-.8,0-1.4-.6-1.4-1.4V30.9c0-.8.6-1.4,1.4-1.4Z"/>
          <path class="st5" d="M218,29.5h45.9c.8,0,1.4.6,1.4,1.4v44.9c0,.8-.6,1.4-1.4,1.4h-45.9c-.8,0-1.4-.6-1.4-1.4V30.9c0-.8.6-1.4,1.4-1.4Z"/>
        </g>
      </g>
      <polygon class="st30" points="192.3 58.7 185.2 50.7 199.3 50.7 192.3 58.7"/>
      <polygon class="st30" points="143.6 47.9 136.5 55.9 150.6 55.9 143.6 47.9"/>
      <g class="st27">
        <g>
          <path class="st5" d="M143.6,38.8c8,0,14.5,6.5,14.5,14.5s-6.5,14.5-14.5,14.5-14.5-6.5-14.5-14.5,6.5-14.5,14.5-14.5Z"/>
          <path class="st5" d="M192.3,38.8c8,0,14.5,6.5,14.5,14.5s-6.5,14.5-14.5,14.5-14.5-6.5-14.5-14.5,6.5-14.5,14.5-14.5Z"/>
          <path class="st5" d="M242.1,38.8c8,0,14.5,6.5,14.5,14.5s-6.5,14.5-14.5,14.5-14.5-6.5-14.5-14.5,6.5-14.5,14.5-14.5Z"/>
          <path class="st30" d="M309.8,186.8h-1.2l-2.8,1.4v1.5l2.6-1.2v8.6h1.5v-10.3h0ZM299.3,195.7l3.3-6.3c.2.5.3,1.2.3,1.9v1.3c0,2.3-.9,3.4-2.4,3.4s-.9-.1-1.2-.3M298.1,192.6v-1.3c0-2.3.9-3.4,2.4-3.4s.9.1,1.2.3l-3.3,6.3c-.2-.5-.3-1.2-.3-1.9M300.5,197.3c2.7,0,3.9-2,3.9-4.7v-1.3c0-2.8-1.2-4.7-3.9-4.7s-3.9,2-3.9,4.7v1.3c0,2.8,1.2,4.7,3.9,4.7M292,197.3c2.1,0,3.2-.9,3.2-2.3h0c0-1.3-.8-2.1-2.2-2.3l-1.6-.2c-.7,0-1-.4-1-.8h0c0-.6.5-1,1.6-1s1.6.4,1.6,1.1h0s1.5,0,1.5,0h0c0-1.4-1.1-2.3-3.1-2.3s-3.1,1-3.1,2.3h0c0,1.3.8,2.1,2.2,2.2l1.6.2c.7.1,1.1.4,1.1.9h0c0,.6-.5,1.1-1.7,1.1s-1.7-.4-1.7-1h0c0,0-1.5,0-1.5,0h0c0,1.4,1.1,2.3,3.2,2.3M283.4,197.3c2.5,0,4.1-1.1,4.1-3v-.2c0-1.7-1.1-2.6-3-2.9l-1.7-.2c-1.3-.2-1.8-.7-1.8-1.4v-.2c0-.8.6-1.6,2.4-1.6s2.5.8,2.5,1.6v.2h1.5v-.2c0-1.9-1.6-2.9-3.9-2.9s-3.9,1-3.9,3h0c0,1.7,1.1,2.7,3,2.9l1.7.2c1.2.2,1.9.7,1.9,1.5v.2c0,1-.9,1.6-2.6,1.6s-2.6-.6-2.6-1.8v-.4h-1.5v.4c0,1.9,1.6,3.1,4.1,3.1"/>
          <path class="st30" d="M344.3,176.6c.2-1.2,1-1.9,2.3-1.9s2.2.9,2.2,1.9h-4.5ZM346.6,181.3c2.3,0,3.6-1.4,3.6-2.8h0c0,0-1.5,0-1.5,0h0c0,.8-.7,1.7-2.1,1.7s-2.2-.8-2.3-2.3h6v-.9c0-2-1.2-3.5-3.6-3.5s-3.8,1.5-3.8,3.9h0c0,2.6,1.5,4,3.8,4M335.4,177.5v-.2c0-1.5.9-2.6,2.4-2.6s2.3,1,2.3,2.6v.2c0,1.5-.8,2.6-2.3,2.6s-2.4-1.1-2.4-2.6M338.1,181.3c2.3,0,3.5-1.6,3.5-3.8v-.4c0-2.1-1.2-3.7-3.5-3.7s-2.1.4-2.6,1v-.9h-1.5v10.4h1.5v-3.9c.6.6,1.5,1.1,2.6,1.1M326.8,184.1h1.4l4.6-10.4h-1.4l-2.4,5.4-2.3-5.4h-1.6l3.1,7.2-1.4,3.2h0ZM322.9,181.1h1.5v-1.2h-1.1c-.6,0-1-.3-1-1v-4.1h2.1v-1.2h-2.4c.2-.1.3-.3.3-.7v-1.1h-1.5v1.2c0,.5-.2.7-.7.7h-.6v1.2h1.3v4.1c0,1.6,1,2.2,2.1,2.2M309.4,181.1h1.5v-4.8c0-.9.8-1.7,1.9-1.7s1.7.7,1.7,1.8v4.6h1.5v-4.9c0-1.9-1.1-2.8-2.8-2.8s-1.8.3-2.3.9v-.7h-1.5v7.4h0ZM302,176.6c.2-1.2,1-1.9,2.3-1.9s2.2.9,2.2,1.9h-4.5ZM304.2,181.3c2.3,0,3.6-1.4,3.6-2.8h0c0,0-1.5,0-1.5,0h0c0,.8-.7,1.7-2.1,1.7s-2.2-.8-2.3-2.3h6v-.9c0-2-1.2-3.5-3.6-3.5s-3.8,1.5-3.8,3.9h0c0,2.6,1.5,4,3.8,4M293.1,177.5v-.2c0-1.5.9-2.6,2.4-2.6s2.3,1,2.3,2.6v.2c0,1.5-.8,2.6-2.3,2.6s-2.4-1.1-2.4-2.6M295.8,181.3c2.3,0,3.5-1.6,3.5-3.8v-.4c0-2.1-1.2-3.7-3.5-3.7s-2.1.4-2.6,1v-.9h-1.5v10.4h1.5v-3.9c.6.6,1.5,1.1,2.6,1.1M280.9,176.1v-.2c0-2.6,1.6-3.9,3.8-3.9s3.8,1.3,3.8,3.9v.2c0,2.6-1.6,3.9-3.8,3.9s-3.8-1.3-3.8-3.9M284.7,181.3c3.1,0,5.3-1.8,5.3-5.2v-.2c0-3.4-2.2-5.2-5.3-5.2s-5.3,1.9-5.3,5.2v.2c0,3.4,2.2,5.2,5.3,5.2"/>
          <path class="st30" d="M344.1,165.3c2.1,0,3.2-.9,3.2-2.3h0c0-1.3-.8-2.1-2.2-2.3l-1.6-.2c-.7,0-1-.4-1-.8h0c0-.6.5-1,1.6-1s1.6.4,1.6,1.1h0s1.5,0,1.5,0h0c0-1.4-1.1-2.3-3.1-2.3s-3.1,1-3.1,2.3h0c0,1.3.8,2.1,2.2,2.2l1.6.2c.7.1,1.1.4,1.1.9h0c0,.6-.5,1.1-1.7,1.1s-1.7-.4-1.7-1h0c0,0-1.5,0-1.5,0h0c0,1.4,1.1,2.3,3.2,2.3M333.8,160.6c.2-1.2,1-1.9,2.3-1.9s2.2.9,2.2,1.9h-4.5ZM336.1,165.3c2.3,0,3.6-1.4,3.6-2.8h0c0,0-1.5,0-1.5,0h0c0,.8-.7,1.7-2.1,1.7s-2.2-.8-2.3-2.3h6v-.9c0-2-1.2-3.5-3.6-3.5s-3.8,1.5-3.8,3.9h0c0,2.6,1.5,4,3.8,4M329.4,165.1h1.5v-10.3h-1.5v10.3ZM322.2,168.1h1.4l4.6-10.4h-1.4l-2.4,5.4-2.3-5.4h-1.6l3.1,7.2-1.4,3.2ZM318.3,165.1h1.5v-1.2h-1.1c-.6,0-1-.3-1-1v-4.1h2.1v-1.2h-2.4c.2-.1.3-.3.3-.7v-1.1h-1.5v1.2c0,.5-.2.7-.7.7h-.6v1.2h1.3v4.1c0,1.6,1,2.2,2.1,2.2M310.8,165.3c2.1,0,3.2-.9,3.2-2.3h0c0-1.3-.8-2.1-2.2-2.3l-1.6-.2c-.7,0-1-.4-1-.8h0c0-.6.5-1,1.6-1s1.6.4,1.6,1.1h0s1.5,0,1.5,0h0c0-1.4-1.1-2.3-3.1-2.3s-3.1,1-3.1,2.3h0c0,1.3.8,2.1,2.2,2.2l1.6.2c.7.1,1.1.4,1.1.9h0c0,.6-.5,1.1-1.7,1.1s-1.7-.4-1.7-1h0c0,0-1.5,0-1.5,0h0c0,1.4,1.1,2.3,3.2,2.3M291.1,163.7l3.3-6.3c.2.5.3,1.2.3,1.9v1.3c0,2.3-.9,3.4-2.4,3.4s-.9-.1-1.2-.3M290,160.6v-1.3c0-2.3.9-3.4,2.4-3.4s.9.1,1.2.3l-3.3,6.3c-.2-.5-.3-1.2-.3-1.9M292.3,165.3c2.7,0,3.9-2,3.9-4.7v-1.3c0-2.8-1.2-4.7-3.9-4.7s-3.9,2-3.9,4.7v1.3c0,2.8,1.2,4.7,3.9,4.7M280.9,158h0c0-1.2.9-2.1,2.2-2.1s2.2.9,2.2,2.1h0c0,1.3-.9,2.1-2.2,2.1s-2.2-.9-2.2-2.1M283.1,154.6c-2.2,0-3.7,1.4-3.7,3.4h0c0,2,1.5,3.4,3.5,3.4s1.9-.3,2.4-.9h0c0,1.7-.9,3.6-3.5,3.6h-1.7v1.3h1.5c4.1,0,5.1-2.9,5.1-6v-.3c0-3-1.5-4.4-3.8-4.4"/>
          <path class="st30" d="M333.4,149.3c2.1,0,3.2-.9,3.2-2.3h0c0-1.3-.8-2.1-2.2-2.3l-1.6-.2c-.7,0-1-.4-1-.8h0c0-.6.5-1,1.6-1s1.6.4,1.6,1.1h0s1.5,0,1.5,0h0c0-1.4-1.1-2.3-3.1-2.3s-3.1,1-3.1,2.3h0c0,1.3.8,2.1,2.2,2.2l1.6.2c.7.1,1.1.4,1.1.9h0c0,.6-.5,1.1-1.7,1.1s-1.7-.4-1.7-1h0c0,0-1.5,0-1.5,0h0c0,1.4,1.1,2.3,3.2,2.3M327.5,149.1h1.5v-1.2h-1.1c-.6,0-1-.3-1-1v-4.1h2.1v-1.2h-2.4c.2-.1.3-.3.3-.7v-1.1h-1.5v1.2c0,.5-.2.7-.7.7h-.6v1.2h1.3v4.1c0,1.6,1,2.2,2.1,2.2M322.8,141.6h-1.5v4.8c0,.9-.8,1.7-1.9,1.7s-1.7-.7-1.7-1.8v-4.6h-1.5v4.9c0,1.9,1.1,2.8,2.8,2.8s1.8-.3,2.3-.9v.7h1.5v-7.4ZM311.3,149.3c2.3,0,3.6-1.5,3.6-2.9h0c0,0-1.5,0-1.5,0h0c0,.8-.7,1.8-2.2,1.8s-2.4-.9-2.4-2.6v-.2c0-1.7.9-2.6,2.4-2.6s2.2.9,2.2,1.7h0c0,0,1.5,0,1.5,0h0c0-1.5-1.3-3-3.6-3s-3.8,1.5-3.8,3.9h0c0,2.6,1.5,4,3.8,4M290.2,142h0c0-1.2.9-2.1,2.2-2.1s2.2.9,2.2,2.1h0c0,1.3-.9,2.1-2.2,2.1s-2.2-.9-2.2-2.1M292.4,138.6c-2.2,0-3.7,1.4-3.7,3.4h0c0,2,1.5,3.4,3.5,3.4s1.9-.3,2.4-.9h0c0,1.7-.9,3.6-3.5,3.6h-1.7v1.3h1.5c4.1,0,5.1-2.9,5.1-6v-.3c0-3-1.5-4.4-3.8-4.4M282,147.7l3.3-6.3c.2.5.3,1.2.3,1.9v1.3c0,2.3-.9,3.4-2.4,3.4s-.9-.1-1.2-.3M280.9,144.6v-1.3c0-2.3.9-3.4,2.4-3.4s.9.1,1.2.3l-3.3,6.3c-.2-.5-.3-1.2-.3-1.9M283.3,149.3c2.7,0,3.9-2,3.9-4.7v-1.3c0-2.8-1.2-4.7-3.9-4.7s-3.9,2-3.9,4.7v1.3c0,2.8,1.2,4.7,3.9,4.7"/>
          <path class="st30" d="M309.4,381.3h1.5v-4.8c0-1,.8-1.7,1.9-1.7s1.7.7,1.7,1.8v4.6h1.5v-4.9c0-2-1.1-2.8-2.8-2.8s-1.8.3-2.3.9v-3.5h-1.5v10.3ZM306.4,381.3h1.5v-1.2h-1.1c-.6,0-1-.3-1-1v-4.1h2.1v-1.2h-2.4c.2-.1.3-.3.3-.7v-1.1h-1.5v1.2c0,.5-.2.7-.7.7h-.6v1.2h1.3v4.1c0,1.6,1,2.2,2.1,2.2M295.5,377.7v-.2c0-1.5.8-2.6,2.3-2.6s2.4,1,2.4,2.6v.2c0,1.5-.9,2.6-2.4,2.6s-2.3-1-2.3-2.6M297.6,381.5c1.2,0,2.1-.4,2.6-1.1v.9h1.5v-10.3h-1.5v3.7c-.6-.6-1.5-1-2.6-1-2.3,0-3.5,1.6-3.5,3.7v.4c0,2.1,1.2,3.8,3.5,3.8M291,372c0,.5.4,1,1,1s1-.5,1-1-.4-1-1-1-1,.4-1,1M291.2,381.3h1.5v-7.5h-1.5v7.5ZM281.2,381.3h1.7l1.5-5.1,1.5,5.1h1.8l2.2-7.5h-1.5l-1.6,5.5-1.6-5.5h-1.3l-1.6,5.5-1.6-5.5h-1.5l2.2,7.5h0Z"/>
          <path class="st30" d="M312.1,363.9l3.3-6.3c.2.5.3,1.2.3,2v1.3c0,2.3-.9,3.4-2.4,3.4s-.9-.1-1.2-.3M311,360.8v-1.3c0-2.3.9-3.4,2.4-3.4s.9.1,1.2.3l-3.3,6.3c-.2-.5-.3-1.2-.3-2M313.4,365.5c2.7,0,3.9-2,3.9-4.7v-1.3c0-2.8-1.2-4.7-3.9-4.7s-3.9,2-3.9,4.7v1.3c0,2.8,1.2,4.7,3.9,4.7M302.8,363.9l3.3-6.3c.2.5.3,1.2.3,2v1.3c0,2.3-.9,3.4-2.4,3.4s-.9-.1-1.2-.3M301.6,360.8v-1.3c0-2.3.9-3.4,2.4-3.4s.9.1,1.2.3l-3.3,6.3c-.2-.5-.3-1.2-.3-2M304,365.5c2.7,0,3.9-2,3.9-4.7v-1.3c0-2.8-1.2-4.7-3.9-4.7s-3.9,2-3.9,4.7v1.3c0,2.8,1.2,4.7,3.9,4.7M298.2,355h-1.2l-2.8,1.4v1.5l2.6-1.2v8.6h1.5v-10.3ZM279.5,363.1h6.7l-2.1,2.1.9.9,3.7-3.7-3.7-3.7-.9.9,2.1,2.1h-5.2v-6.9h-1.5v8.4h0Z"/>
          <path class="st30" d="M322.8,349.3h1.5v-1.2h-1.1c-.6,0-1-.3-1-1v-4.1h2.1v-1.2h-2.4c.2-.1.3-.3.3-.7v-1.1h-1.5v1.2c0,.5-.2.7-.7.7h-.6v1.2h1.3v4.1c0,1.6,1,2.2,2.1,2.2M311.8,349.3h1.5v-4.8c0-.9.8-1.7,1.9-1.7s1.7.7,1.7,1.8v4.6h1.5v-4.9c0-2-1.1-2.8-2.8-2.8s-1.8.3-2.3.9v-3.5h-1.5v10.3ZM304,345.7v-.2c0-1.5.8-2.6,2.3-2.6s2.4,1,2.4,2.6v.2c0,1.5-.9,2.6-2.4,2.6s-2.3-1-2.3-2.6M306.4,352.5c2,0,3.7-1,3.7-3v-7.7h-1.5v.9c-.6-.6-1.5-1.1-2.6-1.1-2.3,0-3.5,1.6-3.5,3.8v.4c0,2.1,1.2,3.7,3.5,3.7s2.1-.4,2.6-1v1c0,1.2-1,1.8-2.3,1.8s-2.3-.6-2.3-1.5h0c0-.1-1.5-.1-1.5-.1h0c0,2,1.8,2.8,3.7,2.8M299.3,340c0,.5.4,1,1,1s1-.5,1-1-.4-1-1-1-1,.4-1,1M299.6,349.3h1.5v-7.5h-1.5v7.5ZM292.1,344.8c.2-1.2,1-1.9,2.3-1.9s2.2.9,2.2,1.9h-4.5ZM294.4,349.5c2.3,0,3.6-1.4,3.6-2.8h0c0,0-1.5,0-1.5,0h0c0,.8-.7,1.7-2.1,1.7s-2.2-.8-2.3-2.3h6v-.9c0-2-1.2-3.5-3.6-3.5s-3.8,1.5-3.8,3.9h0c0,2.6,1.5,4,3.8,4M281.2,349.3h1.7l1.5-5.1,1.5,5.1h1.8l2.2-7.5h-1.5l-1.6,5.5-1.6-5.5h-1.3l-1.6,5.5-1.6-5.5h-1.5l2.2,7.5h0Z"/>
          <path class="st30" d="M316.4,331.9l3.3-6.3c.2.5.3,1.2.3,2v1.3c0,2.3-.9,3.4-2.4,3.4s-.9-.1-1.2-.3M315.3,328.8v-1.3c0-2.3.9-3.4,2.4-3.4s.9.1,1.2.3l-3.3,6.3c-.2-.5-.3-1.2-.3-2M317.6,333.5c2.7,0,3.9-2,3.9-4.7v-1.3c0-2.8-1.2-4.7-3.9-4.7s-3.9,2-3.9,4.7v1.3c0,2.8,1.2,4.7,3.9,4.7M307.1,331.9l3.3-6.3c.2.5.3,1.2.3,2v1.3c0,2.3-.9,3.4-2.4,3.4s-.9-.1-1.2-.3M305.9,328.8v-1.3c0-2.3.9-3.4,2.4-3.4s.9.1,1.2.3l-3.3,6.3c-.2-.5-.3-1.2-.3-2M308.3,333.5c2.7,0,3.9-2,3.9-4.7v-1.3c0-2.8-1.2-4.7-3.9-4.7s-3.9,2-3.9,4.7v1.3c0,2.8,1.2,4.7,3.9,4.7M295.9,329.4l3.5-4.4v4.4h-3.5ZM299.4,333.3h1.5v-2.7h2v-1.3h-2v-6.3h-1.5l-5.1,6.4v1.2h5.1v2.7h0ZM279.5,331.1h6.7l-2.1,2.1.9.9,3.7-3.7-3.7-3.7-.9.9,2.1,2.1h-5.2v-6.9h-1.5v8.4h0Z"/>
          <path class="st30" d="M400.9,239.6c6.8-39.4,32.8-60.9,71.9-60.9s67.8,29.7,67.8,60.9h-139.7,0ZM494.6,388.3h75.2v-38.5h-75c-63.6,0-92-26-95.3-72.8h187.2v-26.8c0-63.8-38.3-110-114.2-110s-119.7,46.2-119.7,121.9v4.4c0,75.7,45.5,121.9,141.7,121.9"/>
          <path class="st30" d="M322.7,110.5c17.4,0,31.4-14.1,31.4-31.4s-14.1-31.4-31.4-31.4-31.4,14.1-31.4,31.4,14.1,31.4,31.4,31.4"/>
          <path d="M322.7,105.5c14.6,0,26.4-11.8,26.4-26.4s-11.8-26.4-26.4-26.4-26.4,11.8-26.4,26.4,11.8,26.4,26.4,26.4"/>
          <path d="M322.7,104.2c13.9,0,25.1-11.2,25.1-25.1s-11.2-25.1-25.1-25.1-25.1,11.2-25.1,25.1,11.2,25.1,25.1,25.1"/>
          <path class="st30" d="M322.7,103.1c13.2,0,24-10.7,24-24s-10.7-24-24-24-24,10.7-24,24,10.7,24,24,24"/>
        </g>
      </g>
      <g class="st16">
        <path class="st30" d="M337.1,95.5c18.3,0,33.1-14.8,33.1-33.2s-14.8-33.2-33.1-33.2-33.1,14.8-33.1,33.2,14.8,33.2,33.1,33.2"/>
      </g>
      <g class="st13">
        <g>
          <path class="st6" d="M322.7,103.1c13.2,0,24-10.7,24-24s-10.7-24-24-24-24,10.7-24,24,10.7,24,24,24Z"/>
          <path class="st30" d="M344.4,78.7c0-11.8-9.6-21.4-21.4-21.4"/>
          <path class="st4" d="M344.4,78.7c0-11.8-9.6-21.4-21.4-21.4"/>
        </g>
      </g>
      <g class="st11">
        <g class="st11">
          <path d="M314.7,79.4v-.3c0-5.2,3.1-8.3,8.2-8.3s7.8,3.2,7.8,7.5v1.8h-12.8c.2,3.2,2.1,5,5,5s4.6-1.8,4.6-3.5v-.2h3.1v.2c0,3.1-2.8,6.1-7.7,6.1s-8.2-3.2-8.2-8.3ZM327.5,77.6c0-2.1-1.5-4.2-4.6-4.2s-4.4,1.5-4.9,4.2h9.5Z"/>
        </g>
      </g>
      <g class="st20">
        <g>
          <path class="st30" d="M399.3,110.5c17.4,0,31.4-14.1,31.4-31.4s-14.1-31.4-31.4-31.4-31.4,14.1-31.4,31.4,14.1,31.4,31.4,31.4"/>
          <path d="M399.3,105.5c14.6,0,26.4-11.8,26.4-26.4s-11.8-26.4-26.4-26.4-26.4,11.8-26.4,26.4,11.8,26.4,26.4,26.4"/>
          <path d="M399.3,104.2c13.9,0,25.1-11.2,25.1-25.1s-11.2-25.1-25.1-25.1-25.1,11.2-25.1,25.1,11.2,25.1,25.1,25.1"/>
          <path class="st30" d="M399.3,103.1c13.2,0,24-10.7,24-24s-10.7-24-24-24-24,10.7-24,24,10.7,24,24,24"/>
        </g>
      </g>
      <g class="st18">
        <path d="M413.8,95.5c18.3,0,33.1-14.8,33.1-33.2s-14.8-33.2-33.1-33.2-33.1,14.8-33.1,33.2,14.8,33.2,33.1,33.2"/>
      </g>
      <g class="st19">
        <g>
          <path class="st6" d="M399.3,103.1c13.2,0,24-10.7,24-24s-10.7-24-24-24-24,10.7-24,24,10.7,24,24,24Z"/>
          <path class="st2" d="M421,78.7c0-11.8-9.6-21.4-21.4-21.4"/>
          <path class="st30" d="M399.4,87.7c4.4,0,6.8-2,6.8-5h0c0-2.8-1.8-4.5-4.7-4.9l-3.4-.4c-1.4-.2-2.2-.8-2.2-1.8h0c0-1.3,1.1-2.2,3.5-2.2s3.5,1,3.5,2.3h0c0,0,3.1,0,3.1,0h0c0-2.9-2.3-5-6.7-5s-6.7,2.1-6.7,4.9h0c0,2.8,1.8,4.4,4.6,4.8l3.4.4c1.5.2,2.3.9,2.3,1.9h0c0,1.4-1,2.3-3.6,2.3s-3.7-.9-3.7-2.2h0c0-.1-3.1-.1-3.1-.1h0c0,3,2.4,5,6.8,5"/>
          <path class="st30" d="M154.3,282.7c24,0,43.4-19.5,43.4-43.4s-19.4-43.4-43.4-43.4-43.4,19.4-43.4,43.4,19.4,43.4,43.4,43.4"/>
        </g>
      </g>
      <g class="st17">
        <path d="M160.8,252.2c10.9,0,19.7-9.1,19.7-20.4s-8.8-20.4-19.7-20.4-19.7,9.1-19.7,20.4,8.8,20.4,19.7,20.4"/>
      </g>
      <g class="st14">
        <g>
          <path class="st9" d="M154.3,282.7c24,0,43.4-19.5,43.4-43.4s-19.4-43.4-43.4-43.4-43.4,19.4-43.4,43.4,19.4,43.4,43.4,43.4Z"/>
          <path class="st30" d="M483.8,110.5c16.2,0,29.3-13.1,29.3-29.3s-13.1-29.3-29.3-29.3-29.3,13.1-29.3,29.3,13.1,29.3,29.3,29.3"/>
          <path d="M483.8,105.8c13.6,0,24.6-11,24.6-24.6s-11-24.6-24.6-24.6-24.6,11-24.6,24.6,11,24.6,24.6,24.6"/>
          <path class="st30" d="M483.8,103.4c12.2,0,22.2-9.9,22.2-22.2s-9.9-22.2-22.2-22.2-22.2,9.9-22.2,22.2,9.9,22.2,22.2,22.2"/>
          <path class="st30" d="M483.8,100.2c10.5,0,19-8.5,19-19s-8.5-19-19-19-19,8.5-19,19,8.5,19,19,19"/>
        </g>
      </g>
      <g class="st12">
        <g>
          <path d="M496.6,83.9c9,0,16.3-7.3,16.3-16.3s-7.3-16.3-16.3-16.3-16.3,7.3-16.3,16.3,7.3,16.3,16.3,16.3"/>
          <path class="st1" d="M496.6,83.9c9,0,16.3-7.3,16.3-16.3s-7.3-16.3-16.3-16.3-16.3,7.3-16.3,16.3,7.3,16.3,16.3,16.3Z"/>
        </g>
      </g>
      <g class="st15">
        <g>
          <circle class="st9" cx="483.8" cy="81.2" r="19"/>
          <path class="st3" d="M501,80.9c0-9.3-7.6-16.9-16.9-16.9"/>
        </g>
      </g>
    </g>
  </g>
</svg>