<?xml version="1.0" encoding="UTF-8"?>
<svg id="Calque_1" data-name="Calque 1" xmlns="http://www.w3.org/2000/svg" xmlns:xlink="http://www.w3.org/1999/xlink" viewBox="0 0 616 860">
  <defs>
    <style>
      .cls-1 {
        fill: none;
      }

      .cls-1, .cls-2, .cls-3 {
        stroke-width: 0px;
      }

      .cls-4 {
        clip-path: url(#clippath-7);
      }

      .cls-5 {
        clip-path: url(#clippath-8);
      }

      .cls-6 {
        clip-path: url(#clippath-6);
      }

      .cls-3 {
        fill: #fff;
      }
    </style>
    <clipPath id="clippath">
      <rect class="cls-1" x="-636" width="616" height="860"/>
    </clipPath>
    <clipPath id="clippath-1">
      <rect class="cls-1" x="-636" width="616" height="860"/>
    </clipPath>
    <clipPath id="clippath-2">
      <rect class="cls-1" x="-622" y="667.67" width="193.22" height="178.33"/>
    </clipPath>
    <clipPath id="clippath-4">
      <rect class="cls-1" x="-191.45" y="385.3" width="171.45" height="195.39"/>
    </clipPath>
    <clipPath id="clippath-6">
      <rect class="cls-1" width="616" height="860"/>
    </clipPath>
    <clipPath id="clippath-7">
      <rect class="cls-1" width="616" height="860"/>
    </clipPath>
    <clipPath id="clippath-8">
      <rect class="cls-1" width="616" height="860"/>
    </clipPath>
    <clipPath id="clippath-9">
      <rect class="cls-1" x="435.15" y="356.13" width="180.85" height="241.13"/>
    </clipPath>
    <clipPath id="clippath-11">
      <rect class="cls-1" x=".54" y="329.46" width="160.54" height="241.13"/>
    </clipPath>
    <clipPath id="clippath-13">
      <rect class="cls-1" x="435.6" y="62.57" width="180.4" height="241.13"/>
    </clipPath>
    <clipPath id="clippath-15">
      <rect class="cls-1" x="1272" y="437" width="616" height="423"/>
    </clipPath>
    <clipPath id="clippath-16">
      <rect class="cls-1" x="1272" y="437" width="616" height="423"/>
    </clipPath>
    <clipPath id="clippath-17">
      <rect class="cls-1" x="1286" y="460.37" width="279.3" height="364.01"/>
    </clipPath>
  </defs>
  <g class="cls-6">
    <g class="cls-4">
      <g class="cls-5">
        <path class="cls-3" d="M515.7,848.5h86.73v-308.28h-86.73v308.28ZM400.62,848.5h86.73v-308.28h-86.73v308.28ZM282.6,556.39c0,24.99,20.37,46.2,45.57,46.2s45.57-21.21,45.57-46.2-20.37-46.2-45.57-46.2-45.57,21-45.57,46.2M284.7,848.5h86.73v-223.02h-86.73v223.02ZM103.89,659.29v-53.97h41.79c15.33,0,25.2,5.88,25.2,24.36v4.83c0,16.17-6.93,24.78-24.78,24.78h-42.21ZM103.89,784.03v-59.85h43.89c16.38,0,25.41,9.87,25.41,26.04v8.4c0,17.43-10.29,25.41-25.41,25.41h-43.89ZM16.32,848.5h143.85c64.05,0,100.59-34.65,100.59-83.37v-8.4c0-32.55-15.96-55.86-40.95-66.36,23.31-13.02,35.7-35.49,35.7-65.31v-7.14c0-45.78-32.76-77.7-95.34-77.7H16.32v308.28Z"/>
        <path class="cls-3" d="M451.22,492.84l25.02-24.66-25.02-24.66-7.42,6.93,11.12,11.02h-38.25v13.36h38.25l-11.12,11.07,7.42,6.93ZM367.79,469.17c.81-5.99,4.77-9.36,10.93-9.36,6.93,0,10.21,4.23,10.21,8.73v.63h-21.15ZM378.5,500.13c14.76,0,24.3-7.47,24.3-17.91v-.72h-13.91v.72c0,3.55-3.24,7.38-10.21,7.38s-10.89-4.1-11.03-11.39h35.28v-8.1c0-13.05-9.09-20.83-24.3-20.83s-24.97,7.79-24.97,22.27v6.3c0,14.49,9.85,22.27,24.84,22.27M275.31,498.65h13.95v-30.33c.45-4.45,3.92-7.79,8.68-7.79,5.58,0,7.92,3.55,7.92,8.73v29.38h13.95v-29.43c0-4.86,3.6-8.68,8.68-8.68,5.58,0,7.92,3.55,7.92,8.68v29.43h13.99v-31.9c0-11.97-7.11-17.37-17.37-17.37-6.7,0-12.6,3.06-15.66,7.24-2.88-4.9-8.23-7.2-14.94-7.2-5.35,0-10.04,1.93-13.18,4.82v-3.47h-13.95v47.88ZM239.22,485.64v-.45c0-2.83,2.56-4.1,7.88-5.26,3.78-.81,6.84-1.62,9.09-2.57v5.13c0,5.04-5.08,7.29-9.94,7.29-4.1,0-7.02-1.39-7.02-4.14M242.01,500.13c6.35,0,11.48-2.02,14.45-5.04.14,1.53.32,2.61.58,3.55h13.95c-.5-2.52-.9-5.76-.9-12.33v-20.52c0-10.08-7.97-16.52-21.78-16.52s-22.54,6.43-22.54,16.74v1.31h13.86v-1.17c0-3.73,2.38-6.3,8.41-6.3s8.1,2.57,8.1,4.77v.63c0,2.74-2.52,3.64-11.79,5.45-9.9,1.85-19.21,5.62-19.21,15.43v.76c0,8.55,7.02,13.23,16.88,13.23M185.45,477.81v-6.03c0-7.02,3.96-11.65,10.89-11.65s11.02,4.64,11.02,11.65v6.03c0,6.98-4.05,11.61-11.02,11.61s-10.89-4.64-10.89-11.61M196.74,519.35c13.59,0,24.62-6.39,24.62-19.62v-48.96h-14v4.23c-3.46-3.55-8.73-5.62-15.12-5.62-12.78,0-20.79,8.42-20.79,21.6v7.7c0,13.27,8.01,21.46,20.79,21.46,6.43,0,11.7-1.98,15.12-5.54v6.08c0,5.4-4.14,8.19-10.62,8.19s-10.53-2.79-10.53-6.93v-.58h-14.04v.45c0,12.01,11.52,17.55,24.57,17.55"/>
        <path class="cls-3" d="M435.96,420.84l7.42-6.93-11.11-11.03h38.25v-13.41h-38.25l11.11-11.07-7.42-6.93-25.02,24.71,25.02,24.66ZM361.4,405.72v-6.03c0-7.47,4.14-12.06,11.07-12.06s11.02,4.59,11.02,12.06v6.03c0,7.47-4.14,12.06-11.02,12.06s-11.07-4.59-11.07-12.06M372.47,428.13c14.98,0,25.02-8.28,25.02-22.95v-4.95c0-14.67-10.03-22.95-25.02-22.95s-25.07,8.28-25.07,22.95v4.95c0,14.67,10.03,22.95,25.07,22.95M309.69,397.17c.81-5.98,4.77-9.36,10.93-9.36,6.93,0,10.21,4.23,10.21,8.73v.63h-21.15ZM320.4,428.13c14.76,0,24.3-7.47,24.3-17.91v-.72h-13.91v.72c0,3.55-3.24,7.38-10.21,7.38s-10.89-4.1-11.02-11.38h35.28v-8.1c0-13.05-9.09-20.83-24.3-20.83s-24.97,7.79-24.97,22.27v6.3c0,14.49,9.85,22.27,24.84,22.27M256.14,405.59v-5.89c0-6.93,3.92-11.57,10.89-11.57s11.02,4.63,11.02,11.57v5.89c0,7.02-4.05,11.65-11.02,11.65s-10.89-4.64-10.89-11.65M262.94,428.13c6.43,0,11.74-2.07,15.12-5.67v4.18h13.95v-66.06h-13.95v22.32c-3.38-3.56-8.64-5.54-15.12-5.54-12.78,0-20.79,8.19-20.79,21.51v7.65c0,13.18,8.01,21.6,20.79,21.6M223.56,365.54c0,4.37,3.55,8.1,7.96,8.1s7.96-3.73,7.96-8.1-3.51-8.01-7.96-8.01-7.96,3.69-7.96,8.01M224.55,426.65h13.99v-47.83h-13.99v47.83ZM186.89,426.65h18.68l16.47-47.88h-13.01l-11.93,34.61-11.88-34.61h-14.76l16.43,47.88Z"/>
        <path class="cls-3" d="M536.4,325.17c.81-5.98,4.77-9.36,10.93-9.36,6.93,0,10.21,4.23,10.21,8.73v.63h-21.15ZM547.11,356.13c14.76,0,24.3-7.47,24.3-17.91v-.72h-13.9v.72c0,3.55-3.24,7.38-10.22,7.38s-10.89-4.09-11.02-11.39h35.28v-8.1c0-13.05-9.09-20.84-24.3-20.84s-24.98,7.79-24.98,22.28v6.3c0,14.49,9.86,22.27,24.84,22.27M482.85,333.81v-6.03c0-7.02,3.96-11.65,10.89-11.65s11.02,4.64,11.02,11.65v6.03c0,6.97-4.05,11.61-11.02,11.61s-10.89-4.64-10.89-11.61M494.14,375.35c13.59,0,24.62-6.39,24.62-19.62v-48.96h-14v4.23c-3.46-3.55-8.73-5.62-15.12-5.62-12.78,0-20.79,8.41-20.79,21.6v7.7c0,13.28,8.01,21.46,20.79,21.46,6.43,0,11.7-1.98,15.12-5.53v6.07c0,5.4-4.14,8.19-10.62,8.19s-10.53-2.79-10.53-6.93v-.58h-14.04v.45c0,12.02,11.52,17.55,24.57,17.55M434.12,341.64v-.45c0-2.84,2.57-4.1,7.88-5.27,3.78-.81,6.84-1.62,9.09-2.57v5.13c0,5.04-5.08,7.29-9.95,7.29-4.1,0-7.02-1.39-7.02-4.14M436.91,356.13c6.35,0,11.48-2.02,14.45-5.04.14,1.53.32,2.61.58,3.55h13.95c-.49-2.52-.9-5.76-.9-12.33v-20.52c0-10.08-7.96-16.52-21.78-16.52s-22.55,6.43-22.55,16.74v1.31h13.86v-1.17c0-3.73,2.38-6.3,8.41-6.3s8.1,2.57,8.1,4.77v.63c0,2.74-2.52,3.64-11.79,5.45-9.9,1.84-19.22,5.62-19.22,15.43v.76c0,8.55,7.02,13.23,16.88,13.23M406.13,354.65h11.75v-10.39h-6.89c-3.38,0-5.31-1.58-5.31-5.31v-21.78h12.2v-10.39h-13.77c1.44-.81,2.12-2.3,2.12-4.95v-7.02h-14v7.2c0,3.51-1.26,4.77-4.5,4.77h-3.78v10.39h7.79v22.99c0,10.04,6.17,14.49,14.4,14.49M337.23,354.65h13.95v-30.33c.45-4.55,3.96-7.88,9.04-7.88,5.94,0,8.28,3.55,8.28,8.82v29.38h13.95v-31.9c0-12.06-7.11-17.46-17.73-17.46-5.54,0-10.35,1.93-13.54,4.86v-3.38h-13.95v47.88ZM317.16,293.54c0,4.36,3.55,8.1,7.96,8.1s7.96-3.74,7.96-8.1-3.51-8.01-7.96-8.01-7.96,3.69-7.96,8.01M318.15,354.65h13.99v-47.83h-13.99v47.83ZM280.49,354.65h18.67l16.47-47.88h-13.01l-11.92,34.6-11.88-34.6h-14.76l16.42,47.88ZM215.55,333.59v-5.89c0-6.93,3.92-11.57,10.89-11.57s11.03,4.64,11.03,11.57v5.89c0,7.02-4.05,11.66-11.03,11.66s-10.89-4.64-10.89-11.66M222.35,356.13c6.43,0,11.75-2.07,15.12-5.67v4.18h13.95v-66.06h-13.95v22.32c-3.38-3.55-8.64-5.53-15.12-5.53-12.78,0-20.79,8.19-20.79,21.51v7.65c0,13.18,8.01,21.6,20.79,21.6M163.22,333.72v-6.03c0-7.47,4.14-12.06,11.07-12.06s11.02,4.59,11.02,12.06v6.03c0,7.47-4.14,12.06-11.02,12.06s-11.07-4.59-11.07-12.06M174.29,356.13c14.99,0,25.02-8.28,25.02-22.95v-4.95c0-14.67-10.03-22.95-25.02-22.95s-25.07,8.28-25.07,22.95v4.95c0,14.67,10.04,22.95,25.07,22.95M111.07,333.72v-6.03c0-7.47,4.14-12.06,11.07-12.06s11.03,4.59,11.03,12.06v6.03c0,7.47-4.14,12.06-11.03,12.06s-11.07-4.59-11.07-12.06M122.13,356.13c14.99,0,25.02-8.28,25.02-22.95v-4.95c0-14.67-10.04-22.95-25.02-22.95s-25.06,8.28-25.06,22.95v4.95c0,14.67,10.03,22.95,25.06,22.95M18.77,354.65h13.95v-30.33c.45-4.46,3.92-7.79,8.68-7.79,5.58,0,7.92,3.55,7.92,8.73v29.38h13.95v-29.43c0-4.86,3.6-8.68,8.68-8.68,5.58,0,7.92,3.55,7.92,8.68v29.43h13.99v-31.9c0-11.97-7.11-17.37-17.37-17.37-6.71,0-12.6,3.06-15.66,7.24-2.88-4.91-8.24-7.2-14.94-7.2-5.35,0-10.03,1.93-13.18,4.82v-3.46h-13.95v47.88Z"/>
        <path class="cls-3" d="M566.05,261.72v-6.03c0-7.47,4.14-12.06,11.07-12.06s11.03,4.59,11.03,12.06v6.03c0,7.47-4.14,12.06-11.03,12.06s-11.07-4.59-11.07-12.06M577.12,284.13c14.98,0,25.02-8.28,25.02-22.95v-4.95c0-14.67-10.04-22.95-25.02-22.95s-25.07,8.28-25.07,22.95v4.95c0,14.67,10.04,22.95,25.07,22.95M523.48,282.65h13.9v-25.61c0-7.69,4.28-11.29,10.93-11.29h5.8v-12.46h-5.49c-4.82,0-8.68,1.8-11.25,5.08v-3.6h-13.9v47.88ZM507.64,282.65h11.74v-10.4h-6.89c-3.38,0-5.31-1.58-5.31-5.31v-21.78h12.2v-10.4h-13.77c1.44-.81,2.12-2.29,2.12-4.95v-7.02h-13.99v7.2c0,3.51-1.26,4.77-4.5,4.77h-3.78v10.4h7.78v22.99c0,10.03,6.17,14.49,14.4,14.49M450.4,253.17c.81-5.98,4.77-9.36,10.93-9.36,6.93,0,10.22,4.23,10.22,8.73v.63h-21.15ZM461.11,284.13c14.76,0,24.3-7.47,24.3-17.91v-.72h-13.9v.72c0,3.55-3.24,7.38-10.21,7.38s-10.89-4.09-11.02-11.38h35.28v-8.1c0-13.05-9.09-20.83-24.3-20.83s-24.98,7.78-24.98,22.27v6.3c0,14.49,9.86,22.28,24.84,22.28M407.56,282.65h13.9v-25.61c0-7.69,4.27-11.29,10.93-11.29h5.81v-12.46h-5.49c-4.82,0-8.68,1.8-11.25,5.08v-3.6h-13.9v47.88ZM358.74,253.17c.81-5.98,4.77-9.36,10.93-9.36,6.93,0,10.22,4.23,10.22,8.73v.63h-21.15ZM369.45,284.13c14.76,0,24.3-7.47,24.3-17.91v-.72h-13.9v.72c0,3.55-3.24,7.38-10.21,7.38s-10.89-4.09-11.03-11.38h35.28v-8.1c0-13.05-9.09-20.83-24.3-20.83s-24.98,7.78-24.98,22.27v6.3c0,14.49,9.86,22.28,24.84,22.28M327.11,282.65h13.95v-66.06h-13.95v66.06ZM283.41,301.91h13.46l28.44-67.14h-13.46l-12.87,30.33-11.88-30.33h-15.17l19.53,48.1-8.05,19.04ZM260.33,282.65h11.74v-10.4h-6.89c-3.38,0-5.31-1.58-5.31-5.31v-21.78h12.2v-10.4h-13.77c1.44-.81,2.11-2.29,2.11-4.95v-7.02h-13.99v7.2c0,3.51-1.26,4.77-4.5,4.77h-3.78v10.4h7.79v22.99c0,10.03,6.16,14.49,14.4,14.49M215.19,284.13c15.12,0,22.23-6.61,22.23-15.84v-.54c0-7.6-5.22-13.28-15.21-14.45l-10.12-1.12c-3.42-.4-5.18-1.66-5.18-3.87v-.27c0-2.43,2.48-4.41,8.14-4.41s8.15,2.07,8.15,4.91v.45h14.04v-.45c0-8.55-7.11-15.26-22.18-15.26s-22.14,6.84-22.14,15.43v.45c0,7.92,4.95,13.41,15.12,14.58l10.12,1.17c3.6.45,5.26,1.85,5.26,4.05v.27c0,2.61-2.25,4.55-8.24,4.55s-8.51-2.07-8.51-4.77v-.49h-14.08v.49c0,8.64,7.51,15.12,22.59,15.12M139.28,301.91h13.46l28.44-67.14h-13.46l-12.87,30.33-11.88-30.33h-15.17l19.53,48.1-8.05,19.04ZM93.92,262.85v-8.46c.45-6.26,4.46-10.35,11.03-10.35,6.93,0,10.85,4.63,10.85,11.56v5.99c0,7.02-3.92,11.65-10.85,11.65-6.57,0-10.57-4.09-11.03-10.39M109.04,284.13c12.78,0,20.79-8.41,20.79-21.6v-7.74c0-13.32-8.01-21.51-20.79-21.51-6.48,0-11.7,2.02-15.12,5.53v-22.23h-13.99v66.06h13.99v-4.14c3.42,3.55,8.69,5.62,15.12,5.62"/>
        <path class="cls-3" d="M410.94,210.65h13.95v-66.06h-13.95v66.06ZM374.81,197.64v-.45c0-2.83,2.57-4.09,7.88-5.26,3.78-.81,6.84-1.62,9.09-2.57v5.13c0,5.04-5.08,7.29-9.95,7.29-4.1,0-7.02-1.4-7.02-4.14M377.6,212.13c6.35,0,11.48-2.02,14.44-5.04.14,1.53.32,2.61.59,3.55h13.95c-.49-2.52-.9-5.76-.9-12.33v-20.52c0-10.08-7.96-16.52-21.78-16.52s-22.54,6.43-22.54,16.74v1.3h13.86v-1.17c0-3.73,2.39-6.3,8.42-6.3s8.1,2.57,8.1,4.77v.63c0,2.74-2.52,3.65-11.79,5.45-9.9,1.85-19.21,5.62-19.21,15.43v.77c0,8.55,7.02,13.23,16.88,13.23M341.91,149.54c0,4.36,3.56,8.1,7.97,8.1s7.96-3.73,7.96-8.1-3.51-8.01-7.96-8.01-7.97,3.69-7.97,8.01M342.9,210.65h13.99v-47.84h-13.99v47.84ZM315.45,212.13c14.62,0,24.21-7.65,24.21-18.27v-1.22h-13.9v1.22c0,3.51-3.38,7.74-10.31,7.74s-11.02-4.23-11.02-11.7v-6.39c0-7.47,4.14-11.7,11.02-11.7s10.31,4.23,10.31,7.74v1.21h13.9v-1.21c0-10.58-9.59-18.27-24.21-18.27s-25.02,7.78-25.02,22.28v6.3c0,14.49,9.99,22.27,25.02,22.27M241.97,210.65h13.95v-30.33c.45-4.54,3.96-7.88,9.04-7.88,5.94,0,8.28,3.55,8.28,8.82v29.39h13.95v-31.9c0-12.06-7.11-17.46-17.73-17.46-5.54,0-10.35,1.93-13.54,4.86v-3.38h-13.95v47.88ZM202.95,181.17c.81-5.99,4.77-9.36,10.94-9.36,6.93,0,10.21,4.23,10.21,8.73v.63h-21.15ZM213.66,212.13c14.76,0,24.3-7.47,24.3-17.91v-.72h-13.9v.72c0,3.55-3.24,7.38-10.22,7.38s-10.89-4.1-11.02-11.39h35.28v-8.1c0-13.05-9.09-20.84-24.3-20.84s-24.97,7.78-24.97,22.28v6.3c0,14.49,9.85,22.27,24.84,22.27M185.32,162.77h-13.95v30.33c-.45,4.54-3.96,7.88-9.04,7.88-5.94,0-8.28-3.55-8.28-8.82v-29.39h-13.95v31.91c0,12.06,7.11,17.46,17.73,17.46,5.53,0,10.35-1.93,13.54-4.86v3.38h13.95v-47.88ZM121.37,210.65h13.95v-66.06h-13.95v66.06ZM92.53,158.67v4.09h-8.01v10.4h8.01v37.48h14v-37.48h11.88v-10.4h-11.88v-3.28c0-3.2,1.44-4.5,5.22-4.5h6.44v-10.4h-9.4c-11.7,0-16.25,4.99-16.25,14.09M37.9,210.65h13.95v-30.33c.45-4.54,3.96-7.88,9.04-7.88,5.94,0,8.28,3.55,8.28,8.82v29.39h13.95v-31.9c0-12.06-7.11-17.46-17.73-17.46-5.53,0-10.35,1.93-13.54,4.86v-3.38h-13.95v47.88ZM17.83,149.54c0,4.36,3.55,8.1,7.97,8.1s7.97-3.73,7.97-8.1-3.51-8.01-7.97-8.01-7.97,3.69-7.97,8.01M18.82,210.65h14v-47.84h-14v47.84Z"/>
        <path class="cls-3" d="M247.73,138.65h13.95v-66.06h-13.95v66.06ZM211.59,125.64v-.45c0-2.83,2.56-4.09,7.88-5.26,3.78-.81,6.84-1.62,9.09-2.57v5.13c0,5.04-5.09,7.29-9.95,7.29-4.1,0-7.02-1.4-7.02-4.14M214.38,140.13c6.35,0,11.48-2.02,14.45-5.04.13,1.53.31,2.61.58,3.55h13.95c-.49-2.52-.9-5.76-.9-12.33v-20.52c0-10.08-7.96-16.52-21.78-16.52s-22.54,6.43-22.54,16.74v1.3h13.86v-1.17c0-3.73,2.38-6.3,8.41-6.3s8.1,2.57,8.1,4.77v.63c0,2.74-2.52,3.65-11.79,5.45-9.9,1.85-19.21,5.62-19.21,15.43v.77c0,8.55,7.02,13.23,16.88,13.23M193.73,90.77h-13.95v30.33c-.45,4.54-3.96,7.88-9.04,7.88-5.94,0-8.28-3.55-8.28-8.82v-29.39h-13.95v31.91c0,12.06,7.11,17.46,17.73,17.46,5.54,0,10.35-1.93,13.55-4.86v3.38h13.95v-47.88ZM122.67,140.13c15.12,0,22.23-6.61,22.23-15.84v-.54c0-7.6-5.22-13.27-15.21-14.45l-10.12-1.12c-3.42-.4-5.18-1.66-5.18-3.87v-.27c0-2.43,2.48-4.41,8.15-4.41s8.15,2.07,8.15,4.91v.45h14.04v-.45c0-8.55-7.11-15.26-22.18-15.26s-22.14,6.84-22.14,15.43v.45c0,7.92,4.95,13.41,15.12,14.58l10.12,1.17c3.6.45,5.26,1.84,5.26,4.05v.27c0,2.61-2.25,4.54-8.24,4.54s-8.5-2.07-8.5-4.77v-.49h-14.09v.49c0,8.64,7.51,15.12,22.59,15.12M81.28,77.54c0,4.36,3.56,8.1,7.97,8.1s7.96-3.73,7.96-8.1-3.51-8.01-7.96-8.01-7.97,3.69-7.97,8.01M82.26,138.65h13.99v-47.84h-13.99v47.84ZM39.02,138.65h18.27l21.78-66.06h-13.32l-16.74,50.8-16.69-50.8h-14.85l21.56,66.06Z"/>
        <path class="cls-3" d="M92.66,42.1v1.03h7.22v-1.26h-5.74c0-.83.43-1.31,1.73-1.97l1.51-.76c1.43-.73,2.59-1.61,2.59-3.38v-.07c0-1.77-1.38-3.06-3.65-3.06s-3.65,1.29-3.65,3.09v.14h1.48v-.14c0-1.08.9-1.8,2.17-1.8s2.17.64,2.17,1.76v.07c0,1.06-.58,1.62-1.71,2.18l-1.58.8c-1.76.89-2.53,1.7-2.53,3.35M85.88,41.75l3.32-6.32c.18.52.28,1.16.28,1.95v1.26c0,2.33-.85,3.44-2.38,3.44-.48,0-.88-.1-1.22-.32M84.72,38.63v-1.26c0-2.32.85-3.44,2.38-3.44.48,0,.88.11,1.22.32l-3.32,6.32c-.18-.52-.28-1.16-.28-1.95M87.1,43.36c2.67,0,3.85-1.97,3.85-4.73v-1.26c0-2.76-1.18-4.73-3.85-4.73s-3.85,1.97-3.85,4.73v1.26c0,2.76,1.18,4.73,3.85,4.73M72.61,43.14h1.46v-4.75c.08-.95.84-1.66,1.88-1.66,1.23,0,1.71.73,1.71,1.83v4.58h1.46v-4.87c0-1.95-1.13-2.8-2.78-2.8-.93,0-1.77.34-2.27.88v-.66h-1.46v7.45ZM65.88,41.26v-.1c0-.6.54-.86,1.62-1.12.82-.19,1.46-.37,1.9-.6v1.13c0,1.11-1.06,1.58-2.04,1.58-.85,0-1.48-.29-1.48-.88M67.1,43.36c1.05,0,1.84-.32,2.33-.8.02.25.06.43.09.58h1.48c-.08-.39-.15-.95-.15-2.03v-3.09c0-1.62-1.21-2.55-3.11-2.55s-3.25.93-3.25,2.62v.16h1.46v-.16c0-.83.47-1.4,1.75-1.4s1.68.57,1.68,1.02v.09c0,.51-.48.69-2.09,1.04-1.46.32-2.87.94-2.87,2.39v.11c0,1.27,1.12,2.02,2.69,2.02M61.42,43.14h1.46v-10.28h-1.46v10.28ZM53.83,39.54v-.25c0-1.54.88-2.56,2.37-2.56s2.33,1.02,2.33,2.56v.25c0,1.54-.84,2.59-2.33,2.59s-2.37-1.05-2.37-2.59M56.48,43.36c2.3,0,3.52-1.64,3.52-3.75v-.39c0-2.14-1.22-3.72-3.52-3.72-1.17,0-2.08.4-2.65,1.04v-.85h-1.46v10.44h1.46v-3.85c.57.65,1.49,1.08,2.65,1.08M44.06,43.14h1.45v-2.06l1.18-1.18,2.52,3.24h1.84l-3.33-4.28,3.15-3.16h-1.88l-3.48,3.5v-6.34h-1.45v10.28ZM38.46,43.14h1.46v-4.3c0-1.39.78-2.08,1.92-2.08h.91v-1.29h-.98c-.8,0-1.43.31-1.85.82v-.59h-1.46v7.45ZM30.88,39.5v-.17c0-1.62.88-2.64,2.35-2.64s2.34,1.02,2.34,2.64v.17c0,1.62-.88,2.64-2.34,2.64s-2.35-1.02-2.35-2.64M33.23,43.36c2.37,0,3.81-1.47,3.81-3.88v-.14c0-2.41-1.45-3.88-3.81-3.88s-3.82,1.47-3.82,3.88v.14c0,2.41,1.45,3.88,3.82,3.88M17.93,43.14h1.68l2.51-8.37,2.51,8.37h1.68l3.28-10.28h-1.54l-2.63,8.24-2.46-8.24h-1.65l-2.47,8.24-2.62-8.24h-1.55l3.28,10.28Z"/>
        <path class="cls-3" d="M65.3,25.26v-.1c0-.6.54-.86,1.62-1.12.82-.19,1.46-.37,1.9-.6v1.13c0,1.11-1.06,1.58-2.04,1.58-.85,0-1.48-.29-1.48-.88M66.51,27.36c1.05,0,1.84-.32,2.32-.8.02.25.06.43.09.58h1.48c-.08-.39-.15-.95-.15-2.03v-3.09c0-1.62-1.21-2.55-3.11-2.55s-3.25.93-3.25,2.62v.16h1.45v-.16c0-.83.47-1.4,1.75-1.4s1.68.57,1.68,1.02v.09c0,.51-.48.69-2.09,1.04-1.46.32-2.87.94-2.87,2.39v.11c0,1.27,1.12,2.02,2.69,2.02M59.35,27.36c2.07,0,3.16-.93,3.16-2.33v-.06c0-1.25-.83-2.02-2.21-2.21l-1.59-.21c-.66-.08-1.01-.36-1.01-.83v-.06c0-.54.53-.98,1.65-.98s1.65.45,1.65,1.07v.04h1.47v-.04c0-1.32-1.06-2.3-3.12-2.3s-3.12.98-3.12,2.27v.06c0,1.23.83,2,2.16,2.18l1.59.21c.72.1,1.06.41,1.06.88v.06c0,.59-.48,1.02-1.69,1.02s-1.72-.43-1.72-1.04v-.06h-1.47v.06c0,1.34,1.13,2.27,3.18,2.27M48.99,22.63c.22-1.25,1.04-1.94,2.29-1.94,1.46,0,2.16.95,2.16,1.94h-4.45ZM51.27,27.36c2.3,0,3.6-1.4,3.6-2.84v-.07h-1.45v.07c0,.77-.68,1.61-2.14,1.61-1.36,0-2.23-.83-2.33-2.32h5.96v-.85c0-2.03-1.22-3.5-3.63-3.5s-3.81,1.47-3.81,3.88v.14c0,2.41,1.45,3.88,3.81,3.88M42.25,27.14h1.65l4.14-10.28h-1.47l-3.44,8.56-3.44-8.56h-1.59l4.14,10.28ZM27.22,27.14h1.47v-4.52h5.14v-1.26h-5.14v-3.23h5.82v-1.26h-7.29v10.28ZM15.12,27.14h1.47v-8l2.9,8h1.12l2.9-8v8h1.47v-10.28h-2.06l-2.87,7.92-2.87-7.92h-2.06v10.28Z"/>
        <path class="cls-3" d="M482.05,43.14h1.46v-4.75c.08-.95.84-1.66,1.88-1.66,1.23,0,1.71.73,1.71,1.83v4.58h1.46v-4.87c0-1.95-1.13-2.8-2.78-2.8-.93,0-1.77.34-2.27.88v-3.49h-1.46v10.28ZM479.04,43.14h1.48v-1.19h-1.12c-.6,0-.98-.29-.98-.98v-4.09h2.1v-1.19h-2.37c.2-.14.31-.32.31-.71v-1.15h-1.45v1.19c0,.52-.24.67-.73.67h-.59v1.19h1.27v4.09c0,1.58.99,2.17,2.07,2.17M468.21,39.54v-.25c0-1.54.84-2.56,2.33-2.56s2.37,1.02,2.37,2.56v.25c0,1.54-.88,2.59-2.37,2.59s-2.33-1.05-2.33-2.59M470.26,43.36c1.16,0,2.08-.43,2.65-1.08v.85h1.45v-10.28h-1.45v3.67c-.57-.64-1.48-1.04-2.65-1.04-2.3,0-3.52,1.58-3.52,3.72v.39c0,2.11,1.22,3.75,3.52,3.75M463.62,33.87c0,.52.42.97.96.97s.96-.46.96-.97-.42-.96-.96-.96-.96.44-.96.96M463.85,43.14h1.45v-7.45h-1.45v7.45ZM453.92,43.14h1.67l1.53-5.1,1.47,5.1h1.76l2.21-7.45h-1.52l-1.65,5.49-1.6-5.49h-1.31l-1.63,5.48-1.62-5.48h-1.52l2.21,7.45ZM442.88,41.75l3.32-6.32c.18.52.28,1.16.28,1.95v1.26c0,2.32-.85,3.44-2.38,3.44-.48,0-.88-.1-1.22-.32M441.71,38.63v-1.26c0-2.32.85-3.44,2.38-3.44.48,0,.88.1,1.22.32l-3.32,6.32c-.18-.52-.28-1.16-.28-1.95M444.09,43.36c2.67,0,3.85-1.97,3.85-4.73v-1.26c0-2.76-1.18-4.73-3.85-4.73s-3.85,1.97-3.85,4.73v1.26c0,2.76,1.18,4.73,3.85,4.73M433.55,41.75l3.32-6.32c.18.52.28,1.16.28,1.95v1.26c0,2.32-.85,3.44-2.38,3.44-.48,0-.88-.1-1.22-.32M432.39,38.63v-1.26c0-2.32.85-3.44,2.38-3.44.48,0,.88.1,1.22.32l-3.32,6.32c-.18-.52-.28-1.16-.28-1.95M434.77,43.36c2.67,0,3.85-1.97,3.85-4.73v-1.26c0-2.76-1.18-4.73-3.85-4.73s-3.85,1.97-3.85,4.73v1.26c0,2.76,1.17,4.73,3.85,4.73M428.99,32.86h-1.19l-2.84,1.44v1.46l2.56-1.18v8.56h1.47v-10.28ZM411.77,40.93h6.69l-2.07,2.06.91.88,3.68-3.67-3.68-3.67-.91.88,2.07,2.06h-5.22v-6.94h-1.47v8.41Z"/>
        <path class="cls-3" d="M540.94,27.14h1.48v-1.19h-1.12c-.6,0-.98-.29-.98-.98v-4.09h2.1v-1.19h-2.37c.2-.14.31-.32.31-.71v-1.15h-1.46v1.19c0,.52-.24.67-.73.67h-.59v1.19h1.27v4.09c0,1.58.99,2.17,2.07,2.17M530,27.14h1.46v-4.75c.08-.95.84-1.66,1.88-1.66,1.22,0,1.71.73,1.71,1.83v4.58h1.46v-4.87c0-1.95-1.13-2.8-2.78-2.8-.93,0-1.77.34-2.27.88v-3.49h-1.46v10.28ZM522.16,23.57v-.25c0-1.54.84-2.59,2.33-2.59s2.37,1.05,2.37,2.59v.25c0,1.54-.88,2.56-2.37,2.56s-2.33-1.02-2.33-2.56M524.58,30.36c2.01,0,3.74-1.03,3.74-3.01v-7.66h-1.45v.88c-.58-.65-1.5-1.07-2.65-1.07-2.3,0-3.52,1.64-3.52,3.75v.39c0,2.14,1.22,3.72,3.52,3.72,1.17,0,2.08-.4,2.65-1.04v1.03c0,1.2-.95,1.79-2.29,1.79s-2.28-.59-2.28-1.52v-.11h-1.47v.11c0,1.9,1.84,2.74,3.74,2.74M517.51,17.87c0,.52.42.97.96.97s.96-.46.96-.97-.42-.96-.96-.96-.96.44-.96.96M517.74,27.14h1.46v-7.45h-1.46v7.45ZM510.31,22.63c.22-1.25,1.04-1.94,2.29-1.94,1.46,0,2.16.95,2.16,1.94h-4.45ZM512.59,27.36c2.3,0,3.6-1.4,3.6-2.84v-.07h-1.45v.07c0,.77-.68,1.61-2.14,1.61-1.37,0-2.23-.83-2.33-2.32h5.96v-.85c0-2.03-1.22-3.5-3.63-3.5s-3.81,1.47-3.81,3.88v.14c0,2.41,1.45,3.88,3.81,3.88M499.41,27.14h1.67l1.53-5.1,1.47,5.1h1.76l2.21-7.45h-1.52l-1.65,5.49-1.6-5.49h-1.31l-1.63,5.48-1.62-5.48h-1.52l2.21,7.45ZM488.37,25.75l3.32-6.32c.18.52.28,1.16.28,1.95v1.26c0,2.32-.85,3.44-2.38,3.44-.48,0-.88-.1-1.22-.32M487.21,22.63v-1.26c0-2.32.85-3.44,2.38-3.44.48,0,.88.1,1.22.32l-3.32,6.32c-.18-.52-.28-1.16-.28-1.95M489.59,27.36c2.67,0,3.85-1.97,3.85-4.73v-1.26c0-2.76-1.17-4.73-3.85-4.73s-3.85,1.97-3.85,4.73v1.26c0,2.76,1.18,4.73,3.85,4.73M479.04,25.75l3.32-6.32c.18.52.28,1.16.28,1.95v1.26c0,2.32-.85,3.44-2.38,3.44-.48,0-.88-.1-1.22-.32M477.88,22.63v-1.26c0-2.32.85-3.44,2.38-3.44.48,0,.88.1,1.22.32l-3.32,6.32c-.18-.52-.28-1.16-.28-1.95M480.26,27.36c2.67,0,3.85-1.97,3.85-4.73v-1.26c0-2.76-1.17-4.73-3.85-4.73s-3.85,1.97-3.85,4.73v1.26c0,2.76,1.18,4.73,3.85,4.73M468.92,24v-.06c0-1.21.86-2.08,2.18-2.08s2.18.87,2.18,2.08v.06c0,1.18-.85,2.07-2.18,2.07s-2.18-.88-2.18-2.07M471.1,27.36c2.2,0,3.67-1.46,3.67-3.42v-.07c0-1.96-1.48-3.3-3.48-3.3-.88,0-1.86.32-2.41.88v-.11c0-1.57.9-3.44,3.46-3.44h1.69v-1.26h-1.55c-4.14,0-5.13,2.91-5.13,5.96v.32c0,2.98,1.5,4.44,3.75,4.44M460.24,25.96l3.68-3.67-3.68-3.67-.91.88,2.07,2.06h-6.69v1.47h6.69l-2.07,2.06.91.88ZM446.18,25.75l3.32-6.32c.18.52.28,1.16.28,1.95v1.26c0,2.32-.85,3.44-2.38,3.44-.48,0-.88-.1-1.22-.32M445.02,22.63v-1.26c0-2.32.85-3.44,2.38-3.44.48,0,.88.1,1.22.32l-3.32,6.32c-.18-.52-.28-1.16-.28-1.95M447.4,27.36c2.67,0,3.85-1.97,3.85-4.73v-1.26c0-2.76-1.18-4.73-3.85-4.73s-3.85,1.97-3.85,4.73v1.26c0,2.76,1.17,4.73,3.85,4.73M436.86,25.75l3.32-6.32c.18.52.28,1.16.28,1.95v1.26c0,2.32-.85,3.44-2.38,3.44-.48,0-.88-.1-1.22-.32M435.69,22.63v-1.26c0-2.32.85-3.44,2.38-3.44.48,0,.88.1,1.22.32l-3.32,6.32c-.18-.52-.28-1.16-.28-1.95M438.07,27.36c2.68,0,3.85-1.97,3.85-4.73v-1.26c0-2.76-1.17-4.73-3.85-4.73s-3.85,1.97-3.85,4.73v1.26c0,2.76,1.18,4.73,3.85,4.73M428.88,27.36c2.34,0,3.71-1.37,3.71-3.21v-.14c0-1.71-1.36-3.25-3.56-3.25-.85,0-1.59.21-2.07.52l.34-3.15h4.82v-1.26h-6.16l-.66,5.91,1.32.28c.49-.63,1.31-1,2.25-1,1.37,0,2.23.78,2.23,1.96v.14c0,1.13-.85,1.92-2.23,1.92s-2.23-.8-2.23-1.67v-.21h-1.48v.21c0,1.67,1.37,2.97,3.71,2.97M411.77,24.93h6.69l-2.07,2.06.91.88,3.68-3.67-3.68-3.67-.91.88,2.07,2.06h-5.22v-6.94h-1.47v8.41Z"/>
        <path class="cls-3" d="M211.85,43.36c2.07,0,3.16-.93,3.16-2.33v-.06c0-1.25-.83-2.02-2.21-2.21l-1.59-.21c-.66-.08-1.02-.36-1.02-.83v-.06c0-.54.53-.98,1.65-.98s1.65.45,1.65,1.07v.04h1.47v-.04c0-1.32-1.06-2.29-3.12-2.29s-3.12.98-3.12,2.27v.06c0,1.23.83,2,2.16,2.18l1.59.21c.72.1,1.07.41,1.07.88v.06c0,.59-.48,1.02-1.69,1.02s-1.72-.43-1.72-1.04v-.06h-1.47v.06c0,1.34,1.13,2.27,3.18,2.27M201.49,38.63c.22-1.25,1.04-1.94,2.29-1.94,1.46,0,2.16.95,2.16,1.94h-4.45ZM203.77,43.36c2.3,0,3.6-1.4,3.6-2.84v-.07h-1.45v.07c0,.77-.68,1.61-2.14,1.61-1.37,0-2.23-.83-2.33-2.32h5.96v-.85c0-2.03-1.22-3.5-3.63-3.5s-3.81,1.47-3.81,3.88v.14c0,2.41,1.45,3.88,3.81,3.88M197.1,43.14h1.46v-10.28h-1.46v10.28ZM189.91,46.13h1.43l4.59-10.44h-1.44l-2.39,5.45-2.27-5.45h-1.57l3.06,7.23-1.41,3.21ZM186.01,43.14h1.48v-1.19h-1.12c-.6,0-.98-.29-.98-.98v-4.09h2.1v-1.19h-2.37c.2-.14.31-.32.31-.71v-1.15h-1.46v1.19c0,.52-.24.67-.73.67h-.59v1.19h1.27v4.09c0,1.58.99,2.17,2.07,2.17M178.52,43.36c2.07,0,3.16-.93,3.16-2.33v-.06c0-1.25-.83-2.02-2.21-2.21l-1.59-.21c-.66-.08-1.01-.36-1.01-.83v-.06c0-.54.53-.98,1.65-.98s1.65.45,1.65,1.07v.04h1.47v-.04c0-1.32-1.06-2.29-3.12-2.29s-3.12.98-3.12,2.27v.06c0,1.23.82,2,2.16,2.18l1.59.21c.72.1,1.06.41,1.06.88v.06c0,.59-.48,1.02-1.69,1.02s-1.71-.43-1.71-1.04v-.06h-1.47v.06c0,1.34,1.13,2.27,3.18,2.27M158.82,41.75l3.32-6.32c.18.52.28,1.16.28,1.95v1.26c0,2.32-.85,3.44-2.38,3.44-.48,0-.88-.11-1.22-.32M157.66,38.63v-1.26c0-2.33.85-3.44,2.38-3.44.48,0,.88.1,1.22.32l-3.32,6.32c-.18-.52-.28-1.16-.28-1.95M160.04,43.36c2.67,0,3.85-1.97,3.85-4.73v-1.26c0-2.76-1.18-4.73-3.85-4.73s-3.85,1.97-3.85,4.73v1.26c0,2.76,1.18,4.73,3.85,4.73M148.62,36.05v-.06c0-1.18.85-2.07,2.18-2.07s2.18.88,2.18,2.07v.06c0,1.21-.85,2.08-2.18,2.08s-2.18-.87-2.18-2.08M150.8,32.64c-2.2,0-3.68,1.46-3.68,3.42v.07c0,1.96,1.48,3.3,3.48,3.3.88,0,1.85-.32,2.41-.88v.11c0,1.57-.9,3.44-3.46,3.44h-1.69v1.26h1.55c4.14,0,5.13-2.91,5.13-5.96v-.32c0-2.98-1.5-4.44-3.75-4.44"/>
        <path class="cls-3" d="M201.07,27.36c2.07,0,3.16-.93,3.16-2.33v-.06c0-1.25-.83-2.02-2.21-2.21l-1.59-.21c-.66-.08-1.02-.36-1.02-.83v-.06c0-.54.53-.98,1.65-.98s1.65.45,1.65,1.07v.04h1.47v-.04c0-1.32-1.06-2.3-3.12-2.3s-3.12.98-3.12,2.27v.06c0,1.23.83,2,2.16,2.18l1.59.21c.72.1,1.06.41,1.06.88v.06c0,.59-.48,1.02-1.69,1.02s-1.72-.43-1.72-1.04v-.06h-1.47v.06c0,1.34,1.13,2.27,3.19,2.27M195.21,27.14h1.48v-1.19h-1.12c-.6,0-.98-.29-.98-.98v-4.09h2.1v-1.19h-2.37c.2-.14.31-.32.31-.71v-1.15h-1.46v1.19c0,.52-.24.67-.73.67h-.59v1.19h1.27v4.09c0,1.58.99,2.17,2.07,2.17M190.53,19.69h-1.46v4.75c-.08.95-.84,1.66-1.88,1.66-1.23,0-1.71-.73-1.71-1.83v-4.58h-1.46v4.87c0,1.95,1.13,2.8,2.78,2.8.93,0,1.77-.34,2.27-.88v.66h1.46v-7.45ZM179.04,27.36c2.32,0,3.61-1.47,3.61-2.9v-.07h-1.46v.07c0,.73-.69,1.68-2.16,1.68s-2.35-.95-2.35-2.64v-.17c0-1.69.88-2.64,2.35-2.64s2.16.95,2.16,1.68v.07h1.46v-.07c0-1.43-1.29-2.9-3.61-2.9s-3.81,1.47-3.81,3.88v.14c0,2.41,1.45,3.88,3.81,3.88M157.95,20.05v-.06c0-1.18.85-2.07,2.18-2.07s2.18.88,2.18,2.07v.06c0,1.21-.85,2.08-2.18,2.08s-2.18-.87-2.18-2.08M160.12,16.64c-2.2,0-3.67,1.46-3.67,3.42v.07c0,1.96,1.48,3.3,3.48,3.3.88,0,1.86-.32,2.41-.88v.11c0,1.57-.9,3.44-3.46,3.44h-1.69v1.26h1.55c4.14,0,5.13-2.91,5.13-5.96v-.32c0-2.98-1.5-4.44-3.75-4.44M149.74,25.75l3.32-6.32c.18.52.28,1.16.28,1.95v1.26c0,2.33-.85,3.44-2.38,3.44-.48,0-.88-.1-1.22-.32M148.58,22.63v-1.26c0-2.32.85-3.44,2.38-3.44.48,0,.88.11,1.22.32l-3.32,6.32c-.18-.52-.28-1.16-.28-1.95M150.96,27.36c2.67,0,3.85-1.97,3.85-4.73v-1.26c0-2.76-1.18-4.73-3.85-4.73s-3.85,1.97-3.85,4.73v1.26c0,2.76,1.18,4.73,3.85,4.73"/>
        <path class="cls-3" d="M324.5,32.86h-1.19l-2.84,1.44v1.46l2.56-1.18v8.56h1.47v-10.28ZM313.97,41.75l3.32-6.32c.18.52.28,1.16.28,1.95v1.26c0,2.33-.85,3.44-2.38,3.44-.48,0-.88-.1-1.22-.32M312.81,38.63v-1.26c0-2.32.85-3.44,2.38-3.44.48,0,.88.11,1.22.32l-3.32,6.32c-.18-.52-.28-1.16-.28-1.95M315.19,43.36c2.67,0,3.85-1.97,3.85-4.73v-1.26c0-2.76-1.17-4.73-3.85-4.73s-3.85,1.97-3.85,4.73v1.26c0,2.76,1.18,4.73,3.85,4.73M306.68,43.36c2.07,0,3.16-.93,3.16-2.33v-.06c0-1.25-.83-2.02-2.21-2.21l-1.59-.21c-.66-.08-1.02-.36-1.02-.83v-.06c0-.54.53-.98,1.65-.98s1.65.45,1.65,1.07v.04h1.47v-.04c0-1.32-1.06-2.3-3.12-2.3s-3.12.98-3.12,2.27v.06c0,1.23.83,2,2.16,2.18l1.59.21c.72.1,1.06.41,1.06.88v.06c0,.59-.48,1.02-1.69,1.02s-1.72-.43-1.72-1.04v-.06h-1.47v.06c0,1.34,1.13,2.27,3.18,2.27M298.13,43.36c2.45,0,4.06-1.15,4.06-2.97v-.17c0-1.69-1.15-2.63-3.04-2.88l-1.68-.22c-1.26-.17-1.77-.68-1.77-1.41v-.16c0-.8.65-1.61,2.44-1.61s2.46.81,2.46,1.62v.24h1.46v-.24c0-1.9-1.62-2.91-3.91-2.91s-3.93,1.01-3.93,2.98v.15c0,1.51,1.1,2.53,2.95,2.77l1.68.22c1.22.16,1.87.67,1.87,1.51v.17c0,.97-.94,1.62-2.58,1.62s-2.6-.65-2.6-1.76v-.36h-1.46v.36c0,1.9,1.6,3.05,4.06,3.05"/>
        <path class="cls-3" d="M358.98,22.63c.22-1.25,1.04-1.94,2.29-1.94,1.46,0,2.16.95,2.16,1.94h-4.45ZM361.26,27.36c2.3,0,3.61-1.4,3.61-2.84v-.07h-1.46v.07c0,.77-.68,1.61-2.14,1.61-1.36,0-2.23-.83-2.33-2.32h5.96v-.85c0-2.03-1.22-3.5-3.63-3.5s-3.81,1.47-3.81,3.88v.14c0,2.41,1.45,3.88,3.81,3.88M350.13,23.54v-.25c0-1.54.88-2.56,2.37-2.56s2.33,1.02,2.33,2.56v.25c0,1.54-.84,2.59-2.33,2.59s-2.37-1.05-2.37-2.59M352.79,27.36c2.3,0,3.52-1.64,3.52-3.75v-.39c0-2.14-1.22-3.72-3.52-3.72-1.17,0-2.08.4-2.65,1.04v-.85h-1.45v10.44h1.45v-3.85c.57.65,1.49,1.08,2.65,1.08M341.5,30.13h1.43l4.59-10.44h-1.43l-2.39,5.45-2.27-5.45h-1.58l3.06,7.23-1.41,3.21ZM337.6,27.14h1.48v-1.19h-1.12c-.6,0-.98-.29-.98-.98v-4.09h2.1v-1.19h-2.37c.2-.14.31-.32.31-.71v-1.15h-1.45v1.19c0,.52-.24.67-.73.67h-.59v1.19h1.27v4.09c0,1.58.99,2.17,2.07,2.17M324.08,27.14h1.46v-4.75c.08-.95.84-1.66,1.88-1.66,1.23,0,1.71.73,1.71,1.83v4.58h1.46v-4.87c0-1.95-1.13-2.8-2.78-2.8-.93,0-1.77.34-2.27.88v-.66h-1.46v7.45ZM316.65,22.63c.22-1.25,1.04-1.94,2.29-1.94,1.46,0,2.16.95,2.16,1.94h-4.45ZM318.93,27.36c2.3,0,3.6-1.4,3.6-2.84v-.07h-1.45v.07c0,.77-.68,1.61-2.14,1.61-1.36,0-2.23-.83-2.33-2.32h5.96v-.85c0-2.03-1.22-3.5-3.63-3.5s-3.81,1.47-3.81,3.88v.14c0,2.41,1.45,3.88,3.81,3.88M307.8,23.54v-.25c0-1.54.88-2.56,2.37-2.56s2.33,1.02,2.33,2.56v.25c0,1.54-.84,2.59-2.33,2.59s-2.37-1.05-2.37-2.59M310.46,27.36c2.3,0,3.52-1.64,3.52-3.75v-.39c0-2.14-1.22-3.72-3.52-3.72-1.17,0-2.08.4-2.65,1.04v-.85h-1.45v10.44h1.45v-3.85c.58.65,1.49,1.08,2.65,1.08M295.6,22.13v-.25c0-2.62,1.62-3.94,3.81-3.94s3.81,1.32,3.81,3.94v.25c0,2.63-1.62,3.94-3.81,3.94s-3.81-1.32-3.81-3.94M299.4,27.36c3.07,0,5.29-1.79,5.29-5.24v-.25c0-3.37-2.23-5.24-5.29-5.24s-5.29,1.86-5.29,5.24v.25c0,3.45,2.23,5.24,5.29,5.24"/>
        <path class="cls-3" d="M586.64,30.73h15.36c0-9.35-7.05-16.73-16.98-16.73v15.07h-15.02c0,9.15,7.14,16.93,16.64,16.93v-15.27Z"/>
      </g>
      <polygon class="cls-2" points="593.13 400.63 602.03 400.63 602.03 391.73 593.13 391.73 584.23 391.73 575.33 391.73 575.33 400.63 584.23 400.63 593.13 400.63"/>
      <polygon class="cls-2" points="584.23 418.43 593.13 418.43 602.03 418.43 602.03 409.53 593.13 409.53 584.23 409.53 575.33 409.53 575.33 418.43 584.23 418.43"/>
      <polygon class="cls-2" points="486.32 391.73 477.42 391.73 468.51 391.73 468.51 400.63 477.42 400.63 486.32 400.63 495.22 400.63 495.22 391.73 486.32 391.73"/>
      <polygon class="cls-2" points="504.12 462.94 495.22 462.94 486.32 462.94 477.42 462.94 477.42 471.84 486.32 471.84 495.22 471.84 504.12 471.84 504.12 462.94"/>
      <polygon class="cls-2" points="593.13 471.84 593.13 462.94 584.23 462.94 575.33 462.94 566.43 462.94 566.43 471.84 575.33 471.84 584.23 471.84 593.13 471.84"/>
      <rect class="cls-2" x="495.22" y="480.74" width="8.9" height="8.9"/>
      <polygon class="cls-2" points="513.02 534.15 521.92 534.15 530.82 534.15 539.72 534.15 548.62 534.15 557.52 534.15 566.43 534.15 575.33 534.15 575.33 525.24 566.43 525.24 557.52 525.24 548.62 525.24 539.72 525.24 530.82 525.24 521.92 525.24 513.02 525.24 504.12 525.24 495.22 525.24 495.22 534.15 504.12 534.15 513.02 534.15"/>
      <rect class="cls-2" x="566.42" y="480.74" width="8.9" height="8.9"/>
      <rect class="cls-2" x="486.32" y="498.54" width="8.9" height="8.9"/>
      <rect class="cls-2" x="575.33" y="498.54" width="8.9" height="8.9"/>
      <polygon class="cls-2" points="486.32 418.43 495.22 418.43 495.22 409.53 486.32 409.53 477.42 409.53 468.51 409.53 468.51 418.43 477.42 418.43 486.32 418.43"/>
      <polygon class="cls-2" points="513.02 409.53 521.92 409.53 530.82 409.53 539.72 409.53 548.62 409.53 557.52 409.53 566.43 409.53 575.33 409.53 575.33 400.63 566.43 400.63 557.52 400.63 548.62 400.63 539.72 400.63 530.82 400.63 521.92 400.63 513.02 400.63 504.12 400.63 495.22 400.63 495.22 409.53 504.12 409.53 513.02 409.53"/>
      <polygon class="cls-3" points="584.23 382.83 575.33 382.83 575.33 391.73 584.23 391.73 593.13 391.73 602.03 391.73 602.03 382.83 593.13 382.83 584.23 382.83"/>
      <polygon class="cls-3" points="584.23 409.53 593.13 409.53 602.03 409.53 602.03 400.63 593.13 400.63 584.23 400.63 575.33 400.63 575.33 409.53 584.23 409.53"/>
      <polygon class="cls-3" points="486.32 382.83 477.42 382.83 468.51 382.83 468.51 391.73 477.42 391.73 486.32 391.73 495.22 391.73 495.22 382.83 486.32 382.83"/>
      <polygon class="cls-3" points="495.22 498.54 495.22 489.64 495.22 480.74 504.12 480.74 504.12 471.84 495.22 471.84 486.32 471.84 477.42 471.84 477.42 480.74 477.42 489.64 486.32 489.64 486.32 498.54 495.22 498.54"/>
      <polygon class="cls-3" points="486.32 400.63 477.42 400.63 468.51 400.63 468.51 409.53 477.42 409.53 486.32 409.53 495.22 409.53 495.22 400.63 486.32 400.63"/>
      <polygon class="cls-3" points="557.52 391.73 548.62 391.73 539.72 391.73 530.82 391.73 521.92 391.73 513.02 391.73 504.12 391.73 495.22 391.73 495.22 400.63 504.12 400.63 513.02 400.63 521.92 400.63 530.82 400.63 539.72 400.63 548.62 400.63 557.52 400.63 566.43 400.63 575.33 400.63 575.33 391.73 566.43 391.73 557.52 391.73"/>
      <polygon class="cls-3" points="575.33 471.84 566.43 471.84 566.43 480.74 575.33 480.74 575.33 489.64 575.33 498.54 584.23 498.54 584.23 489.64 593.13 489.64 593.13 480.74 593.13 471.84 584.23 471.84 575.33 471.84"/>
      <path class="cls-3" d="M548.62,445.14h-26.7v8.9h-8.9v53.41h-17.8v17.8h80.11v-17.8h-17.8v-53.41h-8.9v-8.9ZM548.62,480.74v8.9h-8.9v8.9h-8.9v-8.9h-8.9v-17.8h8.9v-8.9h8.9v8.9h8.9v8.9Z"/>
      <polygon class="cls-3" points="539.72 471.84 530.82 471.84 530.82 480.74 530.82 489.64 539.72 489.64 539.72 480.74 539.72 471.84"/>
      <polygon class="cls-3" points="557.52 409.53 548.62 409.53 539.72 409.53 530.82 409.53 521.92 409.53 513.02 409.53 504.12 409.53 495.22 409.53 495.22 418.43 486.32 418.43 477.42 418.43 477.42 427.33 477.42 436.24 477.42 445.14 477.42 454.04 477.42 462.94 486.32 462.94 495.22 462.94 504.12 462.94 504.12 454.04 513.02 454.04 513.02 445.14 521.92 445.14 521.92 436.24 530.82 436.24 539.72 436.24 548.62 436.24 548.62 445.14 557.52 445.14 557.52 454.04 566.43 454.04 566.43 462.94 575.33 462.94 584.23 462.94 593.13 462.94 593.13 454.04 593.13 445.14 593.13 436.24 593.13 427.33 593.13 418.43 584.23 418.43 575.33 418.43 575.33 409.53 566.43 409.53 557.52 409.53"/>
      <polygon class="cls-2" points="147.64 400.67 147.64 391.77 138.74 391.77 129.84 391.77 129.84 400.67 138.74 400.67 147.64 400.67"/>
      <rect class="cls-2" x="120.94" y="409.57" width="8.9" height="8.9"/>
      <polygon class="cls-2" points="120.94 391.77 112.04 391.77 103.14 391.77 94.24 391.77 85.33 391.77 76.43 391.77 67.53 391.77 67.53 400.67 76.43 400.67 85.33 400.67 94.24 400.67 103.14 400.67 112.04 400.67 120.94 400.67 120.94 391.77"/>
      <polygon class="cls-2" points="58.63 436.28 58.63 445.18 67.53 445.18 76.43 445.18 76.43 436.28 67.53 436.28 58.63 436.28"/>
      <rect class="cls-2" x="49.73" y="445.18" width="8.9" height="8.9"/>
      <rect class="cls-2" x="76.43" y="427.38" width="8.9" height="8.9"/>
      <rect class="cls-2" x="85.33" y="436.28" width="8.9" height="8.9"/>
      <rect class="cls-2" x="94.24" y="427.38" width="8.9" height="8.9"/>
      <rect class="cls-2" x="31.93" y="436.28" width="8.9" height="8.9"/>
      <rect class="cls-2" x="23.03" y="427.38" width="8.9" height="8.9"/>
      <rect class="cls-2" x="31.93" y="418.47" width="8.9" height="8.9"/>
      <polygon class="cls-2" points="76.43 471.88 76.43 462.98 67.53 462.98 58.63 462.98 58.63 471.88 67.53 471.88 76.43 471.88"/>
      <rect class="cls-2" x="58.63" y="400.67" width="8.9" height="8.9"/>
      <polygon class="cls-3" points="129.84 382.87 129.84 391.77 138.74 391.77 147.64 391.77 147.64 382.87 138.74 382.87 129.84 382.87"/>
      <rect class="cls-3" x="31.93" y="427.38" width="8.9" height="8.9"/>
      <rect class="cls-3" x="23.03" y="418.47" width="8.9" height="8.9"/>
      <rect class="cls-3" x="31.93" y="409.57" width="8.9" height="8.9"/>
      <polygon class="cls-3" points="85.33 391.77 94.24 391.77 103.14 391.77 112.04 391.77 120.94 391.77 120.94 382.87 112.04 382.87 103.14 382.87 94.24 382.87 85.33 382.87 76.43 382.87 67.53 382.87 67.53 391.77 76.43 391.77 85.33 391.77"/>
      <path class="cls-3" d="M129.84,400.67h-62.31v8.9h-8.9v-8.9h8.9v-8.9h-17.8v8.9h-8.9v8.9h8.9v26.7h-8.9v8.9h-8.9v-8.9h-8.9v-8.9h-8.9v35.6h8.9v8.9h8.9v8.9h8.9v8.9h17.8v8.9h62.31v-17.8h8.9v17.8h17.8v-97.91h-17.8ZM103.14,436.28v8.9h-8.9v8.9h-8.9v8.9h-8.9v8.9h-17.8v-8.9h17.8v-8.9h-26.7v-8.9h8.9v-8.9h17.8v-8.9h8.9v8.9h8.9v-8.9h8.9v8.9ZM129.84,418.47h-8.9v-8.9h8.9v8.9Z"/>
      <rect class="cls-2" x="495.18" y="89.27" width="17.8" height="8.9"/>
      <polygon class="cls-2" points="575.29 98.17 593.1 98.17 593.1 107.07 584.19 107.07 575.29 107.07 566.39 107.07 566.39 115.97 575.29 115.97 584.19 115.97 584.19 124.87 593.1 124.87 593.1 115.97 602 115.97 602 107.07 602 98.17 602 89.27 575.29 89.27 575.29 98.17"/>
      <rect class="cls-2" x="566.39" y="71.47" width="35.6" height="8.9"/>
      <rect class="cls-2" x="530.79" y="107.07" width="8.9" height="8.9"/>
      <polygon class="cls-2" points="486.28 124.87 495.18 124.87 495.18 115.97 504.09 115.97 504.09 107.07 477.38 107.07 477.38 115.97 486.28 115.97 486.28 124.87"/>
      <polygon class="cls-2" points="575.29 151.58 575.29 142.68 584.19 142.68 584.19 133.77 557.49 133.77 557.49 142.68 566.39 142.68 566.39 151.58 575.29 151.58"/>
      <rect class="cls-2" x="548.59" y="151.58" width="8.9" height="8.9"/>
      <rect class="cls-2" x="593.09" y="160.48" width="8.9" height="8.9"/>
      <polygon class="cls-2" points="584.19 178.28 575.29 178.28 575.29 187.18 602 187.18 602 178.28 593.1 178.28 593.1 169.38 584.19 169.38 584.19 178.28"/>
      <rect class="cls-2" x="450.68" y="151.58" width="62.31" height="8.9"/>
      <polygon class="cls-2" points="435.6 169.38 435.6 178.28 441.78 178.28 441.78 187.18 450.68 187.18 450.68 178.28 504.09 178.28 504.09 169.38 435.6 169.38"/>
      <rect class="cls-2" x="468.48" y="115.97" width="8.9" height="17.8"/>
      <rect class="cls-2" x="495.18" y="133.78" width="8.9" height="8.9"/>
      <rect class="cls-2" x="504.08" y="124.87" width="8.9" height="8.9"/>
      <rect class="cls-2" x="539.69" y="133.78" width="8.9" height="8.9"/>
      <rect class="cls-2" x="548.59" y="124.87" width="8.9" height="8.9"/>
      <rect class="cls-2" x="575.29" y="196.08" width="26.7" height="8.9"/>
      <rect class="cls-2" x="459.58" y="196.08" width="17.8" height="8.9"/>
      <polygon class="cls-2" points="441.78 213.88 441.78 222.78 450.68 222.78 450.68 213.88 459.58 213.88 459.58 204.98 441.78 204.98 441.78 213.88"/>
      <rect class="cls-3" x="441.78" y="196.08" width="17.8" height="8.9"/>
      <rect class="cls-3" x="566.39" y="62.57" width="35.6" height="8.9"/>
      <rect class="cls-3" x="575.29" y="80.37" width="26.7" height="8.9"/>
      <rect class="cls-3" x="566.39" y="98.17" width="26.7" height="8.9"/>
      <polygon class="cls-3" points="504.09 98.17 495.18 98.17 495.18 89.27 512.99 89.27 512.99 98.17 530.79 98.17 530.79 107.07 539.69 107.07 539.69 98.17 566.39 98.17 566.39 89.27 557.49 89.27 557.49 80.37 521.89 80.37 521.89 71.47 495.18 71.47 495.18 80.37 486.28 80.37 486.28 89.27 486.28 98.17 477.38 98.17 477.38 107.07 504.09 107.07 504.09 98.17"/>
      <rect class="cls-3" x="504.08" y="115.97" width="8.9" height="8.9"/>
      <rect class="cls-3" x="495.18" y="124.87" width="8.9" height="8.9"/>
      <polygon class="cls-3" points="441.78 151.58 441.78 160.48 435.6 160.48 435.6 169.38 504.09 169.38 504.09 160.48 450.68 160.48 450.68 151.58 441.78 151.58"/>
      <path class="cls-3" d="M504.08,204.98h-35.6v17.8h44.51v-17.8h62.31v-8.9h26.7v-8.9h-26.7v-8.9h8.9v-8.9h-17.8v8.9h-8.9v-8.9h8.9v-17.8h-8.9v8.9h-35.6v-8.9h-8.9v17.82h-8.9v8.88h-35.6v8.9h-8.9v8.9h44.51v8.9ZM521.89,169.38h8.9v8.9h-8.9v-8.9Z"/>
      <rect class="cls-3" x="557.49" y="124.87" width="26.7" height="8.9"/>
      <rect class="cls-3" x="548.59" y="115.97" width="8.9" height="8.9"/>
      <rect class="cls-3" x="539.69" y="124.87" width="8.9" height="8.9"/>
      <rect class="cls-3" x="548.59" y="142.68" width="8.9" height="8.9"/>
      <rect class="cls-3" x="593.09" y="169.38" width="8.9" height="8.9"/>
      <rect class="cls-3" x="593.09" y="151.58" width="8.9" height="8.9"/>
      <rect class="cls-3" x="584.19" y="160.48" width="8.9" height="8.9"/>
      <rect class="cls-3" x="468.48" y="107.07" width="8.9" height="8.9"/>
      <rect class="cls-3" x="450.68" y="142.68" width="62.31" height="8.9"/>
    </g>
  </g>
</svg>