<?xml version="1.0" encoding="UTF-8"?>
<svg id="Calque_1" data-name="Calque 1" xmlns="http://www.w3.org/2000/svg" xmlns:xlink="http://www.w3.org/1999/xlink" viewBox="0 0 616 860">
  <defs>
    <style>
      .cls-1 {
        fill: none;
      }

      .cls-1, .cls-2, .cls-3 {
        stroke-width: 0px;
      }

      .cls-4 {
        clip-path: url(#clippath-4);
      }

      .cls-5 {
        clip-path: url(#clippath-6);
      }

      .cls-6 {
        clip-path: url(#clippath-5);
      }

      .cls-3 {
        fill: #fff;
      }
    </style>
    <clipPath id="clippath">
      <rect class="cls-1" x="-636" width="616" height="860"/>
    </clipPath>
    <clipPath id="clippath-1">
      <rect class="cls-1" x="-636" width="616" height="860"/>
    </clipPath>
    <clipPath id="clippath-2">
      <rect class="cls-1" x="-621.22" y="323.81" width="586.44" height="522.19"/>
    </clipPath>
    <clipPath id="clippath-4">
      <rect class="cls-1" width="616" height="860"/>
    </clipPath>
    <clipPath id="clippath-5">
      <rect class="cls-1" width="616" height="860"/>
    </clipPath>
    <clipPath id="clippath-6">
      <rect class="cls-1" width="616" height="860"/>
    </clipPath>
    <clipPath id="clippath-7">
      <rect class="cls-1" y="126" width="263.19" height="288"/>
    </clipPath>
    <clipPath id="clippath-9">
      <rect class="cls-1" x="361.8" y="419.47" width="240.99" height="244.91"/>
    </clipPath>
    <clipPath id="clippath-11">
      <rect class="cls-1" x="410.9" y="34.96" width="191.1" height="237.16"/>
    </clipPath>
  </defs>
  <g class="cls-4">
    <g class="cls-6">
      <g class="cls-5">
        <path class="cls-3" d="M428.4,559.2v-120c0-13,4.2-20.6,13.6-20.6s14.4,7.6,14.4,20.6v120c0,14-4.6,20.6-14.4,20.6s-13.6-6.6-13.6-20.6M428.2,610.6c11.2,0,21.4-3.4,28.2-10.6v6h40.4v-293.6h-40.4v86.8c-6.8-7.4-17-10.8-28.2-10.8-24.6,0-40,17-40,48.2v126c0,31.2,15.4,48,40,48M267.2,606h40.4v-171.2c1-9.2,5.6-15.2,12.8-15.2,8,0,11.4,6.2,11.4,18v168.4h40.4v-173.8c0-30.6-15-43.8-37.6-43.8-11.4,0-20.4,4.2-27,10.6v-5.8h-40.4v212.8ZM182.8,558.2v-117.2c0-18.2,5.6-24.2,14.2-24.2s14,6,14,24.2v117.2c0,18.2-5.4,24-14,24s-14.2-5.8-14.2-24M197,610.6c30.6,0,54.2-15.6,54.2-54.8v-112.6c0-39-23.6-54.8-54.2-54.8s-54.4,15.8-54.4,54.8v112.6c0,39.2,23.8,54.8,54.4,54.8M73.2,610.6c38,0,57.8-20.8,57.8-64.6v-45h-41.2v49c0,17.6-3.4,29.4-16.6,29.4s-16.6-11.8-16.6-29.4v-181.6c0-17.6,3.4-29.4,16.6-29.4s16.6,11.8,16.6,29.4v49h41.2v-45.2c0-43.6-19.8-64.6-57.8-64.6s-57.8,21-57.8,64.6v173.8c0,43.8,19.6,64.6,57.8,64.6"/>
        <path class="cls-3" d="M536.28,310.25v-4.8c0-20.2,7.4-34.4,15.6-41.8,3-2,6-4.4,8.8-6.6v54c0,17.4-3.4,27.6-12.6,27.6-8,0-11.8-9.6-11.8-28.4M533.48,367.25c11.4,0,22-5.2,28.4-14.8.2,4.2.8,7.2,1.6,10.2h39.6c-2-8.8-2.4-16-2.4-44.8v-123.2c0-28.2-15.4-49.6-50.4-49.6s-51.6,20.8-51.6,50.4v25.8h39.6v-25.2c0-13.6,2.8-21.4,11.6-21.4s10.8,8.4,10.8,20.6v17.8c0,13.6-7,19.4-22,27.6-21.4,10.8-43,29.8-43,68v6c0,35.4,14.2,52.6,37.8,52.6M416.08,362.65h40.4v-153.6c0-18,8.8-26.4,25.8-26.4h12.4v-37.6h-9.8c-11.8,0-22,4.6-28.4,14.2v-9.4h-40.4v212.8ZM376.28,362.65h31.4v-29h-16.4c-13.2,0-18-5.4-18-20.4v-134.6h32.4v-28.8h-36.4c4.4-2.4,6.8-8.6,6.8-20.6v-32.6h-40.2v32.6c0,15.4-3.2,20.6-15.6,20.6h-12.2v28.8h25v139.8c0,28.8,14,44.2,43.2,44.2M245.08,367.25c37.4,0,55.6-21.2,55.6-64.8V69.05h-41v235.8c0,19-2.6,31.2-14.6,31.2s-14.4-12.2-14.4-31.2V69.05h-41.2v233.4c0,43.6,18.4,64.8,55.6,64.8"/>
        <path class="cls-3" d="M534,799.2v-120c0-13,4.2-20.6,13.6-20.6s14.4,7.6,14.4,20.6v120c0,14-4.6,20.6-14.4,20.6s-13.6-6.6-13.6-20.6M533.8,850.6c11.2,0,21.4-3.4,28.2-10.6v6h40.4v-293.6h-40.4v86.8c-6.8-7.4-17-10.8-28.2-10.8-24.6,0-40,17-40,48.2v126c0,31.2,15.4,48,40,48M411.51,726v-45.8c0-16.8,5.6-22.4,14.2-22.4s13.8,5.6,13.8,22.4v45.8h-28ZM424.71,850.6c30.6,0,55-13.2,55-51.6v-25.8h-40.2v25.8c0,16.6-5.4,22.4-14,22.4s-14-5.8-14-22.4v-49.6h68.4v-69.2c0-38.4-23.8-51.8-54.4-51.8s-54.2,13.4-54.2,51.8v118.8c0,38.4,22.8,51.6,53.4,51.6M306.01,850.6c35.6,0,52.8-18.4,52.8-51.4v-29.4c0-27.2-13.4-41.8-38-46.6l-15.4-2.6c-7.6-2-12-5.4-12-19.4v-23.6c0-15.8,5.2-20.4,12.6-20.4s12.4,5,12.4,20.8v24.8h40.2v-24.8c0-31.2-17.2-49.6-52.6-49.6s-52.8,18.8-52.8,50.8v24.2c0,29.4,12.4,43.8,37.8,48l15.2,2.8c8.2,2.4,12.4,5.4,12.4,19.4v28.2c0,15.6-5.2,20.2-12.6,20.2s-12.6-5-12.6-21v-24.4h-40.6v24.4c0,31.6,17.8,49.6,53.2,49.6M135.1,846h40.4v-171.2c1-9.2,5.6-15.2,12.8-15.2,8,0,11.4,6.2,11.4,18v168.4h40.4v-173.8c0-30.6-15-43.8-37.6-43.8-11.4,0-20.4,4.2-27,10.6v-5.8h-40.4v212.8ZM52,726v-45.8c0-16.8,5.6-22.4,14.2-22.4s13.8,5.6,13.8,22.4v45.8h-28ZM65.2,850.6c30.6,0,55-13.2,55-51.6v-25.8h-40.2v25.8c0,16.6-5.4,22.4-14,22.4s-14-5.8-14-22.4v-49.6h68.4v-69.2c0-38.4-23.8-51.8-54.4-51.8s-54.2,13.4-54.2,51.8v118.8c0,38.4,22.8,51.6,53.4,51.6"/>
        <path class="cls-3" d="M92.66,42.1v1.03h7.22v-1.26h-5.74c0-.83.43-1.31,1.73-1.97l1.51-.76c1.43-.73,2.59-1.61,2.59-3.38v-.07c0-1.77-1.38-3.06-3.65-3.06s-3.65,1.29-3.65,3.09v.14h1.48v-.14c0-1.08.9-1.8,2.17-1.8s2.17.64,2.17,1.76v.07c0,1.06-.58,1.62-1.71,2.18l-1.58.8c-1.76.89-2.53,1.7-2.53,3.35M85.88,41.75l3.32-6.32c.18.52.28,1.16.28,1.95v1.26c0,2.33-.85,3.44-2.38,3.44-.48,0-.88-.1-1.22-.32M84.72,38.63v-1.26c0-2.32.85-3.44,2.38-3.44.48,0,.88.11,1.22.32l-3.32,6.32c-.18-.52-.28-1.16-.28-1.95M87.1,43.36c2.67,0,3.85-1.97,3.85-4.73v-1.26c0-2.76-1.18-4.73-3.85-4.73s-3.85,1.97-3.85,4.73v1.26c0,2.76,1.18,4.73,3.85,4.73M72.61,43.14h1.46v-4.75c.08-.95.84-1.66,1.88-1.66,1.23,0,1.71.73,1.71,1.83v4.58h1.46v-4.87c0-1.95-1.13-2.8-2.78-2.8-.93,0-1.77.34-2.27.88v-.66h-1.46v7.45ZM65.88,41.26v-.1c0-.6.54-.86,1.62-1.12.82-.19,1.46-.37,1.9-.6v1.13c0,1.11-1.06,1.58-2.04,1.58-.85,0-1.48-.29-1.48-.88M67.1,43.36c1.05,0,1.84-.32,2.33-.8.02.25.06.43.09.58h1.48c-.08-.39-.15-.95-.15-2.03v-3.09c0-1.62-1.21-2.55-3.11-2.55s-3.25.93-3.25,2.62v.16h1.46v-.16c0-.83.47-1.4,1.75-1.4s1.68.57,1.68,1.02v.09c0,.51-.48.69-2.09,1.04-1.46.32-2.87.94-2.87,2.39v.11c0,1.27,1.12,2.02,2.69,2.02M61.42,43.14h1.46v-10.28h-1.46v10.28ZM53.83,39.54v-.25c0-1.54.88-2.56,2.37-2.56s2.33,1.02,2.33,2.56v.25c0,1.54-.84,2.59-2.33,2.59s-2.37-1.05-2.37-2.59M56.48,43.36c2.3,0,3.52-1.64,3.52-3.75v-.39c0-2.14-1.22-3.72-3.52-3.72-1.17,0-2.08.4-2.65,1.04v-.85h-1.46v10.44h1.46v-3.85c.57.65,1.49,1.08,2.65,1.08M44.06,43.14h1.45v-2.06l1.18-1.18,2.52,3.24h1.84l-3.33-4.28,3.15-3.16h-1.88l-3.48,3.5v-6.34h-1.45v10.28ZM38.46,43.14h1.46v-4.3c0-1.39.78-2.08,1.92-2.08h.91v-1.29h-.98c-.8,0-1.43.31-1.85.82v-.59h-1.46v7.45ZM30.88,39.5v-.17c0-1.62.88-2.64,2.35-2.64s2.34,1.02,2.34,2.64v.17c0,1.62-.88,2.64-2.34,2.64s-2.35-1.02-2.35-2.64M33.23,43.36c2.37,0,3.81-1.47,3.81-3.88v-.14c0-2.41-1.45-3.88-3.81-3.88s-3.82,1.47-3.82,3.88v.14c0,2.41,1.45,3.88,3.82,3.88M17.93,43.14h1.68l2.51-8.37,2.51,8.37h1.68l3.28-10.28h-1.54l-2.63,8.24-2.46-8.24h-1.65l-2.47,8.24-2.62-8.24h-1.55l3.28,10.28Z"/>
        <path class="cls-3" d="M65.3,25.26v-.1c0-.6.54-.86,1.62-1.12.82-.19,1.46-.37,1.9-.6v1.13c0,1.11-1.06,1.58-2.04,1.58-.85,0-1.48-.29-1.48-.88M66.51,27.36c1.05,0,1.84-.32,2.32-.8.02.25.06.43.09.58h1.48c-.08-.39-.15-.95-.15-2.03v-3.09c0-1.62-1.21-2.55-3.11-2.55s-3.25.93-3.25,2.62v.16h1.45v-.16c0-.83.47-1.4,1.75-1.4s1.68.57,1.68,1.02v.09c0,.51-.48.69-2.09,1.04-1.46.32-2.87.94-2.87,2.39v.11c0,1.27,1.12,2.02,2.69,2.02M59.35,27.36c2.07,0,3.16-.93,3.16-2.33v-.06c0-1.25-.83-2.02-2.21-2.21l-1.59-.21c-.66-.08-1.01-.36-1.01-.83v-.06c0-.54.53-.98,1.65-.98s1.65.45,1.65,1.07v.04h1.47v-.04c0-1.32-1.06-2.3-3.12-2.3s-3.12.98-3.12,2.27v.06c0,1.23.83,2,2.16,2.18l1.59.21c.72.1,1.06.41,1.06.88v.06c0,.59-.48,1.02-1.69,1.02s-1.72-.43-1.72-1.04v-.06h-1.47v.06c0,1.34,1.13,2.27,3.18,2.27M48.99,22.63c.22-1.25,1.04-1.94,2.29-1.94,1.46,0,2.16.95,2.16,1.94h-4.45ZM51.27,27.36c2.3,0,3.6-1.4,3.6-2.84v-.07h-1.45v.07c0,.77-.68,1.61-2.14,1.61-1.36,0-2.23-.83-2.33-2.32h5.96v-.85c0-2.03-1.22-3.5-3.63-3.5s-3.81,1.47-3.81,3.88v.14c0,2.41,1.45,3.88,3.81,3.88M42.25,27.14h1.65l4.14-10.28h-1.47l-3.44,8.56-3.44-8.56h-1.59l4.14,10.28ZM27.22,27.14h1.47v-4.52h5.14v-1.26h-5.14v-3.23h5.82v-1.26h-7.29v10.28ZM15.12,27.14h1.47v-8l2.9,8h1.12l2.9-8v8h1.47v-10.28h-2.06l-2.87,7.92-2.87-7.92h-2.06v10.28Z"/>
        <path class="cls-3" d="M475.03,43.14h1.46v-4.75c.08-.95.84-1.66,1.88-1.66,1.22,0,1.71.73,1.71,1.83v4.58h1.46v-4.87c0-1.95-1.13-2.8-2.78-2.8-.93,0-1.77.34-2.27.88v-3.49h-1.46v10.28ZM472.02,43.14h1.48v-1.19h-1.12c-.6,0-.98-.29-.98-.98v-4.09h2.1v-1.19h-2.37c.2-.14.31-.32.31-.71v-1.15h-1.46v1.19c0,.52-.24.67-.73.67h-.59v1.19h1.27v4.09c0,1.58.99,2.17,2.07,2.17M461.18,39.54v-.25c0-1.54.84-2.56,2.33-2.56s2.37,1.02,2.37,2.56v.25c0,1.54-.88,2.59-2.37,2.59s-2.33-1.05-2.33-2.59M463.23,43.36c1.16,0,2.08-.43,2.65-1.08v.85h1.45v-10.28h-1.45v3.67c-.58-.64-1.49-1.04-2.65-1.04-2.3,0-3.52,1.58-3.52,3.72v.39c0,2.11,1.22,3.75,3.52,3.75M456.6,33.87c0,.52.42.97.96.97s.96-.46.96-.97-.42-.96-.96-.96-.96.44-.96.96M456.83,43.14h1.46v-7.45h-1.46v7.45ZM446.89,43.14h1.67l1.53-5.1,1.47,5.1h1.76l2.21-7.45h-1.52l-1.65,5.49-1.6-5.49h-1.31l-1.63,5.48-1.62-5.48h-1.52l2.21,7.45ZM437.19,43.36c2.34,0,3.71-1.37,3.71-3.21v-.14c0-1.71-1.36-3.25-3.56-3.25-.85,0-1.59.21-2.07.52l.34-3.15h4.82v-1.26h-6.16l-.66,5.91,1.32.28c.49-.63,1.31-1,2.25-1,1.37,0,2.23.78,2.23,1.96v.14c0,1.13-.85,1.92-2.23,1.92s-2.23-.8-2.23-1.67v-.21h-1.48v.21c0,1.67,1.37,2.97,3.71,2.97M432.03,34.05v-1.19h-7.05v1.26h5.17c-1.8,2.18-3.59,5.14-3.59,8.43v.58h1.47v-.58c0-3.41,1.89-6.12,4-8.51M411.77,40.93h6.69l-2.07,2.06.91.88,3.68-3.67-3.68-3.67-.91.88,2.07,2.06h-5.22v-6.94h-1.47v8.41Z"/>
        <path class="cls-3" d="M498.75,27.14h1.48v-1.19h-1.12c-.6,0-.98-.29-.98-.98v-4.09h2.1v-1.19h-2.37c.2-.14.31-.32.31-.71v-1.15h-1.46v1.19c0,.52-.24.67-.73.67h-.59v1.19h1.27v4.09c0,1.58.99,2.17,2.07,2.17M487.81,27.14h1.46v-4.75c.08-.95.84-1.66,1.88-1.66,1.23,0,1.71.73,1.71,1.83v4.58h1.46v-4.87c0-1.95-1.13-2.8-2.78-2.8-.93,0-1.77.34-2.27.88v-3.49h-1.46v10.28ZM479.97,23.57v-.25c0-1.54.84-2.59,2.33-2.59s2.37,1.05,2.37,2.59v.25c0,1.54-.88,2.56-2.37,2.56s-2.33-1.02-2.33-2.56M482.39,30.36c2.01,0,3.74-1.03,3.74-3.01v-7.66h-1.45v.88c-.58-.65-1.5-1.07-2.65-1.07-2.3,0-3.52,1.64-3.52,3.75v.39c0,2.14,1.22,3.72,3.52,3.72,1.17,0,2.08-.4,2.65-1.04v1.03c0,1.2-.95,1.79-2.29,1.79s-2.27-.59-2.27-1.52v-.11h-1.47v.11c0,1.9,1.84,2.74,3.74,2.74M475.32,17.87c0,.52.42.97.96.97s.96-.46.96-.97-.42-.96-.96-.96-.96.44-.96.96M475.55,27.14h1.46v-7.45h-1.46v7.45ZM468.12,22.63c.22-1.25,1.04-1.94,2.29-1.94,1.46,0,2.16.95,2.16,1.94h-4.45ZM470.4,27.36c2.3,0,3.6-1.4,3.6-2.84v-.07h-1.46v.07c0,.77-.68,1.61-2.14,1.61-1.36,0-2.23-.83-2.33-2.32h5.96v-.85c0-2.03-1.22-3.5-3.63-3.5s-3.81,1.47-3.81,3.88v.14c0,2.41,1.45,3.88,3.81,3.88M457.23,27.14h1.67l1.53-5.1,1.47,5.1h1.76l2.21-7.45h-1.52l-1.65,5.49-1.6-5.49h-1.31l-1.63,5.48-1.62-5.48h-1.52l2.21,7.45ZM446.18,25.75l3.32-6.32c.18.52.28,1.16.28,1.95v1.26c0,2.32-.85,3.44-2.38,3.44-.48,0-.88-.1-1.22-.32M445.02,22.63v-1.26c0-2.32.85-3.44,2.38-3.44.48,0,.88.1,1.22.32l-3.32,6.32c-.18-.52-.28-1.16-.28-1.95M447.4,27.36c2.67,0,3.85-1.97,3.85-4.73v-1.26c0-2.76-1.18-4.73-3.85-4.73s-3.85,1.97-3.85,4.73v1.26c0,2.76,1.17,4.73,3.85,4.73M436.86,25.75l3.32-6.32c.18.52.28,1.16.28,1.95v1.26c0,2.32-.85,3.44-2.38,3.44-.48,0-.88-.1-1.22-.32M435.69,22.63v-1.26c0-2.32.85-3.44,2.38-3.44.48,0,.88.1,1.22.32l-3.32,6.32c-.18-.52-.28-1.16-.28-1.95M438.07,27.36c2.68,0,3.85-1.97,3.85-4.73v-1.26c0-2.76-1.17-4.73-3.85-4.73s-3.85,1.97-3.85,4.73v1.26c0,2.76,1.18,4.73,3.85,4.73M428.88,27.36c2.34,0,3.71-1.37,3.71-3.21v-.14c0-1.71-1.36-3.25-3.56-3.25-.85,0-1.59.21-2.07.52l.34-3.15h4.82v-1.26h-6.16l-.66,5.91,1.32.28c.49-.63,1.31-1,2.25-1,1.37,0,2.23.78,2.23,1.96v.14c0,1.13-.85,1.92-2.23,1.92s-2.23-.8-2.23-1.67v-.21h-1.48v.21c0,1.67,1.37,2.97,3.71,2.97M411.77,24.93h6.69l-2.07,2.06.91.88,3.68-3.67-3.68-3.67-.91.88,2.07,2.06h-5.22v-6.94h-1.47v8.41Z"/>
        <path class="cls-3" d="M211.85,43.36c2.07,0,3.16-.93,3.16-2.33v-.06c0-1.25-.83-2.02-2.21-2.21l-1.59-.21c-.66-.08-1.02-.36-1.02-.83v-.06c0-.54.53-.98,1.65-.98s1.65.45,1.65,1.07v.04h1.47v-.04c0-1.32-1.06-2.29-3.12-2.29s-3.12.98-3.12,2.27v.06c0,1.23.83,2,2.16,2.18l1.59.21c.72.1,1.07.41,1.07.88v.06c0,.59-.48,1.02-1.69,1.02s-1.72-.43-1.72-1.04v-.06h-1.47v.06c0,1.34,1.13,2.27,3.18,2.27M201.49,38.63c.22-1.25,1.04-1.94,2.29-1.94,1.46,0,2.16.95,2.16,1.94h-4.45ZM203.77,43.36c2.3,0,3.6-1.4,3.6-2.84v-.07h-1.45v.07c0,.77-.68,1.61-2.14,1.61-1.37,0-2.23-.83-2.33-2.32h5.96v-.85c0-2.03-1.22-3.5-3.63-3.5s-3.81,1.47-3.81,3.88v.14c0,2.41,1.45,3.88,3.81,3.88M197.1,43.14h1.46v-10.28h-1.46v10.28ZM189.91,46.13h1.43l4.59-10.44h-1.44l-2.39,5.45-2.27-5.45h-1.57l3.06,7.23-1.41,3.21ZM186.01,43.14h1.48v-1.19h-1.12c-.6,0-.98-.29-.98-.98v-4.09h2.1v-1.19h-2.37c.2-.14.31-.32.31-.71v-1.15h-1.46v1.19c0,.52-.24.67-.73.67h-.59v1.19h1.27v4.09c0,1.58.99,2.17,2.07,2.17M178.52,43.36c2.07,0,3.16-.93,3.16-2.33v-.06c0-1.25-.83-2.02-2.21-2.21l-1.59-.21c-.66-.08-1.01-.36-1.01-.83v-.06c0-.54.53-.98,1.65-.98s1.65.45,1.65,1.07v.04h1.47v-.04c0-1.32-1.06-2.29-3.12-2.29s-3.12.98-3.12,2.27v.06c0,1.23.82,2,2.16,2.18l1.59.21c.72.1,1.06.41,1.06.88v.06c0,.59-.48,1.02-1.69,1.02s-1.71-.43-1.71-1.04v-.06h-1.47v.06c0,1.34,1.13,2.27,3.18,2.27M158.82,41.75l3.32-6.32c.18.52.28,1.16.28,1.95v1.26c0,2.32-.85,3.44-2.38,3.44-.48,0-.88-.11-1.22-.32M157.66,38.63v-1.26c0-2.33.85-3.44,2.38-3.44.48,0,.88.1,1.22.32l-3.32,6.32c-.18-.52-.28-1.16-.28-1.95M160.04,43.36c2.67,0,3.85-1.97,3.85-4.73v-1.26c0-2.76-1.18-4.73-3.85-4.73s-3.85,1.97-3.85,4.73v1.26c0,2.76,1.18,4.73,3.85,4.73M148.62,36.05v-.06c0-1.18.85-2.07,2.18-2.07s2.18.88,2.18,2.07v.06c0,1.21-.85,2.08-2.18,2.08s-2.18-.87-2.18-2.08M150.8,32.64c-2.2,0-3.68,1.46-3.68,3.42v.07c0,1.96,1.48,3.3,3.48,3.3.88,0,1.85-.32,2.41-.88v.11c0,1.57-.9,3.44-3.46,3.44h-1.69v1.26h1.55c4.14,0,5.13-2.91,5.13-5.96v-.32c0-2.98-1.5-4.44-3.75-4.44"/>
        <path class="cls-3" d="M201.07,27.36c2.07,0,3.16-.93,3.16-2.33v-.06c0-1.25-.83-2.02-2.21-2.21l-1.59-.21c-.66-.08-1.02-.36-1.02-.83v-.06c0-.54.53-.98,1.65-.98s1.65.45,1.65,1.07v.04h1.47v-.04c0-1.32-1.06-2.3-3.12-2.3s-3.12.98-3.12,2.27v.06c0,1.23.83,2,2.16,2.18l1.59.21c.72.1,1.06.41,1.06.88v.06c0,.59-.48,1.02-1.69,1.02s-1.72-.43-1.72-1.04v-.06h-1.47v.06c0,1.34,1.13,2.27,3.19,2.27M195.21,27.14h1.48v-1.19h-1.12c-.6,0-.98-.29-.98-.98v-4.09h2.1v-1.19h-2.37c.2-.14.31-.32.31-.71v-1.15h-1.46v1.19c0,.52-.24.67-.73.67h-.59v1.19h1.27v4.09c0,1.58.99,2.17,2.07,2.17M190.53,19.69h-1.46v4.75c-.08.95-.84,1.66-1.88,1.66-1.23,0-1.71-.73-1.71-1.83v-4.58h-1.46v4.87c0,1.95,1.13,2.8,2.78,2.8.93,0,1.77-.34,2.27-.88v.66h1.46v-7.45ZM179.04,27.36c2.32,0,3.61-1.47,3.61-2.9v-.07h-1.46v.07c0,.73-.69,1.68-2.16,1.68s-2.35-.95-2.35-2.64v-.17c0-1.69.88-2.64,2.35-2.64s2.16.95,2.16,1.68v.07h1.46v-.07c0-1.43-1.29-2.9-3.61-2.9s-3.81,1.47-3.81,3.88v.14c0,2.41,1.45,3.88,3.81,3.88M157.95,20.05v-.06c0-1.18.85-2.07,2.18-2.07s2.18.88,2.18,2.07v.06c0,1.21-.85,2.08-2.18,2.08s-2.18-.87-2.18-2.08M160.12,16.64c-2.2,0-3.67,1.46-3.67,3.42v.07c0,1.96,1.48,3.3,3.48,3.3.88,0,1.86-.32,2.41-.88v.11c0,1.57-.9,3.44-3.46,3.44h-1.69v1.26h1.55c4.14,0,5.13-2.91,5.13-5.96v-.32c0-2.98-1.5-4.44-3.75-4.44M149.74,25.75l3.32-6.32c.18.52.28,1.16.28,1.95v1.26c0,2.33-.85,3.44-2.38,3.44-.48,0-.88-.1-1.22-.32M148.58,22.63v-1.26c0-2.32.85-3.44,2.38-3.44.48,0,.88.11,1.22.32l-3.32,6.32c-.18-.52-.28-1.16-.28-1.95M150.96,27.36c2.67,0,3.85-1.97,3.85-4.73v-1.26c0-2.76-1.18-4.73-3.85-4.73s-3.85,1.97-3.85,4.73v1.26c0,2.76,1.18,4.73,3.85,4.73"/>
        <path class="cls-3" d="M324.5,32.86h-1.19l-2.84,1.44v1.46l2.56-1.18v8.56h1.47v-10.28ZM313.97,41.75l3.32-6.32c.18.52.28,1.16.28,1.95v1.26c0,2.33-.85,3.44-2.38,3.44-.48,0-.88-.1-1.22-.32M312.81,38.63v-1.26c0-2.32.85-3.44,2.38-3.44.48,0,.88.11,1.22.32l-3.32,6.32c-.18-.52-.28-1.16-.28-1.95M315.19,43.36c2.67,0,3.85-1.97,3.85-4.73v-1.26c0-2.76-1.17-4.73-3.85-4.73s-3.85,1.97-3.85,4.73v1.26c0,2.76,1.18,4.73,3.85,4.73M306.68,43.36c2.07,0,3.16-.93,3.16-2.33v-.06c0-1.25-.83-2.02-2.21-2.21l-1.59-.21c-.66-.08-1.02-.36-1.02-.83v-.06c0-.54.53-.98,1.65-.98s1.65.45,1.65,1.07v.04h1.47v-.04c0-1.32-1.06-2.3-3.12-2.3s-3.12.98-3.12,2.27v.06c0,1.23.83,2,2.16,2.18l1.59.21c.72.1,1.06.41,1.06.88v.06c0,.59-.48,1.02-1.69,1.02s-1.72-.43-1.72-1.04v-.06h-1.47v.06c0,1.34,1.13,2.27,3.18,2.27M298.13,43.36c2.45,0,4.06-1.15,4.06-2.97v-.17c0-1.69-1.15-2.63-3.04-2.88l-1.68-.22c-1.26-.17-1.77-.68-1.77-1.41v-.16c0-.8.65-1.61,2.44-1.61s2.46.81,2.46,1.62v.24h1.46v-.24c0-1.9-1.62-2.91-3.91-2.91s-3.93,1.01-3.93,2.98v.15c0,1.51,1.1,2.53,2.95,2.77l1.68.22c1.22.16,1.87.67,1.87,1.51v.17c0,.97-.94,1.62-2.58,1.62s-2.6-.65-2.6-1.76v-.36h-1.46v.36c0,1.9,1.6,3.05,4.06,3.05"/>
        <path class="cls-3" d="M358.98,22.63c.22-1.25,1.04-1.94,2.29-1.94,1.46,0,2.16.95,2.16,1.94h-4.45ZM361.26,27.36c2.3,0,3.61-1.4,3.61-2.84v-.07h-1.46v.07c0,.77-.68,1.61-2.14,1.61-1.36,0-2.23-.83-2.33-2.32h5.96v-.85c0-2.03-1.22-3.5-3.63-3.5s-3.81,1.47-3.81,3.88v.14c0,2.41,1.45,3.88,3.81,3.88M350.13,23.54v-.25c0-1.54.88-2.56,2.37-2.56s2.33,1.02,2.33,2.56v.25c0,1.54-.84,2.59-2.33,2.59s-2.37-1.05-2.37-2.59M352.79,27.36c2.3,0,3.52-1.64,3.52-3.75v-.39c0-2.14-1.22-3.72-3.52-3.72-1.17,0-2.08.4-2.65,1.04v-.85h-1.45v10.44h1.45v-3.85c.57.65,1.49,1.08,2.65,1.08M341.5,30.13h1.43l4.59-10.44h-1.43l-2.39,5.45-2.27-5.45h-1.58l3.06,7.23-1.41,3.21ZM337.6,27.14h1.48v-1.19h-1.12c-.6,0-.98-.29-.98-.98v-4.09h2.1v-1.19h-2.37c.2-.14.31-.32.31-.71v-1.15h-1.45v1.19c0,.52-.24.67-.73.67h-.59v1.19h1.27v4.09c0,1.58.99,2.17,2.07,2.17M324.08,27.14h1.46v-4.75c.08-.95.84-1.66,1.88-1.66,1.23,0,1.71.73,1.71,1.83v4.58h1.46v-4.87c0-1.95-1.13-2.8-2.78-2.8-.93,0-1.77.34-2.27.88v-.66h-1.46v7.45ZM316.65,22.63c.22-1.25,1.04-1.94,2.29-1.94,1.46,0,2.16.95,2.16,1.94h-4.45ZM318.93,27.36c2.3,0,3.6-1.4,3.6-2.84v-.07h-1.45v.07c0,.77-.68,1.61-2.14,1.61-1.36,0-2.23-.83-2.33-2.32h5.96v-.85c0-2.03-1.22-3.5-3.63-3.5s-3.81,1.47-3.81,3.88v.14c0,2.41,1.45,3.88,3.81,3.88M307.8,23.54v-.25c0-1.54.88-2.56,2.37-2.56s2.33,1.02,2.33,2.56v.25c0,1.54-.84,2.59-2.33,2.59s-2.37-1.05-2.37-2.59M310.46,27.36c2.3,0,3.52-1.64,3.52-3.75v-.39c0-2.14-1.22-3.72-3.52-3.72-1.17,0-2.08.4-2.65,1.04v-.85h-1.45v10.44h1.45v-3.85c.58.65,1.49,1.08,2.65,1.08M295.6,22.13v-.25c0-2.62,1.62-3.94,3.81-3.94s3.81,1.32,3.81,3.94v.25c0,2.63-1.62,3.94-3.81,3.94s-3.81-1.32-3.81-3.94M299.4,27.36c3.07,0,5.29-1.79,5.29-5.24v-.25c0-3.37-2.23-5.24-5.29-5.24s-5.29,1.86-5.29,5.24v.25c0,3.45,2.23,5.24,5.29,5.24"/>
        <path class="cls-3" d="M586.64,30.73h15.36c0-9.35-7.05-16.73-16.98-16.73v15.07h-15.02c0,9.15,7.14,16.93,16.64,16.93v-15.27Z"/>
      </g>
      <rect class="cls-2" x="22.87" y="148.77" width="231.43" height="8.9"/>
      <rect class="cls-2" x="111.88" y="166.57" width="17.8" height="8.9"/>
      <rect class="cls-2" x="254.29" y="255.58" width="8.9" height="8.9"/>
      <rect class="cls-2" x="245.39" y="389.09" width="8.9" height="8.9"/>
      <rect class="cls-2" x="111.88" y="389.09" width="8.9" height="8.9"/>
      <rect class="cls-2" x="22.87" y="389.09" width="8.9" height="8.9"/>
      <rect class="cls-2" x="200.88" y="389.09" width="8.9" height="8.9"/>
      <rect class="cls-2" x="138.58" y="389.09" width="53.41" height="8.9"/>
      <rect class="cls-2" x="49.57" y="389.09" width="17.8" height="8.9"/>
      <rect class="cls-2" x="209.79" y="175.47" width="8.9" height="8.9"/>
      <rect class="cls-2" x="227.59" y="175.47" width="8.9" height="8.9"/>
      <rect class="cls-2" x="218.69" y="184.37" width="8.9" height="8.9"/>
      <rect class="cls-2" x="227.59" y="193.27" width="8.9" height="8.9"/>
      <rect class="cls-2" x="209.79" y="193.27" width="8.9" height="8.9"/>
      <rect class="cls-2" x="218.69" y="202.17" width="8.9" height="8.9"/>
      <rect class="cls-2" x="209.79" y="211.07" width="8.9" height="8.9"/>
      <rect class="cls-2" x="227.59" y="211.07" width="8.9" height="8.9"/>
      <rect class="cls-2" x="218.69" y="219.97" width="8.9" height="8.9"/>
      <rect class="cls-2" x="209.79" y="228.87" width="8.9" height="8.9"/>
      <rect class="cls-2" x="227.59" y="228.87" width="8.9" height="8.9"/>
      <rect class="cls-2" x="227.59" y="246.68" width="8.9" height="8.9"/>
      <rect class="cls-2" x="218.69" y="237.78" width="8.9" height="8.9"/>
      <rect class="cls-2" x="209.79" y="246.68" width="8.9" height="8.9"/>
      <rect class="cls-2" x="191.98" y="308.98" width="8.9" height="8.9"/>
      <rect class="cls-2" x="200.88" y="300.08" width="8.9" height="8.9"/>
      <rect class="cls-2" x="209.79" y="291.18" width="8.9" height="8.9"/>
      <rect class="cls-2" x="191.98" y="291.18" width="8.9" height="8.9"/>
      <rect class="cls-2" x="209.79" y="308.98" width="8.9" height="8.9"/>
      <rect class="cls-2" x="200.88" y="282.28" width="8.9" height="8.9"/>
      <rect class="cls-2" x="191.98" y="273.38" width="8.9" height="8.9"/>
      <rect class="cls-2" x="209.79" y="273.38" width="8.9" height="8.9"/>
      <rect class="cls-2" x="200.88" y="264.48" width="8.9" height="8.9"/>
      <rect class="cls-2" x="200.88" y="317.88" width="8.9" height="8.9"/>
      <rect class="cls-2" x="209.79" y="326.78" width="8.9" height="8.9"/>
      <rect class="cls-2" x="191.98" y="326.78" width="8.9" height="8.9"/>
      <rect class="cls-2" x="200.88" y="335.69" width="8.9" height="8.9"/>
      <rect class="cls-2" x="191.98" y="344.59" width="8.9" height="8.9"/>
      <rect class="cls-2" x="209.79" y="344.59" width="8.9" height="8.9"/>
      <rect class="cls-2" x="200.88" y="353.49" width="8.9" height="8.9"/>
      <rect class="cls-2" x="191.98" y="362.39" width="8.9" height="8.9"/>
      <rect class="cls-2" x="209.79" y="362.39" width="8.9" height="8.9"/>
      <rect class="cls-2" x="209.79" y="380.19" width="8.9" height="8.9"/>
      <rect class="cls-2" x="200.88" y="371.29" width="8.9" height="8.9"/>
      <rect class="cls-2" x="191.98" y="380.19" width="8.9" height="8.9"/>
      <rect class="cls-2" x="218.69" y="264.48" width="35.6" height="8.9"/>
      <rect class="cls-2" x="67.37" y="264.48" width="124.61" height="8.9"/>
      <rect class="cls-2" x="31.77" y="264.48" width="17.8" height="8.9"/>
      <rect class="cls-3" x="227.59" y="166.57" width="8.9" height="8.9"/>
      <rect class="cls-3" x="227.59" y="184.37" width="8.9" height="8.9"/>
      <rect class="cls-3" x="227.59" y="202.17" width="8.9" height="8.9"/>
      <rect class="cls-3" x="227.59" y="219.97" width="8.9" height="8.9"/>
      <rect class="cls-3" x="227.59" y="237.78" width="8.9" height="8.9"/>
      <rect class="cls-3" x="218.69" y="175.47" width="8.9" height="8.9"/>
      <rect class="cls-3" x="218.69" y="193.27" width="8.9" height="8.9"/>
      <rect class="cls-3" x="218.69" y="211.07" width="8.9" height="8.9"/>
      <rect class="cls-3" x="218.69" y="228.87" width="8.9" height="8.9"/>
      <path class="cls-3" d="M22.86,246.68v-80.11h17.8v89.01h-17.8v-8.9ZM111.87,246.68v-80.11h17.8v89.01h-17.8v-8.9ZM254.29,139.86H13.96v124.61h8.9v124.61h8.9v-124.61h17.8v124.61h17.8v-124.61h124.61v8.9h8.9v-8.9h8.9v8.9h8.9v-8.9h35.6v-8.9h-26.7v-8.9h-8.9v8.9h-8.9v-8.9h8.9v-8.9h-8.9v-8.9h8.9v-8.9h-8.9v-8.9h8.9v-8.9h-8.9v-8.9h8.9v-8.9h-8.9v-8.9h8.9v-8.9h-8.9v-8.9h-106.81v97.91h-44.51v-97.91H22.86v-8.9h231.43v106.81h8.9v-115.71h-8.9Z"/>
      <rect class="cls-3" x="209.79" y="282.28" width="8.9" height="8.9"/>
      <rect class="cls-3" x="209.79" y="300.08" width="8.9" height="8.9"/>
      <rect class="cls-3" x="209.79" y="317.88" width="8.9" height="8.9"/>
      <rect class="cls-3" x="209.79" y="335.69" width="8.9" height="8.9"/>
      <rect class="cls-3" x="200.88" y="273.38" width="8.9" height="8.9"/>
      <rect class="cls-3" x="200.88" y="291.18" width="8.9" height="8.9"/>
      <rect class="cls-3" x="200.88" y="308.98" width="8.9" height="8.9"/>
      <rect class="cls-3" x="200.88" y="326.78" width="8.9" height="8.9"/>
      <rect class="cls-3" x="200.88" y="344.59" width="8.9" height="8.9"/>
      <rect class="cls-3" x="209.79" y="353.49" width="8.9" height="8.9"/>
      <rect class="cls-3" x="200.88" y="362.39" width="8.9" height="8.9"/>
      <rect class="cls-3" x="209.79" y="371.29" width="8.9" height="8.9"/>
      <rect class="cls-3" x="200.88" y="380.19" width="8.9" height="8.9"/>
      <polygon class="cls-3" points="191.98 371.29 191.98 362.39 200.88 362.39 200.88 353.49 191.98 353.49 191.98 344.59 200.88 344.59 200.88 335.69 191.98 335.69 191.98 326.79 200.88 326.79 200.88 317.88 191.98 317.88 191.98 308.98 200.88 308.98 200.88 300.08 191.98 300.08 191.98 291.18 200.88 291.18 200.88 282.28 191.98 282.28 191.98 273.38 183.08 273.38 174.18 273.38 165.28 273.38 156.38 273.38 147.48 273.38 138.58 273.38 138.58 282.28 138.58 291.18 138.58 300.08 138.58 308.98 138.58 317.88 138.58 326.79 138.58 335.69 138.58 344.59 138.58 353.49 138.58 362.39 138.58 371.29 138.58 380.19 138.58 389.09 147.48 389.09 156.38 389.09 165.28 389.09 174.18 389.09 183.08 389.09 191.98 389.09 191.98 380.19 200.88 380.19 200.88 371.29 191.98 371.29"/>
      <polygon class="cls-3" points="111.87 282.28 111.87 291.18 111.87 300.08 111.87 308.98 111.87 317.88 111.87 326.79 111.87 335.69 111.87 344.59 111.87 353.49 111.87 362.39 111.87 371.29 111.87 380.19 111.87 389.09 120.78 389.09 120.78 380.19 120.78 371.29 120.78 362.39 120.78 353.49 120.78 344.59 120.78 335.69 120.78 326.79 120.78 317.88 120.78 308.98 120.78 300.08 120.78 291.18 120.78 282.28 120.78 273.38 111.87 273.38 111.87 282.28"/>
      <polygon class="cls-3" points="245.39 282.28 245.39 291.18 245.39 300.08 245.39 308.98 245.39 317.88 245.39 326.79 245.39 335.69 245.39 344.59 245.39 353.49 245.39 362.39 245.39 371.29 245.39 380.19 245.39 389.09 254.29 389.09 254.29 380.19 254.29 371.29 254.29 362.39 254.29 353.49 254.29 344.59 254.29 335.69 254.29 326.79 254.29 317.88 254.29 308.98 254.29 300.08 254.29 291.18 254.29 282.28 254.29 273.38 245.39 273.38 245.39 282.28"/>
      <rect class="cls-2" x="22.86" y="166.57" width="17.8" height="8.9"/>
      <polygon class="cls-2" points="478.46 437.18 487.31 437.18 496.17 437.18 505.02 437.18 513.88 437.18 513.88 428.33 505.02 428.33 496.17 428.33 487.31 428.33 478.46 428.33 469.6 428.33 460.75 428.33 460.75 437.18 469.6 437.18 478.46 437.18"/>
      <rect class="cls-2" x="451.89" y="437.18" width="8.86" height="8.86"/>
      <rect class="cls-2" x="443.04" y="446.04" width="8.86" height="8.86"/>
      <polygon class="cls-2" points="434.19 472.6 443.04 472.6 443.04 463.74 434.19 463.74 425.33 463.74 416.48 463.74 416.48 472.6 425.33 472.6 434.19 472.6"/>
      <polygon class="cls-2" points="434.19 508.02 443.04 508.02 443.04 499.16 434.19 499.16 425.33 499.16 416.48 499.16 416.48 508.02 425.33 508.02 434.19 508.02"/>
      <polygon class="cls-2" points="549.3 508.02 558.15 508.02 558.15 499.16 549.3 499.16 540.44 499.16 531.59 499.16 531.59 508.02 540.44 508.02 549.3 508.02"/>
      <rect class="cls-2" x="407.62" y="472.6" width="8.86" height="8.86"/>
      <rect class="cls-2" x="398.77" y="481.45" width="8.86" height="8.86"/>
      <polygon class="cls-2" points="398.77 508.02 398.77 499.16 389.91 499.16 381.06 499.16 381.06 508.02 389.91 508.02 398.77 508.02"/>
      <rect class="cls-2" x="381.06" y="516.87" width="8.86" height="8.86"/>
      <rect class="cls-2" x="425.33" y="516.87" width="8.86" height="8.86"/>
      <rect class="cls-2" x="425.33" y="534.58" width="8.86" height="8.86"/>
      <rect class="cls-2" x="425.33" y="552.29" width="8.86" height="8.86"/>
      <rect class="cls-2" x="425.33" y="596.56" width="8.86" height="8.85"/>
      <polygon class="cls-2" points="443.04 614.27 434.18 614.27 434.18 623.13 443.04 623.13 451.89 623.13 451.89 614.27 443.04 614.27"/>
      <polygon class="cls-2" points="412.05 614.27 398.77 614.27 398.77 623.13 412.05 623.13 425.33 623.13 425.33 614.27 412.05 614.27"/>
      <polygon class="cls-2" points="434.19 649.69 398.77 649.69 398.77 658.55 434.19 658.55 469.6 658.55 469.6 649.69 434.19 649.69"/>
      <polygon class="cls-2" points="540.44 649.69 505.02 649.69 505.02 658.55 540.44 658.55 575.86 658.55 575.86 649.69 540.44 649.69"/>
      <polygon class="cls-2" points="584.71 631.98 575.86 631.98 575.86 640.84 584.71 640.84 593.57 640.84 593.57 631.98 584.71 631.98"/>
      <polygon class="cls-2" points="389.91 631.98 381.06 631.98 381.06 640.84 389.91 640.84 398.77 640.84 398.77 631.98 389.91 631.98"/>
      <polygon class="cls-2" points="562.58 614.27 549.3 614.27 549.3 623.13 562.58 623.13 575.86 623.13 575.86 614.27 562.58 614.27"/>
      <rect class="cls-2" x="451.89" y="623.13" width="8.86" height="8.85"/>
      <rect class="cls-2" x="460.75" y="631.98" width="8.86" height="8.85"/>
      <polygon class="cls-2" points="478.46 649.69 487.31 649.69 496.17 649.69 505.02 649.69 505.02 640.84 496.17 640.84 487.31 640.84 478.46 640.84 469.6 640.84 469.6 649.69 478.46 649.69"/>
      <rect class="cls-2" x="434.18" y="561.14" width="8.86" height="8.86"/>
      <rect class="cls-2" x="443.04" y="570" width="88.55" height="8.86"/>
      <rect class="cls-2" x="469.6" y="543.44" width="8.86" height="8.86"/>
      <rect class="cls-2" x="460.75" y="516.87" width="8.86" height="8.86"/>
      <rect class="cls-2" x="505.02" y="516.87" width="8.86" height="8.86"/>
      <rect class="cls-2" x="372.2" y="534.58" width="8.86" height="8.86"/>
      <rect class="cls-2" x="372.2" y="552.29" width="8.86" height="8.86"/>
      <polygon class="cls-2" points="381.06 578.86 389.91 578.86 389.91 570 389.91 561.15 381.06 561.15 381.06 570 381.06 578.86"/>
      <polygon class="cls-2" points="398.77 587.71 407.62 587.71 416.48 587.71 425.33 587.71 434.19 587.71 443.04 587.71 443.04 578.85 434.19 578.85 425.33 578.85 416.48 578.85 407.62 578.85 398.77 578.85 389.91 578.85 389.91 587.71 398.77 587.71"/>
      <rect class="cls-2" x="513.88" y="437.18" width="8.85" height="8.86"/>
      <rect class="cls-2" x="522.73" y="446.04" width="8.85" height="8.86"/>
      <polygon class="cls-2" points="531.59 472.6 540.44 472.6 549.3 472.6 558.15 472.6 558.15 463.74 549.3 463.74 540.44 463.74 531.59 463.74 531.59 472.6"/>
      <rect class="cls-2" x="558.15" y="472.6" width="8.85" height="8.86"/>
      <rect class="cls-2" x="567.01" y="481.45" width="8.85" height="8.86"/>
      <polygon class="cls-2" points="575.86 508.02 584.71 508.02 593.57 508.02 593.57 499.16 584.71 499.16 575.86 499.16 575.86 508.02"/>
      <rect class="cls-2" x="584.71" y="516.87" width="8.85" height="8.86"/>
      <rect class="cls-2" x="540.44" y="516.87" width="8.85" height="8.86"/>
      <rect class="cls-2" x="540.44" y="534.58" width="8.85" height="8.86"/>
      <rect class="cls-2" x="540.44" y="552.29" width="8.85" height="8.86"/>
      <rect class="cls-2" x="540.44" y="596.56" width="8.85" height="8.86"/>
      <polygon class="cls-2" points="540.44 623.13 540.44 614.27 531.59 614.27 522.73 614.27 522.73 623.13 531.59 623.13 540.44 623.13"/>
      <rect class="cls-2" x="513.88" y="623.13" width="8.85" height="8.85"/>
      <rect class="cls-2" x="505.02" y="631.98" width="8.86" height="8.85"/>
      <rect class="cls-2" x="531.59" y="561.15" width="8.85" height="8.86"/>
      <rect class="cls-2" x="496.17" y="543.44" width="8.86" height="8.86"/>
      <rect class="cls-2" x="513.88" y="543.44" width="17.71" height="8.86"/>
      <rect class="cls-2" x="443.04" y="543.44" width="17.71" height="8.86"/>
      <rect class="cls-2" x="593.57" y="534.58" width="8.85" height="8.86"/>
      <rect class="cls-2" x="593.57" y="552.29" width="8.85" height="8.86"/>
      <polygon class="cls-2" points="593.57 570 593.57 561.15 584.71 561.15 584.71 570 584.71 578.86 593.57 578.86 593.57 570"/>
      <polygon class="cls-2" points="540.44 587.71 549.3 587.71 558.15 587.71 567.01 587.71 575.86 587.71 584.71 587.71 584.71 578.85 575.86 578.85 567.01 578.85 558.15 578.85 549.3 578.85 540.44 578.85 531.59 578.85 531.59 587.71 540.44 587.71"/>
      <polygon class="cls-3" points="460.75 419.47 460.75 428.33 469.6 428.33 478.46 428.33 487.31 428.33 496.17 428.33 505.02 428.33 513.88 428.33 513.88 419.47 460.75 419.47"/>
      <rect class="cls-3" x="451.89" y="428.33" width="8.86" height="8.86"/>
      <rect class="cls-3" x="443.04" y="437.18" width="8.86" height="8.86"/>
      <polygon class="cls-3" points="434.19 463.74 443.04 463.74 443.04 454.89 434.19 454.89 425.33 454.89 416.48 454.89 416.48 463.74 425.33 463.74 434.19 463.74"/>
      <rect class="cls-3" x="407.62" y="463.74" width="8.86" height="8.86"/>
      <rect class="cls-3" x="398.77" y="472.6" width="8.86" height="8.86"/>
      <polygon class="cls-3" points="398.77 499.16 398.77 490.31 389.91 490.31 381.06 490.31 381.06 499.16 389.91 499.16 398.77 499.16"/>
      <rect class="cls-3" x="381.06" y="508.02" width="8.86" height="8.86"/>
      <rect class="cls-3" x="425.33" y="508.02" width="8.86" height="8.86"/>
      <rect class="cls-3" x="425.33" y="525.73" width="8.86" height="8.86"/>
      <rect class="cls-3" x="425.33" y="543.44" width="8.86" height="8.86"/>
      <rect class="cls-3" x="425.33" y="587.71" width="8.86" height="8.86"/>
      <polygon class="cls-3" points="443.04 605.42 434.18 605.42 434.18 614.27 443.04 614.27 451.89 614.27 451.89 605.42 443.04 605.42"/>
      <rect class="cls-3" x="451.89" y="614.27" width="8.86" height="8.85"/>
      <rect class="cls-3" x="460.75" y="623.13" width="8.86" height="8.85"/>
      <rect class="cls-3" x="434.18" y="552.29" width="8.86" height="8.86"/>
      <rect class="cls-3" x="469.6" y="534.58" width="8.86" height="8.86"/>
      <rect class="cls-3" x="372.2" y="525.73" width="8.86" height="8.86"/>
      <rect class="cls-3" x="372.2" y="543.44" width="8.86" height="8.86"/>
      <polygon class="cls-3" points="389.91 552.29 381.06 552.29 381.06 561.15 381.06 570 389.91 570 389.91 561.15 389.91 552.29"/>
      <polygon class="cls-3" points="425.33 570 416.48 570 407.62 570 398.77 570 389.91 570 389.91 578.86 398.77 578.86 407.62 578.86 416.48 578.86 425.33 578.86 434.19 578.86 443.04 578.86 443.04 570 434.19 570 425.33 570"/>
      <polygon class="cls-3" points="443.04 481.45 434.18 481.45 425.33 481.45 416.48 481.45 416.48 490.31 416.48 499.16 425.33 499.16 434.18 499.16 443.04 499.16 443.04 490.31 443.04 481.45"/>
      <rect class="cls-3" x="513.88" y="428.33" width="8.85" height="8.86"/>
      <rect class="cls-3" x="522.73" y="437.18" width="8.85" height="8.86"/>
      <polygon class="cls-3" points="531.59 463.74 540.44 463.74 549.3 463.74 558.15 463.74 558.15 454.89 549.3 454.89 540.44 454.89 531.59 454.89 531.59 463.74"/>
      <rect class="cls-3" x="558.15" y="463.74" width="8.85" height="8.86"/>
      <rect class="cls-3" x="567.01" y="472.6" width="8.85" height="8.86"/>
      <polygon class="cls-3" points="575.86 499.16 584.71 499.16 593.57 499.16 593.57 490.31 584.71 490.31 575.86 490.31 575.86 499.16"/>
      <rect class="cls-3" x="584.72" y="508.02" width="8.85" height="8.86"/>
      <rect class="cls-3" x="540.44" y="508.02" width="8.85" height="8.86"/>
      <rect class="cls-3" x="540.44" y="525.73" width="8.85" height="8.86"/>
      <rect class="cls-3" x="540.44" y="543.44" width="8.85" height="8.86"/>
      <rect class="cls-3" x="540.44" y="587.71" width="8.85" height="8.86"/>
      <polygon class="cls-3" points="540.44 614.27 540.44 605.42 531.59 605.42 522.73 605.42 522.73 614.27 531.59 614.27 540.44 614.27"/>
      <rect class="cls-3" x="513.88" y="614.27" width="8.85" height="8.85"/>
      <rect class="cls-3" x="505.02" y="623.13" width="8.86" height="8.85"/>
      <polygon class="cls-3" points="496.17 631.98 487.31 631.98 478.46 631.98 469.6 631.98 469.6 640.84 478.46 640.84 487.31 640.84 496.17 640.84 505.02 640.84 505.02 631.98 496.17 631.98"/>
      <rect class="cls-3" x="531.59" y="552.29" width="8.85" height="8.86"/>
      <rect class="cls-3" x="496.17" y="534.58" width="8.86" height="8.86"/>
      <rect class="cls-3" x="593.57" y="525.73" width="8.85" height="8.85"/>
      <rect class="cls-3" x="593.57" y="543.44" width="8.85" height="8.85"/>
      <polygon class="cls-3" points="584.71 561.15 584.71 570 593.57 570 593.57 561.15 593.57 552.29 584.71 552.29 584.71 561.15"/>
      <polygon class="cls-3" points="567.01 570 558.15 570 549.3 570 540.44 570 531.59 570 531.59 578.86 540.44 578.86 549.3 578.86 558.15 578.86 567.01 578.86 575.86 578.86 584.71 578.86 584.71 570 575.86 570 567.01 570"/>
      <polygon class="cls-3" points="522.73 561.15 513.88 561.15 513.88 552.29 505.02 552.29 505.02 561.15 496.17 561.15 487.31 561.15 478.46 561.15 469.6 561.15 469.6 552.29 460.75 552.29 460.75 561.15 451.89 561.15 443.04 561.15 443.04 570 451.89 570 460.75 570 469.6 570 478.46 570 487.31 570 496.17 570 505.02 570 513.88 570 522.73 570 531.59 570 531.59 561.15 522.73 561.15"/>
      <polygon class="cls-3" points="558.15 499.16 558.15 490.31 558.15 481.45 549.3 481.45 540.44 481.45 531.59 481.45 531.59 490.31 531.59 499.16 540.44 499.16 549.3 499.16 558.15 499.16"/>
      <polygon class="cls-3" points="416.48 614.27 425.33 614.27 425.33 605.42 425.33 596.56 416.48 596.56 407.62 596.56 398.77 596.56 398.77 605.42 398.77 614.27 407.62 614.27 416.48 614.27"/>
      <polygon class="cls-3" points="575.86 596.56 567 596.56 558.15 596.56 549.3 596.56 549.3 605.42 549.3 614.27 558.15 614.27 567 614.27 575.86 614.27 575.86 605.42 575.86 596.56"/>
      <polygon class="cls-3" points="451.89 640.84 451.89 631.98 451.89 623.13 443.04 623.13 434.19 623.13 425.33 623.13 416.48 623.13 407.62 623.13 398.77 623.13 398.77 614.27 389.91 614.27 381.06 614.27 381.06 623.13 381.06 631.98 389.91 631.98 398.77 631.98 398.77 640.84 398.77 649.69 407.62 649.69 416.48 649.69 425.33 649.69 434.19 649.69 443.04 649.69 451.89 649.69 460.75 649.69 469.6 649.69 469.6 640.84 460.75 640.84 451.89 640.84"/>
      <polygon class="cls-3" points="575.86 614.27 575.86 623.13 567 623.13 558.15 623.13 549.3 623.13 540.44 623.13 531.59 623.13 522.73 623.13 522.73 631.98 522.73 640.84 513.88 640.84 505.02 640.84 505.02 649.69 513.88 649.69 522.73 649.69 531.59 649.69 540.44 649.69 549.3 649.69 558.15 649.69 567 649.69 575.86 649.69 575.86 640.84 575.86 631.98 584.71 631.98 593.57 631.98 593.57 623.13 593.57 614.27 584.71 614.27 575.86 614.27"/>
      <polygon class="cls-3" points="513.88 499.16 513.88 508.02 505.02 508.02 496.17 508.02 487.31 508.02 478.46 508.02 469.6 508.02 460.75 508.02 460.75 499.16 451.89 499.16 443.04 499.16 443.04 508.02 443.04 516.87 443.04 525.73 443.04 534.58 443.04 543.44 451.89 543.44 460.75 543.44 460.75 534.58 460.75 525.73 460.75 516.87 469.6 516.87 469.6 525.73 478.46 525.73 487.31 525.73 496.17 525.73 505.02 525.73 505.02 516.87 513.88 516.87 513.88 525.73 513.88 534.58 513.88 543.44 522.73 543.44 531.59 543.44 531.59 534.58 531.59 525.73 531.59 516.87 531.59 508.02 531.59 499.16 522.73 499.16 513.88 499.16"/>
      <rect class="cls-2" x="427.2" y="86.81" width="8.9" height="8.9"/>
      <polygon class="cls-2" points="453.9 86.81 462.8 86.81 471.7 86.81 480.6 86.81 489.5 86.81 498.41 86.81 507.31 86.81 516.21 86.81 525.11 86.81 534.01 86.81 542.91 86.81 551.81 86.81 560.71 86.81 569.61 86.81 578.51 86.81 578.51 77.91 569.61 77.91 560.71 77.91 551.81 77.91 542.91 77.91 534.01 77.91 525.11 77.91 516.21 77.91 507.31 77.91 498.41 77.91 489.5 77.91 480.6 77.91 471.7 77.91 462.8 77.91 453.9 77.91 445 77.91 436.1 77.91 436.1 86.81 445 86.81 453.9 86.81"/>
      <polygon class="cls-2" points="462.8 122.41 453.9 122.41 453.9 131.32 462.8 131.32 471.7 131.32 480.6 131.32 480.6 122.41 471.7 122.41 462.8 122.41"/>
      <polygon class="cls-2" points="507.31 104.61 498.41 104.61 489.5 104.61 480.6 104.61 471.7 104.61 471.7 113.51 480.6 113.51 489.5 113.51 498.41 113.51 507.31 113.51 516.21 113.51 525.11 113.51 525.11 104.61 516.21 104.61 507.31 104.61"/>
      <polygon class="cls-2" points="542.91 131.32 542.91 122.41 534.01 122.41 525.11 122.41 516.21 122.41 516.21 131.32 525.11 131.32 534.01 131.32 542.91 131.32"/>
      <polygon class="cls-2" points="516.21 140.22 516.21 149.12 525.11 149.12 534.01 149.12 534.01 140.22 525.11 140.22 516.21 140.22"/>
      <polygon class="cls-2" points="516.21 158.02 507.31 158.02 498.41 158.02 498.41 166.92 507.31 166.92 516.21 166.92 516.21 158.02"/>
      <polygon class="cls-2" points="498.41 193.62 489.5 193.62 489.5 202.52 498.41 202.52 507.31 202.52 516.21 202.52 516.21 193.62 507.31 193.62 498.41 193.62"/>
      <polygon class="cls-2" points="462.8 140.22 462.8 149.12 471.7 149.12 480.6 149.12 480.6 140.22 471.7 140.22 462.8 140.22"/>
      <polygon class="cls-2" points="445 229.23 436.1 229.23 436.1 238.13 445 238.13 453.9 238.13 462.8 238.13 471.7 238.13 480.6 238.13 489.5 238.13 498.41 238.13 507.31 238.13 516.21 238.13 525.11 238.13 534.01 238.13 542.91 238.13 551.81 238.13 560.71 238.13 569.61 238.13 578.51 238.13 578.51 229.23 569.61 229.23 560.71 229.23 551.81 229.23 542.91 229.23 534.01 229.23 525.11 229.23 516.21 229.23 507.31 229.23 498.41 229.23 489.5 229.23 480.6 229.23 471.7 229.23 462.8 229.23 453.9 229.23 445 229.23"/>
      <rect class="cls-2" x="427.2" y="104.61" width="8.9" height="8.9"/>
      <rect class="cls-2" x="427.2" y="122.41" width="8.9" height="8.9"/>
      <rect class="cls-2" x="427.2" y="140.22" width="8.9" height="8.9"/>
      <rect class="cls-2" x="427.2" y="158.02" width="8.9" height="8.9"/>
      <rect class="cls-2" x="427.2" y="175.82" width="8.9" height="8.9"/>
      <rect class="cls-2" x="427.2" y="193.62" width="8.9" height="8.9"/>
      <rect class="cls-2" x="427.2" y="211.42" width="8.9" height="8.9"/>
      <rect class="cls-3" x="427.2" y="77.91" width="8.9" height="8.9"/>
      <polygon class="cls-3" points="462.8 113.51 453.9 113.51 453.9 122.41 462.8 122.41 471.7 122.41 480.6 122.41 480.6 131.32 471.7 131.32 462.8 131.32 462.8 140.22 471.7 140.22 480.6 140.22 480.6 149.12 471.7 149.12 471.7 158.02 480.6 158.02 489.5 158.02 489.5 149.12 489.5 140.22 489.5 131.32 489.5 122.41 498.41 122.41 507.31 122.41 516.21 122.41 525.11 122.41 534.01 122.41 542.91 122.41 542.91 113.51 534.01 113.51 525.11 113.51 516.21 113.51 507.31 113.51 498.41 113.51 489.5 113.51 480.6 113.51 471.7 113.51 462.8 113.51"/>
      <polygon class="cls-3" points="489.5 104.61 498.41 104.61 507.31 104.61 516.21 104.61 525.11 104.61 525.11 95.71 516.21 95.71 507.31 95.71 498.41 95.71 489.5 95.71 480.6 95.71 471.7 95.71 471.7 104.61 480.6 104.61 489.5 104.61"/>
      <polygon class="cls-3" points="507.31 184.72 498.41 184.72 489.5 184.72 489.5 193.62 498.41 193.62 507.31 193.62 516.21 193.62 516.21 184.72 507.31 184.72"/>
      <polygon class="cls-3" points="525.11 131.32 516.21 131.32 516.21 140.22 525.11 140.22 534.01 140.22 534.01 131.32 525.11 131.32"/>
      <polygon class="cls-3" points="569.61 69.01 560.71 69.01 551.81 69.01 542.91 69.01 534.01 69.01 525.11 69.01 516.21 69.01 507.31 69.01 498.41 69.01 489.5 69.01 480.6 69.01 471.7 69.01 462.8 69.01 453.9 69.01 445 69.01 436.1 69.01 436.1 77.91 445 77.91 453.9 77.91 462.8 77.91 471.7 77.91 480.6 77.91 489.5 77.91 498.41 77.91 507.31 77.91 516.21 77.91 525.11 77.91 534.01 77.91 542.91 77.91 551.81 77.91 560.71 77.91 569.61 77.91 578.51 77.91 578.51 69.01 569.61 69.01"/>
      <polygon class="cls-3" points="560.71 220.33 551.81 220.33 542.91 220.33 534.01 220.33 525.11 220.33 516.21 220.33 507.31 220.33 498.41 220.33 489.5 220.33 480.6 220.33 471.7 220.33 462.8 220.33 453.9 220.33 445 220.33 436.1 220.33 436.1 229.23 445 229.23 453.9 229.23 462.8 229.23 471.7 229.23 480.6 229.23 489.5 229.23 498.41 229.23 507.31 229.23 516.21 229.23 525.11 229.23 534.01 229.23 542.91 229.23 551.81 229.23 560.71 229.23 569.61 229.23 578.51 229.23 578.51 220.33 569.61 220.33 560.71 220.33"/>
      <rect class="cls-3" x="427.2" y="95.71" width="8.9" height="8.9"/>
      <rect class="cls-3" x="427.2" y="113.51" width="8.9" height="8.9"/>
      <rect class="cls-3" x="427.2" y="131.32" width="8.9" height="8.9"/>
      <rect class="cls-3" x="427.2" y="149.12" width="8.9" height="8.9"/>
      <rect class="cls-3" x="427.2" y="166.92" width="8.9" height="8.9"/>
      <rect class="cls-3" x="427.2" y="184.72" width="8.9" height="8.9"/>
      <rect class="cls-3" x="427.2" y="202.52" width="8.9" height="8.9"/>
      <polygon class="cls-3" points="542.91 140.22 551.81 140.22 551.81 131.32 551.81 122.41 542.91 122.41 542.91 131.32 542.91 140.22"/>
      <polygon class="cls-3" points="534.01 149.12 525.11 149.12 516.21 149.12 507.31 149.12 498.41 149.12 498.41 158.02 507.31 158.02 516.21 158.02 516.21 166.92 507.31 166.92 507.31 175.82 516.21 175.82 525.11 175.82 525.11 166.92 525.11 158.02 534.01 158.02 542.91 158.02 542.91 149.12 542.91 140.22 534.01 140.22 534.01 149.12"/>
      <polygon class="cls-3" points="507.31 202.52 507.31 211.42 516.21 211.42 525.11 211.42 534.01 211.42 534.01 202.52 534.01 193.62 525.11 193.62 516.21 193.62 516.21 202.52 507.31 202.52"/>
      <rect class="cls-3" x="445" y="202.52" width="8.9" height="8.9"/>
      <rect class="cls-3" x="445" y="95.71" width="8.9" height="8.9"/>
      <rect class="cls-3" x="560.71" y="95.71" width="8.9" height="8.9"/>
      <polygon class="cls-3" points="578.51 86.81 578.51 95.71 578.51 104.61 578.51 113.51 578.51 122.41 578.51 131.32 578.51 140.22 578.51 149.12 578.51 158.02 578.51 166.92 578.51 175.82 578.51 184.72 578.51 193.62 578.51 202.52 578.51 211.42 578.51 220.33 587.42 220.33 587.42 211.42 587.42 202.52 587.42 193.62 587.42 184.72 587.42 175.82 587.42 166.92 587.42 158.02 587.42 149.12 587.42 140.22 587.42 131.32 587.42 122.41 587.42 113.51 587.42 104.61 587.42 95.71 587.42 86.81 587.42 77.91 578.51 77.91 578.51 86.81"/>
      <rect class="cls-3" x="560.71" y="202.52" width="8.9" height="8.9"/>
    </g>
  </g>
</svg>