<?xml version="1.0" encoding="UTF-8"?>
<svg id="Calque_1" xmlns="http://www.w3.org/2000/svg" version="1.1" viewBox="0 0 540 960">
  <!-- Generator: Adobe Illustrator 29.1.0, SVG Export Plug-In . SVG Version: 2.1.0 Build 142)  -->
  <defs>
    <style>
      .st0 {
        fill: #fff;
      }
    </style>
  </defs>
  <path class="st0" d="M6.3,431.7c97.2,0,176.1-78.9,176.1-176.1S103.5,79.5,6.3,79.5v352.2Z"/>
  <path class="st0" d="M182.4,431.7c97.2,0,176.1-78.9,176.1-176.1s-78.9-176.1-176.1-176.1v352.2Z"/>
  <path class="st0" d="M534.6,431.7c-97.2,0-176.1-78.9-176.1-176.1s78.9-176.1,176.1-176.1v352.2Z"/>
  <path class="st0" d="M270.4,486.3c-117.1,0-195.7,77.4-264.2,150.9l31.8,35.8c53.7-54.3,104.8-98.3,155.1-122-23.9,18-38.8,44-38.8,72.4,0,55.6,51.7,99.3,116.2,99.3s116.2-42.7,116.2-99.3-13-64.1-44.5-81.6c48.3,14.4,87.9,45.3,128.9,94.6-47.6,77.5-116.2,126.2-200.6,126.2s-118.1-26.8-170.8-79.4l-34.8,30.8c55.7,57.4,111.3,94.3,205.7,94.3s209.5-69.5,264.1-171.8c-63.6-85.5-143-150-264.1-150"/>
</svg>