<?xml version="1.0" encoding="UTF-8"?>
<svg id="Calque_1" xmlns="http://www.w3.org/2000/svg" version="1.1" viewBox="0 0 960 540">
  <!-- Generator: Adobe Illustrator 29.1.0, SVG Export Plug-In . SVG Version: 2.1.0 Build 142)  -->
  <defs>
    <style>
      .st0 {
        fill: #1d1d1b;
      }

      .st1 {
        fill: #fff;
      }
    </style>
  </defs>
  <path class="st1" d="M730.2,68.5c-101.6,0-169.5,67.1-228.9,130.8l27.6,31c46.5-47.1,90.8-85.2,134.4-105.7-20.7,15.6-33.7,38.1-33.7,62.7,0,48.2,44.8,86,100.7,86s100.7-37,100.7-86-11.2-55.6-38.6-70.7c41.9,12.5,76.2,39.2,111.7,82-41.3,67.3-100.7,109.3-173.9,109.3s-102.4-23.2-148-68.9l-30.1,26.7c48.2,49.9,96.4,81.8,178.1,81.8s181.6-60.3,228.9-148.9c-55.2-74-124-129.9-229-129.9"/>
  <path class="st1" d="M2.5,354.1c80.8,0,146.2-65.4,146.2-146.2S83.3,61.7,2.5,61.7v292.3Z"/>
  <path class="st1" d="M294.8,61.7c80.8,0,146.2,65.4,146.2,146.2s-65.4,146.2-146.2,146.2-146.2-65.4-146.2-146.2S214.1,61.7,294.8,61.7Z"/>
  <path class="st0" d="M701.7,219.1c-24.1,0-41.3-19-41.3-41.3h37v-37c24.1,0,41.3,18.1,41.3,41.3h-37v37Z"/>
</svg>