<?xml version="1.0" encoding="utf-8"?>
<!-- Generator: Adobe Illustrator 26.0.3, SVG Export Plug-In . SVG Version: 6.00 Build 0)  -->
<svg version="1.1" id="Calque_1" xmlns="http://www.w3.org/2000/svg" xmlns:xlink="http://www.w3.org/1999/xlink" x="0px" y="0px"
	 viewBox="0 0 438 388" style="enable-background:new 0 0 438 388;" xml:space="preserve">
<style type="text/css">
	.st0{fill:#FFFFFF;}
</style>
<g>
	<path class="st0" d="M221.8,288.9l17.7-34.3c42.8-7.8,75.7-39.6,75.7-80c0-16.3-3.7-31.8-12.4-44.9l4.9-10.2
		c27.6,13.9,52.3,35.5,77.4,65.8C346.1,248.1,290.5,287.7,221.8,288.9 M218.9,326.5L218.9,326.5c101.3,0,173.7-57.2,219-141.3
		c-31.2-41.7-67.5-77.6-112.8-99.6l43.6-85.8H316l-35.4,69.4c-18.9-4.9-39.5-7.3-61.7-7.3c-97.1,0-162.2,63.7-219,124.1l26.3,29.4
		c44.5-44.5,86.9-80.8,128.4-100.5c-19.7,15.1-32.1,36.3-32.1,59.6c0,36.3,27.2,66.6,65.4,77.6l-15.6,30.6
		c-34.2-9-64.6-29-95.1-59.2l-28.8,25.3c31.7,32.7,63.4,57.2,105.8,69l-35.8,70.6h52.7l31.7-62.5
		C208.2,326.5,213.5,326.5,218.9,326.5"/>
</g>
<path d="M152.2,165.6h35.4v-35.1c23.1,0,39.5,17.2,39.5,39.2h-35.4v35.1C168.7,204.8,152.2,186.8,152.2,165.6"/>
</svg>
