<?xml version="1.0" encoding="utf-8"?>
<!-- Generator: Adobe Illustrator 26.0.2, SVG Export Plug-In . SVG Version: 6.00 Build 0)  -->
<svg version="1.1" id="Calque_1" xmlns="http://www.w3.org/2000/svg" xmlns:xlink="http://www.w3.org/1999/xlink" x="0px" y="0px"
	 viewBox="0 0 1250 1250" style="enable-background:new 0 0 1250 1250;" xml:space="preserve">
<style type="text/css">
	.st0{fill:#FFFFFF;}
</style>
<rect width="1250" height="1250"/>
<path class="st0" d="M625,317.42c-213.51,0-356.46,141.13-481.31,275.03l57.9,65.14c97.84-99.03,190.96-179.17,282.47-222.28
	c-43.5,32.79-70.76,80.2-70.76,131.81c0,101.33,94.09,180.94,211.7,180.94c115.8,0,211.7-77.8,211.7-180.94
	c0-61.37-23.71-116.8-81.08-148.77c87.93,26.33,160.12,82.58,234.89,172.29C903.65,731.78,778.8,820.44,625,820.44
	c-119.42,0-215.32-48.86-311.22-144.76l-63.33,56.09C351.78,836.72,453.1,903.67,625,903.67c222.56,0,381.79-126.66,481.31-313.03
	C990.51,435.03,845.75,317.42,625,317.42z"/>
<path d="M565.29,634.07c-50.66,0-86.85-39.81-86.85-86.85h77.8v-77.8c50.66,0,86.85,38,86.85,86.85h-77.81V634.07z"/>
</svg>
