<?xml version="1.0" encoding="utf-8"?>
<!-- Generator: Adobe Illustrator 26.0.2, SVG Export Plug-In . SVG Version: 6.00 Build 0)  -->
<svg version="1.1" id="Calque_1" xmlns="http://www.w3.org/2000/svg" xmlns:xlink="http://www.w3.org/1999/xlink" x="0px" y="0px"
	 viewBox="0 0 816.5 292" style="enable-background:new 0 0 816.5 292;" xml:space="preserve">
<style type="text/css">
	.st0{fill:#FFFFFF;}
</style>
<g>
	<g>
		<path class="st0" d="M146.1,0C65.5,0,0.1,65.4,0.1,146s65.4,146,146,146h524.5c80.6,0,146-65.4,146-146S751.1,0,670.5,0H146.1z"/>
		<path d="M412.2,153.7l39.4-61.6h-15.1l-30.4,50l-33-50h-13.6l40.4,61.7v44.9h12.3V153.7z M299.2,200.3c24.1,0,39.8-14.8,39.8-39.2
			v-69h-12.2v69c0,19.6-10.6,28.8-27.6,28.8s-27.6-9.2-27.6-28.8v-69h-12.2v69C259.5,185.5,275.2,200.3,299.2,200.3 M170.9,188.3
			v-38.6h27.4c13.8,0,23.2,7.1,23.2,19.5c0,12.3-9.4,19.2-23.2,19.2h-27.5v-0.1H170.9z M170.9,139.2v-36.6h27.4
			c13.8,0,20.8,8.3,20.8,18.3c0,10.6-5.8,18.3-20.8,18.3L170.9,139.2L170.9,139.2z M158.4,92.1v106.6h39.9
			c20.2,0,35.6-12.2,35.6-29.6c0-14.5-8.7-21.4-17.3-24.7c8.7-4.8,14.8-11.6,14.8-23.5c0-16.7-14.4-28.8-33.1-28.8H158.4z"/>
	</g>
	<path class="st0" d="M670.5,0c-80.7,0-146,65.4-146,146s65.4,146,146,146s146-65.4,146-146S751.2,0,670.5,0z"/>
	<circle cx="670.5" cy="146" r="138.3"/>
	<path class="st0" d="M601.2,226.7h138.4V65.3H601.2V226.7z M643.5,88.4h53.8c6.4,0,11.5,5.2,11.5,11.5s-5.2,11.5-11.5,11.5h-53.8
		c-6.4,0-11.5-5.2-11.5-11.5C632,93.5,637.2,88.4,643.5,88.4z"/>
</g>
</svg>
