<?xml version="1.0" encoding="utf-8"?>
<!-- Generator: Adobe Illustrator 26.0.2, SVG Export Plug-In . SVG Version: 6.00 Build 0)  -->
<svg version="1.1" id="Calque_1" xmlns="http://www.w3.org/2000/svg" xmlns:xlink="http://www.w3.org/1999/xlink" x="0px" y="0px"
	 viewBox="0 0 1215.1 292" style="enable-background:new 0 0 1215.1 292;" xml:space="preserve">
<style type="text/css">
	.st0{fill:#FFFFFF;}
</style>
<g>
	<g>
		<path d="M146.1,0C65.4,0,0.1,65.4,0.1,146s65.4,146,146,146h922.8c80.6,0,146-65.4,146-146s-65.4-146-146-146H146.1z"/>
		<path class="st0" d="M785.1,102.6h32c13.4,0,23.5,6.5,23.5,22.2c0,17.7-11.8,22.2-22.1,22.1l-33.4-0.3V102.6z M838,198.7h15.5
			l-38-41.4h6.6c13.5,0,30.9-11.6,30.9-32.5c0-21.5-16.9-32.7-35.9-32.7h-44.3v106.6h12.3v-41.5h15L838,198.7z M691.5,102.6h58.2
			V92.1h-70.6v106.6h70.6v-10.5h-58.2v-37.8h49V140h-49V102.6z M659.2,92.1h-84.1v10.5h35.9v96.2h12.3v-96.2h35.9L659.2,92.1
			L659.2,92.1z M498,102.6h58.2V92.1h-70.6v106.6h70.6v-10.5h-58.2v-37.8h49V140h-49L498,102.6L498,102.6z M456.5,92.1H444v48.1
			h-60.1V92.1h-12.3v106.6h12.3v-48.1H444v48.1h12.3L456.5,92.1L456.5,92.1z M249.8,145.4c0,32,20.9,55.2,50.5,55.2
			c24.5,0,42.7-15.8,45.6-39.1h-12.3c-2.3,16.4-13.8,28.6-33.3,28.6c-24.3,0-38.2-19.2-38.2-44.7c0-25.6,13.9-44.7,38.2-44.7
			c19.5,0,30.9,12.2,33.3,28.6h12.3c-2.9-23.2-21.1-39.1-45.6-39.1C270.8,90.2,249.8,113.5,249.8,145.4 M206.8,159.7h-44.6
			l22.2-54.8L206.8,159.7z M210.1,169.8l11.8,28.9h13.4L191.6,92.1h-14.2l-43.7,106.6h13.4l11.8-28.9L210.1,169.8L210.1,169.8z"/>
	</g>
	<path d="M1069.2,0c-80.7,0-146,65.4-146,146s65.4,146,146,146s146-65.4,146-146S1149.8,0,1069.2,0z"/>
	<circle class="st0" cx="1069.1" cy="146" r="138.3"/>
	<path d="M999.9,226.7h138.4V65.3H999.9V226.7z M1042.2,88.4h53.8c6.4,0,11.5,5.2,11.5,11.5s-5.2,11.5-11.5,11.5h-53.8
		c-6.4,0-11.5-5.2-11.5-11.5C1030.8,93.5,1035.8,88.4,1042.2,88.4z"/>
</g>
</svg>
