<?xml version="1.0" encoding="utf-8"?>
<!-- Generator: Adobe Illustrator 25.0.0, SVG Export Plug-In . SVG Version: 6.00 Build 0)  -->
<svg version="1.1" id="Calque_1" xmlns="http://www.w3.org/2000/svg" xmlns:xlink="http://www.w3.org/1999/xlink" x="0px" y="0px"
	 viewBox="0 0 402.99 156.74" style="enable-background:new 0 0 402.99 156.74;" xml:space="preserve">
<style type="text/css">
	.st0{enable-background:new    ;}
</style>
<g class="st0">
	<path d="M118.2,76.13l-40.14,40H67.05l35.68-35.54H0v-8.92l102.58-0.14l-35.54-35.4h11.01L118.2,76.13z"/>
</g>
<rect id="Rectangle-2" x="181.14" y="34.83" width="217.51" height="43.54"/>
<path d="M368.16,156.74H211.42c-19.21,0-34.83-15.63-34.83-34.83V34.83C176.59,15.62,192.21,0,211.42,0h156.74
	c19.21,0,34.83,15.63,34.83,34.83v87.08C403,141.12,387.37,156.74,368.16,156.74z M211.42,8.71c-14.41,0-26.12,11.72-26.12,26.12
	v87.08c0,14.41,11.72,26.12,26.12,26.12h156.74c14.41,0,26.12-11.72,26.12-26.12V34.83c0-14.41-11.72-26.12-26.12-26.12L211.42,8.71
	L211.42,8.71z"/>
</svg>
