<?xml version="1.0" encoding="utf-8"?>
<!-- Generator: Adobe Illustrator 26.2.1, SVG Export Plug-In . SVG Version: 6.00 Build 0)  -->
<svg version="1.1" id="Calque_1" xmlns="http://www.w3.org/2000/svg" xmlns:xlink="http://www.w3.org/1999/xlink" x="0px" y="0px"
	 viewBox="0 0 500 500" style="enable-background:new 0 0 500 500;" xml:space="preserve">
<style type="text/css">
	.st0{fill:#FFFFFF;}
</style>
<g>
	<g>
		<g>
			<path class="st0" d="M250,0C111.9,0,0,111.9,0,250s111.9,250,250,250s250-111.9,250-250S388.1,0,250,0z M250,477.8
				c-125.8,0-227.8-102-227.8-227.8S124.2,22.2,250,22.2s227.8,102,227.8,227.8S375.8,477.8,250,477.8z"/>
		</g>
	</g>
	<path id="XMLID_2081_" class="st0" d="M207.7,402.8h61.6V248.7h42.9l4.6-51.6h-47.5c0,0,0-19.3,0-29.4c0-12.2,2.4-17,14.2-17
		c9.5,0,33.3,0,33.3,0V97.2c0,0-35.1,0-42.6,0c-45.8,0-66.5,20.2-66.5,58.8c0,33.6,0,41.1,0,41.1h-32v52.3h32L207.7,402.8
		L207.7,402.8z"/>
</g>
</svg>
