<?xml version="1.0" encoding="utf-8"?>
<!-- Generator: Adobe Illustrator 26.0.2, SVG Export Plug-In . SVG Version: 6.00 Build 0)  -->
<svg version="1.1" id="Calque_1" xmlns="http://www.w3.org/2000/svg" xmlns:xlink="http://www.w3.org/1999/xlink" x="0px" y="0px"
	 viewBox="0 0 1250 1250" style="enable-background:new 0 0 1250 1250;" xml:space="preserve">
<style type="text/css">
	.st0{fill:#EDEDED;}
	.st1{clip-path:url(#SVGID_00000172422150215116158690000017438649106988234683_);fill:#010000;}
	.st2{clip-path:url(#SVGID_00000155104317414958533330000007493132091554320568_);fill:none;stroke:#000000;stroke-width:1.148;}
	.st3{clip-path:url(#SVGID_00000101072152217477033380000010946289002392738696_);}
</style>
<g>
	<rect class="st0" width="1250" height="1250"/>
	<g>
		<g>
			<defs>
				<rect id="SVGID_1_" width="1250" height="1250"/>
			</defs>
			<clipPath id="SVGID_00000117642590881474512980000005660232976664052880_">
				<use xlink:href="#SVGID_1_"  style="overflow:visible;"/>
			</clipPath>
			<path style="clip-path:url(#SVGID_00000117642590881474512980000005660232976664052880_);fill:#010000;" d="M762.26,284.41
				c0,52.08,38.09,83.51,83.51,83.51c45.41,0,83.5-31.43,83.5-83.51s-38.09-83.5-83.5-83.5
				C800.35,200.9,762.26,232.33,762.26,284.41 M780.51,1080.28h130.54V446.91H780.51V1080.28z M345.62,1080.28h127.87V553.47h175.83
				V446.91H473.49v-57.28c0-58.61,27.67-107.89,98.56-107.89l106.56,18.65v-125.2H565.39c-146.52,0-219.78,97.23-219.78,221.11
				v50.62h-97.24v106.56h97.24L345.62,1080.28z"/>
		</g>
		<g>
			<defs>
				<rect id="SVGID_00000003785198824987465480000003252996392876217237_" width="1250" height="1250"/>
			</defs>
			<clipPath id="SVGID_00000047058964851765279250000006505953152903307954_">
				<use xlink:href="#SVGID_00000003785198824987465480000003252996392876217237_"  style="overflow:visible;"/>
			</clipPath>
			
				<line style="clip-path:url(#SVGID_00000047058964851765279250000006505953152903307954_);fill:none;stroke:#000000;stroke-width:1.148;" x1="0" y1="1079.71" x2="1250" y2="1079.71"/>
		</g>
		<g>
			<defs>
				<rect id="SVGID_00000150066034451079151470000014337106090599723935_" width="1250" height="1250"/>
			</defs>
			<clipPath id="SVGID_00000134952969892072253610000003121643972172033462_">
				<use xlink:href="#SVGID_00000150066034451079151470000014337106090599723935_"  style="overflow:visible;"/>
			</clipPath>
			<path style="clip-path:url(#SVGID_00000134952969892072253610000003121643972172033462_);" d="M131.44,91.02h4.85V70h18.95v-4.11
				h-18.95V51.45h21.48v-4.11h-26.33V91.02z M97.87,91.02h4.85V70h18.95v-4.11h-18.95V51.45h21.48v-4.11H97.87V91.02z M53.9,69.46
				v-0.6c0-12.51,6.69-18.16,14.89-18.16s14.89,5.65,14.89,18.19v0.55c0,12.53-6.69,18.18-14.89,18.18S53.9,81.97,53.9,69.46
				 M68.78,91.73c11.75,0,19.74-8.26,19.74-22.29V68.9c0-14.04-7.99-22.3-19.74-22.3s-19.74,8.26-19.74,22.27v0.6
				C49.04,83.47,57.04,91.73,68.78,91.73"/>
		</g>
	</g>
</g>
</svg>
