<?xml version="1.0" encoding="utf-8"?>
<!-- Generator: Adobe Illustrator 26.0.2, SVG Export Plug-In . SVG Version: 6.00 Build 0)  -->
<svg version="1.1" id="Calque_1" xmlns="http://www.w3.org/2000/svg" xmlns:xlink="http://www.w3.org/1999/xlink" x="0px" y="0px"
	 viewBox="0 0 1250 1250" style="enable-background:new 0 0 1250 1250;" xml:space="preserve">
<style type="text/css">
	.st0{fill:#EDEDED;}
	.st1{clip-path:url(#SVGID_00000067232305577443635570000004402859253655486338_);}
	.st2{clip-path:url(#SVGID_00000126307550745385760750000003062065382997390505_);}
	.st3{clip-path:url(#SVGID_00000023261508648179316650000007671062709738520969_);fill:none;stroke:#000000;stroke-width:1.148;}
	.st4{clip-path:url(#SVGID_00000024683068273803949580000003439903460144416904_);fill:none;stroke:#000000;stroke-width:1.148;}
	.st5{fill:none;stroke:#000000;stroke-width:1.148;}
	.st6{clip-path:url(#SVGID_00000028295441566668728570000018019404749749141685_);}
</style>
<g>
	<rect class="st0" width="1250" height="1250"/>
	<g>
		<g>
			<defs>
				<rect id="SVGID_1_" width="1250" height="1250"/>
			</defs>
			<clipPath id="SVGID_00000142877307111410255070000000208094898347490711_">
				<use xlink:href="#SVGID_1_"  style="overflow:visible;"/>
			</clipPath>
			<path style="clip-path:url(#SVGID_00000142877307111410255070000000208094898347490711_);" d="M995.76,1068.83h51.77
				l118.32-317.72v-41.2H931.32v53.88l72.89-9.51h107.75L995.76,1068.83z M717.87,954.75c0.21-59.81,37.07-79.24,72.36-79.24
				c34.86,0,69.2,19.54,69.2,76.06v1.06c0,58.63-34.33,78.17-72.36,78.17C748.1,1030.8,718.06,1010.33,717.87,954.75L717.87,954.75z
				 M788.65,1075.17c65.5,0,123.6-47.01,123.6-122.54v-1.06c0-73.42-48.6-120.43-115.68-120.43c-33.28,0-58.63,11.62-76.06,34.86
				v-0.53c0-47.89,38.92-111.19,99.3-111.19l61.27,7.4v-51.76H821.4c-83.99,0-157.41,80.55-157.41,215.24v1.06
				C663.99,1031.86,724.21,1075.17,788.65,1075.17L788.65,1075.17z M484.46,1075.17c81.34,0,131-54.41,131-131.52v-1.06
				c0-75.54-52.82-125.19-116.21-125.19c-27.47,0-59.69,9.51-77.65,33.81l6.87-36.98l6.87-59.95h152.12v-50.71l-45.43,6.34H392.55
				l-22.71,190.95h57.05c12.68-26.94,36.45-36.45,62.33-36.45c46.48,0,73.42,30.11,73.42,78.17v1.06
				c0,58.63-30.11,87.16-78.17,87.16c-35.39,0-65.5-15.32-68.14-54.93H363.5C374.06,1044.53,423.71,1075.17,484.46,1075.17
				L484.46,1075.17z M88.73,939.15l116.74-185.93v185.93H88.73z M205.46,1068.83h52.82v-85.31h60.22v-44.37h-60.22V709.91h-76.06
				L34.32,945.49v38.03h171.14L205.46,1068.83L205.46,1068.83z"/>
		</g>
		<g>
			<defs>
				<rect id="SVGID_00000159445995494334963180000016632206332935543443_" width="1250" height="1250"/>
			</defs>
			<clipPath id="SVGID_00000097477892245979695930000006007107534526708414_">
				<use xlink:href="#SVGID_00000159445995494334963180000016632206332935543443_"  style="overflow:visible;"/>
			</clipPath>
			<path style="clip-path:url(#SVGID_00000097477892245979695930000006007107534526708414_);" d="M975.19,597.48
				c74.43,0,120.4-43.81,120.4-106.7v-1.06c0-54.93-40.18-80.77-85.43-87.66c43.3-6.55,80.15-30.35,80.15-80.3v-2.64
				c0-55.78-42.71-93.49-113.7-93.49c-65.36,0-120.32,31.78-126.1,107.75h52.82c1.56-44.3,34.33-63.38,71.21-63.38
				c39.77,0,62.96,22.41,62.96,52.29v2.11c0,36.1-32.22,55.46-80.29,55.46v44.37c51.24,0,85.57,16.37,85.57,62.85v1.06
				c0,48.07-32.41,64.97-70.45,64.97c-34.13,0-67-13.6-68.99-64.97h-52.82C855.27,556.84,904.38,597.49,975.19,597.48L975.19,597.48
				z M574.46,545.72v45.43h235.58v-44.37H632.56c71.84-44.9,172.72-116.21,172.72-210.23v-1.06c0-67.61-48.07-109.87-117.26-109.87
				c-55.46,0-122.02,26.41-124.13,114.09h52.82c2.64-42.26,22.71-69.72,69.2-69.72c45.43,0,66.55,26.94,66.55,65.5v1.06
				C752.47,414.19,665.31,481.8,574.46,545.72L574.46,545.72z M343.21,591.14h190.16v-44.37H464.7V232.22h-55.46l-67.08,36.45v67.08
				l69.72-45.95v256.98h-68.67L343.21,591.14L343.21,591.14z M103.52,413.67v-4.23c0-100.89,29.05-139.45,71.31-139.45
				c41.2,0,68.67,38.56,68.67,139.45v4.23c0,100.89-27.47,139.45-68.67,139.45C132.57,553.11,103.52,514.55,103.52,413.67
				 M174.82,597.48c81.34,0,121.49-74.48,121.49-183.82v-4.23c0-109.34-40.15-183.82-121.49-183.82
				c-82.93,0-124.13,74.48-124.13,183.82v4.23C50.69,523,91.9,597.48,174.82,597.48"/>
		</g>
		<g>
			<defs>
				<rect id="SVGID_00000065059407404736880730000008351106238223579036_" width="1250" height="1250"/>
			</defs>
			<clipPath id="SVGID_00000044158030376681892980000016409081422524541367_">
				<use xlink:href="#SVGID_00000065059407404736880730000008351106238223579036_"  style="overflow:visible;"/>
			</clipPath>
			
				<line style="clip-path:url(#SVGID_00000044158030376681892980000016409081422524541367_);fill:none;stroke:#000000;stroke-width:1.148;" x1="0" y1="590.85" x2="1250" y2="590.85"/>
		</g>
		<g>
			<defs>
				<rect id="SVGID_00000138560436388951153590000010487082595279434147_" width="1250" height="1250"/>
			</defs>
			<clipPath id="SVGID_00000093144175180388661610000014230064848325407377_">
				<use xlink:href="#SVGID_00000138560436388951153590000010487082595279434147_"  style="overflow:visible;"/>
			</clipPath>
			
				<line style="clip-path:url(#SVGID_00000093144175180388661610000014230064848325407377_);fill:none;stroke:#000000;stroke-width:1.148;" x1="0" y1="1069.46" x2="1223.96" y2="1069.46"/>
		</g>
	</g>
	<line class="st5" x1="331.93" y1="709.93" x2="331.93" y2="1070.03"/>
	<line class="st5" x1="926.94" y1="709.93" x2="926.94" y2="1070.03"/>
	<line class="st5" x1="633.6" y1="709.93" x2="633.6" y2="1070.03"/>
	<g>
		<g>
			<defs>
				<rect id="SVGID_00000138550180404065811360000014165627011015857539_" width="1250" height="1250"/>
			</defs>
			<clipPath id="SVGID_00000029744311990945345110000004782079090945938339_">
				<use xlink:href="#SVGID_00000138550180404065811360000014165627011015857539_"  style="overflow:visible;"/>
			</clipPath>
			<path style="clip-path:url(#SVGID_00000029744311990945345110000004782079090945938339_);" d="M731.93,91.03h5.18v-4.2
				l-4.72,0.32c-2.13,0-2.65-1.14-2.65-3.96V64.33h8.02v-3.88h-9.78c2.51-1.32,3.85-4.18,3.85-8.04h-4.72c0,3.77-0.7,6.72-3.38,8.04
				h-4.85v3.88h6.14v18.21C725.02,89.55,727.56,91.03,731.93,91.03 M698.74,91.73c4.53,0,8.01-2.2,9.51-6.08v5.37h4.72V60.45h-4.72
				V77.6c0,6.42-3.41,9.83-8.38,9.83c-3.61,0-6.86-1.55-6.86-7.35V60.45h-4.53v20.09C688.48,88.52,693.31,91.73,698.74,91.73
				L698.74,91.73z M659.43,82.88v-0.17c0-3.26,2.72-5.27,7.19-5.71l8.51-0.83v3.27c0,5.66-4.45,8.53-9.16,8.53
				C661.97,87.98,659.43,85.88,659.43,82.88L659.43,82.88z M665.4,91.73c3.8,0,8.16-1.54,9.79-5.54v4.83h4.46V70.5
				c0-7.75-5.42-10.79-11.54-10.79c-6.3,0-11.35,3.23-12.03,10.04h4.74c0.25-4.08,2.84-6.29,7.23-6.29c4.86,0,6.91,2.7,6.91,6.61
				v2.64l-9,0.91c-6.99,0.71-11.06,3.62-11.06,9.09v0.17C654.91,88.2,659.64,91.73,665.4,91.73L665.4,91.73z M637.7,91.02h4.62
				V64.33h8.55v-3.88h-8.55v-3.62c0-3.28,1.54-5.61,4.95-5.61l5.09,0.79v-4.67h-5.21c-6.4,0-9.46,4.41-9.46,9.82v3.3h-4.97v3.88
				h4.97L637.7,91.02z M612.91,56.65h4.42l7.09-8.98h-5.21L612.91,56.65z M606.1,73.02c0.76-6.48,4.34-9.52,9.18-9.52
				c5.47,0,9.07,3.97,8.98,9.52H606.1z M615.44,91.73c6.46,0,12.25-3.55,13.36-10.06h-4.71c-0.71,4.19-3.8,6.34-8.39,6.34
				c-6.23,0-9.57-3.72-9.74-11.25h22.96c0.45-11.08-5.27-17.04-13.51-17.04c-8.75,0-14.07,6.61-14.07,16v0.43
				C601.34,85.87,607.04,91.73,615.44,91.73L615.44,91.73z M570.45,75.89V75.5c0-8.14,3.85-11.94,9.15-11.94
				c4.79,0,9.37,3.19,9.37,11.86v0.6c0,8.78-4.62,11.86-9.38,11.86C574.28,87.89,570.45,84.01,570.45,75.89 M579.13,91.7
				c4.25,0,8.18-2.01,9.71-5.53v4.85h4.72V47.33h-4.72V65.2c-1.5-3.46-5.38-5.46-9.69-5.46c-7.54,0-13.43,5.85-13.43,15.77v0.39
				C565.72,85.78,571.62,91.7,579.13,91.7z M534.67,91.02h4.53V74.9c0-4.95,2.26-9.82,6.6-9.82l4,0.6v-5.23h-3.59
				c-3.04,0-6.04,1.73-6.98,5.6v-5.6h-4.56V91.02z M505.31,82.88v-0.17c0-3.26,2.72-5.27,7.19-5.71l8.51-0.83v3.27
				c0,5.66-4.45,8.53-9.16,8.53C507.85,87.98,505.31,85.88,505.31,82.88L505.31,82.88z M511.28,91.73c3.8,0,8.16-1.54,9.79-5.54
				v4.83h4.46V70.5c0-7.75-5.42-10.79-11.54-10.79c-6.3,0-11.35,3.23-12.03,10.04h4.74c0.25-4.08,2.85-6.29,7.23-6.29
				c4.85,0,6.91,2.7,6.91,6.61v2.64l-9,0.91c-6.99,0.71-11.06,3.62-11.06,9.09v0.17C500.79,88.2,505.52,91.73,511.28,91.73
				L511.28,91.73z M471.39,75.97v-0.49c0-8.68,4.82-11.88,9.41-11.88c5.19,0,9.24,3.79,9.24,11.96v0.28
				c0,8.15-3.95,12.01-9.24,12.01C476.21,87.85,471.39,84.75,471.39,75.97z M466.89,104.11h4.72V86.04c1.55,3.61,5.58,5.66,10,5.66
				c7.53,0,13.14-5.89,13.14-15.86v-0.28c0-9.99-6.08-15.81-13.33-15.81c-4.77,0-8.47,2.52-9.81,6.22v-5.51h-4.72L466.89,104.11
				L466.89,104.11z M424.27,73.02c0.76-6.48,4.34-9.52,9.17-9.52c5.47,0,9.07,3.97,8.98,9.52H424.27z M433.6,91.73
				c6.46,0,12.25-3.55,13.36-10.06h-4.71c-0.71,4.19-3.8,6.34-8.39,6.34c-6.23,0-9.57-3.72-9.74-11.25h22.96
				c0.45-11.08-5.27-17.04-13.51-17.04c-8.75,0-14.07,6.61-14.07,16v0.43C419.5,85.87,425.21,91.73,433.6,91.73L433.6,91.73z
				 M400.27,91.02h4.53V74.9c0-4.95,2.26-9.82,6.6-9.82l4,0.6v-5.23h-3.59c-3.05,0-6.04,1.73-6.98,5.6v-5.6h-4.56V91.02z
				 M368.16,60.45v-3.62c0-3.63,1.57-5.61,5.02-5.61h9.11c-1.06,1.65-1.58,3.71-1.58,5.94v3.3L368.16,60.45L368.16,60.45z
				 M363.37,91.02h4.79V64.33h12.54v26.69h4.63V64.33h8.55v-3.88h-8.55v-3.62c0-3.28,1.59-5.61,4.95-5.61l5.14,0.79v-4.67h-22.54
				c-6.67,0-9.51,4.41-9.51,9.82v3.3h-3.9v3.88h3.9L363.37,91.02L363.37,91.02z M347.77,53.01c0,1.95,1.43,3.16,3.16,3.16
				s3.17-1.22,3.17-3.16s-1.43-3.16-3.17-3.16C349.2,49.84,347.77,51.06,347.77,53.01 M348.57,91.02h4.72V60.45h-4.72V91.02z
				 M314.74,91.02h4.72V73.85c0-6.61,3.74-9.83,8.45-9.83c4.11,0,6.86,2.02,6.86,7.35v19.66h4.72V70.91
				c0-7.84-4.92-11.19-10.47-11.19c-4.23,0-7.99,2.02-9.56,6.18V47.33h-4.72V91.02z M294.21,91.73c7.21,0,12.4-3.97,12.94-10.45
				h-4.71c-0.72,4.44-3.62,6.63-8.27,6.63c-5.6,0-9.28-3.41-9.28-12v-0.26c0-8.68,3.67-12.11,9.28-12.11c4.63,0,7.55,2.17,8.28,6.63
				h4.72c-0.56-6.48-5.71-10.45-12.93-10.45c-8.55,0-14.06,5.69-14.06,15.93v0.26C280.16,86.04,285.68,91.73,294.21,91.73
				L294.21,91.73z M239.28,73.02c0.76-6.48,4.34-9.52,9.18-9.52c5.47,0,9.07,3.97,8.98,9.52H239.28z M248.61,91.73
				c6.46,0,12.25-3.55,13.36-10.06h-4.71c-0.71,4.19-3.8,6.34-8.39,6.34c-6.23,0-9.57-3.72-9.74-11.25h22.96
				c0.45-11.08-5.27-17.04-13.51-17.04c-8.75,0-14.07,6.61-14.07,16v0.43C234.51,85.87,240.21,91.73,248.61,91.73L248.61,91.73z
				 M203.62,75.89V75.5c0-8.14,3.85-11.94,9.15-11.94c4.79,0,9.37,3.19,9.37,11.86v0.6c0,8.78-4.62,11.86-9.38,11.86
				C207.45,87.89,203.62,84.01,203.62,75.89 M212.31,91.7c4.24,0,8.18-2.01,9.71-5.53v4.85h4.72V47.33h-4.72V65.2
				c-1.5-3.46-5.38-5.46-9.68-5.46c-7.54,0-13.43,5.85-13.43,15.77v0.39C198.9,85.78,204.79,91.7,212.31,91.7z M158.01,73.02
				c0.76-6.48,4.34-9.52,9.18-9.52c5.47,0,9.07,3.97,8.98,9.52H158.01z M167.34,91.73c6.46,0,12.25-3.55,13.36-10.06h-4.71
				c-0.71,4.19-3.8,6.34-8.39,6.34c-6.23,0-9.57-3.72-9.74-11.25h22.96c0.45-11.08-5.27-17.04-13.51-17.04
				c-8.75,0-14.07,6.61-14.07,16v0.43C153.24,85.87,158.95,91.73,167.34,91.73L167.34,91.73z M140.75,91.02h4.72V47.33h-4.72V91.02z
				 M112.61,104.11h4.83l17.17-43.66h-5.13l-8.38,23.31l-9.06-23.31h-5.32l11.87,28.63L112.61,104.11z M96.3,91.03h5.18v-4.2
				l-4.71,0.32c-2.13,0-2.65-1.14-2.65-3.96V64.33h8.02v-3.88h-9.78c2.51-1.32,3.85-4.18,3.85-8.04h-4.72c0,3.77-0.7,6.72-3.38,8.04
				h-4.86v3.88h6.14v18.21C89.39,89.55,91.92,91.03,96.3,91.03 M63.77,91.73c9.96,0,14.59-5.12,14.59-12.22v-0.32
				c0-17.97-24.6-7.25-24.6-20.72v-0.24c0-4.48,2.43-7.52,8.97-7.52c8.07,0,9.63,4.59,9.98,10.14h4.85
				c-0.23-8.39-4.34-14.25-14.63-14.25c-9.76,0-14.02,5.42-14.02,12.19v0.28c0,17.26,24.6,7.31,24.6,20.61V80
				c0,4.89-2.93,7.46-9.79,7.46c-6.07,0-10.28-2.13-10.8-9.98h-4.85C48.75,86.33,53.49,91.73,63.77,91.73L63.77,91.73z"/>
		</g>
	</g>
	<line class="st5" x1="315.39" y1="231.57" x2="315.39" y2="591.42"/>
	<line class="st5" x1="546.5" y1="231.57" x2="546.5" y2="591.42"/>
	<line class="st5" x1="826.69" y1="231.57" x2="826.69" y2="591.42"/>
</g>
</svg>
