<?xml version="1.0" encoding="utf-8"?>
<!-- Generator: Adobe Illustrator 26.0.2, SVG Export Plug-In . SVG Version: 6.00 Build 0)  -->
<svg version="1.1" id="Calque_1" xmlns="http://www.w3.org/2000/svg" xmlns:xlink="http://www.w3.org/1999/xlink" x="0px" y="0px"
	 viewBox="0 0 1250 1250" style="enable-background:new 0 0 1250 1250;" xml:space="preserve">
<style type="text/css">
	.st0{fill:#EDEDED;}
	.st1{clip-path:url(#SVGID_00000175313946515536265500000007873999648432122240_);}
	.st2{clip-path:url(#SVGID_00000175313946515536265500000007873999648432122240_);fill:none;stroke:#000000;stroke-width:1.148;}
	.st3{fill:none;stroke:#000000;stroke-width:1.148;}
	.st4{clip-path:url(#SVGID_00000159441978773054489580000016505848528805461435_);}
</style>
<g>
	<rect class="st0" width="1250" height="1250"/>
	<g>
		<defs>
			<rect id="SVGID_1_" width="1250" height="1250"/>
		</defs>
		<clipPath id="SVGID_00000168805571585995690380000015542378056293699505_">
			<use xlink:href="#SVGID_1_"  style="overflow:visible;"/>
		</clipPath>
		<path style="clip-path:url(#SVGID_00000168805571585995690380000015542378056293699505_);" d="M1019.26,1177.11h51.76
			l118.32-317.72v-41.2H954.82v53.88l72.89-9.51h107.76L1019.26,1177.11z M715.33,954.75c0.21-59.81,37.07-79.24,72.36-79.24
			c34.86,0,69.2,19.54,69.2,76.06v1.06c0,58.63-34.33,78.18-72.37,78.18C745.56,1030.8,715.52,1010.33,715.33,954.75L715.33,954.75z
			 M786.11,1075.17c65.5,0,123.6-47.01,123.6-122.54v-1.06c0-73.42-48.6-120.43-115.68-120.43c-33.28,0-58.63,11.62-76.06,34.86
			v-0.53c0-47.89,38.92-111.19,99.3-111.19l61.27,7.4v-51.77h-59.69c-83.99,0-157.41,80.55-157.41,215.24v1.06
			C661.45,1031.86,721.67,1075.17,786.11,1075.17L786.11,1075.17z M487.26,1182.92c81.35,0,131-54.41,131-131.53v-1.06
			c0-75.54-52.82-125.19-116.21-125.19c-27.47,0-59.69,9.51-77.65,33.81l6.87-36.98l6.87-59.95h152.12v-50.71l-45.43,6.34H395.35
			l-22.71,190.95h57.05c12.68-26.94,36.45-36.45,62.33-36.45c46.48,0,73.42,30.11,73.42,78.17v1.06c0,58.63-30.11,87.15-78.18,87.15
			c-35.39,0-65.5-15.32-68.14-54.93H366.3C376.86,1152.28,426.51,1182.92,487.26,1182.92L487.26,1182.92z M97.18,1024.46
			l116.74-171.4v171.4H97.18z M213.91,1176.59h52.82v-107.76h60.22v-44.37h-60.22V817.67h-78.7L42.77,1030.8v38.03h171.14V1176.59z"
			/>
		<path style="clip-path:url(#SVGID_00000168805571585995690380000015542378056293699505_);" d="M1044.28,705.24
			c74.42,0,120.4-43.81,120.4-106.7v-1.06c0-54.93-40.18-80.77-85.43-87.66c43.3-6.55,80.15-30.35,80.15-80.3v-2.64
			c0-55.78-42.71-93.49-113.7-93.49c-65.36,0-120.32,31.78-126.1,107.75h52.82c1.56-44.3,34.33-63.38,71.21-63.38
			c39.77,0,62.95,22.41,62.95,52.29v2.11c0,36.11-32.22,55.46-80.29,55.46v44.37c51.24,0,85.57,16.37,85.57,62.85v1.06
			c0,48.07-32.41,64.97-70.45,64.97c-34.13,0-67-13.6-68.99-64.97H919.6C924.36,664.59,973.47,705.24,1044.28,705.24L1044.28,705.24
			z M746.07,333.38c-43.46,0-118.63,13.73-120.17,103.53h52.82c2.49-42.26,26.42-59.16,66.81-59.16c33.73,0,61.01,11.62,61.01,48.59
			v1.06c0,52.29-87.16,86.1-178.01,113.04v50.71h235.58v-44.37H718.34C790.18,523,859.37,491.84,859.37,427.4v-1.06
			C859.37,359.78,806.29,333.37,746.07,333.38L746.07,333.38z M370.1,591.14h190.16v-44.37h-68.67v-206.8h-55.46l-67.08,36.45v61.8
			l69.72-40.67v149.22H370.1V591.14z M112.42,465.96v-1.06c0-59.16,17.76-87.16,65.57-87.16c47.8,0,65.57,27.99,65.57,87.16v1.06
			c0,59.16-17.76,87.16-65.57,87.16C130.19,553.11,112.42,525.12,112.42,465.96 M177.99,597.48c81.33,0,118.32-51.24,118.32-131.53
			v-1.06c0-80.29-36.99-131.52-118.32-131.52c-81.33,0-118.32,51.24-118.32,131.52v1.06C59.68,546.25,96.66,597.48,177.99,597.48"/>
		
			<line style="clip-path:url(#SVGID_00000168805571585995690380000015542378056293699505_);fill:none;stroke:#000000;stroke-width:1.148;" x1="0" y1="590.85" x2="1250" y2="590.85"/>
		
			<line style="clip-path:url(#SVGID_00000168805571585995690380000015542378056293699505_);fill:none;stroke:#000000;stroke-width:1.148;" x1="0" y1="1069.46" x2="1250" y2="1069.46"/>
	</g>
	<line class="st3" x1="334.14" y1="709.93" x2="334.14" y2="1070.03"/>
	<g>
		<defs>
			<rect id="SVGID_00000020378873560205294590000004878913883222391962_" width="1250" height="1250"/>
		</defs>
		<clipPath id="SVGID_00000086657024057021775500000003730186682426197943_">
			<use xlink:href="#SVGID_00000020378873560205294590000004878913883222391962_"  style="overflow:visible;"/>
		</clipPath>
		<path style="clip-path:url(#SVGID_00000086657024057021775500000003730186682426197943_);" d="M818.52,91.73
			c6.76,0,11.52-2.84,11.52-8.71v-0.29c0-12.03-18.94-6.27-18.94-14.2v-0.29c0-2.92,2.24-4.82,6.51-4.82c4.3,0,7.16,2.17,7.54,5.76
			h4.43c-0.37-6.54-5.16-9.45-11.82-9.45c-7.58,0-11.09,3.83-11.09,8.61v0.29c0,11.71,18.94,5.98,18.94,14.15v0.29
			c0,3.3-2.73,4.98-6.88,4.98c-5.11,0-7.86-2.43-8.16-6.52h-4.43C806.49,87.51,810.47,91.73,818.52,91.73L818.52,91.73z
			 M777.51,73.02c0.76-6.48,4.34-9.52,9.18-9.52c5.47,0,9.07,3.97,8.98,9.52H777.51z M786.84,91.73c6.46,0,12.25-3.55,13.36-10.07
			h-4.71c-0.71,4.19-3.8,6.34-8.39,6.34c-6.23,0-9.57-3.72-9.74-11.25h22.96c0.45-11.08-5.27-17.04-13.51-17.04
			c-8.75,0-14.07,6.61-14.07,16v0.43C772.74,85.87,778.44,91.73,786.84,91.73L786.84,91.73z M753.51,91.02h4.53V74.89
			c0-4.95,2.26-9.82,6.6-9.82l4,0.6v-5.23h-3.59c-3.05,0-6.04,1.73-6.98,5.6v-5.6h-4.56L753.51,91.02z M738.68,53.01
			c0,1.95,1.43,3.16,3.16,3.16c1.73,0,3.17-1.22,3.17-3.16c0-1.95-1.43-3.16-3.17-3.16C740.11,49.84,738.68,51.06,738.68,53.01
			 M739.49,91.02h4.72V60.45h-4.72V91.02z M710.19,82.88v-0.17c0-3.26,2.72-5.27,7.19-5.71l8.51-0.83v3.27
			c0,5.66-4.45,8.53-9.16,8.53C712.73,87.98,710.19,85.88,710.19,82.88L710.19,82.88z M716.16,91.73c3.8,0,8.16-1.54,9.79-5.54v4.83
			h4.46V70.5c0-7.75-5.42-10.79-11.54-10.79c-6.3,0-11.35,3.23-12.03,10.04h4.73c0.25-4.08,2.85-6.29,7.23-6.29
			c4.85,0,6.91,2.7,6.91,6.61v2.64l-9,0.91c-6.99,0.71-11.06,3.62-11.06,9.09v0.17C705.67,88.2,710.4,91.73,716.16,91.73
			L716.16,91.73z M693.24,91.02h4.72V47.33h-4.72V91.02z M669.69,91.73c4.53,0,8.01-2.2,9.51-6.08v5.37h4.72V60.45h-4.72V77.6
			c0,6.42-3.41,9.83-8.38,9.83c-3.61,0-6.86-1.55-6.86-7.35V60.45h-4.53v20.09C659.43,88.52,664.26,91.73,669.69,91.73L669.69,91.73
			z M628.54,76.02v-0.6c0-8.64,4.75-11.82,9.46-11.82c5.21,0,9.19,3.79,9.19,11.9v0.39c0,8.1-4.06,11.96-9.2,11.96
			C633.38,87.85,628.54,84.77,628.54,76.02z M638.6,91.7c7.23,0,13.32-5.89,13.32-15.81V75.5c0-9.94-5.65-15.76-13.08-15.76
			c-4.57,0-8.5,2.24-10.07,6.17V47.33h-4.72v43.69h4.72v-5.55C630.13,89.19,633.88,91.7,638.6,91.7L638.6,91.7z M594.69,82.88v-0.17
			c0-3.26,2.72-5.27,7.19-5.71l8.51-0.83v3.27c0,5.66-4.45,8.53-9.16,8.53C597.22,87.98,594.69,85.88,594.69,82.88L594.69,82.88z
			 M600.66,91.73c3.8,0,8.15-1.54,9.79-5.54v4.83h4.46V70.5c0-7.75-5.42-10.79-11.54-10.79c-6.3,0-11.35,3.23-12.03,10.04h4.74
			c0.25-4.08,2.84-6.29,7.23-6.29c4.86,0,6.91,2.7,6.91,6.61v2.64l-9,0.91c-6.99,0.71-11.06,3.62-11.06,9.09v0.17
			C590.16,88.2,594.89,91.73,600.66,91.73L600.66,91.73z M579.41,91.03h5.18v-4.2l-4.71,0.32c-2.13,0-2.65-1.14-2.65-3.96V64.33
			h8.02v-3.88h-9.78c2.51-1.32,3.85-4.18,3.85-8.04h-4.72c0,3.77-0.7,6.72-3.38,8.04h-4.86v3.88h6.14v18.21
			C572.5,89.55,575.04,91.03,579.41,91.03 M539.8,91.73c6.76,0,11.52-2.84,11.52-8.71v-0.29c0-12.03-18.94-6.27-18.94-14.2v-0.29
			c0-2.92,2.24-4.82,6.51-4.82c4.3,0,7.16,2.17,7.53,5.76h4.43c-0.37-6.54-5.16-9.45-11.82-9.45c-7.58,0-11.09,3.83-11.09,8.61v0.29
			c0,11.71,18.94,5.98,18.94,14.15v0.29c0,3.3-2.73,4.98-6.88,4.98c-5.11,0-7.86-2.43-8.16-6.52h-4.43
			C527.77,87.51,531.75,91.73,539.8,91.73L539.8,91.73z M495.59,91.02h4.72V73.96c0-6.68,3.74-9.94,8.45-9.94
			c4.11,0,6.86,2.08,6.86,7.46v19.55h4.72V71.01c0-7.9-4.92-11.3-10.47-11.3c-4.23,0-7.99,1.99-9.56,6.22v-5.48h-4.72V91.02z
			 M464.99,73.02c0.76-6.48,4.34-9.52,9.18-9.52c5.47,0,9.07,3.97,8.98,9.52H464.99z M474.32,91.73c6.46,0,12.25-3.55,13.36-10.07
			h-4.71c-0.71,4.19-3.8,6.34-8.39,6.34c-6.23,0-9.57-3.72-9.74-11.25h22.96c0.45-11.08-5.27-17.04-13.51-17.04
			c-8.75,0-14.07,6.61-14.07,16v0.43C460.22,85.87,465.92,91.73,474.32,91.73L474.32,91.73z M447.13,53.01
			c0,1.95,1.43,3.16,3.17,3.16c1.73,0,3.16-1.22,3.16-3.16c0-1.95-1.43-3.16-3.16-3.16C448.56,49.84,447.13,51.06,447.13,53.01
			 M447.93,91.02h4.72V60.45h-4.72V91.02z M426.8,91.02h4.53V74.89c0-4.95,2.26-9.82,6.6-9.82l4,0.6v-5.23h-3.59
			c-3.04,0-6.04,1.73-6.98,5.6v-5.6h-4.56L426.8,91.02z M411.97,53.01c0,1.95,1.43,3.16,3.17,3.16c1.73,0,3.16-1.22,3.16-3.16
			c0-1.95-1.43-3.16-3.16-3.16C413.4,49.84,411.97,51.06,411.97,53.01 M412.77,91.02h4.72V60.45h-4.72V91.02z M389.08,91.02h7.22
			l10.39-30.57h-5.05l-8.95,27.16l-8.95-27.16h-5.06L389.08,91.02z M359.14,56.65h4.42l7.1-8.98h-5.21L359.14,56.65z M352.33,73.02
			c0.76-6.48,4.34-9.52,9.18-9.52c5.47,0,9.07,3.97,8.98,9.52H352.33z M361.67,91.73c6.46,0,12.25-3.55,13.36-10.07h-4.71
			c-0.71,4.19-3.8,6.34-8.39,6.34c-6.23,0-9.57-3.72-9.74-11.25h22.96c0.45-11.08-5.27-17.04-13.51-17.04
			c-8.75,0-14.07,6.61-14.07,16v0.43C347.57,85.87,353.27,91.73,361.67,91.73L361.67,91.73z M318.52,91.03h24.76v-3.88h-19.19
			l18.66-23.16v-3.54h-23.9v3.88h18.23l-18.55,23.16V91.03z M307.2,91.02h4.72V47.33h-4.72V91.02z M276.66,73.02
			c0.76-6.48,4.34-9.52,9.18-9.52c5.47,0,9.07,3.97,8.98,9.52H276.66z M285.99,91.73c6.46,0,12.25-3.55,13.36-10.07h-4.71
			c-0.71,4.19-3.8,6.34-8.39,6.34c-6.23,0-9.57-3.72-9.74-11.25h22.96c0.45-11.08-5.27-17.04-13.51-17.04
			c-8.75,0-14.07,6.61-14.07,16v0.43C271.89,85.87,277.6,91.73,285.99,91.73L285.99,91.73z M243.01,91.73
			c6.76,0,11.52-2.84,11.52-8.71v-0.29c0-12.03-18.94-6.27-18.94-14.2v-0.29c0-2.92,2.24-4.82,6.51-4.82c4.3,0,7.16,2.17,7.54,5.76
			h4.43c-0.37-6.54-5.16-9.45-11.83-9.45c-7.57,0-11.08,3.83-11.08,8.61v0.29c0,11.71,18.94,5.98,18.94,14.15v0.29
			c0,3.3-2.73,4.98-6.88,4.98c-5.11,0-7.86-2.43-8.16-6.52h-4.43C230.98,87.51,234.97,91.73,243.01,91.73z M202,73.02
			c0.76-6.48,4.34-9.52,9.18-9.52c5.47,0,9.07,3.97,8.98,9.52H202z M211.33,91.73c6.46,0,12.25-3.55,13.36-10.07h-4.71
			c-0.71,4.19-3.8,6.34-8.39,6.34c-6.23,0-9.57-3.72-9.74-11.25h22.96c0.45-11.08-5.27-17.04-13.51-17.04
			c-8.75,0-14.07,6.61-14.07,16v0.43C197.23,85.87,202.94,91.73,211.33,91.73L211.33,91.73z M178,91.02h4.53V74.89
			c0-4.95,2.26-9.82,6.6-9.82l4,0.6v-5.23h-3.59c-3.04,0-6.04,1.73-6.98,5.6v-5.6h-4.56L178,91.02z M145.89,60.45v-3.62
			c0-3.63,1.57-5.61,5.02-5.61h9.1c-1.06,1.65-1.58,3.71-1.58,5.94v3.3H145.89z M141.1,91.02h4.79V64.33h12.54v26.69h4.63V64.33
			h8.55v-3.88h-8.55v-3.62c0-3.28,1.59-5.61,4.95-5.61l5.14,0.79v-4.67h-22.54c-6.67,0-9.51,4.41-9.51,9.82v3.3h-3.9v3.88h3.9
			L141.1,91.02z M125.5,53.01c0,1.95,1.43,3.16,3.17,3.16c1.74,0,3.16-1.22,3.16-3.16c0-1.95-1.43-3.16-3.16-3.16
			C126.93,49.84,125.5,51.06,125.5,53.01 M126.3,91.02h4.72V60.45h-4.72V91.02z M92.47,91.02h4.72V73.85c0-6.61,3.74-9.83,8.45-9.83
			c4.11,0,6.86,2.02,6.86,7.35v19.66h4.72V70.91c0-7.84-4.92-11.19-10.47-11.19c-4.23,0-7.99,2.02-9.56,6.18V47.33h-4.72V91.02z
			 M67.59,91.73c9.79,0,16.13-5.91,16.74-14.68h-4.84c-0.85,6.79-5.36,10.57-11.91,10.57c-8.45,0-13.68-6.29-13.68-18.24v-0.43
			c0-11.95,5.23-18.24,13.68-18.24c6.55,0,11.06,3.79,11.91,10.57h4.84c-0.61-8.78-6.96-14.69-16.74-14.69
			c-11.65,0-18.54,8.25-18.54,22.35v0.43C49.04,83.48,55.94,91.73,67.59,91.73z"/>
	</g>
	<line class="st3" x1="296.65" y1="231.57" x2="296.65" y2="591.42"/>
	<line class="st3" x1="581" y1="231.57" x2="581" y2="591.42"/>
	<line class="st3" x1="880.88" y1="231.57" x2="880.88" y2="591.42"/>
	<line class="st3" x1="627.64" y1="709.93" x2="627.64" y2="1070.03"/>
	<line class="st3" x1="914.57" y1="709.93" x2="914.57" y2="1070.03"/>
</g>
</svg>
