<?xml version="1.0" encoding="utf-8"?>
<!-- Generator: Adobe Illustrator 26.0.2, SVG Export Plug-In . SVG Version: 6.00 Build 0)  -->
<svg version="1.1" id="Calque_1" xmlns="http://www.w3.org/2000/svg" xmlns:xlink="http://www.w3.org/1999/xlink" x="0px" y="0px"
	 viewBox="0 0 1250 1250" style="enable-background:new 0 0 1250 1250;" xml:space="preserve">
<style type="text/css">
	.st0{fill:#EDEDED;}
	.st1{clip-path:url(#SVGID_00000124852608574935602940000009452227590490749585_);}
	.st2{clip-path:url(#SVGID_00000124852608574935602940000009452227590490749585_);fill:none;stroke:#000000;stroke-width:1.148;}
	.st3{fill:none;stroke:#000000;stroke-width:1.148;}
	.st4{clip-path:url(#SVGID_00000098203670336355351560000013873395056088140970_);}
</style>
<g>
	<rect class="st0" width="1250" height="1250"/>
	<g>
		<defs>
			<rect id="SVGID_1_" width="1250" height="1250"/>
		</defs>
		<clipPath id="SVGID_00000034091243390474566650000017479653850983827340_">
			<use xlink:href="#SVGID_1_"  style="overflow:visible;"/>
		</clipPath>
		<path style="clip-path:url(#SVGID_00000034091243390474566650000017479653850983827340_);" d="M1027.03,1068.83h51.77
			l118.32-317.72v-41.2H962.58v53.88l72.89-9.51h107.76L1027.03,1068.83z M729.17,954.75c0.21-59.81,37.07-79.24,72.36-79.24
			c34.86,0,69.2,19.54,69.2,76.06v1.06c0,58.63-34.33,78.18-72.37,78.18C759.4,1030.8,729.36,1010.33,729.17,954.75L729.17,954.75z
			 M799.95,1075.17c65.5,0,123.6-47.01,123.6-122.55v-1.06c0-73.42-48.6-120.43-115.68-120.43c-33.28,0-58.63,11.62-76.06,34.86
			v-0.53c0-47.89,38.92-111.19,99.3-111.19l61.27,7.4v-51.77H832.7c-83.99,0-157.41,80.55-157.41,215.24v1.06
			C675.29,1031.86,735.51,1075.17,799.95,1075.17L799.95,1075.17z M489.1,1075.17c81.35,0,131-54.41,131-131.53v-1.06
			c0-75.54-52.82-125.19-116.21-125.19c-27.47,0-59.69,9.51-77.65,33.8l6.87-36.98l6.87-59.95h152.13v-50.71l-45.43,6.34H397.2
			l-22.71,190.95h57.05c12.68-26.94,36.45-36.45,62.33-36.45c46.48,0,73.42,30.11,73.42,78.17v1.06c0,58.63-30.11,87.16-78.18,87.16
			c-35.39,0-65.5-15.32-68.14-54.93h-52.82C378.71,1044.53,428.36,1075.17,489.1,1075.17L489.1,1075.17z M97.18,939.15
			l116.74-185.93v185.93H97.18z M213.91,1068.83h52.82v-85.31h60.22v-44.37h-60.22V709.91h-76.06L42.77,945.49v38.03h171.14V1068.83
			z"/>
		<path style="clip-path:url(#SVGID_00000034091243390474566650000017479653850983827340_);" d="M1038.99,597.48
			c74.42,0,120.4-43.81,120.4-106.7v-1.06c0-54.93-40.18-80.77-85.43-87.66c43.3-6.55,80.15-30.35,80.15-80.3v-2.64
			c0-55.78-42.71-93.49-113.7-93.49c-65.36,0-120.32,31.78-126.1,107.75h52.82c1.56-44.3,34.33-63.38,71.21-63.38
			c39.77,0,62.95,22.41,62.95,52.29v2.11c0,36.11-32.22,55.46-80.29,55.46v44.37c51.24,0,85.57,16.37,85.57,62.85v1.06
			c0,48.07-32.41,64.97-70.45,64.97c-34.13,0-67-13.6-68.99-64.97h-52.82C919.08,556.84,968.19,597.49,1038.99,597.48
			L1038.99,597.48z M628.02,545.72v45.43H863.6v-44.37H686.12c71.84-44.9,172.73-116.21,172.73-210.23v-1.06
			c0-67.61-48.07-109.87-117.26-109.87c-55.46,0-122.02,26.41-124.13,114.09h52.82c2.64-42.26,22.71-69.72,69.2-69.72
			c45.43,0,66.56,26.94,66.56,65.5v1.06C806.03,414.19,718.87,481.8,628.02,545.72L628.02,545.72z M366.98,591.14h190.16v-44.37
			h-68.67V232.22h-55.46l-67.08,36.45v67.08l69.72-45.95v256.98h-68.67V591.14z M108.01,413.67v-4.23
			c0-100.89,29.05-139.45,71.31-139.45c41.2,0,68.67,38.56,68.67,139.45v4.23c0,100.89-27.47,139.45-68.67,139.45
			C137.06,553.11,108.01,514.55,108.01,413.67 M179.31,597.48c81.34,0,121.49-74.48,121.49-183.82v-4.23
			c0-109.34-40.14-183.82-121.49-183.82c-82.93,0-124.13,74.48-124.13,183.82v4.23C55.18,523,96.38,597.48,179.31,597.48"/>
		
			<line style="clip-path:url(#SVGID_00000034091243390474566650000017479653850983827340_);fill:none;stroke:#000000;stroke-width:1.148;" x1="0" y1="590.85" x2="1250" y2="590.85"/>
		
			<line style="clip-path:url(#SVGID_00000034091243390474566650000017479653850983827340_);fill:none;stroke:#000000;stroke-width:1.148;" x1="0" y1="1069.46" x2="1250" y2="1069.46"/>
	</g>
	<line class="st3" x1="337.29" y1="709.93" x2="337.29" y2="1070.03"/>
	<line class="st3" x1="918.63" y1="709.93" x2="918.63" y2="1070.03"/>
	<line class="st3" x1="636.86" y1="709.93" x2="636.86" y2="1070.03"/>
	<g>
		<defs>
			<rect id="SVGID_00000035489645972716177290000005207396587318737065_" width="1250" height="1250"/>
		</defs>
		<clipPath id="SVGID_00000114754176235463418300000004944127921469527741_">
			<use xlink:href="#SVGID_00000035489645972716177290000005207396587318737065_"  style="overflow:visible;"/>
		</clipPath>
		<path style="clip-path:url(#SVGID_00000114754176235463418300000004944127921469527741_);" d="M725.97,91.73
			c6.76,0,11.52-2.84,11.52-8.71v-0.29c0-12.03-18.94-6.27-18.94-14.2v-0.29c0-2.92,2.24-4.82,6.51-4.82c4.3,0,7.16,2.17,7.53,5.76
			h4.43c-0.37-6.54-5.16-9.45-11.82-9.45c-7.58,0-11.09,3.83-11.09,8.61v0.29c0,11.71,18.94,5.98,18.94,14.15v0.29
			c0,3.3-2.73,4.98-6.88,4.98c-5.11,0-7.86-2.43-8.16-6.52h-4.43C713.94,87.51,717.93,91.73,725.97,91.73L725.97,91.73z
			 M684.96,73.02c0.76-6.48,4.34-9.52,9.17-9.52c5.47,0,9.07,3.97,8.98,9.52H684.96z M694.29,91.73c6.46,0,12.25-3.55,13.36-10.07
			h-4.71c-0.71,4.19-3.8,6.34-8.39,6.34c-6.23,0-9.57-3.72-9.74-11.25h22.96c0.45-11.08-5.27-17.04-13.51-17.04
			c-8.75,0-14.07,6.61-14.07,16v0.43C680.19,85.87,685.9,91.73,694.29,91.73L694.29,91.73z M660.96,91.02h4.53V74.89
			c0-4.95,2.26-9.82,6.6-9.82l4,0.6v-5.23h-3.59c-3.05,0-6.04,1.73-6.98,5.6v-5.6h-4.56L660.96,91.02z M646.14,53.01
			c0,1.95,1.43,3.16,3.16,3.16c1.73,0,3.16-1.22,3.16-3.16c0-1.95-1.43-3.16-3.16-3.16C647.57,49.84,646.14,51.06,646.14,53.01
			 M646.94,91.02h4.72V60.45h-4.72V91.02z M617.65,82.88v-0.17c0-3.26,2.72-5.27,7.19-5.71l8.51-0.83v3.27
			c0,5.66-4.45,8.53-9.16,8.53C620.19,87.98,617.65,85.88,617.65,82.88L617.65,82.88z M623.62,91.73c3.8,0,8.16-1.54,9.79-5.54v4.83
			h4.46V70.5c0-7.75-5.42-10.79-11.54-10.79c-6.3,0-11.35,3.23-12.03,10.04h4.74c0.25-4.08,2.85-6.29,7.23-6.29
			c4.85,0,6.91,2.7,6.91,6.61v2.64l-9,0.91c-6.99,0.71-11.06,3.62-11.06,9.09v0.17C613.13,88.2,617.86,91.73,623.62,91.73
			L623.62,91.73z M600.69,91.02h4.72V47.33h-4.72V91.02z M577.15,91.73c4.53,0,8.01-2.2,9.51-6.08v5.37h4.72V60.45h-4.72V77.6
			c0,6.42-3.41,9.83-8.38,9.83c-3.61,0-6.86-1.55-6.86-7.35V60.45h-4.53v20.09C566.88,88.52,571.72,91.73,577.15,91.73L577.15,91.73
			z M535.99,76.02v-0.6c0-8.64,4.75-11.82,9.46-11.82c5.2,0,9.19,3.79,9.19,11.9v0.39c0,8.1-4.06,11.96-9.2,11.96
			C540.84,87.85,535.99,84.77,535.99,76.02z M546.05,91.7c7.23,0,13.32-5.89,13.32-15.81V75.5c0-9.94-5.65-15.76-13.08-15.76
			c-4.57,0-8.5,2.24-10.07,6.17V47.33h-4.72v43.69h4.72v-5.55C537.59,89.19,541.34,91.7,546.05,91.7L546.05,91.7z M502.14,82.88
			v-0.17c0-3.26,2.72-5.27,7.19-5.71l8.51-0.83v3.27c0,5.66-4.45,8.53-9.16,8.53C504.68,87.98,502.14,85.88,502.14,82.88
			L502.14,82.88z M508.11,91.73c3.8,0,8.16-1.54,9.79-5.54v4.83h4.46V70.5c0-7.75-5.42-10.79-11.54-10.79
			c-6.3,0-11.35,3.23-12.03,10.04h4.74c0.25-4.08,2.84-6.29,7.23-6.29c4.86,0,6.91,2.7,6.91,6.61v2.64l-9,0.91
			c-6.99,0.71-11.06,3.62-11.06,9.09v0.17C497.62,88.2,502.35,91.73,508.11,91.73z M486.87,91.03h5.18v-4.2l-4.72,0.32
			c-2.12,0-2.65-1.14-2.65-3.96V64.33h8.02v-3.88h-9.78c2.51-1.32,3.85-4.18,3.85-8.04h-4.72c0,3.77-0.7,6.72-3.38,8.04h-4.85v3.88
			h6.14v18.21C479.96,89.55,482.49,91.03,486.87,91.03 M447.25,91.73c6.76,0,11.52-2.84,11.52-8.71v-0.29
			c0-12.03-18.94-6.27-18.94-14.2v-0.29c0-2.92,2.24-4.82,6.51-4.82c4.3,0,7.16,2.17,7.54,5.76h4.43
			c-0.37-6.54-5.16-9.45-11.82-9.45c-7.57,0-11.09,3.83-11.09,8.61v0.29c0,11.71,18.94,5.98,18.94,14.15v0.29
			c0,3.3-2.73,4.98-6.88,4.98c-5.11,0-7.86-2.43-8.16-6.52h-4.44C435.22,87.51,439.21,91.73,447.25,91.73L447.25,91.73z
			 M413.05,56.65h4.42l7.1-8.98h-5.21L413.05,56.65z M406.24,73.02c0.76-6.48,4.34-9.52,9.18-9.52c5.47,0,9.07,3.97,8.98,9.52
			H406.24z M415.57,91.73c6.46,0,12.25-3.55,13.36-10.07h-4.71c-0.7,4.19-3.8,6.34-8.39,6.34c-6.23,0-9.57-3.72-9.74-11.25h22.96
			c0.45-11.08-5.27-17.04-13.51-17.04c-8.75,0-14.07,6.61-14.07,16v0.43C401.47,85.87,407.18,91.73,415.57,91.73L415.57,91.73z
			 M369.2,91.02h4.72V73.96c0-6.68,3.74-9.94,8.45-9.94c4.11,0,6.86,2.08,6.86,7.46v19.55h4.72V71.01c0-7.9-4.92-11.3-10.47-11.3
			c-4.23,0-7.99,1.99-9.56,6.22v-5.48h-4.72V91.02z M336.93,75.06v-0.28c0-7.64,4.24-11.16,9.1-11.16c4.77,0,9.23,3.43,9.23,11.02
			v0.6c0,7.55-4.46,11.02-9.2,11.02C341.21,86.27,336.93,82.53,336.93,75.06z M346.27,104.85c10.86,0,13.58-7.35,13.58-13.31V60.45
			h-4.72v4.75c-1.67-3.6-5.5-5.46-9.81-5.46c-7.52,0-13.12,5.27-13.12,15.04v0.28c0,9.82,5.8,15.09,12.97,15.09
			c4.14,0,8.03-1.89,9.95-5.81v7.63c0,6.94-4.22,9-8.55,9c-5,0-8.75-2.53-8.9-7.94h-4.72C333.07,99.19,336.78,104.85,346.27,104.85z
			 M319.12,53.01c0,1.95,1.43,3.16,3.16,3.16c1.73,0,3.17-1.22,3.17-3.16c0-1.95-1.43-3.16-3.17-3.16
			C320.55,49.84,319.12,51.06,319.12,53.01 M319.92,91.02h4.72V60.45h-4.72V91.02z M305.83,91.02h4.72V47.33h-4.72V91.02z
			 M276.48,82.88v-0.17c0-3.26,2.72-5.27,7.19-5.71l8.51-0.83v3.27c0,5.66-4.45,8.53-9.16,8.53
			C279.02,87.98,276.48,85.88,276.48,82.88L276.48,82.88z M282.45,91.73c3.8,0,8.16-1.54,9.79-5.54v4.83h4.46V70.5
			c0-7.75-5.42-10.79-11.54-10.79c-6.3,0-11.35,3.23-12.03,10.04h4.74c0.25-4.08,2.85-6.29,7.23-6.29c4.86,0,6.91,2.7,6.91,6.61
			v2.64l-9,0.91c-6.99,0.71-11.06,3.62-11.06,9.09v0.17C271.96,88.2,276.69,91.73,282.45,91.73L282.45,91.73z M243.01,91.73
			c6.76,0,11.52-2.84,11.52-8.71v-0.29c0-12.03-18.94-6.27-18.94-14.2v-0.29c0-2.92,2.24-4.82,6.51-4.82c4.3,0,7.16,2.17,7.54,5.76
			h4.43c-0.37-6.54-5.16-9.45-11.83-9.45c-7.57,0-11.08,3.83-11.08,8.61v0.29c0,11.71,18.94,5.98,18.94,14.15v0.29
			c0,3.3-2.73,4.98-6.88,4.98c-5.11,0-7.86-2.43-8.16-6.52h-4.43C230.98,87.51,234.97,91.73,243.01,91.73z M202,73.02
			c0.76-6.48,4.34-9.52,9.18-9.52c5.47,0,9.07,3.97,8.98,9.52H202z M211.33,91.73c6.46,0,12.25-3.55,13.36-10.07h-4.71
			c-0.71,4.19-3.8,6.34-8.39,6.34c-6.23,0-9.57-3.72-9.74-11.25h22.96c0.45-11.08-5.27-17.04-13.51-17.04
			c-8.75,0-14.07,6.61-14.07,16v0.43C197.23,85.87,202.94,91.73,211.33,91.73L211.33,91.73z M178,91.02h4.53V74.89
			c0-4.95,2.26-9.82,6.6-9.82l4,0.6v-5.23h-3.59c-3.04,0-6.04,1.73-6.98,5.6v-5.6h-4.56L178,91.02z M145.89,60.45v-3.62
			c0-3.63,1.57-5.61,5.02-5.61h9.1c-1.06,1.65-1.58,3.71-1.58,5.94v3.3H145.89z M141.1,91.02h4.79V64.33h12.54v26.69h4.63V64.33
			h8.55v-3.88h-8.55v-3.62c0-3.28,1.59-5.61,4.95-5.61l5.14,0.79v-4.67h-22.54c-6.67,0-9.51,4.41-9.51,9.82v3.3h-3.9v3.88h3.9
			L141.1,91.02z M125.5,53.01c0,1.95,1.43,3.16,3.17,3.16c1.74,0,3.16-1.22,3.16-3.16c0-1.95-1.43-3.16-3.16-3.16
			C126.93,49.84,125.5,51.06,125.5,53.01 M126.3,91.02h4.72V60.45h-4.72V91.02z M92.47,91.02h4.72V73.85c0-6.61,3.74-9.83,8.45-9.83
			c4.11,0,6.86,2.02,6.86,7.35v19.66h4.72V70.91c0-7.84-4.92-11.19-10.47-11.19c-4.23,0-7.99,2.02-9.56,6.18V47.33h-4.72V91.02z
			 M67.59,91.73c9.79,0,16.13-5.91,16.74-14.68h-4.84c-0.85,6.79-5.36,10.57-11.91,10.57c-8.45,0-13.68-6.29-13.68-18.24v-0.43
			c0-11.95,5.23-18.24,13.68-18.24c6.55,0,11.06,3.79,11.91,10.57h4.84c-0.61-8.78-6.96-14.69-16.74-14.69
			c-11.65,0-18.54,8.25-18.54,22.35v0.43C49.04,83.48,55.94,91.73,67.59,91.73z"/>
	</g>
	<line class="st3" x1="301.33" y1="231.57" x2="301.33" y2="591.42"/>
	<line class="st3" x1="582.31" y1="231.57" x2="582.31" y2="591.42"/>
	<line class="st3" x1="881.37" y1="231.57" x2="881.37" y2="591.42"/>
</g>
</svg>
