<?xml version="1.0" encoding="utf-8"?>
<!-- Generator: Adobe Illustrator 26.0.2, SVG Export Plug-In . SVG Version: 6.00 Build 0)  -->
<svg version="1.1" id="Calque_1" xmlns="http://www.w3.org/2000/svg" xmlns:xlink="http://www.w3.org/1999/xlink" x="0px" y="0px"
	 viewBox="0 0 1250 1250" style="enable-background:new 0 0 1250 1250;" xml:space="preserve">
<style type="text/css">
	.st0{fill:#EDEDED;}
	.st1{clip-path:url(#SVGID_00000009554538197799923310000003464862871562837148_);fill:#010202;}
	.st2{fill:#010202;}
	.st3{clip-path:url(#SVGID_00000061469892417575381850000000779367398804503432_);fill:none;stroke:#010202;stroke-width:1.148;}
	.st4{clip-path:url(#SVGID_00000061469892417575381850000000779367398804503432_);fill:#010202;}
</style>
<g>
	<rect x="0" y="0" class="st0" width="1250" height="1250"/>
	<g>
		<defs>
			<rect id="SVGID_1_" x="0" y="0" width="1250" height="1250"/>
		</defs>
		<clipPath id="SVGID_00000015345556128427972150000013764342857772532398_">
			<use xlink:href="#SVGID_1_"  style="overflow:visible;"/>
		</clipPath>
		<path style="clip-path:url(#SVGID_00000015345556128427972150000013764342857772532398_);fill:#010202;" d="M686.7,1023.21v56.09
			h290.89v-54.79H758.45c88.7-55.44,213.28-143.49,213.28-259.59v-1.3c0-83.48-59.35-135.66-144.79-135.66
			c-68.48,0-150.66,32.61-153.27,140.88h65.22c3.26-52.18,28.05-86.09,85.44-86.09c56.09,0,82.18,33.26,82.18,80.87v1.3
			C906.5,860.8,798.88,944.28,686.7,1023.21L686.7,1023.21z M366.33,823.63V690.57h120.66c39.79,0,56.74,31.96,56.74,61.31v2.61
			c0,44.35-21.52,69.13-63.27,69.13L366.33,823.63z M366.33,1024.52v-146.1h114.14c52.83,0,77.61,24.13,77.61,71.09v2.61
			c0,44.35-22.83,72.39-71.09,72.39L366.33,1024.52z M301.11,1079.3h185.88c100.44,0,136.32-58.05,136.32-121.97v-2.61
			c0-56.09-31.96-93.92-69.14-103.7c33.92-10.43,54.79-46.95,54.79-96.53v-2.61c0-69.79-43.7-116.09-112.84-116.09H301.11V1079.3z"
			/>
	</g>
	<path class="st2" d="M730.47,574.05h234.8v-54.79h-84.79v-388.4H812l-82.83,45v82.83l86.09-56.74v317.31h-84.79V574.05z
		 M409.76,384.25l67.38-206l67.38,206H409.76z M278.87,574.05h68.81l44.16-135.01h170.61l44.16,135.01h68.81L525.41,130.54h-96.53
		L278.87,574.05z"/>
	<g>
		<defs>
			<rect id="SVGID_00000063600299277691914180000012730616133854785929_" x="0" y="0" width="1250" height="1250"/>
		</defs>
		<clipPath id="SVGID_00000152233460448338039490000013397959813805741733_">
			<use xlink:href="#SVGID_00000063600299277691914180000012730616133854785929_"  style="overflow:visible;"/>
		</clipPath>
		
			<line style="clip-path:url(#SVGID_00000152233460448338039490000013397959813805741733_);fill:none;stroke:#010202;stroke-width:1.148;" x1="0" y1="573.49" x2="1250" y2="573.49"/>
		
			<line style="clip-path:url(#SVGID_00000152233460448338039490000013397959813805741733_);fill:none;stroke:#010202;stroke-width:1.148;" x1="0" y1="1079.71" x2="1250" y2="1079.71"/>
		<path style="clip-path:url(#SVGID_00000152233460448338039490000013397959813805741733_);fill:#010202;" d="M131.44,91.02h4.85V70
			h18.95v-4.11h-18.95V51.45h21.48v-4.11h-26.33V91.02z M97.87,91.02h4.85V70h18.95v-4.11h-18.95V51.45h21.48v-4.11H97.87V91.02z
			 M53.9,69.46v-0.6c0-12.51,6.69-18.16,14.89-18.16s14.89,5.65,14.89,18.19v0.55c0,12.53-6.69,18.18-14.89,18.18
			S53.9,81.97,53.9,69.46 M68.78,91.73c11.75,0,19.74-8.26,19.74-22.29V68.9c0-14.04-7.99-22.3-19.74-22.3
			c-11.75,0-19.74,8.26-19.74,22.27v0.6C49.04,83.47,57.04,91.73,68.78,91.73"/>
	</g>
</g>
</svg>
