<?xml version="1.0" encoding="utf-8"?>
<!-- Generator: Adobe Illustrator 26.0.2, SVG Export Plug-In . SVG Version: 6.00 Build 0)  -->
<svg version="1.1" id="Calque_1" xmlns="http://www.w3.org/2000/svg" xmlns:xlink="http://www.w3.org/1999/xlink" x="0px" y="0px"
	 viewBox="0 0 1250 1250" style="enable-background:new 0 0 1250 1250;" xml:space="preserve">
<style type="text/css">
	.st0{fill:#3C3C3B;}
	.st1{clip-path:url(#SVGID_00000034087316943249667580000016900829377328755377_);fill:#FFFFFF;}
	.st2{clip-path:url(#SVGID_00000049939053672202313860000001303724930239198361_);}
	.st3{fill:none;stroke:#000000;stroke-width:1.892;}
	.st4{clip-path:url(#SVGID_00000105409251671531808660000004506218998729547452_);}
	.st5{clip-path:url(#SVGID_00000105409251671531808660000004506218998729547452_);fill:#FFFFFF;}
	.st6{clip-path:url(#SVGID_00000105409251671531808660000004506218998729547452_);fill:none;stroke:#FFFFFF;stroke-width:1.892;}
	.st7{clip-path:url(#SVGID_00000105409251671531808660000004506218998729547452_);fill:none;stroke:#000000;stroke-width:1.892;}
	.st8{fill:none;stroke:#FFFFFF;stroke-width:1.379;stroke-linejoin:round;}
	.st9{fill:none;stroke:#FFFFFF;stroke-width:1.892;}
	.st10{clip-path:url(#SVGID_00000105399659865150739190000000036181297139328187_);fill:#FFFFFF;}
	.st11{fill:#FFFFFF;}
	.st12{clip-path:url(#SVGID_00000150783010595883594430000004046141136819249825_);fill:#FFFFFF;}
	.st13{clip-path:url(#SVGID_00000150783010595883594430000004046141136819249825_);fill:#3C3C3B;}
	.st14{clip-path:url(#SVGID_00000045613736691246572330000003581160154990260889_);fill:#FFFFFF;}
	.st15{clip-path:url(#SVGID_00000026844585515044718900000004306255363532628104_);}
	.st16{clip-path:url(#SVGID_00000132089984806778384040000004990827414410818470_);fill:#FFFFFF;}
	.st17{clip-path:url(#SVGID_00000070804003243308463220000017176087877715913913_);}
	.st18{clip-path:url(#SVGID_00000176758286509267992420000001900949799039565483_);}
	.st19{clip-path:url(#SVGID_00000176758286509267992420000001900949799039565483_);fill:#FFFFFF;}
	.st20{fill:none;stroke:#000000;stroke-width:1.892;stroke-linecap:round;stroke-linejoin:round;}
</style>
<g>
	<rect class="st0" width="1250" height="1250"/>
	<g>
		<defs>
			<rect id="SVGID_1_" width="1250" height="1250"/>
		</defs>
		<clipPath id="SVGID_00000078042642587803100930000002039692127181214859_">
			<use xlink:href="#SVGID_1_"  style="overflow:visible;"/>
		</clipPath>
		<path style="clip-path:url(#SVGID_00000078042642587803100930000002039692127181214859_);fill:#FFFFFF;" d="M22.93,101.7
			c-5.03,0-9.11,4.09-9.11,9.12v303.91c0,5.04,4.08,9.12,9.11,9.12h660.95c5.03,0,9.11-4.08,9.11-9.12V110.82
			c0-5.03-4.08-9.12-9.11-9.12H22.93z"/>
	</g>
	<g>
		<defs>
			<path id="SVGID_00000036225023584975592660000004029577535904795042_" d="M22.93,101.7c-5.03,0-9.11,4.09-9.11,9.12v303.91
				c0,5.04,4.08,9.12,9.11,9.12h660.95c5.03,0,9.11-4.08,9.11-9.12V110.82c0-5.03-4.08-9.12-9.11-9.12H22.93z"/>
		</defs>
		<clipPath id="SVGID_00000012473789192776827530000017857385231913041572_">
			<use xlink:href="#SVGID_00000036225023584975592660000004029577535904795042_"  style="overflow:visible;"/>
		</clipPath>
		
			<rect x="-1.32" y="168.51" style="clip-path:url(#SVGID_00000012473789192776827530000017857385231913041572_);" width="719.77" height="572.38"/>
	</g>
	<line class="st3" x1="13.76" y1="176.81" x2="692.93" y2="176.81"/>
	<g>
		<defs>
			<rect id="SVGID_00000153680492622925483730000007730872071760333743_" width="1250" height="1250"/>
		</defs>
		<clipPath id="SVGID_00000127736320309645051990000014351129373525161352_">
			<use xlink:href="#SVGID_00000153680492622925483730000007730872071760333743_"  style="overflow:visible;"/>
		</clipPath>
		<path style="clip-path:url(#SVGID_00000127736320309645051990000014351129373525161352_);" d="M24.48,104.58
			c-4.18,0-7.57,3.39-7.57,7.57v58.04c0,4.18,3.39,7.57,7.57,7.57h208.78c4.18,0,7.57-3.39,7.57-7.57v-58.04
			c0-4.18-3.39-7.57-7.57-7.57H24.48z"/>
		<path style="clip-path:url(#SVGID_00000127736320309645051990000014351129373525161352_);fill:#FFFFFF;" d="M159.29,197.12
			c-4.18,0-7.57,3.39-7.57,7.57v34.69c0,4.18,3.39,7.56,7.57,7.56h508.78c4.18,0,7.57-3.38,7.57-7.56v-34.69
			c0-4.18-3.39-7.57-7.57-7.57H159.29z"/>
		
			<path style="clip-path:url(#SVGID_00000127736320309645051990000014351129373525161352_);fill:none;stroke:#FFFFFF;stroke-width:1.892;" d="
			M159.29,197.12c-4.18,0-7.57,3.39-7.57,7.57v34.69c0,4.18,3.39,7.56,7.57,7.56h508.78c4.18,0,7.57-3.38,7.57-7.56v-34.69
			c0-4.18-3.39-7.57-7.57-7.57H159.29z"/>
		
			<path style="clip-path:url(#SVGID_00000127736320309645051990000014351129373525161352_);fill:none;stroke:#FFFFFF;stroke-width:1.892;" d="
			M159.29,264.96c-4.18,0-7.57,3.39-7.57,7.57v34.69c0,4.18,3.39,7.56,7.57,7.56h508.78c4.18,0,7.57-3.38,7.57-7.56v-34.69
			c0-4.18-3.39-7.57-7.57-7.57H159.29z"/>
		<path style="clip-path:url(#SVGID_00000127736320309645051990000014351129373525161352_);fill:#FFFFFF;" d="M209.59,136.15
			c0.65,0.46,1.12,1.03,1.42,1.69c0.3,0.67,0.46,1.31,0.48,1.94v0.06v0.06h-0.06h-9.17h-0.12v-0.04v-0.05
			c0.12-0.79,0.38-1.51,0.77-2.16c0.39-0.66,0.94-1.19,1.65-1.59c0.71-0.4,1.55-0.61,2.54-0.61
			C208.12,135.46,208.94,135.69,209.59,136.15 M204.44,146.78c-0.75-0.44-1.31-1.04-1.7-1.79c-0.38-0.75-0.58-1.58-0.6-2.51v-0.15
			h0.15h12.29v-1.39c0-1.57-0.33-2.96-1-4.16c-0.67-1.2-1.57-2.12-2.71-2.77c-1.14-0.65-2.4-0.97-3.77-0.97
			c-1.57,0-2.97,0.34-4.18,1.03c-1.21,0.69-2.15,1.66-2.83,2.91c-0.68,1.25-1.02,2.7-1.04,4.33v0.15c0,1.47,0.29,2.85,0.88,4.13
			c0.59,1.28,1.48,2.32,2.69,3.1s2.71,1.18,4.48,1.18c1.17,0,2.27-0.21,3.3-0.62c1.03-0.41,1.91-1.04,2.63-1.89
			c0.73-0.85,1.21-1.9,1.45-3.15h-0.15h-2.82h-0.12v0.05c0,0.01-0.01,0.02-0.03,0.04c-0.16,0.93-0.6,1.69-1.32,2.27
			c-0.72,0.59-1.7,0.88-2.95,0.88C206.08,147.45,205.19,147.22,204.44,146.78 M184.81,146.72c-0.76-0.48-1.35-1.15-1.77-2
			c-0.42-0.85-0.67-1.82-0.73-2.91v-0.12v-0.12v-0.24v-0.23v-0.23c0.06-1.09,0.3-2.04,0.73-2.86c0.42-0.82,1.01-1.45,1.76-1.89
			c0.75-0.44,1.62-0.67,2.63-0.67c0.91,0,1.72,0.22,2.44,0.67c0.72,0.44,1.29,1.07,1.73,1.88c0.43,0.81,0.68,1.75,0.74,2.82v0.26
			v0.26v0.24v0.08v0.08c-0.04,1.15-0.27,2.15-0.68,3.01c-0.41,0.86-0.98,1.52-1.71,2c-0.73,0.47-1.57,0.71-2.51,0.71
			C186.44,147.45,185.57,147.2,184.81,146.72 M185.54,133.34c-0.66,0.2-1.24,0.48-1.74,0.83c-0.5,0.35-0.95,0.78-1.33,1.29v-2.06
			h-3.15v22.59h3.15v-8.78c0.26,0.42,0.65,0.84,1.15,1.24c0.5,0.4,1.14,0.74,1.89,1.01c0.76,0.27,1.6,0.41,2.53,0.41
			c1.31,0,2.54-0.35,3.68-1.06c1.14-0.71,2.05-1.69,2.74-2.95c0.69-1.26,1.03-2.69,1.03-4.28v-0.24c0-1.62-0.34-3.05-1.03-4.31
			c-0.69-1.26-1.62-2.24-2.8-2.94c-1.18-0.7-2.49-1.04-3.92-1.04C186.92,133.03,186.19,133.14,185.54,133.34 M163.06,155.98h3.18
			l9.84-22.59h-3.3l-4.6,10.75l-4.66-10.75h-3.42l6.48,14.47L163.06,155.98z M142.62,127.28v2.73h7.21v19.5h3.15v-19.5h7.21v-2.73
			H142.62z M130.99,133.52c-0.69,0.32-1.18,0.66-1.48,1.01c-0.3,0.35-0.51,0.68-0.64,0.98v-2.12h-3.12v16.11h3.12v-8.54v-0.05v-0.05
			c0.02-0.97,0.19-1.86,0.5-2.66c0.31-0.81,0.79-1.45,1.44-1.92c0.65-0.47,1.44-0.71,2.39-0.71c0.79,0,1.44,0.16,1.95,0.48
			c0.51,0.32,0.89,0.79,1.14,1.39c0.24,0.6,0.37,1.33,0.39,2.18v0.06v0.06v9.75h3.12v-10.17c0-1.41-0.29-2.59-0.86-3.54
			c-0.57-0.95-1.33-1.64-2.25-2.09c-0.93-0.44-1.94-0.67-3.03-0.67C132.57,133.03,131.68,133.2,130.99,133.52 M116.92,136.15
			c0.65,0.46,1.12,1.03,1.42,1.69c0.3,0.67,0.46,1.31,0.49,1.94v0.06v0.06h-0.06h-9.17h-0.12v-0.04v-0.05
			c0.12-0.79,0.38-1.51,0.77-2.16c0.39-0.66,0.94-1.19,1.65-1.59c0.71-0.4,1.55-0.61,2.54-0.61
			C115.44,135.46,116.27,135.69,116.92,136.15 M111.77,146.78c-0.75-0.44-1.31-1.04-1.7-1.79c-0.38-0.75-0.59-1.58-0.61-2.51v-0.15
			h0.15h12.29v-1.39c0-1.57-0.33-2.96-1-4.16c-0.67-1.2-1.57-2.12-2.71-2.77s-2.4-0.97-3.77-0.97c-1.58,0-2.97,0.34-4.18,1.03
			c-1.21,0.69-2.15,1.66-2.83,2.91c-0.68,1.25-1.03,2.7-1.04,4.33v0.15c0,1.47,0.29,2.85,0.88,4.13c0.59,1.28,1.48,2.32,2.69,3.1
			s2.7,1.18,4.48,1.18c1.17,0,2.27-0.21,3.3-0.62c1.03-0.41,1.91-1.04,2.63-1.89c0.73-0.85,1.21-1.9,1.45-3.15h-0.15h-2.82h-0.12
			v0.05c0,0.01-0.01,0.02-0.03,0.04c-0.16,0.93-0.6,1.69-1.32,2.27c-0.72,0.59-1.7,0.88-2.95,0.88
			C113.4,147.45,112.52,147.22,111.77,146.78 M92.14,146.72c-0.76-0.48-1.35-1.15-1.77-2c-0.42-0.85-0.67-1.82-0.73-2.91v-0.12
			v-0.12v-0.24v-0.23v-0.23c0.06-1.09,0.3-2.04,0.73-2.86c0.42-0.82,1.01-1.45,1.76-1.89c0.75-0.44,1.63-0.67,2.63-0.67
			c0.91,0,1.72,0.22,2.44,0.67c0.72,0.44,1.29,1.07,1.72,1.88c0.43,0.81,0.68,1.75,0.74,2.82v0.26v0.26v0.24v0.08v0.08
			c-0.04,1.15-0.27,2.15-0.68,3.01c-0.41,0.86-0.98,1.52-1.71,2c-0.73,0.47-1.56,0.71-2.51,0.71
			C93.76,147.45,92.89,147.2,92.14,146.72 M92.86,133.34c-0.66,0.2-1.24,0.48-1.74,0.83c-0.5,0.35-0.95,0.78-1.33,1.29v-2.06h-3.15
			v22.59h3.15v-8.78c0.26,0.42,0.65,0.84,1.15,1.24c0.5,0.4,1.14,0.74,1.89,1.01c0.76,0.27,1.6,0.41,2.53,0.41
			c1.31,0,2.54-0.35,3.68-1.06c1.14-0.71,2.05-1.69,2.74-2.95c0.69-1.26,1.03-2.69,1.03-4.28v-0.24c0-1.62-0.34-3.05-1.03-4.31
			c-0.69-1.26-1.62-2.24-2.8-2.94c-1.18-0.7-2.49-1.04-3.92-1.04C94.25,133.03,93.52,133.14,92.86,133.34 M67.2,146.13
			c-1.21-0.68-2.17-1.65-2.88-2.92c-0.71-1.27-1.06-2.78-1.06-4.51v-0.3v-0.3v-0.06v-0.06c0.02-1.69,0.38-3.17,1.09-4.43
			c0.71-1.26,1.66-2.22,2.86-2.89c1.2-0.67,2.55-1,4.04-1c1.49,0,2.85,0.34,4.06,1.02c1.21,0.68,2.17,1.65,2.88,2.92
			c0.71,1.27,1.06,2.78,1.06,4.51v0.3v0.3v0.06v0.06c-0.02,1.7-0.38,3.17-1.09,4.44c-0.71,1.26-1.66,2.22-2.86,2.89
			c-1.2,0.67-2.55,1-4.04,1C69.77,147.14,68.41,146.8,67.2,146.13 M76.89,148.46c1.69-0.94,3.04-2.25,4.03-3.95
			c0.99-1.7,1.48-3.63,1.48-5.81v-0.3v-0.3c0-2.18-0.49-4.12-1.48-5.81c-0.99-1.7-2.33-3.01-4.03-3.95
			c-1.7-0.94-3.57-1.41-5.63-1.41c-2.06,0-3.94,0.47-5.63,1.41c-1.7,0.94-3.04,2.26-4.03,3.95c-0.99,1.69-1.48,3.63-1.48,5.81v0.3
			v0.3c0,2.18,0.49,4.12,1.48,5.81c0.99,1.7,2.33,3.01,4.03,3.95c1.7,0.94,3.57,1.41,5.63,1.41
			C73.32,149.87,75.2,149.4,76.89,148.46"/>
		<path style="clip-path:url(#SVGID_00000127736320309645051990000014351129373525161352_);fill:#FFFFFF;" d="M356.56,285.27
			c-0.58,0.27-1,0.56-1.26,0.86c-0.26,0.3-0.44,0.58-0.54,0.84v-1.8h-2.65v13.68h2.65v-7.25v-0.04v-0.04
			c0.02-0.82,0.16-1.58,0.42-2.26c0.27-0.69,0.67-1.23,1.22-1.63c0.55-0.4,1.23-0.6,2.03-0.6c0.67,0,1.22,0.14,1.66,0.41
			c0.44,0.27,0.76,0.67,0.96,1.18c0.21,0.51,0.32,1.13,0.33,1.85v0.05v0.05v8.28h2.65v-8.64c0-1.2-0.24-2.2-0.73-3.01
			c-0.49-0.81-1.13-1.4-1.92-1.78c-0.79-0.38-1.65-0.57-2.57-0.57C357.89,284.86,357.14,285,356.56,285.27 M339.88,296.42
			c-0.64-0.45-1.13-1.06-1.47-1.81c-0.33-0.75-0.52-1.56-0.55-2.42v-0.18c0-0.88,0.16-1.7,0.49-2.48c0.33-0.78,0.81-1.41,1.47-1.89
			c0.65-0.48,1.44-0.72,2.37-0.72c0.89,0,1.66,0.23,2.3,0.68c0.64,0.45,1.13,1.06,1.47,1.81c0.33,0.76,0.52,1.56,0.55,2.42v0.18
			c0,0.87-0.16,1.7-0.49,2.48c-0.33,0.78-0.81,1.41-1.47,1.89c-0.65,0.48-1.44,0.72-2.37,0.72
			C341.29,297.1,340.52,296.88,339.88,296.42 M345.78,298.21c1.06-0.63,1.89-1.5,2.48-2.59c0.59-1.09,0.89-2.29,0.89-3.61v-0.13
			c-0.02-1.3-0.33-2.49-0.93-3.55c-0.6-1.06-1.43-1.91-2.48-2.53c-1.05-0.63-2.24-0.94-3.56-0.94c-1.34,0-2.54,0.32-3.6,0.95
			c-1.06,0.63-1.89,1.5-2.48,2.58c-0.59,1.09-0.89,2.29-0.89,3.61v0.13c0.02,1.3,0.32,2.49,0.93,3.55c0.6,1.06,1.43,1.91,2.48,2.53
			c1.05,0.63,2.24,0.94,3.56,0.94C343.52,299.16,344.72,298.84,345.78,298.21 M332.15,280.52c-0.15-0.26-0.36-0.46-0.62-0.62
			c-0.26-0.15-0.54-0.23-0.85-0.23c-0.31,0-0.59,0.08-0.85,0.23c-0.26,0.15-0.46,0.36-0.62,0.62c-0.15,0.26-0.23,0.54-0.23,0.85
			c0,0.31,0.08,0.6,0.23,0.88c0.15,0.27,0.36,0.49,0.62,0.64c0.26,0.15,0.54,0.23,0.85,0.23c0.31,0,0.59-0.08,0.85-0.23
			c0.26-0.15,0.46-0.37,0.62-0.64c0.15-0.27,0.23-0.57,0.23-0.88C332.38,281.06,332.3,280.77,332.15,280.52 M332.02,285.2h-2.68
			v13.66h2.68V285.2z M326.83,298.85v-2.06h-1.7c-0.41,0-0.76-0.07-1.04-0.22c-0.28-0.15-0.51-0.42-0.67-0.81
			c-0.16-0.39-0.24-0.96-0.24-1.7v-6.84h3.65v-2.06h-3.93c0.12-0.09,0.21-0.21,0.27-0.39c0.06-0.17,0.09-0.39,0.09-0.67v-2.37h-2.42
			v1.93c0,0.6-0.1,1-0.29,1.2c-0.2,0.2-0.46,0.3-0.79,0.3h-2.44v2.06h3.24v7.25c0,1.05,0.19,1.89,0.58,2.55
			c0.39,0.65,0.89,1.12,1.51,1.4c0.62,0.28,1.29,0.42,2.01,0.42H326.83z M314.51,280.52c-0.15-0.26-0.36-0.46-0.62-0.62
			c-0.26-0.15-0.54-0.23-0.85-0.23c-0.31,0-0.59,0.08-0.85,0.23c-0.26,0.15-0.46,0.36-0.62,0.62s-0.23,0.54-0.23,0.85
			c0,0.31,0.08,0.6,0.23,0.88c0.15,0.27,0.36,0.49,0.62,0.64c0.26,0.15,0.54,0.23,0.85,0.23c0.31,0,0.59-0.08,0.85-0.23
			c0.26-0.15,0.46-0.37,0.62-0.64c0.15-0.27,0.23-0.57,0.23-0.88C314.74,281.06,314.66,280.77,314.51,280.52 M314.38,285.2h-2.68
			v13.66h2.68V285.2z M305.7,298.65c0.83-0.34,1.47-0.81,1.9-1.41c0.44-0.6,0.65-1.29,0.65-2.06v-0.15c0-0.84-0.21-1.53-0.64-2.07
			c-0.43-0.54-0.97-0.96-1.62-1.25c-0.65-0.29-1.39-0.51-2.21-0.67l-2.49-0.49c-0.55-0.1-0.96-0.3-1.22-0.59
			c-0.27-0.29-0.4-0.64-0.4-1.05v-0.1v-0.03c0.02-0.6,0.29-1.06,0.81-1.38c0.52-0.32,1.16-0.48,1.92-0.48c0.6,0,1.12,0.11,1.56,0.35
			c0.44,0.23,0.78,0.56,1.04,0.99c0.26,0.43,0.41,0.93,0.46,1.49h0.23h2.26h0.15c-0.1-1.01-0.41-1.89-0.91-2.62
			c-0.51-0.74-1.17-1.3-1.99-1.68c-0.82-0.39-1.76-0.58-2.8-0.58c-1.13,0-2.1,0.17-2.91,0.52c-0.81,0.34-1.41,0.81-1.83,1.4
			c-0.41,0.59-0.62,1.26-0.62,2.02v0.1c0,0.1,0,0.2,0.01,0.3c0.01,0.09,0.02,0.18,0.04,0.27c0.08,0.57,0.3,1.05,0.63,1.47
			c0.33,0.41,0.75,0.74,1.23,0.98c0.49,0.24,1.03,0.43,1.63,0.57l2.67,0.59c0.51,0.12,0.94,0.25,1.27,0.4
			c0.33,0.15,0.6,0.35,0.78,0.62c0.19,0.27,0.28,0.6,0.28,0.99v0.1c0,0.45-0.11,0.82-0.33,1.11c-0.22,0.29-0.54,0.51-0.96,0.66
			c-0.42,0.15-0.93,0.22-1.53,0.22c-0.65,0-1.22-0.12-1.71-0.37c-0.49-0.25-0.87-0.58-1.16-0.98c-0.28-0.4-0.47-0.85-0.55-1.35
			c-0.02-0.02-0.03-0.03-0.03-0.05v-0.05h-0.23h-2.24h-0.18c0.21,0.91,0.54,1.72,0.99,2.43c0.45,0.71,1.1,1.29,1.94,1.72
			c0.84,0.44,1.89,0.66,3.16,0.66C303.89,299.16,304.87,298.99,305.7,298.65 M284.58,296.42c-0.64-0.45-1.13-1.06-1.47-1.81
			c-0.33-0.75-0.52-1.56-0.55-2.42v-0.18c0-0.88,0.16-1.7,0.49-2.48c0.33-0.78,0.82-1.41,1.47-1.89c0.65-0.48,1.44-0.72,2.37-0.72
			c0.89,0,1.66,0.23,2.3,0.68c0.64,0.45,1.13,1.06,1.47,1.81c0.33,0.76,0.52,1.56,0.55,2.42v0.18c0,0.87-0.16,1.7-0.49,2.48
			c-0.33,0.78-0.81,1.41-1.46,1.89c-0.65,0.48-1.44,0.72-2.37,0.72C285.99,297.1,285.23,296.88,284.58,296.42 M290.49,298.21
			c1.06-0.63,1.89-1.5,2.48-2.59c0.59-1.09,0.89-2.29,0.89-3.61v-0.13c-0.02-1.3-0.33-2.49-0.93-3.55c-0.6-1.06-1.43-1.91-2.48-2.53
			c-1.05-0.63-2.24-0.94-3.56-0.94c-1.34,0-2.54,0.32-3.6,0.95c-1.06,0.63-1.89,1.5-2.48,2.58c-0.59,1.09-0.89,2.29-0.89,3.61v0.13
			c0.02,1.3,0.32,2.49,0.93,3.55c0.6,1.06,1.43,1.91,2.48,2.53c1.06,0.63,2.24,0.94,3.56,0.94
			C288.22,299.16,289.42,298.84,290.49,298.21 M271.51,282.29c1.29,0,2.22,0.31,2.8,0.94c0.58,0.63,0.88,1.43,0.88,2.4v0.15
			c0,0.6-0.11,1.15-0.34,1.65c-0.22,0.5-0.6,0.91-1.12,1.23c-0.52,0.33-1.2,0.51-2.02,0.54h-0.21h-4.55v-6.92H271.51z
			 M264.28,279.98v18.88h2.67v-7.33h4.71c1.15,0,2.2-0.27,3.15-0.8c0.95-0.53,1.7-1.24,2.24-2.11c0.54-0.87,0.81-1.81,0.81-2.8
			v-0.18c0-1.32-0.33-2.4-0.98-3.25c-0.65-0.85-1.45-1.46-2.39-1.84c-0.94-0.38-1.89-0.57-2.83-0.57H264.28z M255.69,298.85v-2.06
			h-1.7c-0.41,0-0.76-0.07-1.04-0.22c-0.28-0.15-0.51-0.42-0.67-0.81c-0.16-0.39-0.24-0.96-0.24-1.7v-6.84h3.65v-2.06h-3.93
			c0.12-0.09,0.21-0.21,0.27-0.39c0.06-0.17,0.09-0.39,0.09-0.67v-2.37h-2.42v1.93c0,0.6-0.1,1-0.3,1.2s-0.46,0.3-0.78,0.3h-2.44
			v2.06h3.24v7.25c0,1.05,0.19,1.89,0.58,2.55c0.39,0.65,0.89,1.12,1.5,1.4c0.62,0.28,1.29,0.42,2.01,0.42H255.69z M243.22,279.98
			h-2.62v18.88h2.62V279.98z M233.19,298.75c0.58-0.27,1-0.56,1.26-0.86c0.26-0.3,0.44-0.58,0.54-0.84v1.8h2.65v-13.68h-2.65v7.25
			v0.04v0.04c-0.02,0.82-0.16,1.58-0.42,2.26c-0.27,0.69-0.67,1.23-1.22,1.63c-0.55,0.4-1.23,0.6-2.03,0.6
			c-0.67,0-1.22-0.14-1.66-0.41c-0.44-0.27-0.76-0.67-0.96-1.18c-0.21-0.52-0.32-1.13-0.33-1.85v-0.05v-0.05v-8.28h-2.65v8.64
			c0,1.2,0.24,2.2,0.73,3.01c0.49,0.81,1.13,1.4,1.92,1.78c0.79,0.38,1.65,0.57,2.57,0.57C231.85,299.16,232.6,299.02,233.19,298.75
			 M220.53,293.22c0,0.91-0.22,1.65-0.64,2.24c-0.43,0.58-0.96,1-1.58,1.26c-0.63,0.26-1.23,0.39-1.81,0.39
			c-0.63,0-1.14-0.1-1.53-0.3c-0.39-0.2-0.66-0.45-0.81-0.74c-0.15-0.3-0.23-0.62-0.23-0.96c0-0.39,0.07-0.72,0.22-0.98
			c0.15-0.26,0.4-0.47,0.76-0.64c0.36-0.17,0.85-0.29,1.47-0.36c0.05,0,0.1,0,0.15-0.01c0.05-0.01,0.1-0.01,0.15-0.01
			c1.2-0.15,2.06-0.27,2.58-0.36c0.52-0.09,0.95-0.21,1.27-0.39V293.22z M223.28,298.85c-0.05-0.39-0.1-0.88-0.13-1.47
			c-0.03-0.58-0.06-1.21-0.08-1.88v-0.4v-0.37v-4.91c0-0.22-0.01-0.44-0.04-0.64c-0.02-0.21-0.05-0.4-0.09-0.59
			c-0.19-0.82-0.54-1.51-1.07-2.07c-0.52-0.56-1.17-0.97-1.93-1.25s-1.6-0.41-2.51-0.41c-1.03,0-1.97,0.18-2.82,0.54
			c-0.85,0.36-1.55,0.88-2.1,1.54c-0.55,0.67-0.87,1.45-0.98,2.34c-0.02,0.07-0.03,0.14-0.04,0.22c-0.01,0.08-0.01,0.16-0.01,0.25
			h2.67v-0.04v-0.04c0.02-0.53,0.13-1,0.35-1.41c0.21-0.41,0.56-0.74,1.04-0.98c0.48-0.24,1.11-0.36,1.88-0.36
			c0.72,0,1.3,0.11,1.74,0.33c0.44,0.22,0.75,0.5,0.94,0.82c0.19,0.33,0.3,0.68,0.33,1.05v0.1v0.1c0,0.28-0.02,0.49-0.07,0.66
			c-0.04,0.16-0.16,0.3-0.35,0.42c-0.19,0.12-0.47,0.22-0.85,0.28c-0.43,0.09-0.9,0.17-1.4,0.24c-0.51,0.08-1.07,0.15-1.69,0.22
			c-0.15,0.02-0.31,0.04-0.47,0.06c-0.16,0.03-0.33,0.05-0.5,0.06c-1.15,0.14-2.08,0.53-2.8,1.18c-0.72,0.65-1.08,1.53-1.08,2.62
			c0,0.79,0.2,1.49,0.6,2.11c0.4,0.62,0.97,1.1,1.7,1.44c0.73,0.34,1.57,0.52,2.51,0.52c0.68,0,1.34-0.11,1.96-0.33
			c0.62-0.22,1.14-0.51,1.57-0.85c0.43-0.34,0.73-0.69,0.9-1.03c0,0.57,0.01,1,0.04,1.3c0.03,0.3,0.06,0.5,0.09,0.6H223.28z
			 M209.27,282.14v-2.16h-1.75c-1.05,0-1.94,0.2-2.69,0.6c-0.75,0.4-1.31,0.94-1.7,1.62c-0.39,0.68-0.58,1.43-0.58,2.25v0.75h-3.27
			v2.16h3.27v11.5h2.68v-11.5h4.11v-2.16h-4.11v-0.75c0-0.89,0.19-1.5,0.57-1.83c0.38-0.33,0.95-0.49,1.72-0.49H209.27z
			 M192.42,287.51c0.55,0.4,0.95,0.88,1.21,1.44c0.26,0.57,0.39,1.11,0.41,1.65v0.05v0.05h-0.05h-7.79h-0.1v-0.04v-0.04
			c0.1-0.67,0.32-1.28,0.66-1.84c0.33-0.56,0.8-1.01,1.4-1.35c0.6-0.34,1.32-0.51,2.16-0.51
			C191.17,286.92,191.87,287.12,192.42,287.51 M188.05,296.54c-0.63-0.38-1.11-0.88-1.44-1.52c-0.33-0.63-0.5-1.35-0.51-2.14v-0.13
			h0.13h10.44v-1.18c0-1.34-0.28-2.52-0.85-3.54c-0.57-1.02-1.33-1.8-2.3-2.35c-0.97-0.55-2.04-0.82-3.2-0.82
			c-1.34,0-2.52,0.29-3.55,0.88c-1.03,0.58-1.83,1.41-2.41,2.47c-0.57,1.06-0.87,2.29-0.89,3.68v0.13c0,1.25,0.25,2.42,0.75,3.51
			c0.5,1.09,1.26,1.97,2.29,2.64c1.03,0.67,2.3,1,3.81,1c0.99,0,1.93-0.18,2.8-0.53c0.87-0.35,1.62-0.89,2.24-1.61
			c0.62-0.72,1.03-1.61,1.24-2.67h-0.13h-2.39h-0.1v0.04c0,0.01-0.01,0.02-0.03,0.04c-0.14,0.79-0.51,1.43-1.12,1.93
			c-0.61,0.5-1.44,0.75-2.51,0.75C189.44,297.1,188.68,296.92,188.05,296.54 M178.02,289.41v0.1c0,1.37-0.27,2.59-0.8,3.64
			c-0.53,1.05-1.33,1.88-2.39,2.48c-1.06,0.6-2.37,0.9-3.91,0.9h-3.91v-7.12v-7.12h3.91c1.54,0,2.85,0.3,3.91,0.9
			c1.06,0.6,1.86,1.43,2.39,2.48c0.53,1.05,0.8,2.27,0.8,3.64V289.41z M164.34,298.85h6.58c1.89,0,3.57-0.39,5.05-1.16
			c1.48-0.77,2.64-1.86,3.47-3.28c0.83-1.41,1.25-3.05,1.25-4.9v-0.1v-0.1c0-1.85-0.42-3.48-1.25-4.9
			c-0.83-1.41-1.99-2.51-3.47-3.28c-1.48-0.77-3.17-1.16-5.05-1.16h-6.58v9.44V298.85z"/>
		
			<path style="clip-path:url(#SVGID_00000127736320309645051990000014351129373525161352_);fill:none;stroke:#000000;stroke-width:1.892;" d="
			M626.44,110.69c-4.18,0-7.57,3.39-7.57,7.57v30.68c0,4.18,3.39,7.57,7.57,7.57h41.63c4.18,0,7.57-3.39,7.57-7.57v-30.68
			c0-4.18-3.39-7.57-7.57-7.57H626.44z"/>
	</g>
	<line class="st3" x1="629.01" y1="121.98" x2="665.49" y2="121.98"/>
	<line class="st3" x1="629.01" y1="129.73" x2="665.49" y2="129.73"/>
	<line class="st3" x1="629.01" y1="137.48" x2="665.49" y2="137.48"/>
	<line class="st3" x1="629.01" y1="145.23" x2="665.49" y2="145.23"/>
	<polyline class="st8" points="32.34,141.68 39.51,149.66 46.68,141.68 	"/>
	<polyline class="st8" points="32.34,136.26 39.51,128.27 46.68,136.26 	"/>
	<polyline class="st9" points="642.66,284.35 652.49,295.31 662.33,284.35 	"/>
	<g>
		<defs>
			<rect id="SVGID_00000026870418601537660270000017068448174566793913_" width="1250" height="1250"/>
		</defs>
		<clipPath id="SVGID_00000043439784145090042570000006000118911536094848_">
			<use xlink:href="#SVGID_00000026870418601537660270000017068448174566793913_"  style="overflow:visible;"/>
		</clipPath>
		<path style="clip-path:url(#SVGID_00000043439784145090042570000006000118911536094848_);fill:#FFFFFF;" d="M214.7,384.67
			l-0.46-1.44c-0.72,0.36-1.85,0.87-3.19,0.87s-3.04-0.82-3.04-4.99v-13.17h5.45c0.62-0.36,0.77-1.6,0.36-2.01h-5.81v-3.04
			c0-6.58-3.34-8.54-7.72-8.54c-4.53,0-8.02,3.19-8.02,7.71c0,1.29,0.31,2.32,0.82,3.29c-0.31-0.05-0.72-0.05-1.24-0.05
			c-4.78,0-7.92,3.09-7.92,6.69c0,3.7,3.19,5.56,6.22,6.89c2.67,1.23,4.22,2.57,4.22,4.84c0,2.42-1.8,3.6-3.7,3.6
			c-3.09,0-5.5-3.03-6.48-6.48l-1.34,0.2c0.05,1.9,0.46,5.25,0.77,6.12c0.88,0.82,3.34,1.85,6.07,1.85c4.17,0,8.59-2.37,8.59-7.1
			c0-3.55-2.68-5.4-6.53-7.05c-2.37-1.03-4.22-2.26-4.22-4.48c0-1.9,1.34-3.45,3.4-3.45c2.26,0,3.65,1.75,4.58,4.01l1.44-0.41
			c-0.21-1.23-0.62-3.29-1.03-4.37c-0.26-0.15-0.51-0.31-0.82-0.41c-0.51-1.08-0.67-1.9-0.67-3.24c0-3.76,2.01-5.86,4.84-5.86
			c3.5-0.05,4.73,2.37,4.73,6.38v2.88h-2.11l-1.44,1.44l0.26,0.57H204v14.97c0,4.06,1.8,6.12,5.04,6.12c0.46,0,1.18-0.15,2.06-0.57
			L214.7,384.67z"/>
		<path style="clip-path:url(#SVGID_00000043439784145090042570000006000118911536094848_);fill:#FFFFFF;" d="M344.33,382
			c-0.98,0.98-2.78,1.9-4.11,1.9c-1.6,0-3.65-1.23-3.65-3.91c0-1.85,1.13-2.88,3.14-3.75c1.08-0.52,3.55-1.65,4.63-2.21V382z
			 M344.33,372.38c-1.13,0.93-4.94,2.26-8.02,3.29c-2.83,0.98-4.17,2.57-4.17,5.09c0,3.24,2.52,6.28,6.22,6.28
			c1.49,0,4.01-2.01,6.02-3.4c0.57,2.52,2.73,3.4,6.64,3.4c3.81,0,7.36-0.87,9.51-2.98c1.44-1.44,2.06-2.93,2.06-4.17
			c0-1.34-0.67-1.96-1.18-1.96c-0.62,0-1.7,0.77-2.06,1.39c-0.15,0.15-0.21,0.41-0.1,0.72c0.15,0.41,0.41,1.08,0.41,1.75
			c0,1.65-1.6,2.88-5.66,2.88c-4.83,0-5.71-1.44-5.71-4.58v-9.21c0-2.67-0.46-4.68-2.26-6.22c-1.13-0.87-2.73-1.34-4.22-1.34
			c-2.93,0.62-6.22,2.52-7.71,3.55c-1.03,0.72-1.6,1.34-1.6,2.11c0,1.18,1.29,2.21,2.21,2.21c0.72,0,1.29-0.36,1.54-1.24
			c0.46-1.54,0.88-2.62,1.54-3.29c0.51-0.62,1.29-1.13,2.26-1.13c2.67,0,4.27,2.11,4.27,5.86V372.38z M323.24,382.1
			c-0.98,0.93-2.78,1.8-4.11,1.85c-1.59,0-3.65-1.29-3.65-3.96c0-1.85,1.13-2.83,3.14-3.75c1.08-0.52,3.55-1.59,4.63-2.16V382.1z
			 M331.37,384.41l-0.51-1.34c-0.52,0.31-1.24,0.57-1.85,0.57c-0.88,0-1.8-0.77-1.8-3.09v-9.57c0-2.67-0.52-4.78-2.32-6.27
			c-1.13-0.93-2.67-1.39-4.22-1.39c-2.93,0.57-6.28,2.57-7.71,3.6c-0.98,0.72-1.65,1.29-1.65,2.06c0,1.18,1.34,2.21,2.26,2.21
			c0.72,0,1.29-0.36,1.49-1.18c0.41-1.59,0.87-2.73,1.54-3.4c0.51-0.62,1.29-1.03,2.31-1.03c2.57,0,4.32,2.11,4.32,5.81v0.92
			c-1.13,0.93-4.89,2.32-7.97,3.34c-2.83,0.98-4.17,2.57-4.17,5.09c0,3.24,2.52,6.28,6.17,6.28c1.54,0,4.01-1.9,6.07-3.29
			c0.26,0.88,0.57,1.59,1.23,2.32c0.57,0.51,1.65,0.98,2.42,0.98L331.37,384.41z"/>
		<path style="clip-path:url(#SVGID_00000043439784145090042570000006000118911536094848_);fill:#FFFFFF;" d="M629.5,375.87
			c-0.87,0.87-2.48,1.7-3.67,1.7c-1.42,0-3.26-1.1-3.26-3.49c0-1.65,1.01-2.57,2.8-3.35c0.97-0.46,3.17-1.47,4.13-1.97V375.87z
			 M629.5,367.28c-1.01,0.83-4.41,2.02-7.17,2.94c-2.53,0.87-3.72,2.3-3.72,4.55c0,2.89,2.25,5.6,5.56,5.6
			c1.33,0,3.58-1.79,5.37-3.03c0.51,2.25,2.43,3.03,5.92,3.03c3.4,0,6.57-0.78,8.5-2.66c1.29-1.29,1.84-2.62,1.84-3.72
			c0-1.19-0.6-1.74-1.06-1.74c-0.55,0-1.52,0.69-1.84,1.24c-0.14,0.14-0.18,0.37-0.09,0.64c0.14,0.37,0.37,0.96,0.37,1.56
			c0,1.47-1.42,2.57-5.05,2.57c-4.32,0-5.1-1.29-5.1-4.09v-8.22c0-2.39-0.41-4.18-2.02-5.56c-1.01-0.78-2.43-1.19-3.77-1.19
			c-2.62,0.55-5.56,2.25-6.89,3.17c-0.92,0.64-1.42,1.2-1.42,1.88c0,1.06,1.15,1.97,1.97,1.97c0.64,0,1.15-0.32,1.38-1.1
			c0.41-1.38,0.78-2.34,1.38-2.94c0.46-0.55,1.15-1.01,2.02-1.01c2.39,0,3.81,1.88,3.81,5.24V367.28z"/>
		<path style="clip-path:url(#SVGID_00000043439784145090042570000006000118911536094848_);fill:#FFFFFF;" d="M270.38,354.78
			c-0.77,1.85-2.01,7.46-2.83,11.11l-1.13,4.94h-7.97c3.65-7.61,7.2-14.61,11.68-16.05H270.38z M266.83,354.63
			c-0.87,0.46-2.42,1.23-3.76,3.09c-1.59,2.11-4.01,6.69-6.43,11.73c-4.99,10.18-9.31,17.03-16,17.03c-2.68,0-4.32-0.93-5.71-2.52
			l-0.41,0.26c-0.05,1.08,0.41,3.91,1.44,4.89c0.72,0.77,1.85,1.29,3.45,1.23c2.88-0.05,6.64-1.44,11.01-6.43
			c2.26-2.57,4.47-6.07,6.79-10.6c3.91,0,6.89-0.05,8.9-0.46c-0.93,4.17-1.85,8.79-2.32,10.75c-0.31,1.34-0.82,2.01-1.75,2.32
			l-0.2,1.44c2.73-0.52,6.79-1.03,10.54-1.34l0.46-1.39l-2.57-0.31c-1.8-0.21-2.06-0.51-1.75-2.67c0.31-2.16,0.82-5.09,1.6-9.15
			c1.9-10.03,3.5-17.9,4.63-20.78l-0.36-0.1c-1.49,0.41-3.19,1.08-4.42,1.44c-0.93,0-2.31-0.05-3.96-0.1
			c-1.65-0.05-2.78-0.05-4.22-0.05c-10.39,0-16.87,4.22-16.92,10.03c0,1.6,0.57,3.55,2.06,4.58c0.51,0.46,0.87,0.21,0.87-0.15
			c0-0.52-0.05-1.29-0.05-2.01c0.05-2.67,1.13-5.35,3.45-7.36c2.37-2.06,6.69-3.29,12.5-3.34H266.83z"/>
		<path style="clip-path:url(#SVGID_00000043439784145090042570000006000118911536094848_);fill:#FFFFFF;" d="M491.21,369.65v-2.4
			h-1.98c-0.48,0-0.88-0.09-1.21-0.26c-0.33-0.17-0.59-0.48-0.78-0.94c-0.19-0.46-0.29-1.12-0.29-1.98v-7.98h4.26v-2.4h-4.59
			c0.14-0.1,0.24-0.25,0.32-0.45s0.11-0.46,0.11-0.78v-2.76h-2.82v2.25c0,0.7-0.12,1.16-0.35,1.39c-0.23,0.23-0.54,0.35-0.91,0.35
			h-2.85v2.4h3.78v8.46c0,1.22,0.23,2.21,0.68,2.97c0.45,0.76,1.03,1.3,1.75,1.63c0.72,0.33,1.5,0.49,2.34,0.49H491.21z
			 M476.08,369.41c0.97-0.4,1.71-0.95,2.22-1.65c0.51-0.7,0.76-1.5,0.76-2.4v-0.18c0-0.98-0.25-1.78-0.75-2.41
			c-0.5-0.63-1.13-1.11-1.89-1.45c-0.76-0.34-1.62-0.6-2.58-0.78l-2.91-0.57c-0.64-0.12-1.11-0.35-1.42-0.69
			c-0.31-0.34-0.46-0.75-0.46-1.23v-0.12v-0.03c0.02-0.7,0.33-1.23,0.95-1.6c0.61-0.37,1.35-0.55,2.23-0.55c0.7,0,1.3,0.14,1.81,0.4
			c0.51,0.27,0.91,0.66,1.21,1.15c0.3,0.5,0.48,1.08,0.54,1.74h0.27h2.64h0.18c-0.12-1.18-0.48-2.2-1.06-3.06
			c-0.59-0.86-1.36-1.52-2.32-1.96c-0.96-0.45-2.05-0.67-3.27-0.67c-1.32,0-2.45,0.2-3.39,0.6s-1.65,0.94-2.13,1.63
			c-0.48,0.69-0.72,1.47-0.72,2.35v0.12c0,0.12,0,0.23,0.02,0.34c0.01,0.11,0.02,0.22,0.05,0.32c0.1,0.66,0.34,1.23,0.73,1.71
			c0.39,0.48,0.87,0.86,1.44,1.14c0.57,0.28,1.2,0.5,1.9,0.66l3.12,0.69c0.6,0.14,1.09,0.29,1.48,0.47
			c0.39,0.17,0.69,0.41,0.91,0.72c0.22,0.31,0.33,0.7,0.33,1.15v0.12c0,0.52-0.13,0.95-0.39,1.29c-0.26,0.34-0.64,0.6-1.12,0.77
			s-1.08,0.26-1.78,0.26c-0.76,0-1.42-0.15-1.99-0.43c-0.57-0.29-1.02-0.67-1.35-1.14c-0.33-0.47-0.55-1-0.65-1.58
			c-0.02-0.02-0.03-0.04-0.03-0.06v-0.06h-0.27h-2.61h-0.21c0.24,1.06,0.62,2.01,1.15,2.83c0.53,0.83,1.29,1.5,2.26,2.01
			c0.98,0.51,2.21,0.77,3.69,0.77C473.98,370.01,475.12,369.81,476.08,369.41 M457.86,349.02l-9.67,5.56v5.35l8.69-4.32v31.17h5.35
			v-37.76H457.86z"/>
		<path style="clip-path:url(#SVGID_00000043439784145090042570000006000118911536094848_);fill:#FFFFFF;" d="M557.5,367.64
			c-1.22-1.23-2.82-1.85-4.81-1.85c-2.23,0-3.96,0.7-5.2,2.08c-1.23,1.39-1.85,3.06-1.85,5.01h2.98c0-1.37,0.33-2.47,0.98-3.29
			s1.68-1.23,3.09-1.23c1.27,0,2.19,0.35,2.78,1.05c0.58,0.7,0.88,1.69,0.88,2.96c0,1.13-0.35,2.04-1.05,2.73
			c-0.7,0.69-1.81,1.51-3.32,2.47c-1.82,1.13-3.26,2.2-4.32,3.21c-1.06,1.01-1.82,2.38-2.26,4.09v1.9h13.94v-2.57h-10.8
			c0.24-0.79,0.73-1.47,1.47-2.06c0.74-0.58,1.79-1.27,3.16-2.06c1.37-0.79,2.45-1.47,3.24-2.06c0.79-0.58,1.47-1.33,2.06-2.24
			c0.58-0.91,0.87-2,0.87-3.27C559.33,370.51,558.72,368.88,557.5,367.64 M528.67,386.78h3.19l13.94-37.76h-3.29L528.67,386.78z
			 M524.92,349.02l-6.02,3.45v2.62l5.19-2.73l-0.05,16.98h2.98l0.05-20.32H524.92z"/>
	</g>
	<polygon class="st11" points="395.18,349.02 394.21,353.65 406.45,353.65 399.4,386.78 404.75,386.78 411.8,353.65 424.04,353.65 
		425.02,349.02 	"/>
	<polygon class="st11" points="406.09,349.02 405.11,353.65 417.35,353.65 410.31,386.78 415.66,386.78 422.7,353.65 434.95,353.65 
		435.92,349.02 	"/>
	<polygon class="st11" points="665.44,383.27 660.3,388.36 655.17,383.27 	"/>
	<rect x="611.68" y="353.58" class="st11" width="2.34" height="33.2"/>
	<rect x="604.78" y="347.73" class="st11" width="2.34" height="33.2"/>
	<rect x="604.78" y="347.73" class="st11" width="37.75" height="2.34"/>
	<rect x="611.68" y="353.58" class="st11" width="39.71" height="2.34"/>
	<rect x="611.68" y="384.44" class="st11" width="39.71" height="2.34"/>
	<rect x="649.05" y="353.58" class="st11" width="2.34" height="33.2"/>
	<g>
		<defs>
			<rect id="SVGID_00000142147427158913392820000014948745734444667814_" width="1250" height="1250"/>
		</defs>
		<clipPath id="SVGID_00000047027362404187596900000015764235702358411446_">
			<use xlink:href="#SVGID_00000142147427158913392820000014948745734444667814_"  style="overflow:visible;"/>
		</clipPath>
		<path style="clip-path:url(#SVGID_00000047027362404187596900000015764235702358411446_);fill:#FFFFFF;" d="M140.9,218.89
			c-0.27-0.27-0.61-0.41-1-0.41c-0.39,0-0.73,0.14-1,0.41c-0.27,0.28-0.41,0.61-0.41,1c0,0.4,0.14,0.73,0.41,1.02
			c0.27,0.28,0.61,0.43,1,0.43c0.39,0,0.73-0.14,1-0.43c0.27-0.28,0.41-0.62,0.41-1.02C141.32,219.5,141.18,219.17,140.9,218.89
			 M140.9,228.82c-0.27-0.27-0.61-0.41-1-0.41c-0.39,0-0.73,0.14-1,0.41s-0.41,0.61-0.41,1c0,0.39,0.14,0.73,0.41,1.02
			c0.27,0.28,0.61,0.42,1,0.42c0.39,0,0.73-0.14,1-0.42c0.27-0.28,0.41-0.62,0.41-1.02C141.32,229.43,141.18,229.09,140.9,228.82
			 M126.81,219.66c0.55,0.39,0.95,0.87,1.21,1.44c0.26,0.57,0.39,1.11,0.41,1.65v0.05v0.05h-0.05h-7.79h-0.1v-0.04v-0.04
			c0.1-0.67,0.32-1.28,0.66-1.84c0.33-0.56,0.8-1.01,1.4-1.35c0.6-0.34,1.32-0.52,2.16-0.52
			C125.56,219.07,126.26,219.27,126.81,219.66 M122.44,228.69c-0.64-0.38-1.12-0.88-1.44-1.52c-0.33-0.64-0.5-1.35-0.51-2.13v-0.13
			h0.13h10.44v-1.18c0-1.34-0.28-2.52-0.85-3.54c-0.56-1.02-1.33-1.8-2.3-2.35c-0.97-0.55-2.04-0.82-3.2-0.82
			c-1.34,0-2.52,0.29-3.55,0.87c-1.03,0.58-1.83,1.41-2.41,2.47c-0.57,1.06-0.87,2.29-0.89,3.68v0.13c0,1.25,0.25,2.42,0.74,3.51
			c0.5,1.09,1.26,1.97,2.29,2.64c1.03,0.67,2.3,1,3.81,1c0.99,0,1.93-0.18,2.8-0.53c0.87-0.35,1.62-0.89,2.24-1.61
			c0.62-0.72,1.03-1.61,1.23-2.68h-0.13h-2.39h-0.1v0.04c0,0.01-0.01,0.02-0.03,0.04c-0.14,0.79-0.51,1.43-1.12,1.93
			c-0.61,0.5-1.44,0.75-2.51,0.75C123.83,229.26,123.07,229.07,122.44,228.69 M113.32,217.35c-0.52,0.22-0.96,0.52-1.31,0.89
			c-0.35,0.37-0.62,0.78-0.81,1.22v-2.14h-2.62V231h2.62v-7.64v-0.35c0-0.11,0.01-0.22,0.03-0.32c0.07-0.74,0.26-1.38,0.57-1.93
			c0.31-0.55,0.71-0.97,1.21-1.26c0.5-0.29,1.05-0.44,1.65-0.44h1.75v-2.06h-1.29C114.44,217.01,113.84,217.13,113.32,217.35
			 M101.81,230.9c0.58-0.27,1-0.56,1.26-0.86c0.26-0.3,0.44-0.58,0.54-0.84v1.8h2.65v-13.68h-2.65v7.25v0.04v0.04
			c-0.02,0.82-0.16,1.58-0.42,2.26c-0.27,0.69-0.67,1.23-1.22,1.63c-0.55,0.4-1.23,0.6-2.03,0.6c-0.67,0-1.22-0.14-1.66-0.41
			c-0.44-0.27-0.76-0.67-0.96-1.18c-0.21-0.51-0.32-1.13-0.33-1.85v-0.05v-0.05v-8.28h-2.65v8.64c0,1.2,0.24,2.2,0.73,3.01
			c0.49,0.81,1.13,1.4,1.92,1.77c0.79,0.38,1.65,0.57,2.57,0.57C100.48,231.31,101.23,231.18,101.81,230.9 M82.2,228.64
			c-0.63-0.41-1.11-0.99-1.47-1.75c-0.35-0.76-0.54-1.63-0.55-2.62v-0.21v-0.05v-0.05c0.02-0.98,0.2-1.84,0.55-2.57
			c0.35-0.74,0.84-1.31,1.47-1.71c0.62-0.4,1.34-0.6,2.15-0.6c0.87,0,1.64,0.2,2.29,0.59c0.65,0.39,1.15,0.96,1.5,1.7
			c0.35,0.74,0.54,1.6,0.55,2.6v0.05v0.05v0.21v0.12v0.12c-0.05,0.91-0.26,1.72-0.62,2.44c-0.36,0.72-0.86,1.29-1.5,1.7
			c-0.64,0.41-1.39,0.62-2.22,0.62C83.54,229.26,82.83,229.05,82.2,228.64 M88.03,236.13c1.01-0.45,1.8-1.12,2.37-1.99
			c0.57-0.87,0.85-1.92,0.85-3.14v-13.68h-2.68v1.75c-0.33-0.43-0.7-0.79-1.13-1.09c-0.43-0.3-0.92-0.53-1.48-0.71
			c-0.56-0.17-1.18-0.26-1.86-0.26c-1.22,0-2.33,0.3-3.33,0.89c-1,0.59-1.8,1.42-2.38,2.49c-0.58,1.07-0.87,2.29-0.87,3.66v0.21
			c0,1.35,0.29,2.57,0.87,3.64c0.58,1.07,1.36,1.91,2.33,2.51c0.97,0.6,2.01,0.9,3.13,0.9c0.79,0,1.5-0.11,2.15-0.35
			c0.64-0.23,1.18-0.52,1.61-0.86c0.43-0.34,0.75-0.7,0.98-1.05V231v0.02c0,0.93-0.15,1.66-0.46,2.21s-0.75,0.94-1.34,1.17
			c-0.58,0.23-1.33,0.35-2.24,0.35c-0.77,0-1.44-0.11-2.02-0.32c-0.57-0.22-1.04-0.53-1.39-0.94c-0.35-0.41-0.59-0.92-0.71-1.52
			c0-0.02,0-0.04-0.01-0.05c-0.01-0.02-0.01-0.03-0.01-0.05h-0.28h-1.88h-0.31c0.17,1.11,0.59,2.04,1.25,2.78
			c0.66,0.74,1.46,1.28,2.39,1.63c0.93,0.35,1.92,0.53,2.97,0.53C85.85,236.82,87.02,236.59,88.03,236.13 M74.19,212.67
			c-0.15-0.26-0.36-0.46-0.62-0.62c-0.26-0.15-0.54-0.23-0.85-0.23c-0.31,0-0.59,0.08-0.85,0.23c-0.26,0.16-0.46,0.36-0.62,0.62
			c-0.15,0.26-0.23,0.54-0.23,0.85c0,0.31,0.08,0.6,0.23,0.88c0.15,0.27,0.36,0.49,0.62,0.64c0.26,0.15,0.54,0.23,0.85,0.23
			c0.31,0,0.59-0.08,0.85-0.23c0.26-0.16,0.46-0.37,0.62-0.64c0.15-0.27,0.23-0.57,0.23-0.88
			C74.42,213.21,74.35,212.92,74.19,212.67 M74.06,217.35h-2.68V231h2.68V217.35z M68.59,214.44v-2.31H55.57V231h2.67v-8.31h8.69
			v-2.32h-8.69v-5.94H68.59z"/>
		<path style="clip-path:url(#SVGID_00000047027362404187596900000015764235702358411446_);fill:#FFFFFF;" d="M140.91,286.74
			c-0.27-0.27-0.61-0.41-1-0.41c-0.4,0-0.73,0.14-1,0.41c-0.27,0.27-0.41,0.61-0.41,1c0,0.4,0.14,0.73,0.41,1.02
			c0.27,0.28,0.61,0.42,1,0.42c0.39,0,0.73-0.14,1-0.42c0.27-0.28,0.41-0.62,0.41-1.02C141.32,287.35,141.18,287.01,140.91,286.74
			 M140.91,296.67c-0.27-0.27-0.61-0.41-1-0.41c-0.4,0-0.73,0.14-1,0.41c-0.27,0.27-0.41,0.61-0.41,1c0,0.4,0.14,0.73,0.41,1.02
			c0.27,0.28,0.61,0.42,1,0.42c0.39,0,0.73-0.14,1-0.42c0.27-0.28,0.41-0.62,0.41-1.02C141.32,297.27,141.18,296.94,140.91,296.67
			 M123.55,285.27c-0.58,0.27-1,0.56-1.26,0.86c-0.26,0.3-0.44,0.58-0.54,0.84v-1.8h-2.65v13.68h2.65v-7.25v-0.04v-0.04
			c0.02-0.82,0.16-1.58,0.42-2.26c0.27-0.68,0.67-1.23,1.22-1.63c0.55-0.4,1.22-0.6,2.03-0.6c0.67,0,1.22,0.14,1.66,0.41
			c0.44,0.28,0.76,0.67,0.97,1.18c0.21,0.51,0.32,1.13,0.33,1.85v0.05v0.05v8.28h2.65v-8.64c0-1.2-0.24-2.2-0.73-3.01
			c-0.49-0.81-1.13-1.4-1.92-1.78c-0.79-0.38-1.65-0.57-2.57-0.57S124.13,285,123.55,285.27 M106.87,296.42
			c-0.64-0.45-1.13-1.06-1.47-1.81c-0.34-0.75-0.52-1.56-0.55-2.42v-0.18c0-0.87,0.16-1.7,0.49-2.48c0.33-0.78,0.81-1.41,1.47-1.89
			c0.65-0.48,1.44-0.72,2.37-0.72c0.89,0,1.66,0.23,2.3,0.68c0.64,0.46,1.13,1.06,1.47,1.81c0.33,0.75,0.52,1.56,0.55,2.42v0.18
			c0,0.88-0.16,1.7-0.49,2.48c-0.33,0.78-0.81,1.41-1.47,1.89c-0.65,0.48-1.44,0.72-2.37,0.72
			C108.28,297.1,107.51,296.88,106.87,296.42 M112.77,298.21c1.06-0.63,1.89-1.49,2.48-2.58c0.59-1.09,0.89-2.29,0.89-3.61v-0.13
			c-0.02-1.3-0.33-2.49-0.93-3.55c-0.6-1.06-1.43-1.91-2.48-2.53c-1.05-0.62-2.24-0.94-3.56-0.94c-1.34,0-2.54,0.32-3.6,0.95
			c-1.06,0.64-1.89,1.5-2.48,2.59c-0.59,1.09-0.89,2.29-0.89,3.61v0.13c0.02,1.3,0.32,2.49,0.93,3.55c0.6,1.06,1.43,1.91,2.48,2.53
			c1.06,0.63,2.24,0.94,3.56,0.94C110.51,299.16,111.71,298.84,112.77,298.21 M99.14,280.51c-0.15-0.26-0.36-0.46-0.62-0.62
			c-0.26-0.15-0.54-0.23-0.85-0.23c-0.31,0-0.59,0.08-0.85,0.23c-0.26,0.15-0.46,0.36-0.62,0.62c-0.15,0.26-0.23,0.54-0.23,0.85
			c0,0.31,0.08,0.6,0.23,0.87c0.15,0.28,0.36,0.49,0.62,0.64c0.26,0.15,0.54,0.23,0.85,0.23c0.31,0,0.59-0.08,0.85-0.23
			c0.26-0.15,0.46-0.37,0.62-0.64c0.15-0.27,0.23-0.57,0.23-0.87C99.37,281.05,99.29,280.77,99.14,280.51 M99.01,285.2h-2.68v13.66
			h2.68V285.2z M93.82,298.85v-2.06h-1.7c-0.41,0-0.76-0.07-1.04-0.22c-0.28-0.14-0.51-0.41-0.67-0.81
			c-0.16-0.39-0.24-0.96-0.24-1.7v-6.84h3.65v-2.06h-3.94c0.12-0.08,0.21-0.21,0.27-0.39c0.06-0.17,0.09-0.39,0.09-0.67v-2.37h-2.42
			v1.93c0,0.6-0.1,1-0.29,1.2c-0.2,0.2-0.46,0.3-0.79,0.3H84.3v2.06h3.24v7.25c0,1.05,0.19,1.9,0.58,2.55
			c0.39,0.65,0.89,1.12,1.51,1.4c0.62,0.28,1.29,0.42,2.01,0.42H93.82z M81.5,280.51c-0.15-0.26-0.36-0.46-0.62-0.62
			c-0.26-0.15-0.54-0.23-0.85-0.23c-0.31,0-0.59,0.08-0.85,0.23c-0.26,0.15-0.46,0.36-0.62,0.62c-0.16,0.26-0.23,0.54-0.23,0.85
			c0,0.31,0.08,0.6,0.23,0.87c0.15,0.28,0.36,0.49,0.62,0.64c0.26,0.15,0.54,0.23,0.85,0.23c0.31,0,0.59-0.08,0.85-0.23
			c0.26-0.15,0.46-0.37,0.62-0.64c0.15-0.27,0.23-0.57,0.23-0.87C81.73,281.05,81.65,280.77,81.5,280.51 M81.37,285.2h-2.67v13.66
			h2.67V285.2z M72.69,298.65c0.83-0.34,1.47-0.82,1.9-1.42c0.44-0.6,0.66-1.29,0.66-2.06v-0.15c0-0.84-0.21-1.53-0.64-2.07
			c-0.43-0.54-0.97-0.96-1.62-1.25c-0.65-0.29-1.39-0.52-2.21-0.67l-2.49-0.49c-0.55-0.1-0.96-0.3-1.22-0.59
			c-0.27-0.29-0.4-0.64-0.4-1.05v-0.1v-0.03c0.02-0.6,0.29-1.06,0.81-1.38c0.52-0.32,1.16-0.48,1.92-0.48c0.6,0,1.12,0.12,1.55,0.35
			c0.44,0.23,0.79,0.56,1.04,0.99c0.26,0.43,0.41,0.93,0.46,1.49h0.23h2.26h0.15c-0.1-1.01-0.41-1.89-0.91-2.62
			c-0.51-0.74-1.17-1.3-1.99-1.68c-0.82-0.39-1.76-0.58-2.8-0.58c-1.13,0-2.1,0.17-2.91,0.51c-0.81,0.34-1.41,0.81-1.83,1.4
			c-0.41,0.59-0.62,1.26-0.62,2.02v0.1c0,0.1,0,0.2,0.01,0.3c0.01,0.09,0.02,0.18,0.04,0.27c0.08,0.57,0.29,1.05,0.63,1.47
			c0.33,0.41,0.75,0.74,1.23,0.98c0.49,0.24,1.03,0.43,1.63,0.57l2.67,0.59c0.51,0.12,0.94,0.25,1.27,0.4
			c0.33,0.15,0.6,0.35,0.78,0.62c0.19,0.27,0.28,0.6,0.28,0.99v0.1c0,0.45-0.11,0.81-0.33,1.11c-0.22,0.29-0.54,0.51-0.96,0.66
			c-0.42,0.15-0.93,0.22-1.53,0.22c-0.65,0-1.22-0.12-1.71-0.37c-0.49-0.25-0.87-0.57-1.16-0.98c-0.28-0.4-0.47-0.85-0.55-1.35
			c-0.02-0.02-0.03-0.03-0.03-0.05v-0.05h-0.23h-2.24h-0.18c0.21,0.91,0.54,1.72,0.99,2.43c0.45,0.71,1.1,1.29,1.94,1.72
			c0.84,0.44,1.89,0.66,3.16,0.66C70.88,299.16,71.86,298.99,72.69,298.65 M51.57,296.42c-0.64-0.45-1.13-1.06-1.47-1.81
			c-0.34-0.75-0.52-1.56-0.55-2.42v-0.18c0-0.87,0.16-1.7,0.49-2.48c0.33-0.78,0.81-1.41,1.47-1.89c0.65-0.48,1.44-0.72,2.37-0.72
			c0.89,0,1.66,0.23,2.3,0.68c0.64,0.46,1.13,1.06,1.47,1.81c0.33,0.75,0.52,1.56,0.55,2.42v0.18c0,0.88-0.16,1.7-0.49,2.48
			c-0.33,0.78-0.81,1.41-1.47,1.89c-0.65,0.48-1.44,0.72-2.37,0.72C52.98,297.1,52.22,296.88,51.57,296.42 M57.48,298.21
			c1.06-0.63,1.89-1.49,2.48-2.58c0.59-1.09,0.89-2.29,0.89-3.61v-0.13c-0.02-1.3-0.33-2.49-0.93-3.55
			c-0.6-1.06-1.43-1.91-2.48-2.53c-1.05-0.62-2.24-0.94-3.56-0.94c-1.34,0-2.54,0.32-3.6,0.95c-1.06,0.64-1.89,1.5-2.48,2.59
			c-0.59,1.09-0.89,2.29-0.89,3.61v0.13c0.02,1.3,0.33,2.49,0.93,3.55c0.6,1.06,1.43,1.91,2.48,2.53c1.06,0.63,2.24,0.94,3.56,0.94
			C55.21,299.16,56.41,298.84,57.48,298.21 M38.5,282.29c1.29,0,2.22,0.31,2.8,0.94c0.58,0.63,0.88,1.43,0.88,2.4v0.15
			c0,0.6-0.11,1.15-0.33,1.65c-0.22,0.5-0.6,0.91-1.12,1.24c-0.52,0.33-1.2,0.51-2.02,0.54H38.5h-4.55v-6.92H38.5z M31.27,279.97
			v18.88h2.68v-7.33h4.71c1.15,0,2.2-0.27,3.15-0.8c0.95-0.53,1.7-1.23,2.24-2.11c0.54-0.87,0.81-1.81,0.81-2.8v-0.18
			c0-1.32-0.33-2.4-0.98-3.25c-0.65-0.85-1.45-1.46-2.39-1.84c-0.94-0.38-1.89-0.57-2.83-0.57H31.27z"/>
		<path style="clip-path:url(#SVGID_00000047027362404187596900000015764235702358411446_);fill:#3C3C3B;" d="M34.23,336.85
			c-4.18,0-7.57,3.39-7.57,7.57v50.75c0,4.18,3.39,7.56,7.57,7.56h50.74c4.18,0,7.57-3.38,7.57-7.56v-50.75
			c0-4.18-3.39-7.57-7.57-7.57H34.23z"/>
	</g>
	<rect x="96.81" y="336.85" width="65.88" height="65.88"/>
	<g>
		<defs>
			<rect id="SVGID_00000023245916597523374800000013440259077365083815_" width="1250" height="1250"/>
		</defs>
		<clipPath id="SVGID_00000093158482864969629340000000247764125160594305_">
			<use xlink:href="#SVGID_00000023245916597523374800000013440259077365083815_"  style="overflow:visible;"/>
		</clipPath>
		<path style="clip-path:url(#SVGID_00000093158482864969629340000000247764125160594305_);fill:#FFFFFF;" d="M66.45,386.42v-1.34
			c-3.29-0.31-3.6-0.57-3.6-3.81v-18c-2.67,0.52-5.56,0.67-9.67,0.67h-4.06v-1.75c0-4.11,0.72-6.74,1.7-8.07
			c0.67-0.98,1.7-1.8,3.19-1.8c2.47,0,4.22,1.65,5.35,2.98c0.41,0.46,0.87,0.46,1.49,0.1c0.46-0.31,0.88-0.82,1.13-1.29
			c0.21-0.57,0.21-1.18-0.26-1.85c-0.57-0.82-2.32-2.37-5.45-2.47c-1.9,0.21-4.27,1.13-6.38,2.83c-2.78,2.21-3.86,4.83-4.22,6.12
			c-0.36,1.08-0.57,2.37-0.57,3.96v1.23h-2.52l-1.44,1.44l0.26,0.57h3.7v15.33c0,3.19-0.46,3.45-3.65,3.81v1.34h11.26v-1.34
			c-3.24-0.31-3.6-0.62-3.6-3.81v-15.33h7.05c2.47,0,2.62,0.41,2.62,2.73v12.6c0,3.24-0.36,3.55-3.24,3.81v1.34H66.45z"/>
		<path style="clip-path:url(#SVGID_00000093158482864969629340000000247764125160594305_);fill:#FFFFFF;" d="M147.42,360.02
			c3.54,0,5.92-4.64,5.92-4.64l-1.04-1.74c0,0-2.09,3.48-4.87,3.48c-4.85,0-6.67-5.46-11.62-5.46c-13.8,0-24.35,19.72-24.35,19.72
			l0.35,2.67c0,0,2.56-4.09,4.22-4.78c-1.29,2.3-2.01,4.97-2.01,8.49c0,4.41,3.05,9.39,9.82,9.39c12.76,0,20.58-16.29,20.58-23.71
			c0-3.06-0.39-4.35-0.39-4.35S145.32,360.02,147.42,360.02 M139.88,358.98c0,9.29-6.41,26.5-13.84,26.5c-2.73,0-4.03-2.08-4.03-6.3
			c0-9.06,5.33-26.25,13.27-26.25C139.06,352.92,139.88,357.24,139.88,358.98"/>
	</g>
	<polyline class="st11" points="354.17,345.51 361.48,353.34 354.17,361.17 	"/>
	<rect x="311.44" y="351.97" class="st11" width="43.9" height="2.73"/>
	<g>
		<defs>
			<rect id="SVGID_00000075845656694555944360000012147683420947681685_" width="1250" height="1250"/>
		</defs>
		<clipPath id="SVGID_00000095319207571037703000000002109815148399327641_">
			<use xlink:href="#SVGID_00000075845656694555944360000012147683420947681685_"  style="overflow:visible;"/>
		</clipPath>
		<path style="clip-path:url(#SVGID_00000095319207571037703000000002109815148399327641_);" d="M335.65,219.66
			c0.55,0.4,0.95,0.88,1.21,1.44c0.26,0.57,0.39,1.11,0.41,1.65v0.05v0.05h-0.05h-7.79h-0.1v-0.04v-0.04
			c0.1-0.67,0.32-1.28,0.66-1.84c0.33-0.56,0.8-1.01,1.4-1.35c0.6-0.34,1.32-0.51,2.16-0.51
			C334.39,219.07,335.1,219.27,335.65,219.66 M331.27,228.69c-0.64-0.38-1.12-0.88-1.44-1.52c-0.33-0.63-0.5-1.35-0.51-2.14v-0.13
			h0.13h10.44v-1.18c0-1.34-0.28-2.52-0.85-3.54c-0.57-1.02-1.33-1.8-2.3-2.35c-0.97-0.55-2.04-0.82-3.2-0.82
			c-1.34,0-2.52,0.29-3.55,0.88c-1.03,0.58-1.83,1.41-2.4,2.47c-0.58,1.06-0.87,2.29-0.89,3.68v0.13c0,1.25,0.25,2.42,0.75,3.51
			c0.5,1.09,1.26,1.97,2.29,2.64c1.03,0.67,2.3,1,3.81,1c0.99,0,1.93-0.18,2.8-0.53c0.88-0.35,1.62-0.89,2.24-1.61
			c0.62-0.72,1.03-1.61,1.23-2.67h-0.13h-2.39h-0.1v0.04c0,0.01-0.01,0.02-0.03,0.04c-0.14,0.79-0.51,1.43-1.12,1.93
			c-0.61,0.5-1.44,0.75-2.51,0.75C332.66,229.26,331.91,229.07,331.27,228.69 M322.16,217.35c-0.52,0.22-0.96,0.52-1.31,0.89
			c-0.35,0.37-0.62,0.78-0.81,1.22v-2.13h-2.62V231h2.62v-7.64v-0.35c0-0.11,0.01-0.22,0.03-0.32c0.07-0.74,0.26-1.38,0.57-1.93
			c0.31-0.55,0.71-0.97,1.21-1.26c0.5-0.29,1.05-0.44,1.65-0.44h1.75v-2.06h-1.29C323.28,217.01,322.68,217.13,322.16,217.35
			 M310.65,230.9c0.58-0.27,1-0.56,1.26-0.86c0.26-0.3,0.44-0.58,0.54-0.84v1.8h2.65v-13.68h-2.65v7.25v0.04v0.04
			c-0.02,0.82-0.16,1.58-0.42,2.26c-0.27,0.69-0.67,1.23-1.22,1.63c-0.55,0.4-1.23,0.6-2.03,0.6c-0.67,0-1.22-0.14-1.66-0.41
			c-0.44-0.27-0.76-0.67-0.96-1.18c-0.21-0.52-0.32-1.13-0.33-1.85v-0.05v-0.05v-8.28h-2.65v8.64c0,1.2,0.24,2.2,0.73,3.01
			c0.49,0.81,1.13,1.4,1.92,1.78c0.79,0.38,1.65,0.57,2.57,0.57C309.31,231.31,310.07,231.18,310.65,230.9 M291.04,228.64
			c-0.63-0.41-1.11-0.99-1.47-1.75c-0.35-0.75-0.54-1.63-0.55-2.62v-0.21v-0.05v-0.05c0.02-0.98,0.2-1.83,0.55-2.57
			c0.35-0.74,0.84-1.31,1.47-1.71c0.62-0.4,1.34-0.6,2.15-0.6c0.88,0,1.64,0.2,2.29,0.59c0.65,0.4,1.15,0.96,1.51,1.7
			c0.35,0.74,0.54,1.6,0.55,2.6v0.05v0.05v0.21v0.12v0.11c-0.05,0.91-0.26,1.72-0.62,2.44c-0.36,0.72-0.86,1.29-1.5,1.7
			c-0.64,0.41-1.39,0.62-2.23,0.62C292.38,229.26,291.66,229.05,291.04,228.64 M296.86,236.14c1.01-0.46,1.8-1.12,2.37-1.99
			c0.57-0.88,0.85-1.92,0.85-3.14v-13.68h-2.67v1.75c-0.33-0.43-0.7-0.79-1.13-1.09c-0.43-0.3-0.92-0.54-1.48-0.71
			c-0.56-0.17-1.18-0.26-1.87-0.26c-1.22,0-2.33,0.3-3.33,0.89c-1,0.59-1.8,1.42-2.38,2.49c-0.58,1.07-0.88,2.29-0.88,3.67v0.21
			c0,1.35,0.29,2.57,0.88,3.64c0.58,1.07,1.36,1.91,2.33,2.51c0.97,0.6,2.01,0.9,3.12,0.9c0.79,0,1.5-0.12,2.15-0.35
			c0.64-0.23,1.18-0.52,1.61-0.86c0.43-0.34,0.75-0.7,0.98-1.05V231v0.03c0,0.93-0.15,1.66-0.46,2.21
			c-0.31,0.55-0.76,0.94-1.34,1.17c-0.58,0.23-1.33,0.35-2.24,0.35c-0.77,0-1.44-0.11-2.02-0.32c-0.57-0.21-1.04-0.53-1.39-0.94
			c-0.35-0.41-0.59-0.92-0.71-1.52c0-0.02,0-0.03-0.01-0.05c-0.01-0.02-0.01-0.03-0.01-0.05h-0.28h-1.88h-0.31
			c0.17,1.11,0.59,2.04,1.25,2.78s1.46,1.28,2.39,1.63c0.93,0.35,1.92,0.53,2.97,0.53C294.69,236.82,295.85,236.59,296.86,236.14
			 M283.03,212.67c-0.15-0.26-0.36-0.46-0.62-0.62c-0.26-0.16-0.54-0.23-0.85-0.23c-0.31,0-0.59,0.08-0.85,0.23
			c-0.26,0.15-0.46,0.36-0.62,0.62c-0.15,0.26-0.23,0.54-0.23,0.85c0,0.31,0.08,0.6,0.23,0.87c0.15,0.27,0.36,0.49,0.62,0.64
			c0.26,0.15,0.54,0.23,0.85,0.23c0.31,0,0.59-0.08,0.85-0.23c0.26-0.15,0.46-0.37,0.62-0.64c0.15-0.27,0.23-0.57,0.23-0.87
			C283.26,213.21,283.18,212.92,283.03,212.67 M282.9,217.35h-2.68V231h2.68V217.35z M277.42,214.44v-2.31h-13.01V231h2.67v-8.31
			h8.69v-2.31h-8.69v-5.94H277.42z M255.69,231v-2.06h-1.7c-0.41,0-0.76-0.07-1.04-0.22c-0.28-0.15-0.51-0.42-0.67-0.81
			c-0.16-0.39-0.24-0.96-0.24-1.7v-6.84h3.65v-2.06h-3.93c0.12-0.09,0.21-0.21,0.27-0.39c0.06-0.17,0.09-0.39,0.09-0.67v-2.37h-2.42
			v1.93c0,0.6-0.1,1-0.3,1.2s-0.46,0.3-0.78,0.3h-2.44v2.06h3.24v7.25c0,1.05,0.19,1.89,0.58,2.55c0.39,0.65,0.89,1.12,1.5,1.4
			c0.62,0.28,1.29,0.42,2.01,0.42H255.69z M243.22,212.13h-2.62V231h2.62V212.13z M233.19,230.9c0.58-0.27,1-0.56,1.26-0.86
			c0.26-0.3,0.44-0.58,0.54-0.84v1.8h2.65v-13.68h-2.65v7.25v0.04v0.04c-0.02,0.82-0.16,1.58-0.42,2.26
			c-0.27,0.69-0.67,1.23-1.22,1.63c-0.55,0.4-1.23,0.6-2.03,0.6c-0.67,0-1.22-0.14-1.66-0.41c-0.44-0.27-0.76-0.67-0.96-1.18
			c-0.21-0.52-0.32-1.13-0.33-1.85v-0.05v-0.05v-8.28h-2.65v8.64c0,1.2,0.24,2.2,0.73,3.01c0.49,0.81,1.13,1.4,1.92,1.78
			c0.79,0.38,1.65,0.57,2.57,0.57C231.85,231.31,232.6,231.18,233.19,230.9 M220.53,225.37c0,0.91-0.22,1.65-0.64,2.24
			c-0.43,0.58-0.96,1-1.58,1.26c-0.63,0.26-1.23,0.39-1.81,0.39c-0.63,0-1.14-0.1-1.53-0.3c-0.39-0.2-0.66-0.45-0.81-0.74
			c-0.15-0.3-0.23-0.62-0.23-0.96c0-0.39,0.07-0.72,0.22-0.98c0.15-0.26,0.4-0.47,0.76-0.64s0.85-0.29,1.47-0.36
			c0.05,0,0.1,0,0.15-0.01c0.05-0.01,0.1-0.01,0.15-0.01c1.2-0.15,2.06-0.27,2.58-0.36c0.52-0.09,0.95-0.21,1.27-0.39V225.37z
			 M223.28,231c-0.05-0.39-0.1-0.88-0.13-1.47c-0.03-0.58-0.06-1.21-0.08-1.88v-0.4v-0.37v-4.91c0-0.22-0.01-0.44-0.04-0.64
			c-0.02-0.21-0.05-0.4-0.09-0.59c-0.19-0.82-0.54-1.51-1.07-2.07c-0.52-0.56-1.17-0.97-1.93-1.25c-0.76-0.27-1.6-0.41-2.51-0.41
			c-1.03,0-1.97,0.18-2.82,0.54c-0.85,0.36-1.55,0.88-2.1,1.54c-0.55,0.67-0.87,1.45-0.98,2.34c-0.02,0.07-0.03,0.14-0.04,0.22
			c-0.01,0.08-0.01,0.16-0.01,0.24h2.67v-0.04v-0.04c0.02-0.53,0.13-1,0.35-1.41c0.21-0.41,0.56-0.74,1.04-0.98s1.11-0.36,1.88-0.36
			c0.72,0,1.3,0.11,1.74,0.33c0.44,0.22,0.75,0.5,0.94,0.82c0.19,0.33,0.3,0.68,0.33,1.05v0.1v0.1c0,0.28-0.02,0.49-0.07,0.66
			c-0.04,0.16-0.16,0.3-0.35,0.42c-0.19,0.12-0.47,0.22-0.85,0.28c-0.43,0.09-0.9,0.17-1.4,0.24c-0.51,0.08-1.07,0.15-1.69,0.22
			c-0.15,0.02-0.31,0.04-0.47,0.06c-0.16,0.03-0.33,0.05-0.5,0.06c-1.15,0.14-2.08,0.53-2.8,1.18c-0.72,0.65-1.08,1.53-1.08,2.62
			c0,0.79,0.2,1.49,0.6,2.11c0.4,0.62,0.97,1.1,1.7,1.44c0.73,0.34,1.57,0.52,2.51,0.52c0.68,0,1.34-0.11,1.96-0.33
			c0.62-0.22,1.14-0.51,1.57-0.85c0.43-0.34,0.73-0.69,0.9-1.03c0,0.57,0.01,1,0.04,1.3c0.03,0.3,0.06,0.5,0.09,0.6H223.28z
			 M209.27,214.29v-2.16h-1.75c-1.05,0-1.94,0.2-2.69,0.6c-0.75,0.4-1.31,0.94-1.7,1.62c-0.39,0.68-0.58,1.43-0.58,2.25v0.75h-3.27
			v2.16h3.27V231h2.68v-11.5h4.11v-2.16h-4.11v-0.75c0-0.89,0.19-1.5,0.57-1.83c0.38-0.33,0.95-0.49,1.72-0.49H209.27z
			 M192.42,219.66c0.55,0.4,0.95,0.88,1.21,1.44c0.26,0.57,0.39,1.11,0.41,1.65v0.05v0.05h-0.05h-7.79h-0.1v-0.04v-0.04
			c0.1-0.67,0.32-1.28,0.66-1.84c0.33-0.56,0.8-1.01,1.4-1.35c0.6-0.34,1.32-0.51,2.16-0.51
			C191.17,219.07,191.87,219.27,192.42,219.66 M188.05,228.69c-0.63-0.38-1.11-0.88-1.44-1.52c-0.33-0.63-0.5-1.35-0.51-2.14v-0.13
			h0.13h10.44v-1.18c0-1.34-0.28-2.52-0.85-3.54c-0.57-1.02-1.33-1.8-2.3-2.35c-0.97-0.55-2.04-0.82-3.2-0.82
			c-1.34,0-2.52,0.29-3.55,0.88c-1.03,0.58-1.83,1.41-2.41,2.47c-0.57,1.06-0.87,2.29-0.89,3.68v0.13c0,1.25,0.25,2.42,0.75,3.51
			c0.5,1.09,1.26,1.97,2.29,2.64c1.03,0.67,2.3,1,3.81,1c0.99,0,1.93-0.18,2.8-0.53c0.87-0.35,1.62-0.89,2.24-1.61
			c0.62-0.72,1.03-1.61,1.24-2.67h-0.13h-2.39h-0.1v0.04c0,0.01-0.01,0.02-0.03,0.04c-0.14,0.79-0.51,1.43-1.12,1.93
			c-0.61,0.5-1.44,0.75-2.51,0.75C189.44,229.26,188.68,229.07,188.05,228.69 M178.02,221.57v0.1c0,1.37-0.27,2.59-0.8,3.64
			c-0.53,1.05-1.33,1.88-2.39,2.48c-1.06,0.6-2.37,0.9-3.91,0.9h-3.91v-7.12v-7.12h3.91c1.54,0,2.85,0.3,3.91,0.9
			c1.06,0.6,1.86,1.43,2.39,2.48c0.53,1.06,0.8,2.27,0.8,3.64V221.57z M164.34,231h6.58c1.89,0,3.57-0.39,5.05-1.16
			c1.48-0.77,2.64-1.86,3.47-3.28c0.83-1.41,1.25-3.05,1.25-4.9v-0.1v-0.1c0-1.85-0.42-3.48-1.25-4.9
			c-0.83-1.41-1.99-2.51-3.47-3.28c-1.48-0.77-3.17-1.16-5.05-1.16h-6.58v9.44V231z"/>
	</g>
	<polyline class="st3" points="642.66,216.51 652.49,227.46 662.33,216.51 	"/>
	<g>
		<defs>
			<rect id="SVGID_00000092446988156601510760000008199553100479402424_" width="1250" height="1250"/>
		</defs>
		<clipPath id="SVGID_00000074403856966396106910000010552748073836284551_">
			<use xlink:href="#SVGID_00000092446988156601510760000008199553100479402424_"  style="overflow:visible;"/>
		</clipPath>
		<path style="clip-path:url(#SVGID_00000074403856966396106910000010552748073836284551_);fill:#FFFFFF;" d="M708.64,434.37
			c-5.03,0-9.11,4.08-9.11,9.11v249.5c0,5.04,4.08,9.12,9.11,9.12h519.23c5.03,0,9.11-4.08,9.11-9.12v-249.5
			c0-5.03-4.08-9.11-9.11-9.11H708.64z"/>
	</g>
	<g>
		<defs>
			<path id="SVGID_00000125571133646292794220000004578980004823614888_" d="M708.64,434.37c-5.03,0-9.11,4.08-9.11,9.11v249.5
				c0,5.04,4.08,9.12,9.11,9.12h519.23c5.03,0,9.11-4.08,9.11-9.12v-249.5c0-5.03-4.08-9.11-9.11-9.11H708.64z"/>
		</defs>
		<clipPath id="SVGID_00000109725406691577189950000010033831046164738182_">
			<use xlink:href="#SVGID_00000125571133646292794220000004578980004823614888_"  style="overflow:visible;"/>
		</clipPath>
		
			<rect x="695.36" y="493.52" style="clip-path:url(#SVGID_00000109725406691577189950000010033831046164738182_);" width="545.78" height="49.85"/>
	</g>
	<g>
		<defs>
			<rect id="SVGID_00000093859823702206883660000002311283851696000162_" width="1250" height="1250"/>
		</defs>
		<clipPath id="SVGID_00000014607222167442678760000007969863409270507453_">
			<use xlink:href="#SVGID_00000093859823702206883660000002311283851696000162_"  style="overflow:visible;"/>
		</clipPath>
		<path style="clip-path:url(#SVGID_00000014607222167442678760000007969863409270507453_);" d="M1126.4,562.84
			c0.76,0.54,1.31,1.2,1.66,1.98c0.35,0.78,0.54,1.53,0.57,2.26v0.07v0.07h-0.07h-10.71h-0.14v-0.05v-0.05
			c0.14-0.92,0.44-1.76,0.9-2.53c0.46-0.77,1.1-1.39,1.93-1.86c0.82-0.47,1.81-0.71,2.97-0.71
			C1124.67,562.03,1125.64,562.3,1126.4,562.84 M1120.38,575.26c-0.87-0.52-1.53-1.21-1.98-2.09c-0.45-0.87-0.68-1.85-0.71-2.93
			v-0.18h0.18h14.36v-1.63c0-1.84-0.39-3.46-1.17-4.86c-0.78-1.4-1.83-2.48-3.17-3.24c-1.33-0.76-2.8-1.13-4.4-1.13
			c-1.84,0-3.47,0.4-4.88,1.2c-1.41,0.8-2.52,1.93-3.31,3.4c-0.79,1.46-1.2,3.15-1.22,5.06v0.18c0,1.72,0.34,3.33,1.03,4.83
			c0.68,1.5,1.73,2.71,3.15,3.62c1.41,0.92,3.16,1.38,5.23,1.38c1.37,0,2.65-0.24,3.85-0.73c1.2-0.48,2.23-1.22,3.08-2.21
			c0.85-0.99,1.41-2.22,1.7-3.68h-0.18h-3.29h-0.14v0.05c0,0.01-0.01,0.03-0.03,0.05c-0.19,1.09-0.7,1.97-1.54,2.65
			c-0.84,0.68-1.99,1.03-3.45,1.03C1122.29,576.04,1121.26,575.78,1120.38,575.26 M1109.39,552.48h-3.61v25.96h3.61V552.48z
			 M1086.08,586.01h3.71l11.49-26.38h-3.85l-5.38,12.55l-5.45-12.55h-4l7.57,16.9L1086.08,586.01z M1080.64,578.44v-2.83h-2.33
			c-0.57,0-1.04-0.1-1.43-0.3s-0.7-0.57-0.92-1.11c-0.23-0.54-0.34-1.32-0.34-2.33v-9.41h5.02v-2.83h-5.41
			c0.16-0.12,0.29-0.29,0.37-0.53c0.08-0.24,0.12-0.54,0.12-0.92v-3.25h-3.32v2.65c0,0.83-0.14,1.37-0.41,1.65
			c-0.27,0.27-0.63,0.41-1.08,0.41h-3.36v2.83h4.46v9.97c0,1.44,0.26,2.61,0.79,3.5c0.53,0.9,1.22,1.54,2.07,1.93
			c0.85,0.39,1.77,0.58,2.76,0.58H1080.64z M1061.74,578.16c1.14-0.47,2.02-1.12,2.62-1.95c0.6-0.82,0.9-1.77,0.9-2.83v-0.21
			c0-1.15-0.3-2.1-0.88-2.85c-0.59-0.74-1.33-1.31-2.23-1.72c-0.9-0.4-1.91-0.71-3.04-0.92l-3.43-0.67
			c-0.76-0.14-1.32-0.41-1.68-0.81c-0.37-0.4-0.55-0.88-0.55-1.45v-0.14v-0.03c0.02-0.83,0.4-1.46,1.11-1.89
			c0.72-0.44,1.6-0.65,2.64-0.65c0.82,0,1.54,0.16,2.14,0.48c0.6,0.32,1.08,0.77,1.43,1.36c0.35,0.59,0.57,1.27,0.64,2.05h0.32h3.11
			h0.21c-0.14-1.39-0.56-2.59-1.26-3.61c-0.7-1.01-1.61-1.79-2.74-2.32c-1.13-0.53-2.42-0.8-3.85-0.8c-1.56,0-2.89,0.24-4,0.71
			c-1.11,0.47-1.94,1.11-2.51,1.93c-0.57,0.81-0.85,1.74-0.85,2.78v0.14c0,0.14,0.01,0.28,0.02,0.41c0.01,0.13,0.03,0.25,0.05,0.37
			c0.12,0.78,0.41,1.45,0.87,2.02c0.46,0.57,1.03,1.01,1.7,1.34c0.67,0.33,1.42,0.59,2.24,0.78l3.68,0.81
			c0.71,0.17,1.29,0.35,1.75,0.55c0.46,0.2,0.82,0.48,1.08,0.85c0.26,0.37,0.39,0.82,0.39,1.36v0.14c0,0.61-0.15,1.12-0.46,1.52
			s-0.75,0.7-1.33,0.9c-0.58,0.2-1.28,0.3-2.1,0.3c-0.9,0-1.68-0.17-2.35-0.51c-0.67-0.34-1.2-0.79-1.59-1.34
			c-0.39-0.55-0.64-1.17-0.76-1.86c-0.02-0.02-0.04-0.05-0.04-0.07v-0.07h-0.32h-3.08h-0.25c0.28,1.25,0.74,2.36,1.36,3.34
			c0.62,0.98,1.51,1.77,2.67,2.37c1.16,0.6,2.6,0.9,4.35,0.9C1059.25,578.86,1060.59,578.63,1061.74,578.16 M1031.96,575.19
			c-0.86-0.57-1.53-1.37-2.02-2.4c-0.48-1.04-0.74-2.24-0.76-3.61v-0.28v-0.07v-0.07c0.02-1.34,0.28-2.52,0.76-3.54
			c0.48-1.01,1.16-1.8,2.02-2.35c0.86-0.55,1.84-0.83,2.95-0.83c1.2,0,2.25,0.27,3.15,0.81c0.9,0.54,1.59,1.32,2.07,2.33
			c0.48,1.01,0.74,2.21,0.76,3.57v0.07v0.07v0.28v0.16v0.16c-0.07,1.25-0.35,2.37-0.85,3.36s-1.19,1.77-2.07,2.33
			c-0.88,0.57-1.9,0.85-3.06,0.85C1033.8,576.04,1032.82,575.75,1031.96,575.19 M1029.98,560.42c-1.38,0.81-2.47,1.96-3.27,3.43
			c-0.8,1.47-1.2,3.15-1.2,5.04v0.28c0,1.86,0.4,3.53,1.2,5c0.8,1.47,1.87,2.62,3.2,3.45c1.33,0.83,2.76,1.24,4.3,1.24
			c1.08,0,2.07-0.16,2.95-0.48c0.88-0.32,1.62-0.71,2.21-1.18c0.59-0.47,1.04-0.96,1.34-1.45v2.69h3.68v-25.96h-3.68v9.55
			c-0.45-0.59-0.97-1.09-1.56-1.5c-0.59-0.41-1.27-0.74-2.03-0.97c-0.77-0.24-1.62-0.35-2.56-0.35
			C1032.88,559.2,1031.36,559.61,1029.98,560.42 M1020.73,552.48h-3.61v25.96h3.61V552.48z M994.6,574.5
			c-1.41-0.79-2.53-1.93-3.36-3.41c-0.83-1.48-1.24-3.24-1.24-5.27v-0.35v-0.35v-0.07v-0.07c0.02-1.98,0.45-3.71,1.27-5.18
			c0.83-1.47,1.94-2.6,3.34-3.38c1.4-0.78,2.98-1.17,4.72-1.17c1.74,0,3.32,0.39,4.74,1.18c1.41,0.79,2.53,1.93,3.36,3.41
			c0.83,1.49,1.24,3.24,1.24,5.27v0.35v0.35v0.07v0.07c-0.02,1.98-0.45,3.71-1.27,5.18c-0.83,1.47-1.94,2.6-3.34,3.38
			c-1.4,0.78-2.98,1.17-4.72,1.17C997.59,575.68,996.01,575.29,994.6,574.5 M1005.92,577.22c1.98-1.1,3.55-2.63,4.7-4.61
			c1.15-1.98,1.73-4.24,1.73-6.79v-0.35v-0.35c0-2.55-0.58-4.81-1.73-6.79c-1.16-1.98-2.72-3.52-4.7-4.61
			c-1.98-1.1-4.17-1.64-6.58-1.64c-2.4,0-4.6,0.55-6.58,1.64c-1.98,1.1-3.55,2.64-4.7,4.61c-1.15,1.98-1.73,4.24-1.73,6.79v0.35
			v0.35c0,2.55,0.58,4.81,1.73,6.79c1.16,1.98,2.72,3.52,4.7,4.61c1.98,1.1,4.17,1.65,6.58,1.65
			C1001.74,578.86,1003.94,578.32,1005.92,577.22 M972.71,552.48h-3.61v25.96h3.61V552.48z M960.76,570.7
			c0,1.25-0.29,2.27-0.88,3.08c-0.59,0.8-1.31,1.38-2.17,1.73c-0.86,0.35-1.69,0.53-2.49,0.53c-0.87,0-1.57-0.14-2.1-0.41
			c-0.53-0.27-0.9-0.61-1.11-1.03c-0.21-0.41-0.32-0.85-0.32-1.33c0-0.54,0.1-0.99,0.3-1.34c0.2-0.35,0.55-0.65,1.04-0.89
			c0.49-0.23,1.17-0.4,2.02-0.49c0.07,0,0.14-0.01,0.21-0.02c0.07-0.01,0.14-0.02,0.21-0.02c1.65-0.21,2.83-0.38,3.55-0.49
			c0.72-0.12,1.3-0.29,1.75-0.53V570.7z M964.54,578.44c-0.07-0.54-0.13-1.21-0.18-2.02c-0.05-0.8-0.08-1.66-0.11-2.58v-0.55v-0.51
			v-6.75c0-0.31-0.02-0.6-0.05-0.88c-0.03-0.28-0.08-0.55-0.12-0.81c-0.26-1.13-0.75-2.08-1.47-2.85c-0.72-0.77-1.6-1.34-2.65-1.71
			c-1.05-0.38-2.2-0.57-3.45-0.57c-1.42,0-2.71,0.25-3.87,0.74c-1.17,0.49-2.13,1.2-2.88,2.12c-0.76,0.92-1.2,1.99-1.34,3.22
			c-0.02,0.1-0.04,0.2-0.05,0.3c-0.01,0.11-0.02,0.22-0.02,0.34h3.68v-0.05v-0.05c0.02-0.73,0.18-1.38,0.48-1.95
			c0.3-0.57,0.77-1.01,1.43-1.34c0.66-0.33,1.52-0.49,2.58-0.49c0.99,0,1.79,0.15,2.39,0.46c0.6,0.31,1.03,0.68,1.29,1.13
			c0.26,0.45,0.41,0.93,0.46,1.45v0.14v0.14c0,0.38-0.03,0.68-0.09,0.9c-0.06,0.22-0.22,0.42-0.48,0.58
			c-0.26,0.17-0.65,0.29-1.17,0.39c-0.59,0.12-1.23,0.23-1.93,0.34s-1.47,0.21-2.32,0.3c-0.21,0.02-0.43,0.05-0.65,0.09
			c-0.22,0.04-0.45,0.07-0.69,0.09c-1.58,0.19-2.86,0.73-3.85,1.63c-0.99,0.9-1.49,2.1-1.49,3.61c0,1.09,0.28,2.05,0.83,2.9
			s1.33,1.51,2.33,1.98c1,0.47,2.15,0.71,3.45,0.71c0.94,0,1.84-0.15,2.69-0.46c0.85-0.31,1.57-0.7,2.16-1.17
			c0.59-0.47,1-0.94,1.24-1.41c0,0.78,0.02,1.37,0.05,1.79c0.04,0.41,0.08,0.69,0.12,0.83H964.54z M933.56,559.77
			c-0.8,0.38-1.38,0.77-1.73,1.18c-0.35,0.41-0.6,0.8-0.74,1.15v-2.48h-3.64v18.81h3.64v-9.97v-0.05v-0.05
			c0.02-1.13,0.22-2.17,0.58-3.11c0.37-0.94,0.93-1.69,1.68-2.25c0.76-0.55,1.69-0.83,2.79-0.83c0.92,0,1.68,0.19,2.28,0.57
			c0.6,0.38,1.04,0.92,1.33,1.63c0.28,0.71,0.44,1.56,0.46,2.55v0.07v0.07v11.39h3.64v-11.88c0-1.65-0.34-3.03-1.01-4.14
			c-0.67-1.11-1.55-1.92-2.63-2.44c-1.09-0.52-2.26-0.78-3.54-0.78C935.4,559.2,934.37,559.39,933.56,559.77 M910.63,575.1
			c-0.88-0.62-1.56-1.46-2.02-2.49c-0.46-1.04-0.71-2.15-0.76-3.32v-0.25c0-1.2,0.22-2.34,0.67-3.41c0.45-1.07,1.12-1.94,2.01-2.6
			c0.9-0.66,1.98-0.99,3.25-0.99c1.22,0,2.28,0.31,3.16,0.94c0.88,0.62,1.56,1.46,2.02,2.49c0.46,1.04,0.71,2.15,0.76,3.32v0.25
			c0,1.2-0.22,2.34-0.67,3.41c-0.45,1.07-1.12,1.94-2.02,2.6c-0.9,0.66-1.98,0.99-3.25,0.99
			C912.57,576.04,911.52,575.72,910.63,575.1 M918.75,577.56c1.46-0.87,2.6-2.06,3.41-3.55c0.81-1.5,1.22-3.15,1.22-4.97v-0.18
			c-0.02-1.79-0.45-3.42-1.27-4.88c-0.83-1.46-1.96-2.62-3.41-3.48c-1.45-0.86-3.08-1.29-4.9-1.29c-1.84,0-3.49,0.44-4.95,1.31
			c-1.46,0.87-2.6,2.06-3.41,3.55c-0.81,1.5-1.22,3.15-1.22,4.97v0.18c0.02,1.79,0.45,3.42,1.27,4.88c0.83,1.46,1.96,2.62,3.41,3.48
			c1.45,0.86,3.08,1.29,4.9,1.29C915.64,578.86,917.29,578.43,918.75,577.56 M900,553.23c-0.21-0.35-0.49-0.64-0.85-0.85
			c-0.35-0.21-0.74-0.32-1.17-0.32c-0.42,0-0.81,0.11-1.17,0.32c-0.35,0.21-0.64,0.49-0.85,0.85c-0.21,0.35-0.32,0.74-0.32,1.17
			c0,0.42,0.11,0.83,0.32,1.2c0.21,0.38,0.49,0.67,0.85,0.88c0.35,0.21,0.74,0.32,1.17,0.32c0.42,0,0.81-0.11,1.17-0.32
			c0.35-0.21,0.64-0.51,0.85-0.88c0.21-0.38,0.32-0.78,0.32-1.2C900.32,553.97,900.22,553.58,900,553.23 M899.83,559.66h-3.68v18.78
			h3.68V559.66z M892.69,578.44v-2.83h-2.33c-0.57,0-1.04-0.1-1.43-0.3c-0.39-0.2-0.7-0.57-0.92-1.11s-0.34-1.32-0.34-2.33v-9.41
			h5.02v-2.83h-5.41c0.17-0.12,0.29-0.29,0.37-0.53c0.08-0.24,0.12-0.54,0.12-0.92v-3.25h-3.32v2.65c0,0.83-0.14,1.37-0.41,1.65
			c-0.27,0.27-0.63,0.41-1.08,0.41h-3.36v2.83h4.46v9.97c0,1.44,0.27,2.61,0.8,3.5c0.53,0.9,1.22,1.54,2.07,1.93
			c0.85,0.39,1.77,0.58,2.76,0.58H892.69z M873.11,559.66c-0.72,0.31-1.32,0.71-1.8,1.22c-0.48,0.51-0.86,1.07-1.11,1.68v-2.93
			h-3.61v18.81h3.61v-10.5v-0.48c0-0.15,0.01-0.3,0.04-0.44c0.09-1.01,0.35-1.9,0.78-2.65c0.42-0.75,0.98-1.33,1.66-1.73
			c0.68-0.4,1.44-0.6,2.26-0.6h2.4v-2.83h-1.77C874.65,559.2,873.83,559.36,873.11,559.66 M850.3,575.1
			c-0.88-0.62-1.56-1.46-2.02-2.49c-0.46-1.04-0.71-2.15-0.76-3.32v-0.25c0-1.2,0.22-2.34,0.67-3.41c0.45-1.07,1.12-1.94,2.01-2.6
			c0.9-0.66,1.98-0.99,3.25-0.99c1.22,0,2.28,0.31,3.16,0.94c0.88,0.62,1.56,1.46,2.02,2.49c0.46,1.04,0.71,2.15,0.76,3.32v0.25
			c0,1.2-0.22,2.34-0.67,3.41c-0.45,1.07-1.12,1.94-2.02,2.6c-0.9,0.66-1.98,0.99-3.25,0.99
			C852.24,576.04,851.19,575.72,850.3,575.1 M858.42,577.56c1.46-0.87,2.6-2.06,3.41-3.55c0.81-1.5,1.22-3.15,1.22-4.97v-0.18
			c-0.02-1.79-0.45-3.42-1.27-4.88c-0.83-1.46-1.96-2.62-3.41-3.48c-1.45-0.86-3.08-1.29-4.9-1.29c-1.84,0-3.49,0.44-4.95,1.31
			c-1.46,0.87-2.6,2.06-3.41,3.55c-0.81,1.5-1.22,3.15-1.22,4.97v0.18c0.02,1.79,0.45,3.42,1.27,4.88c0.82,1.46,1.96,2.62,3.41,3.48
			c1.45,0.86,3.08,1.29,4.9,1.29C855.31,578.86,856.96,578.43,858.42,577.56 M827.53,575.19c-0.88-0.57-1.57-1.34-2.07-2.33
			c-0.5-0.99-0.78-2.12-0.85-3.39v-0.14v-0.14v-0.28v-0.27v-0.26c0.07-1.27,0.35-2.39,0.85-3.34c0.49-0.95,1.18-1.69,2.05-2.21
			c0.87-0.52,1.9-0.78,3.08-0.78c1.06,0,2.01,0.26,2.85,0.78c0.84,0.52,1.51,1.25,2.02,2.19c0.51,0.94,0.8,2.04,0.87,3.29v0.3v0.3
			v0.28v0.09v0.09c-0.05,1.34-0.31,2.52-0.8,3.52c-0.48,1-1.15,1.78-2,2.33c-0.85,0.55-1.83,0.83-2.93,0.83
			C829.43,576.04,828.41,575.75,827.53,575.19 M828.38,559.56c-0.77,0.24-1.44,0.56-2.03,0.97c-0.59,0.41-1.11,0.91-1.56,1.5v-2.41
			h-3.68v26.38h3.68v-10.26c0.31,0.49,0.75,0.98,1.34,1.45c0.59,0.47,1.33,0.87,2.21,1.18s1.87,0.48,2.95,0.48
			c1.53,0,2.96-0.41,4.3-1.24c1.33-0.82,2.4-1.97,3.2-3.45c0.8-1.47,1.2-3.14,1.2-5v-0.28c0-1.89-0.4-3.57-1.2-5.04
			c-0.8-1.47-1.89-2.62-3.27-3.43c-1.38-0.81-2.91-1.22-4.58-1.22C830,559.2,829.14,559.32,828.38,559.56 M803.77,575.1
			c-0.88-0.62-1.56-1.46-2.02-2.49c-0.46-1.04-0.71-2.15-0.76-3.32v-0.25c0-1.2,0.22-2.34,0.67-3.41c0.45-1.07,1.12-1.94,2.02-2.6
			c0.9-0.66,1.98-0.99,3.25-0.99c1.22,0,2.28,0.31,3.16,0.94c0.88,0.62,1.56,1.46,2.02,2.49c0.46,1.04,0.71,2.15,0.76,3.32v0.25
			c0,1.2-0.22,2.34-0.67,3.41c-0.45,1.07-1.12,1.94-2.02,2.6c-0.9,0.66-1.98,0.99-3.25,0.99
			C805.7,576.04,804.65,575.72,803.77,575.1 M811.88,577.56c1.46-0.87,2.6-2.06,3.41-3.55c0.81-1.5,1.22-3.15,1.22-4.97v-0.18
			c-0.02-1.79-0.45-3.42-1.27-4.88c-0.83-1.46-1.96-2.62-3.41-3.48c-1.45-0.86-3.08-1.29-4.9-1.29c-1.84,0-3.49,0.44-4.95,1.31
			c-1.46,0.87-2.6,2.06-3.41,3.55c-0.81,1.5-1.22,3.15-1.22,4.97v0.18c0.02,1.79,0.45,3.42,1.27,4.88c0.83,1.46,1.96,2.62,3.41,3.48
			c1.45,0.86,3.08,1.29,4.9,1.29C808.77,578.86,810.42,578.43,811.88,577.56 M791.39,559.66c-0.72,0.31-1.32,0.71-1.8,1.22
			c-0.48,0.51-0.85,1.07-1.11,1.68v-2.93h-3.61v18.81h3.61v-10.5v-0.48c0-0.15,0.01-0.3,0.04-0.44c0.09-1.01,0.35-1.9,0.78-2.65
			c0.42-0.75,0.98-1.33,1.66-1.73c0.68-0.4,1.44-0.6,2.26-0.6h2.4v-2.83h-1.77C792.93,559.2,792.11,559.36,791.39,559.66
			 M772.59,555.67c1.77,0,3.05,0.43,3.86,1.29c0.8,0.86,1.2,1.96,1.2,3.31v0.21c0,0.83-0.15,1.58-0.46,2.26
			c-0.31,0.68-0.82,1.25-1.54,1.7c-0.72,0.45-1.65,0.7-2.78,0.74h-0.28h-6.26v-9.51H772.59z M762.66,552.48v25.96h3.68v-10.08h6.47
			c1.58,0,3.02-0.37,4.33-1.1c1.31-0.73,2.33-1.7,3.08-2.9c0.74-1.2,1.11-2.49,1.11-3.85v-0.25c0-1.82-0.45-3.31-1.34-4.47
			c-0.9-1.17-1.99-2.01-3.29-2.53c-1.3-0.52-2.59-0.78-3.89-0.78H762.66z"/>
		<path style="clip-path:url(#SVGID_00000014607222167442678760000007969863409270507453_);" d="M1072.77,625.04
			c-0.86-0.57-1.53-1.37-2.02-2.4c-0.48-1.04-0.74-2.24-0.76-3.61v-0.28v-0.07v-0.07c0.02-1.34,0.28-2.52,0.76-3.54
			c0.48-1.01,1.16-1.8,2.02-2.35c0.86-0.55,1.84-0.83,2.95-0.83c1.2,0,2.25,0.27,3.15,0.81c0.89,0.54,1.58,1.32,2.07,2.33
			c0.48,1.01,0.74,2.21,0.76,3.57v0.07v0.07v0.28v0.16v0.16c-0.07,1.25-0.35,2.37-0.85,3.36s-1.19,1.77-2.07,2.33
			c-0.88,0.57-1.9,0.85-3.06,0.85C1074.61,625.89,1073.63,625.61,1072.77,625.04 M1080.78,635.35c1.39-0.62,2.48-1.54,3.25-2.74
			c0.78-1.2,1.17-2.64,1.17-4.32v-18.81h-3.68v2.41c-0.45-0.59-0.97-1.09-1.56-1.5c-0.59-0.41-1.27-0.74-2.03-0.97
			c-0.77-0.24-1.62-0.35-2.56-0.35c-1.67,0-3.2,0.41-4.58,1.22c-1.38,0.81-2.47,1.96-3.27,3.43c-0.8,1.47-1.2,3.15-1.2,5.04v0.28
			c0,1.86,0.4,3.53,1.2,5c0.8,1.47,1.87,2.62,3.2,3.45c1.33,0.83,2.76,1.24,4.3,1.24c1.08,0,2.07-0.16,2.95-0.48
			c0.88-0.32,1.62-0.71,2.21-1.18c0.59-0.47,1.04-0.96,1.34-1.45v2.69v0.04c0,1.27-0.21,2.29-0.64,3.04
			c-0.42,0.75-1.04,1.29-1.84,1.61c-0.8,0.32-1.83,0.48-3.08,0.48c-1.06,0-1.99-0.15-2.78-0.44c-0.79-0.29-1.43-0.72-1.91-1.29
			c-0.48-0.57-0.81-1.26-0.97-2.09c0-0.02-0.01-0.05-0.02-0.07c-0.01-0.02-0.02-0.05-0.02-0.07h-0.39h-2.58h-0.42
			c0.23,1.53,0.81,2.8,1.71,3.82c0.91,1.01,2,1.76,3.29,2.24c1.28,0.48,2.65,0.73,4.08,0.73
			C1077.78,636.28,1079.39,635.97,1080.78,635.35 M1051.67,609.62c-0.8,0.38-1.38,0.77-1.73,1.18c-0.35,0.41-0.6,0.8-0.74,1.15
			v-2.48h-3.64v18.81h3.64v-9.97v-0.05v-0.05c0.02-1.13,0.22-2.17,0.58-3.11c0.36-0.94,0.93-1.69,1.68-2.25
			c0.75-0.55,1.68-0.83,2.79-0.83c0.92,0,1.68,0.19,2.28,0.57c0.6,0.38,1.04,0.92,1.33,1.63c0.28,0.71,0.44,1.56,0.46,2.55v0.07
			v0.07v11.39h3.64v-11.88c0-1.65-0.33-3.03-1.01-4.14c-0.67-1.11-1.55-1.92-2.64-2.44c-1.08-0.52-2.26-0.78-3.54-0.78
			C1053.51,609.06,1052.48,609.24,1051.67,609.62 M1040.82,603.08c-0.21-0.35-0.49-0.64-0.85-0.85c-0.35-0.21-0.74-0.32-1.17-0.32
			s-0.81,0.11-1.17,0.32c-0.35,0.21-0.64,0.49-0.85,0.85c-0.21,0.35-0.32,0.74-0.32,1.17c0,0.42,0.11,0.83,0.32,1.2
			c0.21,0.38,0.49,0.67,0.85,0.88s0.74,0.32,1.17,0.32s0.81-0.11,1.17-0.32s0.64-0.51,0.85-0.88c0.21-0.38,0.32-0.78,0.32-1.2
			C1041.14,603.82,1041.03,603.43,1040.82,603.08 M1040.64,609.52h-3.68v18.78h3.68V609.52z M1021.83,609.62
			c-0.8,0.38-1.38,0.77-1.73,1.18c-0.35,0.41-0.6,0.8-0.74,1.15v-2.48h-3.64v18.81h3.64v-9.97v-0.05v-0.05
			c0.02-1.13,0.22-2.17,0.58-3.11c0.36-0.94,0.92-1.69,1.68-2.25c0.75-0.55,1.68-0.83,2.79-0.83c0.92,0,1.68,0.19,2.28,0.57
			c0.6,0.38,1.04,0.92,1.33,1.63c0.28,0.71,0.44,1.56,0.46,2.55v0.07v0.07v11.39h3.64v-11.88c0-1.65-0.34-3.03-1.01-4.14
			c-0.67-1.11-1.55-1.92-2.64-2.44c-1.08-0.52-2.26-0.78-3.54-0.78C1023.67,609.06,1022.63,609.24,1021.83,609.62 M1010.97,603.08
			c-0.21-0.35-0.49-0.64-0.85-0.85c-0.35-0.21-0.74-0.32-1.17-0.32c-0.42,0-0.81,0.11-1.17,0.32c-0.35,0.21-0.64,0.49-0.85,0.85
			c-0.21,0.35-0.32,0.74-0.32,1.17c0,0.42,0.11,0.83,0.32,1.2c0.21,0.38,0.49,0.67,0.85,0.88s0.74,0.32,1.17,0.32
			c0.42,0,0.81-0.11,1.17-0.32s0.64-0.51,0.85-0.88c0.21-0.38,0.32-0.78,0.32-1.2C1011.29,603.82,1011.18,603.43,1010.97,603.08
			 M1010.8,609.52h-3.68v18.78h3.68V609.52z M990,625.11v-22.74h-3.68v25.92h16.76v-3.18H990z M972.71,602.34h-3.61v25.96h3.61
			V602.34z M960.76,620.55c0,1.25-0.29,2.27-0.88,3.08c-0.59,0.8-1.31,1.38-2.17,1.73c-0.86,0.35-1.69,0.53-2.49,0.53
			c-0.87,0-1.57-0.14-2.1-0.41c-0.53-0.27-0.9-0.61-1.11-1.03c-0.21-0.41-0.32-0.85-0.32-1.33c0-0.54,0.1-0.99,0.3-1.34
			c0.2-0.35,0.55-0.65,1.04-0.89c0.49-0.23,1.17-0.4,2.02-0.49c0.07,0,0.14-0.01,0.21-0.02c0.07-0.01,0.14-0.02,0.21-0.02
			c1.65-0.21,2.83-0.38,3.55-0.49c0.72-0.12,1.3-0.29,1.75-0.53V620.55z M964.54,628.29c-0.07-0.54-0.13-1.21-0.18-2.02
			c-0.05-0.8-0.08-1.66-0.11-2.58v-0.55v-0.51v-6.75c0-0.31-0.02-0.6-0.05-0.88c-0.03-0.28-0.08-0.55-0.12-0.81
			c-0.26-1.13-0.75-2.08-1.47-2.85c-0.72-0.77-1.6-1.34-2.65-1.71c-1.05-0.38-2.2-0.57-3.45-0.57c-1.42,0-2.71,0.25-3.87,0.74
			c-1.17,0.49-2.13,1.2-2.88,2.12c-0.76,0.92-1.2,1.99-1.34,3.22c-0.02,0.1-0.04,0.2-0.05,0.3c-0.01,0.11-0.02,0.22-0.02,0.34h3.68
			v-0.05v-0.05c0.02-0.73,0.18-1.38,0.48-1.95c0.3-0.57,0.77-1.01,1.43-1.34c0.66-0.33,1.52-0.49,2.58-0.49
			c0.99,0,1.79,0.15,2.39,0.46c0.6,0.31,1.03,0.68,1.29,1.13c0.26,0.45,0.41,0.93,0.46,1.45v0.14v0.14c0,0.38-0.03,0.68-0.09,0.9
			c-0.06,0.22-0.22,0.42-0.48,0.58c-0.26,0.17-0.65,0.29-1.17,0.39c-0.59,0.12-1.23,0.23-1.93,0.34s-1.47,0.21-2.32,0.3
			c-0.21,0.02-0.43,0.05-0.65,0.09c-0.22,0.04-0.45,0.07-0.69,0.09c-1.58,0.19-2.86,0.73-3.85,1.63c-0.99,0.9-1.49,2.1-1.49,3.61
			c0,1.09,0.28,2.05,0.83,2.9s1.33,1.51,2.33,1.98c1,0.47,2.15,0.71,3.45,0.71c0.94,0,1.84-0.15,2.69-0.46
			c0.85-0.31,1.57-0.7,2.16-1.17c0.59-0.47,1-0.94,1.24-1.41c0,0.78,0.02,1.37,0.05,1.79c0.04,0.41,0.08,0.69,0.12,0.83H964.54z
			 M933.56,609.62c-0.8,0.38-1.38,0.77-1.73,1.18c-0.35,0.41-0.6,0.8-0.74,1.15v-2.48h-3.64v18.81h3.64v-9.97v-0.05v-0.05
			c0.02-1.13,0.22-2.17,0.58-3.11c0.37-0.94,0.93-1.69,1.68-2.25c0.76-0.55,1.69-0.83,2.79-0.83c0.92,0,1.68,0.19,2.28,0.57
			c0.6,0.38,1.04,0.92,1.33,1.63c0.28,0.71,0.44,1.56,0.46,2.55v0.07v0.07v11.39h3.64v-11.88c0-1.65-0.34-3.03-1.01-4.14
			c-0.67-1.11-1.55-1.92-2.63-2.44c-1.09-0.52-2.26-0.78-3.54-0.78C935.4,609.06,934.37,609.24,933.56,609.62 M910.63,624.95
			c-0.88-0.62-1.56-1.46-2.02-2.49c-0.46-1.04-0.71-2.15-0.76-3.32v-0.25c0-1.2,0.22-2.34,0.67-3.41c0.45-1.07,1.12-1.94,2.01-2.6
			c0.9-0.66,1.98-0.99,3.25-0.99c1.22,0,2.28,0.31,3.16,0.94c0.88,0.62,1.56,1.46,2.02,2.49c0.46,1.04,0.71,2.15,0.76,3.32v0.25
			c0,1.2-0.22,2.34-0.67,3.41c-0.45,1.07-1.12,1.94-2.02,2.6c-0.9,0.66-1.98,0.99-3.25,0.99
			C912.57,625.89,911.52,625.58,910.63,624.95 M918.75,627.41c1.46-0.87,2.6-2.06,3.41-3.55c0.81-1.5,1.22-3.15,1.22-4.97v-0.18
			c-0.02-1.79-0.45-3.42-1.27-4.88c-0.83-1.46-1.96-2.62-3.41-3.48c-1.45-0.86-3.08-1.29-4.9-1.29c-1.84,0-3.49,0.44-4.95,1.31
			c-1.46,0.87-2.6,2.06-3.41,3.55c-0.81,1.5-1.22,3.15-1.22,4.97v0.18c0.02,1.79,0.45,3.42,1.27,4.88c0.83,1.46,1.96,2.62,3.41,3.48
			c1.45,0.86,3.08,1.29,4.9,1.29C915.64,628.72,917.29,628.28,918.75,627.41 M900,603.08c-0.21-0.35-0.49-0.64-0.85-0.85
			c-0.35-0.21-0.74-0.32-1.17-0.32c-0.42,0-0.81,0.11-1.17,0.32c-0.35,0.21-0.64,0.49-0.85,0.85c-0.21,0.35-0.32,0.74-0.32,1.17
			c0,0.42,0.11,0.83,0.32,1.2c0.21,0.38,0.49,0.67,0.85,0.88c0.35,0.21,0.74,0.32,1.17,0.32c0.42,0,0.81-0.11,1.17-0.32
			c0.35-0.21,0.64-0.51,0.85-0.88c0.21-0.38,0.32-0.78,0.32-1.2C900.32,603.82,900.22,603.43,900,603.08 M899.83,609.52h-3.68v18.78
			h3.68V609.52z M892.69,628.29v-2.83h-2.33c-0.57,0-1.04-0.1-1.43-0.3c-0.39-0.2-0.7-0.57-0.92-1.11s-0.34-1.32-0.34-2.33v-9.41
			h5.02v-2.83h-5.41c0.17-0.12,0.29-0.29,0.37-0.53c0.08-0.24,0.12-0.54,0.12-0.92v-3.25h-3.32v2.65c0,0.83-0.14,1.37-0.41,1.65
			c-0.27,0.27-0.63,0.41-1.08,0.41h-3.36v2.83h4.46v9.97c0,1.44,0.27,2.61,0.8,3.5c0.53,0.9,1.22,1.54,2.07,1.93
			c0.85,0.39,1.77,0.58,2.76,0.58H892.69z M873.11,609.52c-0.72,0.31-1.32,0.71-1.8,1.22c-0.48,0.51-0.86,1.07-1.11,1.68v-2.93
			h-3.61v18.81h3.61v-10.5v-0.48c0-0.15,0.01-0.3,0.04-0.44c0.09-1.01,0.35-1.9,0.78-2.65c0.42-0.75,0.98-1.33,1.66-1.73
			c0.68-0.4,1.44-0.6,2.26-0.6h2.4v-2.83h-1.77C874.65,609.06,873.83,609.21,873.11,609.52 M850.3,624.95
			c-0.88-0.62-1.56-1.46-2.02-2.49c-0.46-1.04-0.71-2.15-0.76-3.32v-0.25c0-1.2,0.22-2.34,0.67-3.41c0.45-1.07,1.12-1.94,2.01-2.6
			c0.9-0.66,1.98-0.99,3.25-0.99c1.22,0,2.28,0.31,3.16,0.94c0.88,0.62,1.56,1.46,2.02,2.49c0.46,1.04,0.71,2.15,0.76,3.32v0.25
			c0,1.2-0.22,2.34-0.67,3.41c-0.45,1.07-1.12,1.94-2.02,2.6c-0.9,0.66-1.98,0.99-3.25,0.99
			C852.24,625.89,851.19,625.58,850.3,624.95 M858.42,627.41c1.46-0.87,2.6-2.06,3.41-3.55c0.81-1.5,1.22-3.15,1.22-4.97v-0.18
			c-0.02-1.79-0.45-3.42-1.27-4.88c-0.83-1.46-1.96-2.62-3.41-3.48c-1.45-0.86-3.08-1.29-4.9-1.29c-1.84,0-3.49,0.44-4.95,1.31
			c-1.46,0.87-2.6,2.06-3.41,3.55c-0.81,1.5-1.22,3.15-1.22,4.97v0.18c0.02,1.79,0.45,3.42,1.27,4.88c0.82,1.46,1.96,2.62,3.41,3.48
			c1.45,0.86,3.08,1.29,4.9,1.29C855.31,628.72,856.96,628.28,858.42,627.41 M827.53,625.04c-0.88-0.57-1.57-1.34-2.07-2.33
			c-0.5-0.99-0.78-2.12-0.85-3.39v-0.14v-0.14v-0.28v-0.27v-0.26c0.07-1.27,0.35-2.39,0.85-3.34c0.49-0.95,1.18-1.69,2.05-2.21
			c0.87-0.52,1.9-0.78,3.08-0.78c1.06,0,2.01,0.26,2.85,0.78c0.84,0.52,1.51,1.25,2.02,2.19c0.51,0.94,0.8,2.04,0.87,3.29v0.3v0.3
			v0.28v0.09v0.09c-0.05,1.34-0.31,2.52-0.8,3.52c-0.48,1-1.15,1.78-2,2.33c-0.85,0.55-1.83,0.83-2.93,0.83
			C829.43,625.89,828.41,625.61,827.53,625.04 M828.38,609.41c-0.77,0.24-1.44,0.56-2.03,0.97c-0.59,0.41-1.11,0.91-1.56,1.5v-2.41
			h-3.68v26.38h3.68v-10.26c0.31,0.49,0.75,0.98,1.34,1.45c0.59,0.47,1.33,0.87,2.21,1.18s1.87,0.48,2.95,0.48
			c1.53,0,2.96-0.41,4.3-1.24c1.33-0.82,2.4-1.97,3.2-3.45c0.8-1.47,1.2-3.14,1.2-5v-0.28c0-1.89-0.4-3.57-1.2-5.04
			c-0.8-1.47-1.89-2.62-3.27-3.43c-1.38-0.81-2.91-1.22-4.58-1.22C830,609.06,829.14,609.17,828.38,609.41 M803.77,624.95
			c-0.88-0.62-1.56-1.46-2.02-2.49c-0.46-1.04-0.71-2.15-0.76-3.32v-0.25c0-1.2,0.22-2.34,0.67-3.41c0.45-1.07,1.12-1.94,2.02-2.6
			c0.9-0.66,1.98-0.99,3.25-0.99c1.22,0,2.28,0.31,3.16,0.94c0.88,0.62,1.56,1.46,2.02,2.49c0.46,1.04,0.71,2.15,0.76,3.32v0.25
			c0,1.2-0.22,2.34-0.67,3.41c-0.45,1.07-1.12,1.94-2.02,2.6c-0.9,0.66-1.98,0.99-3.25,0.99
			C805.7,625.89,804.65,625.58,803.77,624.95 M811.88,627.41c1.46-0.87,2.6-2.06,3.41-3.55c0.81-1.5,1.22-3.15,1.22-4.97v-0.18
			c-0.02-1.79-0.45-3.42-1.27-4.88c-0.83-1.46-1.96-2.62-3.41-3.48c-1.45-0.86-3.08-1.29-4.9-1.29c-1.84,0-3.49,0.44-4.95,1.31
			c-1.46,0.87-2.6,2.06-3.41,3.55c-0.81,1.5-1.22,3.15-1.22,4.97v0.18c0.02,1.79,0.45,3.42,1.27,4.88c0.83,1.46,1.96,2.62,3.41,3.48
			c1.45,0.86,3.08,1.29,4.9,1.29C808.77,628.72,810.42,628.28,811.88,627.41 M791.39,609.52c-0.72,0.31-1.32,0.71-1.8,1.22
			c-0.48,0.51-0.85,1.07-1.11,1.68v-2.93h-3.61v18.81h3.61v-10.5v-0.48c0-0.15,0.01-0.3,0.04-0.44c0.09-1.01,0.35-1.9,0.78-2.65
			c0.42-0.75,0.98-1.33,1.66-1.73c0.68-0.4,1.44-0.6,2.26-0.6h2.4v-2.83h-1.77C792.93,609.06,792.11,609.21,791.39,609.52
			 M772.59,605.52c1.77,0,3.05,0.43,3.86,1.29c0.8,0.86,1.2,1.96,1.2,3.31v0.21c0,0.83-0.15,1.58-0.46,2.26
			c-0.31,0.68-0.82,1.25-1.54,1.7c-0.72,0.45-1.65,0.7-2.78,0.74h-0.28h-6.26v-9.51H772.59z M762.66,602.34v25.96h3.68v-10.08h6.47
			c1.58,0,3.02-0.37,4.33-1.1c1.31-0.73,2.33-1.7,3.08-2.9c0.74-1.2,1.11-2.49,1.11-3.85v-0.25c0-1.82-0.45-3.31-1.34-4.47
			c-0.9-1.17-1.99-2.01-3.29-2.53c-1.3-0.52-2.59-0.78-3.89-0.78H762.66z"/>
		<path style="clip-path:url(#SVGID_00000014607222167442678760000007969863409270507453_);fill:#FFFFFF;" d="M986.66,525.33
			c-0.86-0.57-1.53-1.37-2.02-2.4c-0.48-1.04-0.74-2.24-0.76-3.61v-0.28v-0.07v-0.07c0.02-1.34,0.28-2.52,0.76-3.54
			c0.48-1.01,1.16-1.8,2.02-2.35c0.86-0.55,1.84-0.83,2.95-0.83c1.2,0,2.25,0.27,3.15,0.81c0.9,0.54,1.58,1.32,2.07,2.33
			c0.48,1.01,0.74,2.21,0.76,3.57v0.07v0.07v0.28v0.16v0.16c-0.07,1.25-0.35,2.37-0.85,3.36s-1.18,1.77-2.07,2.33
			c-0.89,0.57-1.91,0.85-3.06,0.85C988.5,526.18,987.52,525.9,986.66,525.33 M994.67,535.64c1.39-0.62,2.47-1.54,3.25-2.74
			c0.78-1.2,1.17-2.64,1.17-4.32v-18.81h-3.68v2.41c-0.45-0.59-0.97-1.09-1.56-1.5c-0.59-0.41-1.27-0.74-2.03-0.97
			c-0.77-0.24-1.62-0.35-2.56-0.35c-1.67,0-3.2,0.41-4.58,1.22c-1.38,0.81-2.47,1.96-3.27,3.43c-0.8,1.47-1.2,3.15-1.2,5.04v0.28
			c0,1.86,0.4,3.53,1.2,5c0.8,1.47,1.87,2.62,3.2,3.45c1.33,0.83,2.76,1.24,4.3,1.24c1.08,0,2.07-0.16,2.95-0.48
			c0.88-0.32,1.62-0.71,2.21-1.18c0.59-0.47,1.04-0.96,1.34-1.45v2.69v0.04c0,1.27-0.21,2.29-0.64,3.04
			c-0.42,0.75-1.04,1.29-1.84,1.61c-0.8,0.32-1.83,0.48-3.08,0.48c-1.06,0-1.99-0.15-2.78-0.44c-0.79-0.29-1.43-0.72-1.91-1.29
			c-0.48-0.57-0.81-1.26-0.97-2.09c0-0.02-0.01-0.05-0.02-0.07c-0.01-0.02-0.02-0.05-0.02-0.07h-0.39h-2.58h-0.42
			c0.23,1.53,0.81,2.8,1.72,3.82c0.91,1.01,2,1.76,3.29,2.24c1.28,0.48,2.65,0.73,4.08,0.73
			C991.68,536.58,993.28,536.27,994.67,535.64 M965.57,509.92c-0.8,0.38-1.38,0.77-1.73,1.18c-0.35,0.41-0.6,0.8-0.74,1.15v-2.48
			h-3.64v18.81h3.64v-9.97v-0.05v-0.05c0.02-1.13,0.22-2.17,0.58-3.11c0.36-0.94,0.92-1.69,1.68-2.25c0.75-0.55,1.68-0.83,2.79-0.83
			c0.92,0,1.68,0.19,2.28,0.57c0.6,0.38,1.04,0.92,1.33,1.63c0.28,0.71,0.44,1.56,0.46,2.55v0.07v0.07v11.39h3.64V516.7
			c0-1.65-0.34-3.03-1.01-4.14c-0.67-1.11-1.55-1.92-2.64-2.44c-1.08-0.52-2.26-0.78-3.54-0.78S966.37,509.54,965.57,509.92
			 M954.71,503.37c-0.21-0.35-0.49-0.64-0.85-0.85c-0.35-0.21-0.74-0.32-1.17-0.32c-0.42,0-0.81,0.11-1.17,0.32
			c-0.35,0.21-0.64,0.49-0.85,0.85c-0.21,0.35-0.32,0.74-0.32,1.17c0,0.42,0.11,0.83,0.32,1.2c0.21,0.38,0.5,0.67,0.85,0.88
			c0.35,0.21,0.74,0.32,1.17,0.32c0.42,0,0.81-0.11,1.17-0.32s0.64-0.51,0.85-0.88c0.21-0.38,0.32-0.78,0.32-1.2
			C955.03,504.12,954.92,503.73,954.71,503.37 M954.53,509.81h-3.68v18.78h3.68V509.81z M935.72,509.92
			c-0.8,0.38-1.38,0.77-1.73,1.18c-0.35,0.41-0.6,0.8-0.74,1.15v-2.48h-3.64v18.81h3.64v-9.97v-0.05v-0.05
			c0.02-1.13,0.22-2.17,0.58-3.11c0.37-0.94,0.92-1.69,1.68-2.25c0.75-0.55,1.68-0.83,2.79-0.83c0.92,0,1.68,0.19,2.28,0.57
			c0.6,0.38,1.04,0.92,1.33,1.63c0.28,0.71,0.44,1.56,0.46,2.55v0.07v0.07v11.39h3.64V516.7c0-1.65-0.34-3.03-1.01-4.14
			c-0.67-1.11-1.55-1.92-2.64-2.44c-1.08-0.52-2.26-0.78-3.54-0.78S936.52,509.54,935.72,509.92 M924.86,503.37
			c-0.21-0.35-0.5-0.64-0.85-0.85c-0.35-0.21-0.74-0.32-1.17-0.32c-0.42,0-0.81,0.11-1.17,0.32c-0.35,0.21-0.64,0.49-0.85,0.85
			c-0.21,0.35-0.32,0.74-0.32,1.17c0,0.42,0.11,0.83,0.32,1.2c0.21,0.38,0.49,0.67,0.85,0.88c0.35,0.21,0.74,0.32,1.17,0.32
			c0.43,0,0.81-0.11,1.17-0.32c0.35-0.21,0.64-0.51,0.85-0.88c0.21-0.38,0.32-0.78,0.32-1.2
			C925.18,504.12,925.08,503.73,924.86,503.37 M924.69,509.81h-3.68v18.78h3.68V509.81z M903.89,525.4v-22.74h-3.68v25.92h16.76
			v-3.18H903.89z M884.18,509.81c-0.72,0.31-1.32,0.71-1.8,1.22c-0.48,0.51-0.85,1.07-1.11,1.68v-2.94h-3.61v18.81h3.61v-10.5v-0.48
			c0-0.15,0.01-0.3,0.04-0.44c0.09-1.01,0.35-1.9,0.78-2.65c0.42-0.75,0.98-1.33,1.66-1.73c0.68-0.4,1.44-0.6,2.26-0.6h2.41v-2.83
			h-1.77C885.72,509.35,884.9,509.5,884.18,509.81 M870.19,520.84c0,1.25-0.29,2.27-0.88,3.08c-0.59,0.8-1.31,1.38-2.17,1.73
			c-0.86,0.35-1.69,0.53-2.49,0.53c-0.87,0-1.57-0.14-2.1-0.41c-0.53-0.27-0.9-0.61-1.11-1.03c-0.21-0.41-0.32-0.85-0.32-1.33
			c0-0.54,0.1-0.99,0.3-1.34c0.2-0.35,0.55-0.65,1.04-0.89c0.5-0.23,1.17-0.4,2.02-0.49c0.07,0,0.14-0.01,0.21-0.02
			c0.07-0.01,0.14-0.02,0.21-0.02c1.65-0.21,2.83-0.38,3.55-0.49c0.72-0.12,1.3-0.29,1.75-0.53V520.84z M873.98,528.59
			c-0.07-0.54-0.13-1.21-0.18-2.02c-0.05-0.8-0.08-1.66-0.11-2.58v-0.55v-0.51v-6.75c0-0.31-0.02-0.6-0.05-0.88
			c-0.03-0.28-0.08-0.55-0.12-0.81c-0.26-1.13-0.75-2.08-1.47-2.85c-0.72-0.77-1.6-1.34-2.65-1.71c-1.05-0.38-2.2-0.57-3.45-0.57
			c-1.41,0-2.71,0.25-3.87,0.74c-1.17,0.49-2.13,1.2-2.88,2.12c-0.75,0.92-1.2,1.99-1.34,3.22c-0.02,0.1-0.04,0.2-0.05,0.3
			c-0.01,0.11-0.02,0.22-0.02,0.34h3.68v-0.05v-0.05c0.02-0.73,0.18-1.38,0.48-1.95c0.29-0.57,0.77-1.01,1.43-1.34
			c0.66-0.33,1.52-0.49,2.58-0.49c0.99,0,1.78,0.15,2.39,0.46c0.6,0.31,1.03,0.68,1.29,1.13c0.26,0.45,0.41,0.93,0.46,1.45v0.14
			v0.14c0,0.38-0.03,0.68-0.09,0.9c-0.06,0.22-0.22,0.42-0.48,0.58c-0.26,0.17-0.65,0.29-1.17,0.39c-0.59,0.12-1.23,0.23-1.93,0.34
			c-0.7,0.11-1.47,0.21-2.32,0.3c-0.21,0.02-0.43,0.05-0.65,0.09c-0.23,0.04-0.46,0.07-0.69,0.09c-1.58,0.19-2.86,0.73-3.86,1.63
			c-0.99,0.9-1.48,2.1-1.48,3.61c0,1.09,0.28,2.05,0.83,2.9s1.33,1.51,2.33,1.98c1,0.47,2.15,0.71,3.45,0.71
			c0.94,0,1.84-0.15,2.69-0.46c0.85-0.31,1.57-0.7,2.16-1.17c0.59-0.47,1-0.94,1.24-1.41c0,0.78,0.02,1.37,0.05,1.79
			c0.04,0.41,0.08,0.69,0.12,0.83H873.98z M852.87,502.63h-3.61v25.96h3.61V502.63z M839.08,528.45c0.8-0.38,1.38-0.77,1.73-1.18
			c0.35-0.41,0.6-0.79,0.74-1.15v2.48h3.64v-18.81h-3.64v9.97v0.05v0.05c-0.02,1.13-0.22,2.17-0.58,3.11
			c-0.37,0.94-0.92,1.69-1.68,2.24c-0.75,0.55-1.68,0.83-2.79,0.83c-0.92,0-1.68-0.19-2.28-0.57c-0.6-0.38-1.04-0.92-1.33-1.63
			c-0.28-0.71-0.44-1.56-0.46-2.55v-0.07v-0.07v-11.39h-3.64v11.88c0,1.65,0.34,3.03,1.01,4.14c0.67,1.11,1.55,1.92,2.63,2.44
			c1.08,0.52,2.26,0.78,3.54,0.78C837.24,529.01,838.27,528.82,839.08,528.45 M812.7,525.3c-0.9-0.59-1.59-1.4-2.07-2.44
			c-0.48-1.04-0.74-2.22-0.76-3.54v-0.28v-0.07v-0.07c0.02-1.37,0.28-2.56,0.76-3.57c0.48-1.01,1.17-1.79,2.07-2.33
			c0.89-0.54,1.94-0.81,3.15-0.81c1.11,0,2.09,0.28,2.95,0.83c0.86,0.55,1.53,1.34,2.02,2.35c0.48,1.01,0.74,2.19,0.76,3.54v0.07
			v0.07v0.28v0.16v0.16c-0.05,1.32-0.33,2.48-0.83,3.47c-0.51,0.99-1.18,1.75-2.02,2.28c-0.84,0.53-1.8,0.8-2.88,0.8
			C814.64,526.18,813.59,525.89,812.7,525.3 M813.63,509.7c-0.77,0.24-1.44,0.56-2.03,0.97c-0.59,0.41-1.11,0.91-1.56,1.5v-9.55
			h-3.68v25.96h3.68v-2.69c0.31,0.49,0.75,0.98,1.34,1.45c0.59,0.47,1.33,0.87,2.21,1.18c0.88,0.32,1.87,0.48,2.95,0.48
			c1.53,0,2.97-0.41,4.3-1.24c1.33-0.82,2.4-1.97,3.2-3.45c0.8-1.47,1.2-3.14,1.2-5v-0.28c0-1.89-0.4-3.57-1.2-5.04
			c-0.8-1.47-1.89-2.62-3.27-3.43s-2.91-1.22-4.58-1.22C815.25,509.35,814.4,509.47,813.63,509.7 M797.84,520.84
			c0,1.25-0.29,2.27-0.88,3.08c-0.59,0.8-1.32,1.38-2.17,1.73c-0.86,0.35-1.69,0.53-2.49,0.53c-0.87,0-1.57-0.14-2.1-0.41
			c-0.53-0.27-0.9-0.61-1.11-1.03c-0.21-0.41-0.32-0.85-0.32-1.33c0-0.54,0.1-0.99,0.3-1.34c0.2-0.35,0.55-0.65,1.04-0.89
			c0.49-0.23,1.17-0.4,2.02-0.49c0.07,0,0.14-0.01,0.21-0.02c0.07-0.01,0.14-0.02,0.21-0.02c1.65-0.21,2.84-0.38,3.55-0.49
			s1.3-0.29,1.75-0.53V520.84z M801.63,528.59c-0.07-0.54-0.13-1.21-0.18-2.02c-0.05-0.8-0.08-1.66-0.11-2.58v-0.55v-0.51v-6.75
			c0-0.31-0.02-0.6-0.05-0.88c-0.04-0.28-0.08-0.55-0.12-0.81c-0.26-1.13-0.75-2.08-1.47-2.85c-0.72-0.77-1.6-1.34-2.65-1.71
			s-2.2-0.57-3.45-0.57c-1.41,0-2.71,0.25-3.87,0.74c-1.17,0.49-2.13,1.2-2.88,2.12c-0.76,0.92-1.2,1.99-1.34,3.22
			c-0.02,0.1-0.04,0.2-0.05,0.3c-0.01,0.11-0.02,0.22-0.02,0.34h3.68v-0.05v-0.05c0.02-0.73,0.18-1.38,0.48-1.95
			c0.29-0.57,0.77-1.01,1.43-1.34c0.66-0.33,1.52-0.49,2.58-0.49c0.99,0,1.79,0.15,2.39,0.46c0.6,0.31,1.03,0.68,1.29,1.13
			c0.26,0.45,0.41,0.93,0.46,1.45v0.14v0.14c0,0.38-0.03,0.68-0.09,0.9c-0.06,0.22-0.22,0.42-0.48,0.58
			c-0.26,0.17-0.65,0.29-1.17,0.39c-0.59,0.12-1.23,0.23-1.93,0.34c-0.7,0.11-1.47,0.21-2.32,0.3c-0.21,0.02-0.43,0.05-0.65,0.09
			c-0.22,0.04-0.45,0.07-0.69,0.09c-1.58,0.19-2.86,0.73-3.86,1.63c-0.99,0.9-1.48,2.1-1.48,3.61c0,1.09,0.28,2.05,0.83,2.9
			c0.55,0.85,1.33,1.51,2.33,1.98c1,0.47,2.15,0.71,3.45,0.71c0.94,0,1.84-0.15,2.69-0.46c0.85-0.31,1.57-0.7,2.16-1.17
			c0.59-0.47,1-0.94,1.24-1.41c0,0.78,0.02,1.37,0.05,1.79c0.04,0.41,0.08,0.69,0.12,0.83H801.63z M761.6,502.63v3.18h8.42v22.77
			h3.68v-22.77h8.42v-3.18H761.6z"/>
		<path style="clip-path:url(#SVGID_00000014607222167442678760000007969863409270507453_);" d="M1040.29,662.55
			c0.76,0.54,1.31,1.2,1.66,1.98c0.35,0.78,0.54,1.53,0.57,2.26v0.07v0.07h-0.07h-10.71h-0.14v-0.05v-0.05
			c0.14-0.92,0.44-1.76,0.9-2.53c0.46-0.77,1.1-1.39,1.93-1.86c0.82-0.47,1.81-0.71,2.97-0.71
			C1038.57,661.74,1039.53,662.01,1040.29,662.55 M1034.28,674.96c-0.87-0.52-1.53-1.21-1.98-2.09c-0.45-0.87-0.68-1.85-0.71-2.93
			v-0.18h0.18h14.36v-1.63c0-1.84-0.39-3.46-1.17-4.86c-0.78-1.4-1.83-2.48-3.17-3.24c-1.33-0.76-2.8-1.13-4.4-1.13
			c-1.84,0-3.47,0.4-4.88,1.2c-1.41,0.8-2.52,1.93-3.31,3.4c-0.79,1.46-1.2,3.15-1.22,5.06v0.18c0,1.72,0.34,3.33,1.03,4.83
			c0.68,1.5,1.73,2.71,3.15,3.62c1.41,0.92,3.16,1.38,5.23,1.38c1.37,0,2.65-0.24,3.85-0.73c1.2-0.48,2.23-1.22,3.08-2.21
			c0.85-0.99,1.41-2.22,1.7-3.68h-0.18h-3.29h-0.14v0.05c0,0.01-0.01,0.03-0.03,0.05c-0.19,1.09-0.7,1.97-1.54,2.65
			c-0.84,0.68-1.99,1.03-3.45,1.03C1036.19,675.74,1035.15,675.48,1034.28,674.96 M1023.28,652.19h-3.61v25.96h3.61V652.19z
			 M999.97,685.71h3.71l11.49-26.38h-3.85l-5.38,12.55l-5.45-12.55h-4l7.57,16.9L999.97,685.71z M994.53,678.15v-2.83h-2.33
			c-0.57,0-1.04-0.1-1.43-0.3c-0.39-0.2-0.7-0.57-0.92-1.11s-0.34-1.32-0.34-2.33v-9.41h5.02v-2.83h-5.41
			c0.16-0.12,0.29-0.29,0.37-0.53c0.08-0.24,0.12-0.54,0.12-0.92v-3.25h-3.32v2.65c0,0.83-0.14,1.37-0.41,1.65
			c-0.27,0.27-0.63,0.41-1.08,0.41h-3.36v2.83h4.46v9.97c0,1.44,0.27,2.61,0.8,3.5c0.53,0.9,1.22,1.54,2.07,1.93
			c0.85,0.39,1.77,0.58,2.76,0.58H994.53z M975.63,677.86c1.14-0.47,2.02-1.12,2.62-1.95c0.6-0.82,0.9-1.77,0.9-2.83v-0.21
			c0-1.15-0.29-2.1-0.88-2.85c-0.59-0.74-1.33-1.31-2.23-1.72c-0.9-0.4-1.91-0.71-3.04-0.92l-3.43-0.67
			c-0.76-0.14-1.31-0.41-1.68-0.81c-0.36-0.4-0.55-0.88-0.55-1.45v-0.14v-0.03c0.02-0.83,0.4-1.46,1.11-1.89
			c0.72-0.44,1.6-0.65,2.64-0.65c0.82,0,1.54,0.16,2.14,0.48c0.6,0.32,1.08,0.77,1.43,1.36c0.35,0.59,0.57,1.27,0.64,2.05h0.32h3.11
			h0.21c-0.14-1.39-0.56-2.59-1.26-3.61c-0.7-1.01-1.61-1.79-2.74-2.32c-1.13-0.53-2.42-0.8-3.85-0.8c-1.56,0-2.89,0.24-4,0.71
			c-1.11,0.47-1.95,1.11-2.51,1.93c-0.57,0.81-0.85,1.74-0.85,2.78v0.14c0,0.14,0.01,0.28,0.02,0.41c0.01,0.13,0.03,0.25,0.05,0.37
			c0.12,0.78,0.41,1.45,0.87,2.02c0.46,0.57,1.03,1.01,1.7,1.34c0.67,0.33,1.42,0.59,2.24,0.78l3.68,0.81
			c0.71,0.17,1.29,0.35,1.75,0.55c0.46,0.2,0.82,0.48,1.08,0.85c0.26,0.37,0.39,0.82,0.39,1.36v0.14c0,0.61-0.15,1.12-0.46,1.52
			c-0.31,0.4-0.75,0.7-1.33,0.9s-1.28,0.3-2.1,0.3c-0.9,0-1.68-0.17-2.35-0.51c-0.67-0.34-1.2-0.79-1.59-1.34
			c-0.39-0.55-0.64-1.17-0.76-1.86c-0.02-0.02-0.03-0.05-0.03-0.07v-0.07h-0.32h-3.08h-0.25c0.28,1.25,0.74,2.36,1.36,3.34
			c0.62,0.98,1.51,1.77,2.67,2.37c1.15,0.6,2.6,0.9,4.35,0.9C973.15,678.57,974.48,678.33,975.63,677.86 M945.85,674.89
			c-0.86-0.57-1.53-1.37-2.02-2.4c-0.48-1.04-0.74-2.24-0.76-3.61v-0.28v-0.07v-0.07c0.02-1.34,0.28-2.52,0.76-3.54
			c0.48-1.01,1.15-1.8,2.02-2.35c0.86-0.55,1.84-0.83,2.95-0.83c1.2,0,2.25,0.27,3.15,0.81c0.9,0.54,1.59,1.32,2.07,2.33
			c0.48,1.01,0.74,2.21,0.76,3.57v0.07v0.07v0.28v0.16v0.16c-0.07,1.25-0.35,2.37-0.85,3.36s-1.18,1.77-2.07,2.33
			c-0.88,0.57-1.9,0.85-3.06,0.85C947.7,675.74,946.71,675.46,945.85,674.89 M943.87,660.13c-1.38,0.81-2.47,1.96-3.27,3.43
			c-0.8,1.47-1.2,3.15-1.2,5.04v0.28c0,1.86,0.4,3.53,1.2,5c0.8,1.47,1.87,2.62,3.2,3.45c1.33,0.83,2.76,1.24,4.3,1.24
			c1.08,0,2.07-0.16,2.95-0.48s1.62-0.71,2.21-1.18c0.59-0.47,1.04-0.96,1.34-1.45v2.69h3.68v-25.96h-3.68v9.55
			c-0.45-0.59-0.97-1.09-1.56-1.5c-0.59-0.41-1.27-0.74-2.03-0.97c-0.77-0.24-1.62-0.35-2.56-0.35
			C946.78,658.91,945.25,659.32,943.87,660.13 M934.62,652.19h-3.61v25.96h3.61V652.19z M908.49,674.2
			c-1.41-0.79-2.53-1.93-3.36-3.41c-0.83-1.48-1.24-3.24-1.24-5.27v-0.35v-0.35v-0.07v-0.07c0.02-1.98,0.45-3.71,1.27-5.18
			c0.83-1.47,1.94-2.6,3.34-3.38c1.4-0.78,2.98-1.17,4.72-1.17c1.74,0,3.32,0.39,4.74,1.18c1.42,0.79,2.53,1.93,3.36,3.41
			c0.83,1.49,1.24,3.24,1.24,5.27v0.35v0.35v0.07v0.07c-0.02,1.98-0.45,3.71-1.27,5.18c-0.83,1.47-1.94,2.6-3.34,3.38
			c-1.4,0.78-2.98,1.17-4.72,1.17C911.49,675.39,909.91,674.99,908.49,674.2 M919.81,676.93c1.98-1.1,3.55-2.63,4.7-4.61
			c1.15-1.98,1.73-4.24,1.73-6.79v-0.35v-0.35c0-2.55-0.58-4.81-1.73-6.79c-1.16-1.98-2.72-3.52-4.7-4.61
			c-1.98-1.1-4.17-1.64-6.58-1.64c-2.4,0-4.6,0.55-6.58,1.64c-1.98,1.1-3.55,2.64-4.7,4.61c-1.15,1.98-1.73,4.24-1.73,6.79v0.35
			v0.35c0,2.55,0.58,4.81,1.73,6.79c1.16,1.98,2.72,3.52,4.7,4.61c1.98,1.1,4.17,1.65,6.58,1.65
			C915.64,678.57,917.83,678.02,919.81,676.93 M884.18,659.37c-0.72,0.31-1.32,0.71-1.8,1.22c-0.48,0.51-0.85,1.07-1.11,1.68v-2.93
			h-3.61v18.81h3.61v-10.5v-0.48c0-0.15,0.01-0.3,0.04-0.44c0.09-1.01,0.35-1.9,0.78-2.65c0.42-0.75,0.98-1.33,1.66-1.73
			c0.68-0.4,1.44-0.6,2.26-0.6h2.41v-2.83h-1.77C885.72,658.91,884.9,659.06,884.18,659.37 M870.19,670.4
			c0,1.25-0.29,2.27-0.88,3.08c-0.59,0.8-1.31,1.38-2.17,1.73c-0.86,0.35-1.69,0.53-2.49,0.53c-0.87,0-1.57-0.14-2.1-0.41
			c-0.53-0.27-0.9-0.61-1.11-1.03c-0.21-0.41-0.32-0.85-0.32-1.33c0-0.54,0.1-0.99,0.3-1.34c0.2-0.35,0.55-0.65,1.04-0.89
			c0.5-0.23,1.17-0.4,2.02-0.49c0.07,0,0.14-0.01,0.21-0.02c0.07-0.01,0.14-0.02,0.21-0.02c1.65-0.21,2.83-0.38,3.55-0.49
			c0.72-0.12,1.3-0.29,1.75-0.53V670.4z M873.98,678.15c-0.07-0.54-0.13-1.21-0.18-2.02c-0.05-0.8-0.08-1.66-0.11-2.58V673v-0.51
			v-6.75c0-0.31-0.02-0.6-0.05-0.88c-0.03-0.28-0.08-0.55-0.12-0.81c-0.26-1.13-0.75-2.08-1.47-2.85c-0.72-0.77-1.6-1.34-2.65-1.71
			c-1.05-0.38-2.2-0.57-3.45-0.57c-1.41,0-2.71,0.25-3.87,0.74c-1.17,0.49-2.13,1.2-2.88,2.12c-0.75,0.92-1.2,1.99-1.34,3.22
			c-0.02,0.1-0.04,0.2-0.05,0.3c-0.01,0.11-0.02,0.22-0.02,0.34h3.68v-0.05v-0.05c0.02-0.73,0.18-1.38,0.48-1.95
			c0.29-0.57,0.77-1.01,1.43-1.34c0.66-0.33,1.52-0.49,2.58-0.49c0.99,0,1.78,0.15,2.39,0.46c0.6,0.31,1.03,0.68,1.29,1.13
			c0.26,0.45,0.41,0.93,0.46,1.45v0.14v0.14c0,0.38-0.03,0.68-0.09,0.9c-0.06,0.22-0.22,0.42-0.48,0.58
			c-0.26,0.17-0.65,0.29-1.17,0.39c-0.59,0.12-1.23,0.23-1.93,0.34c-0.7,0.11-1.47,0.21-2.32,0.3c-0.21,0.02-0.43,0.05-0.65,0.09
			c-0.23,0.04-0.46,0.07-0.69,0.09c-1.58,0.19-2.86,0.73-3.86,1.63c-0.99,0.9-1.48,2.1-1.48,3.61c0,1.09,0.28,2.05,0.83,2.9
			s1.33,1.51,2.33,1.98c1,0.47,2.15,0.71,3.45,0.71c0.94,0,1.84-0.15,2.69-0.46c0.85-0.31,1.57-0.7,2.16-1.17
			c0.59-0.47,1-0.94,1.24-1.41c0,0.78,0.02,1.37,0.05,1.79c0.04,0.41,0.08,0.69,0.12,0.83H873.98z M852.87,652.19h-3.61v25.96h3.61
			V652.19z M839.08,678c0.8-0.38,1.38-0.77,1.73-1.18c0.35-0.41,0.6-0.79,0.74-1.15v2.48h3.64v-18.81h-3.64v9.97v0.05v0.05
			c-0.02,1.13-0.22,2.17-0.58,3.11c-0.37,0.94-0.92,1.69-1.68,2.24c-0.75,0.55-1.68,0.83-2.79,0.83c-0.92,0-1.68-0.19-2.28-0.57
			c-0.6-0.38-1.04-0.92-1.33-1.63c-0.28-0.71-0.44-1.56-0.46-2.55v-0.07v-0.07v-11.39h-3.64v11.88c0,1.65,0.34,3.03,1.01,4.14
			c0.67,1.11,1.55,1.92,2.63,2.44c1.08,0.52,2.26,0.78,3.54,0.78C837.24,678.57,838.27,678.38,839.08,678 M812.7,674.86
			c-0.9-0.59-1.59-1.4-2.07-2.44c-0.48-1.04-0.74-2.22-0.76-3.54v-0.28v-0.07v-0.07c0.02-1.37,0.28-2.56,0.76-3.57
			c0.48-1.01,1.17-1.79,2.07-2.33c0.89-0.54,1.94-0.81,3.15-0.81c1.11,0,2.09,0.28,2.95,0.83c0.86,0.55,1.53,1.34,2.02,2.35
			c0.48,1.01,0.74,2.19,0.76,3.54v0.07v0.07v0.28v0.16v0.16c-0.05,1.32-0.33,2.48-0.83,3.47c-0.51,0.99-1.18,1.75-2.02,2.28
			c-0.84,0.53-1.8,0.8-2.88,0.8C814.64,675.74,813.59,675.45,812.7,674.86 M813.63,659.26c-0.77,0.24-1.44,0.56-2.03,0.97
			c-0.59,0.41-1.11,0.91-1.56,1.5v-9.55h-3.68v25.96h3.68v-2.69c0.31,0.49,0.75,0.98,1.34,1.45c0.59,0.47,1.33,0.87,2.21,1.18
			c0.88,0.32,1.87,0.48,2.95,0.48c1.53,0,2.97-0.41,4.3-1.24c1.33-0.82,2.4-1.97,3.2-3.45c0.8-1.47,1.2-3.14,1.2-5v-0.28
			c0-1.89-0.4-3.57-1.2-5.04c-0.8-1.47-1.89-2.62-3.27-3.43s-2.91-1.22-4.58-1.22C815.25,658.91,814.4,659.03,813.63,659.26
			 M797.84,670.4c0,1.25-0.29,2.27-0.88,3.08c-0.59,0.8-1.32,1.38-2.17,1.73c-0.86,0.35-1.69,0.53-2.49,0.53
			c-0.87,0-1.57-0.14-2.1-0.41c-0.53-0.27-0.9-0.61-1.11-1.03c-0.21-0.41-0.32-0.85-0.32-1.33c0-0.54,0.1-0.99,0.3-1.34
			c0.2-0.35,0.55-0.65,1.04-0.89c0.49-0.23,1.17-0.4,2.02-0.49c0.07,0,0.14-0.01,0.21-0.02c0.07-0.01,0.14-0.02,0.21-0.02
			c1.65-0.21,2.84-0.38,3.55-0.49s1.3-0.29,1.75-0.53V670.4z M801.63,678.15c-0.07-0.54-0.13-1.21-0.18-2.02
			c-0.05-0.8-0.08-1.66-0.11-2.58V673v-0.51v-6.75c0-0.31-0.02-0.6-0.05-0.88c-0.04-0.28-0.08-0.55-0.12-0.81
			c-0.26-1.13-0.75-2.08-1.47-2.85c-0.72-0.77-1.6-1.34-2.65-1.71s-2.2-0.57-3.45-0.57c-1.41,0-2.71,0.25-3.87,0.74
			c-1.17,0.49-2.13,1.2-2.88,2.12c-0.76,0.92-1.2,1.99-1.34,3.22c-0.02,0.1-0.04,0.2-0.05,0.3c-0.01,0.11-0.02,0.22-0.02,0.34h3.68
			v-0.05v-0.05c0.02-0.73,0.18-1.38,0.48-1.95c0.29-0.57,0.77-1.01,1.43-1.34c0.66-0.33,1.52-0.49,2.58-0.49
			c0.99,0,1.79,0.15,2.39,0.46c0.6,0.31,1.03,0.68,1.29,1.13c0.26,0.45,0.41,0.93,0.46,1.45v0.14v0.14c0,0.38-0.03,0.68-0.09,0.9
			c-0.06,0.22-0.22,0.42-0.48,0.58c-0.26,0.17-0.65,0.29-1.17,0.39c-0.59,0.12-1.23,0.23-1.93,0.34c-0.7,0.11-1.47,0.21-2.32,0.3
			c-0.21,0.02-0.43,0.05-0.65,0.09c-0.22,0.04-0.45,0.07-0.69,0.09c-1.58,0.19-2.86,0.73-3.86,1.63c-0.99,0.9-1.48,2.1-1.48,3.61
			c0,1.09,0.28,2.05,0.83,2.9c0.55,0.85,1.33,1.51,2.33,1.98c1,0.47,2.15,0.71,3.45,0.71c0.94,0,1.84-0.15,2.69-0.46
			c0.85-0.31,1.57-0.7,2.16-1.17c0.59-0.47,1-0.94,1.24-1.41c0,0.78,0.02,1.37,0.05,1.79c0.04,0.41,0.08,0.69,0.12,0.83H801.63z
			 M761.6,652.19v3.18h8.42v22.77h3.68v-22.77h8.42v-3.18H761.6z"/>
		<path style="clip-path:url(#SVGID_00000014607222167442678760000007969863409270507453_);" d="M998.21,463.14
			c0.75,0.54,1.31,1.2,1.66,1.98c0.35,0.78,0.54,1.53,0.57,2.26v0.07v0.07h-0.07h-10.71h-0.14v-0.05v-0.05
			c0.14-0.92,0.44-1.76,0.9-2.53c0.46-0.77,1.1-1.38,1.93-1.86c0.83-0.47,1.82-0.71,2.97-0.71
			C996.48,462.33,997.45,462.6,998.21,463.14 M992.19,475.55c-0.87-0.52-1.53-1.21-1.98-2.09s-0.68-1.85-0.71-2.93v-0.18h0.18h14.36
			v-1.63c0-1.84-0.39-3.46-1.17-4.86c-0.78-1.4-1.83-2.48-3.17-3.24c-1.33-0.75-2.8-1.13-4.4-1.13c-1.84,0-3.46,0.4-4.88,1.2
			c-1.41,0.8-2.52,1.93-3.31,3.4c-0.79,1.46-1.2,3.15-1.22,5.06v0.18c0,1.72,0.34,3.33,1.03,4.83c0.68,1.5,1.73,2.71,3.15,3.62
			c1.41,0.92,3.16,1.38,5.23,1.38c1.37,0,2.65-0.24,3.86-0.72c1.2-0.48,2.23-1.22,3.08-2.21c0.85-0.99,1.41-2.21,1.7-3.68h-0.18
			h-3.29h-0.14v0.05c0,0.01-0.01,0.03-0.04,0.05c-0.19,1.08-0.7,1.97-1.54,2.65c-0.84,0.68-1.99,1.03-3.45,1.03
			C994.1,476.33,993.07,476.07,992.19,475.55 M979.66,459.96c-0.72,0.31-1.32,0.71-1.8,1.22c-0.48,0.51-0.85,1.07-1.11,1.68v-2.93
			h-3.61v18.81h3.61v-10.5v-0.48c0-0.15,0.01-0.3,0.04-0.44c0.09-1.01,0.35-1.9,0.78-2.65c0.42-0.76,0.98-1.33,1.66-1.73
			c0.68-0.4,1.44-0.6,2.26-0.6h2.4v-2.83h-1.77C981.2,459.5,980.38,459.65,979.66,459.96 M963.83,478.59
			c0.8-0.38,1.38-0.77,1.73-1.18c0.35-0.41,0.6-0.8,0.74-1.15v2.47h3.64v-18.81h-3.64v9.97v0.05V470c-0.02,1.13-0.22,2.17-0.58,3.11
			c-0.37,0.94-0.93,1.69-1.68,2.25c-0.76,0.55-1.69,0.83-2.79,0.83c-0.92,0-1.68-0.19-2.28-0.57c-0.6-0.38-1.04-0.92-1.33-1.63
			c-0.28-0.71-0.44-1.56-0.46-2.55v-0.07v-0.07v-11.39h-3.64v11.88c0,1.65,0.34,3.03,1.01,4.14c0.67,1.11,1.55,1.92,2.63,2.44
			c1.08,0.52,2.26,0.78,3.54,0.78S963.03,478.97,963.83,478.59 M936.87,475.48c-0.86-0.57-1.53-1.37-2.02-2.4
			c-0.48-1.04-0.74-2.24-0.76-3.61v-0.28v-0.07v-0.07c0.02-1.34,0.28-2.52,0.76-3.54c0.48-1.01,1.15-1.8,2.02-2.35
			c0.86-0.55,1.84-0.83,2.95-0.83c1.2,0,2.25,0.27,3.15,0.81c0.9,0.54,1.59,1.32,2.07,2.33c0.48,1.01,0.74,2.21,0.76,3.57v0.07v0.07
			v0.28v0.16v0.16c-0.07,1.25-0.35,2.37-0.85,3.36c-0.49,0.99-1.18,1.77-2.07,2.33c-0.88,0.57-1.9,0.85-3.06,0.85
			C938.71,476.33,937.73,476.05,936.87,475.48 M944.88,485.79c1.39-0.62,2.47-1.54,3.25-2.74c0.78-1.2,1.17-2.64,1.17-4.31v-18.81
			h-3.68v2.41c-0.45-0.59-0.97-1.09-1.56-1.5c-0.59-0.41-1.27-0.74-2.03-0.97c-0.77-0.23-1.62-0.35-2.56-0.35
			c-1.67,0-3.2,0.41-4.58,1.22c-1.38,0.81-2.47,1.96-3.27,3.43c-0.8,1.47-1.2,3.15-1.2,5.04v0.28c0,1.86,0.4,3.53,1.2,5
			c0.8,1.47,1.87,2.62,3.2,3.45c1.33,0.83,2.76,1.24,4.3,1.24c1.08,0,2.07-0.16,2.95-0.48c0.88-0.32,1.62-0.71,2.21-1.18
			c0.59-0.47,1.04-0.96,1.34-1.45v2.69v0.04c0,1.27-0.21,2.29-0.64,3.04c-0.42,0.75-1.04,1.29-1.84,1.61
			c-0.8,0.32-1.83,0.48-3.08,0.48c-1.06,0-1.99-0.15-2.78-0.44c-0.79-0.29-1.43-0.72-1.91-1.29c-0.48-0.57-0.81-1.26-0.97-2.09
			c0-0.02-0.01-0.05-0.02-0.07c-0.01-0.02-0.02-0.05-0.02-0.07h-0.39h-2.58h-0.42c0.24,1.53,0.81,2.81,1.72,3.82
			c0.91,1.01,2,1.76,3.29,2.25c1.28,0.48,2.65,0.72,4.08,0.72C941.89,486.73,943.49,486.41,944.88,485.79 M925.85,453.52
			c-0.21-0.35-0.49-0.64-0.85-0.85c-0.35-0.21-0.74-0.32-1.17-0.32s-0.81,0.11-1.17,0.32c-0.35,0.21-0.64,0.49-0.85,0.85
			c-0.21,0.35-0.32,0.74-0.32,1.17c0,0.43,0.11,0.83,0.32,1.2c0.21,0.38,0.49,0.67,0.85,0.88c0.35,0.21,0.74,0.32,1.17,0.32
			s0.81-0.11,1.17-0.32c0.35-0.21,0.64-0.51,0.85-0.88c0.21-0.38,0.32-0.78,0.32-1.2C926.17,454.26,926.07,453.87,925.85,453.52
			 M925.68,459.96H922v18.78h3.68V459.96z M918.15,455.96v-3.18h-17.89v25.96h3.68v-11.42h11.95v-3.18h-11.95v-8.17H918.15z
			 M888.26,478.73v-2.83h-2.33c-0.57,0-1.04-0.1-1.43-0.3c-0.39-0.2-0.7-0.57-0.92-1.11c-0.22-0.54-0.34-1.32-0.34-2.33v-9.41h5.02
			v-2.83h-5.41c0.16-0.12,0.29-0.29,0.37-0.53c0.08-0.24,0.12-0.54,0.12-0.92v-3.25h-3.32v2.65c0,0.83-0.14,1.37-0.41,1.64
			c-0.27,0.27-0.63,0.41-1.08,0.41h-3.36v2.83h4.46v9.97c0,1.44,0.27,2.61,0.8,3.5c0.53,0.9,1.22,1.54,2.07,1.93
			c0.85,0.39,1.77,0.58,2.76,0.58H888.26z M871.11,452.78h-3.61v25.96h3.61V452.78z M857.32,478.59c0.8-0.38,1.38-0.77,1.73-1.18
			c0.35-0.41,0.6-0.8,0.74-1.15v2.47h3.64v-18.81h-3.64v9.97v0.05V470c-0.02,1.13-0.22,2.17-0.58,3.11
			c-0.37,0.94-0.93,1.69-1.68,2.25c-0.76,0.55-1.69,0.83-2.79,0.83c-0.92,0-1.68-0.19-2.28-0.57c-0.6-0.38-1.04-0.92-1.33-1.63
			c-0.28-0.71-0.44-1.56-0.46-2.55v-0.07v-0.07v-11.39h-3.64v11.88c0,1.65,0.34,3.03,1.01,4.14c0.67,1.11,1.55,1.92,2.64,2.44
			c1.08,0.52,2.26,0.78,3.54,0.78S856.52,478.97,857.32,478.59 M839.92,470.99c0,1.25-0.29,2.27-0.88,3.08
			c-0.59,0.8-1.32,1.38-2.18,1.73c-0.86,0.35-1.69,0.53-2.49,0.53c-0.87,0-1.57-0.14-2.1-0.41c-0.53-0.27-0.9-0.61-1.11-1.03
			c-0.21-0.41-0.32-0.85-0.32-1.33c0-0.54,0.1-0.99,0.3-1.34c0.2-0.35,0.55-0.65,1.04-0.88c0.49-0.23,1.17-0.4,2.02-0.49
			c0.07,0,0.14-0.01,0.21-0.02c0.07-0.01,0.14-0.02,0.21-0.02c1.65-0.21,2.84-0.38,3.55-0.49c0.72-0.12,1.3-0.3,1.75-0.53V470.99z
			 M843.71,478.73c-0.07-0.54-0.13-1.21-0.18-2.02c-0.05-0.8-0.08-1.66-0.11-2.58v-0.55v-0.51v-6.75c0-0.31-0.02-0.6-0.05-0.88
			c-0.04-0.28-0.08-0.55-0.12-0.81c-0.26-1.13-0.75-2.08-1.47-2.85c-0.72-0.77-1.6-1.34-2.65-1.72c-1.05-0.38-2.2-0.57-3.45-0.57
			c-1.41,0-2.7,0.25-3.87,0.74c-1.17,0.49-2.13,1.2-2.88,2.12c-0.76,0.92-1.2,1.99-1.34,3.22c-0.02,0.09-0.04,0.2-0.05,0.3
			c-0.01,0.11-0.02,0.22-0.02,0.34h3.68v-0.05v-0.05c0.02-0.73,0.18-1.38,0.48-1.94c0.29-0.57,0.77-1.01,1.43-1.34
			c0.66-0.33,1.52-0.49,2.58-0.49c0.99,0,1.79,0.15,2.39,0.46c0.6,0.31,1.03,0.68,1.29,1.13c0.26,0.45,0.41,0.93,0.46,1.45v0.14
			v0.14c0,0.38-0.03,0.68-0.09,0.9c-0.06,0.22-0.22,0.42-0.48,0.58c-0.26,0.17-0.65,0.3-1.17,0.39c-0.59,0.12-1.23,0.23-1.93,0.34
			c-0.7,0.11-1.47,0.21-2.32,0.3c-0.21,0.02-0.43,0.05-0.65,0.09c-0.22,0.04-0.45,0.07-0.69,0.09c-1.58,0.19-2.86,0.73-3.85,1.63
			s-1.48,2.1-1.48,3.61c0,1.09,0.28,2.05,0.83,2.9c0.55,0.85,1.33,1.51,2.33,1.98c1,0.47,2.15,0.71,3.45,0.71
			c0.94,0,1.84-0.15,2.69-0.46c0.85-0.31,1.57-0.7,2.16-1.17c0.59-0.47,1-0.94,1.24-1.41c0,0.78,0.02,1.37,0.05,1.79
			c0.04,0.41,0.08,0.69,0.12,0.83H843.71z M824.44,455.75v-2.97h-2.4c-1.44,0-2.67,0.28-3.7,0.83c-1.03,0.55-1.8,1.3-2.33,2.23
			c-0.53,0.93-0.8,1.96-0.8,3.09v1.03h-4.49v2.97h4.49v15.81h3.68v-15.81h5.66v-2.97h-5.66v-1.03c0-1.23,0.26-2.06,0.78-2.51
			c0.52-0.45,1.31-0.67,2.37-0.67H824.44z M801.27,463.14c0.75,0.54,1.31,1.2,1.66,1.98c0.35,0.78,0.54,1.53,0.57,2.26v0.07v0.07
			h-0.07h-10.71h-0.14v-0.05v-0.05c0.14-0.92,0.44-1.76,0.9-2.53c0.46-0.77,1.1-1.38,1.93-1.86c0.82-0.47,1.82-0.71,2.97-0.71
			C799.55,462.33,800.52,462.6,801.27,463.14 M795.26,475.55c-0.87-0.52-1.53-1.21-1.98-2.09c-0.45-0.87-0.68-1.85-0.71-2.93v-0.18
			h0.18h14.36v-1.63c0-1.84-0.39-3.46-1.17-4.86c-0.78-1.4-1.83-2.48-3.17-3.24c-1.33-0.75-2.8-1.13-4.4-1.13
			c-1.84,0-3.47,0.4-4.88,1.2c-1.42,0.8-2.52,1.93-3.31,3.4c-0.79,1.46-1.2,3.15-1.22,5.06v0.18c0,1.72,0.34,3.33,1.03,4.83
			c0.68,1.5,1.73,2.71,3.15,3.62c1.41,0.92,3.16,1.38,5.23,1.38c1.37,0,2.65-0.24,3.85-0.72c1.2-0.48,2.23-1.22,3.08-2.21
			s1.41-2.21,1.7-3.68h-0.18h-3.29h-0.14v0.05c0,0.01-0.01,0.03-0.04,0.05c-0.19,1.08-0.7,1.97-1.54,2.65
			c-0.84,0.68-1.99,1.03-3.45,1.03C797.17,476.33,796.13,476.07,795.26,475.55 M781.47,465.76v0.14c0,1.89-0.37,3.55-1.1,5
			c-0.73,1.45-1.83,2.59-3.29,3.41c-1.46,0.83-3.25,1.24-5.38,1.24h-5.38v-9.79v-9.8h5.38c2.12,0,3.91,0.41,5.38,1.24
			c1.46,0.83,2.56,1.96,3.29,3.41c0.73,1.45,1.1,3.12,1.1,5V465.76z M762.66,478.73h9.05c2.59,0,4.91-0.53,6.95-1.59
			c2.04-1.06,3.63-2.56,4.77-4.51c1.14-1.95,1.72-4.19,1.72-6.74v-0.14v-0.14c0-2.55-0.57-4.79-1.72-6.74
			c-1.14-1.95-2.73-3.45-4.77-4.51c-2.04-1.06-4.36-1.59-6.95-1.59h-9.05v12.98V478.73z"/>
	</g>
	<polyline class="st20" points="720.47,468.49 729.21,477.41 745.43,453.72 	"/>
</g>
</svg>
