<?xml version="1.0" encoding="utf-8"?>
<!-- Generator: Adobe Illustrator 26.0.2, SVG Export Plug-In . SVG Version: 6.00 Build 0)  -->
<svg version="1.1" id="Calque_1" xmlns="http://www.w3.org/2000/svg" xmlns:xlink="http://www.w3.org/1999/xlink" x="0px" y="0px"
	 viewBox="0 0 1250 1250" style="enable-background:new 0 0 1250 1250;" xml:space="preserve">
<style type="text/css">
	.st0{fill:#EDEDED;}
	.st1{clip-path:url(#SVGID_00000005230705648285769760000004337034913030975401_);}
	.st2{clip-path:url(#SVGID_00000005230705648285769760000004337034913030975401_);fill:none;stroke:#000000;stroke-width:1.148;}
	.st3{fill:none;stroke:#000000;stroke-width:1.148;}
	.st4{clip-path:url(#SVGID_00000178169925223563096840000011504575157968187550_);}
</style>
<g>
	<rect class="st0" width="1250" height="1250"/>
	<g>
		<defs>
			<rect id="SVGID_1_" width="1250" height="1250"/>
		</defs>
		<clipPath id="SVGID_00000137115424485828640550000013075914180801190308_">
			<use xlink:href="#SVGID_1_"  style="overflow:visible;"/>
		</clipPath>
		<path style="clip-path:url(#SVGID_00000137115424485828640550000013075914180801190308_);" d="M990,1177.11h51.76l118.32-317.72
			v-41.2H925.56v53.88l72.89-9.51h107.76L990,1177.11z M705.72,954.75c0.21-59.81,37.07-79.24,72.36-79.24
			c34.86,0,69.2,19.54,69.2,76.06v1.06c0,58.63-34.33,78.18-72.37,78.18C735.95,1030.8,705.91,1010.33,705.72,954.75L705.72,954.75z
			 M776.5,1075.17c65.5,0,123.6-47.01,123.6-122.54v-1.06c0-73.42-48.6-120.43-115.68-120.43c-33.28,0-58.63,11.62-76.06,34.86
			v-0.53c0-47.89,38.92-111.19,99.3-111.19l61.27,7.4v-51.77h-59.69c-83.99,0-157.41,80.55-157.41,215.24v1.06
			C651.84,1031.86,712.06,1075.17,776.5,1075.17L776.5,1075.17z M481.87,1182.92c81.34,0,131-54.41,131-131.53v-1.06
			c0-75.54-52.82-125.19-116.21-125.19c-27.47,0-59.69,9.51-77.65,33.81l6.87-36.98l6.87-59.95h152.13v-50.71l-45.43,6.34H389.96
			l-22.71,190.95h57.05c12.68-26.94,36.45-36.45,62.33-36.45c46.48,0,73.42,30.11,73.42,78.17v1.06c0,58.63-30.11,87.15-78.18,87.15
			c-35.39,0-65.5-15.32-68.14-54.93h-52.82C371.47,1152.28,421.12,1182.92,481.87,1182.92L481.87,1182.92z M88.73,1024.46
			l116.74-171.4v171.4H88.73z M205.46,1176.59h52.82v-107.76h60.22v-44.37h-60.22V817.67h-78.7L34.32,1030.8v38.03h171.14V1176.59z"
			/>
		<path style="clip-path:url(#SVGID_00000137115424485828640550000013075914180801190308_);" d="M923.9,705.24
			c74.43,0,120.4-43.81,120.4-106.7v-1.06c0-54.93-40.18-80.77-85.43-87.66c43.3-6.55,80.15-30.35,80.15-80.3v-2.64
			c0-55.78-42.71-93.49-113.7-93.49c-65.36,0-120.32,31.78-126.1,107.75h52.82c1.56-44.3,34.33-63.38,71.21-63.38
			c39.77,0,62.96,22.41,62.96,52.29v2.11c0,36.11-32.22,55.46-80.29,55.46v44.37c51.24,0,85.57,16.37,85.57,62.85v1.06
			c0,48.07-32.41,64.97-70.45,64.97c-34.13,0-67-13.6-68.99-64.97h-52.82C803.98,664.59,853.09,705.24,923.9,705.24L923.9,705.24z
			 M638.11,333.38c-43.46,0-118.63,13.73-120.17,103.53h52.82c2.49-42.26,26.42-59.16,66.81-59.16c33.73,0,61.01,11.62,61.01,48.59
			v1.06c0,52.29-87.16,86.1-178.01,113.04v50.71h235.58v-44.37H610.37C682.21,523,751.4,491.84,751.4,427.4v-1.06
			C751.4,359.78,698.32,333.37,638.11,333.38L638.11,333.38z M288.12,591.14h190.16v-44.37h-68.67v-206.8h-55.46l-67.08,36.45v61.8
			l69.72-40.67v149.22h-68.67V591.14z M95.59,465.96v-1.06c0-67.08,12.68-87.16,47.01-87.16s47.01,20.07,47.01,87.16v1.06
			c0,67.08-12.68,87.16-47.01,87.16S95.59,533.04,95.59,465.96 M142.6,597.48c68.14,0,99.83-51.24,99.83-131.53v-1.06
			c0-80.29-31.69-131.52-99.83-131.52S42.77,384.61,42.77,464.9v1.06C42.77,546.25,74.46,597.48,142.6,597.48"/>
		
			<line style="clip-path:url(#SVGID_00000137115424485828640550000013075914180801190308_);fill:none;stroke:#000000;stroke-width:1.148;" x1="0" y1="590.85" x2="1250" y2="590.85"/>
		
			<line style="clip-path:url(#SVGID_00000137115424485828640550000013075914180801190308_);fill:none;stroke:#000000;stroke-width:1.148;" x1="0" y1="1069.46" x2="1250" y2="1069.46"/>
	</g>
	<line class="st3" x1="497.44" y1="232.24" x2="497.44" y2="591.32"/>
	<line class="st3" x1="329.72" y1="709.93" x2="329.72" y2="1070.03"/>
	<line class="st3" x1="921.74" y1="709.93" x2="921.74" y2="1070.03"/>
	<line class="st3" x1="621.36" y1="709.93" x2="621.36" y2="1070.03"/>
	<g>
		<defs>
			<rect id="SVGID_00000060011132662894758600000017328286107951240088_" width="1250" height="1250"/>
		</defs>
		<clipPath id="SVGID_00000182490766064749802940000011128952424363645622_">
			<use xlink:href="#SVGID_00000060011132662894758600000017328286107951240088_"  style="overflow:visible;"/>
		</clipPath>
		<path style="clip-path:url(#SVGID_00000182490766064749802940000011128952424363645622_);" d="M597.01,73.02
			c0.76-6.48,4.34-9.52,9.18-9.52c5.47,0,9.07,3.97,8.98,9.52H597.01z M606.34,91.73c6.46,0,12.25-3.55,13.36-10.06h-4.71
			c-0.71,4.19-3.8,6.34-8.39,6.34c-6.23,0-9.57-3.72-9.74-11.25h22.96c0.45-11.08-5.27-17.04-13.51-17.04
			c-8.75,0-14.07,6.61-14.07,16v0.43C592.24,85.87,597.94,91.72,606.34,91.73L606.34,91.73z M579.74,91.02h4.72V47.33h-4.72V91.02z
			 M551.6,104.11h4.83l17.17-43.66h-5.13l-8.38,23.31l-9.06-23.31h-5.32l11.87,28.63L551.6,104.11z M535.29,91.03h5.18v-4.2
			l-4.72,0.32c-2.12,0-2.65-1.14-2.65-3.96V64.33h8.02v-3.88h-9.78c2.51-1.32,3.85-4.18,3.85-8.04h-4.72c0,3.77-0.7,6.72-3.38,8.04
			h-4.85v3.88h6.14v18.21C528.38,89.55,530.91,91.03,535.29,91.03 M506.68,91.73c6.76,0,11.52-2.84,11.52-8.71v-0.29
			c0-12.03-18.94-6.27-18.94-14.2v-0.29c0-2.92,2.24-4.82,6.51-4.82c4.3,0,7.16,2.17,7.54,5.76h4.43
			c-0.37-6.54-5.16-9.45-11.82-9.45c-7.58,0-11.09,3.83-11.09,8.61v0.29c0,11.71,18.94,5.98,18.94,14.14v0.29
			c0,3.3-2.73,4.98-6.88,4.98c-5.11,0-7.86-2.43-8.16-6.52h-4.43C494.65,87.51,498.63,91.73,506.68,91.73L506.68,91.73z
			 M463.74,75.89V75.5c0-8.14,3.85-11.94,9.15-11.94c4.79,0,9.37,3.19,9.37,11.86v0.6c0,8.78-4.62,11.86-9.38,11.86
			C467.58,87.88,463.74,84.01,463.74,75.89 M472.43,91.7c4.24,0,8.18-2,9.71-5.53v4.85h4.72V47.33h-4.72V65.2
			c-1.5-3.46-5.38-5.46-9.68-5.46c-7.54,0-13.43,5.86-13.43,15.77v0.38C459.02,85.78,464.92,91.7,472.43,91.7z M446.53,91.02h4.72
			V47.33h-4.72V91.02z M403.01,69.46v-0.6c0-12.51,6.69-18.16,14.89-18.16c8.2,0,14.89,5.65,14.89,18.19v0.55
			c0,12.53-6.69,18.18-14.89,18.18C409.7,87.62,403.01,81.97,403.01,69.46 M417.9,91.73c11.75,0,19.74-8.26,19.74-22.29v-0.55
			c0-14.04-7.99-22.3-19.74-22.3c-11.75,0-19.74,8.26-19.74,22.27v0.6C398.16,83.47,406.16,91.73,417.9,91.73 M372.99,91.02h4.72
			V47.33h-4.72V91.02z M343.64,82.88v-0.17c0-3.26,2.72-5.27,7.19-5.71l8.51-0.83v3.27c0,5.66-4.45,8.53-9.16,8.53
			C346.18,87.98,343.64,85.88,343.64,82.88L343.64,82.88z M349.61,91.73c3.8,0,8.16-1.54,9.79-5.54v4.83h4.46V70.5
			c0-7.75-5.42-10.79-11.54-10.79c-6.3,0-11.35,3.23-12.03,10.04h4.73c0.25-4.08,2.85-6.29,7.23-6.29c4.85,0,6.91,2.7,6.91,6.61
			v2.64l-9,0.91c-6.99,0.71-11.06,3.62-11.06,9.09v0.17C339.12,88.2,343.85,91.73,349.61,91.73L349.61,91.73z M306.92,91.02h4.72
			V73.96c0-6.68,3.74-9.94,8.45-9.94c4.11,0,6.86,2.08,6.86,7.46v19.55h4.72V71.01c0-7.9-4.92-11.3-10.47-11.3
			c-4.23,0-7.99,1.99-9.56,6.21v-5.48h-4.72V91.02z M274.96,75.94v-0.27c0-8.31,3.95-12.08,9.65-12.08c5.7,0,9.65,3.77,9.65,12.08
			v0.27c0,8.14-3.95,11.92-9.65,11.92C278.91,87.85,274.96,84.08,274.96,75.94 M284.6,91.73c8.14,0,14.47-5.26,14.47-15.8v-0.27
			c0-10.7-6.32-15.96-14.47-15.96c-8.14,0-14.47,5.26-14.47,15.96v0.27C270.14,86.48,276.46,91.73,284.6,91.73 M257.04,53.01
			c0,1.95,1.43,3.16,3.17,3.16c1.73,0,3.16-1.22,3.16-3.16c0-1.95-1.43-3.16-3.16-3.16C258.47,49.84,257.04,51.06,257.04,53.01
			 M257.85,91.02h4.72V60.45h-4.72V91.02z M245.65,91.03h5.18v-4.2l-4.72,0.32c-2.13,0-2.65-1.14-2.65-3.96V64.33h8.02v-3.88h-9.78
			c2.51-1.32,3.85-4.18,3.85-8.04h-4.72c0,3.77-0.7,6.72-3.38,8.04h-4.85v3.88h6.14v18.21C238.74,89.55,241.28,91.03,245.65,91.03
			 M213.49,91.02h4.53V74.89c0-4.95,2.26-9.82,6.6-9.82l4,0.6v-5.23h-3.59c-3.05,0-6.04,1.73-6.98,5.6v-5.6h-4.56L213.49,91.02z
			 M181.56,75.94v-0.27c0-8.31,3.95-12.08,9.65-12.08s9.65,3.77,9.65,12.08v0.27c0,8.14-3.95,11.92-9.65,11.92
			S181.56,84.08,181.56,75.94 M191.2,91.73c8.14,0,14.47-5.26,14.47-15.8v-0.27c0-10.7-6.33-15.96-14.47-15.96
			s-14.47,5.26-14.47,15.96v0.27C176.74,86.48,183.06,91.73,191.2,91.73 M147.15,75.97v-0.49c0-8.68,4.82-11.88,9.41-11.88
			c5.19,0,9.24,3.79,9.24,11.96v0.28c0,8.15-3.96,12.01-9.24,12.01C151.97,87.84,147.15,84.75,147.15,75.97z M142.65,104.11h4.72
			V86.04c1.55,3.61,5.58,5.66,10,5.66c7.53,0,13.14-5.89,13.14-15.86v-0.28c0-9.99-6.08-15.81-13.34-15.81
			c-4.77,0-8.47,2.52-9.81,6.22v-5.51h-4.72V104.11z M110.71,75.94v-0.27c0-8.31,3.95-12.08,9.65-12.08c5.7,0,9.65,3.77,9.65,12.08
			v0.27c0,8.14-3.95,11.92-9.65,11.92C114.66,87.85,110.71,84.08,110.71,75.94 M120.36,91.73c8.14,0,14.47-5.26,14.47-15.8v-0.27
			c0-10.7-6.32-15.96-14.47-15.96c-8.14,0-14.47,5.26-14.47,15.96v0.27C105.89,86.48,112.22,91.73,120.36,91.73 M86.64,91.02h4.53
			V74.89c0-4.95,2.26-9.82,6.6-9.82l4,0.6v-5.23h-3.59c-3.04,0-6.04,1.73-6.98,5.6v-5.6h-4.56L86.64,91.02z M55.53,69.97V51.45
			h12.12c4.96,0,7.44,2.82,7.44,8.93v0.47c0,6.43-3.29,9.13-7.44,9.13L55.53,69.97z M50.68,91.02h4.85V74.11h12.37
			c7.38,0,12.03-5.49,12.03-13.33v-0.47c0-7.59-4.21-12.97-12.03-12.97H50.68V91.02z"/>
	</g>
	<line class="st3" x1="260.58" y1="231.57" x2="260.58" y2="591.42"/>
	<line class="st3" x1="774.87" y1="231.57" x2="774.87" y2="591.42"/>
</g>
</svg>
