<?xml version="1.0" encoding="utf-8"?>
<!-- Generator: Adobe Illustrator 26.0.2, SVG Export Plug-In . SVG Version: 6.00 Build 0)  -->
<svg version="1.1" id="Calque_1" xmlns="http://www.w3.org/2000/svg" xmlns:xlink="http://www.w3.org/1999/xlink" x="0px" y="0px"
	 viewBox="0 0 1250 1250" style="enable-background:new 0 0 1250 1250;" xml:space="preserve">
<style type="text/css">
	.st0{fill:#EDEDED;}
	.st1{clip-path:url(#SVGID_00000139253008044429415300000002639925193521073073_);}
	.st2{clip-path:url(#SVGID_00000139253008044429415300000002639925193521073073_);fill:none;stroke:#000000;stroke-width:1.148;}
	.st3{fill:none;stroke:#000000;stroke-width:1.148;}
	.st4{clip-path:url(#SVGID_00000072973187969126728630000010796778215665395115_);}
</style>
<g>
	<rect class="st0" width="1250" height="1250"/>
	<g>
		<defs>
			<rect id="SVGID_1_" width="1250" height="1250"/>
		</defs>
		<clipPath id="SVGID_00000034069910593577489620000000289685474721834939_">
			<use xlink:href="#SVGID_1_"  style="overflow:visible;"/>
		</clipPath>
		<path style="clip-path:url(#SVGID_00000034069910593577489620000000289685474721834939_);" d="M1019.26,1177.11h51.76
			l118.32-317.72v-41.2H954.82v53.88l72.89-9.51h107.76L1019.26,1177.11z M715.33,954.75c0.21-59.81,37.07-79.24,72.36-79.24
			c34.86,0,69.2,19.54,69.2,76.06v1.06c0,58.63-34.33,78.18-72.37,78.18C745.56,1030.8,715.52,1010.33,715.33,954.75L715.33,954.75z
			 M786.11,1075.17c65.5,0,123.6-47.01,123.6-122.54v-1.06c0-73.42-48.6-120.43-115.68-120.43c-33.28,0-58.63,11.62-76.06,34.86
			v-0.53c0-47.89,38.92-111.19,99.3-111.19l61.27,7.4v-51.77h-59.69c-83.99,0-157.41,80.55-157.41,215.24v1.06
			C661.45,1031.86,721.67,1075.17,786.11,1075.17L786.11,1075.17z M487.26,1182.92c81.35,0,131-54.41,131-131.53v-1.06
			c0-75.54-52.82-125.19-116.21-125.19c-27.47,0-59.69,9.51-77.65,33.81l6.87-36.98l6.87-59.95h152.12v-50.71l-45.43,6.34H395.35
			l-22.71,190.95h57.05c12.68-26.94,36.45-36.45,62.33-36.45c46.48,0,73.42,30.11,73.42,78.17v1.06c0,58.63-30.11,87.15-78.18,87.15
			c-35.39,0-65.5-15.32-68.14-54.93H366.3C376.86,1152.28,426.51,1182.92,487.26,1182.92L487.26,1182.92z M97.18,1024.46
			l116.74-171.4v171.4H97.18z M213.91,1176.59h52.82v-107.76h60.22v-44.37h-60.22V817.67h-78.7L42.77,1030.8v38.03h171.14V1176.59z"
			/>
		<path style="clip-path:url(#SVGID_00000034069910593577489620000000289685474721834939_);" d="M1044.28,705.24
			c74.43,0,120.4-43.81,120.4-106.7v-1.06c0-54.93-40.18-80.77-85.43-87.66c43.3-6.55,80.15-30.35,80.15-80.3v-2.64
			c0-55.78-42.71-93.49-113.7-93.49c-65.36,0-120.32,31.78-126.1,107.75h52.82c1.56-44.3,34.33-63.38,71.21-63.38
			c39.77,0,62.96,22.41,62.96,52.29v2.11c0,36.11-32.22,55.46-80.29,55.46v44.37c51.24,0,85.57,16.37,85.57,62.85v1.06
			c0,48.07-32.41,64.97-70.45,64.97c-34.13,0-67-13.6-68.99-64.97H919.6C924.36,664.59,973.47,705.24,1044.28,705.24L1044.28,705.24
			z M746.07,333.38c-43.46,0-118.63,13.73-120.17,103.53h52.82c2.49-42.26,26.42-59.16,66.81-59.16c33.73,0,61.01,11.62,61.01,48.59
			v1.06c0,52.29-87.16,86.1-178.01,113.04v50.71h235.58v-44.37H718.34C790.18,523,859.37,491.84,859.37,427.4v-1.06
			C859.37,359.78,806.29,333.37,746.07,333.38L746.07,333.38z M370.1,591.14h190.16v-44.37h-68.67v-206.8h-55.46l-67.08,36.45v61.8
			l69.72-40.67v149.22H370.1V591.14z M112.42,465.96v-1.06c0-59.16,17.76-87.16,65.57-87.16c47.8,0,65.57,27.99,65.57,87.16v1.06
			c0,59.16-17.76,87.16-65.57,87.16C130.19,553.11,112.42,525.12,112.42,465.96 M177.99,597.48c81.33,0,118.32-51.24,118.32-131.53
			v-1.06c0-80.29-36.99-131.52-118.32-131.52c-81.33,0-118.32,51.24-118.32,131.52v1.06C59.68,546.25,96.66,597.48,177.99,597.48"/>
		
			<line style="clip-path:url(#SVGID_00000034069910593577489620000000289685474721834939_);fill:none;stroke:#000000;stroke-width:1.148;" x1="0" y1="590.85" x2="1250" y2="590.85"/>
		
			<line style="clip-path:url(#SVGID_00000034069910593577489620000000289685474721834939_);fill:none;stroke:#000000;stroke-width:1.148;" x1="0" y1="1069.46" x2="1250" y2="1069.46"/>
	</g>
	<line class="st3" x1="334.14" y1="709.93" x2="334.14" y2="1070.03"/>
	<g>
		<defs>
			<rect id="SVGID_00000065034148861650678750000004036068215986751124_" width="1250" height="1250"/>
		</defs>
		<clipPath id="SVGID_00000103259473698615497300000001602268596501843331_">
			<use xlink:href="#SVGID_00000065034148861650678750000004036068215986751124_"  style="overflow:visible;"/>
		</clipPath>
		<path style="clip-path:url(#SVGID_00000103259473698615497300000001602268596501843331_);" d="M458.41,73.02
			c0.76-6.48,4.34-9.52,9.17-9.52c5.47,0,9.07,3.97,8.98,9.52H458.41z M467.74,91.73c6.46,0,12.25-3.55,13.36-10.06h-4.71
			c-0.71,4.19-3.8,6.34-8.39,6.34c-6.23,0-9.57-3.72-9.74-11.25h22.96c0.45-11.08-5.27-17.04-13.51-17.04
			c-8.75,0-14.07,6.61-14.07,16v0.43C453.64,85.87,459.35,91.72,467.74,91.73L467.74,91.73z M441.15,91.02h4.72V47.33h-4.72V91.02z
			 M413.01,104.11h4.83l17.17-43.66h-5.13l-8.38,23.31l-9.06-23.31h-5.32l11.87,28.63L413.01,104.11z M396.7,91.03h5.18v-4.2
			l-4.72,0.32c-2.13,0-2.65-1.14-2.65-3.96V64.33h8.02v-3.88h-9.78c2.51-1.32,3.85-4.18,3.85-8.04h-4.72c0,3.77-0.7,6.72-3.38,8.04
			h-4.86v3.88h6.14v18.21C389.79,89.55,392.32,91.03,396.7,91.03 M368.09,91.73c6.76,0,11.52-2.84,11.52-8.71v-0.29
			c0-12.03-18.94-6.27-18.94-14.2v-0.29c0-2.92,2.24-4.82,6.51-4.82c4.3,0,7.16,2.17,7.54,5.76h4.43
			c-0.37-6.54-5.16-9.45-11.83-9.45c-7.57,0-11.09,3.83-11.09,8.61v0.29c0,11.71,18.94,5.98,18.94,14.14v0.29
			c0,3.3-2.73,4.98-6.88,4.98c-5.11,0-7.86-2.43-8.16-6.52h-4.43C356.06,87.51,360.04,91.73,368.09,91.73L368.09,91.73z
			 M325.15,75.89V75.5c0-8.14,3.85-11.94,9.15-11.94c4.79,0,9.37,3.19,9.37,11.86v0.6c0,8.78-4.62,11.86-9.38,11.86
			C328.99,87.88,325.15,84.01,325.15,75.89 M333.84,91.7c4.24,0,8.18-2,9.71-5.53v4.85h4.72V47.33h-4.72V65.2
			c-1.5-3.46-5.38-5.46-9.69-5.46c-7.54,0-13.43,5.86-13.43,15.77v0.38C320.43,85.78,326.32,91.7,333.84,91.7z M307.93,91.02h4.72
			V47.33h-4.72V91.02z M264.42,69.46v-0.6c0-12.51,6.69-18.16,14.89-18.16c8.2,0,14.89,5.65,14.89,18.19v0.55
			c0,12.53-6.69,18.18-14.89,18.18C271.11,87.62,264.42,81.97,264.42,69.46 M279.31,91.73c11.75,0,19.74-8.26,19.74-22.29v-0.55
			c0-14.04-7.99-22.3-19.74-22.3c-11.75,0-19.74,8.26-19.74,22.27v0.6C259.57,83.47,267.56,91.73,279.31,91.73 M227.84,91.02h4.53
			V74.89c0-4.95,2.26-9.82,6.6-9.82l4,0.6v-5.23h-3.59c-3.05,0-6.04,1.73-6.98,5.6v-5.6h-4.56L227.84,91.02z M198.48,82.88v-0.17
			c0-3.26,2.72-5.27,7.19-5.71l8.51-0.83v3.27c0,5.66-4.45,8.53-9.16,8.53C201.02,87.98,198.48,85.88,198.48,82.88L198.48,82.88z
			 M204.45,91.73c3.8,0,8.16-1.54,9.79-5.54v4.83h4.46V70.5c0-7.75-5.42-10.79-11.54-10.79c-6.3,0-11.35,3.23-12.03,10.04h4.74
			c0.25-4.08,2.85-6.29,7.23-6.29c4.85,0,6.91,2.7,6.91,6.61v2.64l-9,0.91c-6.99,0.71-11.06,3.62-11.06,9.09v0.17
			C193.96,88.2,198.69,91.73,204.45,91.73L204.45,91.73z M181.53,91.02h4.72V47.33h-4.72V91.02z M157.98,91.73
			c4.53,0,8.01-2.2,9.51-6.08v5.37h4.72V60.45h-4.72V77.6c0,6.42-3.41,9.83-8.38,9.83c-3.61,0-6.86-1.55-6.86-7.35V60.45h-4.53
			v20.09C147.72,88.52,152.55,91.73,157.98,91.73z M116.83,76.02v-0.6c0-8.65,4.75-11.82,9.46-11.82c5.2,0,9.19,3.79,9.19,11.9v0.39
			c0,8.1-4.06,11.96-9.2,11.96C121.67,87.85,116.83,84.77,116.83,76.02L116.83,76.02z M126.89,91.7c7.23,0,13.32-5.89,13.32-15.81
			V75.5c0-9.94-5.65-15.76-13.08-15.76c-4.57,0-8.5,2.24-10.07,6.17V47.33h-4.72v43.69h4.72v-5.55
			C118.42,89.19,122.17,91.7,126.89,91.7L126.89,91.7z M82.98,82.88v-0.17c0-3.26,2.72-5.27,7.19-5.71l8.51-0.83v3.27
			c0,5.66-4.45,8.53-9.16,8.53C85.51,87.98,82.98,85.88,82.98,82.88L82.98,82.88z M88.95,91.73c3.8,0,8.16-1.54,9.79-5.54v4.83h4.46
			V70.5c0-7.75-5.42-10.79-11.54-10.79c-6.3,0-11.35,3.23-12.03,10.04h4.74c0.25-4.08,2.85-6.29,7.23-6.29
			c4.86,0,6.91,2.7,6.91,6.61v2.64l-9,0.91c-6.99,0.71-11.06,3.62-11.06,9.09v0.17C78.45,88.2,83.18,91.73,88.95,91.73L88.95,91.73z
			 M60.3,91.02h4.85V51.44h13.62v-4.11h-32.1v4.11H60.3V91.02z"/>
	</g>
	<line class="st3" x1="296.65" y1="231.57" x2="296.65" y2="591.42"/>
	<line class="st3" x1="581" y1="231.57" x2="581" y2="591.42"/>
	<line class="st3" x1="880.88" y1="231.57" x2="880.88" y2="591.42"/>
	<line class="st3" x1="627.64" y1="709.93" x2="627.64" y2="1070.03"/>
	<line class="st3" x1="914.57" y1="709.93" x2="914.57" y2="1070.03"/>
</g>
</svg>
