<?xml version="1.0" encoding="utf-8"?>
<!-- Generator: Adobe Illustrator 26.0.2, SVG Export Plug-In . SVG Version: 6.00 Build 0)  -->
<svg version="1.1" id="Calque_1" xmlns="http://www.w3.org/2000/svg" xmlns:xlink="http://www.w3.org/1999/xlink" x="0px" y="0px"
	 viewBox="0 0 1250 1250" style="enable-background:new 0 0 1250 1250;" xml:space="preserve">
<style type="text/css">
	.st0{fill:#EDEDED;}
	.st1{clip-path:url(#SVGID_00000152234710090826591270000004915810811309418898_);}
	.st2{clip-path:url(#SVGID_00000152234710090826591270000004915810811309418898_);fill:none;stroke:#000000;stroke-width:1.148;}
</style>
<g>
	<rect class="st0" width="1250" height="1250"/>
	<g>
		<defs>
			<rect id="SVGID_1_" width="1250" height="1250"/>
		</defs>
		<clipPath id="SVGID_00000158708979370648784360000018050513355100466566_">
			<use xlink:href="#SVGID_1_"  style="overflow:visible;"/>
		</clipPath>
		<path style="clip-path:url(#SVGID_00000158708979370648784360000018050513355100466566_);" d="M373.25,1080.28h127.87V553.47
			h241.09v526.81h130.54V446.91H501.13v-57.28c0-58.61,27.97-107.89,98.57-107.89h138.52c11.99,26.45,38.82,45.28,69.27,45.28
			c41.29,0,75.93-34.63,75.93-75.92c0-40.84-33.89-75.17-74.59-75.9v-0.01h-1.27h-0.06H593.04c-146.52,0-219.78,97.23-219.78,221.11
			v50.62h-97.24v106.56h97.24V1080.28z"/>
		
			<line style="clip-path:url(#SVGID_00000158708979370648784360000018050513355100466566_);fill:none;stroke:#000000;stroke-width:1.148;" x1="0" y1="1079.71" x2="1250" y2="1079.71"/>
		<path style="clip-path:url(#SVGID_00000158708979370648784360000018050513355100466566_);" d="M97.87,91.02h4.82V80.81
			l-0.04-28.01l21.16,38.23h7.08V47.33h-4.82v8.62l0.04,29.61l-21.16-38.23h-7.08V91.02z M53.9,69.46v-0.6
			c0-12.51,6.69-18.16,14.89-18.16s14.89,5.65,14.89,18.19v0.55c0,12.53-6.69,18.18-14.89,18.18S53.9,81.97,53.9,69.46 M68.78,91.73
			c11.75,0,19.74-8.26,19.74-22.29V68.9c0-14.04-7.99-22.3-19.74-22.3c-11.75,0-19.74,8.26-19.74,22.27v0.6
			C49.04,83.47,57.04,91.73,68.78,91.73"/>
	</g>
</g>
</svg>
