<?xml version="1.0" encoding="utf-8"?>
<!-- Generator: Adobe Illustrator 26.0.2, SVG Export Plug-In . SVG Version: 6.00 Build 0)  -->
<svg version="1.1" id="Calque_1" xmlns="http://www.w3.org/2000/svg" xmlns:xlink="http://www.w3.org/1999/xlink" x="0px" y="0px"
	 viewBox="0 0 1250 1250" style="enable-background:new 0 0 1250 1250;" xml:space="preserve">
<style type="text/css">
	.st0{fill:#EDEDED;}
	.st1{clip-path:url(#SVGID_00000048480482046845606910000000258182679539899542_);}
	.st2{clip-path:url(#SVGID_00000152961131804310432410000014784440194883516861_);}
	.st3{clip-path:url(#SVGID_00000136370059700319136490000016419111600871232173_);fill:none;stroke:#000000;stroke-width:1.148;}
</style>
<g>
	<rect class="st0" width="1250" height="1250"/>
	<g>
		<g>
			<defs>
				<rect id="SVGID_1_" width="1250" height="1250"/>
			</defs>
			<clipPath id="SVGID_00000072962202961445846850000013197570021688913827_">
				<use xlink:href="#SVGID_1_"  style="overflow:visible;"/>
			</clipPath>
			<path style="clip-path:url(#SVGID_00000072962202961445846850000013197570021688913827_);" d="M300.08,645.25v-8.03
				c0-232.89,113.68-337.29,272.04-337.29c131.46,0,271.02,80.31,271.02,337.29v8.03c0,256.98-139.56,337.29-271.02,337.29
				C413.76,982.54,300.08,878.14,300.08,645.25 M536.98,1143.15c130.5,0,250.96-48.18,301.15-114.44v90.34h196.75V164.42H838.13
				v89.34c-50.19-66.25-170.65-114.44-301.15-114.44c-250.96,0-433.65,194.74-433.65,497.9v8.03
				C103.33,948.41,286.02,1143.15,536.98,1143.15"/>
		</g>
		<g>
			<defs>
				<rect id="SVGID_00000145051040536458916210000002830283136839698064_" width="1250" height="1250"/>
			</defs>
			<clipPath id="SVGID_00000137106090567402738620000014078194958250139797_">
				<use xlink:href="#SVGID_00000145051040536458916210000002830283136839698064_"  style="overflow:visible;"/>
			</clipPath>
			<path style="clip-path:url(#SVGID_00000137106090567402738620000014078194958250139797_);" d="M184.83,91.03h21.74v-4.11h-8.4
				V47.33h-4.89l-8.81,5.14v6.03l8.85-5.7v34.1h-8.49L184.83,91.03L184.83,91.03z M158.78,85.19l12.84-29.89
				c1.54,2.96,2.39,7.42,2.39,13.6v0.55c0,12.64-3.61,18.19-9.51,18.19C162.25,87.63,160.32,86.84,158.78,85.19z M154.79,69.46v-0.6
				c0-12.72,3.72-18.17,9.71-18.17c1.74,0,3.28,0.47,4.58,1.47L156.53,81.4C155.4,78.51,154.79,74.57,154.79,69.46z M164.5,91.74
				c9.43,0,14.35-8.5,14.35-22.3v-0.55c0-13.97-4.92-22.31-14.35-22.31c-9.55,0-14.55,8.34-14.55,22.28v0.6
				C149.95,83.24,154.95,91.74,164.5,91.74 M132.94,91.74c6.75,0,11.52-2.85,11.52-8.73v-0.29c0-12.03-18.94-6.28-18.94-14.21v-0.29
				c0-2.92,2.24-4.82,6.5-4.82c4.3,0,7.15,2.17,7.53,5.76H144c-0.37-6.54-5.17-9.46-11.83-9.46c-7.57,0-11.09,3.85-11.09,8.62v0.29
				c0,11.71,18.94,5.97,18.94,14.15v0.29c0,3.3-2.72,4.99-6.87,4.99c-5.1,0-7.85-2.44-8.15-6.53h-4.45
				C120.9,87.52,124.9,91.74,132.94,91.74L132.94,91.74z M104.45,91.74c6.75,0,11.52-2.85,11.52-8.73v-0.29
				c0-12.03-18.94-6.28-18.94-14.21v-0.29c0-2.92,2.24-4.82,6.5-4.82c4.3,0,7.15,2.17,7.53,5.76h4.45
				c-0.37-6.54-5.17-9.46-11.83-9.46c-7.57,0-11.09,3.85-11.09,8.62v0.29c0,11.71,18.94,5.97,18.94,14.15v0.29
				c0,3.3-2.72,4.99-6.87,4.99c-5.1,0-7.85-2.44-8.15-6.53h-4.45C92.42,87.52,96.41,91.74,104.45,91.74L104.45,91.74z M83.69,91.74
				c1.71,0,3.11-1.15,3.11-3.12c0-1.91-1.4-3.11-3.11-3.11c-1.72,0-3.11,1.2-3.11,3.11C80.58,90.6,81.98,91.74,83.69,91.74z
				 M52.94,82.89v-0.17c0-3.27,2.72-5.28,7.2-5.71l8.52-0.83v3.27c0,5.66-4.46,8.54-9.18,8.54C55.48,87.99,52.94,85.89,52.94,82.89
				L52.94,82.89z M58.92,91.74c3.8,0,8.15-1.54,9.79-5.54v4.83h4.48V70.49c0-7.76-5.42-10.79-11.55-10.79
				c-6.31,0-11.36,3.23-12.04,10.04h4.74c0.25-4.08,2.85-6.29,7.24-6.29c4.86,0,6.92,2.7,6.92,6.61v2.64l-9.01,0.91
				c-7,0.71-11.07,3.62-11.07,9.1v0.17C48.42,88.21,53.15,91.74,58.92,91.74L58.92,91.74z"/>
		</g>
		<g>
			<defs>
				<rect id="SVGID_00000021085201075104983810000000800195048655131291_" width="1250" height="1250"/>
			</defs>
			<clipPath id="SVGID_00000023282594019252433800000012188666254574618524_">
				<use xlink:href="#SVGID_00000021085201075104983810000000800195048655131291_"  style="overflow:visible;"/>
			</clipPath>
			
				<line style="clip-path:url(#SVGID_00000023282594019252433800000012188666254574618524_);fill:none;stroke:#000000;stroke-width:1.148;" x1="0" y1="1118.66" x2="1250" y2="1118.66"/>
		</g>
	</g>
</g>
</svg>
