<?xml version="1.0" encoding="utf-8"?>
<!-- Generator: Adobe Illustrator 26.0.2, SVG Export Plug-In . SVG Version: 6.00 Build 0)  -->
<svg version="1.1" id="Calque_1" xmlns="http://www.w3.org/2000/svg" xmlns:xlink="http://www.w3.org/1999/xlink" x="0px" y="0px"
	 viewBox="0 0 1250 1250" style="enable-background:new 0 0 1250 1250;" xml:space="preserve">
<style type="text/css">
	.st0{fill:#EDEDED;}
	.st1{clip-path:url(#SVGID_00000140015404926884809800000010581132594795342738_);}
	.st2{clip-path:url(#SVGID_00000140015404926884809800000010581132594795342738_);fill:none;stroke:#000000;stroke-width:1.148;}
</style>
<g>
	<rect class="st0" width="1250" height="1250"/>
	<g>
		<defs>
			<rect id="SVGID_1_" width="1250" height="1250"/>
		</defs>
		<clipPath id="SVGID_00000121995369082499073540000011655036843333731259_">
			<use xlink:href="#SVGID_1_"  style="overflow:visible;"/>
		</clipPath>
		<path style="clip-path:url(#SVGID_00000121995369082499073540000011655036843333731259_);" d="M490.48,1079.3h62.61V821.34h105.28
			V993.2c0,70.44,33.26,86.09,80.88,86.09h50.87v-54.79l-46.31,2.61c-21.2,0-21.52-14.34-21.52-31.96V821.34h74.35v-52.18h-97.83
			c26.09-13.04,43.05-42.4,43.05-81.53h-63.92c0,37.18-6.52,68.48-32.61,81.53h-92.23v-28.05c0-28.7,13.55-52.83,48.26-52.83
			l52.18,9.13v-61.31h-55.44c-71.75,0-107.62,47.61-107.62,108.27v24.78h-47.61v52.18h47.61L490.48,1079.3z"/>
		<path style="clip-path:url(#SVGID_00000121995369082499073540000011655036843333731259_);" d="M503.36,574.05h62.61V316.1h86.09
			v-52.18h-86.09v-28.05c0-28.7,14.15-52.83,48.26-52.83l71.75,11.73v379.28h63.92V130.86H610.98
			c-71.75,0-107.62,47.61-107.62,108.27v24.78h-47.61v52.18h47.61L503.36,574.05z"/>
		
			<line style="clip-path:url(#SVGID_00000121995369082499073540000011655036843333731259_);fill:none;stroke:#000000;stroke-width:1.148;" x1="0" y1="573.49" x2="1250" y2="573.49"/>
		
			<line style="clip-path:url(#SVGID_00000121995369082499073540000011655036843333731259_);fill:none;stroke:#000000;stroke-width:1.148;" x1="0" y1="1079.71" x2="1250" y2="1079.71"/>
		<path style="clip-path:url(#SVGID_00000121995369082499073540000011655036843333731259_);" d="M97.87,91.02h4.82V80.81
			l-0.04-28.01l21.16,38.23h7.08V47.33h-4.82v8.62l0.04,29.61l-21.16-38.23h-7.08V91.02z M53.9,69.46v-0.6
			c0-12.51,6.69-18.16,14.89-18.16s14.89,5.65,14.89,18.19v0.55c0,12.53-6.69,18.18-14.89,18.18S53.9,81.97,53.9,69.46 M68.78,91.73
			c11.75,0,19.74-8.26,19.74-22.29V68.9c0-14.04-7.99-22.3-19.74-22.3c-11.75,0-19.74,8.26-19.74,22.27v0.6
			C49.04,83.47,57.04,91.73,68.78,91.73"/>
	</g>
</g>
</svg>
