<?xml version="1.0" encoding="utf-8"?>
<!-- Generator: Adobe Illustrator 26.0.2, SVG Export Plug-In . SVG Version: 6.00 Build 0)  -->
<svg version="1.1" id="Calque_1" xmlns="http://www.w3.org/2000/svg" xmlns:xlink="http://www.w3.org/1999/xlink" x="0px" y="0px"
	 viewBox="0 0 1250 1250" style="enable-background:new 0 0 1250 1250;" xml:space="preserve">
<style type="text/css">
	.st0{fill:#EDEDED;}
	.st1{clip-path:url(#SVGID_00000010281127998425183220000013541745533815224727_);}
	.st2{clip-path:url(#SVGID_00000059278698731076254690000010492594203107912380_);fill:none;stroke:#000000;stroke-width:1.148;}
	.st3{clip-path:url(#SVGID_00000085228392779535605550000014124058132457093540_);}
</style>
<g>
	<rect class="st0" width="1250" height="1250"/>
	<g>
		<g>
			<defs>
				<rect id="SVGID_1_" width="1250" height="1250"/>
			</defs>
			<clipPath id="SVGID_00000008110772652580787380000011969217895931167411_">
				<use xlink:href="#SVGID_1_"  style="overflow:visible;"/>
			</clipPath>
			<path style="clip-path:url(#SVGID_00000008110772652580787380000011969217895931167411_);" d="M1041.35,748.17h69.14l70.44-84.14
				l-70.44-84.14h-69.14l70.44,84.14L1041.35,748.17z M927.86,748.17H997l70.44-84.14L997,579.89h-69.14l70.44,84.14L927.86,748.17z
				 M391.21,819.26h63.92V636.64c0-45,22.83-76.96,74.35-76.96c45.66,0,63.92,24.78,63.92,67.83v191.76h63.92V642.51
				c0-67.83,43.7-82.83,74.35-82.83c30,0,63.92,15,63.92,65.87v193.71h63.92V617.07c0-86.75-63.27-116.1-114.79-116.1
				c-48.92,0-88.7,26.74-104.36,52.83c-13.7-32.61-49.57-52.83-95.23-52.83c-47.61,0-77.61,22.83-90.01,45v-36.85H391.2v310.14
				H391.21z M69.09,664.03l70.44,84.14h69.14l-70.44-84.14l70.44-84.14h-69.14L69.09,664.03z M253.01,748.17h69.14l-70.44-84.14
				l70.44-84.14h-69.14l-70.44,84.14L253.01,748.17z"/>
		</g>
		<g>
			<defs>
				<rect id="SVGID_00000129195592519908998270000014382954160072146355_" width="1250" height="1250"/>
			</defs>
			<clipPath id="SVGID_00000173154445579858168170000014433210935685886903_">
				<use xlink:href="#SVGID_00000129195592519908998270000014382954160072146355_"  style="overflow:visible;"/>
			</clipPath>
			
				<line style="clip-path:url(#SVGID_00000173154445579858168170000014433210935685886903_);fill:none;stroke:#000000;stroke-width:1.148;" x1="0" y1="818.81" x2="1250" y2="818.81"/>
		</g>
		<g>
			<defs>
				<rect id="SVGID_00000127013485513251166130000011750608784812574899_" width="1250" height="1250"/>
			</defs>
			<clipPath id="SVGID_00000074422442617685700190000011580856450401362606_">
				<use xlink:href="#SVGID_00000127013485513251166130000011750608784812574899_"  style="overflow:visible;"/>
			</clipPath>
			<path style="clip-path:url(#SVGID_00000074422442617685700190000011580856450401362606_);" d="M131.44,91.02h4.85V70h18.95v-4.11
				h-18.95V51.45h21.48v-4.11h-26.33V91.02z M97.87,91.02h4.85V70h18.95v-4.11h-18.95V51.45h21.48v-4.11H97.87V91.02z M53.9,69.46
				v-0.6c0-12.51,6.69-18.16,14.89-18.16s14.89,5.65,14.89,18.19v0.55c0,12.53-6.69,18.18-14.89,18.18S53.9,81.97,53.9,69.46
				 M68.78,91.73c11.75,0,19.74-8.26,19.74-22.29V68.9c0-14.04-7.99-22.3-19.74-22.3s-19.74,8.26-19.74,22.27v0.6
				C49.04,83.47,57.04,91.73,68.78,91.73"/>
		</g>
	</g>
</g>
</svg>
