<?xml version="1.0" encoding="utf-8"?>
<!-- Generator: Adobe Illustrator 26.0.2, SVG Export Plug-In . SVG Version: 6.00 Build 0)  -->
<svg version="1.1" id="Calque_1" xmlns="http://www.w3.org/2000/svg" xmlns:xlink="http://www.w3.org/1999/xlink" x="0px" y="0px"
	 viewBox="0 0 1250 1250" style="enable-background:new 0 0 1250 1250;" xml:space="preserve">
<style type="text/css">
	.st0{fill:#EDEDED;}
	.st1{clip-path:url(#SVGID_00000078737431785854087950000010540315989803265945_);}
	.st2{clip-path:url(#SVGID_00000084493173343699340890000006798776623023911855_);fill:#FFFFFF;}
	.st3{clip-path:url(#SVGID_00000098933014678150156210000016908008623382758804_);fill:#FFFFFF;}
	.st4{clip-path:url(#SVGID_00000098933014678150156210000016908008623382758804_);}
	.st5{clip-path:url(#SVGID_00000098933014678150156210000016908008623382758804_);fill:none;stroke:#000000;stroke-width:1.892;}
	.st6{clip-path:url(#SVGID_00000098933014678150156210000016908008623382758804_);fill:none;stroke:#FFFFFF;stroke-width:1.892;}
	.st7{fill:none;stroke:#FFFFFF;stroke-width:1.892;}
	.st8{fill:none;stroke:#000000;stroke-width:1.379;stroke-linejoin:round;}
	.st9{fill:none;stroke:#000000;stroke-width:1.892;}
	.st10{clip-path:url(#SVGID_00000135652268761762582430000009660177705915420069_);}
	.st11{clip-path:url(#SVGID_00000002362641305617025780000009287884840066164616_);}
	.st12{clip-path:url(#SVGID_00000002362641305617025780000009287884840066164616_);fill:#EDEDED;}
	.st13{clip-path:url(#SVGID_00000090990885822570504390000017067422110039545008_);fill:#FFFFFF;}
	.st14{clip-path:url(#SVGID_00000174587014169062656780000015735132176298233222_);}
	.st15{clip-path:url(#SVGID_00000153684153413619260590000011180394421756998806_);fill:#FFFFFF;}
	.st16{clip-path:url(#SVGID_00000023264778577253835260000016441800272439293575_);fill:#FFFFFF;}
	.st17{clip-path:url(#SVGID_00000023264778577253835260000016441800272439293575_);}
	.st18{fill:none;stroke:#FFFFFF;stroke-width:1.892;stroke-linecap:round;stroke-linejoin:round;}
</style>
<g>
	<rect class="st0" width="1250" height="1250"/>
	<g>
		<defs>
			<rect id="SVGID_1_" width="1250" height="1250"/>
		</defs>
		<clipPath id="SVGID_00000159452241211630358660000005611943481347764365_">
			<use xlink:href="#SVGID_1_"  style="overflow:visible;"/>
		</clipPath>
		<path style="clip-path:url(#SVGID_00000159452241211630358660000005611943481347764365_);" d="M22.9,101.7c-5,0-9.1,4.1-9.1,9.1
			v303.9c0,5,4.1,9.1,9.1,9.1h660.9c5,0,9.1-4.1,9.1-9.1V110.8c0-5-4.1-9.1-9.1-9.1H22.9z"/>
	</g>
	<g>
		<defs>
			<path id="SVGID_00000147941051536707665370000013546054742945913754_" d="M22.9,101.7c-5,0-9.1,4.1-9.1,9.1v303.9
				c0,5,4.1,9.1,9.1,9.1h660.9c5,0,9.1-4.1,9.1-9.1V110.8c0-5-4.1-9.1-9.1-9.1H22.9z"/>
		</defs>
		<clipPath id="SVGID_00000001661148493003736220000009657351592717115055_">
			<use xlink:href="#SVGID_00000147941051536707665370000013546054742945913754_"  style="overflow:visible;"/>
		</clipPath>
		
			<rect x="-1.3" y="168.5" style="clip-path:url(#SVGID_00000001661148493003736220000009657351592717115055_);fill:#FFFFFF;" width="719.8" height="572.4"/>
	</g>
	<g>
		<defs>
			<rect id="SVGID_00000138574478441374526210000006342074970408681115_" width="1250" height="1250"/>
		</defs>
		<clipPath id="SVGID_00000054970343493228358150000015435294219536054434_">
			<use xlink:href="#SVGID_00000138574478441374526210000006342074970408681115_"  style="overflow:visible;"/>
		</clipPath>
		<path style="clip-path:url(#SVGID_00000054970343493228358150000015435294219536054434_);fill:#FFFFFF;" d="M24.5,104.6
			c-4.2,0-7.6,3.4-7.6,7.6v58c0,4.2,3.4,7.6,7.6,7.6h208.8c4.2,0,7.6-3.4,7.6-7.6v-58c0-4.2-3.4-7.6-7.6-7.6H24.5z"/>
		<path style="clip-path:url(#SVGID_00000054970343493228358150000015435294219536054434_);" d="M159.3,197.1
			c-4.2,0-7.6,3.4-7.6,7.6v34.7c0,4.2,3.4,7.6,7.6,7.6h508.8c4.2,0,7.6-3.4,7.6-7.6v-34.7c0-4.2-3.4-7.6-7.6-7.6H159.3z"/>
		
			<path style="clip-path:url(#SVGID_00000054970343493228358150000015435294219536054434_);fill:none;stroke:#000000;stroke-width:1.892;" d="
			M159.3,197.1c-4.2,0-7.6,3.4-7.6,7.6v34.7c0,4.2,3.4,7.6,7.6,7.6h508.8c4.2,0,7.6-3.4,7.6-7.6v-34.7c0-4.2-3.4-7.6-7.6-7.6H159.3z
			"/>
		
			<path style="clip-path:url(#SVGID_00000054970343493228358150000015435294219536054434_);fill:none;stroke:#000000;stroke-width:1.892;" d="
			M159.3,265c-4.2,0-7.6,3.4-7.6,7.6v34.7c0,4.2,3.4,7.6,7.6,7.6h508.8c4.2,0,7.6-3.4,7.6-7.6v-34.7c0-4.2-3.4-7.6-7.6-7.6H159.3z"
			/>
		<path style="clip-path:url(#SVGID_00000054970343493228358150000015435294219536054434_);" d="M209.6,136.2c0.6,0.5,1.1,1,1.4,1.7
			c0.3,0.7,0.5,1.3,0.5,1.9v0.1v0.1h-0.1h-9.2h-0.1v0v0c0.1-0.8,0.4-1.5,0.8-2.2c0.4-0.7,0.9-1.2,1.6-1.6c0.7-0.4,1.6-0.6,2.5-0.6
			C208.1,135.5,208.9,135.7,209.6,136.2 M204.4,146.8c-0.7-0.4-1.3-1-1.7-1.8c-0.4-0.7-0.6-1.6-0.6-2.5v-0.2h0.2h12.3v-1.4
			c0-1.6-0.3-3-1-4.2c-0.7-1.2-1.6-2.1-2.7-2.8c-1.1-0.6-2.4-1-3.8-1c-1.6,0-3,0.3-4.2,1c-1.2,0.7-2.2,1.7-2.8,2.9
			c-0.7,1.3-1,2.7-1,4.3v0.2c0,1.5,0.3,2.9,0.9,4.1c0.6,1.3,1.5,2.3,2.7,3.1s2.7,1.2,4.5,1.2c1.2,0,2.3-0.2,3.3-0.6
			c1-0.4,1.9-1,2.6-1.9c0.7-0.8,1.2-1.9,1.5-3.1h-0.2h-2.8h-0.1v0c0,0,0,0,0,0c-0.2,0.9-0.6,1.7-1.3,2.3c-0.7,0.6-1.7,0.9-3,0.9
			C206.1,147.4,205.2,147.2,204.4,146.8 M184.8,146.7c-0.8-0.5-1.3-1.2-1.8-2c-0.4-0.8-0.7-1.8-0.7-2.9v-0.1v-0.1v-0.2v-0.2v-0.2
			c0.1-1.1,0.3-2,0.7-2.9c0.4-0.8,1-1.4,1.8-1.9c0.7-0.4,1.6-0.7,2.6-0.7c0.9,0,1.7,0.2,2.4,0.7c0.7,0.4,1.3,1.1,1.7,1.9
			c0.4,0.8,0.7,1.7,0.7,2.8v0.3v0.3v0.2v0.1v0.1c0,1.2-0.3,2.2-0.7,3c-0.4,0.9-1,1.5-1.7,2c-0.7,0.5-1.6,0.7-2.5,0.7
			C186.4,147.4,185.6,147.2,184.8,146.7 M185.5,133.3c-0.7,0.2-1.2,0.5-1.7,0.8c-0.5,0.4-0.9,0.8-1.3,1.3v-2.1h-3.1V156h3.1v-8.8
			c0.3,0.4,0.6,0.8,1.2,1.2c0.5,0.4,1.1,0.7,1.9,1c0.8,0.3,1.6,0.4,2.5,0.4c1.3,0,2.5-0.4,3.7-1.1c1.1-0.7,2.1-1.7,2.7-3
			c0.7-1.3,1-2.7,1-4.3v-0.2c0-1.6-0.3-3.1-1-4.3c-0.7-1.3-1.6-2.2-2.8-2.9c-1.2-0.7-2.5-1-3.9-1C186.9,133,186.2,133.1,185.5,133.3
			 M163.1,156h3.2l9.8-22.6h-3.3l-4.6,10.7l-4.7-10.7h-3.4l6.5,14.5L163.1,156z M142.6,127.3v2.7h7.2v19.5h3.1V130h7.2v-2.7H142.6z
			 M131,133.5c-0.7,0.3-1.2,0.7-1.5,1c-0.3,0.4-0.5,0.7-0.6,1v-2.1h-3.1v16.1h3.1V141v0v0c0-1,0.2-1.9,0.5-2.7
			c0.3-0.8,0.8-1.4,1.4-1.9c0.6-0.5,1.4-0.7,2.4-0.7c0.8,0,1.4,0.2,2,0.5c0.5,0.3,0.9,0.8,1.1,1.4c0.2,0.6,0.4,1.3,0.4,2.2v0.1v0.1
			v9.7h3.1v-10.2c0-1.4-0.3-2.6-0.9-3.5c-0.6-0.9-1.3-1.6-2.3-2.1c-0.9-0.4-1.9-0.7-3-0.7C132.6,133,131.7,133.2,131,133.5
			 M116.9,136.2c0.6,0.5,1.1,1,1.4,1.7c0.3,0.7,0.5,1.3,0.5,1.9v0.1v0.1h-0.1h-9.2h-0.1v0v0c0.1-0.8,0.4-1.5,0.8-2.2
			c0.4-0.7,0.9-1.2,1.7-1.6c0.7-0.4,1.6-0.6,2.5-0.6C115.4,135.5,116.3,135.7,116.9,136.2 M111.8,146.8c-0.7-0.4-1.3-1-1.7-1.8
			c-0.4-0.7-0.6-1.6-0.6-2.5v-0.2h0.2h12.3v-1.4c0-1.6-0.3-3-1-4.2c-0.7-1.2-1.6-2.1-2.7-2.8s-2.4-1-3.8-1c-1.6,0-3,0.3-4.2,1
			c-1.2,0.7-2.2,1.7-2.8,2.9c-0.7,1.3-1,2.7-1,4.3v0.2c0,1.5,0.3,2.9,0.9,4.1c0.6,1.3,1.5,2.3,2.7,3.1s2.7,1.2,4.5,1.2
			c1.2,0,2.3-0.2,3.3-0.6c1-0.4,1.9-1,2.6-1.9c0.7-0.8,1.2-1.9,1.5-3.1h-0.2h-2.8h-0.1v0c0,0,0,0,0,0c-0.2,0.9-0.6,1.7-1.3,2.3
			c-0.7,0.6-1.7,0.9-3,0.9C113.4,147.4,112.5,147.2,111.8,146.8 M92.1,146.7c-0.8-0.5-1.3-1.2-1.8-2c-0.4-0.8-0.7-1.8-0.7-2.9v-0.1
			v-0.1v-0.2v-0.2v-0.2c0.1-1.1,0.3-2,0.7-2.9c0.4-0.8,1-1.4,1.8-1.9c0.7-0.4,1.6-0.7,2.6-0.7c0.9,0,1.7,0.2,2.4,0.7
			c0.7,0.4,1.3,1.1,1.7,1.9c0.4,0.8,0.7,1.7,0.7,2.8v0.3v0.3v0.2v0.1v0.1c0,1.2-0.3,2.2-0.7,3c-0.4,0.9-1,1.5-1.7,2
			c-0.7,0.5-1.6,0.7-2.5,0.7C93.8,147.4,92.9,147.2,92.1,146.7 M92.9,133.3c-0.7,0.2-1.2,0.5-1.7,0.8c-0.5,0.4-0.9,0.8-1.3,1.3v-2.1
			h-3.1V156h3.1v-8.8c0.3,0.4,0.6,0.8,1.2,1.2c0.5,0.4,1.1,0.7,1.9,1c0.8,0.3,1.6,0.4,2.5,0.4c1.3,0,2.5-0.4,3.7-1.1
			c1.1-0.7,2.1-1.7,2.7-3c0.7-1.3,1-2.7,1-4.3v-0.2c0-1.6-0.3-3.1-1-4.3c-0.7-1.3-1.6-2.2-2.8-2.9c-1.2-0.7-2.5-1-3.9-1
			C94.2,133,93.5,133.1,92.9,133.3 M67.2,146.1c-1.2-0.7-2.2-1.7-2.9-2.9c-0.7-1.3-1.1-2.8-1.1-4.5v-0.3v-0.3V138V138
			c0-1.7,0.4-3.2,1.1-4.4c0.7-1.3,1.7-2.2,2.9-2.9c1.2-0.7,2.5-1,4-1c1.5,0,2.8,0.3,4.1,1c1.2,0.7,2.2,1.6,2.9,2.9
			c0.7,1.3,1.1,2.8,1.1,4.5v0.3v0.3v0.1v0.1c0,1.7-0.4,3.2-1.1,4.4c-0.7,1.3-1.7,2.2-2.9,2.9c-1.2,0.7-2.5,1-4,1
			C69.8,147.1,68.4,146.8,67.2,146.1 M76.9,148.5c1.7-0.9,3-2.3,4-4c1-1.7,1.5-3.6,1.5-5.8v-0.3v-0.3c0-2.2-0.5-4.1-1.5-5.8
			c-1-1.7-2.3-3-4-4c-1.7-0.9-3.6-1.4-5.6-1.4c-2.1,0-3.9,0.5-5.6,1.4c-1.7,0.9-3,2.3-4,4c-1,1.7-1.5,3.6-1.5,5.8v0.3v0.3
			c0,2.2,0.5,4.1,1.5,5.8c1,1.7,2.3,3,4,4c1.7,0.9,3.6,1.4,5.6,1.4C73.3,149.9,75.2,149.4,76.9,148.5"/>
		<path style="clip-path:url(#SVGID_00000054970343493228358150000015435294219536054434_);" d="M356.6,285.3
			c-0.6,0.3-1,0.6-1.3,0.9c-0.3,0.3-0.4,0.6-0.5,0.8v-1.8h-2.6v13.7h2.6v-7.3v0v0c0-0.8,0.2-1.6,0.4-2.3c0.3-0.7,0.7-1.2,1.2-1.6
			c0.5-0.4,1.2-0.6,2-0.6c0.7,0,1.2,0.1,1.7,0.4c0.4,0.3,0.8,0.7,1,1.2c0.2,0.5,0.3,1.1,0.3,1.9v0.1v0.1v8.3h2.6v-8.6
			c0-1.2-0.2-2.2-0.7-3c-0.5-0.8-1.1-1.4-1.9-1.8c-0.8-0.4-1.6-0.6-2.6-0.6C357.9,284.9,357.1,285,356.6,285.3 M339.9,296.4
			c-0.6-0.5-1.1-1.1-1.5-1.8c-0.3-0.8-0.5-1.6-0.6-2.4V292c0-0.9,0.2-1.7,0.5-2.5c0.3-0.8,0.8-1.4,1.5-1.9c0.7-0.5,1.4-0.7,2.4-0.7
			c0.9,0,1.7,0.2,2.3,0.7c0.6,0.5,1.1,1.1,1.5,1.8c0.3,0.8,0.5,1.6,0.6,2.4v0.2c0,0.9-0.2,1.7-0.5,2.5c-0.3,0.8-0.8,1.4-1.5,1.9
			c-0.7,0.5-1.4,0.7-2.4,0.7C341.3,297.1,340.5,296.9,339.9,296.4 M345.8,298.2c1.1-0.6,1.9-1.5,2.5-2.6c0.6-1.1,0.9-2.3,0.9-3.6
			v-0.1c0-1.3-0.3-2.5-0.9-3.5c-0.6-1.1-1.4-1.9-2.5-2.5c-1.1-0.6-2.2-0.9-3.6-0.9c-1.3,0-2.5,0.3-3.6,1c-1.1,0.6-1.9,1.5-2.5,2.6
			c-0.6,1.1-0.9,2.3-0.9,3.6v0.1c0,1.3,0.3,2.5,0.9,3.6c0.6,1.1,1.4,1.9,2.5,2.5c1.1,0.6,2.2,0.9,3.6,0.9
			C343.5,299.2,344.7,298.8,345.8,298.2 M332.1,280.5c-0.2-0.3-0.4-0.5-0.6-0.6c-0.3-0.2-0.5-0.2-0.8-0.2c-0.3,0-0.6,0.1-0.8,0.2
			c-0.3,0.2-0.5,0.4-0.6,0.6c-0.2,0.3-0.2,0.5-0.2,0.8c0,0.3,0.1,0.6,0.2,0.9c0.2,0.3,0.4,0.5,0.6,0.6c0.3,0.2,0.5,0.2,0.8,0.2
			c0.3,0,0.6-0.1,0.8-0.2c0.3-0.2,0.5-0.4,0.6-0.6c0.2-0.3,0.2-0.6,0.2-0.9C332.4,281.1,332.3,280.8,332.1,280.5 M332,285.2h-2.7
			v13.7h2.7V285.2z M326.8,298.9v-2.1h-1.7c-0.4,0-0.8-0.1-1-0.2c-0.3-0.1-0.5-0.4-0.7-0.8c-0.2-0.4-0.2-1-0.2-1.7v-6.8h3.7v-2.1
			h-3.9c0.1-0.1,0.2-0.2,0.3-0.4c0.1-0.2,0.1-0.4,0.1-0.7v-2.4h-2.4v1.9c0,0.6-0.1,1-0.3,1.2c-0.2,0.2-0.5,0.3-0.8,0.3h-2.4v2.1h3.2
			v7.3c0,1,0.2,1.9,0.6,2.5c0.4,0.7,0.9,1.1,1.5,1.4c0.6,0.3,1.3,0.4,2,0.4H326.8z M314.5,280.5c-0.2-0.3-0.4-0.5-0.6-0.6
			c-0.3-0.2-0.5-0.2-0.8-0.2c-0.3,0-0.6,0.1-0.8,0.2c-0.3,0.2-0.5,0.4-0.6,0.6s-0.2,0.5-0.2,0.8c0,0.3,0.1,0.6,0.2,0.9
			c0.2,0.3,0.4,0.5,0.6,0.6c0.3,0.2,0.5,0.2,0.8,0.2c0.3,0,0.6-0.1,0.8-0.2c0.3-0.2,0.5-0.4,0.6-0.6c0.2-0.3,0.2-0.6,0.2-0.9
			C314.7,281.1,314.7,280.8,314.5,280.5 M314.4,285.2h-2.7v13.7h2.7V285.2z M305.7,298.6c0.8-0.3,1.5-0.8,1.9-1.4
			c0.4-0.6,0.7-1.3,0.7-2.1V295c0-0.8-0.2-1.5-0.6-2.1c-0.4-0.5-1-1-1.6-1.2c-0.7-0.3-1.4-0.5-2.2-0.7l-2.5-0.5
			c-0.5-0.1-1-0.3-1.2-0.6c-0.3-0.3-0.4-0.6-0.4-1.1v-0.1v0c0-0.6,0.3-1.1,0.8-1.4c0.5-0.3,1.2-0.5,1.9-0.5c0.6,0,1.1,0.1,1.6,0.3
			c0.4,0.2,0.8,0.6,1,1c0.3,0.4,0.4,0.9,0.5,1.5h0.2h2.3h0.2c-0.1-1-0.4-1.9-0.9-2.6c-0.5-0.7-1.2-1.3-2-1.7
			c-0.8-0.4-1.8-0.6-2.8-0.6c-1.1,0-2.1,0.2-2.9,0.5c-0.8,0.3-1.4,0.8-1.8,1.4c-0.4,0.6-0.6,1.3-0.6,2v0.1c0,0.1,0,0.2,0,0.3
			c0,0.1,0,0.2,0,0.3c0.1,0.6,0.3,1.1,0.6,1.5c0.3,0.4,0.7,0.7,1.2,1c0.5,0.2,1,0.4,1.6,0.6l2.7,0.6c0.5,0.1,0.9,0.3,1.3,0.4
			c0.3,0.1,0.6,0.4,0.8,0.6c0.2,0.3,0.3,0.6,0.3,1v0.1c0,0.4-0.1,0.8-0.3,1.1c-0.2,0.3-0.5,0.5-1,0.7c-0.4,0.1-0.9,0.2-1.5,0.2
			c-0.7,0-1.2-0.1-1.7-0.4c-0.5-0.2-0.9-0.6-1.2-1c-0.3-0.4-0.5-0.9-0.6-1.3c0,0,0,0,0-0.1v-0.1h-0.2h-2.2h-0.2
			c0.2,0.9,0.5,1.7,1,2.4c0.5,0.7,1.1,1.3,1.9,1.7c0.8,0.4,1.9,0.7,3.2,0.7C303.9,299.2,304.9,299,305.7,298.6 M284.6,296.4
			c-0.6-0.5-1.1-1.1-1.5-1.8c-0.3-0.8-0.5-1.6-0.6-2.4V292c0-0.9,0.2-1.7,0.5-2.5c0.3-0.8,0.8-1.4,1.5-1.9c0.7-0.5,1.4-0.7,2.4-0.7
			c0.9,0,1.7,0.2,2.3,0.7c0.6,0.5,1.1,1.1,1.5,1.8c0.3,0.8,0.5,1.6,0.6,2.4v0.2c0,0.9-0.2,1.7-0.5,2.5c-0.3,0.8-0.8,1.4-1.5,1.9
			c-0.7,0.5-1.4,0.7-2.4,0.7C286,297.1,285.2,296.9,284.6,296.4 M290.5,298.2c1.1-0.6,1.9-1.5,2.5-2.6c0.6-1.1,0.9-2.3,0.9-3.6v-0.1
			c0-1.3-0.3-2.5-0.9-3.5c-0.6-1.1-1.4-1.9-2.5-2.5c-1.1-0.6-2.2-0.9-3.6-0.9c-1.3,0-2.5,0.3-3.6,1c-1.1,0.6-1.9,1.5-2.5,2.6
			c-0.6,1.1-0.9,2.3-0.9,3.6v0.1c0,1.3,0.3,2.5,0.9,3.6c0.6,1.1,1.4,1.9,2.5,2.5c1.1,0.6,2.2,0.9,3.6,0.9
			C288.2,299.2,289.4,298.8,290.5,298.2 M271.5,282.3c1.3,0,2.2,0.3,2.8,0.9c0.6,0.6,0.9,1.4,0.9,2.4v0.2c0,0.6-0.1,1.1-0.3,1.6
			c-0.2,0.5-0.6,0.9-1.1,1.2c-0.5,0.3-1.2,0.5-2,0.5h-0.2H267v-6.9H271.5z M264.3,280v18.9h2.7v-7.3h4.7c1.1,0,2.2-0.3,3.2-0.8
			c1-0.5,1.7-1.2,2.2-2.1c0.5-0.9,0.8-1.8,0.8-2.8v-0.2c0-1.3-0.3-2.4-1-3.3c-0.7-0.8-1.4-1.5-2.4-1.8c-0.9-0.4-1.9-0.6-2.8-0.6
			H264.3z M255.7,298.9v-2.1H254c-0.4,0-0.8-0.1-1-0.2c-0.3-0.1-0.5-0.4-0.7-0.8c-0.2-0.4-0.2-1-0.2-1.7v-6.8h3.7v-2.1h-3.9
			c0.1-0.1,0.2-0.2,0.3-0.4c0.1-0.2,0.1-0.4,0.1-0.7v-2.4h-2.4v1.9c0,0.6-0.1,1-0.3,1.2s-0.5,0.3-0.8,0.3h-2.4v2.1h3.2v7.3
			c0,1,0.2,1.9,0.6,2.5c0.4,0.7,0.9,1.1,1.5,1.4c0.6,0.3,1.3,0.4,2,0.4H255.7z M243.2,280h-2.6v18.9h2.6V280z M233.2,298.7
			c0.6-0.3,1-0.6,1.3-0.9c0.3-0.3,0.4-0.6,0.5-0.8v1.8h2.6v-13.7H235v7.3v0v0c0,0.8-0.2,1.6-0.4,2.3c-0.3,0.7-0.7,1.2-1.2,1.6
			c-0.5,0.4-1.2,0.6-2,0.6c-0.7,0-1.2-0.1-1.7-0.4c-0.4-0.3-0.8-0.7-1-1.2c-0.2-0.5-0.3-1.1-0.3-1.9v-0.1v-0.1v-8.3h-2.6v8.6
			c0,1.2,0.2,2.2,0.7,3c0.5,0.8,1.1,1.4,1.9,1.8c0.8,0.4,1.6,0.6,2.6,0.6C231.8,299.2,232.6,299,233.2,298.7 M220.5,293.2
			c0,0.9-0.2,1.7-0.6,2.2c-0.4,0.6-1,1-1.6,1.3c-0.6,0.3-1.2,0.4-1.8,0.4c-0.6,0-1.1-0.1-1.5-0.3c-0.4-0.2-0.7-0.4-0.8-0.7
			c-0.2-0.3-0.2-0.6-0.2-1c0-0.4,0.1-0.7,0.2-1c0.1-0.3,0.4-0.5,0.8-0.6c0.4-0.2,0.8-0.3,1.5-0.4c0.1,0,0.1,0,0.2,0
			c0.1,0,0.1,0,0.2,0c1.2-0.2,2.1-0.3,2.6-0.4c0.5-0.1,0.9-0.2,1.3-0.4V293.2z M223.3,298.9c-0.1-0.4-0.1-0.9-0.1-1.5
			c0-0.6-0.1-1.2-0.1-1.9v-0.4v-0.4v-4.9c0-0.2,0-0.4,0-0.6c0-0.2-0.1-0.4-0.1-0.6c-0.2-0.8-0.5-1.5-1.1-2.1c-0.5-0.6-1.2-1-1.9-1.2
			s-1.6-0.4-2.5-0.4c-1,0-2,0.2-2.8,0.5c-0.8,0.4-1.5,0.9-2.1,1.5c-0.5,0.7-0.9,1.4-1,2.3c0,0.1,0,0.1,0,0.2c0,0.1,0,0.2,0,0.2h2.7
			v0v0c0-0.5,0.1-1,0.3-1.4c0.2-0.4,0.6-0.7,1-1c0.5-0.2,1.1-0.4,1.9-0.4c0.7,0,1.3,0.1,1.7,0.3c0.4,0.2,0.8,0.5,0.9,0.8
			c0.2,0.3,0.3,0.7,0.3,1.1v0.1v0.1c0,0.3,0,0.5-0.1,0.7c0,0.2-0.2,0.3-0.3,0.4c-0.2,0.1-0.5,0.2-0.8,0.3c-0.4,0.1-0.9,0.2-1.4,0.2
			c-0.5,0.1-1.1,0.1-1.7,0.2c-0.2,0-0.3,0-0.5,0.1c-0.2,0-0.3,0-0.5,0.1c-1.1,0.1-2.1,0.5-2.8,1.2c-0.7,0.7-1.1,1.5-1.1,2.6
			c0,0.8,0.2,1.5,0.6,2.1c0.4,0.6,1,1.1,1.7,1.4c0.7,0.3,1.6,0.5,2.5,0.5c0.7,0,1.3-0.1,2-0.3c0.6-0.2,1.1-0.5,1.6-0.8
			c0.4-0.3,0.7-0.7,0.9-1c0,0.6,0,1,0,1.3c0,0.3,0.1,0.5,0.1,0.6H223.3z M209.3,282.1V280h-1.7c-1,0-1.9,0.2-2.7,0.6
			c-0.7,0.4-1.3,0.9-1.7,1.6c-0.4,0.7-0.6,1.4-0.6,2.3v0.7h-3.3v2.2h3.3v11.5h2.7v-11.5h4.1v-2.2h-4.1v-0.7c0-0.9,0.2-1.5,0.6-1.8
			c0.4-0.3,1-0.5,1.7-0.5H209.3z M192.4,287.5c0.5,0.4,1,0.9,1.2,1.4c0.3,0.6,0.4,1.1,0.4,1.6v0.1v0.1H194h-7.8h-0.1v0v0
			c0.1-0.7,0.3-1.3,0.7-1.8c0.3-0.6,0.8-1,1.4-1.3c0.6-0.3,1.3-0.5,2.2-0.5C191.2,286.9,191.9,287.1,192.4,287.5 M188.1,296.5
			c-0.6-0.4-1.1-0.9-1.4-1.5c-0.3-0.6-0.5-1.3-0.5-2.1v-0.1h0.1h10.4v-1.2c0-1.3-0.3-2.5-0.8-3.5c-0.6-1-1.3-1.8-2.3-2.4
			c-1-0.5-2-0.8-3.2-0.8c-1.3,0-2.5,0.3-3.5,0.9c-1,0.6-1.8,1.4-2.4,2.5c-0.6,1.1-0.9,2.3-0.9,3.7v0.1c0,1.3,0.2,2.4,0.7,3.5
			c0.5,1.1,1.3,2,2.3,2.6c1,0.7,2.3,1,3.8,1c1,0,1.9-0.2,2.8-0.5c0.9-0.4,1.6-0.9,2.2-1.6c0.6-0.7,1-1.6,1.2-2.7h-0.1h-2.4H194v0
			c0,0,0,0,0,0c-0.1,0.8-0.5,1.4-1.1,1.9c-0.6,0.5-1.4,0.7-2.5,0.7C189.4,297.1,188.7,296.9,188.1,296.5 M178,289.4v0.1
			c0,1.4-0.3,2.6-0.8,3.6c-0.5,1.1-1.3,1.9-2.4,2.5c-1.1,0.6-2.4,0.9-3.9,0.9H167v-7.1v-7.1h3.9c1.5,0,2.8,0.3,3.9,0.9
			c1.1,0.6,1.9,1.4,2.4,2.5c0.5,1.1,0.8,2.3,0.8,3.6V289.4z M164.3,298.9h6.6c1.9,0,3.6-0.4,5.1-1.2c1.5-0.8,2.6-1.9,3.5-3.3
			c0.8-1.4,1.2-3,1.2-4.9v-0.1v-0.1c0-1.9-0.4-3.5-1.2-4.9c-0.8-1.4-2-2.5-3.5-3.3c-1.5-0.8-3.2-1.2-5.1-1.2h-6.6v9.4V298.9z"/>
		
			<path style="clip-path:url(#SVGID_00000054970343493228358150000015435294219536054434_);fill:none;stroke:#FFFFFF;stroke-width:1.892;" d="
			M626.4,110.7c-4.2,0-7.6,3.4-7.6,7.6v30.7c0,4.2,3.4,7.6,7.6,7.6h41.6c4.2,0,7.6-3.4,7.6-7.6v-30.7c0-4.2-3.4-7.6-7.6-7.6H626.4z"
			/>
	</g>
	<line class="st7" x1="629" y1="122" x2="665.5" y2="122"/>
	<line class="st7" x1="629" y1="129.7" x2="665.5" y2="129.7"/>
	<line class="st7" x1="629" y1="137.5" x2="665.5" y2="137.5"/>
	<line class="st7" x1="629" y1="145.2" x2="665.5" y2="145.2"/>
	<polyline class="st8" points="32.3,141.7 39.5,149.7 46.7,141.7 	"/>
	<polyline class="st8" points="32.3,136.3 39.5,128.3 46.7,136.3 	"/>
	<polyline class="st9" points="642.7,284.4 652.5,295.3 662.3,284.4 	"/>
	<g>
		<defs>
			<rect id="SVGID_00000027581526955107393660000015195378437993031090_" width="1250" height="1250"/>
		</defs>
		<clipPath id="SVGID_00000093890642471704067920000007034724236113882515_">
			<use xlink:href="#SVGID_00000027581526955107393660000015195378437993031090_"  style="overflow:visible;"/>
		</clipPath>
		<path style="clip-path:url(#SVGID_00000093890642471704067920000007034724236113882515_);" d="M214.7,384.7l-0.5-1.4
			c-0.7,0.4-1.9,0.9-3.2,0.9s-3-0.8-3-5v-13.2h5.5c0.6-0.4,0.8-1.6,0.4-2H208v-3c0-6.6-3.3-8.5-7.7-8.5c-4.5,0-8,3.2-8,7.7
			c0,1.3,0.3,2.3,0.8,3.3c-0.3-0.1-0.7-0.1-1.2-0.1c-4.8,0-7.9,3.1-7.9,6.7c0,3.7,3.2,5.6,6.2,6.9c2.7,1.2,4.2,2.6,4.2,4.8
			c0,2.4-1.8,3.6-3.7,3.6c-3.1,0-5.5-3-6.5-6.5l-1.3,0.2c0.1,1.9,0.5,5.2,0.8,6.1c0.9,0.8,3.3,1.9,6.1,1.9c4.2,0,8.6-2.4,8.6-7.1
			c0-3.5-2.7-5.4-6.5-7c-2.4-1-4.2-2.3-4.2-4.5c0-1.9,1.3-3.4,3.4-3.4c2.3,0,3.7,1.7,4.6,4l1.4-0.4c-0.2-1.2-0.6-3.3-1-4.4
			c-0.3-0.2-0.5-0.3-0.8-0.4c-0.5-1.1-0.7-1.9-0.7-3.2c0-3.8,2-5.9,4.8-5.9c3.5-0.1,4.7,2.4,4.7,6.4v2.9h-2.1l-1.4,1.4l0.3,0.6h3.3
			v15c0,4.1,1.8,6.1,5,6.1c0.5,0,1.2-0.2,2.1-0.6L214.7,384.7z"/>
		<path style="clip-path:url(#SVGID_00000093890642471704067920000007034724236113882515_);" d="M344.3,382c-1,1-2.8,1.9-4.1,1.9
			c-1.6,0-3.7-1.2-3.7-3.9c0-1.9,1.1-2.9,3.1-3.8c1.1-0.5,3.6-1.6,4.6-2.2V382z M344.3,372.4c-1.1,0.9-4.9,2.3-8,3.3
			c-2.8,1-4.2,2.6-4.2,5.1c0,3.2,2.5,6.3,6.2,6.3c1.5,0,4-2,6-3.4c0.6,2.5,2.7,3.4,6.6,3.4c3.8,0,7.4-0.9,9.5-3
			c1.4-1.4,2.1-2.9,2.1-4.2c0-1.3-0.7-2-1.2-2c-0.6,0-1.7,0.8-2.1,1.4c-0.2,0.2-0.2,0.4-0.1,0.7c0.2,0.4,0.4,1.1,0.4,1.7
			c0,1.6-1.6,2.9-5.7,2.9c-4.8,0-5.7-1.4-5.7-4.6v-9.2c0-2.7-0.5-4.7-2.3-6.2c-1.1-0.9-2.7-1.3-4.2-1.3c-2.9,0.6-6.2,2.5-7.7,3.5
			c-1,0.7-1.6,1.3-1.6,2.1c0,1.2,1.3,2.2,2.2,2.2c0.7,0,1.3-0.4,1.5-1.2c0.5-1.5,0.9-2.6,1.5-3.3c0.5-0.6,1.3-1.1,2.3-1.1
			c2.7,0,4.3,2.1,4.3,5.9V372.4z M323.2,382.1c-1,0.9-2.8,1.8-4.1,1.9c-1.6,0-3.7-1.3-3.7-4c0-1.9,1.1-2.8,3.1-3.8
			c1.1-0.5,3.5-1.6,4.6-2.2V382.1z M331.4,384.4l-0.5-1.3c-0.5,0.3-1.2,0.6-1.9,0.6c-0.9,0-1.8-0.8-1.8-3.1V371
			c0-2.7-0.5-4.8-2.3-6.3c-1.1-0.9-2.7-1.4-4.2-1.4c-2.9,0.6-6.3,2.6-7.7,3.6c-1,0.7-1.6,1.3-1.6,2.1c0,1.2,1.3,2.2,2.3,2.2
			c0.7,0,1.3-0.4,1.5-1.2c0.4-1.6,0.9-2.7,1.5-3.4c0.5-0.6,1.3-1,2.3-1c2.6,0,4.3,2.1,4.3,5.8v0.9c-1.1,0.9-4.9,2.3-8,3.3
			c-2.8,1-4.2,2.6-4.2,5.1c0,3.2,2.5,6.3,6.2,6.3c1.5,0,4-1.9,6.1-3.3c0.3,0.9,0.6,1.6,1.2,2.3c0.6,0.5,1.6,1,2.4,1L331.4,384.4z"/>
		<path style="clip-path:url(#SVGID_00000093890642471704067920000007034724236113882515_);" d="M629.5,375.9
			c-0.9,0.9-2.5,1.7-3.7,1.7c-1.4,0-3.3-1.1-3.3-3.5c0-1.7,1-2.6,2.8-3.4c1-0.5,3.2-1.5,4.1-2V375.9z M629.5,367.3
			c-1,0.8-4.4,2-7.2,2.9c-2.5,0.9-3.7,2.3-3.7,4.5c0,2.9,2.3,5.6,5.6,5.6c1.3,0,3.6-1.8,5.4-3c0.5,2.3,2.4,3,5.9,3
			c3.4,0,6.6-0.8,8.5-2.7c1.3-1.3,1.8-2.6,1.8-3.7c0-1.2-0.6-1.7-1.1-1.7c-0.6,0-1.5,0.7-1.8,1.2c-0.1,0.1-0.2,0.4-0.1,0.6
			c0.1,0.4,0.4,1,0.4,1.6c0,1.5-1.4,2.6-5.1,2.6c-4.3,0-5.1-1.3-5.1-4.1v-8.2c0-2.4-0.4-4.2-2-5.6c-1-0.8-2.4-1.2-3.8-1.2
			c-2.6,0.6-5.6,2.3-6.9,3.2c-0.9,0.6-1.4,1.2-1.4,1.9c0,1.1,1.1,2,2,2c0.6,0,1.1-0.3,1.4-1.1c0.4-1.4,0.8-2.3,1.4-2.9
			c0.5-0.6,1.1-1,2-1c2.4,0,3.8,1.9,3.8,5.2V367.3z"/>
		<path style="clip-path:url(#SVGID_00000093890642471704067920000007034724236113882515_);" d="M270.4,354.8
			c-0.8,1.9-2,7.5-2.8,11.1l-1.1,4.9h-8c3.7-7.6,7.2-14.6,11.7-16H270.4z M266.8,354.6c-0.9,0.5-2.4,1.2-3.8,3.1
			c-1.6,2.1-4,6.7-6.4,11.7c-5,10.2-9.3,17-16,17c-2.7,0-4.3-0.9-5.7-2.5l-0.4,0.3c-0.1,1.1,0.4,3.9,1.4,4.9
			c0.7,0.8,1.9,1.3,3.4,1.2c2.9-0.1,6.6-1.4,11-6.4c2.3-2.6,4.5-6.1,6.8-10.6c3.9,0,6.9-0.1,8.9-0.5c-0.9,4.2-1.9,8.8-2.3,10.8
			c-0.3,1.3-0.8,2-1.7,2.3l-0.2,1.4c2.7-0.5,6.8-1,10.5-1.3l0.5-1.4l-2.6-0.3c-1.8-0.2-2.1-0.5-1.7-2.7c0.3-2.2,0.8-5.1,1.6-9.2
			c1.9-10,3.5-17.9,4.6-20.8l-0.4-0.1c-1.5,0.4-3.2,1.1-4.4,1.4c-0.9,0-2.3-0.1-4-0.1c-1.6-0.1-2.8-0.1-4.2-0.1
			c-10.4,0-16.9,4.2-16.9,10c0,1.6,0.6,3.5,2.1,4.6c0.5,0.5,0.9,0.2,0.9-0.2c0-0.5-0.1-1.3-0.1-2c0.1-2.7,1.1-5.3,3.4-7.4
			c2.4-2.1,6.7-3.3,12.5-3.3H266.8z"/>
		<path style="clip-path:url(#SVGID_00000093890642471704067920000007034724236113882515_);" d="M491.2,369.7v-2.4h-2
			c-0.5,0-0.9-0.1-1.2-0.3c-0.3-0.2-0.6-0.5-0.8-0.9c-0.2-0.5-0.3-1.1-0.3-2v-8h4.3v-2.4h-4.6c0.1-0.1,0.2-0.2,0.3-0.5
			s0.1-0.5,0.1-0.8v-2.8h-2.8v2.2c0,0.7-0.1,1.2-0.3,1.4c-0.2,0.2-0.5,0.3-0.9,0.3h-2.8v2.4h3.8v8.5c0,1.2,0.2,2.2,0.7,3
			c0.4,0.8,1,1.3,1.8,1.6c0.7,0.3,1.5,0.5,2.3,0.5H491.2z M476.1,369.4c1-0.4,1.7-0.9,2.2-1.6c0.5-0.7,0.8-1.5,0.8-2.4v-0.2
			c0-1-0.2-1.8-0.7-2.4c-0.5-0.6-1.1-1.1-1.9-1.5c-0.8-0.3-1.6-0.6-2.6-0.8l-2.9-0.6c-0.6-0.1-1.1-0.3-1.4-0.7
			c-0.3-0.3-0.5-0.7-0.5-1.2v-0.1v0c0-0.7,0.3-1.2,0.9-1.6c0.6-0.4,1.4-0.6,2.2-0.6c0.7,0,1.3,0.1,1.8,0.4c0.5,0.3,0.9,0.7,1.2,1.2
			c0.3,0.5,0.5,1.1,0.5,1.7h0.3h2.6h0.2c-0.1-1.2-0.5-2.2-1.1-3.1c-0.6-0.9-1.4-1.5-2.3-2c-1-0.5-2-0.7-3.3-0.7
			c-1.3,0-2.4,0.2-3.4,0.6s-1.6,0.9-2.1,1.6c-0.5,0.7-0.7,1.5-0.7,2.4v0.1c0,0.1,0,0.2,0,0.3c0,0.1,0,0.2,0,0.3
			c0.1,0.7,0.3,1.2,0.7,1.7c0.4,0.5,0.9,0.9,1.4,1.1c0.6,0.3,1.2,0.5,1.9,0.7l3.1,0.7c0.6,0.1,1.1,0.3,1.5,0.5
			c0.4,0.2,0.7,0.4,0.9,0.7c0.2,0.3,0.3,0.7,0.3,1.2v0.1c0,0.5-0.1,1-0.4,1.3c-0.3,0.3-0.6,0.6-1.1,0.8s-1.1,0.3-1.8,0.3
			c-0.8,0-1.4-0.1-2-0.4c-0.6-0.3-1-0.7-1.4-1.1c-0.3-0.5-0.5-1-0.6-1.6c0,0,0,0,0-0.1v-0.1h-0.3h-2.6h-0.2c0.2,1.1,0.6,2,1.2,2.8
			c0.5,0.8,1.3,1.5,2.3,2c1,0.5,2.2,0.8,3.7,0.8C474,370,475.1,369.8,476.1,369.4 M457.9,349l-9.7,5.6v5.3l8.7-4.3v31.2h5.3V349
			H457.9z"/>
		<path style="clip-path:url(#SVGID_00000093890642471704067920000007034724236113882515_);" d="M557.5,367.6
			c-1.2-1.2-2.8-1.9-4.8-1.9c-2.2,0-4,0.7-5.2,2.1c-1.2,1.4-1.9,3.1-1.9,5h3c0-1.4,0.3-2.5,1-3.3s1.7-1.2,3.1-1.2
			c1.3,0,2.2,0.4,2.8,1.1c0.6,0.7,0.9,1.7,0.9,3c0,1.1-0.4,2-1.1,2.7c-0.7,0.7-1.8,1.5-3.3,2.5c-1.8,1.1-3.3,2.2-4.3,3.2
			c-1.1,1-1.8,2.4-2.3,4.1v1.9h13.9v-2.6h-10.8c0.2-0.8,0.7-1.5,1.5-2.1c0.7-0.6,1.8-1.3,3.2-2.1c1.4-0.8,2.5-1.5,3.2-2.1
			c0.8-0.6,1.5-1.3,2.1-2.2c0.6-0.9,0.9-2,0.9-3.3C559.3,370.5,558.7,368.9,557.5,367.6 M528.7,386.8h3.2l13.9-37.8h-3.3
			L528.7,386.8z M524.9,349l-6,3.4v2.6l5.2-2.7l-0.1,17h3l0.1-20.3H524.9z"/>
	</g>
	<polygon points="395.2,349 394.2,353.7 406.4,353.7 399.4,386.8 404.8,386.8 411.8,353.7 424,353.7 425,349 	"/>
	<polygon points="406.1,349 405.1,353.7 417.4,353.7 410.3,386.8 415.7,386.8 422.7,353.7 434.9,353.7 435.9,349 	"/>
	<polygon points="665.4,383.3 660.3,388.4 655.2,383.3 	"/>
	<rect x="611.7" y="353.6" width="2.3" height="33.2"/>
	<rect x="604.8" y="347.7" width="2.3" height="33.2"/>
	<rect x="604.8" y="347.7" width="37.8" height="2.3"/>
	<rect x="611.7" y="353.6" width="39.7" height="2.3"/>
	<rect x="611.7" y="384.4" width="39.7" height="2.3"/>
	<rect x="649" y="353.6" width="2.3" height="33.2"/>
	<g>
		<defs>
			<rect id="SVGID_00000020392034659971739020000001160350628858473151_" width="1250" height="1250"/>
		</defs>
		<clipPath id="SVGID_00000014616808825039453240000016853001596332027286_">
			<use xlink:href="#SVGID_00000020392034659971739020000001160350628858473151_"  style="overflow:visible;"/>
		</clipPath>
		<path style="clip-path:url(#SVGID_00000014616808825039453240000016853001596332027286_);" d="M140.9,218.9
			c-0.3-0.3-0.6-0.4-1-0.4s-0.7,0.1-1,0.4c-0.3,0.3-0.4,0.6-0.4,1c0,0.4,0.1,0.7,0.4,1c0.3,0.3,0.6,0.4,1,0.4s0.7-0.1,1-0.4
			c0.3-0.3,0.4-0.6,0.4-1C141.3,219.5,141.2,219.2,140.9,218.9 M140.9,228.8c-0.3-0.3-0.6-0.4-1-0.4s-0.7,0.1-1,0.4
			c-0.3,0.3-0.4,0.6-0.4,1c0,0.4,0.1,0.7,0.4,1c0.3,0.3,0.6,0.4,1,0.4s0.7-0.1,1-0.4c0.3-0.3,0.4-0.6,0.4-1
			C141.3,229.4,141.2,229.1,140.9,228.8 M126.8,219.7c0.5,0.4,1,0.9,1.2,1.4c0.3,0.6,0.4,1.1,0.4,1.6v0.1v0.1h-0.1h-7.8h-0.1v0v0
			c0.1-0.7,0.3-1.3,0.7-1.8c0.3-0.6,0.8-1,1.4-1.3c0.6-0.3,1.3-0.5,2.2-0.5C125.6,219.1,126.3,219.3,126.8,219.7 M122.4,228.7
			c-0.6-0.4-1.1-0.9-1.4-1.5c-0.3-0.6-0.5-1.3-0.5-2.1v-0.1h0.1h10.4v-1.2c0-1.3-0.3-2.5-0.8-3.5c-0.6-1-1.3-1.8-2.3-2.4
			c-1-0.5-2-0.8-3.2-0.8c-1.3,0-2.5,0.3-3.5,0.9c-1,0.6-1.8,1.4-2.4,2.5c-0.6,1.1-0.9,2.3-0.9,3.7v0.1c0,1.3,0.2,2.4,0.7,3.5
			c0.5,1.1,1.3,2,2.3,2.6c1,0.7,2.3,1,3.8,1c1,0,1.9-0.2,2.8-0.5c0.9-0.4,1.6-0.9,2.2-1.6c0.6-0.7,1-1.6,1.2-2.7h-0.1h-2.4h-0.1v0
			c0,0,0,0,0,0c-0.1,0.8-0.5,1.4-1.1,1.9c-0.6,0.5-1.4,0.7-2.5,0.7C123.8,229.3,123.1,229.1,122.4,228.7 M113.3,217.3
			c-0.5,0.2-1,0.5-1.3,0.9c-0.4,0.4-0.6,0.8-0.8,1.2v-2.1h-2.6V231h2.6v-7.6V223c0-0.1,0-0.2,0-0.3c0.1-0.7,0.3-1.4,0.6-1.9
			c0.3-0.5,0.7-1,1.2-1.3c0.5-0.3,1-0.4,1.6-0.4h1.7V217h-1.3C114.4,217,113.8,217.1,113.3,217.3 M101.8,230.9
			c0.6-0.3,1-0.6,1.3-0.9c0.3-0.3,0.4-0.6,0.5-0.8v1.8h2.6v-13.7h-2.6v7.3v0v0c0,0.8-0.2,1.6-0.4,2.3c-0.3,0.7-0.7,1.2-1.2,1.6
			c-0.5,0.4-1.2,0.6-2,0.6c-0.7,0-1.2-0.1-1.7-0.4c-0.4-0.3-0.8-0.7-1-1.2c-0.2-0.5-0.3-1.1-0.3-1.9v-0.1v-0.1v-8.3h-2.6v8.6
			c0,1.2,0.2,2.2,0.7,3c0.5,0.8,1.1,1.4,1.9,1.8c0.8,0.4,1.6,0.6,2.6,0.6C100.5,231.3,101.2,231.2,101.8,230.9 M82.2,228.6
			c-0.6-0.4-1.1-1-1.5-1.7c-0.4-0.8-0.5-1.6-0.6-2.6v-0.2V224V224c0-1,0.2-1.8,0.6-2.6c0.4-0.7,0.8-1.3,1.5-1.7
			c0.6-0.4,1.3-0.6,2.1-0.6c0.9,0,1.6,0.2,2.3,0.6c0.7,0.4,1.2,1,1.5,1.7c0.4,0.7,0.5,1.6,0.6,2.6v0.1v0.1v0.2v0.1v0.1
			c-0.1,0.9-0.3,1.7-0.6,2.4c-0.4,0.7-0.9,1.3-1.5,1.7c-0.6,0.4-1.4,0.6-2.2,0.6C83.5,229.3,82.8,229,82.2,228.6 M88,236.1
			c1-0.5,1.8-1.1,2.4-2c0.6-0.9,0.8-1.9,0.8-3.1v-13.7h-2.7v1.7c-0.3-0.4-0.7-0.8-1.1-1.1c-0.4-0.3-0.9-0.5-1.5-0.7
			c-0.6-0.2-1.2-0.3-1.9-0.3c-1.2,0-2.3,0.3-3.3,0.9c-1,0.6-1.8,1.4-2.4,2.5c-0.6,1.1-0.9,2.3-0.9,3.7v0.2c0,1.4,0.3,2.6,0.9,3.6
			c0.6,1.1,1.4,1.9,2.3,2.5c1,0.6,2,0.9,3.1,0.9c0.8,0,1.5-0.1,2.1-0.3c0.6-0.2,1.2-0.5,1.6-0.9c0.4-0.3,0.8-0.7,1-1.1v2v0
			c0,0.9-0.2,1.7-0.5,2.2s-0.8,0.9-1.3,1.2c-0.6,0.2-1.3,0.3-2.2,0.3c-0.8,0-1.4-0.1-2-0.3c-0.6-0.2-1-0.5-1.4-0.9
			c-0.4-0.4-0.6-0.9-0.7-1.5c0,0,0,0,0-0.1c0,0,0,0,0-0.1h-0.3h-1.9h-0.3c0.2,1.1,0.6,2,1.2,2.8c0.7,0.7,1.5,1.3,2.4,1.6
			c0.9,0.4,1.9,0.5,3,0.5C85.9,236.8,87,236.6,88,236.1 M74.2,212.7c-0.2-0.3-0.4-0.5-0.6-0.6c-0.3-0.2-0.5-0.2-0.8-0.2
			c-0.3,0-0.6,0.1-0.8,0.2c-0.3,0.2-0.5,0.4-0.6,0.6c-0.2,0.3-0.2,0.5-0.2,0.8c0,0.3,0.1,0.6,0.2,0.9c0.2,0.3,0.4,0.5,0.6,0.6
			c0.3,0.2,0.5,0.2,0.8,0.2c0.3,0,0.6-0.1,0.8-0.2c0.3-0.2,0.5-0.4,0.6-0.6c0.2-0.3,0.2-0.6,0.2-0.9
			C74.4,213.2,74.3,212.9,74.2,212.7 M74.1,217.3h-2.7V231h2.7V217.3z M68.6,214.4v-2.3h-13V231h2.7v-8.3h8.7v-2.3h-8.7v-5.9H68.6z"
			/>
		<path style="clip-path:url(#SVGID_00000014616808825039453240000016853001596332027286_);" d="M140.9,286.7
			c-0.3-0.3-0.6-0.4-1-0.4c-0.4,0-0.7,0.1-1,0.4c-0.3,0.3-0.4,0.6-0.4,1c0,0.4,0.1,0.7,0.4,1c0.3,0.3,0.6,0.4,1,0.4
			c0.4,0,0.7-0.1,1-0.4c0.3-0.3,0.4-0.6,0.4-1C141.3,287.3,141.2,287,140.9,286.7 M140.9,296.7c-0.3-0.3-0.6-0.4-1-0.4
			c-0.4,0-0.7,0.1-1,0.4c-0.3,0.3-0.4,0.6-0.4,1c0,0.4,0.1,0.7,0.4,1c0.3,0.3,0.6,0.4,1,0.4c0.4,0,0.7-0.1,1-0.4
			c0.3-0.3,0.4-0.6,0.4-1C141.3,297.3,141.2,296.9,140.9,296.7 M123.5,285.3c-0.6,0.3-1,0.6-1.3,0.9c-0.3,0.3-0.4,0.6-0.5,0.8v-1.8
			h-2.6v13.7h2.6v-7.3v0v0c0-0.8,0.2-1.6,0.4-2.3c0.3-0.7,0.7-1.2,1.2-1.6c0.5-0.4,1.2-0.6,2-0.6c0.7,0,1.2,0.1,1.7,0.4
			c0.4,0.3,0.8,0.7,1,1.2c0.2,0.5,0.3,1.1,0.3,1.9v0.1v0.1v8.3h2.6v-8.6c0-1.2-0.2-2.2-0.7-3c-0.5-0.8-1.1-1.4-1.9-1.8
			c-0.8-0.4-1.6-0.6-2.6-0.6S124.1,285,123.5,285.3 M106.9,296.4c-0.6-0.5-1.1-1.1-1.5-1.8c-0.3-0.8-0.5-1.6-0.6-2.4V292
			c0-0.9,0.2-1.7,0.5-2.5c0.3-0.8,0.8-1.4,1.5-1.9c0.7-0.5,1.4-0.7,2.4-0.7c0.9,0,1.7,0.2,2.3,0.7c0.6,0.5,1.1,1.1,1.5,1.8
			c0.3,0.8,0.5,1.6,0.6,2.4v0.2c0,0.9-0.2,1.7-0.5,2.5c-0.3,0.8-0.8,1.4-1.5,1.9c-0.7,0.5-1.4,0.7-2.4,0.7
			C108.3,297.1,107.5,296.9,106.9,296.4 M112.8,298.2c1.1-0.6,1.9-1.5,2.5-2.6c0.6-1.1,0.9-2.3,0.9-3.6v-0.1c0-1.3-0.3-2.5-0.9-3.5
			c-0.6-1.1-1.4-1.9-2.5-2.5c-1.1-0.6-2.2-0.9-3.6-0.9c-1.3,0-2.5,0.3-3.6,1c-1.1,0.6-1.9,1.5-2.5,2.6c-0.6,1.1-0.9,2.3-0.9,3.6v0.1
			c0,1.3,0.3,2.5,0.9,3.5c0.6,1.1,1.4,1.9,2.5,2.5c1.1,0.6,2.2,0.9,3.6,0.9C110.5,299.2,111.7,298.8,112.8,298.2 M99.1,280.5
			c-0.2-0.3-0.4-0.5-0.6-0.6c-0.3-0.2-0.5-0.2-0.8-0.2c-0.3,0-0.6,0.1-0.8,0.2c-0.3,0.2-0.5,0.4-0.6,0.6c-0.2,0.3-0.2,0.5-0.2,0.8
			c0,0.3,0.1,0.6,0.2,0.9c0.2,0.3,0.4,0.5,0.6,0.6c0.3,0.2,0.5,0.2,0.8,0.2c0.3,0,0.6-0.1,0.8-0.2c0.3-0.2,0.5-0.4,0.6-0.6
			c0.2-0.3,0.2-0.6,0.2-0.9C99.4,281.1,99.3,280.8,99.1,280.5 M99,285.2h-2.7v13.7H99V285.2z M93.8,298.9v-2.1h-1.7
			c-0.4,0-0.8-0.1-1-0.2c-0.3-0.1-0.5-0.4-0.7-0.8c-0.2-0.4-0.2-1-0.2-1.7v-6.8h3.7v-2.1h-3.9c0.1-0.1,0.2-0.2,0.3-0.4
			c0.1-0.2,0.1-0.4,0.1-0.7v-2.4h-2.4v1.9c0,0.6-0.1,1-0.3,1.2c-0.2,0.2-0.5,0.3-0.8,0.3h-2.4v2.1h3.2v7.3c0,1,0.2,1.9,0.6,2.5
			c0.4,0.7,0.9,1.1,1.5,1.4c0.6,0.3,1.3,0.4,2,0.4H93.8z M81.5,280.5c-0.2-0.3-0.4-0.5-0.6-0.6c-0.3-0.2-0.5-0.2-0.8-0.2
			c-0.3,0-0.6,0.1-0.8,0.2c-0.3,0.2-0.5,0.4-0.6,0.6c-0.2,0.3-0.2,0.5-0.2,0.8c0,0.3,0.1,0.6,0.2,0.9c0.2,0.3,0.4,0.5,0.6,0.6
			c0.3,0.2,0.5,0.2,0.8,0.2c0.3,0,0.6-0.1,0.8-0.2c0.3-0.2,0.5-0.4,0.6-0.6c0.2-0.3,0.2-0.6,0.2-0.9
			C81.7,281.1,81.7,280.8,81.5,280.5 M81.4,285.2h-2.7v13.7h2.7V285.2z M72.7,298.6c0.8-0.3,1.5-0.8,1.9-1.4
			c0.4-0.6,0.7-1.3,0.7-2.1V295c0-0.8-0.2-1.5-0.6-2.1c-0.4-0.5-1-1-1.6-1.2c-0.7-0.3-1.4-0.5-2.2-0.7l-2.5-0.5
			c-0.5-0.1-1-0.3-1.2-0.6c-0.3-0.3-0.4-0.6-0.4-1.1v-0.1v0c0-0.6,0.3-1.1,0.8-1.4c0.5-0.3,1.2-0.5,1.9-0.5c0.6,0,1.1,0.1,1.6,0.3
			c0.4,0.2,0.8,0.6,1,1c0.3,0.4,0.4,0.9,0.5,1.5h0.2h2.3h0.2c-0.1-1-0.4-1.9-0.9-2.6c-0.5-0.7-1.2-1.3-2-1.7
			c-0.8-0.4-1.8-0.6-2.8-0.6c-1.1,0-2.1,0.2-2.9,0.5c-0.8,0.3-1.4,0.8-1.8,1.4c-0.4,0.6-0.6,1.3-0.6,2v0.1c0,0.1,0,0.2,0,0.3
			c0,0.1,0,0.2,0,0.3c0.1,0.6,0.3,1.1,0.6,1.5c0.3,0.4,0.7,0.7,1.2,1c0.5,0.2,1,0.4,1.6,0.6l2.7,0.6c0.5,0.1,0.9,0.3,1.3,0.4
			c0.3,0.1,0.6,0.4,0.8,0.6c0.2,0.3,0.3,0.6,0.3,1v0.1c0,0.4-0.1,0.8-0.3,1.1c-0.2,0.3-0.5,0.5-1,0.7c-0.4,0.1-0.9,0.2-1.5,0.2
			c-0.7,0-1.2-0.1-1.7-0.4c-0.5-0.2-0.9-0.6-1.2-1c-0.3-0.4-0.5-0.9-0.6-1.4c0,0,0,0,0-0.1v-0.1h-0.2h-2.2h-0.2
			c0.2,0.9,0.5,1.7,1,2.4c0.5,0.7,1.1,1.3,1.9,1.7c0.8,0.4,1.9,0.7,3.2,0.7C70.9,299.2,71.9,299,72.7,298.6 M51.6,296.4
			c-0.6-0.5-1.1-1.1-1.5-1.8c-0.3-0.8-0.5-1.6-0.6-2.4V292c0-0.9,0.2-1.7,0.5-2.5c0.3-0.8,0.8-1.4,1.5-1.9c0.7-0.5,1.4-0.7,2.4-0.7
			c0.9,0,1.7,0.2,2.3,0.7c0.6,0.5,1.1,1.1,1.5,1.8c0.3,0.8,0.5,1.6,0.6,2.4v0.2c0,0.9-0.2,1.7-0.5,2.5c-0.3,0.8-0.8,1.4-1.5,1.9
			c-0.7,0.5-1.4,0.7-2.4,0.7C53,297.1,52.2,296.9,51.6,296.4 M57.5,298.2c1.1-0.6,1.9-1.5,2.5-2.6c0.6-1.1,0.9-2.3,0.9-3.6v-0.1
			c0-1.3-0.3-2.5-0.9-3.5c-0.6-1.1-1.4-1.9-2.5-2.5c-1.1-0.6-2.2-0.9-3.6-0.9c-1.3,0-2.5,0.3-3.6,1c-1.1,0.6-1.9,1.5-2.5,2.6
			c-0.6,1.1-0.9,2.3-0.9,3.6v0.1c0,1.3,0.3,2.5,0.9,3.5c0.6,1.1,1.4,1.9,2.5,2.5c1.1,0.6,2.2,0.9,3.6,0.9
			C55.2,299.2,56.4,298.8,57.5,298.2 M38.5,282.3c1.3,0,2.2,0.3,2.8,0.9c0.6,0.6,0.9,1.4,0.9,2.4v0.2c0,0.6-0.1,1.1-0.3,1.6
			c-0.2,0.5-0.6,0.9-1.1,1.2c-0.5,0.3-1.2,0.5-2,0.5h-0.2h-4.6v-6.9H38.5z M31.3,280v18.9h2.7v-7.3h4.7c1.1,0,2.2-0.3,3.2-0.8
			c1-0.5,1.7-1.2,2.2-2.1c0.5-0.9,0.8-1.8,0.8-2.8v-0.2c0-1.3-0.3-2.4-1-3.3c-0.7-0.8-1.4-1.5-2.4-1.8c-0.9-0.4-1.9-0.6-2.8-0.6
			H31.3z"/>
		<path style="clip-path:url(#SVGID_00000014616808825039453240000016853001596332027286_);fill:#EDEDED;" d="M34.2,336.8
			c-4.2,0-7.6,3.4-7.6,7.6v50.8c0,4.2,3.4,7.6,7.6,7.6H85c4.2,0,7.6-3.4,7.6-7.6v-50.8c0-4.2-3.4-7.6-7.6-7.6H34.2z"/>
		<path style="clip-path:url(#SVGID_00000014616808825039453240000016853001596332027286_);" d="M66.4,386.4v-1.3
			c-3.3-0.3-3.6-0.6-3.6-3.8v-18c-2.7,0.5-5.6,0.7-9.7,0.7h-4.1v-1.7c0-4.1,0.7-6.7,1.7-8.1c0.7-1,1.7-1.8,3.2-1.8
			c2.5,0,4.2,1.6,5.4,3c0.4,0.5,0.9,0.5,1.5,0.1c0.5-0.3,0.9-0.8,1.1-1.3c0.2-0.6,0.2-1.2-0.3-1.9c-0.6-0.8-2.3-2.4-5.5-2.5
			c-1.9,0.2-4.3,1.1-6.4,2.8c-2.8,2.2-3.9,4.8-4.2,6.1c-0.4,1.1-0.6,2.4-0.6,4v1.2h-2.5l-1.4,1.4l0.3,0.6h3.7v15.3
			c0,3.2-0.5,3.4-3.7,3.8v1.3h11.3v-1.3c-3.2-0.3-3.6-0.6-3.6-3.8v-15.3h7c2.5,0,2.6,0.4,2.6,2.7v12.6c0,3.2-0.4,3.5-3.2,3.8v1.3
			H66.4z"/>
		<path style="clip-path:url(#SVGID_00000014616808825039453240000016853001596332027286_);" d="M147.4,360c3.5,0,5.9-4.6,5.9-4.6
			l-1-1.7c0,0-2.1,3.5-4.9,3.5c-4.8,0-6.7-5.5-11.6-5.5c-13.8,0-24.3,19.7-24.3,19.7l0.3,2.7c0,0,2.6-4.1,4.2-4.8
			c-1.3,2.3-2,5-2,8.5c0,4.4,3,9.4,9.8,9.4c12.8,0,20.6-16.3,20.6-23.7c0-3.1-0.4-4.4-0.4-4.4S145.3,360,147.4,360 M139.9,359
			c0,9.3-6.4,26.5-13.8,26.5c-2.7,0-4-2.1-4-6.3c0-9.1,5.3-26.2,13.3-26.2C139.1,352.9,139.9,357.2,139.9,359"/>
	</g>
	<polyline points="354.2,345.5 361.5,353.3 354.2,361.2 	"/>
	<rect x="311.4" y="352" width="43.9" height="2.7"/>
	<g>
		<defs>
			<rect id="SVGID_00000036951137680900138640000005596468986744044672_" width="1250" height="1250"/>
		</defs>
		<clipPath id="SVGID_00000157295713860540686090000002484006796703406757_">
			<use xlink:href="#SVGID_00000036951137680900138640000005596468986744044672_"  style="overflow:visible;"/>
		</clipPath>
		<path style="clip-path:url(#SVGID_00000157295713860540686090000002484006796703406757_);fill:#FFFFFF;" d="M335.6,219.7
			c0.5,0.4,1,0.9,1.2,1.4c0.3,0.6,0.4,1.1,0.4,1.6v0.1v0.1h-0.1h-7.8h-0.1v0v0c0.1-0.7,0.3-1.3,0.7-1.8c0.3-0.6,0.8-1,1.4-1.3
			c0.6-0.3,1.3-0.5,2.2-0.5C334.4,219.1,335.1,219.3,335.6,219.7 M331.3,228.7c-0.6-0.4-1.1-0.9-1.4-1.5c-0.3-0.6-0.5-1.3-0.5-2.1
			v-0.1h0.1h10.4v-1.2c0-1.3-0.3-2.5-0.8-3.5c-0.6-1-1.3-1.8-2.3-2.4c-1-0.5-2-0.8-3.2-0.8c-1.3,0-2.5,0.3-3.5,0.9
			c-1,0.6-1.8,1.4-2.4,2.5c-0.6,1.1-0.9,2.3-0.9,3.7v0.1c0,1.3,0.2,2.4,0.7,3.5c0.5,1.1,1.3,2,2.3,2.6c1,0.7,2.3,1,3.8,1
			c1,0,1.9-0.2,2.8-0.5c0.9-0.4,1.6-0.9,2.2-1.6c0.6-0.7,1-1.6,1.2-2.7h-0.1h-2.4h-0.1v0c0,0,0,0,0,0c-0.1,0.8-0.5,1.4-1.1,1.9
			c-0.6,0.5-1.4,0.7-2.5,0.7C332.7,229.3,331.9,229.1,331.3,228.7 M322.2,217.3c-0.5,0.2-1,0.5-1.3,0.9c-0.4,0.4-0.6,0.8-0.8,1.2
			v-2.1h-2.6V231h2.6v-7.6V223c0-0.1,0-0.2,0-0.3c0.1-0.7,0.3-1.4,0.6-1.9c0.3-0.5,0.7-1,1.2-1.3c0.5-0.3,1-0.4,1.6-0.4h1.7V217
			h-1.3C323.3,217,322.7,217.1,322.2,217.3 M310.6,230.9c0.6-0.3,1-0.6,1.3-0.9c0.3-0.3,0.4-0.6,0.5-0.8v1.8h2.6v-13.7h-2.6v7.3v0v0
			c0,0.8-0.2,1.6-0.4,2.3c-0.3,0.7-0.7,1.2-1.2,1.6c-0.5,0.4-1.2,0.6-2,0.6c-0.7,0-1.2-0.1-1.7-0.4c-0.4-0.3-0.8-0.7-1-1.2
			c-0.2-0.5-0.3-1.1-0.3-1.9v-0.1v-0.1v-8.3h-2.6v8.6c0,1.2,0.2,2.2,0.7,3c0.5,0.8,1.1,1.4,1.9,1.8c0.8,0.4,1.6,0.6,2.6,0.6
			C309.3,231.3,310.1,231.2,310.6,230.9 M291,228.6c-0.6-0.4-1.1-1-1.5-1.7c-0.4-0.8-0.5-1.6-0.6-2.6v-0.2V224V224
			c0-1,0.2-1.8,0.6-2.6c0.4-0.7,0.8-1.3,1.5-1.7c0.6-0.4,1.3-0.6,2.1-0.6c0.9,0,1.6,0.2,2.3,0.6c0.7,0.4,1.2,1,1.5,1.7
			c0.4,0.7,0.5,1.6,0.6,2.6v0.1v0.1v0.2v0.1v0.1c-0.1,0.9-0.3,1.7-0.6,2.4c-0.4,0.7-0.9,1.3-1.5,1.7c-0.6,0.4-1.4,0.6-2.2,0.6
			C292.4,229.3,291.7,229,291,228.6 M296.9,236.1c1-0.5,1.8-1.1,2.4-2c0.6-0.9,0.8-1.9,0.8-3.1v-13.7h-2.7v1.7
			c-0.3-0.4-0.7-0.8-1.1-1.1c-0.4-0.3-0.9-0.5-1.5-0.7c-0.6-0.2-1.2-0.3-1.9-0.3c-1.2,0-2.3,0.3-3.3,0.9c-1,0.6-1.8,1.4-2.4,2.5
			c-0.6,1.1-0.9,2.3-0.9,3.7v0.2c0,1.4,0.3,2.6,0.9,3.6c0.6,1.1,1.4,1.9,2.3,2.5c1,0.6,2,0.9,3.1,0.9c0.8,0,1.5-0.1,2.1-0.3
			c0.6-0.2,1.2-0.5,1.6-0.9c0.4-0.3,0.8-0.7,1-1.1v2v0c0,0.9-0.2,1.7-0.5,2.2c-0.3,0.5-0.8,0.9-1.3,1.2c-0.6,0.2-1.3,0.3-2.2,0.3
			c-0.8,0-1.4-0.1-2-0.3c-0.6-0.2-1-0.5-1.4-0.9c-0.4-0.4-0.6-0.9-0.7-1.5c0,0,0,0,0-0.1c0,0,0,0,0-0.1h-0.3h-1.9h-0.3
			c0.2,1.1,0.6,2,1.2,2.8s1.5,1.3,2.4,1.6c0.9,0.4,1.9,0.5,3,0.5C294.7,236.8,295.9,236.6,296.9,236.1 M283,212.7
			c-0.2-0.3-0.4-0.5-0.6-0.6c-0.3-0.2-0.5-0.2-0.8-0.2c-0.3,0-0.6,0.1-0.8,0.2c-0.3,0.2-0.5,0.4-0.6,0.6c-0.2,0.3-0.2,0.5-0.2,0.8
			c0,0.3,0.1,0.6,0.2,0.9c0.2,0.3,0.4,0.5,0.6,0.6c0.3,0.2,0.5,0.2,0.8,0.2c0.3,0,0.6-0.1,0.8-0.2c0.3-0.2,0.5-0.4,0.6-0.6
			c0.2-0.3,0.2-0.6,0.2-0.9C283.3,213.2,283.2,212.9,283,212.7 M282.9,217.3h-2.7V231h2.7V217.3z M277.4,214.4v-2.3h-13V231h2.7
			v-8.3h8.7v-2.3h-8.7v-5.9H277.4z M255.7,231v-2.1H254c-0.4,0-0.8-0.1-1-0.2c-0.3-0.1-0.5-0.4-0.7-0.8c-0.2-0.4-0.2-1-0.2-1.7v-6.8
			h3.7v-2.1h-3.9c0.1-0.1,0.2-0.2,0.3-0.4c0.1-0.2,0.1-0.4,0.1-0.7v-2.4h-2.4v1.9c0,0.6-0.1,1-0.3,1.2s-0.5,0.3-0.8,0.3h-2.4v2.1
			h3.2v7.3c0,1,0.2,1.9,0.6,2.5c0.4,0.7,0.9,1.1,1.5,1.4c0.6,0.3,1.3,0.4,2,0.4H255.7z M243.2,212.1h-2.6V231h2.6V212.1z
			 M233.2,230.9c0.6-0.3,1-0.6,1.3-0.9c0.3-0.3,0.4-0.6,0.5-0.8v1.8h2.6v-13.7H235v7.3v0v0c0,0.8-0.2,1.6-0.4,2.3
			c-0.3,0.7-0.7,1.2-1.2,1.6c-0.5,0.4-1.2,0.6-2,0.6c-0.7,0-1.2-0.1-1.7-0.4c-0.4-0.3-0.8-0.7-1-1.2c-0.2-0.5-0.3-1.1-0.3-1.9v-0.1
			v-0.1v-8.3h-2.6v8.6c0,1.2,0.2,2.2,0.7,3c0.5,0.8,1.1,1.4,1.9,1.8c0.8,0.4,1.6,0.6,2.6,0.6C231.8,231.3,232.6,231.2,233.2,230.9
			 M220.5,225.4c0,0.9-0.2,1.7-0.6,2.2c-0.4,0.6-1,1-1.6,1.3c-0.6,0.3-1.2,0.4-1.8,0.4c-0.6,0-1.1-0.1-1.5-0.3
			c-0.4-0.2-0.7-0.4-0.8-0.7c-0.2-0.3-0.2-0.6-0.2-1c0-0.4,0.1-0.7,0.2-1c0.1-0.3,0.4-0.5,0.8-0.6s0.8-0.3,1.5-0.4
			c0.1,0,0.1,0,0.2,0c0.1,0,0.1,0,0.2,0c1.2-0.2,2.1-0.3,2.6-0.4c0.5-0.1,0.9-0.2,1.3-0.4V225.4z M223.3,231
			c-0.1-0.4-0.1-0.9-0.1-1.5c0-0.6-0.1-1.2-0.1-1.9v-0.4v-0.4V222c0-0.2,0-0.4,0-0.6c0-0.2-0.1-0.4-0.1-0.6
			c-0.2-0.8-0.5-1.5-1.1-2.1c-0.5-0.6-1.2-1-1.9-1.2c-0.8-0.3-1.6-0.4-2.5-0.4c-1,0-2,0.2-2.8,0.5c-0.8,0.4-1.5,0.9-2.1,1.5
			c-0.5,0.7-0.9,1.4-1,2.3c0,0.1,0,0.1,0,0.2c0,0.1,0,0.2,0,0.2h2.7v0v0c0-0.5,0.1-1,0.3-1.4c0.2-0.4,0.6-0.7,1-1s1.1-0.4,1.9-0.4
			c0.7,0,1.3,0.1,1.7,0.3c0.4,0.2,0.8,0.5,0.9,0.8c0.2,0.3,0.3,0.7,0.3,1.1v0.1v0.1c0,0.3,0,0.5-0.1,0.7c0,0.2-0.2,0.3-0.3,0.4
			c-0.2,0.1-0.5,0.2-0.8,0.3c-0.4,0.1-0.9,0.2-1.4,0.2c-0.5,0.1-1.1,0.1-1.7,0.2c-0.2,0-0.3,0-0.5,0.1c-0.2,0-0.3,0-0.5,0.1
			c-1.1,0.1-2.1,0.5-2.8,1.2c-0.7,0.7-1.1,1.5-1.1,2.6c0,0.8,0.2,1.5,0.6,2.1c0.4,0.6,1,1.1,1.7,1.4c0.7,0.3,1.6,0.5,2.5,0.5
			c0.7,0,1.3-0.1,2-0.3c0.6-0.2,1.1-0.5,1.6-0.8c0.4-0.3,0.7-0.7,0.9-1c0,0.6,0,1,0,1.3c0,0.3,0.1,0.5,0.1,0.6H223.3z M209.3,214.3
			v-2.2h-1.7c-1,0-1.9,0.2-2.7,0.6c-0.7,0.4-1.3,0.9-1.7,1.6c-0.4,0.7-0.6,1.4-0.6,2.3v0.7h-3.3v2.2h3.3V231h2.7v-11.5h4.1v-2.2
			h-4.1v-0.7c0-0.9,0.2-1.5,0.6-1.8c0.4-0.3,1-0.5,1.7-0.5H209.3z M192.4,219.7c0.5,0.4,1,0.9,1.2,1.4c0.3,0.6,0.4,1.1,0.4,1.6v0.1
			v0.1H194h-7.8h-0.1v0v0c0.1-0.7,0.3-1.3,0.7-1.8c0.3-0.6,0.8-1,1.4-1.3c0.6-0.3,1.3-0.5,2.2-0.5
			C191.2,219.1,191.9,219.3,192.4,219.7 M188.1,228.7c-0.6-0.4-1.1-0.9-1.4-1.5c-0.3-0.6-0.5-1.3-0.5-2.1v-0.1h0.1h10.4v-1.2
			c0-1.3-0.3-2.5-0.8-3.5c-0.6-1-1.3-1.8-2.3-2.4c-1-0.5-2-0.8-3.2-0.8c-1.3,0-2.5,0.3-3.5,0.9c-1,0.6-1.8,1.4-2.4,2.5
			c-0.6,1.1-0.9,2.3-0.9,3.7v0.1c0,1.3,0.2,2.4,0.7,3.5c0.5,1.1,1.3,2,2.3,2.6c1,0.7,2.3,1,3.8,1c1,0,1.9-0.2,2.8-0.5
			c0.9-0.4,1.6-0.9,2.2-1.6c0.6-0.7,1-1.6,1.2-2.7h-0.1h-2.4H194v0c0,0,0,0,0,0c-0.1,0.8-0.5,1.4-1.1,1.9c-0.6,0.5-1.4,0.7-2.5,0.7
			C189.4,229.3,188.7,229.1,188.1,228.7 M178,221.6v0.1c0,1.4-0.3,2.6-0.8,3.6c-0.5,1.1-1.3,1.9-2.4,2.5c-1.1,0.6-2.4,0.9-3.9,0.9
			H167v-7.1v-7.1h3.9c1.5,0,2.8,0.3,3.9,0.9c1.1,0.6,1.9,1.4,2.4,2.5c0.5,1.1,0.8,2.3,0.8,3.6V221.6z M164.3,231h6.6
			c1.9,0,3.6-0.4,5.1-1.2c1.5-0.8,2.6-1.9,3.5-3.3c0.8-1.4,1.2-3,1.2-4.9v-0.1v-0.1c0-1.9-0.4-3.5-1.2-4.9c-0.8-1.4-2-2.5-3.5-3.3
			c-1.5-0.8-3.2-1.2-5.1-1.2h-6.6v9.4V231z"/>
	</g>
	<polyline class="st7" points="642.7,216.5 652.5,227.5 662.3,216.5 	"/>
	<g>
		<defs>
			<rect id="SVGID_00000167362857580975015810000002746133571875889819_" width="1250" height="1250"/>
		</defs>
		<clipPath id="SVGID_00000119092892879402057850000005402349578191872940_">
			<use xlink:href="#SVGID_00000167362857580975015810000002746133571875889819_"  style="overflow:visible;"/>
		</clipPath>
		<path style="clip-path:url(#SVGID_00000119092892879402057850000005402349578191872940_);" d="M708.6,434.4c-5,0-9.1,4.1-9.1,9.1
			V693c0,5,4.1,9.1,9.1,9.1h519.2c5,0,9.1-4.1,9.1-9.1V443.5c0-5-4.1-9.1-9.1-9.1H708.6z"/>
	</g>
	<g>
		<defs>
			<path id="SVGID_00000103251567830211333300000007143856635094156948_" d="M708.6,434.4c-5,0-9.1,4.1-9.1,9.1V693
				c0,5,4.1,9.1,9.1,9.1h519.2c5,0,9.1-4.1,9.1-9.1V443.5c0-5-4.1-9.1-9.1-9.1H708.6z"/>
		</defs>
		<clipPath id="SVGID_00000165212222833991901090000006685164269855012260_">
			<use xlink:href="#SVGID_00000103251567830211333300000007143856635094156948_"  style="overflow:visible;"/>
		</clipPath>
		
			<rect x="695.4" y="643.1" style="clip-path:url(#SVGID_00000165212222833991901090000006685164269855012260_);fill:#FFFFFF;" width="545.8" height="49.9"/>
	</g>
	<g>
		<defs>
			<rect id="SVGID_00000173849721199604790950000015151480562979517866_" width="1250" height="1250"/>
		</defs>
		<clipPath id="SVGID_00000155847282069365901270000013244850596188586124_">
			<use xlink:href="#SVGID_00000173849721199604790950000015151480562979517866_"  style="overflow:visible;"/>
		</clipPath>
		<path style="clip-path:url(#SVGID_00000155847282069365901270000013244850596188586124_);fill:#FFFFFF;" d="M1126.4,562.8
			c0.8,0.5,1.3,1.2,1.7,2c0.4,0.8,0.5,1.5,0.6,2.3v0.1v0.1h-0.1h-10.7h-0.1v-0.1v-0.1c0.1-0.9,0.4-1.8,0.9-2.5
			c0.5-0.8,1.1-1.4,1.9-1.9c0.8-0.5,1.8-0.7,3-0.7C1124.7,562,1125.6,562.3,1126.4,562.8 M1120.4,575.3c-0.9-0.5-1.5-1.2-2-2.1
			c-0.4-0.9-0.7-1.8-0.7-2.9v-0.2h0.2h14.4v-1.6c0-1.8-0.4-3.5-1.2-4.9c-0.8-1.4-1.8-2.5-3.2-3.2c-1.3-0.8-2.8-1.1-4.4-1.1
			c-1.8,0-3.5,0.4-4.9,1.2c-1.4,0.8-2.5,1.9-3.3,3.4c-0.8,1.5-1.2,3.1-1.2,5.1v0.2c0,1.7,0.3,3.3,1,4.8c0.7,1.5,1.7,2.7,3.1,3.6
			c1.4,0.9,3.2,1.4,5.2,1.4c1.4,0,2.7-0.2,3.9-0.7c1.2-0.5,2.2-1.2,3.1-2.2c0.8-1,1.4-2.2,1.7-3.7h-0.2h-3.3h-0.1v0.1c0,0,0,0,0,0.1
			c-0.2,1.1-0.7,2-1.5,2.7c-0.8,0.7-2,1-3.4,1C1122.3,576,1121.3,575.8,1120.4,575.3 M1109.4,552.5h-3.6v26h3.6V552.5z M1086.1,586
			h3.7l11.5-26.4h-3.9l-5.4,12.6l-5.4-12.6h-4l7.6,16.9L1086.1,586z M1080.6,578.4v-2.8h-2.3c-0.6,0-1-0.1-1.4-0.3s-0.7-0.6-0.9-1.1
			c-0.2-0.5-0.3-1.3-0.3-2.3v-9.4h5v-2.8h-5.4c0.2-0.1,0.3-0.3,0.4-0.5c0.1-0.2,0.1-0.5,0.1-0.9v-3.3h-3.3v2.7
			c0,0.8-0.1,1.4-0.4,1.6c-0.3,0.3-0.6,0.4-1.1,0.4h-3.4v2.8h4.5v10c0,1.4,0.3,2.6,0.8,3.5c0.5,0.9,1.2,1.5,2.1,1.9
			c0.8,0.4,1.8,0.6,2.8,0.6H1080.6z M1061.7,578.2c1.1-0.5,2-1.1,2.6-1.9c0.6-0.8,0.9-1.8,0.9-2.8v-0.2c0-1.2-0.3-2.1-0.9-2.8
			c-0.6-0.7-1.3-1.3-2.2-1.7c-0.9-0.4-1.9-0.7-3-0.9l-3.4-0.7c-0.8-0.1-1.3-0.4-1.7-0.8s-0.5-0.9-0.5-1.4v-0.1v0
			c0-0.8,0.4-1.5,1.1-1.9c0.7-0.4,1.6-0.7,2.6-0.7c0.8,0,1.5,0.2,2.1,0.5c0.6,0.3,1.1,0.8,1.4,1.4c0.4,0.6,0.6,1.3,0.6,2.1h0.3h3.1
			h0.2c-0.1-1.4-0.6-2.6-1.3-3.6c-0.7-1-1.6-1.8-2.7-2.3c-1.1-0.5-2.4-0.8-3.9-0.8c-1.6,0-2.9,0.2-4,0.7c-1.1,0.5-1.9,1.1-2.5,1.9
			c-0.6,0.8-0.8,1.7-0.8,2.8v0.1c0,0.1,0,0.3,0,0.4c0,0.1,0,0.3,0.1,0.4c0.1,0.8,0.4,1.5,0.9,2c0.5,0.6,1,1,1.7,1.3
			c0.7,0.3,1.4,0.6,2.2,0.8l3.7,0.8c0.7,0.2,1.3,0.3,1.8,0.5c0.5,0.2,0.8,0.5,1.1,0.8c0.3,0.4,0.4,0.8,0.4,1.4v0.1
			c0,0.6-0.2,1.1-0.5,1.5s-0.7,0.7-1.3,0.9s-1.3,0.3-2.1,0.3c-0.9,0-1.7-0.2-2.4-0.5c-0.7-0.3-1.2-0.8-1.6-1.3
			c-0.4-0.6-0.6-1.2-0.8-1.9c0,0,0,0,0-0.1v-0.1h-0.3h-3.1h-0.2c0.3,1.2,0.7,2.4,1.4,3.3c0.6,1,1.5,1.8,2.7,2.4
			c1.2,0.6,2.6,0.9,4.3,0.9C1059.3,578.9,1060.6,578.6,1061.7,578.2 M1032,575.2c-0.9-0.6-1.5-1.4-2-2.4c-0.5-1-0.7-2.2-0.8-3.6
			v-0.3v-0.1v-0.1c0-1.3,0.3-2.5,0.8-3.5c0.5-1,1.2-1.8,2-2.4s1.8-0.8,3-0.8c1.2,0,2.3,0.3,3.1,0.8c0.9,0.5,1.6,1.3,2.1,2.3
			c0.5,1,0.7,2.2,0.8,3.6v0.1v0.1v0.3v0.2v0.2c-0.1,1.2-0.4,2.4-0.8,3.4s-1.2,1.8-2.1,2.3c-0.9,0.6-1.9,0.8-3.1,0.8
			C1033.8,576,1032.8,575.8,1032,575.2 M1030,560.4c-1.4,0.8-2.5,2-3.3,3.4c-0.8,1.5-1.2,3.2-1.2,5v0.3c0,1.9,0.4,3.5,1.2,5
			c0.8,1.5,1.9,2.6,3.2,3.4c1.3,0.8,2.8,1.2,4.3,1.2c1.1,0,2.1-0.2,3-0.5c0.9-0.3,1.6-0.7,2.2-1.2c0.6-0.5,1-1,1.3-1.5v2.7h3.7v-26
			h-3.7v9.5c-0.4-0.6-1-1.1-1.6-1.5c-0.6-0.4-1.3-0.7-2-1c-0.8-0.2-1.6-0.4-2.6-0.4C1032.9,559.2,1031.4,559.6,1030,560.4
			 M1020.7,552.5h-3.6v26h3.6V552.5z M994.6,574.5c-1.4-0.8-2.5-1.9-3.4-3.4c-0.8-1.5-1.2-3.2-1.2-5.3v-0.4v-0.4V565V565
			c0-2,0.4-3.7,1.3-5.2c0.8-1.5,1.9-2.6,3.3-3.4c1.4-0.8,3-1.2,4.7-1.2c1.7,0,3.3,0.4,4.7,1.2c1.4,0.8,2.5,1.9,3.4,3.4
			c0.8,1.5,1.2,3.2,1.2,5.3v0.4v0.4v0.1v0.1c0,2-0.4,3.7-1.3,5.2c-0.8,1.5-1.9,2.6-3.3,3.4c-1.4,0.8-3,1.2-4.7,1.2
			C997.6,575.7,996,575.3,994.6,574.5 M1005.9,577.2c2-1.1,3.5-2.6,4.7-4.6c1.2-2,1.7-4.2,1.7-6.8v-0.4v-0.4c0-2.5-0.6-4.8-1.7-6.8
			c-1.2-2-2.7-3.5-4.7-4.6c-2-1.1-4.2-1.6-6.6-1.6c-2.4,0-4.6,0.5-6.6,1.6c-2,1.1-3.5,2.6-4.7,4.6c-1.2,2-1.7,4.2-1.7,6.8v0.4v0.4
			c0,2.5,0.6,4.8,1.7,6.8c1.2,2,2.7,3.5,4.7,4.6c2,1.1,4.2,1.6,6.6,1.6C1001.7,578.9,1003.9,578.3,1005.9,577.2 M972.7,552.5h-3.6
			v26h3.6V552.5z M960.8,570.7c0,1.2-0.3,2.3-0.9,3.1c-0.6,0.8-1.3,1.4-2.2,1.7c-0.9,0.4-1.7,0.5-2.5,0.5c-0.9,0-1.6-0.1-2.1-0.4
			c-0.5-0.3-0.9-0.6-1.1-1c-0.2-0.4-0.3-0.9-0.3-1.3c0-0.5,0.1-1,0.3-1.3c0.2-0.4,0.5-0.6,1-0.9c0.5-0.2,1.2-0.4,2-0.5
			c0.1,0,0.1,0,0.2,0c0.1,0,0.1,0,0.2,0c1.7-0.2,2.8-0.4,3.6-0.5s1.3-0.3,1.8-0.5V570.7z M964.5,578.4c-0.1-0.5-0.1-1.2-0.2-2
			c0-0.8-0.1-1.7-0.1-2.6v-0.5v-0.5V566c0-0.3,0-0.6-0.1-0.9c0-0.3-0.1-0.6-0.1-0.8c-0.3-1.1-0.7-2.1-1.5-2.8
			c-0.7-0.8-1.6-1.3-2.7-1.7c-1-0.4-2.2-0.6-3.4-0.6c-1.4,0-2.7,0.2-3.9,0.7c-1.2,0.5-2.1,1.2-2.9,2.1c-0.8,0.9-1.2,2-1.3,3.2
			c0,0.1,0,0.2-0.1,0.3c0,0.1,0,0.2,0,0.3h3.7v-0.1v-0.1c0-0.7,0.2-1.4,0.5-1.9c0.3-0.6,0.8-1,1.4-1.3c0.7-0.3,1.5-0.5,2.6-0.5
			c1,0,1.8,0.2,2.4,0.5c0.6,0.3,1,0.7,1.3,1.1c0.3,0.4,0.4,0.9,0.5,1.5v0.1v0.1c0,0.4,0,0.7-0.1,0.9c-0.1,0.2-0.2,0.4-0.5,0.6
			c-0.3,0.2-0.6,0.3-1.2,0.4c-0.6,0.1-1.2,0.2-1.9,0.3s-1.5,0.2-2.3,0.3c-0.2,0-0.4,0.1-0.7,0.1c-0.2,0-0.5,0.1-0.7,0.1
			c-1.6,0.2-2.9,0.7-3.9,1.6c-1,0.9-1.5,2.1-1.5,3.6c0,1.1,0.3,2.1,0.8,2.9s1.3,1.5,2.3,2c1,0.5,2.2,0.7,3.4,0.7
			c0.9,0,1.8-0.2,2.7-0.5c0.8-0.3,1.6-0.7,2.2-1.2c0.6-0.5,1-0.9,1.2-1.4c0,0.8,0,1.4,0.1,1.8c0,0.4,0.1,0.7,0.1,0.8H964.5z
			 M933.6,559.8c-0.8,0.4-1.4,0.8-1.7,1.2c-0.4,0.4-0.6,0.8-0.7,1.1v-2.5h-3.6v18.8h3.6v-10v-0.1v-0.1c0-1.1,0.2-2.2,0.6-3.1
			c0.4-0.9,0.9-1.7,1.7-2.2c0.8-0.6,1.7-0.8,2.8-0.8c0.9,0,1.7,0.2,2.3,0.6c0.6,0.4,1,0.9,1.3,1.6c0.3,0.7,0.4,1.6,0.5,2.5v0.1v0.1
			v11.4h3.6v-11.9c0-1.7-0.3-3-1-4.1c-0.7-1.1-1.5-1.9-2.6-2.4c-1.1-0.5-2.3-0.8-3.5-0.8C935.4,559.2,934.4,559.4,933.6,559.8
			 M910.6,575.1c-0.9-0.6-1.6-1.5-2-2.5c-0.5-1-0.7-2.1-0.8-3.3V569c0-1.2,0.2-2.3,0.7-3.4c0.4-1.1,1.1-1.9,2-2.6c0.9-0.7,2-1,3.3-1
			c1.2,0,2.3,0.3,3.2,0.9c0.9,0.6,1.6,1.5,2,2.5c0.5,1,0.7,2.1,0.8,3.3v0.2c0,1.2-0.2,2.3-0.7,3.4c-0.4,1.1-1.1,1.9-2,2.6
			c-0.9,0.7-2,1-3.3,1C912.6,576,911.5,575.7,910.6,575.1 M918.7,577.6c1.5-0.9,2.6-2.1,3.4-3.6c0.8-1.5,1.2-3.2,1.2-5v-0.2
			c0-1.8-0.4-3.4-1.3-4.9c-0.8-1.5-2-2.6-3.4-3.5c-1.5-0.9-3.1-1.3-4.9-1.3c-1.8,0-3.5,0.4-5,1.3c-1.5,0.9-2.6,2.1-3.4,3.6
			c-0.8,1.5-1.2,3.2-1.2,5v0.2c0,1.8,0.4,3.4,1.3,4.9c0.8,1.5,2,2.6,3.4,3.5c1.5,0.9,3.1,1.3,4.9,1.3
			C915.6,578.9,917.3,578.4,918.7,577.6 M900,553.2c-0.2-0.4-0.5-0.6-0.8-0.8c-0.4-0.2-0.7-0.3-1.2-0.3c-0.4,0-0.8,0.1-1.2,0.3
			c-0.4,0.2-0.6,0.5-0.8,0.8c-0.2,0.4-0.3,0.7-0.3,1.2c0,0.4,0.1,0.8,0.3,1.2c0.2,0.4,0.5,0.7,0.8,0.9c0.4,0.2,0.7,0.3,1.2,0.3
			c0.4,0,0.8-0.1,1.2-0.3c0.4-0.2,0.6-0.5,0.8-0.9c0.2-0.4,0.3-0.8,0.3-1.2C900.3,554,900.2,553.6,900,553.2 M899.8,559.7h-3.7v18.8
			h3.7V559.7z M892.7,578.4v-2.8h-2.3c-0.6,0-1-0.1-1.4-0.3c-0.4-0.2-0.7-0.6-0.9-1.1s-0.3-1.3-0.3-2.3v-9.4h5v-2.8h-5.4
			c0.2-0.1,0.3-0.3,0.4-0.5c0.1-0.2,0.1-0.5,0.1-0.9v-3.3h-3.3v2.7c0,0.8-0.1,1.4-0.4,1.6c-0.3,0.3-0.6,0.4-1.1,0.4h-3.4v2.8h4.5v10
			c0,1.4,0.3,2.6,0.8,3.5c0.5,0.9,1.2,1.5,2.1,1.9c0.8,0.4,1.8,0.6,2.8,0.6H892.7z M873.1,559.7c-0.7,0.3-1.3,0.7-1.8,1.2
			c-0.5,0.5-0.9,1.1-1.1,1.7v-2.9h-3.6v18.8h3.6v-10.5v-0.5c0-0.2,0-0.3,0-0.4c0.1-1,0.4-1.9,0.8-2.7c0.4-0.8,1-1.3,1.7-1.7
			c0.7-0.4,1.4-0.6,2.3-0.6h2.4v-2.8h-1.8C874.7,559.2,873.8,559.4,873.1,559.7 M850.3,575.1c-0.9-0.6-1.6-1.5-2-2.5
			c-0.5-1-0.7-2.1-0.8-3.3V569c0-1.2,0.2-2.3,0.7-3.4c0.4-1.1,1.1-1.9,2-2.6c0.9-0.7,2-1,3.3-1c1.2,0,2.3,0.3,3.2,0.9
			c0.9,0.6,1.6,1.5,2,2.5c0.5,1,0.7,2.1,0.8,3.3v0.2c0,1.2-0.2,2.3-0.7,3.4c-0.4,1.1-1.1,1.9-2,2.6c-0.9,0.7-2,1-3.3,1
			C852.2,576,851.2,575.7,850.3,575.1 M858.4,577.6c1.5-0.9,2.6-2.1,3.4-3.6c0.8-1.5,1.2-3.2,1.2-5v-0.2c0-1.8-0.4-3.4-1.3-4.9
			c-0.8-1.5-2-2.6-3.4-3.5c-1.4-0.9-3.1-1.3-4.9-1.3c-1.8,0-3.5,0.4-5,1.3c-1.5,0.9-2.6,2.1-3.4,3.6c-0.8,1.5-1.2,3.2-1.2,5v0.2
			c0,1.8,0.4,3.4,1.3,4.9c0.8,1.5,2,2.6,3.4,3.5c1.5,0.9,3.1,1.3,4.9,1.3C855.3,578.9,857,578.4,858.4,577.6 M827.5,575.2
			c-0.9-0.6-1.6-1.3-2.1-2.3s-0.8-2.1-0.8-3.4v-0.1v-0.1v-0.3v-0.3v-0.3c0.1-1.3,0.4-2.4,0.8-3.3c0.5-1,1.2-1.7,2.1-2.2
			c0.9-0.5,1.9-0.8,3.1-0.8c1.1,0,2,0.3,2.8,0.8c0.8,0.5,1.5,1.2,2,2.2c0.5,0.9,0.8,2,0.9,3.3v0.3v0.3v0.3v0.1v0.1
			c0,1.3-0.3,2.5-0.8,3.5c-0.5,1-1.1,1.8-2,2.3c-0.8,0.6-1.8,0.8-2.9,0.8C829.4,576,828.4,575.8,827.5,575.2 M828.4,559.6
			c-0.8,0.2-1.4,0.6-2,1c-0.6,0.4-1.1,0.9-1.6,1.5v-2.4h-3.7V586h3.7v-10.3c0.3,0.5,0.8,1,1.3,1.5c0.6,0.5,1.3,0.9,2.2,1.2
			s1.9,0.5,3,0.5c1.5,0,3-0.4,4.3-1.2c1.3-0.8,2.4-2,3.2-3.4c0.8-1.5,1.2-3.1,1.2-5v-0.3c0-1.9-0.4-3.6-1.2-5
			c-0.8-1.5-1.9-2.6-3.3-3.4c-1.4-0.8-2.9-1.2-4.6-1.2C830,559.2,829.1,559.3,828.4,559.6 M803.8,575.1c-0.9-0.6-1.6-1.5-2-2.5
			c-0.5-1-0.7-2.1-0.8-3.3V569c0-1.2,0.2-2.3,0.7-3.4c0.4-1.1,1.1-1.9,2-2.6c0.9-0.7,2-1,3.3-1c1.2,0,2.3,0.3,3.2,0.9
			c0.9,0.6,1.6,1.5,2,2.5c0.5,1,0.7,2.1,0.8,3.3v0.2c0,1.2-0.2,2.3-0.7,3.4c-0.4,1.1-1.1,1.9-2,2.6c-0.9,0.7-2,1-3.3,1
			C805.7,576,804.7,575.7,803.8,575.1 M811.9,577.6c1.5-0.9,2.6-2.1,3.4-3.6c0.8-1.5,1.2-3.2,1.2-5v-0.2c0-1.8-0.4-3.4-1.3-4.9
			c-0.8-1.5-2-2.6-3.4-3.5c-1.5-0.9-3.1-1.3-4.9-1.3c-1.8,0-3.5,0.4-5,1.3c-1.5,0.9-2.6,2.1-3.4,3.6c-0.8,1.5-1.2,3.2-1.2,5v0.2
			c0,1.8,0.4,3.4,1.3,4.9c0.8,1.5,2,2.6,3.4,3.5c1.5,0.9,3.1,1.3,4.9,1.3C808.8,578.9,810.4,578.4,811.9,577.6 M791.4,559.7
			c-0.7,0.3-1.3,0.7-1.8,1.2c-0.5,0.5-0.9,1.1-1.1,1.7v-2.9h-3.6v18.8h3.6v-10.5v-0.5c0-0.2,0-0.3,0-0.4c0.1-1,0.4-1.9,0.8-2.7
			c0.4-0.8,1-1.3,1.7-1.7c0.7-0.4,1.4-0.6,2.3-0.6h2.4v-2.8h-1.8C792.9,559.2,792.1,559.4,791.4,559.7 M772.6,555.7
			c1.8,0,3.1,0.4,3.9,1.3c0.8,0.9,1.2,2,1.2,3.3v0.2c0,0.8-0.2,1.6-0.5,2.3c-0.3,0.7-0.8,1.2-1.5,1.7c-0.7,0.4-1.6,0.7-2.8,0.7h-0.3
			h-6.3v-9.5H772.6z M762.7,552.5v26h3.7v-10.1h6.5c1.6,0,3-0.4,4.3-1.1c1.3-0.7,2.3-1.7,3.1-2.9c0.7-1.2,1.1-2.5,1.1-3.9v-0.2
			c0-1.8-0.4-3.3-1.3-4.5c-0.9-1.2-2-2-3.3-2.5c-1.3-0.5-2.6-0.8-3.9-0.8H762.7z"/>
		<path style="clip-path:url(#SVGID_00000155847282069365901270000013244850596188586124_);fill:#FFFFFF;" d="M1072.8,625
			c-0.9-0.6-1.5-1.4-2-2.4c-0.5-1-0.7-2.2-0.8-3.6v-0.3v-0.1v-0.1c0-1.3,0.3-2.5,0.8-3.5c0.5-1,1.2-1.8,2-2.4c0.9-0.6,1.8-0.8,3-0.8
			c1.2,0,2.3,0.3,3.1,0.8c0.9,0.5,1.6,1.3,2.1,2.3c0.5,1,0.7,2.2,0.8,3.6v0.1v0.1v0.3v0.2v0.2c-0.1,1.2-0.4,2.4-0.8,3.4
			s-1.2,1.8-2.1,2.3c-0.9,0.6-1.9,0.8-3.1,0.8C1074.6,625.9,1073.6,625.6,1072.8,625 M1080.8,635.3c1.4-0.6,2.5-1.5,3.3-2.7
			c0.8-1.2,1.2-2.6,1.2-4.3v-18.8h-3.7v2.4c-0.4-0.6-1-1.1-1.6-1.5c-0.6-0.4-1.3-0.7-2-1c-0.8-0.2-1.6-0.4-2.6-0.4
			c-1.7,0-3.2,0.4-4.6,1.2c-1.4,0.8-2.5,2-3.3,3.4c-0.8,1.5-1.2,3.2-1.2,5v0.3c0,1.9,0.4,3.5,1.2,5c0.8,1.5,1.9,2.6,3.2,3.4
			c1.3,0.8,2.8,1.2,4.3,1.2c1.1,0,2.1-0.2,3-0.5c0.9-0.3,1.6-0.7,2.2-1.2c0.6-0.5,1-1,1.3-1.5v2.7v0c0,1.3-0.2,2.3-0.6,3
			c-0.4,0.8-1,1.3-1.8,1.6c-0.8,0.3-1.8,0.5-3.1,0.5c-1.1,0-2-0.1-2.8-0.4c-0.8-0.3-1.4-0.7-1.9-1.3c-0.5-0.6-0.8-1.3-1-2.1
			c0,0,0,0,0-0.1c0,0,0,0,0-0.1h-0.4h-2.6h-0.4c0.2,1.5,0.8,2.8,1.7,3.8c0.9,1,2,1.8,3.3,2.2c1.3,0.5,2.6,0.7,4.1,0.7
			C1077.8,636.3,1079.4,636,1080.8,635.3 M1051.7,609.6c-0.8,0.4-1.4,0.8-1.7,1.2c-0.4,0.4-0.6,0.8-0.7,1.1v-2.5h-3.6v18.8h3.6v-10
			v-0.1v-0.1c0-1.1,0.2-2.2,0.6-3.1c0.4-0.9,0.9-1.7,1.7-2.2c0.8-0.6,1.7-0.8,2.8-0.8c0.9,0,1.7,0.2,2.3,0.6c0.6,0.4,1,0.9,1.3,1.6
			c0.3,0.7,0.4,1.6,0.5,2.5v0.1v0.1v11.4h3.6v-11.9c0-1.7-0.3-3-1-4.1c-0.7-1.1-1.6-1.9-2.6-2.4c-1.1-0.5-2.3-0.8-3.5-0.8
			C1053.5,609.1,1052.5,609.2,1051.7,609.6 M1040.8,603.1c-0.2-0.4-0.5-0.6-0.8-0.8c-0.4-0.2-0.7-0.3-1.2-0.3s-0.8,0.1-1.2,0.3
			c-0.4,0.2-0.6,0.5-0.8,0.8c-0.2,0.4-0.3,0.7-0.3,1.2c0,0.4,0.1,0.8,0.3,1.2c0.2,0.4,0.5,0.7,0.8,0.9s0.7,0.3,1.2,0.3
			s0.8-0.1,1.2-0.3s0.6-0.5,0.8-0.9c0.2-0.4,0.3-0.8,0.3-1.2C1041.1,603.8,1041,603.4,1040.8,603.1 M1040.6,609.5h-3.7v18.8h3.7
			V609.5z M1021.8,609.6c-0.8,0.4-1.4,0.8-1.7,1.2c-0.4,0.4-0.6,0.8-0.7,1.1v-2.5h-3.6v18.8h3.6v-10v-0.1v-0.1
			c0-1.1,0.2-2.2,0.6-3.1c0.4-0.9,0.9-1.7,1.7-2.2c0.8-0.6,1.7-0.8,2.8-0.8c0.9,0,1.7,0.2,2.3,0.6c0.6,0.4,1,0.9,1.3,1.6
			c0.3,0.7,0.4,1.6,0.5,2.5v0.1v0.1v11.4h3.6v-11.9c0-1.7-0.3-3-1-4.1c-0.7-1.1-1.6-1.9-2.6-2.4c-1.1-0.5-2.3-0.8-3.5-0.8
			C1023.7,609.1,1022.6,609.2,1021.8,609.6 M1011,603.1c-0.2-0.4-0.5-0.6-0.8-0.8c-0.4-0.2-0.7-0.3-1.2-0.3c-0.4,0-0.8,0.1-1.2,0.3
			c-0.4,0.2-0.6,0.5-0.8,0.8c-0.2,0.4-0.3,0.7-0.3,1.2c0,0.4,0.1,0.8,0.3,1.2c0.2,0.4,0.5,0.7,0.8,0.9s0.7,0.3,1.2,0.3
			c0.4,0,0.8-0.1,1.2-0.3s0.6-0.5,0.8-0.9c0.2-0.4,0.3-0.8,0.3-1.2C1011.3,603.8,1011.2,603.4,1011,603.1 M1010.8,609.5h-3.7v18.8
			h3.7V609.5z M990,625.1v-22.7h-3.7v25.9h16.8v-3.2H990z M972.7,602.3h-3.6v26h3.6V602.3z M960.8,620.5c0,1.2-0.3,2.3-0.9,3.1
			c-0.6,0.8-1.3,1.4-2.2,1.7c-0.9,0.4-1.7,0.5-2.5,0.5c-0.9,0-1.6-0.1-2.1-0.4c-0.5-0.3-0.9-0.6-1.1-1c-0.2-0.4-0.3-0.9-0.3-1.3
			c0-0.5,0.1-1,0.3-1.3c0.2-0.4,0.5-0.6,1-0.9c0.5-0.2,1.2-0.4,2-0.5c0.1,0,0.1,0,0.2,0c0.1,0,0.1,0,0.2,0c1.7-0.2,2.8-0.4,3.6-0.5
			s1.3-0.3,1.8-0.5V620.5z M964.5,628.3c-0.1-0.5-0.1-1.2-0.2-2c0-0.8-0.1-1.7-0.1-2.6v-0.5v-0.5v-6.8c0-0.3,0-0.6-0.1-0.9
			c0-0.3-0.1-0.6-0.1-0.8c-0.3-1.1-0.7-2.1-1.5-2.8c-0.7-0.8-1.6-1.3-2.7-1.7c-1-0.4-2.2-0.6-3.4-0.6c-1.4,0-2.7,0.2-3.9,0.7
			c-1.2,0.5-2.1,1.2-2.9,2.1c-0.8,0.9-1.2,2-1.3,3.2c0,0.1,0,0.2-0.1,0.3c0,0.1,0,0.2,0,0.3h3.7v-0.1v-0.1c0-0.7,0.2-1.4,0.5-1.9
			c0.3-0.6,0.8-1,1.4-1.3c0.7-0.3,1.5-0.5,2.6-0.5c1,0,1.8,0.2,2.4,0.5c0.6,0.3,1,0.7,1.3,1.1c0.3,0.4,0.4,0.9,0.5,1.5v0.1v0.1
			c0,0.4,0,0.7-0.1,0.9c-0.1,0.2-0.2,0.4-0.5,0.6c-0.3,0.2-0.6,0.3-1.2,0.4c-0.6,0.1-1.2,0.2-1.9,0.3s-1.5,0.2-2.3,0.3
			c-0.2,0-0.4,0.1-0.7,0.1c-0.2,0-0.5,0.1-0.7,0.1c-1.6,0.2-2.9,0.7-3.9,1.6c-1,0.9-1.5,2.1-1.5,3.6c0,1.1,0.3,2.1,0.8,2.9
			s1.3,1.5,2.3,2c1,0.5,2.2,0.7,3.4,0.7c0.9,0,1.8-0.2,2.7-0.5c0.8-0.3,1.6-0.7,2.2-1.2c0.6-0.5,1-0.9,1.2-1.4c0,0.8,0,1.4,0.1,1.8
			c0,0.4,0.1,0.7,0.1,0.8H964.5z M933.6,609.6c-0.8,0.4-1.4,0.8-1.7,1.2c-0.4,0.4-0.6,0.8-0.7,1.1v-2.5h-3.6v18.8h3.6v-10v-0.1v-0.1
			c0-1.1,0.2-2.2,0.6-3.1c0.4-0.9,0.9-1.7,1.7-2.2c0.8-0.6,1.7-0.8,2.8-0.8c0.9,0,1.7,0.2,2.3,0.6c0.6,0.4,1,0.9,1.3,1.6
			c0.3,0.7,0.4,1.6,0.5,2.5v0.1v0.1v11.4h3.6v-11.9c0-1.7-0.3-3-1-4.1c-0.7-1.1-1.5-1.9-2.6-2.4c-1.1-0.5-2.3-0.8-3.5-0.8
			C935.4,609.1,934.4,609.2,933.6,609.6 M910.6,625c-0.9-0.6-1.6-1.5-2-2.5c-0.5-1-0.7-2.1-0.8-3.3v-0.2c0-1.2,0.2-2.3,0.7-3.4
			c0.4-1.1,1.1-1.9,2-2.6c0.9-0.7,2-1,3.3-1c1.2,0,2.3,0.3,3.2,0.9c0.9,0.6,1.6,1.5,2,2.5c0.5,1,0.7,2.1,0.8,3.3v0.2
			c0,1.2-0.2,2.3-0.7,3.4c-0.4,1.1-1.1,1.9-2,2.6c-0.9,0.7-2,1-3.3,1C912.6,625.9,911.5,625.6,910.6,625 M918.7,627.4
			c1.5-0.9,2.6-2.1,3.4-3.6c0.8-1.5,1.2-3.2,1.2-5v-0.2c0-1.8-0.4-3.4-1.3-4.9c-0.8-1.5-2-2.6-3.4-3.5c-1.5-0.9-3.1-1.3-4.9-1.3
			c-1.8,0-3.5,0.4-5,1.3c-1.5,0.9-2.6,2.1-3.4,3.6c-0.8,1.5-1.2,3.2-1.2,5v0.2c0,1.8,0.4,3.4,1.3,4.9c0.8,1.5,2,2.6,3.4,3.5
			c1.5,0.9,3.1,1.3,4.9,1.3C915.6,628.7,917.3,628.3,918.7,627.4 M900,603.1c-0.2-0.4-0.5-0.6-0.8-0.8c-0.4-0.2-0.7-0.3-1.2-0.3
			c-0.4,0-0.8,0.1-1.2,0.3c-0.4,0.2-0.6,0.5-0.8,0.8c-0.2,0.4-0.3,0.7-0.3,1.2c0,0.4,0.1,0.8,0.3,1.2c0.2,0.4,0.5,0.7,0.8,0.9
			c0.4,0.2,0.7,0.3,1.2,0.3c0.4,0,0.8-0.1,1.2-0.3c0.4-0.2,0.6-0.5,0.8-0.9c0.2-0.4,0.3-0.8,0.3-1.2
			C900.3,603.8,900.2,603.4,900,603.1 M899.8,609.5h-3.7v18.8h3.7V609.5z M892.7,628.3v-2.8h-2.3c-0.6,0-1-0.1-1.4-0.3
			c-0.4-0.2-0.7-0.6-0.9-1.1s-0.3-1.3-0.3-2.3v-9.4h5v-2.8h-5.4c0.2-0.1,0.3-0.3,0.4-0.5c0.1-0.2,0.1-0.5,0.1-0.9v-3.3h-3.3v2.7
			c0,0.8-0.1,1.4-0.4,1.6c-0.3,0.3-0.6,0.4-1.1,0.4h-3.4v2.8h4.5v10c0,1.4,0.3,2.6,0.8,3.5c0.5,0.9,1.2,1.5,2.1,1.9
			c0.8,0.4,1.8,0.6,2.8,0.6H892.7z M873.1,609.5c-0.7,0.3-1.3,0.7-1.8,1.2c-0.5,0.5-0.9,1.1-1.1,1.7v-2.9h-3.6v18.8h3.6v-10.5v-0.5
			c0-0.2,0-0.3,0-0.4c0.1-1,0.4-1.9,0.8-2.7c0.4-0.8,1-1.3,1.7-1.7c0.7-0.4,1.4-0.6,2.3-0.6h2.4v-2.8h-1.8
			C874.7,609.1,873.8,609.2,873.1,609.5 M850.3,625c-0.9-0.6-1.6-1.5-2-2.5c-0.5-1-0.7-2.1-0.8-3.3v-0.2c0-1.2,0.2-2.3,0.7-3.4
			c0.4-1.1,1.1-1.9,2-2.6c0.9-0.7,2-1,3.3-1c1.2,0,2.3,0.3,3.2,0.9c0.9,0.6,1.6,1.5,2,2.5c0.5,1,0.7,2.1,0.8,3.3v0.2
			c0,1.2-0.2,2.3-0.7,3.4c-0.4,1.1-1.1,1.9-2,2.6c-0.9,0.7-2,1-3.3,1C852.2,625.9,851.2,625.6,850.3,625 M858.4,627.4
			c1.5-0.9,2.6-2.1,3.4-3.6c0.8-1.5,1.2-3.2,1.2-5v-0.2c0-1.8-0.4-3.4-1.3-4.9c-0.8-1.5-2-2.6-3.4-3.5c-1.4-0.9-3.1-1.3-4.9-1.3
			c-1.8,0-3.5,0.4-5,1.3c-1.5,0.9-2.6,2.1-3.4,3.6c-0.8,1.5-1.2,3.2-1.2,5v0.2c0,1.8,0.4,3.4,1.3,4.9c0.8,1.5,2,2.6,3.4,3.5
			c1.5,0.9,3.1,1.3,4.9,1.3C855.3,628.7,857,628.3,858.4,627.4 M827.5,625c-0.9-0.6-1.6-1.3-2.1-2.3s-0.8-2.1-0.8-3.4v-0.1V619v-0.3
			v-0.3v-0.3c0.1-1.3,0.4-2.4,0.8-3.3c0.5-1,1.2-1.7,2.1-2.2c0.9-0.5,1.9-0.8,3.1-0.8c1.1,0,2,0.3,2.8,0.8c0.8,0.5,1.5,1.2,2,2.2
			c0.5,0.9,0.8,2,0.9,3.3v0.3v0.3v0.3v0.1v0.1c0,1.3-0.3,2.5-0.8,3.5c-0.5,1-1.1,1.8-2,2.3c-0.8,0.6-1.8,0.8-2.9,0.8
			C829.4,625.9,828.4,625.6,827.5,625 M828.4,609.4c-0.8,0.2-1.4,0.6-2,1c-0.6,0.4-1.1,0.9-1.6,1.5v-2.4h-3.7v26.4h3.7v-10.3
			c0.3,0.5,0.8,1,1.3,1.5c0.6,0.5,1.3,0.9,2.2,1.2s1.9,0.5,3,0.5c1.5,0,3-0.4,4.3-1.2c1.3-0.8,2.4-2,3.2-3.4c0.8-1.5,1.2-3.1,1.2-5
			v-0.3c0-1.9-0.4-3.6-1.2-5c-0.8-1.5-1.9-2.6-3.3-3.4c-1.4-0.8-2.9-1.2-4.6-1.2C830,609.1,829.1,609.2,828.4,609.4 M803.8,625
			c-0.9-0.6-1.6-1.5-2-2.5c-0.5-1-0.7-2.1-0.8-3.3v-0.2c0-1.2,0.2-2.3,0.7-3.4c0.4-1.1,1.1-1.9,2-2.6c0.9-0.7,2-1,3.3-1
			c1.2,0,2.3,0.3,3.2,0.9c0.9,0.6,1.6,1.5,2,2.5c0.5,1,0.7,2.1,0.8,3.3v0.2c0,1.2-0.2,2.3-0.7,3.4c-0.4,1.1-1.1,1.9-2,2.6
			c-0.9,0.7-2,1-3.3,1C805.7,625.9,804.7,625.6,803.8,625 M811.9,627.4c1.5-0.9,2.6-2.1,3.4-3.6c0.8-1.5,1.2-3.2,1.2-5v-0.2
			c0-1.8-0.4-3.4-1.3-4.9c-0.8-1.5-2-2.6-3.4-3.5c-1.5-0.9-3.1-1.3-4.9-1.3c-1.8,0-3.5,0.4-5,1.3c-1.5,0.9-2.6,2.1-3.4,3.6
			c-0.8,1.5-1.2,3.2-1.2,5v0.2c0,1.8,0.4,3.4,1.3,4.9c0.8,1.5,2,2.6,3.4,3.5c1.5,0.9,3.1,1.3,4.9,1.3
			C808.8,628.7,810.4,628.3,811.9,627.4 M791.4,609.5c-0.7,0.3-1.3,0.7-1.8,1.2c-0.5,0.5-0.9,1.1-1.1,1.7v-2.9h-3.6v18.8h3.6v-10.5
			v-0.5c0-0.2,0-0.3,0-0.4c0.1-1,0.4-1.9,0.8-2.7c0.4-0.8,1-1.3,1.7-1.7c0.7-0.4,1.4-0.6,2.3-0.6h2.4v-2.8h-1.8
			C792.9,609.1,792.1,609.2,791.4,609.5 M772.6,605.5c1.8,0,3.1,0.4,3.9,1.3c0.8,0.9,1.2,2,1.2,3.3v0.2c0,0.8-0.2,1.6-0.5,2.3
			c-0.3,0.7-0.8,1.2-1.5,1.7c-0.7,0.4-1.6,0.7-2.8,0.7h-0.3h-6.3v-9.5H772.6z M762.7,602.3v26h3.7v-10.1h6.5c1.6,0,3-0.4,4.3-1.1
			c1.3-0.7,2.3-1.7,3.1-2.9c0.7-1.2,1.1-2.5,1.1-3.9v-0.2c0-1.8-0.4-3.3-1.3-4.5c-0.9-1.2-2-2-3.3-2.5c-1.3-0.5-2.6-0.8-3.9-0.8
			H762.7z"/>
		<path style="clip-path:url(#SVGID_00000155847282069365901270000013244850596188586124_);fill:#FFFFFF;" d="M986.7,525.3
			c-0.9-0.6-1.5-1.4-2-2.4c-0.5-1-0.7-2.2-0.8-3.6V519V519v-0.1c0-1.3,0.3-2.5,0.8-3.5c0.5-1,1.2-1.8,2-2.4c0.9-0.6,1.8-0.8,3-0.8
			c1.2,0,2.3,0.3,3.1,0.8c0.9,0.5,1.6,1.3,2.1,2.3c0.5,1,0.7,2.2,0.8,3.6v0.1v0.1v0.3v0.2v0.2c-0.1,1.2-0.4,2.4-0.8,3.4
			s-1.2,1.8-2.1,2.3c-0.9,0.6-1.9,0.8-3.1,0.8C988.5,526.2,987.5,525.9,986.7,525.3 M994.7,535.6c1.4-0.6,2.5-1.5,3.3-2.7
			c0.8-1.2,1.2-2.6,1.2-4.3v-18.8h-3.7v2.4c-0.4-0.6-1-1.1-1.6-1.5c-0.6-0.4-1.3-0.7-2-1c-0.8-0.2-1.6-0.4-2.6-0.4
			c-1.7,0-3.2,0.4-4.6,1.2c-1.4,0.8-2.5,2-3.3,3.4c-0.8,1.5-1.2,3.2-1.2,5v0.3c0,1.9,0.4,3.5,1.2,5c0.8,1.5,1.9,2.6,3.2,3.4
			c1.3,0.8,2.8,1.2,4.3,1.2c1.1,0,2.1-0.2,3-0.5c0.9-0.3,1.6-0.7,2.2-1.2c0.6-0.5,1-1,1.3-1.5v2.7v0c0,1.3-0.2,2.3-0.6,3
			c-0.4,0.8-1,1.3-1.8,1.6c-0.8,0.3-1.8,0.5-3.1,0.5c-1.1,0-2-0.1-2.8-0.4c-0.8-0.3-1.4-0.7-1.9-1.3c-0.5-0.6-0.8-1.3-1-2.1
			c0,0,0,0,0-0.1c0,0,0,0,0-0.1h-0.4h-2.6h-0.4c0.2,1.5,0.8,2.8,1.7,3.8c0.9,1,2,1.8,3.3,2.2c1.3,0.5,2.6,0.7,4.1,0.7
			C991.7,536.6,993.3,536.3,994.7,535.6 M965.6,509.9c-0.8,0.4-1.4,0.8-1.7,1.2c-0.4,0.4-0.6,0.8-0.7,1.1v-2.5h-3.6v18.8h3.6v-10
			v-0.1v-0.1c0-1.1,0.2-2.2,0.6-3.1c0.4-0.9,0.9-1.7,1.7-2.2c0.8-0.6,1.7-0.8,2.8-0.8c0.9,0,1.7,0.2,2.3,0.6c0.6,0.4,1,0.9,1.3,1.6
			c0.3,0.7,0.4,1.6,0.5,2.5v0.1v0.1v11.4h3.6v-11.9c0-1.7-0.3-3-1-4.1c-0.7-1.1-1.6-1.9-2.6-2.4c-1.1-0.5-2.3-0.8-3.5-0.8
			S966.4,509.5,965.6,509.9 M954.7,503.4c-0.2-0.4-0.5-0.6-0.8-0.8c-0.4-0.2-0.7-0.3-1.2-0.3c-0.4,0-0.8,0.1-1.2,0.3
			c-0.4,0.2-0.6,0.5-0.8,0.8c-0.2,0.4-0.3,0.7-0.3,1.2c0,0.4,0.1,0.8,0.3,1.2c0.2,0.4,0.5,0.7,0.8,0.9c0.4,0.2,0.7,0.3,1.2,0.3
			c0.4,0,0.8-0.1,1.2-0.3s0.6-0.5,0.8-0.9c0.2-0.4,0.3-0.8,0.3-1.2C955,504.1,954.9,503.7,954.7,503.4 M954.5,509.8h-3.7v18.8h3.7
			V509.8z M935.7,509.9c-0.8,0.4-1.4,0.8-1.7,1.2c-0.4,0.4-0.6,0.8-0.7,1.1v-2.5h-3.6v18.8h3.6v-10v-0.1v-0.1c0-1.1,0.2-2.2,0.6-3.1
			c0.4-0.9,0.9-1.7,1.7-2.2c0.8-0.6,1.7-0.8,2.8-0.8c0.9,0,1.7,0.2,2.3,0.6c0.6,0.4,1,0.9,1.3,1.6c0.3,0.7,0.4,1.6,0.5,2.5v0.1v0.1
			v11.4h3.6v-11.9c0-1.7-0.3-3-1-4.1c-0.7-1.1-1.5-1.9-2.6-2.4c-1.1-0.5-2.3-0.8-3.5-0.8S936.5,509.5,935.7,509.9 M924.9,503.4
			c-0.2-0.4-0.5-0.6-0.8-0.8c-0.4-0.2-0.7-0.3-1.2-0.3c-0.4,0-0.8,0.1-1.2,0.3c-0.4,0.2-0.6,0.5-0.8,0.8c-0.2,0.4-0.3,0.7-0.3,1.2
			c0,0.4,0.1,0.8,0.3,1.2c0.2,0.4,0.5,0.7,0.8,0.9c0.4,0.2,0.7,0.3,1.2,0.3c0.4,0,0.8-0.1,1.2-0.3c0.4-0.2,0.6-0.5,0.8-0.9
			c0.2-0.4,0.3-0.8,0.3-1.2C925.2,504.1,925.1,503.7,924.9,503.4 M924.7,509.8H921v18.8h3.7V509.8z M903.9,525.4v-22.7h-3.7v25.9
			H917v-3.2H903.9z M884.2,509.8c-0.7,0.3-1.3,0.7-1.8,1.2c-0.5,0.5-0.9,1.1-1.1,1.7v-2.9h-3.6v18.8h3.6v-10.5v-0.5
			c0-0.2,0-0.3,0-0.4c0.1-1,0.4-1.9,0.8-2.7c0.4-0.8,1-1.3,1.7-1.7c0.7-0.4,1.4-0.6,2.3-0.6h2.4v-2.8h-1.8
			C885.7,509.3,884.9,509.5,884.2,509.8 M870.2,520.8c0,1.2-0.3,2.3-0.9,3.1c-0.6,0.8-1.3,1.4-2.2,1.7c-0.9,0.4-1.7,0.5-2.5,0.5
			c-0.9,0-1.6-0.1-2.1-0.4c-0.5-0.3-0.9-0.6-1.1-1c-0.2-0.4-0.3-0.9-0.3-1.3c0-0.5,0.1-1,0.3-1.3c0.2-0.4,0.5-0.6,1-0.9
			c0.5-0.2,1.2-0.4,2-0.5c0.1,0,0.1,0,0.2,0c0.1,0,0.1,0,0.2,0c1.7-0.2,2.8-0.4,3.6-0.5c0.7-0.1,1.3-0.3,1.8-0.5V520.8z M874,528.6
			c-0.1-0.5-0.1-1.2-0.2-2c0-0.8-0.1-1.7-0.1-2.6v-0.5v-0.5v-6.8c0-0.3,0-0.6-0.1-0.9c0-0.3-0.1-0.6-0.1-0.8
			c-0.3-1.1-0.7-2.1-1.5-2.8c-0.7-0.8-1.6-1.3-2.7-1.7c-1-0.4-2.2-0.6-3.4-0.6c-1.4,0-2.7,0.2-3.9,0.7c-1.2,0.5-2.1,1.2-2.9,2.1
			c-0.8,0.9-1.2,2-1.3,3.2c0,0.1,0,0.2-0.1,0.3c0,0.1,0,0.2,0,0.3h3.7V516V516c0-0.7,0.2-1.4,0.5-1.9c0.3-0.6,0.8-1,1.4-1.3
			c0.7-0.3,1.5-0.5,2.6-0.5c1,0,1.8,0.2,2.4,0.5c0.6,0.3,1,0.7,1.3,1.1c0.3,0.4,0.4,0.9,0.5,1.5v0.1v0.1c0,0.4,0,0.7-0.1,0.9
			c-0.1,0.2-0.2,0.4-0.5,0.6c-0.3,0.2-0.6,0.3-1.2,0.4c-0.6,0.1-1.2,0.2-1.9,0.3c-0.7,0.1-1.5,0.2-2.3,0.3c-0.2,0-0.4,0.1-0.7,0.1
			c-0.2,0-0.5,0.1-0.7,0.1c-1.6,0.2-2.9,0.7-3.9,1.6c-1,0.9-1.5,2.1-1.5,3.6c0,1.1,0.3,2.1,0.8,2.9s1.3,1.5,2.3,2
			c1,0.5,2.2,0.7,3.4,0.7c0.9,0,1.8-0.2,2.7-0.5c0.8-0.3,1.6-0.7,2.2-1.2c0.6-0.5,1-0.9,1.2-1.4c0,0.8,0,1.4,0.1,1.8
			c0,0.4,0.1,0.7,0.1,0.8H874z M852.9,502.6h-3.6v26h3.6V502.6z M839.1,528.4c0.8-0.4,1.4-0.8,1.7-1.2c0.4-0.4,0.6-0.8,0.7-1.1v2.5
			h3.6v-18.8h-3.6v10v0.1v0.1c0,1.1-0.2,2.2-0.6,3.1c-0.4,0.9-0.9,1.7-1.7,2.2c-0.8,0.6-1.7,0.8-2.8,0.8c-0.9,0-1.7-0.2-2.3-0.6
			c-0.6-0.4-1-0.9-1.3-1.6c-0.3-0.7-0.4-1.6-0.5-2.5v-0.1v-0.1v-11.4h-3.6v11.9c0,1.7,0.3,3,1,4.1c0.7,1.1,1.5,1.9,2.6,2.4
			c1.1,0.5,2.3,0.8,3.5,0.8C837.2,529,838.3,528.8,839.1,528.4 M812.7,525.3c-0.9-0.6-1.6-1.4-2.1-2.4c-0.5-1-0.7-2.2-0.8-3.5V519
			V519v-0.1c0-1.4,0.3-2.6,0.8-3.6c0.5-1,1.2-1.8,2.1-2.3c0.9-0.5,1.9-0.8,3.1-0.8c1.1,0,2.1,0.3,3,0.8c0.9,0.6,1.5,1.3,2,2.4
			c0.5,1,0.7,2.2,0.8,3.5v0.1v0.1v0.3v0.2v0.2c0,1.3-0.3,2.5-0.8,3.5c-0.5,1-1.2,1.8-2,2.3c-0.8,0.5-1.8,0.8-2.9,0.8
			C814.6,526.2,813.6,525.9,812.7,525.3 M813.6,509.7c-0.8,0.2-1.4,0.6-2,1c-0.6,0.4-1.1,0.9-1.6,1.5v-9.5h-3.7v26h3.7v-2.7
			c0.3,0.5,0.8,1,1.3,1.5c0.6,0.5,1.3,0.9,2.2,1.2c0.9,0.3,1.9,0.5,3,0.5c1.5,0,3-0.4,4.3-1.2c1.3-0.8,2.4-2,3.2-3.4
			c0.8-1.5,1.2-3.1,1.2-5V519c0-1.9-0.4-3.6-1.2-5c-0.8-1.5-1.9-2.6-3.3-3.4s-2.9-1.2-4.6-1.2C815.3,509.3,814.4,509.5,813.6,509.7
			 M797.8,520.8c0,1.2-0.3,2.3-0.9,3.1c-0.6,0.8-1.3,1.4-2.2,1.7c-0.9,0.4-1.7,0.5-2.5,0.5c-0.9,0-1.6-0.1-2.1-0.4
			c-0.5-0.3-0.9-0.6-1.1-1c-0.2-0.4-0.3-0.9-0.3-1.3c0-0.5,0.1-1,0.3-1.3c0.2-0.4,0.5-0.6,1-0.9c0.5-0.2,1.2-0.4,2-0.5
			c0.1,0,0.1,0,0.2,0c0.1,0,0.1,0,0.2,0c1.7-0.2,2.8-0.4,3.6-0.5s1.3-0.3,1.8-0.5V520.8z M801.6,528.6c-0.1-0.5-0.1-1.2-0.2-2
			c0-0.8-0.1-1.7-0.1-2.6v-0.5v-0.5v-6.8c0-0.3,0-0.6-0.1-0.9c0-0.3-0.1-0.6-0.1-0.8c-0.3-1.1-0.7-2.1-1.5-2.8
			c-0.7-0.8-1.6-1.3-2.7-1.7s-2.2-0.6-3.4-0.6c-1.4,0-2.7,0.2-3.9,0.7c-1.2,0.5-2.1,1.2-2.9,2.1c-0.8,0.9-1.2,2-1.3,3.2
			c0,0.1,0,0.2-0.1,0.3c0,0.1,0,0.2,0,0.3h3.7V516V516c0-0.7,0.2-1.4,0.5-1.9c0.3-0.6,0.8-1,1.4-1.3c0.7-0.3,1.5-0.5,2.6-0.5
			c1,0,1.8,0.2,2.4,0.5c0.6,0.3,1,0.7,1.3,1.1c0.3,0.4,0.4,0.9,0.5,1.5v0.1v0.1c0,0.4,0,0.7-0.1,0.9c-0.1,0.2-0.2,0.4-0.5,0.6
			c-0.3,0.2-0.6,0.3-1.2,0.4c-0.6,0.1-1.2,0.2-1.9,0.3c-0.7,0.1-1.5,0.2-2.3,0.3c-0.2,0-0.4,0.1-0.7,0.1c-0.2,0-0.5,0.1-0.7,0.1
			c-1.6,0.2-2.9,0.7-3.9,1.6c-1,0.9-1.5,2.1-1.5,3.6c0,1.1,0.3,2.1,0.8,2.9c0.6,0.8,1.3,1.5,2.3,2c1,0.5,2.2,0.7,3.4,0.7
			c0.9,0,1.8-0.2,2.7-0.5c0.8-0.3,1.6-0.7,2.2-1.2c0.6-0.5,1-0.9,1.2-1.4c0,0.8,0,1.4,0.1,1.8c0,0.4,0.1,0.7,0.1,0.8H801.6z
			 M761.6,502.6v3.2h8.4v22.8h3.7v-22.8h8.4v-3.2H761.6z"/>
		<path style="clip-path:url(#SVGID_00000155847282069365901270000013244850596188586124_);" d="M1040.3,662.6
			c0.8,0.5,1.3,1.2,1.7,2c0.4,0.8,0.5,1.5,0.6,2.3v0.1v0.1h-0.1h-10.7h-0.1v-0.1v-0.1c0.1-0.9,0.4-1.8,0.9-2.5
			c0.5-0.8,1.1-1.4,1.9-1.9c0.8-0.5,1.8-0.7,3-0.7C1038.6,661.7,1039.5,662,1040.3,662.6 M1034.3,675c-0.9-0.5-1.5-1.2-2-2.1
			c-0.4-0.9-0.7-1.8-0.7-2.9v-0.2h0.2h14.4v-1.6c0-1.8-0.4-3.5-1.2-4.9c-0.8-1.4-1.8-2.5-3.2-3.2c-1.3-0.8-2.8-1.1-4.4-1.1
			c-1.8,0-3.5,0.4-4.9,1.2c-1.4,0.8-2.5,1.9-3.3,3.4c-0.8,1.5-1.2,3.1-1.2,5.1v0.2c0,1.7,0.3,3.3,1,4.8c0.7,1.5,1.7,2.7,3.1,3.6
			c1.4,0.9,3.2,1.4,5.2,1.4c1.4,0,2.7-0.2,3.9-0.7c1.2-0.5,2.2-1.2,3.1-2.2c0.8-1,1.4-2.2,1.7-3.7h-0.2h-3.3h-0.1v0.1c0,0,0,0,0,0.1
			c-0.2,1.1-0.7,2-1.5,2.7c-0.8,0.7-2,1-3.4,1C1036.2,675.7,1035.1,675.5,1034.3,675 M1023.3,652.2h-3.6v26h3.6V652.2z M1000,685.7
			h3.7l11.5-26.4h-3.9l-5.4,12.6l-5.4-12.6h-4l7.6,16.9L1000,685.7z M994.5,678.1v-2.8h-2.3c-0.6,0-1-0.1-1.4-0.3
			c-0.4-0.2-0.7-0.6-0.9-1.1s-0.3-1.3-0.3-2.3v-9.4h5v-2.8h-5.4c0.2-0.1,0.3-0.3,0.4-0.5c0.1-0.2,0.1-0.5,0.1-0.9v-3.3h-3.3v2.7
			c0,0.8-0.1,1.4-0.4,1.6c-0.3,0.3-0.6,0.4-1.1,0.4h-3.4v2.8h4.5v10c0,1.4,0.3,2.6,0.8,3.5c0.5,0.9,1.2,1.5,2.1,1.9
			c0.8,0.4,1.8,0.6,2.8,0.6H994.5z M975.6,677.9c1.1-0.5,2-1.1,2.6-1.9c0.6-0.8,0.9-1.8,0.9-2.8v-0.2c0-1.2-0.3-2.1-0.9-2.8
			c-0.6-0.7-1.3-1.3-2.2-1.7c-0.9-0.4-1.9-0.7-3-0.9l-3.4-0.7c-0.8-0.1-1.3-0.4-1.7-0.8c-0.4-0.4-0.5-0.9-0.5-1.4v-0.1v0
			c0-0.8,0.4-1.5,1.1-1.9c0.7-0.4,1.6-0.7,2.6-0.7c0.8,0,1.5,0.2,2.1,0.5c0.6,0.3,1.1,0.8,1.4,1.4c0.4,0.6,0.6,1.3,0.6,2.1h0.3h3.1
			h0.2c-0.1-1.4-0.6-2.6-1.3-3.6c-0.7-1-1.6-1.8-2.7-2.3c-1.1-0.5-2.4-0.8-3.9-0.8c-1.6,0-2.9,0.2-4,0.7c-1.1,0.5-1.9,1.1-2.5,1.9
			c-0.6,0.8-0.8,1.7-0.8,2.8v0.1c0,0.1,0,0.3,0,0.4c0,0.1,0,0.3,0.1,0.4c0.1,0.8,0.4,1.5,0.9,2c0.5,0.6,1,1,1.7,1.3
			c0.7,0.3,1.4,0.6,2.2,0.8l3.7,0.8c0.7,0.2,1.3,0.3,1.8,0.5c0.5,0.2,0.8,0.5,1.1,0.8c0.3,0.4,0.4,0.8,0.4,1.4v0.1
			c0,0.6-0.2,1.1-0.5,1.5c-0.3,0.4-0.7,0.7-1.3,0.9s-1.3,0.3-2.1,0.3c-0.9,0-1.7-0.2-2.4-0.5c-0.7-0.3-1.2-0.8-1.6-1.3
			c-0.4-0.6-0.6-1.2-0.8-1.9c0,0,0,0,0-0.1V672h-0.3h-3.1h-0.2c0.3,1.2,0.7,2.4,1.4,3.3c0.6,1,1.5,1.8,2.7,2.4
			c1.2,0.6,2.6,0.9,4.3,0.9C973.1,678.6,974.5,678.3,975.6,677.9 M945.9,674.9c-0.9-0.6-1.5-1.4-2-2.4c-0.5-1-0.7-2.2-0.8-3.6v-0.3
			v-0.1v-0.1c0-1.3,0.3-2.5,0.8-3.5c0.5-1,1.2-1.8,2-2.4c0.9-0.6,1.8-0.8,3-0.8c1.2,0,2.3,0.3,3.1,0.8c0.9,0.5,1.6,1.3,2.1,2.3
			c0.5,1,0.7,2.2,0.8,3.6v0.1v0.1v0.3v0.2v0.2c-0.1,1.2-0.4,2.4-0.8,3.4s-1.2,1.8-2.1,2.3c-0.9,0.6-1.9,0.8-3.1,0.8
			C947.7,675.7,946.7,675.5,945.9,674.9 M943.9,660.1c-1.4,0.8-2.5,2-3.3,3.4c-0.8,1.5-1.2,3.2-1.2,5v0.3c0,1.9,0.4,3.5,1.2,5
			c0.8,1.5,1.9,2.6,3.2,3.4c1.3,0.8,2.8,1.2,4.3,1.2c1.1,0,2.1-0.2,3-0.5s1.6-0.7,2.2-1.2c0.6-0.5,1-1,1.3-1.5v2.7h3.7v-26h-3.7v9.5
			c-0.4-0.6-1-1.1-1.6-1.5c-0.6-0.4-1.3-0.7-2-1c-0.8-0.2-1.6-0.4-2.6-0.4C946.8,658.9,945.3,659.3,943.9,660.1 M934.6,652.2H931v26
			h3.6V652.2z M908.5,674.2c-1.4-0.8-2.5-1.9-3.4-3.4c-0.8-1.5-1.2-3.2-1.2-5.3v-0.4v-0.4v-0.1v-0.1c0-2,0.4-3.7,1.3-5.2
			c0.8-1.5,1.9-2.6,3.3-3.4c1.4-0.8,3-1.2,4.7-1.2c1.7,0,3.3,0.4,4.7,1.2c1.4,0.8,2.5,1.9,3.4,3.4c0.8,1.5,1.2,3.2,1.2,5.3v0.4v0.4
			v0.1v0.1c0,2-0.4,3.7-1.3,5.2c-0.8,1.5-1.9,2.6-3.3,3.4c-1.4,0.8-3,1.2-4.7,1.2C911.5,675.4,909.9,675,908.5,674.2 M919.8,676.9
			c2-1.1,3.5-2.6,4.7-4.6c1.2-2,1.7-4.2,1.7-6.8v-0.4v-0.4c0-2.5-0.6-4.8-1.7-6.8c-1.2-2-2.7-3.5-4.7-4.6c-2-1.1-4.2-1.6-6.6-1.6
			c-2.4,0-4.6,0.5-6.6,1.6c-2,1.1-3.5,2.6-4.7,4.6c-1.2,2-1.7,4.2-1.7,6.8v0.4v0.4c0,2.5,0.6,4.8,1.7,6.8c1.2,2,2.7,3.5,4.7,4.6
			c2,1.1,4.2,1.6,6.6,1.6C915.6,678.6,917.8,678,919.8,676.9 M884.2,659.4c-0.7,0.3-1.3,0.7-1.8,1.2c-0.5,0.5-0.9,1.1-1.1,1.7v-2.9
			h-3.6v18.8h3.6v-10.5v-0.5c0-0.2,0-0.3,0-0.4c0.1-1,0.4-1.9,0.8-2.7c0.4-0.8,1-1.3,1.7-1.7c0.7-0.4,1.4-0.6,2.3-0.6h2.4v-2.8h-1.8
			C885.7,658.9,884.9,659.1,884.2,659.4 M870.2,670.4c0,1.2-0.3,2.3-0.9,3.1c-0.6,0.8-1.3,1.4-2.2,1.7c-0.9,0.4-1.7,0.5-2.5,0.5
			c-0.9,0-1.6-0.1-2.1-0.4c-0.5-0.3-0.9-0.6-1.1-1c-0.2-0.4-0.3-0.9-0.3-1.3c0-0.5,0.1-1,0.3-1.3c0.2-0.4,0.5-0.6,1-0.9
			c0.5-0.2,1.2-0.4,2-0.5c0.1,0,0.1,0,0.2,0c0.1,0,0.1,0,0.2,0c1.7-0.2,2.8-0.4,3.6-0.5c0.7-0.1,1.3-0.3,1.8-0.5V670.4z M874,678.1
			c-0.1-0.5-0.1-1.2-0.2-2c0-0.8-0.1-1.7-0.1-2.6V673v-0.5v-6.8c0-0.3,0-0.6-0.1-0.9c0-0.3-0.1-0.6-0.1-0.8
			c-0.3-1.1-0.7-2.1-1.5-2.8c-0.7-0.8-1.6-1.3-2.7-1.7c-1-0.4-2.2-0.6-3.4-0.6c-1.4,0-2.7,0.2-3.9,0.7c-1.2,0.5-2.1,1.2-2.9,2.1
			c-0.8,0.9-1.2,2-1.3,3.2c0,0.1,0,0.2-0.1,0.3c0,0.1,0,0.2,0,0.3h3.7v-0.1v-0.1c0-0.7,0.2-1.4,0.5-1.9c0.3-0.6,0.8-1,1.4-1.3
			c0.7-0.3,1.5-0.5,2.6-0.5c1,0,1.8,0.2,2.4,0.5c0.6,0.3,1,0.7,1.3,1.1c0.3,0.4,0.4,0.9,0.5,1.5v0.1v0.1c0,0.4,0,0.7-0.1,0.9
			c-0.1,0.2-0.2,0.4-0.5,0.6c-0.3,0.2-0.6,0.3-1.2,0.4c-0.6,0.1-1.2,0.2-1.9,0.3c-0.7,0.1-1.5,0.2-2.3,0.3c-0.2,0-0.4,0.1-0.7,0.1
			c-0.2,0-0.5,0.1-0.7,0.1c-1.6,0.2-2.9,0.7-3.9,1.6c-1,0.9-1.5,2.1-1.5,3.6c0,1.1,0.3,2.1,0.8,2.9s1.3,1.5,2.3,2
			c1,0.5,2.2,0.7,3.4,0.7c0.9,0,1.8-0.2,2.7-0.5c0.8-0.3,1.6-0.7,2.2-1.2c0.6-0.5,1-0.9,1.2-1.4c0,0.8,0,1.4,0.1,1.8
			c0,0.4,0.1,0.7,0.1,0.8H874z M852.9,652.2h-3.6v26h3.6V652.2z M839.1,678c0.8-0.4,1.4-0.8,1.7-1.2c0.4-0.4,0.6-0.8,0.7-1.1v2.5
			h3.6v-18.8h-3.6v10v0.1v0.1c0,1.1-0.2,2.2-0.6,3.1c-0.4,0.9-0.9,1.7-1.7,2.2c-0.8,0.6-1.7,0.8-2.8,0.8c-0.9,0-1.7-0.2-2.3-0.6
			c-0.6-0.4-1-0.9-1.3-1.6c-0.3-0.7-0.4-1.6-0.5-2.5v-0.1v-0.1v-11.4h-3.6v11.9c0,1.7,0.3,3,1,4.1c0.7,1.1,1.5,1.9,2.6,2.4
			c1.1,0.5,2.3,0.8,3.5,0.8C837.2,678.6,838.3,678.4,839.1,678 M812.7,674.9c-0.9-0.6-1.6-1.4-2.1-2.4c-0.5-1-0.7-2.2-0.8-3.5v-0.3
			v-0.1v-0.1c0-1.4,0.3-2.6,0.8-3.6c0.5-1,1.2-1.8,2.1-2.3c0.9-0.5,1.9-0.8,3.1-0.8c1.1,0,2.1,0.3,3,0.8c0.9,0.6,1.5,1.3,2,2.4
			c0.5,1,0.7,2.2,0.8,3.5v0.1v0.1v0.3v0.2v0.2c0,1.3-0.3,2.5-0.8,3.5c-0.5,1-1.2,1.8-2,2.3c-0.8,0.5-1.8,0.8-2.9,0.8
			C814.6,675.7,813.6,675.4,812.7,674.9 M813.6,659.3c-0.8,0.2-1.4,0.6-2,1c-0.6,0.4-1.1,0.9-1.6,1.5v-9.5h-3.7v26h3.7v-2.7
			c0.3,0.5,0.8,1,1.3,1.5c0.6,0.5,1.3,0.9,2.2,1.2c0.9,0.3,1.9,0.5,3,0.5c1.5,0,3-0.4,4.3-1.2c1.3-0.8,2.4-2,3.2-3.4
			c0.8-1.5,1.2-3.1,1.2-5v-0.3c0-1.9-0.4-3.6-1.2-5c-0.8-1.5-1.9-2.6-3.3-3.4s-2.9-1.2-4.6-1.2C815.3,658.9,814.4,659,813.6,659.3
			 M797.8,670.4c0,1.2-0.3,2.3-0.9,3.1c-0.6,0.8-1.3,1.4-2.2,1.7c-0.9,0.4-1.7,0.5-2.5,0.5c-0.9,0-1.6-0.1-2.1-0.4
			c-0.5-0.3-0.9-0.6-1.1-1c-0.2-0.4-0.3-0.9-0.3-1.3c0-0.5,0.1-1,0.3-1.3c0.2-0.4,0.5-0.6,1-0.9c0.5-0.2,1.2-0.4,2-0.5
			c0.1,0,0.1,0,0.2,0c0.1,0,0.1,0,0.2,0c1.7-0.2,2.8-0.4,3.6-0.5s1.3-0.3,1.8-0.5V670.4z M801.6,678.1c-0.1-0.5-0.1-1.2-0.2-2
			c0-0.8-0.1-1.7-0.1-2.6V673v-0.5v-6.8c0-0.3,0-0.6-0.1-0.9c0-0.3-0.1-0.6-0.1-0.8c-0.3-1.1-0.7-2.1-1.5-2.8
			c-0.7-0.8-1.6-1.3-2.7-1.7s-2.2-0.6-3.4-0.6c-1.4,0-2.7,0.2-3.9,0.7c-1.2,0.5-2.1,1.2-2.9,2.1c-0.8,0.9-1.2,2-1.3,3.2
			c0,0.1,0,0.2-0.1,0.3c0,0.1,0,0.2,0,0.3h3.7v-0.1v-0.1c0-0.7,0.2-1.4,0.5-1.9c0.3-0.6,0.8-1,1.4-1.3c0.7-0.3,1.5-0.5,2.6-0.5
			c1,0,1.8,0.2,2.4,0.5c0.6,0.3,1,0.7,1.3,1.1c0.3,0.4,0.4,0.9,0.5,1.5v0.1v0.1c0,0.4,0,0.7-0.1,0.9c-0.1,0.2-0.2,0.4-0.5,0.6
			c-0.3,0.2-0.6,0.3-1.2,0.4c-0.6,0.1-1.2,0.2-1.9,0.3c-0.7,0.1-1.5,0.2-2.3,0.3c-0.2,0-0.4,0.1-0.7,0.1c-0.2,0-0.5,0.1-0.7,0.1
			c-1.6,0.2-2.9,0.7-3.9,1.6c-1,0.9-1.5,2.1-1.5,3.6c0,1.1,0.3,2.1,0.8,2.9c0.6,0.8,1.3,1.5,2.3,2c1,0.5,2.2,0.7,3.4,0.7
			c0.9,0,1.8-0.2,2.7-0.5c0.8-0.3,1.6-0.7,2.2-1.2c0.6-0.5,1-0.9,1.2-1.4c0,0.8,0,1.4,0.1,1.8c0,0.4,0.1,0.7,0.1,0.8H801.6z
			 M761.6,652.2v3.2h8.4v22.8h3.7v-22.8h8.4v-3.2H761.6z"/>
		<path style="clip-path:url(#SVGID_00000155847282069365901270000013244850596188586124_);fill:#FFFFFF;" d="M998.2,463.1
			c0.8,0.5,1.3,1.2,1.7,2c0.4,0.8,0.5,1.5,0.6,2.3v0.1v0.1h-0.1h-10.7h-0.1v-0.1v-0.1c0.1-0.9,0.4-1.8,0.9-2.5
			c0.5-0.8,1.1-1.4,1.9-1.9c0.8-0.5,1.8-0.7,3-0.7C996.5,462.3,997.5,462.6,998.2,463.1 M992.2,475.6c-0.9-0.5-1.5-1.2-2-2.1
			s-0.7-1.9-0.7-2.9v-0.2h0.2h14.4v-1.6c0-1.8-0.4-3.5-1.2-4.9c-0.8-1.4-1.8-2.5-3.2-3.2c-1.3-0.8-2.8-1.1-4.4-1.1
			c-1.8,0-3.5,0.4-4.9,1.2c-1.4,0.8-2.5,1.9-3.3,3.4c-0.8,1.5-1.2,3.1-1.2,5.1v0.2c0,1.7,0.3,3.3,1,4.8c0.7,1.5,1.7,2.7,3.1,3.6
			c1.4,0.9,3.2,1.4,5.2,1.4c1.4,0,2.7-0.2,3.9-0.7c1.2-0.5,2.2-1.2,3.1-2.2c0.8-1,1.4-2.2,1.7-3.7h-0.2h-3.3h-0.1v0.1c0,0,0,0,0,0.1
			c-0.2,1.1-0.7,2-1.5,2.7c-0.8,0.7-2,1-3.4,1C994.1,476.3,993.1,476.1,992.2,475.6 M979.7,460c-0.7,0.3-1.3,0.7-1.8,1.2
			c-0.5,0.5-0.9,1.1-1.1,1.7v-2.9h-3.6v18.8h3.6v-10.5v-0.5c0-0.2,0-0.3,0-0.4c0.1-1,0.4-1.9,0.8-2.7c0.4-0.8,1-1.3,1.7-1.7
			c0.7-0.4,1.4-0.6,2.3-0.6h2.4v-2.8h-1.8C981.2,459.5,980.4,459.6,979.7,460 M963.8,478.6c0.8-0.4,1.4-0.8,1.7-1.2
			c0.4-0.4,0.6-0.8,0.7-1.1v2.5h3.6v-18.8h-3.6v10v0.1v0.1c0,1.1-0.2,2.2-0.6,3.1c-0.4,0.9-0.9,1.7-1.7,2.2
			c-0.8,0.6-1.7,0.8-2.8,0.8c-0.9,0-1.7-0.2-2.3-0.6c-0.6-0.4-1-0.9-1.3-1.6c-0.3-0.7-0.4-1.6-0.5-2.5v-0.1v-0.1v-11.4h-3.6v11.9
			c0,1.7,0.3,3,1,4.1c0.7,1.1,1.5,1.9,2.6,2.4c1.1,0.5,2.3,0.8,3.5,0.8S963,479,963.8,478.6 M936.9,475.5c-0.9-0.6-1.5-1.4-2-2.4
			c-0.5-1-0.7-2.2-0.8-3.6v-0.3v-0.1V469c0-1.3,0.3-2.5,0.8-3.5c0.5-1,1.2-1.8,2-2.4c0.9-0.6,1.8-0.8,3-0.8c1.2,0,2.3,0.3,3.1,0.8
			c0.9,0.5,1.6,1.3,2.1,2.3c0.5,1,0.7,2.2,0.8,3.6v0.1v0.1v0.3v0.2v0.2c-0.1,1.2-0.4,2.4-0.8,3.4c-0.5,1-1.2,1.8-2.1,2.3
			c-0.9,0.6-1.9,0.8-3.1,0.8C938.7,476.3,937.7,476,936.9,475.5 M944.9,485.8c1.4-0.6,2.5-1.5,3.3-2.7c0.8-1.2,1.2-2.6,1.2-4.3
			v-18.8h-3.7v2.4c-0.4-0.6-1-1.1-1.6-1.5c-0.6-0.4-1.3-0.7-2-1c-0.8-0.2-1.6-0.4-2.6-0.4c-1.7,0-3.2,0.4-4.6,1.2
			c-1.4,0.8-2.5,2-3.3,3.4c-0.8,1.5-1.2,3.2-1.2,5v0.3c0,1.9,0.4,3.5,1.2,5c0.8,1.5,1.9,2.6,3.2,3.4c1.3,0.8,2.8,1.2,4.3,1.2
			c1.1,0,2.1-0.2,3-0.5c0.9-0.3,1.6-0.7,2.2-1.2c0.6-0.5,1-1,1.3-1.5v2.7v0c0,1.3-0.2,2.3-0.6,3c-0.4,0.8-1,1.3-1.8,1.6
			c-0.8,0.3-1.8,0.5-3.1,0.5c-1.1,0-2-0.1-2.8-0.4c-0.8-0.3-1.4-0.7-1.9-1.3c-0.5-0.6-0.8-1.3-1-2.1c0,0,0,0,0-0.1c0,0,0,0,0-0.1
			H934h-2.6H931c0.2,1.5,0.8,2.8,1.7,3.8c0.9,1,2,1.8,3.3,2.2c1.3,0.5,2.6,0.7,4.1,0.7C941.9,486.7,943.5,486.4,944.9,485.8
			 M925.9,453.5c-0.2-0.4-0.5-0.6-0.8-0.8c-0.4-0.2-0.7-0.3-1.2-0.3s-0.8,0.1-1.2,0.3c-0.4,0.2-0.6,0.5-0.8,0.8
			c-0.2,0.4-0.3,0.7-0.3,1.2c0,0.4,0.1,0.8,0.3,1.2c0.2,0.4,0.5,0.7,0.8,0.9c0.4,0.2,0.7,0.3,1.2,0.3s0.8-0.1,1.2-0.3
			c0.4-0.2,0.6-0.5,0.8-0.9c0.2-0.4,0.3-0.8,0.3-1.2C926.2,454.3,926.1,453.9,925.9,453.5 M925.7,460H922v18.8h3.7V460z M918.1,456
			v-3.2h-17.9v26h3.7v-11.4h12v-3.2h-12V456H918.1z M888.3,478.7v-2.8h-2.3c-0.6,0-1-0.1-1.4-0.3c-0.4-0.2-0.7-0.6-0.9-1.1
			c-0.2-0.5-0.3-1.3-0.3-2.3v-9.4h5v-2.8h-5.4c0.2-0.1,0.3-0.3,0.4-0.5c0.1-0.2,0.1-0.5,0.1-0.9v-3.3H880v2.7c0,0.8-0.1,1.4-0.4,1.6
			c-0.3,0.3-0.6,0.4-1.1,0.4h-3.4v2.8h4.5v10c0,1.4,0.3,2.6,0.8,3.5c0.5,0.9,1.2,1.5,2.1,1.9c0.8,0.4,1.8,0.6,2.8,0.6H888.3z
			 M871.1,452.8h-3.6v26h3.6V452.8z M857.3,478.6c0.8-0.4,1.4-0.8,1.7-1.2c0.4-0.4,0.6-0.8,0.7-1.1v2.5h3.6v-18.8h-3.6v10v0.1v0.1
			c0,1.1-0.2,2.2-0.6,3.1c-0.4,0.9-0.9,1.7-1.7,2.2c-0.8,0.6-1.7,0.8-2.8,0.8c-0.9,0-1.7-0.2-2.3-0.6c-0.6-0.4-1-0.9-1.3-1.6
			c-0.3-0.7-0.4-1.6-0.5-2.5v-0.1v-0.1v-11.4H847v11.9c0,1.7,0.3,3,1,4.1c0.7,1.1,1.5,1.9,2.6,2.4c1.1,0.5,2.3,0.8,3.5,0.8
			S856.5,479,857.3,478.6 M839.9,471c0,1.2-0.3,2.3-0.9,3.1c-0.6,0.8-1.3,1.4-2.2,1.7c-0.9,0.4-1.7,0.5-2.5,0.5
			c-0.9,0-1.6-0.1-2.1-0.4c-0.5-0.3-0.9-0.6-1.1-1c-0.2-0.4-0.3-0.9-0.3-1.3c0-0.5,0.1-1,0.3-1.3c0.2-0.4,0.5-0.6,1-0.9
			c0.5-0.2,1.2-0.4,2-0.5c0.1,0,0.1,0,0.2,0c0.1,0,0.1,0,0.2,0c1.7-0.2,2.8-0.4,3.6-0.5c0.7-0.1,1.3-0.3,1.8-0.5V471z M843.7,478.7
			c-0.1-0.5-0.1-1.2-0.2-2c0-0.8-0.1-1.7-0.1-2.6v-0.5v-0.5v-6.8c0-0.3,0-0.6-0.1-0.9c0-0.3-0.1-0.6-0.1-0.8
			c-0.3-1.1-0.7-2.1-1.5-2.8c-0.7-0.8-1.6-1.3-2.7-1.7c-1-0.4-2.2-0.6-3.4-0.6c-1.4,0-2.7,0.2-3.9,0.7c-1.2,0.5-2.1,1.2-2.9,2.1
			c-0.8,0.9-1.2,2-1.3,3.2c0,0.1,0,0.2-0.1,0.3c0,0.1,0,0.2,0,0.3h3.7v-0.1v-0.1c0-0.7,0.2-1.4,0.5-1.9c0.3-0.6,0.8-1,1.4-1.3
			c0.7-0.3,1.5-0.5,2.6-0.5c1,0,1.8,0.2,2.4,0.5c0.6,0.3,1,0.7,1.3,1.1c0.3,0.4,0.4,0.9,0.5,1.5v0.1v0.1c0,0.4,0,0.7-0.1,0.9
			c-0.1,0.2-0.2,0.4-0.5,0.6c-0.3,0.2-0.6,0.3-1.2,0.4c-0.6,0.1-1.2,0.2-1.9,0.3c-0.7,0.1-1.5,0.2-2.3,0.3c-0.2,0-0.4,0.1-0.7,0.1
			c-0.2,0-0.5,0.1-0.7,0.1c-1.6,0.2-2.9,0.7-3.9,1.6s-1.5,2.1-1.5,3.6c0,1.1,0.3,2.1,0.8,2.9c0.6,0.8,1.3,1.5,2.3,2
			c1,0.5,2.2,0.7,3.4,0.7c0.9,0,1.8-0.2,2.7-0.5c0.8-0.3,1.6-0.7,2.2-1.2c0.6-0.5,1-0.9,1.2-1.4c0,0.8,0,1.4,0.1,1.8
			c0,0.4,0.1,0.7,0.1,0.8H843.7z M824.4,455.7v-3H822c-1.4,0-2.7,0.3-3.7,0.8c-1,0.6-1.8,1.3-2.3,2.2c-0.5,0.9-0.8,2-0.8,3.1v1h-4.5
			v3h4.5v15.8h3.7v-15.8h5.7v-3h-5.7v-1c0-1.2,0.3-2.1,0.8-2.5c0.5-0.4,1.3-0.7,2.4-0.7H824.4z M801.3,463.1c0.8,0.5,1.3,1.2,1.7,2
			c0.4,0.8,0.5,1.5,0.6,2.3v0.1v0.1h-0.1h-10.7h-0.1v-0.1v-0.1c0.1-0.9,0.4-1.8,0.9-2.5c0.5-0.8,1.1-1.4,1.9-1.9
			c0.8-0.5,1.8-0.7,3-0.7C799.6,462.3,800.5,462.6,801.3,463.1 M795.3,475.6c-0.9-0.5-1.5-1.2-2-2.1c-0.4-0.9-0.7-1.9-0.7-2.9v-0.2
			h0.2h14.4v-1.6c0-1.8-0.4-3.5-1.2-4.9c-0.8-1.4-1.8-2.5-3.2-3.2c-1.3-0.8-2.8-1.1-4.4-1.1c-1.8,0-3.5,0.4-4.9,1.2
			c-1.4,0.8-2.5,1.9-3.3,3.4c-0.8,1.5-1.2,3.1-1.2,5.1v0.2c0,1.7,0.3,3.3,1,4.8c0.7,1.5,1.7,2.7,3.1,3.6c1.4,0.9,3.2,1.4,5.2,1.4
			c1.4,0,2.7-0.2,3.9-0.7c1.2-0.5,2.2-1.2,3.1-2.2s1.4-2.2,1.7-3.7h-0.2h-3.3h-0.1v0.1c0,0,0,0,0,0.1c-0.2,1.1-0.7,2-1.5,2.7
			c-0.8,0.7-2,1-3.4,1C797.2,476.3,796.1,476.1,795.3,475.6 M781.5,465.8v0.1c0,1.9-0.4,3.6-1.1,5c-0.7,1.4-1.8,2.6-3.3,3.4
			c-1.5,0.8-3.3,1.2-5.4,1.2h-5.4v-9.8V456h5.4c2.1,0,3.9,0.4,5.4,1.2c1.5,0.8,2.6,2,3.3,3.4c0.7,1.4,1.1,3.1,1.1,5V465.8z
			 M762.7,478.7h9.1c2.6,0,4.9-0.5,6.9-1.6c2-1.1,3.6-2.6,4.8-4.5c1.1-1.9,1.7-4.2,1.7-6.7v-0.1v-0.1c0-2.5-0.6-4.8-1.7-6.7
			c-1.1-1.9-2.7-3.4-4.8-4.5c-2-1.1-4.4-1.6-6.9-1.6h-9.1v13V478.7z"/>
	</g>
	<polyline class="st18" points="720.5,468.5 729.2,477.4 745.4,453.7 	"/>
</g>
</svg>
