<?xml version="1.0" encoding="utf-8"?>
<!-- Generator: Adobe Illustrator 26.0.2, SVG Export Plug-In . SVG Version: 6.00 Build 0)  -->
<svg version="1.1" id="Calque_1" xmlns="http://www.w3.org/2000/svg" xmlns:xlink="http://www.w3.org/1999/xlink" x="0px" y="0px"
	 viewBox="0 0 1250 1250" style="enable-background:new 0 0 1250 1250;" xml:space="preserve">
<style type="text/css">
	.st0{fill:#EDEDED;}
	.st1{clip-path:url(#SVGID_00000048495370808894431850000013574138475707830179_);}
	.st2{clip-path:url(#SVGID_00000036958927832921610750000007332977415229859228_);}
	.st3{clip-path:url(#SVGID_00000147189484595416321770000013779290642170247046_);fill:none;stroke:#000000;stroke-width:1.148;}
</style>
<g>
	<rect class="st0" width="1250" height="1250"/>
	<g>
		<g>
			<defs>
				<rect id="SVGID_1_" width="1250" height="1250"/>
			</defs>
			<clipPath id="SVGID_00000159428850031450089200000012752308549975017346_">
				<use xlink:href="#SVGID_1_"  style="overflow:visible;"/>
			</clipPath>
			<path style="clip-path:url(#SVGID_00000159428850031450089200000012752308549975017346_);" d="M409.97,843.98v-4.01
				c0-72.3,48.12-104.68,136.51-118.43l180.69-28.11c47.05-7.31,94.53-28.1,118.43-54.11v72.18
				c0,172.67-102.39,271.02-258.99,271.02c-128.49,0-176.67-66.23-176.67-138.52L409.97,843.98z M558.52,1143.15
				c150.57,0,232.89-58.22,285.09-126.48v102.39h180.69V468.58c0-271.03-222.85-329.25-385.47-329.25
				c-166.63,0-283.08,62.24-353.35,122.47v192.73c94.36-90.34,216.83-154.59,361.38-154.59c100.38,0,192.73,30.11,192.73,124.46
				v4.02c0,68.27-44.22,94.01-112.42,104.39l-210.8,32.12c-176.55,26.9-303.14,118.44-303.14,291.1v4.02
				c0,184.7,152.58,283.08,345.32,283.08L558.52,1143.15z"/>
		</g>
		<g>
			<defs>
				<rect id="SVGID_00000000191198048103677530000017462614918889671849_" width="1250" height="1250"/>
			</defs>
			<clipPath id="SVGID_00000106833366785512884520000010170885604942690453_">
				<use xlink:href="#SVGID_00000000191198048103677530000017462614918889671849_"  style="overflow:visible;"/>
			</clipPath>
			<path style="clip-path:url(#SVGID_00000106833366785512884520000010170885604942690453_);" d="M198.51,91.74
				c9.27,0,13.81-5.45,13.81-12.67v-0.3c0-6.76-4.63-9.91-10.29-10.79c5.46-0.74,9.56-3.69,9.56-10.05v-0.32
				c0-6.34-4.18-11.03-12.83-11.03c-8.02,0-13.54,4.07-14.15,12.96h4.84c0.23-6.06,3.88-8.84,9.14-8.84c5.15,0,8.16,2.67,8.16,7.17
				v0.28c0,5.31-3.89,7.75-10.17,7.75v4.17c6.32,0,10.9,2.15,10.9,8.51v0.29c0,6.15-3.77,8.77-9.2,8.77c-4.77,0-8.49-1.99-8.82-8.97
				h-4.84C185.15,86.92,190.05,91.74,198.51,91.74L198.51,91.74z M158.78,85.19l12.84-29.89c1.54,2.96,2.39,7.42,2.39,13.6v0.55
				c0,12.64-3.61,18.19-9.51,18.19C162.25,87.63,160.32,86.84,158.78,85.19z M154.79,69.46v-0.6c0-12.72,3.72-18.17,9.71-18.17
				c1.74,0,3.28,0.47,4.58,1.47L156.53,81.4C155.4,78.51,154.79,74.57,154.79,69.46z M164.5,91.74c9.43,0,14.35-8.5,14.35-22.3
				v-0.55c0-13.97-4.92-22.31-14.35-22.31c-9.55,0-14.55,8.34-14.55,22.28v0.6C149.95,83.24,154.95,91.74,164.5,91.74 M132.94,91.74
				c6.75,0,11.52-2.85,11.52-8.73v-0.29c0-12.03-18.94-6.28-18.94-14.21v-0.29c0-2.92,2.24-4.82,6.5-4.82c4.3,0,7.15,2.17,7.53,5.76
				H144c-0.37-6.54-5.17-9.46-11.83-9.46c-7.57,0-11.09,3.85-11.09,8.62v0.29c0,11.71,18.94,5.97,18.94,14.15v0.29
				c0,3.3-2.72,4.99-6.87,4.99c-5.1,0-7.85-2.44-8.15-6.53h-4.45C120.9,87.52,124.9,91.74,132.94,91.74L132.94,91.74z M104.45,91.74
				c6.75,0,11.52-2.85,11.52-8.73v-0.29c0-12.03-18.94-6.28-18.94-14.21v-0.29c0-2.92,2.24-4.82,6.5-4.82c4.3,0,7.15,2.17,7.53,5.76
				h4.45c-0.37-6.54-5.17-9.46-11.83-9.46c-7.57,0-11.09,3.85-11.09,8.62v0.29c0,11.71,18.94,5.97,18.94,14.15v0.29
				c0,3.3-2.72,4.99-6.87,4.99c-5.1,0-7.85-2.44-8.15-6.53h-4.45C92.42,87.52,96.41,91.74,104.45,91.74L104.45,91.74z M83.69,91.74
				c1.71,0,3.11-1.15,3.11-3.12c0-1.91-1.4-3.11-3.11-3.11c-1.72,0-3.11,1.2-3.11,3.11C80.58,90.6,81.98,91.74,83.69,91.74z
				 M52.94,82.89v-0.17c0-3.27,2.72-5.28,7.2-5.71l8.52-0.83v3.27c0,5.66-4.46,8.54-9.18,8.54C55.48,87.99,52.94,85.89,52.94,82.89
				L52.94,82.89z M58.92,91.74c3.8,0,8.15-1.54,9.79-5.54v4.83h4.48V70.49c0-7.76-5.42-10.79-11.54-10.79
				c-6.31,0-11.36,3.23-12.04,10.04h4.74c0.25-4.08,2.85-6.29,7.24-6.29c4.85,0,6.92,2.7,6.92,6.61v2.64l-9.01,0.91
				c-7,0.71-11.07,3.62-11.07,9.1v0.17C48.42,88.21,53.15,91.74,58.92,91.74L58.92,91.74z"/>
		</g>
		<g>
			<defs>
				<rect id="SVGID_00000169517418141519064830000016706533360476742074_" width="1250" height="1250"/>
			</defs>
			<clipPath id="SVGID_00000041281607530648029910000004543193003288685486_">
				<use xlink:href="#SVGID_00000169517418141519064830000016706533360476742074_"  style="overflow:visible;"/>
			</clipPath>
			
				<line style="clip-path:url(#SVGID_00000041281607530648029910000004543193003288685486_);fill:none;stroke:#000000;stroke-width:1.148;" x1="0" y1="1118.66" x2="1250" y2="1118.66"/>
		</g>
	</g>
</g>
</svg>
