<?xml version="1.0" encoding="utf-8"?>
<!-- Generator: Adobe Illustrator 26.0.2, SVG Export Plug-In . SVG Version: 6.00 Build 0)  -->
<svg version="1.1" id="Calque_1" xmlns="http://www.w3.org/2000/svg" xmlns:xlink="http://www.w3.org/1999/xlink" x="0px" y="0px"
	 viewBox="0 0 1250 1250" style="enable-background:new 0 0 1250 1250;" xml:space="preserve">
<style type="text/css">
	.st0{fill:#EDEDED;}
	.st1{clip-path:url(#SVGID_00000117636821139443533780000008179626574725930119_);}
	.st2{clip-path:url(#SVGID_00000117636821139443533780000008179626574725930119_);fill:none;stroke:#000000;stroke-width:1.148;}
	.st3{fill:none;stroke:#000000;stroke-width:1.148;}
	.st4{clip-path:url(#SVGID_00000085949447995330940960000008388016597427274137_);}
</style>
<g>
	<rect class="st0" width="1250" height="1250"/>
	<g>
		<defs>
			<rect id="SVGID_1_" width="1250" height="1250"/>
		</defs>
		<clipPath id="SVGID_00000172415762006439897720000011723225073027931289_">
			<use xlink:href="#SVGID_1_"  style="overflow:visible;"/>
		</clipPath>
		<path style="clip-path:url(#SVGID_00000172415762006439897720000011723225073027931289_);" d="M990,1177.11h51.76l118.32-317.72
			v-41.2H925.56v53.88l72.89-9.51h107.76L990,1177.11z M705.72,954.75c0.21-59.81,37.07-79.24,72.36-79.24
			c34.86,0,69.2,19.54,69.2,76.06v1.06c0,58.63-34.33,78.18-72.37,78.18C735.95,1030.8,705.91,1010.33,705.72,954.75L705.72,954.75z
			 M776.5,1075.17c65.5,0,123.6-47.01,123.6-122.54v-1.06c0-73.42-48.6-120.43-115.68-120.43c-33.28,0-58.63,11.62-76.06,34.86
			v-0.53c0-47.89,38.92-111.19,99.3-111.19l61.27,7.4v-51.77h-59.69c-83.99,0-157.41,80.55-157.41,215.24v1.06
			C651.84,1031.86,712.06,1075.17,776.5,1075.17L776.5,1075.17z M481.87,1182.92c81.34,0,131-54.41,131-131.53v-1.06
			c0-75.54-52.82-125.19-116.21-125.19c-27.47,0-59.69,9.51-77.65,33.81l6.87-36.98l6.87-59.95h152.13v-50.71l-45.43,6.34H389.96
			l-22.71,190.95h57.05c12.68-26.94,36.45-36.45,62.33-36.45c46.48,0,73.42,30.11,73.42,78.17v1.06c0,58.63-30.11,87.15-78.18,87.15
			c-35.39,0-65.5-15.32-68.14-54.93h-52.82C371.47,1152.28,421.12,1182.92,481.87,1182.92L481.87,1182.92z M88.73,1024.46
			l116.74-171.4v171.4H88.73z M205.46,1176.59h52.82v-107.76h60.22v-44.37h-60.22V817.67h-78.7L34.32,1030.8v38.03h171.14V1176.59z"
			/>
		<path style="clip-path:url(#SVGID_00000172415762006439897720000011723225073027931289_);" d="M923.9,705.24
			c74.43,0,120.4-43.81,120.4-106.7v-1.06c0-54.93-40.18-80.77-85.43-87.66c43.3-6.55,80.15-30.35,80.15-80.3v-2.64
			c0-55.78-42.71-93.49-113.7-93.49c-65.36,0-120.32,31.78-126.1,107.75h52.82c1.56-44.3,34.33-63.38,71.21-63.38
			c39.77,0,62.96,22.41,62.96,52.29v2.11c0,36.11-32.22,55.46-80.29,55.46v44.37c51.24,0,85.57,16.37,85.57,62.85v1.06
			c0,48.07-32.41,64.97-70.45,64.97c-34.13,0-67-13.6-68.99-64.97h-52.82C803.98,664.59,853.09,705.24,923.9,705.24L923.9,705.24z
			 M638.11,333.38c-43.46,0-118.63,13.73-120.17,103.53h52.82c2.49-42.26,26.42-59.16,66.81-59.16c33.73,0,61.01,11.62,61.01,48.59
			v1.06c0,52.29-87.16,86.1-178.01,113.04v50.71h235.58v-44.37H610.37C682.21,523,751.4,491.84,751.4,427.4v-1.06
			C751.4,359.78,698.32,333.37,638.11,333.38L638.11,333.38z M288.12,591.14h190.16v-44.37h-68.67v-206.8h-55.46l-67.08,36.45v61.8
			l69.72-40.67v149.22h-68.67V591.14z M95.59,465.96v-1.06c0-67.08,12.68-87.16,47.01-87.16s47.01,20.07,47.01,87.16v1.06
			c0,67.08-12.68,87.16-47.01,87.16S95.59,533.04,95.59,465.96 M142.6,597.48c68.14,0,99.83-51.24,99.83-131.53v-1.06
			c0-80.29-31.69-131.52-99.83-131.52S42.77,384.61,42.77,464.9v1.06C42.77,546.25,74.46,597.48,142.6,597.48"/>
		
			<line style="clip-path:url(#SVGID_00000172415762006439897720000011723225073027931289_);fill:none;stroke:#000000;stroke-width:1.148;" x1="0" y1="590.85" x2="1250" y2="590.85"/>
		
			<line style="clip-path:url(#SVGID_00000172415762006439897720000011723225073027931289_);fill:none;stroke:#000000;stroke-width:1.148;" x1="0" y1="1069.46" x2="1223.96" y2="1069.46"/>
	</g>
	<line class="st3" x1="497.44" y1="232.24" x2="497.44" y2="591.32"/>
	<line class="st3" x1="329.72" y1="709.93" x2="329.72" y2="1070.03"/>
	<line class="st3" x1="921.74" y1="709.93" x2="921.74" y2="1070.03"/>
	<line class="st3" x1="621.36" y1="709.93" x2="621.36" y2="1070.03"/>
	<g>
		<defs>
			<rect id="SVGID_00000115512702036956491060000007011422760857928377_" width="1250" height="1250"/>
		</defs>
		<clipPath id="SVGID_00000072272270817132811980000012814510187682621620_">
			<use xlink:href="#SVGID_00000115512702036956491060000007011422760857928377_"  style="overflow:visible;"/>
		</clipPath>
		<path style="clip-path:url(#SVGID_00000072272270817132811980000012814510187682621620_);" d="M952.34,91.73
			c6.76,0,11.52-2.84,11.52-8.71v-0.29c0-12.03-18.94-6.27-18.94-14.2v-0.29c0-2.92,2.24-4.82,6.51-4.82c4.3,0,7.16,2.17,7.53,5.76
			h4.43c-0.37-6.54-5.16-9.45-11.82-9.45c-7.58,0-11.09,3.83-11.09,8.61v0.29c0,11.71,18.94,5.98,18.94,14.15v0.29
			c0,3.3-2.73,4.98-6.88,4.98c-5.11,0-7.86-2.43-8.16-6.52h-4.43C940.31,87.51,944.29,91.73,952.34,91.73z M927.89,91.02h4.72V47.33
			h-4.72V91.02z M897.35,73.02c0.76-6.48,4.34-9.52,9.18-9.52c5.47,0,9.07,3.97,8.98,9.52H897.35z M906.69,91.73
			c6.46,0,12.25-3.55,13.36-10.07h-4.71c-0.71,4.19-3.8,6.34-8.39,6.34c-6.23,0-9.57-3.72-9.74-11.25h22.96
			c0.45-11.08-5.27-17.04-13.51-17.04c-8.75,0-14.07,6.61-14.07,16v0.43C892.58,85.87,898.29,91.73,906.69,91.73L906.69,91.73z
			 M860.32,91.02h4.72V73.96c0-6.68,3.74-9.94,8.45-9.94c4.11,0,6.86,2.08,6.86,7.46v19.55h4.72V71.01c0-7.9-4.92-11.3-10.47-11.3
			c-4.23,0-7.99,1.99-9.56,6.22v-5.48h-4.72V91.02z M826.41,91.02h4.72V73.96c0-6.68,3.74-9.94,8.44-9.94
			c4.11,0,6.86,2.08,6.86,7.46v19.55h4.72V71.01c0-7.9-4.92-11.3-10.47-11.3c-4.23,0-7.99,1.99-9.56,6.22v-5.48h-4.72V91.02z
			 M794.44,75.94v-0.27c0-8.3,3.95-12.08,9.65-12.08s9.65,3.77,9.65,12.08v0.27c0,8.14-3.95,11.92-9.65,11.92
			S794.44,84.08,794.44,75.94 M804.09,91.73c8.14,0,14.47-5.26,14.47-15.8v-0.27c0-10.7-6.33-15.96-14.47-15.96
			s-14.47,5.26-14.47,15.96v0.27C789.62,86.48,795.95,91.73,804.09,91.73 M776.53,53.01c0,1.95,1.43,3.16,3.16,3.16
			c1.73,0,3.16-1.22,3.16-3.16c0-1.95-1.43-3.16-3.16-3.16C777.96,49.84,776.53,51.06,776.53,53.01 M777.33,91.02h4.72V60.45h-4.72
			V91.02z M765.14,91.03h5.18v-4.2l-4.72,0.32c-2.13,0-2.65-1.14-2.65-3.96V64.33h8.02v-3.88h-9.78c2.51-1.32,3.85-4.18,3.85-8.04
			h-4.72c0,3.77-0.7,6.72-3.38,8.04h-4.85v3.88h6.14v18.21C758.23,89.55,760.76,91.03,765.14,91.03 M732.98,91.02h4.53V74.89
			c0-4.95,2.26-9.82,6.6-9.82l4,0.6v-5.23h-3.59c-3.05,0-6.04,1.73-6.98,5.6v-5.6h-4.56L732.98,91.02z M701.04,75.94v-0.27
			c0-8.3,3.95-12.08,9.65-12.08c5.7,0,9.65,3.77,9.65,12.08v0.27c0,8.14-3.95,11.92-9.65,11.92
			C704.99,87.85,701.04,84.08,701.04,75.94 M710.69,91.73c8.14,0,14.47-5.26,14.47-15.8v-0.27c0-10.7-6.32-15.96-14.47-15.96
			c-8.14,0-14.47,5.26-14.47,15.96v0.27C696.22,86.48,702.55,91.73,710.69,91.73 M666.63,75.97v-0.49c0-8.68,4.82-11.88,9.41-11.88
			c5.19,0,9.24,3.79,9.24,11.96v0.28c0,8.15-3.95,12.01-9.24,12.01C671.45,87.85,666.63,84.75,666.63,75.97L666.63,75.97z
			 M662.13,104.11h4.72V86.04c1.55,3.61,5.58,5.66,10,5.66c7.53,0,13.14-5.89,13.14-15.86v-0.28c0-9.99-6.08-15.81-13.34-15.81
			c-4.77,0-8.47,2.51-9.81,6.21v-5.51h-4.72V104.11z M630.2,75.94v-0.27c0-8.3,3.95-12.08,9.65-12.08c5.7,0,9.65,3.77,9.65,12.08
			v0.27c0,8.14-3.95,11.92-9.65,11.92C634.15,87.85,630.2,84.08,630.2,75.94 M639.85,91.73c8.14,0,14.47-5.26,14.47-15.8v-0.27
			c0-10.7-6.32-15.96-14.47-15.96c-8.14,0-14.47,5.26-14.47,15.96v0.27C625.38,86.48,631.7,91.73,639.85,91.73 M606.12,91.02h4.53
			V74.89c0-4.95,2.26-9.82,6.6-9.82l4,0.6v-5.23h-3.59c-3.04,0-6.04,1.73-6.98,5.6v-5.6h-4.56L606.12,91.02z M574.91,75.97v-0.49
			c0-8.68,4.82-11.88,9.41-11.88c5.19,0,9.25,3.79,9.25,11.96v0.28c0,8.15-3.95,12.01-9.24,12.01
			C579.73,87.85,574.91,84.75,574.91,75.97L574.91,75.97z M570.41,104.11h4.72V86.04c1.55,3.61,5.58,5.66,10.01,5.66
			c7.53,0,13.14-5.89,13.14-15.86v-0.28c0-9.99-6.08-15.81-13.34-15.81c-4.78,0-8.47,2.51-9.81,6.21v-5.51h-4.72V104.11z
			 M539.8,91.73c6.76,0,11.52-2.84,11.52-8.71v-0.29c0-12.03-18.94-6.27-18.94-14.2v-0.29c0-2.92,2.24-4.82,6.51-4.82
			c4.3,0,7.16,2.17,7.53,5.76h4.43c-0.37-6.54-5.16-9.45-11.82-9.45c-7.58,0-11.09,3.83-11.09,8.61v0.29
			c0,11.71,18.94,5.98,18.94,14.15v0.29c0,3.3-2.73,4.98-6.88,4.98c-5.11,0-7.86-2.43-8.16-6.52h-4.43
			C527.77,87.51,531.75,91.73,539.8,91.73L539.8,91.73z M495.59,91.02h4.72V73.96c0-6.68,3.74-9.94,8.45-9.94
			c4.11,0,6.86,2.08,6.86,7.46v19.55h4.72V71.01c0-7.9-4.92-11.3-10.47-11.3c-4.23,0-7.99,1.99-9.56,6.22v-5.48h-4.72V91.02z
			 M464.99,73.02c0.76-6.48,4.34-9.52,9.18-9.52c5.47,0,9.07,3.97,8.98,9.52H464.99z M474.32,91.73c6.46,0,12.25-3.55,13.36-10.07
			h-4.71c-0.71,4.19-3.8,6.34-8.39,6.34c-6.23,0-9.57-3.72-9.74-11.25h22.96c0.45-11.08-5.27-17.04-13.51-17.04
			c-8.75,0-14.07,6.61-14.07,16v0.43C460.22,85.87,465.92,91.73,474.32,91.73L474.32,91.73z M447.13,53.01
			c0,1.95,1.43,3.16,3.17,3.16c1.73,0,3.16-1.22,3.16-3.16c0-1.95-1.43-3.16-3.16-3.16C448.56,49.84,447.13,51.06,447.13,53.01
			 M447.93,91.02h4.72V60.45h-4.72V91.02z M426.8,91.02h4.53V74.89c0-4.95,2.26-9.82,6.6-9.82l4,0.6v-5.23h-3.59
			c-3.04,0-6.04,1.73-6.98,5.6v-5.6h-4.56L426.8,91.02z M411.97,53.01c0,1.95,1.43,3.16,3.17,3.16c1.73,0,3.16-1.22,3.16-3.16
			c0-1.95-1.43-3.16-3.16-3.16C413.4,49.84,411.97,51.06,411.97,53.01 M412.77,91.02h4.72V60.45h-4.72V91.02z M389.08,91.02h7.22
			l10.39-30.57h-5.05l-8.95,27.16l-8.95-27.16h-5.06L389.08,91.02z M359.14,56.65h4.42l7.1-8.98h-5.21L359.14,56.65z M352.33,73.02
			c0.76-6.48,4.34-9.52,9.18-9.52c5.47,0,9.07,3.97,8.98,9.52H352.33z M361.67,91.73c6.46,0,12.25-3.55,13.36-10.07h-4.71
			c-0.71,4.19-3.8,6.34-8.39,6.34c-6.23,0-9.57-3.72-9.74-11.25h22.96c0.45-11.08-5.27-17.04-13.51-17.04
			c-8.75,0-14.07,6.61-14.07,16v0.43C347.57,85.87,353.27,91.73,361.67,91.73L361.67,91.73z M318.52,91.03h24.76v-3.88h-19.19
			l18.66-23.16v-3.54h-23.9v3.88h18.23l-18.55,23.16V91.03z M307.2,91.02h4.72V47.33h-4.72V91.02z M276.66,73.02
			c0.76-6.48,4.34-9.52,9.18-9.52c5.47,0,9.07,3.97,8.98,9.52H276.66z M285.99,91.73c6.46,0,12.25-3.55,13.36-10.07h-4.71
			c-0.71,4.19-3.8,6.34-8.39,6.34c-6.23,0-9.57-3.72-9.74-11.25h22.96c0.45-11.08-5.27-17.04-13.51-17.04
			c-8.75,0-14.07,6.61-14.07,16v0.43C271.89,85.87,277.6,91.73,285.99,91.73L285.99,91.73z M243.01,91.73
			c6.76,0,11.52-2.84,11.52-8.71v-0.29c0-12.03-18.94-6.27-18.94-14.2v-0.29c0-2.92,2.24-4.82,6.51-4.82c4.3,0,7.16,2.17,7.54,5.76
			h4.43c-0.37-6.54-5.16-9.45-11.83-9.45c-7.57,0-11.08,3.83-11.08,8.61v0.29c0,11.71,18.94,5.98,18.94,14.15v0.29
			c0,3.3-2.73,4.98-6.88,4.98c-5.11,0-7.86-2.43-8.16-6.52h-4.43C230.98,87.51,234.97,91.73,243.01,91.73z M202,73.02
			c0.76-6.48,4.34-9.52,9.18-9.52c5.47,0,9.07,3.97,8.98,9.52H202z M211.33,91.73c6.46,0,12.25-3.55,13.36-10.07h-4.71
			c-0.71,4.19-3.8,6.34-8.39,6.34c-6.23,0-9.57-3.72-9.74-11.25h22.96c0.45-11.08-5.27-17.04-13.51-17.04
			c-8.75,0-14.07,6.61-14.07,16v0.43C197.23,85.87,202.94,91.73,211.33,91.73L211.33,91.73z M178,91.02h4.53V74.89
			c0-4.95,2.26-9.82,6.6-9.82l4,0.6v-5.23h-3.59c-3.04,0-6.04,1.73-6.98,5.6v-5.6h-4.56L178,91.02z M145.89,60.45v-3.62
			c0-3.63,1.57-5.61,5.02-5.61h9.1c-1.06,1.65-1.58,3.71-1.58,5.94v3.3H145.89z M141.1,91.02h4.79V64.33h12.54v26.69h4.63V64.33
			h8.55v-3.88h-8.55v-3.62c0-3.28,1.59-5.61,4.95-5.61l5.14,0.79v-4.67h-22.54c-6.67,0-9.51,4.41-9.51,9.82v3.3h-3.9v3.88h3.9
			L141.1,91.02z M125.5,53.01c0,1.95,1.43,3.16,3.17,3.16c1.74,0,3.16-1.22,3.16-3.16c0-1.95-1.43-3.16-3.16-3.16
			C126.93,49.84,125.5,51.06,125.5,53.01 M126.3,91.02h4.72V60.45h-4.72V91.02z M92.47,91.02h4.72V73.85c0-6.61,3.74-9.83,8.45-9.83
			c4.11,0,6.86,2.02,6.86,7.35v19.66h4.72V70.91c0-7.84-4.92-11.19-10.47-11.19c-4.23,0-7.99,2.02-9.56,6.18V47.33h-4.72V91.02z
			 M67.59,91.73c9.79,0,16.13-5.91,16.74-14.68h-4.84c-0.85,6.79-5.36,10.57-11.91,10.57c-8.45,0-13.68-6.29-13.68-18.24v-0.43
			c0-11.95,5.23-18.24,13.68-18.24c6.55,0,11.06,3.79,11.91,10.57h4.84c-0.61-8.78-6.96-14.69-16.74-14.69
			c-11.65,0-18.54,8.25-18.54,22.35v0.43C49.04,83.48,55.94,91.73,67.59,91.73z"/>
	</g>
	<line class="st3" x1="260.58" y1="231.57" x2="260.58" y2="591.42"/>
	<line class="st3" x1="774.87" y1="231.57" x2="774.87" y2="591.42"/>
</g>
</svg>
