<?xml version="1.0" encoding="utf-8"?>
<!-- Generator: Adobe Illustrator 26.0.2, SVG Export Plug-In . SVG Version: 6.00 Build 0)  -->
<svg version="1.1" id="Calque_1" xmlns="http://www.w3.org/2000/svg" xmlns:xlink="http://www.w3.org/1999/xlink" x="0px" y="0px"
	 viewBox="0 0 1250 1250" style="enable-background:new 0 0 1250 1250;" xml:space="preserve">
<style type="text/css">
	.st0{fill:#EDEDED;}
	.st1{clip-path:url(#SVGID_00000106137928564836540660000014568469304647675286_);fill:none;stroke:#000000;stroke-width:1.148;}
	.st2{clip-path:url(#SVGID_00000106137928564836540660000014568469304647675286_);}
</style>
<g>
	<rect class="st0" width="1250" height="1250"/>
	<path d="M1047.22,682.94h69.14l70.44-84.14l-70.44-84.14h-69.14l70.44,84.14L1047.22,682.94z M933.73,682.94h69.14l70.44-84.14
		l-70.44-84.14h-69.14l70.44,84.14L933.73,682.94z M400.28,819.26h65.22V435.75l113.49,383.51h91.31l113.49-383.51v383.51h65.22
		V375.75H738.78L624.65,754.04L510.51,375.75H400.28V819.26z M63.22,598.16l70.44,84.14h69.14l-70.44-84.14l70.44-84.14h-69.14
		L63.22,598.16z M247.15,682.29h69.14l-70.44-84.14l70.44-84.14h-69.14l-70.44,84.14L247.15,682.29z"/>
	<g>
		<defs>
			<rect id="SVGID_1_" width="1250" height="1250"/>
		</defs>
		<clipPath id="SVGID_00000183249941325651706770000015152142499965605027_">
			<use xlink:href="#SVGID_1_"  style="overflow:visible;"/>
		</clipPath>
		
			<line style="clip-path:url(#SVGID_00000183249941325651706770000015152142499965605027_);fill:none;stroke:#000000;stroke-width:1.148;" x1="0" y1="818.81" x2="1250" y2="818.81"/>
		<path style="clip-path:url(#SVGID_00000183249941325651706770000015152142499965605027_);" d="M97.87,91.02h4.82V80.81
			l-0.04-28.01l21.16,38.23h7.08V47.33h-4.82v8.62l0.04,29.61l-21.16-38.23h-7.08V91.02z M53.9,69.46v-0.6
			c0-12.51,6.69-18.16,14.89-18.16s14.89,5.65,14.89,18.19v0.55c0,12.53-6.69,18.18-14.89,18.18S53.9,81.97,53.9,69.46 M68.78,91.73
			c11.75,0,19.74-8.26,19.74-22.29V68.9c0-14.04-7.99-22.3-19.74-22.3c-11.75,0-19.74,8.26-19.74,22.27v0.6
			C49.04,83.47,57.04,91.73,68.78,91.73"/>
	</g>
</g>
</svg>
