<?xml version="1.0" encoding="utf-8"?>
<!-- Generator: Adobe Illustrator 26.0.2, SVG Export Plug-In . SVG Version: 6.00 Build 0)  -->
<svg version="1.1" id="Calque_1" xmlns="http://www.w3.org/2000/svg" xmlns:xlink="http://www.w3.org/1999/xlink" x="0px" y="0px"
	 viewBox="0 0 1250 1250" style="enable-background:new 0 0 1250 1250;" xml:space="preserve">
<style type="text/css">
	.st0{fill:#EDEDED;}
	.st1{clip-path:url(#SVGID_00000065761170483209299190000006577137858545043103_);}
	.st2{clip-path:url(#SVGID_00000079482021618120413250000013369767686858661305_);}
	.st3{clip-path:url(#SVGID_00000005241699947863984050000009038080305980069049_);fill:none;stroke:#000000;stroke-width:1.148;}
	.st4{clip-path:url(#SVGID_00000095315253279352097380000012073658032897110960_);fill:none;stroke:#000000;stroke-width:1.148;}
	.st5{fill:none;stroke:#000000;stroke-width:1.148;}
	.st6{clip-path:url(#SVGID_00000036244649669670115240000001060345619889490826_);}
</style>
<g>
	<rect class="st0" width="1250" height="1250"/>
	<g>
		<g>
			<defs>
				<rect id="SVGID_1_" width="1250" height="1250"/>
			</defs>
			<clipPath id="SVGID_00000099632951412337926200000005983869195231269559_">
				<use xlink:href="#SVGID_1_"  style="overflow:visible;"/>
			</clipPath>
			<path style="clip-path:url(#SVGID_00000099632951412337926200000005983869195231269559_);" d="M995.76,1068.83h51.77
				l118.32-317.72v-41.2H931.32v53.88l72.89-9.51h107.75L995.76,1068.83z M717.87,954.75c0.21-59.81,37.07-79.24,72.36-79.24
				c34.86,0,69.2,19.54,69.2,76.06v1.06c0,58.63-34.33,78.18-72.36,78.18C748.1,1030.8,718.06,1010.33,717.87,954.75L717.87,954.75z
				 M788.65,1075.17c65.5,0,123.6-47.01,123.6-122.55v-1.06c0-73.42-48.6-120.43-115.68-120.43c-33.28,0-58.63,11.62-76.06,34.86
				v-0.53c0-47.89,38.92-111.19,99.3-111.19l61.27,7.4V709.9H821.4c-83.99,0-157.41,80.55-157.41,215.24v1.06
				C663.99,1031.86,724.21,1075.17,788.65,1075.17L788.65,1075.17z M484.46,1075.17c81.34,0,131-54.41,131-131.53v-1.06
				c0-75.54-52.82-125.19-116.21-125.19c-27.47,0-59.69,9.51-77.65,33.8l6.87-36.98l6.87-59.95h152.13v-50.71l-45.43,6.34H392.55
				l-22.71,190.95h57.05c12.68-26.94,36.45-36.45,62.33-36.45c46.48,0,73.42,30.11,73.42,78.17v1.06
				c0,58.63-30.11,87.16-78.18,87.16c-35.39,0-65.5-15.32-68.14-54.93H363.5C374.06,1044.53,423.71,1075.17,484.46,1075.17
				L484.46,1075.17z M88.73,939.15l116.74-185.93v185.93H88.73z M205.46,1068.83h52.82v-85.31h60.22v-44.37h-60.22V709.91h-76.06
				L34.32,945.49v38.03h171.14L205.46,1068.83L205.46,1068.83z"/>
		</g>
		<g>
			<defs>
				<rect id="SVGID_00000178168219278443140640000015067264259619567781_" width="1250" height="1250"/>
			</defs>
			<clipPath id="SVGID_00000013879431946331517340000008065359363782862732_">
				<use xlink:href="#SVGID_00000178168219278443140640000015067264259619567781_"  style="overflow:visible;"/>
			</clipPath>
			<path style="clip-path:url(#SVGID_00000013879431946331517340000008065359363782862732_);" d="M975.19,597.48
				c74.43,0,120.4-43.81,120.4-106.7v-1.06c0-54.93-40.18-80.77-85.43-87.66c43.3-6.55,80.15-30.35,80.15-80.3v-2.64
				c0-55.78-42.71-93.49-113.7-93.49c-65.36,0-120.32,31.78-126.1,107.75h52.82c1.56-44.3,34.33-63.38,71.21-63.38
				c39.77,0,62.96,22.41,62.96,52.29v2.11c0,36.11-32.22,55.46-80.29,55.46v44.37c51.24,0,85.57,16.37,85.57,62.85v1.06
				c0,48.07-32.41,64.97-70.45,64.97c-34.13,0-67-13.6-68.99-64.97h-52.82C855.27,556.84,904.38,597.49,975.19,597.48L975.19,597.48
				z M574.46,545.72v45.43h235.58v-44.37H632.56c71.84-44.9,172.73-116.21,172.73-210.23v-1.06c0-67.61-48.07-109.87-117.26-109.87
				c-55.46,0-122.02,26.41-124.13,114.09h52.82c2.64-42.26,22.71-69.72,69.2-69.72c45.43,0,66.55,26.94,66.55,65.5v1.06
				C752.47,414.19,665.31,481.8,574.46,545.72L574.46,545.72z M343.21,591.14h190.16v-44.37H464.7V232.22h-55.46l-67.08,36.45v67.08
				l69.72-45.95v256.98h-68.67L343.21,591.14L343.21,591.14z M103.52,413.67v-4.23c0-100.89,29.05-139.45,71.31-139.45
				c41.2,0,68.67,38.56,68.67,139.45v4.23c0,100.89-27.47,139.45-68.67,139.45C132.57,553.11,103.52,514.55,103.52,413.67
				 M174.82,597.48c81.34,0,121.49-74.48,121.49-183.82v-4.23c0-109.34-40.15-183.82-121.49-183.82
				c-82.93,0-124.13,74.48-124.13,183.82v4.23C50.69,523,91.89,597.48,174.82,597.48"/>
		</g>
		<g>
			<defs>
				<rect id="SVGID_00000116236127790688060540000006391833437601984157_" width="1250" height="1250"/>
			</defs>
			<clipPath id="SVGID_00000039835242424005493620000001364700241316960670_">
				<use xlink:href="#SVGID_00000116236127790688060540000006391833437601984157_"  style="overflow:visible;"/>
			</clipPath>
			
				<line style="clip-path:url(#SVGID_00000039835242424005493620000001364700241316960670_);fill:none;stroke:#000000;stroke-width:1.148;" x1="0" y1="590.85" x2="1250" y2="590.85"/>
		</g>
		<g>
			<defs>
				<rect id="SVGID_00000057138153717911491780000008312320009534425996_" width="1250" height="1250"/>
			</defs>
			<clipPath id="SVGID_00000085248632707558148820000004934979522041635233_">
				<use xlink:href="#SVGID_00000057138153717911491780000008312320009534425996_"  style="overflow:visible;"/>
			</clipPath>
			
				<line style="clip-path:url(#SVGID_00000085248632707558148820000004934979522041635233_);fill:none;stroke:#000000;stroke-width:1.148;" x1="0" y1="1069.46" x2="1223.96" y2="1069.46"/>
		</g>
	</g>
	<line class="st5" x1="331.93" y1="709.93" x2="331.93" y2="1070.03"/>
	<line class="st5" x1="926.94" y1="709.93" x2="926.94" y2="1070.03"/>
	<line class="st5" x1="633.6" y1="709.93" x2="633.6" y2="1070.03"/>
	<g>
		<g>
			<defs>
				<rect id="SVGID_00000005987366618424949400000006526321483880145079_" width="1250" height="1250"/>
			</defs>
			<clipPath id="SVGID_00000069375879055221518370000015964933744607492784_">
				<use xlink:href="#SVGID_00000005987366618424949400000006526321483880145079_"  style="overflow:visible;"/>
			</clipPath>
			<path style="clip-path:url(#SVGID_00000069375879055221518370000015964933744607492784_);" d="M549.56,73.02
				c0.76-6.48,4.34-9.52,9.18-9.52c5.47,0,9.07,3.97,8.98,9.52H549.56z M558.89,91.73c6.46,0,12.25-3.55,13.36-10.06h-4.71
				c-0.71,4.19-3.8,6.34-8.39,6.34c-6.23,0-9.57-3.72-9.74-11.25h22.96c0.45-11.08-5.27-17.04-13.51-17.04
				c-8.75,0-14.07,6.61-14.07,16v0.43C544.79,85.87,550.5,91.72,558.89,91.73L558.89,91.73z M532.29,91.02h4.72V47.33h-4.72V91.02z
				 M504.16,104.11h4.83l17.17-43.66h-5.13l-8.38,23.31l-9.06-23.31h-5.32l11.87,28.63L504.16,104.11z M487.84,91.03h5.18v-4.2
				l-4.72,0.32c-2.13,0-2.65-1.14-2.65-3.96V64.33h8.02v-3.88h-9.78c2.51-1.32,3.85-4.18,3.85-8.04h-4.72c0,3.77-0.7,6.72-3.38,8.04
				h-4.86v3.88h6.14v18.21C480.94,89.55,483.47,91.03,487.84,91.03 M455.32,91.73c9.96,0,14.59-5.12,14.59-12.22v-0.32
				c0-17.96-24.6-7.25-24.6-20.71v-0.24c0-4.48,2.43-7.52,8.97-7.52c8.07,0,9.63,4.59,9.98,10.14h4.85
				c-0.23-8.39-4.34-14.25-14.62-14.25c-9.76,0-14.02,5.42-14.02,12.19v0.28c0,17.26,24.6,7.31,24.6,20.61v0.32
				c0,4.89-2.93,7.46-9.79,7.46c-6.07,0-10.28-2.13-10.81-9.98h-4.85C440.3,86.33,445.04,91.73,455.32,91.73L455.32,91.73z
				 M399.03,73.02c0.76-6.48,4.34-9.52,9.18-9.52c5.47,0,9.07,3.97,8.98,9.52H399.03z M408.36,91.73c6.46,0,12.25-3.55,13.36-10.06
				h-4.71c-0.71,4.19-3.8,6.34-8.39,6.34c-6.23,0-9.57-3.72-9.74-11.25h22.96c0.45-11.08-5.27-17.04-13.51-17.04
				c-8.75,0-14.07,6.61-14.07,16v0.43C394.26,85.87,399.97,91.72,408.36,91.73L408.36,91.73z M375.04,91.02h4.53V74.89
				c0-4.95,2.26-9.82,6.6-9.82l4,0.6v-5.23h-3.59c-3.05,0-6.04,1.73-6.98,5.6v-5.6h-4.56V91.02z M351.49,91.73
				c4.53,0,8.01-2.2,9.51-6.08v5.37h4.72V60.45H361V77.6c0,6.42-3.41,9.83-8.38,9.83c-3.61,0-6.86-1.55-6.86-7.35V60.45h-4.53v20.09
				C341.22,88.52,346.06,91.73,351.49,91.73z M309.17,75.06v-0.28c0-7.64,4.24-11.16,9.1-11.16c4.77,0,9.23,3.43,9.23,11.03v0.6
				c0,7.55-4.46,11.03-9.2,11.03C313.44,86.27,309.17,82.53,309.17,75.06z M318.5,104.85c10.86,0,13.59-7.35,13.59-13.31V60.45
				h-4.72v4.75c-1.67-3.6-5.5-5.46-9.81-5.46c-7.52,0-13.12,5.27-13.12,15.04v0.28c0,9.82,5.81,15.09,12.97,15.09
				c4.14,0,8.03-1.9,9.95-5.81v7.63c0,6.94-4.22,9-8.55,9c-5,0-8.75-2.53-8.9-7.94h-4.72C305.31,99.19,309.01,104.85,318.5,104.85
				L318.5,104.85z M291.35,53.01c0,1.95,1.43,3.16,3.17,3.16c1.73,0,3.16-1.22,3.16-3.16c0-1.95-1.43-3.16-3.16-3.16
				C292.78,49.84,291.35,51.06,291.35,53.01 M292.15,91.02h4.72V60.45h-4.72V91.02z M258.84,91.02h4.85V70h18.95v-4.11h-18.95V51.44
				h21.48v-4.11h-26.33L258.84,91.02L258.84,91.02z M233.95,91.03h5.18v-4.2l-4.71,0.32c-2.13,0-2.65-1.14-2.65-3.96V64.33h8.02
				v-3.88H230c2.51-1.32,3.85-4.18,3.85-8.04h-4.72c0,3.77-0.7,6.72-3.38,8.04h-4.86v3.88h6.14v18.21
				C227.04,89.55,229.57,91.03,233.95,91.03 M210.32,91.02h4.72V47.33h-4.72V91.02z M186.77,91.73c4.53,0,8.01-2.2,9.51-6.08v5.37
				H201V60.45h-4.72V77.6c0,6.42-3.41,9.83-8.38,9.83c-3.61,0-6.86-1.55-6.86-7.35V60.45h-4.53v20.09
				C176.51,88.52,181.34,91.73,186.77,91.73L186.77,91.73z M147.46,82.88v-0.17c0-3.26,2.72-5.27,7.19-5.71l8.51-0.83v3.27
				c0,5.66-4.45,8.53-9.16,8.53C150,87.98,147.46,85.88,147.46,82.88L147.46,82.88z M153.43,91.73c3.8,0,8.15-1.54,9.79-5.54v4.83
				h4.46V70.5c0-7.75-5.42-10.79-11.54-10.79c-6.3,0-11.35,3.23-12.03,10.04h4.74c0.25-4.08,2.85-6.29,7.23-6.29
				c4.85,0,6.91,2.7,6.91,6.61v2.64l-9,0.91c-6.99,0.71-11.06,3.62-11.06,9.09v0.17C142.94,88.2,147.67,91.73,153.43,91.73
				L153.43,91.73z M125.73,91.02h4.63V64.33h8.55v-3.88h-8.55v-3.62c0-3.28,1.54-5.61,4.95-5.61l5.09,0.79v-4.67h-5.21
				c-6.4,0-9.46,4.4-9.46,9.82v3.3h-4.97v3.88h4.97L125.73,91.02z M94.13,73.02c0.76-6.48,4.34-9.52,9.18-9.52
				c5.47,0,9.07,3.97,8.98,9.52H94.13z M103.46,91.73c6.46,0,12.25-3.55,13.36-10.06h-4.71c-0.71,4.19-3.8,6.34-8.39,6.34
				c-6.23,0-9.57-3.72-9.74-11.25h22.96c0.45-11.08-5.27-17.04-13.51-17.04c-8.75,0-14.07,6.61-14.07,16v0.43
				C89.36,85.87,95.07,91.72,103.46,91.73L103.46,91.73z M55.53,86.91V51.45h9.21c6.12,0,12.72,3.96,12.72,17.39v0.68
				c0,13.43-6.6,17.39-12.72,17.39L55.53,86.91z M50.68,91.02h14.09c10.22,0,17.55-7.32,17.55-21.5v-0.68
				c0-14.18-7.33-21.5-17.55-21.5H50.68V91.02z"/>
		</g>
	</g>
	<line class="st5" x1="315.39" y1="231.57" x2="315.39" y2="591.42"/>
	<line class="st5" x1="546.5" y1="231.57" x2="546.5" y2="591.42"/>
	<line class="st5" x1="826.69" y1="231.57" x2="826.69" y2="591.42"/>
</g>
</svg>
