<?xml version="1.0" encoding="utf-8"?>
<!-- Generator: Adobe Illustrator 25.4.1, SVG Export Plug-In . SVG Version: 6.00 Build 0)  -->
<svg version="1.1" id="Calque_1" xmlns="http://www.w3.org/2000/svg" xmlns:xlink="http://www.w3.org/1999/xlink" x="0px" y="0px"
	 viewBox="0 0 423 203" style="enable-background:new 0 0 423 203;" xml:space="preserve">
<style type="text/css">
	.st0{fill:#FFFFFF;}
	.st1{enable-background:new    ;}
</style>
<g>
	<g id="Rectangle_22_">
		<g>
			<path class="st0" d="M321.5,203h-220C45.5,203,0,157.5,0,101.5S45.5,0,101.5,0h220C377.5,0,423,45.5,423,101.5
				S377.5,203,321.5,203z M101.5,4.2c-53.7,0-97.3,43.6-97.3,97.3s43.6,97.3,97.3,97.3h220c53.7,0,97.3-43.6,97.3-97.3
				S375.1,4.2,321.5,4.2H101.5L101.5,4.2z"/>
		</g>
	</g>
	<g>
		<g>
			<g class="st1">
				<path class="st0" d="M271.5,79.1h-18.8v50.4h-6.5V79.1h-18.8v-5.5h44.1V79.1z"/>
			</g>
		</g>
		<polygon class="st0" points="179.7,161.2 179.7,41.8 201,58.3 203.6,55 177.6,34.8 151.5,55 154.1,58.3 175.4,41.8 175.4,161.2 
			154.1,144.7 151.5,148.1 177.6,168.2 203.6,148.1 201,144.7 		"/>
	</g>
</g>
</svg>
