<?xml version="1.0" encoding="utf-8"?>
<!-- Generator: Adobe Illustrator 26.0.3, SVG Export Plug-In . SVG Version: 6.00 Build 0)  -->
<svg version="1.1" id="Calque_1" xmlns="http://www.w3.org/2000/svg" xmlns:xlink="http://www.w3.org/1999/xlink" x="0px" y="0px"
	 viewBox="0 0 423 203" style="enable-background:new 0 0 423 203;" xml:space="preserve">
<style type="text/css">
	.st0{fill:#FFFFFF;}
</style>
<g>
	<g id="Rectangle_00000170239040287054470030000017571838606419560079_">
		<g>
			<path class="st0" d="M321.5,203h-220C45.5,203,0,157.5,0,101.5S45.5,0,101.5,0h220C377.5,0,423,45.5,423,101.5
				S377.5,203,321.5,203z M101.5,4.2c-53.7,0-97.3,43.6-97.3,97.3s43.6,97.3,97.3,97.3h220c53.6,0,97.3-43.6,97.3-97.3
				S375.1,4.2,321.5,4.2H101.5L101.5,4.2z"/>
		</g>
	</g>
	<g>
		<path class="st0" d="M128.5,70h6.8v55.8h-6.8V70z"/>
		<path class="st0" d="M167.4,125.9c-5.9,0-11-3.4-11-12.7v-22h-10.2v-5.1h8.5c1.7,0,2.5-0.8,2.5-4.2v-6.8h5.9v6.8
			c0,1.7,0,2.5-0.8,3.4h11.8v5.1h-11.8v19.5c0,8.5,1.7,10.2,6.8,10.2h5.1v5.9h-6.8V125.9z"/>
		<path class="st0" d="M209.7,119.9c-1.7,3.4-7.6,6.8-13.5,6.8c-8.5,0-13.5-5.1-13.5-11.8c0-5.9,4.2-10.2,11-10.2
			c5.1-0.8,9.3-1.7,11.8-1.7c4.2-0.8,4.2-2.5,4.2-5.1c0-3.4-2.5-7.6-9.3-7.6c-7.6,0-10.2,4.2-10.2,9.3h-5.9
			c0-9.3,7.6-14.4,16.9-14.4c8.5,0,16.1,5.1,16.1,14.4V114c0,5.1,0,10.2,0.8,11.8h-5.9C210.6,125.9,209.7,124.2,209.7,119.9z
			 M197,108.1c-5.9,0.8-7.6,2.5-7.6,5.9c0,2.5,1.7,6.8,8.5,6.8c4.2,0,12.7-3.4,12.7-12.7v-3.4C208,107.3,200.4,108.1,197,108.1z"/>
		<path class="st0" d="M228.3,70h5.9v55.8h-5.9V70z"/>
		<path class="st0" d="M250.3,77.6c-2.5,0-4.2-2.5-4.2-4.2c0-2.5,1.7-4.2,4.2-4.2s4.2,1.7,4.2,4.2C254.6,75.1,252.9,77.6,250.3,77.6
			z M247,85.3h5.9v40.6H247V85.3z"/>
		<path class="st0" d="M284.2,84.4c9.3,0,16.1,5.1,17.8,14.4h-6c-0.8-4.2-4.2-8.5-11.8-8.5c-8.5,0-13.5,6.8-13.5,15.2
			s5.1,15.2,13.5,15.2c7.6,0,11-4.2,11.8-8.5h5.9c-2.5,9.3-8.5,14.4-17.8,14.4c-12.7,0-19.5-9.3-19.5-21.2S271.5,84.4,284.2,84.4z"
			/>
	</g>
</g>
</svg>
