<?xml version="1.0" encoding="utf-8"?>
<!-- Generator: Adobe Illustrator 26.2.1, SVG Export Plug-In . SVG Version: 6.00 Build 0)  -->
<svg version="1.1" id="Calque_1" xmlns="http://www.w3.org/2000/svg" xmlns:xlink="http://www.w3.org/1999/xlink" x="0px" y="0px"
	 viewBox="0 0 500 500" style="enable-background:new 0 0 500 500;" xml:space="preserve">
<g>
	<g>
	</g>
	<g id="XMLID_2095_">
		<g id="XMLID_2097_">
			<rect id="XMLID_2100_" x="137.3" y="186.2" width="52.3" height="169.1"/>
			<path id="XMLID_2098_" d="M163.2,164c17.1,0,30.9-14,30.9-31.2s-13.9-31.2-30.9-31.2c-17.1,0-30.9,14-30.9,31.2
				S146.1,164,163.2,164z"/>
		</g>
		<path id="XMLID_2096_" d="M273.3,266.5c0-23.8,10.9-37.9,31.9-37.9c19.2,0,28.5,13.6,28.5,37.9c0,24.4,0,88.7,0,88.7h52.1
			c0,0,0-61.8,0-107c0-45.3-25.7-67.2-61.5-67.2c-35.9,0-50.9,27.9-50.9,27.9v-22.8h-50.2v169.1h50.2
			C273.3,355.2,273.3,292.5,273.3,266.5z"/>
	</g>
</g>
<g>
	<g>
		<path d="M250,0C111.9,0,0,111.9,0,250s111.9,250,250,250s250-111.9,250-250S388.1,0,250,0z M250,477.8
			c-125.8,0-227.8-102-227.8-227.8S124.2,22.2,250,22.2s227.8,102,227.8,227.8S375.8,477.8,250,477.8z"/>
	</g>
</g>
</svg>
