<?xml version="1.0" encoding="utf-8"?>
<!-- Generator: Adobe Illustrator 25.0.1, SVG Export Plug-In . SVG Version: 6.00 Build 0)  -->
<svg version="1.1" id="Calque_1" xmlns="http://www.w3.org/2000/svg" xmlns:xlink="http://www.w3.org/1999/xlink" x="0px" y="0px"
	 viewBox="0 0 211.5 203.04" style="enable-background:new 0 0 211.5 203.04;" xml:space="preserve">
<style type="text/css">
	.st0{fill:#FFFFFF;}
	.st1{enable-background:new    ;}
</style>
<g id="Rectangle-2_17_" transform="translate(25)">
	<path class="st0" d="M186.5,203.04H76.52C20.45,203.04-25,157.59-25,101.52l0,0C-25,45.45,20.45,0,76.52,0H186.5l0,0V203.04
		L186.5,203.04z"/>
</g>
<g class="st1">
	<path d="M58.01,108.38l-7.54,18.52h-8.56l28.02-68.32h9.12l28.02,68.32H98.5l-7.54-18.52C90.96,108.38,58.01,108.38,58.01,108.38z
		 M74.49,66.77l-14.24,35.1h28.57L74.49,66.77z"/>
	<path d="M135.44,108.38l-7.54,18.52h-8.56l28.02-68.32h9.12l28.02,68.32h-8.56l-7.54-18.52L135.44,108.38L135.44,108.38z
		 M151.92,66.77l-14.24,35.1h28.57L151.92,66.77z"/>
</g>
</svg>
