<?xml version="1.0" encoding="utf-8"?>
<!-- Generator: Adobe Illustrator 25.0.0, SVG Export Plug-In . SVG Version: 6.00 Build 0)  -->
<svg version="1.1" id="Calque_1" xmlns="http://www.w3.org/2000/svg" xmlns:xlink="http://www.w3.org/1999/xlink" x="0px" y="0px"
	 viewBox="0 0 16 16" style="enable-background:new 0 0 16 16;" xml:space="preserve">
<style type="text/css">
	.st0{fill:#FFFFFF;}
</style>
<path class="st0" d="M8,16l-4.5-4.7c-1.2-1.2-1.9-3-1.9-4.8c0-1.7,0.6-3.3,1.9-4.6C4.7,0.7,6.3,0,8,0s3.3,0.7,4.5,1.9
	c1.2,1.3,1.9,2.9,1.9,4.6c0,1.8-0.7,3.6-1.9,4.8L8,16z"/>
<g>
	<path id="Fill_4" d="M8.2,6.6h3.8c0-2.2-1.7-4.1-4-4.1c-0.1,0-0.1,0-0.2,0v3.7H4.1c0,2.3,1.8,4.1,4,4.2c0,0,0,0,0,0L8.2,6.6
		L8.2,6.6z"/>
</g>
</svg>
