<?xml version="1.0" encoding="utf-8"?>
<!-- Generator: Adobe Illustrator 25.0.0, SVG Export Plug-In . SVG Version: 6.00 Build 0)  -->
<svg version="1.1" id="Calque_1" xmlns="http://www.w3.org/2000/svg" xmlns:xlink="http://www.w3.org/1999/xlink" x="0px" y="0px"
	 viewBox="0 0 211.5 203.04" style="enable-background:new 0 0 211.5 203.04;" xml:space="preserve">
<style type="text/css">
	.st0{enable-background:new    ;}
	.st1{fill:#FFFFFF;}
</style>
<g id="Rectangle-2_10_" transform="translate(25)">
	<path d="M-25,0H84.98C141.05,0,186.5,45.45,186.5,101.52l0,0c0,56.07-45.45,101.52-101.52,101.52H-25l0,0V0L-25,0z"/>
</g>
<g class="st0">
	<path class="st1" d="M45.51,108.13l-7.54,18.52h-8.56l28.02-68.32h9.12l28.02,68.32H86l-7.54-18.52H45.51z M61.99,66.52
		l-14.24,35.1h28.57L61.99,66.52z"/>
	<path class="st1" d="M140.07,119.76c-1.77,3.64-9.12,8.01-16.94,8.01c-10.33,0-16.38-6.14-16.38-14.71
		c0-7.26,5.68-11.91,13.03-12.84c6.51-0.84,11.17-1.59,14.71-2.15c5.3-0.83,5.49-3.35,5.49-5.86c0-3.64-2.98-9.68-11.82-9.68
		c-8.94,0-12.75,5.59-12.75,11.17h-7.72c0.47-10.89,9.68-17.68,20.48-17.68c10.15,0,19.36,5.86,19.36,17.96v17.78
		c0,6.23,0.47,12.29,0.74,14.89h-7.72C140.53,126.65,140.07,124.42,140.07,119.76z M124.24,105.53c-7.63,0.74-9.77,3.16-9.77,7.53
		c0,3.26,1.95,8.2,10.24,8.2c5.59,0,15.54-4.38,15.54-14.99v-3.82C137.27,104.13,128.15,105.16,124.24,105.53z"/>
</g>
</svg>
