<?xml version="1.0" encoding="utf-8"?>
<!-- Generator: Adobe Illustrator 25.0.1, SVG Export Plug-In . SVG Version: 6.00 Build 0)  -->
<svg version="1.1" id="Calque_1" xmlns="http://www.w3.org/2000/svg" xmlns:xlink="http://www.w3.org/1999/xlink" x="0px" y="0px"
	 viewBox="0 0 211.51 203.04" style="enable-background:new 0 0 211.51 203.04;" xml:space="preserve">
<style type="text/css">
	.st0{enable-background:new    ;}
	.st1{fill:#FFFFFF;}
</style>
<g class="st0">
	<path class="st1" d="M45.51,108.13l-7.54,18.52H29.4l28.02-68.32h9.12l28.02,68.32h-8.57l-7.54-18.52
		C78.45,108.13,45.51,108.13,45.51,108.13z M61.98,66.52l-14.24,35.1h28.57L61.98,66.52z"/>
	<path class="st1" d="M140.07,119.76c-1.77,3.64-9.12,8.01-16.94,8.01c-10.33,0-16.38-6.14-16.38-14.71
		c0-7.26,5.68-11.91,13.03-12.84c6.51-0.84,11.17-1.59,14.71-2.15c5.3-0.83,5.49-3.35,5.49-5.86c0-3.64-2.98-9.68-11.82-9.68
		c-8.94,0-12.75,5.59-12.75,11.17h-7.72c0.47-10.89,9.68-17.68,20.48-17.68c10.15,0,19.36,5.86,19.36,17.96v17.78
		c0,6.23,0.47,12.29,0.74,14.89h-7.72C140.52,126.65,140.07,124.42,140.07,119.76z M124.23,105.53c-7.63,0.74-9.77,3.16-9.77,7.53
		c0,3.26,1.95,8.2,10.24,8.2c5.59,0,15.54-4.38,15.54-14.99v-3.82C137.26,104.13,128.14,105.16,124.23,105.53z"/>
</g>
<path class="st1" d="M109.98,0H0v4.23h109.98c53.65,0,97.29,43.64,97.29,97.29s-43.64,97.29-97.29,97.29H0v4.23h109.98
	c55.98,0,101.53-45.54,101.53-101.52S165.97,0,109.98,0z"/>
</svg>
