<?xml version="1.0" encoding="utf-8"?>
<!-- Generator: Adobe Illustrator 25.0.1, SVG Export Plug-In . SVG Version: 6.00 Build 0)  -->
<svg version="1.1" id="Calque_1" xmlns="http://www.w3.org/2000/svg" xmlns:xlink="http://www.w3.org/1999/xlink" x="0px" y="0px"
	 viewBox="0 0 1656.05 277.92" style="enable-background:new 0 0 1656.05 277.92;" xml:space="preserve">
<style type="text/css">
	.st0{fill:#FFFFFF;}
</style>
<path class="st0" d="M1656.05,273.44v-38.75h-24.58c-16.39,0-23.85-12.66-23.85-37.99v-82.34h48.43V75.61h-49.18
	c2.6-2.97,4.47-9.3,4.47-15.65V25.68h-45.83v27.94c0,18.63-8.94,21.98-17.88,21.98h-29.42v38.75h43.58v95.75
	c0,47.69,33.53,63.33,62.6,63.33L1656.05,273.44L1656.05,273.44z M1418.06,70.78c-41.72,0-55.14,26.45-55.14,26.45V75.62h-45.82
	v197.83h45.82V164.29c0-35.02,13.04-54.76,45.83-54.76c22.36,0,39.12,12.66,39.12,43.96v119.96h45.83V148.27
	C1493.69,93.5,1459.79,70.78,1418.06,70.78 M1181.72,239.17c-34.28,0-58.87-24.22-58.87-64.82c0-36.88,24.59-64.45,58.87-64.45
	c34.27,0,58.86,27.57,58.86,64.45C1240.58,214.95,1215.99,239.17,1181.72,239.17 M1181.72,70.78
	c-59.24,0-104.69,46.19-104.69,103.57s45.46,103.57,104.69,103.57s104.31-46.19,104.68-103.57
	C1286.78,116.97,1240.95,70.78,1181.72,70.78 M1040.67,38.74h25.34V0h-25.34c-47.31,0-75.63,30.17-75.63,64.82v10.8h-43.58v38.75
	h43.58v159.08h45.83V114.37h56.25V75.62h-56.25v-10.8C1010.87,48.8,1016.09,38.74,1040.67,38.74 M809.44,109.52
	c33.53,0,48.8,23.84,48.8,43.96H753.18C756.53,129.64,777.76,109.52,809.44,109.52 M809.44,238.42c-29.06,0-56.25-17.14-56.25-51.41
	h154.6v-19c0-59.98-48.06-97.24-98.35-97.24c-59.24,0-103.94,41.73-103.94,103.57c0,51.78,35.39,102.83,103.94,102.83
	c41.35,0,85.69-20.49,95-68.93h-45.83C855.26,229.86,831.79,238.42,809.44,238.42 M678.41,70.78c-30.55,0-45.45,17.52-53.27,27.94
	v-23.1h-45.83v197.83h45.83v-99.47c0-38.75,17.51-64.09,46.56-64.09l25.34-0.37V70.78H678.41z M442.18,239.17
	c-34.28,0-58.86-24.22-58.86-64.82c0-36.88,24.58-64.45,58.86-64.45s58.87,27.57,58.87,64.45
	C501.04,214.95,476.45,239.17,442.18,239.17 M442.18,70.78c-59.24,0-104.68,46.19-104.68,103.57s45.45,103.57,104.68,103.57
	s104.32-46.19,104.68-103.57C547.24,116.97,501.41,70.78,442.18,70.78 M130.76,273.44h45.83V168.38c0-35.02,16.76-58.86,45.82-58.86
	c22.36,0,39.13,16.76,39.13,48.06v115.86h45.82V152.37c0-54.76-33.53-81.59-81.96-81.59c-31.66,0-56.25,20.49-61.84,28.69
	c-11.17-17.88-33.53-28.69-62.59-28.69c-33.91,0-55.14,26.45-55.14,26.45V75.62H0v197.83h45.83V168.38
	c0-35.02,18.63-58.86,45.83-58.86c22.36,0,39.12,16.76,39.12,48.06v115.86H130.76z"/>
</svg>
