<?xml version="1.0" encoding="utf-8"?>
<!-- Generator: Adobe Illustrator 25.0.0, SVG Export Plug-In . SVG Version: 6.00 Build 0)  -->
<svg version="1.1" id="Calque_1" xmlns="http://www.w3.org/2000/svg" xmlns:xlink="http://www.w3.org/1999/xlink" x="0px" y="0px"
	 viewBox="0 0 1760.46 500" style="enable-background:new 0 0 1760.46 500;" xml:space="preserve">
<path d="M1708.26,363.06v-38.75h-24.58c-16.39,0-23.85-12.66-23.85-37.99v-82.34h48.43v-38.75h-49.18c2.6-2.97,4.47-9.3,4.47-15.65
	v-34.28h-45.83v27.94c0,18.63-8.94,21.98-17.88,21.98h-29.42v38.75H1614v95.75c0,47.69,33.53,63.33,62.6,63.33H1708.26z
	 M1470.27,160.4c-41.72,0-55.14,26.45-55.14,26.45v-21.61h-45.82v197.83h45.82V253.91c0-35.02,13.04-54.76,45.83-54.76
	c22.36,0,39.12,12.66,39.12,43.96v119.96h45.83V237.89C1545.9,183.12,1512,160.4,1470.27,160.4 M1233.93,328.79
	c-34.28,0-58.87-24.22-58.87-64.82c0-36.88,24.59-64.45,58.87-64.45c34.27,0,58.86,27.57,58.86,64.45
	C1292.79,304.57,1268.2,328.79,1233.93,328.79 M1233.93,160.4c-59.24,0-104.69,46.19-104.69,103.57s45.46,103.57,104.69,103.57
	c59.23,0,104.31-46.19,104.68-103.57C1338.99,206.59,1293.16,160.4,1233.93,160.4 M1092.88,128.36h25.34V89.62h-25.34
	c-47.31,0-75.63,30.17-75.63,64.82v10.8h-43.58v38.75h43.58v159.08h45.83V203.99h56.25v-38.75h-56.25v-10.8
	C1063.08,138.42,1068.3,128.36,1092.88,128.36 M861.65,199.14c33.53,0,48.8,23.84,48.8,43.96H805.39
	C808.74,219.26,829.97,199.14,861.65,199.14 M861.65,328.04c-29.06,0-56.25-17.14-56.25-51.41H960v-19
	c0-59.98-48.06-97.24-98.35-97.24c-59.24,0-103.94,41.73-103.94,103.57c0,51.78,35.39,102.83,103.94,102.83
	c41.35,0,85.69-20.49,95-68.93h-45.83C907.47,319.48,884,328.04,861.65,328.04 M730.62,160.4c-30.55,0-45.45,17.52-53.27,27.94
	v-23.1h-45.83v197.83h45.83V263.6c0-38.75,17.51-64.09,46.56-64.09l25.34-0.37V160.4H730.62z M494.39,328.79
	c-34.28,0-58.86-24.22-58.86-64.82c0-36.88,24.58-64.45,58.86-64.45c34.28,0,58.87,27.57,58.87,64.45
	C553.25,304.57,528.66,328.79,494.39,328.79 M494.39,160.4c-59.24,0-104.68,46.19-104.68,103.57s45.45,103.57,104.68,103.57
	s104.32-46.19,104.68-103.57C599.45,206.59,553.62,160.4,494.39,160.4 M182.97,363.06h45.83V258c0-35.02,16.76-58.86,45.82-58.86
	c22.36,0,39.13,16.76,39.13,48.06v115.86h45.82V241.99c0-54.76-33.53-81.59-81.96-81.59c-31.66,0-56.25,20.49-61.84,28.69
	c-11.17-17.88-33.53-28.69-62.59-28.69c-33.91,0-55.14,26.45-55.14,26.45v-21.61H52.21v197.83h45.83V258
	c0-35.02,18.63-58.86,45.83-58.86c22.36,0,39.12,16.76,39.12,48.06V363.06z"/>
</svg>
