<?xml version="1.0" encoding="utf-8"?>
<!-- Generator: Adobe Illustrator 25.0.1, SVG Export Plug-In . SVG Version: 6.00 Build 0)  -->
<svg version="1.1" id="Calque_1" xmlns="http://www.w3.org/2000/svg" xmlns:xlink="http://www.w3.org/1999/xlink" x="0px" y="0px"
	 viewBox="0 0 260.68 260.68" style="enable-background:new 0 0 260.68 260.68;" xml:space="preserve">
<style type="text/css">
	.st0{enable-background:new    ;}
	.st1{fill:#FFFFFF;}
</style>
<g>
	<g class="st0">
		<path class="st1" d="M85.83,115.56c-9.38,0-14.46,4.56-14.46,11.33c0,17.19,43.51,3,43.51,31.79c0,11.72-10.42,20.19-27.74,20.19
			c-19.02,0-25.54-11.85-28.27-24.35h10.81c1.17,7.43,5.47,15.24,18.76,15.24c10.16,0,15.64-4.17,15.64-11.07
			c0-19.28-43.51-5.6-43.51-31.79c0-11.59,10.55-20.45,26.58-20.45c15.11,0,25.4,8.98,26.96,24.75H103.3
			C102.51,122.6,98.34,115.56,85.83,115.56z"/>
	</g>
	<g class="st0">
		<path class="st1" d="M179.15,178.87h-19.02V88.34l-22.52,9.9V81.5l25.41-14.3h16.13V178.87L179.15,178.87z"/>
	</g>
	<path class="st1" d="M130.34,0C58.35,0,0,58.36,0,130.34s58.35,130.34,130.34,130.34s130.34-58.36,130.34-130.34S202.33,0,130.34,0
		z M130.34,255.25c-68.99,0-124.91-55.93-124.91-124.91S61.35,5.43,130.34,5.43s124.91,55.93,124.91,124.91
		S199.33,255.25,130.34,255.25z"/>
</g>
</svg>
