<?xml version="1.0" encoding="utf-8"?>
<!-- Generator: Adobe Illustrator 25.0.1, SVG Export Plug-In . SVG Version: 6.00 Build 0)  -->
<svg version="1.1" id="Calque_1" xmlns="http://www.w3.org/2000/svg" xmlns:xlink="http://www.w3.org/1999/xlink" x="0px" y="0px"
	 viewBox="0 0 260.68 260.68" style="enable-background:new 0 0 260.68 260.68;" xml:space="preserve">
<path d="M130.34,0C58.35,0,0,58.36,0,130.34s58.35,130.34,130.34,130.34s130.34-58.36,130.34-130.34S202.33,0,130.34,0z
	 M75.36,178.87c-19.02,0-25.54-11.85-28.27-24.35H57.9c1.17,7.43,5.47,15.24,18.76,15.24c10.16,0,15.64-4.17,15.64-11.07
	c0-19.28-43.51-5.6-43.51-31.79c0-11.59,10.55-20.45,26.58-20.45c15.11,0,25.4,8.98,26.96,24.75H91.52
	c-0.8-8.6-4.97-15.64-17.47-15.64c-9.38,0-14.46,4.56-14.46,11.33c0,17.19,43.51,3,43.51,31.79
	C103.1,170.4,92.68,178.87,75.36,178.87z M203.62,178.86h-77.6v-16.12c10.8-40.63,57.21-33.48,57.21-62.09
	c0-12.02-7.46-19.48-18.26-19.48c-15.36,0-20.69,9.28-20.39,22.52h-19.17c0-21.9,14.91-38.49,39.56-38.49
	c20.39,0,37.28,12.78,37.28,36.36c0,37.44-48.09,37.59-55.08,61.18h56.45V178.86z"/>
</svg>
