<?xml version="1.0" encoding="utf-8"?>
<!-- Generator: Adobe Illustrator 26.2.1, SVG Export Plug-In . SVG Version: 6.00 Build 0)  -->
<svg version="1.1" id="Calque_1" xmlns="http://www.w3.org/2000/svg" xmlns:xlink="http://www.w3.org/1999/xlink" x="0px" y="0px"
	 viewBox="0 0 260.7 260.7" style="enable-background:new 0 0 260.7 260.7;" xml:space="preserve">
<style type="text/css">
	.st0{enable-background:new    ;}
</style>
<g>
	<path d="M130.3,0C58.4,0,0,58.4,0,130.3s58.3,130.3,130.3,130.3s130.3-58.4,130.3-130.3S202.3,0,130.3,0z M130.3,255.2
		c-69,0-124.9-55.9-124.9-124.9S61.3,5.4,130.3,5.4s124.9,55.9,124.9,124.9S199.3,255.2,130.3,255.2z"/>
	<g class="st0">
		<path d="M74.1,115.6c-9.4,0-14.5,4.6-14.5,11.3c0,17.2,43.5,3,43.5,31.8c0,11.7-10.4,20.2-27.7,20.2c-19,0-25.5-11.9-28.3-24.4
			h10.8c1.2,7.4,5.5,15.2,18.8,15.2c10.2,0,15.6-4.2,15.6-11.1c0-19.3-43.5-5.6-43.5-31.8c0-11.6,10.6-20.4,26.6-20.4
			c15.1,0,25.4,9,27,24.8H91.5C90.7,122.6,86.6,115.6,74.1,115.6z"/>
	</g>
	<g>
		<path d="M210.6,141.1c0,21.7-17.8,39.2-40.7,39.2c-23.2,0-36.1-13.4-39.6-32.2h19c1.4,13,10.3,16.1,20.6,16.1
			c13.7,0,21.8-9.4,21.8-23.1c0-13.4-10.2-20.5-21.1-20.5c-10.2,0-15.9,4.1-22.4,9.9H132l8.7-63.6h59.9V83h-45.5l-3.5,27.8
			c3.2-2.7,10.9-6.2,20-6.2C192,104.5,210.6,117.4,210.6,141.1z"/>
	</g>
</g>
</svg>
