<svg xmlns="http://www.w3.org/2000/svg" width="29.127" height="17.74" viewBox="0 0 29.127 17.74">
  <path id="Tracé_1675" data-name="Tracé 1675" d="M14.563,0C8.1,0,3.776,4.269,0,8.321l1.752,1.97c2.959-3,5.779-5.422,8.548-6.726A5.048,5.048,0,0,0,8.158,7.552c0,3.065,2.847,5.474,6.406,5.474,3.5,0,6.406-2.354,6.406-5.474a4.858,4.858,0,0,0-2.454-4.5c2.66.8,4.844,2.5,7.108,5.214C23,12.539,19.217,15.22,14.563,15.22c-3.613,0-6.515-1.48-9.416-4.381l-1.915,1.7c3.065,3.177,6.13,5.2,11.332,5.2,6.736,0,11.553-3.834,14.563-9.471C25.623,3.558,21.244,0,14.563,0" fill="#fff"/>
</svg>
