<?xml version="1.0" encoding="utf-8"?>
<!-- Generator: Adobe Illustrator 28.7.1, SVG Export Plug-In . SVG Version: 9.03 Build 54978)  -->
<svg version="1.0" id="Calque_1" xmlns="http://www.w3.org/2000/svg" xmlns:xlink="http://www.w3.org/1999/xlink" x="0px" y="0px"
	 viewBox="0 0 19 19" style="enable-background:new 0 0 19 19;" xml:space="preserve">
<style type="text/css">
	.st0{fill:#000;}
</style>
<g>
	<path class="st0" d="M18.6,11.4V7.6h-2.5c-0.2-0.5-0.4-1.2-0.6-1.4l1.8-1.8l-2.6-2.6l-1.9,1.8c-0.4-0.2-0.9-0.4-1.4-0.5V0.5H9.5
		H7.7V3C7.2,3.2,6.7,3.3,6.3,3.5L4.4,1.7L1.8,4.4l1.8,1.8C3.4,6.5,3.2,7.1,3,7.6H0.5v3.7h2.5c0.2,0.5,0.3,1,0.6,1.4l-1.8,1.8
		l2.6,2.6l1.8-1.8c0.4,0.3,0.9,0.4,1.5,0.6v2.5h1.8h1.8v-2.5c0.5-0.2,1-0.3,1.5-0.6l1.8,1.8l2.6-2.6l-1.8-1.8
		c0.3-0.4,0.4-0.9,0.6-1.4L18.6,11.4L18.6,11.4z M9.5,13.7c-2.3,0-4.2-1.9-4.2-4.2c0-2.3,1.9-4.2,4.2-4.2c2.3,0,4.2,1.9,4.2,4.2
		C13.8,11.8,11.9,13.7,9.5,13.7z"/>
	<ellipse class="st0" cx="9.5" cy="9.5" rx="3.7" ry="3.7"/>
</g>
</svg>
