<?xml version="1.0" encoding="utf-8"?>
<!-- Generator: Adobe Illustrator 25.0.1, SVG Export Plug-In . SVG Version: 6.00 Build 0)  -->
<svg version="1.1" id="Calque_1" xmlns="http://www.w3.org/2000/svg" xmlns:xlink="http://www.w3.org/1999/xlink" x="0px" y="0px"
	 viewBox="0 0 423.01 203.04" style="enable-background:new 0 0 423.01 203.04;" xml:space="preserve">
<style type="text/css">
	.st0{enable-background:new    ;}
</style>
<g id="Rectangle_22_">
	<g>
		<path d="M321.48,203.04H101.52C45.54,203.04,0,157.5,0,101.52S45.54,0,101.52,0h219.97c55.98,0,101.52,45.54,101.52,101.52
			S377.46,203.04,321.48,203.04z M101.52,4.23c-53.65,0-97.29,43.64-97.29,97.29s43.64,97.29,97.29,97.29h219.97
			c53.65,0,97.29-43.64,97.29-97.29S375.14,4.23,321.49,4.23H101.52L101.52,4.23z"/>
	</g>
</g>
<g class="st0">
	<path d="M160.54,110.53c0,8.3-6.1,16.23-19.5,16.23c-11.28,0-18.13-5.72-20.49-19.12h6.47c1.83,9.9,5.49,13.71,14.02,13.71
		c8.07,0,13.02-3.96,13.02-10.81c0-15.31-32.44-5.33-32.44-25.06c0-9.9,6.93-16.52,18.89-16.52c9.14,0,17.75,4.19,19.35,16.45h-6.48
		c-0.53-6.1-4.26-10.97-12.87-10.97c-8.38,0-12.41,4.73-12.41,11.05C128.1,99.87,160.54,89.28,160.54,110.53z"/>
	<path d="M171.56,69.94h6.33v55.91h-6.33V69.94z"/>
	<path d="M216.57,120.21c-1.45,2.97-7.46,6.55-13.86,6.55c-8.45,0-13.4-5.03-13.4-12.04c0-5.94,4.64-9.75,10.67-10.51
		c5.33-0.69,9.14-1.3,12.03-1.75c4.35-0.69,4.49-2.74,4.49-4.8c0-2.97-2.44-7.92-9.67-7.92c-7.31,0-10.43,4.57-10.43,9.15h-6.32
		c0.38-8.91,7.92-14.47,16.75-14.47c8.3,0,15.85,4.8,15.85,14.7v14.55c0,5.11,0.38,10.05,0.61,12.19h-6.33
		C216.95,125.84,216.57,124.02,216.57,120.21z M203.63,108.55c-6.25,0.61-8,2.59-8,6.17c0,2.67,1.6,6.7,8.38,6.7
		c4.57,0,12.72-3.58,12.72-12.26v-3.12C214.29,107.41,206.82,108.24,203.63,108.55z"/>
	<path d="M267.74,100.25v25.59h-6.32v-24.52c0-6.4-1.9-11.58-9.52-11.58c-7.47,0-11.66,7.47-11.66,14.62v21.48h-6.32V85.4h6.32v5.25
		c0,0,3.66-6.25,12.8-6.25C260.05,84.41,267.74,89.05,267.74,100.25z"/>
	<path d="M296.13,125.84c-5.94,0-11.27-3.2-11.27-12.95V90.73h-10.43V85.4h8.3c1.83,0,2.89-0.69,2.89-4.49V75.2h6.32v7.01
		c0,1.29-0.38,2.59-0.91,3.2h11.57v5.33h-11.43v19.42c0,8.23,1.53,10.36,6.4,10.36h5.02v5.33H296.13z"/>
</g>
</svg>
