<?xml version="1.0" encoding="utf-8"?>
<!-- Generator: Adobe Illustrator 26.0.2, SVG Export Plug-In . SVG Version: 6.00 Build 0)  -->
<svg version="1.1" id="Calque_1" xmlns="http://www.w3.org/2000/svg" xmlns:xlink="http://www.w3.org/1999/xlink" x="0px" y="0px"
	 viewBox="0 0 729.8 292" style="enable-background:new 0 0 729.8 292;" xml:space="preserve">
<style type="text/css">
	.st0{fill:#FFFFFF;}
</style>
<path d="M583.8,0H146C65.4,0,0,65.4,0,146s65.4,146,146,146h437.8c80.6,0,146-65.4,146-146S664.4,0,583.8,0z"/>
<g>
	<g>
		<path class="st0" d="M538.5,188.3h-55.2v-96H471v106.5h67.5V188.3z M420,159.6h-44.6l22.2-54.8L420,159.6z M423.3,169.8l11.8,28.9
			h13.4L404.8,92.1h-14.2l-43.7,106.6h13.4l11.8-28.9L423.3,169.8L423.3,169.8z M310.5,198.7h12.3V92.1h-12.3V198.7z M215.8,102.6
			h31.9c13.4,0,23.5,6.5,23.5,22.2c0,17.7-11.8,22.2-22.1,22.1l-33.4-0.3v-44H215.8z M268.7,198.7h15.5l-38.1-41.4h6.5
			c13.5,0,30.9-11.6,30.9-32.5c0-21.5-16.8-32.7-35.9-32.7h-44.3v106.6h12.3v-41.5h15L268.7,198.7z M183.4,92.1H99.3v10.5h35.9v96.2
			h12.3v-96.2h35.9V92.1L183.4,92.1z"/>
	</g>
</g>
<polygon class="st0" points="603.6,173.6 573.7,143.8 581.7,135.9 602.9,157.1 642.2,110.9 650.7,118.2 "/>
</svg>
