<?xml version="1.0" encoding="utf-8"?>
<!-- Generator: Adobe Illustrator 26.2.1, SVG Export Plug-In . SVG Version: 6.00 Build 0)  -->
<svg version="1.1" id="Calque_1" xmlns="http://www.w3.org/2000/svg" xmlns:xlink="http://www.w3.org/1999/xlink" x="0px" y="0px"
	 viewBox="0 0 729.8 292" style="enable-background:new 0 0 729.8 292;" xml:space="preserve">
<style type="text/css">
	.st0{fill:#FFFFFF;}
</style>
<path class="st0" d="M583.8,284.3H146C69.6,284.3,7.7,222.4,7.7,146S69.6,7.7,146,7.7h437.8c76.4,0,138.3,61.9,138.3,138.3
	S660.2,284.3,583.8,284.3z"/>
<g>
	<g>
		<path d="M588.5,188.3h-55.2v-96H521v106.5h67.5V188.3z M470,159.6h-44.6l22.2-54.8L470,159.6z M473.3,169.8l11.8,28.9h13.4
			L454.8,92.1h-14.2l-43.7,106.6h13.4l11.8-28.9H473.3z M360.5,198.7h12.3V92.1h-12.3V198.7z M265.8,102.6h31.9
			c13.4,0,23.5,6.5,23.5,22.2c0,17.7-11.8,22.2-22.1,22.1l-33.4-0.3v-44C265.7,102.6,265.8,102.6,265.8,102.6z M318.7,198.7h15.5
			l-38.1-41.4h6.5c13.5,0,30.9-11.6,30.9-32.5c0-21.5-16.8-32.7-35.9-32.7h-44.3v106.6h12.3v-41.5h15L318.7,198.7z M233.4,92.1
			h-84.1v10.5h35.9v96.2h12.3v-96.2h35.9V92.1L233.4,92.1z"/>
	</g>
</g>
<path d="M583.8,0H146C65.4,0,0,65.4,0,146s65.4,146,146,146h437.8c80.6,0,146-65.4,146-146S664.4,0,583.8,0z M583.8,284.3H146
	C69.6,284.3,7.7,222.4,7.7,146S69.6,7.7,146,7.7h437.8c76.4,0,138.3,61.9,138.3,138.3S660.2,284.3,583.8,284.3z"/>
</svg>
