<?xml version="1.0" encoding="utf-8"?>
<!-- Generator: Adobe Illustrator 26.2.1, SVG Export Plug-In . SVG Version: 6.00 Build 0)  -->
<svg version="1.1" id="Calque_1" xmlns="http://www.w3.org/2000/svg" xmlns:xlink="http://www.w3.org/1999/xlink" x="0px" y="0px"
	 viewBox="0 0 211.5 211.5" style="enable-background:new 0 0 211.5 211.5;" xml:space="preserve">
<style type="text/css">
	.st0{fill:#FFFFFF;}
	.st1{fill:none;stroke:#FFFFFF;stroke-width:10;stroke-miterlimit:10;}
</style>
<g>
	<g>
		<g>
			<g>
				<path class="st0" d="M105.7,2c57.2,0,103.8,46.6,103.8,103.8s-46.6,103.7-103.8,103.7S2,163,2,105.8S48.5,2,105.7,2 M105.7,0
					C47.4,0,0,47.4,0,105.8c0,58.3,47.4,105.7,105.7,105.7c58.4,0,105.8-47.4,105.8-105.7C211.5,47.4,164,0,105.7,0L105.7,0z"/>
			</g>
		</g>
	</g>
</g>
<g>
	<g>
		<g>
			<g>
				<path class="st0" d="M105.7,5.8c55.2,0,100,44.9,100,100s-44.9,100-100,100s-100-44.8-100-100C5.8,50.6,50.6,5.8,105.7,5.8
					 M105.7,0C47.4,0,0,47.4,0,105.8c0,58.3,47.4,105.7,105.7,105.7c58.4,0,105.8-47.4,105.8-105.7C211.5,47.4,164,0,105.7,0
					L105.7,0z"/>
			</g>
		</g>
	</g>
</g>
<polyline class="st1" points="54.9,105.3 92.6,145.3 156.5,60.1 "/>
</svg>
