<?xml version="1.0" encoding="utf-8"?>
<!-- Generator: Adobe Illustrator 26.0.1, SVG Export Plug-In . SVG Version: 6.00 Build 0)  -->
<svg version="1.1" id="Calque_1" xmlns="http://www.w3.org/2000/svg" xmlns:xlink="http://www.w3.org/1999/xlink" x="0px" y="0px"
	 viewBox="0 0 500 336.2" style="enable-background:new 0 0 500 336.2;" xml:space="preserve">
<style type="text/css">
	.st0{fill:#FFFFFF;}
</style>
<g>
	<path class="st0" d="M135.4,37.7H30.7v260.7h184.4V117L135.4,37.7z M135.4,117V48.3l69.1,68.7H135.4z"/>
	<g>
		<path class="st0" d="M300.6,98.7c0,33.7,27.3,61,61,61c33.7,0,61-27.3,61-61s-27.3-61-61-61C327.9,37.7,300.6,65,300.6,98.7"/>
		<path class="st0" d="M300.6,98.7c0,33.7,27.3,61,61,61c33.7,0,61-27.3,61-61s-27.3-61-61-61C327.9,37.7,300.6,65,300.6,98.7"/>
		<path class="st0" d="M469.3,298.5c0-59.5-48.2-107.7-107.7-107.7c-59.5,0-107.7,48.2-107.7,107.7H469.3z"/>
		<path class="st0" d="M469.3,298.5c0-59.5-48.2-107.7-107.7-107.7c-59.5,0-107.7,48.2-107.7,107.7H469.3z"/>
	</g>
</g>
</svg>
