<?xml version="1.0" encoding="utf-8"?>
<!-- Generator: Adobe Illustrator 28.7.1, SVG Export Plug-In . SVG Version: 9.03 Build 54978)  -->
<svg version="1.0" id="Calque_1" xmlns="http://www.w3.org/2000/svg" xmlns:xlink="http://www.w3.org/1999/xlink" x="0px" y="0px"
	 viewBox="0 0 23 23" style="enable-background:new 0 0 23 23;" xml:space="preserve">
<style type="text/css">
	.st0{enable-background:new    ;}
	.st1{fill:#000;}
</style>
<g class="st0">
	<path class="st1" d="M4.4,0.4h1.7l4,10.3H8.5l-1-2.5H2.7l-1,2.5H0.3L4.4,0.4z M7,6.9L5.1,2L3.2,6.9H7z"/>
	<path class="st1" d="M14,8.1c0-1.2,0.8-2.1,1.7-2.8l0.1-0.1c-0.8-0.9-1.3-1.6-1.3-2.7V2.5c0-1.1,0.9-2.3,2.8-2.3
		c1.9,0,2.7,1.2,2.7,2.3v0.1c0,1.1-0.8,1.8-2.1,2.8l0,0l1.8,2l0.1-0.1l1.3-2.7h1.6l-1.4,2.9c-0.2,0.4-0.4,0.7-0.6,1l1.8,2.1h-1.9
		l-0.8-0.9c-0.8,0.8-1.7,1.1-2.7,1.1c-1.8,0-3.1-1.2-3.1-2.6V8.1z M17.1,9.6c0.8,0,1.3-0.3,1.8-0.9l-2.1-2.4l-0.1,0.1
		c-0.9,0.7-1.2,1.1-1.2,1.7v0.1C15.5,8.8,16.1,9.6,17.1,9.6z M17,4.4L17,4.4c1-0.8,1.5-1.1,1.5-1.7V2.5c0-0.5-0.4-1.1-1.3-1.1
		C16.4,1.4,16,2,16,2.5v0.1C16,3.2,16.3,3.6,17,4.4z"/>
</g>
<g class="st0">
	<path class="st1" d="M1,14.7c0-1.8,0.9-2.5,2.1-2.5c1.2,0,2.1,0.7,2.1,2.5V15c0,1.8-0.9,2.6-2.1,2.6C1.9,17.6,1,16.9,1,15V14.7z
		 M3.1,16.4c0.5,0,0.8-0.5,0.8-1.4v-0.4c0-0.9-0.2-1.3-0.8-1.3c-0.5,0-0.8,0.5-0.8,1.3V15C2.3,16,2.5,16.4,3.1,16.4z M8.2,12.4h1.3
		L4.3,22.6H3L8.2,12.4z M7.3,19.9c0-1.8,0.9-2.5,2.1-2.5c1.2,0,2.1,0.7,2.1,2.5v0.4c0,1.8-0.9,2.6-2.1,2.6c-1.2,0-2.1-0.7-2.1-2.6
		V19.9z M9.4,21.7c0.5,0,0.8-0.5,0.8-1.4v-0.4c0-0.9-0.2-1.3-0.8-1.3c-0.5,0-0.8,0.5-0.8,1.3v0.4C8.6,21.2,8.9,21.7,9.4,21.7z"/>
	<path class="st1" d="M15.5,20.8v-0.1c0-1.4,1.4-2.1,2.9-2.4c1.6-0.3,2.1-0.5,2.1-1v-0.1c0-0.4-0.4-1-1.7-1c-1.3,0-1.8,0.6-1.8,1.4
		v0.2h-1.5v-0.2c0-1.7,1.3-2.6,3.2-2.6c1.9,0,3.1,0.9,3.1,2.5v3.1c0,1.1,0.1,1.6,0.2,2h-1.5c0-0.2-0.1-0.3-0.1-0.6
		c-0.5,0.5-1.3,0.8-2.3,0.8C16.6,22.9,15.5,22.1,15.5,20.8z M18.4,21.6c1,0,2-0.5,2-1.6v-1.1c-0.4,0.2-1.1,0.4-1.9,0.6
		c-1.1,0.3-1.6,0.5-1.6,1.1v0.1C16.9,21.3,17.6,21.6,18.4,21.6z"/>
</g>
</svg>
