<?xml version="1.0" encoding="utf-8"?>
<!-- Generator: Adobe Illustrator 26.0.2, SVG Export Plug-In . SVG Version: 6.00 Build 0)  -->
<svg version="1.1" id="Calque_1" xmlns="http://www.w3.org/2000/svg" xmlns:xlink="http://www.w3.org/1999/xlink" x="0px" y="0px"
	 viewBox="0 0 1250 1250" style="enable-background:new 0 0 1250 1250;" xml:space="preserve">
<style type="text/css">
	.st0{fill:#EDEDED;}
	.st1{clip-path:url(#SVGID_00000062910245561569032050000005298936262481672362_);fill:#010202;}
	.st2{clip-path:url(#SVGID_00000062910245561569032050000005298936262481672362_);fill:none;stroke:#010202;stroke-width:1.148;}
</style>
<g>
	<rect class="st0" width="1250" height="1250"/>
	<g>
		<defs>
			<rect id="SVGID_1_" width="1250" height="1250"/>
		</defs>
		<clipPath id="SVGID_00000137841329549944728840000007128131673540637628_">
			<use xlink:href="#SVGID_1_"  style="overflow:visible;"/>
		</clipPath>
		<path style="clip-path:url(#SVGID_00000137841329549944728840000007128131673540637628_);fill:#010202;" d="M775.7,1079.3h50.87
			v-54.79l-46.31,2.61c-21.2,0-21.52-14.34-21.52-31.96V821.34h74.35v-52.18h-97.83c26.09-13.04,43.05-42.4,43.05-81.53h-63.92
			c0,37.18-6.52,68.48-32.61,81.53h-47.61v52.18h60.66v171.86C694.82,1063.65,728.09,1079.3,775.7,1079.3L775.7,1079.3z
			 M454.09,1079.3h62.61V821.34h86.09v-52.18H516.7v-28.05c0-28.7,13.55-52.83,48.26-52.83l52.18,9.13v-61.31H561.7
			c-71.74,0-107.62,47.61-107.62,108.27v24.78h-47.61v52.18h47.61L454.09,1079.3z"/>
		<path style="clip-path:url(#SVGID_00000137841329549944728840000007128131673540637628_);fill:#010202;" d="M698.63,574.05h63.92
			V130.86h-63.92V574.05z M490.71,574.05h62.61V316.1h86.09v-52.18h-86.09v-28.05c0-28.7,13.55-52.83,48.26-52.83l52.18,9.13v-61.31
			h-55.44c-71.75,0-107.62,47.61-107.62,108.27v24.79h-47.61v52.18h47.61L490.71,574.05z"/>
		
			<line style="clip-path:url(#SVGID_00000137841329549944728840000007128131673540637628_);fill:none;stroke:#010202;stroke-width:1.148;" x1="0" y1="573.49" x2="1250" y2="573.49"/>
		
			<line style="clip-path:url(#SVGID_00000137841329549944728840000007128131673540637628_);fill:none;stroke:#010202;stroke-width:1.148;" x1="0" y1="1079.71" x2="1250" y2="1079.71"/>
		<path style="clip-path:url(#SVGID_00000137841329549944728840000007128131673540637628_);fill:#010202;" d="M131.44,91.02h4.85V70
			h18.95v-4.11h-18.95V51.45h21.48v-4.11h-26.33V91.02z M97.87,91.02h4.85V70h18.95v-4.11h-18.95V51.45h21.48v-4.11H97.87V91.02z
			 M53.9,69.46v-0.6c0-12.51,6.69-18.16,14.89-18.16s14.89,5.65,14.89,18.19v0.55c0,12.53-6.69,18.18-14.89,18.18
			S53.9,81.97,53.9,69.46 M68.78,91.73c11.75,0,19.74-8.26,19.74-22.29V68.9c0-14.04-7.99-22.3-19.74-22.3
			c-11.75,0-19.74,8.26-19.74,22.27v0.6C49.04,83.47,57.04,91.73,68.78,91.73"/>
	</g>
</g>
</svg>
