<?xml version="1.0" encoding="utf-8"?>
<!-- Generator: Adobe Illustrator 26.0.2, SVG Export Plug-In . SVG Version: 6.00 Build 0)  -->
<svg version="1.1" id="Calque_1" xmlns="http://www.w3.org/2000/svg" xmlns:xlink="http://www.w3.org/1999/xlink" x="0px" y="0px"
	 viewBox="0 0 1250 1250" style="enable-background:new 0 0 1250 1250;" xml:space="preserve">
<style type="text/css">
	.st0{fill:#EDEDED;}
	.st1{clip-path:url(#SVGID_00000155141799344610942860000005945269483705383861_);fill:#010202;}
	.st2{clip-path:url(#SVGID_00000155141799344610942860000005945269483705383861_);fill:none;stroke:#010202;stroke-width:1.148;}
</style>
<g>
	<rect class="st0" width="1250" height="1250"/>
	<g>
		<defs>
			<rect id="SVGID_1_" width="1250" height="1250"/>
		</defs>
		<clipPath id="SVGID_00000047053638286379084610000015663433813941736593_">
			<use xlink:href="#SVGID_1_"  style="overflow:visible;"/>
		</clipPath>
		<path style="clip-path:url(#SVGID_00000047053638286379084610000015663433813941736593_);fill:#010202;" d="M453.17,446.91v-57.28
			c0-58.61,22.64-107.89,79.92-107.89h188.01c-17,33.23-25.5,72.34-25.5,114.55v50.62H453.17z M319.98,1080.28h133.2V553.47h242.43
			v526.81h127.87V553.47H999.3V446.91H823.48v-57.28c0-58.61,29.02-107.89,98.56-107.89l106.56,18.65V175.19H539.75
			c-153.18,0-219.78,97.23-219.78,221.11v50.62h-70.6v106.56h70.6L319.98,1080.28z"/>
		
			<line style="clip-path:url(#SVGID_00000047053638286379084610000015663433813941736593_);fill:none;stroke:#010202;stroke-width:1.148;" x1="0" y1="1079.71" x2="1250" y2="1079.71"/>
		<path style="clip-path:url(#SVGID_00000047053638286379084610000015663433813941736593_);fill:#010202;" d="M97.87,91.02h4.82
			V80.81l-0.04-28.01l21.16,38.23h7.08V47.33h-4.82v8.62l0.04,29.61l-21.16-38.23h-7.08V91.02z M53.9,69.46v-0.6
			c0-12.51,6.69-18.16,14.89-18.16s14.89,5.65,14.89,18.19v0.55c0,12.53-6.69,18.18-14.89,18.18S53.9,81.97,53.9,69.46 M68.78,91.73
			c11.75,0,19.74-8.26,19.74-22.29V68.9c0-14.04-7.99-22.3-19.74-22.3c-11.75,0-19.74,8.26-19.74,22.27v0.6
			C49.04,83.47,57.04,91.73,68.78,91.73"/>
	</g>
</g>
</svg>
