<?xml version="1.0" encoding="utf-8"?>
<!-- Generator: Adobe Illustrator 26.0.2, SVG Export Plug-In . SVG Version: 6.00 Build 0)  -->
<svg version="1.1" id="Calque_1" xmlns="http://www.w3.org/2000/svg" xmlns:xlink="http://www.w3.org/1999/xlink" x="0px" y="0px"
	 viewBox="0 0 1250 1250" style="enable-background:new 0 0 1250 1250;" xml:space="preserve">
<style type="text/css">
	.st0{fill:#EDEDED;}
	.st1{clip-path:url(#SVGID_00000108996754127971171370000009071755886498315674_);fill:#010202;}
	.st2{fill:#010202;}
	.st3{clip-path:url(#SVGID_00000121994561339557160070000018334351755935317912_);fill:none;stroke:#010202;stroke-width:1.148;}
	.st4{clip-path:url(#SVGID_00000121994561339557160070000018334351755935317912_);fill:#010202;}
</style>
<g>
	<rect class="st0" width="1250" height="1250"/>
	<g>
		<defs>
			<rect id="SVGID_1_" width="1250" height="1250"/>
		</defs>
		<clipPath id="SVGID_00000073689358326845272380000010361256806911022782_">
			<use xlink:href="#SVGID_1_"  style="overflow:visible;"/>
		</clipPath>
		<path style="clip-path:url(#SVGID_00000073689358326845272380000010361256806911022782_);fill:#010202;" d="M830.26,826.23
			c-30,0-91.96,16.96-92.62,78.92h54.79c1.3-15.65,9.13-30.66,37.83-30.66c30,0,38.48,13.69,38.48,30.65v2.61
			c0,49.57-63.27,85.44-131.1,126.53v45h186.54v-48.26H807.43c49.57-24.79,116.1-61.96,116.1-123.27v-2.61
			C923.53,856.88,886.35,826.23,830.26,826.23L830.26,826.23z M414.53,823.63V690.57h120.66c39.79,0,56.74,31.96,56.74,61.31v2.61
			c0,44.35-21.52,69.13-63.27,69.13L414.53,823.63z M414.53,1024.52v-146.1h114.14c52.83,0,77.62,24.13,77.62,71.09v2.61
			c0,44.35-22.83,72.39-71.09,72.39L414.53,1024.52z M349.31,1079.3h185.88c100.44,0,136.32-58.05,136.32-121.97v-2.61
			c0-56.09-31.96-93.92-69.14-103.7c33.92-10.43,54.79-46.95,54.79-96.53v-2.61c0-69.79-43.7-116.09-112.84-116.09H349.31V1079.3z"
			/>
	</g>
	<path class="st2" d="M744.43,375.77h155.88v-48.26h-50.22V130.86h-48.26l-58.7,25.44v61.31l52.18-31.96v141.86h-50.87V375.77z
		 M459.72,384.25l67.38-206l67.38,206H459.72z M328.83,574.05h68.81l44.16-135.01h170.61l44.16,135.01h68.81L575.37,130.54h-96.53
		L328.83,574.05z"/>
	<g>
		<defs>
			<rect id="SVGID_00000005240201161873821400000014924280566847616132_" width="1250" height="1250"/>
		</defs>
		<clipPath id="SVGID_00000068637167194055541830000004109035699729836981_">
			<use xlink:href="#SVGID_00000005240201161873821400000014924280566847616132_"  style="overflow:visible;"/>
		</clipPath>
		
			<line style="clip-path:url(#SVGID_00000068637167194055541830000004109035699729836981_);fill:none;stroke:#010202;stroke-width:1.148;" x1="0" y1="573.49" x2="1250" y2="573.49"/>
		
			<line style="clip-path:url(#SVGID_00000068637167194055541830000004109035699729836981_);fill:none;stroke:#010202;stroke-width:1.148;" x1="0" y1="1079.71" x2="1250" y2="1079.71"/>
		<path style="clip-path:url(#SVGID_00000068637167194055541830000004109035699729836981_);fill:#010202;" d="M97.87,91.02h4.82
			V80.81l-0.04-28.01l21.16,38.23h7.08V47.33h-4.82v8.62l0.04,29.61l-21.16-38.23h-7.08V91.02z M53.9,69.46v-0.6
			c0-12.51,6.69-18.16,14.89-18.16s14.89,5.65,14.89,18.19v0.55c0,12.53-6.69,18.18-14.89,18.18S53.9,81.97,53.9,69.46 M68.78,91.73
			c11.75,0,19.74-8.26,19.74-22.29V68.9c0-14.04-7.99-22.3-19.74-22.3c-11.75,0-19.74,8.26-19.74,22.27v0.6
			C49.04,83.47,57.04,91.73,68.78,91.73"/>
	</g>
</g>
</svg>
