<?xml version="1.0" encoding="utf-8"?>
<!-- Generator: Adobe Illustrator 26.0.2, SVG Export Plug-In . SVG Version: 6.00 Build 0)  -->
<svg version="1.1" id="Calque_1" xmlns="http://www.w3.org/2000/svg" xmlns:xlink="http://www.w3.org/1999/xlink" x="0px" y="0px"
	 viewBox="0 0 1250 1250" style="enable-background:new 0 0 1250 1250;" xml:space="preserve">
<style type="text/css">
	.st0{fill:#EDEDED;}
	.st1{clip-path:url(#SVGID_00000095311170293197633560000002292875602510044584_);}
	.st2{clip-path:url(#SVGID_00000095311170293197633560000002292875602510044584_);fill:none;stroke:#000000;stroke-width:1.148;}
</style>
<g>
	<rect class="st0" width="1250" height="1250"/>
	<rect class="st0" width="1250" height="1250"/>
	<g>
		<defs>
			<rect id="SVGID_1_" width="1250" height="1250"/>
		</defs>
		<clipPath id="SVGID_00000150098250476034745680000015354121939685014931_">
			<use xlink:href="#SVGID_1_"  style="overflow:visible;"/>
		</clipPath>
		<path style="clip-path:url(#SVGID_00000150098250476034745680000015354121939685014931_);" d="M513.82,927.44l255.84-541.16
			c20.43,55.46,31.79,132.72,31.79,235.77v10.66c0,254.41-69.26,351.65-173.16,351.65C583.14,984.36,543.97,966.91,513.82,927.44z
			 M448.49,632.71v-10.66c0-254.41,73.26-351.65,179.82-351.65c29.86,0,56.85,8.03,80.16,25.52l-243.56,515.2
			C454.25,763.17,448.48,704.13,448.49,632.71L448.49,632.71z M391.24,967.06h1.62c52.12,81.93,130.54,129.2,235.46,129.2
			c205.13,0,306.36-187.81,306.36-463.54v-10.66c0-275.73-101.23-463.54-306.36-463.54c-209.13,0-313.02,187.81-313.02,463.54v10.66
			c0,136.56,25.48,251.56,76.61,332.85L391.24,967.06z"/>
		<path style="clip-path:url(#SVGID_00000150098250476034745680000015354121939685014931_);" d="M97.87,91.02h4.82V80.81
			l-0.04-28.01l21.16,38.23h7.08V47.33h-4.82v8.62l0.04,29.61l-21.16-38.23h-7.08V91.02z M53.9,69.46v-0.6
			c0-12.51,6.69-18.16,14.89-18.16s14.89,5.65,14.89,18.19v0.55c0,12.53-6.69,18.18-14.89,18.18S53.9,81.97,53.9,69.46 M68.78,91.73
			c11.75,0,19.74-8.26,19.74-22.29V68.9c0-14.04-7.99-22.3-19.74-22.3c-11.75,0-19.74,8.26-19.74,22.27v0.6
			C49.04,83.47,57.04,91.73,68.78,91.73"/>
		
			<line style="clip-path:url(#SVGID_00000150098250476034745680000015354121939685014931_);fill:none;stroke:#000000;stroke-width:1.148;" x1="0" y1="1079.71" x2="1250" y2="1079.71"/>
	</g>
</g>
</svg>
