<?xml version="1.0" encoding="utf-8"?>
<!-- Generator: Adobe Illustrator 26.0.2, SVG Export Plug-In . SVG Version: 6.00 Build 0)  -->
<svg version="1.1" id="Calque_1" xmlns="http://www.w3.org/2000/svg" xmlns:xlink="http://www.w3.org/1999/xlink" x="0px" y="0px"
	 viewBox="0 0 1250 1250" style="enable-background:new 0 0 1250 1250;" xml:space="preserve">
<style type="text/css">
	.st0{fill:#EDEDED;}
	.st1{clip-path:url(#SVGID_00000157996842068043099810000008911328661023519364_);}
	.st2{clip-path:url(#SVGID_00000129926426818344301600000005612126876292849051_);fill:none;stroke:#000000;stroke-width:1.148;}
	.st3{clip-path:url(#SVGID_00000014634852052548138330000006914410235875226765_);}
</style>
<g>
	<rect class="st0" width="1250" height="1250"/>
	<g>
		<g>
			<defs>
				<rect id="SVGID_1_" width="1250" height="1250"/>
			</defs>
			<clipPath id="SVGID_00000134930579093471853410000007658744798956058017_">
				<use xlink:href="#SVGID_1_"  style="overflow:visible;"/>
			</clipPath>
			<path style="clip-path:url(#SVGID_00000134930579093471853410000007658744798956058017_);" d="M981.07,904.38h63.92
				c29.35-51.53,73.7-142.19,73.7-264.15c0-121.97-44.35-212.63-73.7-264.15h-63.92c32.61,66.53,71.09,142.19,71.09,264.15
				C1052.17,762.19,1013.69,837.85,981.07,904.38 M718.69,819.26h234.8v-54.79H868.7v-388.4h-68.48l-82.83,45v82.83l86.09-56.74
				v317.31h-84.79V819.26z M489.11,691.42H677.6v-54.79H489.11V691.42z M325.93,819.26h62.61V561.3h86.09v-52.18h-86.09v-28.05
				c0-28.7,13.55-52.83,48.26-52.83l52.18,9.13v-61.31h-55.44c-71.74,0-107.62,47.61-107.62,108.27v24.78h-47.61v52.18h47.61
				L325.93,819.26z M205.02,904.38h63.92c-32.61-66.53-71.09-142.19-71.09-264.15c0-121.97,38.48-197.63,71.09-264.15h-63.92
				c-29.35,51.53-73.7,142.19-73.7,264.15C131.31,762.19,175.67,852.85,205.02,904.38"/>
		</g>
		<g>
			<defs>
				<rect id="SVGID_00000004542529488129688440000018205114115445933715_" width="1250" height="1250"/>
			</defs>
			<clipPath id="SVGID_00000018916182932870046080000017047031426033517747_">
				<use xlink:href="#SVGID_00000004542529488129688440000018205114115445933715_"  style="overflow:visible;"/>
			</clipPath>
			
				<line style="clip-path:url(#SVGID_00000018916182932870046080000017047031426033517747_);fill:none;stroke:#000000;stroke-width:1.148;" x1="0" y1="818.81" x2="1250" y2="818.81"/>
		</g>
		<g>
			<defs>
				<rect id="SVGID_00000113327238398732980010000002284996792290334883_" width="1250" height="1250"/>
			</defs>
			<clipPath id="SVGID_00000139293140338300204720000007986398565673206951_">
				<use xlink:href="#SVGID_00000113327238398732980010000002284996792290334883_"  style="overflow:visible;"/>
			</clipPath>
			<path style="clip-path:url(#SVGID_00000139293140338300204720000007986398565673206951_);" d="M131.44,91.02h4.85V70h18.95v-4.11
				h-18.95V51.45h21.48v-4.11h-26.33V91.02z M97.87,91.02h4.85V70h18.95v-4.11h-18.95V51.45h21.48v-4.11H97.87V91.02z M53.9,69.46
				v-0.6c0-12.51,6.69-18.16,14.89-18.16s14.89,5.65,14.89,18.19v0.55c0,12.53-6.69,18.18-14.89,18.18S53.9,81.97,53.9,69.46
				 M68.78,91.73c11.75,0,19.74-8.26,19.74-22.29V68.9c0-14.04-7.99-22.3-19.74-22.3s-19.74,8.26-19.74,22.27v0.6
				C49.04,83.47,57.04,91.73,68.78,91.73"/>
		</g>
	</g>
</g>
</svg>
