<?xml version="1.0" encoding="utf-8"?>
<!-- Generator: Adobe Illustrator 26.0.2, SVG Export Plug-In . SVG Version: 6.00 Build 0)  -->
<svg version="1.1" id="Calque_1" xmlns="http://www.w3.org/2000/svg" xmlns:xlink="http://www.w3.org/1999/xlink" x="0px" y="0px"
	 viewBox="0 0 1250 1250" style="enable-background:new 0 0 1250 1250;" xml:space="preserve">
<style type="text/css">
	.st0{fill:#EDEDED;}
	.st1{clip-path:url(#SVGID_00000063635625179630961780000004052179028507505545_);}
	.st2{clip-path:url(#SVGID_00000063635625179630961780000004052179028507505545_);fill:none;stroke:#000000;stroke-width:1.148;}
</style>
<g>
	<rect class="st0" width="1250" height="1250"/>
	<g>
		<defs>
			<rect id="SVGID_1_" width="1250" height="1250"/>
		</defs>
		<clipPath id="SVGID_00000155843123700280597260000005349657553092277638_">
			<use xlink:href="#SVGID_1_"  style="overflow:visible;"/>
		</clipPath>
		<path style="clip-path:url(#SVGID_00000155843123700280597260000005349657553092277638_);" d="M390.19,854.01v-4.02
			c0-92.35,80.31-136.44,184.69-146.54l265.01-25.64v67.8c0,172.67-130.5,242.92-263,242.92c-114.44,0-186.71-52.18-186.71-134.5
			L390.19,854.01z M552.8,1143.15c114.44,0,244.93-42.16,291.11-152.58v128.49h184.7v-630.4c0-261-198.76-349.33-385.47-349.33
			c-196.75,0-383.46,98.38-403.54,315.2h196.75c2.01-98.38,80.31-160.61,202.77-160.61c136.52,0,194.74,78.29,194.74,174.66v67.46
			l-289.1,28.9C333.87,586.02,203.48,673.33,203.48,850v4.02c0,176.68,164.63,289.09,349.33,289.09L552.8,1143.15z"/>
		<path style="clip-path:url(#SVGID_00000155843123700280597260000005349657553092277638_);" d="M265.66,91.03h5.18v-4.2l-4.72,0.32
			c-2.13,0-2.65-1.14-2.65-3.96V64.33h8.02v-3.88h-9.77c2.52-1.32,3.86-4.18,3.86-8.04h-4.71c0,3.77-0.7,6.72-3.38,8.04h-4.86v3.88
			h6.13v18.21C258.76,89.55,261.28,91.03,265.66,91.03 M243.02,91.03h4.72V47.33h-4.72V91.03z M220.48,91.74
			c4.53,0,8.01-2.21,9.51-6.08v5.36h4.72V60.45h-4.72V77.6c0,6.43-3.41,9.84-8.38,9.84c-3.61,0-6.86-1.54-6.86-7.35V60.45h-4.54
			v20.09C210.2,88.53,215.05,91.74,220.48,91.74L220.48,91.74z M182.13,82.89v-0.17c0-3.27,2.72-5.28,7.2-5.71l8.52-0.83v3.27
			c0,5.66-4.46,8.54-9.18,8.54C184.67,87.99,182.13,85.89,182.13,82.89L182.13,82.89z M188.11,91.74c3.8,0,8.15-1.54,9.79-5.54v4.83
			h4.48V70.49c0-7.76-5.42-10.79-11.54-10.79c-6.31,0-11.36,3.23-12.04,10.04h4.74c0.25-4.08,2.85-6.29,7.24-6.29
			c4.85,0,6.92,2.7,6.92,6.61v2.64l-9.01,0.91c-7,0.71-11.07,3.62-11.07,9.1v0.17C177.61,88.21,182.34,91.74,188.11,91.74
			L188.11,91.74z M161.43,91.03h4.63v-26.7h8.55v-3.88h-8.55v-3.62c0-3.28,1.54-5.61,4.95-5.61L176.1,52v-4.67h-5.21
			c-6.4,0-9.46,4.4-9.46,9.82v3.3h-4.97v3.88h4.97V91.03z M130.81,73.02c0.76-6.49,4.34-9.53,9.17-9.53c5.47,0,9.07,3.97,8.98,9.53
			H130.81z M140.14,91.74c6.46,0,12.26-3.56,13.37-10.07h-4.72c-0.71,4.19-3.8,6.33-8.39,6.33c-6.23,0-9.57-3.72-9.74-11.24h22.96
			c0.45-11.09-5.27-17.06-13.52-17.06c-8.75,0-14.08,6.61-14.08,16.02v0.43C126.03,85.87,131.75,91.74,140.14,91.74L140.14,91.74z
			 M96.13,75.89V75.5c0-8.16,3.85-11.97,9.17-11.97c4.8,0,9.39,3.19,9.39,11.89v0.6c0,8.79-4.63,11.89-9.4,11.89
			C99.97,87.91,96.13,84.03,96.13,75.89 M104.83,91.72c4.25,0,8.2-2.01,9.72-5.53v4.84h4.72V47.33h-4.72v17.85
			c-1.5-3.46-5.39-5.46-9.7-5.46c-7.56,0-13.44,5.86-13.44,15.78v0.39C91.41,85.79,97.31,91.72,104.83,91.72z M83.69,91.74
			c1.71,0,3.11-1.15,3.11-3.12c0-1.91-1.4-3.11-3.11-3.11c-1.72,0-3.11,1.2-3.11,3.11C80.58,90.6,81.98,91.74,83.69,91.74z
			 M52.94,82.89v-0.17c0-3.27,2.72-5.28,7.2-5.71l8.52-0.83v3.27c0,5.66-4.46,8.54-9.18,8.54C55.48,87.99,52.94,85.89,52.94,82.89
			L52.94,82.89z M58.92,91.74c3.8,0,8.15-1.54,9.79-5.54v4.83h4.48V70.49c0-7.76-5.42-10.79-11.55-10.79
			c-6.31,0-11.36,3.23-12.04,10.04h4.74c0.25-4.08,2.85-6.29,7.24-6.29c4.86,0,6.92,2.7,6.92,6.61v2.64l-9.01,0.91
			c-7,0.71-11.07,3.62-11.07,9.1v0.17C48.42,88.21,53.15,91.74,58.92,91.74L58.92,91.74z"/>
		
			<line style="clip-path:url(#SVGID_00000155843123700280597260000005349657553092277638_);fill:none;stroke:#000000;stroke-width:1.148;" x1="0" y1="1118.66" x2="1250" y2="1118.66"/>
	</g>
</g>
</svg>
