<?xml version="1.0" encoding="utf-8"?>
<!-- Generator: Adobe Illustrator 26.0.2, SVG Export Plug-In . SVG Version: 6.00 Build 0)  -->
<svg version="1.1" id="Calque_1" xmlns="http://www.w3.org/2000/svg" xmlns:xlink="http://www.w3.org/1999/xlink" x="0px" y="0px"
	 viewBox="0 0 1250 1250" style="enable-background:new 0 0 1250 1250;" xml:space="preserve">
<style type="text/css">
	.st0{fill:#EDEDED;}
	.st1{clip-path:url(#SVGID_00000162340952194839016700000016135002831720567996_);}
	.st2{clip-path:url(#SVGID_00000074405137552137394840000005057793319238271137_);}
	.st3{clip-path:url(#SVGID_00000145052924105833453310000001278976832689330305_);fill:none;stroke:#000000;stroke-width:1.148;}
	.st4{fill:none;}
</style>
<rect class="st0" width="1250" height="1250"/>
<g>
	<defs>
		<rect id="SVGID_00000031901101992036862220000008272513573548753085_" width="1250" height="1250"/>
	</defs>
	<clipPath id="SVGID_00000059278409178431270490000011938605332316938426_">
		<use xlink:href="#SVGID_00000031901101992036862220000008272513573548753085_"  style="overflow:visible;"/>
	</clipPath>
	<path style="clip-path:url(#SVGID_00000059278409178431270490000011938605332316938426_);" d="M131.4,91h4.9V70h18.9v-4.1h-18.9
		V51.5h21.5v-4.1h-26.3V91z M97.9,91h4.8V70h18.9v-4.1h-18.9V51.5h21.5v-4.1H97.9V91z M53.9,69.5v-0.6c0-12.5,6.7-18.2,14.9-18.2
		s14.9,5.7,14.9,18.2v0.6c0,12.5-6.7,18.2-14.9,18.2S53.9,82,53.9,69.5 M68.8,91.7c11.8,0,19.7-8.3,19.7-22.3v-0.5
		c0-14-8-22.3-19.7-22.3S49,54.9,49,68.9v0.6C49,83.5,57,91.7,68.8,91.7"/>
</g>
<g>
	<defs>
		<rect id="SVGID_00000026134586451903042290000004775868504360713626_" width="1250" height="1250"/>
	</defs>
	<clipPath id="SVGID_00000026875787811036776400000001564583819927373455_">
		<use xlink:href="#SVGID_00000026134586451903042290000004775868504360713626_"  style="overflow:visible;"/>
	</clipPath>
	<path style="clip-path:url(#SVGID_00000026875787811036776400000001564583819927373455_);" d="M448.5,632.7v-10.7
		c0-254.4,73.3-351.6,179.8-351.6c103.9,0,173.2,97.2,173.2,351.6v10.7c0,254.4-69.3,351.7-173.2,351.7
		C521.8,984.4,448.5,887.1,448.5,632.7 M628.3,1096.3c205.1,0,306.4-187.8,306.4-463.5v-10.7c0-275.7-101.2-463.5-306.4-463.5
		c-209.1,0-313,187.8-313,463.5v10.7C315.3,908.5,419.2,1096.3,628.3,1096.3"/>
</g>
<g>
	<defs>
		<rect id="SVGID_00000031888879573501953060000009188613683158636208_" width="1250" height="1250"/>
	</defs>
	<clipPath id="SVGID_00000178193977839135762690000004634062313004709530_">
		<use xlink:href="#SVGID_00000031888879573501953060000009188613683158636208_"  style="overflow:visible;"/>
	</clipPath>
	
		<line style="clip-path:url(#SVGID_00000178193977839135762690000004634062313004709530_);fill:none;stroke:#000000;stroke-width:1.148;" x1="0" y1="1079.7" x2="1250" y2="1079.7"/>
</g>
<g>
	<rect id="SVGID_1_" class="st4" width="1250" height="1250"/>
</g>
</svg>
