<?xml version="1.0" encoding="utf-8"?>
<!-- Generator: Adobe Illustrator 26.0.2, SVG Export Plug-In . SVG Version: 6.00 Build 0)  -->
<svg version="1.1" id="Calque_1" xmlns="http://www.w3.org/2000/svg" xmlns:xlink="http://www.w3.org/1999/xlink" x="0px" y="0px"
	 viewBox="0 0 1250 1250" style="enable-background:new 0 0 1250 1250;" xml:space="preserve">
<style type="text/css">
	.st0{fill:#EDEDED;}
	.st1{clip-path:url(#SVGID_00000098933675875804126140000007982703763661633718_);}
	.st2{clip-path:url(#SVGID_00000098933675875804126140000007982703763661633718_);fill:none;stroke:#000000;stroke-width:1.148;}
	.st3{fill:none;stroke:#000000;stroke-width:1.148;}
	.st4{clip-path:url(#SVGID_00000061464189840282024450000018288367703823905178_);}
</style>
<g>
	<rect class="st0" width="1250" height="1250"/>
	<g>
		<defs>
			<rect id="SVGID_1_" width="1250" height="1250"/>
		</defs>
		<clipPath id="SVGID_00000005233663693825785940000008343501750627208871_">
			<use xlink:href="#SVGID_1_"  style="overflow:visible;"/>
		</clipPath>
		<path style="clip-path:url(#SVGID_00000005233663693825785940000008343501750627208871_);" d="M1027.03,1068.83h51.77
			l118.32-317.72v-41.2H962.58v53.88l72.89-9.51h107.76L1027.03,1068.83z M729.17,954.75c0.21-59.81,37.07-79.24,72.36-79.24
			c34.86,0,69.2,19.54,69.2,76.06v1.06c0,58.63-34.33,78.18-72.37,78.18C759.4,1030.8,729.36,1010.33,729.17,954.75L729.17,954.75z
			 M799.95,1075.17c65.5,0,123.6-47.01,123.6-122.55v-1.06c0-73.42-48.6-120.43-115.68-120.43c-33.28,0-58.63,11.62-76.06,34.86
			v-0.53c0-47.89,38.92-111.19,99.3-111.19l61.27,7.4v-51.77H832.7c-83.99,0-157.41,80.55-157.41,215.24v1.06
			C675.29,1031.86,735.51,1075.17,799.95,1075.17L799.95,1075.17z M489.1,1075.17c81.35,0,131-54.41,131-131.53v-1.06
			c0-75.54-52.82-125.19-116.21-125.19c-27.47,0-59.69,9.51-77.65,33.8l6.87-36.98l6.87-59.95h152.13v-50.71l-45.43,6.34H397.2
			l-22.71,190.95h57.05c12.68-26.94,36.45-36.45,62.33-36.45c46.48,0,73.42,30.11,73.42,78.17v1.06c0,58.63-30.11,87.16-78.18,87.16
			c-35.39,0-65.5-15.32-68.14-54.93h-52.82C378.71,1044.53,428.36,1075.17,489.1,1075.17L489.1,1075.17z M97.18,939.15
			l116.74-185.93v185.93H97.18z M213.91,1068.83h52.82v-85.31h60.22v-44.37h-60.22V709.91h-76.06L42.77,945.49v38.03h171.14V1068.83
			z"/>
		<path style="clip-path:url(#SVGID_00000005233663693825785940000008343501750627208871_);" d="M1038.99,597.48
			c74.42,0,120.4-43.81,120.4-106.7v-1.06c0-54.93-40.18-80.77-85.43-87.66c43.3-6.55,80.15-30.35,80.15-80.3v-2.64
			c0-55.78-42.71-93.49-113.7-93.49c-65.36,0-120.32,31.78-126.1,107.75h52.82c1.56-44.3,34.33-63.38,71.21-63.38
			c39.77,0,62.95,22.41,62.95,52.29v2.11c0,36.11-32.22,55.46-80.29,55.46v44.37c51.24,0,85.57,16.37,85.57,62.85v1.06
			c0,48.07-32.41,64.97-70.45,64.97c-34.13,0-67-13.6-68.99-64.97h-52.82C919.08,556.84,968.19,597.49,1038.99,597.48
			L1038.99,597.48z M628.02,545.72v45.43H863.6v-44.37H686.12c71.84-44.9,172.73-116.21,172.73-210.23v-1.06
			c0-67.61-48.07-109.87-117.26-109.87c-55.46,0-122.02,26.41-124.13,114.09h52.82c2.64-42.26,22.71-69.72,69.2-69.72
			c45.43,0,66.56,26.94,66.56,65.5v1.06C806.03,414.19,718.87,481.8,628.02,545.72L628.02,545.72z M366.98,591.14h190.16v-44.37
			h-68.67V232.22h-55.46l-67.08,36.45v67.08l69.72-45.95v256.98h-68.67V591.14z M108.01,413.67v-4.23
			c0-100.89,29.05-139.45,71.31-139.45c41.2,0,68.67,38.56,68.67,139.45v4.23c0,100.89-27.47,139.45-68.67,139.45
			C137.06,553.11,108.01,514.55,108.01,413.67 M179.31,597.48c81.34,0,121.49-74.48,121.49-183.82v-4.23
			c0-109.34-40.14-183.82-121.49-183.82c-82.93,0-124.13,74.48-124.13,183.82v4.23C55.18,523,96.38,597.48,179.31,597.48"/>
		
			<line style="clip-path:url(#SVGID_00000005233663693825785940000008343501750627208871_);fill:none;stroke:#000000;stroke-width:1.148;" x1="0" y1="590.85" x2="1250" y2="590.85"/>
		
			<line style="clip-path:url(#SVGID_00000005233663693825785940000008343501750627208871_);fill:none;stroke:#000000;stroke-width:1.148;" x1="0" y1="1069.46" x2="1250" y2="1069.46"/>
	</g>
	<line class="st3" x1="337.29" y1="709.93" x2="337.29" y2="1070.03"/>
	<line class="st3" x1="918.63" y1="709.93" x2="918.63" y2="1070.03"/>
	<line class="st3" x1="636.86" y1="709.93" x2="636.86" y2="1070.03"/>
	<g>
		<defs>
			<rect id="SVGID_00000155121020885912425110000011374659252769878407_" width="1250" height="1250"/>
		</defs>
		<clipPath id="SVGID_00000080904237944641723100000018158173987951475093_">
			<use xlink:href="#SVGID_00000155121020885912425110000011374659252769878407_"  style="overflow:visible;"/>
		</clipPath>
		<path style="clip-path:url(#SVGID_00000080904237944641723100000018158173987951475093_);" d="M390.25,75.06v-0.28
			c0-7.64,4.24-11.16,9.1-11.16c4.77,0,9.23,3.43,9.23,11.03v0.6c0,7.55-4.46,11.03-9.2,11.03
			C394.52,86.27,390.25,82.53,390.25,75.06L390.25,75.06z M399.59,104.85c10.86,0,13.59-7.35,13.59-13.31V60.45h-4.72v4.75
			c-1.67-3.6-5.5-5.46-9.81-5.46c-7.52,0-13.12,5.27-13.12,15.04v0.28c0,9.82,5.81,15.09,12.97,15.09c4.14,0,8.03-1.9,9.95-5.81
			v7.63c0,6.94-4.22,9-8.55,9c-5,0-8.75-2.53-8.9-7.94h-4.72C386.39,99.19,390.09,104.85,399.59,104.85L399.59,104.85z
			 M353.26,91.02h4.72V73.96c0-6.68,3.74-9.94,8.45-9.94c4.11,0,6.86,2.08,6.86,7.46v19.55h4.72V71.01c0-7.9-4.92-11.3-10.47-11.3
			c-4.23,0-7.99,1.99-9.56,6.21v-5.48h-4.72V91.02z M338.4,53.01c0,1.95,1.43,3.16,3.17,3.16c1.73,0,3.17-1.22,3.17-3.16
			c0-1.95-1.43-3.16-3.17-3.16C339.83,49.84,338.4,51.06,338.4,53.01 M339.2,91.02h4.72V60.45h-4.72V91.02z M305.37,91.02h4.72
			V73.96c0-6.68,3.74-9.94,8.44-9.94c4.11,0,6.86,2.08,6.86,7.46v19.55h4.72V71.01c0-7.9-4.92-11.3-10.47-11.3
			c-4.23,0-7.99,1.99-9.56,6.21v-5.48h-4.72V91.02z M290.51,53.01c0,1.95,1.43,3.16,3.17,3.16c1.73,0,3.16-1.22,3.16-3.16
			c0-1.95-1.43-3.16-3.16-3.16C291.94,49.84,290.51,51.06,290.51,53.01 M291.31,91.02h4.72V60.45h-4.72V91.02z M261.21,91.02h23.64
			v-4.11h-18.79V47.33h-4.85L261.21,91.02z M227.84,91.02h4.53V74.89c0-4.95,2.26-9.82,6.6-9.82l4,0.6v-5.23h-3.59
			c-3.05,0-6.04,1.73-6.98,5.6v-5.6h-4.56L227.84,91.02z M198.48,82.88v-0.17c0-3.26,2.72-5.27,7.19-5.71l8.51-0.83v3.27
			c0,5.66-4.45,8.53-9.16,8.53C201.02,87.98,198.48,85.88,198.48,82.88L198.48,82.88z M204.45,91.73c3.8,0,8.16-1.54,9.79-5.54v4.83
			h4.46V70.5c0-7.75-5.42-10.79-11.54-10.79c-6.3,0-11.35,3.23-12.03,10.04h4.74c0.25-4.08,2.85-6.29,7.23-6.29
			c4.85,0,6.91,2.7,6.91,6.61v2.64l-9,0.91c-6.99,0.71-11.06,3.62-11.06,9.09v0.17C193.96,88.2,198.69,91.73,204.45,91.73
			L204.45,91.73z M181.53,91.02h4.72V47.33h-4.72V91.02z M157.98,91.73c4.53,0,8.01-2.2,9.51-6.08v5.37h4.72V60.45h-4.72V77.6
			c0,6.42-3.41,9.83-8.38,9.83c-3.61,0-6.86-1.55-6.86-7.35V60.45h-4.53v20.09C147.72,88.52,152.55,91.73,157.98,91.73z
			 M116.83,76.02v-0.6c0-8.65,4.75-11.82,9.46-11.82c5.2,0,9.19,3.79,9.19,11.9v0.39c0,8.1-4.06,11.96-9.2,11.96
			C121.67,87.85,116.83,84.77,116.83,76.02L116.83,76.02z M126.89,91.7c7.23,0,13.32-5.89,13.32-15.81V75.5
			c0-9.94-5.65-15.76-13.08-15.76c-4.57,0-8.5,2.24-10.07,6.17V47.33h-4.72v43.69h4.72v-5.55C118.42,89.19,122.17,91.7,126.89,91.7
			L126.89,91.7z M82.98,82.88v-0.17c0-3.26,2.72-5.27,7.19-5.71l8.51-0.83v3.27c0,5.66-4.45,8.53-9.16,8.53
			C85.51,87.98,82.98,85.88,82.98,82.88L82.98,82.88z M88.95,91.73c3.8,0,8.16-1.54,9.79-5.54v4.83h4.46V70.5
			c0-7.75-5.42-10.79-11.54-10.79c-6.3,0-11.35,3.23-12.03,10.04h4.74c0.25-4.08,2.85-6.29,7.23-6.29c4.86,0,6.91,2.7,6.91,6.61
			v2.64l-9,0.91c-6.99,0.71-11.06,3.62-11.06,9.09v0.17C78.45,88.2,83.18,91.73,88.95,91.73L88.95,91.73z M60.3,91.02h4.85V51.44
			h13.62v-4.11h-32.1v4.11H60.3V91.02z"/>
	</g>
	<line class="st3" x1="301.33" y1="231.57" x2="301.33" y2="591.42"/>
	<line class="st3" x1="582.31" y1="231.57" x2="582.31" y2="591.42"/>
	<line class="st3" x1="881.37" y1="231.57" x2="881.37" y2="591.42"/>
</g>
</svg>
