<?xml version="1.0" encoding="utf-8"?>
<!-- Generator: Adobe Illustrator 26.0.2, SVG Export Plug-In . SVG Version: 6.00 Build 0)  -->
<svg version="1.1" id="Calque_1" xmlns="http://www.w3.org/2000/svg" xmlns:xlink="http://www.w3.org/1999/xlink" x="0px" y="0px"
	 viewBox="0 0 1250 1250" style="enable-background:new 0 0 1250 1250;" xml:space="preserve">
<style type="text/css">
	.st0{fill:#EDEDED;}
	.st1{clip-path:url(#SVGID_00000039116758840233033160000015766928225875196333_);}
	.st2{clip-path:url(#SVGID_00000039116758840233033160000015766928225875196333_);fill:none;stroke:#000000;stroke-width:1.148;}
	.st3{fill:none;stroke:#000000;stroke-width:1.148;}
	.st4{clip-path:url(#SVGID_00000034089012916564953390000000921471643974401711_);}
</style>
<g>
	<rect class="st0" width="1250" height="1250"/>
	<g>
		<defs>
			<rect id="SVGID_1_" width="1250" height="1250"/>
		</defs>
		<clipPath id="SVGID_00000138547789415338138700000012987645395086583211_">
			<use xlink:href="#SVGID_1_"  style="overflow:visible;"/>
		</clipPath>
		<path style="clip-path:url(#SVGID_00000138547789415338138700000012987645395086583211_);" d="M995.76,1068.83h51.77
			l118.32-317.72v-41.2H931.32v53.88l72.89-9.51h107.75L995.76,1068.83z M717.87,954.75c0.21-59.81,37.07-79.24,72.36-79.24
			c34.86,0,69.2,19.54,69.2,76.06v1.06c0,58.63-34.33,78.18-72.36,78.18C748.1,1030.8,718.06,1010.33,717.87,954.75L717.87,954.75z
			 M788.65,1075.17c65.5,0,123.6-47.01,123.6-122.55v-1.06c0-73.42-48.6-120.43-115.68-120.43c-33.28,0-58.63,11.62-76.06,34.86
			v-0.53c0-47.89,38.92-111.19,99.3-111.19l61.27,7.4v-51.77H821.4c-83.99,0-157.41,80.55-157.41,215.24v1.06
			C663.99,1031.86,724.21,1075.17,788.65,1075.17L788.65,1075.17z M484.46,1075.17c81.34,0,131-54.41,131-131.53v-1.06
			c0-75.54-52.82-125.19-116.21-125.19c-27.47,0-59.69,9.51-77.65,33.8l6.87-36.98l6.87-59.95h152.13v-50.71l-45.43,6.34H392.55
			l-22.71,190.95h57.05c12.68-26.94,36.45-36.45,62.33-36.45c46.48,0,73.42,30.11,73.42,78.17v1.06c0,58.63-30.11,87.16-78.18,87.16
			c-35.39,0-65.5-15.32-68.14-54.93H363.5C374.06,1044.53,423.71,1075.17,484.46,1075.17L484.46,1075.17z M88.73,939.15
			l116.74-185.93v185.93H88.73z M205.46,1068.83h52.82v-85.31h60.22v-44.37h-60.22V709.91h-76.06L34.32,945.49v38.03h171.14V1068.83
			z"/>
		<path style="clip-path:url(#SVGID_00000138547789415338138700000012987645395086583211_);" d="M975.19,597.48
			c74.43,0,120.4-43.81,120.4-106.7v-1.06c0-54.93-40.18-80.77-85.43-87.66c43.3-6.55,80.15-30.35,80.15-80.3v-2.64
			c0-55.78-42.71-93.49-113.7-93.49c-65.36,0-120.32,31.78-126.1,107.75h52.82c1.56-44.3,34.33-63.38,71.21-63.38
			c39.77,0,62.96,22.41,62.96,52.29v2.11c0,36.11-32.22,55.46-80.29,55.46v44.37c51.24,0,85.57,16.37,85.57,62.85v1.06
			c0,48.07-32.41,64.97-70.45,64.97c-34.13,0-67-13.6-68.99-64.97h-52.82C855.27,556.84,904.38,597.49,975.19,597.48L975.19,597.48z
			 M574.46,545.72v45.43h235.58v-44.37H632.56c71.84-44.9,172.73-116.21,172.73-210.23v-1.06c0-67.61-48.07-109.87-117.26-109.87
			c-55.46,0-122.02,26.41-124.13,114.09h52.82c2.64-42.26,22.71-69.72,69.2-69.72c45.43,0,66.55,26.94,66.55,65.5v1.06
			C752.47,414.19,665.31,481.8,574.46,545.72L574.46,545.72z M343.21,591.14h190.16v-44.37H464.7V232.22h-55.46l-67.08,36.45v67.08
			l69.72-45.95v256.98h-68.67V591.14z M103.52,413.67v-4.23c0-100.89,29.05-139.45,71.31-139.45c41.2,0,68.67,38.56,68.67,139.45
			v4.23c0,100.89-27.47,139.45-68.67,139.45C132.57,553.11,103.52,514.55,103.52,413.67 M174.82,597.48
			c81.34,0,121.49-74.48,121.49-183.82v-4.23c0-109.34-40.15-183.82-121.49-183.82c-82.93,0-124.13,74.48-124.13,183.82v4.23
			C50.69,523,91.89,597.48,174.82,597.48"/>
		
			<line style="clip-path:url(#SVGID_00000138547789415338138700000012987645395086583211_);fill:none;stroke:#000000;stroke-width:1.148;" x1="0" y1="590.85" x2="1250" y2="590.85"/>
		
			<line style="clip-path:url(#SVGID_00000138547789415338138700000012987645395086583211_);fill:none;stroke:#000000;stroke-width:1.148;" x1="0" y1="1069.46" x2="1250" y2="1069.46"/>
	</g>
	<line class="st3" x1="332.32" y1="709.93" x2="332.32" y2="1070.03"/>
	<line class="st3" x1="927.99" y1="709.93" x2="927.99" y2="1070.03"/>
	<line class="st3" x1="632.04" y1="709.93" x2="632.04" y2="1070.03"/>
	<g>
		<defs>
			<rect id="SVGID_00000102515766884394467580000013653442117098591162_" width="1250" height="1250"/>
		</defs>
		<clipPath id="SVGID_00000011004116912977977130000008963025263791420544_">
			<use xlink:href="#SVGID_00000102515766884394467580000013653442117098591162_"  style="overflow:visible;"/>
		</clipPath>
		<path style="clip-path:url(#SVGID_00000011004116912977977130000008963025263791420544_);" d="M528.84,75.06v-0.28
			c0-7.64,4.24-11.16,9.1-11.16c4.77,0,9.23,3.43,9.23,11.03v0.6c0,7.55-4.46,11.03-9.2,11.03
			C533.11,86.27,528.84,82.53,528.84,75.06z M538.18,104.85c10.86,0,13.59-7.35,13.59-13.31V60.45h-4.72v4.75
			c-1.67-3.6-5.5-5.46-9.81-5.46c-7.52,0-13.12,5.27-13.12,15.04v0.28c0,9.82,5.8,15.09,12.97,15.09c4.14,0,8.03-1.9,9.95-5.81v7.63
			c0,6.94-4.22,9-8.55,9c-5,0-8.75-2.53-8.9-7.94h-4.72C524.98,99.19,528.69,104.85,538.18,104.85L538.18,104.85z M491.85,91.02
			h4.72V73.96c0-6.68,3.74-9.94,8.45-9.94c4.11,0,6.86,2.08,6.86,7.46v19.55h4.72V71.01c0-7.9-4.92-11.3-10.47-11.3
			c-4.23,0-7.99,1.99-9.56,6.21v-5.48h-4.72V91.02z M476.99,53.01c0,1.95,1.43,3.16,3.16,3.16c1.74,0,3.17-1.22,3.17-3.16
			c0-1.95-1.43-3.16-3.17-3.16C478.42,49.84,476.99,51.06,476.99,53.01 M477.79,91.02h4.72V60.45h-4.72V91.02z M443.96,91.02h4.72
			V73.96c0-6.68,3.74-9.94,8.45-9.94c4.11,0,6.86,2.08,6.86,7.46v19.55h4.72V71.01c0-7.9-4.92-11.3-10.47-11.3
			c-4.23,0-7.99,1.99-9.56,6.21v-5.48h-4.72V91.02z M429.1,53.01c0,1.95,1.43,3.16,3.17,3.16c1.74,0,3.17-1.22,3.17-3.16
			c0-1.95-1.43-3.16-3.17-3.16C430.53,49.84,429.1,51.06,429.1,53.01 M429.9,91.02h4.72V60.45h-4.72V91.02z M399.8,91.02h23.64
			v-4.11h-18.79V47.33h-4.85V91.02z M372.99,91.02h4.72V47.33h-4.72V91.02z M343.64,82.88v-0.17c0-3.26,2.72-5.27,7.19-5.71
			l8.51-0.83v3.27c0,5.66-4.45,8.53-9.16,8.53C346.18,87.98,343.64,85.88,343.64,82.88L343.64,82.88z M349.61,91.73
			c3.8,0,8.16-1.54,9.79-5.54v4.83h4.46V70.5c0-7.75-5.42-10.79-11.54-10.79c-6.3,0-11.35,3.23-12.03,10.04h4.73
			c0.25-4.08,2.85-6.29,7.23-6.29c4.85,0,6.91,2.7,6.91,6.61v2.64l-9,0.91c-6.99,0.71-11.06,3.62-11.06,9.09v0.17
			C339.12,88.2,343.85,91.73,349.61,91.73L349.61,91.73z M306.92,91.02h4.72V73.96c0-6.68,3.74-9.94,8.45-9.94
			c4.11,0,6.86,2.08,6.86,7.46v19.55h4.72V71.01c0-7.9-4.92-11.3-10.47-11.3c-4.23,0-7.99,1.99-9.56,6.21v-5.48h-4.72V91.02z
			 M274.96,75.94v-0.27c0-8.31,3.95-12.08,9.65-12.08c5.7,0,9.65,3.77,9.65,12.08v0.27c0,8.14-3.95,11.92-9.65,11.92
			C278.91,87.85,274.96,84.08,274.96,75.94 M284.6,91.73c8.14,0,14.47-5.26,14.47-15.8v-0.27c0-10.7-6.32-15.96-14.47-15.96
			c-8.14,0-14.47,5.26-14.47,15.96v0.27C270.14,86.48,276.46,91.73,284.6,91.73 M257.04,53.01c0,1.95,1.43,3.16,3.17,3.16
			c1.73,0,3.16-1.22,3.16-3.16c0-1.95-1.43-3.16-3.16-3.16C258.47,49.84,257.04,51.06,257.04,53.01 M257.85,91.02h4.72V60.45h-4.72
			V91.02z M245.65,91.03h5.18v-4.2l-4.72,0.32c-2.13,0-2.65-1.14-2.65-3.96V64.33h8.02v-3.88h-9.78c2.51-1.32,3.85-4.18,3.85-8.04
			h-4.72c0,3.77-0.7,6.72-3.38,8.04h-4.85v3.88h6.14v18.21C238.74,89.55,241.28,91.03,245.65,91.03 M213.49,91.02h4.53V74.89
			c0-4.95,2.26-9.82,6.6-9.82l4,0.6v-5.23h-3.59c-3.05,0-6.04,1.73-6.98,5.6v-5.6h-4.56L213.49,91.02z M181.56,75.94v-0.27
			c0-8.31,3.95-12.08,9.65-12.08s9.65,3.77,9.65,12.08v0.27c0,8.14-3.95,11.92-9.65,11.92S181.56,84.08,181.56,75.94 M191.2,91.73
			c8.14,0,14.47-5.26,14.47-15.8v-0.27c0-10.7-6.33-15.96-14.47-15.96s-14.47,5.26-14.47,15.96v0.27
			C176.74,86.48,183.06,91.73,191.2,91.73 M147.15,75.97v-0.49c0-8.68,4.82-11.88,9.41-11.88c5.19,0,9.24,3.79,9.24,11.96v0.28
			c0,8.15-3.96,12.01-9.24,12.01C151.97,87.84,147.15,84.75,147.15,75.97z M142.65,104.11h4.72V86.04c1.55,3.61,5.58,5.66,10,5.66
			c7.53,0,13.14-5.89,13.14-15.86v-0.28c0-9.99-6.08-15.81-13.34-15.81c-4.77,0-8.47,2.52-9.81,6.22v-5.51h-4.72V104.11z
			 M110.71,75.94v-0.27c0-8.31,3.95-12.08,9.65-12.08c5.7,0,9.65,3.77,9.65,12.08v0.27c0,8.14-3.95,11.92-9.65,11.92
			C114.66,87.85,110.71,84.08,110.71,75.94 M120.36,91.73c8.14,0,14.47-5.26,14.47-15.8v-0.27c0-10.7-6.32-15.96-14.47-15.96
			c-8.14,0-14.47,5.26-14.47,15.96v0.27C105.89,86.48,112.22,91.73,120.36,91.73 M86.64,91.02h4.53V74.89c0-4.95,2.26-9.82,6.6-9.82
			l4,0.6v-5.23h-3.59c-3.04,0-6.04,1.73-6.98,5.6v-5.6h-4.56L86.64,91.02z M55.53,69.97V51.45h12.12c4.96,0,7.44,2.82,7.44,8.93
			v0.47c0,6.43-3.29,9.13-7.44,9.13L55.53,69.97z M50.68,91.02h4.85V74.11h12.37c7.38,0,12.03-5.49,12.03-13.33v-0.47
			c0-7.59-4.21-12.97-12.03-12.97H50.68V91.02z"/>
	</g>
	<line class="st3" x1="315.53" y1="231.57" x2="315.53" y2="591.42"/>
	<line class="st3" x1="546.11" y1="231.57" x2="546.11" y2="591.42"/>
	<line class="st3" x1="826.69" y1="231.57" x2="826.69" y2="591.42"/>
</g>
</svg>
