<?xml version="1.0" encoding="utf-8"?>
<!-- Generator: Adobe Illustrator 26.0.2, SVG Export Plug-In . SVG Version: 6.00 Build 0)  -->
<svg version="1.1" id="Calque_1" xmlns="http://www.w3.org/2000/svg" xmlns:xlink="http://www.w3.org/1999/xlink" x="0px" y="0px"
	 viewBox="0 0 1250 1250" style="enable-background:new 0 0 1250 1250;" xml:space="preserve">
<style type="text/css">
	.st0{fill:#EDEDED;}
	.st1{clip-path:url(#SVGID_00000085943947337879776590000013538264880057166465_);fill:#080A17;}
	.st2{clip-path:url(#SVGID_00000085943947337879776590000013538264880057166465_);fill:none;stroke:#010202;stroke-width:1.148;}
</style>
<g>
	<rect y="0" class="st0" width="1250" height="1250"/>
	<g>
		<defs>
			<rect id="SVGID_1_" y="0" width="1250" height="1250"/>
		</defs>
		<clipPath id="SVGID_00000059997288866368137910000016476940410718126508_">
			<use xlink:href="#SVGID_1_"  style="overflow:visible;"/>
		</clipPath>
		<path style="clip-path:url(#SVGID_00000059997288866368137910000016476940410718126508_);fill:#080A17;" d="M794.25,566.2
			c-30,0-91.96,16.96-92.62,78.92h54.79c1.3-15.65,9.13-30.65,37.83-30.65c30,0,38.48,13.69,38.48,30.65v2.61
			c0,49.57-63.27,85.44-131.1,126.53v45h186.54v-48.27H771.42c49.57-24.78,116.1-61.96,116.1-123.27v-2.61
			C887.52,596.84,850.34,566.19,794.25,566.2L794.25,566.2z M715.79,376.07L453.6,819.26h65.22l262.2-443.19H715.79z M363.14,620.98
			h155.88v-48.27H468.8V376.07h-48.27l-58.7,25.44v61.31l52.18-31.96v141.86h-50.87V620.98z"/>
		
			<line style="clip-path:url(#SVGID_00000059997288866368137910000016476940410718126508_);fill:none;stroke:#010202;stroke-width:1.148;" x1="0" y1="818.81" x2="1250" y2="818.81"/>
		<path style="clip-path:url(#SVGID_00000059997288866368137910000016476940410718126508_);fill:#080A17;" d="M97.87,91.02h4.82
			V80.81l-0.04-28.01l21.16,38.23h7.08V47.33h-4.82v8.62l0.04,29.61l-21.16-38.23h-7.08V91.02z M53.9,69.46v-0.6
			c0-12.51,6.69-18.16,14.89-18.16s14.89,5.65,14.89,18.19v0.55c0,12.53-6.69,18.18-14.89,18.18S53.9,81.97,53.9,69.46 M68.78,91.73
			c11.75,0,19.74-8.26,19.74-22.29v-0.55c0-14.04-7.99-22.3-19.74-22.3c-11.75,0-19.74,8.26-19.74,22.27v0.6
			C49.04,83.47,57.04,91.73,68.78,91.73"/>
	</g>
</g>
</svg>
