<?xml version="1.0" encoding="utf-8"?>
<!-- Generator: Adobe Illustrator 26.0.2, SVG Export Plug-In . SVG Version: 6.00 Build 0)  -->
<svg version="1.1" id="Calque_1" xmlns="http://www.w3.org/2000/svg" xmlns:xlink="http://www.w3.org/1999/xlink" x="0px" y="0px"
	 viewBox="0 0 1250 1250" style="enable-background:new 0 0 1250 1250;" xml:space="preserve">
<style type="text/css">
	.st0{fill:#EDEDED;}
	.st1{clip-path:url(#SVGID_00000098918124782903382600000015814434744548591766_);}
	.st2{clip-path:url(#SVGID_00000098918124782903382600000015814434744548591766_);fill:none;stroke:#000000;stroke-width:1.148;}
</style>
<g>
	<rect y="0" class="st0" width="1250" height="1250"/>
	<g>
		<defs>
			<rect id="SVGID_1_" y="0" width="1250" height="1250"/>
		</defs>
		<clipPath id="SVGID_00000052801652281444327190000016982118103821712277_">
			<use xlink:href="#SVGID_1_"  style="overflow:visible;"/>
		</clipPath>
		<path style="clip-path:url(#SVGID_00000052801652281444327190000016982118103821712277_);" d="M1067.01,861.98h63.92
			c29.35-51.53,73.7-142.19,73.7-264.15c0-121.97-44.35-212.63-73.7-264.15h-63.92c32.61,66.53,71.09,142.19,71.09,264.15
			C1138.1,719.8,1099.62,795.45,1067.01,861.98 M794.58,819.26h234.8v-54.79h-84.79v-388.4h-68.48l-82.83,45v82.83l86.09-56.74
			v317.31h-84.79V819.26z M565,691.42h188.49v-54.79H565V691.42z M245.22,819.26h65.22V612.5h187.19v-54.79H310.44V430.53h212.63
			v-54.79H245.22V819.26z M119.09,861.98H183c-32.61-66.53-71.09-142.19-71.09-264.15c0-121.97,38.48-197.63,71.09-264.15h-63.92
			c-29.35,51.53-73.7,142.19-73.7,264.15C45.38,719.8,89.74,810.45,119.09,861.98"/>
		
			<line style="clip-path:url(#SVGID_00000052801652281444327190000016982118103821712277_);fill:none;stroke:#000000;stroke-width:1.148;" x1="0" y1="818.81" x2="1250" y2="818.81"/>
		<path style="clip-path:url(#SVGID_00000052801652281444327190000016982118103821712277_);" d="M97.87,91.02h4.82V80.81
			l-0.04-28.01l21.16,38.23h7.08V47.33h-4.82v8.62l0.04,29.61l-21.16-38.23h-7.08V91.02z M53.9,69.46v-0.6
			c0-12.51,6.69-18.16,14.89-18.16s14.89,5.65,14.89,18.19v0.55c0,12.53-6.69,18.18-14.89,18.18S53.9,81.97,53.9,69.46 M68.78,91.73
			c11.75,0,19.74-8.26,19.74-22.29V68.9c0-14.04-7.99-22.3-19.74-22.3c-11.75,0-19.74,8.26-19.74,22.27v0.6
			C49.04,83.47,57.04,91.73,68.78,91.73"/>
	</g>
</g>
</svg>
