<?xml version="1.0" encoding="utf-8"?>
<!-- Generator: Adobe Illustrator 26.0.2, SVG Export Plug-In . SVG Version: 6.00 Build 0)  -->
<svg version="1.1" id="Calque_1" xmlns="http://www.w3.org/2000/svg" xmlns:xlink="http://www.w3.org/1999/xlink" x="0px" y="0px"
	 viewBox="0 0 1250 1250" style="enable-background:new 0 0 1250 1250;" xml:space="preserve">
<style type="text/css">
	.st0{fill:#EDEDED;}
	.st1{clip-path:url(#SVGID_00000091012977067809818120000003582468085354313626_);fill:#010202;}
	.st2{clip-path:url(#SVGID_00000091012977067809818120000003582468085354313626_);fill:none;stroke:#000000;stroke-width:1.148;}
</style>
<g>
	<rect x="0" y="0" class="st0" width="1250" height="1250"/>
	<g>
		<defs>
			<rect id="SVGID_1_" x="0" y="0" width="1250" height="1250"/>
		</defs>
		<clipPath id="SVGID_00000004504416523528141820000009385793360805125268_">
			<use xlink:href="#SVGID_1_"  style="overflow:visible;"/>
		</clipPath>
		<path style="clip-path:url(#SVGID_00000004504416523528141820000009385793360805125268_);fill:#010202;" d="M753.61,1080.28
			h127.87V553.47h175.82V446.91H881.48v-57.28c0-58.61,27.67-107.89,98.56-107.89l106.56,18.65V175.19H973.38
			c-146.52,0-219.78,97.23-219.78,221.11v50.62h-97.24v106.56h97.24L753.61,1080.28z M288.61,1080.28h127.87V553.47h175.82V446.91
			H416.48v-57.28c0-58.61,27.67-107.89,98.56-107.89l106.56,18.65V175.19H508.39c-146.52,0-219.78,97.23-219.78,221.11v50.62h-97.24
			v106.56h97.24L288.61,1080.28z"/>
		
			<line style="clip-path:url(#SVGID_00000004504416523528141820000009385793360805125268_);fill:none;stroke:#000000;stroke-width:1.148;" x1="0" y1="1079.71" x2="1250" y2="1079.71"/>
		<path style="clip-path:url(#SVGID_00000004504416523528141820000009385793360805125268_);fill:#010202;" d="M131.44,91.02h4.85V70
			h18.95v-4.11h-18.95V51.45h21.48v-4.11h-26.33V91.02z M97.87,91.02h4.85V70h18.95v-4.11h-18.95V51.45h21.48v-4.11H97.87V91.02z
			 M53.9,69.46v-0.6c0-12.51,6.69-18.16,14.89-18.16s14.89,5.65,14.89,18.19v0.55c0,12.53-6.69,18.18-14.89,18.18
			S53.9,81.97,53.9,69.46 M68.78,91.73c11.75,0,19.74-8.26,19.74-22.29V68.9c0-14.04-7.99-22.3-19.74-22.3
			c-11.75,0-19.74,8.26-19.74,22.27v0.6C49.04,83.47,57.04,91.73,68.78,91.73"/>
	</g>
</g>
</svg>
