<?xml version="1.0" encoding="utf-8"?>
<!-- Generator: Adobe Illustrator 26.0.2, SVG Export Plug-In . SVG Version: 6.00 Build 0)  -->
<svg version="1.1" id="Calque_1" xmlns="http://www.w3.org/2000/svg" xmlns:xlink="http://www.w3.org/1999/xlink" x="0px" y="0px"
	 viewBox="0 0 1250 1250" style="enable-background:new 0 0 1250 1250;" xml:space="preserve">
<style type="text/css">
	.st0{fill:#EDEDED;}
	.st1{clip-path:url(#SVGID_00000102543551388935899240000015389388151981330360_);}
	.st2{clip-path:url(#SVGID_00000102543551388935899240000015389388151981330360_);fill:none;stroke:#000000;stroke-width:1.148;}
</style>
<g>
	<rect class="st0" width="1250" height="1250"/>
	<g>
		<defs>
			<rect id="SVGID_1_" width="1250" height="1250"/>
		</defs>
		<clipPath id="SVGID_00000119093662707721385480000007096629810200869559_">
			<use xlink:href="#SVGID_1_"  style="overflow:visible;"/>
		</clipPath>
		<path style="clip-path:url(#SVGID_00000119093662707721385480000007096629810200869559_);" d="M758.67,763.17v56.09h290.89v-54.79
			H830.41c88.7-55.44,213.28-143.49,213.28-259.59v-1.3c0-83.49-59.35-135.66-144.79-135.66c-68.48,0-150.67,32.61-153.27,140.88
			h65.22c3.26-52.18,28.05-86.09,85.44-86.09c56.09,0,82.18,33.26,82.18,80.87v1.3C978.47,600.76,870.85,684.25,758.67,763.17
			L758.67,763.17z M488.66,819.26h65.22l162.41-443.19h-65.22L488.66,819.26z M208.92,819.26h234.8v-54.79h-84.79v-388.4h-68.48
			l-82.83,45v82.83l86.09-56.74v317.31h-84.79V819.26z"/>
		
			<line style="clip-path:url(#SVGID_00000119093662707721385480000007096629810200869559_);fill:none;stroke:#000000;stroke-width:1.148;" x1="0" y1="818.81" x2="1250" y2="818.81"/>
		<path style="clip-path:url(#SVGID_00000119093662707721385480000007096629810200869559_);" d="M131.44,91.02h4.85V70h18.95v-4.11
			h-18.95V51.45h21.48v-4.11h-26.33V91.02z M97.87,91.02h4.85V70h18.95v-4.11h-18.95V51.45h21.48v-4.11H97.87V91.02z M53.9,69.46
			v-0.6c0-12.51,6.69-18.16,14.89-18.16s14.89,5.65,14.89,18.19v0.55c0,12.53-6.69,18.18-14.89,18.18S53.9,81.97,53.9,69.46
			 M68.78,91.73c11.75,0,19.74-8.26,19.74-22.29V68.9c0-14.04-7.99-22.3-19.74-22.3c-11.75,0-19.74,8.26-19.74,22.27v0.6
			C49.04,83.47,57.04,91.73,68.78,91.73"/>
	</g>
</g>
</svg>
