<?xml version="1.0" encoding="utf-8"?>
<!-- Generator: Adobe Illustrator 26.0.2, SVG Export Plug-In . SVG Version: 6.00 Build 0)  -->
<svg version="1.1" id="Calque_1" xmlns="http://www.w3.org/2000/svg" xmlns:xlink="http://www.w3.org/1999/xlink" x="0px" y="0px"
	 viewBox="0 0 1250 1250" style="enable-background:new 0 0 1250 1250;" xml:space="preserve">
<style type="text/css">
	.st0{fill:#EDEDED;}
	.st1{clip-path:url(#SVGID_00000139979754314965269180000014719560550939301019_);}
	.st2{clip-path:url(#SVGID_00000165926836429538320220000013924836796165516930_);fill:none;stroke:#1D1D1B;stroke-width:1.148;}
	.st3{clip-path:url(#SVGID_00000150790989926723431760000007265324896185912203_);}
</style>
<g>
	<rect class="st0" width="1250" height="1250"/>
	<g>
		<g>
			<defs>
				<rect id="SVGID_1_" width="1250" height="1250"/>
			</defs>
			<clipPath id="SVGID_00000181803723659950022380000001794473353283092878_">
				<use xlink:href="#SVGID_1_"  style="overflow:visible;"/>
			</clipPath>
			<path style="clip-path:url(#SVGID_00000181803723659950022380000001794473353283092878_);" d="M1108.91,333.68h-59.35v54.79
				h37.18c23.48,0,31.96,12.39,31.96,38.48c0,39.13-9.78,59.35-9.78,107.62c0,41.74,20.87,58.05,55.44,63.27
				c-34.57,5.22-55.44,21.52-55.44,63.27c0,48.27,9.78,68.48,9.78,107.62c0,26.09-8.48,38.48-31.96,38.48h-37.18V862h59.35
				c45,0,75.01-39.13,75.01-78.27c0-50.22-9.78-81.53-9.78-125.88c0-21.52,20.87-32.61,54.79-32.61v-54.79
				c-33.92,0-54.79-11.09-54.79-32.61c0-44.35,9.78-75.66,9.78-125.88C1183.92,372.81,1153.91,333.68,1108.91,333.68 M861.4,861.98
				h130.45v-528.3h-132.4v54.79h67.18V807.2H861.4V861.98z M557.45,629.46l67.38-206l67.38,206H557.45z M426.56,819.26h68.81
				l44.16-135.01h170.61l44.16,135.01h68.81L673.1,375.75h-96.53L426.56,819.26z M258.56,861.98H389v-54.79h-65.22V388.46h67.18
				v-54.79h-132.4V861.98z M141.09,861.98h59.35v-54.79h-37.18c-23.48,0-31.96-12.39-31.96-38.48c0-39.13,9.78-59.35,9.78-107.62
				c0-41.74-20.87-58.05-55.44-63.27c34.57-5.22,55.44-21.52,55.44-63.27c0-48.27-9.78-68.48-9.78-107.62
				c0-26.09,8.48-38.48,31.96-38.48h37.18v-54.79h-59.35c-45,0-75.01,39.13-75.01,78.27c0,50.22,9.78,81.53,9.78,125.88
				c0,21.52-20.87,32.61-54.79,32.61v54.79c33.92,0,54.79,11.09,54.79,32.61c0,44.35-9.78,75.66-9.78,125.88
				C66.09,822.85,96.09,861.98,141.09,861.98"/>
		</g>
		<g>
			<defs>
				<rect id="SVGID_00000077298578385684292970000011945511984120412299_" width="1250" height="1250"/>
			</defs>
			<clipPath id="SVGID_00000049912611143755298410000007552890456344846208_">
				<use xlink:href="#SVGID_00000077298578385684292970000011945511984120412299_"  style="overflow:visible;"/>
			</clipPath>
			
				<line style="clip-path:url(#SVGID_00000049912611143755298410000007552890456344846208_);fill:none;stroke:#1D1D1B;stroke-width:1.148;" x1="0" y1="818.81" x2="1250" y2="818.81"/>
		</g>
		<g>
			<defs>
				<rect id="SVGID_00000073683691090120647560000004170721682231117495_" width="1250" height="1250"/>
			</defs>
			<clipPath id="SVGID_00000080190786472752680050000014775090528455887514_">
				<use xlink:href="#SVGID_00000073683691090120647560000004170721682231117495_"  style="overflow:visible;"/>
			</clipPath>
			<path style="clip-path:url(#SVGID_00000080190786472752680050000014775090528455887514_);" d="M97.87,91.02h4.82V80.81
				l-0.04-28.01l21.16,38.23h7.08v-43.7h-4.82v8.62l0.04,29.61l-21.16-38.23h-7.08C97.87,47.33,97.87,91.02,97.87,91.02z
				 M53.9,69.46v-0.6c0-12.51,6.69-18.16,14.89-18.16s14.89,5.65,14.89,18.19v0.55c0,12.53-6.69,18.18-14.89,18.18
				S53.9,81.97,53.9,69.46 M68.78,91.73c11.75,0,19.74-8.26,19.74-22.29V68.9c0-14.04-7.99-22.3-19.74-22.3s-19.74,8.26-19.74,22.27
				v0.6C49.04,83.47,57.04,91.73,68.78,91.73"/>
		</g>
	</g>
</g>
</svg>
