<?xml version="1.0" encoding="utf-8"?>
<!-- Generator: Adobe Illustrator 26.2.1, SVG Export Plug-In . SVG Version: 6.00 Build 0)  -->
<svg version="1.1" id="Calque_1" xmlns="http://www.w3.org/2000/svg" xmlns:xlink="http://www.w3.org/1999/xlink" x="0px" y="0px"
	 viewBox="0 0 500 500" style="enable-background:new 0 0 500 500;" xml:space="preserve">
<g>
	<g>
	</g>
	<g id="XMLID_2024_">
		<path id="XMLID_2076_" d="M250,136.3c37,0,41.4,0.1,56,0.8c13.5,0.6,20.9,2.9,25.7,4.8c6.5,2.5,11.1,5.5,15.9,10.4
			c4.9,4.9,7.9,9.5,10.4,15.9c1.9,4.9,4.2,12.2,4.8,25.7c0.7,14.6,0.8,19,0.8,56s-0.1,41.4-0.8,56c-0.6,13.5-2.9,20.9-4.8,25.7
			c-2.5,6.5-5.5,11.1-10.4,15.9c-4.8,4.8-9.5,7.9-15.9,10.4c-4.9,1.9-12.2,4.2-25.7,4.8c-14.6,0.7-19,0.8-56,0.8s-41.4-0.1-56-0.8
			c-13.5-0.6-20.9-2.9-25.7-4.8c-6.5-2.5-11.1-5.5-15.9-10.4c-4.9-4.9-7.9-9.5-10.4-15.9c-1.9-4.9-4.2-12.2-4.8-25.7
			c-0.7-14.6-0.8-19-0.8-56s0.1-41.4,0.8-56c0.6-13.5,2.9-20.9,4.8-25.7c2.5-6.5,5.5-11.1,10.4-15.9c4.9-4.9,9.5-7.9,15.9-10.4
			c4.9-1.9,12.2-4.2,25.7-4.8C208.6,136.5,213,136.3,250,136.3 M250,111.4c-37.7,0-42.4,0.2-57.2,0.8c-14.8,0.7-24.8,3-33.7,6.4
			c-9.1,3.5-16.8,8.3-24.6,16c-7.7,7.7-12.4,15.4-16,24.6c-3.4,8.8-5.8,18.9-6.4,33.7c-0.7,14.8-0.8,19.5-0.8,57.2
			s0.2,42.4,0.8,57.2c0.7,14.8,3,24.8,6.4,33.7c3.5,9.1,8.3,16.8,16,24.6c7.7,7.7,15.4,12.4,24.6,16c8.8,3.4,18.9,5.8,33.7,6.4
			c14.8,0.7,19.5,0.8,57.2,0.8s42.4-0.2,57.2-0.8c14.8-0.7,24.8-3,33.7-6.4c9.1-3.5,16.8-8.3,24.6-16c7.7-7.7,12.4-15.4,16-24.6
			c3.4-8.8,5.8-18.9,6.4-33.7c0.7-14.8,0.8-19.5,0.8-57.2s-0.2-42.4-0.8-57.2c-0.7-14.8-3-24.8-6.4-33.7c-3.5-9.1-8.3-16.9-16-24.6
			s-15.4-12.4-24.6-16c-8.8-3.4-18.9-5.8-33.7-6.4C292.4,111.5,287.7,111.4,250,111.4"/>
		<path id="XMLID_2073_" d="M250,178.8c-39.3,0-71.2,31.9-71.2,71.2s31.9,71.2,71.2,71.2s71.2-31.9,71.2-71.2S289.3,178.8,250,178.8
			 M250,296.2c-25.5,0-46.2-20.7-46.2-46.2s20.7-46.2,46.2-46.2s46.2,20.7,46.2,46.2S275.5,296.2,250,296.2"/>
		<path id="XMLID_2025_" d="M340.6,176c0,9.2-7.4,16.6-16.6,16.6s-16.6-7.5-16.6-16.6c0-9.2,7.4-16.6,16.6-16.6
			S340.6,166.8,340.6,176"/>
	</g>
</g>
<g>
	<g>
		<path d="M250,0C111.9,0,0,111.9,0,250s111.9,250,250,250s250-111.9,250-250S388.1,0,250,0z M250,477.8
			c-125.8,0-227.8-102-227.8-227.8S124.2,22.2,250,22.2s227.8,102,227.8,227.8S375.8,477.8,250,477.8z"/>
	</g>
</g>
</svg>
