<?xml version="1.0" encoding="utf-8"?>
<!-- Generator: Adobe Illustrator 25.4.1, SVG Export Plug-In . SVG Version: 6.00 Build 0)  -->
<svg version="1.1" id="Calque_1" xmlns="http://www.w3.org/2000/svg" xmlns:xlink="http://www.w3.org/1999/xlink" x="0px" y="0px"
	 viewBox="0 0 423 203" style="enable-background:new 0 0 423 203;" xml:space="preserve">
<style type="text/css">
	.st0{enable-background:new    ;}
</style>
<g id="Rectangle_21_">
	<g>
		<path d="M321.5,203h-220C45.5,203,0,157.5,0,101.5S45.5,0,101.5,0h220C377.5,0,423,45.5,423,101.5S377.5,203,321.5,203z
			 M101.5,4.2c-53.7,0-97.3,43.6-97.3,97.3s43.6,97.3,97.3,97.3h220c53.6,0,97.3-43.6,97.3-97.3S375.1,4.2,321.5,4.2H101.5
			L101.5,4.2z"/>
	</g>
</g>
<g class="st0">
	<path d="M115.6,79.1H96.7v50.4h-6.5V79.1H71.5v-5.5h44.1V79.1z"/>
	<path d="M351.5,79.1h-18.8v50.4h-6.5V79.1h-18.8v-5.5h44.1V79.1z"/>
</g>
<polygon points="151.8,103.6 271.2,103.6 254.7,125 258,127.6 278.2,101.5 258,75.5 254.7,78 271.2,99.4 151.8,99.4 168.3,78 
	165,75.5 144.8,101.5 165,127.6 168.3,125 "/>
</svg>
