<?xml version="1.0" encoding="utf-8"?>
<!-- Generator: Adobe Illustrator 25.0.0, SVG Export Plug-In . SVG Version: 6.00 Build 0)  -->
<svg version="1.1" id="Calque_1" xmlns="http://www.w3.org/2000/svg" xmlns:xlink="http://www.w3.org/1999/xlink" x="0px" y="0px"
	 viewBox="0 0 211.5 203.04" style="enable-background:new 0 0 211.5 203.04;" xml:space="preserve">
<style type="text/css">
	.st0{enable-background:new    ;}
</style>
<g class="st0">
	<path d="M58.01,108.38l-7.54,18.52h-8.56l28.02-68.32h9.12l28.02,68.32H98.5l-7.54-18.52H58.01z M74.49,66.77l-14.24,35.1h28.57
		L74.49,66.77z"/>
	<path d="M135.44,108.38l-7.54,18.52h-8.56l28.02-68.32h9.12l28.02,68.32h-8.56l-7.54-18.52L135.44,108.38L135.44,108.38z
		 M151.92,66.77l-14.24,35.1h28.57L151.92,66.77z"/>
</g>
<path d="M211.5,198.81H101.52c-53.65,0-97.29-43.64-97.29-97.29c0-53.65,43.64-97.29,97.29-97.29H211.5V0H101.52
	C45.54,0,0,45.54,0,101.52c0,55.98,45.54,101.52,101.52,101.52H211.5V198.81z"/>
</svg>
