<?xml version="1.0" encoding="utf-8"?>
<!-- Generator: Adobe Illustrator 25.2.0, SVG Export Plug-In . SVG Version: 6.00 Build 0)  -->
<svg version="1.1" id="Calque_1" xmlns="http://www.w3.org/2000/svg" xmlns:xlink="http://www.w3.org/1999/xlink" x="0px" y="0px"
	 viewBox="0 0 446 72" style="enable-background:new 0 0 446 72;" xml:space="preserve">
<style type="text/css">
	.st0{fill:#FFFFFF;}
</style>
<g>
	<path class="st0" d="M443.36,61.91V53.6h-5.28c-3.52,0-5.12-2.72-5.12-8.16V27.76h10.39v-8.32H432.8c0.56-0.64,0.96-2,0.96-3.36
		V8.73h-9.84v6c0,4-1.92,4.72-3.84,4.72h-6.32v8.32h9.36v20.55c0,10.24,7.2,13.6,13.43,13.6H443.36z M392.27,18.41
		c-8.96,0-11.84,5.68-11.84,5.68v-4.64h-9.84v42.47h9.84V38.48c0-7.52,2.8-11.76,9.84-11.76c4.8,0,8.4,2.72,8.4,9.44v25.75h9.84
		V35.04C408.51,23.28,401.23,18.41,392.27,18.41 M341.54,54.56c-7.36,0-12.64-5.2-12.64-13.92c0-7.92,5.28-13.83,12.64-13.83
		c7.36,0,12.63,5.92,12.63,13.83C354.17,49.36,348.89,54.56,341.54,54.56 M341.54,18.41c-12.72,0-22.48,9.92-22.48,22.23
		c0,12.32,9.76,22.24,22.48,22.24c12.71,0,22.39-9.92,22.47-22.24C364.08,28.32,354.25,18.41,341.54,18.41 M311.25,11.53h5.44V3.21
		h-5.44c-10.15,0-16.23,6.48-16.23,13.92v2.32h-9.36v8.32h9.36v34.15h9.84V27.76h12.08v-8.32h-12.08v-2.32
		C304.86,13.69,305.98,11.53,311.25,11.53 M261.61,26.72c7.2,0,10.48,5.12,10.48,9.44h-22.55
		C250.26,31.04,254.82,26.72,261.61,26.72 M261.61,54.4c-6.24,0-12.08-3.68-12.08-11.04h33.19v-4.08
		c0-12.87-10.31-20.87-21.11-20.87c-12.72,0-22.32,8.96-22.32,22.23c0,11.12,7.6,22.08,22.32,22.08c8.88,0,18.39-4.4,20.39-14.79
		h-9.84C271.45,52.56,266.41,54.4,261.61,54.4 M233.49,18.41c-6.56,0-9.76,3.76-11.44,6v-4.96h-9.84v42.47h9.84V40.56
		c0-8.32,3.76-13.76,10-13.76l5.44-0.08v-8.32H233.49z M182.77,54.56c-7.36,0-12.64-5.2-12.64-13.92c0-7.92,5.28-13.83,12.64-13.83
		c7.36,0,12.64,5.92,12.64,13.83C195.41,49.36,190.13,54.56,182.77,54.56 M182.77,18.41c-12.72,0-22.47,9.92-22.47,22.23
		c0,12.32,9.76,22.24,22.47,22.24s22.39-9.92,22.47-22.24C205.33,28.32,195.49,18.41,182.77,18.41 M115.92,61.91h9.84V39.36
		c0-7.52,3.6-12.64,9.84-12.64c4.8,0,8.4,3.6,8.4,10.32v24.87h9.84V35.92c0-11.76-7.2-17.51-17.6-17.51c-6.8,0-12.08,4.4-13.28,6.16
		c-2.4-3.84-7.2-6.16-13.44-6.16c-7.28,0-11.84,5.68-11.84,5.68v-4.64h-9.84v42.47h9.84V39.36c0-7.52,4-12.64,9.84-12.64
		c4.8,0,8.4,3.6,8.4,10.32V61.91z"/>
	<path class="st0" d="M35.54,38.6h30.38C65.93,20.11,52,5.5,32.35,5.5v29.8H2.64c0,18.1,14.13,33.49,32.9,33.49V38.6z"/>
</g>
</svg>
