<?xml version="1.0" encoding="utf-8"?>
<!-- Generator: Adobe Illustrator 26.0.2, SVG Export Plug-In . SVG Version: 6.00 Build 0)  -->
<svg version="1.1" id="Calque_1" xmlns="http://www.w3.org/2000/svg" xmlns:xlink="http://www.w3.org/1999/xlink" x="0px" y="0px"
	 viewBox="0 0 211.5 211.5" style="enable-background:new 0 0 211.5 211.5;" xml:space="preserve">
<style type="text/css">
	.st0{fill:#FFFFFF;}
</style>
<circle class="st0" cx="105.8" cy="105.8" r="104.8"/>
<g>
	<g>
		<g>
			<g>
				<path d="M105.7,2c57.2,0,103.8,46.6,103.8,103.8s-46.6,103.7-103.8,103.7S2,163,2,105.8S48.5,2,105.7,2 M105.7,0
					C47.4,0,0,47.4,0,105.8c0,58.3,47.4,105.7,105.7,105.7c58.4,0,105.8-47.4,105.8-105.7C211.5,47.4,164,0,105.7,0L105.7,0z"/>
			</g>
		</g>
	</g>
</g>
<g>
	<g>
		<g>
			<g>
				<path d="M105.7,0C47.4,0,0,47.4,0,105.8c0,58.3,47.4,105.7,105.7,105.7c58.4,0,105.8-47.4,105.8-105.7C211.5,47.4,164,0,105.7,0
					L105.7,0z"/>
			</g>
		</g>
	</g>
</g>
<polygon class="st0" points="97.2,142 63,107.8 72.1,98.7 96.5,123 141.5,70.1 151.3,78.5 "/>
</svg>
