<?xml version="1.0" encoding="utf-8"?>
<!-- Generator: Adobe Illustrator 26.0.2, SVG Export Plug-In . SVG Version: 6.00 Build 0)  -->
<svg version="1.1" id="Calque_1" xmlns="http://www.w3.org/2000/svg" xmlns:xlink="http://www.w3.org/1999/xlink" x="0px" y="0px"
	 viewBox="0 0 211.5 211.5" style="enable-background:new 0 0 211.5 211.5;" xml:space="preserve">
<style type="text/css">
	.st0{fill:#FFFFFF;}
	.st1{fill:#1D1D1B;}
</style>
<g>
	<g>
		<g>
			<g>
				<path class="st0" d="M105.7,0C47.4,0,0,47.4,0,105.8c0,58.3,47.4,105.7,105.7,105.7c58.4,0,105.8-47.4,105.8-105.7
					C211.5,47.4,164,0,105.7,0L105.7,0z"/>
			</g>
		</g>
	</g>
</g>
<g>
	<g>
		<g>
			<g>
				<path class="st0" d="M105.7,0C47.4,0,0,47.4,0,105.8c0,58.3,47.4,105.7,105.7,105.7c58.4,0,105.8-47.4,105.8-105.7
					C211.5,47.4,164,0,105.7,0L105.7,0z"/>
			</g>
		</g>
	</g>
</g>
<polygon class="st1" points="97.2,142 63,107.8 72.1,98.7 96.5,123 141.5,70.1 151.3,78.5 "/>
</svg>
