<?xml version="1.0" encoding="utf-8"?>
<!-- Generator: Adobe Illustrator 26.0.3, SVG Export Plug-In . SVG Version: 6.00 Build 0)  -->
<svg version="1.1" id="Calque_1" xmlns="http://www.w3.org/2000/svg" xmlns:xlink="http://www.w3.org/1999/xlink" x="0px" y="0px"
	 viewBox="0 0 260.7 260.7" style="enable-background:new 0 0 260.7 260.7;" xml:space="preserve">
<style type="text/css">
	.st0{fill:#FFFFFF;}
</style>
<g>
	<path class="st0" d="M130.3,0C58.4,0,0,58.4,0,130.3s58.3,130.3,130.3,130.3s130.3-58.4,130.3-130.3S202.3,0,130.3,0z M130.3,255.2
		c-69,0-124.9-55.9-124.9-124.9S61.3,5.4,130.3,5.4s124.9,55.9,124.9,124.9S199.3,255.2,130.3,255.2z"/>
</g>
<g>
	<path class="st0" d="M131.4,202.6c-39.9,0-72.3-32.4-72.3-72.3S91.5,58,131.4,58c21.3,0,41.4,9.3,55.2,25.6L179,90
		c-11.9-14-29.2-22-47.6-22C97,68,69.1,95.9,69.1,130.3c0,34.4,27.9,62.3,62.3,62.3c16.7,0,32.3-6.5,44.1-18.2l7.1,7.1
		C168.9,195.1,150.7,202.6,131.4,202.6z"/>
</g>
<polygon class="st0" points="196.4,61 196.4,101.5 156.8,101.5 "/>
</svg>
