<?xml version="1.0" encoding="utf-8"?>
<!-- Generator: Adobe Illustrator 25.0.0, SVG Export Plug-In . SVG Version: 6.00 Build 0)  -->
<svg version="1.1" id="Calque_1" xmlns="http://www.w3.org/2000/svg" xmlns:xlink="http://www.w3.org/1999/xlink" x="0px" y="0px"
	 viewBox="0 0 260.68 260.68" style="enable-background:new 0 0 260.68 260.68;" xml:space="preserve">
<style type="text/css">
	.st0{enable-background:new    ;}
</style>
<g>
	<path d="M130.34,0C58.35,0,0,58.36,0,130.34s58.35,130.34,130.34,130.34s130.34-58.36,130.34-130.34S202.33,0,130.34,0z
		 M130.34,255.25c-68.99,0-124.91-55.93-124.91-124.91S61.35,5.43,130.34,5.43s124.91,55.93,124.91,124.91
		S199.33,255.25,130.34,255.25z"/>
	<g class="st0">
		<path d="M147.17,162.74h56.45v16.12h-77.6v-16.12c10.8-40.63,57.21-33.48,57.21-62.09c0-12.02-7.46-19.48-18.26-19.48
			c-15.36,0-20.69,9.28-20.39,22.52h-19.17c0-21.9,14.91-38.49,39.56-38.49c20.39,0,37.28,12.78,37.28,36.36
			C202.25,139,154.16,139.15,147.17,162.74z"/>
	</g>
	<g class="st0">
		<path d="M74.05,115.56c-9.38,0-14.46,4.56-14.46,11.33c0,17.19,43.51,3,43.51,31.79c0,11.72-10.42,20.19-27.74,20.19
			c-19.02,0-25.54-11.85-28.27-24.35H57.9c1.17,7.43,5.47,15.24,18.76,15.24c10.16,0,15.64-4.17,15.64-11.07
			c0-19.28-43.51-5.6-43.51-31.79c0-11.59,10.55-20.45,26.58-20.45c15.11,0,25.4,8.98,26.96,24.75H91.52
			C90.72,122.6,86.55,115.56,74.05,115.56z"/>
	</g>
</g>
</svg>
