<?xml version="1.0" encoding="utf-8"?>
<!-- Generator: Adobe Illustrator 25.0.1, SVG Export Plug-In . SVG Version: 6.00 Build 0)  -->
<svg version="1.1" id="Calque_1" xmlns="http://www.w3.org/2000/svg" xmlns:xlink="http://www.w3.org/1999/xlink" x="0px" y="0px"
	 viewBox="0 0 260.68 260.68" style="enable-background:new 0 0 260.68 260.68;" xml:space="preserve">
<style type="text/css">
	.st0{fill:#FFFFFF;}
</style>
<path class="st0" d="M130.34,0C58.35,0,0,58.36,0,130.34s58.35,130.34,130.34,130.34s130.34-58.36,130.34-130.34S202.33,0,130.34,0z
	 M76.94,178.87c-19.02,0-25.54-11.85-28.27-24.35h10.81c1.17,7.43,5.47,15.24,18.76,15.24c10.16,0,15.64-4.17,15.64-11.07
	c0-19.28-43.51-5.6-43.51-31.79c0-11.59,10.55-20.45,26.58-20.45c15.11,0,25.4,8.98,26.96,24.75H93.1
	c-0.79-8.6-4.96-15.64-17.47-15.64c-9.38,0-14.46,4.56-14.46,11.33c0,17.19,43.51,3,43.51,31.79
	C104.68,170.4,94.26,178.87,76.94,178.87z M165.62,180.84c-25.87,0-36.06-16.58-39.86-34.54h19.02c1.67,11.72,9.89,18.41,21,18.41
	c10.95,0,21.76-6.69,21.76-18.41c0-10.34-7.61-15.36-21.61-15.36h-7.61v-16.13h7.61c12.48,0,19.48-6.39,19.48-16.74
	c0-10.65-8.67-16.58-19.62-16.58c-9.59,0-18.11,5.47-18.56,16.58h-19.02c2.28-18.4,15.22-32.7,37.58-32.7
	c25.1,0,38.64,14.61,38.64,32.7c0,11.57-5.93,19.78-13.84,24.65c9.11,3.81,15.96,12.33,15.96,23.58
	C206.55,168.07,188.6,180.84,165.62,180.84z"/>
</svg>
