<?xml version="1.0" encoding="utf-8"?>
<!-- Generator: Adobe Illustrator 25.0.1, SVG Export Plug-In . SVG Version: 6.00 Build 0)  -->
<svg version="1.1" id="Calque_1" xmlns="http://www.w3.org/2000/svg" xmlns:xlink="http://www.w3.org/1999/xlink" x="0px" y="0px"
	 viewBox="0 0 423.01 203.04" style="enable-background:new 0 0 423.01 203.04;" xml:space="preserve">
<style type="text/css">
	.st0{fill:#FFFFFF;}
	.st1{enable-background:new    ;}
</style>
<g id="Rectangle_22_">
	<g>
		<path class="st0" d="M321.48,203.04H101.52C45.54,203.04,0,157.5,0,101.52S45.54,0,101.52,0h219.97
			c55.98,0,101.52,45.54,101.52,101.52S377.46,203.04,321.48,203.04z M101.52,4.23c-53.65,0-97.29,43.64-97.29,97.29
			s43.64,97.29,97.29,97.29h219.97c53.65,0,97.29-43.64,97.29-97.29S375.14,4.23,321.49,4.23H101.52L101.52,4.23z"/>
	</g>
</g>
<g class="st1">
	<path class="st0" d="M178.49,110.53c0,8.3-6.09,16.23-19.5,16.23c-11.27,0-18.13-5.72-20.49-19.12h6.48
		c1.83,9.9,5.49,13.71,14.01,13.71c8.07,0,13.03-3.96,13.03-10.81c0-15.31-32.45-5.33-32.45-25.06c0-9.9,6.93-16.52,18.89-16.52
		c9.14,0,17.75,4.19,19.34,16.45h-6.47c-0.54-6.1-4.27-10.97-12.87-10.97c-8.38,0-12.42,4.73-12.42,11.05
		C146.04,99.87,178.49,89.28,178.49,110.53z"/>
	<path class="st0" d="M192.41,77.4c-2.36,0-4.19-1.98-4.19-4.26c0-2.29,1.83-4.19,4.19-4.19s4.19,1.9,4.19,4.19
		C196.6,75.42,194.77,77.4,192.41,77.4z M189.21,85.4h6.32v40.44h-6.32V85.4z"/>
	<path class="st0" d="M240.69,85.4v6.47l-28.11,28.64h28.49v5.33h-35.11v-5.71l28.49-29.33h-28.11v-5.4H240.69z"/>
	<path class="st0" d="M281.5,112.52h6.32c-1.9,9.9-9.44,14.09-17.89,14.09c-14.02,0-19.73-10.43-19.73-21.02
		c0-12.64,7.62-21.17,19.73-21.17c10.28,0,18.58,7.62,18.58,19.88v3.28H256.9c0,7.01,4.8,13.4,13.03,13.4
		C276.78,120.97,280.82,116.93,281.5,112.52z M256.9,101.92h24.53c0-4.11-2.36-11.88-11.5-11.88
		C261.16,90.04,257.59,96.29,256.9,101.92z"/>
</g>
</svg>
