<?xml version="1.0" encoding="utf-8"?>
<!-- Generator: Adobe Illustrator 25.0.1, SVG Export Plug-In . SVG Version: 6.00 Build 0)  -->
<svg version="1.1" id="Calque_1" xmlns="http://www.w3.org/2000/svg" xmlns:xlink="http://www.w3.org/1999/xlink" x="0px" y="0px"
	 viewBox="0 0 423.01 203.04" style="enable-background:new 0 0 423.01 203.04;" xml:space="preserve">
<style type="text/css">
	.st0{enable-background:new    ;}
</style>
<g id="Rectangle_22_">
	<g>
		<path d="M321.48,203.04H101.52C45.54,203.04,0,157.5,0,101.52S45.54,0,101.52,0h219.97c55.98,0,101.52,45.54,101.52,101.52
			S377.46,203.04,321.48,203.04z M101.52,4.23c-53.65,0-97.29,43.64-97.29,97.29s43.64,97.29,97.29,97.29h219.97
			c53.65,0,97.29-43.64,97.29-97.29S375.14,4.23,321.49,4.23H101.52L101.52,4.23z"/>
	</g>
</g>
<g class="st0">
	<path d="M147.28,70h7.24l-17.6,55.91h-6.09l-15.77-46.38L99.37,125.9h-6.09L75.68,70h7.24l13.41,46.61L111.4,70h7.39l15.08,46.61
		L147.28,70z"/>
	<path d="M189.88,112.58h6.32c-1.9,9.9-9.44,14.09-17.89,14.09c-14.02,0-19.73-10.43-19.73-21.02c0-12.64,7.62-21.17,19.73-21.17
		c10.28,0,18.58,7.62,18.58,19.88v3.28h-31.61c0,7.01,4.8,13.4,13.03,13.4C185.15,121.03,189.19,116.99,189.88,112.58z
		 M165.28,101.98h24.53c0-4.11-2.36-11.88-11.5-11.88C169.54,90.1,165.96,96.35,165.28,101.98z"/>
	<path d="M211.19,77.46c-2.36,0-4.19-1.98-4.19-4.26c0-2.29,1.83-4.19,4.19-4.19s4.19,1.9,4.19,4.19
		C215.37,75.48,213.55,77.46,211.19,77.46z M207.99,85.46h6.32v40.44h-6.32V85.46z"/>
	<path d="M243.78,84.47c7.08,0,11.27,3.05,13.94,6.7v-5.71h6.32v39.9c0,10.97-7.15,17.83-18.89,17.83
		c-8.76,0-16.37-4.27-18.05-14.62h6.32c0.99,5.48,4.73,9.29,11.73,9.29c8.45,0,12.57-3.96,12.57-12.49v-6.16
		c-1.6,4.19-5.33,7.69-13.94,7.69c-9.75,0-18.28-7.62-18.28-21.17C225.49,92.54,234.03,84.47,243.78,84.47z M244.54,121.56
		c8.15,0,13.56-7.24,13.56-15.85c0-8.99-5.71-15.92-13.56-15.92c-7.46,0-12.71,7.09-12.71,15.92
		C231.82,113.79,237.15,121.56,244.54,121.56z"/>
	<path d="M310.33,100.31v25.59h-6.32v-24.52c0-6.4-1.9-11.58-9.52-11.58c-7.47,0-11.66,7.47-11.66,14.62v21.48h-6.32V70h6.32v20.72
		c0,0,3.66-6.25,12.8-6.25C302.63,84.47,310.33,89.11,310.33,100.31z"/>
	<path d="M340.85,125.9c-5.94,0-11.27-3.2-11.27-12.95V90.79h-10.43v-5.33h8.3c1.83,0,2.89-0.69,2.89-4.49v-5.71h6.32v7.01
		c0,1.29-0.38,2.59-0.91,3.2h11.57v5.33H335.9v19.42c0,8.23,1.52,10.36,6.39,10.36h5.03v5.33H340.85z"/>
</g>
</svg>
