<?xml version="1.0" encoding="utf-8"?>
<!-- Generator: Adobe Illustrator 25.0.1, SVG Export Plug-In . SVG Version: 6.00 Build 0)  -->
<svg version="1.1" id="Calque_1" xmlns="http://www.w3.org/2000/svg" xmlns:xlink="http://www.w3.org/1999/xlink" x="0px" y="0px"
	 viewBox="0 0 423.01 203.04" style="enable-background:new 0 0 423.01 203.04;" xml:space="preserve">
<style type="text/css">
	.st0{fill:#FFFFFF;}
	.st1{enable-background:new    ;}
</style>
<g id="Rectangle_22_">
	<g>
		<path class="st0" d="M321.48,203.04H101.52C45.54,203.04,0,157.5,0,101.52S45.54,0,101.52,0h219.97
			c55.98,0,101.52,45.54,101.52,101.52S377.46,203.04,321.48,203.04z M101.52,4.23c-53.65,0-97.29,43.64-97.29,97.29
			s43.64,97.29,97.29,97.29h219.97c53.65,0,97.29-43.64,97.29-97.29S375.14,4.23,321.49,4.23H101.52L101.52,4.23z"/>
	</g>
</g>
<g class="st1">
	<path class="st0" d="M170.18,70h7.23l-17.59,55.91h-6.1l-15.76-46.38l-15.69,46.38h-6.1L98.59,70h7.24l13.4,46.61L134.3,70h7.39
		l15.08,46.61L170.18,70z"/>
	<path class="st0" d="M191.33,77.46c-2.36,0-4.19-1.98-4.19-4.26c0-2.29,1.83-4.19,4.19-4.19s4.19,1.9,4.19,4.19
		C195.51,75.48,193.69,77.46,191.33,77.46z M188.13,85.46h6.32v40.44h-6.32V85.46z"/>
	<path class="st0" d="M237.17,91.17V70h6.32v55.91h-6.32v-6.7c-1.6,2.89-4.95,7.62-14.01,7.62c-10.05,0-17.9-9.06-17.9-21.1
		c0-12.42,7.85-21.25,18.66-21.25C230.69,84.47,234.5,87.52,237.17,91.17z M237.55,105.72c0-8.99-5.63-15.92-12.87-15.92
		c-8.76,0-13.09,7.09-13.09,15.92c0,9.06,4.34,15.76,13.09,15.76C231.92,121.48,237.55,114.33,237.55,105.72z"/>
	<path class="st0" d="M273.94,125.9c-5.94,0-11.28-3.2-11.28-12.95V90.79h-10.43v-5.33h8.29c1.83,0,2.9-0.69,2.9-4.49v-5.71h6.32
		v7.01c0,1.29-0.38,2.59-0.92,3.2h11.57v5.33h-11.42v19.42c0,8.23,1.52,10.36,6.39,10.36h5.02v5.33H273.94z"/>
	<path class="st0" d="M324.42,100.31v25.59h-6.32v-24.52c0-6.4-1.9-11.58-9.52-11.58c-7.47,0-11.66,7.47-11.66,14.62v21.48h-6.32V70
		h6.32v20.72c0,0,3.66-6.25,12.8-6.25C316.73,84.47,324.42,89.11,324.42,100.31z"/>
</g>
</svg>
