<?xml version="1.0" encoding="UTF-8"?>
<svg id="Calque_1" xmlns="http://www.w3.org/2000/svg" xmlns:xlink="http://www.w3.org/1999/xlink" version="1.1" viewBox="0 0 616 423">
  <!-- Generator: Adobe Illustrator 29.1.0, SVG Export Plug-In . SVG Version: 2.1.0 Build 142)  -->
  <defs>
    <style>
      .st0, .st1 {
        fill: none;
      }

      .st2 {
        fill: #1d1d1b;
        stroke-width: 3px;
      }

      .st2, .st1 {
        stroke: #fff;
      }

      .st3 {
        clip-path: url(#clippath-1);
      }

      .st4 {
        clip-path: url(#clippath-3);
      }

      .st5 {
        clip-path: url(#clippath-4);
      }

      .st6 {
        clip-path: url(#clippath-2);
      }

      .st7 {
        fill: #fff;
      }

      .st1 {
        stroke-width: .5px;
      }

      .st8 {
        clip-path: url(#clippath);
      }
    </style>
    <clipPath id="clippath">
      <rect class="st0" width="616" height="423"/>
    </clipPath>
    <clipPath id="clippath-1">
      <rect class="st0" width="616" height="423"/>
    </clipPath>
    <clipPath id="clippath-2">
      <rect class="st0" width="616" height="423"/>
    </clipPath>
    <clipPath id="clippath-3">
      <rect class="st0" width="616" height="423"/>
    </clipPath>
    <clipPath id="clippath-4">
      <rect class="st0" width="616" height="423"/>
    </clipPath>
  </defs>
  <g class="st8">
    <g>
      <g class="st3">
        <g>
          <path class="st7" d="M160.7,345.1c71.2,0,128.9-57.7,128.9-128.9s-57.7-128.9-128.9-128.9S31.8,145,31.8,216.2s57.7,128.9,128.9,128.9"/>
          <path d="M160.7,258.8c23.6,0,42.6-19.1,42.6-42.6s-19.1-42.6-42.6-42.6-42.6,19.1-42.6,42.6,19.1,42.6,42.6,42.6"/>
          <path class="st7" d="M160.7,255.4c21.7,0,39.3-17.6,39.3-39.3s-17.6-39.3-39.3-39.3-39.3,17.6-39.3,39.3,17.6,39.3,39.3,39.3"/>
          <path class="st7" d="M590.4,53.5v-9.8h4.5c3.5,0,5.4,1.7,5.4,4.9s-1.9,4.9-5.4,4.9h-4.5ZM588.8,54.9h6.1c4.4,0,7-2.2,7-6.3s-2.6-6.3-7-6.3h-6.1s0,12.6,0,12.6ZM572.8,54.9h1.6v-10.4l9.8,10.4h1.7v-12.6h-1.6v10.5l-9.8-10.5h-1.7v12.6h0ZM560,49.8l3.2-5.8,3.1,5.8s-6.3,0-6.3,0ZM555.5,54.9h1.8l2-3.8h7.8l2,3.8h1.8l-6.8-12.6h-1.7l-6.9,12.6h0ZM543.5,47.7v-4h5.9c1.9,0,2.9.7,2.9,2s-1,2-3,2h-5.9ZM543.5,53.5v-4.4h5.8c2.2,0,3.4.7,3.4,2.2s-1.2,2.2-3.3,2.2h-6,0ZM541.9,54.9h7.7c3,0,4.8-1.3,4.8-3.5s-1.1-2.7-2.7-3c1.4-.3,2.3-1.3,2.3-2.8,0-2.1-1.7-3.3-4.2-3.3h-7.8v12.6h0Z"/>
          <path class="st7" d="M546.9,39.1c3.4,0,5.3-1.6,5.3-4.3s-1.8-4.2-5.1-4.2-3,.6-3.6,1.2l.7-4.1h7v-1.4h-8.3l-1.2,6.8,1.5.5c.6-.9,1.7-1.7,3.7-1.7s3.7,1,3.7,2.9-1.3,2.9-3.8,2.9-3.3-.9-3.8-2.2l-1.6.5c.7,1.5,2.3,3.1,5.4,3.1"/>
          <path class="st7" d="M462.7,363.3h0c0-1.5.7-2.2,1.8-2.2s1.8.7,1.8,2.1h0c0,1.5-.7,2.2-1.8,2.2s-1.8-.7-1.8-2.1h0ZM464.5,366.1c1.6,0,2.7-1.2,2.7-2.8h0c0-1.7-1-2.9-2.7-2.9s-2.7,1.2-2.7,2.8h0c0,1.7,1,2.9,2.7,2.9h0ZM456.3,363.3h0c0-1.5.7-2.2,1.8-2.2s1.8.7,1.8,2.1h0c0,1.5-.7,2.2-1.8,2.2s-1.8-.7-1.8-2.1h0ZM458.1,366.1c1.6,0,2.7-1.2,2.7-2.8h0c0-1.7-1-2.9-2.7-2.9s-2.7,1.2-2.7,2.8h0c0,1.7,1,2.9,2.7,2.9h0ZM451,366h3.6v-.7h-1.4v-4.8h-.8l-1.6.9v.9l1.5-.9v4h-1.4v.7h0ZM445.7,366.1c1.7,0,2.5-.6,2.5-1.6h0c0-2.3-4.3-1-4.3-2.6h0c0-.5.4-.9,1.5-.9s1.7.6,1.8,1.2h.9c-.1-1-.8-1.9-2.6-1.9s-2.4.7-2.4,1.6h0c0,2.2,4.3,1,4.3,2.5h0c0,.5-.5.9-1.7.9s-1.8-.3-2-1.2h-.9c.2,1.2,1,1.9,2.8,1.9h0Z"/>
          <path class="st7" d="M415,366.1c1.5,0,2.5-.8,2.5-2h0c0-1.2-.9-1.9-2.3-1.9s-1.4.2-1.7.6v-.6c0,0,.2-1.1.2-1.1h3.3v-.8h-1.1c0,0-2.9,0-2.9,0l-.3,3h.8c.2-.4.7-.7,1.5-.7s1.5.5,1.5,1.2h0c0,.9-.6,1.4-1.6,1.4s-1.4-.3-1.5-.9h-.9c.2,1,1,1.6,2.4,1.6M407.8,362h0c0-.5.4-.9,1.4-.9s1.4.4,1.4.9h0c0,.5-.4.9-1.4.9s-1.4-.4-1.4-.9M407.7,364.5h0c0-.6.5-1,1.5-1s1.5.4,1.5,1h0c0,.6-.5,1-1.5,1s-1.5-.3-1.5-1ZM409.2,366.1c1.4,0,2.4-.6,2.4-1.6h0c0-.8-.6-1.2-1.3-1.4.7-.1,1.2-.6,1.2-1.2h0c0-.9-.8-1.5-2.3-1.5s-2.3.6-2.3,1.5h0c0,.7.5,1.1,1.2,1.3-.7.1-1.3.6-1.3,1.4h0c0,1,1,1.6,2.4,1.6M400.9,366.1c1.7,0,2.8-.8,3-1.9h-.9c-.2.7-1,1.2-2.1,1.2s-2.4-.8-2.4-2.1h0c0-1.4,1-2.2,2.4-2.2s1.9.5,2.1,1.2h.9c-.2-1.1-1.3-1.9-3-1.9s-3.2,1.2-3.2,2.8h0c0,1.7,1.2,2.9,3.2,2.9h0Z"/>
          <path class="st7" d="M511,366.1c1.5,0,2.5-.8,2.5-2h0c0-1.2-.9-1.9-2.3-1.9s-1.4.2-1.7.6v-.6c0,0,.2-1.1.2-1.1h3.3v-.8h-1.1c0,0-2.9,0-2.9,0l-.3,3h.8c.2-.4.7-.7,1.5-.7s1.5.5,1.5,1.2h0c0,.9-.6,1.4-1.6,1.4s-1.4-.3-1.5-.9h-.9c.2,1,1,1.6,2.4,1.6M504.1,366h3.6v-.7h-1.4v-4.8h-.8l-1.6.9v.9l1.5-.9v4h-1.4v.7h0ZM499.8,366h3.6v-.7h-1.4v-4.8h-.8l-1.6.9v.9l1.5-.9v4h-1.4v.7h0ZM492,366h4.9v-.7h-4v-1.7h3.7v-.7h-3.7v-1.7h4v-.7h-4.9v5.5h0Z"/>
          <path class="st7" d="M562.5,366.1c1.5,0,2.5-.8,2.5-2h0c0-1.2-.9-1.9-2.3-1.9s-1.4.2-1.7.6v-.6c0,0,.2-1.1.2-1.1h3.3v-.8h-1.1c0,0-2.9,0-2.9,0l-.3,3h.8c.2-.4.7-.7,1.5-.7s1.5.5,1.5,1.2h0c0,.9-.6,1.4-1.6,1.4s-1.4-.3-1.5-.9h-.9c.2,1,1,1.6,2.4,1.6M554.4,365.3v.7h4.7v-.7h-3.5c1.4-.7,3.3-1.6,3.3-3.2h0c0-1.1-.8-1.8-2.3-1.8s-2.2.5-2.4,1.8h.9c0-.7.6-1.1,1.5-1.1s1.4.4,1.4,1.1h0c0,1.3-2.2,2.3-3.8,3.1h0ZM550.2,366h3.6v-.7h-1.4v-4.8h-.8l-1.6.9v.9l1.5-.9v4h-1.4v.7h0ZM542.4,366h4.9v-.7h-4v-1.7h3.7v-.7h-3.7v-1.7h4v-.7h-4.9v5.5h0ZM538.1,366.1c1.7,0,2.8-.7,2.8-2.1v-3.5h-.9v3.4c0,1-.7,1.5-1.9,1.5s-1.9-.5-1.9-1.5v-3.4h-.8v3.5c0,1.5,1.1,2.1,2.7,2.1Z"/>
          <path class="st7" d="M370.5,366.1c1.5,0,2.5-.8,2.5-2h0c0-1.2-.9-1.9-2.3-1.9s-1.4.2-1.7.6v-.6c0,0,.2-1.1.2-1.1h3.3v-.8h-1.1c0,0-2.9,0-2.9,0l-.3,3h.8c.2-.4.7-.7,1.5-.7s1.5.5,1.5,1.2h0c0,.9-.6,1.4-1.6,1.4s-1.4-.3-1.5-.9h-.9c.2,1,1,1.6,2.4,1.6M364.1,366h.8l2.5-4.9v-.6h-4.5v.8h1.3c0-.1,2.2-.1,2.2-.1l-2.4,4.8h0ZM357.5,366.1c1.7,0,2.8-.8,3-1.9h-.9c-.2.7-1,1.2-2.1,1.2s-2.4-.8-2.4-2.1h0c0-1.4,1-2.2,2.4-2.2s1.9.5,2.1,1.2h.9c-.2-1.1-1.3-1.9-3-1.9s-3.2,1.2-3.2,2.8h0c0,1.7,1.2,2.9,3.2,2.9h0ZM350.2,366.1c1.6,0,2.8-.7,2.8-2.1v-3.5h-.9v3.4c0,1-.7,1.5-1.9,1.5s-1.9-.5-1.9-1.5v-3.4h-.9v3.5c0,1.5,1.1,2.1,2.7,2.1h0Z"/>
        </g>
      </g>
      <line class="st1" x1="308" y1="78" x2="308" y2="366"/>
      <line class="st1" x1="572.6" y1="87" x2="337.6" y2="87"/>
      <line class="st1" x1="572.6" y1="96.9" x2="337.6" y2="96.9"/>
      <line class="st1" x1="572.6" y1="106.7" x2="337.6" y2="106.7"/>
      <line class="st1" x1="572.6" y1="116.5" x2="337.6" y2="116.5"/>
      <line class="st1" x1="572.6" y1="126.4" x2="337.6" y2="126.4"/>
      <line class="st1" x1="572.6" y1="136.2" x2="337.6" y2="136.2"/>
      <line class="st1" x1="572.6" y1="146.1" x2="337.6" y2="146.1"/>
      <line class="st1" x1="572.6" y1="155.9" x2="337.6" y2="155.9"/>
      <line class="st1" x1="572.6" y1="165.7" x2="337.6" y2="165.7"/>
      <line class="st1" x1="572.6" y1="175.6" x2="337.6" y2="175.6"/>
      <line class="st1" x1="572.6" y1="185.4" x2="337.6" y2="185.4"/>
      <line class="st1" x1="572.6" y1="195.3" x2="337.6" y2="195.3"/>
      <line class="st1" x1="572.6" y1="205.1" x2="337.6" y2="205.1"/>
      <line class="st1" x1="572.6" y1="214.9" x2="337.6" y2="214.9"/>
      <line class="st1" x1="572.6" y1="224.8" x2="337.6" y2="224.8"/>
      <line class="st1" x1="572.6" y1="234.6" x2="337.6" y2="234.6"/>
      <line class="st1" x1="572.6" y1="244.4" x2="337.6" y2="244.4"/>
      <line class="st1" x1="572.6" y1="254.3" x2="337.6" y2="254.3"/>
      <line class="st1" x1="572.6" y1="264.1" x2="337.6" y2="264.1"/>
      <line class="st1" x1="572.6" y1="274" x2="337.6" y2="274"/>
      <line class="st1" x1="572.6" y1="283.8" x2="337.6" y2="283.8"/>
      <line class="st1" x1="572.6" y1="293.6" x2="337.6" y2="293.6"/>
      <line class="st1" x1="572.6" y1="303.5" x2="337.6" y2="303.5"/>
      <line class="st1" x1="572.6" y1="313.3" x2="337.6" y2="313.3"/>
      <line class="st1" x1="572.6" y1="323.2" x2="337.6" y2="323.2"/>
      <line class="st1" x1="572.6" y1="333" x2="337.6" y2="333"/>
      <line class="st1" x1="572.6" y1="342.9" x2="337.6" y2="342.9"/>
      <g class="st6">
        <g>
          <path class="st7" d="M438.4,40.4v-10.4h9.9c4.9,0,7.1,1.9,7.1,5.2s-2.4,5.2-7.3,5.2h-9.6,0ZM434.9,54.9h3.6v-11.4h9.8l7.6,11.4h4.3l-8.2-11.8c4.5-.9,7.1-3.8,7.1-8s-3.7-8.2-10.3-8.2h-13.8s0,28,0,28ZM406.1,54.9h23.7v-3.1h-20.1v-9.4h17.9v-3.1h-17.9v-9.4h20.1v-3.1h-23.6s0,28,0,28ZM375,51.8v-21.8h10c7.8,0,12.1,3.8,12.1,10.9s-4.3,10.9-12.1,10.9h-10ZM371.4,54.9h13.6c9.8,0,15.6-5,15.6-14s-5.7-14-15.6-14h-13.6v28ZM345.1,40.4v-10.4h9.9c4.9,0,7.1,1.9,7.1,5.2s-2.4,5.2-7.3,5.2h-9.6,0ZM341.5,54.9h3.6v-11.4h9.8l7.6,11.4h4.3l-8.2-11.8c4.5-.9,7.1-3.8,7.1-8s-3.7-8.2-10.3-8.2h-13.8s0,28,0,28ZM304.4,40.9c0-6.5,5.3-11.4,14-11.4s14.1,4.9,14.1,11.4-5.3,11.4-14.1,11.4-14-4.9-14-11.4M318.4,55.4c10.7,0,17.6-6.3,17.6-14.5s-6.9-14.5-17.6-14.5-17.6,6.3-17.6,14.5,6.9,14.5,17.6,14.5M281.8,55.4c7.8,0,12.8-3.2,15.4-8.2l-3.4-1.1c-2.2,4.1-6.1,6.2-12,6.2s-13.1-4.4-13.1-11.4,5.6-11.4,13.1-11.4,9.8,2.1,12,6.2l3.4-1.1c-2.6-4.9-7.7-8.2-15.4-8.2s-16.8,6-16.8,14.5,6.8,14.5,16.8,14.5M237,46.5h24.8v-2.8h-24.8v2.8ZM210.1,54.9h23.7v-3.1h-20.1v-9.4h17.9v-3.1h-17.9v-9.4h20.1v-3.1h-23.6s0,28,0,28ZM189.6,54.9h3.6v-24.9h12.2v-3.1h-28v3.1h12.2v24.9h0ZM157.3,54.9h3.6v-24.9h12.2v-3.1h-28v3.1h12.2v24.9h0ZM117.1,54.9h23.7v-3.1h-20.1v-9.4h17.9v-3.1h-17.9v-9.4h20.1v-3.1h-23.6s0,28,0,28ZM99.6,55.4c8,0,12-3.2,12-8,0-10.4-20.6-6.8-20.6-13.5s3.4-4.5,8.2-4.5,7.9,1.8,9.1,4.9l3.4-1c-1.8-4.5-5.8-6.9-12.3-6.9s-11.9,3-11.9,7.6c0,9.8,20.6,6,20.6,13.4s-2.4,4.8-8.4,4.8-8.7-1.8-10-5.7l-3.2,1.1c1.4,4.3,5.1,7.7,13.1,7.7M60.2,43.5l7-13,6.9,13h-13.9ZM50,54.9h3.9l4.5-8.4h17.3l4.5,8.4h4l-15.2-28h-3.7s-15.3,28-15.3,28ZM32.6,55.4c7.8,0,12.8-3.2,15.4-8.2l-3.4-1.1c-2.2,4.1-6.1,6.2-12,6.2s-13.1-4.4-13.1-11.4,5.6-11.4,13.1-11.4,9.8,2.1,12,6.2l3.4-1.1c-2.6-4.9-7.7-8.2-15.4-8.2s-16.8,6-16.8,14.5,6.8,14.5,16.8,14.5"/>
          <path d="M160.7,251.1c19.3,0,34.9-15.6,34.9-34.9s-15.6-34.9-34.9-34.9-34.9,15.6-34.9,34.9,15.6,34.9,34.9,34.9"/>
          <path d="M155.5,99c-6.4,0-12,5.1-12.6,11.5l-3.6,37.2c-.6,6.3,4.1,11.5,10.4,11.5h21.9c6.4,0,11-5.1,10.4-11.5l-3.6-37.2c-.6-6.3-6.2-11.5-12.6-11.5h-10.4Z"/>
          <path d="M74.2,295.4c-4.5-4.5-4.9-12.1-.8-17l23.8-28.8c4.1-4.9,11-5.2,15.5-.7l15.5,15.5c4.5,4.5,4.2,11.4-.7,15.5l-28.8,23.8c-4.9,4-12.5,3.7-17-.8l-7.3-7.3h0Z"/>
          <path d="M247.2,295.4c4.5-4.5,4.9-12.1.8-17l-23.8-28.8c-4.1-4.9-11-5.2-15.5-.7l-15.5,15.5c-4.5,4.5-4.2,11.4.7,15.5l28.8,23.8c4.9,4,12.5,3.7,17-.8l7.3-7.3h0Z"/>
        </g>
      </g>
      <rect x="158.9" y="176.9" width="3.6" height="11.3"/>
      <rect x="158.9" y="242.6" width="3.6" height="11.3"/>
      <rect class="st7" x="158.9" y="176.9" width="3.6" height="11.3"/>
      <rect class="st7" x="187.9" y="213.6" width="11.3" height="3.6"/>
      <rect x="131.7" y="236.9" width="11.3" height="3.6" transform="translate(-128.5 167.1) rotate(-45)"/>
      <rect class="st7" x="158.9" y="242.6" width="3.6" height="11.3"/>
      <rect class="st7" x="122.1" y="213.6" width="11.3" height="3.6"/>
      <rect x="178.2" y="190.4" width="11.3" height="3.6" transform="translate(-82 186.3) rotate(-45)"/>
      <rect class="st7" x="131.7" y="236.9" width="11.3" height="3.6" transform="translate(-128.5 167.1) rotate(-45)"/>
      <rect class="st7" x="135.6" y="186.5" width="3.6" height="11.3" transform="translate(-95.7 153.5) rotate(-45)"/>
      <rect class="st7" x="178.2" y="190.4" width="11.3" height="3.6" transform="translate(-82 186.3) rotate(-45)"/>
      <rect class="st7" x="182.1" y="233" width="3.6" height="11.3" transform="translate(-114.9 200) rotate(-45)"/>
      <g class="st4">
        <g>
          <path class="st7" d="M160.7,220.7c2.5,0,4.5-2,4.5-4.6s-2-4.5-4.5-4.5-4.5,2-4.5,4.5,2,4.6,4.5,4.6"/>
          <rect class="st7" x="354.9" y="86.8" width="10.4" height="256.3" rx="2.3" ry="2.3"/>
          <rect class="st7" x="402.4" y="86.8" width="10.4" height="256.3" rx="2.3" ry="2.3"/>
          <rect class="st7" x="449.9" y="86.8" width="10.4" height="256.3" rx="2.3" ry="2.3"/>
          <rect class="st7" x="497.4" y="86.8" width="10.4" height="256.3" rx="2.3" ry="2.3"/>
          <rect class="st7" x="544.9" y="86.8" width="10.4" height="256.3" rx="2.3" ry="2.3"/>
          <rect class="st7" x="354.9" y="186" width="10.4" height="57.9" rx="2.3" ry="2.3"/>
          <rect class="st2" x="354.9" y="186" width="10.4" height="57.9" rx="2.3" ry="2.3"/>
          <rect class="st7" x="402.4" y="186" width="10.4" height="57.9" rx="2.3" ry="2.3"/>
          <rect class="st2" x="402.4" y="186" width="10.4" height="57.9" rx="2.3" ry="2.3"/>
          <rect class="st7" x="449.9" y="186" width="10.4" height="57.9" rx="2.3" ry="2.3"/>
          <rect class="st2" x="449.9" y="186" width="10.4" height="57.9" rx="2.3" ry="2.3"/>
          <rect class="st7" x="497.4" y="186" width="10.4" height="57.9" rx="2.3" ry="2.3"/>
          <rect class="st2" x="497.4" y="186" width="10.4" height="57.9" rx="2.3" ry="2.3"/>
          <rect class="st7" x="544.9" y="186" width="10.4" height="57.9" rx="2.3" ry="2.3"/>
          <rect class="st2" x="544.9" y="186" width="10.4" height="57.9" rx="2.3" ry="2.3"/>
        </g>
      </g>
      <line class="st1" x1="602" y1="387.1" x2="14" y2="387.1"/>
      <line class="st1" x1="602" y1="408.9" x2="14" y2="408.9"/>
      <g class="st5">
        <g>
          <path class="st7" d="M596,402.2h1.2v-3.1c0-1.3.7-1.8,1.5-1.8s1.2.2,1.2,1.3v3.6h1.2v-3.8c0-1.7-1.1-2.3-2.1-2.3s-1.5.3-1.8,1.1v-3.5h-1.2v8.5h0ZM593.6,402.2h1v-1h-.9c-.4,0-.4-.2-.4-.6v-3.3h1.4v-1h-1.9c.5-.2.8-.8.8-1.6h-1.2c0,.7-.1,1.3-.6,1.6h-.9v1h1.2v3.3c0,1.4.6,1.6,1.5,1.6h0ZM585.3,399.3h0c0-1.5.7-2.2,1.7-2.2s1.7.5,1.7,2.1h0c0,1.7-.8,2.2-1.7,2.2s-1.7-.6-1.7-2.1M586.8,402.4c.8,0,1.5-.3,1.8-.7v.6h1.2v-8.5h-1.2v3.1c-.3-.4-1-.7-1.8-.7-1.6,0-2.8,1.2-2.8,3.1h0c0,1.9,1.2,3.1,2.8,3.1h0ZM581.2,394.8c0,.5.4.8.8.8s.8-.3.8-.8-.4-.8-.8-.8-.8.3-.8.8M581.3,402.2h1.2v-5.9h-1.2v5.9ZM573.3,402.2h1.8l.9-4.5.9,4.5h1.8l1.5-5.9h-1.2l-1.3,5-1-5h-1.6l-1,5-1.2-5h-1.2l1.5,5.9ZM565.6,402.4c1.9,0,3.1-1.3,3.1-3.1h0c0-1.8-1.2-3-2.8-3s-1.4.2-1.8.8l.2-.9.2-1.4h3.6v-1.2h-1.1c0,.1-3.5.1-3.5.1l-.5,4.5h1.3c.3-.6.9-.9,1.5-.9,1.1,0,1.7.7,1.7,1.9h0c0,1.4-.7,2.1-1.8,2.1s-1.5-.4-1.6-1.3h-1.2c.2,1.6,1.4,2.4,2.9,2.4h0ZM556.1,402.2h4.5v-1h-1.6v-7.4h-1.3l-1.6.9v1.6l1.7-1.1v6.1h-1.6v1h0ZM548.6,402.2h4.5v-1h-1.6v-7.4h-1.3l-1.6.9v1.6l1.7-1.1v6.1h-1.6v1h0ZM538.5,394.1h-.9v6.5h5.3l-1.2,1.2h1.1l1.6-1.6-1.6-1.6h-1.1l1.2,1.2h-4.3v-5.7ZM528.5,402.2h1v-1h-.9c-.4,0-.4-.2-.4-.6v-3.3h1.4v-1h-1.9c.5-.2.8-.8.8-1.6h-1.2c0,.7-.1,1.3-.6,1.6h-.9v1h1.2v3.3c0,1.4.6,1.6,1.5,1.6h0ZM519.7,402.2h1.2v-3.1c0-1.3.7-1.8,1.5-1.8s1.2.2,1.2,1.3v3.6h1.2v-3.8c0-1.7-1.1-2.3-2.1-2.3s-1.5.3-1.8,1.1v-3.5h-1.2v8.5h0ZM513.2,399.1h0c0-1.4.8-2,1.7-2s1.7.6,1.7,2h0c0,1.4-.8,2-1.7,2s-1.7-.6-1.7-2h0ZM515,405c2.4,0,2.8-1.7,2.8-2.7v-5.9h-1.2v.6c-.3-.5-1.1-.8-1.9-.8-1.6,0-2.7,1.1-2.7,3h0c0,2,1.2,3,2.7,3s1.5-.3,1.9-.8v1.1c0,1.4-.9,1.6-1.5,1.6-.9,0-1.7-.4-1.7-1.4h-1.2c0,1.1.7,2.4,2.8,2.4h0ZM509.1,394.8c0,.5.4.8.8.8s.8-.3.8-.8-.4-.8-.8-.8-.8.3-.8.8M509.3,402.2h1.2v-5.9h-1.2v5.9ZM503.2,398.6c.2-1,.8-1.5,1.7-1.5s1.6.7,1.6,1.5h-3.3,0ZM504.9,402.4c1.2,0,2.6-.6,2.8-2h-1.2c-.1.8-.8,1-1.5,1-1.1,0-1.7-.6-1.8-1.8h4.6c.1-2.2-1.1-3.5-2.8-3.5s-3,1.4-3,3.1h0c0,2,1.3,3.1,3,3.1h0ZM494.5,402.2h1.8l.9-4.5.9,4.5h1.8l1.5-5.9h-1.2l-1.3,5-1-5h-1.6l-1,5-1.2-5h-1.2l1.5,5.9h0ZM487.5,401l2.4-5c.1.5.2,1.1.2,2h0c0,2.5-.6,3.4-1.6,3.4s-.7-.1-1-.4h0ZM486.8,398h0c0-2.5.7-3.4,1.7-3.4s.6.1.9.4l-2.4,5c-.1-.5-.2-1.1-.2-1.9h0ZM488.4,402.4c1.9,0,2.9-1.8,2.9-4.4h0c0-2.7-1-4.5-2.9-4.5s-2.9,1.8-2.9,4.4h0c0,2.7,1,4.5,2.9,4.5M480,401l2.4-5c.1.5.2,1.1.2,2h0c0,2.5-.6,3.4-1.6,3.4s-.7-.1-1-.4h0ZM479.2,398h0c0-2.5.7-3.4,1.7-3.4s.6.1.9.4l-2.4,5c-.1-.5-.2-1.1-.2-1.9h0ZM480.9,402.4c1.9,0,2.9-1.8,2.9-4.4h0c0-2.7-1-4.5-2.9-4.5s-2.9,1.8-2.9,4.4h0c0,2.7,1,4.5,2.9,4.5M471.2,402.2h4.5v-1h-1.6v-7.4h-1.3l-1.6.9v1.6l1.6-1.1v6.1h-1.6v1h0ZM461.2,394.1h-.9v6.5h5.3l-1.2,1.2h1.1l1.6-1.6-1.6-1.6h-1.1l1.2,1.2h-4.3v-5.7Z"/>
          <path class="st7" d="M142.4,399.2l2.8-4.4v4.4h-2.8ZM145.2,402.2h1.2v-2h1.4v-1h-1.4v-5.4h-1.8l-3.5,5.6v.9h4.1v2h0ZM136.1,400.8l2.4-5.1c.2.5.3,1.2.3,2.2h0c0,2.5-.6,3.4-1.6,3.4s-.8-.2-1.1-.5M135.5,398h0c0-2.5.7-3.4,1.7-3.4s.5,0,.8.2l-2.3,4.8c-.1-.5-.1-1-.1-1.7h0ZM135,401.2h0c.5.8,1.2,1.2,2.2,1.2,1.9,0,2.9-1.8,2.9-4.4h0c0-2.7-.9-4.5-2.9-4.5s-2.9,1.8-2.9,4.4h0c0,1.4.2,2.5.7,3.2h0ZM125.2,402.2h1.2v-3.1c0-1.3.7-1.8,1.5-1.8s1.2.2,1.2,1.3v3.6h1.2v-3.8c0-1.7-1.1-2.3-2.1-2.3s-1.5.3-1.8,1.1v-.9h-1.2v5.9h0ZM119.4,400.6h0c0-.6.5-.9,1.2-.9l1.7-.2v.4c0,1.1-.8,1.5-1.6,1.5s-1.2-.3-1.2-.8h0ZM120.4,402.4c.7,0,1.5-.3,1.8-1v.8h1.2v-3.9c0-1.6-1.2-2.2-2.4-2.2s-2.4.6-2.5,2h1.2c0-.6.5-1,1.3-1s1.2.5,1.2,1.1v.4l-1.8.2c-1.3.1-2.1.7-2.1,1.8h0c0,1.1,1,1.8,2.2,1.8h0ZM115.5,402.2h1.2v-8.5h-1.2v8.5ZM109.4,399.3h0c0-1.6.9-2.1,1.7-2.1s1.7.6,1.7,2.1h0c0,1.5-.7,2.1-1.7,2.1s-1.7-.5-1.7-2.1ZM108.2,404.8h1.2v-3.1c.3.4,1.1.7,1.9.7,1.6,0,2.7-1.2,2.7-3.1h0c0-1.9-1.3-3.1-2.8-3.1s-1.6.5-1.8.9v-.8h-1.2v8.5h0ZM101.6,402.2h1.2v-2.7l2.8,2.7h1.5l-3.1-3,2.8-3h-1.5l-2.6,2.7v-5.3h-1.2v8.5h0ZM97.3,402.2h1.2v-2.9c0-1,.4-1.8,1.3-1.8h.8c0,.1,0-1.2,0-1.2h-.7c-.5,0-1.1.2-1.3,1v-1h-1.2v5.9h0ZM91,399.3h0c0-1.4.8-2.1,1.8-2.1s1.8.7,1.8,2.1h0c0,1.4-.8,2.1-1.8,2.1s-1.8-.7-1.8-2.1M92.7,402.4c1.6,0,3-1.1,3-3.1h0c0-2.1-1.4-3.1-3-3.1s-3,1.1-3,3.1h0c0,2.1,1.4,3.1,3,3.1M80.3,402.2h2l1.5-6.5,1.5,6.5h2l1.8-8.5h-1.3l-1.5,7.4-1.7-7.4h-1.6l-1.7,7.4-1.5-7.4h-1.3s1.8,8.5,1.8,8.5ZM72.6,402.2h1.2v-2.9c0-1,.4-1.8,1.3-1.8h.8c0,.1,0-1.2,0-1.2h-.7c-.5,0-1.1.2-1.3,1v-1h-1.2v5.9h0ZM66.6,398.6c.2-1,.8-1.5,1.7-1.5s1.6.7,1.6,1.5h-3.3,0ZM68.3,402.4c1.2,0,2.6-.6,2.8-2h-1.2c-.2.8-.8,1-1.5,1-1.1,0-1.7-.6-1.8-1.8h4.6c0-2.2-1.1-3.5-2.8-3.5s-2.9,1.4-2.9,3.1h0c0,2,1.3,3.1,3,3.1h0ZM58.7,402.2h1.2v-3.1c0-1.3.7-1.8,1.5-1.8s1.2.2,1.2,1.3v3.6h1.2v-3.8c0-1.7-1.1-2.3-2.1-2.3s-1.5.3-1.8,1.1v-.9h-1.2v5.9h0ZM51.7,402.2h1.2v-3.1c0-1.3.7-1.8,1.5-1.8s1.2.2,1.2,1.3v3.6h1.2v-3.8c0-1.7-1.1-2.3-2.1-2.3s-1.5.3-1.8,1.1v-.9h-1.2v5.9h0ZM45.9,400.6h0c0-.6.5-.9,1.2-.9l1.7-.2v.4c0,1.1-.8,1.5-1.6,1.5s-1.2-.3-1.2-.8h0ZM46.9,402.4c.7,0,1.5-.3,1.8-1v.8h1.2v-3.9c0-1.6-1.2-2.2-2.4-2.2s-2.4.6-2.5,2h1.2c0-.6.5-1,1.3-1s1.2.5,1.2,1.1v.4l-1.8.2c-1.3.1-2.1.7-2.1,1.8h0c0,1.1,1,1.8,2.2,1.8h0ZM42,402.2h1.2v-8.5h-1.2v8.5ZM35.9,398v-3.2h2.2c.9,0,1.4.5,1.4,1.5h0c0,1.3-.7,1.7-1.4,1.7h-2.2ZM34.7,402.2h1.2v-3.2h2.2c1.5,0,2.6-1.1,2.6-2.7h0c0-1.6-1-2.7-2.6-2.7h-3.5v8.5h0ZM25.8,402.2h1.2v-4h3.6v-1h-3.6v-2.4h4.1v-1h-5.3v8.5h0ZM15.1,402.2h1.2v-7.3l2.2,7.3h1.8l2.2-7.3v7.3h1.2v-8.5h-2.1l-2.2,7.2-2.2-7.2h-2.1s0,8.5,0,8.5Z"/>
        </g>
      </g>
      <line class="st1" x1="602" y1="14" x2="14" y2="14"/>
    </g>
  </g>
</svg>